<?xml version="1.0" encoding="utf-8"?>
<!-- Generator: Adobe Illustrator 27.9.1, SVG Export Plug-In . SVG Version: 6.00 Build 0)  -->
<svg version="1.1" id="abw" xmlns="http://www.w3.org/2000/svg" xmlns:xlink="http://www.w3.org/1999/xlink" x="0px" y="0px"
	 viewBox="0 0 480 320" enable-background="new 0 0 480 320" xml:space="preserve">
<g>
	<path fill="#418FDE" d="M0,18c160,45.5,319.9-45.5,479.9,0c0,94.9,0,189.8,0,284.7c-160-45.5-319.9,45.5-479.9,0
		C0,207.8,0,112.9,0,18z"/>
</g>
<g>
	<path fill="#FFD100" d="M0,207.8c160,7.6,319.9-7.6,479.9,0c0,5.3,0,10.5,0,15.8c-160-7.6-319.9,7.6-479.9,0c0,5.3,0,10.5,0,15.8
		c160,7.6,319.9-7.6,479.9,0c0,5.3,0,10.5,0,15.8c-160-7.6-319.9,7.6-479.9,0C0,239.4,0,223.6,0,207.8z"/>
</g>
<path fill="#FFFFFF" d="M71.7,53.5L59.1,94.2l-40.7,12.6l40.7,12.6L71.7,160l12.6-40.7l40.7-12.6L84.2,94.2L71.7,53.5z"/>
<path fill="#EF3340" d="M71.7,65.6L81.4,97l31.5,9.7l-31.5,9.7l-9.7,31.5L62,116.5l-31.5-9.7L62,97L71.7,65.6z"/>
</svg>
