<?xml version="1.0" encoding="utf-8"?>
<!-- Generator: Adobe Illustrator 28.2.0, SVG Export Plug-In . SVG Version: 6.00 Build 0)  -->
<svg version="1.1" id="ago" xmlns="http://www.w3.org/2000/svg" xmlns:xlink="http://www.w3.org/1999/xlink" x="0px" y="0px"
	 viewBox="0 0 480 320" enable-background="new 0 0 480 320" xml:space="preserve">
<path fill="#BC2035" d="M0,300c160,44.8,320-44.8,480,0c0-93.3,0-186.7,0-280C320-24.8,160,64.8,0,20C0,113.3,0,206.7,0,300z"/>
<path fill="#010101" d="M0,300c160,44.8,320-44.8,480,0c0-46.7,0-93.4,0-140.1c-160-44.8-320,44.8-480,0C0,206.6,0,253.3,0,300z"/>
<g id="crest">
	<path fill="#F0D531" d="M218.6,158.2c4.9-4.3,9.9-8.5,14.8-12.8c4.9,2.9,9.9,5.8,14.8,8.7c-1.9-5.5-3.8-11.1-5.6-16.6
		c4.9-4.3,9.9-8.6,14.8-12.9c-6.1,0.8-12.2,1.7-18.3,2.5c-1.9-5.5-3.8-11.1-5.7-16.6c-1.9,6.1-3.8,12.1-5.7,18.2
		c-6.1,0.8-12.2,1.7-18.3,2.5c4.9,2.9,9.9,5.9,14.8,8.8C222.4,146.1,220.5,152.1,218.6,158.2z"/>
	<path fill="#F0D531" d="M312.3,231.9c-2.1-3.3-4.8-5.6-8.3-8.3c-3.5-2.7-8.4-5.5-11.9-8.6c-2.3,2.9-4.5,5.8-6.8,8.8
		c-0.3,0.4-0.2,1.2,0.1,1.2c7.7,0.3,10,2.8,13.1,5.1c4.1,3.6,5.8,8.4,8.5,10C312,243,315.5,236.8,312.3,231.9 M294.4,221.2
		c-0.4,0.1-0.9-0.3-0.9-0.8c0-0.6,0.5-1,0.9-1.1c0.6-0.1,1,0.3,1,0.8C295.4,220.7,295,221.1,294.4,221.2 M301.4,226.4
		c-0.5,0.1-0.9-0.3-0.9-0.9c0-0.5,0.4-0.9,0.9-1c0.5-0.1,1,0.3,1,0.8C302.3,225.9,301.9,226.4,301.4,226.4 M307.5,231.9
		c-0.6,0.1-1-0.3-1-0.8c0-0.6,0.4-1,1-1.1c0.5-0.1,0.9,0.2,0.9,0.9C308.4,231.4,308,231.9,307.5,231.9"/>
	<path fill="#F0D531" d="M251.2,210.1c-5.6,2.7-11.5,4.6-17.8,5.4c-13.2,1.8-25-1.4-34.4-8c-2.7,3.6-5.3,7.2-8,10.7
		c3.4,2.4,7,4.4,10.8,6c-0.9,1.8-1.8,3.6-2.7,5.4c4.2,1.7,8.6,3,13.1,3.7c0.5-1.9,1.1-3.8,1.6-5.7c4.1,0.7,8.5,1,12.9,0.9
		c-0.2,1.9-0.4,3.8-0.5,5.6c4.7-0.2,9.5-0.9,14.3-2c-0.2-1.8-0.4-3.7-0.6-5.5c4.5-1,8.8-2.5,12.9-4.3c0.5,1.7,1.1,3.4,1.7,5.1
		c2.3-1,4.4-2.1,6.7-3.3c-1-3.7-2-7.4-3-11C255.9,212.3,253.5,211.2,251.2,210.1z"/>
	<path fill="#F0D531" d="M288,153.6c0,16.7-7.5,32.5-19.3,44.2c5.1,2.9,10.2,5.8,15.3,8.7c2-2.3,3.9-4.5,5.7-6.8
		c-1.4-1-2.9-2-4.3-3.1c2.8-3.7,5.2-7.7,7.3-11.9c1.6,0.7,3.3,1.5,4.9,2.2c2.3-4.5,4.1-9.1,5.5-13.8c-1.8-0.4-3.6-0.7-5.3-1.1
		c1.3-4.3,2.1-8.7,2.5-13.2c1.9,0,3.7-0.1,5.6-0.1c0.5-4.7,0.5-9.6,0-14.3c-1.9,0.4-3.7,0.8-5.6,1.2c-0.4-4.4-1.3-8.6-2.6-12.6
		c1.8-0.7,3.6-1.5,5.4-2.2c-1.4-4.4-3.2-8.6-5.5-12.6c-1.7,1.1-3.3,2.2-5,3.3c-2.1-3.6-4.6-7-7.4-10c1.5-1.4,2.9-2.8,4.4-4.3
		c-3-3.3-6.4-6.2-10.1-8.8c-1.2,1.7-2.4,3.4-3.7,5.1c-3.4-2.3-7.1-4.2-11-5.8c0.9-1.9,1.8-3.7,2.8-5.6c-4.2-1.6-8.6-2.9-13.2-3.6
		c-0.6,2-1.1,3.9-1.7,5.9c-4-0.7-8.2-0.9-12.5-0.7c-0.4,4.2-0.9,8.4-1.3,12.6C266.5,105.1,288,125.3,288,153.6"/>
	<path fill="#F0D531" d="M266.7,205.4c-14.4-8.3-29.3-16.7-41.8-26.7c-0.1-0.1-0.1-0.2,0-0.4c0.1-0.1,0.3-0.2,0.4-0.1
		c12.5,10.1,27.4,18.4,41.8,26.6c7.1,4,14.5,8.3,21.5,12.7c0.7-0.9,1.5-1.9,2.2-2.8c-24-14.3-80.8-45.5-81.5-59.9
		c-11.2,23.4,3,34.5,12.1,38.5c23.3,10,38.8,16.5,63,29.6c1.3-1.6,2.5-3.2,3.8-4.8C281.2,213.6,273.8,209.3,266.7,205.4"/>
</g>
</svg>
