<?xml version="1.0" encoding="utf-8"?>
<!-- Generator: Adobe Illustrator 28.2.0, SVG Export Plug-In . SVG Version: 6.00 Build 0)  -->
<svg version="1.1" id="aia" xmlns="http://www.w3.org/2000/svg" xmlns:xlink="http://www.w3.org/1999/xlink" x="0px" y="0px"
	 viewBox="0 0 480 320" enable-background="new 0 0 480 320" xml:space="preserve">
<path fill="#232C65" d="M240.1,20c0,3,0,5.9,0,8.9c0,1,0,2,0,3.1c0,0.5,0,1,0,1.4c-17.8,11.4-35.5,22.7-53.3,33.7
	c17.8-2.1,35.5-4.6,53.3-7.1c0,2.7,0,5.3,0,8c0,4,0,8,0,12c0,4,0,8,0,12c0,2.7,0,5.3,0,8c-17.8,2.5-35.5,5-53.3,7.1
	c17.8,6.8,35.5,13.2,53.3,19.6c0,1.5,0,3,0,4.5c0,3,0,6,0,8.9c0,0.3,0,0.5,0,0.8c-5.5,0.8-10.9,1.5-16.4,2.3c-2,0.3-4.1,0.6-6.1,0.8
	c-0.9,0.1-1.9,0.3-2.8,0.4c-24.9-9.1-49.8-18.5-74.7-29.3c0,12.5,0,24.9,0,37.4c-2.7,0.2-5.4,0.3-8,0.5c-4,0.2-8,0.4-12,0.5
	c-4,0.1-8,0.2-12,0.3c-2.7,0-5.3,0-8,0c0-12.5,0-24.9,0-37.4c-24.9,12.4-49.8,22.9-74.7,30.5c-3-0.6-6-1.2-8.9-1.9
	c-5.4-1.2-10.9-2.6-16.3-4.1C0,193.9,0,246.9,0,300c160,44.8,320-44.8,480,0c0-93.3,0-186.7,0-280C400-2.4,320.1,8.8,240.1,20z"/>
<path fill="#2C3178" d="M0,100c0,8.9,0,17.7,0,26.6c17.7-3.9,35.5-9.5,53.2-16.3C35.5,108.3,17.7,105,0,100z"/>
<path fill="#2C3178" d="M140,31.6c0,12.2,0,24.4,0,36.6c24.4-13.8,48.8-29,73.2-44.5C188.8,27,164.4,29.9,140,31.6z"/>
<path fill="#2C3178" d="M100,32.9c-24.4-0.1-48.8-2-73.2-6.6c24.4,16.9,48.8,31,73.2,43.3C100,57.4,100,45.1,100,32.9z"/>
<path fill="#2C3178" d="M0,60c17.7,5,35.5,8.3,53.2,10.3C35.5,59.4,17.7,47.3,0,33.5C0,42.3,0,51.2,0,60z"/>
<path fill="#FFFFFF" d="M240,20c-26.7,17.1-53.3,34.1-80,50c-6,0.6-11.9,1.1-17.9,1.5c26.7-15.2,53.3-31.9,80-48.9
	c-3,0.4-5.9,0.8-8.9,1.2c-24.4,15.5-48.8,30.6-73.2,44.5c0-12.2,0-24.4,0-36.6c-2.7,0.2-5.4,0.3-8,0.5c0,13.5,0,27.1,0,40.6
	c0,1.5,0,3,0,4.4c0,1,0,2,0,3c4-0.2,8-0.5,12-0.8c6-0.4,11.9-0.9,17.9-1.5c2-0.2,4.1-0.4,6.1-0.6c0.9-0.1,1.9-0.2,2.8-0.3
	c23.1-2.4,46.2-5.7,69.3-8.9c0-2.7,0-5.3,0-8c-17.8,2.5-35.5,5-53.3,7.1c17.8-11,35.5-22.4,53.3-33.7c0-0.5,0-1,0-1.4c0-1,0-2,0-3.1
	c0-3,0-5.9,0-8.9C240.1,20,240,20,240,20z"/>
<path fill="#FFFFFF" d="M100,32.9c0,12.2,0,24.4,0,36.6C75.6,57.3,51.2,43.2,26.8,26.3C17.9,24.6,8.9,22.5,0,20
	c26.7,20.8,53.3,37.9,80,52.4c-6-0.3-11.9-0.7-17.9-1.2C41.4,59,20.7,45.1,0,29c0,1.5,0,3,0,4.5c17.7,13.8,35.5,26,53.2,36.9
	C35.5,68.3,17.7,65,0,60c0,2.7,0,5.3,0,8c23,6.5,46.1,10.1,69.1,11.8c3,0.2,6,0.4,9,0.6c6,0.3,11.9,0.5,17.9,0.6c4,0,8,0,12,0
	c0-1,0-2,0-3c0-1,0-2,0-3c0-0.5,0-0.9,0-1.4c0-13.5,0-27.1,0-40.6C105.3,32.9,102.7,32.9,100,32.9z"/>
<path fill="#FFFFFF" d="M161.9,101.8c-6,0.6-11.9,1.1-17.9,1.5c-4,0.3-8,0.5-12,0.8c0,1,0,2,0,2.9c0,1,0,2,0,3c0,0.5,0,0.9,0,1.4
	c0,13.8,0,27.6,0,41.4c2.7-0.1,5.4-0.3,8-0.5c0-12.5,0-24.9,0-37.4c24.9,10.8,49.8,20.2,74.7,29.3c0.9-0.1,1.9-0.3,2.8-0.4
	c2-0.3,4.1-0.6,6.1-0.8c5.5-0.8,10.9-1.5,16.4-2.3c0-0.3,0-0.5,0-0.8c-26.7-9.6-53.4-19.2-80.1-30.1c6-0.6,11.9-1.2,17.9-1.8
	c20.7,8,41.5,15.5,62.2,23c0-1.5,0-3,0-4.5c-17.8-6.4-35.5-12.8-53.3-19.6c17.8-2.1,35.5-4.6,53.3-7.1c0-2.7,0-5.3,0-8
	c-23.1,3.2-46.2,6.5-69.3,8.9C167.8,101.2,164.9,101.5,161.9,101.8z"/>
<path fill="#FFFFFF" d="M96,104.9c-6-0.1-11.9-0.2-17.9-0.6c-2-0.1-4.1-0.2-6.1-0.4c-0.9-0.1-1.9-0.1-2.8-0.2
	C46.1,102.1,23,98.5,0,92c0,2.7,0,5.3,0,8c17.7,5,35.5,8.3,53.2,10.3c-17.7,6.8-35.4,12.4-53.2,16.3c0,4.5,0,8.9,0,13.4
	c26.7-5.9,53.3-15.5,80-27.6c6,0.3,11.9,0.4,17.9,0.5c-27.2,13.4-54.4,24.5-81.6,32c3,0.7,6,1.3,8.9,1.9
	c24.9-7.6,49.8-18.1,74.7-30.5c0,12.5,0,24.9,0,37.4c2.7,0,5.3,0,8,0c0-13.8,0-27.6,0-41.4c0-1.5,0-3,0-4.5c0-1,0-2,0-2.9
	C104,105,100,105,96,104.9z"/>
<path fill="#BD2038" d="M80,112.5C53.3,124.5,26.7,134.1,0,140c0,0.3,0,0.5,0,0.8c5.4,1.5,10.9,2.9,16.3,4.1
	c27.2-7.5,54.4-18.6,81.6-32C91.9,112.9,86,112.7,80,112.5z"/>
<path fill="#BD2038" d="M0,29c20.7,16.1,41.4,30,62.1,42.2c6,0.5,11.9,0.9,17.9,1.2C53.3,57.9,26.7,40.8,0,20C0,23,0,26,0,29z"/>
<path fill="#BD2038" d="M240,20c-6,0.8-11.9,1.7-17.9,2.5c-26.7,17-53.3,33.7-80,48.9c6-0.4,11.9-0.9,17.9-1.5
	C186.7,54.1,213.3,37.1,240,20z"/>
<path fill="#BD2038" d="M160,110c26.7,10.9,53.4,20.5,80.1,30.1c0-3,0-6,0-8.9c-20.7-7.5-41.5-14.9-62.2-23
	C171.9,108.8,166,109.4,160,110z"/>
<path fill="#BD2038" d="M108,32.9c0,13.5,0,27.1,0,40.6c0,0.5,0,0.9,0,1.4c0,1,0,2,0,3c0,1,0,2,0,3c-4,0.1-8,0.1-12,0
	c-6-0.1-11.9-0.2-17.9-0.6c-3-0.2-6-0.3-9-0.6C46.1,78.1,23,74.5,0,68c0,8,0,16,0,24c23,6.5,46.1,10.1,69.1,11.8
	c0.9,0.1,1.9,0.1,2.8,0.2c2,0.1,4.1,0.3,6.1,0.4c6,0.3,11.9,0.5,17.9,0.6c4,0,8,0,12,0c0,1,0,2,0,2.9c0,1.5,0,3,0,4.5
	c0,13.8,0,27.6,0,41.4c4-0.1,8-0.1,12-0.3c4-0.1,8-0.3,12-0.5c0-13.8,0-27.6,0-41.4c0-0.5,0-0.9,0-1.4c0-1,0-2,0-3c0-1,0-2,0-2.9
	c4-0.2,8-0.5,12-0.8c6-0.4,11.9-0.9,17.9-1.5c3-0.3,5.9-0.6,8.9-0.9c23.1-2.4,46.2-5.7,69.3-8.9c0-4,0-8,0-12c0-4,0-8,0-12
	c-23.1,3.2-46.2,6.5-69.3,8.9c-0.9,0.1-1.9,0.2-2.8,0.3c-2,0.2-4.1,0.4-6.1,0.6c-6,0.6-11.9,1.1-17.9,1.5c-4,0.3-8,0.5-12,0.8
	c0-1,0-2,0-3c0-1.5,0-3,0-4.4c0-13.5,0-27.1,0-40.6C124,32.5,116,32.8,108,32.9z"/>
<g id="crest">
	<path fill="#FFFFFF" d="M349.3,161.3c0,31.5,4.2,42.4,12.6,49.7c5,4.3,7.2,6,15,10.4c7.8-4.5,10-6.1,15-10.4
		c8.4-7.3,12.6-18.2,12.6-49.7c-6.1,2.3-9.6,3.4-14.6,3.3c-4.5-0.1-9.3-1.9-13-3.3c-3.7,1.4-8.5,3.3-13,3.3
		C358.9,164.6,355.4,163.5,349.3,161.3L349.3,161.3z"/>
	<path fill="#F8991D" d="M377.8,177c1.3,2.5,5.5,5.3,6.6,6.7c-1.5,1.4-1.7,1.2-1.6,3.8c2.5-2.2,2.6-2.4,4.2-2.1
		c3.6,3,0.6,9.3-2.3,10.7c-2.9,1.5-2.4-0.1-6.8,1.8c2,1.4,4.4-0.2,6.3,0.2c1,1-0.5,2.9,0.3,4.7c1.7-0.1,1.5-3,1.9-4
		c1.2-3.8,8.7-6.4,9.1-9.9c1.6-0.6,3.1-0.2,5,0.7c-1-3.2-4.1-3.2-4.9-4.2c-2-2.5-3.8-5.4-8.1-6.2c-3.3-0.6-3,0.2-5.1-1
		C381.2,177.3,377.2,175.7,377.8,177L377.8,177z"/>
	<ellipse fill="#FFFFFF" cx="386.5" cy="179.9" rx="0.7" ry="0.6"/>
	<path fill="#F8991D" d="M367.4,187.8c2.1-2.1,3.1-6.5,4.1-8c2.1,0.4,2.1,0.7,4.7-0.6c-3.5-0.8-3.8-0.8-4.2-2.1
		c1.5-4,9.6-4.8,12.5-3.3c2.9,1.5,1.1,1.8,5.1,4.2c0.6-2.2-2.3-3.1-2.7-4.7c0.6-1.2,3.3-1,4.8-2.4c-0.9-1.2-3.9,0.3-5.2,0.5
		c-4.6,0.9-10.9-3.4-14.7-2c-1.4-0.9-1.7-2.2-1.6-4c-3,2.2-1.5,4.5-2.2,5.6c-1.8,2.7-4,5.3-2.8,8.8c0.9,2.7,1.6,2.1,1.3,4.2
		C366.2,185.2,366.4,188.8,367.4,187.8L367.4,187.8z"/>
	<ellipse fill="#FFFFFF" cx="366.4" cy="180.1" rx="0.7" ry="0.6"/>
	<path fill="#F8991D" d="M384.4,189.3c-3.3-0.4-8.3,1.1-10.3,1.2c-0.7-1.7-0.4-1.9-3.1-3c1,2.9,1.2,3.1,0,4.1
		c-4.9,1-9.9-4.3-9.8-7.1c0-2.9,1.3-1.7,1.7-5.8c-2.5,0.7-2,3.2-3.5,4.4c-1.6,0.2-2.7-1.8-5-2.2c-0.7,1.3,2.3,2.6,3.2,3.4
		c3.3,2.8,2.1,9.5,5.5,11.5c-0.2,1.4-1.4,2.3-3.3,3.2c3.8,1,5.4-1.3,6.9-1.3c3.7-0.1,7.6,0.1,10.6-2.5c2.3-2,1.4-2.2,3.7-3.1
		C382.4,191.5,386.1,189.5,384.4,189.3L384.4,189.3z"/>
	<ellipse fill="#FFFFFF" cx="377" cy="194" rx="0.7" ry="0.6"/>
	<path fill="#9FC9EB" d="M356.3,204.2c1.6,2.7,3.5,4.8,5.7,6.7c5,4.3,7.2,6,15,10.4c7.8-4.5,10-6.1,15-10.4c2.2-1.9,4.1-4,5.7-6.7
		H356.3z"/>
	<path fill="#FBC311" d="M348.2,160c0,32.8,4.4,44.1,13.1,51.7c5.2,4.5,7.5,6.2,15.6,10.8c8.1-4.6,10.4-6.3,15.6-10.8
		c8.8-7.6,13.1-18.9,13.1-51.7c-6.4,2.4-10,3.5-15.3,3.5c-4.7-0.1-9.7-2-13.5-3.5c-3.9,1.5-8.8,3.4-13.5,3.5
		C358.2,163.5,354.6,162.4,348.2,160z M377,161.9c3.8,1.5,8.5,3.2,13.5,3.3c4.6,0.1,8.5-1,13.2-2.6c-0.1,14.7-1.1,25.2-3.1,32.3
		c-2.1,7.6-5.2,12-9.3,15.6c-4.9,4.2-7.3,6-14.2,9.9c-6.9-4-9.4-5.7-14.2-9.9l0,0c0,0,0,0,0,0c-4.1-3.6-7.2-7.9-9.3-15.6
		c-2-7.2-3-17.6-3.1-32.3c4.7,1.6,8.5,2.7,13.2,2.6C368.4,165.1,373.2,163.3,377,161.9z"/>
</g>
</svg>
