<svg version="1.1" id="arg" name="argentina" xmlns="http://www.w3.org/2000/svg" xmlns:xlink="http://www.w3.org/1999/xlink" x="0px" y="0px"
	 viewBox="0 0 480 320" enable-background="new 0 0 480 320" xml:space="preserve">
<g id="flag-arg">
	<path fill="#FFFFFF" d="M0,206.7c160,44.8,320-44.8,480,0c0-31.1,0-62.2,0-93.3c-160-44.8-320,44.8-480,0C0,144.5,0,175.6,0,206.7z
		"/>
	<path fill="#7DA5D7" d="M0,113.3c160,44.8,320-44.8,480,0c0-31.1,0-62.2,0-93.3C320-24.8,160,64.8,0,20C0,51.1,0,82.2,0,113.3z"/>
	<path fill="#7DA5D7" d="M0,300c160,44.8,320-44.8,480,0c0-31.1,0-62.2,0-93.3c-160-44.8-320,44.8-480,0C0,237.8,0,268.9,0,300z"/>
</g>
<g id="crest">
	<path fill="#F0BC50" d="M238.1,160.2c0.5,12.7,1,25.3,1.4,38c0,0,0,0.7,0.5,0.7c0.4-0.1,0.4-0.8,0.4-0.8c0.5-12.8,1-25.6,1.5-38.4
		C240.6,159.9,239.4,160,238.1,160.2z"/>
	<path fill="#7C381D" d="M240,199c-0.5,0.1-0.6-0.5-0.6-0.8c-0.5-12.7-1-25.3-1.5-38c0.1,0,0.2,0,0.3-0.1c0.5,12.7,0.9,25.3,1.4,38
		c0,0,0,0.6,0.4,0.5c0.3,0,0.3-0.6,0.3-0.6c0.5-12.8,1-25.6,1.4-38.4c-0.4,12.8-0.8,25.6-1.2,38.4C240.6,198.3,240.5,198.9,240,199
		L240,199z"/>
	<path fill="#7C381D" d="M239.1,160.1c0.3,8.7,0.6,17.4,1,26.1c0.3-8.8,0.6-17.6,0.9-26.4C240.3,159.9,239.7,160,239.1,160.1z"/>
	<path fill="#F0BC50" d="M236.4,172.8c-2.2,5.1-0.4,8.8-2.5,13.3c-2.2,4.5-0.9,7.8-1,9.7c-0.2,2-1.7,2.7-1.3,3.1
		c0.4,0.4,2.1-0.7,2.7-3.4c0.6-2.7-0.9-3.9,1.7-9.4c2.6-5.5,0.6-7.6,3.2-12.5C238.3,173.3,237.3,173.1,236.4,172.8z"/>
	<path fill="#7C381D" d="M232,199.1c-0.2,0-0.4,0-0.5-0.1c-0.2-0.3,0-0.5,0.3-0.9c0.4-0.5,1-1.2,1-2.3c0.1-0.5,0-1.1-0.1-1.9
		c-0.2-1.9-0.5-4.6,1.1-7.9c1.1-2.3,1.1-4.2,1.2-6.4c0-2.1,0.2-4.3,1.3-6.9c0.1,0,0.1,0,0.2,0.1c-1.1,2.5-1.2,4.7-1.3,6.8
		c-0.1,2.1-0.2,4.2-1.2,6.4c-1.6,3.3-1.3,5.9-1.1,7.8c0.1,0.7,0.1,1.3,0.1,1.9c-0.1,1.2-0.7,1.9-1.1,2.4c-0.3,0.4-0.4,0.5-0.3,0.6
		c0.9-0.3,2-1.3,2.5-3.3c0.2-0.9,0.2-1.6,0.1-2.4c-0.1-1.6-0.1-3.4,1.6-7c1.3-2.7,1.4-4.6,1.5-6.4c0.1-1.9,0.3-3.6,1.6-6.2
		c-1.1,2.6-1.3,4.3-1.4,6.1c-0.1,1.8-0.3,3.7-1.6,6.5c-1.7,3.6-1.7,5.4-1.6,6.9c0.1,0.8,0.1,1.6-0.1,2.5
		C233.9,197.5,232.9,198.7,232,199.1C232.1,199.1,232.1,199.1,232,199.1L232,199.1z"/>
	<path fill="#7C381D" d="M237.1,173.9c-1.7,5,0,7.9-2.2,12.3c2.5-3.3,0.9-6.8,3-12C237.6,174.1,237.3,174,237.1,173.9z"/>
	<path fill="#F0BC50" d="M241.9,159.7c-0.5-12.6-1-25.3-1.5-37.9c0,0,0-0.7-0.4-0.6c-0.5,0.1-0.5,0.8-0.5,0.8
		c-0.5,12.8-1,25.6-1.4,38.3C239.4,160,240.6,159.9,241.9,159.7z"/>
	<path fill="#7C381D" d="M241.8,159.7c-0.5-12.7-1-25.3-1.4-38c0,0,0-0.6-0.3-0.6c-0.4,0.1-0.4,0.7-0.4,0.7
		c-0.5,12.8-0.9,25.6-1.4,38.4c0.4-12.8,0.8-25.6,1.2-38.3c0-0.3,0.1-0.9,0.6-0.9c0.4-0.1,0.6,0.5,0.6,0.8c0.5,12.6,1,25.3,1.5,37.9
		C242,159.7,241.9,159.7,241.8,159.7L241.8,159.7z"/>
	<path fill="#7C381D" d="M240.9,159.8c-0.3-8.7-0.6-17.4-0.9-26c-0.3,8.8-0.6,17.5-1,26.3C239.7,160,240.3,159.9,240.9,159.8z"/>
	<path fill="#F0BC50" d="M243.6,147.1c2.2-5.1,0.3-8.8,2.5-13.3c2.2-4.5,0.9-7.8,1-9.7c0.2-1.9,1.8-2.7,1.3-3.1
		c-0.4-0.4-2,0.7-2.7,3.4c-0.6,2.6,0.9,3.9-1.7,9.4c-2.6,5.5-0.5,7.5-3.2,12.5C241.8,146.6,242.7,146.9,243.6,147.1z"/>
	<path fill="#7C381D" d="M243.7,147.2c-0.1,0-0.1,0-0.2-0.1c1.1-2.5,1.1-4.7,1.2-6.8c0.1-2.2,0.2-4.2,1.3-6.5c1.5-3.2,1.3-5.8,1-7.8
		c0-0.7-0.1-1.4-0.1-1.9c0.1-1.2,0.7-1.9,1-2.4c0.3-0.4,0.4-0.5,0.3-0.6c-0.9,0.2-2,1.3-2.5,3.3c-0.2,0.9-0.2,1.7-0.1,2.4
		c0,1.6,0.1,3.4-1.6,7.1c-1.3,2.7-1.4,4.6-1.6,6.4c-0.1,1.9-0.3,3.6-1.6,6.1c1.1-2.5,1.2-4.3,1.3-6.1c0.1-1.8,0.3-3.7,1.6-6.5
		c1.7-3.6,1.7-5.3,1.6-6.9c0-0.8,0-1.5,0.2-2.4c0.5-2.2,1.6-3.3,2.3-3.5c0,0,0,0,0.1,0c0.2,0,0.4,0.1,0.5,0.1c0.2,0.2,0,0.5-0.3,0.9
		c-0.3,0.5-1,1.2-1,2.3c-0.1,0.5,0,1.2,0.1,1.9c0.2,2,0.5,4.6-1.1,7.9c-1.1,2.2-1.1,4.2-1.2,6.4
		C244.9,142.4,244.8,144.6,243.7,147.2L243.7,147.2z"/>
	<path fill="#7C381D" d="M243,146c1.8-5-0.1-7.9,2.2-12.3c-2.5,3.3-0.9,6.8-3.1,12C242.4,145.8,242.7,145.9,243,146z"/>
	<path fill="#F0BC50" d="M240,158.1c-12.7,2.3-25.5,4.5-38.2,6.6c0,0-0.7,0.1-0.7,0.6c0,0.5,0.7,0.4,0.7,0.4
		c12.7-1.2,25.5-2.5,38.2-3.8C240,160.6,240,159.4,240,158.1z"/>
	<path fill="#7C381D" d="M240,161.8c-12.7,1.4-25.5,2.8-38.2,4c-0.3,0-0.8,0-0.8-0.5c0-0.4,0.6-0.6,0.8-0.7
		c12.7-2.1,25.5-4.4,38.2-6.6c0,0.1,0,0.2,0,0.2c-12.7,2.3-25.5,4.5-38.2,6.7c0,0-0.6,0.1-0.6,0.4c0,0.4,0.6,0.3,0.6,0.3
		C214.6,164.4,227.3,163.1,240,161.8L240,161.8z"/>
	<path fill="#7C381D" d="M240,159c-8.7,1.5-17.5,3.1-26.2,4.6c8.7-0.8,17.5-1.7,26.2-2.6C240,160.3,240,159.7,240,159z"/>
	<path fill="#F0BC50" d="M227.7,158.1c-4.8-1.6-8.7,0.9-12.9-0.7c-4.2-1.6-7.7,0.2-9.6,0.3c-1.9,0.1-2.4-1.4-2.9-0.9
		c-0.4,0.4,0.5,2,3,2.3c2.6,0.3,4-1.4,9.2,0.5c5.1,2,7.5-0.5,12.1,1.5C226.9,160.1,227.3,159.1,227.7,158.1z"/>
	<path fill="#7C381D" d="M226.6,160.9c-2.4-0.7-4.2-0.6-5.9-0.5c-1.8,0.1-3.7,0.2-6.3-0.8c-3.4-1.3-5.1-1-6.7-0.7
		c-0.8,0.2-1.5,0.3-2.4,0.2c-1.9-0.2-3-1.1-3.2-1.9c0,0,0-0.1,0-0.1c0-0.2,0.1-0.4,0.1-0.5c0.3-0.3,0.6-0.1,0.9,0.2
		c0.4,0.3,1,0.8,2.1,0.7c0.4,0,1.1-0.2,1.8-0.4c2-0.5,4.7-1.1,7.8,0c2.1,0.8,4.1,0.6,6.2,0.4c2.1-0.2,4.2-0.4,6.7,0.3
		c0,0.1,0,0.2-0.1,0.3c-2.4-0.8-4.6-0.5-6.6-0.4c-2.2,0.2-4.2,0.5-6.3-0.4c-3-1.2-5.7-0.5-7.6-0.1c-0.7,0.2-1.4,0.3-1.9,0.3
		c-1.2,0.1-1.8-0.4-2.2-0.8c-0.3-0.2-0.5-0.3-0.6-0.2c0.1,0.9,1,1.8,2.9,2.1c0.8,0.1,1.5,0,2.4-0.2c1.6-0.3,3.4-0.6,6.8,0.7
		c2.6,1,4.4,0.8,6.2,0.7C222.5,160.1,224.2,159.9,226.6,160.9L226.6,160.9z"/>
	<path fill="#7C381D" d="M226.5,158.9c-4.8-1-7.9,1.2-12-0.5c2.9,2.2,6.7-0.1,11.6,1.5C226.2,159.5,226.3,159.2,226.5,158.9z"/>
	<path fill="#F0BC50" d="M240,161.9c12.7-2.3,25.5-4.5,38.2-6.6c0,0,0.7-0.1,0.7-0.6c0-0.5-0.7-0.4-0.7-0.4
		c-12.7,1.2-25.5,2.5-38.2,3.8C240,159.4,240,160.6,240,161.9z"/>
	<path fill="#7C381D" d="M240,162c0-0.1,0-0.2,0-0.2c12.7-2.3,25.5-4.5,38.2-6.7c0,0,0.6-0.1,0.6-0.5c0-0.3-0.6-0.2-0.6-0.2
		c-12.7,1.2-25.5,2.5-38.2,3.8c12.7-1.4,25.5-2.8,38.2-4c0.3,0,0.8,0,0.8,0.5c0,0.5-0.5,0.7-0.8,0.7
		C265.5,157.5,252.8,159.8,240,162L240,162z"/>
	<path fill="#7C381D" d="M240,160.9c8.7-1.6,17.5-3.1,26.2-4.6c-8.7,0.9-17.5,1.8-26.2,2.7C240,159.7,240,160.3,240,160.9z"/>
	<path fill="#F0BC50" d="M252.4,161.9c4.8,1.5,8.7-0.9,12.9,0.7c4.2,1.6,7.6-0.2,9.6-0.3c1.9-0.1,2.4,1.4,2.9,0.9
		c0.5-0.5-0.4-2-3-2.3c-2.5-0.3-4.1,1.4-9.1-0.5c-5.2-1.9-7.5,0.5-12.1-1.5C253.2,159.9,252.8,160.9,252.4,161.9z"/>
	<path fill="#7C381D" d="M277.6,163.4c-0.2,0-0.4-0.1-0.6-0.3c-0.4-0.3-1-0.8-2.1-0.7c-0.5,0-1.1,0.2-1.9,0.4
		c-2,0.5-4.7,1.1-7.7-0.1c-2.1-0.8-4.1-0.6-6.2-0.4c-2.1,0.2-4.3,0.4-6.7-0.3c0-0.1,0.1-0.2,0.1-0.2c2.4,0.8,4.5,0.5,6.6,0.3
		c2.2-0.2,4.2-0.4,6.3,0.4c3,1.2,5.6,0.5,7.5,0.1c0.8-0.2,1.4-0.4,1.9-0.4c1.1-0.1,1.8,0.4,2.3,0.7c0.4,0.3,0.5,0.3,0.5,0.2
		c0-0.9-1-1.9-2.9-2.1c-0.9-0.1-1.6,0-2.4,0.1c-1.6,0.3-3.4,0.6-6.8-0.7c-2.6-1-4.4-0.8-6.1-0.7c-1.8,0.1-3.6,0.2-5.9-0.8
		c2.4,0.8,4.1,0.7,5.9,0.6c1.8-0.1,3.6-0.2,6.3,0.8c3.3,1.3,5.1,1,6.7,0.6c0.8-0.1,1.5-0.3,2.4-0.1c2,0.2,3,1.3,3.2,1.9
		c0,0,0,0,0,0.1c-0.1,0.2-0.1,0.4-0.2,0.5C277.7,163.4,277.7,163.4,277.6,163.4L277.6,163.4z"/>
	<path fill="#7C381D" d="M253.6,161.1c4.8,1.1,8-1.2,12.1,0.5c-2.9-2.1-6.7,0.1-11.6-1.5C253.8,160.5,253.7,160.8,253.6,161.1z"/>
	<path fill="#F0BC50" d="M238.6,158.8c-8.7,10.6-17.3,21.1-26,31.6c0,0-0.4,0.6-0.1,0.9c0.3,0.3,0.8-0.3,0.8-0.3
		c9.3-9.9,18.7-19.9,28-29.9C240.5,160.4,239.5,159.6,238.6,158.8z"/>
	<path fill="#7C381D" d="M212.8,191.5c-0.7-0.4-0.4-0.9-0.2-1.2c8.7-10.5,17.3-21,26-31.6c0.1,0,0.1,0.1,0.2,0.1
		c-8.7,10.5-17.3,21.1-26,31.6c-0.1,0-0.4,0.5-0.2,0.7c0.3,0.2,0.7-0.3,0.7-0.3c9.3-9.9,18.7-19.9,28-29.8c-9.3,10-18.6,20-27.9,30
		C213.4,191.1,213.1,191.4,212.8,191.5L212.8,191.5z"/>
	<path fill="#7C381D" d="M239.3,159.4c-5.9,7.2-11.9,14.5-17.8,21.7c6.4-6.8,12.8-13.7,19.2-20.5
		C240.2,160.2,239.8,159.8,239.3,159.4z"/>
	<path fill="#F0BC50" d="M228.7,167.7c-5,2.5-6.4,6.9-10.9,8.9c-4.6,2.1-6,5.6-7.5,7.1c-1.5,1.5-3,0.9-3,1.5c0,0.6,1.7,0.9,4-0.8
		c2.2-1.6,2.1-3.7,7.6-6.3c5.6-2.5,5.7-5.7,10.8-7.7C229.5,169.5,229.1,168.6,228.7,167.7z"/>
	<path fill="#7C381D" d="M208.7,185.8c-0.4,0.1-0.8,0-1.1-0.1c-0.1-0.2-0.2-0.3-0.3-0.5c0-0.4,0.4-0.4,0.8-0.5
		c0.5-0.1,1.4-0.3,2.2-1.1c0.4-0.4,0.8-0.9,1.2-1.5c1.3-1.7,3-4.1,6.3-5.6c2.2-1,3.7-2.6,5.2-4.2c1.5-1.7,3.2-3.4,5.7-4.6
		c0,0.1,0,0.1,0.1,0.2c-2.4,1.2-4,2.9-5.6,4.6c-1.6,1.7-3,3.3-5.3,4.3c-3.3,1.5-5,3.8-6.2,5.5c-0.5,0.6-0.8,1.2-1.2,1.5
		c-0.9,0.9-1.8,1.1-2.4,1.2c-0.4,0-0.6,0.1-0.6,0.2c0.8,0.5,2.2,0.4,3.8-0.8c0.8-0.6,1.3-1.2,1.8-1.8c1-1.3,2.3-2.8,5.9-4.5
		c2.7-1.2,4.1-2.7,5.5-4c1.4-1.4,2.7-2.7,5.4-3.8c-2.5,1.3-3.8,2.5-5.2,3.9c-1.3,1.3-2.7,2.8-5.6,4c-3.6,1.7-4.8,3.1-5.9,4.4
		c-0.5,0.7-1.1,1.3-1.8,1.9C210.4,185.3,209.5,185.7,208.7,185.8L208.7,185.8z"/>
	<path fill="#7C381D" d="M228.3,169.1c-4.6,2.8-5.6,6.4-10,8.3c3.8-0.8,5.3-4.8,10.4-7.4C228.5,169.7,228.4,169.4,228.3,169.1z"/>
	<path fill="#F0BC50" d="M241.4,161.1c8.7-10.5,17.3-21.1,26-31.6c0,0,0.5-0.6,0.2-0.9c-0.4-0.3-0.9,0.3-0.9,0.3
		c-9.3,9.9-18.7,19.9-28,29.9C239.5,159.6,240.5,160.4,241.4,161.1z"/>
	<path fill="#7C381D" d="M241.5,161.2c0,0-0.1-0.1-0.1-0.1c8.7-10.6,17.3-21.1,26-31.6c0,0,0.4-0.5,0.1-0.7
		c-0.2-0.2-0.7,0.2-0.7,0.2c-9.3,9.9-18.7,19.9-28,29.9c9.3-10,18.6-20.1,27.9-30c0.1-0.2,0.7-0.5,1-0.3c0.3,0.3,0,0.8-0.2,1
		C258.8,140.1,250.1,150.7,241.5,161.2L241.5,161.2z"/>
	<path fill="#7C381D" d="M240.7,160.6c6-7.2,11.9-14.5,17.9-21.7c-6.4,6.8-12.8,13.7-19.2,20.5C239.8,159.8,240.2,160.2,240.7,160.6
		z"/>
	<path fill="#F0BC50" d="M251.3,152.2c4.9-2.5,6.4-6.8,10.9-8.9c4.5-2,6-5.6,7.5-7.1c1.4-1.4,3-0.9,3-1.5c0-0.6-1.7-0.9-4,0.8
		c-2.3,1.7-2.2,3.8-7.7,6.3c-5.5,2.5-5.7,5.7-10.8,7.8C250.5,150.5,250.9,151.4,251.3,152.2z"/>
	<path fill="#7C381D" d="M251.3,152.3c0-0.1,0-0.1-0.1-0.2c2.5-1.2,4-3,5.6-4.6c1.5-1.7,3-3.3,5.4-4.3c3.2-1.4,4.9-3.8,6.1-5.4
		c0.5-0.7,0.8-1.2,1.3-1.6c0.9-0.9,1.8-1,2.3-1.2c0.4-0.1,0.6-0.1,0.6-0.1c-0.7-0.6-2.1-0.5-3.8,0.7c-0.7,0.5-1.3,1.2-1.8,1.8
		c-1.1,1.3-2.3,2.8-6,4.5c-2.7,1.2-4.1,2.6-5.5,3.9c-1.4,1.4-2.7,2.7-5.3,3.8c2.5-1.2,3.8-2.6,5.1-3.9c1.3-1.3,2.8-2.7,5.6-4
		c3.6-1.7,4.7-3.1,5.8-4.4c0.6-0.7,1.1-1.3,1.9-1.9c1.7-1.2,3.1-1.4,3.8-1.1c0.1,0.2,0.2,0.3,0.3,0.5c-0.1,0.3-0.4,0.4-0.8,0.5
		c-0.5,0.1-1.4,0.3-2.2,1.1c-0.4,0.4-0.8,0.9-1.3,1.6c-1.2,1.7-3,4.1-6.2,5.6c-2.3,1-3.7,2.6-5.3,4.3
		C255.4,149.4,253.8,151.1,251.3,152.3L251.3,152.3z"/>
	<path fill="#7C381D" d="M251.7,150.9c4.6-2.8,5.6-6.5,10.1-8.3c-3.8,0.8-5.3,4.8-10.4,7.4C251.5,150.3,251.6,150.6,251.7,150.9z"/>
	<path fill="#F0BC50" d="M241.4,158.4c-9.3-7.4-18.7-14.7-28-22.1c0,0-0.5-0.4-0.8,0c-0.3,0.4,0.1,0.9,0.1,0.9
		c8.7,8.2,17.3,16.3,26,24.4C239.5,160.5,240.5,159.5,241.4,158.4z"/>
	<path fill="#7C381D" d="M238.8,161.5c-8.7-8.1-17.5-16.1-26.2-24.2c-0.2-0.2-0.5-0.6-0.1-1c0.3-0.4,0.8-0.1,1,0
		c9.3,7.4,18.7,14.8,28,22.1c0,0.1-0.1,0.1-0.1,0.2c-9.3-7.4-18.7-14.7-28-22.1c0,0-0.5-0.3-0.7-0.1c-0.2,0.3,0.1,0.7,0.2,0.6
		C221.4,145.2,230.1,153.3,238.8,161.5L238.8,161.5z"/>
	<path fill="#7C381D" d="M240.7,159.2c-6.4-5-12.8-10.1-19.2-15.2c5.9,5.6,11.9,11.1,17.8,16.7C239.8,160.2,240.2,159.7,240.7,159.2
		z"/>
	<path fill="#F0BC50" d="M233.8,149.6c-1.8-4.7-5.9-5.6-7.4-9.9c-1.4-4.4-4.8-5.3-6.1-6.6c-1.3-1.3-0.5-2.9-1.1-2.8
		c-0.6,0-1.1,1.9,0.2,4c1.4,2.1,3.5,1.7,5.3,7c1.8,5.2,4.9,5,6.3,9.9C232,150.6,232.9,150.1,233.8,149.6z"/>
	<path fill="#7C381D" d="M231.1,151.1c-0.9-2.4-2-3.5-3.2-4.7c-1.2-1.2-2.4-2.5-3.3-5.1c-1.2-3.5-2.5-4.5-3.6-5.4
		c-0.6-0.4-1.2-0.9-1.7-1.6c-1-1.7-0.9-3.2-0.6-3.8c0.2-0.1,0.4-0.3,0.5-0.4c0.3,0,0.4,0.3,0.4,0.8c0,0.6,0.1,1.4,0.8,2.1
		c0.3,0.4,0.9,0.7,1.5,1.1c1.6,1,3.6,2.4,4.7,5.6c0.7,2.2,2.1,3.4,3.5,4.8c1.4,1.4,2.9,2.8,3.9,5.1c-0.1,0-0.2,0.1-0.2,0.1
		c-0.9-2.3-2.4-3.7-3.8-5c-1.5-1.4-2.8-2.7-3.6-4.9c-1-3.1-3.1-4.5-4.6-5.5c-0.5-0.4-1.1-0.7-1.5-1.1c-0.7-0.8-0.8-1.7-0.8-2.3
		c0-0.4,0-0.6-0.2-0.6c-0.6,0.8-0.7,2.2,0.3,3.8c0.5,0.7,1,1.1,1.6,1.6c1.1,0.9,2.5,2,3.7,5.4c0.8,2.6,2.1,3.8,3.2,5.1
		C229.3,147.4,230.4,148.6,231.1,151.1L231.1,151.1z"/>
	<path fill="#7C381D" d="M232.6,149.3c-2.2-4.3-5.8-4.8-7-9.1c0.3,3.8,4.2,4.7,6,9.5C231.9,149.6,232.3,149.5,232.6,149.3z"/>
	<path fill="#F0BC50" d="M238.6,161.5c9.3,7.4,18.7,14.7,28,22.1c0,0,0.5,0.4,0.9,0.1c0.3-0.4-0.2-0.8-0.2-0.8
		c-8.7-8.2-17.3-16.3-26-24.4C240.5,159.5,239.5,160.5,238.6,161.5z"/>
	<path fill="#7C381D" d="M267.2,183.8c-0.4,0.1-0.6-0.1-0.6-0.1c-9.4-7.4-18.7-14.7-28-22.1c0-0.1,0.1-0.1,0.1-0.2
		c9.3,7.3,18.7,14.7,28,22.1c0,0,0.4,0.4,0.7,0.1c0.2-0.3-0.1-0.7-0.1-0.7c-8.7-8.2-17.3-16.3-26-24.4c8.7,8.1,17.4,16.1,26.1,24.2
		c0.2,0.2,0.5,0.6,0.2,1C267.5,183.8,267.4,183.8,267.2,183.8L267.2,183.8z"/>
	<path fill="#7C381D" d="M239.3,160.8c6.4,5.1,12.8,10.1,19.2,15.2c-5.9-5.6-11.9-11.2-17.9-16.7
		C240.2,159.7,239.8,160.2,239.3,160.8z"/>
	<path fill="#F0BC50" d="M246.2,170.4c1.9,4.7,6,5.5,7.4,9.9c1.4,4.3,4.8,5.3,6,6.6c1.3,1.3,0.5,2.9,1.1,2.8c0.6,0,1.1-1.9-0.2-4
		c-1.3-2.1-3.5-1.7-5.2-7c-1.8-5.3-4.9-5-6.3-9.9C248.1,169.4,247.1,169.9,246.2,170.4z"/>
	<path fill="#7C381D" d="M260.7,189.8c-0.3,0-0.3-0.3-0.4-0.8c-0.1-0.5-0.1-1.4-0.8-2.1c-0.4-0.3-0.8-0.7-1.4-1
		c-1.6-1-3.7-2.4-4.7-5.6c-0.7-2.1-2.1-3.4-3.5-4.8c-1.4-1.4-2.9-2.7-3.9-5.1c0.1,0,0.2-0.1,0.2-0.1c0.9,2.3,2.4,3.7,3.8,5
		c1.5,1.4,2.9,2.6,3.6,4.9c1,3.1,3.2,4.5,4.6,5.5c0.6,0.4,1.1,0.7,1.4,1.1c0.8,0.8,0.8,1.7,0.8,2.2c0,0.5,0.1,0.6,0.2,0.6
		c0.6-0.8,0.7-2.2-0.3-3.8c-0.4-0.7-1-1.1-1.5-1.6c-1.2-0.9-2.5-1.9-3.7-5.4c-0.9-2.6-2.1-3.8-3.3-5.1c-1.2-1.2-2.3-2.4-3-4.9
		c0.9,2.4,2,3.5,3.2,4.7c1.1,1.2,2.4,2.5,3.3,5.1c1.1,3.4,2.5,4.4,3.6,5.3c0.6,0.5,1.2,0.9,1.6,1.6c1,1.6,1,3.1,0.6,3.8
		C261.1,189.6,260.9,189.7,260.7,189.8L260.7,189.8z"/>
	<path fill="#7C381D" d="M247.5,170.7c2.2,4.3,5.7,4.7,6.9,9.1c-0.3-3.8-4.1-4.8-6-9.5C248.1,170.4,247.8,170.5,247.5,170.7z"/>
	<path fill="#F0BC50" d="M238.2,159.5c-4.4,12.6-8.9,25.1-13.3,37.7c0,0-0.2,0.7,0.2,0.8c0.4,0.1,0.7-0.6,0.7-0.6
		c5.3-12.3,10.6-24.6,15.9-36.9C240.6,160.2,239.4,159.8,238.2,159.5z"/>
	<path fill="#7C381D" d="M225.4,198.1c-0.8-0.1-0.7-0.7-0.6-0.9c4.4-12.5,8.8-25.1,13.3-37.7c0.1,0,0.1,0,0.2,0.1
		c-4.4,12.6-8.8,25.1-13.3,37.7c0,0-0.2,0.6,0.1,0.7c0.2-0.2,0.4-0.3,0.6-0.5c5.3-12.3,10.6-24.6,15.9-36.9
		c-5.2,12.4-10.5,24.7-15.7,37C225.9,197.5,225.8,197.9,225.4,198.1C225.4,198.1,225.4,198.1,225.4,198.1z"/>
	<path fill="#7C381D" d="M239.2,159.8c-3.1,8.6-6.1,17.2-9.2,25.9c3.6-8.5,7.3-16.9,10.9-25.4C240.3,160.1,239.8,159.9,239.2,159.8z
		"/>
	<path fill="#F0BC50" d="M232,171.1c-3.8,4.1-3.6,8.4-7.2,12c-3.6,3.6-3.7,7.3-4.6,9.1c-0.9,1.8-2.5,2-2.3,2.5
		c0.2,0.5,2.1,0.1,3.6-2.2c1.5-2.3,0.7-4.2,5.1-8.5c4.4-4.3,3.3-7.1,7.5-11C233.4,172.4,232.7,171.8,232,171.1z"/>
	<path fill="#7C381D" d="M218.4,195c-0.1,0-0.1,0-0.2,0c-0.2-0.1-0.4-0.2-0.5-0.2c-0.1-0.3,0.2-0.5,0.6-0.7c0.5-0.4,1.3-0.8,1.8-1.8
		c0.2-0.5,0.4-1.2,0.6-1.9c0.5-1.9,1.3-4.6,4-7.3c1.8-1.8,2.6-3.7,3.5-5.7c0.8-2.1,1.7-4.2,3.7-6.2c0.1,0.1,0.1,0.1,0.2,0.2
		c-1.9,2-2.8,4.1-3.7,6.1c-0.9,2.1-1.7,4.1-3.6,5.8c-2.6,2.6-3.3,5.2-3.9,7.2c-0.2,0.8-0.4,1.4-0.6,1.9c-0.5,1.1-1.3,1.6-1.9,1.9
		c-0.4,0.2-0.5,0.3-0.5,0.5c0.9,0.2,2.2-0.5,3.4-2.2c0.6-0.8,0.8-1.5,1-2.3c0.6-1.6,1.2-3.3,4.1-6.2c2.2-2.1,3-3.9,3.8-5.6
		c0.8-1.8,1.6-3.4,3.7-5.3c-2,2-2.7,3.7-3.5,5.4c-0.8,1.7-1.7,3.5-3.9,5.7c-2.9,2.8-3.5,4.6-4,6.1c-0.3,0.8-0.5,1.6-1,2.4
		C220.5,194.1,219.2,194.9,218.4,195L218.4,195z"/>
	<path fill="#7C381D" d="M232.1,172.5c-3.4,4.2-3,7.8-6.7,11.2c3.5-2.2,3.3-6.3,7.3-10.5C232.5,172.9,232.3,172.7,232.1,172.5z"/>
	<path fill="#F0BC50" d="M241.8,160.5c4.4-12.6,8.9-25.1,13.3-37.7c0,0,0.2-0.7-0.2-0.8c-0.4-0.2-0.7,0.5-0.7,0.5
		c-5.3,12.3-10.6,24.6-16,36.9C239.4,159.8,240.6,160.2,241.8,160.5z"/>
	<path fill="#7C381D" d="M241.9,160.5c-0.1,0-0.2,0-0.2,0c4.4-12.6,8.8-25.1,13.3-37.7c0,0,0.3-0.6,0-0.7c-0.2,0.2-0.4,0.3-0.6,0.5
		c-5.3,12.3-10.7,24.6-16,37c5.2-12.3,10.5-24.7,15.7-37c0,0,0.2-0.4,0.5-0.6c0.2,0,0.4,0.1,0.7,0.1c0.1,0.3-0.1,0.7-0.1,0.7
		C250.8,135.4,246.3,147.9,241.9,160.5L241.9,160.5z"/>
	<path fill="#7C381D" d="M240.9,160.2c3.1-8.6,6.1-17.2,9.2-25.8c-3.6,8.5-7.3,16.9-10.9,25.4C239.8,159.9,240.3,160.1,240.9,160.2z
		"/>
	<path fill="#F0BC50" d="M248.1,148.8c3.8-4.1,3.6-8.4,7.3-12c3.6-3.5,3.7-7.3,4.5-9.1c1-1.8,2.6-2,2.4-2.5
		c-0.3-0.5-2.1-0.1-3.6,2.2c-1.6,2.3-0.7,4.2-5.1,8.5c-4.4,4.4-3.4,7.2-7.6,11C246.6,147.6,247.4,148.2,248.1,148.8z"/>
	<path fill="#7C381D" d="M248.2,148.9c-0.1-0.1-0.1-0.1-0.2-0.2c1.9-2.1,2.8-4.1,3.7-6.2c0.8-2.1,1.7-4,3.6-5.8
		c2.6-2.5,3.4-5.2,4-7.2c0.2-0.8,0.4-1.4,0.6-1.9c0.5-1.2,1.4-1.7,1.9-2c0.3-0.2,0.5-0.3,0.5-0.5c-1-0.1-2.3,0.5-3.4,2.2
		c-0.6,0.8-0.8,1.5-1.1,2.3c-0.5,1.6-1.2,3.4-4,6.3c-2.1,2.1-3,3.9-3.8,5.6c-0.8,1.8-1.6,3.4-3.7,5.3c1.9-2.1,2.7-3.7,3.5-5.4
		c0.8-1.7,1.6-3.5,3.8-5.7c2.9-2.8,3.5-4.6,4.1-6.1c0.3-0.8,0.6-1.6,1.1-2.4c1.1-1.7,2.5-2.5,3.3-2.5c0.2,0.1,0.3,0.2,0.5,0.3
		c0.1,0.3-0.2,0.5-0.6,0.8c-0.5,0.3-1.3,0.8-1.7,1.8c-0.3,0.5-0.4,1.1-0.6,1.8c-0.5,2-1.3,4.7-4,7.3c-1.8,1.8-2.6,3.7-3.6,5.7
		C251,144.7,250.1,146.8,248.2,148.9L248.2,148.9z"/>
	<path fill="#7C381D" d="M248,147.5c3.4-4.2,3-7.8,6.6-11.2c-3.5,2.2-3.4,6.3-7.3,10.5C247.5,147.1,247.8,147.3,248,147.5z"/>
	<path fill="#F0BC50" d="M240.7,158.1c-11.9-2.8-23.9-5.5-35.8-8.4c0,0-0.6-0.2-0.8,0.3c-0.1,0.5,0.5,0.7,0.5,0.7
		c11.6,3.8,23.1,7.5,34.7,11.2C239.8,160.6,240.2,159.4,240.7,158.1z"/>
	<path fill="#7C381D" d="M239.3,161.8c-11.6-3.6-23.2-7.2-34.8-11c-0.3-0.1-0.7-0.3-0.6-0.8c0.2-0.4,0.8-0.4,1-0.3
		c11.9,2.9,23.9,5.6,35.8,8.4c0,0.1,0,0.2-0.1,0.2c-11.9-2.8-23.9-5.5-35.8-8.4c-0.1,0-0.6-0.1-0.7,0.2c-0.1,0.4,0.4,0.5,0.4,0.5
		C216.2,154.4,227.7,158.1,239.3,161.8L239.3,161.8z"/>
	<path fill="#7C381D" d="M240.4,159.1c-8.2-1.9-16.4-3.8-24.6-5.8c7.9,2.6,15.9,5.1,23.8,7.6C239.9,160.3,240.1,159.7,240.4,159.1z"
		/>
	<path fill="#F0BC50" d="M230,153.3c-3.6-3.4-7.9-2.5-11-5.8c-3-3.2-6.7-2.8-8.5-3.4c-1.7-0.7-1.6-2.3-2.2-2.1
		c-0.6,0.3-0.4,2.1,1.8,3.4c2.1,1.3,4.1,0.2,7.8,4.1c3.8,3.9,6.7,2.5,9.9,6.2C228.6,155,229.3,154.2,230,153.3z"/>
	<path fill="#7C381D" d="M227.9,155.7c-1.8-1.7-3.3-2.3-5-2.8c-1.7-0.6-3.3-1.2-5.2-3.2c-2.4-2.5-4.1-2.9-5.6-3.3
		c-0.8-0.1-1.4-0.4-2.2-0.8c-1.5-1-2.2-2.3-2.1-3.1c0.1-0.2,0.3-0.4,0.4-0.5c0.3-0.2,0.5,0.1,0.7,0.5c0.3,0.5,0.6,1.2,1.6,1.5
		c0.4,0.2,1,0.3,1.7,0.3c1.9,0.3,4.6,0.7,6.8,3.1c1.5,1.6,3.3,2.2,5.3,2.8c2,0.6,4,1.3,5.8,3c-0.1,0.1-0.1,0.1-0.2,0.2
		c-1.8-1.7-3.8-2.3-5.6-2.9c-2-0.6-3.8-1.2-5.4-2.8c-2.2-2.3-4.8-2.7-6.7-3c-0.7-0.1-1.3-0.2-1.8-0.4c-1-0.4-1.4-1.1-1.7-1.6
		c-0.2-0.3-0.2-0.5-0.4-0.4c-0.3,0.9,0.2,2.2,1.8,3.2c0.7,0.4,1.4,0.6,2.1,0.8c1.5,0.4,3.2,0.7,5.7,3.3c1.8,2,3.5,2.5,5.1,3.1
		C224.8,153.2,226.3,153.8,227.9,155.7L227.9,155.7z"/>
	<path fill="#7C381D" d="M228.6,153.6c-3.8-2.8-7.4-1.9-10.3-5.2c1.7,3.2,5.8,2.5,9.5,5.9C228.2,154.1,228.4,153.9,228.6,153.6z"/>
	<path fill="#F0BC50" d="M239.3,161.9c11.9,2.8,23.9,5.5,35.8,8.4c0,0,0.6,0.2,0.8-0.3c0.2-0.5-0.5-0.6-0.5-0.6
		c-11.6-3.8-23.2-7.5-34.8-11.2C240.2,159.4,239.8,160.6,239.3,161.9z"/>
	<path fill="#7C381D" d="M275.5,170.4c-0.2,0-0.3,0-0.5,0c-11.9-2.9-23.9-5.6-35.8-8.4c0-0.1,0.1-0.1,0.1-0.2
		c12,2.8,23.9,5.5,35.9,8.4c0,0,0.5,0.1,0.7-0.2c0.2-0.3-0.4-0.5-0.4-0.5c-11.6-3.8-23.1-7.5-34.7-11.2c11.6,3.6,23.2,7.2,34.8,11
		c0.2,0.1,0.7,0.3,0.5,0.8C276,170.2,275.7,170.3,275.5,170.4L275.5,170.4z"/>
	<path fill="#7C381D" d="M239.6,160.9c8.2,1.9,16.4,3.8,24.6,5.7c-7.9-2.5-15.9-5.1-23.8-7.6C240.1,159.7,239.9,160.3,239.6,160.9z"
		/>
	<path fill="#F0BC50" d="M250,166.6c3.6,3.4,8,2.5,11,5.7c3.1,3.3,6.7,2.8,8.5,3.4c1.8,0.7,1.6,2.3,2.2,2.1c0.5-0.3,0.3-2.1-1.8-3.4
		c-2.1-1.3-4-0.1-7.8-4c-3.8-3.9-6.7-2.4-9.9-6.2C251.5,165,250.7,165.8,250,166.6z"/>
	<path fill="#7C381D" d="M271.6,178c-0.3,0-0.4-0.3-0.6-0.6c-0.3-0.5-0.6-1.2-1.5-1.6c-0.5-0.2-1.1-0.2-1.8-0.4
		c-1.9-0.3-4.5-0.7-6.7-3.1c-1.5-1.6-3.4-2.2-5.3-2.8c-1.9-0.6-4-1.3-5.7-2.9c0-0.1,0.1-0.1,0.1-0.2c1.8,1.7,3.8,2.3,5.7,2.9
		c2,0.6,3.8,1.2,5.3,2.8c2.2,2.4,4.8,2.7,6.6,3c0.7,0.1,1.3,0.2,1.8,0.4c1,0.4,1.4,1.2,1.7,1.6c0.2,0.4,0.2,0.5,0.4,0.4
		c0.2-0.9-0.2-2.2-1.8-3.2c-0.7-0.4-1.4-0.6-2.2-0.7c-1.5-0.3-3.1-0.7-5.7-3.3c-1.8-1.9-3.5-2.5-5.1-3.1c-1.6-0.6-3.2-1.2-4.8-3.1
		c1.8,1.7,3.3,2.2,4.9,2.9c1.6,0.6,3.3,1.2,5.1,3.2c2.4,2.5,4.1,2.9,5.6,3.3c0.8,0.1,1.5,0.3,2.2,0.8c1.7,1,2.2,2.4,2.1,3.1
		c-0.1,0.2-0.2,0.4-0.3,0.5C271.7,178,271.6,178,271.6,178L271.6,178z"/>
	<path fill="#7C381D" d="M251.4,166.4c3.7,2.9,7.4,1.9,10.2,5.2c-1.7-3.2-5.8-2.6-9.5-6C251.9,165.9,251.7,166.1,251.4,166.4z"/>
	<path fill="#F0BC50" d="M239.3,158.3c-11.6,6.9-23.1,13.9-34.7,20.7c0,0-0.7,0.3-0.5,0.8c0.2,0.4,0.8,0,0.8,0
		c11.9-6,23.9-12.1,35.8-18.2C240.2,160.5,239.8,159.4,239.3,158.3z"/>
	<path fill="#7C381D" d="M204.6,180.1c-0.2,0-0.5,0-0.6-0.2c-0.1-0.4,0.3-0.8,0.6-0.9c11.6-6.8,23.1-13.8,34.7-20.7
		c0,0.1,0.1,0.1,0.1,0.2c-11.6,6.9-23.2,13.9-34.7,20.7c0,0-0.5,0.3-0.4,0.6c0.1,0.3,0.7,0,0.7,0c11.9-6,23.9-12.1,35.8-18.2
		c-11.9,6.2-23.8,12.3-35.7,18.4C204.8,180,204.7,180.1,204.6,180.1L204.6,180.1z"/>
	<path fill="#7C381D" d="M239.6,159.2c-7.9,4.7-15.9,9.5-23.8,14.2c8.2-4.2,16.4-8.3,24.6-12.5C240.1,160.3,239.9,159.7,239.6,159.2
		z"/>
	<path fill="#F0BC50" d="M227.2,163.2c-5.3,0.5-8.2,4.2-12.9,4.4c-4.7,0.2-7.3,3.1-9.2,4c-1.9,0.9-3-0.3-3.2,0.3
		c-0.3,0.6,1.2,1.6,3.8,0.8c2.6-0.7,3.4-2.8,9.1-3.1c5.7-0.3,7.1-3.3,12.4-3.3C227.2,165.2,227.2,164.2,227.2,163.2z"/>
	<path fill="#7C381D" d="M204.7,173c-1.5,0.2-2.5-0.2-2.8-0.6c0-0.2-0.1-0.4-0.1-0.5c0.2-0.4,0.5-0.3,0.9-0.2
		c0.5,0.1,1.3,0.3,2.3-0.2c0.5-0.2,1.1-0.6,1.7-1.1c1.8-1.2,4.1-2.8,7.6-3c2.3-0.1,4.3-1.1,6.2-2.1c2-1,4-2.1,6.7-2.3
		c0,0.1,0,0.2,0,0.2c-2.5,0.2-4.7,1.3-6.6,2.3c-2,1-3.9,2-6.3,2.1c-3.4,0.2-5.7,1.8-7.5,3c-0.6,0.4-1.2,0.8-1.7,1
		c-1.1,0.5-2,0.3-2.5,0.2c-0.5-0.1-0.6-0.1-0.6,0c0.5,0.8,1.7,1.3,3.7,0.7c0.8-0.2,1.5-0.6,2.2-1c1.5-0.9,3.1-1.9,6.9-2.1
		c2.9-0.1,4.6-1,6.3-1.8c1.7-0.8,3.4-1.6,6-1.6c-2.8,0.2-4.3,1-6,1.8c-1.7,0.8-3.5,1.6-6.4,1.8c-3.8,0.2-5.4,1.2-6.8,2
		c-0.7,0.4-1.4,0.8-2.3,1.1C205.4,172.9,205.1,173,204.7,173C204.7,173,204.7,173,204.7,173z"/>
	<path fill="#7C381D" d="M226.3,164.3c-5.1,1-7.3,4.1-12,4.2c3.7,0.7,6.5-2.6,11.9-3.2C226.3,165,226.3,164.6,226.3,164.3z"/>
	<path fill="#F0BC50" d="M240.7,161.7c11.6-6.9,23.2-13.9,34.8-20.7c0,0,0.7-0.4,0.5-0.8c-0.2-0.4-0.9,0-0.9,0
		c-11.9,6-23.9,12.1-35.8,18.2C239.8,159.4,240.2,160.5,240.7,161.7z"/>
	<path fill="#7C381D" d="M240.8,161.8c0-0.1-0.1-0.1-0.1-0.2c11.6-6.9,23.1-13.9,34.7-20.7c0,0,0.6-0.3,0.4-0.7
		c-0.2-0.3-0.7,0-0.7,0c-12,6-23.9,12.1-35.9,18.2c11.9-6.2,23.8-12.3,35.7-18.4c0.3-0.1,0.8-0.3,1,0.1c0.2,0.4-0.3,0.8-0.5,1
		C263.9,147.9,252.4,154.8,240.8,161.8L240.8,161.8z"/>
	<path fill="#7C381D" d="M240.4,160.8c7.9-4.8,15.9-9.5,23.8-14.2c-8.2,4.2-16.4,8.4-24.6,12.6C239.9,159.7,240.1,160.3,240.4,160.8
		z"/>
	<path fill="#F0BC50" d="M252.8,156.8c5.2-0.5,8.2-4.2,12.9-4.4c4.7-0.2,7.4-3.2,9.2-4c1.9-0.8,3,0.3,3.2-0.3
		c0.3-0.6-1.2-1.6-3.9-0.8c-2.5,0.7-3.3,2.8-9.1,3.1c-5.7,0.3-7.1,3.3-12.4,3.3C252.8,154.8,252.8,155.8,252.8,156.8z"/>
	<path fill="#7C381D" d="M253.3,156.9c-0.1,0-0.3,0-0.5,0.1c0-0.1,0-0.2,0-0.2c2.6-0.3,4.6-1.3,6.6-2.3c2-1,3.9-2,6.3-2.1
		c3.4-0.2,5.7-1.8,7.5-2.9c0.7-0.5,1.2-0.8,1.7-1.1c1.1-0.5,1.9-0.3,2.5-0.2c0.4,0.1,0.6,0.1,0.6,0c-0.4-0.8-1.7-1.2-3.6-0.7
		c-0.9,0.3-1.6,0.6-2.2,1.1c-1.5,0.9-3.1,1.9-6.9,2.1c-2.8,0.1-4.6,1-6.3,1.8c-1.8,0.8-3.4,1.6-6.1,1.6c2.6-0.2,4.3-1,6-1.8
		c1.7-0.8,3.5-1.6,6.4-1.8c3.8-0.2,5.4-1.1,6.8-2c0.7-0.5,1.5-0.9,2.3-1.1c2-0.6,3.4-0.2,3.9,0.4c0,0.2,0,0.4,0.1,0.6
		c-0.1,0.3-0.5,0.2-0.9,0.2c-0.5-0.1-1.3-0.3-2.4,0.2c-0.4,0.2-1,0.6-1.6,1c-1.8,1.2-4.1,2.8-7.6,3c-2.3,0.1-4.2,1.1-6.2,2.1
		C257.6,155.6,255.7,156.5,253.3,156.9L253.3,156.9z"/>
	<path fill="#7C381D" d="M253.7,155.6c5.1-0.9,7.3-4.1,11.9-4.2c-3.6-0.8-6.5,2.7-11.9,3.2C253.7,155,253.7,155.3,253.7,155.6z"/>
	<path fill="#F0BC50" d="M241.8,159c-5.3-10.8-10.6-21.7-15.9-32.5c0,0-0.3-0.6-0.7-0.4c-0.4,0.2-0.2,0.8-0.2,0.8
		c4.4,11.3,8.9,22.7,13.3,34C239.4,160.3,240.6,159.7,241.8,159z"/>
	<path fill="#7C381D" d="M238.3,160.9c-4.5-11.3-9-22.6-13.5-33.8c0,0-0.2-0.4-0.1-0.7c0.2-0.1,0.4-0.2,0.6-0.4
		c0.4,0.1,0.5,0.5,0.5,0.5c5.3,10.8,10.6,21.7,16,32.5c-0.1,0-0.1,0.1-0.2,0.1c-5.4-11-10.8-22-16.2-33c-0.1,0-0.2,0.1-0.3,0.1
		c0,0.2,0,0.5-0.1,0.7C229.5,138.3,233.9,149.6,238.3,160.9L238.3,160.9z"/>
	<path fill="#7C381D" d="M240.9,159.5c-3.6-7.4-7.3-14.9-10.9-22.3c3.1,7.8,6.1,15.5,9.2,23.3C239.8,160.1,240.3,159.8,240.9,159.5z
		"/>
	<path fill="#F0BC50" d="M238.6,147.4c0.2-5.3-3-7.8-2.6-12.5c0.4-4.8-2.2-7.1-2.8-8.8c-0.6-1.8,0.7-3,0.2-3.2
		c-0.6-0.2-1.8,1.4-1.3,4c0.4,2.6,2.4,3.1,1.9,8.9c-0.5,5.9,2.3,6.8,1.7,12.1C236.6,147.7,237.6,147.6,238.6,147.4z"/>
	<path fill="#7C381D" d="M238.8,147.4c-0.1,0-0.2,0-0.2,0c0.1-2.6-0.7-4.5-1.4-6.4c-0.8-1.9-1.5-3.7-1.3-6.1c0.3-3.5-1-5.6-1.9-7.2
		c-0.4-0.6-0.7-1.1-0.8-1.6c-0.3-1.1,0-2,0.2-2.6c0.1-0.4,0.2-0.6,0-0.6c-0.9,0.5-1.5,1.9-1.2,3.8c0.2,0.9,0.5,1.5,0.8,2.2
		c0.7,1.4,1.5,2.9,1.1,6.7c-0.2,2.9,0.4,4.6,0.9,6.2c0.6,1.7,1.1,3.2,0.8,5.9c0.1-2.6-0.4-4.2-1-5.8c-0.6-1.6-1.1-3.3-0.9-6.3
		c0.3-3.8-0.4-5.3-1.1-6.7c-0.3-0.7-0.7-1.3-0.8-2.2c-0.3-1.9,0.2-3.4,0.8-3.9c0.2-0.1,0.4-0.2,0.7-0.2c0.3,0.1,0.2,0.5,0,0.9
		c-0.2,0.6-0.4,1.4-0.2,2.4c0.2,0.5,0.5,0.9,0.8,1.6c0.9,1.6,2.3,3.8,2,7.3c-0.2,2.4,0.5,4.2,1.3,6.1
		C238.1,142.8,238.8,144.7,238.8,147.4L238.8,147.4z"/>
	<path fill="#7C381D" d="M237.6,146.7c-0.3-5.1-3.1-6.9-2.6-11.6c-1.2,3.8,1.7,6.3,1.6,11.7C237,146.7,237.3,146.7,237.6,146.7z"/>
	<path fill="#F0BC50" d="M238.2,161c5.3,10.8,10.7,21.6,16,32.5c0,0,0.2,0.6,0.7,0.4c0.5-0.2,0.2-0.9,0.2-0.9
		c-4.4-11.3-8.9-22.7-13.3-34C240.6,159.7,239.4,160.3,238.2,161z"/>
	<path fill="#7C381D" d="M254.9,194c-0.7,0-0.9-0.4-0.9-0.4c-5.3-10.8-10.6-21.7-15.9-32.5c0.1,0,0.1-0.1,0.2-0.1
		c5.3,10.8,10.7,21.6,16,32.5c0,0,0.2,0.6,0.6,0.4c0.3-0.2,0-0.7,0-0.7c-4.4-11.3-8.8-22.6-13.3-34c4.5,11.3,9,22.6,13.5,33.8
		C255.3,193.2,255.4,193.7,254.9,194L254.9,194z"/>
	<path fill="#7C381D" d="M239.2,160.5c3.6,7.4,7.3,14.9,10.9,22.3c-3.1-7.8-6.1-15.5-9.2-23.3C240.3,159.8,239.8,160.1,239.2,160.5z
		"/>
	<path fill="#F0BC50" d="M241.4,172.6c-0.2,5.3,3,7.8,2.6,12.5c-0.4,4.8,2.2,7.1,2.7,8.9c0.6,1.7-0.7,3-0.1,3.2
		c0.5,0.2,1.7-1.5,1.3-4c-0.4-2.5-2.4-3.1-1.9-8.9c0.5-5.8-2.3-6.8-1.7-12.1C243.4,172.3,242.4,172.4,241.4,172.6z"/>
	<path fill="#7C381D" d="M246.6,197.3c-0.4-0.1-0.2-0.5-0.1-0.9c0.1-0.6,0.5-1.4,0.1-2.4c-0.2-0.5-0.5-1-0.9-1.6
		c-0.9-1.6-2.2-3.8-2-7.3c0.2-2.4-0.4-4.1-1.2-6c-0.7-1.9-1.6-3.8-1.5-6.5c0.1,0,0.2,0,0.3,0c-0.1,2.6,0.7,4.6,1.4,6.4
		c0.8,1.9,1.5,3.7,1.3,6.1c-0.3,3.4,1,5.6,1.9,7.2c0.4,0.6,0.7,1.1,0.8,1.6c0.4,1.1,0.1,1.9-0.1,2.5c-0.1,0.4-0.1,0.6,0,0.6
		c0.8-0.6,1.5-1.9,1.2-3.9c-0.1-0.8-0.4-1.5-0.8-2.1c-0.6-1.3-1.4-2.9-1.1-6.7c0.2-2.9-0.4-4.5-0.9-6.2c-0.6-1.7-1.1-3.2-0.8-6
		c-0.1,2.7,0.4,4.2,1,5.9c0.5,1.7,1.2,3.3,0.9,6.3c-0.3,3.8,0.5,5.3,1.1,6.7c0.4,0.7,0.7,1.3,0.9,2.2c0.2,1.9-0.3,3.3-0.9,3.9
		C247,197.1,246.8,197.2,246.6,197.3L246.6,197.3z"/>
	<path fill="#7C381D" d="M242.4,173.3c0.3,5,3.1,6.9,2.6,11.6c1.2-3.8-1.7-6.2-1.6-11.7C243.1,173.3,242.8,173.3,242.4,173.3z"/>
	<path fill="#F0BC50" d="M240,144.4c8.6-1.2,15.5,4.8,15.5,13.4c0,8.6-6.9,16.6-15.5,17.8c-8.6,1.2-15.6-4.8-15.6-13.4
		C224.4,153.6,231.4,145.6,240,144.4L240,144.4z"/>
	<path fill="#7C381D" d="M240,175.7c-8.7,1.2-15.7-4.8-15.7-13.5c0-8.6,7-16.6,15.7-17.8c8.6-1.2,15.7,4.8,15.7,13.4
		C255.7,166.4,248.6,174.4,240,175.7L240,175.7z M240,144.6c-8.5,1.2-15.5,9.1-15.5,17.6c0,8.6,6.9,14.5,15.5,13.3
		c8.6-1.2,15.4-9.1,15.4-17.6C255.4,149.3,248.6,143.4,240,144.6L240,144.6z"/>
	<path fill="#7C381D" d="M249.9,155.3c-2.8-2-6.2-1.9-8.2,0.2c-1.4,2-1.3,4.2,0.4,6.3c-0.2,0-0.4,0.2-0.5,0.3
		c-1.2-2.1-1.4-4.5-0.6-6.7C243.6,152.8,247.2,152,249.9,155.3L249.9,155.3z"/>
	<path fill="#7C381D" d="M245.5,155.1c-1.6,0.2-1.9,0.7-2.7,1.4c-0.7,0.7-1.1,0.6-1.2,0.8c-0.1,0.1,0,0.5,0.2,0.3
		c0.3-0.2,0.7-0.5,1.5-1.2c0.7-0.7,1.5-0.8,2.2-0.9c2.1-0.3,3.3,1.3,3.6,1.2C249.4,156.5,247.9,154.8,245.5,155.1L245.5,155.1z"/>
	<path fill="#7C381D" d="M248.2,156.8c-1.5-1.5-4.4-1.2-5.6,0.9c0.1,0,0.3,0,0.4-0.1c1.2-2.1,4.1-1.7,4.3-0.8c0,0.1,0,0.2,0,0.2
		C247.7,157,248,156.9,248.2,156.8z"/>
	<path fill="#7C381D" d="M245.3,156c0.6-0.1,1.1,0.3,1.1,0.9c0,0.6-0.5,1.2-1.1,1.2c-0.6,0.1-1.1-0.3-1.1-0.9
		C244.2,156.7,244.7,156.1,245.3,156L245.3,156z"/>
	<path fill="#7C381D" d="M242.7,157.7c1.2,0.9,3.8,0.7,5.6-0.9c-0.3,0-0.5,0-0.8,0c-1.2,1.5-3.1,1.6-4.3,0.8c0-0.1,0-0.2,0-0.2
		C243,157.5,242.8,157.6,242.7,157.7z"/>
	<path fill="#7C381D" d="M248.4,157.4c-2,1.9-4.1,2-5.3,1.5c-1.2-0.6-1.2-0.8-0.9-0.8c0.2,0,0.5,0.1,1.5,0.5
		C244.6,158.9,246,158.7,248.4,157.4L248.4,157.4z"/>
	<path fill="#7C381D" d="M242.5,161.8c0.4,0,0.6,0.5,0.4,0.8c-0.1,0.4-0.6,0.7-0.9,0.5c-0.3,0-0.5-0.3-0.5-0.5
		c-0.1,0.2-0.6,1-1.5,1.2c-0.1,0-0.2,0-0.2,0c0.1,0.1,0.2,0.2,0.2,0.3c0.2,0,0.9-0.1,1.4-0.6c0.4,0.4,1,0.5,1.5,0.1
		c0.5-0.4,0.6-1.1,0.3-1.6C243.1,161.9,242.8,161.8,242.5,161.8L242.5,161.8z"/>
	<path fill="#7C381D" d="M243.9,166.6c-1-0.6-1.5-1.6-2.7-1.4c-0.3,0-0.7,0.2-1.2,0.5c-0.1,0-0.2,0-0.2,0c0.1,0.1,0.2,0.2,0.2,0.3
		c0.4-0.1,1.2-0.8,2.1-0.4C242.9,166,243.4,166.4,243.9,166.6L243.9,166.6z"/>
	<path fill="#7C381D" d="M243.6,166.6c-2.4-0.4-2.9,0.2-3.6,0.3c-0.1,0-0.2,0-0.2,0c0.1,0.2,0.2,0.3,0.2,0.5
		C240.9,167.3,241.5,166.5,243.6,166.6L243.6,166.6z"/>
	<path fill="#7C381D" d="M243.9,166.6c-2.6,0.1-1.8,1.6-3.9,1.9c-0.1,0-0.2,0-0.2,0c0.1,0.1,0.2,0.2,0.2,0.3
		C242.7,168.5,241.5,167.2,243.9,166.6L243.9,166.6z"/>
	<path fill="#7C381D" d="M242.2,170.7c0-1.2-1-2-2.1-1.8c-1.2,0.2-2.2,1.3-2.2,2.4c0.3-1.2,1.5-2.1,2.7-2
		C241.4,169.4,242,169.9,242.2,170.7L242.2,170.7z"/>
	<path fill="#7C381D" d="M230.2,158c2.8-2.8,6.2-3.6,8.2-2.1c1.4,1.6,1.2,3.8-0.4,6.4c0.1,0,0.4,0.1,0.5,0.1
		c1.2-2.5,1.4-4.9,0.6-6.9C236.4,153.8,232.8,154.1,230.2,158L230.2,158z"/>
	<path fill="#7C381D" d="M234.5,156.7c1.5-0.2,1.9,0.1,2.6,0.6c0.7,0.5,1,0.3,1.2,0.4c0.1,0.1,0,0.5-0.2,0.4
		c-0.2-0.1-0.7-0.2-1.5-0.7c-0.7-0.5-1.4-0.4-2.1-0.3c-2.1,0.3-3.3,2.3-3.6,2.2C230.7,159.1,232.1,157,234.5,156.7L234.5,156.7z"/>
	<path fill="#7C381D" d="M231.8,159.1c1.6-1.9,4.4-2.4,5.6-0.7c-0.2,0-0.3,0-0.5,0.1c-1.2-1.8-4.1-0.5-4.3,0.3c0,0.1,0,0.2,0,0.2
		C232.3,159.1,232,159.1,231.8,159.1z"/>
	<path fill="#7C381D" d="M234.8,157.5c-0.6,0.1-1.1,0.6-1.1,1.2c0,0.6,0.5,1,1.1,0.9c0.6-0.1,1-0.6,1-1.2
		C235.8,157.8,235.3,157.4,234.8,157.5L234.8,157.5z"/>
	<path fill="#7C381D" d="M237.4,158.5c-1.2,1.2-3.8,1.7-5.6,0.7c0.3-0.1,0.6-0.2,0.9-0.2c1.2,1.1,3.1,0.8,4.3-0.3c0-0.1,0-0.2,0-0.2
		C237.1,158.3,237.2,158.4,237.4,158.5z"/>
	<path fill="#7C381D" d="M231.6,159.7c2.1,1.3,4.1,0.8,5.3,0c1.2-0.9,1.2-1.1,1-1.1c-0.2,0-0.5,0.3-1.5,0.9
		C235.4,160.1,234,160.3,231.6,159.7L231.6,159.7z"/>
	<path fill="#7C381D" d="M237.5,162.5c-0.4,0.1-0.6,0.6-0.4,0.9c0.1,0.4,0.5,0.5,0.9,0.3c0.3-0.1,0.5-0.4,0.5-0.7
		c0.1,0.2,0.6,0.9,1.6,0.7c0.1,0,0.2,0,0.2,0c-0.1,0.1-0.2,0.3-0.2,0.4c-0.2,0-1,0.1-1.5-0.2c-0.3,0.5-1,0.8-1.5,0.5
		c-0.5-0.3-0.6-1-0.3-1.5C237,162.8,237.3,162.6,237.5,162.5L237.5,162.5z"/>
	<path fill="#7C381D" d="M236,167.7c1.1-0.9,1.6-2,2.8-2.2c0.3,0,0.7,0,1.2,0.2c0.1,0,0.2,0,0.2,0c-0.1,0.1-0.2,0.2-0.2,0.4
		c-0.5,0.1-1.2-0.4-2,0.2C237.1,166.8,236.6,167.4,236,167.7L236,167.7z"/>
	<path fill="#7C381D" d="M236.4,167.7c2.4-1,2.9-0.7,3.6-0.8c0.1,0,0.2,0,0.2,0c-0.1,0.2-0.2,0.4-0.2,0.5
		C239.1,167.5,238.6,166.9,236.4,167.7L236.4,167.7z"/>
	<path fill="#7C381D" d="M236,167.7c2.7-0.6,1.8,1.1,4,0.8c0.1,0,0.2,0,0.2,0c-0.1,0.1-0.2,0.3-0.2,0.4
		C237.4,169.2,238.6,167.6,236,167.7L236,167.7z"/>
	<path fill="#7C381D" d="M237.9,171.3c0-1.2,1-2.3,2.2-2.4c1.2-0.2,2.1,0.6,2.1,1.8c-0.3-1.1-1.5-1.7-2.7-1.2
		C238.7,169.7,238,170.4,237.9,171.3L237.9,171.3z"/>
</g>
</svg>
