<?xml version="1.0" encoding="utf-8"?>
<!-- Generator: Adobe Illustrator 27.9.1, SVG Export Plug-In . SVG Version: 6.00 Build 0)  -->
<svg version="1.1" id="asm" xmlns="http://www.w3.org/2000/svg" xmlns:xlink="http://www.w3.org/1999/xlink" x="0px" y="0px"
	 viewBox="0 0 480 320" enable-background="new 0 0 480 320" xml:space="preserve">
<g>
	<g>
		<path fill="#000066" d="M0,9.5c160,30,320-30,480,0c0,100,0,200,0,300c-160-30-320,30-480,0C0,209.5,0,109.5,0,9.5z"/>
		<path fill="#BD1021" d="M0,159.5c160-20,320-130,480-150c0,100,0,200,0,300C320,229.5,160,239.5,0,159.5z"/>
		<path fill="#FFFFFF" d="M51.4,166.3C194.3,133,337.1,43.4,480,25.6c0,89.3,0,178.6,0,267.9"/>
		<g id="crest_00000104702009437022624540000003304722889403687608_">
			<path d="M367.9,163.5c3.2,0.2,3.1,3.2,3.1,3.2c3.8,0,7.6,0.1,11.3,0.2c1.4-3.7,3-3.3,5.7-1.4c2.6,1.8,5.5,2.6,5.5,2.6
				c1.1-5.3,9.1-4,9.1-4c5.5-10.6,1.7-6.5-1.2-11.2c-1.9-2.3-3-5.5-3.2-7.4c-0.2-2-2.6,0.9-3.1,0.3c-0.4-0.6-4-0.3-4-0.3
				c0.9,0.9-2.1,0.3-2.1,0.3c0.3,0.2,0,1,0,1c-0.3-0.4-2.6-0.8-2.6-0.7c-0.2,0.5-0.7,1-0.7,1c-9.1-1.4-10.8,0.9-18.2,6.2
				c-3,2.8-4.7,2.5-4.7,2.5c-0.9,3-8,6.9-8,6.9c-2.8,2.3-9.9,0.6-6.6-3.8c0.7-1.2,1.3-1.2,1.4-5.3c0.1-2.8,3.1-5.1,6.3-8.5
				c3.9-4.1,9.3-10.8,9.3-10.8c0,2,1.2,2.3,1.2,2.3c1.1-2.1,2.6-3.7,2.6-3.7c0.1,0.2,0.3,0.3,0.3,0.3c1.2-1.5,1.9-2.2,1.9-2.2
				c-2.7-1.2-9.7,5.8-12.2,4.5c-7.4-3.1,2.2-14.1,2.3-13.3c-8.4-1.7-2.4-11.9,8.1-16.3c10.4-4.4,10.3-6.2,10.3-6.2
				c0.6,0.7,1.1,1.8,1.1,1.8c-0.7-0.5,17-8,15.8-8.1c0.8,1.4,0.6,2.4,0.6,2.4c16.5-5,32.7-16.1,32.7-16.1c0.5,1.1,0.2,2.6,0.2,2.6
				c2.7-2.1,12.4-6.6,12.4-6.6c0.2,3.5-2.9,4.5-2.9,4.5c0.3,0.5,0.5,1.5,0.5,1.5c1.6-0.7,9-4.7,9-4.6c2.7,2.5,0.2,5.8,0.2,5.8
				c1,0,1.7-0.7,1.7-0.7c0.7,3.8-3.7,6.6-3.7,6.6c0.8,0.1,2.1-0.4,2.1-0.4c-0.8,3.9-9,7.5-9.1,7.6c2.4,2.4-3.8,3.3-3.1,5
				c0.5,0.6,4.2-1.4,4.2-1.4c0.6,1.8-4,4.7-4,4.7c3.3,0.7,12.3-2.1,12.3-2.1c0.2,4.3-10.2,6.8-12.4,7.7c0.7,0.6,6.6-0.4,6.6-0.4
				c-1.8,3.5-7.8,5.4-7.8,5.4c3.3,2.6,14.2-6.9,20.8-3.3c2.8-0.5,5.2,1.1,5.2,1.1c5.5,1.2,6,3.2,6,3.2c0.6,0.2,1.1,0.5,2.5,1.7
				c1.6,1.5,1.8,6.4,0.5,7.3c-0.8,2.5-0.2,4.8-10.1,3.9c-8.4-1.2-12.8-1.7-12.8-1.7c-0.7-0.1-1.5,0.2-1.5,0.2
				c-3.6,1.3-1.7-1.3-5.9,1.5c-4.2,2.8-6.4,2.1-6.4,2.1c-0.7,0.7-5.1,4.2-7.7,5.5c-2.5,1.3-2.1,1.2,0.1,2.3c2.2,1.1,5.5,0.5,5.5,0.5
				c-2.1,1.1-0.7,1.9-0.7,1.9c2.8-1.4,4.5-0.6,4.5-0.6c0.9,2.4-2.3,5.7-2.3,5.7c1.2,0.3,3.6,0.3,3.6,0.3c-0.6,1.5-2.9,3-4.6,3.3
				c-1.7,0.4-1.4,0.6-0.9,1.6c0.5,1,0.1,2,0.1,2c-3-2.2-3.1-0.5-3.1-0.5c-0.3,2.3-0.3,5.6-0.3,5.6c-2.1-1.2-2.2,0.2-2.2,0.2
				c-0.5,2.1-3.1,4.3-3.1,4.3c-0.1-1.3-1.4-1.7-1.4-1.7c-1.3,2.3-3.8,3.6-3.8,3.6c-0.3,2.1,0.3,5.1,0.3,5.1
				c-1.8-0.6-3.2-0.2-2.1,0.5c0-0.1,20.9,2,20.9,2.1c0.3,0.1,1.5,0.3,1.6,2.4c0,2.1-1.8,2-1.8,2c-7.6-0.9-15.2-1.6-22.9-2.2
				c0,0,0.1,0.6-1.1,1.1c-1.2,0.5-0.8-0.7-1.1,1.9c-0.3,2.6-4.9-0.4-4.9-0.4c-0.7,1-2.5,2.3-2.5,2.3c-1-2.9-2.1-3.9-3.7-1.4
				c-1.6,2.5,3,2.2,3,2.2c0-0.2,26.8-2.3,28.3-2.1c1.5,0,3.1,0.2,3.7,2.2c2.5,3.5-29.6,2-30.8,3c-0.6,1.5-2.9,1.3-2.9,1.3
				c0.2,2.8-4.3,3.5-5.8,3c-3.2,2-4.8,0.3-4.8,0.3c-2.5,1.4-7.2-0.5-6.7-2.9c-0.7,0.2-19.1,1.4-18.8,2.5c0.6,0.7-1.2,2.5-1.2,2.5
				c4.5,4.1-1.5,5.7,0.3,7.3c1.5,1.5,4.2,0.2,7.2-1.2c6.6-4,17.1,3.1,17.5-0.3c0.2-1.1,1.1-1.4,1.1-1.4c-0.3,1.1,0.3,1.5,0.3,1.5
				c0.9,0.1,2.4-0.7,2.4-0.7c-0.1,0.8-1.2,1.2-1.2,1.2c-2.2,1.3,0.8,0.9,0.8,0.9c6-1,8.1-0.8,9.7-0.6c1.6,0.2,8.9,3.5,8.9,3.5
				c0.3-0.7,0.1-2.4,0.1-2.4c1.9,0.6,2.7,1.6,2.7,1.6c0.7-0.7,0.2-1.9,0.2-1.9c7.4,4.6-4.7,4.1-5.1,6.3c2.7-0.5,11-1.8,13,0.1
				c-2.7,0-3.5,0.7-3.5,0.7c1.7,1.2,0.1,2,0.1,2c-2.4-3-4.5-0.2-4.5-0.2c3,0.1,4.2,1.3,7.4,2.8c2.1,1,5.5,1.2,4.6,3.5
				c-0.7-1.3-2.3-1.9-2.3-1.9c-0.1,1.7-2,1.9-2,1.9c2.9-3.7-8-4.3-8.8-2.5c4.6,4.3,7.7,3.2,7.7,3.2c-0.6,1.4-4.3,0.6-4.3,0.6
				c1.8,1.4,1.6,2.2,1.6,2.2c-0.9-0.9-2.5-0.6-5.7-2.7c-3.3-2.2-6.2-1.6-6.2-1.6c4.4,5.2-5,4.5-0.5,7.1c-2,0.3-2.3-1.6-2.3-1.6
				c-1.1-0.2-2.6,0.9-2.6,0.9c0.1-2,2.8-0.9,2.9-2.9c0.4-5.7-18.8-0.9-20.3-4.4c-0.7,0-0.8,0.6-0.8,0.6c1.3,1.2,1.9,1.6,1.6,2.4
				c-0.2,0.8,0.4,1.1,0.4,1.1c-1.4-0.1-1.5-1.7-1.5-1.7c-0.1,0.9-1.6,2-0.8,3c-0.6-0.5-1.7-1.1-0.7-2.5c0.8-1.1-1.7-2.5-1.7-2.5
				c-1-0.9-3.5-0.1-3.5-0.1c-5.3,1-8.4-2.1-8.4-2.1c-0.6,0-1.7-0.3-1.8-0.3c-5.6,2.4-10.5-2.5-10.5-2.5c-4.2,0.9-6.1-1-7.4-2.8
				c-1.5-2.9-7.6-4-4.9-7.9c1.4-1.3,1-1.6,1-1.6c-2.2-3.4,3.9-4.7,4-5.5c0.3-2.6,3.8-1.5,5.1-3c0.9-0.9,2.6,0.1,2.6,0.1
				c3.5-3.4,8.1,0,10.9-1.2c1.9-0.5,17.6-2.5,17.6-2.4c1-1.4,1.7-3.1,6-4c4.3-0.8,7.6-3.3,7.6-3.3c-0.8-0.8-2.1-0.8-2.7-0.9
				c-0.7-0.1-2-1.2-2-1.2c-1.8-0.5-11.6,8.8-12.1,0.4c-3.7,0-7.4,0-11,0c-0.8,4.4-3.4,2.8-6,3.3c-2.2-1.1-2.3-4.8-2.3-4.8
				c-12.1,0.4-18.9,4.8-18.9,4.8c-13.8-6-24.5-6.8-24.5-6.8c16.7-2.7,25.5-7.4,25.5-7.4c9.2,4.8,17.9,4.8,17.9,4.8
				C364,162.5,365.3,163.5,367.9,163.5C367.9,163.5,367.9,163.5,367.9,163.5z"/>
			<path fill="#FFC221" d="M348,190c-5.5,3.3-0.7,2.9-3.2,5.8c-0.9,0.9-0.9,1.2-0.9,1.2c0.1,3.2,2.5,3.8,3.6,4.5
				c0.8,0.6,2.3,2.6,2.3,2.6c1.8,2.3,3.7,2.3,5.1,2.3c3.1,0.3-1.7-2.1-1.5-2.3c1.9,0.6,3.7,2.3,3.7,2.3c3.5,3.5,8.8,3.8,9.4,1.8
				c-4.9-0.1-8.3-2.9-8.4-3.8c3.2,2.9,8.2,3.4,9.8,3.3c1.5-0.1,1.5,0.3,1.1,0.4c-0.3,0.1-0.8,0-1.5,0c-1.6,0.1,0,0.9,1.1,0.7
				c0.8,0,0.2,0.1,2.4,1.6c2.2,1.6,7.7,0.3,7.7,0.3c-3.5-0.8-4-2.3-4-2.3c-4.8,0.6-6.8-2.1-6.8-2.1c-2.6-1.8-6.7-3.4-6.6-5.3
				c0.4,1.5,5.6,3.2,6.6,3.3c-0.9,0.1-1.4-0.1-1.4-0.1c-1.9-0.5-0.8,0.2-0.8,0.2c2.1,1.5,2.7,1.4,2.7,1.4c5.5,0.5,2.7-1.5,2.7-1.5
				c3.9,0.8,4.5-0.5,4.5-0.5c0.8,1.6,3.7,1,3.7,1c-3.9,1.8-0.9,1.3-0.9,1.3c5.7-1,4.3,1.1,6.9,1.1c1.9-0.2,5.5,1.8,8.2,1.7
				c2.2-0.2,2.5,0.4,2.5,0.4c-0.4-0.1-1.4-0.3-3.1,0.4c-0.5,1.5-12.8-0.8-13.5-1c1.6,0.8,1.9,2.9,3,3.1c0.3-0.9,1.6-1.3,1.6-1.3
				c0.8,0.7,3.1,1.7,3.1,1.7c0.2-0.5,0-0.8,0-0.8c2.4,1.7,4.2,1.5,3.9-0.1c0.7,0,0.8,0.4,1.2,0.7c0.5,0.3,1.9,0.1,1.9,0.1
				c-0.5-0.2-0.9-1-0.9-1c3.9-2,10.4-0.4,9.8,2.1c0.7,0.3,1.6,1.3,1.6,1.3c0.3-0.7,0-1.5,0-1.5c1.5,0.8,1.9,2.5,1.9,2.5
				c1.8-1.8-1.7-4.1-1.7-4.1c4.7-1,8.9,2.7,12.5,4c-0.2-0.7-1.9-1.3-2-2c1.2,0.3,2,0.2,2,0.2c-4.1-2.6-5.1-3.7-5.1-3.7
				c1.5,0.3,2.4-0.6,2.4-0.6c-3.2-0.1-3.3-0.9-3.3-0.9c0.6,0.5,8.1,0.1,8.4,0.6c-2-2.9-8.9-1.8-10.9-2.4c1.4-0.8,4.3,0.3,6.1-1
				c1.5-0.9,3.6-0.4,3.6-0.4c-1.2-2.6-7.9,1.3-9.1,0.4c3.4-0.3,4.4-1.3,4.4-1.3c-0.3-0.4-6.1,0.9-6.2-0.1c2.2-1.1,3.8-1.6,3.8-1.6
				c-1.9-0.5-3.6-1.3-3.6-1.3c-3.1,4.4-10.6-1.8-13-1.2c5-3.3,9.9,2.5,12.4,1c-0.8-0.5-0.7-0.9-0.7-0.9c5.9,3.5,12.8,1.3,9.4-1.3
				c-1.8,6.2-12.8-4.7-20.5-1.1c-5.7,1.2-2.6-1.2-6.1-0.4c-5.5,0-11.3-4.1-17.7-0.1c-4,2.2-8.6,1.6-6.7-1.7c2.2-1.3,0.7-5.1-0.6-5.4
				c3.4-2.6-0.5-2.5,2.5-3.4c0.9-0.4,0.5-0.4,0.3-0.9c-0.2-0.5-0.7-0.4-0.7-0.4c-5.5-0.6-6.6-1.4-9.4,1.1c-1.9-1.3-2.3-0.4-2.6-0.1
				c-0.8,0.9-3.5,0.5-4.3,1.8c-0.7,0.8,1,1.3-0.3,2.8c-2,1.3-0.2,2.5-1.1,3.9c-0.5-0.1-0.1-1.9-0.3-2.2c0,0-0.9,0.9-1.1,1.5
				c-1-0.8,3.4-4.2,2.5-4.6C349.2,189.2,348.3,189.8,348,190L348,190z"/>
			<path d="M351.8,203.6c-2-1.1-1.1-3.4-1.5-5c-0.3,0-0.3,2.2-0.4,2.2c0,0-0.9-1.3-1.2-1.6c0.3-0.6-0.1-3.3-1.7-2.4
				c-0.8,0.3-1.3,1,1.2,2.8C348.7,199.5,350.9,204,351.8,203.6z M360,198.8c-0.3-0.5,2.1-5.1,0.9-5.9c-0.2-0.4-0.3-0.3,0.6-1
				c1.1-0.9-0.4-2,1.4-3.5c0,0,1.2-1,1.5-1.4c-1.2,0.9-9.1,3.3-8.2,5.8c1.1,1.5,0.9,1.5,0.8,2.2c-1.4-0.5-3.6-3.1-0.2-5.7
				c1.1-1,0.4,0.2,2.7-1.1c0,0,1.8-1,2.7-2.4c-1.2,1.1-3.1,0.7-5.2,2.4c-1,1.1-3.2,2.9-2.5,4.9c0,0-2.6-0.2-3.2-2.7
				c0,0-4.8,5.6,5.2,7.9C356.5,198.3,358.4,198.7,360,198.8z"/>
			<path fill="#FFC221" d="M404,180.7c4.6,0.1,30.5-4.4,31-0.6c0.8,1.9-3,1.6-3,1.6c-8.6,0.2-17.2,0.6-25.8,1.1
				c-2.2,0-1.4-0.7-2.5-1.6C403.7,181.1,403.4,180.7,404,180.7C404,180.7,404,180.7,404,180.7z"/>
			<path fill="#5A3719" d="M351.2,191.7c0,0-2.8,5.6,8.2,6.6c-0.1-1.1,2.2-3.7,1-5.2c-0.9-1.1,0.7-0.6,1-2c0.2-1.5-0.2-1.3,0.6-2.2
				c-9.2,3.8-2.6,3.5-4.8,6.8c0,0-1.5-0.5-2.4-2C354.6,193.5,352.5,193.6,351.2,191.7L351.2,191.7z"/>
			<path d="M361.9,198.1c1.2,1.8,9.7,3.2,11.3-0.2c0,0,0.6,0.9,0.6,1.5c0,0,2.8-2.2,7.6-0.3c4.8,1.9,3.3,1.4,4.4,1.5
				c0,0-2-0.4-6.7,1.6C374.3,204.4,361.8,203.9,361.9,198.1L361.9,198.1z"/>
			<path fill="#5A3719" d="M357.4,188.5c0,0,1.2,0.1,2.4-1.2C359.8,187.3,358.2,187.7,357.4,188.5z M348.2,199c0,0-2.3-1.6-0.8-2
				C347.4,197.1,348.4,196.9,348.2,199z"/>
			<path d="M397.5,209.2c2.5-3.8,8.2-0.7,12.9,0.3c0,0-5.3,1.1-8.9-0.2C399.6,208.4,397.8,208.9,397.5,209.2z"/>
			<path fill="#5A3719" d="M363.1,199.6c0,0,5.2,2.9,9.8-0.4c0,0,0.4,0.3,0.7,1.1c0,0,3.5-3.2,9.8,0.2
				C379.1,201.9,367.2,205.7,363.1,199.6z"/>
			<path d="M383.1,202.4c0,0,5,0.6,9.2,0.4c2.6-0.1,5.4-0.5,4,0.3c-1.4,0.8-0.7,0.9,5.2,0.5c6-0.3-0.1,1,4,1.7
				C405.6,205.4,395.7,209.7,383.1,202.4z"/>
			<path fill="#5A3719" d="M396.2,199.7c3.3-1.4,6.6,1.3,9.7,2C404.9,204.1,397.6,199.6,396.2,199.7z M399.5,208.2
				c0.8-0.8,5.1-0.5,8.1,1C407.1,209.9,401.5,208.8,399.5,208.2L399.5,208.2z M385.3,203.1c0,0,6.4,0.6,9.9,0.1c0,0-4,1.7,6.1,1.1
				c0,0,2.2-0.2,2,0.2c-0.3,0.3-0.4,0.6,0.7,0.9C403.8,205.4,396.3,208.2,385.3,203.1z"/>
			<path d="M353.3,198.4c0,0,0.1,0.5,1.5,1c2.9,1.1,1.9,3,4.7,3.8c0,0-5,1.1-7.3-1.3C352.2,201.9,350.5,200.2,353.3,198.4"/>
			<path fill="#5A3719" d="M392.8,208.9c-0.5-0.1-8.6-1.7-9.7-2.3c-1.5-1.1-4.6-0.4-5.2-0.3c-0.6,0.1-2.2,0-0.2-1.2
				c0,0-1.6,0-2.3-0.8c0,0-0.7,0.7-3.5,0.4c0,0,1.2,1.8-3.7,1.3c0.4,1.2,5.3,2.8,6.9,1.8c-0.9,1.6,5.4,2.8,5.9,3.3
				c0,0,0.2-0.9-2.9-3C381.2,207.8,388.8,211,392.8,208.9C392.8,208.9,392.8,208.9,392.8,208.9z M394,211.1c1.4,2.1,5.5-0.4,8.4,1.6
				C403.2,211.1,397.1,209.6,394,211.1L394,211.1z M353.1,199c-3.2,2.9,2.9,4.6,4.9,4c-1-0.2-1.7-2.6-3.2-3.1
				C353.5,199.4,353.4,199.3,353.1,199z M351.2,191.7c0,0-2.8,5.6,8.2,6.6c-0.1-1.1,2.2-3.7,1-5.2c-0.9-1.1,0.7-0.6,1-2
				c0.2-1.5-0.2-1.3,0.6-2.2c-9.2,3.8-2.6,3.5-4.8,6.8c0,0-1.5-0.5-2.4-2C354.6,193.5,352.5,193.6,351.2,191.7L351.2,191.7z"/>
			<path d="M380,203.9c0,0,2.3-0.4,8.1,1.8c5.9,2.1,8.3,1.7,9.2,1.7C395.1,209.3,384,205,380,203.9C380,203.9,380,203.9,380,203.9z"
				/>
			<path fill="#FFC221" d="M416.6,203.7c0,0,1.3,0,2.1,0.4c0,0,0.5-0.4,1.7-0.4C420.5,203.7,419.7,202.9,416.6,203.7z M412.6,200.5
				c0,0,1.3,0,1.7-0.6c0,0-0.7-0.8-1.7-1.3C412.7,198.6,412.9,199.5,412.6,200.5z M367.7,185.7c0.6-1.8,20.4-3,20.8-3.4
				c0,0,1,0,1.1,0.6c0.1,0.6-0.1,1.1-4.5,1.6C379.4,184.5,368.4,187.3,367.7,185.7z"/>
			<path fill="#FFC221" d="M385.4,184.9c-0.5,2.6,5.6,4.3,6.7,1.5c0.7-1.6,0.8-3.9-2-2.9c-0.9,0.3-1.7,0.7-1.4,1.2
				c1.6,1.8-0.5,1.3-0.7,0.4c-0.2-0.4,0.3-0.7-1.4-0.5C386,184.6,385.4,184.6,385.4,184.9C385.4,184.9,385.4,184.9,385.4,184.9z"/>
			<path fill="#FFC221" d="M396.4,183.2c1.3,0.2,1.2,2.8-0.4,4c-2.2,1.5-5,1-3.5-0.4C394.4,184.2,391.3,182.7,396.4,183.2z"/>
			<path fill="#FFC221" d="M397.5,183.5c0,0,1,1.2-0.2,3.2c0,0-0.5,0.6,0.7,0.5c1.2-0.1,3.8-1.2,3.6-2.7c0,0-0.1-0.4-0.8-0.4
				c-1.4-0.4,2.6-0.1-1-2.3C399.2,181.2,396.5,182.4,397.5,183.5L397.5,183.5z"/>
			<path fill="#FFC221" d="M400.1,181.7c0,0,1.9,1.3,1.9,1.7c0,0.4-0.2,0.9,0.3,0.8c4.4,0,0.3-5.7-2.1-3.1
				C400.2,181.1,399.6,181.4,400.1,181.7z M390,183.2c0,0,0.3-0.9-1.4-1.3c0.2-0.6,3.9-0.3,3.4,1.1C392,183,390.9,182.9,390,183.2
				L390,183.2z M393.6,183c0,0,1.9-0.3,2.8-0.2c0,0-1-2-3.5-1.4C392.9,181.5,393.8,182.5,393.6,183C393.6,183,393.6,183,393.6,183z
				 M397,182.6c0,0,0-0.6,1.6-1.2c-0.2-0.6-3.3-0.9-3.4-0.2C395.2,181.2,396.5,181.7,397,182.6z M397.6,180.5c0,0,1,0.3,1.7,0.8
				c0,0,1-1,1.8-1.1C401,180.2,399.4,179.3,397.6,180.5z"/>
			<path fill="#5A3719" d="M343.9,176.2c0,0,4.5-3.8,7-3.4c2.9,0.4,8.7-1.6,10.8-1.1c-2.3-1.6-9.8-3.7-16.4,1.5
				c0,0-5.6-2.7-11.3-0.7C334,172.5,340.2,174.3,343.9,176.2C343.9,176.2,343.9,176.2,343.9,176.2z"/>
			<path fill="#FFC221" d="M391.8,181.8c0.3,0,0.5-0.1,0.8-0.1c0,0,1.3,1.5,0.3,1.5C392.1,183.3,392.5,182,391.8,181.8z
				 M386.2,181.8c0,0-0.5,0.5,0.4,0.4c1.8,0.2,1.5-1.4,4-0.9c0.4,0.5,3-0.5,3.6-0.3c0.5,0,0.4,0.1,1.1-0.3c0.6-0.4,1.7-0.1,2.4-0.6
				c1.9-0.8,0.2-0.2-0.3-1.7c0.2,0,2.1,1.3,2.5,0.8c0,0,0.1-1.3,1.5-2.5c1.4-1.2,1.4-1.3,0.6-1.3c-0.8,0-2.2-0.4-2.7-0.1
				c-0.5,0.3-4.6,2.7-6.9,3.1C389.9,178.8,387.7,179.5,386.2,181.8z M322.7,169.8c0,0,7.3,1.3,8.9,2c0,0,0.4-1.2-2.9-1.9
				c0,0,8.1-0.7,16.6,2.6c0,0,4.1-3.5,17.3-2.8c0,0,0-1.1,0.1-1.9c0,0-9.3-0.1-17.8-4.6C344.9,163.3,337.3,167,322.7,169.8
				C322.7,169.8,322.7,169.8,322.7,169.8z M363.3,171.5c0-8.6,1.7-7.8,5.2-7.5c0,0-2.3,2.6-1.7,7.5
				C367.1,172.8,362.8,172.4,363.3,171.5z"/>
			<path fill="#5A3719" d="M365.2,176.1c0.2,0.2-3.5-3.6-0.2-3.2c1.4,0,1.6-0.2,1.9,0.6c0.3,0.7,1.2,2.3,1.4,2.5
				C367.3,176,366.3,176,365.2,176.1z"/>
			<path fill="#FFC221" d="M368.2,172.5c-0.4-1.5-0.1-7.6,0.9-5.7c0.5,0,0.9,0,1.4,0c-2.4-7.8-4.2,4.8-2.8,6.7
				C367.9,173.2,368,172.8,368.2,172.5z"/>
			<path fill="#5A3719" d="M384.3,172.5c0,0,2.7,0.4-1.5,1.3c0,0,0.2,4.8,5.2,1.5c0,0,2.9-1.7,5-2.4c0,0,1-0.3,0.9-1
				c0.2-0.9-1.3-0.6-2.4-0.9c0,0-0.6-0.7-1-0.4c-0.4,0.2-1.3,0.1-0.6,0.9c0.7,0.8,0.9,0.6,1.3,0.4c0.4-0.2,1.9-0.8,0.5,0.4
				c-1.4,1.2-2.6-0.7-3-1.1C387.2,171.6,385.7,172.1,384.3,172.5L384.3,172.5z M370.5,173.1c-0.4,0-0.8,0-1.2,0c0,0-0.7,0.9-1.1-0.5
				c-0.2,0.3-0.3,0.6-0.5,0.9C367.7,173.5,369.2,178.6,370.5,173.1z"/>
			<path fill="#FFC221" d="M368.8,167.2c0,0-0.6,3.4,0.2,5.4c4.4,0,8.8,0.1,13.2,0.2c0,0-0.2-2.4,0-5.7c-0.6,0-1.3,0-1.9,0
				c0,0-0.3,2.7,0,4.4c-0.1,0-0.2,0-0.3,0c0,0-0.2-2.3,0-4.4c-0.5,0-1,0-1.5,0c0,0-0.3,2.5-0.1,4.4c-0.1,0-0.2,0-0.3,0
				c0,0-0.2-2.2,0-4.4c-0.5,0-1,0-1.5,0c0,0-0.3,2.3,0,4.4c-0.1,0-0.2,0-0.4,0c0,0-0.3-2.3,0-4.3c-0.6,0-1.1,0-1.7,0
				c0,0-0.4,2.1,0,4.4c-0.1,0-0.2,0-0.3,0c0,0-0.4-2.2,0-4.4c-0.6,0-1.1,0-1.7,0c0,0-0.4,2.4-0.1,4.4c-0.1,0-0.2,0-0.3,0
				c0,0-0.3-2.3,0.1-4.4c-0.5,0-1.1,0-1.6,0c0,0-0.4,2-0.1,4.4c-0.1,0-0.2,0-0.3,0c0,0-0.3-1.7,0.1-4.4
				C369.8,167.2,369.3,167.2,368.8,167.2C368.8,167.2,368.8,167.2,368.8,167.2z M382.8,173.2c-0.1-11.5,1.3-9.3,9.8-4.7
				c0.4,0.2,1.1,0.3,1.1,1.4c0,1.1,0.2,1.4-1.6,0c-0.3-0.2-1.1-1-1.7-1.2c-1.6-0.5,0.4,0.3,1,1.1c0.5,0.7,0.9,0.6-0.4,0.9
				C389.5,171.1,385.1,172.4,382.8,173.2C382.8,173.2,382.8,173.2,382.8,173.2z"/>
			<path d="M387.4,168.9c-1.3-1.9,1.8-2.4,1.8,1.7C389.4,171.8,387.6,169.3,387.4,168.9z M385.6,174.2c0,0-1.4,0.5-0.5,0.9
				c0.9,0.4,3.6-1.6,2.7-1.4C386.9,173.8,385.6,174.2,385.6,174.2z M387.5,172.3c0,0,1.3-0.1,1,0.4c-0.2,0.5-0.7,0.2-0.9,0.1
				C387.5,172.7,386.6,172.4,387.5,172.3z"/>
			<path fill="#FFC221" d="M394.2,170.9c0,0,0.3,2.3,2.5,3c0,0,1.2,0.3,1-0.7c0-0.7-0.6-1.8-1.5-1.8c-0.1,0-0.2-0.3,0.4-0.1
				c1.2,0.4,0.6-0.6-0.3-0.7c-0.2-0.5,1.1,0.4,1-0.8c0,0,0.1-0.4-0.5-0.5c-0.7-0.1-0.6-0.3-0.4-0.4c0.2,0,1,0.5,1.2-0.3
				c0.2-0.8-1-0.4-0.8-0.8c0.2-0.4,1,0.3,1.1-0.2c0.1-0.5,0.8-0.7-0.4-0.9c-0.6-0.1,0-0.3,0.6-0.2c0.7,0.1,1.1-0.7,1.5-0.9
				c4.1-2.5-4.6-0.4-4.4,0.8C394.8,166.7,394,168.2,394.2,170.9L394.2,170.9z"/>
			<path fill="#FFC221" d="M401.1,172.9c0.4-0.1,0.7,0.1,0.9,0.3c0.5,1-0.6,0.6-1.2,1.3c-0.6,0.7-0.6,0.5-1.5,0.3
				c-1.1-0.6-1.8-2.2-0.5-1.9C398.8,172.8,400.2,173,401.1,172.9C401.1,172.9,401.1,172.9,401.1,172.9z M397.9,172.3
				c0,0.4,4,1,3.6-0.3c0,0,0-0.3-0.8-0.2C399.6,172.2,397.7,170.8,397.9,172.3L397.9,172.3z M397.8,170.6c-0.1,1.3,3.6,1.3,3.8,0.4
				c0-0.4,0.2-0.7-0.8-0.6c-1,0.2-2.1,0-2.3,0C398.5,170.4,397.8,170.1,397.8,170.6C397.8,170.6,397.8,170.6,397.8,170.6z
				 M398.2,169.1c-1.2,1.5,3.3,1.3,3.4,0.8c0.1-0.3,0.3-0.7-0.5-0.6C400,169.6,398.8,169,398.2,169.1z"/>
			<path fill="#5A3719" d="M435.6,175.1c0,0,0,0.7,0.5,1.4c-9.4-1.1-18.9-2-28.3-2.7c0,0,0.4-0.2,0.5-1.3
				C408.4,172.3,435.6,174.9,435.6,175.1z"/>
			<path fill="#FFC221" d="M398.4,168c-0.7,1.1,3,1.6,3.6,0.5c0.2-0.6,0.2-0.3-1.5-0.6c0,0-0.5-0.2,1-0.1c0,0,0.8,0.1,1-0.1
				c0.1-0.1,1.2-0.9-0.2-0.9c-1.4,0-0.7-0.3,0-0.2c0.9,0.1,1.8,0.2,0.8-0.5c-0.4-0.4-0.1-0.3,0.2-0.1c0.3,0.2,0.5,0.3,0.8,0
				c0.3-0.3-0.2-0.7,0-0.6c0.2,0.1,0.4,0.5,1.3,0.1c2.1-0.9,2.7,1.2,4.4,0.2c0.6-0.5-0.7-1.1-0.2-1.1c0.5-0.1,0.9,0.1,1.1-0.3
				c0.2-0.4-0.8-0.8,0.2-1.1c1-0.2,0.2-2.9-0.2-3.2c0,0-1.1,0.6-2.4,2.4c-2.3,4.7-5.4,0.4-7.8,2.7c-0.6,0.3,1.2,0.5,0.2,0.5
				c-1.1,0-1.1,0.1-1.2,0.2c-0.3,0.3,1.2,0.6,0.1,0.7c-0.7,0-1.1-0.1-0.9,0.5c0,0,0,0.1,0.4,0.2c0.4,0,0.5,0.4-0.2,0.4
				C398.4,167.8,398.4,168,398.4,168C398.4,168,398.4,168,398.4,168z M401,174.8c-0.7,0.5,1.5,0.6,1.5,0.2c0.2-0.3,1.2-0.2,0.5-0.7
				C402.4,173.8,402,174.1,401,174.8C401,174.8,401,174.8,401,174.8z"/>
			<path fill="#FFC221" d="M403.9,166.9c0,0,2.4-2,4.3-0.5c2.2,1.9,2.7,1.6,1.9,2.4c-0.5,0.4,0,0.4,0.6,0.2c0.6-0.2,0.6,0,0.9,0.3
				c0.3,0.3,0.7,0.5-0.2,0.5c-0.9,0-2.9-0.1-2.9-0.1c0,0-1.3,0-0.7-0.4c1.1-0.7,0.1-1.8,0-0.6c-0.2,0.2-0.7,0.4-1.1,0.4
				c-1.8,0.2,1.6,0.9-0.6,0.9c-0.4,0-2.2,0-0.4,0.3c1.9,0.3-0.2,0.2,1.2,0.9c1.5,0.9,0.4,2.6-0.2,2.7c0,0-0.6,0.3,0.2,0.2
				c0.8-0.1,1.2-0.1,0.7,0.2c-0.6,0.4-1.7,1.7-3.2,0.6c0,0-0.7-0.3,0.6-0.4c1.3,0-1-0.4-1.4-0.6c-0.4-0.3-1.8-1.7-0.9-1.5
				c1.9,0.3-1.7-1.3,0-1.3c0.7,0.4,3.6,0.9,1.1,0c-1.1-0.3-1.5-0.4-1.2-1.2c0.2-0.8,1.4,0.4,1.1-0.3c-0.3-0.6-1.3-0.4-0.7-1.2
				c0.5-0.8,0.7-0.4,0.9-0.3C404.9,168.3,402.8,167.5,403.9,166.9C403.9,166.9,403.9,166.9,403.9,166.9z"/>
			<path d="M405.6,167.5c0,0,0-0.3,0.4-0.2c0.4,0.1,0.3-0.1,0.4-0.2C408.2,167.6,405.9,168.1,405.6,167.5z"/>
			<path fill="#FFC221" d="M407.9,170c-1.2,0.4,0.9,1.9,0.5,2.5c-0.1,0.3,27.3,2.4,27.3,2.6c0,0,0-1.7,1.1-2.5
				C436.8,172.6,421.8,170.8,407.9,170z"/>
			<path fill="#5A3719" d="M436.1,174.7c-0.2-0.6,1.6-3.4,2.2-0.6C438.7,177.1,435.7,176.9,436.1,174.7
				C436.1,174.7,436.1,174.7,436.1,174.7z"/>
			<path fill="#7B3C20" d="M404.8,178.6c0,0,1.8-1.4,2.1-2c0,0,4.9,3.5,4.6,0.5c0,0,0-0.8,0.2-1.6c0,0,1.8,0.3,2.1-1.1
				c-1.5-0.1-3.1-0.2-4.6-0.4c-1.1,0.1-2.9,2.5-4.7,1.2c0,0-0.6-0.5-1.2-0.1C401.9,175.8,404.8,177.5,404.8,178.6
				C404.8,178.6,404.8,178.6,404.8,178.6z M415.4,170.1c-0.9-0.1-1.8-0.2-2.7-0.2c-4.1-5-3.7-1.1-0.9-5.9c0-0.4-0.1-1,0.3-0.5
				c0.4,0.5,3.2,3,3.6,2.3c0.6-0.7,0.4-2.3,1.1-1.4c1,0.8,0.5,2.9,1,4.7C417.8,169.1,414.3,167.8,415.4,170.1
				C415.4,170.1,415.4,170.1,415.4,170.1z M403.7,164.1c0,0,2.1,1.2,3.1-0.3c1-1.4,1.7-1.6,0.9-3c-0.8-1.4,0-2.1,0.6-2.6
				c0.6-0.5,1.1-0.4,1.2-2.7c-0.5-3.2,6.7-4.6,2.2-5.7c-2.8-0.6-8.4-2.2-9.8-4.3c-1.4-2.1-2.1-0.9-2.1-0.8c-1.1,1.3,3.4,9.4,5,9.8
				C409.2,156.3,404.8,161.6,403.7,164.1z"/>
			<path fill="#5A3719" d="M411.2,158.7c0,0,0.4,4.6,4,6.5c0,0,0.8-1.8,0.5-3.6c0,0,1.2,0.2,1.5,0.7c0,0,0.1-1.3-1.6-1.9
				c-1.7-0.6-0.9-3.6-0.3-3.9c0.6-0.3,0.4-0.9,0-1.5c-1.6-2.4,3.8,0.5,1.3-2c-0.8-0.7-0.8-1.5,0.4-1.4c1.2,0.1,3.2-0.9,2-1.3
				c-1.2-0.4-1.6-0.8,0.1-1.1c4.9-1.1-2.1-1.2,0.4-1.8c1.2-0.1-0.2-1.4-1.6-1.5c-1.4-0.1-4.4,0.2-2-1.4c2.4-1.7-3.4-0.7-1-1.7
				c2.4-1-0.8-0.7-1.2-0.7c-0.9,0.1,0.6-1.8-1.3-1.2c-0.7,0.3-0.7,0.3-0.7-0.5c-0.4-1.4-2.8,1.4-3.7,0.5c-0.9-2-4.1,1.5-3.6-0.6
				c0-0.4,0.6-2-1.6-0.3c-2.2,1.6-0.4-1.9-2.2-0.7c-3.6,2.8-0.9-1.2-4.7,0.9c-1.9,1.1-0.5-0.7-0.2-1.1c0.3-0.4,1.1-3-0.6-1
				c0,0-0.8,1.4-2.7-1.2c-3,4-2.2-1-4,0.8c-0.6,0.7-0.2,0-0.4-0.7c-0.3-0.6-0.4-1.8-3.7,0.4c-3.2,2.2,1.1,0.6-1.3,1.6
				c-2.5,1-8.4,4.1-3,3.4c5.4-0.7-2.7,2-0.8,2.5c1.9,0.5,1.3,2,8.4,0.3c7.1-1.7,5.9-0.2,9.5-1.6c3.6-1.4-0.8,0.5,4,0.5
				c4.8,0.1,0.8,0,1.8,1c0.9,1,5,3.3,8.9,3.9c3.8,0.6,4.8-0.7,3.7,0.8c-1.1,1.5-1.5,2.1-2.1,2.6c-0.7,0.5-2.5,1.6-2.5,3.8
				c0,2.1-3,2.4-1.9,4.8C408.6,161,410.3,159.5,411.2,158.7C411.2,158.7,411.2,158.7,411.2,158.7z"/>
			<path fill="#5A3719" d="M417.5,164.2c0,0-0.9-0.6-0.9-1.6c0,0,0.6,0.1,0.9,0.5c0,0,2.2-2.2-0.4-3.2c-2.6-1-1.3-3.2-0.4-3.1
				c0.9,0,1-0.2,0.3-1.2c-2.1-1.8,3.5-0.6,1.4-2c-0.7-0.4-1.2-1-1.2-1c0,0,4.2-1.5,2.9-2.3c-1.4-0.9,0-0.6,1.2-1.3
				c1.2-0.7,1.4-0.9,1.6-1.2c0,0-1.2,0-2.1-0.2c1.5-0.7-1.7-3.2-3.2-2.7c-3.1,0.4,2-1.7-1.3-2.1c0,0,0.1-0.7,1-1.4c0,0-2.3,0-3-0.4
				c0,0,0.9-0.5,1-1.2c0,0-1.3,0.3-2.8,0.1c0,0,0.9-0.7,0.9-1.4c0,0-2.8,0.4-4,1.3c-1.1-0.6-0.2-1.1-3.9-0.2c0,0,0.3-1.3,1.1-1.7
				c0.7-0.5,0.6-1.5-4.1,1.1c0,0-0.6-0.4-1.2-1.7c-3.6,4.3-1.3-0.6-3.3,1.1c-1.5,1.2,0.2-2.6-1.2-3c0,0-1.5,1.9-2.3,2.1
				c0,0-1.6-1.5-2.1-2.4c-0.5-1-0.5-1.3-1.1,0.3c-0.5,1.6-1.2,1.7-1.2,1.7c0,0-0.9-0.8-1-1.2c0,0-0.2,0.4-0.5,0.6
				c0,0-0.8-0.9-0.8-2.2c0,0-5.1,2.6-5.7,4.2c0,0-4.8-0.3-6.8,0.1c0,0,0.5-1.5,1.8-2.2c0,0-1.3-0.1-1.3-1.3c3.9,0.4,0-1.4,2.4-1.9
				c4.2,0.8,0.8-2.3,1.5-3.2c5.1,2.8,1.7-0.3,5.3,0.4c2.5,0.4,1.8-0.9,2.7-1c1,0,1.5,0.6,0.9-3.6c-0.6-4.2,3,2.1,0.5-4.2
				c0,0-0.6-1.9-2.1-2.8c0,0-0.3,1.4-2,0.1c-1.7-1.2-4.9-1.7-3.5-2.6c1.4-1,2-2.2,1.6-3c0,0-1.6,1.6-4.4,0.4
				c-2.2-0.9-2.7,0.8-4.9,0.3c0,0,0-0.5,2-2c1.9-1.4-1.1,0.5-2.3,0.7c-4,0.6,9.7-6.6,7.8-9.5c0.7,1.9,10.3-0.8,10.6-2.4
				c0.9-1.5,3.4-2.9,4-3.3c3-1-2.6,5.4-6.3,6.2c-4.3,1.6-5.9,2.8-6.7,3.7c-0.8,0.9-4.6,2.8-2.1,2.5c2.5-0.3,6.9,0.1,4.8-0.5
				c-2.1-0.6-4.4,0.3-2.5-1.3c1.9-1.6,2.2-2.1,4.9-3.2c2.7-1,5.8-3.4,5.5-0.8c-0.3,2.6-5.4,5.3-6.6,6.1c-1.3,0.8-0.8,0.7-0.8,1
				c0.2,1.1-1.6,1.4-0.9,2.8c-0.1,1.7,0.7,0.7,1.1,1.8c0,1.1,2.3,0.1,2.4,1c0.1,0.4,0.8,1,0.8-0.3c0.1-1.2,0.6-1.5-0.8-0.9
				c-1.3,0.5-1.6,0.3-1.6-0.2c0-0.6-0.1-0.5-0.7-0.5c-0.6-0.1-0.8-0.8,0.2-1.3c1-0.1,3.7-1.7,3.7-2.6c0.1-0.6-4.4,4-3.3,0.4
				c0.2-1,2.5-2.3,3.6-2.3c1.1,0,3.5,0.6,2.5,2c-1.1,1.4-4,3-2.7,3.1c4.1-0.7,2.3,3.2,0.6,4.5c0,0-1.4-2.3-1.3-0.5
				c0,1.8-0.3,2.4,0,2.5c0.3,0.1,1.8,1,2.3,1.1c0.5,0-2.6,1.3-1.3,1.4c1.3,0.1,3.3-0.5,4-1.7c0,0-2.6-0.7-3.7-1.6c0,0,3-0.6,2.2-3.4
				c0,0,3,0.8,1.7,2.1c-1.3,1.3-2.1,1-1,1.4c4.1,1.3,0.8,1.7,1.9,3.2c0.4,0,1.7-0.5,0.6-1.2c-1.1-0.6,1.2-0.5,0.2-1
				c-1-0.5-1.2-0.7-1.5-0.9c-0.3-0.3,12.4-6.8,6-4.4c0,0,1.3-2.7,3.2-2.6c1.9,0.1,2,1.5,0.9,2.5c-1.1,1-1.7,2.6-4.2,2.9
				c0,0,3.5,1.7-0.6,4.3c0,0-0.9,0.4-0.6,0.7c2,0.3,3.3-2.6,5-3.3c0.9-0.4,5.6-3.2,7-5.4c0.5-1.9,6.4-5.1,7.1-6.1
				c0.3-0.5,0.5-1.3,1.7-1.9c4.1-1.9,10.2-4.5,13.7-7.7c1.3-1.5,5-3.2,5.9-2.7c1.8,1.8-10.2,7.4-10.5,8.3c-0.9,0.5-5.3,3.3-7,3.4
				c-1.7,0.1-1.5,0.7-2.5,1.6c-2,2.3-5.4,3.7-6.9,6c0.1,2.8-6.6,5.7-8.6,6.6c3.5,1.1,0.3,3.6-0.6,4.3c0,0,4.3-0.4,1.2,2.6
				c-0.6,1.2,2.8-0.9,1.4-2.5c0,0,2.3-1.2,4.9-1.1c2.6,0.1,2.5-0.1,0.2-0.8c0,0,1.7-1.8,3.1-0.8c2.9,2.7-4.3,2.7-5.8,3.8
				c0,0,3.1,0.7,4.7-0.4c2-1.4,2.7-0.1,1.6,1.3c-0.7,0.9-0.8,1-0.8,1.2c0.5,1.2-4.5,1-3.2,2.4c0.5,0.7,0.5,2.3-0.7,2.1
				c-1.3-0.2-0.9-1.1-1.4-1.5c-0.9-1.9-6.1,2.2-5.7-1c-0.8,1.3-5.1-0.4-2.1-2c0.7-0.5,3.5-1.6,1.8-1.4c-1.7,0.1-4.2,0.2-4.8-1.1
				c-0.6-1.2,1.3-1.1,1.5-0.9c0.3,0.1,1.5,1.1,1.5-0.1c0-1.2,1.9-1.3,1.3-1.5c-0.6-0.3-1.5,0.5-1.8,0.7c0,0-1.3-1.8-3.4-1.3
				c-2.1,0.5,0.7,0.3,1.2,0.5c0.6,0.1,0.2,1.1-1.7,2.6c-1.9,1.5-1,1.1,0.4,1.1c1.4,0,4.8,0.2,2.8,1.6c-2,1.5-2.8,2.2-3.8,1.9
				c-1.7-0.4,2.6-1.9,0.3-1.6c-1,0.3-1.3,0.4-2.1-0.9c-0.8-1.3-0.5-0.9-0.1-1.8c0.3-0.8,1.1-1.7,0.2-1.4c-1.7,0.8,0.1-1.6-1.8-1.9
				c0,0,0.4,1,0,1.6c-1.3,1.3,2.3,1,0.6,2.3c-0.9,0.6-0.8,0.5-0.2,0.8c2.4,1.1-1.3,2.3,0.8,2.1c0.4,0,1.4,0.4,1.4,1.2
				c0,0.8-0.1,1,1.4,0.3c1.4-0.7,4.3-0.5,4.2,0.5c0,1-0.4,1.3,1.1,0.4c1.5-0.8,2.2,0.9,3.2,0.1c1.9-2.5,5.4,1.4,2.3,2.7
				c-1.5,0.9,0.7,0.3,1.8-0.2c1.1-0.5,4.2-0.7,6,0.2c1.8,0.8,2.3,0.7,3.6,0.3c2-1.4,6.7,3.2,8.5,2.7c0,0.4-8.6,0.6-8.9,1.3
				c0,0,1.5,0.9,1.8,2c0,0,1.6-0.1,2.4,0.3c-0.9,1.7,2.8,2.2,1.5,3.4c-0.7,0.8,1.1,0.5,0.1,1.6c-1.1,1.1-1.4,1.6-1.4,2.5
				c0,0.9,0.2,1.1-0.7,1.1c-1,0,0.2,1.1-0.3,2.3c-0.4,1.2-3.1,0.9-3,4.1c0,0,0.7-1.5,2.4-2.8c1.6-1.3,1.7-1.4,1.6-2.2
				c0-0.8-0.1-0.6,0.7-1.2c0.9-0.6-0.4-1.2,0.5-2.1c0.9-0.8,0.1-0.7,1.1-1.5c1-0.8-0.9-1.1,0.1-1.9c1-0.9-2.5-2.2-1.5-2.7
				c1-0.5,2.7-1.2-3.1-1.6c0,0,1.4-2.1,6.3-1.2c0,0-1.3,0.8-1.4,1.6c0,0,0.6,0.3,0.9,0.4c0,0-0.2,0.6-1.1,1.3c0,0,2.6,1.6,3,2.4
				c0,0-1.6,0.3-2,1c0,0,0.7,0.8,0.9,1.8c0,0-1.8-0.3-2,0.9c-0.2,1.2-0.8,0.3-0.8,1.1c0,0.7,0.1,1-0.6,1.1c-0.6,0.1-0.1,0.7,0,1.1
				c0.1,0.4,0.3,1.4,0.2,1.7c0,0-0.9-0.1-1.3,0c0,0,0.3,1.8-0.8,2c-1.1,0.2,0.6,0.7-0.6,0.8c-1.1,0.1-1,0.2-2.4,2.4
				c0,0,1.2-0.6,2.4-1.2c1.2-0.7-0.1-0.5,1.9-2.3c2-1.7,1.7-1.9,1.5-2.8c-0.3-2.2,0.8-4.4,4.1-4.1c0,0-0.8-1.7-1.7-2.2
				c0,0,1.2-0.7,2.6-0.7c0,0-1.1-1.4-3.5-2.8c0,0,1.9-1.4,2.4-2.1c0,0-0.9,0.1-1.6-0.2c0,0,0.3-0.7,2.1-1.6c0,0,0.9,0.9,0.9,1.8
				c0,0,3-1.4,4.7-1c0,0,0.9,2.1-3.3,5.5c0,0,2.6,0.5,3.7,0.4c0,0-0.6,1.8-3.7,2.6c-3.1,0.8,0.7,2.4-2.5,2c-3.2-0.5-2.2,0.6-2.1,2.2
				c0.1,1.5,0.2,3.1,0.1,3.5c-3.8-1.4-1.6,3.7-4.1,4.2c0,0-0.7-0.7-1.9-1.1C421.7,160,420.1,162.7,417.5,164.2z"/>
			<path fill="#7B3C20" d="M413.9,135c0,0,0.9-0.1,2.4,0.9c1.5,0.9,2.9-0.7,1.3-1.3c-1.6-0.6,0-1,1.5,0.2c1.5,1.2,2.1,0.7,2.6,0.3
				c0.5-0.3,1.2-0.5,0.2-1.2c-1.4-1.2,3,0.5,1.8,1.3c-0.1,2.9,4.2-2.8,3.5-3c0,0,0.8,0.5,0.9,1.4c0.8,1.1,2.8-2.2,2.6-3.3
				c0,0,1,1.6,2.5,0.2c1.5-1.3,0.8-0.5,2.7-0.7c1.8-0.3,4.1-1.3,5.3-2.6c1.2-1.3,1.3-0.3,2.9-0.5c1.6-0.2,4.8-1.9,5.1-3
				c0.3-1.1,0.2-1.8-0.2-1.5c-0.7,0.5-1-1.5-2.7-0.1c0,0,1,0.8,0.2,1.1c-0.8,0.2-1.5,1.2-3,0.6c-1.4-0.5-3,0.9-3,0.9
				c1.7,1.4-2.1,2.5-2.9,1.5c-0.2-0.1-2.4,3.4-3.7,1.8c0,0-1.2,1.1-1.8,1.3c0,0-0.7-0.7-1.4-1c0,0-1.4,1.5-2.6,2
				c0,0-0.4-0.6-1.1-1.1c0,0-0.4,2.1-2.9,3.2c0,0,0.2-0.6-1.1-1.4c0,0-3.1,2.3-4.3,2.5c-1.8,0.2,2.1-1.8-0.5-2.7
				c-1.5-0.5-1.3,0.2-1.6,0.3c-0.9-0.2-1.9-0.4-2.7,0.4c-4.2-0.5-0.2,2.2-2.7,3.2C409.8,135.2,411.9,135.2,413.9,135
				C413.9,135,413.9,135,413.9,135z"/>
			<path fill="#5A3719" d="M420.2,132.3c0,0,0.4-1.4-0.9-2.1c0,0,8.3-0.6,2-4c0,0,7.4-0.9,5.7-3.3c-1.8-2.4-3.5-2-3.7-2
				c-0.3,0,1.6-1.2,2.1-1c0.5,0.2,6.5,2.8,4.9,0.9c-1.5-2-1.4-1.8-1.6-2.4c0,0,2,0.2,4.9,3.1c0,0,0.6-0.6,0.5-1.7
				c0,0,2.1,0.8,2.8,1.4c0,0,0.4-0.7,0.2-1.1c0,0,1.8,1.1,2.5,2.1c0,0,0.8-0.6,1-1.4c0,0,1.8,0.9,2.3,1.5c0,0,0.6-0.7,0.4-1.8
				c0,0,3,1.2,3.4-0.5c0,0,3.1,1,1.1,1.9c-2.6,1.1-0.3-0.4-2.9,1c-2,1.1-3.2,2.5-4.1,2.1c-0.7-0.3-1.6,1.6-2.6,0.5
				c-1-1.1-1-0.6-1.7,0.3c-0.7,0.9-1.8,1.9-1.8,1.9c0,0-0.5-0.3-0.9-0.8c0,0-0.6,0.9-1.4,1.5c0,0-0.6-0.8-1.6-1.3c0,0-1.5,1.5-2.4,2
				c0,0-0.9-0.9-1.8-1.2c0,0-0.1,2.2-2,3.2c0,0-0.4-0.8-1.6-1.3C423.1,130,422.2,131.3,420.2,132.3L420.2,132.3z"/>
			<path fill="#5A3719" d="M415.9,128.7c0,0-1,0.7-0.4,1.5c0.6,0.8,0.7-0.1,1.5-0.1c0.8,0,10.9-1,1.8-4.2c0.9-0.5,9.8-0.6,6.6-3.5
				c-2.7-2.1-4.9,0.3-2.7-1.8c1.8-1.7,0.4-2.7,0.4-2.7c0,0-5.3,3-6.5,3.5c-1.2,0.5-2.9,1.6-0.9,2.3c2,0.7,3.4-1.8,3.6-1.2
				c0.2,0.6-4,2.5-3.4,3.6c0.6,1.1,0.5,1.9,1.5,1.8c1-0.1,3.9,0.7,1.6,0.5C416.6,128.1,415.9,128.7,415.9,128.7
				C415.9,128.7,415.9,128.7,415.9,128.7z"/>
			<path d="M419.5,124.1c0,0-0.9,0.6,0.3,0.3C424.7,124.1,423.4,121.6,419.5,124.1z"/>
			<path fill="#7B3C20" d="M435.8,115.5c3.2-0.1,7.2,1.8,10.1,4.4c0,0-0.1,1.7-3.1,0.1c0,0,0.2,0.8-0.2,1.6c0,0-1.1-0.8-2.4-1.2
				c0,0-0.2,0.6-0.6,0.9c0,0-1.3-1.4-2.8-1.9c0,0-0.3,0.6-0.6,0.8c0,0-1.6-1-2.8-1.1c0,0,0.2,0.9,0,1.3c0,0-3.4-2.8-6.5-2.7
				c0,0,1.5,2.1,2.4,3.2c0,0-6.2-0.9-5.1-4c1-3-0.1-2.3,3.9-2C432.1,115.1,435.8,115.5,435.8,115.5z"/>
			<path fill="#5A3719" d="M406.9,122.1c-1.4,2.4,3.2,0.1,3.5-0.3c2.1-0.4-3.2,2.6-3.2,3.2c0,0,4.1-0.9,6.7-2.9
				c2.7-2-0.1-0.8,4.4-2.5c4.5-1.8,6.9-4.9,4.5-4.7c-2.6-0.1-7.6,5.6-9.2,3.9c11.5-4.3,2.3-5.3,9.3-8.6c3.9-1.7,16.1-7.3,17.1-9.4
				c-1.4-1.4-15.7,7.3-16.7,7.3c-1.3,0.3-1.1,0.1-2,0.9c-1.6,2.2-7.3,4.8-7.5,7.6C413.8,117.3,408.5,120.8,406.9,122.1L406.9,122.1z
				"/>
			<path fill="#5A3719" d="M423,114.3c0,0-0.9,0.3-1.8-0.1c-2.3-3.3,7.4-5.1,9.4-5.4c0,0-0.3,2.2-6.3,3.7
				C424.3,112.5,424.7,113.8,423,114.3z"/>
			<path fill="#AA5323" d="M425.1,113c0,0,0.2,0.6,0,1.1c0,0,11.2,1.9,17-3.9c0,0-8-0.1-11.1,1.4c0-1.7,17.4-5.5,16.9-8.2
				c-0.4,0.3-9,1.3-12.5,1.5c-0.7,0.3-5.5,3.2-6.8,3.6c0,0,2.7,0,3.7-0.7C432.3,107.8,430.4,112.3,425.1,113
				C425.1,113,425.1,113,425.1,113z"/>
			<path fill="#5A3719" d="M403.6,117.8c0,0-1.4,0.9-0.8,1.4c1.5,2,12.3-6.8,8-7C404.4,111.6,408.4,116.4,403.6,117.8z M393.7,116.1
				c0,0,2.8,1.6,1.8,2.9c0,0,8.7-6.7,6.3-8.3c-2.5-1.6-4.4,1.2-3.8,1.5c0.6,0.3,1.9-0.2,1.4,0.3C398.9,113,394.2,115.9,393.7,116.1
				L393.7,116.1z M391.4,113.8c0,0,1.9,0.6,2,1.3c0.1,0.8,5.8-3.6,4.3-5.6c-0.7-0.9-3.9-1.3-4,0.4c-0.1,1.7,2.8-0.1,1.8,1.1
				C394.1,112.6,391.8,113.5,391.4,113.8z M411.9,110.7c0,0-1.2,0.8-0.1,1.3c1.1,0.6,1.8-0.2,2.4-0.6c2-0.9,4.3-4.4,6.4-5.3
				c1-0.6,7.9-3.3,12.2-6.5c4.3-3.2,2.5-2.4,6.9-4.3c4.4-1.9,7.3-3.6,8.3-6c-1.7,0-9.1,3.9-10.6,4.4c-3.2,0.3-2.1,1.1-5.2,3.5
				C426.6,100.5,415.6,106.8,411.9,110.7C411.9,110.7,411.9,110.7,411.9,110.7z"/>
			<path fill="#AA5323" d="M403,112.7c6.1,0.3,11.9-5.7,17.2-9.2c2.6-1.5,10.7-6.3,11.8-7.2c2.1-2.8,2.4-2.5,6.2-3.8
				c2.2-1,12.7-5.7,12.1-9.2C437.8,88.9,413.3,101.9,403,112.7C403,112.7,403,112.7,403,112.7z"/>
			<path fill="#AA5323" d="M399.7,109.5c0,0,2.9-0.2,3.3,1.2c0,0,6.2-3.7,7.6-5.3c1.4-1.6-0.5-0.7,3.1-2.7c3.5-2,15.3-8.9,17-10.1
				c3.9-3.9,18.5-6.5,18.8-12.8c0,0-7.3,3.8-9,4.6c-3.1,0.5-8.1,3.5-10,5.2C423,94.9,406.9,102.9,399.7,109.5L399.7,109.5z"/>
			<path fill="#AA5323" d="M390.7,108.5c0,0,1.5,0,1.9,0.6c0,0,2.7-2.2,5.6,0.1c0,0,10.6-6.3,11.6-8c1.1-1.6,2.8-1.6,6.9-4.2
				c4.6-3.2,23.8-12.4,22.5-16.5c0,0-4,1.8-6.6,4.2c-2.6,2.5-2.4,0.2-5.1,2.2c-3.7,3.3-10.4,5.7-14,8.9c-3.7,2.2-3.6,0.5-6.4,3
				C404,101.5,393.5,105.6,390.7,108.5C390.7,108.5,390.7,108.5,390.7,108.5z"/>
			<path fill="#AA5323" d="M393.9,103.4c-1-1.8,3.5-4,3.6-6c0.3-1.3,0.1-1.1,3-2.1c9.1-3,21.9-9.9,29.1-14.7
				c1.9,3.6-17.3,11-20.2,13.2c-1.2,0.9-1,1.2-6.4,3.4c-5.4,2.3-5.6,2.5-5.5,2.7c4.3-0.9,11.2-5,15.1-7.3c2-0.5,12.1-6.9,14.5-7.4
				c3.4,1.1-10.2,7.7-11.3,8.2c-2.5,1.8-2.6,2.8-6.6,3.6c-2.1,0.4-2.5,1.8-3.9,2.6c-1.4,0.8-11.3,5.5-11.6,5.7
				C393.7,105.3,394.3,104.8,393.9,103.4C393.9,103.4,393.9,103.4,393.9,103.4z"/>
			<path fill="#AA5323" d="M428.2,84.2c-1,0.9,1.5,2.2,3.3,0.6c2.4-2.8,9.5-4.7,10-7.7C441.5,77.1,434.4,79.9,428.2,84.2z M438,84.5
				c0.2-1.6,10.5-6.1,11-6.7c0,0,1,1.1-1.1,2.1C443.1,82,442.3,83.5,438,84.5z"/>
			<path fill="#7B3C20" d="M383.5,100.4c-3.7,1.6-1.7,3.8,1.4,2.8c0.7-0.3,1.9-0.5,2.1-0.6c0.2-0.1,2.8-0.7,3.4-1.8
				c0.7-1.9,5.9-3.6,5.5-5.8C396,94.9,384.2,99.9,383.5,100.4z M365.8,113.4c0,0,2.1-1.2,4.9-0.5c0,0-0.1-0.7-0.6-1
				c0,0,3.5-0.9,4.3-2.4c0.8-1.5,0.9-1.2,1.6-1.6c0.7-0.4,5.4-4,4.9-4.8c-0.5-0.8-0.7-1.8-1.1-2.2c-3,3.2-15.3,6.2-19,11.9
				c-3.7,4.8-3.3,7.5,1.2,8.6c2.7-2.8,27.8-2,22.5,7.9c2.5,1,1.2-2.4,2.3-1.6c1.7,0.6-0.3-4.5-0.8-5.1c-1.2-1.9,3.2,2.2,1.7-1.2
				c-1-2.3-1.2-1.2-1.3-1.1c-0.8,0.8-6.7-3.9-7.9-3.5c-2.4-0.5,2.8-0.8,2.8-2c-2.3,0-6.3-1.7-9.6,0.9c1.3-4.1-5.4-2.6-7.8-0.6
				c0.1-6.9,8.3-3.8,6.3-7.1c0,0,3,0.4,8.1-3.5c0,0-2.7,3.3-6,4C372,111.1,365.3,110.5,365.8,113.4L365.8,113.4z"/>
			<path fill="#5A3719" d="M357.2,129.8c2.1-16,33-7.1,22.1-5.1c2.2-1.9-1.3-3-1.6-0.7c-0.2,0.7-0.3,1.5-1,2.1
				c-0.5-1.1-3.6,0.7-1.5,0.5c1.9-0.5,0.3,1.9-1.5,2.8c-1.7,0.9-1.6,0.8-3.7,1.1C365.4,130.9,356.8,140.9,357.2,129.8L357.2,129.8z"
				/>
			<path d="M366.6,129.3c0,0,0.8-1.6-0.6-2.4c0,0-4.3,0.8-5.6-0.4c0,0,4.7-0.3,7.7-1.4c2.9-1.1,2.1-1.8,1-2c-1-0.2-2.9,0.3-3.1,1.2
				c-1-1.4,1.6-2.7,3.1-2c1,0.3,2,0.7,5.4-1c2,0,3,3.5,0.9,4.1c-1.5-0.4-1.9,2.3-3.1,2.9c0,0,1-2.7-1.5-3.3c0,0-2.1,1.2-3.7,1.3
				C367.1,126.3,369.1,128,366.6,129.3L366.6,129.3z"/>
			<path fill="#5A3719" d="M371.2,124.4c-1.6-2.1,3.7-0.8,2.9,0.4C373.7,125.5,372.3,125.4,371.2,124.4L371.2,124.4z"/>
			<path fill="#FFFFFF" d="M442.2,114.4c-3.5,0.5,3.9,5,4.6,5.3c1.6,0.6,3.2,1.3,3.1,2.8c0.5,1.9-3.5,4.6,0.4,3.9
				c0.7-0.4,5.4-1.7,3.7-0.6c-1.1,0.4-2.3,0.6-0.8,0.8c3.7,0,14.8,3.8,16.4-0.9c0,0,0.1-1,0.8-1.3c0.7-0.3,1.1-1.2,0.2-0.7
				c-1.2,0.8-3.1,0.5-1.5-0.1c0.7-0.2,1.1,0.2,1.8-0.7c1.5-1.2-0.9-1.3-0.5-2.3c1.7-3.3-6.2,1.5-7.1,1c-3.1,0.5-6.6,0.2-9.8,1.6
				c-2.1,0.8-2-0.8-1.6-1c0,0,0.8,1.4,2.9,0c2.1-1.4,1.4,0.1,6.7-0.8c5.2-0.8,3.9-1.3,6-2c2-0.7,4-0.4,2.6-2
				c-1.4-1.6-1.6-1.7-3.4-0.6c-1.8,1.1-6.9,2.7-10,2.4c0,0,11.8-3.1,10.6-3.9c-1.2-0.9-2.5-1.7-3.3-2c-0.8-0.3-1-0.5-2.9,0
				c-3.9,0.9-8.3,1.5-12.1,3.3c-0.8-1.7,13.4-3.7,12.2-4.4c-2.6-0.9-2.1-0.9-6-0.1c-3.2,1-5.9,0.8-8.2,1.6c0,0,0.5-0.5,2-0.9
				c0.8-0.2-0.9-0.7,1.3-0.5c2.4,0.1,6.8-1.1,6.1-1.1C453,110,445,112.8,442.2,114.4C442.2,114.4,442.2,114.4,442.2,114.4z"/>
			<path fill="#5A3719" d="M373.4,123.2c0,0,1.1,0.3,1.4,1c0.3,0.7,1-0.3,0.9-0.6C375.2,121.2,372.3,123,373.4,123.2
				C373.4,123.2,373.4,123.2,373.4,123.2z"/>
			<path fill="#7B3C20" d="M370.3,137.4c0,0,2.3-1.1,4.3-0.9c0,0-0.8-2.6,0.6-2.2c1.4,0.4,1,0.3,1.3,0.2c0,0,0.1-1.7-0.3-2.4
				c0,0,1.4,0.3,2.8,0.3c0,0-1.3-2.5,0.1-4.1c0,0,0.8,1.6,2.6,2c0,0,0-0.7,0-1.4c0,0,1.1-0.1,1.9,0.3c0.8,0.4,1.6-4.4-1-5.5
				c-0.7,1.3-5.7,1.1-6.3,3.9c-1,1.7-1.8,1.7-3.8,2.9c-2,1.2-3.2,3.6-3.3,3.9C369.4,134.4,370.5,135.6,370.3,137.4L370.3,137.4z"/>
			<path fill="#999999" d="M448.8,112.9c0.9,0-0.9-0.7,1.3-0.5c2.4,0.1,6.8-1.1,6.1-1.1c-0.5-0.1-3.2-0.8-6,0.1
				c-3.7,1.2-3.6,0.7-6.3,2.2c-1.3,1.1-4.2,0.5-1.8,2.7c2.1,1.6,3.2,2.8,4.7,3.4c1.6,0.6,3.2,1.3,3.1,2.8c0.5,1.9-3.6,4.6,0.4,3.9
				c0.7-0.4,5.4-1.7,3.7-0.6c-5.8,1,10.4,2.2,11.2,2.1c1.8-0.3,4.2-0.1,4.4-2.3c0,0,0.1-1,0.8-1.3c0.7-0.3,1.1-1.2,0.2-0.7
				c-1,0.5-1.8,0.7-2,0.5c-0.2-0.2-0.2-0.4,0.5-0.6c0.7-0.2,1.1,0.2,1.8-0.7c0.7-0.8,0.6-0.7,0.2-1.1c-0.6-0.5-0.7-1.1-1.8-0.9
				c-2.7,1.1-5.2,0.5-8.5,1.7c-1.9,0.6-5.1,2-5.7,0.2c-1,0.1-4.5,1.6-3.3-0.6c0,0-1.1,1-1.1,0c-0.3-1.6,5.6-0.6,4.5-2.4
				c-0.8-0.7-1.7,0.4-2.6,0.7c-0.9,0.3-2.7,0.4-3-0.9c-0.3-1.3-0.3-2.1-2.7-2.6C442.5,115.9,445.8,113.1,448.8,112.9
				C448.8,112.9,448.8,112.9,448.8,112.9z"/>
			<path d="M456.6,125.2c0,0,3.8-1.1,7.4-1.4c3.5-0.2,0.8,0.2,0.2,0.3C464.3,123.8,453.5,126.4,456.6,125.2z M457.5,126
				c0,0,4.3-0.7,5.1,0c0.8,0.7,0.1,0.3-0.8,0.3C461.2,126.2,456.8,126.4,457.5,126z M464.4,125.6c0,0,0.8,0,0.9,0.3
				C465.6,126.5,463,125.7,464.4,125.6z"/>
			<path fill="#FFFFFF" d="M350.3,155.4c-1.1-5.5,12-14.3,14.4-19.1c0,0,1.2,0.8,1.3,2.2c0,0,1.6-2.5,2.8-3.5c0,0,1.1,1,0.9,3.1
				c0,0,2.2-1.1,5.7-1.2c0,0-1.3,1.4-1.3,2.3c0,0,4.8-0.5,7.3-0.1c0,0-6.6,3.5-4.8,3.8c1.9,0.3,3.8,0,3.8,0c0,0-2.1,2-5.5,2.4
				c0,0,4.3-0.1,5.1,0.8c0,0-4.2,0.6-7.5,3c0,0-0.3-0.1-0.3-1c-0.2,1.5-4.1,3.6-5.2,4.7c-0.8,0.8-2.4,2.4-4.1,2.4
				c0.6-2.1-3.4-2.2-4.6-0.6c0,0-4.5,0.2-5.9,0.4c0.8-2.8,6-0.1,6.9-3.6c0.3-2.4-2.4-1.7-1.4-3.2c1-1.4,0.8-1.4,0.8-1.5
				c-1.5,0.8-1.6,4-4,5.3c-1.8,1.3-2.5,2.1-3,3C351.9,155.1,351,155.2,350.3,155.4z"/>
			<path fill="#FFFFFF" d="M354.6,153.1c-0.2-0.5,3.4-0.9,2.7-1.8c-0.2-0.3-0.9-0.2,0.3-1.6C358.9,150,360.6,153.2,354.6,153.1z"/>
			<path fill="#999999" d="M351.5,150.7c0.1,2.4,3.4,1.4,3.4,1.4c-1.2,0.9-1.9,1.5-2.4,2.1c0.2-1.2-1.9-1.4-1.9-1.4
				C350.8,152.1,351,151.3,351.5,150.7z M363.7,137.7c0.5-0.6,0.8-1.1,1-1.5c0,0,1.2,0.8,1.3,2.2c0,0,1.6-2.5,2.8-3.5
				c0,0,1.1,1,0.9,3.1c0,0,2.2-1.1,5.7-1.2c0,0-1.3,1.4-1.3,2.3c0,0,4.8-0.5,7.3-0.1c0,0-6.6,3.5-4.8,3.8c1.9,0.3,3.8,0,3.8,0
				c0,0-2.1,2-5.5,2.4c0,0,4.3-0.1,5.1,0.8c0,0-1.2,0.2-2.9,0.7c0,0-1.2-1.1-4.8-0.9c0,0,2.8-1.5,5-1.9c0,0-1-1.2-2.5-0.1
				c0,0-3-1.9-0.5-3.6c0,0-1.7-0.3-2.9,0.4c0,0,0.1-1.3,1.3-1.9c0,0-3.4-0.5-4.2,1.9c0,0-0.6-1-0.3-2c0,0-2,1.1-3,2.4
				C365.3,140.9,365,138.6,363.7,137.7 M357.1,152.9c-0.6,0.2-1.4,0.2-2.5,0.2c0,0,0.1-0.3,0.8-0.6
				C355.4,152.5,355.6,152.9,357.1,152.9"/>
			<path d="M363.3,143.8c0,0,1.5,1.1,2.1,1.8c0,0,1.4-0.9,1.9-1.7c0,0,1.1,0.7,1.5,1.6c0,0,0.8-0.5,0.9-1.2c0,0,1.9,0.4,2.6,1
				c0,0,0.3-1.7,0-2.8c0,0,1.3,0.1,2.2,0.4c0,0-0.8-1.2,3.1-2.6c0,0-2.9,0.6-4.1,1.8c0,0-1.3,0.1-1.8-0.3c0,0,0.1,1.8,0,2.6
				c0,0-0.8-0.3-2.2-0.6c0,0-0.4,0.6-0.6,0.7c0,0-0.9-0.7-1.3-1.6c0,0-1.4,1.2-2,1.8C365.5,144.7,364.2,143.8,363.3,143.8
				L363.3,143.8z"/>
			<path fill="#FFC221" d="M354.5,162c1.8-0.2,7.2-4.2,7.8-6.4c0.4-1.9-1.3-2-2.6-1.4C357.2,156,361.8,156.3,354.5,162
				C354.5,162,354.5,162,354.5,162z"/>
			<path fill="#FFC221" d="M354,162.6c0,0-3.2-1.2-0.3-2.6c2.9-1.5,4.2-1.8,4.5-3c0.3-1.1,0.1-0.9-0.9-0.4c-1.1,0.5-5.2,2.4-5.8,0.8
				c0,0,1.7,0.6,3.8-0.5c7.9-2.9-3.2-1.6-4.5-1.2c-0.8,0.2-0.6,0.2-0.7,0.9c-0.1,0.8-1,2.4-1.4,2.8
				C346.3,162.8,351.8,164.1,354,162.6z"/>
			<path d="M352.7,156c-0.6,0-0.9,0.7,0,0.6C353.6,156.6,353.7,155.9,352.7,156L352.7,156z"/>
			<path fill="#FFFFFF" d="M353.8,161.9c-2.7-1.1,4.6-3.5,4-3.8C357.8,158.1,357,159.2,353.8,161.9L353.8,161.9z"/>
		</g>
	</g>
</g>
</svg>
