<?xml version="1.0" encoding="utf-8"?>
<!-- Generator: Adobe Illustrator 27.9.1, SVG Export Plug-In . SVG Version: 6.00 Build 0)  -->
<svg version="1.1" id="aus" xmlns="http://www.w3.org/2000/svg" xmlns:xlink="http://www.w3.org/1999/xlink" x="0px" y="0px"
	 viewBox="0 0 480 320" enable-background="new 0 0 480 320" xml:space="preserve">
<path fill="#232C65" d="M0,300c160,44.8,320-44.8,480,0c0-93.3,0-186.7,0-280C320-24.8,160,64.8,0,20C0,113.3,0,206.7,0,300z"/>
<path fill="#FFFFFF" d="M126.2,203.9c2.5,7.5,4.9,14.9,7.4,22.4c7.4-3.2,14.9-6.6,22.3-10.1c-4.4,7-8.8,14-13.2,20.9
	c6.8,3.6,13.6,7,20.5,10.4c-7.9,1.5-15.8,2.8-23.7,4c1.1,7.8,2.2,15.6,3.3,23.4c-5.5-5.4-11-10.8-16.5-16.3
	c-5.5,6-10.9,11.9-16.4,17.8c1.1-7.9,2.2-15.8,3.3-23.7c-7.9-0.5-15.9-1.2-23.8-2.1c6.8-3.9,13.7-7.9,20.5-12.1
	c-4.4-6.6-8.8-13.2-13.2-19.8c7.4,2.9,14.9,5.6,22.3,8.2C121.4,219.3,123.8,211.6,126.2,203.9z"/>
<path fill="#FFFFFF" d="M378.8,219.5c1.2,3.6,2.4,7.2,3.5,10.8c3.5-1.3,7.1-2.6,10.6-3.8c-2.1,3.1-4.2,6.2-6.2,9.3
	c3.2,2,6.5,4,9.7,6.1c-3.8,0.2-7.6,0.4-11.4,0.7c0.5,3.8,1.1,7.5,1.6,11.3c-2.6-2.8-5.3-5.6-7.9-8.3c-2.6,2.7-5.2,5.5-7.8,8.3
	c0.5-3.8,1-7.5,1.6-11.3c-3.8-0.3-7.6-0.5-11.3-0.7c3.3-2,6.5-4.1,9.8-6c-2.1-3.1-4.2-6.2-6.3-9.3c3.5,1.2,7.1,2.5,10.6,3.8
	C376.5,226.7,377.6,223.1,378.8,219.5z"/>
<path fill="#FFFFFF" d="M315.7,122.9c1.2,3.5,2.3,7,3.5,10.5c3.5-1.7,7.1-3.3,10.6-5c-2.1,3.3-4.2,6.7-6.3,10c3.2,1.6,6.5,3.3,9.7,5
	c-3.8,0.6-7.5,1.2-11.3,1.9c0.5,3.7,1,7.4,1.6,11.1c-2.6-2.5-5.2-5-7.8-7.5c-2.6,3-5.2,6-7.9,9.1c0.5-3.8,1-7.6,1.6-11.4
	c-3.8,0.1-7.5,0.2-11.3,0.3c3.2-2.3,6.5-4.6,9.7-6.9c-2.1-2.9-4.2-5.9-6.3-8.8c3.5,0.9,7.1,1.9,10.6,2.9
	C313.4,130.4,314.5,126.7,315.7,122.9z"/>
<path fill="#FFFFFF" d="M378.8,51.1c1.2,3.6,2.4,7.2,3.5,10.8c3.5-1.3,7.1-2.6,10.6-3.8c-2.1,3.1-4.2,6.2-6.2,9.3
	c3.2,2,6.5,4,9.7,6.1c-3.8,0.2-7.6,0.4-11.4,0.7c0.5,3.7,1.1,7.5,1.6,11.2c-2.6-2.8-5.3-5.5-7.9-8.3c-2.6,2.7-5.2,5.5-7.8,8.3
	c0.5-3.7,1-7.5,1.6-11.2c-3.8-0.3-7.6-0.5-11.3-0.7c3.3-2,6.5-4.1,9.8-6.1c-2.1-3.1-4.2-6.2-6.3-9.3c3.5,1.2,7.1,2.5,10.6,3.8
	C376.5,58.4,377.6,54.7,378.8,51.1z"/>
<path fill="#FFFFFF" d="M435,106.4c1.1,3.8,2.3,7.5,3.4,11.3c3.6-0.8,7.1-1.6,10.7-2.3c-2.1,2.8-4.2,5.6-6.4,8.4
	c3.3,2.4,6.5,4.9,9.8,7.5c-3.8-0.4-7.6-0.7-11.4-0.9c0.5,3.8,1.1,7.7,1.6,11.5c-2.6-3.2-5.2-6.3-7.9-9.4c-2.6,2.4-5.2,4.8-7.8,7.3
	c0.5-3.7,1.1-7.4,1.6-11.1c-3.8-0.8-7.6-1.5-11.4-2.2c3.3-1.6,6.5-3.2,9.8-4.8c-2.1-3.4-4.2-6.8-6.2-10.1c3.5,1.7,7.1,3.4,10.6,5.2
	C432.7,113.3,433.8,109.8,435,106.4z"/>
<path fill="#FFFFFF" d="M404.1,154.1c0.9,2.3,1.8,4.6,2.8,6.9c2.4,0.3,4.8,0.7,7.2,1.1c-1.8,1.4-3.7,2.8-5.5,4.3
	c0.6,2.4,1.1,4.8,1.7,7.2c-2.1-1.4-4.1-2.9-6.2-4.3c-2,1.2-4.1,2.4-6.1,3.6c0.6-2.3,1.1-4.7,1.7-7c-1.8-1.6-3.7-3.3-5.5-4.9
	c2.4-0.1,4.8-0.2,7.2-0.2C402.2,158.5,403.2,156.3,404.1,154.1z"/>
<path fill="#FFFFFF" d="M105.2,32.9c0,14,0,28.1,0,42.1C70.2,75.3,35.1,71.9,0,62.1c0,14,0,28.1,0,42.1
	c35.1,9.8,70.2,13.2,105.2,12.9c0,14,0,28.1,0,42.1c14-0.1,28-0.8,42-1.9c0-14,0-28.1,0-42.1c35.1-2.7,70.2-7.9,105.3-12.8
	c0-14,0-28.1,0-42.1c-35.1,4.9-70.2,10.1-105.3,12.8c0-14,0-28.1,0-42.1C133.3,32.1,119.3,32.8,105.2,32.9z"/>
<path fill="#FFFFFF" d="M0,20c0,4.7,0,9.4,0,14.1c74.8,58.3,149.5,87.3,224.3,114.3c9.4-1.3,18.8-2.6,28.2-3.9c0-4.7,0-9.4,0-14.1
	C177.8,103.4,103,77.9,28.2,26.6C18.8,24.8,9.4,22.6,0,20z"/>
<path fill="#FFFFFF" d="M224.3,22.2C149.5,69.9,74.8,115.7,0,132.2c0,4.7,0,9.4,0,14.1c9.4,2.6,18.8,4.8,28.2,6.6
	C103,129.4,177.8,80.1,252.5,32.4c0-4.7,0-9.4,0-14.1C243.1,19.5,233.7,20.9,224.3,22.2z"/>
<path fill="#E62328" d="M113.6,32.8c0,16.8,0,33.7,0,50.5C75.7,84.2,37.9,81.1,0,70.5c0,8.4,0,16.8,0,25.3
	c37.9,10.6,75.7,13.7,113.6,12.8c0,16.8,0,33.7,0,50.5c8.4-0.2,16.8-0.6,25.3-1.1c0-16.8,0-33.7,0-50.5
	c37.9-2.5,75.8-8.1,113.7-13.4c0-8.4,0-16.8,0-25.3c-37.9,5.3-75.8,10.9-113.7,13.4c0-16.8,0-33.7,0-50.5
	C130.5,32.2,122,32.6,113.6,32.8z"/>
<path fill="#E62328" d="M0,20c0,3.1,0,6.3,0,9.4c21.8,17,43.5,31.5,65.3,44.2c6.3,0.5,12.6,0.9,18.9,1.1C56.1,59.6,28.1,41.9,0,20z
	 M233.7,20.9c-28.1,18-56.1,35.8-84.2,52.1c6.3-0.5,12.6-1.1,18.8-1.7c28-16.9,56.1-35.1,84.1-53C246.3,19.1,240,20,233.7,20.9z"/>
<path fill="#E62328" d="M84.2,116.8c-28.1,13-56.1,23.3-84.2,29.5c6.3,1.8,12.5,3.3,18.8,4.7c28.1-7.9,56.1-19.7,84.2-33.8
	C96.7,117.2,90.5,117.1,84.2,116.8z M168.4,113.3c28.1,11.1,56.1,21.1,84.2,31.2c0-3.1,0-6.3,0-9.4c-21.8-7.9-43.6-15.6-65.4-23.9
	C180.9,112,174.7,112.7,168.4,113.3z"/>
</svg>
