<?xml version="1.0" encoding="utf-8"?>
<!-- Generator: Adobe Illustrator 27.9.1, SVG Export Plug-In . SVG Version: 6.00 Build 0)  -->
<svg version="1.1" id="Flags" xmlns="http://www.w3.org/2000/svg" xmlns:xlink="http://www.w3.org/1999/xlink" x="0px" y="0px"
	 viewBox="0 0 480 320" enable-background="new 0 0 480 320" xml:space="preserve">
<path fill="#C8202F" d="M0,112.7c160.7,45,321.3-45,482,0c0-31.2,0-62.5,0-93.7C321.3-26,160.7,64,0,19C0,50.2,0,81.5,0,112.7z"/>
<path fill="#C8202F" d="M0,300.1c160.7,45,321.3-45,482,0c0-31.2,0-62.5,0-93.7c-160.7-45-321.3,45-482,0C0,237.7,0,268.9,0,300.1z"
	/>
<path fill="#FFFFFF" d="M0,206.5c160.7,45,321.3-45,482,0c0-31.2,0-62.5,0-93.7c-160.7-45-321.3,45-482,0C0,144,0,175.2,0,206.5z"/>
</svg>
