<svg version="1.1" id="bgr" name="bulgaria" xmlns="http://www.w3.org/2000/svg" xmlns:xlink="http://www.w3.org/1999/xlink" x="0px"
     y="0px"
     viewBox="0 0 480 320" enable-background="new 0 0 480 320" xml:space="preserve">
    <g id="flag-bgr">
<path fill="#FFFFFF"
      d="M0,300c160,44.8,320-44.8,480,0c0-93.4,0-186.7,0-280.1C320-24.8,160,64.8,0,20C0,113.3,0,206.7,0,300z"/>
        <path fill="#59B249"
              d="M0,300c160,44.8,320-44.8,480,0c0-62.2,0-124.5,0-186.7c-160-44.8-320,44.8-480,0C0,175.6,0,237.8,0,300z"/>
        <path fill="#C32328"
              d="M0,300c160,44.8,320-44.8,480,0c0-31.1,0-62.2,0-93.4c-160-44.8-320,44.8-480,0C0,237.8,0,268.9,0,300z"/>
    </g>
</svg>
