<svg version="1.1" id="bhr" name="bahrain" xmlns="http://www.w3.org/2000/svg" xmlns:xlink="http://www.w3.org/1999/xlink" x="0px" y="0px"
	 viewBox="0 0 480 320" enable-background="new 0 0 480 320" xml:space="preserve">
<g id="flag-bhr">
	<path fill="#FFFFFF" d="M0,300c160,44.8,320-44.8,480,0c0-93.3,0-186.6,0-279.9C320-24.8,160,64.8,0,20C0,113.3,0,206.7,0,300z"/>
	<path fill="#BC2035" d="M123.3,32.5c23.3,8.4,46.7,15.4,70,21.8c-23.3,12.2-46.7,23.9-70,34.2c23.3,8.4,46.7,15.4,70,21.8
		c-23.3,12.2-46.7,23.9-70,34.1c23.3,8.4,46.7,15.4,70,21.8c-23.3,12.3-46.7,23.9-70,34.3c23.3,8.4,46.7,15.4,70,21.8
		c-23.3,12.2-46.7,23.9-70,34.2c23.3,8.4,46.7,15.4,70,21.9c-23.3,12.2-46.7,23.9-70,34.1c118.9-4.8,237.8-45.8,356.7-12.5
		c0-93.3,0-186.6,0-279.9C361.1-13.3,242.2,27.7,123.3,32.5z"/>
</g>
</svg>
