<?xml version="1.0" encoding="utf-8"?>
<!-- Generator: Adobe Illustrator 28.2.0, SVG Export Plug-In . SVG Version: 6.00 Build 0)  -->
<svg version="1.1" id="bhr" xmlns="http://www.w3.org/2000/svg" xmlns:xlink="http://www.w3.org/1999/xlink" x="0px" y="0px"
	 viewBox="0 0 480 320" style="enable-background:new 0 0 480 320;" xml:space="preserve">
<style type="text/css">
	.st0{fill:#FFFFFF;}
	.st1{fill:#DA291C;}
</style>
<path class="st0" d="M0,13.5c160,46.9,320-46.9,480,0c0,97.6,0,195.3,0,292.9c-160-46.9-320,46.9-480,0C0,208.8,0,111.2,0,13.5z"/>
<path class="st1" d="M120,26.7c120-4.4,240-48.3,360-13.2c0,97.6,0,195.3,0,292.9c-120-35.2-240,8.8-360,13.2
	c24-10.6,48-22.9,72-35.7c-24-6.7-48-14-72-22.9c24-10.6,48-22.9,72-35.7c-24-6.7-48-14-72-22.9c24-10.6,48-22.9,72-35.7
	c-24-6.7-48-14-72-22.9c24-10.6,48-22.9,72-35.7c-24-6.7-48-14-72-22.9c24-10.6,48-22.9,72-35.7C168,42.9,144,35.6,120,26.7z"/>
</svg>
