<?xml version="1.0" encoding="utf-8"?>
<!-- Generator: Adobe Illustrator 28.2.0, SVG Export Plug-In . SVG Version: 6.00 Build 0)  -->
<svg version="1.1" id="bhs" xmlns="http://www.w3.org/2000/svg" xmlns:xlink="http://www.w3.org/1999/xlink" x="0px" y="0px"
	 viewBox="0 0 480 320" style="enable-background:new 0 0 480 320;" xml:space="preserve">
<style type="text/css">
	.st0{fill:#00778B;}
	.st1{fill:#FFC72C;}
</style>
<g>
	<path class="st0" d="M0,13.5c160,46.8,320-46.8,480,0c0,97.6,0,195.2,0,292.8c-160-46.8-320,46.8-480,0C0,208.7,0,111.1,0,13.5z"/>
	<path class="st1" d="M80,124.1c133.3,6.5,266.7-52,400-13c0,32.5,0,65.1,0,97.6c-133.3-39-266.7,19.5-400,13
		C80,189.2,80,156.6,80,124.1z"/>
	<path d="M207.8,164.5C138.6,222.9,69.3,277.8,0,306.3c0-97.6,0-195.2,0-292.8C69.3,82.6,138.6,125.3,207.8,164.5z"/>
</g>
</svg>
