<svg version="1.1" id="cod" name="kongo" xmlns="http://www.w3.org/2000/svg" xmlns:xlink="http://www.w3.org/1999/xlink" x="0px" y="0px"
	 viewBox="0 0 480 320" enable-background="new 0 0 480 320" xml:space="preserve">
<g id="flag-cod">
	<path fill="#3C9446" d="M0,300c160,44.8,320-44.8,480,0c0-93.3,0-186.6,0-279.9C320-24.8,160,64.8,0,20C0,113.3,0,206.7,0,300z"/>
	<path fill="#F3DD53" d="M319.9,10.1C213.3,113.4,106.6,236.5,0,300c160,44.8,320-44.8,480,0c0-93.3,0-186.6,0-279.9
		C426.6,5.1,373.3,5.1,319.9,10.1z"/>
	<path fill="#C8202E" d="M480,20C373.3,83.5,266.7,206.7,160,309.9c106.7-10,213.3-39.8,320-10C480,206.7,480,113.3,480,20z"/>
</g>
</svg>
