<svg version="1.1" id="col" name="columbia" xmlns="http://www.w3.org/2000/svg" xmlns:xlink="http://www.w3.org/1999/xlink" x="0px" y="0px"
	 viewBox="0 0 480 320" enable-background="new 0 0 480 320" xml:space="preserve">
<g id="flag-col">
	<path fill="#F4D130" d="M0,160c160,44.8,320-44.8,480,0c0-46.7,0-93.3,0-140C320-24.8,160,64.8,0,20C0,66.7,0,113.3,0,160z"/>
	<path fill="#273D8C" d="M0,230c160,44.8,320-44.8,480,0c0-23.3,0-46.7,0-70c-160-44.8-320,44.8-480,0C0,183.3,0,206.7,0,230z"/>
	<path fill="#BC2035" d="M0,300c160,44.8,320-44.8,480,0c0-23.3,0-46.7,0-70c-160-44.8-320,44.8-480,0C0,253.3,0,276.7,0,300z"/>
</g>
</svg>
