<?xml version="1.0" encoding="utf-8"?>
<!-- Generator: Adobe Illustrator 28.2.0, SVG Export Plug-In . SVG Version: 6.00 Build 0)  -->
<svg version="1.1" id="dza" xmlns="http://www.w3.org/2000/svg" xmlns:xlink="http://www.w3.org/1999/xlink" x="0px" y="0px"
	 viewBox="0 0 480 320" enable-background="new 0 0 480 320" xml:space="preserve">
<path fill="#FFFFFF" d="M0,300.2c160,44.5,320-44.9,480-0.4c0-93.3,0-186.6,0-280C320-24.7,160,64.7,0,20.2C0,113.5,0,206.9,0,300.2
	z"/>
<path fill="#34763A" d="M0,300.2c80,22.2,160,11,240-0.2c0-93.3,0-186.6,0-280C160,31.2,80,42.5,0,20.2C0,113.5,0,206.9,0,300.2z"/>
<g id="crest">
	<path fill="#C01F41" d="M291.9,196.8c-24.1,22.2-59.4,23.4-78.7,2c-19.3-21.6-15.4-57.4,8.7-80c24.1-22.6,59.4-23.8,78.7-1.8
		c-6.1-9.9-15-17.7-25.6-22.4c-33.5-14.8-76.3,2.9-95.7,38.3c-19.3,35.5-7.8,77.5,25.6,92.5c33.5,14.8,76.3-2.9,95.7-38.4
		C298,190.5,295.1,193.7,291.9,196.8L291.9,196.8z"/>
	<path fill="#C01F41" d="M264.2,169.3c5,6.2,9.9,12.4,14.9,18.6c0-8.5,0-16.9,0-25.4c8.1-3.7,16.1-7.3,24.2-10.8
		c-8.1-1.7-16.1-3.4-24.2-4.9c0-8.5,0-17,0-25.4c-5,7.5-9.9,15-14.9,22.5c-8.1-1.5-16.1-3-24.2-4.5c5,6.2,10,12.3,14.9,18.5
		c-5,7.6-10,15.1-14.9,22.7C248.1,176.8,256.1,173.1,264.2,169.3z"/>
</g>
</svg>
