<svg version="1.1" id="fji" name="fidschi" xmlns="http://www.w3.org/2000/svg" xmlns:xlink="http://www.w3.org/1999/xlink" x="0px" y="0px"
	 viewBox="0 0 480 320" enable-background="new 0 0 480 320" xml:space="preserve">
<g id="flag-fji">
	<path fill="#6EB1DD" d="M0,300c160,44.8,320-44.8,480,0c0-93.3,0-186.7,0-280C320-24.8,160,64.8,0,20C0,113.3,0,206.7,0,300z"/>
	<path fill="#252E65" d="M0,20c80.2,22.4,160.4,11.2,240.5-0.1c0,40.1,0,80.2,0,120.3C160.4,151.4,80.2,162.7,0,140.3
		C0,100.2,0,60.1,0,20z"/>
	<path fill="#FFFFFF" d="M0,20c0,4.5,0,9,0,13.5C71.2,89,142.4,117.9,213.6,143.9c9-1.2,17.9-2.5,26.9-3.7c0-4.5,0-9,0-13.5
		C169.3,101.1,98.1,75.5,26.9,26.3C17.9,24.6,9,22.5,0,20z"/>
	<path fill="#FFFFFF" d="M240.5,19.9c0,4.5,0,9,0,13.5C169.3,79,98.1,124.6,26.9,146.6c-9-1.7-17.9-3.8-26.9-6.3c0-4.5,0-9,0-13.5
		c71.2-15.7,142.4-58,213.6-103.2C222.6,22.4,231.6,21.2,240.5,19.9z"/>
	<path fill="#FFFFFF" d="M100.2,153.2c13.4,0,26.7-0.5,40.1-1.4c0-40.1,0-80.2,0-120.3c-13.4,0.9-26.7,1.4-40.1,1.4
		C100.2,73,100.2,113.1,100.2,153.2z"/>
	<path fill="#FFFFFF" d="M0,100.2c80.2,22.4,160.4,11.2,240.5-0.1c0-13.4,0-26.7,0-40.1C160.4,71.2,80.2,82.5,0,60.1
		C0,73.5,0,86.8,0,100.2z"/>
	<path fill="#BC2035" d="M0,92.1c80.2,22.4,160.4,11.2,240.5-0.1c0-8,0-16,0-24.1C160.4,79.2,80.2,90.5,0,68.1C0,76.1,0,84.1,0,92.1
		z"/>
	<path fill="#BC2035" d="M108.2,153.2c8-0.1,16-0.4,24-0.8c0-40.1,0-80.2,0-120.3c-8,0.4-16,0.7-24,0.8
		C108.2,73,108.2,113.1,108.2,153.2z"/>
	<path fill="#C01F41" d="M0,140.3c26.7-5.9,53.4-15.5,80.2-27.6c6,0.3,12,0.4,17.9,0.5c-26.7,13.2-53.4,24.2-80.2,31.7
		C12,143.5,6,142,0,140.3z"/>
	<path fill="#C01F41" d="M0,20c26.7,20.8,53.4,37.9,80.2,52.5c-6-0.3-11.9-0.7-17.9-1.2C41.5,59.1,20.8,45.2,0,29C0,26,0,23,0,20z"
		/>
	<path fill="#C01F41" d="M142.4,71.5c26.7-15.3,53.5-32,80.2-49.1c6-0.8,11.9-1.7,17.9-2.5C213.8,37,187.1,54.1,160.4,70
		C154.4,70.6,148.4,71.1,142.4,71.5z"/>
	<path fill="#C01F41" d="M240.5,140.2c-26.7-9.6-53.4-19.2-80.2-30.1c6-0.6,12-1.2,17.9-1.9c20.7,8,41.5,15.5,62.2,23
		C240.5,134.2,240.5,137.2,240.5,140.2z"/>
</g>
<g id="crest">
	<path fill="#FFFFFF" d="M315.8,99.5c0,19.9,0,39.7,0,59.6c1.2,36.7,19.7,47.7,45.4,57.7c29.6-13.9,44.5-28.4,44.5-60.2
		c0-19.9,0-39.7,0-59.6C375.7,95.1,345.8,96.5,315.8,99.5z"/>
	<path fill="#010101" d="M361.2,217.3c-0.1,0-0.1-0.1-0.2-0.1c-27.4-10.5-44.6-22.6-45.7-58c0-20,0-40.1,0-60.1
		c30.3-3,60.6-4.5,90.9-2.6c0,20,0,40,0,60c0,30-12.5,45.5-44.8,60.6C361.4,217.2,361.3,217.2,361.2,217.3L361.2,217.3z M316.3,99.9
		c0,19.7,0,39.4,0,59.1c1.1,35,17.3,46.6,44.9,57.2c31.7-14.9,44-30.3,44-59.7c0-19.7,0-39.4,0-59.1C375.6,95.6,346,97,316.3,99.9
		L316.3,99.9z"/>
	<path fill="#C01F41" d="M315.8,158.1c0,0,0.1,7.7,2.1,17.1c28.7-2.8,57.3-4.1,86-2.5c1.9-8.5,2.2-17.1,2.2-17.1
		C375.9,153.7,345.9,155.1,315.8,158.1z"/>
	<path fill="#C01F41" d="M352.1,125.4c0,29.1,0,58.1,0,87.2c4.3,1.9,9.7,4.1,9.7,4.1c0,0,3.6-2.5,7.6-4.5c0-29.1,0-58.2,0-87.3
		C363.6,124.9,357.8,125.1,352.1,125.4z"/>
	<path fill="#C01F41" d="M315.7,99.2c30.1-3,60.1-4.4,90.2-2.6c0,10.7,0,21.4,0,32.1c-30.1-1.8-60.1-0.4-90.2,2.6
		C315.7,120.6,315.7,109.9,315.7,99.2z"/>
	<path fill="#F3EDEA" d="M320.6,113.8C320.6,113.8,320.6,113.8,320.6,113.8c1.6-0.1,2.9,1.4,2.9,3.5c0,0,0,0,0,0.1
		c0,2.1-1.3,3.8-2.8,4c0,0,0,0-0.1,0c-1.6,0.1-2.8-1.4-2.8-3.4c0,0,0,0,0-0.1C317.7,115.8,319,114,320.6,113.8L320.6,113.8z"/>
	<path fill="#010101" d="M320.6,121.4C320.6,121.4,320.6,121.4,320.6,121.4c-1.7,0.2-2.9-1.4-2.9-3.5c0-2.1,1.3-3.9,2.9-4.1
		c1.6-0.1,2.9,1.4,2.9,3.5C323.5,119.4,322.2,121.2,320.6,121.4L320.6,121.4z M320.6,113.9c-1.6,0.2-2.9,1.9-2.9,3.9
		c0,2.1,1.3,3.6,2.8,3.5c0,0,0,0,0.1,0c1.5-0.1,2.8-1.9,2.8-3.9C323.4,115.3,322.1,113.8,320.6,113.9L320.6,113.9z"/>
	<path fill="#F4CF2E" d="M386.6,109c0,0,5.2-0.3,7.1-1.9c1.8-1.7-1.2-5,0.7-5.3c0.8,0,1.9,0.2,2.7,1.2c-0.1-0.7-0.7-1.1-0.8-1.5
		c-0.7-0.6-1.5-0.6-2.5-0.6c-0.7,0.1-0.9-0.1-2-1.3c-0.6-0.5-0.6-2-0.1-2.9c-1.3,0.9-1,2.1-0.9,2.4c0.3,1.2,0.6,1.6,0.6,2.1
		c-0.4-0.2-1.1-1.7-4.8-1.9c-3.7-0.4-13.1,2.1-17.3,2.2c-4.2,0.1-10.3-1.2-10.3-1.2c0,0,1.6-1.1-0.3-1.5c-1.9-0.4-6,1.8-7.2,0.8
		c-0.8-1-0.5-0.8-0.6-1.3c-0.4,0.2-0.5,0.8-0.1,1.7c0.5,0.9,0.7,0.6,0.7,0.6c0,0-1.5,0.1-1.6,0.5c-0.1,0.3-0.3,0.7,0.4,1.9
		c0.2-1.2-0.7-1.4,1.4-1.6c2.1-0.2,3.6,0.6,5.5,0.8c1.8,0.2,1.8-0.7,1.9-0.7c0.1,0.1,5.6,1.1,10.7,0.8c5-0.4,13.2-2.7,17-2.2
		c3.7,0.5,6.2,3,6.3,5.2c0,1.3-1.7,2-3,2.2c-1.6,0.2-5.1,0.5-5.1,0.5C385.3,108.2,385.9,108.6,386.6,109z"/>
	<path fill="#010101" d="M386.6,109.1C386.6,109,386.6,109,386.6,109.1c-0.7-0.4-1.4-0.8-2-1.3c0,0,3.6-0.4,5.2-0.5
		c0.7-0.1,2.9-0.5,3-2.1c0-2-2.4-4.5-6.2-5.1c-2.2-0.3-5.9,0.3-9.5,1c-2.7,0.5-5.4,1-7.6,1.2c-5,0.3-10.4-0.7-10.7-0.8
		c0.7,0,5.8,1,10.7,0.7c2.1-0.2,4.9-0.7,7.6-1.2c3.6-0.7,7.3-1.3,9.5-1c4,0.6,6.3,3.2,6.3,5.2c-0.1,1.6-2.3,2.1-3,2.2
		c-1.6,0.1-5.1,0.4-5.1,0.4C385.3,108.2,385.9,108.6,386.6,109.1c0.3-0.1,5.2-0.4,7-2c1-0.9,0.6-2.1,0.3-3.3
		c-0.2-0.7-0.4-1.4-0.1-1.7c0.1-0.2,0.3-0.3,0.6-0.3c0.7,0,1.9,0.2,2.8,1.2c-0.1-0.4-0.4-0.7-0.6-1c-0.9-0.9-1.5-1-2.3-1
		c-0.2,0-0.5,0-0.7,0c0,0,0,0,0,0c-0.4,0-0.7-0.3-1.5-1c-1-0.9-0.9-2.4-0.4-3.3c-1.2,0.9-1,2-0.9,2.4c0.2,0.6,0.3,1,0.4,1.2
		c0.1,0.3,0.2,0.6,0.2,0.9c-0.8-0.7-1.8-1.7-4.8-1.9c-2.4,0.1-5.7,0.5-8.9,1c-3.2,0.6-6.4,1.1-8.4,1.2c-4.1,0.1-10.2-1.2-10.3-1.2
		c-0.1-0.1,0.6-0.6,0.5-1c0-0.2-0.3-0.4-0.9-0.5c-0.7-0.2-2.1,0.1-3.3,0.5c-1.7,0.5-3.3,0.8-3.9,0.3c-0.6-0.7-0.6-0.9-0.6-1.1
		c-0.3-0.1-0.5,0.5,0,1.4c0.2,0.4,0.4,0.5,0.5,0.6c-0.8,0.1-1.3,0.4-1.4,0.6c-0.2,0.4-0.3,0.8,0.4,1.9c0-0.3,0-0.6,0-0.8
		c0-0.1,0-0.2,0.1-0.3c0,0.5,0,0.8,0,1.1c-0.8-1.1-0.7-1.6-0.5-1.9c0.2-0.4,1-0.5,1.5-0.6c-0.2,0-0.4-0.2-0.5-0.5
		c-0.5-0.9-0.3-1.6,0-1.8c0.1,0.5,0.1,0.6,0.7,1.3c0.6,0.5,2.2,0.2,3.8-0.2c1.3-0.3,2.7-0.6,3.4-0.5c0.6,0.2,0.9,0.4,1,0.6
		c0.1,0.5-0.6,0.9-0.6,1l0,0c0.3,0,6.2,1.2,10.3,1.1c2,0,5.3-0.7,8.4-1.2c3.1-0.5,6.3-1.1,8.4-1.1c3.6,0.3,4.6,1.3,5,1.7
		c0.2,0,0.2-0.2,0-0.6c-0.1-0.3-0.3-0.7-0.4-1.3c-0.1-0.3-0.3-1.6,1-2.4c-0.4,1-0.4,2.4,0.2,2.9c1,1.1,1.3,1.3,1.7,1.3
		c0.2,0,0.5,0,0.7,0c0.8,0,1.5,0.1,2,0.6c0.5,0.8,0.8,1,0.8,1.5c-1-1-2.1-1.1-2.6-1.1c-0.4,0.1-0.6,0.2-0.7,0.3
		c-0.2,0.3-0.1,0.9,0.1,1.7c0.3,1.1,0.7,2.5-0.3,3.4C391.8,108.8,386.7,109,386.6,109.1L386.6,109.1L386.6,109.1z M357.5,102.2
		c-0.2,0-0.4,0-0.6,0c-0.6-0.1-1.3-0.2-1.9-0.4c-1-0.2-1.9-0.5-3.2-0.4c-0.9,0.1-1.3,0.1-1.6,0.3c0.3-0.2,0.6-0.3,1.2-0.3
		c1.5-0.2,2.6,0.1,3.5,0.4c0.6,0.1,1.3,0.3,1.9,0.4c1.5,0.1,1.7-0.4,1.8-0.6c0,0,0,0,0.1,0C358.7,101.7,358.5,102.1,357.5,102.2
		L357.5,102.2z"/>
	<path fill="#F4CF2E" d="M380.8,110.2c0,0-3.5,0.1-4.5,1.9c-1,1.8-1.5,3.6-1.4,3.6c0.1,0,2.3-1.5,2.3-1.5c0,0-1.7,3-0.8,5.7
		c0.9,2.7-2.3,2.6-4.2,2.7c-0.8-0.8-3.4-2.1-4.4-2.3c-0.6-0.3-1.7-0.3-2.9,1.4c-0.7,1.1,1-1,2.7-0.9c0.2,0.2,0.3,0.5,0.4,1
		c-0.9-0.1-1.9-1.4-3,1.4c1.1-1,1.3-1,1.8-1c0.8-0.1,0.7,0.4,0.7,0.4c-0.1,0-0.4,0.1-0.9,0.7c-0.2,0.4-0.9,1.3-0.7,1.3
		c0.1,0,0.5-0.5,1.1-0.9c0.4-0.3,0.7-0.4,1.8,0c6.1,1.7,9.5,0.4,9.8-0.3c0.2-0.3-3.5-9.4,6.4-11.7
		C384.8,111.7,380.8,110.3,380.8,110.2C380.8,110.3,380.8,110.2,380.8,110.2z"/>
	<path fill="#010101" d="M374.4,124.7L374.4,124.7c-1.7,0-3.6-0.3-5.6-0.9c-1.1-0.4-1.4-0.4-1.8,0c-0.3,0.2-0.5,0.5-0.8,0.7
		c0,0-0.1,0-0.2,0c0.4-0.3,0.7-0.5,0.9-0.7c0.4-0.4,0.7-0.4,1.9,0c5,1.4,9.3,0.5,9.8-0.3c-1.5-6.6,0.7-10.4,6.4-11.7
		c-0.1,0-0.8-0.3-1.5-0.5c-2.5-0.9-2.6-1-2.6-1c0,0-3.4,0.1-4.5,1.9c-0.9,1.8-1.4,3.5-1.3,3.6c0.1,0,1.3-0.9,2.2-1.5
		c0.1,0.1-1.6,3.1-0.7,5.7c0.2,0.7,0.2,1.3-0.1,1.7c-0.6,0.9-2.3,1-3.6,1c0,0,0,0,0,0c1.7-0.1,3.1-0.2,3.6-1c0.3-0.4,0.3-1,0.1-1.6
		c-1-2.7,0.7-5.7,0.7-5.7c-0.8,0.6-2.1,1.6-2.2,1.6c-0.1-0.1,0.4-1.9,1.4-3.6c1-1.9,4.5-1.9,4.5-1.9c0.1,0.1,1.5,0.6,2.6,1
		c1,0.3,1.5,0.5,1.6,0.5c-5.7,1.4-7.8,5.1-6.5,11.1c0.1,0.4,0.1,0.5,0.1,0.5C378.4,123.9,377,124.6,374.4,124.7L374.4,124.7z
		 M365.1,123.3c0.7-1.8,1.6-2,2.4-1.7c0.2,0.1,0.4,0.2,0.6,0.2c-0.1-0.4-0.1-0.6-0.2-0.8c0.1,0.2,0.2,0.4,0.3,0.8
		c-0.3,0-0.5-0.1-0.7-0.2C366.8,121.5,366.1,120.6,365.1,123.3c1.1-1,1.3-1,1.8-1.1c0.4-0.1,0.7,0.1,0.7,0.4c0,0,0,0-0.1,0
		c-0.1-0.1-0.3-0.2-0.4-0.3C366.3,122.3,366.1,122.4,365.1,123.3L365.1,123.3z M365.2,121.9c0,0,0.1-0.2,0.1-0.2
		c0.6-0.3,1.4-0.8,2.2-0.8c0.1,0,0.1,0,0.1,0C366.5,120.9,365.6,121.5,365.2,121.9L365.2,121.9z M370.7,121.5
		c-1.1-0.5-2.3-1.1-2.9-1.2c-0.3-0.2-1-0.3-1.9,0.4c0.9-0.8,1.6-0.6,1.9-0.5C368.4,120.4,369.7,120.9,370.7,121.5L370.7,121.5z"/>
	<path fill="#F4CF2E" d="M338.3,121.7c4.1,3.2,31.5-5.5,34.9-8c2-1.5,5.5-2.7,5.5,2.5c0.9-3.5,0.9-4.4,0.9-4.4
		c0.1,0.1,1.4,1.4,2.6,5.8c0.3-3.8-0.5-6.1-0.1-5.8c0.3-0.3,0.3,1.9,2.6,5c-0.5-2.5-0.6-3.6-0.6-3.6c0,0,4.4,4.7,6.9,5.4
		c2.5,0.7,6.2-1.1,7.3,0.1c1.1,1.2,3,3.3,3,4.9c-0.1,1.6-4.1,0-4.6,1.3c-0.5,1.3,0.2,1.3,0.2,1.3c0,0,0.4,1,0.7,1.8
		c0.2-0.5-0.2-1.8,0.6-1.8c0.6,0.1,0.6,1.1,0.7,1.7c0.2-0.6-0.1-1.9,0.5-1.9c0.6-0.1,0.7,1,1.1,1.8c0-0.6,0-1.2,0-1.7
		c1.7-0.5,3.2-0.5,3.4-1.7c0.2-1.2-2.6-4-3.3-5.8c-0.7-1.8,0.5-2.5-0.7-3.5c-1.2-1-6,1.2-8.3,0.3c-2.2-1-1.3-7.9-9.6-9.5
		c-8.3-1.8-30.9,8.5-34.9,9.3c-4,0.6-8.8-0.8-8.8-0.8C338.3,116.7,338.3,119.2,338.3,121.7z"/>
	<path fill="#010101" d="M397.6,128.1c-0.1-0.3-0.2-0.5-0.3-0.8c0.1,0.2,0.2,0.4,0.3,0.6c0.1-0.2,0.1-0.4,0-0.6c0-0.5,0-1.1,0.6-1.1
		c0.5,0.1,0.6,0.7,0.7,1.3c0.1-0.9,0.2-1.5,0.6-1.5c0,0,0,0,0,0c0.4,0,0.6,0.5,0.8,1c0.1,0.3,0.2,0.6,0.3,0.9c0-0.6-0.1-1.2-0.1-1.7
		c0.4-0.1,0.8-0.2,1.2-0.3c1.2-0.3,2.1-0.5,2.2-1.3c0.1-0.6-0.7-1.9-1.6-3.1c-0.7-0.9-1.3-1.9-1.7-2.7c-0.3-0.8-0.2-1.4-0.1-1.9
		c0-0.6,0.1-1-0.5-1.6c-0.6-0.4-2-0.2-3.5,0.1c-1.8,0.3-3.7,0.6-4.8,0.1c-0.7-0.3-1.1-1.3-1.6-2.5c-1-2.5-2.5-5.9-8-7
		c-5.7-1.1-17.9,3.1-26.5,6.4c-3.9,1.5-7.1,2.7-8.4,2.9c-3.9,0.6-8.8-0.8-8.8-0.8c0,2.4,0.1,4.9,0.1,7.3c0.7,0.6,2.2,0.8,4.5,0.6
		c9.1-0.7,27.7-6.6,30.4-8.7c0.5-0.4,1.8-1.3,3.1-1.3c1.1,0,2.4,0.7,2.4,3.8c0.7-3,0.8-4.1,0.8-4.3c0.5,0.4,1.6,1.8,2.7,5.7
		c0.1-2.2-0.1-3.8-0.2-4.8c0-0.6-0.1-0.8,0-1c0.3,0,0.4,0.2,0.5,0.6c0.2,0.8,0.8,2.5,2.3,4.5c-0.6-2.5-0.7-3.6-0.7-3.6
		c0.1,0,4.5,4.6,7,5.3c1,0.3,2.6,0.1,3.9-0.1c1.5-0.2,2.8-0.3,3.3,0.2c1,1,3,3.2,2.9,4.9c0,0.9-1.3,0.8-2.4,0.8c-1,0-2,0-2.2,0.5
		c-0.1,0.4-0.2,0.7-0.1,0.9c-0.1-0.3,0-0.6,0.1-0.9c0.2-0.6,1.2-0.6,2.2-0.6c1.2,0.1,2.2,0.1,2.3-0.7c0.1-1.6-2-3.8-2.9-4.8
		c-0.5-0.5-1.8-0.4-3.3-0.2c-1.3,0.2-2.9,0.4-4,0.1c-2.4-0.7-6.5-5-6.9-5.4c0.1,0.2,0.3,1.3,0.7,3.5c-1.6-2-2.1-3.7-2.4-4.5
		c-0.1-0.3-0.2-0.6-0.2-0.5c-0.2,0.1-0.1,0.5-0.1,0.9c0.1,1,0.3,2.6,0.1,4.9c-1.1-3.9-2.3-5.3-2.6-5.7c0.1,0.2-0.1,1.2-0.9,4.3
		c-0.1-3.9-2.6-4.6-5.5-2.5c-2.7,2-21.3,8-30.4,8.7l0,0c-2.3,0.1-3.8-0.1-4.5-0.7c0-2.5-0.1-4.9-0.1-7.4l0,0c0.2,0,5,1.4,8.8,0.8
		c1.3-0.2,4.5-1.4,8.4-2.9c8.6-3.3,20.8-7.5,26.5-6.4c5.7,1.1,7,4.6,8.1,7c0.5,1.2,0.9,2.1,1.6,2.5c1,0.5,2.9,0.1,4.7-0.2
		c1.6-0.3,3-0.5,3.6-0.1c0.7,0.6,0.6,1.1,0.5,1.6c0,0.5-0.1,1.1,0.2,1.8c0.3,0.8,1,1.7,1.6,2.7c0.9,1.3,1.8,2.5,1.6,3.2
		c-0.1,0.9-1.1,1.2-2.3,1.5c-0.4,0.1-0.8,0.2-1.2,0.2c0,0.6,0,1.1,0,1.7c-0.2-0.2-0.3-0.5-0.4-0.8c-0.4-1.2-1.1-0.8-1.1,0.2
		c0,0.3,0,0.6-0.1,0.8c-0.2-1-0.3-1.6-0.7-1.7c-0.5,0-0.5,0.5-0.5,1C397.7,127.5,397.7,127.8,397.6,128.1
		C397.7,128,397.6,128.1,397.6,128.1L397.6,128.1z"/>
	<path fill="#F4CF2E" d="M333.1,119.4c0,0-4.3,5.8-7.2,5.9c-2.9,0.1-5.3-3.3-5.9-3c-0.6,0.3-0.8-0.2-1-1.2c-0.2-1,0.3-1.5,0.3-1.5
		c0.1,0.1,0.3,1.7,0.4,1.8c0.1,0.1-0.5-1.9,0.4-2c0.3-0.1,0.2,1.5,0.5,2.1c0.1-0.1-0.3-2.2,0.1-2.2c0.4-0.1,0.6,2.1,1.1,2.7
		c0.8,1.1,2.2,1.6,3.9,1.9c1.8-0.4,6.1-5.7,6.5-5.5C332.5,118.7,332.8,119.1,333.1,119.4z"/>
	<path fill="#010101" d="M326,125.3C326,125.3,326,125.3,326,125.3c-1.9,0-3.6-1.3-4.7-2.2c-0.4-0.4-0.8-0.7-1.1-0.8
		c0.4,0.1,0.7,0.4,1.1,0.7C322.5,123.9,324.1,125.2,326,125.3C326,125.2,326,125.2,326,125.3c0-0.1,0-0.1,0-0.1
		c2.9-0.2,7-5.8,7.1-5.9c-0.3-0.3-0.6-0.6-0.9-0.9c-0.1,0-0.9,0.7-1.7,1.6c-1.5,1.5-3.6,3.7-4.8,3.9c-1.9-0.3-3.2-0.9-3.9-1.9
		c-0.3-0.3-0.5-1-0.7-1.7c-0.1-0.5-0.3-1.1-0.4-1.1c-0.2,0.2-0.1,1.1-0.1,1.6c0,0.5,0,0.6,0,0.6c-0.2-0.3-0.2-0.8-0.3-1.2
		c0-0.3-0.1-0.6-0.1-0.8c0.1,0.2,0.2,0.4,0.2,0.8c0,0.4,0.1,0.8,0.2,1.1c0-0.1,0-0.3-0.1-0.5c-0.1-0.8-0.1-1.4,0.1-1.6
		c0.2-0.1,0.4,0.3,0.6,1c0.1,0.6,0.3,1.4,0.6,1.7c0.8,0.9,1.9,1.5,3.9,1.8c1.1-0.2,3.2-2.4,4.7-3.9c1-1,1.6-1.6,1.8-1.6
		c0.3,0.3,0.6,0.7,0.9,1C333.1,119.4,328.9,125.1,326,125.3L326,125.3z"/>
	<path fill="#F4CF2E" d="M333.3,116.4c0,0-3.6-5.4-6.5-5.7c-2.8-0.2-5.6,2.7-6.2,2.4c-0.6-0.3-0.8,0.2-1.2,1
		c-0.4,0.8,0.1,1.3,0.1,1.2c0.2,0,0.5-1.4,0.7-1.5c0.2-0.1-0.7,1.7,0.2,1.8c0.3,0.1,0.4-1.3,0.8-1.9c0.1,0.1-0.6,2-0.2,2
		c0.4,0,0.8-1.9,1.4-2.4c1-0.9,2.4-1.3,4.1-1.4c1.8,0.5,5.4,5.4,5.7,5.3C332.6,116.9,332.9,116.6,333.3,116.4z"/>
	<path fill="#010101" d="M332.2,117.2c-0.1,0-0.6-0.5-1.5-1.5c-1.3-1.5-3.2-3.5-4.2-3.8c-1.9,0.2-3.2,0.6-4.1,1.4
		c-0.3,0.3-0.6,0.9-0.8,1.4c-0.3,0.5-0.5,0.9-0.6,0.9c-0.3-0.3-0.1-0.9,0.1-1.5c-0.4,1-0.5,1.4-0.6,1.4c-0.1-0.1-0.1-0.2-0.2-0.2
		c0.3,0,0.4-0.3,0.5-0.6c0.1-0.4,0.3-0.8,0.4-1c-0.1,1-0.3,1.8-0.2,1.9c0.2-0.1,0.4-0.4,0.6-0.9c0.3-0.6,0.6-1.2,0.9-1.5
		c0.9-0.9,2.2-1.3,4.1-1.5c1.1,0.3,2.9,2.3,4.3,3.8C331.4,116.4,332.1,117.1,332.2,117.2c0.4-0.3,0.7-0.6,1.1-0.9
		c-0.1,0-3.6-5.3-6.5-5.6c-1.7-0.1-3.5,1-4.8,1.7c-0.6,0.4-1.1,0.6-1.3,0.7c-0.8-0.1-1,0.3-1.3,1c-0.3,0.7,0,1.2,0,1.2
		c0-0.1,0.2-0.5,0.3-0.8c0.1-0.4,0.3-0.7,0.3-0.7c0,0.4-0.2,0.8-0.2,1.1c0-0.3,0.1-0.6,0.2-0.9c-0.4,1.1-0.5,1.3-0.6,1.3
		c-0.2-0.2-0.4-0.6-0.1-1.3c0.3-0.7,0.5-1.1,0.8-1.2c0.8,0.1,1.2-0.2,1.8-0.5c1.3-0.8,3-1.9,4.8-1.7c2.9,0.3,6.5,5.7,6.5,5.7
		C333,116.6,332.6,116.9,332.2,117.2L332.2,117.2z"/>
	<path fill="#F4CF2E" d="M331.5,114.7c-1.3,0.8-2.6,1.6-3.9,2.4c0.9,0.2,1.9,0.4,2.8,0.6c-0.7,0.9-1.4,1.8-2.1,2.7
		c1-0.4,2-0.9,3-1.3c-0.1,1.2-0.2,2.3-0.2,3.5c0.6-0.8,1.2-1.6,1.7-2.4c0.4,1,0.7,2,1.1,3c0.4-0.8,0.8-1.6,1.2-2.4
		c0.5,0.8,0.9,1.6,1.4,2.4c0.2-0.8,0.4-1.7,0.6-2.5c0.6,0.8,1.1,1.6,1.7,2.3c0.2-1.1,0.4-2.3,0.6-3.4c0.7,0.6,1.4,1.3,2.1,1.9
		c-0.1-1.2-0.2-2.3-0.2-3.5c0.8,0.2,1.6,0.5,2.5,0.7c-0.5-0.9-1-1.7-1.5-2.6c0,0,2.7-0.3,2.6-0.3c-0.2,0-2.1-1.6-3.8-2
		C337.8,114.2,334.7,114.5,331.5,114.7z"/>
	<path fill="#010101" d="M338.8,123.2c-0.6-0.8-1.1-1.6-1.7-2.5c-0.2,0.8-0.4,1.7-0.6,2.5c-0.5-0.8-1-1.6-1.4-2.4
		c-0.4,0.8-0.7,1.6-1.1,2.4c-0.4-1-0.8-2-1.2-3c-0.5,0.8-1.1,1.6-1.6,2.4c0.1-1.2,0.1-2.3,0.2-3.5c-1,0.4-2,0.9-3,1.3
		c0.7-0.9,1.3-1.8,2-2.8c-0.9-0.2-1.9-0.3-2.8-0.5c1.3-0.8,2.5-1.6,3.8-2.5c3.2-0.3,6.3-0.5,9.5-0.8c1.3,0.3,2.6,1.2,3.3,1.7
		c0.1,0.1,0.3,0.2,0.4,0.3c-1.2-0.7-2.5-1.7-3.8-1.9c-3.1,0.2-6.3,0.5-9.4,0.7c-1.3,0.8-2.6,1.6-3.9,2.4c0.9,0.2,1.9,0.3,2.8,0.5
		c-0.7,0.9-1.3,1.8-2,2.7c1-0.4,1.9-0.9,2.9-1.3c-0.1,1.2-0.1,2.3-0.2,3.5c0.5-0.8,1.1-1.6,1.6-2.4c0.4,1,0.8,2,1.2,3
		c0.4-0.8,0.7-1.6,1.1-2.4c0.5,0.8,1,1.6,1.4,2.4c0.2-0.8,0.4-1.7,0.6-2.5c0.6,0.8,1.1,1.5,1.7,2.3c0.2-1.1,0.4-2.2,0.6-3.3
		c0.7,0.6,1.4,1.3,2.1,1.9c-0.1-1.2-0.2-2.3-0.4-3.5c0.8,0.2,1.7,0.4,2.5,0.7c-0.5-0.8-1-1.7-1.5-2.5c0-0.1,2.5-0.3,2.6-0.4
		c0,0,0,0,0,0c0,0,0,0-2.6,0.4c0.5,0.9,1,1.7,1.5,2.6c-0.8-0.2-1.7-0.4-2.5-0.7c0.1,1.1,0.2,2.3,0.4,3.4c-0.7-0.6-1.4-1.3-2.1-1.9
		C339.2,120.9,339,122.1,338.8,123.2C338.8,123.2,338.8,123.2,338.8,123.2z"/>
	<path fill="#F4CF2E" d="M333.6,113.7c-0.7,0.4-1.5,0.9-2.2,1.3c0.5,0.1,1.1,0.2,1.6,0.4c-0.4,0.5-0.8,1-1.2,1.5
		c0.5-0.2,1.1-0.5,1.6-0.7c0,0.7-0.1,1.3-0.1,2c0.3-0.4,0.6-0.9,0.9-1.3c0.2,0.6,0.4,1.1,0.6,1.7c0.2-0.5,0.4-0.9,0.6-1.4
		c0.3,0.5,0.5,0.9,0.8,1.4c0.1-0.5,0.2-0.9,0.3-1.4c0.3,0.4,0.6,0.9,1,1.3c0.1-0.6,0.2-1.3,0.3-1.9c0.4,0.4,0.8,0.7,1.2,1.1
		c-0.1-0.7-0.1-1.3-0.2-2c0.5,0.1,0.9,0.3,1.4,0.4c-0.3-0.5-0.6-1-0.9-1.5c0,0,1.5-0.2,1.4-0.2c-0.1,0-1.1-0.9-2.1-1.1
		C337.1,113.4,335.3,113.5,333.6,113.7z"/>
	<path fill="#010101" d="M337.6,118.5c-0.3-0.5-0.6-0.9-1-1.4c-0.1,0.5-0.2,0.9-0.3,1.4c-0.3-0.5-0.5-0.9-0.8-1.4
		c-0.2,0.4-0.4,0.9-0.6,1.3c-0.2-0.6-0.4-1.1-0.7-1.7c-0.3,0.4-0.6,0.9-0.9,1.3c0-0.7,0.1-1.3,0.1-2c-0.5,0.2-1.1,0.5-1.6,0.7
		c0.4-0.5,0.8-1,1.2-1.6c-0.5-0.1-1.1-0.2-1.6-0.3c0.7-0.5,1.5-0.9,2.2-1.4c1.7-0.1,3.4-0.3,5.2-0.4c0.7,0.1,1.4,0.7,1.8,0.9
		c0,0,0,0.1,0.1,0.1c-0.7-0.4-1.3-0.8-1.9-1c-1.7,0.1-3.4,0.3-5.2,0.4c-0.7,0.4-1.4,0.9-2.2,1.3c0.5,0.1,1,0.2,1.6,0.3
		c-0.4,0.5-0.8,1-1.2,1.6c0.5-0.3,1.1-0.5,1.6-0.8c0,0.7-0.1,1.3-0.1,2c0.3-0.5,0.6-0.9,0.9-1.4c0.2,0.6,0.4,1.2,0.7,1.7
		c0.2-0.5,0.4-0.9,0.6-1.4c0.3,0.5,0.5,0.9,0.8,1.4c0.1-0.5,0.2-0.9,0.3-1.4c0.3,0.4,0.6,0.8,0.9,1.2c0.1-0.6,0.2-1.2,0.3-1.9
		c0.4,0.4,0.8,0.7,1.2,1.1c-0.1-0.6-0.2-1.3-0.2-1.9c0.5,0.1,1,0.2,1.5,0.4c-0.3-0.5-0.6-0.9-0.9-1.4c0,0,1-0.2,1.4-0.2
		c-0.1,0.1-0.4,0.1-1.4,0.2c0.3,0.5,0.6,0.9,0.9,1.4c-0.5-0.1-0.9-0.2-1.4-0.3c0.1,0.6,0.1,1.3,0.2,1.9c-0.4-0.4-0.8-0.7-1.2-1.1
		C337.8,117.2,337.7,117.8,337.6,118.5L337.6,118.5z"/>
	<path fill="#F4CF2E" d="M334.7,108c0,0-1.1-0.9-1.6,0.1c-0.4,1,1,0.5,1,0.7c0,0.2-1,1.3-1,2.6c0,1.3,0.8,3.4,0.8,3.7
		c0,0.3,0.2,1.2,1.3,1.4c1,0.2,1.4-1.1,1.7-1.3c0.2-0.2,1.6,0.1,2.1-1.2c0.4-1.4,0.4-3.9,0.4-3.9c0,0,1,0.7,1-0.7c0-1.5-1,0.1-1,0.1
		c0,0,0.2-1.6-2.1-2.1C335,106.7,334.7,108.1,334.7,108L334.7,108z"/>
	<path fill="#010101" d="M335.5,116.5c-0.1,0-0.2,0-0.3,0c-1-0.2-1.3-1.1-1.3-1.4c0-0.1-0.1-0.4-0.2-0.8c-0.2-0.8-0.5-2-0.5-2.9
		c0-0.6,0.2-1.1,0.4-1.6c-0.2,0.5-0.3,1-0.3,1.6c0,0.8,0.3,2.1,0.5,2.9c0.2,0.4,0.2,0.7,0.2,0.8c0,0.4,0.4,1.1,1.3,1.4
		C335.3,116.4,335.4,116.4,335.5,116.5c0.6-0.1,0.9-0.7,1.1-1.1c0.2-0.1,0.4-0.3,0.6-0.4c0.5-0.1,1.4-0.2,1.7-1.2
		c0.5-1.3,0.5-3.8,0.5-3.8c0.9,0,0.9-0.4,0.9-0.8c0-0.3,0-0.6-0.2-0.6c-0.2,0-0.6,0.5-0.7,0.7c0,0,0.1-1.5-2.2-2.1
		c-1.5-0.4-2.3,0.3-2.5,0.6c0,0,0,0,0,0c0.2-0.4,1-1.1,2.5-0.7c2.1,0.5,2.2,1.9,2.2,2.1c0.1-0.2,1-1.1,1,0c0,0.8-0.3,0.9-0.6,0.9
		c-0.4,0-0.4,2.4-0.8,3.7c-0.4,1-1.4,1.2-1.9,1.2c-0.2,0.1-0.4,0.2-0.6,0.4C336.5,115.9,336.1,116.5,335.5,116.5L335.5,116.5z"/>
	<path fill="#F4CF2E" d="M334.4,107.7c-0.3-0.9-1.2-4.3-1.2-4.3c0.6,0.4,1.3,0.7,1.9,1.1c-0.6-0.2-1.2-0.3-1.1-0.3
		c0.1,0,0.9,1.6,0.9,1.6c0.8-0.2,1.5,0.2,2.4,0.4c0,0,0.7-1.4,0.7-1.4c-0.1,0-0.4-0.2-0.4-0.2c0.6-0.5,1.1-1,1.7-1.4
		c-0.2,0.6-0.3,1.2-0.5,1.8c-0.1,0-0.2,0-0.4,0c-0.2,0.4-0.4,0.9-0.7,1.3c0.8,0.2,1.2,0.3,2,1.1c0.7-0.2,1.2-0.9,1.5-1.3
		c-0.6-0.2-0.8-0.4-0.8-0.4c0,0,2.5,0,2.5,0c0,0-2.4,2.7-3.8,3.7C337.9,108.9,334.6,108,334.4,107.7L334.4,107.7z"/>
	<path fill="#010101" d="M339.2,109.4L339.2,109.4c-0.5-0.2-1.3-0.4-2.1-0.7c-1.7-0.5-2.7-0.8-2.8-1c-0.3-0.9-1.2-4.3-1.2-4.3
		c0.7,0.4,1.3,0.7,2,1.1c-0.3-0.1-0.6-0.1-1-0.2c0,0,0.3,0.7,0.5,1.1c-0.3-0.5-0.7-1.1-0.7-1.1c0.4,0.1,0.8,0.1,1.1,0.2
		c-0.6-0.3-1.3-0.7-1.9-1c0.1,0.1,0.9,3.4,1.2,4.3c0,0.1,1.5,0.6,2.7,0.9C337.9,108.9,338.7,109.2,339.2,109.4
		c1.3-1.1,3.6-3.6,3.8-3.7c-0.1,0-2.3,0-2.5,0c0.1,0,0.3,0.2,0.8,0.4c-0.5,0.8-1,1.2-1.6,1.4c-0.8-0.8-1.2-0.9-2-1.1
		c0.5-1.1,1-2.1,1.5-3.2l0,0l0,0c-0.1,0.6-0.3,1.2-0.4,1.8c-0.3,0.5-0.7,0.9-1,1.4c0.8,0.1,1.2,0.3,2,1c0.5-0.1,1-0.6,1.5-1.3
		c0,0-0.9-0.3-0.8-0.4c0.1-0.1,2.6-0.1,2.6-0.1C343,105.8,340.7,108.4,339.2,109.4L339.2,109.4L339.2,109.4z M337.4,106.3
		c-0.2-0.1-0.5-0.1-0.7-0.2c-0.6-0.2-1.1-0.3-1.6-0.3c0,0,0,0,0,0c0.6-0.1,1.1,0.1,1.6,0.2C336.9,106.1,337.2,106.2,337.4,106.3
		c0.2-0.5,0.5-1.1,0.5-1.3C337.9,105.1,337.7,105.5,337.4,106.3L337.4,106.3z"/>
	<path fill="#010101" d="M335.6,110.2C335.6,110.2,335.6,110.2,335.6,110.2c0.5,0.2,0.6,0.3,0.4,0.3l0,0c-0.2,0-0.7-0.2-1.1-0.3l0,0
		c-0.4-0.2-0.6-0.3-0.4-0.3c0,0,0,0,0.1,0C334.6,109.9,335.1,110,335.6,110.2L335.6,110.2z"/>
	<path fill="#010101" d="M337.8,111C337.8,111,337.8,111,337.8,111c0.4,0.2,0.6,0.3,0.4,0.3c0,0,0,0-0.1,0c-0.2,0-0.7-0.2-1.1-0.3
		c0,0,0,0-0.1,0c-0.4-0.2-0.6-0.3-0.4-0.3l0,0C336.9,110.7,337.4,110.8,337.8,111L337.8,111z"/>
	<path fill="#010101" d="M336.4,113.7C336.4,113.7,336.4,113.8,336.4,113.7c0.8,0.3,1.2,0.4,0.8,0.4c0,0,0,0,0,0
		c-0.4,0-1.4-0.2-2.2-0.4c0,0,0,0-0.1,0c-0.8-0.3-1.1-0.4-0.7-0.4l0,0C334.6,113.3,335.6,113.5,336.4,113.7L336.4,113.7z"/>
	<path fill="#010101" d="M336.2,112.5L336.2,112.5c0.4,0.1,0.5,0.2,0.3,0.2l0,0c-0.1,0-0.6-0.1-1-0.2c0,0,0,0,0,0
		c-0.4-0.1-0.5-0.2-0.4-0.2c0,0,0,0,0.1,0C335.4,112.3,335.9,112.4,336.2,112.5L336.2,112.5z"/>
	<path fill="#010101" d="M335.7,112.9C335.7,112.9,335.7,112.9,335.7,112.9c0.1-0.4,0.2-0.5,0.2-0.4l0,0c0,0.2-0.1,0.6-0.2,0.9
		c0,0,0,0,0,0c-0.1,0.3-0.2,0.5-0.2,0.4l0,0C335.5,113.6,335.6,113.2,335.7,112.9L335.7,112.9z"/>
	<path fill="#34793C" d="M322.5,179.4c-0.6-1-1.2-2-1.8-3c0.9,0.9,1.7,1.9,2.5,2.8c0,0.4,0.1,0.8,0.1,1.2
		C323.1,180.1,322.8,179.7,322.5,179.4z"/>
	<path fill="#010101" d="M323.4,180.6c-0.3-0.4-0.6-0.8-0.9-1.2c-0.6-1-1.2-2-1.8-2.9c0.9,0.9,1.7,1.8,2.6,2.8
		C323.3,179.7,323.4,180.1,323.4,180.6L323.4,180.6z M320.7,176.4c0.9,1.3,1.8,2.6,2.6,3.9c0-0.4-0.1-0.7-0.1-1.1
		C322.4,178.3,321.5,177.4,320.7,176.4L320.7,176.4z"/>
	<path fill="#34793C" d="M323,179.7c0.1-0.8,0.2-1.5,0.3-2.3c0.3,0.9,0.5,1.8,0.8,2.7c-0.2,0.2-0.4,0.3-0.7,0.5
		C323.3,180.2,323.1,179.9,323,179.7z"/>
	<path fill="#010101" d="M323.3,180.6c-0.1-0.3-0.2-0.6-0.4-0.9c0.1-0.8,0.2-1.5,0.3-2.3c0.3,0.9,0.6,1.8,0.8,2.7
		C323.8,180.2,323.6,180.4,323.3,180.6L323.3,180.6z"/>
	<path fill="#34793C" d="M322.4,180.5c-1-0.4-2-0.9-3-1.3c0.8,0.2,1.7,0.4,2.5,0.5c0.5,0.3,1.1,0.5,1.6,0.8
		C323.1,180.5,322.7,180.5,322.4,180.5z"/>
	<path fill="#010101" d="M323.5,180.5c-0.4,0-0.7,0-1.1,0c-1-0.4-2-0.9-3-1.3c0.8,0.2,1.7,0.3,2.5,0.5
		C322.4,180,322.9,180.2,323.5,180.5C323.5,180.5,323.5,180.5,323.5,180.5L323.5,180.5z M319.4,179.2c1,0.4,2,0.8,3,1.2
		c0.3,0,0.6,0,0.9,0c-0.5-0.2-1-0.5-1.5-0.7C321,179.6,320.2,179.4,319.4,179.2L319.4,179.2z"/>
	<path fill="#34793C" d="M323.3,181.4c-1.5-0.3-3-0.6-4.6-0.9c1.2-0.1,2.4-0.1,3.5-0.2c0.4,0,0.8,0.1,1.2,0.1
		C323.4,180.7,323.3,181,323.3,181.4z"/>
	<path fill="#010101" d="M323.3,181.4C323.3,181.4,323.3,181.4,323.3,181.4c-1.5-0.3-3.1-0.6-4.6-0.9c1.6-0.1,3.2-0.1,4.8-0.2
		C323.4,180.7,323.4,181,323.3,181.4L323.3,181.4z M318.7,180.5c1.5,0.3,3,0.5,4.5,0.8c0.1-0.3,0.1-0.6,0.2-0.9
		c-0.4,0-0.8,0-1.2-0.1C321.1,180.4,319.9,180.5,318.7,180.5L318.7,180.5z"/>
	<path fill="#34793C" d="M323.5,179.9c0.9-0.2,1.9-0.4,2.8-0.7c-0.3,0.6-0.7,1.2-1,1.8c-0.7-0.2-1.4-0.4-2.1-0.6
		C323.3,180.3,323.4,180.1,323.5,179.9z"/>
	<path fill="#010101" d="M325.3,181c-0.7-0.2-1.4-0.4-2.1-0.6c0.1-0.2,0.2-0.4,0.3-0.7c0.9-0.2,1.9-0.4,2.8-0.7
		C326,179.8,325.6,180.4,325.3,181L325.3,181z"/>
	<path fill="#34793C" d="M325.1,180.6c1.2,0.4,2.3,0.8,3.5,1.1c-1-0.1-2-0.1-2.9-0.2c-0.8-0.4-1.7-0.8-2.5-1.2
		C323.8,180.4,324.4,180.5,325.1,180.6z"/>
	<path fill="#010101" d="M328.5,181.8c-1-0.1-1.9-0.1-2.9-0.2c-0.8-0.4-1.7-0.8-2.5-1.2c0.6,0.1,1.3,0.1,1.9,0.2
		C326.3,181,327.4,181.4,328.5,181.8C328.6,181.8,328.6,181.8,328.5,181.8L328.5,181.8z M323.2,180.4c0.8,0.4,1.7,0.8,2.5,1.2
		c0.9,0.1,1.8,0.1,2.6,0.2c-1.1-0.4-2.1-0.7-3.2-1.1C324.4,180.6,323.8,180.5,323.2,180.4L323.2,180.4z"/>
	<path fill="#34793C" d="M325.6,181.4c1.2,0.6,2.5,1.2,3.7,1.8c-1.1-0.3-2.2-0.6-3.4-1c-0.9-0.6-1.8-1.3-2.8-1.9
		C324,180.7,324.8,181,325.6,181.4z"/>
	<path fill="#010101" d="M329.3,183.2c-1.1-0.3-2.2-0.6-3.4-1c-0.9-0.6-1.9-1.3-2.8-1.9C325.2,181.3,327.3,182.2,329.3,183.2
		C329.3,183.2,329.3,183.2,329.3,183.2L329.3,183.2z M323.2,180.3c0.9,0.6,1.9,1.3,2.8,1.9c1,0.3,2,0.5,3,0.8
		C327,182.1,325.1,181.2,323.2,180.3L323.2,180.3z"/>
	<path fill="#34793C" d="M325.6,182.1c0.7,1,1.5,2,2.2,3.1c-1.1-1.1-2.3-2.3-3.4-3.4c-0.3-0.5-0.7-0.9-1-1.4
		C324.1,181,324.8,181.5,325.6,182.1z"/>
	<path fill="#010101" d="M327.7,185.2c-1.5-1.6-3-3.2-4.4-4.8c0.8,0.6,1.5,1.1,2.3,1.7C326.3,183.1,327.1,184.1,327.7,185.2
		C327.8,185.1,327.8,185.2,327.7,185.2C327.7,185.2,327.7,185.2,327.7,185.2z M323.3,180.4c0.4,0.5,0.7,0.9,1.1,1.4
		c1.1,1,2.1,2.1,3.2,3.1c-0.7-0.9-1.3-1.8-2-2.8C324.8,181.5,324.1,181,323.3,180.4L323.3,180.4z"/>
	<path fill="#34793C" d="M325,182.2c0,0.7,0,1.4,0.1,2.1c-0.6-1-1.1-1.9-1.7-2.9c0-0.4-0.1-0.7-0.1-1.1
		C323.9,181,324.4,181.6,325,182.2z"/>
	<path fill="#010101" d="M325.1,184.3c-0.6-1-1.1-1.9-1.7-2.9c-0.1-0.4-0.1-0.7-0.2-1.1c0.6,0.6,1.2,1.2,1.8,1.8
		C325.1,182.9,325.1,183.6,325.1,184.3C325.1,184.3,325.1,184.3,325.1,184.3L325.1,184.3z M323.3,180.4c0.1,0.3,0.1,0.7,0.2,1
		c0.5,0.9,1.1,1.8,1.6,2.8c0-0.6-0.1-1.3-0.1-1.9C324.4,181.6,323.8,181,323.3,180.4L323.3,180.4z"/>
	<path fill="#34793C" d="M324.2,181.6c-0.6,0.5-1.1,0.9-1.7,1.4c0-0.8,0.1-1.5,0.1-2.3c0.3-0.1,0.5-0.2,0.8-0.3
		C323.7,180.9,323.9,181.3,324.2,181.6z"/>
	<path fill="#010101" d="M322.5,183.1c0-0.8,0.1-1.5,0.1-2.3c0.2-0.1,0.5-0.2,0.7-0.3c0.3,0.4,0.6,0.8,0.9,1.2
		C323.6,182.1,323.1,182.6,322.5,183.1L322.5,183.1z"/>
	<path fill="#34793C" d="M322.1,179.4c-0.4-0.6-0.8-1.1-1.2-1.7c0.5,0.5,1.1,1.1,1.6,1.6c0.3,0.4,0.6,0.8,0.8,1.1
		C322.9,180.1,322.5,179.7,322.1,179.4z"/>
	<path fill="#010101" d="M323.3,180.5c-0.4-0.4-0.8-0.7-1.2-1.1c-0.4-0.6-0.8-1.1-1.2-1.7c0.6,0.5,1.1,1,1.7,1.6
		C322.8,179.7,323.1,180,323.3,180.5C323.3,180.4,323.3,180.5,323.3,180.5L323.3,180.5z"/>
	<path fill="#34793C" d="M323,180c-0.4-0.7-0.8-1.4-1.2-2.1c0.6,0.7,1.1,1.5,1.7,2.2c0.1,0.2,0.2,0.5,0.3,0.7
		C323.5,180.6,323.2,180.3,323,180z"/>
	<path fill="#010101" d="M323.7,180.8c-0.3-0.3-0.5-0.5-0.8-0.8c-0.4-0.7-0.8-1.4-1.2-2.1C322.4,178.9,323.1,179.9,323.7,180.8
		C323.8,180.8,323.8,180.8,323.7,180.8L323.7,180.8z"/>
	<path fill="#34793C" d="M323.1,180.7c-1-0.4-2.1-0.7-3.1-1.1c0.9,0.2,1.7,0.4,2.6,0.6c0.4,0.2,0.8,0.3,1.1,0.5
		C323.5,180.7,323.3,180.7,323.1,180.7z"/>
	<path fill="#010101" d="M323.7,180.7c-0.2,0-0.4,0-0.6,0c-1-0.4-2.1-0.7-3.1-1.1C321.2,180,322.5,180.3,323.7,180.7
		C323.7,180.7,323.7,180.7,323.7,180.7C323.7,180.7,323.7,180.7,323.7,180.7z"/>
	<path fill="#34793C" d="M323.9,180.5c1,0.2,1.9,0.4,2.9,0.6c-0.7,0-1.4-0.1-2.1-0.1c-0.4-0.1-0.8-0.2-1.2-0.3
		C323.6,180.6,323.8,180.5,323.9,180.5z"/>
	<path fill="#010101" d="M326.8,181.1c-1.1-0.2-2.2-0.3-3.3-0.5c1,0.1,2,0.3,3,0.4c-0.1,0-0.1,0-0.2-0.1
		C326.4,181,326.6,181,326.8,181.1C326.8,181.1,326.8,181.1,326.8,181.1L326.8,181.1z"/>
	<path fill="#34793C" d="M324,181.2c-0.3,0.2-0.5,0.4-0.8,0.7c0.1-0.3,0.3-0.6,0.4-0.9c0-0.1,0-0.3-0.1-0.4
		C323.7,180.7,323.8,180.9,324,181.2z"/>
	<path fill="#34793C" d="M325.3,181.6c0.6,0.7,1.2,1.4,1.8,2.2c-0.5-0.5-1-1-1.5-1.5c-0.6-0.6-1.3-1.1-1.9-1.7
		C324.2,180.9,324.7,181.3,325.3,181.6z"/>
	<path fill="#010101" d="M327.1,183.8c-1.2-1.1-2.3-2.1-3.5-3.2c0.6,0.3,1.1,0.6,1.7,0.9C325.9,182.3,326.5,183,327.1,183.8
		C327.1,183.8,327.1,183.8,327.1,183.8L327.1,183.8z M323.6,180.6c1,0.9,2,1.7,3,2.6c-0.5-0.5-0.9-1.1-1.4-1.6
		C324.7,181.3,324.1,181,323.6,180.6L323.6,180.6z"/>
	<path fill="#34793C" d="M324.8,180.9c0.2-0.2,0.3-0.5,0.5-0.7c0.1,0.4,0.1,0.8,0.2,1.2c-0.6-0.2-1.2-0.4-1.8-0.6
		C324,180.8,324.4,180.8,324.8,180.9z"/>
	<path fill="#34793C" d="M322.8,179.7c-0.3-0.7-0.5-1.5-0.8-2.3c0.4,0.8,0.9,1.5,1.3,2.3c0,0.2,0.1,0.5,0.1,0.7
		C323.2,180.2,323,179.9,322.8,179.7z"/>
	<path fill="#010101" d="M323.4,180.5c-0.2-0.3-0.4-0.5-0.6-0.8c-0.3-0.8-0.5-1.5-0.8-2.3C322.5,178.4,322.9,179.5,323.4,180.5
		C323.4,180.5,323.4,180.5,323.4,180.5L323.4,180.5z"/>
	<path fill="#FFFFFF" d="M331.6,184.2c0.4-0.3,3.6-7.9,18.7-7.7c-8.5,4-13.9,12-15.2,12.4C334.1,189.3,332.1,185.3,331.6,184.2
		L331.6,184.2z"/>
	<path fill="#010101" d="M335,189.1c-1.2,0.1-3.5-4.8-3.6-4.9c3.6-5.4,9.4-7.9,18.8-7.8c-5.9,3-10.2,7.6-12.8,10.4
		C336.3,188.1,335.5,188.9,335,189.1C335.1,189,335,189.1,335,189.1L335,189.1z M347.3,176.7c-7.4,0.4-12.6,2.9-15.5,7.2
		c0.6,1.8,2.3,5.1,3.2,5c0,0,0,0,0,0c0,0,0,0,0.1-0.1c0.4-0.2,1.1-1,2.3-2.1c2.6-2.8,6.9-7.5,12.9-10.3
		C349.2,176.6,348.2,176.6,347.3,176.7L347.3,176.7z"/>
	<path fill="#FFFFFF" d="M351.7,179.3c-2.3,1.1-3.5,1.7-4.7,2c0.7,0.3,1.9,0,3.5,0.5c-1.4,0.1-3.9,1.6-4.9,1.7
		c0.7,0.5,3.3-0.2,3.8,0c-1.4,0.2-3.6,1.7-5,1.8c-0.6,0.7,3.2-0.6,4.8,0.5c-1.7-0.1-4.7,1.4-6.4,1.2c1.3,0.9,3.5-0.3,5.4,0.7
		c-0.5,0.1-5,1-6.5,0.8c0.9,0.6,3.8,0.3,4.5,0.8c-1.2-0.1-4.3,0.9-5.4,0.7c1,0.8,3.9,0.1,4.4,0.7c-1.9,1-4.8,0.5-6.2,0.8
		c0.9,0.5,1.7,1,2.5,1.5c1.1,1,4.7,3.8,6.9,4.6c-2.4-0.3-3.2-0.3-4.8-0.3c1.2,1.6,2.3,3.2,3.5,4.7c-1.5-1-4-2.8-5.8-3.7
		c-3.7-2.2-6.5-1.6-9.1-3.5c-3.8-4.4-5.8-9.9-5.9-11.4c-0.2-1.5-0.4-4.2-3.7-2.5c3.3-0.8,0.9-4.1,4.3-4.4c2.1-0.2,1.8,1.8,2.5,3
		c0.5,0.9,4.1,3.9,4.8,4.1C340.7,177.9,345.9,176.9,351.7,179.3L351.7,179.3z"/>
	<path fill="#010101" d="M347.1,201.9c-0.4-0.3-0.9-0.6-1.3-0.9c-1.4-1-3.2-2.2-4.5-2.8c-1.9-1.1-3.5-1.5-5-1.8
		c-1.5-0.3-2.8-0.7-4.2-1.6c-3.7-4.6-5.7-10-5.9-11.5c-0.2-1.6-0.6-3.5-2.7-2.8c0,0,0,0,0.1-0.1c0,0,0,0,0.1-0.1
		c0.6-0.6,0.7-1.3,0.9-1.9c0.3-1,0.5-2,2.3-2.2c1.5-0.1,1.9,0.9,2.2,1.9c0.1,0.4,0.3,0.8,0.5,1.2c0.5,0.9,4,3.9,4.7,4
		c6.2-5.4,11.4-6.7,17.5-4.1c-2.3,1.3-3.5,1.9-4.7,2.2c0.3-0.1,0.7-0.1,1.2,0c0.6,0,1.5,0.1,2.2,0.3c-0.7,0.3-1.7,0.7-2.8,1.1
		c-0.8,0.4-1.5,0.7-2.1,0.8c0.2,0,0.7,0,1.2,0c0.4,0,0.9-0.1,1.3-0.2c0.4,0,0.6-0.1,0.9-0.1c0,0-0.1,0-0.2,0.1c0.2,0,0.3,0,0.4-0.1
		c-0.3,0.1-0.4,0.2-0.6,0.2c-0.4,0.3-1.1,0.6-1.8,0.9c-0.9,0.4-1.8,0.8-2.5,0.9c-0.1-0.1-0.1-0.1-0.2-0.2c0.8,0,1.8-0.5,2.7-0.9
		c0.5-0.2,0.9-0.5,1.4-0.6c-0.1,0-0.1,0-0.1,0c-1.1,0.1-2.4,0.2-2.8-0.1c0.5-0.2,1.4-0.6,2.2-0.9c1-0.5,2.1-0.9,2.8-1
		c-0.8,0-1.7-0.1-2.2-0.1c-0.6,0-1-0.1-1.3-0.2c1.3-0.5,2.4-1.1,4.7-2.2c-6.1-2-11.1-1.2-17.3,4.2c-0.9-0.1-4.4-3.2-4.9-4.1
		c-0.3-0.4-0.4-0.8-0.5-1.2c-0.3-1-0.6-1.9-2-1.8c-1.7,0.1-1.9,1-2.1,2c-0.2,0.6-0.3,1.3-0.9,1.8c1.9-0.6,2.3,1.6,2.5,2.9
		c0.2,1.7,2.2,7.1,5.9,11.6c1.2,0.9,2.5,1.2,4,1.6c1.5,0.4,3.1,0.8,5.1,1.9c1.2,0.7,3,1.8,4.4,2.8c0.3,0.2,0.6,0.3,0.8,0.5
		c-1-1.4-2.1-2.8-3.1-4.2c0.3-0.1,0.5-0.1,0.8-0.2c1.2,0.1,2.1,0.1,4.1,0.4c-2.2-0.6-5.7-3.3-7-4.4c-0.3-0.2-0.6-0.4-0.9-0.6
		c-0.4-0.3-0.9-0.6-1.5-0.9c0.5-0.6,1.2-0.3,2-0.3c1.5,0,3.2-0.2,4.1-0.7c-0.2,0-0.9,0-1.7,0c-1,0-2.2,0-2.8-0.5
		c0.2-0.2,0.5-0.1,0.8-0.2c0.6,0,1.4-0.2,2.1-0.4c0.7-0.2,1.5-0.3,2-0.3c0.1,0-0.8-0.1-1.6-0.2c-1,0-1.9-0.1-2.4-0.4
		c0.4-0.2,0.7-0.2,1.2-0.2l0,0c1.9-0.1,4.7-0.7,5.3-0.8c-0.8-0.2-1.7-0.2-2.5-0.1c-0.3,0-0.7,0-1,0.1c-0.8,0.1-1.5,0-2-0.4
		c0.2-0.1,0.5-0.1,0.7-0.2c0.8-0.1,1.9-0.3,2.9-0.6c1-0.3,1.9-0.5,2.6-0.6c-0.3-0.2-1.2-0.3-2.4-0.3c-0.6,0.1-1.2,0.1-1.8,0.2
		c-0.1-0.1-0.2-0.1-0.2-0.2c0.7-0.1,1.4-0.1,2-0.2c1.2-0.1,2.1,0.1,2.7,0.5c-1,0.3-1.9,0.5-2.9,0.8c-1.3,0.4-2.7,0.8-3.6,0.6
		c0.6,0.2,1.2,0.2,2,0.1c0.3,0,0.7,0,1-0.1c0.9-0.1,1.8,0,2.6,0.4c-0.9,0.4-5.1,1.2-6.6,1c0.5,0.1,1.5,0.1,2.4,0.2
		c0.9,0.1,1.7,0.1,2.1,0.4c-1.1,0.2-1.8,0.4-2.6,0.5c-1.2,0.2-2.4,0.5-2.9,0.3c0.6,0.3,1.8,0.3,2.7,0.2c0.9,0,1.6,0,1.8,0.3
		c-1.1,0.8-2.7,0.8-4.4,0.9c-0.7,0-1.4,0-1.9,0.1c0.6,0.1,1,0.4,1.5,0.7c0.3,0.2,0.7,0.4,1,0.6c1.3,1.1,4.8,3.8,6.9,4.6
		c-2.1,0-3-0.1-4.2-0.1c-0.2,0-0.4,0-0.6,0c1.2,1.5,2.4,3,3.6,4.5C347.2,201.8,347.2,201.9,347.1,201.9L347.1,201.9z"/>
	<path fill="#2F6432" d="M371.8,205.2c-0.2-0.8-0.2-1.1,0.1-2.2c0.5-0.7,0.8-1.3,1.7-2.1c1-0.4,1.3,0,2.7-1.4c0.4-0.9,1-1.6,1.4-2.6
		c0.9-1.5,1.1-2.2,1.9-3.3c0.9-1.1,1.7-2.2,2.2-3.1c0.6-1.1,1.1-1.8,1.9-2.7c0.3-1.1,1-1.9,1.9-2.8c0.7-1.3,1.9-2.9,2.5-3.9
		c1-1.2,1.3-1.8,2.2-3c0.7-0.5,2-1.7,2.9-2.1c1.4-0.6,2.2-1.2,3.1-0.2c0.6,0.7,1.7,1.9,1,2.7c-0.4,0.5-1.1,0.5-1.8,0.1
		c-0.8-0.6-1.2-2.2-2.2-1c-0.7,1-1.2,1.7-2.2,2.7c-0.5,0.8-0.9,1.5-1.4,2.7c-0.6,0.8-1.1,1.7-1.6,3.1c-0.7,0.6-1.3,1.8-1.7,2.8
		c-0.6,0.7-1.1,1.5-1.6,2.7c-1,1.1-1.5,2.1-2.2,2.8c-0.5,1.2-1.3,2.4-1.9,3.1c-0.5,0.9-0.9,1.8-1.4,2.8c-0.8,1-0.9,1.2-2.2,2.8
		c-1,1.6-0.7,1.4-2.3,3.2C373.8,206.4,372.8,206.5,371.8,205.2C371.8,205.2,371.8,205.2,371.8,205.2z"/>
	<path fill="#010101" d="M373.6,206.3c-0.7,0-1.3-0.3-1.9-1.1c-0.2-0.9-0.2-1.3,0.1-2.3c0.1-0.2,0.3-0.4,0.4-0.5
		c0.3-0.5,0.6-1,1.3-1.6c0.3-0.1,0.5-0.1,0.7-0.2c0.6-0.1,1-0.2,2-1.2c0.2-0.4,0.4-0.7,0.6-1.1c0.3-0.5,0.6-0.9,0.8-1.5
		c0.5-0.7,0.7-1.3,1-1.7c0.2-0.5,0.5-1,0.8-1.5c0.9-1.2,1.7-2.2,2.2-3c0.5-1.1,1.1-1.8,1.9-2.8c0.4-1.1,1.1-2,1.9-2.8
		c0.3-0.7,0.8-1.5,1.3-2.2c0.5-0.6,0.9-1.3,1.1-1.8c1-1.3,1.4-1.8,2.2-3c0.2-0.2,0.5-0.4,0.7-0.6c0.7-0.5,1.5-1.2,2.3-1.5
		c0.2-0.1,0.4-0.2,0.6-0.3c1-0.5,1.8-0.7,2.5,0.1c0.8,0.9,1.7,2,0.9,2.7c-0.4,0.5-1.1,0.5-1.9,0.1c-0.3-0.2-0.4-0.5-0.6-0.7
		c-0.5-0.6-0.9-1-1.5-0.3c-0.2,0.3-0.4,0.6-0.6,0.9c-0.4,0.6-0.8,1.2-1.6,1.8c-0.5,0.8-0.9,1.5-1.3,2.7c-0.7,0.9-1.2,1.8-1.7,3
		c-0.6,0.6-1.3,1.8-1.7,2.7c-0.6,0.8-1.1,1.6-1.6,2.7c-0.5,0.6-0.9,1.1-1.2,1.5c-0.4,0.5-0.6,0.9-1,1.3c-0.7,1.5-1.7,2.7-1.9,3.1
		c-0.5,0.8-1,1.8-1.4,2.7c-0.4,0.5-0.7,0.8-0.9,1.2c-0.3,0.4-0.6,0.8-1.2,1.6c-0.2,0.3-0.4,0.7-0.7,1c-0.3,0.6-0.5,0.9-1.7,2.2
		C374.4,206.2,374,206.3,373.6,206.3L373.6,206.3z M395.2,175.3c-0.4,0-0.9,0.2-1.4,0.5c-0.2,0.1-0.4,0.2-0.6,0.3
		c-0.7,0.3-1.6,0.9-2.2,1.5c-0.3,0.2-0.5,0.4-0.8,0.6c-0.8,1.2-1.2,1.8-2.2,3c-0.2,0.5-0.7,1.1-1.1,1.8c-0.5,0.7-1,1.4-1.3,2.2
		c-0.9,1-1.6,1.7-1.9,2.7c-0.9,1-1.4,1.7-1.9,2.8c-0.5,0.9-1.3,1.9-2.2,3.1c-0.4,0.6-0.6,1-0.9,1.5c-0.3,0.5-0.5,1.1-1,1.7
		c-0.2,0.6-0.5,1-0.8,1.5c-0.2,0.4-0.4,0.7-0.6,1.1c-1,1.1-1.5,1.1-2,1.2c-0.2,0.1-0.5,0.1-0.7,0.2c-0.7,0.6-1.1,1.1-1.4,1.6
		c-0.1,0.2-0.2,0.3-0.4,0.5c-0.3,1-0.3,1.3-0.1,2.1c1,1.2,2.1,1.2,2.9,0.9c1.1-1.2,1.3-1.5,1.6-2.1c0.2-0.4,0.4-0.7,0.7-1.1
		c0.7-0.8,1-1.2,1.3-1.6c0.3-0.4,0.5-0.7,1-1.2c0.4-1,0.8-1.9,1.3-2.8c0.3-0.3,1.2-1.6,1.9-3.1c0.4-0.4,0.7-0.8,1-1.3
		c0.3-0.5,0.7-1,1.2-1.5c0.5-1.2,1-1.9,1.7-2.7c0.4-1,1-2.2,1.6-2.8c0.4-1.3,1-2.2,1.7-3c0.5-1.2,0.8-1.9,1.4-2.7
		c0.7-0.7,1.1-1.3,1.5-1.9c0.2-0.3,0.4-0.6,0.6-0.9c0.7-0.8,1.2-0.3,1.7,0.3c0.1,0.3,0.4,0.5,0.5,0.7c0.7,0.4,1.3,0.3,1.8-0.1
		c0.6-0.7-0.2-1.7-0.8-2.4C395.9,175.4,395.6,175.3,395.2,175.3L395.2,175.3z"/>
	<path fill="#F4CF2E" d="M385,193.3C385,193.3,385,193.3,385,193.3c0.4,0.4-0.6,2.1-2.2,3.7c0,0,0,0,0,0.1c-1.6,1.6-3.3,2.7-3.7,2.2
		l0,0c-0.4-0.4,0.6-2.1,2.2-3.8c0,0,0,0,0,0C382.9,193.8,384.6,192.8,385,193.3L385,193.3z"/>
	<path fill="#010101" d="M379.3,199.4c-0.1,0-0.2-0.1-0.3-0.1c0-0.1,0-0.2,0-0.4c0,0,0,0,0,0c0.1,0.1,0.2,0.2,0.3,0.3
		c0.6,0,2.1-0.9,3.4-2.3c1.3-1.2,2.1-2.3,2.3-3c-0.1,0.9-1.1,2.1-2.1,3.1C381.4,198.4,379.9,199.4,379.3,199.4L379.3,199.4z
		 M379,198.8c0.2-0.9,1-2.1,2.2-3.3c1.4-1.4,2.9-2.4,3.6-2.4c0,0.1,0.1,0.1,0.1,0.2c-0.9,0-2.3,0.9-3.6,2.2
		C380.1,196.8,379.1,198.1,379,198.8L379,198.8z"/>
	<path fill="#F4CF2E" d="M376,187.2L376,187.2c0.5,0.2,0.2,2.1-0.6,4.3c0,0,0,0,0,0.1c-0.9,2.2-2,3.7-2.6,3.6c0,0,0,0,0,0
		c-0.6-0.2-0.3-2.2,0.6-4.3c0,0,0,0,0,0C374.3,188.5,375.4,186.9,376,187.2L376,187.2z"/>
	<path fill="#010101" d="M372.9,195.2c-0.1,0-0.1,0-0.2,0c-0.6-0.3-0.2-2.5,0.6-4.4c0.8-2.2,1.9-3.7,2.5-3.7
		c0.8,0.3,0.4,2.5-0.4,4.4C374.6,193.6,373.5,195.1,372.9,195.2L372.9,195.2z M375.9,187.2c-0.5,0-1.6,1.3-2.5,3.5
		c-1,2.4-1.2,4.1-0.7,4.3c0,0,0.1,0,0.1,0.1c0.5,0,1.5-1.3,2.4-3.5C376.2,189.2,376.4,187.4,375.9,187.2
		C375.9,187.2,375.9,187.2,375.9,187.2L375.9,187.2z"/>
	<path fill="#F4CF2E" d="M377.4,188.2L377.4,188.2c0.6,0.2,0.2,2.2-0.7,4.3c0,0,0,0-0.1,0.1c-0.9,2.1-2.2,3.7-2.7,3.4c0,0,0,0,0,0
		c-0.5-0.2-0.2-2.2,0.7-4.3c0,0,0,0,0.1,0C375.7,189.5,376.9,188,377.4,188.2L377.4,188.2z"/>
	<path fill="#010101" d="M374.1,196.1c0,0-0.1,0-0.1,0c-0.7-0.3-0.1-2.5,0.7-4.4c0.9-2.1,2-3.6,2.6-3.6c0.5,0.2,0.5,0.9,0.4,1.5
		c-0.1,0.8-0.5,1.8-0.9,2.9C375.8,194.6,374.7,196,374.1,196.1L374.1,196.1z M377.4,188.2c-0.6,0-1.6,1.3-2.6,3.4
		c-1,2.3-1.2,4.1-0.8,4.3c0,0,0.1,0,0.1,0c0.5,0,1.6-1.3,2.5-3.4c0.5-1.1,0.8-2.1,1-2.9C377.7,188.8,377.7,188.3,377.4,188.2
		C377.4,188.2,377.4,188.2,377.4,188.2L377.4,188.2z"/>
	<path fill="#F4CF2E" d="M380.7,190.6C380.7,190.6,380.8,190.6,380.7,190.6c0.4,0.4-0.2,2.2-1.6,4.1c0,0,0,0,0,0
		c-1.3,1.9-2.9,3.1-3.3,2.8l0,0c-0.5-0.4,0.3-2.2,1.6-4c0,0,0,0,0-0.1C378.7,191.5,380.2,190.2,380.7,190.6L380.7,190.6z"/>
	<path fill="#010101" d="M375.9,197.6c-0.1,0-0.2,0-0.2-0.1c0,0-0.1-0.2-0.1-0.4c0,0,0,0,0,0.1c0.1,0.1,0.2,0.2,0.3,0.3
		c0.6,0,1.9-1.2,3.1-2.8c1.2-1.7,1.8-3.1,1.8-3.7c0.1,0.8-0.7,2.4-1.7,3.7C377.9,196.4,376.6,197.6,375.9,197.6L375.9,197.6z
		 M375.6,197c0-1,0.7-2.3,1.7-3.6c1.3-1.7,2.6-3,3.2-3c0.1,0.1,0.2,0.1,0.2,0.2c-0.1,0-0.1,0-0.1,0c-0.8,0-2.1,1.2-3.2,2.8
		C376.4,194.9,375.7,196.3,375.6,197L375.6,197z"/>
	<path fill="#F4CF2E" d="M387.6,195C387.6,195,387.6,195,387.6,195c0.4,0.4-0.8,2-2.5,3.5c0,0,0,0-0.1,0c-1.8,1.5-3.5,2.3-3.9,1.9
		c0,0,0,0,0,0c-0.4-0.5,0.7-2,2.5-3.5c0,0,0,0,0.1-0.1C385.4,195.3,387.1,194.5,387.6,195L387.6,195z"/>
	<path fill="#010101" d="M381.4,200.6c-0.1,0-0.2-0.1-0.4-0.1c-0.5-0.5,0.9-2.3,2.5-3.6c1.5-1.3,3-2.1,3.7-2.1
		c0.1,0.1,0.2,0.1,0.2,0.2c-1,0-2.4,0.8-3.7,1.9c-2,1.6-2.9,3.1-2.5,3.5c0.1,0,0.2,0.1,0.2,0.1c0.7,0,2.1-0.8,3.5-2
		c1.3-1.1,2.1-2.1,2.5-2.7c-0.3,0.8-1.3,1.9-2.3,2.8C383.6,199.8,382.1,200.6,381.4,200.6L381.4,200.6z"/>
	<path fill="#F4CF2E" d="M386.3,194.2L386.3,194.2c0.4,0.4-0.6,2.1-2.2,3.7c0,0,0,0,0,0.1c-1.7,1.6-3.4,2.6-3.8,2.2c0,0,0,0-0.1,0
		c-0.4-0.4,0.7-2,2.3-3.7c0,0,0,0,0,0C384.2,194.8,385.9,193.8,386.3,194.2L386.3,194.2z"/>
	<path fill="#010101" d="M380.6,200.3c-0.1,0-0.2-0.1-0.3-0.1c0-0.1,0-0.2,0-0.3c0,0,0,0,0,0c0.1,0.1,0.2,0.2,0.3,0.3
		c0.6,0,2.1-1,3.4-2.3c1.4-1.3,2.4-2.8,2.4-3.4c-1-0.3-2.4,0.6-3.8,1.9c-1.3,1.2-2.2,2.5-2.4,3.2c0.2-0.9,1.1-2.1,2.3-3.3
		c1.4-1.4,2.8-2.4,3.5-2.3c0.1,0.1,0.3,0.3,0.4,0.4c0,0.7-1,2.1-2.4,3.5C382.7,199.3,381.2,200.3,380.6,200.3L380.6,200.3z"/>
	<path fill="#F4CF2E" d="M382.9,192.4L382.9,192.4c0.5,0.4-0.3,2.2-1.6,4c0,0,0,0,0,0c-1.3,1.9-2.8,3.2-3.3,2.8c0,0,0,0,0,0
		c-0.5-0.3,0.3-2.1,1.6-4c0,0,0,0,0.1-0.1C380.9,193.3,382.4,192.1,382.9,192.4L382.9,192.4z"/>
	<path fill="#010101" d="M378.1,199.4c-0.1,0-0.1,0-0.2-0.1c-0.6-0.4,0.4-2.4,1.6-4.1c1.3-1.7,2.6-2.9,3.2-2.9
		c0,0.1,0.1,0.2,0.1,0.2c-0.9,0-2.1,1.2-3.2,2.7c-1.5,2.1-2,3.8-1.7,4.1c0,0,0.1,0,0.1,0c0.7,0,1.9-1.2,3.1-2.8
		c0.7-1.1,1.3-2,1.6-2.8c-0.2,0.8-0.8,1.8-1.4,2.8C380.1,198.2,378.7,199.4,378.1,199.4L378.1,199.4z"/>
	<path fill="#F4CF2E" d="M381.9,191.3C381.9,191.3,381.9,191.3,381.9,191.3c0.5,0.4-0.2,2.2-1.6,4.1c0,0,0,0-0.1,0
		c-1.4,1.9-2.8,3.1-3.3,2.8c0,0,0,0-0.1,0c-0.4-0.3,0.3-2.2,1.6-4c0,0,0,0,0.1-0.1C379.9,192.2,381.5,191,381.9,191.3L381.9,191.3z"
		/>
	<path fill="#010101" d="M377.1,198.3c-0.1,0-0.2,0-0.2-0.1c0,0,0-0.2,0-0.4c0,0,0,0,0,0.1c0.1,0.1,0.2,0.2,0.3,0.3
		c0.6,0,1.9-1.2,3.1-2.8c0.7-1,1.3-2,1.6-2.8c-0.2,0.9-0.7,1.9-1.5,2.8C379.1,197.1,377.8,198.3,377.1,198.3L377.1,198.3z
		 M376.8,197.7c0-1,0.7-2.3,1.7-3.6c1.2-1.7,2.6-2.9,3.2-2.9c0.1,0.1,0.1,0.2,0.1,0.3c-1-0.2-2.1,1.1-3.2,2.6
		C377.6,195.6,376.9,197,376.8,197.7L376.8,197.7z"/>
	<path fill="#F4CF2E" d="M383.8,176.5C383.8,176.5,383.8,176.5,383.8,176.5c0.5,0.4-0.2,2.2-1.6,4c0,0,0,0-0.1,0.1
		c-1.3,1.9-2.8,3.1-3.3,2.8l0,0c-0.5-0.3,0.3-2.2,1.6-4.1c0,0,0,0,0.1,0C381.9,177.5,383.3,176.2,383.8,176.5L383.8,176.5z"/>
	<path fill="#010101" d="M379.1,183.5c-0.1,0-0.2,0-0.3-0.1c0-0.1,0-0.2,0-0.3l0,0c0.1,0.1,0.2,0.2,0.3,0.3c0.6,0,1.9-1.2,3.1-2.8
		c1.2-1.7,1.9-3.2,1.8-3.8c0.1,0.8-0.7,2.4-1.7,3.8C381,182.4,379.7,183.5,379.1,183.5L379.1,183.5z M378.7,182.9
		c0-1,0.7-2.3,1.7-3.6c1.2-1.7,2.6-2.9,3.2-2.9c0.1,0.1,0.1,0.1,0.2,0.2c0,0,0,0-0.1,0c-0.7,0-2,1.2-3.2,2.7
		C379.5,180.8,378.8,182.2,378.7,182.9L378.7,182.9z"/>
	<path fill="#F4CF2E" d="M385.1,177.4C385.1,177.4,385.2,177.4,385.1,177.4c0.5,0.4-0.2,2.1-1.6,4.1c0,0,0,0-0.1,0.1
		c-1.4,1.9-2.8,3.1-3.3,2.8c0,0,0,0,0,0c-0.5-0.3,0.3-2.2,1.6-4.1c0,0,0,0,0.1,0C383.2,178.3,384.7,177.1,385.1,177.4L385.1,177.4z"
		/>
	<path fill="#010101" d="M380.4,184.4c-0.1,0-0.1,0-0.2-0.1c-0.6-0.4,0.3-2.4,1.5-4.1c1.3-1.7,2.7-2.9,3.3-2.9
		c0.1,0.1,0.1,0.2,0.1,0.4c-1-0.1-2.1,1-3.2,2.5c-1.5,2.1-2,3.7-1.7,4c0.1,0,0.1,0,0.2,0c0.6,0,1.9-1.2,3.1-2.8c0.7-1,1.3-2,1.6-2.8
		c-0.2,0.9-0.8,1.8-1.5,2.8C382.3,183.2,381,184.4,380.4,184.4L380.4,184.4z"/>
	<path fill="#F4CF2E" d="M386.5,178.4C386.5,178.4,386.5,178.4,386.5,178.4c0.4,0.3-0.3,2.1-1.6,4c0,0,0,0-0.1,0.1
		c-1.3,1.9-2.8,3.1-3.3,2.8l0,0c-0.5-0.4,0.2-2.2,1.6-4c0,0,0,0,0.1-0.1C384.5,179.3,386,178.1,386.5,178.4L386.5,178.4z"/>
	<path fill="#010101" d="M381.7,185.4c-0.1,0-0.1,0-0.2,0c-0.6-0.4,0.3-2.4,1.5-4.1c1.2-1.7,2.6-2.9,3.3-2.9c0,0.1,0,0.2,0,0.2
		c-0.8,0.1-2.1,1.2-3.2,2.7c-1.5,2-2.1,3.7-1.7,4C381.6,185.2,381.6,185.2,381.7,185.4c0.6-0.1,1.9-1.3,3.1-2.9
		c0.8-1,1.3-2.1,1.6-2.8c-0.2,0.8-0.7,1.8-1.5,2.8C383.7,184.2,382.3,185.4,381.7,185.4L381.7,185.4z"/>
	<path fill="#F4CF2E" d="M387.9,179.4L387.9,179.4c0.4,0.4-0.2,2.1-1.6,4c0,0,0,0-0.1,0c-1.3,1.9-2.8,3.1-3.3,2.8l0,0
		c-0.5-0.4,0.3-2.1,1.6-4c0,0,0,0,0-0.1C385.9,180.3,387.5,179.1,387.9,179.4L387.9,179.4z"/>
	<path fill="#010101" d="M383.2,186.4c-0.1,0-0.2,0-0.3-0.1c-0.6-0.4,0.4-2.5,1.6-4.1c1.2-1.7,2.6-2.9,3.2-2.9
		c0.1,0.1,0.1,0.2,0.2,0.3c-1-0.1-2.1,1.1-3.2,2.5c-1.5,2.1-2.1,3.7-1.7,4c0,0,0.1,0,0.1,0.1c0.6,0,1.9-1.2,3-2.8
		c0.7-1,1.4-2,1.6-2.8c-0.2,0.8-0.8,1.8-1.5,2.8C385.1,185.2,383.8,186.4,383.2,186.4C383.2,186.4,383.2,186.4,383.2,186.4z"/>
	<path fill="#F4CF2E" d="M389,180.4L389,180.4c0.5,0.3-0.3,2.1-1.6,4c0,0,0,0,0,0.1c-1.4,1.8-2.9,3.1-3.3,2.8c0,0,0,0,0,0
		c-0.5-0.3,0.2-2.1,1.6-4c0,0,0,0,0,0C387,181.3,388.5,180.1,389,180.4L389,180.4z"/>
	<path fill="#010101" d="M384.2,187.3c-0.1,0-0.2,0-0.2-0.1c-0.6-0.4,0.4-2.4,1.6-4.1c1.2-1.7,2.6-2.9,3.2-2.8
		c0.1,0,0.2,0.1,0.2,0.2c-0.1-0.1-0.1-0.1-0.1-0.1c-0.8,0-2.1,1.2-3.2,2.7c-1.5,2.1-2,3.7-1.6,4c0.1,0,0.1,0,0.2,0.1
		c0.6,0,1.9-1.2,3.1-2.8c1.2-1.7,1.9-3.1,1.8-3.7c0.2,0.8-0.7,2.4-1.7,3.7C386.2,186.1,384.9,187.3,384.2,187.3L384.2,187.3z"/>
	<path fill="#F4CF2E" d="M396.2,184.6L396.2,184.6c0.5,0.4-0.3,2.2-1.6,4c0,0,0,0-0.1,0.1c-1.4,1.8-2.8,3-3.3,2.7c0,0,0,0-0.1,0
		c-0.4-0.4,0.3-2.1,1.6-4c0,0,0,0,0.1-0.1C394.2,185.5,395.7,184.3,396.2,184.6L396.2,184.6z"/>
	<path fill="#010101" d="M391.3,191.5c-0.1,0-0.1-0.1-0.2-0.1c-0.6-0.4,0.4-2.4,1.6-4.1c1.3-1.7,2.6-2.8,3.2-2.8
		c0,0.1,0.1,0.1,0.2,0.2c-0.1,0-0.1,0-0.1,0c-0.7,0-2,1.1-3.2,2.7c-1.5,2-2,3.7-1.6,4c0,0,0.1,0,0.1,0.1c0.6,0,2-1.1,3.1-2.7
		c1.2-1.7,1.8-3,1.8-3.6c0.1,0.8-0.7,2.3-1.7,3.6C393.4,190.3,392,191.5,391.3,191.5L391.3,191.5z"/>
	<path fill="#F4CF2E" d="M395.1,184.2L395.1,184.2c0.5,0.3-0.2,2.1-1.6,4c0,0,0,0-0.1,0.1c-1.3,1.9-2.8,3.1-3.3,2.7c0,0,0,0-0.1,0
		c-0.5-0.3,0.3-2.1,1.6-4c0,0,0-0.1,0-0.1C393.1,185.1,394.6,183.8,395.1,184.2L395.1,184.2z"/>
	<path fill="#010101" d="M390.2,191.1c-0.1,0-0.1,0-0.2-0.1c-0.6-0.4,0.4-2.4,1.6-4.1c1.2-1.7,2.6-2.9,3.3-2.8
		c0,0.1,0.1,0.2,0.1,0.2c-0.9,0.1-2.1,1.1-3.2,2.6c-1.4,2-2,3.7-1.6,4c0,0,0.1,0,0.1,0.1c0.6,0,1.9-1.2,3.1-2.8c0.7-1,1.3-2,1.5-2.7
		c-0.1,0.8-0.7,1.8-1.4,2.8C392.3,189.9,390.9,191.1,390.2,191.1L390.2,191.1z"/>
	<path fill="#F4CF2E" d="M394.1,183.7L394.1,183.7c0.5,0.4-0.3,2.2-1.6,4c0,0,0,0,0,0.1c-1.4,1.9-2.9,3.1-3.3,2.7c0,0,0,0,0,0
		c-0.5-0.3,0.2-2.1,1.6-4c0,0,0,0,0.1,0C392.1,184.5,393.6,183.3,394.1,183.7L394.1,183.7z"/>
	<path fill="#010101" d="M389.3,190.5c-0.1,0-0.2,0-0.2,0c-0.6-0.4,0.4-2.4,1.6-4.1c1.3-1.7,2.5-2.9,3.2-2.8
		c0.1,0.1,0.1,0.2,0.1,0.2c-0.9-0.1-2.1,1.2-3.2,2.6c-1.5,2-2.1,3.7-1.7,4c0.1,0,0.2,0,0.2,0c0.6,0,1.9-1.2,3.1-2.7
		c0.7-1,1.3-2,1.6-2.7c-0.2,0.8-0.8,1.8-1.5,2.7C391.3,189.4,389.9,190.6,389.3,190.5L389.3,190.5z"/>
	<path fill="#F4CF2E" d="M392.7,182.7C392.7,182.7,392.7,182.7,392.7,182.7c0.5,0.4-0.2,2.1-1.6,4c0,0,0,0-0.1,0.1
		c-1.3,1.9-2.9,3.1-3.3,2.7l0,0c-0.5-0.4,0.2-2.2,1.6-4c0,0,0,0,0-0.1C390.8,183.6,392.3,182.4,392.7,182.7L392.7,182.7z"/>
	<path fill="#010101" d="M387.9,189.6c-0.1,0-0.1,0-0.2-0.1c-0.6-0.4,0.4-2.4,1.6-4.1c1.2-1.7,2.6-2.9,3.2-2.9
		c0.1,0.1,0.1,0.1,0.2,0.2c0,0,0,0,0,0c-0.7,0-2,1.1-3.2,2.7c-1.5,2-2,3.7-1.6,4c0,0,0.1,0,0.1,0c0.6,0,1.9-1.2,3.1-2.8
		c1.2-1.6,1.8-3,1.8-3.6c0.1,0.8-0.7,2.4-1.6,3.6C389.9,188.5,388.6,189.6,387.9,189.6L387.9,189.6z"/>
	<path fill="#F4CF2E" d="M391.3,182C391.3,182,391.3,182,391.3,182c0.5,0.4-0.2,2.2-1.6,4c0,0,0,0-0.1,0.1c-1.3,1.9-2.8,3.1-3.3,2.8
		c0,0,0,0,0,0c-0.5-0.4,0.3-2.1,1.6-4c0,0,0,0,0.1,0C389.3,182.8,390.8,181.6,391.3,182L391.3,182z"/>
	<path fill="#010101" d="M386.5,188.9c-0.1,0-0.1-0.1-0.2-0.1c-0.6-0.4,0.3-2.4,1.6-4.1c1.3-1.7,2.6-2.9,3.2-2.9
		c0.1,0.1,0.2,0.1,0.2,0.2c0,0,0,0-0.1,0c-0.7,0-2,1.1-3.2,2.7c-1.5,2-2.1,3.7-1.7,4c0.1,0,0.1,0,0.2,0.1c0.6,0,1.9-1.2,3-2.8
		c1.3-1.6,1.8-3,1.8-3.6c0.1,0.8-0.7,2.3-1.7,3.7C388.5,187.7,387.1,188.9,386.5,188.9L386.5,188.9z"/>
	<path fill="#F4CF2E" d="M390.2,181.2C390.2,181.2,390.2,181.2,390.2,181.2c0.5,0.3-0.3,2.2-1.6,4c0,0,0,0,0,0
		c-1.3,1.9-2.9,3.1-3.3,2.8c0,0,0,0,0,0c-0.5-0.3,0.3-2.2,1.6-4c0,0,0,0,0.1-0.1C388.2,182,389.7,180.8,390.2,181.2L390.2,181.2z"/>
	<path fill="#010101" d="M385.4,188.1c-0.1,0-0.2,0-0.3-0.1c-0.6-0.4,0.4-2.4,1.6-4.1c1.3-1.7,2.6-2.9,3.2-2.9
		c0.1,0.1,0.1,0.2,0.2,0.4c-0.9,0-2.1,1-3.2,2.5c-1.5,2-2.1,3.7-1.7,4c0.1,0,0.1,0,0.2,0c0.6,0,1.9-1.2,3-2.8c0.8-1,1.3-2,1.6-2.8
		c-0.2,0.8-0.7,1.8-1.5,2.8C387.4,186.9,386,188.1,385.4,188.1L385.4,188.1z"/>
	<path fill="#F4CF2E" d="M378.9,189.3C378.9,189.3,378.9,189.3,378.9,189.3c0.6,0.3,0.1,2.2-1,4.2c0,0,0,0.1,0,0.1
		c-1.2,2.1-2.5,3.5-3,3.2l0,0c-0.6-0.2,0-2.2,1-4.2c0,0,0,0,0-0.1C377,190.5,378.4,189.1,378.9,189.3L378.9,189.3z"/>
	<path fill="#010101" d="M375,196.9c-0.1,0-0.2,0-0.2-0.1c-0.1-0.1-0.1-0.3-0.1-0.4c0,0.1,0,0.1,0,0.1c0.1,0.1,0.2,0.2,0.3,0.2
		c0.5,0,1.8-1.4,2.7-3.2c0.6-1.1,1-2.3,1.2-3.1c0,0.9-0.5,2-1.1,3.1C376.8,195.5,375.6,196.9,375,196.9L375,196.9z M374.7,196.4
		c-0.1-1,0.4-2.4,1.2-3.9c1.1-2,2.3-3.3,2.9-3.3c0,0.1,0.1,0.2,0.1,0.2c-0.8,0.1-1.9,1.4-2.8,3.1
		C375.1,194.2,374.6,195.7,374.7,196.4L374.7,196.4z"/>
	<path fill="#F4CF2E" d="M379.5,181.8L379.5,181.8c0.5,0.3-0.3,2.1-1.6,4c0,0,0,0,0,0.1c-1.3,1.9-2.8,3.2-3.3,2.8l0,0
		c-0.5-0.3,0.3-2.2,1.6-4.1c0,0,0,0,0.1,0C377.6,182.7,379,181.4,379.5,181.8L379.5,181.8z"/>
	<path fill="#010101" d="M374.7,188.8c-0.1,0-0.2,0-0.2-0.1c-0.6-0.4,0.4-2.4,1.6-4.1c1.2-1.7,2.6-3,3.2-3c0.1,0.1,0.1,0.1,0.2,0.2
		c-0.1,0-0.1,0-0.1,0c-0.8,0-2,1.2-3.2,2.8c-1.5,2.1-2.1,3.7-1.6,4c0,0,0.1,0,0.1,0c0.6,0,1.9-1.2,3.1-2.9c1.2-1.7,1.8-3,1.8-3.7
		c0.1,0.8-0.7,2.4-1.6,3.7C376.7,187.6,375.4,188.8,374.7,188.8L374.7,188.8z"/>
	<path fill="#F4CF2E" d="M380.8,182.6C380.9,182.6,380.9,182.6,380.8,182.6c0.5,0.4-0.3,2.2-1.6,4.1c0,0,0,0,0,0.1
		c-1.4,1.9-2.9,3.1-3.4,2.8l0,0c-0.4-0.4,0.3-2.2,1.6-4c0,0,0,0,0.1-0.1C378.9,183.5,380.4,182.3,380.8,182.6L380.8,182.6z"/>
	<path fill="#010101" d="M376.1,189.7c-0.1,0-0.1,0-0.2-0.1c0-0.1,0-0.2,0-0.2c0,0,0-0.1,0-0.1c0.1,0.1,0.2,0.2,0.3,0.2
		c0.6,0,1.9-1.2,3.1-2.8c1.1-1.6,1.8-3,1.8-3.7c0.1,0.8-0.7,2.4-1.7,3.7C378,188.5,376.7,189.7,376.1,189.7L376.1,189.7z M375.8,189
		c0-1,0.7-2.3,1.6-3.6c1.3-1.7,2.6-2.9,3.3-2.9c0.1,0,0.1,0.1,0.2,0.2c0,0,0,0-0.1,0c-0.8,0-2.1,1.2-3.2,2.8
		C376.5,186.9,375.8,188.3,375.8,189L375.8,189z"/>
	<path fill="#F4CF2E" d="M382.1,183.6C382.1,183.6,382.2,183.6,382.1,183.6c0.5,0.3-0.2,2.1-1.6,4c0,0,0,0-0.1,0.1
		c-1.3,1.9-2.8,3.1-3.3,2.8c0,0,0,0-0.1,0c-0.4-0.3,0.3-2.1,1.7-4c0,0,0,0,0-0.1C380.2,184.5,381.7,183.3,382.1,183.6L382.1,183.6z"
		/>
	<path fill="#010101" d="M377.4,190.6c-0.1,0-0.2,0-0.3-0.1c-0.6-0.4,0.4-2.4,1.6-4.1c1.3-1.7,2.6-3,3.2-2.9c0,0,0.2,0.1,0.2,0.1
		c0,0,0,0,0,0.1c-0.8,0-2.1,1.2-3.3,2.8c-1.5,2.1-2,3.7-1.6,4c0.1,0,0.1,0,0.2,0c0.6,0,1.9-1.2,3-2.8c1.2-1.7,1.8-3.1,1.8-3.7
		c0.1,0.8-0.7,2.4-1.7,3.7C379.4,189.4,378,190.6,377.4,190.6L377.4,190.6z"/>
	<path fill="#F4CF2E" d="M383.6,184.6L383.6,184.6c0.4,0.4-0.3,2.2-1.7,4.1c0,0,0,0,0,0.1c-1.4,1.9-2.9,3.1-3.3,2.8c0,0,0,0,0,0
		c-0.5-0.3,0.3-2.1,1.6-4c0,0,0,0,0.1,0C381.6,185.5,383.2,184.3,383.6,184.6L383.6,184.6z"/>
	<path fill="#010101" d="M378.8,191.7c-0.1,0-0.1-0.1-0.2-0.1c-0.1-0.1-0.1-0.2-0.1-0.3l0,0c0.1,0.1,0.2,0.2,0.2,0.3
		c0.6,0,2-1.2,3.1-2.8c1.3-1.6,1.8-3.1,1.8-3.7c0.1,0.8-0.6,2.4-1.7,3.7C380.8,190.4,379.5,191.7,378.8,191.7L378.8,191.7z
		 M378.5,191c0.1-0.9,0.7-2.2,1.6-3.6c1.3-1.7,2.6-2.9,3.2-2.9c0,0.1,0.2,0.1,0.2,0.2c-0.1,0-0.1-0.1-0.1-0.1c-0.7,0-2,1.2-3.2,2.8
		C379.3,188.9,378.6,190.3,378.5,191L378.5,191z"/>
	<path fill="#F4CF2E" d="M384.7,185.6L384.7,185.6c0.5,0.3-0.3,2.1-1.6,4c0,0,0,0,0,0c-1.4,1.9-2.9,3.2-3.3,2.8c0,0,0,0,0,0
		c-0.5-0.4,0.2-2.2,1.7-4c0,0,0,0,0-0.1C382.7,186.5,384.2,185.2,384.7,185.6L384.7,185.6z"/>
	<path fill="#010101" d="M379.9,192.6c-0.1,0-0.1,0-0.2-0.1c-0.6-0.5,0.4-2.4,1.6-4.2c1.3-1.7,2.6-2.9,3.2-2.9
		c0,0.1,0.1,0.2,0.1,0.2c-0.9,0.1-2.1,1.2-3.1,2.7c-1.6,2.1-2.1,3.7-1.7,4c0.1,0,0.1,0,0.2,0.1c0.6,0,1.9-1.2,3.1-2.8
		c0.7-1,1.3-2,1.5-2.8c-0.1,0.8-0.7,1.8-1.4,2.8C381.9,191.4,380.5,192.6,379.9,192.6L379.9,192.6z"/>
	<path fill="#F4CF2E" d="M391.9,189.8L391.9,189.8c0.5,0.4-0.3,2.1-1.6,4c0,0,0,0,0,0c-1.4,1.8-2.8,3.1-3.3,2.7l0,0
		c-0.5-0.3,0.2-2.1,1.6-4c0,0,0,0,0-0.1C389.9,190.6,391.3,189.4,391.9,189.8L391.9,189.8z"/>
	<path fill="#010101" d="M387,196.7c-0.1,0-0.1,0-0.2-0.1c-0.1-0.1-0.1-0.2-0.1-0.3l0,0c0.1,0.1,0.2,0.2,0.2,0.3
		c0.6,0,2-1.2,3.1-2.8c1.2-1.6,1.8-3.1,1.7-3.7c0.1,0.8-0.7,2.3-1.6,3.7C389.1,195.5,387.7,196.7,387,196.7L387,196.7z M386.8,196
		c0.1-0.9,0.7-2.2,1.7-3.6c1.3-1.7,2.5-2.9,3.2-2.8c0.1,0.1,0.1,0.1,0.2,0.2c0,0,0,0-0.1,0c-0.8,0-2,1.2-3.2,2.7
		C387.6,193.9,386.9,195.3,386.8,196L386.8,196z"/>
	<path fill="#F4CF2E" d="M390.8,189.3C390.8,189.3,390.8,189.3,390.8,189.3c0.5,0.4-0.3,2.2-1.7,4c0,0,0,0,0,0.1
		c-1.3,1.9-2.9,3.1-3.4,2.8c0,0,0,0,0,0c-0.5-0.3,0.3-2.1,1.7-4c0,0,0,0,0-0.1C388.8,190.2,390.2,189,390.8,189.3L390.8,189.3z"/>
	<path fill="#010101" d="M385.9,196.3c-0.1,0-0.1-0.1-0.2-0.1c-0.6-0.4,0.4-2.4,1.6-4.1c1.3-1.7,2.6-2.9,3.2-2.9
		c0.1,0,0.1,0.1,0.2,0.2c0,0,0,0-0.1,0c-0.8,0-2.1,1.1-3.2,2.7c-1.5,2.1-2.1,3.7-1.6,4c0,0,0.1,0,0.1,0c0.6,0,1.9-1.2,3.1-2.8
		c1.2-1.6,1.8-3,1.8-3.6c0.1,0.8-0.7,2.3-1.7,3.6C387.9,195.1,386.6,196.3,385.9,196.3L385.9,196.3z"/>
	<path fill="#F4CF2E" d="M389.7,188.8L389.7,188.8c0.5,0.3-0.2,2.1-1.6,4c0,0,0,0,0,0.1c-1.4,1.9-2.8,3.1-3.3,2.7c0,0,0,0,0,0
		c-0.5-0.3,0.3-2.1,1.6-4c0,0,0,0,0-0.1C387.8,189.7,389.3,188.4,389.7,188.8L389.7,188.8z"/>
	<path fill="#010101" d="M385,195.7c-0.1,0-0.1,0-0.2-0.1c0-0.1,0-0.2,0-0.3c0,0,0,0,0,0c0.1,0.1,0.2,0.2,0.2,0.2
		c0.6,0,1.9-1.2,3.1-2.8c1.2-1.7,1.8-3,1.8-3.6c0.1,0.8-0.7,2.3-1.7,3.7C386.9,194.6,385.6,195.7,385,195.7L385,195.7z M384.7,195.1
		c0-1,0.7-2.3,1.6-3.6c1.3-1.7,2.6-2.9,3.2-2.9c0.1,0,0.2,0.1,0.2,0.2c0,0,0,0,0,0c-0.8,0-2.1,1.2-3.2,2.7
		C385.4,193,384.8,194.4,384.7,195.1L384.7,195.1z"/>
	<path fill="#F4CF2E" d="M388.4,187.9C388.4,187.9,388.4,187.9,388.4,187.9c0.5,0.3-0.2,2.1-1.6,4c0,0,0,0,0,0.1
		c-1.4,1.8-2.8,3.1-3.4,2.8c0,0,0,0,0,0c-0.5-0.3,0.3-2.1,1.7-4c0,0,0,0,0-0.1C386.4,188.8,387.9,187.5,388.4,187.9L388.4,187.9z"/>
	<path fill="#010101" d="M383.6,194.8c-0.1,0-0.2,0-0.2,0c-0.1-0.1-0.1-0.3-0.1-0.3c0,0,0,0,0-0.1
		C383.4,194.5,383.5,194.6,383.6,194.8c0.6-0.1,1.9-1.3,3.1-2.9c1.2-1.6,1.8-3,1.8-3.7c0.2,0.8-0.6,2.3-1.6,3.7
		C385.6,193.6,384.3,194.8,383.6,194.8L383.6,194.8z M383.3,194.2c0-1,0.7-2.3,1.7-3.6c1.2-1.7,2.6-2.9,3.2-2.9
		c0.1,0,0.2,0.1,0.2,0.2c0,0,0,0,0,0c-0.7,0-2.1,1.2-3.2,2.7C384.1,192.1,383.4,193.5,383.3,194.2L383.3,194.2z"/>
	<path fill="#F4CF2E" d="M387,187.1L387,187.1c0.5,0.4-0.3,2.1-1.6,4c0,0,0,0.1-0.1,0.1c-1.3,1.8-2.8,3.1-3.3,2.7c0,0,0,0,0,0
		c-0.4-0.4,0.3-2.2,1.7-4c0,0,0,0,0-0.1C385,188,386.5,186.8,387,187.1L387,187.1z"/>
	<path fill="#010101" d="M382.2,194.1c-0.1,0-0.1-0.1-0.2-0.1c-0.1-0.1-0.1-0.2-0.1-0.3l0,0c0.1,0.1,0.2,0.2,0.3,0.3
		c0.6,0,1.9-1.2,3.1-2.8c1.3-1.7,1.8-3.1,1.8-3.7c0.2,0.8-0.7,2.4-1.6,3.8C384.2,192.9,382.9,194.1,382.2,194.1L382.2,194.1z
		 M381.9,193.5c0.1-1,0.7-2.2,1.7-3.5c1.2-1.7,2.6-2.9,3.2-2.9c0.1,0.1,0.1,0.1,0.2,0.2c-0.1,0-0.1,0-0.1,0c-0.7,0-2.1,1.2-3.2,2.8
		C382.7,191.3,382,192.7,381.9,193.5L381.9,193.5z"/>
	<path fill="#F4CF2E" d="M385.9,186.3C385.9,186.3,385.9,186.3,385.9,186.3c0.5,0.4-0.3,2.2-1.6,4c0,0,0,0-0.1,0.1
		c-1.3,1.9-2.8,3.1-3.3,2.8l0,0c-0.5-0.3,0.3-2.2,1.6-4c0,0,0,0,0.1-0.1C383.9,187.2,385.4,186,385.9,186.3L385.9,186.3z"/>
	<path fill="#010101" d="M381.1,193.3c-0.1,0-0.2-0.1-0.2-0.1c0-0.1-0.1-0.2-0.1-0.4c0,0,0,0.1,0,0.1c0.1,0.1,0.2,0.2,0.3,0.2
		c0.6,0,1.9-1.2,3-2.8c1.3-1.7,1.8-3.1,1.8-3.7c0.1,0.8-0.7,2.4-1.7,3.7C383,192.1,381.7,193.3,381.1,193.3L381.1,193.3z
		 M380.8,192.8c0.1-1,0.7-2.3,1.7-3.7c1.3-1.7,2.6-2.9,3.2-2.9c0.1,0.1,0.2,0.1,0.2,0.2c0,0,0,0-0.1,0c-0.7,0-2,1.2-3.2,2.7
		C381.6,190.6,380.8,192,380.8,192.8L380.8,192.8z"/>
	<path fill="#A88032" d="M386.7,136.5L386.7,136.5c0.8,0,1.5,0.3,1.5,0.6c0,5.7,0,11.3,0,17c0,0.3-0.6,0.5-1.5,0.5l0,0
		c-0.8,0-1.4-0.3-1.5-0.6c0-5.7,0-11.3,0-17C385.3,136.7,385.9,136.5,386.7,136.5L386.7,136.5z"/>
	<path fill="#010101" d="M386.7,154.6L386.7,154.6c-0.8,0-1.5-0.2-1.5-0.6c0-5.7,0-11.3,0-17c0-0.7,3-0.6,3,0.1c0,5.7,0,11.3,0,17
		C388.2,154.4,387.6,154.6,386.7,154.6L386.7,154.6z M386.7,136.6c-0.8,0-1.4,0.2-1.4,0.5c0,5.7,0,11.3,0,17c0,0.2,0.6,0.5,1.4,0.5
		l0,0c0.9,0,1.4-0.2,1.4-0.5c0-5.7,0-11.3,0-17C388.1,136.8,387.6,136.6,386.7,136.6L386.7,136.6z"/>
	<path fill="#34793C" d="M383.7,143.3c-2.8,1.8-5.6,3.7-8.3,5.6c1.8-2.3,3.6-4.6,5.4-6.8c1.8-0.4,3.6-0.8,5.3-1.2
		C385.3,141.7,384.5,142.5,383.7,143.3z"/>
	<path fill="#010101" d="M375.4,149c0,0-0.1-0.1-0.1-0.1c1.8-2.3,3.6-4.6,5.3-6.8c1.8-0.4,3.6-0.8,5.4-1.2c-0.8,0.9-1.6,1.7-2.3,2.6
		C381,145.2,378.2,147.1,375.4,149L375.4,149z M386.1,140.8c-1.8,0.4-3.5,0.9-5.3,1.3c-1.7,2.1-3.3,4.2-5,6.3
		c2.6-1.8,5.3-3.5,7.9-5.3C384.5,142.4,385.3,141.6,386.1,140.8L386.1,140.8z"/>
	<path fill="#34793C" d="M383.5,142.2c-3.9,0.4-7.7,0.9-11.6,1.5c3.4-1.2,6.7-2.5,10.1-3.6c1.5,0.3,3,0.5,4.5,0.8
		C385.5,141.3,384.5,141.7,383.5,142.2z"/>
	<path fill="#010101" d="M372,143.7c0-0.1,0-0.1-0.1-0.2c3.4-1.2,6.7-2.5,10.1-3.6c1.5,0.3,3,0.5,4.5,0.8c-1,0.5-1.9,1-2.9,1.5
		C379.7,142.7,375.9,143.2,372,143.7L372,143.7z M382,140.1c-3.1,1.1-6.2,2.2-9.3,3.4c3.6-0.5,7.2-1,10.8-1.4c1-0.5,1.9-0.9,2.9-1.4
		C384.9,140.5,383.5,140.3,382,140.1L382,140.1z"/>
	<path fill="#34793C" d="M389.4,142.7c1.1,2.1,2.1,4.2,3.2,6.4c-1.7-1.6-3.4-3.3-5.1-4.9c-0.5-1.2-1-2.3-1.4-3.5
		C387.2,141.3,388.3,142,389.4,142.7z"/>
	<path fill="#010101" d="M392.5,149.1c-1.7-1.6-3.4-3.3-5.1-4.9c-0.5-1.2-1-2.3-1.5-3.5c1.1,0.6,2.3,1.3,3.4,1.9
		c1.1,2.1,2.1,4.3,3.2,6.4C392.6,149.1,392.6,149.1,392.5,149.1L392.5,149.1z M386,140.8c0.5,1.1,1,2.3,1.6,3.4
		c1.6,1.5,3.1,3,4.7,4.5c-1-2-2-4-3-6C388.2,142,387.1,141.4,386,140.8L386,140.8z"/>
	<path fill="#34793C" d="M390.8,140.4c3.3,3,6.5,6,9.8,9c-3.9-2.2-7.9-4.3-11.8-6.4c-1.1-0.7-2.2-1.5-3.3-2.2
		C387.3,140.6,389,140.5,390.8,140.4z"/>
	<path fill="#010101" d="M400.6,149.5c-4-2.2-7.9-4.3-11.9-6.4c-1.1-0.7-2.2-1.5-3.3-2.2c1.8-0.2,3.6-0.3,5.4-0.5c3.3,3,6.6,6,9.9,9
		C400.6,149.4,400.6,149.5,400.6,149.5L400.6,149.5z M390.7,140.5c-1.7,0.1-3.5,0.3-5.2,0.4c1.1,0.7,2.2,1.4,3.3,2.1
		c3.8,2,7.5,4,11.3,6.1C396.9,146.1,393.8,143.3,390.7,140.5L390.7,140.5z"/>
	<path fill="#34793C" d="M382.9,141.1c-3.9-1.4-7.9-2.8-11.8-4.2c3.9,0,7.7,0,11.6,0.1c1.3,1.4,2.6,2.8,3.9,4.2
		C385.4,141.2,384.1,141.1,382.9,141.1z"/>
	<path fill="#010101" d="M386.8,141.3c-1.3,0-2.6-0.1-3.9-0.1c-4-1.4-7.9-2.8-11.9-4.2c3.9-0.1,7.8-0.1,11.7-0.1
		C384.1,138.4,385.4,139.8,386.8,141.3L386.8,141.3z M371.1,137c3.9,1.3,7.9,2.6,11.8,4c1.2,0,2.3,0,3.5,0.1c-1.3-1.3-2.5-2.7-3.8-4
		C378.8,137,374.9,137,371.1,137L371.1,137z"/>
	<path fill="#34793C" d="M381.6,137.7c-1.9-2.4-3.7-4.8-5.6-7.1c2.8,1.8,5.6,3.5,8.4,5.4c0.7,1.8,1.3,3.6,2,5.4
		C384.8,140.1,383.2,138.9,381.6,137.7z"/>
	<path fill="#010101" d="M386.6,141.6c-1.7-1.3-3.3-2.5-5-3.8c-1.9-2.4-3.7-4.8-5.6-7.2c2.8,1.7,5.7,3.4,8.5,5.2
		C385.2,137.8,385.9,139.7,386.6,141.6L386.6,141.6z M376,130.7c1.9,2.3,3.8,4.6,5.7,7c1.5,1.1,3,2.3,4.6,3.4
		c-0.6-1.7-1.3-3.4-1.9-5.2C381.6,134.2,378.8,132.5,376,130.7L376,130.7z"/>
	<path fill="#34793C" d="M383.6,136.3c-1.1-2.7-2.2-5.4-3.3-8.1c2,2.2,4,4.4,6.1,6.7c-0.1,2.1-0.2,4.3-0.3,6.4
		C385.3,139.6,384.5,137.9,383.6,136.3z"/>
	<path fill="#010101" d="M386.2,141.6c-0.9-1.8-1.8-3.5-2.7-5.3c-1.1-2.7-2.2-5.4-3.3-8.1c2.1,2.2,4.1,4.4,6.2,6.6
		C386.3,137.1,386.3,139.4,386.2,141.6L386.2,141.6z M380.2,128.2c1.1,2.7,2.3,5.3,3.4,8c0.8,1.6,1.6,3.1,2.4,4.7
		c0.1-2,0.2-4.1,0.3-6.1C384.3,132.6,382.3,130.4,380.2,128.2C380.2,128.2,380.2,128.2,380.2,128.2z"/>
	<path fill="#34793C" d="M386.9,135.7c2.5-2.1,4.9-4.1,7.4-6.2c-1.7,2.9-3.3,5.7-5,8.6c-1.1,1-2.3,2-3.4,3
		C386.3,139.3,386.6,137.5,386.9,135.7z"/>
	<path fill="#010101" d="M385.8,141.3c0.4-1.9,0.8-3.8,1.1-5.7c2.5-2.1,4.9-4.2,7.4-6.2c-1.6,2.9-3.3,5.8-4.9,8.7
		C388.2,139.2,387,140.2,385.8,141.3L385.8,141.3z M394.2,129.4c-2.4,2.1-4.8,4.2-7.3,6.3c-0.3,1.7-0.6,3.4-0.9,5.1
		c1-1,2.1-1.9,3.1-2.8C390.9,135.1,392.6,132.3,394.2,129.4L394.2,129.4z"/>
	<path fill="#34793C" d="M389.2,136.5c3.2-0.5,6.4-1,9.5-1.5c-2.8,1.7-5.6,3.3-8.4,5c-1.5,0.3-3,0.7-4.4,1
		C387,139.6,388.1,138.1,389.2,136.5z"/>
	<path fill="#010101" d="M385.6,141.3c1.2-1.6,2.4-3.2,3.5-4.8c3.2-0.6,6.4-1.1,9.6-1.6c-2.8,1.7-5.6,3.4-8.4,5.2
		C388.8,140.5,387.2,140.9,385.6,141.3L385.6,141.3z M398.7,134.9c-3.1,0.5-6.3,1.1-9.4,1.7c-1.1,1.4-2.1,2.9-3.2,4.3
		c1.4-0.3,2.8-0.7,4.2-1C393.1,138.3,395.9,136.6,398.7,134.9L398.7,134.9z"/>
	<path fill="#34793C" d="M389.2,138.5c3.9,0.6,7.7,1.3,11.6,2c-3.6,0.4-7.2,0.9-10.8,1.4c-1.2-0.4-2.4-0.7-3.6-1.1
		C387.3,140.1,388.3,139.3,389.2,138.5z"/>
	<path fill="#010101" d="M389.9,142.1c-1.2-0.4-2.4-0.8-3.6-1.1c0.9-0.8,1.8-1.7,2.7-2.5c3.9,0.6,7.8,1.3,11.7,2
		C397.2,140.9,393.6,141.5,389.9,142.1L389.9,142.1z M389.2,138.6c-0.9,0.8-1.8,1.6-2.7,2.3c1.2,0.3,2.3,0.6,3.5,1
		c3.6-0.5,7.2-1,10.8-1.4C396.9,139.8,393,139.2,389.2,138.6L389.2,138.6z"/>
	<path fill="#34793C" d="M384.9,144c-1.3,1.1-2.7,2.3-4,3.5c0.8-1.4,1.6-2.8,2.3-4.2c1-0.8,1.9-1.6,2.9-2.3
		C385.8,142,385.3,143,384.9,144z"/>
	<path fill="#010101" d="M381,147.5c0,0-0.1-0.1-0.1-0.1c0.8-1.4,1.6-2.8,2.4-4.2c1-0.8,1.9-1.6,2.9-2.3c-0.4,1-0.7,2.1-1.1,3.1
		C383.7,145.2,382.3,146.4,381,147.5L381,147.5z M386.1,141c-0.9,0.8-1.9,1.6-2.8,2.4c-0.7,1.2-1.4,2.5-2.1,3.7
		c1.2-1,2.5-2.1,3.7-3.1C385.3,143,385.7,142,386.1,141L386.1,141z"/>
	<path fill="#34793C" d="M385.3,141.9c-2.1,1.3-4.1,2.5-6.2,3.8c1.7-1.6,3.5-3.3,5.2-4.9c0.8-0.3,1.5-0.6,2.3-1
		C386.2,140.6,385.8,141.3,385.3,141.9z"/>
	<path fill="#010101" d="M379.2,145.8c0,0-0.1,0-0.1-0.1c1.7-1.7,3.5-3.3,5.2-4.9c0.8-0.3,1.5-0.6,2.3-0.9c-0.4,0.7-0.8,1.4-1.2,2.1
		C383.3,143.2,381.3,144.5,379.2,145.8L379.2,145.8z M386.6,139.9c-0.7,0.3-1.5,0.7-2.2,1c-1.6,1.5-3.2,3-4.7,4.5
		c1.9-1.2,3.8-2.4,5.7-3.5C385.7,141.2,386.2,140.6,386.6,139.9L386.6,139.9z"/>
	<path fill="#34793C" d="M388.2,141.2c1.5,2.2,3.1,4.3,4.6,6.5c-1.8-1.8-3.7-3.5-5.5-5.2c-0.4-0.8-0.8-1.7-1.2-2.5
		C386.8,140.5,387.5,140.9,388.2,141.2z"/>
	<path fill="#010101" d="M392.8,147.8c-1.9-1.7-3.7-3.5-5.6-5.2c-0.4-0.8-0.8-1.7-1.3-2.5c0.7,0.4,1.5,0.7,2.2,1.1
		C389.8,143.4,391.3,145.6,392.8,147.8C392.9,147.8,392.9,147.8,392.8,147.8L392.8,147.8z M386,140.1c0.5,0.8,0.9,1.6,1.4,2.4
		c1.7,1.6,3.4,3.2,5.1,4.8c-1.4-2-2.9-4-4.3-6C387.5,140.9,386.7,140.5,386,140.1L386,140.1z"/>
	<path fill="#34793C" d="M384.5,140c-2-1.9-4.1-3.7-6.1-5.6c2,1.3,4,2.6,6,3.9c0.7,0.7,1.3,1.5,2,2.3
		C385.7,140.4,385.1,140.2,384.5,140z"/>
	<path fill="#010101" d="M386.6,140.7c-0.7-0.2-1.4-0.5-2.1-0.7c-2-1.9-4.1-3.7-6.1-5.6c2,1.3,4,2.5,6,3.8
		C385.1,139.1,385.9,139.9,386.6,140.7L386.6,140.7z M378.4,134.5c2.1,1.8,4.1,3.6,6.2,5.5c0.6,0.2,1.1,0.4,1.7,0.6
		c-0.6-0.7-1.2-1.4-1.8-2.1C382.4,137.1,380.4,135.8,378.4,134.5L378.4,134.5z"/>
	<path fill="#34793C" d="M387.5,139.2c1.9,0.3,3.8,0.7,5.7,1.1c-1.8-0.1-3.7-0.1-5.5-0.2c-0.6,0.1-1.2,0.3-1.8,0.4
		C386.4,140.1,386.9,139.6,387.5,139.2z"/>
	<path fill="#010101" d="M385.9,140.6c0,0,0-0.1,0-0.1c0.5-0.4,1.1-0.9,1.6-1.3c1.9,0.4,3.8,0.7,5.7,1.1c-1.8,0-3.7-0.1-5.5-0.1
		C387,140.3,386.4,140.4,385.9,140.6L385.9,140.6z M387.4,139.3c-0.4,0.4-0.9,0.8-1.3,1.2c0.5-0.1,1-0.2,1.5-0.4
		c1.8,0,3.7,0.1,5.5,0.2C391.2,139.9,389.3,139.6,387.4,139.3L387.4,139.3z"/>
	<path fill="#34793C" d="M385.7,136.7c1.4-1.7,2.9-3.3,4.3-5c-0.7,1.3-1.5,2.6-2.2,3.9c-0.6,1.6-1.2,3.1-1.8,4.7
		C385.9,139.1,385.8,137.9,385.7,136.7z"/>
	<path fill="#010101" d="M386,140.4c0,0-0.1,0-0.1,0c-0.1-1.2-0.2-2.5-0.3-3.7c1.4-1.7,2.9-3.4,4.3-5c-0.7,1.4-1.4,2.7-2.1,4.1
		C387.2,137.3,386.6,138.8,386,140.4L386,140.4z M389.9,131.7c-1.4,1.7-2.8,3.3-4.2,5c0.1,1.1,0.2,2.2,0.2,3.2
		c0.6-1.4,1.1-2.9,1.7-4.3C388.4,134.3,389.2,133,389.9,131.7L389.9,131.7z"/>
	<path fill="#34793C" d="M383.6,138.1c-1.6-0.1-3.1-0.2-4.7-0.3c1.6-0.4,3.2-0.9,4.9-1.3c0.8,1.2,1.7,2.4,2.5,3.6
		C385.4,139.4,384.5,138.8,383.6,138.1z"/>
	<path fill="#010101" d="M386.3,140.2c-0.9-0.7-1.8-1.3-2.8-2c-1.5-0.1-3.1-0.2-4.6-0.3c1.6-0.5,3.2-1,4.8-1.5
		c0.9,1.2,1.7,2.4,2.6,3.7C386.4,140.1,386.3,140.1,386.3,140.2L386.3,140.2z M383.7,136.5c-1.6,0.4-3.2,0.9-4.8,1.3
		c1.6,0.1,3.1,0.1,4.7,0.2c0.8,0.6,1.6,1.1,2.4,1.7C385.2,138.7,384.5,137.6,383.7,136.5L383.7,136.5z"/>
	<path fill="#34793C" d="M384.4,142.6c-2.7,1.1-5.4,2.1-8.1,3.3c2.2-1.4,4.5-2.8,6.7-4.1c1-0.3,2-0.5,3.1-0.8
		C385.5,141.4,385,142,384.4,142.6z"/>
	<path fill="#010101" d="M376.4,145.8C376.3,145.8,376.3,145.8,376.4,145.8c2.2-1.5,4.4-2.9,6.7-4.3c1-0.3,2-0.5,3-0.8
		c-0.5,0.6-1,1.2-1.6,1.8C381.8,143.7,379.1,144.7,376.4,145.8L376.4,145.8z M386.1,140.8c-1,0.3-2,0.6-3,0.9
		c-2.1,1.3-4.1,2.5-6.2,3.8c2.5-1,5-2,7.5-3C385,141.9,385.5,141.4,386.1,140.8L386.1,140.8z"/>
	<path fill="#A88032" d="M342.3,141.9C342.4,141.9,342.4,141.9,342.3,141.9c0.4,0.1,0.7,0.4,0.6,0.6c-1.3,4.3-2.6,8.5-3.9,12.8
		c0,0.2-0.4,0.3-0.8,0.1l0,0c-0.4-0.1-0.6-0.4-0.6-0.6c1.3-4.3,2.6-8.5,3.9-12.8C341.6,141.8,342,141.8,342.3,141.9
		C342.3,141.9,342.3,141.9,342.3,141.9z"/>
	<path fill="#010101" d="M338.7,155.6c-0.1,0-0.3,0-0.4-0.1c-0.5-0.1-0.7-0.4-0.6-0.6c1.3-4.3,2.6-8.5,3.9-12.8
		c0.3-0.1,0.6-0.1,0.9-0.2c0.4,0.2,0.7,0.4,0.6,0.7c-1.3,4.3-2.6,8.5-3.9,12.8C339,155.4,338.8,155.5,338.7,155.6L338.7,155.6z
		 M342.3,141.9c-0.3,0-0.5,0.1-0.8,0.1c-1.3,4.3-2.6,8.6-3.9,12.8c-0.1,0.2,0.2,0.4,0.6,0.5c0.1,0,0.3,0.1,0.4,0.1
		c0.1-0.1,0.3-0.2,0.4-0.2c1.3-4.3,2.6-8.5,3.9-12.8C343,142.3,342.7,142.1,342.3,141.9C342.3,141.9,342.3,141.9,342.3,141.9z"/>
	<path fill="#A88032" d="M334.5,141.3L334.5,141.3c0.4,0,0.7,0.1,0.7,0.3c0,4.4,0,8.8,0,13.2c0,0.2-0.4,0.4-0.7,0.5l0,0
		c-0.5,0-0.8-0.1-0.8-0.4c0-4.4,0-8.8,0-13.2C333.7,141.5,334,141.3,334.5,141.3L334.5,141.3z"/>
	<path fill="#010101" d="M334.5,155.4c-0.5,0-0.8-0.1-0.8-0.4c0-4.4,0-8.8,0-13.2c0-0.5,1.6-0.6,1.6-0.1c0,4.4,0,8.8,0,13.2
		C335.3,155.1,334.9,155.3,334.5,155.4L334.5,155.4z M334.5,141.3c-0.4,0-0.7,0.2-0.7,0.4c0,4.4,0,8.8,0,13.2c0,0.2,0.3,0.4,0.7,0.3
		l0,0c0.4,0,0.7-0.2,0.7-0.4c0-4.4,0-8.8,0-13.2C335.1,141.4,334.8,141.3,334.5,141.3L334.5,141.3z"/>
	<path fill="#2B4922" d="M329.9,134.5c1.8-0.7,3.2,0.3,3.8,2.7c0,0.2,0.4,0.2,0.4,0.2c-0.3-4.2,3.8-7.9,6.5-2.2
		c0.2,0.9-1.2-0.4-2.2-1.4c-1.2-1.4-2.9,0.5-2.9,4.4c-0.2,0.9-0.3,2.9-0.3,2.9c-0.5-0.1-0.9-0.1-1.4-0.2c-0.1,0-1.2-4.7-3.2-5.1
		c-1.5-0.1-1.1,0.8-2.9,1.3c-1.6,0.3-1.6,0-0.4-0.6C328.4,136.5,329.1,134.8,329.9,134.5L329.9,134.5z"/>
	<path fill="#010101" d="M335.1,141.1L335.1,141.1c-1.4-0.1-1.5-0.1-1.5-0.1c-0.4-1.7-1-3.1-1.6-3.9c0.8,1.1,1.3,2.6,1.7,3.7
		C333.8,140.9,334.6,141,335.1,141.1c-0.1-0.3,0.1-2.1,0.2-2.9c0.1-4.2,1.9-5.8,3-4.4c0.5,0.5,1,1,1.5,1.3c-0.5-0.3-1.1-0.8-1.5-1.3
		c-1.1-1.2-2.8,0.3-2.9,4.4C335.3,139.1,335.1,141.1,335.1,141.1L335.1,141.1L335.1,141.1z M334.1,137.4c-0.1-0.3-0.2-0.5-0.4-0.7
		c0.3-1.2,0.7-2.5,1.5-3.4c1.6-1.8,3.9-1.2,5.3,1.9c0,0.1-0.1,0.1-0.2,0.1c-1.4-3.2-3.5-3.7-5.1-1.9
		C334.5,134.4,334.1,135.9,334.1,137.4L334.1,137.4z M326.9,137.4c-0.1-0.1-0.1-0.1-0.2-0.2c0.4,0,0.7,0,1-0.1
		c0.8-0.2,1.2-0.5,1.4-0.8c0.3-0.2,0.5-0.4,1-0.5c0.1,0,0.3,0,0.4,0.1c-0.8,0-1,0.2-1.3,0.5c-0.2,0.3-0.6,0.6-1.5,0.8
		C327.4,137.3,327.1,137.4,326.9,137.4L326.9,137.4z M326.6,137.1c0,0,0.2-0.3,0.7-0.5c0.7-0.1,1.2-0.7,1.6-1.3
		c0.3-0.4,0.6-0.7,0.9-0.9c1.3-0.5,2.4-0.1,3.2,1c-0.9-1.1-1.8-1.4-3.1-0.9c-0.2,0.1-0.6,0.5-0.9,0.9c-0.5,0.6-1,1.2-1.7,1.3
		C326.9,136.8,326.7,137,326.6,137.1L326.6,137.1z"/>
	<path fill="#2B4922" d="M330.2,136.9c1.9-0.6,3.2,0.6,3.6,3c0,0.2,0.4,0.3,0.4,0.2c0-4.2,5.8-4.7,8.1,1.2c0.2,0.9-0.1,0.9-1.1-0.2
		c-1.1-1.5-5.5-4-5.8-0.1c-0.1,0.9-0.4,2.8-0.4,2.8c0,0-1.3-0.1-1.4-0.2c0-0.1-0.8-4.8-2.8-5.3c-1.5-0.2-2,1.2-3.8,1.6
		c-1.7,0.2-1.6,0-0.3-0.6C327.1,139.2,329.5,137.1,330.2,136.9L330.2,136.9z"/>
	<path fill="#010101" d="M335.1,143.9C335.1,143.9,335.1,143.9,335.1,143.9c-1.5-0.2-1.5-0.2-1.5-0.2c-0.4-2.1-1-3.5-1.7-4.4
		c0.7,0.9,1.3,2.3,1.7,4.2C333.8,143.6,334.6,143.7,335.1,143.9c-0.1-0.4,0.2-2.1,0.3-2.9c0.1-1.7,1-2.1,1.7-2.1
		c1.5-0.1,3.4,1.2,4.1,2.2c0.7,0.7,1,0.8,1,0.8c0.1-0.1,0.1-0.2,0.1-0.6c-2-5.1-5.8-5.1-7.3-3.5c-0.5,0.5-0.8,1.4-0.8,2.3
		c-0.1-0.2-0.2-0.4-0.3-0.6c0.3-0.6,0.5-1.2,1-1.7c1.5-1.7,5.4-1.6,7.4,3.5c0.1,0.3,0.1,0.5,0,0.7c-0.3,0-0.7-0.2-1.2-0.8
		c-0.7-1-2.6-2.3-4-2.2c-1,0.1-1.5,0.8-1.6,2C335.4,141.9,335.1,143.8,335.1,143.9C335.1,143.8,335.1,143.9,335.1,143.9L335.1,143.9
		z M327.1,140c-1.1,0.1-1.2,0-1.2-0.1c0,0,0.1-0.2,1-0.6c0.1,0,0.6-0.4,1.1-0.8c0.8-0.6,1.9-1.5,2.3-1.6c1.3-0.4,2.4,0,3.1,1.2
		c-0.9-1.1-1.9-1.5-3.1-1.1c-0.4,0.1-1.5,1-2.3,1.6c-0.6,0.5-1,0.8-1.1,0.8c-0.8,0.4-0.9,0.5-0.9,0.5s0.1,0.2,0.9,0.1
		c1.2-0.2,1.7-0.6,2.2-1c0.5-0.3,0.9-0.6,1.4-0.7c0.2,0,0.3,0.1,0.4,0.1c-0.9,0.1-1.3,0.3-1.8,0.7C328.5,139.4,328,139.8,327.1,140
		C327.1,140,327.1,140,327.1,140L327.1,140z"/>
	<path fill="#2B4922" d="M330.7,139.7c1.9-0.4,3.1,0.9,3.4,3.4c0,0.2,0.4,0.3,0.4,0.2c0.2-4.2,4-2.2,5.5,3.5c0.2,0.6-1.2-0.6-2-1.7
		c-1-1.6-1.8-4.6-2.3-0.7c-0.2,0.9-0.6,2.8-0.6,2.8c0,0-1.4-0.3-1.4-0.3c0-0.1-0.5-4.9-2.4-5.6c-1.5-0.3-2.3,3.6-4.1,3.8
		c-1.7,0-1.6-0.2-0.3-0.7C327.1,144.4,330,139.9,330.7,139.7L330.7,139.7z"/>
	<path fill="#010101" d="M340,147c-0.3,0-1.4-1-2-1.9c-0.2-0.4-0.4-0.8-0.6-1.2c-0.7-1.4-1.3-2.1-1.7,0.5c-0.2,0.9-0.6,2.8-0.6,2.8
		c-1.4-0.3-1.4-0.3-1.4-0.3c-0.4-2.8-1.1-4.6-2-5.3c1,0.8,1.6,2.5,2,5.2c0.1,0.1,0.9,0.4,1.4,0.4c-0.1,0,0.4-1.9,0.6-2.7
		c0.5-2.7,1.1-2,1.8-0.5c0.2,0.4,0.4,0.8,0.6,1.1C338.7,146,339.8,146.9,340,147C340,146.9,340,146.9,340,147
		C340,146.9,340,146.9,340,147c-1.6-6-5.3-7.4-5.5-3.6c0-0.3-0.1-0.5-0.2-0.7c0.4-0.9,0.8-1.5,1.5-1.6c1.3-0.1,3.3,2,4.3,5.7
		C340.1,146.8,340,146.9,340,147C340,147,340,147,340,147z M327.1,145.1c-1.1,0-1.3-0.1-1.3-0.1c0-0.2,0.1-0.3,1-0.7
		c0.1,0,0.6-0.8,1.2-1.4c0.9-1.4,2.2-3.1,2.7-3.3c0.4,0,0.7,0,1,0c-0.2,0-0.4,0-0.5,0c-0.9,0.2-2.2,2-3.1,3.3
		c-0.7,1.1-1,1.5-1.2,1.5c-0.8,0.3-0.9,0.4-0.9,0.5C326,144.9,326,145.1,327.1,145.1c0.9-0.2,1.5-1.2,2.1-2.2
		c0.6-0.9,1.1-1.7,1.8-1.7c0.1,0.1,0.4,0.1,0.5,0.3c-0.1-0.1-0.2-0.1-0.3-0.2c-1-0.2-1.4,0.8-1.9,1.7
		C328.7,144,328.1,145,327.1,145.1L327.1,145.1z"/>
	<path fill="#A88032" d="M323.6,142.2L323.6,142.2c0.4-0.2,0.8-0.2,0.9,0.1c1.4,4,2.8,8.1,4.3,12.2c0.1,0.2-0.2,0.5-0.5,0.6
		c0,0,0,0-0.1,0c-0.4,0.2-0.8,0.2-0.8,0c-1.4-4.1-2.9-8.1-4.3-12.2C323,142.7,323.3,142.4,323.6,142.2L323.6,142.2z"/>
	<path fill="#010101" d="M327.8,155.3c-0.2-0.1-0.3-0.1-0.5-0.2c-1.4-4.1-2.8-8.1-4.3-12.2c0.1-0.4,0.3-0.6,0.6-0.7
		c0.3,0,0.6,0.1,0.9,0.1c1.4,4.1,2.8,8.1,4.3,12.2c0.1,0.2-0.2,0.5-0.5,0.7C328.1,155.2,328,155.2,327.8,155.3L327.8,155.3z
		 M323.6,142.2C323.6,142.2,323.6,142.2,323.6,142.2c-0.2,0.2-0.4,0.3-0.5,0.5c1.4,4.1,2.8,8.2,4.3,12.3c0.1,0.1,0.2,0.1,0.4,0.2
		c0.1-0.1,0.3-0.1,0.4-0.2c0.3-0.2,0.6-0.4,0.6-0.6c-1.4-4.1-2.9-8.1-4.3-12.2C324.2,142.3,323.9,142.2,323.6,142.2L323.6,142.2z"/>
	<path fill="#2B4922" d="M324.9,134.1c-1.9,0.3-2.8,2-2.4,4.5c0.1,0.2-0.3,0.4-0.3,0.4c-1.3-3.9-5.6-3.4-5.7,3.1c0.1,1,1-1,1.4-2.4
		c0.6-1.9,1.9-2.7,3.5,0.7c0.4,0.7,1.3,2.4,1.3,2.4c0.4-0.3,0.8-0.5,1.2-0.8c0-0.1-0.8-4.8,0.9-6.2c1.3-0.9,1.4-0.9,3.1-1.3
		c1.6-0.6,1.5-0.8,0.1-0.7C327.8,133.7,325.7,134,324.9,134.1L324.9,134.1z"/>
	<path fill="#010101" d="M322.7,142.8C322.7,142.8,322.7,142.8,322.7,142.8c0,0-0.9-1.7-1.3-2.4c-0.9-2-1.7-2.4-2.1-2.3
		c-0.5,0-1,0.7-1.2,1.6c-0.3,0.8-1,2.6-1.4,2.7c0-0.1,0-0.2,0-0.3c0.3,0,0.8-1.1,1.3-2.4c0.7-2.3,2.2-2.2,3.6,0.7
		c0.4,0.7,1.1,2.1,1.3,2.3c0.4-0.3,1.1-0.7,1.2-0.8c-0.5-3.3-0.1-5.4,0.8-6.2c1.2-0.8,1.3-0.9,2.8-1.3c1.4-0.5,1.4-0.6,1.4-0.6
		c0,0-0.1-0.2-1-0.1c-0.1,0-1.6,0.2-2.6,0.4c-1.2,0.2-1.9,0.6-2.3,1.2c-0.6,0.8-0.7,2-0.5,3.4c-0.1-0.1-0.2-0.3-0.3-0.4
		c0.1-1.4,0.3-2.3,0.8-3c0.4-0.6,1.1-1,1.9-1.2c1.4-0.2,2.8-0.4,3-0.4c0.9-0.1,1.1,0,1.1,0c0,0.2-0.1,0.3-1.1,0.8
		c-1.8,0.5-1.9,0.5-3.1,1.3c-1,0.8-1.3,2.9-0.9,6C323.9,142,323.9,142,322.7,142.8C322.7,142.8,322.7,142.8,322.7,142.8L322.7,142.8
		z M317,138.9c1-2.9,2.9-2.9,4.1-1.8C319.8,136.2,318,136.2,317,138.9L317,138.9z"/>
	<path fill="#2B4922" d="M325.5,136.4c-1.9,0.5-2.6,2.2-2.1,4.6c0.1,0.2-0.3,0.4-0.3,0.4c-1.5-3.8-5.9-3-5.7,3.5c0.2,1,1-1,1.4-2.5
		c0.4-1.9,1.7-2.8,3.5,0.5c0.5,0.7,1.5,2.3,1.5,2.3s1.2-0.8,1.2-0.9c0,0-1.1-4.8,0.5-6.2c1.2-1,1.3-1,3-1.5c1.5-0.7,1.4-0.9,0-0.8
		C328.3,135.8,326.3,136.3,325.5,136.4C325.5,136.4,325.5,136.4,325.5,136.4z"/>
	<path fill="#010101" d="M323.8,145.3c0,0,0-0.1,0-0.1c0,0-1-1.5-1.5-2.2c-1-1.9-1.8-2.2-2.2-2.2c-0.6,0.1-1,0.7-1.2,1.7
		c-0.2,0.8-0.9,2.7-1.2,2.7c0-0.1,0-0.2,0-0.3c0.3,0,0.8-1.2,1.1-2.5c0.5-2.3,2.1-2.4,3.6,0.4c0.5,0.6,1.2,2,1.4,2.2
		c0.4-0.3,1.1-0.8,1.2-0.9c-0.4-1.9-0.8-5.1,0.5-6.2c1.2-0.9,1.3-1,2.8-1.4c1.3-0.6,1.4-0.8,1.4-0.8s-0.1-0.1-0.7-0.1
		c-0.6,0.1-2.7,0.5-3.4,0.7c-0.8,0.2-1.3,0.6-1.7,1.2c-0.5,0.8-0.6,2-0.3,3.4c-0.1-0.1-0.2-0.2-0.3-0.3c0-1.4,0.1-2.4,0.6-3.1
		c0.4-0.6,1-1,1.8-1.2c0.8-0.2,2.8-0.5,3.1-0.6c1-0.1,1.1-0.1,1.1,0.1c0,0.1-0.1,0.2-1.2,0.7c-1.7,0.6-1.9,0.6-3,1.5
		c-1.2,1.1-0.8,4.3-0.5,6.1C325,144.3,325,144.3,323.8,145.3C323.8,145.3,323.8,145.3,323.8,145.3L323.8,145.3z M317.6,143.2
		c0.1-1.4,0.5-2.5,1.2-3.2c0.9-1,2.2-1.1,3.2-0.2c-1-0.7-2.3-0.7-3.2,0.3C318.1,140.7,317.7,141.9,317.6,143.2L317.6,143.2z"/>
	<path fill="#2B4922" d="M326.2,139.2c-1.9,0.7-2.5,2.4-1.8,4.8c0.1,0.2-0.3,0.5-0.3,0.5c-1.8-3.7-6-2.5-5.3,3.9
		c0.2,1,0.8-1.1,1.1-2.6c0.3-2,1.5-2.9,3.5,0.2c0.5,0.6,1.6,2.1,1.6,2.1c0.4-0.3,0.7-0.7,1.1-1c0-0.1-1.5-4.7,0-6.2
		c1.2-1.1,1.2-1.1,2.9-1.8c1.5-0.8,1.3-1,0-0.7C328.9,138.4,326.9,139,326.2,139.2L326.2,139.2z"/>
	<path fill="#010101" d="M325.1,148.2C325.1,148.2,325.1,148.2,325.1,148.2c0,0-1.1-1.5-1.7-2.2c-1.1-1.7-1.9-2.1-2.3-2
		c-0.6,0.1-1,0.7-1.2,1.8c0,0-0.6,2.8-1,2.8c0-0.1-0.1-0.2-0.1-0.3c0.3,0,0.7-1.2,1-2.6c0.3-2.4,1.9-2.5,3.6,0.1
		C324,146.5,325,147.8,325.1,148.2c0.4-0.5,1-1,1.1-1.1c-0.5-1.8-1.2-5,0-6.3c1.1-1,1.2-1,2.6-1.6c0.9-0.4,1.2-0.7,1.3-0.8
		c-0.1,0.1-0.3,0.3-0.9,0.7c-1.7,0.7-1.9,0.8-2.9,1.8c-0.9,0.9-0.9,3.1,0,6.1C326.3,147.1,326.3,147.2,325.1,148.2L325.1,148.2
		L325.1,148.2z M318.8,146.7c0-1.5,0.4-2.7,1-3.4c0.9-1,2.2-1.1,3.3-0.3c-1.1-0.6-2.4-0.6-3.2,0.4
		C319.2,144,318.8,145.2,318.8,146.7L318.8,146.7z M324.5,144c-0.1-0.1-0.2-0.2-0.4-0.3c-0.1-1.4,0-2.4,0.4-3.2
		c0.4-0.7,0.9-1.1,1.7-1.4c0.7-0.2,2.8-0.8,2.9-0.9c0.4-0.1,0.6-0.1,0.7-0.1c0.1,0,0.1,0.1,0.2,0.1c-0.3,0-0.6,0-0.9,0.1
		c-0.2,0.1-2.3,0.7-3,0.9c-0.8,0.3-1.3,0.7-1.6,1.3C324.1,141.4,324,142.6,324.5,144L324.5,144z"/>
	<path fill="#2B4922" d="M340.8,131.9c1.9,0.1,2.9,1.6,2.7,4.2c0,0.2,0.4,0.4,0.4,0.4c1-4.2,6-6.1,6.6,0.4c0,1-1-0.9-1.6-2.2
		c-0.7-1.8-2.7-0.6-4.1,3.1c-0.4,0.8-1.1,2.6-1.1,2.6c0,0-1.2-0.6-1.2-0.7c0,0,0.4-5-1.3-6.1c-1.4-0.7-1.3,0.3-3.1,0.2
		c-1.6-0.4-1.5-0.6-0.2-0.7C339,133.3,340.1,132,340.8,131.9L340.8,131.9z"/>
	<path fill="#010101" d="M343.7,140.4C343.7,140.4,343.7,140.4,343.7,140.4c-1.3-0.6-1.3-0.7-1.3-0.7c0.1-1.6,0.2-5.2-1.3-6.1
		c-0.3-0.2-0.6-0.3-0.8-0.3c-1.1,0.4-1.3,0.5-2.2,0.4c-1.1-0.2-1.2-0.4-1.2-0.4c0-0.2,0.1-0.3,1-0.4c0.9,0,1.4-0.3,1.8-0.6
		c0.4-0.2,0.8-0.5,1.1-0.5c1.4,0,2.2,0.7,2.6,2c-0.5-1.2-1.3-1.8-2.6-1.9l0,0c-0.2,0-0.7,0.2-1,0.5c-0.4,0.3-1,0.6-1.5,0.6l0,0
		c-1.3,0-1.4,0.2-1.4,0.2s0,0.2,1.1,0.5c0.9,0.1,1.3-0.1,1.6-0.3l0,0c0.2-0.1,0.4-0.1,0.6-0.2c0.2,0,0.5,0.1,0.9,0.3
		c1.4,0.9,1.5,4.1,1.3,6C342.6,139.7,343.2,140,343.7,140.4c0.1-0.4,0.7-2,1.1-2.7c1.5-4.1,3.5-4.7,4.1-3.1c0.3,0.7,0.7,1.4,1,1.9
		c-0.4-0.5-0.9-1.4-1.1-1.8c-0.6-1.6-2.6-0.9-3.9,3C344.5,138.6,343.7,140.3,343.7,140.4C343.7,140.4,343.7,140.4,343.7,140.4
		L343.7,140.4z M350.4,136.9C350.4,136.9,350.4,136.9,350.4,136.9c-0.3-2.8-1.4-4.3-2.9-4.2c-1.6,0.1-3.1,1.7-3.6,3.8
		c0-0.3-0.1-0.6-0.1-0.9c0.9-1.5,2.2-2.9,3.7-3c1.6-0.1,2.7,1.5,3,4.3C350.5,136.9,350.5,136.9,350.4,136.9L350.4,136.9z"/>
	<path fill="#2B4922" d="M340.5,134.4c1.9,0.2,2.7,1.8,2.4,4.3c-0.1,0.2,0.3,0.4,0.3,0.4c1.2-4.1,6.8-2.4,7.1,4.2
		c-0.1,1-0.4,0.8-0.9-0.6c-0.6-1.9-3.9-5.9-5.3-2.3c-0.4,0.8-1.3,2.5-1.3,2.5c-0.4-0.3-0.8-0.5-1.2-0.7c0,0,0.7-5-0.9-6.2
		c-1.3-0.8-2.2,0.4-3.9,0.1c-1.6-0.5-1.5-0.7-0.1-0.8C336.9,135.4,339.8,134.4,340.5,134.4L340.5,134.4z"/>
	<path fill="#010101" d="M350.1,144c-0.2,0-0.5-0.4-0.8-1.3c-0.4-1.4-2.2-3.8-3.7-3.7c-0.6,0-1.2,0.5-1.5,1.4
		c-0.4,0.8-1.2,2.5-1.2,2.5c-1.3-0.7-1.3-0.7-1.3-0.7c0.2-2,0.3-5.2-1-6.2c-0.6-0.4-1.2-0.3-1.9-0.1c-0.6,0.2-1.2,0.3-2,0.2
		c-1.1-0.3-1.2-0.4-1.2-0.6c0-0.1,0.4-0.1,0.9-0.2c0.4,0,0.9-0.2,1.5-0.4c0.9-0.3,2-0.6,2.5-0.7c1.3,0.1,2.2,0.9,2.5,2.1
		c-0.5-1.2-1.2-2-2.4-2l0,0c-0.6,0-1.7,0.4-2.6,0.6c-0.6,0.2-1,0.4-1.2,0.4l0,0c-0.9,0.2-1,0.1-1,0.1c0,0,0.1,0.2,1.1,0.5
		c0.7,0.1,1.4,0,2-0.2c0.7-0.2,1.4-0.3,2,0.1c1.4,1,1.2,4.2,1,6.1c0,0.2,0.7,0.6,1.2,0.8c-0.1,0,0.8-1.7,1.1-2.5
		c0.4-0.9,1-1.4,1.6-1.5c1.6-0.1,3.4,2.4,3.8,3.7C349.9,143.8,350.1,143.9,350.1,144c0-0.1,0.1-0.1,0.1-0.7
		c-0.1-4.1-2.5-6.5-4.6-6.4c-1.1,0.1-2,0.8-2.4,2.1c0-0.2,0-0.5-0.1-0.7c0.6-0.8,1.4-1.4,2.4-1.4c2.2-0.1,4.6,2.3,4.7,6.5
		C350.3,143.8,350.2,144,350.1,144L350.1,144z"/>
	<path fill="#2B4922" d="M340.1,137.3c1.9,0.3,2.6,2,2.1,4.5c-0.1,0.2,0.3,0.5,0.3,0.4c1.5-3.9,4.4-0.5,4,5.5c0,0.7-0.9-1-1.3-2.4
		c-0.4-1.9-0.2-5.1-2-1.6c-0.5,0.8-1.4,2.4-1.4,2.4c-0.4-0.3-0.8-0.6-1.1-0.8c0-0.1,1-4.9-0.5-6.3c-1.2-0.9-3.2,2.6-5,2.1
		c-1.5-0.6-1.3-0.8-0.1-0.7C335.3,140.4,339.3,137.2,340.1,137.3L340.1,137.3z"/>
	<path fill="#010101" d="M346.4,147.9c-0.2,0-0.9-1.4-1.3-2.6c-0.1-0.4-0.2-0.9-0.2-1.4c-0.2-1.6-0.5-2.5-1.7-0.2
		c-0.5,0.7-1.5,2.5-1.4,2.5c-1.2-0.8-1.2-0.9-1.2-0.9c0.2-1.1,0.4-2.5,0.3-3.8c0.2,1.3-0.1,2.7-0.2,3.7c0,0.1,0.7,0.6,1.1,0.9
		c0-0.1,0.9-1.7,1.3-2.4c1.3-2.5,1.6-1.5,1.9,0.2c0.1,0.5,0.1,0.9,0.2,1.4C345.6,146.5,346.3,147.8,346.4,147.9
		C346.4,147.8,346.4,147.8,346.4,147.9c0-0.1,0-0.1,0-0.2c0.2-3.4-0.6-5.8-1.6-6.7c-0.9-0.9-1.8-0.4-2.4,1.2c0-0.3,0-0.5,0-0.8
		c1.2-1.4,1.8-1.2,2.4-0.5c0.9,0.9,1.8,3.3,1.6,6.7C346.5,147.7,346.4,147.8,346.4,147.9L346.4,147.9z M335.6,141.2
		c-0.1,0-0.3-0.1-0.4-0.1c1.1-0.1,1.9-0.7,2.6-1.2c0.7-0.5,1.3-1,1.8-1.1c0.1,0.1,0.2,0.1,0.3,0.2c-0.9,0-1.5,0.5-2,0.9
		C337.1,140.5,336.3,141.1,335.6,141.2L335.6,141.2z M335,141c-0.9-0.3-1-0.5-1-0.5c0.6-0.1,0.8-0.1,1.1-0.1l0,0
		c0.1,0,0.8-0.5,1.5-1c1.3-0.9,2.8-2,3.4-2.1c1.2,0.3,2.1,1.1,2.3,2.4c-0.3-1.2-1.1-2-2.2-2.3l0,0c-0.6,0-2.3,1.2-3.5,2.1
		c-0.9,0.6-1.4,0.9-1.5,1c-0.3,0-0.5,0-0.7,0C334.1,140.5,334.1,140.6,335,141L335,141z"/>
	<path fill="#010101" d="M361.2,217.3c-0.1,0-0.1-0.1-0.2-0.1c-27.4-10.5-44.6-22.6-45.7-58c0-20,0-40.1,0-60.1
		c30.3-3,60.6-4.5,90.9-2.6c0,20,0,40,0,60c0,30-12.5,45.5-44.8,60.6C361.4,217.2,361.3,217.2,361.2,217.3L361.2,217.3z M316.3,99.9
		c0,19.7,0,39.4,0,59.1c1.1,35,17.3,46.6,44.9,57.2c31.7-14.9,44-30.3,44-59.7c0-19.7,0-39.4,0-59.1C375.6,95.6,346,97,316.3,99.9
		L316.3,99.9z"/>
</g>
</svg>
