<svg version="1.1" id="fra" name="france" xmlns="http://www.w3.org/2000/svg" xmlns:xlink="http://www.w3.org/1999/xlink" x="0px" y="0px"
	 viewBox="0 0 480 320" enable-background="new 0 0 480 320" xml:space="preserve">
<g id="flag-fra">
	<path fill="#314295" d="M0,300c53.3,14.9,106.7,14.9,160,10c0-93.3,0-186.7,0-280c-53.3,5-106.7,5-160-10C0,113.3,0,206.7,0,300z"
		/>
	<path fill="#F3F4F5" d="M160,310c53.3-5,106.7-14.9,160-19.9c0-93.3,0-186.7,0-280C266.7,15,213.3,25,160,30
		C160,123.3,160,216.6,160,310z"/>
	<path fill="#D71F35" d="M320,290c53.3-5,106.7-5,160,10c0-93.3,0-186.7,0-280C426.7,5.1,373.3,5.1,320,10
		C320,103.4,320,196.7,320,290z"/>
</g>
</svg>
