<svg version="1.1" id="gbr" name="great britain" xmlns="http://www.w3.org/2000/svg" xmlns:xlink="http://www.w3.org/1999/xlink" x="0px" y="0px"
	 viewBox="0 0 480 320" enable-background="new 0 0 480 320" xml:space="preserve">
<g id="flag-gbr">
	<path fill="#FFFFFF" d="M0,300c160,44.8,320-44.8,480,0c0-93.3,0-186.7,0-280C320-24.8,160,64.8,0,20C0,113.3,0,206.7,0,300z"/>
	<path fill="#BD2038" d="M321.4,111.2C374.3,76.7,427.1,47.3,480,32.5c0-4.2,0-8.3,0-12.5c-3.6-1-7.3-2-10.9-2.9
		c-60.3,19.1-120.6,56.4-180.8,97.6C299.3,113.4,310.3,112.2,321.4,111.2z"/>
	<path fill="#BD2038" d="M313.9,195c55.4,25.4,110.7,55.8,166.1,102.3c0-6.2,0-12.4,0-18.6c-44.3-37.2-88.6-64.1-132.9-86.4
		C336,193,325,193.9,313.9,195z"/>
	<path fill="#BD2038" d="M0,41.3c47.4,39.9,94.7,68,142.1,91.3c11.1-0.8,22.1-1.8,33.2-3C116.9,103.2,58.4,71.9,0,22.7
		C0,28.9,0,35.1,0,41.3z"/>
	<path fill="#BD2038" d="M167.7,213.6c-55.9,37-111.8,69.1-167.7,84.8c0,0.5,0,1.1,0,1.6c10.1,2.8,20.2,5.1,30.3,6.9
		c56.9-21.6,113.8-58,170.7-97.2C189.9,211.1,178.8,212.4,167.7,213.6z"/>
	<path fill="#2C3178" d="M447.2,12.6c-56-9.7-112-5.2-168.1,2.1c0,31.4,0,62.7,0,94.1C335.1,70.2,391.1,34.3,447.2,12.6z"/>
	<path fill="#2C3178" d="M204.9,24.8C149.1,32.1,93.3,37,37.5,28.2c55.8,40.2,111.6,66.7,167.4,90.8
		C204.9,87.6,204.9,56.2,204.9,24.8z"/>
	<path fill="#2C3178" d="M480,121.2c0-21.4,0-42.8,0-64.2c-38,10.8-76,29.1-114,51.5C404,107.5,442,110.6,480,121.2z"/>
	<path fill="#2C3178" d="M480,267.9c0-21.2,0-42.4,0-63.6c-38-10.6-76-13.7-114-12.8C404,211.9,442,236.1,480,267.9z"/>
	<path fill="#2C3178" d="M47,309.5c52.6,6.9,105.3,2.2,157.9-4.7c0-29.5,0-59,0-88.5C152.3,252.7,99.6,287,47,309.5z"/>
	<path fill="#2C3178" d="M279.1,294.7c52.8-6.8,105.6-11.2,158.4-3.6c-52.8-37.1-105.6-62.2-158.4-84.9
		C279.1,235.7,279.1,265.2,279.1,294.7z"/>
	<path fill="#2C3178" d="M0,204.4c0,22.1,0,44.3,0,66.4c39.3-11.1,78.6-30.4,118-53.7C78.6,218.3,39.3,215.4,0,204.4z"/>
	<path fill="#2C3178" d="M0,121.2c39.3,11,78.6,13.9,118,12.7C78.6,113,39.3,87.9,0,54.7C0,76.9,0,99.1,0,121.2z"/>
	<path fill="#BD2038" d="M219.7,22.8c0,39.3,0,78.6,0,117.9c-73.2,10-146.5,17.7-219.7-2.8c0,16.6,0,33.3,0,49.9
		c73.2,20.5,146.5,12.9,219.7,2.8c0,37.4,0,74.8,0,112.2c14.8-2,29.7-4.2,44.5-6.2c0-37.4,0-74.8,0-112.2
		c71.9-9.8,143.8-16.8,215.8,3.4c0-16.6,0-33.3,0-49.9c-71.9-20.1-143.8-13.1-215.8-3.4c0-39.3,0-78.6,0-117.9
		C249.4,18.7,234.6,20.8,219.7,22.8z"/>
</g>
</svg>
