<svg version="1.1" id="grd" name="grenada" xmlns="http://www.w3.org/2000/svg" xmlns:xlink="http://www.w3.org/1999/xlink" x="0px" y="0px"
	 viewBox="0 0 480 320" enable-background="new 0 0 480 320" xml:space="preserve">
<g id="flag-grd">
	<path fill="#BC2035" d="M0,300c160,44.8,320-44.8,480,0c0-93.3,0-186.7,0-280C320-24.8,160,64.8,0,20C0,113.3,0,206.7,0,300z"/>
	<path fill="#357B5F" d="M45.8,68.6C175.3,86,304.7,32.4,434.1,49.8c0,67.2,0,134.4,0,201.6C304.7,234,175.3,287.7,45.8,270.2
		C45.8,203,45.8,135.8,45.8,68.6z"/>
	<path fill="#F4D130" d="M45.8,270.2C110.6,245.3,175.3,202.7,240,160c64.7,24.5,129.4,49.1,194.1,91.4
		C304.7,234,175.3,287.7,45.8,270.2z"/>
	<path fill="#F4D130" d="M45.8,68.6c64.7,42.3,129.4,66.9,194.2,91.4c64.7-42.7,129.4-85.3,194.1-110.2
		C304.7,32.4,175.3,86,45.8,68.6z"/>
	<path fill="#BC2035" d="M273.5,155.4c0-18.6-15-31.6-33.5-29c-18.6,2.6-33.6,19.7-33.6,38.2c0,18.6,15,31.6,33.6,29
		C258.5,191,273.5,173.9,273.5,155.4"/>
	<path fill="#F4D130" d="M210.7,154.5c7.4-1,14.9-2,22.3-3.1c2.3-7.4,4.6-14.8,7-22.2c2.3,6.8,4.6,13.5,6.9,20.3
		c7.5-1,14.9-2.1,22.4-3.1c-6,5.2-12.1,10.4-18.1,15.6c2.3,6.8,4.6,13.6,6.9,20.3c-6-3.5-12.1-7.1-18.1-10.6
		c-6.1,5.2-12.1,10.5-18.2,15.7c2.3-7.4,4.6-14.8,7-22.2C222.8,161.7,216.7,158.1,210.7,154.5z"/>
	<path fill="#F4D130" d="M129.4,46.2c4.4-0.2,8.8-0.5,13.2-0.8c1.4-4.3,2.7-8.6,4.1-12.9c1.3,4.1,2.7,8.2,4,12.3
		c4.4-0.4,8.8-0.8,13.2-1.2c-3.6,2.9-7.1,5.8-10.7,8.7c1.4,4.1,2.7,8.2,4.1,12.2c-3.6-2.3-7.1-4.6-10.7-6.9
		c-3.6,2.9-7.2,5.7-10.7,8.5c1.3-4.3,2.7-8.6,4-12.9C136.4,51,132.9,48.6,129.4,46.2z"/>
	<path fill="#F4D130" d="M222.7,36.4c4.4-0.6,8.8-1.2,13.2-1.8c1.4-4.4,2.7-8.8,4.1-13.2c1.4,4,2.7,8,4.1,12
		c4.4-0.6,8.8-1.2,13.2-1.8c-3.6,3.1-7.1,6.2-10.7,9.2c1.4,4,2.7,8,4.1,12c-3.6-2.1-7.1-4.2-10.7-6.3c-3.6,3.1-7.1,6.2-10.7,9.3
		c1.4-4.4,2.7-8.8,4.1-13.2C229.8,40.6,226.2,38.5,222.7,36.4z"/>
	<path fill="#F4D130" d="M316,24.4c4.4-0.4,8.8-0.8,13.2-1.2c1.4-4.3,2.7-8.6,4.1-12.9c1.4,4.1,2.7,8.2,4.1,12.3
		c4.4-0.3,8.8-0.6,13.2-0.8c-3.6,2.8-7.1,5.6-10.7,8.4c1.3,4.1,2.7,8.2,4,12.3c-3.6-2.4-7.1-4.7-10.7-7c-3.6,2.9-7.1,5.8-10.7,8.7
		c1.3-4.3,2.7-8.6,4-12.9C323.1,28.9,319.6,26.6,316,24.4z"/>
	<path fill="#F4D130" d="M129.4,287c4.4-0.2,8.8-0.5,13.2-0.8c1.4-4.3,2.7-8.6,4.1-12.9c1.3,4.1,2.7,8.2,4,12.3
		c4.4-0.4,8.8-0.8,13.2-1.2c-3.6,2.9-7.1,5.8-10.7,8.7c1.4,4.1,2.7,8.2,4.1,12.2c-3.6-2.3-7.1-4.6-10.7-6.9
		c-3.6,2.9-7.2,5.7-10.7,8.5c1.3-4.3,2.7-8.6,4-12.9C136.4,291.8,132.9,289.4,129.4,287z"/>
	<path fill="#F4D130" d="M222.7,277.2c4.4-0.6,8.8-1.2,13.2-1.8c1.4-4.4,2.7-8.8,4.1-13.2c1.4,4,2.7,8,4.1,12
		c4.4-0.6,8.8-1.2,13.2-1.8c-3.6,3.1-7.1,6.2-10.7,9.2c1.4,4,2.7,8,4.1,12c-3.6-2.1-7.1-4.2-10.7-6.3c-3.6,3.1-7.1,6.2-10.7,9.3
		c1.4-4.4,2.7-8.8,4.1-13.2C229.8,281.4,226.2,279.3,222.7,277.2z"/>
	<path fill="#F4D130" d="M316,265.2c4.4-0.4,8.8-0.8,13.2-1.2c1.4-4.3,2.7-8.6,4.1-12.9c1.4,4.1,2.7,8.2,4.1,12.3
		c4.4-0.3,8.8-0.6,13.2-0.8c-3.6,2.8-7.1,5.6-10.7,8.4c1.3,4.1,2.7,8.2,4,12.3c-3.6-2.4-7.1-4.7-10.7-7c-3.6,2.9-7.1,5.8-10.7,8.7
		c1.3-4.3,2.7-8.6,4-12.9C323.1,269.7,319.6,267.4,316,265.2z"/>
	<path fill="#BC2035" d="M69.9,172.2c4.2,8.1,12.4,17.1,19.6,20.3c0.1-7.9-2.8-18.2-6.6-26.5C78.5,168.2,74.2,170.2,69.9,172.2z"/>
	<path fill="#F4D130" d="M62.8,144.8c6.1,13-15.8,42.1,20.7,51.4c-4.6-6.3-7.4-16.6-6.3-24.7c7.6,3.3,15.7,12,18.9,18.6
		C105.6,155.7,71.6,157.1,62.8,144.8"/>
</g>
</svg>
