<svg version="1.1" id="hnd" name="honduras" xmlns="http://www.w3.org/2000/svg" xmlns:xlink="http://www.w3.org/1999/xlink" x="0px" y="0px"
	 viewBox="0 0 480 320" enable-background="new 0 0 480 320" xml:space="preserve">
<g id="flag-hnd">
	<path fill="#FFFFFF" d="M0,300c160,44.8,320-44.8,480,0c0-93.3,0-186.7,0-280C320-24.8,160,64.8,0,20C0,113.3,0,206.7,0,300z"/>
	<path fill="#3B4EA0" d="M240,144.4c-1.6,5.2-3.2,10.3-4.8,15.5c2.5,0.5,4.9,0.9,7.4,1.4C241.7,155.7,240.9,150.1,240,144.4z"/>
	<path fill="#3B4EA0" d="M240,144.4c1.6,4.7,3.2,9.4,4.8,14.1c-2.5,1.1-4.9,2.3-7.4,3.4C238.3,156.2,239.1,150.3,240,144.4z"/>
	<path fill="#3B4EA0" d="M254.8,153.1c-5.2,0.7-10.4,1.4-15.6,2.2c0,2.6,0,5.2,0,7.8C244.4,159.8,249.6,156.5,254.8,153.1z"/>
	<path fill="#3B4EA0" d="M254.8,153.1c-4.2,3.6-8.4,7.3-12.6,10.9c-1.5-1.9-3.1-3.8-4.6-5.6C243.4,156.6,249.1,154.9,254.8,153.1z"
		/>
	<path fill="#3B4EA0" d="M225.2,157.3c4.2,2.5,8.4,4.9,12.6,7.4c1.5-2.3,3-4.6,4.6-6.9C236.6,157.6,230.9,157.4,225.2,157.3z"/>
	<path fill="#3B4EA0" d="M225.2,157.3c5.2-0.7,10.4-1.4,15.6-2.2c0,2.6,0,5.2,0,7.8C235.6,161,230.4,159.1,225.2,157.3z"/>
	<path fill="#3B4EA0" d="M249.1,171.3c-1.6-4.7-3.2-9.4-4.8-14.1c-2.5,1.2-4.9,2.3-7.4,3.5C241,164.2,245.1,167.8,249.1,171.3z"/>
	<path fill="#3B4EA0" d="M249.1,171.3c-4.2-2.5-8.4-4.9-12.6-7.4c1.5-2.3,3-4.6,4.5-6.9C243.8,161.8,246.5,166.5,249.1,171.3z"/>
	<path fill="#3B4EA0" d="M230.9,173.9c4.2-3.6,8.4-7.3,12.6-10.9c-1.5-1.9-3.1-3.8-4.6-5.7C236.2,162.8,233.5,168.4,230.9,173.9z"/>
	<path fill="#3B4EA0" d="M230.9,173.9c1.6-5.2,3.2-10.3,4.8-15.5c2.5,0.5,4.9,0.9,7.4,1.4C239,164.5,234.9,169.2,230.9,173.9z"/>
	<path fill="#3B4EA0" d="M317.8,158c-1.6,5.1-3.2,10.2-4.8,15.3c2.5,0.5,4.9,1.1,7.4,1.6C319.5,169.3,318.6,163.7,317.8,158z"/>
	<path fill="#3B4EA0" d="M317.8,158c1.6,4.8,3.2,9.6,4.8,14.4c-2.5,1-4.9,2-7.4,3.1C316.1,169.7,316.9,163.8,317.8,158z"/>
	<path fill="#3B4EA0" d="M332.5,167.5c-5.2,0.4-10.3,0.9-15.5,1.4c0,2.6,0,5.2,0,7.8C322.2,173.5,327.4,170.5,332.5,167.5z"/>
	<path fill="#3B4EA0" d="M332.5,167.5c-4.2,3.4-8.4,6.8-12.5,10.2c-1.5-2-3.1-3.9-4.6-5.9C321.1,170.3,326.8,168.9,332.5,167.5z"/>
	<path fill="#3B4EA0" d="M303,170.3c4.2,2.6,8.4,5.2,12.6,7.9c1.5-2.3,3-4.5,4.6-6.8C314.4,171,308.7,170.6,303,170.3z"/>
	<path fill="#3B4EA0" d="M303,170.3c5.2-0.6,10.4-1.1,15.5-1.6c0,2.6,0,5.2,0,7.8C313.3,174.4,308.2,172.3,303,170.3z"/>
	<path fill="#3B4EA0" d="M326.9,185.4c-1.6-4.8-3.2-9.6-4.8-14.4c-2.5,1-4.9,2.1-7.4,3.1C318.8,177.8,322.8,181.6,326.9,185.4z"/>
	<path fill="#3B4EA0" d="M326.9,185.4c-4.2-2.7-8.4-5.4-12.6-8c1.5-2.2,3-4.5,4.6-6.7C321.6,175.5,324.2,180.4,326.9,185.4z"/>
	<path fill="#3B4EA0" d="M308.6,187.1c4.2-3.5,8.4-7,12.6-10.4c-1.5-2-3-3.9-4.6-5.8C314,176.3,311.3,181.7,308.6,187.1z"/>
	<path fill="#3B4EA0" d="M308.6,187.1c1.6-5.1,3.2-10.2,4.8-15.3c2.5,0.6,4.9,1.1,7.4,1.7C316.8,178,312.7,182.5,308.6,187.1z"/>
	<path fill="#3B4EA0" d="M317.8,111.4c-1.6,5.1-3.2,10.2-4.8,15.3c2.5,0.6,4.9,1.1,7.4,1.7C319.5,122.7,318.6,117,317.8,111.4z"/>
	<path fill="#3B4EA0" d="M317.8,111.4c1.6,4.8,3.2,9.6,4.8,14.3c-2.5,1-4.9,2.1-7.4,3.1C316.1,123,316.9,117.2,317.8,111.4z"/>
	<path fill="#3B4EA0" d="M332.5,120.8c-5.2,0.4-10.3,0.9-15.5,1.4c0,2.6,0,5.2,0,7.8C322.2,126.9,327.4,123.8,332.5,120.8z"/>
	<path fill="#3B4EA0" d="M332.5,120.8c-4.2,3.4-8.4,6.8-12.5,10.2c-1.5-2-3.1-3.9-4.6-5.9C321.1,123.7,326.8,122.2,332.5,120.8z"/>
	<path fill="#3B4EA0" d="M303,123.6c4.2,2.6,8.4,5.2,12.6,7.8c1.5-2.3,3-4.5,4.6-6.7C314.4,124.3,308.7,124,303,123.6z"/>
	<path fill="#3B4EA0" d="M303,123.6c5.2-0.6,10.4-1.1,15.5-1.6c0,2.6,0,5.2,0,7.8C313.3,127.7,308.2,125.7,303,123.6z"/>
	<path fill="#3B4EA0" d="M326.9,138.7c-1.6-4.8-3.2-9.6-4.8-14.4c-2.5,1-4.9,2-7.4,3.1C318.8,131.1,322.8,134.9,326.9,138.7z"/>
	<path fill="#3B4EA0" d="M326.9,138.7c-4.2-2.7-8.4-5.4-12.6-8c1.5-2.2,3-4.5,4.6-6.7C321.6,128.9,324.2,133.8,326.9,138.7z"/>
	<path fill="#3B4EA0" d="M308.6,140.4c4.2-3.5,8.4-7,12.6-10.4c-1.5-2-3-3.9-4.6-5.8C314,129.6,311.3,135,308.6,140.4z"/>
	<path fill="#3B4EA0" d="M308.6,140.4c1.6-5.1,3.2-10.2,4.8-15.3c2.5,0.5,4.9,1.1,7.4,1.7C316.8,131.3,312.7,135.9,308.6,140.4z"/>
	<path fill="#3B4EA0" d="M162.2,177.5c-1.6,5.1-3.2,10.2-4.8,15.3c2.5,0.6,4.9,1.1,7.4,1.7C163.9,188.8,163.1,183.2,162.2,177.5z"/>
	<path fill="#3B4EA0" d="M162.2,177.5c1.6,4.8,3.2,9.6,4.8,14.4c-2.5,1-4.9,2.1-7.4,3.1C160.5,189.1,161.4,183.3,162.2,177.5z"/>
	<path fill="#3B4EA0" d="M177,186.7c-5.2,0.6-10.4,1.1-15.5,1.6c0,2.6,0,5.2,0,7.8C166.6,193,171.8,189.9,177,186.7z"/>
	<path fill="#3B4EA0" d="M177,186.7c-4.2,3.5-8.4,7-12.6,10.5c-1.5-2-3.1-3.9-4.6-5.9C165.6,189.8,171.3,188.3,177,186.7z"/>
	<path fill="#3B4EA0" d="M147.4,189.6c4.2,2.7,8.4,5.4,12.6,8.1c1.5-2.3,3.1-4.5,4.6-6.8C158.9,190.5,153.1,190.1,147.4,189.6z"/>
	<path fill="#3B4EA0" d="M147.4,189.6c5.2-0.4,10.4-0.9,15.6-1.4c0,2.6,0,5.2,0,7.8C157.8,193.9,152.6,191.7,147.4,189.6z"/>
	<path fill="#3B4EA0" d="M171.4,204.8c-1.6-4.8-3.2-9.5-4.8-14.3c-2.5,1-4.9,2.1-7.4,3.1C163.2,197.3,167.3,201,171.4,204.8z"/>
	<path fill="#3B4EA0" d="M171.4,204.8c-4.2-2.6-8.4-5.2-12.6-7.9c1.5-2.2,3-4.5,4.6-6.7C166,195,168.7,199.9,171.4,204.8z"/>
	<path fill="#3B4EA0" d="M153.1,206.5c4.2-3.4,8.4-6.9,12.6-10.3c-1.5-1.9-3.1-3.9-4.6-5.8C158.4,195.7,155.7,201.1,153.1,206.5z"/>
	<path fill="#3B4EA0" d="M153.1,206.5c1.6-5.1,3.2-10.1,4.8-15.2c2.5,0.6,4.9,1.1,7.4,1.7C161.2,197.5,157.1,202,153.1,206.5z"/>
	<path fill="#3B4EA0" d="M162.2,130.9c-1.6,5.1-3.2,10.2-4.8,15.2c2.5,0.6,4.9,1.2,7.4,1.7C163.9,142.2,163.1,136.5,162.2,130.9z"/>
	<path fill="#3B4EA0" d="M162.2,130.9c1.6,4.8,3.2,9.5,4.8,14.3c-2.5,1.1-4.9,2.1-7.4,3.1C160.5,142.5,161.4,136.7,162.2,130.9z"/>
	<path fill="#3B4EA0" d="M177,140.1c-5.2,0.6-10.4,1.1-15.5,1.6c0,2.6,0,5.2,0,7.8C166.6,146.4,171.8,143.2,177,140.1z"/>
	<path fill="#3B4EA0" d="M177,140.1c-4.2,3.5-8.4,7-12.6,10.5c-1.5-2-3.1-3.9-4.6-5.9C165.6,143.2,171.3,141.7,177,140.1z"/>
	<path fill="#3B4EA0" d="M147.4,142.9c4.2,2.7,8.4,5.4,12.6,8.1c1.5-2.2,3.1-4.5,4.6-6.8C158.9,143.8,153.1,143.4,147.4,142.9z"/>
	<path fill="#3B4EA0" d="M147.4,142.9c5.2-0.4,10.4-0.9,15.6-1.4c0,2.6,0,5.2,0,7.8C157.8,147.2,152.6,145.1,147.4,142.9z"/>
	<path fill="#3B4EA0" d="M171.4,158.1c-1.6-4.8-3.2-9.5-4.8-14.3c-2.5,1-4.9,2.1-7.4,3.1C163.2,150.7,167.3,154.4,171.4,158.1z"/>
	<path fill="#3B4EA0" d="M171.4,158.1c-4.2-2.6-8.4-5.2-12.6-7.9c1.5-2.2,3-4.5,4.6-6.7C166,148.4,168.7,153.2,171.4,158.1z"/>
	<path fill="#3B4EA0" d="M153.1,159.8c4.2-3.4,8.4-6.9,12.6-10.3c-1.5-1.9-3.1-3.9-4.6-5.8C158.4,149.1,155.7,154.5,153.1,159.8z"/>
	<path fill="#3B4EA0" d="M153.1,159.8c1.6-5.1,3.2-10.1,4.8-15.2c2.5,0.6,4.9,1.1,7.4,1.7C161.2,150.8,157.1,155.4,153.1,159.8z"/>
	<path fill="#3B4EA0" d="M0,113.3c160,44.8,320-44.8,480,0c0-31.1,0-62.2,0-93.3C320-24.8,160,64.8,0,20C0,51.1,0,82.2,0,113.3z"/>
	<path fill="#3B4EA0" d="M0,300c160,44.8,320-44.8,480,0c0-31.1,0-62.2,0-93.3c-160-44.8-320,44.8-480,0C0,237.8,0,268.9,0,300z"/>
</g>
</svg>
