<svg version="1.1" id="kir" name="kiribati" xmlns="http://www.w3.org/2000/svg" xmlns:xlink="http://www.w3.org/1999/xlink" x="0px" y="0px"
	 viewBox="0 0 480 320" enable-background="new 0 0 480 320" xml:space="preserve">
<g id="flag-kir">
	<g>
		<path fill="#BC2035" d="M0,300c160,44.8,320-44.8,480,0c0-93.3,0-186.7,0-280C320-24.8,160,64.8,0,20C0,113.3,0,206.7,0,300z"/>
	</g>
	<g>
		<path fill="#F4D130" d="M279.5,167.6c7,1,17.6-0.7,22.4,4.3c-7-1.1-15.6,11.3-22.4,9.7c6,3.2-86.4,11.9-79,10.8
			c-7-0.9-17.6,0.8-22.4-4.3c7,1.1,15.6-11.3,22.4-9.7c-6-3.3-16.3-5.3-18.7-11.9c6,3.5,18-5.7,23.4-1.8
			c-4.2-5.4-12.8-10.8-12.7-18.1c4.2,5.4,18.2,0.4,21.6,6.2c-1.9-6.7-7.5-15-5.2-22.1c1.9,6.8,16,6.5,17.2,13.5
			c0.6-7.3-1.9-17.4,3-23.7c-0.6,7.3,12.1,12,10.8,19.3c3.1-7,4.7-17.9,10.7-22.3c-3,7,6.9,16,3,22.8c5.1-5.8,10.1-16,17.2-18.2
			c-5.1,5.8,0.3,18.1-5.2,23.5c6.6-4,14.3-12.2,21.6-11.8c-6.6,3.9-5.9,17.9-12.7,21.3c7.3-1.6,17-6.9,23.4-4
			C290.9,152.7,286.9,166.7,279.5,167.6L279.5,167.6z"/>
	</g>
	<g>
		<path fill="#B29B31" d="M260,186.5c-14.4,2-53.4,6.4-59.5,6.3c0,0,0,0,0,0c0,0,0,0,0,0c0,0-0.1,0-0.1,0c0,0,0,0,0,0.1
			c-0.1,0-0.2-0.1-0.3,0c-0.2,0-0.3,0-0.4,0c-1.9-0.2-4-0.3-6.2-0.3c-6-0.2-12.3-0.4-15.7-4c-0.3-0.3-0.7-0.7-1-1
			c0.5,0.1,1,0.2,1.5,0.2c3.1,0.5,7.1-2.2,10.7-4.8c3.1-2.2,6.4-4.6,9.4-5c-1.3-0.6-2.7-1.2-4.2-1.8c-5.5-2.2-11-4.6-12.8-9.4
			c-0.2-0.4-0.3-0.9-0.5-1.3c0.4,0.2,0.8,0.5,1.2,0.7c2.3,1.4,6.9,0.4,11.3-1c3.7-1.1,7.5-2.2,10.1-1.6c-0.9-1-2-2.1-3.1-3.2
			c-4.1-4-8.4-8.2-8.2-13.5c0-0.5,0-1,0-1.4c0.3,0.4,0.6,0.7,0.8,1.1c1.9,2.5,6.3,2.7,10.5,2.8c3.6,0.1,7.3,0.2,9.6,1.8
			c-0.5-1.3-1.1-2.7-1.7-4.2c-2.2-5.4-4.5-11-2.8-16.2c0.2-0.5,0.3-1,0.5-1.5c0.1,0.5,0.3,1,0.4,1.4c0.9,3.1,4.7,4.8,8.4,6.3
			c3.2,1.4,6.4,2.8,8,5.1c0-1.4,0-3.1-0.1-4.7c-0.2-6.1-0.5-12.4,3.1-16.9c0.3-0.4,0.6-0.8,0.9-1.2c-0.1,0.5-0.1,1-0.2,1.5
			c-0.3,3.4,2.6,6.3,5.4,9.1c2.4,2.5,4.9,4.9,5.4,7.9c0.6-1.5,1.1-3,1.6-4.6c2-6.1,4.1-12.5,8.5-15.7c0.4-0.3,0.9-0.7,1.3-1
			c-0.2,0.5-0.4,1-0.7,1.5c-1.4,3.2,0.2,7,1.7,10.7c1.3,3.3,2.8,6.6,2.2,9.7c1-1.2,1.9-2.6,2.9-3.9c3.9-5.3,7.8-10.9,13-12.5
			c0.5-0.2,1-0.3,1.4-0.5c-0.3,0.4-0.7,0.8-1,1.2c-2.4,2.7-2.3,7.1-2.3,11.3c0,3.7,0.1,7.4-1.4,10.2c1.3-0.9,2.7-1.9,4-3
			c5.2-3.9,10.6-7.9,15.8-7.6c0.5,0,1,0,1.5,0c-0.5,0.3-0.9,0.5-1.4,0.8c-3.1,1.8-4.6,6.2-6,10.4c-1.2,3.6-2.5,7.3-4.7,9.6
			c1.5-0.4,3-1,4.6-1.5c6.1-2,12.8-3.7,16.8-1.9c0.4,0.2,0.9,0.4,1.3,0.6c-0.5,0.1-1,0.2-1.5,0.3c-3.4,0.7-6.1,4.4-8.7,7.9
			c-2.4,3.1-4.8,6.4-7.7,7.8c1.4,0.1,3,0.1,4.6,0.2c6,0.1,12.3,0.4,15.8,4c0.3,0.4,0.7,0.7,1,1.1c-0.5-0.1-1-0.2-1.5-0.3
			c-3.1-0.5-7,2.2-10.7,4.8c-3.7,2.6-7.6,5.3-10.9,5C279.9,182.9,278.6,184,260,186.5L260,186.5z M200.6,191.9
			c4.1-0.1,36.7-3.2,59.4-6.3c16.4-2.2,19-3.3,19.3-3.7c0.1-0.2,0.2-0.5,0.3-0.7c3,0.7,7.1-2,10.9-4.7c3.3-2.4,6.8-4.8,9.9-5
			c-3.4-2.6-8.9-2.8-14.2-2.9c-2.5,0-4.9-0.1-6.9-0.4c0-0.3,0.1-0.6,0.1-0.9c3.6-0.5,6.5-4.3,9.2-8.1c2.4-3.3,4.9-6.6,7.9-7.9
			c-3.8-1-9.6,0.6-14.9,2.4c-2.5,0.9-4.8,1.6-7,2.1c-0.1-0.3-0.1-0.6-0.2-0.9c3.2-1.6,4.7-5.9,6.2-10.3c1.3-3.8,2.6-7.8,5.2-10.1
			c-4.6,0.7-9.3,4-13.8,7.4c-2.2,1.6-4.2,3.2-6.2,4.3c-0.2-0.2-0.3-0.5-0.5-0.7c2.7-2.5,2.6-6.9,2.6-11.5c-0.1-3.9-0.1-7.8,1.6-10.8
			c-4.2,2-7.7,6.9-11.1,11.6c-1.6,2.2-3,4.3-4.6,6c-0.2-0.2-0.5-0.3-0.7-0.5c1.9-3.3,0.3-7.2-1.3-11.3c-1.4-3.4-2.8-6.8-2.1-10
			c-3.4,3.3-5.1,8.8-6.9,14.2c-0.8,2.5-1.6,4.9-2.5,6.9c-0.3-0.1-0.6-0.1-0.9-0.2c0.7-3.5-2.2-6.4-5.2-9.5c-2.5-2.6-5.1-5.2-5.5-8.4
			c-2.5,4.1-2.3,9.7-2.1,15.1c0.1,2.5,0.2,4.9,0,7.1c-0.3,0.1-0.6,0.1-1,0.2c-0.6-3.3-4.4-4.9-8.4-6.6c-3.4-1.4-6.8-2.9-8.3-5.6
			c-0.8,4.5,1.2,9.4,3.2,14.2c0.9,2.2,1.8,4.3,2.3,6.3c-0.3,0.1-0.6,0.3-0.9,0.4c-1.7-2.8-6-2.9-10.5-3c-3.9-0.1-7.8-0.3-10.2-2.2
			c0.5,4.3,4.3,8,7.9,11.6c1.7,1.7,3.3,3.3,4.6,4.9c-0.2,0.2-0.4,0.5-0.7,0.7c-2.2-1.6-6.8-0.5-11.3,0.8c-3.9,1.2-8.2,2.3-10.7,1.5
			c2.1,3.7,7,5.8,11.8,7.7c2.2,0.9,4.4,1.8,6.1,2.8c-0.1,0.3-0.3,0.6-0.4,0.9c-3-0.7-7.1,2-10.9,4.7c-3.3,2.4-6.7,4.8-10,5
			c3.4,2.6,8.9,2.8,14.2,2.9C196.2,191.5,198.5,191.6,200.6,191.9C200.6,191.9,200.6,191.9,200.6,191.9L200.6,191.9z"/>
	</g>
	<g>
		<path fill="#F4D130" d="M206.7,184.6c-8.4-2.3-16.8-4.7-25.3-7.2c9.1-1.4,18.2-2.9,27.3-4.5c-6.7-5.2-13.5-10.5-20.2-15.8
			c8.7,1.7,17.4,3.4,26,5c-4.2-7.5-8.5-15-12.7-22.5c7.2,4.6,14.4,9.2,21.6,13.8c-1.2-8.8-2.4-17.7-3.7-26.5
			c4.8,7,9.7,14.1,14.5,21.1c1.9-9.2,3.9-18.3,5.8-27.5c1.9,8.6,3.8,17.3,5.8,25.9c4.9-8.4,9.7-16.7,14.6-25.1
			c-1.2,9.2-2.5,18.4-3.7,27.5c7.2-6.6,14.4-13.1,21.5-19.6c-4.2,8.6-8.5,17.2-12.7,25.8c8.7-3.9,17.4-7.9,26-11.7
			c-6.7,6.9-13.5,13.9-20.2,20.9c9.1-0.8,18.2-1.6,27.3-2.3c-8.4,4.4-16.9,8.9-25.3,13.4c8.4,2.3,16.9,4.7,25.3,7.2
			c-39.1,4.5-78.1,10.9-117.2,15.4C189.8,193.6,198.3,189.1,206.7,184.6z"/>
	</g>
	<g>
		<path fill="#B29B31" d="M298.6,183.1c-39.1,4.5-78.1,10.9-117.2,15.4c-0.1-0.3-0.1-0.6-0.2-0.9c8.1-4.2,16.1-8.5,24.2-12.9
			c-8.1-2.2-16.1-4.5-24.2-6.9c0.1-0.3,0.1-0.6,0.2-0.9c8.7-1.3,17.4-2.8,26.1-4.3c-6.4-5-12.9-10-19.3-15.1
			c0.1-0.3,0.3-0.6,0.4-0.9c8.3,1.7,16.6,3.2,24.9,4.8c-4.1-7.2-8.1-14.4-12.2-21.5c0.2-0.2,0.5-0.4,0.7-0.7
			c6.9,4.4,13.8,8.9,20.7,13.2c-1.2-8.5-2.4-17-3.6-25.4c0.3-0.1,0.6-0.3,0.8-0.4c4.7,6.7,9.3,13.5,14,20.2
			c1.8-8.8,3.7-17.5,5.5-26.3c0.3,0,0.6-0.1,0.9-0.1c1.8,8.3,3.7,16.5,5.5,24.8c4.7-8,9.3-16.1,14-24.1c0.3,0.1,0.5,0.1,0.8,0.2
			c-1.2,8.8-2.3,17.6-3.5,26.4c6.9-6.3,13.8-12.6,20.7-18.8c0.2,0.2,0.5,0.3,0.7,0.5c-4.1,8.2-8.1,16.5-12.2,24.8
			c8.3-3.8,16.6-7.5,24.9-11.2c0.2,0.3,0.3,0.5,0.5,0.8c-6.5,6.6-12.9,13.3-19.4,20c8.7-0.8,17.4-1.6,26.1-2.2
			c0.1,0.3,0.1,0.6,0.2,0.9c-8.1,4.2-16.2,8.5-24.2,12.9c8.1,2.2,16.2,4.5,24.2,6.9C298.7,182.5,298.6,182.8,298.6,183.1
			L298.6,183.1z M183.8,197.3c37.5-4.4,74.9-10.5,112.4-14.9c-8-2.4-16.1-4.6-24.1-6.9c8.1-4.4,16.2-8.7,24.4-13
			c-8.8,0.7-17.5,1.5-26.3,2.3c6.5-6.8,13-13.5,19.5-20.2c-8.3,3.7-16.7,7.5-25,11.3c4.1-8.3,8.1-16.6,12.2-24.9
			c-6.9,6.3-13.9,12.6-20.8,18.9c1.2-8.8,2.4-17.7,3.6-26.5c-4.7,8.1-9.3,16.1-14,24.2c-1.8-8.3-3.7-16.6-5.5-24.9
			c-1.9,8.8-3.7,17.7-5.6,26.5c-4.7-6.8-9.4-13.5-14.1-20.3c1.2,8.5,2.4,17,3.6,25.6c-6.9-4.4-13.9-8.8-20.8-13.3
			c4.1,7.2,8.2,14.4,12.2,21.7c-8.3-1.6-16.7-3.1-25-4.8c6.5,5.1,13,10.2,19.4,15.2c-8.8,1.5-17.5,3-26.3,4.3
			c8.1,2.4,16.2,4.6,24.3,6.9C199.9,188.8,191.9,193.1,183.8,197.3L183.8,197.3z"/>
	</g>
	<g>
		<path fill="#F4D130" d="M273.1,175.4c0,18.3-14.9,35.1-33.1,37.7c-18.3,2.6-33.1-10.3-33.1-28.6c0-18.2,14.8-35,33.1-37.6
			C258.3,144.3,273.1,157.2,273.1,175.4C273.1,175.4,273.1,175.4,273.1,175.4z"/>
	</g>
	<g>
		<path fill="#B29B31" d="M240,213.5c-18.5,2.6-33.6-10.4-33.6-28.9c0-18.5,15.1-35.5,33.6-38.1c18.5-2.6,33.5,10.4,33.5,28.9
			C273.5,193.9,258.5,210.9,240,213.5L240,213.5z M240,147.4c-18,2.5-32.7,19.1-32.7,37.1c0,18,14.7,30.7,32.7,28.2
			c18-2.5,32.6-19.1,32.6-37.1C272.6,157.5,258,144.9,240,147.4L240,147.4z"/>
	</g>
	<g>
		<path fill="#234182" d="M0,191c160,44.8,320-44.8,480,0c0,36.3,0,72.7,0,109c-160-44.8-320,44.8-480,0C0,263.7,0,227.3,0,191z"/>
	</g>
	<g>
		<path fill="#FFFFFF" d="M0,197.1c16,4.5,32,17.9,48,20c16,2.1,32-7.2,48-7.1c16,0.2,32,9.8,48,8.7c16-1.2,32-13.2,48-15.1
			c16-2,32,6.1,48,3.8c16-2.2,31.9-14.8,48-16.7c16-2,32,6.6,48,5.4c16-1.2,32-12.1,48-11.9c16,0.2,32,11.4,48,13.5
			c16,2.1,32-5.1,48-0.6c0-5.7,0-11.4,0-17.2c-16-4.5-32,2.7-48,0.6c-16-2.1-32-13.3-48-13.5c-16-0.2-32,10.7-48,11.9
			c-16,1.2-32-7.4-48-5.4c-16,2-32,14.5-48,16.7c-16,2.2-32-5.8-48-3.8c-16,2-32,14-48,15.1c-16,1.2-32-8.5-48-8.7
			c-16-0.2-32,9.1-48,7.1c-16.1-2.1-32-15.5-48-20C0,185.7,0,191.4,0,197.1z"/>
	</g>
	<g>
		<path fill="#FFFFFF" d="M0,231.5c16,4.5,32,17.9,48,20c16,2.1,32-7.2,48-7.1c16,0.2,32,9.8,48,8.7c16-1.2,32-13.2,48-15.1
			c16-2,32,6.1,48,3.8c16-2.2,31.9-14.8,48-16.7c16-2,32,6.6,48,5.4c16-1.2,32-12.1,48-11.9c16,0.2,32,11.4,48,13.5
			c16,2.1,32-5.1,48-0.6c0-5.7,0-11.4,0-17.2c-16-4.5-32,2.7-48,0.6c-16-2.1-32-13.3-48-13.5c-16-0.2-32,10.7-48,11.9
			c-16,1.2-32-7.4-48-5.4c-16,2-32,14.5-48,16.7c-16,2.2-32-5.8-48-3.8c-16,2-32,14-48,15.1c-16,1.2-32-8.5-48-8.7
			c-16-0.2-32,9.1-48,7.1c-16.1-2.1-32-15.5-48-20C0,220,0,225.7,0,231.5z"/>
	</g>
	<g>
		<path fill="#FFFFFF" d="M0,265.7c16,4.5,32,17.9,48,20c16,2.1,32-7.3,48-7.1c16,0.2,32,9.9,48,8.7c16-1.2,32-13.2,48-15.1
			c16-2,32,6.1,48,3.8c16-2.2,31.9-14.8,48-16.7c16-2,32,6.6,48,5.5c16-1.2,32-12.1,48-11.9c16,0.2,32,11.5,48,13.5
			c16,2.1,32-5.1,48-0.6c0-5.7,0-11.4,0-17.1c-16-4.5-32,2.7-48,0.6c-16-2.1-32-13.3-48-13.5c-16-0.2-32,10.7-48,11.9
			c-16,1.2-32-7.4-48-5.4c-16,2-32,14.5-48,16.7c-16,2.2-32-5.8-48-3.8c-16,2-32,13.9-48,15.1c-16,1.2-32-8.5-48-8.7
			c-16-0.2-32,9.1-48,7.1c-16.1-2.1-32-15.5-48-20C0,254.3,0,260,0,265.7z"/>
	</g>
	<g>
		<path fill="#F4D130" d="M250.9,98.4c5.9-0.8,11.8-1.6,17.7-2.3c0.1-0.8-1.5-2-2.9-2.1c-4.5-0.1-7.9,1.8-13.3,2.6
			C251.9,97.2,251.4,97.8,250.9,98.4z"/>
	</g>
	<g>
		<path fill="#B29B31" d="M269,96.5c-6.4,0.8-12.8,1.6-19.2,2.5c0.8-0.9,1.5-1.8,2.3-2.7c2.6-0.5,4.5-1,6.3-1.6
			c2.5-0.7,4.8-1.3,7.4-1.3c1.5,0,3.5,1.4,3.3,2.6C269.1,96.2,269,96.4,269,96.5L269,96.5z M251.9,97.8c5.4-0.7,10.7-1.4,16.1-2.1
			c-0.4-0.5-1.4-1.2-2.4-1.2c-2.5-0.1-4.7,0.6-7.1,1.2c-1.9,0.5-3.8,1-6.1,1.4C252.3,97.3,252.1,97.5,251.9,97.8L251.9,97.8z"/>
	</g>
	<g>
		<path fill="#F4D130" d="M215.5,99.1c4.2,4.7,12.3,7.2,20,6.2c10.4-1.4,21.9-11.4,35.9-15.9c-15.2,1.7-30.4,3.6-45.5,5.4
			c-5.9-3.2-10.4-2.1-13.4,0.8c-2.9,0.5-5.8,1-8.7,1.4c-1.3,0.8,1,3.3,2.8,3.2C209.6,99.9,212.5,99.5,215.5,99.1z"/>
	</g>
	<g>
		<path fill="#B29B31" d="M235.6,105.8L235.6,105.8c0,0-0.1,0-0.1,0c-7.9,1-16-1.5-20.3-6.3c-2.9,0.4-5.7,0.8-8.6,1.2
			c-1.6,0.1-3.3-1.3-3.6-2.6c-0.1-0.6,0.1-1.1,0.5-1.5c3-0.5,6-1,8.9-1.5c3-3.2,8.3-3.7,13.7-0.8c15.1-1.8,30.2-3.7,45.3-5.4
			c0,0.3,0.1,0.6,0.1,0.9c-6.4,2.1-12.2,5.2-17.7,8.3C247.3,101.7,241.3,105,235.6,105.8L235.6,105.8z M217.8,93.4
			c-1.9,0.3-3.6,1.1-5.1,2.5c-3,0.5-6,1.1-9,1.6c0.3,1.2,1.8,2.4,2.8,2.3c3-0.4,5.9-0.7,8.9-1.1c4.5,4.8,12.4,7.2,20,6.2
			c0,0.1,0.1,0.3,0.1,0.4c0-0.2,0-0.3,0-0.5c5.5-0.8,11.5-4,17.8-7.5c4.5-2.5,9.1-5,14.1-7c-13.9,1.6-27.8,3.3-41.7,4.9
			C222.8,93.7,220.2,93.1,217.8,93.4L217.8,93.4z"/>
	</g>
	<g>
		<path fill="#F4D130" d="M236.1,93.3c-1.6-7.4-7.8-9.8-15.1-9.8c-8.5,0-28,1.5-41-0.8c5.6,4.9,17.4,6.2,25.5,6.4
			c8.7,0.2,17.1,0.9,23.7,5C231.6,93.8,233.8,93.5,236.1,93.3z"/>
	</g>
	<g>
		<path fill="#B29B31" d="M236.7,93.6c-2.5,0.3-5,0.6-7.4,1c-7-4.2-15.6-4.9-23.8-5.1c-7.1-0.1-19.8-1.3-25.8-6.5
			c0.2-0.3,0.3-0.5,0.5-0.8c9.6,1.7,22.9,1.3,32.7,1c3.3-0.1,6.1-0.2,8.3-0.2c8.8,0,14,3.4,15.5,10.1
			C236.6,93.3,236.7,93.5,236.7,93.6L236.7,93.6z M181.9,83.5c6.3,4.1,17.3,5,23.7,5.2c8.4,0.2,17.1,0.9,24,5.1
			c2-0.3,3.9-0.5,5.9-0.8c-1.6-6-6.5-9-14.6-8.9c-2.1,0-4.9,0.1-8.2,0.2C203.7,84.5,191.4,84.8,181.9,83.5L181.9,83.5z"/>
	</g>
	<g>
		<path fill="#F4D130" d="M230.6,99.1c2.7,3.1,6.9,2.3,11.4-1.3c4.5-3.7,9.4-12.9,11.8-13.4c16.6-3.3,36.6-12.8,46.1-19.3
			c-12.1,3.1-24.1,6.6-36.3,8.3c-20.8,2.9-23.3,12.8-31.8,20.6C231.5,95.7,231,97.4,230.6,99.1z"/>
	</g>
	<g>
		<path fill="#B29B31" d="M235.7,101.4c-2.1,0.3-4-0.4-5.4-2c-0.2-0.2-0.1-0.5,0.1-0.6c0.2-0.2,0.5-0.2,0.6,0
			c3.3,3.7,8.2,0.8,10.8-1.4c2.1-1.7,4.4-4.8,6.4-7.5c2.3-3.1,4.2-5.7,5.6-5.9c15.8-3.1,33.9-11.8,43.5-17.7c-0.5,0.1-1,0.3-1.5,0.4
			c-10.5,2.7-21.4,5.7-32.3,7.2c-15.6,2.2-20.6,8.2-26,14.5c-1.7,2-3.4,4-5.5,5.9c-0.2,0.2-0.5,0.2-0.7,0c-0.2-0.2-0.1-0.5,0.1-0.7
			c2-1.9,3.7-3.9,5.4-5.9c5.2-6.2,10.7-12.6,26.6-14.9c10.8-1.5,21.7-4.5,32.2-7.3c1.4-0.4,2.7-0.7,4.1-1.1c0.1,0.3,0.2,0.6,0.3,0.8
			c-10.4,7-30.6,16.2-46.3,19.4c-1,0.2-3,2.9-4.9,5.5c-2,2.8-4.4,5.9-6.6,7.7C240,100,237.7,101.1,235.7,101.4L235.7,101.4z"/>
	</g>
	<g>
		<path fill="#B29B31" d="M233.8,95c-0.1,0-0.3,0-0.4-0.2c-0.1-0.2-0.1-0.5,0.1-0.7c2.6-2,4.9-4.3,7.3-6.6c1.6-1.6,3.2-3.2,4.9-4.7
			c7.1-6.2,15.1-7.4,23.7-8.7c7.2-1.1,19.7-5.6,27.2-8.2c0.2-0.1,0.5-0.2,0.7-0.3c0.3-0.1,0.5,0,0.6,0.3c0.1,0.3,0,0.5-0.3,0.6
			c-0.3,0.1-0.5,0.2-0.8,0.3c-7.5,2.6-20,7.1-27.3,8.2c-8.4,1.2-16.3,2.4-23.1,8.4c-1.7,1.5-3.3,3.1-4.9,4.7
			c-2.3,2.3-4.7,4.6-7.4,6.7C234,95,233.9,95,233.8,95L233.8,95z"/>
	</g>
	<g>
		<path fill="#B29B31" d="M228.8,94c-1.2-6.1-7-7.5-15.4-7.6c-2.3,0-4.6-0.1-7,0c-6.4,0-13-0.1-19.5-1.1c-1.4-0.2-2.8-0.7-4.2-1.1
			c-0.7-0.2-1.3-0.4-2-0.7c0.1-0.3,0.2-0.6,0.3-0.9c0.7,0.2,1.4,0.4,2.1,0.6c1.3,0.5,2.7,0.9,4.1,1.1c6.4,1,13,1,19.4,1.1
			c2.3,0,4.7,0,7,0c8.7,0.2,14.8,1.6,16.1,8.2C229.4,93.8,229.1,93.9,228.8,94L228.8,94z"/>
	</g>
	<g>
		<path fill="#B29B31" d="M234.4,103.7c-0.8,0.1-1.6,0.2-2.4,0.2c-0.2,0-0.4-0.2-0.4-0.5c0-0.2,0.3-0.5,0.5-0.5
			c8.4-0.5,14.6-4.1,21.1-8.3c0.2-0.2,0.5-0.1,0.6,0.1c0.1,0.2,0,0.5-0.2,0.7C247.7,99.3,241.9,102.7,234.4,103.7L234.4,103.7z"/>
	</g>
	<g>
		<path fill="#B29B31" d="M214.1,97.5c-3.5,0.5-6.9,0.9-10.4,1.4c-0.3,0-0.5-0.1-0.5-0.4c0-0.3,0.2-0.5,0.5-0.6
			c3.5-0.5,6.9-0.9,10.4-1.4c0.3,0,0.5,0.1,0.5,0.4C214.5,97.2,214.3,97.5,214.1,97.5L214.1,97.5z"/>
	</g>
	<g>
		<path fill="#B29B31" d="M218.7,95.3c0,0.7-0.6,1.4-1.3,1.5c-0.8,0.1-1.3-0.4-1.3-1.1c0-0.7,0.6-1.4,1.3-1.5
			C218.1,94.1,218.7,94.6,218.7,95.3L218.7,95.3z"/>
	</g>
	<g>
		<path fill="#B29B31" d="M217.4,97.3c-1,0.1-1.8-0.5-1.8-1.5c0-1,0.8-1.9,1.8-2c0.9-0.1,1.8,0.5,1.8,1.5
			C219.2,96.2,218.4,97.1,217.4,97.3L217.4,97.3z M217.4,94.6c-0.5,0.1-0.9,0.5-0.9,1c0,0.9,1.7,0.7,1.7-0.2
			C218.2,94.9,217.9,94.6,217.4,94.6L217.4,94.6z"/>
	</g>
</g>
</svg>
