<svg version="1.1" id="mda" name="moldau" xmlns="http://www.w3.org/2000/svg" xmlns:xlink="http://www.w3.org/1999/xlink" x="0px" y="0px"
	 viewBox="0 0 480 320" enable-background="new 0 0 480 320" xml:space="preserve">
<g id="flag-mda">
	<path fill="#EFD929" d="M0,300c160,44.8,320-44.8,480,0c0-93.3,0-186.7,0-280C320-24.8,160,64.8,0,20C0,113.3,0,206.7,0,300z"/>
	<path fill="#373A94" d="M0,300c53.3,14.9,106.7,14.9,160,10c0-93.3,0-186.7,0-280c-53.3,5-106.7,5-160-10C0,113.3,0,206.7,0,300z"
		/>
	<path fill="#CF2029" d="M320,290.1c53.3-5,106.7-5,160,10c0-93.3,0-186.7,0-280C426.7,5.1,373.3,5.1,320,10
		C320,103.4,320,196.7,320,290.1z"/>
</g>
<g id="crest">
	<path fill="#010101" d="M223.9,84.9c-1,0.1-1.8,0.5-2.3,1c0.8,0.1,1.3,0.8,1.3,1.7c0,0.8,0,1.5,0,2.3c-0.3,0-0.6,0.1-0.9,0.1
		c-0.4,0.1-0.9,0.1-1.3,0.2c-0.9,0.1-1.6-0.4-1.9-1.1c-0.4,0.6-0.6,1.5-0.6,2.5c0,1,0.2,1.8,0.6,2.3c0.2-0.8,1-1.5,1.9-1.6
		c0.4-0.1,0.9-0.1,1.3-0.2c0.3,0,0.6-0.1,0.9-0.1c0,0.3,0,0.6,0,0.9c0,2.4,0,4.7,0,7.1c0,1,0,2,0,3c0,0.9-0.5,1.6-1.2,2
		c1.1,0,2,1.3,2.3,2.1c0.2-0.8,1.2-2.4,2.2-2.7c-0.7-0.1-1.3-0.8-1.3-1.6c0-1.7,0-3.4,0-5.1c0-1.6,0-3.3,0-4.9c0-0.3,0-0.6,0-0.9
		c0.3,0,0.6-0.1,0.9-0.1c0.5-0.1,0.9-0.1,1.4-0.2c1-0.1,1.7,0.3,1.9,1.1c0.4-0.5,0.6-1.4,0.6-2.4c0-1-0.2-1.8-0.6-2.3
		c-0.2,0.8-1,1.5-1.9,1.6c-0.5,0.1-0.9,0.1-1.4,0.2c-0.3,0-0.6,0.1-0.9,0.1c0-0.8,0-1.5,0-2.3c0-0.9,0.6-1.7,1.4-2.1
		C225.8,84.9,224.9,84.8,223.9,84.9"/>
	<path fill="#F2EA39" d="M223.9,85.4c-0.5,0.1-1,0.2-1.3,0.4c0.5,0.4,0.8,1,0.8,1.7c0,0.8,0,1.5,0,2.3c0,0,0,0,0,0.1
		c0,0.1,0,0.2,0,0.4c-0.1,0-0.2,0-0.4,0c0,0,0,0-0.1,0c-0.1,0-0.2,0-0.2,0c-0.2,0-0.5,0.1-0.7,0.1c-0.4,0.1-0.9,0.1-1.3,0.2
		c-0.8,0.1-1.4-0.1-1.8-0.6c-0.1,0.4-0.3,0.9-0.3,1.4c0,0.5,0.1,0.9,0.3,1.3c0.4-0.6,1-1,1.8-1.1c0.4-0.1,0.9-0.1,1.3-0.2
		c0.1,0,0.2,0,0.3,0c0.2,0,0.4-0.1,0.6-0.1c0.2,0,0.3,0,0.5-0.1c0,0.1,0,0.1,0,0.2c0,0.1,0,0.2,0,0.2c0,0,0,0.1,0,0.1
		c0,0.3,0,0.6,0,0.9c0,2.4,0,4.7,0,7.1c0,1,0,2,0,3c0,0.7-0.4,1.3-0.8,1.8c0.4,0.2,0.7,0.4,0.9,0.7c0.2,0.3,0.3,0.5,0.5,0.8
		c0.2-0.3,0.2-0.6,0.5-0.9c0.2-0.3,0.5-0.6,0.9-0.9c-0.5-0.4-0.8-0.9-0.8-1.6c0-1.7,0-3.4,0-5.1c0-1.6,0-3.3,0-4.9c0,0,0-0.1,0-0.1
		c0-0.3,0-0.5,0-0.8c0-0.2,0-0.3,0-0.5c0.1,0,0.2,0,0.3,0c0,0,0.1,0,0.1,0c0.3,0,0.6-0.1,0.9-0.1c0.5-0.1,0.9-0.1,1.4-0.2
		c0.8-0.1,1.4,0.2,1.9,0.6c0.1-0.4,0.2-0.9,0.2-1.4c0-0.5-0.1-1-0.2-1.3c-0.5,0.6-1.1,1-1.9,1.1c-0.5,0.1-0.9,0.1-1.4,0.2
		c-0.3,0-0.6,0.1-0.9,0.1c0,0,0,0,0,0c-0.1,0-0.2,0-0.4,0.1c0-0.1,0-0.2,0-0.4c0,0,0,0,0-0.1c0-0.8,0-1.5,0-2.3
		c0-0.7,0.3-1.4,0.8-1.9C224.9,85.4,224.5,85.3,223.9,85.4"/>
	<path fill="#816532" d="M225.7,125c-1.3-0.1-2.5-0.2-3.8-0.3c-2.6-1-5.3-2.1-7.9-3.1c-1.7,0.1-3.3,0.3-5,0.4
		c-0.1-3.2-0.2-6.4-0.3-9.6c-3.2-2.1-6.4-4.3-9.6-6.4c-3.3,3.9-6.5,7.8-9.8,11.7c-0.4,1.1-0.9,2.2-1.3,3.3
		c0.2,31.9,0.3,63.9,0.5,95.8c2.1-2.8,4.2-5.6,6.3-8.4c0.5,0.1,0.9,0.1,1.4,0.2c2.2-2.6,4.3-5.3,6.5-7.9c1.8-4.9,3.7-9.8,5.5-14.7
		c0.6-2,1.1-4,1.7-6c2.5,2.6,5,5.2,7.5,7.8c-0.9,1.9-1.9,3.7-2.8,5.6c0.9-0.2,1.7-0.4,2.6-0.5c0.1,0.7,0.2,1.4,0.3,2.1
		c0.8-0.4,1.6-0.9,2.3-1.3c0.2,1,0.4,1.9,0.6,2.9c1.7-2,3.5-4,5.2-6c2.4,0.9,4.8,1.7,7.2,2.6c-4.6,8.8-9.1,17.6-13.7,26.4
		c-1.6,1.4-3.3,2.8-4.9,4.3c2.9,0.7,5.9,1.4,8.8,2.1c3-3.9,6.1-7.9,9.1-11.8c-0.4,2.4-0.9,4.7-1.3,7.1c-0.9,2.4-1.8,4.7-2.8,7.1
		c3.7,1.6,7.4,3.2,11.1,4.8c4-2.9,8-5.8,12-8.7c-2-3.8-4-7.7-6-11.5c0.7-0.4,1.3-0.7,2-1.1c2.6,3.4,5.1,6.7,7.7,10.1
		c2.8-1.8,5.6-3.6,8.5-5.3c-3.7-3.8-7.3-7.5-11-11.3c-2.4-4.8-4.8-9.6-7.3-14.4c2.5-1.2,5.1-2.4,7.6-3.6c1.7,1.4,3.5,2.8,5.2,4.3
		c0.3-1.1,0.5-2.2,0.8-3.3c0.9,0.3,1.8,0.6,2.7,0.9c-0.1-0.9-0.2-1.8-0.4-2.6c0.9,0.1,1.9,0.1,2.8,0.2c-1.1-1.6-2.3-3.2-3.4-4.9
		c2.8-2.8,5.7-5.5,8.5-8.3c1.8,5.4,3.6,10.8,5.4,16.1c2.7,2.7,5.3,5.3,8,8c0.6-0.1,1.1-0.3,1.7-0.4c1.9,2.1,3.8,4.3,5.7,6.4
		c0-32.9,0-65.9,0-98.8c-3.5-3.3-7.1-6.6-10.6-9.9c-3.5,3.3-6.9,6.5-10.4,9.8c0.1,3,0.3,6,0.4,9c-1.5,0.3-3.1,0.5-4.6,0.8
		c-2.3,1.5-4.6,3-6.9,4.5c-1.3,0.6-2.6,1.2-3.9,1.8c-0.6,0.2-1.3,0.4-1.9,0.6c-0.8-0.8-1.6-1.5-2.3-2.3c-1.1-2-2.1-3.9-3.2-5.9
		c-0.1-2.1-0.1-4.2-0.2-6.3c0.7-1.5,1.3-2.9,2-4.4c-0.1-1.3-0.2-2.5-0.4-3.8c0.6-0.1,1.1-0.2,1.7-0.2c-0.4-0.8-0.7-1.6-1.1-2.4
		c0.5-0.3,1-0.6,1.6-0.9c-0.8-0.6-1.6-1.1-2.3-1.7c0.3-0.3,0.5-0.7,0.8-1c-2.9-0.9-5.8-1.7-8.8-2.6c-2.2,0.2-4.4,0.3-6.7,0.5
		c-0.6,0.4-1.2,0.7-1.8,1.1c-0.3,0.6-0.6,1.1-0.9,1.7c0.6,1.6,1.2,3.2,1.8,4.8c-0.6,0.7-1.3,1.5-1.9,2.2c0.6,1.1,1.3,2.3,1.9,3.4
		c0,2.7,0,5.4,0.1,8c-0.5,2.3-1,4.6-1.5,7c-1,1.9-2,3.7-3,5.6C226.7,124.4,226.2,124.7,225.7,125z"/>
	<path fill="#C1232E" d="M215.5,193.2c-2.2,3.7-4.4,7.4-6.6,11.1c-1.1,0.1-2.1,0.2-3.2,0.3c-1.1,0.7-2.2,1.3-3.3,2
		c-0.4,1.2-0.7,2.5-1.1,3.7c0.2,0.5,0.4,1.1,0.5,1.6c1.2,1.2,2.4,2.3,3.6,3.5c1-0.7,2-1.4,3-2c0.8-1,1.5-1.9,2.3-2.9
		c0.2-0.8,0.4-1.5,0.6-2.3c2.8-4,5.6-8,8.4-12c-0.1-0.9-0.3-1.8-0.4-2.7c-0.6,0.5-1.2,0.9-1.8,1.4c-0.2-0.7-0.5-1.4-0.7-2.1
		C216.3,192.9,215.9,193,215.5,193.2z"/>
	<path fill="#C1232E" d="M257.9,190.4c3,3.6,5.9,7.2,8.9,10.7c0.3,0.8,0.6,1.5,0.8,2.3c1.3,1,2.6,2,3.9,3c0.4-0.2,0.8-0.3,1.2-0.5
		c1.4-1.8,2.8-3.7,4.3-5.5c-0.3-1.1-0.6-2.2-0.9-3.3c-1.3-0.6-2.7-1.3-4-1.9c-1,0.2-2,0.5-3,0.7c-2.2-3.1-4.5-6.1-6.7-9.1
		c-0.4-0.1-0.8-0.2-1.2-0.3c-0.1,0.7-0.3,1.3-0.4,2c-0.7-0.1-1.3-0.2-2-0.3C258.4,188.9,258.1,189.6,257.9,190.4z"/>
	<path fill="#010101" d="M234.7,89.6c-1.1,0.2-2.7,0.4-3.7,1.2c-0.9,0.7-0.8,1.4-1.1,1.7c-0.7,0.7-2,0.9-2.5,1c-3.9,0.5-4,4.6-4,4.6
		c0,0,1-1.6,2.7-1.9c2.8-0.4,5,0.9,5,1.5c0,0.2-0.3,0.3-0.3,0.3c-1.9,0.3-4.7-0.4-6.2-0.2c0,0.2,0,0.4,0,0.6c0.1,0,0.1,0,0.1,0.1
		c0,0,0,0-0.1,0c0,0,0,0.1,0,0.1c3.4,0.7,6.8,1.9,6.8,9.2c0,4.6-0.6,9.3-2.8,13.4c-0.8,1.4-2,2.7-3.4,3.8c-0.6-0.1-3.5-0.6-5.6-1.5
		c-3.6-1.5-5.5-3.2-9.8-2.9c0-1.1,0-2.2,0-3.3c0-1.7,0.6-3.3,0.6-5c-1.7-0.2-6.8-5.7-11.4-7.8c-6.8,5.3-12,13.1-12,16.4
		c0,0,0.2,71.3,0,96.2c0,1.5-0.9,3.6-0.9,3.6c2.5-1.3,7-8.1,8-10.6c0,0.4,0,0.8,0,1.1c3.7-2.2,6.5-7,7.7-9.5c0,0.3,0.1,1.2,0.1,1.2
		c3.4-3.4,7.6-21.2,7.6-21.2c-0.1-1.2-0.1-2.4-0.2-3.6c0,0-3,14.6-6.3,17.9c0-20.3,0-40.6,0-60.9c0.9,0.7,1.8,1.4,2.7,2.1
		c1.3-1.4,2.7-2.8,4-4.3c0-1,0-1.9,0-2.9c-1.2,1.3-2.4,2.5-3.6,3.8c0-2.9,0-5.7,0-8.6c0.6-0.9,0.9-1.5,1.2-2.1
		c0.6,0.9,2.5,3.8,4.6,5.4c0.4-1.5,2.8-3.3,2.8-3.3c0,0,0.8,2.2,2.1,2.6c0.5-0.8,3.2-3,3.2-3c0,0-2.3,0.7-3.2,1.7
		c-0.8-0.1-1-3.2-1-3.2c0,0-3.4,2.1-4,3.4c-0.7-0.1-1.6-2.5-2.1-3.5c0.6-0.1,1.5-0.3,2.5-0.5c1-0.1,2.3,0.2,3.6,0.6
		c1.5,0.5,3,1.1,4.3,1.6c1.8,0.5,4.4,0.4,5.1,0.3c-0.9,0.7-1.8,1.4-2.8,2.1c0,0,4.1-0.6,7-2.5c1.1-0.8,2.1-1.6,3-2.5
		c-0.4,1.2-1,2.6-1.9,3.8c4.2-0.9,6.4-3.7,6.9-4.6c0.3,0.7,0.8,1.8,1.6,2.7c0.8-1.2,1.3-2.4,1.6-3.2c0.6,0.8,2.7,2.9,7,2.6
		c-1-1-1.6-2.2-2-3.2c0.9,0.7,2,1.2,3,1.7c2.9,1,7,0.5,7,0.5c-1-0.4-2-0.8-2.9-1.3c0.7-0.1,3.4-0.6,5.1-1.7c1.3-0.8,2.9-1.9,4.4-2.7
		c1.3-0.8,2.5-1.4,3.5-1.6c1.1-0.1,2-0.2,2.5-0.2c-0.4,1.1-1.4,3.8-2.1,4.1c-0.6-1.1-4-2.3-4-2.3s-0.3,3.2-1.1,3.5
		c-0.9-0.8-3.3-0.8-3.3-0.8c0,0,2.7,1.4,3.2,2.1c1.3-0.7,2.1-3.2,2.1-3.2c0,0,2.4,1.1,2.7,2.5c2.2-2.2,4.1-5.5,4.7-6.6
		c0.3,0.5,0.6,1,1.1,1.8c0,2.9,0,5.7,0,8.6c-1.2-0.9-2.4-1.9-3.6-2.8c0,1,0,1.9,0,2.9c1.3,1.1,2.7,2.1,4,3.2
		c0.9-0.9,1.8-1.9,2.6-2.8c0,20.3,0,40.6,0,60.9c-3.3-2.5-6.3-16.2-6.3-16.2c-0.1,1.2-0.2,2.5-0.2,3.7c0,0,4.2,16.7,7.6,19.2
		c0,0,0.1-0.9,0.1-1.2c1.2,2.2,3.9,6.3,7.7,7.5c0-0.4,0-0.8,0-1.1c1,2.2,5.5,7.9,8,8.6c0,0-0.9-1.9-0.9-3.3c-0.2-24.8,0-96.2,0-96.2
		c0-3.3-5.2-9.9-12-13.4c-4.6,3.3-9.7,10.1-11.5,10.8c0,1.7,0.7,3.2,0.7,4.9c0,1.1,0,2.2,0,3.3c-4.3,0.8-6.1,3-9.8,5.5
		c-2.1,1.4-5,2.8-5.6,3c-1.3-0.8-2.5-1.7-3.3-2.9c-2-2.9-2.8-6.6-2.8-10.5c0-1.7,1.9-3.8,1.9-5.1c0-2-0.2-3.2-0.2-3.2
		c0.7,0,1.8,1,1.8,1c0,0-0.1-3.4-1.1-3.8c0,0,0.4-0.5,2-0.8c-0.5-1-2.6-2.1-2.6-2.1c0.1-0.2,0.3-0.4,0.6-0.6
		c0.5-0.4,1.3-0.7,1.9-0.9c-0.6,0-1.4-0.1-2.2-0.2c-1.8-0.3-3.9-0.9-5.8-1.6C239,89.1,236.2,89.4,234.7,89.6 M234.7,90.6
		c0.4,0,0.7-0.1,0.9-0.1c3.6-0.5,6,0.8,9.3,1.8c0.9,0.3,1.6,0.5,2.4,0.6c-0.4,0.5-0.8,0.9-0.9,1.2c0,0,1.5,0.1,2.2,1.2
		c0,0-1.4,0.4-1.7,1.2c0.8,0,1.6,0.8,1.6,1.8c-0.7-0.1-1.4-0.3-2-0.4c0,0,0.5,2.2,0.5,4.7c0,1.3-1.8,3-1.8,5.1c0,6.7,1.7,9,2.8,10.9
		c0.5,0.7,0.9,1.6,1.7,2.2c-3.4-1.4-6-3.3-6-5.4c0-2.7,0-5.4,0-8.1c-0.3,0-0.6,0.1-0.9,0.1c0,2.7,0,5.4,0,8.1c0,1.5,0.4,2.2,0.4,2.2
		c0.5,1.6,1.6,4.1,2.3,5.1c-3.2-1.3-4.8-3.2-4.8-4c0-3.7,0-7.4,0-11.1c-0.3,0-0.6,0.1-0.9,0.1c0,3.7,0,7.5,0,11.2
		c0,0.3,0.1,0.5,0.1,0.8c-0.3,0.6-0.9,1.4-1.2,1.7c-0.3-0.2-0.8-0.8-1.2-1.3c0.1-0.3,0.2-0.5,0.2-0.8c0-3.7,0-7.5,0-11.2
		c-0.3,0-0.6,0.1-1,0.1c0,3.7,0,7.4,0,11.1c0,0.8-1.5,3.1-4.8,5.3c0.7-1.2,1.8-4,2.3-5.7c0,0,0.4-0.8,0.4-2.3c0-2.7,0-5.4,0-8.1
		c-0.3,0-0.6,0.1-0.9,0.1c0,2.7,0,5.4,0,8.1c0,2.1-2.6,4.8-6,7.1c0.7-0.8,1.1-1.8,1.6-2.7c1.3-2.4,2.9-5.5,2.9-13.7
		c0-3-0.5-5.1-1.3-6.4c-0.2-0.4-0.6-1.6,1.3-1.9c1-0.1,3.2,1.2,3.2,1.2c0,0-0.1-1.3-1.2-1.9c-0.2-0.1-0.5-0.4-0.5-0.8
		c0-0.3,0.5-1,0.9-1.2c0.2-0.2-3.8-0.3-3.8-2.1c0-0.4,0.3-0.7,1.1-0.8c1.1-0.2,2.9,0.9,4.5,0.7c1.1-0.2,1.6-0.5,2.8-0.7
		c1.5-0.2,4.5,2.1,5.5,1.9c-1.1-0.6-3-3.1-5.8-2.7c-1,0.1-1.9,0.5-2.8,0.6c-1.1,0.2-2.3-0.8-3.6-0.6c-0.8,0.1-1.8,0.3-1.9,0.1
		c-0.3-0.4,0-0.7,0.2-1c0.4-0.7,1.6-1,2.8-1.2C234.1,90.7,234.4,90.6,234.7,90.6 M199.1,107.5L199.1,107.5c0,0,6.3,5,8.5,5.4
		c0,0.7,0,1.3,0.1,2c0,1.9,0,3.8,0,5.7c-1.5-0.3-3.5-2.6-4.4-3.8c0-0.3,0-0.5,0-0.8c0-0.7,0.5-1.3,0.8-1.7c-0.3-0.1-0.6-0.1-0.9-0.2
		c-0.4,0.5-0.7,1.1-0.7,1.8c0,0.2,0,0.3,0,0.5c-0.1,0.1-0.2,0.2-0.3,0.3c-0.1,0.1-0.1,0.1-0.2,0.2c-0.8,0.9-1.5,1.9-2.3,2.8
		c-0.9-1.3-1.8-2.5-2.7-3.8c0-0.3,0-0.7,0-1c0-0.7,0.5-1.5,1-2.1c-0.3-0.1-0.6-0.1-0.9-0.2c-0.4,0.7-0.9,1.5-0.9,2.3
		c0,0.3,0,0.5,0,0.8c-0.7,0.8-3.1,3.6-3.1,3.6c0,0-1.2-2.5-1.6-3.2C193.1,113.3,196.2,110,199.1,107.5 M278.6,96.7
		c2.9,1.7,5.9,4.3,7.9,6.7c-0.4,0.8-1.6,3.6-1.6,3.6c0,0-2.5-2.2-3.2-2.8c0-0.3,0-0.5,0-0.8c0-0.8-0.5-1.5-0.9-2
		c-0.3,0.1-0.6,0.3-0.9,0.4c0.4,0.5,0.9,1.2,0.9,1.9c0,0.3,0,0.7,0,1c-0.9,1.5-1.8,3-2.7,4.5c-0.8-0.7-1.6-1.5-2.3-2.2
		c0,0-0.1-0.1-0.1-0.1c-0.1-0.1-0.2-0.2-0.3-0.3c0-0.2,0-0.3,0-0.5c0-0.8-0.4-1.3-0.8-1.6c-0.3,0.2-0.6,0.3-0.9,0.5
		c0.4,0.2,0.8,0.7,0.8,1.4c0,0.3,0,0.5,0,0.8c-0.9,1.5-2.9,4.3-4.5,5c0-1.9,0-3.8,0-5.7c0-0.7,0.1-1.3,0.1-2
		C272.2,103.3,278.6,96.7,278.6,96.7L278.6,96.7z M190.1,118.1c0.5,0.8,1,1.6,1.5,2.4c0,1.6,0,3.2,0,4.7c-0.7,0.8-1.5,1.5-2.2,2.3
		c0-2.3,0-4.7,0-7C189.3,119.9,189.6,119,190.1,118.1 M287.5,105c0.5,0.8,0.8,1.6,0.8,2.3c0,2.3,0,4.7,0,7c-0.7-0.6-1.5-1.2-2.2-1.8
		c0-1.6,0-3.2,0-4.7C286.6,106.9,287.1,105.9,287.5,105z M195.9,118c0.8,1.2,1.7,2.3,2.5,3.5c0,1,0,2,0,2.9
		c-0.8,0.9-1.7,1.8-2.5,2.7C195.9,124.1,195.9,121,195.9,118z M281.8,106.4c0,3,0,6.1,0,9.1c-0.8-0.7-1.7-1.4-2.5-2c0-1,0-2,0-2.9
		C280.1,109.1,281,107.7,281.8,106.4z M195,118.8c0,2.8,0,5.6,0,8.4c-0.8-0.7-1.7-1.3-2.5-2c0-1.2,0-2.3,0-3.5
		C193.3,120.8,194.2,119.8,195,118.8z M282.7,106.9c0.8,0.8,1.7,1.6,2.5,2.3c0,1.2,0,2.3,0,3.5c-0.8,0.9-1.7,1.8-2.5,2.7
		C282.7,112.5,282.7,109.7,282.7,106.9z M202.7,118.4c0.4,0.6,2.2,3.2,3.8,3.8c-0.6,0.9-2.1,3.1-3.8,4.2
		C202.7,123.8,202.7,121.1,202.7,118.4z M274.9,108.5c0,2.7,0,5.4,0,8c-1.7-0.7-3.2-2.5-3.8-3.2
		C272.8,112.3,274.6,109.2,274.9,108.5 M201.8,118.9c0,2.5,0,4.9,0,7.4c-0.8-0.7-1.7-1.3-2.5-2c0-0.9,0-1.8,0-2.6
		C200.1,120.8,201,119.9,201.8,118.9z M275.8,108.8c0.8,0.7,1.7,1.4,2.5,2.1c0,0.9,0,1.8,0,2.6c-0.8,0.9-1.7,1.8-2.5,2.7
		C275.8,113.8,275.8,111.3,275.8,108.8z M191.6,128.1c0,2.5,0,4.9,0,7.4c-0.7-0.6-1.5-1.2-2.2-1.8c0-1.1,0-2.2,0-3.3
		C190.1,129.7,190.8,128.9,191.6,128.1z M286.1,115.4c0.7,0.6,1.5,1.2,2.2,1.8c0,1.1,0,2.2,0,3.3c-0.7,0.8-1.5,1.5-2.2,2.3
		C286.1,120.3,286.1,117.9,286.1,115.4z M192.5,128.1c0.5,0.4,1,0.8,1.5,1.2c0.4,0.3,0.7,0.6,1.1,0.9c0,0.9,0,1.8,0,2.6
		c-0.4,0.4-0.7,0.8-1.1,1.2c-0.5,0.5-1,1-1.5,1.5C192.5,132.9,192.5,130.5,192.5,128.1z M198.4,127.3c0,2.4,0,4.9,0,7.3
		c-0.5-0.4-0.9-0.8-1.4-1.1c-0.4-0.3-0.7-0.6-1.1-0.9c0-0.9,0-1.7,0-2.6c0.4-0.4,0.7-0.8,1.1-1.2
		C197.4,128.3,197.9,127.8,198.4,127.3z M199.3,127.2c0.8,0.7,1.7,1.4,2.5,2c0,0.9,0,1.7,0,2.6c-0.4,0.4-0.7,0.8-1.1,1.2
		c-0.5,0.5-1,1-1.5,1.5C199.3,132.1,199.3,129.6,199.3,127.2z M205.3,126.4c0,2.5,0,4.9,0,7.4c-0.5-0.4-1-0.8-1.5-1.1
		c-0.4-0.3-0.7-0.6-1.1-0.9c0-0.8,0-1.6,0-2.5C203.6,128.6,204.5,127.6,205.3,126.4 M272.4,117.2c0.8,0.9,1.6,1.8,2.5,2.2
		c0,0.8,0,1.6,0,2.5c-0.4,0.4-0.7,0.8-1.1,1.2c-0.5,0.5-1,1-1.4,1.5C272.4,122.1,272.4,119.7,272.4,117.2L272.4,117.2z M278.3,116.4
		c0,2.4,0,4.9,0,7.3c-0.5-0.4-0.9-0.7-1.4-1.1c-0.4-0.3-0.8-0.6-1.1-0.9c0-0.9,0-1.7,0-2.6C276.7,118.2,277.5,117.3,278.3,116.4z
		 M279.3,116.3c0.5,0.4,1,0.8,1.5,1.2c0.4,0.3,0.7,0.6,1.1,0.9c0,0.9,0,1.7,0,2.6c-0.4,0.4-0.7,0.8-1.1,1.2c-0.5,0.5-1,1-1.5,1.5
		C279.3,121.2,279.3,118.8,279.3,116.3z M285.2,115.6c0,2.4,0,4.9,0,7.3c-0.5-0.4-1-0.8-1.4-1.1c-0.4-0.3-0.7-0.6-1.1-0.9
		c0-0.9,0-1.8,0-2.6c0.4-0.4,0.7-0.8,1.1-1.2C284.2,116.6,284.7,116.1,285.2,115.6z M196.2,135.7c0.9,0.7,1.8,1.4,2.6,2.2
		c0.9-0.9,1.8-1.9,2.7-2.8c0,20.3,0,40.6,0,60.9c0,0,0.2,3,0.3,5c-1.2,1.4-5.6,6.4-5.6,6.4C196.2,183.5,196.2,159.6,196.2,135.7z
		 M281.5,124.2c0,23.9,0,47.8,0,71.7c0,0-4.5-4-5.7-5c0.2-2,0.4-5,0.4-5c0-20.3,0-40.6,0-60.9c0.9,0.7,1.8,1.4,2.7,2.1
		C279.7,126.1,280.6,125.1,281.5,124.2z M194.7,135.9c0,23.1,0,46.3,0,69.4c0,2-3.6,7-5.3,8.2c0-25.6,0-51.3,0-76.9
		c0.9,0.7,1.8,1.4,2.7,2.1C192.9,137.8,193.8,136.9,194.7,135.9z M283,124c0.9,0.7,1.8,1.4,2.7,2.2c0.9-0.9,1.8-1.9,2.7-2.8
		c0,25.6,0,51.3,0,76.9c-1.7-0.8-5.3-4.9-5.3-6.9C283,170.2,283,147.1,283,124z M216.7,187.5c0,0-2.6,5.6-3.6,6.6c0,0,0.6,0,1.4-0.1
		c-0.4,0.7-4,6.3-5.1,8.4c-1.1,1.9-1.8,1.2-3.4,1.4c-1.3,0.2-4.4,2.7-4.9,3.6c-0.5,1-0.9,2.1-0.9,3c0,1,1,2.2,1,2.2
		c0.1-0.5,0.3-0.7,0.3-0.7s2.8,3.1,3.2,3.5c0.3,0.3,1.8,0.3,2.3-0.2c1.3-1.3,2.5-2.3,3.5-4c0.6-0.9,0.6-1.9,1.3-2.9
		c2.2-3.3,6.5-9.7,7.6-11.2c0.1,0.4,0.1,0.7,0.1,1.1c1.1-2.4,6.6-7.6,6.6-7.6c-0.5-0.3-1-0.5-1.5-0.8c0,0-3.3,4.3-4.4,5.1
		c0,0-0.4-1.8-0.7-2.5c0,0-1.2,1.1-1.9,1.2c0,0-0.2-1.3-0.4-2.1c-0.8,0.7-2.2,0.8-2.2,0.8c1.2-0.8,2.7-4.7,2.7-4.7
		C217.4,187.8,217,187.7,216.7,187.5L216.7,187.5z M261,181.4c-0.3,0.2-0.7,0.4-1,0.7c0,0,1.5,3.5,2.8,3.9c0,0-1.4,0.3-2.3-0.1
		c-0.2,0.9-0.4,2.2-0.4,2.2c-0.7,0.1-2-0.7-2-0.7c-0.2,0.7-0.7,2.7-0.7,2.7c-1.1-0.6-4.4-3.9-4.4-3.9c-0.5,0.4-1,0.8-1.5,1.2
		c0,0,5.5,3.6,6.6,5.8c0.1-0.4,0.1-0.7,0.2-1.1c1,1.2,5.3,6.4,7.6,9.1c0.6,0.8,0.7,1.8,1.3,2.5c1.1,1.5,2.3,2.1,3.6,3.1
		c0.5,0.4,1.9,0,2.2-0.4c0.4-0.5,3.2-4.3,3.2-4.3c0,0,0.2,0.1,0.3,0.6c0,0,1-1.5,1-2.5c0-0.9-0.4-2-1-2.8c-0.4-0.8-3.5-2.5-4.8-2.3
		c-1.6,0.2-2.3,1.1-3.4-0.5c-1.1-1.8-4.7-6.4-5.1-7c0.7-0.1,1.4-0.3,1.4-0.3C263.6,186.3,261,181.4,261,181.4 M216.3,193.5
		c0,0,0,1.8,0.5,2.3c0.7-0.5,1.3-1.1,2-1.6c0,0,0.1,0.6,0.3,1.5c-0.9,1.3-5.7,8.5-8,11.9c-0.6,0.9-1.1,3-1.1,3c0,0-0.8-0.3-0.8-1
		c0-0.7,0.1-1.6,0.1-1.6c0,0-0.6,0.8-1.8,1c0-0.9,1.8-2.1,1.8-3.3c-1.3,1.1-2.4,0.8-3.9,1.4c-1.6,0.7-2.1,1.5-2.6,1.5
		c-0.2,0-0.6-0.5-0.4-0.8c0.2-0.6,2.2-2.4,3.7-2.8c0.4-0.1,3,0.2,3.6-0.7c2.2-3.8,5.8-9.8,6.2-10.4
		C215.9,193.7,216.1,193.6,216.3,193.5 M261.4,187.2c0.1,0.1,0.3,0.1,0.6,0.1c0.4,0.5,4,5.6,6.2,8.8c0.6,0.8,3.3-0.2,3.6-0.2
		c1.4,0.1,3.5,1.3,3.7,1.8c0.1,0.3-0.1,0.8-0.4,0.9c-0.5,0.1-1-0.5-2.6-0.9c-1.6-0.3-2.7,0.4-4-0.4c0.1,1.3,1.8,2,1.8,2.9
		c-1.1,0.1-1.8-0.5-1.8-0.5c0,0,0.1,0.9,0.1,1.6c0,0.8-0.8,1.3-0.8,1.3c0,0-0.5-1.9-1.1-2.7c-2.4-2.9-7.2-8.7-8.1-9.8
		c0.2-0.9,0.4-1.6,0.4-1.6c0.6,0.4,1.3,0.7,1.9,1.1C261.4,189,261.4,187.2,261.4,187.2 M231.8,192.6c0,0-10.6,25.9-20.1,31
		c0,0,4.1,1.2,9.1,3.1c0.8,0.2,1.5,0.6,2.3,0.9c0.6-0.8,1.3-1.8,2-2.8c3-4.5,5.9-9.5,5.9-9.5c0.2,1.2-1.4,5.2-4.1,10.2
		c-0.5,1-1.1,2-1.7,3.1c0.7,0.3,1.4,0.6,2,0.9c5,2.3,9.7,5.1,11.4,8c1.8-3.4,6.5-7.6,11.4-11.2c0.7-0.5,1.4-1,2.1-1.5
		c-0.7-0.9-1.2-1.8-1.7-2.6c-2.7-4.2-4.3-7.8-4.1-9c0,0,3,4.3,6,7.9c0.7,0.8,1.3,1.6,2,2.2c0.8-0.5,1.5-1.1,2.2-1.5
		c5.1-3.3,9.2-5.6,9.2-5.6c-9.4-2.5-20.1-25.4-20.1-25.4c-0.5,0.2-1,0.4-1.5,0.7c0,0,8.5,19.9,16.7,25.2c-1.8,0.8-4.1,1.9-6.4,3.2
		c-2.7-2.9-5.6-6.8-8-10.4c-2.5-3.9-4.5-11-4.5-11c-1.2,3,1.3,16.9,6.3,25.2c-4.1,2.7-7.9,5.6-9.6,7.7c-1.8-1.7-5.4-3.5-9.6-5.1
		c5-9.7,7.5-24.3,6.3-27c0,0-2,7.7-4.6,12.2c-2.3,4.2-5.2,9-7.9,12.6c-2.3-0.7-4.5-1.2-6.4-1.5c8.3-7.5,16.8-29.8,16.8-29.8
		C232.9,192.8,232.4,192.7,231.8,192.6z M204.1,208.1c0,0,0.1,0,0.2,0.1c0.1,0.1,0.1,0.3,0,0.4c-0.3,0.3-0.6,0.6-0.9,0.9
		c-0.1,0.1-0.3,0.1-0.4,0c-0.2-0.1-0.1-0.3,0-0.4c0.3-0.3,0.6-0.6,0.9-0.9C204,208.2,204,208.1,204.1,208.1 M273.6,198.6
		c0.1,0,0.1,0,0.2,0c0.3,0.2,0.6,0.4,0.9,0.7c0.1,0.1,0.2,0.3,0,0.4c-0.1,0.1-0.2,0.2-0.3,0.1c-0.3-0.2-0.6-0.4-0.9-0.7
		c-0.2,0-0.2-0.3-0.1-0.4C273.4,198.7,273.5,198.6,273.6,198.6 M205,208.8c0.2,0,0.4,0,0.6,0.2c0.3,0.3,0.2,0.7-0.1,1
		c-0.7,0.7-1.4,1.4-2.1,2.1c-0.2,0.3-0.7,0.3-1,0c-0.2-0.3-0.2-0.7,0-1c0.7-0.7,1.5-1.4,2.2-2.1C204.7,208.9,204.9,208.8,205,208.8
		 M272.5,199.5c0.1,0,0.1,0,0.2,0c0.2,0,0.3,0,0.4,0.1c0.7,0.5,1.4,1,2.1,1.6c0.3,0.2,0.3,0.6,0,1c-0.2,0.4-0.7,0.4-1,0.2
		c-0.7-0.5-1.4-1-2.1-1.6c-0.3-0.2-0.3-0.6,0-1C272.2,199.7,272.3,199.6,272.5,199.5 M206.2,210.1c0.2-0.1,0.5,0,0.7,0.2
		c0.2,0.3,0.2,0.7-0.1,1c-0.7,0.7-1.5,1.4-2.2,2.2c-0.2,0.3-0.7,0.3-0.9,0c-0.3-0.3-0.3-0.7,0-1c0.7-0.7,1.4-1.4,2.1-2.1
		C205.9,210.2,206.1,210.1,206.2,210.1 M271.3,201.2c0.1,0,0.1-0.1,0.1,0c0.1,0,0.3,0,0.4,0.1c0.7,0.5,1.4,1.1,2.1,1.6
		c0.3,0.2,0.3,0.6,0.1,1c-0.2,0.3-0.7,0.5-1,0.2c-0.7-0.5-1.4-1.1-2.1-1.6c-0.3-0.2-0.3-0.6-0.1-1
		C270.9,201.3,271.1,201.2,271.3,201.2 M207.5,211.3c0.2-0.1,0.5,0,0.7,0.1c0.2,0.3,0.2,0.8-0.1,1c-0.7,0.7-1.5,1.4-2.2,2.2
		c-0.2,0.3-0.7,0.3-0.9,0c-0.3-0.3-0.3-0.7,0-1c0.7-0.7,1.5-1.4,2.2-2.2C207.3,211.4,207.4,211.4,207.5,211.3 M269.9,202.8
		c0,0,0.1,0,0.2,0c0.1,0,0.2,0,0.3,0.1c0.7,0.5,1.5,1.1,2.2,1.6c0.3,0.2,0.3,0.6,0,1c-0.3,0.4-0.7,0.5-0.9,0.2
		c-0.7-0.5-1.5-1-2.2-1.6c-0.2-0.2-0.2-0.7,0-1C269.6,202.9,269.8,202.8,269.9,202.8"/>
	<path fill="#010101" d="M209.7,212.2c1.7,0.7,3.3,1.4,5,2c-0.4,1.9-0.8,3.8-1.2,5.7c-1.7-0.7-3.3-1.4-5-2
		C208.9,216,209.3,214.1,209.7,212.2z"/>
	<path fill="#010101" d="M186.6,162c-0.6,0.3-1.2,0.7-1.8,1c6.7,14,13.5,27.9,20.2,41.8c0.7-0.1,1.5-0.2,2.2-0.3
		C200.3,190.4,193.5,176.3,186.6,162z M210.4,211.3c-0.5,0.6-1,1.1-1.4,1.7c0.3,0.6,0.6,1.3,0.9,1.9c0.6-0.4,1.2-0.7,1.8-1.1
		C211.3,213,210.9,212.1,210.4,211.3z"/>
	<path fill="#F2EA39" d="M210.4,213.6c1,0.4,2,0.8,3,1.3c-0.2,1.2-0.5,2.4-0.7,3.6c-1-0.4-2.1-0.9-3.1-1.3
		C209.9,216,210.2,214.8,210.4,213.6z"/>
	<path fill="#010101" d="M192.9,196.2c0,0,1.7,3.3,3,3.6c-0.7-0.1-2.8,1-2.8,1c0,0,3.8,3,7.1,2.8c2.7-0.2,4.1-1.7,4.1-1.7
		c-0.2-1-0.3-1.9-0.5-2.9c0,0-1.7-1.8-4.4-2.4C196.5,196,192.9,196.2,192.9,196.2"/>
	<path fill="#010101" d="M205.7,188.3c0,0-2.3,2.3-3,4.7c-0.7,2.4,0.4,5,0.4,5c0.7,1.1,1.3,2.3,2,3.4c0,0,2.7-1.8,3.9-4.1
		c1.2-2.3,0.7-5.2,0.7-5.2c0,0-2.2,1.1-2.5,1.5C207.7,191,205.7,188.3,205.7,188.3"/>
	<path fill="#010101" d="M198.1,188.3c0,0-2.7,1.3-5.2,1.4c-2.5,0.2-4.5-1.7-4.5-1.7c0,0,2-1.6,3.1-1.6c-1.1-0.3-2.8-2.9-2.8-2.9
		c0,0,2.3-1,4.3-0.5c2.1,0.5,3.8,2.5,3.8,2.5C197.2,186.6,197.7,187.4,198.1,188.3z"/>
	<path fill="#010101" d="M199,175.1c0,0,1.4,2.6,1.1,3.6c0.4-0.7,2-1.9,2-1.9c0,0,1,4.4,0.1,7.2c-1,2.9-3.7,4.3-3.7,4.3
		c-1-1.8-2-3.7-3-5.5c0,0-0.5-2.2,0.5-4C196.8,177,199,175.1,199,175.1L199,175.1z"/>
	<path fill="#010101" d="M181.6,169.9c0,0,2.9-0.7,5.5,0.1c2.2,0.7,2.9,2.2,2.9,2.2c0.4,0.9,0.7,1.9,1.1,2.8c0,0-3.1,1.5-5.6,0.9
		c-2.4-0.6-4.2-3.4-4.2-3.4c0,0,1.7-0.8,2.4-0.7C182.6,171.7,181.6,169.9,181.6,169.9"/>
	<path fill="#010101" d="M190.7,163.4c0,0,1.3,1.5,1.4,3.3c0.3-1.1,1.8-2.3,1.8-2.3c0,0,1.7,3.7,1.3,6.6c-0.4,2.8-2.7,4.8-2.7,4.8
		c-1-1.7-2-3.5-3-5.2c0,0-0.9-2.2-0.7-4C189.2,164.8,190.7,163.4,190.7,163.4"/>
	<path fill="#010101" d="M180.7,154c0,0-0.5,3.1,0.4,4.7c0.8,1.4,1.3,1.8,1.3,1.8c-1.5-0.8-3.8-0.7-3.8-0.7c0,0,0.8,3.2,2.8,4.5
		c1.9,1.3,5,0.6,5,0.6c0,0,2-2.9,1.9-5.7c-0.1-2.8-2.4-5.6-2.4-5.6c0,0-0.9,2-0.9,3.3C184.2,155.5,180.7,154,180.7,154z"/>
	<path fill="#2A6139" d="M181.6,155.7c0,0-0.1,2.2,0.6,3.4c0.8,1.2,2.4,1.5,2.4,1.5c0,0,0.1-2.2-0.7-3.4
		C183.3,156,181.6,155.7,181.6,155.7"/>
	<path fill="#2A6139" d="M180.1,160.9c0,0,1.9-0.1,3,0.6c1.1,0.7,1.6,2.4,1.6,2.4c0,0-1.3,0.3-2.4-0.5
		C181.1,162.8,180.1,160.9,180.1,160.9"/>
	<path fill="#2A6139" d="M186.1,155.7c0,0-0.7,1.6-0.6,3.1c0.1,1.6,1,3.2,1,3.2c0,0,0.8-2,0.8-3.5
		C187.2,156.9,186.3,156.1,186.1,155.7"/>
	<path fill="#2A6139" d="M182.9,170.3c0,0,0.9,1.2,2.4,1.7c1.5,0.6,3.6,0.3,3.6,0.4c0,0-1.1-1.3-2.5-1.8
		C184.9,170,182.9,170.3,182.9,170.3"/>
	<path fill="#2A6139" d="M183.3,173.4c0,0,0.7,1.3,2,1.7c1.3,0.4,3.9,0.1,3.9,0.1c0,0-0.9-1.1-2.2-1.6
		C185.7,173.1,183.3,173.4,183.3,173.4"/>
	<path fill="#2A6139" d="M190.6,165.2c0,0-0.7,1.4-0.7,2.7c0,1.4,1,2.8,1,2.8c0,0,0.6-1.8,0.6-3.2
		C191.5,166.2,190.6,165.2,190.6,165.2"/>
	<path fill="#2A6139" d="M193.4,166.7c0,0-1.3,1.9-1.5,3.7c-0.2,1.8,0.8,3.6,0.8,3.6c0,0,1.6-1.8,1.8-3.6
		C194.7,168.6,193.4,166.7,193.4,166.7"/>
	<path fill="#2A6139" d="M189.9,183.8c0,0,0.1,0.6,0.7,1.2c0.6,0.6,1.5,1.2,1.5,1.2c0,0,0.9-0.4,2-0.3c1.2,0.1,2.7,0.9,2.7,0.9
		c0,0-1.6-2.2-3.3-2.9C191.7,183.3,189.9,183.8,189.9,183.8"/>
	<path fill="#2A6139" d="M189.7,188c0,0,2.1-1.1,3.8-1.2c1.7,0,3.3,1.2,3.3,1.2c0,0-2.3,1.1-4,1.1C191,189.1,189.7,188,189.7,188"/>
	<path fill="#2A6139" d="M198.5,177.2c0,0-1.8,2.2-2,3.9c-0.1,1.7,1.5,3.1,1.5,3.1c0,0,0-1.1,0.3-1.8c0.2-0.8,0.9-1.6,0.9-1.6
		c0,0,0.3-0.9,0.2-1.6C199.1,178.2,198.5,177.2,198.5,177.2"/>
	<path fill="#2A6139" d="M201.1,179.1c0,0-1.7,2-2.2,3.9c-0.5,1.9,0.4,3.8,0.4,3.8c0,0,1.6-1.5,2-3.4
		C201.8,181.5,201.1,179.1,201.1,179.1"/>
	<path fill="#2A6139" d="M205.5,189.9c0,0,0.8,1.5,1,2.9c0.1,1.3,0,1.8,0,1.8c0,0-0.8,0.9-1.2,1.4c-0.5,0.7-0.5,1.8-0.5,1.8
		c0,0-1.7-2.2-1.4-4C203.7,192,205.5,189.9,205.5,189.9"/>
	<path fill="#2A6139" d="M208.9,193.2c0,0-2,1.6-2.9,3.2c-0.8,1.5-0.4,2.9-0.4,2.9c0,0,1.5-0.3,2.3-1.8
		C208.8,195.9,208.9,193.2,208.9,193.2"/>
	<path fill="#2A6139" d="M195.2,200.8c0,0,3-0.5,4.8-0.2c1.8,0.2,2.5,1.1,2.5,1.1c0,0-2.1,1.3-3.9,1
		C196.8,202.5,195.2,200.8,195.2,200.8"/>
	<path fill="#2A6139" d="M194.7,197.3c0,0,1.4,1.9,3.1,2.5c2.4,0.7,5.2-0.1,5.2-0.1c0,0-1.5-1.6-3.6-2.2
		C197.3,196.9,194.7,197.3,194.7,197.3"/>
	<path fill="#010101" d="M204.4,201.7c0,0.4,0,0.7,0,1.1c1.8-0.2,2.1-0.5,2.5,0.1c0.3,0.3,1.1,0.6,1.8,0.1c0.7-0.4,1-1.3,0.7-2
		c-0.3-0.7-1-0.8-1.7-0.6c-0.4,0.1-0.7,0.5-1,0.7C206.1,201.5,204.4,201.7,204.4,201.7"/>
	<path fill="#F2EA39" d="M208.8,201.3C208.8,201.3,208.9,201.3,208.8,201.3c0.2,0.4,0.1,0.9-0.4,1.1c-0.4,0.3-0.9,0.1-1.1-0.2
		c0,0,0,0,0,0c-0.1-0.4,0-0.9,0.4-1.1C208.2,200.8,208.7,200.9,208.8,201.3L208.8,201.3z"/>
	<path fill="#010101" d="M204.2,200.9c0.3,0.2,0.6,0.3,0.9,0.5c-1,1.7-1.2,1.8-1,2.5c0.1,0.4,0,1.3-0.7,1.8c-0.7,0.5-1.6,0.5-2-0.2
		c-0.5-0.6-0.3-1.3,0.2-1.8c0.3-0.4,0.7-0.4,1-0.7C203.3,202.6,204.2,200.9,204.2,200.9"/>
	<path fill="#F2EA39" d="M201.9,205.2L201.9,205.2c0.3,0.3,0.8,0.3,1.1,0.1c0.4-0.3,0.5-0.8,0.2-1.2l0,0l0,0
		c-0.2-0.3-0.7-0.4-1.1-0.1C201.8,204.3,201.7,204.8,201.9,205.2L201.9,205.2z"/>
	<path fill="#010101" d="M198.1,188.8c0,0.4,0,0.7,0.1,1.1c1.8-0.2,2.1-0.5,2.5,0.1c0.3,0.3,1,0.6,1.8,0.1c0.8-0.4,1.1-1.4,0.7-2.1
		c-0.3-0.7-1-0.8-1.7-0.6c-0.4,0.1-0.7,0.5-1,0.7C199.9,188.7,198.1,188.8,198.1,188.8"/>
	<path fill="#F2EA39" d="M202.5,188.4L202.5,188.4c0.2,0.4,0,0.9-0.3,1.1c-0.4,0.2-0.9,0.1-1.1-0.2l0,0l0,0c-0.2-0.4,0-0.9,0.4-1.1
		C201.9,187.9,202.4,188,202.5,188.4L202.5,188.4z"/>
	<path fill="#010101" d="M198.5,189.1c0.3,0.2,0.5,0.4,0.8,0.7c-1.2,1.5-1.5,1.7-1.3,2.4c0,0.5-0.2,1.3-1,1.7
		c-0.7,0.4-1.6,0.2-1.9-0.5c-0.4-0.7-0.1-1.4,0.5-1.8c0.3-0.3,0.7-0.4,1.1-0.6C197.4,190.6,198.5,189.1,198.5,189.1"/>
	<path fill="#F2EA39" d="M195.7,193L195.7,193c0.1,0.4,0.6,0.5,1,0.3c0.4-0.2,0.6-0.7,0.4-1.1l0,0l0,0c-0.2-0.4-0.7-0.5-1.1-0.3
		C195.7,192.2,195.4,192.7,195.7,193C195.7,193,195.7,193,195.7,193L195.7,193z"/>
	<path fill="#010101" d="M192,176.7c0,0.4,0,0.7,0.1,1.1c1.8-0.2,2.1-0.4,2.5,0.1c0.3,0.4,1.1,0.6,1.8,0.2c0.8-0.5,1.1-1.4,0.8-2.1
		c-0.4-0.7-1.1-0.7-1.7-0.5c-0.4,0.1-0.7,0.5-1,0.7C193.8,176.6,192,176.7,192,176.7"/>
	<path fill="#F2EA39" d="M196.5,176.4L196.5,176.4c0.2,0.4,0.1,0.8-0.4,1.1c-0.4,0.2-0.9,0.1-1.1-0.3l0,0l0,0
		c-0.2-0.3,0-0.9,0.4-1.1C195.9,175.9,196.3,176,196.5,176.4C196.5,176.3,196.5,176.4,196.5,176.4L196.5,176.4z"/>
	<path fill="#010101" d="M192.5,176.4c0.3,0.2,0.5,0.5,0.8,0.7c-1.1,1.5-1.5,1.6-1.3,2.3c0.1,0.4-0.2,1.3-0.9,1.7
		c-0.7,0.4-1.6,0.2-2-0.5c-0.4-0.7,0-1.3,0.5-1.8c0.4-0.3,0.8-0.3,1.1-0.5C191.4,177.9,192.5,176.4,192.5,176.4"/>
	<path fill="#F2EA39" d="M189.7,180.3L189.7,180.3c0.2,0.4,0.7,0.5,1.1,0.2c0.4-0.2,0.6-0.7,0.4-1.1l0,0c-0.1-0.4-0.6-0.5-1-0.3
		C189.7,179.4,189.6,179.9,189.7,180.3L189.7,180.3L189.7,180.3z"/>
	<path fill="#010101" d="M185.6,163.9c0,0.4,0.1,0.7,0.1,1.1c1.8-0.2,2.1-0.4,2.5,0.1c0.3,0.3,1,0.6,1.8,0.2c0.7-0.4,1-1.3,0.7-2
		c-0.4-0.7-1.1-0.8-1.7-0.6c-0.4,0.1-0.6,0.5-1,0.7C187.3,163.8,185.6,163.9,185.6,163.9"/>
	<path fill="#F2EA39" d="M190.1,163.6C190.1,163.6,190.1,163.6,190.1,163.6c0.2,0.4,0,0.9-0.4,1.1c-0.4,0.3-0.8,0.1-1-0.3
		c0,0,0,0,0,0c0,0,0,0,0,0c-0.2-0.4,0-0.8,0.4-1.1C189.4,163.1,189.9,163.2,190.1,163.6L190.1,163.6z"/>
	<path fill="#010101" d="M186.1,163.7c0.3,0.2,0.5,0.5,0.8,0.7c-1.2,1.5-1.6,1.6-1.4,2.3c0.1,0.5-0.2,1.2-0.8,1.7
		c-0.8,0.5-1.6,0.2-2-0.5c-0.4-0.7,0-1.4,0.5-1.9c0.3-0.3,0.7-0.3,1.1-0.5C185,165.2,186.1,163.7,186.1,163.7"/>
	<path fill="#F2EA39" d="M183.3,167.5L183.3,167.5c0.2,0.4,0.6,0.5,1,0.3c0.4-0.2,0.6-0.7,0.4-1.1l0,0l0,0c-0.2-0.4-0.7-0.5-1.1-0.2
		C183.3,166.7,183.1,167.1,183.3,167.5L183.3,167.5"/>
	<path fill="#F2EA39" d="M197,185.7c-0.7,0.3-1.6-2.3-2.3-3.8c-0.7-1.5-2.1-3.8-1.7-4c0.4-0.2,1,0.9,1.8,2.5
		C195.4,181.9,197.6,185.4,197,185.7"/>
	<path fill="#F2EA39" d="M190.3,171.7c-0.6,0.4-1.4-1.4-2-2.9c-0.7-1.5-1.4-2.5-1-2.8c0.5-0.3,1.2,1.1,1.7,2.3
		C189.6,169.6,190.9,171.4,190.3,171.7"/>
	<path fill="#F2EA39" d="M205.7,203.4c-0.5,0.2-2.7-4.1-4.5-7.9c-1.8-3.7-3.2-6.7-2.7-6.9c0.4-0.2,1.9,3.3,3.7,7
		C204,199.3,206,203.2,205.7,203.4"/>
	<path fill="#305BA2" d="M209.6,158.5c0,7.9,0.1,15.9,0.1,23.8c0.6,0.9,1.2,1.7,1.8,2.6c3.7,1.5,7.4,3.1,11.1,4.6
		c4.8,1.5,9.5,3,14.3,4.6c0.6,0.6,1.2,1.1,1.8,1.7c4.1-2.8,8.2-5.6,12.3-8.4c4.8-2.9,9.6-5.9,14.4-8.8c0.9-1.5,1.8-3,2.8-4.6
		c0-7.8,0-15.6,0-23.5C248.5,153.1,229,155.9,209.6,158.5z"/>
	<path fill="#C1232E" d="M208.9,129.8c0.2,0.7,0.5,1.4,0.7,2.1c0,9.1-0.1,18.3-0.1,27.4c0.3,0.3,0.7,0.7,1,1c2.8,0,5.6-0.1,8.4-0.1
		c3-0.9,6.1-1.7,9.1-2.6c0,0,5.3,0.1,9,0.1c0,0,0.1,0.5,0.1,0.5c0,0,1.3-0.4,1.8-0.5c0.4,0,1.7,0,1.7,0c0,0,0.1-0.5,0.1-0.6
		c3.7-1.1,9-2.6,9-2.6c3,0,6.1,0,9.1,0.1c2.8-0.7,5.6-1.4,8.4-2.1c0.3-0.4,0.7-0.9,1-1.3c0-9.1-0.1-18.2-0.1-27.4
		c0.2-0.8,0.5-1.5,0.7-2.3c-3.4,0.5-6.7,1-10.1,1.4c0,0-11.6,1.7-19.9,3c-8.3,1.1-19.9,2.6-19.9,2.6
		C215.6,129,212.3,129.4,208.9,129.8L208.9,129.8z"/>
	<path fill="#F2EA39" d="M211.8,160c1.5-0.8,3-1.6,4.5-2.4c1.1-1,2.1-1.9,3.2-2.9c0.7,0.7,1.5,1.4,2.2,2c1.5,0.4,2.9,0.8,4.4,1.2
		c-1.2,0.8-2.4,1.7-3.6,2.5c-1.1,1.1-2.1,2.2-3.2,3.2c-0.9-0.6-1.9-1.2-2.8-1.7C215,161.3,213.4,160.7,211.8,160z"/>
	<path fill="#F2EA39" d="M258.1,149.4c-0.7,0.8-1.4,1.7-2.1,2.5c-1.5,0.8-2.9,1.6-4.4,2.4c1.4,0.7,2.8,1.3,4.2,2
		c0.9,0.7,1.8,1.4,2.6,2c1-0.9,1.9-1.9,2.9-2.8c1.6-1,3.1-2,4.7-3c-1.6-0.4-3.2-0.8-4.8-1.2C260.1,150.7,259.1,150.1,258.1,149.4z"
		/>
	<path fill="#F2EA39" d="M238.8,129.6c-0.4,1.4-0.9,2.9-1.3,4.3c-1.3-0.5-2.7-0.9-4-1.4c0.6,1.3,1.2,2.5,1.8,3.8
		c-1.3,0.7-2.6,1.4-3.9,2c1.3,0.3,2.6,0.6,3.9,0.9c-0.6,1.4-1.1,2.8-1.7,4.2c1.2-0.8,2.5-1.6,3.7-2.5c0.5,1.3,1,2.6,1.5,3.9
		c0.5-1.4,1-2.9,1.5-4.3c1.3,0.4,2.5,0.8,3.8,1.1c-0.6-1.2-1.1-2.3-1.7-3.5c1.3-0.7,2.6-1.3,3.9-2c-1.2-0.4-2.5-0.7-3.7-1.1
		c0.5-1.4,1.1-2.8,1.6-4.3c-1.3,0.8-2.6,1.7-3.9,2.5C239.8,132.1,239.3,130.8,238.8,129.6z"/>
	<path fill="#F2EA39" d="M249.4,127.4c0.4,1.4,0.8,2.8,1.3,4.2c0.6,1.8,1.3,3.6,1.9,5.4c0.1,1.8,0.2,3.6,0.2,5.3
		c-0.7,1.4-1.5,2.8-2.2,4.2c-1.3,0.7-2.7,1.5-4,2.2c-0.7,0.3-1.5,0.7-2.2,1c-0.9-0.3-1.8-0.7-2.6-1c-1,0.7-1.9,1.4-2.9,2.2
		c-1.1-0.5-2.1-1-3.2-1.5c-0.9,0.7-1.8,1.4-2.6,2.1c-0.5-0.3-1.1-0.6-1.6-0.9c-1,0-1.9,0-2.9,0c-1.1-1-2.2-2-3.3-3
		c-0.2-2-0.5-4.1-0.7-6.1c1.3-3.8,2.7-7.7,4-11.5c-1.7,1.6-3.3,3.1-5,4.7c-1.4,2.1-2.8,4.2-4.3,6.3c0,2.5,0,5.1,0,7.6
		c1,1.6,2,3.1,3,4.7c1.8,0.9,3.7,1.9,5.5,2.8c0.5,0.1,1,0.1,1.4,0.2c-0.9,1.7-1.7,3.5-2.6,5.2c1.5,0.2,3,0.5,4.5,0.7
		c0.8,0.7,1.6,1.3,2.3,2c0.4,1.5,0.8,3,1.3,4.5c-0.1,3.4-0.2,6.7-0.3,10.1c-0.5,0.8-0.9,1.7-1.4,2.5c-1,0.8-2,1.7-3,2.5
		c-0.1,0.6-0.1,1.3-0.2,1.9c1.1,0.5,2.2,1.1,3.3,1.6c0.9,0.6,1.9,1.3,2.8,1.9c1.4-0.2,2.9-0.3,4.3-0.5c1.2-1,2.5-2.1,3.7-3.1
		c1.1-0.7,2.1-1.5,3.2-2.2c-0.3-0.9-0.6-1.8-0.8-2.6c-1.1-0.7-2.2-1.4-3.3-2.1c-0.2-2.6-0.4-5.3-0.7-7.9c0.3-2.7,0.6-5.4,1-8.1
		c1.6-1.2,3.2-2.5,4.8-3.7c0.8-0.4,1.7-0.8,2.5-1.2c-0.9-1.5-1.7-3.1-2.6-4.6c1.3-0.6,2.6-1.3,4-1.9c1.5-1.5,2.9-3,4.4-4.5
		c0.7-2.7,1.4-5.3,2.1-8c-0.4-1.5-0.8-3-1.2-4.5c-1-1.1-2-2.3-3.1-3.4C252.8,129.7,251.1,128.6,249.4,127.4z"/>
	<path fill="#F2EA39" d="M230.6,164.5c0.6,0.6,1.3,1.1,1.9,1.7c-0.6,0.7-1.2,1.4-1.8,2.1c-0.6-0.5-1.2-1.1-1.8-1.6
		C229.4,165.9,230,165.2,230.6,164.5z"/>
	<path fill="#F2EA39" d="M247.2,162c-0.6,0.8-1.3,1.5-1.9,2.3c0.6,0.5,1.2,1.1,1.7,1.6c0.7-0.7,1.4-1.4,2.1-2.1
		C248.4,163.2,247.8,162.6,247.2,162z"/>
	<path fill="#F2EA39" d="M248.5,166.9c-1.2,0.4-2.3,0.9-3.5,1.3c-0.3,0.7-0.6,1.4-0.9,2.1c0,1.8,0,3.7,0,5.5c0.5,1,1,1.9,1.4,2.9
		c0.6,0.2,1.3,0.4,1.9,0.5c-0.1-2.4-0.2-4.8-0.3-7.2C247.7,170.4,248.1,168.6,248.5,166.9z"/>
	<path fill="#F2EA39" d="M229.2,169.7c0.4,2,0.8,4,1.2,6c0,2,0,3.9,0,5.9c0.6-0.5,1.2-1,1.8-1.5c0.4-0.9,0.8-1.9,1.1-2.8
		c0.1-1.6,0.2-3.1,0.2-4.7c-0.3-0.9-0.6-1.8-0.9-2.7C231.5,169.8,230.3,169.7,229.2,169.7z"/>
	<path fill="#F2EA39" d="M260.8,170.1c-1.3-0.5-2.7-0.9-4-1.4c-1.3,0.5-2.5,0.9-3.8,1.4c-0.7,0.9-1.4,1.7-2,2.6
		c-0.1,1.3-0.1,2.5-0.2,3.8c0.9,1,1.9,2,2.8,3c0.2,0,0.4,0.1,0.7,0.1c0-1.2,0-2.4,0-3.6c1-1.5,2-3,3-4.6
		C258.4,171,259.6,170.6,260.8,170.1z"/>
	<path fill="#F2EA39" d="M222.8,174.1c-0.1-0.5-0.3-1.1-0.4-1.6c-0.7-0.3-1.5-0.6-2.2-1c-0.6,0.3-1.2,0.6-1.8,0.9
		c-0.3,0.7-0.6,1.3-0.9,2c0.2,0.5,0.3,1,0.5,1.5c-0.6,0-1.2,0-1.9,0.1c-0.5,0.6-1,1.1-1.5,1.7c-0.1,0.6-0.1,1.3-0.2,1.9
		c0.3,0.4,0.7,0.7,1,1.1c0.5,0.1,1,0.2,1.4,0.3c0.3-0.1,0.5-0.1,0.8-0.2c-0.2,0.6-0.5,1.2-0.7,1.8c0.2,0.6,0.4,1.1,0.6,1.7
		c0.6,0.2,1.1,0.5,1.7,0.7c0.7-0.3,1.3-0.5,2-0.8c0.3-0.7,0.7-1.4,1-2.1c0.5,0.3,1.1,0.6,1.6,0.9c0.7-0.2,1.4-0.5,2-0.7
		c0.4-0.7,0.9-1.4,1.3-2.2c-0.3-0.6-0.6-1.2-0.9-1.7c-0.3-0.2-0.7-0.4-1-0.6c0.5-0.3,0.9-0.6,1.4-0.9c0.2-0.8,0.4-1.6,0.6-2.3
		c-0.6-0.6-1.3-1.2-1.9-1.9c-0.6,0.2-1.2,0.3-1.8,0.5C223.4,173.6,223.1,173.9,222.8,174.1z"/>
	<path fill="#010101" d="M228.8,128.7c-0.3,2.1-10.5,7.7-10.5,16.1c0,10.8,10.1,12,10.1,12c-0.1,0.3-0.3,0.5-0.4,0.8
		c-0.8,1.6-1.6,3.2-2.4,4.8c0,0,4.1-0.4,6.4,1.2c2.7,1.9,2.4,6.8,2.4,10.3c0,2.8-0.4,5.8-1.8,7.2c-1.9,1.9-3.3,2.2-3.3,4.1
		c0,1.6,1.3,1.7,3.3,2.5c2.5,1,2.4,2.8,6.2,2.3c3.8-0.5,3.7-2.3,6.2-4c2-1.3,3.2-1.8,3.2-3.4c0-1.9-1.2-1.8-3.2-3.2
		c-1.4-1-1.8-3.9-1.8-6.7c0-3.5-0.2-8.3,2.4-11c2.2-2.2,6.4-3,6.4-3c-0.8-1.4-1.6-2.8-2.4-4.1c-0.1-0.2-0.3-0.5-0.4-0.7
		c0,0,10.1-4,10.1-14.8c0-8.5-10.2-11.2-10.4-13.2c-1,3.6,3.4,7.9,3.4,13.6c0,7.4-5.5,8.5-5.5,8.5c-1.3,0.2-1.8,1.2-2.3,1.2
		c-1.1,0.1-1.6-1.3-2.7-1.1c-1,0.1-1.8,1.8-3.1,2c-1.3,0.2-2-1.3-3.1-1.2c-1,0.1-1.5,1.6-2.6,1.8c-0.5,0.1-1.1-0.7-2.3-0.6
		c0,0-5.4,0.4-5.5-7C225.4,137.5,229.8,132,228.8,128.7 M249.6,154.6c0,0,6.8,2,8.6,4.4c3.8-3.5,9-6.4,9-6.4c0,0-4.9-0.6-9-3.7
		C255.9,152.2,249.6,154.6,249.6,154.6 M228,157.6c0,0-6.2-0.7-8.5-3.4c-4.1,4.2-9,6.2-9,6.2s5.1,1.6,9,4
		C221.3,161.5,228,157.6,228,157.6 M238.8,128c-0.6,1.8-1.2,3.5-1.8,5.3c-1.6-0.5-3.2-1.1-4.8-1.6c0.8,1.5,1.5,3,2.3,4.5
		c-1.7,0.8-3.3,1.6-5,2.4c1.7,0.4,3.3,0.7,5,1.1c-0.8,1.7-1.5,3.4-2.3,5.1c1.6-1,3.2-2,4.8-3c0.6,1.6,1.2,3.2,1.8,4.7
		c0.6-1.7,1.2-3.5,1.8-5.2c1.6,0.5,3.2,1.1,4.8,1.6c-0.8-1.5-1.5-3-2.3-4.5c1.7-0.8,3.3-1.6,5-2.5c-1.7-0.4-3.3-0.7-5-1.1
		c0.8-1.7,1.5-3.4,2.3-5.1c-1.6,1-3.2,2-4.8,2.9C240,131.2,239.4,129.6,238.8,128z M227.3,131.9c0.4,0.8-3.4,6.9-3.4,11.4
		c0,5.6,3,8.4,6.9,7.9c0.8-0.1,1.6,0.8,2.3,0.7c1.1-0.2,1.9-1.5,2.6-1.6c1-0.1,1.5,1.2,3.1,1c1.6-0.2,2.2-1.7,3.1-1.8
		c0.7-0.1,1.4,1.1,2.7,0.9c0.7-0.1,1.6-1.2,2.3-1.3c4-0.6,6.9-4.2,6.9-9.8c0-4.5-3.8-9.6-3.4-10.5c0,0,7.5,4.3,7.5,10.6
		c0,10.1-10.3,14-10.3,14c0.8,1.6,1.5,3.2,2.3,4.9c0,0-3.2,0.9-5,2.8c-2.7,2.5-2.7,8.1-2.7,11.9c0,4.5,0.1,6.4,1.8,7.4
		c1.7,1,3,1.2,3,2.4c0,1.2-1.3,1.8-3.1,2.8c-2,1.1-2.1,2.7-5,3.1c-2.8,0.4-3-1.1-5-1.7c-1.7-0.5-3.1-0.8-3.1-2c0-1.3,1.3-1.8,3-3.3
		c1.6-1.4,1.8-3.3,1.8-7.9c0-3.8,0-9.5-2.6-11.2c-1.9-1.3-5.1-1.3-5.1-1.3c0.8-1.8,1.6-3.7,2.3-5.5c0,0-10.3-1.1-10.3-11.2
		C219.8,138.3,227.3,131.9,227.3,131.9 M238.9,131.4c0.4,1,0.8,2,1.1,3c1-0.6,2-1.2,3-1.9c-0.5,1.1-1,2.2-1.5,3.3
		c1.1,0.2,2.1,0.4,3.2,0.7c-1.1,0.5-2.1,1-3.2,1.6c0.5,0.9,1,1.9,1.5,2.8c-1-0.3-2-0.7-3-1c-0.4,1.1-0.8,2.2-1.2,3.3
		c-0.4-1-0.7-2-1.1-3c-1,0.6-2,1.2-3,1.9c0.5-1.1,1-2.2,1.5-3.3c-1.1-0.2-2.1-0.5-3.2-0.7c1.1-0.5,2.1-1,3.2-1.6
		c-0.5-1-1-1.9-1.5-2.9c1,0.3,2,0.7,3,1C238.1,133.6,238.5,132.5,238.9,131.4z M219.4,155.7c2.1,2.1,5.3,2.5,5.3,2.5
		c0,0-3.4,2.2-5.2,4.6c0,0,0,0.1,0,0.1c-0.1,0-0.1,0-0.1,0c-0.1,0.1-0.1,0.1-0.1,0.1c0-0.1,0-0.2,0-0.2c-2-1.4-5.9-2.8-5.9-2.8
		C213.4,160,217.2,158.2,219.4,155.7 M258.3,150.3c2.2,1.9,5.9,2.7,5.9,2.7c0,0-3.9,2.4-5.8,4.4c0,0.1,0,0.2,0,0.2
		c-0.1,0-0.1-0.1-0.1-0.1c0,0,0,0-0.1,0c0,0,0-0.1,0-0.1c-1.9-1.9-5.3-3.2-5.3-3.2C253,154.3,256.2,152.9,258.3,150.3 M230.6,163.9
		c-0.8,0.9-1.6,1.8-2.4,2.8c0.8,0.7,1.6,1.4,2.4,2.1c0.8-0.9,1.6-1.8,2.4-2.8C232.2,165.3,231.4,164.6,230.6,163.9z M247,161.6
		c-0.8,0.9-1.6,1.8-2.4,2.8c0.8,0.7,1.6,1.4,2.4,2.1c0.8-0.9,1.7-1.9,2.5-2.8C248.7,163,247.9,162.3,247,161.6z M230.6,165.1
		c0.4,0.4,0.8,0.7,1.2,1.1c-0.4,0.5-0.8,1-1.2,1.4c-0.4-0.4-0.9-0.7-1.3-1.1C229.7,166,230.2,165.5,230.6,165.1z M247,162.8
		c0.4,0.4,0.9,0.7,1.3,1.1c-0.4,0.5-0.9,1-1.3,1.5c-0.4-0.4-0.8-0.7-1.3-1.1C246.2,163.7,246.6,163.2,247,162.8z M228.4,169.1
		c0.5,1.1,1.6,4.7,1.6,9.1c0,3.1-0.3,4.7-0.3,4.7c0,0,3.5-1.5,4.2-5.1c0.3-1.7,0.7-7.7-1-8.5C231.3,169.2,229.9,169.2,228.4,169.1z
		 M249.3,166.1c-1.5,0.5-3,1-4.5,1.5c-1.7,1.3-1.3,7.2-1,8.8c0.7,3.4,4.1,3.9,4.1,3.9c0,0-0.3-1.6-0.3-4.7
		C247.7,171.3,248.9,167.4,249.3,166.1 M220,171.2c-0.1,0-0.3,0-0.5,0.1c-1.6,0.6-2.5,2.3-2.1,3.8c0.1,0.2,0.1,0.4,0.2,0.6
		c-0.2,0-0.5,0-0.7-0.1c-0.2,0-0.2,0-0.3,0c-1.4,0.3-2.7,1.6-2.8,3.1c-0.1,1.6,1.1,2.8,2.7,2.7c0.2,0,0.4,0,0.7-0.1
		c-0.1,0.2-0.3,0.4-0.4,0.7c-0.6,1.6,0.1,3.1,1.6,3.5c1.4,0.4,3.2-0.6,3.7-2.1c0.1-0.3,0.2-0.5,0.2-0.7c0.1,0.1,0.3,0.3,0.5,0.5
		c1.2,0.8,3.1,0.4,4-0.9c1-1.4,0.8-3.2-0.4-4c-0.2-0.1-0.4-0.2-0.6-0.3c0.2-0.1,0.4-0.2,0.6-0.4c1.3-1,1.8-2.9,0.9-4.1
		c-0.6-0.8-1.6-1.2-2.7-1c-0.4,0.1-0.9,0.3-1.3,0.7c-0.2,0.1-0.4,0.3-0.6,0.5c0-0.2,0-0.5-0.1-0.7C222.6,171.7,221.3,171,220,171.2
		 M229.9,170.2c0.8,0.1,1.6,0.1,2.4,0.2c0.9,1.1,0.7,3.1,0.7,5.8c0,2.8-2.1,4.2-2.1,4.2C231,173.7,230.3,172.2,229.9,170.2
		 M247.8,167.7c-0.4,2.1-1.1,3.8-1.1,10.5c0,0-2.1-0.8-2.1-3.6c0-2.8-0.1-4.7,0.7-6C246.1,168.3,247,168,247.8,167.7z M220.2,172.4
		c1-0.2,2,0.4,2.3,1.4c0.1,0.2,0.1,0.5,0.1,0.7c-0.1,0.2-0.1,0.4-0.1,0.6c-0.4-0.1-0.7-0.1-1.1,0c-1,0.1-1.9,0.7-2.5,1.4
		c-0.2-0.1-0.3-0.2-0.4-0.4c-0.1-0.2-0.2-0.4-0.3-0.6c-0.3-1.2,0.4-2.5,1.6-2.9C219.9,172.5,220,172.4,220.2,172.4 M256.1,168.3
		c-3.7,0.5-6.4,3.7-6,7.2c0.3,2.9,2.7,5,5.6,5.4c-0.5-0.8-0.8-1.7-0.9-2.6c-0.4-3.4,2.3-6.6,6-7.1c0.6-0.1,1.1-0.1,1.7,0
		C261.2,169.1,258.8,168,256.1,168.3 M224.7,173.5c0.7-0.1,1.3,0.2,1.8,0.8c0.7,1,0.4,2.4-0.7,3.2c-0.2,0.2-0.4,0.3-0.7,0.4
		c-0.2,0.1-0.4,0.1-0.6,0.1c0,0,0-0.1,0-0.1c0-1.3-0.8-2.4-1.9-2.7c0.1-0.2,0.2-0.4,0.3-0.6c0.1-0.2,0.3-0.4,0.5-0.6
		C223.8,173.8,224.2,173.5,224.7,173.5 M256.1,169.6c1.2-0.2,2.3,0,3.2,0.5c-3.6,1.2-6.2,4.7-5.8,8.4c-1.1-0.8-2-2-2.1-3.3
		C251.1,172.5,253,170,256.1,169.6 M217.4,176.4c0.3,0,0.5,0,0.7,0.1c0.2,0.1,0.4,0.2,0.5,0.3c-0.4,0.6-0.7,1.3-0.7,2.1
		c0,0.6,0.2,1.1,0.4,1.6c-0.2,0.1-0.4,0.3-0.6,0.4c-0.2,0.1-0.4,0.1-0.7,0.2c-1.2,0.1-2.2-0.9-2.1-2.1
		C215.1,177.5,216.2,176.4,217.4,176.4 M221.3,176.1c1.2-0.2,2.1,0.7,2.1,1.9c0,1.2-0.9,2.3-2.1,2.5c-1.2,0.2-2.2-0.7-2.2-1.9
		C219.1,177.4,220,176.3,221.3,176.1 M224.5,178.2c0.2,0,0.4,0.1,0.6,0.1c0.2,0.1,0.4,0.1,0.6,0.3c1,0.7,1,2.1,0.3,3.1
		c-0.8,1.1-2.2,1.4-3.2,0.7c-0.2-0.1-0.3-0.3-0.5-0.5c-0.1-0.2-0.2-0.3-0.2-0.5C223.4,180.8,224.3,179.6,224.5,178.2 M218.5,180.5
		c0.6,0.8,1.6,1.2,2.8,1.1c0.1,0,0.4-0.1,0.7-0.2c0,0.2,0.1,0.4,0.1,0.6c-0.1,0.2-0.1,0.5-0.2,0.7c-0.5,1.2-1.8,2-2.9,1.6
		c-1.2-0.3-1.7-1.6-1.3-2.8c0.1-0.3,0.2-0.5,0.4-0.7C218.2,180.8,218.3,180.7,218.5,180.5 M235,183.6c-2,0.3-3.3,0.9-3.3,1.5
		c0,0.6,1.3,0.8,3.3,0.6c0.5-0.1,1.1-0.4,1.2-1.2C236.1,183.7,235.5,183.5,235,183.6 M242.7,182.5c-0.6,0.1-1.1,0.5-1.1,1.2
		c0,0.7,0.6,0.9,1.1,0.9c2-0.3,3.3-0.8,3.3-1.5C246,182.5,244.8,182.2,242.7,182.5"/>
	<path fill="#F2EA39" d="M206.2,129.4c0,0,2.7,1.6,2.7,3.7c0,14,0,28.1,0,42.1c0,2.1,0,4.2,0,6.3c0,1.3,0.4,2.1,1,2.8
		c0.6,0.8,2,1.8,3.4,2.5c4.2,2.2,11.4,4.2,16.8,5.9c4.5,1.5,6.3,2,8.7,4.6c2.4-3.2,4.2-4.3,8.8-7c5.4-3.2,12.5-7.1,16.8-10.5
		c1.4-1.1,2.7-2.4,3.4-3.4c0.6-0.9,1-1.8,1-3.1c0-2.1,0-4.2,0-6.3c0-14,0-28.1,0-42.1c0-2,2.7-4.4,2.7-4.4c-0.9,0.1-1.9,0.2-2.8,0.4
		c-0.6,0.1-1.2,0.2-1.7,0.2c-9.3,1.3-18.7,2.6-28,3.9c-9.3,1.3-18.7,2.6-28,3.9c-0.6,0.1-1.1,0.1-1.7,0.2
		C208.1,129.2,207.2,129.3,206.2,129.4z M209.7,130.5c0.4,0,0.7-0.1,1.1-0.1c9.4-1.3,18.7-2.6,28-3.9c9.3-1.3,18.7-2.6,28-3.9
		c0.4-0.1,0.8-0.1,1.2-0.2c0,0-0.8,1-0.8,2.6c0,14,0,28.1,0,42.1c0,2.1,0,4.2,0,6.3c0,1.1-1,3.7-7.4,7.7
		c-10.5,6.7-18.5,10.2-21,13.5c-2.4-2.6-10.4-3.9-20.9-7.7c-6.3-2.3-7.4-4.6-7.4-5.7c0-2.1,0-4.2,0-6.3c0-14,0-28.1,0-42.1
		C210.5,131.3,209.7,130.5,209.7,130.5"/>
	<path fill="#010101" d="M237.3,95.6c0,0.9-1,1.8-2.2,2c-1.2,0.2-2.3-0.5-2.3-1.4c0-1,1.1-1.9,2.3-2.1
		C236.4,94,237.3,94.6,237.3,95.6L237.3,95.6z"/>
	<path fill="#C1232E" d="M224.2,96.4c0,0,0.8-1.5,2.7-1.8c0.8-0.1,3.4-0.5,3.4-0.5c0.4,0.9,1.9,2.1,1.9,3.7c0,0-1.6-2.7-6.1-2
		C225,95.9,224.2,96.4,224.2,96.4"/>
	<path fill="#010101" d="M230,96c0,0-1.1-0.2-1.1-0.5c0-0.5,0.5-0.6,0.8-0.2C230,95.4,230,96,230,96"/>
	<path fill="#C1232E" d="M231.5,98.4c0,0-0.9,1.1-1.1,1.7c-1-0.2-2.6-1.7-2.6-1.7S229.2,99,231.5,98.4"/>
	<path fill="#010101" d="M301.4,139.2c-1.2,1-2.3,2-3.5,2.9c0.1,0.3,0.2,0.5,0.4,0.8c0,0-0.6,0.3-0.9,0.9c-0.3,0.6,0.2,1.4,0.2,1.4
		c0,0-3.3,0.1-3.8,0.5c-0.5,0.4,0.2,2.6-0.1,4.5c-0.4,2.8-1.5,2.7-1.6,3.2c0,0.5,0.4,1.3,0.4,1.3c0,0-0.6,0.3-0.7,0.5
		c-0.2,0.4,0.2,1.2-0.1,1.7c-1.4,3-3.6,7.5-5,10.4c-0.2,0.4-0.7,0.6-1,1.2c-0.2,0.5,0,1.2,0,1.2c0,0-0.9,0.1-1.3,0.8
		c-0.3,0.7-0.1,1.6-0.1,1.6c0,0-0.6,0.1-0.9,0.8c-0.3,0.7,0.2,0.9,0.1,1.2c-1.9,3.9-4.1,8.6-5.5,11.5c-0.5,1-2.2,1.4-3.3,3.6
		c-0.9,2.1,0.5,3.3,0.5,3.3c0,0-1.5,0.3-1.9,1.1c-0.3,0.8-0.1,2,1,2.4c1,0.4,2.2-0.2,2.6-1c0.4-0.8-0.4-2-0.4-2c0,0,2,0,3-2
		c1-2.1,0.1-3.5,0.6-4.6c1.4-2.9,3.6-7.5,5.5-11.5c0.1-0.3,0.7-0.1,0.9-0.8c0.4-0.6,0-1.1,0-1.1c0,0,0.9-0.5,1.2-1.2
		c0.3-0.7-0.2-1.4-0.2-1.4c0,0,0.7-0.4,1-0.9c0.2-0.5,0.1-1,0.2-1.4c1.4-2.9,3.6-7.4,5-10.4c0.3-0.5,1.1-0.8,1.3-1.2
		c0.2-0.3-0.1-0.9-0.1-0.9c0,0,1-0.2,1.3-0.6c0.4-0.4-0.4-1,1.5-3.2c1.4-1.6,3.6-2.6,3.6-3.2c0-0.6-2.2-2.9-2.2-2.9
		c0,0,0.9-0.2,1.2-0.8c0.3-0.6,0.1-1.2,0.1-1.2c0.3-0.1,0.6-0.2,0.9-0.3C301.4,142.1,301.4,140.7,301.4,139.2z M268.6,205.5
		c-0.4,0.1-0.7,0.4-0.8,0.6c-0.1,0.3-0.2,0.6,0,1c0,0-1.1-0.2-1.5,0c-0.4,0.2,0,5.4,0,5.4c0,0,4.4-3.4,4.3-3.8c-0.1-0.4-1-1-1-1
		c0.3-0.1,0.6-0.4,0.8-0.6c0.1-0.3,0.2-1.1-0.8-1.5C269.2,205.5,268.8,205.5,268.6,205.5"/>
	<path fill="#F2EA39" d="M300.8,140.6c-0.7,0.6-1.3,1.1-2,1.7c0.3,0.1,0.7,0.3,1,0.4c0.3,0.1,0.7,0.3,1,0.4
		C300.8,142.2,300.8,141.4,300.8,140.6z M298.8,143.2c-0.4,0.1-0.7,0.3-0.9,0.6c-0.3,0.6,0,1.2,0.6,1.4c0.6,0.2,1.3,0,1.6-0.6
		c0.2-0.6,0-1.2-0.6-1.4C299.2,143.2,299,143.1,298.8,143.2 M294.9,146c-0.3,0-0.6,0.1-0.6,0.1c-0.3,0.2,0.1,2,0,3.6
		c-0.1,1.5-0.6,2-0.9,2.5c-0.1,0.5-1.1,1.2-1.1,1.2c0.2,0.2,0.5,0.4,0.7,0.6c0,0,0.5-0.8,1.3-2.3c0.8-1.8,0.8-4.9,1.1-5.1
		c0.2-0.2,2.1-0.8,2.1-0.8C297.5,145.8,295.8,145.9,294.9,146 M298.1,146.1c0,0-1.9,0.6-2.2,0.9c-0.3,0.3-0.2,2.9-1.2,5
		c-0.8,1.8-1.3,2.4-1.3,2.4c0.2,0.1,0.3,0.1,0.5,0.2c0.2,0.1,0.3,0.1,0.5,0.2c0,0,0.3-0.7,1.1-2.4c1-2.1,3.2-3.8,3.2-4.2
		C298.9,147.7,298.1,146.1,298.1,146.1 M298.7,146.3c0,0,0.7,1.7,0.7,1.9c0.1,0.3-2.5,2.4-3.4,4.2c-0.7,1.5-1,2.4-1,2.4
		c0.3,0,0.7,0,1,0c0,0,0-1.1,0.2-1.5c0.3-0.6,0.4-1.2,1.5-2.2c1.2-1.1,2.9-2.2,2.9-2.5C300.6,148.4,298.7,146.3,298.7,146.3
		 M293,155.2c-0.3,0.1-0.6,0.3-0.7,0.5c-0.2,0.4-0.1,0.9-1.6,4c-0.7,1.4-0.9,1.9-1.7,3.4c-0.7,1.5-1.8,3.7-1.8,3.7
		c0,0-0.4,0.7,0.3,1c0.7,0.2,0.9-0.5,0.9-0.5c0,0,1.1-2.2,1.8-3.8c0.7-1.5,1-2,1.6-3.4c1.4-3.1,2-3.4,2.1-3.8c0.3-0.5,0.2-1-0.4-1.2
		C293.4,155.2,293.2,155.1,293,155.2 M286.5,168.4c-0.3,0.1-0.5,0.2-0.6,0.4c-0.2,0.4,0.2,0.9,0.7,1.1c0.6,0.2,1.3,0.1,1.5-0.3
		c0.2-0.4-0.1-0.9-0.8-1.1C287.1,168.3,286.8,168.3,286.5,168.4 M285.6,170.3c-0.4,0.1-0.8,0.2-0.9,0.5c-0.3,0.5,0.1,1.1,0.9,1.4
		c0.7,0.3,1.4,0.1,1.7-0.4c0.2-0.5-0.2-1.1-0.9-1.4C286.1,170.3,285.9,170.3,285.6,170.3 M284.4,172.7c-0.3,0-0.5,0.2-0.6,0.4
		c-0.2,0.4,0.1,0.9,0.7,1.1c0.6,0.2,1.3,0.1,1.4-0.3c0.2-0.4-0.1-0.9-0.7-1.1C285,172.7,284.7,172.6,284.4,172.7 M283.9,174.7
		c-0.4,0.1-0.6,0.5-0.6,0.5c0,0-3.8,8-5.1,10.8c-0.4,0.9-2.2,1.6-3,3.1c-0.7,1.5-0.2,2.7,0.7,3.1c0.9,0.4,2.3-0.2,3-1.6
		c0.7-1.5,0.1-3.2,0.5-4.1c1.3-2.8,5.1-10.8,5.1-10.8c0,0,0.4-0.7-0.3-1C284.2,174.6,284.1,174.6,283.9,174.7 M274.7,193.2
		c-0.4,0.1-0.8,0.3-1,0.7c-0.3,0.6,0.1,1.3,0.8,1.6c0.7,0.3,1.5,0,1.8-0.6c0.2-0.6-0.1-1.3-0.7-1.6
		C275.2,193.2,274.9,193.1,274.7,193.2 M268.6,206c-0.2,0-0.4,0.1-0.5,0.3c-0.1,0.3,0.2,0.7,0.7,0.9c0.5,0.2,1.1,0.1,1.2-0.2
		c0.2-0.3-0.1-0.7-0.7-0.9C269.1,206,268.8,206,268.6,206 M266.8,207.7c0,1.2,0,2.5,0,3.7c1-0.9,2-1.7,3.1-2.6c0,0-0.4-0.7-1.3-1
		C267.6,207.5,266.8,207.7,266.8,207.7"/>
	<path fill="#F2EA39" d="M236.7,95.7c0,0.9-0.7,1.6-1.6,1.8c-0.9,0.1-1.6-0.5-1.6-1.3c0-0.9,0.7-1.7,1.6-1.8
		C236,94.2,236.7,94.8,236.7,95.7L236.7,95.7z"/>
	<path fill="#010101" d="M235.8,95.8c0,0.4-0.3,0.7-0.7,0.8c-0.4,0.1-0.7-0.2-0.7-0.6c0-0.4,0.3-0.8,0.7-0.9
		C235.5,95.1,235.8,95.4,235.8,95.8"/>
</g>
</svg>
