<svg version="1.1" id="mdv" name="maledives" xmlns="http://www.w3.org/2000/svg" xmlns:xlink="http://www.w3.org/1999/xlink" x="0px" y="0px"
	 viewBox="0 0 480 320" enable-background="new 0 0 480 320" xml:space="preserve">
<g id="flag-mdv">
	<path fill="#C01F41" d="M0,300c160,44.8,320-44.8,480,0c0-93.3,0-186.7,0-280C320-24.8,160,64.8,0,20C0,113.3,0,206.7,0,300z"/>
	<path fill="#36803F" d="M70,101.9c113.3,8,226.7-31.7,340-23.7c0,46.7,0,93.3,0,140c-113.3-8-226.7,31.7-340,23.7
		C70,195.2,70,148.5,70,101.9z"/>
	<path fill="#FFFFFF" d="M257.5,110.9c25.8-3.6,46.7,15,46.7,40.8c0,25.7-20.9,49-46.7,52.6c-25.8,3.6-46.7-14.5-46.7-40.2
		C210.8,138.3,231.7,114.5,257.5,110.9"/>
	<path fill="#36803F" d="M275,108.6c25.8-3.5,46.7,15.6,46.7,41.4c0,25.7-20.9,48.5-46.7,52c-25.7,3.4-46.6-14.5-46.6-40.2
		C228.3,135.9,249.2,112,275,108.6"/>
</g>
</svg>
