<svg version="1.1" id="mhl" name="marshall islands" xmlns="http://www.w3.org/2000/svg" xmlns:xlink="http://www.w3.org/1999/xlink" x="0px" y="0px"
	 viewBox="0 0 480 320" enable-background="new 0 0 480 320" xml:space="preserve">
<g id="flag-mhl">
	<path fill="#273D8C" d="M0,300c160,44.8,320-44.8,480,0c0-93.3,0-186.7,0-280C320-24.8,160,64.8,0,20C0,113.3,0,206.7,0,300z"/>
	<path fill="#FFFFFF" d="M102.2,222c-1.2-19.9-2.4-39.7-3.6-59.6c-4.2,10.9-8.3,21.8-12.5,32.6c1.9-11.5,3.7-23,5.6-34.5
		C84.8,169.8,78,179,71.1,188c4.8-10.4,9.6-20.8,14.4-31.3c-9.1,7.1-18.2,13.9-27.2,20.4c7.4-8.3,14.8-16.9,22.2-25.6
		c-10.7,4.3-21.4,8.2-32.1,11.6c9.5-5.6,19-11.7,28.5-18c-11.6,1.2-23.1,2-34.7,2.2c11-2.6,21.9-5.7,32.9-9.2
		c-19.9-2.4-39.7-6.1-59.6-11.8c19.9,3.3,39.7,4.7,59.6,4.7C64,126,53.1,120.8,42.1,115c11.6,3.5,23.1,6.5,34.7,9
		c-9.5-7.4-19-15.1-28.5-23.1C59,107,69.7,112.7,80.4,118c-7.4-9.4-14.8-19-22.2-28.9c9.1,8.3,18.2,16.3,27.2,24
		c-4.8-10.9-9.6-21.8-14.4-32.8c6.9,10,13.7,19.7,20.6,29.4c-1.9-11.6-3.7-23.2-5.6-34.8C90.3,86,94.4,97,98.6,108
		c1.2-19.9,2.4-39.7,3.6-59.6c1.2,19.9,2.4,39.7,3.6,59.6c4.2-11,8.3-22,12.5-33.1c-1.9,11.6-3.7,23.2-5.6,34.8
		c6.9-9.6,13.7-19.4,20.6-29.3c-4.8,11-9.6,21.9-14.4,32.7c9.1-7.7,18.2-15.6,27.3-23.7c-7.4,9.6-14.8,19.2-22.2,28.6
		c10.7-5.2,21.4-10.8,32.1-16.5c-9.5,7.7-19,15.2-28.5,22.5c11.6-2.4,23.1-5.2,34.7-8.1c-10.9,5.2-21.9,10.2-32.8,15
		c19.9,0.2,39.7-0.6,59.6-1.8c-19.9,3.6-39.7,6.8-59.6,9c10.9,3.6,21.9,6.9,32.8,10.1c-11.6-0.8-23.1-1.7-34.7-3.1
		c9.5,6.4,19,12.6,28.5,18.6c-10.7-3.8-21.4-7.9-32.1-12.2c7.4,8.8,14.8,17.4,22.2,25.9c-9.1-6.7-18.2-13.6-27.3-20.7
		c4.8,10.5,9.6,21,14.4,31.4c-6.9-9.1-13.7-18.3-20.6-27.6c1.9,11.5,3.7,23,5.6,34.5c-4.2-10.8-8.3-21.7-12.5-32.6
		C104.6,182.2,103.4,202.1,102.2,222z"/>
	<path fill="#FFFFFF" d="M0,286.6c0,3,0,6,0,9c160-9,320-152.3,480-161.3c0-36.6,0-73.2,0-109.8C320,67,160,244,0,286.6z"/>
	<path fill="#CD7528" d="M0,286.6c0,1.5,0,3,0,4.5c160-25.8,320-185.9,480-211.7c0-18.3,0-36.6,0-54.9C320,67,160,244,0,286.6z"/>
</g>
</svg>
