<svg version="1.1" id="mne" name="montenegro" xmlns="http://www.w3.org/2000/svg" xmlns:xlink="http://www.w3.org/1999/xlink" x="0px" y="0px"
	 viewBox="0 0 480 320" enable-background="new 0 0 480 320" xml:space="preserve">
<g id="flag-mne">
	<path fill="#CDAE41" d="M0,300c160,44.8,320-44.8,480,0c0-93.3,0-186.7,0-280C320-24.8,160,64.8,0,20C0,113.3,0,206.7,0,300z"/>
	<path fill="#B51F33" d="M14,37.6c150.7,35,301.3-42.2,452-7.2c0,84,0,168,0,252c-150.7-35-301.3,42.2-452,7.2
		C14,205.6,14,121.6,14,37.6z"/>
</g>
<g id="crest">
	<path fill="#AB6C30" d="M300.8,149.8c1.6-0.6,7.3-2.9,11.4-6.6c4-3.7,4.8-6.3,5.2-7.8c0.3-1.5,0.4-2.6-0.6-1.7
		c-1,0.9-4.1,3.7-6.3,5.1c-2.1,1.4-4.1,2.2-5.3,2.6c-1.1,0.4-2,0.8-0.9,0.2c1.1-0.6,4.7-2.2,7.5-5.3c2.8-3.1,5-7.5,5-10.1
		c0-2.6-0.1-2.4-0.9-1.6c-0.8,0.7-3.8,4.7-5.4,6.2c-1.7,1.6-4.3,3.7-5.7,4.6c-1.3,0.9-3.2,2-0.6-0.1c2.6-2.1,7.6-6.8,9.6-12.5
		c2.1-5.7,1.7-8.9,1.6-9.4c0-0.6-0.5-1.6-1-0.6c-0.4,1-3.7,8-6.4,11.1c-2.7,3.2-2,2.5-2.6,3.1c-0.6,0.5-1.6,1.5-0.3-0.3
		c1.3-1.8,4-5.8,5.3-9.6c1.4-3.8,1.7-7.5,1.8-9.7c0-2.1-0.9-5-1.3-5.8c-0.4-0.8-0.8-1.4-1-0.4c-0.1,1.1-2.2,7.8-3.4,11.1
		c-1.1,3.3-3.4,7.1-3.9,7.9c-0.4,0.8-1.6,2.3-0.4-0.2c1.3-2.5,3.8-9.9,4.1-16.5c0.3-6.7-0.6-10.3-1.5-12c-0.9-1.8-1.7-2.3-1.7-2.3
		c0,0,0.2,4.6-1.2,11.2c-1.4,6.7-3.3,10.4-3.3,10.4c0,0-0.8,1-0.3-0.6c0.4-1.1,1.2-3.5,1.5-7.5c0.4-4.2,0.4-8.9-0.7-12.7
		c-1.3-4.2-3.6-6.2-3.6-6.2c-0.7,6.3-0.5,14.4-2.8,21.2c-0.4-0.3-1-1-1.2,0.5c-0.4,2.2-1.3,6.3-4.1,11.8c-2.8,5.5-3.9,6.3-3.9,6.3
		c0,0-0.5-1.2-0.9-1.8c-0.4-0.6-0.6-1-1,0c-0.5,1-2,4.8-5.5,9.2c-3.5,4.4-5.4,6.6-5.3,9.6c0.1,3,1.7,4.3,3.8,5.4
		c2.1,1.1,2.4,1.8,2.2,3.4c-0.3,1.7-2.2,2.5-3.8,2.7c-1.6,0.3-3.7,0.4-4.4,0.9c-0.7,0.5-0.8,1.6-1.5,2.4c-0.7,0.8-1.1,1.3-1.7,1.5
		c-0.2,0.1-0.4,0.1-0.6,0.1c-0.2-7.8,2.9-11.7,2.9-11.7c-2.8-3-5.7-5.9-8.5-8.9c-0.4,0.3-0.9,0.5-1.3,0.8c-0.1-0.1-0.2-0.2-0.2-0.4
		c-1.1-1.3-1.5-2.5-1.5-4.3c0.4,0,1.3,0.2,2-0.1c0.8-0.3,0.2-1,0-1.7c-0.3-0.7-0.5-3.2-0.3-4.2c0.2-1,0.3-1.4,0.3-1.4
		c0,0,1.2,1.2,2,1.1c0.8-0.1,0.7-0.9,0.8-1.7c0.2-1.3,0.8-3,1.8-4c0,0,1.3,0.7,2.9,0.5c1.6-0.2,3.6-0.9,5.3-2.8
		c1.7-1.8,1.6-2.2,1.6-2.2c0,0,3.1,0.7,5.5,0.5c2.3-0.2,4.9-0.9,6-3.5c1.2-2.6-0.3-4.7-0.6-5.1c-0.3-0.3-1.1-0.6-1.1,0.1
		c0,0.7,0,2.6-1.4,3.7c-1.4,1.1-2.5,1.2-3.9,1c-1.4-0.2-3.2-0.5-5.4,0.1c-1.9,0.5-2.2,0.7-2.2,0.8c0.1-0.1,1.9-2.2,3.6-2.9
		c1.8-0.8,2.8-0.2,3.4,0.4c0.6,0.6,1.1,1.7,1.5,0c0.5-1.7,0.2-3.5-0.6-4.6c-0.8-1.1-2.4-1.7-4.2-1.2c-1.7,0.4-2.3,0.7-2.3,0.7
		c0,0-0.9-2.4-3.1-2.5c-2.7-0.2-5.8,1.2-8.1,2.9c0,0-1.9,0.7-3.8,0.4c-1.3-0.2-2.5-0.8-3.2-1.1c0.2-0.8,0.7-2.2,0.7-2.2
		c0,0,0.5-0.3,1.1-0.5c0.6-0.3,0.5-0.5,0.5-0.9c0.1-0.5-1.1-1.2-1.1-1.2c0,0-0.2-1.4,1.7-2.6c1.9-1.2,1.7-1,1.7-1c0,0,1.1,0,1.5-0.4
		c0.4-0.4,0.4-0.6,0.4-0.6c0,0,0.8-0.4,1.2-0.9c0.3-0.6,0.3-1.3,0.1-1.9c-0.2-0.5-0.5-0.6-0.2-0.9c0.3-0.3,0.6-1,0.6-1.5
		c0-0.5,0-0.6,0-0.6c0,0,0.6-0.3,0.6-1.3c0-1-0.5-1.3-0.8-1.3c-0.3-0.1-0.5,0-0.5,0c0,0-0.1-0.6-0.5-1.3c-0.5-0.7-0.8-1-0.8-1
		c0,0,0.3-0.3,0.1-0.9c-0.2-0.6-0.6-0.9-1.1-1c-0.5-0.1-0.9,0.1-0.9,0.1c0,0-1.4-0.7-2.1-1c-0.7-0.2-0.9-0.3-0.9-0.3
		c0,0,0-0.6-0.3-0.9c-0.3-0.3-0.8-0.4-1.1-0.3c-0.3,0-0.6,0.3-0.6,0.3c0,0-2.5-0.3-3.5-0.3c-1,0-1.1-0.1-1.1-0.1c0,0-2.2-0.7-3-0.8
		c-0.9,0-1.1-0.1-1.1-0.1s0.9-1.2,0.9-2.5c0-1.3-0.7-2.3-1.6-2.7c-0.5-0.2-0.8-0.2-0.9-0.3c0-0.3,0-0.6,0-0.9c0.5,0,1.1,0,1.6-0.1
		c0-0.9,0.1-1.8,0.1-2.7c-0.5,0.1-1.1,0.3-1.6,0.4c0.1-0.6,0.1-1.1,0.2-1.7c-1.1,0.1-2.2,0.3-3.4,0.4c0.1,0.5,0.2,1.1,0.2,1.6
		c-0.5,0-1.1,0.1-1.6,0.1c0,0.9,0.1,1.7,0.1,2.6c0.6-0.2,1.1-0.3,1.7-0.5c-0.1,0.3-0.1,0.7-0.2,1c0,0-0.6,0.2-1.1,0.7
		c-0.9,0.7-1.6,1.8-1.6,3c0,1.2,0.8,2.2,0.8,2.2c0,0-0.2,0.1-1.1,0.4c-0.9,0.3-3,1.7-3,1.7c0,0-0.1,0.1-1.1,0.4
		c-1,0.3-3.5,1.3-3.5,1.3c0,0-0.3-0.1-0.6-0.1c-0.3,0-0.9,0.3-1.1,0.6c-0.2,0.4-0.3,1-0.3,1c0,0-0.2,0.1-0.9,0.5
		c-0.7,0.4-2.2,1.6-2.2,1.6c0,0-0.5-0.1-0.9,0.1c-0.4,0.2-0.9,0.7-1.1,1.3c-0.2,0.7,0.2,0.9,0.2,0.9c0,0-0.3,0.4-0.9,1.2
		c-0.5,0.9-0.5,1.4-0.5,1.4c0,0-0.2,0-0.5,0.2c-0.3,0.1-0.8,0.6-0.8,1.5c0,1,0.6,1.1,0.6,1.1c0,0,0,0.1,0,0.6c0,0.5,0.3,1.1,0.6,1.3
		c0.3,0.2,0,0.4-0.2,1c-0.2,0.6-0.1,1.3,0.2,1.8c0.3,0.4,1.1,0.6,1.1,0.6c0,0,0,0.2,0.4,0.5c0.5,0.3,1.6-0.1,1.6-0.1
		s-0.2-0.1,1.6,0.6c1.9,0.7,1.7,2.2,1.7,2.2c0,0-1.1,1-1.1,1.5c0.1,0.5,0,0.7,0.5,0.8c0.6,0.1,1.1,0.2,1.1,0.2c0,0,0.4,1.3,0.6,2
		c-0.7,0.6-1.9,1.5-3.2,2c-1.8,0.8-3.7,0.6-3.7,0.6c-2.4-1-5.4-1.6-8.1-0.7c-2.3,0.8-3.1,3.4-3.1,3.4c0,0-0.6-0.2-2.4-0.1
		c-1.7,0-3.4,1-4.2,2.3c-0.8,1.3-1.1,3.2-0.6,4.8c0.4,1.6,1,0.4,1.6-0.4c0.6-0.8,1.6-1.6,3.4-1.3c1.7,0.3,3.5,1.8,3.6,1.9
		c-0.1,0-0.3-0.1-2.2-0.2c-2.2,0-4.1,0.8-5.4,1.4c-1.4,0.6-2.5,0.8-3.9,0c-1.4-0.8-1.4-2.6-1.4-3.3c0-0.7-0.8-0.3-1,0.1
		c-0.3,0.4-1.8,2.9-0.6,5.2c1.2,2.3,3.7,2.4,6.1,2c2.4-0.4,5.5-1.9,5.5-1.9c0,0-0.1,0.4,1.6,1.7c1.7,1.4,3.8,1.5,5.3,1.3
		c1.5-0.2,2.9-1.3,2.9-1.3c1,0.7,1.6,2.3,1.8,3.5c0.1,0.8,0.1,1.6,0.8,1.5c0.8-0.1,2-1.6,2-1.6c0,0,0.1,0.3,0.2,1.3
		c0.2,0.9-0.1,3.5-0.3,4.3c-0.3,0.8-0.8,1.6,0,1.7c0.7,0,1.6-0.4,2-0.5c0,1.9-0.4,3.1-1.5,4.7c-0.1,0.2-0.2,0.3-0.2,0.4
		c-0.4-0.1-0.9-0.3-1.3-0.4c-2.8,3.7-5.7,7.5-8.5,11.2c0,0,3.1,3.1,2.9,11c0,0,0-0.1,0-0.1c-0.1,0-0.3,0-0.6,0c-0.7,0-1-0.4-1.7-1
		c-0.7-0.6-0.8-1.7-1.5-2c-0.7-0.3-2.8,0.1-4.4,0.3c-1.6,0.2-3.5-0.1-3.8-1.7c-0.3-1.6,0.1-2.4,2.1-4c2.1-1.7,3.7-3.4,3.8-6.4
		c0.1-3-1.8-4.7-5.3-8.2c-3.5-3.5-5-7-5.5-7.8c-0.5-0.8-0.7-0.5-1.1,0.3c-0.4,0.7-0.9,2.1-0.9,2.1c0,0-1.1-0.5-4-5.3
		c-2.8-4.8-3.6-8.7-4.1-10.8c-0.2-1.4-0.8-0.6-1.2-0.2c-2.3-6.3-2.2-14.3-2.8-20.5c0,0-2.3,2.5-3.6,7c-1.2,4.1-1.1,8.8-0.8,12.9
		c0.4,3.9,1.1,6.2,1.6,7.1c0.6,1.5-0.3,0.7-0.3,0.7c0,0-2-3.2-3.3-9.6c-1.4-6.4-1.2-11-1.2-11c0,0-0.8,0.7-1.7,2.7
		c-0.9,2-1.8,5.7-1.5,12.4c0.3,6.6,2.8,13.4,4.1,15.6c1.3,2.2,0.1,1-0.4,0.3c-0.4-0.7-2.8-4-3.9-7.1c-1.2-3-3.2-9.3-3.4-10.4
		c-0.1-1-0.5-0.3-1,0.6c-0.4,0.9-1.3,4-1.3,6.1c0.1,2.1,0.4,5.7,1.8,9.3c1.4,3.5,4,7,5.4,8.4c1.3,1.5,0.2,0.8-0.4,0.4
		c-0.6-0.4,0.1,0.1-2.6-2.5c-2.7-2.5-6-8.9-6.4-9.8c-0.5-1-0.9,0.2-1,0.8c-0.1,0.6-0.4,3.8,1.6,9.1c2,5.2,7,8.9,9.6,10.5
		c2.6,1.5,0.8,0.8-0.6,0.2c-1.3-0.6-4-2.2-5.6-3.4c-1.6-1.2-4.6-4.5-5.4-5.1c-0.8-0.6-1-0.7-1,1.8c0,2.6,2.3,6.6,5,9.1
		c2.8,2.5,6.4,3.4,7.5,3.7c1.1,0.3,0.2,0.2-0.9,0c-1.2-0.2-3.1-0.6-5.3-1.5c-2.1-0.9-5.3-3.1-6.3-3.8c-1-0.7-0.9,0.4-0.6,1.8
		c0.3,1.4,1.1,3.9,5.1,6.8c4,2.9,9.7,3.9,11.4,4.2c1.6,0.3,0.5,0.4,0.5,0.4c0,0-0.6,0-4-0.4c-3.3-0.3-8.4-2.5-9.7-3.2
		c-1.3-0.7-1.6-1-1.4,0.8c0.2,1.8,2.1,5.4,5.2,6.9c3.1,1.5,8.6,1.8,10,1.7c1.4-0.1,1.1,0.1,0.4,0.3c-0.6,0.1-2.2,0.3-4.8,0.3
		c-2.1,0-5.3-0.7-6.4-1c-0.1-0.5-0.2-0.9-0.3-1.2c-0.1-0.7-0.5-0.5-0.7-0.3c-0.2,0.1-0.4,0.3-1.1,0.8c-0.8,0.4-0.8,0-0.8-0.3
		c0-0.2-0.1-1.2-0.2-1.7c0-0.5-0.3-0.5-0.7-0.3c-0.4,0.2-2.1,1.1-2.7,1.4c-0.7,0.3-0.1,0.8,0.3,1.3c0.3,0.6,0.9,1.4,0.8,1.4
		c0,0-1.6,0.6-2.1,0.8c-0.5,0.2-0.4,0.5-0.2,0.9c0.1,0.3,0.9,2.1,1.1,2.6c0.2,0.5,0.7,0.1,0.7,0.1c0.5-0.4,1.1-0.7,1.6-1.1
		c0.2,0.7,0.4,1.4,0.5,2.1c0,0-0.7,0.2-1.5,0.9c-0.8,0.6-0.6,1.4,0.4,1.6c1,0.1,2.1,0.6,3.4,2.7c1.3,2.1,1.6,6.2,2.3,12.6
		c0.8,6.4,4.9,9.2,5.5,9.6c0.6,0.3,0.2,0.7,0.2,0.7c0,0-0.6,0.9-0.3,2.1c0.2,1.2,1.3,1.8,1.9,2c0.6,0.2,0.4,0.8,0.4,0.8
		c0,0-0.3,1.4,0,3.9c0.3,2.5,2.4,5.1,2.9,5.5c0.6,0.4,0.6,0.7,0.5,0.9c-0.1,0.2-0.4,0.1-1.1,0.7c-0.7,0.6-1.5,1.4-2,2.4
		c-0.4,0.9-0.3,1.5-0.2,2.7c0.2,1.2,1.9,2.1,1.9,2.1c0,0-0.3,0.1-0.4,1c-0.1,0.9,0.6,1.8,1.4,2.4c0.8,0.6,2.3,0.7,2.3,0.7
		c0,0,0.1,0.8,0.2,1.3c0.1,0.5,1.1,0.9,1.7,1.2c0.6,0.3,1.9-0.1,2.4-0.4c0.5-0.3,0.9-0.1,1.2,0.4c0.3,0.5,0.2,2.5,0.2,3.3
		c0,0.8-0.5,1.7-0.2,2.1c0.3,0.4,1.1,0,1.8-0.5c0.8-0.6,1-0.2,1.7,0.1c0.7,0.4,1.8,0.6,2.1,0.6c0.3-0.1,0.1-0.8,0.1-1.4
		c0-0.6,0.1-2,0.4-2.2c0.1-0.1,1.3-0.3,2.2-0.8c0.4-0.2,0.9-0.5,1-0.9c0.1-0.4-0.6-0.3-1.9-0.9c-1.3-0.5-1.6-0.9-2.4-1.4
		c-0.8-0.5-0.4-0.7-0.4-0.9c0-0.3,0.4-0.6,0.6-1c0.2-0.4,0.1-1.1,0.1-1.1c0,0,0.7-0.8,1-1.2c0.3-0.4,0.8-1,1.2-1.5
		c0.4-0.4,1.1-2.2,1.6-2.8c0.4-0.6,1.5-1.4,2.1-2.2c0.6-0.9,2.2-2.3,3.2-3.1c0.9-0.7,3.5-2.2,3.5-2.2c0,0-0.1,1.5,0.6,2.1
		c0.6,0.7,1.5-0.8,4.4-3.2c2.9-2.4,5-3.4,5-3.4c0,0,0.6,0.9,1.4,1.7c0.8,0.9,1.5-0.2,5-5.6c2.8-4.2,6.5-8.2,7.8-9.7
		c0.3,0.1,0.5,0.1,0.8,0.2c-0.1,0.2-0.1,0.4-0.2,0.7c-0.3,1-0.8,1.8-1.5,3.3c-0.7,1.5-1.7,2-2.9,4c-1.2,2.1-1.4,3.4-1.5,5.3
		c-0.1,2,0.9,2.2,0.9,2.2c0,0-1.8,2-2.3,3.3c-0.5,1.4-0.8,4-0.8,4c0,0-0.3,0.1-0.9,1.6c-0.6,1.5-1.8,1.8-3.5,3.7
		c-1.7,1.9-3.6,2.9-4.5,3.6c-0.9,0.6-0.6,1.1-0.4,1.8c0.3,0.6,1.5,1.2,2.9,1.5c1.4,0.3,1.9,0.1,2.9-0.1c1-0.2,0.2,0.7-0.2,1.2
		c-0.4,0.5-0.9,1.9-0.8,3.5c0.1,1.5,1.3,1,2.7,0.6c1.5-0.4,3.1-1.4,3.1-1.4c-0.1,0.2-0.1,0.3-0.2,0.5c-0.2,0.4-0.2,0.8-0.2,2
		c0,1.3,0.2,1.8,0.6,2.1c0.4,0.3,1.1-0.5,1.6-0.7c0.5-0.2,1.4-0.9,2.7-1.3c1.3-0.5,1.8-1.1,1.8-1.1c0,0-0.3,0.4-0.4,1.3
		c-0.1,0.9-0.1,2.2,0.1,2.9c0.2,0.8,0.8,1.6,1.7,2.3c0.9,0.7,1.1,0.3,1.7-0.8c0.7-1.1,2-2.6,2-2.6c0,0,0.1,0.3,1,3.1
		c0.9,2.7,3.8,4.7,3.8,4.7c0,0,2.9-2.8,3.8-5.8c0.9-3,0.9-3.3,0.9-3.3c0,0,1.3,1.1,2,2c0.7,0.9,0.9,1.3,1.8,0.3
		c0.9-0.9,1.4-1.9,1.7-2.8c0.2-0.8,0.2-2.1,0.1-3c-0.1-0.9-0.4-1.2-0.4-1.2s0.5,0.5,1.8,0.6c1.3,0.1,2.2,0.5,2.7,0.6
		c0.5,0.1,1.2,0.7,1.6,0.3c0.3-0.3,0.6-1,0.6-2.2c0-1.3-0.1-1.6-0.2-2c-0.1-0.1-0.1-0.3-0.2-0.4c0,0,1.7,0.5,3.1,0.5
		c1.5,0,2.6,0.2,2.7-1.3c0.1-1.6-0.4-2.9-0.8-3.3c-0.4-0.4-1.2-1-0.2-1.1c1-0.1,1.5,0,2.8-0.7c1.4-0.7,2.6-1.6,2.9-2.3
		c0.3-0.7,0.5-1.3-0.4-1.7c-0.9-0.4-2.8-0.9-4.5-2.3c-1.7-1.5-2.9-1.5-3.5-2.8c-0.7-1.2-0.9-1.3-0.9-1.3c0,0-0.3-2.6-0.8-3.8
		c-0.5-1.2-2.3-2.7-2.3-2.7c0,0,1.1-0.6,1-2.5c-0.1-1.9-0.3-3.2-1.5-4.9c-1.2-1.7-2.3-1.9-3-3.2c-0.7-1.3-1.2-1.9-1.5-2.9
		c-0.1-0.2-0.1-0.4-0.2-0.6c0.3-0.2,0.7-0.4,1-0.6c1.4,1.1,5.1,4.1,7.9,7.6c3.5,4.4,4.2,5.3,5,4.2c0.8-1.1,1.4-2.1,1.4-2.1
		c0,0,2.2,0.4,5,2.1c2.8,1.7,3.7,2.8,4.4,2c0.3-0.4,0.4-1.1,0.4-1.6c0,0,1.7,0.3,3.6,0.7c1.1,0.2,2.4,0.6,3.3,0.9
		c2.5,0.7,2.8,1.3,4.7,2.6c2,1.3,4.8,0.8,7.5-0.3c2.7-1.2,9.8-4.3,12.6-5.8c2.8-1.5,4.9-2.8,5.2-3.4c0.3-0.6,0.6-2.3,0.6-2.8
		c0-0.6-0.6-1.4-0.8-1.5c-0.2-0.1-0.1-0.6,0-0.9c0-0.4-0.1-1.5-0.6-1.9c-0.4-0.5-0.4-0.6-0.3-2c0.1-2.9-2-6.4-4.9-7.3
		c0,0,0-0.3-0.3-0.5c-0.2-0.2-0.6-0.3-0.6-0.3c0,0,0-1.7,0-2.1c0-0.4,0.2-0.3,0.3-0.3c0.2,0.1,0.5,0.5,1,0.5c0.5,0,0.8-0.3,0.9-0.9
		c0.1-0.5,0.5-1.7,0.7-2.2c0.2-0.5,0-0.6-0.2-0.6c-0.2,0-0.9,0-1.3-0.1c-0.3-0.1-0.3-0.1-0.3-0.2c0.1-0.2,0.2-0.5,0.7-1.2
		c0.4-0.8,0-0.7-0.4-0.8c-0.4-0.1-2.3-0.4-2.8-0.5c-0.5,0-0.6,0.4-0.6,0.7c0,0.2,0,1.2,0,1.5c0,0.4-0.3,0.3-0.5,0.2
		c-0.2-0.1-0.6-0.3-1-0.5c-0.3-0.3-0.6,0-0.8,0.4c-0.1,0.4-0.6,2.1-0.7,2.6c-0.1,0.5-0.1,0.9,0.1,0.9c0.2,0,1.1-0.1,1.7-0.2
		c0.6-0.1,0.3,0.3,0.3,0.3s-0.6,1-0.8,1.4c-0.2,0.4-0.5,0.5-1,0.6c-0.5,0.1-1.2,0.1-1.2,0.1c0,0-3.1,0.5-5.4,2.4
		c-2.3,2-2.9,3.5-3.2,4.3c-0.4,0.9-0.8,0.8-1.1,1.1c-0.4,0.3-1.3,1.5-1.3,2.2c0,0.6,0.2,0.9-0.8,1.7c-1,0.8-1.8,3.6-0.5,4.9
		c1.3,1.3,1.8,2.7,2.2,3.4c0.4,0.6,0,1-0.3,1c-0.3,0-1.1-0.5-1.7-0.8c-0.6-0.4-3.7-2.4-5-3.2c-1.3-0.8-0.3-0.8-0.3-0.8
		c0,0,0.3,0,1.1-0.4c0.7-0.4,0.9-0.9,0.1-1c-0.8-0.1-2.3-0.8-2.7-1.2c-0.4-0.4-0.6-0.8,0.2-1.3c0.8-0.5,2.4-1.8,1.1-2
		c-1.3-0.2-2.9-0.3-4.2-0.4c-1.3-0.2-1.4-0.6-1.4-0.6c0.3-0.4,0.6-0.9,0.8-1.3c0,0,0.7-1.1-0.1-1.1c-0.8,0-2.8,0-4.5-0.6
		c-3.5-1-5.8-3.4-6.6-6.4c0,0,0-0.1,0-0.1c0.7,1.2,2.2,3.5,4.6,3.2c3.2-0.3,3.5-1.4,2.8-2.3c-0.7-1-1.6-1.8-1.8-2.1
		c-0.2-0.3-0.3-0.7,0.6,0c0.8,0.7,2.4,3.1,7.2,2.2c4.8-1,4.8-1.9,4.8-2.1c0-0.9-1-1-1.6-1.4c-0.3-0.3-0.5-0.7,0.5-0.4
		c1,0.2,3.4,0.4,6.6-0.7c1.3-0.4,4.7-2.3,5-4.1c0,0-2.2,0.2-3.7-0.3c-1.5-0.4-2.4-0.9-0.8-0.7c1.6,0.1,4.7,0.3,7.4-0.9
		c1.6-0.7,3.7-2.2,3.7-4.6c0,0-3-0.3-4.1-0.6c-1.1-0.3-1.4-0.5-1.4-0.5c0,0,4.2,0.9,8.1-1.5c3.9-2.4,4-5.1,4-5.7
		c0-0.6-0.1-0.8-0.1-0.8c0,0-3.5,1.2-6.1,1.5c-2.6,0.3-3.4,0.1-3.4,0.1c0,0,7.3-1.1,11-3.7c3.7-2.6,3.9-7.1,3.9-7.1
		c0,0-4.2,1.9-6.8,2.5c-2.6,0.6-4.2,0.8-4.9,0.8c-0.6,0-1-0.1,0.4-0.3c1.4-0.2,7-1.8,10.1-3.9c3.1-2.1,5-6.1,5.2-7.9
		c0.2-1.8,0-1.5-1.4-0.5c-1.3,1-6.4,4.2-9.7,5.3c-3.3,1.1-4,1.3-4,1.3C300.3,150.3,299.2,150.4,300.8,149.8 M169.4,175.1
		c-0.4,0.2-1.5,1-1.5,1c0,0-0.6-1.2-0.7-1.5c-0.2-0.3-0.1-0.5,0.1-0.5c0.2,0,0.8-0.3,1.3-0.3c0.1,0,0.1,0,0.2-0.1
		C169,174.2,169.2,174.6,169.4,175.1C169.4,175.1,169.4,175.1,169.4,175.1 M214.2,195.9c-0.9,1.8-3.3,3.9-5.1,4.8
		c-1.8,1-3.7,1.5-4.5,1.8c-0.8,0.2-0.1,1.1-0.1,1.1c0.3,0.4,0.6,0.7,0.9,1.1c0,0-0.1,0.4-1.4,0.9c-1.3,0.5-2.8,1-4.2,1.6
		c-1.3,0.5,0.4,1.4,1.1,1.7c0.8,0.3,0.6,0.8,0.2,1.2c-0.4,0.5-1.9,1.5-2.7,1.8c-0.8,0.4-0.7,0.8,0.1,1c0.7,0.2,2.9,0.3,2.9,0.3
		c0,0,0,0.1-1.4,1.2c-1.3,1.1-3.5,2.1-5,2.3c-1.5,0.3-3.9,0.7-6.9,0.9c-3,0.2-3.3,0.2-3.3,0.2c0,0-0.1-1-0.3-2.4
		c-0.2-1.5-1.1-3.4-1.8-4.4c-0.7-0.8-2.2-2.6-2.2-2.6c0,0,0.1-0.4,0.1-0.9c0.1-0.5,0.1-1-0.3-1.9c-0.4-0.9-2.1-2-2.1-2
		c0,0-0.1-1-0.1-1.9c0-0.9-0.6-4.4-1.2-6c-0.5-1.6-3.3-5.7-4.6-7.7c-1.3-2-2-5-2.4-7.4c-0.4-2.4-0.2-3.2-0.1-3.9
		c0.1-0.3,0.2-0.5,0.3-0.8c0.5,0.6,1.2,1.2,2,1.6c3.7,1.9,11,1.2,11,1.2c0,0-0.8,0.3-3.4,0.6c-2.6,0.3-6.1-0.1-6.1-0.2
		c0,0-0.1,0.2-0.1,0.8c0,0.6,0.2,3.2,4,4.8c3.8,1.5,8.1-0.3,8.1-0.3c0,0-0.4,0.3-1.4,0.9c-1.1,0.5-4.1,1.5-4.1,1.5
		c0,2.4,2.1,3.4,3.6,3.8c2.7,0.6,5.8-0.4,7.4-0.9c1.6-0.5,0.7,0.1-0.8,0.9c-1.5,0.8-3.6,1.2-3.6,1.2c0.3,1.7,3.7,2.8,5,2.9
		c3.2,0.3,5.6-0.4,6.6-0.9c0.9-0.5,0.8,0,0.5,0.3c-0.6,0.6-1.5,0.9-1.5,1.8c0,0.3-0.1,1.2,4.8,0.9c4.8-0.3,6.4-3.2,7.2-4.1
		c0.8-0.9,0.8-0.5,0.6-0.1c-0.2,0.4-1.1,1.4-1.8,2.6c-0.7,1.1-0.4,2.1,2.8,1.5c2.3-0.4,3.9-3.1,4.6-4.5c0,0,0,0,0,0.1
		c0.1,0.1,0.1,0.1,0.1,0.2C215.3,193.4,214.8,194.8,214.2,195.9 M253,86.6c-0.4-0.7-0.7-1.1-0.7-1.1c0,0,1.8,0.6,2.9,1.7
		c1.1,1.1,1.1,1.7,1.2,2.3c0.1,0.5,0,1.7-0.1,2.7c-0.2,1-0.2,1.7,0,2c0.2,0.3,0.4,0.5,0.4,0.5c0,0-0.8,0.3-1.5,0.7
		c-0.8,0.4-1.8,0.8-2.3,0.4c-0.5-0.4-0.7-0.7-0.3-1c0.3-0.3,1.6-0.9,1.8-3.1C254.5,89.5,253.4,87.4,253,86.6 M243.1,94
		c0.4-1.1,0.6-2.1,0.3-4.2c-0.3-1.8-0.6-3.3-0.7-5.2c0,0,1.4,0.1,3.3,1.6c1.9,1.5,2.3,3.2,2.3,4.1c0,0.9-0.5,2-0.5,2.9
		c-0.1,0.9,0.2,1.6,0.2,1.6c0,0-0.7,0.4-1.3,0.9c-0.6,0.5-1.1,0.9-2.1,1c-1,0.1-1.6-0.3-2.1-0.5c-0.6-0.2-0.9-0.2-0.9-0.2
		C241.6,95.9,242.7,95.1,243.1,94 M233.7,87.9c1.9-2,3.3-2.5,3.3-2.5c-0.1,2-0.4,3.6-0.7,5.4c-0.4,2.2-0.2,3.2,0.2,4.1
		c0.4,1,1.5,1.5,1.5,1.5c0,0-0.4,0.1-0.9,0.5c-0.6,0.3-1.2,0.9-2.1,1.1c-1,0.2-1.4,0-2-0.4c-0.6-0.3-1.3-0.6-1.3-0.6
		s0.3-0.7,0.2-1.6c-0.1-0.8-0.5-1.8-0.5-2.7C231.4,91.7,231.9,89.9,233.7,87.9 M226.8,99.5c-0.5,0.5-1.6,0.4-2.3,0.2
		c-0.8-0.2-1.6-0.3-1.6-0.3s0.2-0.2,0.4-0.6c0.2-0.4,0.2-1,0-2c-0.1-1-0.3-2.1-0.1-2.7c0.1-0.7,0.1-1.3,1.2-2.6
		c1.1-1.3,2.9-2.5,2.9-2.5c0,0-0.2,0.5-0.7,1.3c-0.4,0.9-1.5,3.3-1.3,5.5c0.2,2.2,1.4,2.4,1.8,2.6C227.5,98.6,227.4,99,226.8,99.5
		 M252.4,114.4c-1.9,1.3-3,1.2-2.9,2c0.1,0.8,1.8,1.1,1.8,1.1c0,0-1.7,2.1-3.1,3.1c-1.3,1-2.9,1.8-2.9,1.8c0,0-0.5,0.1-0.3,1
		c0.3,0.8,0.9,1.3,1.3,1.5c0.5,0.1,0.7,0.2,0.7,0.2c0,0-2.3,2.9-3.4,3.8c-1,1-1.6,1.3-2.5,1.8c-0.8,0.5-0.4,1.8-0.2,2.4
		c0.2,0.6,0.9,1.3,1.4,1.4c0.4,0.1,0.6,0.4,0,1.3c-0.4,0.7-1.8,2.6-2.4,3.6c0,0,0,0,0,0c-0.6-0.8-2-2.3-2.4-2.9
		c-0.5-0.8-0.4-1.1,0.1-1.3c0.4-0.2,1.1-1.1,1.3-1.8c0.2-0.6,0.6-2.1-0.2-2.3c-0.9-0.2-1.4-0.4-2.5-1.1c-1-0.7-3.4-2.9-3.4-2.9
		c0,0,0.2-0.1,0.6-0.4c0.4-0.3,1-1,1.3-1.8c0.3-0.9-0.2-0.9-0.2-0.9c0,0-1.6-0.3-3-1c-1.3-0.7-3.1-2.3-3.1-2.3c0,0,1.7-0.8,1.8-1.6
		c0.1-0.8-1-0.4-2.9-1.2c-1.9-0.8-2.5-2-2.5-2c0,0,2.2-1.1,3.3-3.4c0.4-0.8,0.5-1.6,0.5-2.2c0,0,0,0,0.1,0c3.5,0.7,7.6,0.5,11.3,0
		c3.7-0.5,7.8-1.5,11.3-3.2c0,0,0.1,0,0.1-0.1c-0.1,0.6,0.1,1.3,0.4,2.1c1.1,2,3.3,2.5,3.3,2.5C254.9,111.7,254.3,113.1,252.4,114.4
		"/>
	<path fill="#B51F33" d="M213.6,122.8c-0.7-0.3-2.7-1-4.8-0.8c-2.2,0.1-3.8,0.6-5.5,1.3c-1.3,0.5-2.3,0.7-3.3,0.6
		c-1.5-0.2-2.7-1.4-3.1-3.1c0,0-1.4,2,0,3.8c0.7,0.8,1.6,1.3,2.5,1.4c3,0.2,5.9-2,8.4-2.5c2.4-0.4,4.3,0.8,4.3,0.8
		c0,0,0.6,0.4,1.3-0.2C214.1,123.5,214.3,123.1,213.6,122.8"/>
	<path fill="#B51F33" d="M282.9,109.1c-0.4,1.8-1.6,3.3-3.1,3.9c-1,0.4-2.1,0.5-3.3,0.3c-1.8-0.2-3.4-0.3-5.5,0.1
		c-2.1,0.4-4.1,1.6-4.8,2.1c-0.7,0.5-0.5,0.9,0.3,1.2c0.8,0.4,1.4-0.2,1.4-0.2c0,0,1.8-1.7,4.2-1.9c2.5-0.2,5.4,1.2,8.4,0.3
		c0.9-0.3,1.8-1,2.5-2C284.3,110.7,282.9,109.1,282.9,109.1"/>
	<path fill="#CDAE41" d="M263.9,155.4c0-5.9,2.7-10.1,2.7-10.1c-2.5-2.5-4.9-5-7.4-7.5c-7.1,3.7-13.6,4.8-19.4,2.7
		c-5.8,3.7-12.3,4.5-19.3,2.7c-2.5,3.2-5,6.3-7.4,9.5c0,0,2.7,3.4,2.7,9.3c0,5.9-1.1,10.5-1.8,13.5c-0.7,3-1.2,8.4,0.3,12
		c1.5,3.6,3.2,6.8,9.8,8.6c6.6,1.9,10.1,2.8,12.4,4.4c2.3,1.6,3.4,3,3.4,3c0,0,1.2-1.7,3.5-3.9c2.3-2.2,5.7-4.2,12.3-7.9
		c6.6-3.7,8.2-7.2,9.8-11.3c1.6-4.1,1-9.3,0.3-12.1C265.1,165.6,263.9,161.3,263.9,155.4"/>
	<path fill="#CDAE41" d="M206.9,210.7c0,0-2.4,1.5-3.2,1.8c-0.7,0.3-0.9,0.3-0.9,0.3c0,0-1.6,1.7-2.8,2.6c-1.2,0.9-2.7,1.6-4.2,1.9
		c-1.9,0.4-7,1-9.4,1.2c-2.3,0.2-3.7,0.9-4.7,2.1c-1,1.2-1.3,2.9,0,3.9c1.3,1.1,2.7,0.3,3.1-0.5c0.5-0.8,0.2-1.8,0-2.2
		c-0.2-0.4,0.4-0.6,1.1-0.7c0.6-0.1,1.7-0.2,2.8-0.1c0.9,0,2.7,0.4,3.5,0.7c0.8,0.3,0.3,0.4-0.2,0.4c-0.5,0-1.1-0.2-2-0.4
		c-0.9-0.2-1.7-0.3-2.3-0.3c-0.6,0-0.4,0.3-0.3,0.5c0.1,0.2,0.5,0.7,0.5,0.9c0.1,0.3-0.2,1.2-0.2,1.2c0.1,0.2,0.2,0.3,0.3,0.5
		c0,0,0.3-0.6,0.5-0.9c0.1-0.3-0.1-0.8,0.1-1.1c0.2-0.3,0.6-0.3,1,0.1c0.4,0.4,0.8,0.9,1,2c0.2,1.1-0.2,1.9-0.2,1.9s0.5,0.4,0.6,0.6
		c0.1,0.3-0.1,1.4-0.1,1.4s0.3,0.1,0.6-0.5c0.3-0.7,0.6-1.8,0.7-2.2c0.1-0.4,0.4-1.2,0.8-0.7c0.5,0.4,0.8,1.1,0.9,1.4
		c0.1,0.3,0.1,0.6,0.1,0.6c0,0,1.1-1.2,1.4-1.8c0.4-0.6,1.1-1.6,2.1-2.6c1-1,2.7-2.8,3.6-3.5c0.9-0.7,3-2.1,3.7-2.6
		c0.7-0.5,0.8-0.6,0.9-1.7c0.1-1.2,0.7-2.3,0.9-3.1C206.8,210.9,206.9,210.7,206.9,210.7"/>
	<path fill="#CDAE41" d="M205,210c0,0-0.3,0-0.7,0c-0.4,0-1.3-0.2-1.6-0.3c-0.3-0.1-0.7-0.1-0.9,0.3c-0.3,0.3-2.4,1.9-2.4,1.9
		c1.2-0.2,2.4-0.3,3.6-0.5C204.2,211.3,205,210,205,210"/>
	<path fill="#CDAE41" d="M215,208.1c0-0.1,0-0.2,0-0.4c-0.2-0.3-0.3-0.6-0.5-0.9c0,0-0.6,0.4-1.1,1c-0.7,0.8-1.4,1.9-1.7,2.4
		c-0.6,0.9-1.4,1.7-0.7,0.4c0.7-1.3,0.9-1.9,1.5-2.7c0.6-0.9,1-1.3,0.9-1.3c-0.1,0-0.5-0.1-2,0c-1.5,0-2.4-0.5-3.1-0.7
		c-0.7-0.3-1.9-0.8-1.9-0.8c0,0-2.5,1.4-3.5,1.7c-1,0.4-1.5,0.6-0.6,0.9c0.9,0.3,1.7,0.4,2.2,0.6c0.5,0.2,1.8,0.5,2.7,0.4
		c0.8-0.1,2.3-0.3,1.7,0.4c-0.6,0.7-1.2,1.9-1.8,3.7c-0.6,1.8-0.6,3.3-0.6,4.1c0,0.8,0.1,1.5,0.1,1.5c0,0,1-1.3,3.8-3.4
		c2.8-2.1,3.8-2.8,4.4-3.2c0.5-0.3,0.8-0.3,0.7-1C215.3,210,215,208.4,215,208.1"/>
	<path fill="#CDAE41" d="M225.6,198.2c-0.2,0-0.4-0.1-0.5-0.2c0,0-0.1,0.1-0.1,0.1c-0.3,0.2-2,1.6-2.7,2.8c-0.7,1.2-1.4,1.4-0.6,0.1
		c0.7-1.3,1.3-2,1.9-2.7c0.2-0.2,0.5-0.4,0.6-0.6c-1.4-0.5-2.8-1.1-4.3-1.9c-0.2,0.4-0.5,1.1-1,1.6c-0.6,0.7-1.9,1.4-1.9,1.4
		s1-1.2,1.4-2.1c0.2-0.6,0.4-1.1,0.5-1.5c-1-0.6-2-1.4-2.8-2.3c-0.1,0.7-0.7,2.5-2.4,4.6c-2.2,2.7-6.6,4.6-6.6,4.6
		c0,0-1.5,0.4-0.3,0.5c1.2,0.2,2.1,0.6,4.5-0.1c2.4-0.7,2.6-0.9,2.9-1c0.3-0.2,1.2-0.2,0,0.4c-1.2,0.6-4,1.4-5.1,1.5
		c-1.1,0-2.6,0-1,0.6c1.5,0.6,2.2,0.9,3.1,0.7c1-0.1,1.3,0.1,2.2,0c0.9-0.1,1.2-0.3,1.8-0.5c0.7-0.2,1.1,0,1.1,0.2
		c0,0.3-0.9,1.1-0.8,2.9c0,1.8,0.1,2.9,0.3,3.4c0.2,0.5,0.6,1.3,0.8,1.8c0.3,0.5,0.3,0.9,0.6-0.2c0.3-1.1,0.8-2.7,1.1-3.7
		c0.2-1,0.4-1,0.5-1.6c0.1-0.5,0.6-1,0.4,0c-0.2,1-0.6,2.2-0.7,3.1c-0.2,0.9-0.6,2.5,0.1,1.1c0.8-1.3,3.7-5,4.2-5.7
		c0.5-0.7,0.9-1.3,1.2-1.8c0.4-0.6,1.4-1.3,1.9-2.1c0.4-0.7,1.7-2.2,2.3-2.7C227.4,198.7,226.5,198.5,225.6,198.2"/>
	<path fill="#CDAE41" d="M168.5,172.2c0-0.2-0.5-0.8-0.5-1.2c-0.1-0.3-0.5-0.1-0.5-0.1c0,0-0.8,0.5-1.3,0.8c-0.6,0.2-0.7,0-0.7-0.3
		c0-0.3-0.2-1.2-0.3-1.8c-0.1-0.6-0.2-0.6-0.5-0.4c-0.2,0.1-0.9,0.4-1.4,0.7c-0.5,0.3-0.3,0.5-0.2,0.8c0.1,0.3,0.7,1.4,1,1.7
		c0.3,0.4,0,0.6-0.3,0.8c-0.3,0.2-0.7,0.3-1.3,0.5c-0.6,0.2-0.6,0.4-0.5,0.6c0,0.2,0.5,0.9,0.7,1.3c0.2,0.3,0.4,0.1,0.4,0.1
		c0,0,0.6-0.6,1.1-1c0.5-0.3,0.6-0.2,0.7,0.2c0.2,0.4,0.7,2.4,0.9,2.7c0.1,0.4,0.3,0.3,0.6,0.2c0.3-0.1,0.6-0.3,0.9-0.4
		c0.3-0.1,0.4-0.7,0.4-0.7c0,0-1.2-2-1.5-2.5c-0.3-0.5,0-0.6,0.3-0.7c0.2,0,0.9-0.2,1.5-0.4C168.7,172.7,168.5,172.4,168.5,172.2"/>
	<path fill="#CDAE41" d="M181.5,227.1c-0.1-0.5,0-1-0.4-1.3c-0.4-0.4-0.9-1.1-1-1.6c-0.2-0.6,0.2-0.9,0.1-1.3
		c-0.1-0.3-0.5-0.3-1,0.2c-0.5,0.4-1.1,0.8-1.1,2c0,1.1,0.4,2.4,2,2.7C181.6,228,181.6,227.6,181.5,227.1"/>
	<path fill="#CDAE41" d="M183.1,226.4c0,0-0.3-0.2-0.5,0.1c-0.2,0.4-0.1,0.5,0.3,1.1c0.4,0.6,0.7,0.7,1.1,1c0.5,0.2,0.2-0.3,0.1-0.5
		c-0.1-0.2,0-0.4-0.1-0.5c-0.1-0.1-0.2-0.3-0.2-0.8C183.9,226.3,183.1,226.4,183.1,226.4"/>
	<path fill="#CDAE41" d="M185,231.5c0.3-0.5,0.5-0.6,1.3-1.1c0.7-0.4,2-0.7,2.5-0.8c0.4-0.1,1.4-1,1.2-1.9c-0.1-0.9-0.8-1.1-1.3-1.2
		c-0.6,0-1.1,0-1.2,0.3c-0.2,0.3-0.5,0.7-1.1,1c-0.6,0.2-0.7,0.5-1.1,0.7c-0.4,0.1-0.1,0.4-0.4,0.6c-0.3,0.3-0.7,0.1-1.3,0
		c-0.5-0.1-0.5-0.1-1.1-0.1c-0.6,0-2,0.1-2,0.1s-0.1,0-0.4,0c-0.3,0-0.4,0.1-0.5,0.5c-0.1,0.3,0,1.3,0.4,1.6
		c0.3,0.4,1.5,0.5,2.2,0.7c0.8,0.1,1.2,0.1,1.8,0.2C184.6,232.1,184.7,232,185,231.5"/>
	<path fill="#CDAE41" d="M192.1,231.3c0.6-0.5,0.3-1.2,0.1-1.6c-0.1-0.4-1-0.4-1.4-0.3c-0.4,0.1-0.7,0.1-0.9,0.3
		c-0.2,0.2-0.6,0.6-1.2,0.8c-0.7,0.3-1.2,0.6-2,1c-0.9,0.5-1.2,1.1-1.5,1.4c-0.4,0.3-1.1,0.1-1.1,0.1s-0.5-0.1-0.7,0.1
		c-0.2,0.1,0,0.4,0.3,0.8c0.4,0.3,1,0.2,1.8,0.3c0.8,0.2,0.9,0,1.2-0.3c0.3-0.2,0.5-0.7,1-1.1c0.5-0.4,1.7-0.6,2.2-0.7
		C190.5,232.1,191.5,231.8,192.1,231.3"/>
	<path fill="#CDAE41" d="M192.1,228.7c0.3,0.2,0.6,0.5,0.8,0.1c0.2-0.4,0.6-1.3,0.4-1.7c-0.3-0.4-0.6-0.8-0.6-0.8
		c0,0-0.4,1.4-0.6,1.8C191.8,228.4,191.8,228.4,192.1,228.7"/>
	<path fill="#CDAE41" d="M189.7,224.9c0-0.8-0.5-1.6-0.5-1.6c0,0-0.2,0.7-0.5,1.4c-0.4,0.6-0.7,1-0.7,1c0,0,0.8,0.1,1.1,0
		C189.4,225.7,189.7,225.6,189.7,224.9"/>
	<path fill="#CDAE41" d="M185.4,227c0.8-0.3,1.2-0.6,1.6-1c0.4-0.3,0.6-1.1,0.4-1.5c-0.2-0.4-0.8-0.7-1.1-0.7c-0.1,0-0.3,0-0.4,0.1
		c0,0-0.2,0.8-0.6,1.2c-0.3,0.4-0.7,0.7-0.7,1.2C184.6,226.8,184.5,227.3,185.4,227"/>
	<path fill="#CDAE41" d="M187,223.1c0-0.4-0.1-0.8-0.4-1c-0.3-0.2-0.4-0.4-0.4-0.4c0,0-0.1,0.6-0.1,0.9c0,0.3-0.1,0.4-0.1,0.4
		c0,0,0.3,0.2,0.5,0.3C186.6,223.4,187,223.5,187,223.1"/>
	<path fill="#CDAE41" d="M176.9,203.5c0,0,1-0.1,0.5-3.5c-0.4-3.4-2.2-6.5-3.6-8.6c-1.4-2.1-2.9-5.5-3.6-7.3
		c-0.6-1.8-1.1-4.3-1.1-5.7c0-1.4,0.6-2.1,0.6-2.1c0,0,0.2-0.4,0-0.6c-0.3-0.2-0.6,0-1,0.4c-0.3,0.4-0.7,1.1-0.9,1.6
		c-0.2,0.5-0.2,0.7-0.2,0.7c0,0-0.7-0.1-1.9,0.1c-1.2,0.2-1.7,0.4-1.8,0.6c0,0.3,0.2,0.4,1,0.7c0.9,0.3,1.4,0.4,1.8,0.8
		c0.4,0.5,1.5,2.9,1.8,4.1c0.4,1.2,1,4.4,1.3,7c0.3,2.6,1.2,5.6,2.4,8.2C172.8,200.6,175,204.5,176.9,203.5"/>
	<path fill="#CDAE41" d="M179,209.3c-0.8,0.5-0.8,3.8-0.4,5.5c0.3,1.7,2,3.6,2.5,4.1c0.5,0.5,0.6,0.5,0.9,0.3
		c0.2-0.2,0.4-0.2,0.4-0.2c0,0,0.7-0.3,1.2-0.8c0.6-0.5,0.3-1.6,0.2-2.4c-0.1-0.9-0.8-2.7-2.1-4.7
		C180.5,209.1,179.8,208.8,179,209.3"/>
	<path fill="#CDAE41" d="M179.9,206.6c0-1.1-0.9-1.8-2-1.7c-0.5,0.1-1,0.2-1.2,0.5c-1.1,1.1-0.4,3.5,1.1,3.3
		c0.6-0.1,1.2-0.2,1.6-0.7C179.8,207.7,179.9,207.1,179.9,206.6"/>
	<path fill="#CDAE41" d="M195.4,235.4c-0.4,0-0.7-0.2-1.3-0.5c-0.7-0.4-1.7-1.1-1.8-1.5c-0.2-0.4-0.2-0.4-0.8-0.2
		c-0.6,0.2-1.5,0.4-2.1,0.4c-0.6,0.1,0.1,0.8,0.5,1.4c0.5,0.6,0.3,2.9,0.3,2.9c0,0,0,0.2-0.1,0.5c-0.1,0.3,0,0.5,0.1,0.6
		c0.2,0,0.3-0.1,0.7-0.7c0.5-0.6,1.3-2.1,1.3-2.1c0,0,0.2,0,0.8,0.1c0.7,0.1,1.8-0.2,2.4-0.4C196.1,235.9,195.8,235.5,195.4,235.4"
		/>
	<path fill="#CDAE41" d="M192.7,237.5c-0.3,0-0.5,0-0.6,0.2c-0.1,0.2-0.3,0.6-0.4,0.8c-0.1,0.2,0,0.4,0.1,0.5
		c0.2,0.1,0.4,0.3,0.4,0.3c0,0,0.2,0.3,0.5,0.3c0.2,0.1,0.3-0.3,0.3-0.6c0-0.3,0.2-0.8,0.2-1.1C193.3,237.7,193,237.6,192.7,237.5"
		/>
	<path fill="#CDAE41" d="M185,128.1c0.1,1.8,2.1,5,3.2,6.7c1.1,1.7,1.4,2.4,1.3,2.5c-0.2,0.2-0.7-0.7-1.3-1.5
		c-0.6-0.7-1.8-2.5-2.8-3.8c-1.1-1.3-2.5-4.6-2.7-4.9c-0.2-0.3-0.2-0.5-0.8,0c-0.5,0.4-1.5,4.4-0.3,6.8c1.2,2.4,2.9,4.1,3.7,4.9
		c0.8,0.8,1.7,2.1,1.6,2.3c-0.2,0.1-0.4-0.2-1.3-1c-0.9-0.8-2.4-2.3-3.4-3.3c-0.8-0.9-1.9-2.7-2.2-3.3c-0.1-0.2-0.3-0.1-0.5,0
		c-0.3,0.4-0.8,1.2-0.6,3.2c0.3,2.8,1.8,4.3,3.1,5.6c1.3,1.3,2.6,2.3,2.5,2.6c-0.2,0.2-1.6-0.8-2.5-1.6c-0.9-0.8-3.2-2.8-3.8-3.3
		c-0.5-0.6-1.2-0.2-1.2,2.3c0,2.4,2.8,4.6,3.9,5.9c1.1,1.2,2.5,1.9,2.4,2.2c-0.1,0.3-1.3-0.3-2-0.7c-0.7-0.4-3.5-1.9-4.1-2.2
		c-0.5-0.3-0.8,0.5-0.1,2.7c0.7,2.3,2.8,3.9,4,4.6c1.2,0.7,3.2,1.6,3,1.8c-0.1,0.3-0.9,0.1-2.1-0.4c-1.1-0.4-2.4-0.8-3.5-0.9
		c-1-0.2-1,0.6-1,0.6c0,0-0.2,2,1.2,3.4c1.4,1.4,3.1,1.9,4.6,2c1.6,0.1,1.8,0.1,1.8,0.4c0,0.2-0.2,0.3-0.6,0.3
		c-0.3,0-1.8,0.3-3.1,0.5c-1.3,0.2-2,0.6-2,1.1c0,0.6-0.1,1.3,1.9,2.5c2,1.1,4.2,1,5.1,1.1c1,0.1,1,0.1,0.8,0.4
		c-0.2,0.3-0.6,0.3-2.1,0.7c-1.5,0.3-2.4,1-2.6,1.4c-0.2,0.4,0.1,1.6,1.3,2.3c1.2,0.7,2.8,0.8,5.1,0.3c2.3-0.4,2.9-0.6,3-0.2
		c0.1,0.4-0.7,0.6-1.9,0.9c-1.2,0.4-2.1,0.5-2.7,1.1c-0.7,0.6-0.2,1.7,1,2.3c1.1,0.7,3.9,0.3,5.1,0.1c1.2-0.2,3-0.9,3.1-0.6
		c0.1,0.3-0.9,0.9-2.1,1.5c-1.2,0.6-1.6,0.9-1.8,1.4c-0.2,0.5-0.1,1,1.4,1.4c1.4,0.4,3.6,0.1,4.6-0.5c1.1-0.7,1.7-0.9,1.9-0.8
		c0.2,0.2,0,0.4-0.2,0.7c-0.2,0.3-1.2,1.2-2.4,1.6c-1.2,0.5-1.4,0.5-1.8,1.5c-0.4,1,0.7,1.6,2.8,1.5c2.2-0.2,5.1-1.5,6.1-2.1
		c0.9-0.7,1.3-0.8,1.4-0.6c0.1,0.2,0.1,0.3-0.4,0.7c-0.5,0.4-1.9,1.6-2.7,2c-0.7,0.3-0.8,0.8-0.8,1.4c0,0.5-0.2,1.5,1.8,1.7
		c1.9,0.2,4.3-0.4,6.4-2.2c0.7-0.6,1.1-1,1.3-1.4c-0.2-2-0.1-3.4,0.2-4.7c-0.4,0-1.2,0-2-0.2c-1.2-0.3-1.6-1.3-1.9-1.9
		c-0.3-0.6-0.7-0.5-1.1-0.3c-0.5,0.2-0.9,0.5-1.6,0.5c-0.7,0-2.1-0.1-3.1-1.2c-1-1.1-0.8-2.3-0.8-2.9c0-0.6-1,0-1.4,0.1
		c-0.5,0.1-1.8,0-3.1-0.7c-1.3-0.7-1.3-1.9-1.4-2.3c-0.1-0.5-0.6-0.7-1-0.8c-0.4-0.1-1-0.2-1.9-0.8c-0.9-0.6-1.2-1.9-1.2-2.4
		c0-0.4-0.6-0.4-2.3-1.1c-1.8-0.7-1.6-2.6-1.6-3.3c0.1-0.8,0.9-1.5,0.9-1.7c0-0.3-0.6-0.3-1.2-0.6c-0.6-0.3-2.1-0.7-2.1-2.9
		c0-2.2,1.4-2.6,1.4-2.6c0,0-0.3-0.1-0.9-0.4c-0.6-0.3-2.2-1.2-2.2-2.5c0-1.3,0.6-1.9,1-2.3c0.4-0.3,1.6-0.8,1.6-0.8
		c0,0-0.7-0.4-1.1-1.4c-0.3-1-0.4-2.2,0.3-3.2c0.7-1,2-1.1,2.7-1.2c0.7-0.1,1.2,0.2,1.5,0c0.2-0.2,0.3-0.4,0.1-0.9
		c-0.3-0.5-0.3-1.7-0.1-2.2c0.2-0.5,0.3-1.4,1.9-2.1c1.7-0.7,3.4,0.2,4,0.4c0.5,0.2,0.3-0.5,0.3-1c0-0.5-1.1-1.8-2.4-3.6
		c-1.3-1.8-1.9-2.7-3.3-5.5c-1.5-2.8-2.4-6.5-2.6-7.5c-0.2-0.9-0.6-0.4-0.6-0.4c0,0-0.4,0.2-1.3,2.6
		C185.1,124.3,185,126.4,185,128.1"/>
	<path fill="#CDAE41" d="M214.5,164.3c-1,0.1-2.3-0.3-3.3-1.6c-1-1.3-2.5-1.5-5.1-1.1c-2.6,0.4-3.8-0.7-4.5-2.4
		c-0.6-1.7,0.1-3.9,2.8-5.5c2.7-1.7,3.9-3.3,4-5.6c0.1-2.3-2.7-4.7-5.5-7.6c-2.8-2.8-4.9-7-4.9-7c0,0-0.8,1.2-0.8,2.2
		c0,1,0.4,2.1,0,2.5c-0.4,0.3-0.6-0.4-2.2-0.9c-1.6-0.5-3-0.4-3.9,0.9c-1,1.2,0,3.2,0.9,4c0.9,0.8,1.7,1.5,1.4,1.8
		c-0.3,0.4-1.6-0.3-2.1-0.6c-0.4-0.3-1.5-1.3-3.1-0.9c-1.6,0.3-2.1,0.8-2.2,2.2c-0.2,1.3,1.4,2.3,2.4,2.7c1,0.4,1.4,0.8,1.1,1
		c-0.2,0.2-0.5,0.1-0.9,0c-0.5-0.1-1.7-0.1-2.5,0.3c-0.8,0.4-2.1,1.6-0.9,2.9c1.2,1.2,3.7,1.4,4.2,1.5c0.5,0,0.8-0.2,0.8,0.3
		c0.1,0.4-1,0.5-2.4,0.7c-1.4,0.2-1.8,1.6-1.6,2.6c0.2,1,2.5,1.8,3.7,1.8c1.2,0.1,1.7-0.2,1.8,0.1c0.1,0.4-0.1,0.5-0.9,0.8
		c-0.7,0.3-2.1,0.6-2.3,1.7c-0.2,1.1-0.3,1.7,0.8,2.5c1,0.8,2.8,0.5,3.3,0.3c0.5-0.2,1.1-0.8,1.6-0.3c0.5,0.4-0.4,0.9-1.3,1.7
		c-0.9,0.7-0.8,1.8,0.6,2.5c1.5,0.7,2.9,0.2,3.5-0.1c0.6-0.3,1.4-1.3,1.8-0.8c0.4,0.5-1.2,1-1.9,1.9c-0.7,1-0.4,2.3,1,3
		c1.4,0.7,3.7-0.2,4.1-0.6c0.4-0.4,0.9-0.6,1.2-0.4c0.3,0.3-0.1,1.1-0.4,1.9c-0.3,0.7-0.9,2.9,1.3,3.4c2.1,0.5,4-1.5,4.4-2
		c0.4-0.4,0.7-0.5,1-0.4c0.3,0.1,0.2,0.4-0.1,0.8c-0.3,0.4-0.8,2,0.7,2.8c1,0.6,2.2,0.4,2.8,0.2c0.3-1.2,0.7-2.5,1.2-4.4
		c-0.1,0-0.2,0-0.3,0c-0.2,0-0.2,0.3-0.2,0.3c0,0.2,0.1,0.3-0.1,0.4c-0.2,0-0.2,0.1-0.5,0.3c-0.2,0.2-0.5,0.5-0.6,0.4
		c-0.2-0.1,0.5-0.6,0.7-0.8c0.2-0.2,0.5-0.6,0.6-0.9c0-0.3,0.2-0.4,0.5-0.7c0.1-0.1,0.2-0.3,0.3-0.4c0.2-1.2,0.5-2.6,0.7-4.3
		c0.2-1.1,0.2-2.2,0.3-3.2C214.9,164.3,214.7,164.3,214.5,164.3z"/>
	<path fill="#CDAE41" d="M171.5,138.2c2.2,4.3,5.4,6.5,5.4,6.5c0,0-0.4-1.1-0.6-1.8c-0.2-0.8,0-1.7,0-1.7c0,0-0.8-0.9-2.3-3
		c-1.5-2.1-2.2-5.4-2.2-5.4c0,0,1.4,3.2,2.4,4.8c1,1.6,2.3,3,2.3,3c0,0,0.4-1.6,0.8-1.7c0.3-0.1,0.5,0.1,0.8,0.4
		c0.3,0.3,0.5,0.3,0.5,0.3c0,0-0.4-0.7-0.9-1.6c-0.3-0.4-0.6-0.8-0.9-1.2c-0.9-1.2-2.7-3.6-3.6-6c-0.9-2.4-3-8.5-3.3-10.3
		c-0.4-1.8-0.7-0.8-1.1,0.7c-0.4,1.4-0.8,3.4-0.5,6.2C168.6,130.4,169.2,133.9,171.5,138.2"/>
	<path fill="#CDAE41" d="M174.4,150.2c0.8,0.5,2.1,1.2,2.1,1.2c0,0-0.2-0.5-0.3-1c-0.1-0.5-0.2-1.6-0.2-1.6c0,0-1-0.7-1.7-1.3
		c-0.7-0.5-1.5-1.2-3.2-3.1c-1.7-2-0.3-0.8,1.1,0.5c1.4,1.4,4,3.3,4,3.3c0,0,0,0,0-0.5c0.1-0.5,0.2-0.8,0.4-1.2
		c0.2-0.3,0.1-0.4-1.4-1.4c-1.5-1-5.4-4.9-7-7.4c-1.6-2.5-3.3-5.8-3.3-5.8c0,0-0.8,5.3,2.3,10.7
		C170.4,148.2,173.6,149.7,174.4,150.2"/>
	<path fill="#CDAE41" d="M191.1,181.1c1.7-0.9,1.3-2.5,1.3-2.5c0-0.1-1.1,0.4-2.1,0.9c-1,0.5-3.4,1.5-4.3,1.7c-1,0.1-1,0-1-0.1
		c0-0.2,0.8-0.1,2.1-0.5c1.4-0.4,3.8-2,4.2-2.3c0.4-0.3,0.4-0.4-0.3-0.4c-0.6,0-1.2-0.2-1.4-0.4c-0.2-0.2-0.9,0.2-2.4,0.7
		c-1.6,0.6-4.8,1.5-7.3,1.8c-2.5,0.3-4.8,0.1-5.2,0.1c-0.4,0-0.8,0.2,0.4,2.1c1.2,1.9,5.4,2.5,8.4,2.1
		C186.4,183.9,189.3,182,191.1,181.1"/>
	<path fill="#CDAE41" d="M183.2,177.9c3-0.3,4.2-1.3,4.2-1.3c0,0,0-0.2-0.4-0.7c-0.4-0.6-0.3-1.6-0.3-1.6c0,0-0.7,0.2-2,0.5
		c-1.3,0.3-2.7,0.7-4.4,0.6c-1.6-0.1-0.9-0.3,0.4-0.3c1.3,0,3.7-0.8,4.5-1.1c0.8-0.4,0.5-0.6-0.1-0.7c-0.5-0.1-2-0.9-2-0.9
		c0,0-3.7,0.9-7.1,0.9c-3.4,0-5.6-0.7-6.3-0.7c-0.7,0-0.6,0.3-0.6,0.3c0,0-0.2,0.3,1,2.1c1.2,1.7,3.5,2.7,5.5,3.1
		C177.5,178.1,180.2,178.2,183.2,177.9"/>
	<path fill="#CDAE41" d="M182.5,170.8c0,0-0.1-0.1-0.3-0.7c-0.2-0.6,0.3-1.1,0.3-1.1c0,0-0.7-0.1-3-0.1c-2.3,0-2.4-0.2-3.8-0.4
		c-1.4-0.2-2.3-0.5-2.3-0.6c0-0.2,0.5,0,1.3,0.2c0.8,0.3,4.3,0.2,5.8,0.2c1.5,0,2.3,0.1,2.6-0.1c0.3-0.2,1.2-0.5,1.2-0.5
		c0,0-0.6-0.1-1.4-0.2c-0.8,0-1.5-0.3-1.9-0.5c-0.4-0.2-0.5-0.3-2.4-0.3c-1.8,0-3.3-0.4-6.7-1.3c-3.3-0.9-5.8-2-6.5-2.5
		c-0.7-0.5-0.6-0.1-0.4,0.6c0.2,0.7,0.1,1.5,1.8,3.3c1.7,1.8,2.5,2.5,6.7,3.6C177.7,171.6,182.5,170.8,182.5,170.8"/>
	<path fill="#CDAE41" d="M170,161.9c3.7,2.2,8.1,2.7,9,2.7c0.2-0.3-0.2-1.1,0-1.6c0.2-0.7,0.6-0.7,1.5-0.9c0.9-0.2,0.3-0.3,0.1-0.3
		c-0.2,0-0.3,0-1.8-0.2c-1.5-0.2-3-0.3-5-0.8c-2.1-0.6-2.7-1-2.6-1.2c0-0.1,0.9,0.4,2.8,0.9c1.9,0.5,4.1,0.5,5.3,0.7
		c1.2,0.1,0.1-0.3-0.4-0.6c-0.6-0.2-1.4-1.4-1.4-1.4c0,0-1.3-0.1-3.5-0.5c-2.2-0.5-4-1-5.9-1.9c-0.6-0.3-1.2-0.7-1.9-1.1
		c-1.2-0.8-2.5-1.6-3-1.9c-0.7-0.5-0.5,0-0.4,0.3c0.1,0.3,0.6,1.8,1.8,3.4C165.8,159.2,166.2,159.7,170,161.9"/>
	<path fill="#CDAE41" d="M169.3,154.6c3.7,2.5,6.9,3.1,7.4,3.3c0.5,0.2,0.5-0.2,0.4-0.4c-0.1-0.3-0.2-1.3-0.2-1.3
		c0,0-1.3-0.6-2.8-1.3c-1.4-0.7-3.1-1.7-4.1-2.3c-1.1-0.6-0.5-0.7-0.1-0.4c0.3,0.3,1.8,1,3.3,1.7c1.5,0.8,3.8,1.9,3.8,1.9
		c0,0,0.1-0.5,0.3-0.8c0.3-0.3,1.1-0.3,1.1-0.3s-0.4-0.3-0.6-0.7c-0.2-0.3-1.4-0.6-2.8-1.1c-1.4-0.4-3.8-2-5.6-3.3
		c-1.8-1.3-5.3-4.8-5.5-5.1c-0.2-0.3-0.4-0.2-0.4,0.2c0,0.4-0.2,0.7,0.2,2.4C164,148.6,165.7,152.1,169.3,154.6"/>
	<path fill="#CDAE41" d="M182.4,125.6c0.4,0.8,0.9,1.4,1.2,2c0.5,0.7,0.8,1.3,0.8,1.3c0,0,0.1-0.3,0-0.8c-0.1-0.5-0.2-1.2,0-2
		c0.1-0.5,0.2-0.9,0.1-1.3c0-0.4-0.1-0.8-0.2-1.1c-0.1-0.5-0.7-2.5-0.9-4c-0.2-1.5-0.5-3.6-0.5-5.6c0-1.9,0.3-1,0.3,0
		c0,0.9,0.1,2.3,0.4,4.5c0.3,2.2,1.2,5.4,1.2,5.4c0,0,0.1-0.5,0.3-1.3c0.3-0.7,0.7-1.7,1.1-2.6c0.3-0.9,0.2-1.1,0.2-1.1
		c0,0-1.3-6-1.6-8.9c-0.4-2.9-0.9-10.5-0.9-10.5c-1.9,2.1-3.3,7.3-3.6,12.1c-0.2,3.6,0.4,6.8,0.6,8.1
		C181.2,122.3,181.7,124.3,182.4,125.6"/>
	<path fill="#CDAE41" d="M178.2,135.9c0.1-1.4,0.4-2.5,1.3-2.9c0,0-0.8-1.3-1.5-3.2c-0.5-1.3-0.9-3-1.1-4.3
		c-0.5-3.3-0.9-6.6,0.1-1.2c1,5.5,2.2,7.3,2.2,7.3c0.5,0.7,0.9,1.4,1.4,2.2c-0.2-1-0.2-1.7-0.2-2.8c0-1.1,0.2-2.6,0.5-3.9
		c0,0-1.7-3.3-2.8-7.3c-1.1-4-1.7-7.8-1.8-10c-0.1-2.1-0.1-3-0.1-3c0,0-1.8,1.6-2.4,8.4c-0.6,6.9,1.2,13.2,2.1,15.5
		C176.9,132.9,178.2,135.9,178.2,135.9"/>
	<path fill="#CDAE41" d="M197.6,185.2c0,0-0.2-0.2-1.1-0.6c-0.9-0.4-0.6-2.1-0.6-2.1c0,0-0.2,0.2-0.8,0.7c-0.6,0.5-1.3,1.1-2.2,1.5
		c-0.9,0.4-1.3,0.7-1.8,1c-0.5,0.2-0.4,0,0.1-0.3c0.4-0.3,0.6-0.5,1.7-1.1c1.1-0.6,3.4-2.8,3.4-2.8c0,0-0.6,0-1.5,0.1
		c-0.9,0.1-2.1-0.3-2.1-0.3c0,0-0.9,0.9-4.7,3c-3.7,2.1-6.9,2.9-6.9,2.9c0,0,0.4,1.9,2.2,2.3c1.5,0.5,3.5,0.6,7.6-0.8
		C194.8,187.3,197.6,185.2,197.6,185.2"/>
	<path fill="#CDAE41" d="M202.5,188.4c0.3-1.6-0.6-2.6-0.6-2.6c0,0-0.2,0.2-0.7,0.7c-0.6,0.6-1.4,1.6-3,2.6c-1.6,1-2.1,1-0.6,0
		c1.5-1,3.8-3.6,3.8-3.6c-0.2,0-0.4-0.1-0.6-0.1c-0.6-0.2-1.6,0.4-5.8,3.4c-4.2,3.1-6.7,3.4-6.7,3.4c0,0,1.9,2.1,7,1.3
		C200.3,192.7,202.2,190,202.5,188.4"/>
	<path fill="#CDAE41" d="M212.1,185.3c0,0-0.6,0.9-1.3,1.5c-0.8,0.6-2.8,1.2-2.8,1.2c0,0-0.1,0.2-0.5,0.8c-0.4,0.6-1.3,1.9-2.2,2.6
		c-0.9,0.8-2.3,1.4-2.4,1.2c-0.1-0.2,0.8-0.6,1.7-1.2c0.9-0.6,1.6-1.7,2.2-2.5c0.6-0.8-0.3-0.5-0.3-0.5c0,0-1,0.2-2,0.2
		c-1,0-0.8,0.1-1.1,0.6c-0.3,0.5-0.7,1-1.4,1.9c-0.9,1.1-1.7,2.2-2.6,3.3c-0.6,0.7-0.2,0.9-0.2,0.9c0,0,0.3,0.4,2.5,0.3
		c1.4,0,2.9-0.4,4.5-1.5c1-0.7,2-1.8,3.1-3C212.3,187.7,212.1,185.3,212.1,185.3"/>
	<path fill="#CDAE41" d="M213.3,191.3c-0.5,0.8-0.8,1.2-0.8,1.2c0,0,0.4-1.3,0.7-1.9c0.2-0.3,0.4-0.7,0.5-0.8
		c-0.4-0.8-0.7-1.6-0.9-2.6c-0.3,0.9-1,3.3-2,5c-1.2,2-2.2,2.8-1.5,3.2c0.7,0.4,2,0.4,3.5-0.6c1.5-0.9,1.9-2.2,2.1-3.2
		c-0.3-0.4-0.5-0.7-0.7-1.1C213.9,190.6,213.6,190.9,213.3,191.3"/>
	<path fill="#CDAE41" d="M298.7,139.1c1.2-1,3.3-3.1,3.9-5.5c0.7-2.4,0.5-3.1-0.1-2.7c-0.5,0.4-3.3,2.6-4,3.2
		c-0.7,0.6-1.9,1.4-2,1.2c-0.1-0.2,1.3-1.2,2.4-2.7c1.1-1.5,3.9-4.4,3.9-6.8c0.1-2.5-0.7-2.7-1.2-2c-0.5,0.7-2.8,3.2-3.7,4.2
		c-0.9,1-2.3,2.4-2.5,2.2c-0.2-0.2,1.1-1.5,2.4-3.1c1.4-1.6,2.9-3.4,3.2-6.3c0.2-2.1-0.3-2.8-0.6-3c-0.1-0.1-0.3-0.2-0.4,0.1
		c-0.4,0.7-1.5,2.8-2.2,3.9c-1,1.3-2.5,3-3.3,4.1c-0.9,1.1-1.2,1.4-1.4,1.4c-0.1-0.1,0.9-1.6,1.6-2.6c0.7-1,2.5-3.1,3.7-5.8
		c1.2-2.7,0.2-6.4-0.3-6.7c-0.5-0.4-0.6-0.1-0.8,0.2c-0.2,0.3-1.7,4-2.7,5.5c-1,1.6-2.2,3.6-2.9,4.5c-0.6,0.9-1.1,1.9-1.3,1.8
		c-0.2,0,0.1-0.9,1.2-2.8c1.2-2,3.1-5.6,3.2-7.5c0.1-1.8-0.1-3.8-1-6c-0.9-2.2-1.3-2.3-1.3-2.3c0,0-0.4-0.4-0.6,0.6
		c-0.2,1-1.1,5-2.6,8.1c-1.5,3.2-2,4.2-3.3,6.3c-1.3,2.1-2.4,3.7-2.4,4.2c0,0.6-0.2,1.3,0.3,0.9c0.6-0.4,2.3-1.7,4-1.4
		c1.7,0.4,1.7,1.2,1.9,1.6c0.2,0.4,0.2,1.7-0.1,2.2c-0.2,0.5-0.2,0.7,0,0.9c0.2,0.2,0.8-0.2,1.5-0.3c0.7-0.1,1.9-0.2,2.7,0.6
		c0.7,0.8,0.6,2.1,0.3,3.1c-0.3,1.1-1,1.6-1,1.6s1.2,0.2,1.6,0.4c0.4,0.3,1,0.8,1,2.1c0,1.3-1.6,2.6-2.2,3c-0.6,0.4-0.9,0.6-0.9,0.6
		c0,0,1.4,0.1,1.4,2.3c-0.1,2.2-1.5,3-2.1,3.4c-0.6,0.4-1.2,0.6-1.2,0.9c0,0.3,0.8,0.8,0.9,1.5c0.1,0.7,0.3,2.6-1.5,3.7
		c-1.8,1.1-2.3,1.2-2.3,1.7c0,0.5-0.4,1.9-1.2,2.7c-0.8,0.8-1.5,1-1.9,1.3c-0.4,0.2-0.9,0.6-1,1.1c-0.1,0.5-0.1,1.6-1.4,2.6
		c-1.2,1-2.6,1.4-3.1,1.5c-0.5,0.1-1.4-0.3-1.5,0.3c0,0.6,0.2,1.7-0.9,3.1c-1,1.3-2.4,1.9-3.1,2c-0.7,0.1-1.1,0-1.6-0.1
		c-0.5-0.1-0.9-0.1-1.1,0.6c-0.3,0.6-0.7,1.8-1.9,2.4c-0.8,0.4-1.6,0.6-2,0.7c0.2,1.2,0.3,2.6,0.1,4.6c0.2,0.3,0.6,0.7,1.3,1
		c2.1,1.2,4.4,1.2,6.4,0.5c2-0.7,1.7-1.7,1.7-2.2c0-0.5-0.1-1.1-0.8-1.2c-0.7-0.1-2.2-1-2.7-1.3c-0.4-0.3-0.5-0.4-0.3-0.6
		c0.1-0.2,0.5-0.2,1.4,0.3c0.9,0.4,3.9,0.9,6,0.6c2.2-0.4,3.3-1.3,2.8-2.2c-0.4-0.9-0.5-0.9-1.7-1.1c-1.2-0.1-2.1-0.8-2.4-1
		c-0.2-0.3-0.4-0.4-0.2-0.6c0.2-0.2,0.8-0.1,1.9,0.3c1.1,0.4,3.2,0.1,4.6-0.6c1.4-0.7,1.6-1.2,1.4-1.7c-0.2-0.5-0.6-0.7-1.8-1
		c-1.2-0.3-2.2-0.6-2.1-0.9c0.1-0.3,1.9-0.1,3.1-0.2c1.2-0.1,4-0.4,5.1-1.4c1.2-1,1.7-2.1,1-2.6c-0.7-0.5-1.6-0.4-2.7-0.4
		c-1.2,0-2-0.1-1.9-0.5c0.1-0.4,0.7-0.4,3-0.6c2.3-0.1,3.9-0.6,5.1-1.5c1.2-0.9,1.5-2.2,1.3-2.6c-0.2-0.4-1.1-0.8-2.6-0.8
		c-1.5,0-1.9,0.1-2.1-0.2c-0.2-0.2-0.2-0.3,0.8-0.6c0.9-0.3,3.2-0.8,5.2-2.4c2-1.6,2-2.3,2-2.9c0-0.6-0.7-0.8-2-0.7
		c-1.3,0.2-2.8,0.2-3.1,0.2c-0.4,0-0.5,0-0.6-0.2c0-0.3,0.2-0.4,1.8-0.8c1.6-0.5,3.2-1.3,4.7-3c1.4-1.8,1.3-3.7,1.3-3.7
		c0,0,0-0.7-1-0.3c-1,0.4-2.3,1.1-3.5,1.7c-1.1,0.7-2,1.1-2.1,0.8C295.6,141.4,297.5,140.1,298.7,139.1"/>
	<path fill="#CDAE41" d="M293.6,134.3c-0.8-0.2-2,0.1-2.5,0.3c-0.4,0.2-0.7,0.4-1,0.3c-0.2-0.2,0.2-0.7,1.1-1.3c1-0.6,2.6-2,2.5-3.3
		c-0.2-1.3-0.7-1.7-2.3-1.6c-1.5,0-2.6,1.3-3.1,1.7c-0.4,0.4-1.8,1.4-2,1.1c-0.3-0.3,0.5-1.1,1.4-2.2c0.9-1.1,1.9-3.2,0.9-4.2
		c-1-1.1-2.3-0.8-3.9,0.1c-1.6,0.9-1.8,1.7-2.1,1.4c-0.4-0.3,0-1.4,0-2.5c0-1-0.8-2-0.8-2c0,0-2.2,4.8-4.9,8.3
		c-2.7,3.6-5.5,6.7-5.4,9c0.1,2.2,1.3,3.5,4,4.5c2.7,0.9,3.4,2.9,2.8,4.8c-0.6,1.9-1.9,3.3-4.5,3.6c-2.6,0.3-4.1,0.9-5.1,2.4
		c-1,1.6-2.3,2.3-3.3,2.5c-0.2,0-0.4,0.1-0.7,0.1c0,1,0.1,2.1,0.3,3.2c0.2,1.7,0.5,3,0.7,4.1c0.1,0.1,0.2,0.2,0.3,0.3
		c0.4,0.2,0.5,0.4,0.5,0.6c0,0.3,0.4,0.5,0.6,0.7c0.2,0.2,0.9,0.5,0.7,0.6c-0.2,0.1-0.4-0.1-0.7-0.2c-0.3-0.1-0.3-0.2-0.5-0.2
		c-0.1,0-0.1-0.1-0.1-0.2c0,0,0-0.4-0.2-0.4c-0.1,0-0.2,0-0.3,0c0.4,1.7,0.8,2.9,1.1,4c0.6,0,1.7-0.1,2.8-0.9c1.5-1.3,0.9-2.7,0.7-3
		c-0.2-0.3-0.4-0.6-0.1-0.8c0.3-0.2,0.7-0.2,1,0.1c0.4,0.3,2.2,1.9,4.4,0.8c2.1-1.1,1.6-3.1,1.3-3.7c-0.3-0.7-0.8-1.4-0.5-1.8
		c0.3-0.3,0.8-0.2,1.2,0.1c0.4,0.3,2.7,0.6,4.1-0.4c1.4-1,1.7-2.5,1-3.2c-0.7-0.8-2.4-0.8-2-1.4c0.4-0.7,1.2,0.2,1.8,0.3
		c0.6,0.2,2.1,0.3,3.5-0.7c1.5-1,1.5-2.1,0.6-2.6c-0.8-0.5-1.8-0.8-1.3-1.4c0.5-0.6,1.1-0.1,1.6-0.1c0.5,0,2.2,0,3.3-1.1
		c1.1-1.1,1-1.6,0.8-2.7c-0.3-1.1-1.6-1.1-2.3-1.2c-0.7-0.1-0.9-0.2-0.8-0.6c0.1-0.4,0.6-0.2,1.8-0.6c1.3-0.4,3.5-1.7,3.7-2.7
		c0.2-1-0.2-2.3-1.6-2.2c-1.3,0.1-2.5,0.2-2.4-0.2c0.1-0.4,0.3-0.3,0.8-0.5c0.5-0.2,3-1,4.2-2.5
		C295.8,135.5,294.5,134.5,293.6,134.3"/>
	<path fill="#CDAE41" d="M302.8,128.4c0,0,3.2-2.9,5.4-7.7c2.2-4.8,3-8.4,3.3-11.4c0.3-2.9-0.2-4.8-0.5-6.2c-0.4-1.3-0.7-2.3-1-0.4
		c-0.3,1.9-2.4,8.4-3.3,11c-0.9,2.6-2.7,5.3-3.6,6.7c-0.3,0.4-0.6,0.9-0.9,1.4c-0.6,1-0.9,1.8-0.9,1.8c0,0,0.2,0,0.5-0.4
		c0.3-0.4,0.5-0.6,0.8-0.6c0.3,0.1,0.8,1.6,0.8,1.6c0,0,1.2-1.6,2.3-3.5c1.1-1.9,2.5-5.4,2.5-5.4c0,0-0.8,3.4-2.3,5.9
		c-1.5,2.4-2.3,3.5-2.3,3.5s0.1,0.9-0.1,1.7C303.2,127.2,302.8,128.3,302.8,128.4"/>
	<path fill="#CDAE41" d="M314.8,113.1c0,0-1.7,3.7-3.3,6.5c-1.6,2.8-5.4,7.5-7,8.9c-1.5,1.3-1.6,1.4-1.4,1.7
		c0.2,0.3,0.4,0.6,0.4,1.1c0,0.5,0,0.5,0,0.5c0,0,2.7-2.5,4.1-4.1c1.4-1.7,2.7-3.1,1.1-0.8c-1.7,2.3-2.6,3.1-3.3,3.8
		c-0.7,0.7-1.7,1.6-1.7,1.6c0,0,0,1.1-0.2,1.7c-0.1,0.6-0.3,1.1-0.3,1.1c0,0,1.2-1,2-1.7c0.9-0.7,4-2.9,7.2-9
		C315.6,118.2,314.8,113.1,314.8,113.1"/>
	<path fill="#CDAE41" d="M299.4,95.9c-0.2-4.7-1.6-9.6-3.5-11.3c0,0-0.5,7.8-0.9,10.7c-0.3,2.9-1.6,9.3-1.6,9.3c0,0-0.2,0.2,0.2,1
		c0.4,0.9,0.8,1.7,1.1,2.4c0.3,0.7,0.3,1.2,0.3,1.2c0,0,0.9-3.5,1.2-5.7c0.3-2.2,0.4-3.6,0.4-4.6c0-0.9,0.3-1.9,0.3,0
		c0,1.9-0.3,4.1-0.5,5.7c-0.3,1.5-0.8,3.7-0.9,4.2c-0.1,0.3-0.2,0.7-0.2,1.2c-0.1,0.4,0.1,0.8,0.1,1.3c0.1,0.8,0,1.5,0,2
		c-0.1,0.5,0,0.8,0,0.8c0,0,0.3-0.6,0.8-1.5c0.3-0.6,0.8-1.3,1.2-2.3c0.7-1.5,1.2-3.6,1.5-6.3C299,102.8,299.6,99.4,299.4,95.9"/>
	<path fill="#CDAE41" d="M303.8,114c0.9-2.6,2.7-9.2,2.1-16c-0.6-6.7-2.4-7.8-2.4-7.8s-0.1,0.9-0.1,3c0,2.3-0.6,6.1-1.8,10.4
		c-1.1,4.3-2.8,7.9-2.8,7.9c0.3,1.1,0.5,2.6,0.5,3.7c0,1.1,0,1.8-0.2,2.9c0.5-0.8,0.9-1.7,1.4-2.5c0,0,1.2-2.1,2.2-7.8
		c1-5.7,0.6-2.2,0.1,1.2c-0.2,1.3-0.6,3.2-1.1,4.6c-0.7,2.1-1.5,3.6-1.5,3.6c0.9,0.2,1.3,1.2,1.3,2.6
		C301.6,119.7,302.9,116.5,303.8,114"/>
	<path fill="#CDAE41" d="M305.1,163.1c-0.4,0.1-2.7,0.8-5.2,1.1c-2.5,0.3-5.8,0.1-7.3-0.1c-1.6-0.2-2.2-0.3-2.5-0.1
		c-0.2,0.2-0.7,0.5-1.3,0.7c-0.6,0.1-0.7,0.2-0.3,0.4c0.4,0.2,2.9,1.2,4.2,1.3c1.4,0.1,2.1-0.1,2.1,0c-0.1,0.2-0.1,0.3-1,0.4
		c-1,0-3.4-0.3-4.4-0.6c-1-0.2-2-0.5-2-0.4c0,0-0.5,1.8,1.2,2.2c1.7,0.5,4.7,1.7,7.6,1.3c3-0.3,7.2-1.9,8.4-4
		C305.9,163.2,305.5,163,305.1,163.1"/>
	<path fill="#CDAE41" d="M310,154.4c-0.7,0.2-2.9,1.3-6.3,2.1c-3.5,0.8-7.1,0.7-7.1,0.7c0,0-1.5,1.1-2,1.4c-0.5,0.2-0.9,0.5-0.1,0.7
		c0.8,0.2,3.3,0.4,4.5,0.1c1.3-0.3,2-0.2,0.4,0.3c-1.6,0.5-3.1,0.4-4.3,0.4c-1.2,0-2-0.1-2-0.1c0,0,0.1,1-0.3,1.7
		c-0.4,0.7-0.4,0.8-0.4,0.8c0,0,1.1,0.7,4.2,0.4c3-0.4,5.7-1.1,7.7-1.9c1.9-0.8,4.3-2.2,5.5-4.2c1.2-2,1-2.3,1-2.3
		C310.7,154.5,310.7,154.3,310,154.4"/>
	<path fill="#CDAE41" d="M314.3,144.1c-0.7,0.6-3.2,2.3-6.5,3.9c-3.3,1.6-4.8,2.3-6.7,2.7c-1.9,0.4-2,0.5-2.4,0.8
		c-0.4,0.3-1.1,0.7-1.9,1c-0.8,0.2-1.4,0.5-1.4,0.5c0,0,0.9,0.1,1.2,0.2c0.2,0.1,1.1-0.1,2.5-0.5c1.5-0.4,4.9-1.1,5.7-1.5
		c0.9-0.4,1.3-0.7,1.3-0.5c0,0.1-0.9,0.6-2.3,1.1c-1.4,0.5-1.5,0.7-3.8,1.2c-2.3,0.5-3,0.8-3,0.8c0,0,0.5,0.4,0.4,1.1
		c-0.2,0.6-0.3,0.8-0.3,0.8c0,0,4.8-0.3,9-2.3c4.2-2,5-2.9,6.7-5.1c1.7-2.1,1.6-3,1.8-3.7C315,143.9,315,143.5,314.3,144.1"/>
	<path fill="#CDAE41" d="M316.4,134.7c-0.5,0.4-1.7,1.4-3,2.5c-0.7,0.5-1.3,1-1.9,1.5c-1.8,1.2-3.7,2.1-5.9,3.1
		c-2.2,0.9-3.5,1.3-3.5,1.3c0,0-0.8,1.3-1.3,1.7c-0.6,0.4-1.6,1.1-0.4,0.7c1.2-0.4,3.4-1,5.3-1.9c1.9-0.9,2.8-1.7,2.8-1.5
		c0.1,0.2-0.6,0.8-2.6,1.8c-2.1,1-3.6,1.4-5.1,2c-1.5,0.6-1.6,0.6-1.8,0.6c-0.2,0-0.8,0.3,0.1,0.2c0.9-0.1,1.3-0.1,1.6,0.5
		c0.2,0.5-0.2,1.4,0,1.6c0.9-0.2,5.3-1.7,9-4.7c3.7-3,4.1-3.5,5.3-5.4c1.2-1.8,1.7-3.4,1.8-3.8C316.9,134.6,317.2,134.1,316.4,134.7
		"/>
	<path fill="#CDAE41" d="M302.4,138.6c0.3,0.3,0.4,0.8,0.4,0.8c0,0,2.2-1.6,3.7-2.7c1.5-1.1,3-2.1,3.3-2.4c0.4-0.3,1-0.4-0.1,0.4
		c-1.1,0.8-2.7,2.2-4.2,3.2c-1.5,1-2.8,1.9-2.8,1.9c0,0-0.1,1-0.2,1.3c-0.1,0.3-0.1,0.7,0.4,0.4c0.5-0.3,3.7-1.6,7.4-4.8
		c3.7-3.3,5.3-7.1,5.7-8.9c0.4-1.8,0.3-2,0.2-2.4c0-0.4-0.2-0.5-0.4-0.1c-0.2,0.3-3.7,4.5-5.5,6.2c-1.8,1.7-4.2,3.8-5.6,4.5
		c-1.4,0.8-2.6,1.3-2.8,1.7c-0.2,0.4-0.6,0.8-0.6,0.8C301.3,138.5,302.1,138.3,302.4,138.6"/>
	<path fill="#CDAE41" d="M287.1,168.7c0,0-1.2,0.6-2.1,0.8c-0.9,0.1-1.5,0.3-1.5,0.3c0,0,2.2,1.7,3.4,2c1.1,0.3,1.3,0.5,1.7,0.7
		c0.5,0.2,0.6,0.4,0.1,0.3c-0.5-0.1-1-0.3-1.8-0.5c-0.8-0.2-1.5-0.6-2.1-1c-0.6-0.3-0.9-0.5-0.9-0.5c0,0,0.3,1.6-0.6,2.2
		c-0.8,0.7-1.2,0.9-1.2,0.9c0,0,2.8,1.3,6.8,1.8c4,0.4,6-0.2,7.5-1c1.8-0.9,2.2-2.8,2.2-2.8c0,0-3.2-0.1-6.9-1.2
		C288,169.4,287.1,168.7,287.1,168.7"/>
	<path fill="#CDAE41" d="M279,174.8c-0.2,0.1-0.4,0.2-0.6,0.3c0,0,2.2,2,3.7,2.6c1.6,0.6,1,0.7-0.6,0.2c-1.6-0.6-2.4-1.4-2.9-1.9
		c-0.6-0.4-0.8-0.5-0.8-0.5c0,0-0.9,1.2-0.6,2.8c0.3,1.5,2.2,3.7,7.3,3.3c5.1-0.5,7-3,7-3c0,0-2.5,0.2-6.7-1.8
		C280.6,174.7,279.6,174.4,279,174.8"/>
	<path fill="#CDAE41" d="M277.5,180.8c-0.7-0.8-1.1-1.1-1.4-1.6c-0.3-0.4-0.1-0.6-1.1-0.3c-1,0.2-2.1,0.3-2.1,0.3c0,0-0.9,0-0.2,0.6
		c0.6,0.6,1.4,1.5,2.3,1.9c0.8,0.4,1.7,0.6,1.7,0.8c-0.1,0.2-1.5-0.1-2.4-0.6c-0.9-0.5-1.8-1.6-2.2-2.1c-0.4-0.4-0.5-0.7-0.5-0.7
		c0,0-2,0-2.8-0.5c-0.7-0.4-1.3-1.1-1.3-1.1c0,0-0.1,2.5,2.6,5.1c1,1,2,1.8,3,2.2c1.6,0.7,3.1,0.7,4.5,0.3c2.3-0.5,2.5-1,2.5-1
		c0,0,0.4-0.2-0.1-0.8C279.3,182.5,278.4,181.7,277.5,180.8"/>
	<path fill="#CDAE41" d="M266.9,179.6c-0.2,1-0.5,2-0.9,2.9c0.1,0.2,0.3,0.4,0.5,0.7c0.4,0.5,0.7,1.7,0.7,1.7c0,0-0.3-0.3-0.9-0.9
		c-0.3-0.3-0.6-0.5-0.8-0.6c-0.2,0.5-0.4,0.9-0.7,1.3c0.2,1,0.6,2.2,2,2.7c1.5,0.5,2.8,0.2,3.5-0.4c0.7-0.6-0.4-1.1-1.6-2.8
		C267.9,182.7,267.2,180.4,266.9,179.6"/>
	<path fill="#CDAE41" d="M266.7,107.9c0.6-0.1,1.1,0.3,1,0.8c0,0.5-0.4,1-1,1.1c-0.6,0.1-1-0.3-1-0.8
		C265.7,108.5,266.1,108,266.7,107.9"/>
	<path fill="#CDAE41" d="M254,110.1c0.6,0.2,1.1,0.4,1.7,0.5c2.1,0.3,4.2-0.3,5.7-1.3c2.1-1.4,3.8-2.3,5-2.6c1.1-0.2,1.6,0.1,2.5,0
		c0.3,0,0.6-0.2,0.7-0.4c0.2-0.4,0.1-1.4-1.3-2c-1.5-0.6-3.6-0.3-5.5,0.5c-1.9,0.8-3.1,1.7-3.8,2.4c-0.7,0.7-1.6,1.7-1.8,1.5
		c-0.2-0.1,0.4-0.6,0.8-1.1c0.4-0.4,0.5-0.6,0.5-0.6c-2.1,0.5-4.4,0.1-6.2-1C252.1,106.1,251.5,109,254,110.1"/>
	<path fill="#CDAE41" d="M275.4,105.9c-1.4-0.5-2.8-0.2-4.5,0.7c-1.7,0.8-2.6,1.5-2.6,1.5c0,0,0.2,1.4-0.8,2.3
		c-1.1,0.8-2.1,0.6-2.4-0.1c-0.3-0.7-0.4-1-0.4-1c0,0-1.6,1.2-3.9,1.9c-1.3,0.4-3.6,1-5.1,0.6c0,0-1.4,1.5-2.4,2.4
		c-1,1-2.1,1.8-2.1,1.8c0,0,0.1,0.3,0.6,0.4c0.5,0.1,0.6,0.2,0.3,0.7c-0.3,0.6-2.6,3-3.6,3.9c-1,0.9-2.5,1.6-2.5,1.6s0.5,0.8,1.2,1
		c0.7,0.2,0.8,0.6,0.5,1.1c-0.3,0.5-2.7,3.5-3.7,4.6c-1,1.1-1.8,1.3-2.2,1.5c-0.4,0.2-1.2,0.7-0.4,1.6c0.9,0.9,2.9,1,5.1,0.1
		c2-0.9,4.1-3.6,4.1-3.6s-0.4,3.6-0.4,5.2c0,1.7,0.2,3.5,0.5,4.4c0.3,0.9,0.6,1.4,0.6,1.4c0,0,1.4-1,2.4-3.6c1-2.6,1.2-4,1.2-4.7
		c0-0.7,0-1.1,0.7-0.9c0.6,0.3,1.1,0.5,1.4,0.5c0.2,0,0.4,0,0.4,0c0,0-0.4-1.7-0.4-3.1c0-1.3,0.5-4.3,1-4.9c0.6-0.6,0.7,0.1,0.7,0.4
		c0.1,0.7,0.7,1.4,1.5,1.6c0.2-2,0.7-3.6,2.3-5.6c0.3-0.4,0.5-0.8,1.5-0.5c1.5,0.4,3.4,0.5,4.8-0.3c1.5-0.8,2.6-2.4,2.2-2.6
		c-0.1,0-2.3,1.4-4,1.1c-1.7-0.3-2.5-0.8-1.5-2c1-1.2,1.5-1.4,3.4-3.3c2-1.9,3.6-3,5.4-2.9c1.8,0.1,2.1,1.1,2.2,1.2
		c0.2,0.2,0.9,0.7,0.9-0.8C277.4,108.2,276.8,106.3,275.4,105.9"/>
	<path fill="#CDAE41" d="M256.6,136.9c-0.3-0.4-1-1.8-1-1.8c0,0-0.1,0.4-0.4,1.4c-0.4,1-1.4,2.6-1.4,2.6c0,0,0.8-0.3,1.7-0.7
		c0.9-0.4,1.6-1.1,1.6-1.1C257.1,137.4,256.9,137.3,256.6,136.9"/>
	<path fill="#CDAE41" d="M249.4,132.5c0,0-0.6,1.5-1.9,3c-1.3,1.4-2.2,1.4-2.2,1.4c0,0,0.1-0.1,1.1-0.9c0.9-0.8,1.9-2.9,1.9-2.9
		c-1.1,0.8-3.5,1.7-4.8,1.7c0,0-0.2,0.5-0.5,1.3c-0.3,0.9-1.2,2.4-1.7,3.1c-0.4,0.7-0.1,0.8-0.1,0.8c0,0,0.2,0.2,3.3,0.6
		c3,0.4,5.7-0.4,5.7-0.4c0,0-0.1-0.3-0.6-2.2C249.1,135.9,249.4,132.5,249.4,132.5"/>
	<path fill="#CDAE41" d="M213,115.3c0.6-0.1,1,0.3,1,0.8c0,0.5-0.5,1-1,1.1c-0.6,0.1-1-0.3-1.1-0.8C212,115.9,212.4,115.4,213,115.3
		"/>
	<path fill="#CDAE41" d="M210.8,114.7c1-0.1,1.5-0.7,2.5-0.7c1.2,0,2.9,0.4,5,1.2c1.6,0.5,3.7,0.6,5.8-0.3c0.6-0.2,1.1-0.6,1.7-1
		c2.5-1.8,1.9-4.4,1.9-4.4c-1.8,1.6-4.1,2.6-6.2,2.8c0,0,0.1,0.1,0.5,0.4c0.4,0.3,1,0.6,0.8,0.8c-0.2,0.2-1.1-0.5-1.9-1
		c-0.7-0.5-1.9-1-3.8-1.3c-1.9-0.3-4.1,0-5.5,1c-1.4,1-1.5,2-1.3,2.4C210.2,114.8,210.5,114.8,210.8,114.7"/>
	<path fill="#CDAE41" d="M237.8,131.3c-0.4-0.1-1.2-0.1-2.2-0.8c-1-0.8-3.4-3.1-3.7-3.5c-0.3-0.4-0.2-0.9,0.5-1.3
		c0.7-0.3,1.2-1.3,1.2-1.3c0,0-1.4-0.3-2.5-0.9c-1-0.6-3.3-2.3-3.6-2.8c-0.3-0.5-0.2-0.6,0.3-0.8c0.5-0.2,0.6-0.6,0.6-0.6
		c0,0-1.1-0.5-2.1-1.2c-1-0.6-2.4-1.8-2.4-1.8c-1.5,0.8-3.9,0.9-5.1,0.8c-2.2-0.1-3.9-0.8-3.9-0.8c0,0-0.1,0.4-0.4,1.1
		c-0.2,0.7-1.3,1.2-2.3,0.7c-1-0.6-0.8-2-0.8-2c0,0-0.8-0.5-2.6-0.8c-1.7-0.4-3.1-0.3-4.5,0.5c-1.4,0.8-2.1,2.9-2.1,4.3
		c0,1.4,0.8,0.7,0.9,0.5c0.1-0.2,0.5-1.3,2.2-1.8c1.8-0.5,3.4,0.1,5.4,1.5c2,1.4,2.4,1.4,3.5,2.4c1,0.9,0.2,1.6-1.5,2.4
		c-1.7,0.8-3.9,0-4,0c-0.3,0.2,0.7,1.6,2.2,2c1.5,0.4,3.4-0.2,4.9-1c1-0.5,1.2-0.2,1.5,0.1c1.6,1.5,2.1,3.1,2.3,4.9
		c0.8-0.4,1.4-1.2,1.5-2c0.1-0.3,0.1-1.1,0.7-0.6c0.6,0.4,1,3.3,1,4.6c0,1.3-0.4,3.1-0.4,3.1c0,0,0.1,0,0.4-0.1
		c0.3-0.1,0.7-0.4,1.4-0.9c0.6-0.5,0.7-0.1,0.7,0.7c0,0.7,0.2,2.1,1.2,4.4c1,2.3,2.4,2.9,2.4,2.9c0,0,0.3-0.5,0.6-1.5
		c0.3-1,0.5-2.9,0.5-4.5c0-1.7-0.4-5.1-0.4-5.1c0,0,2,2.2,4.1,2.5c2.1,0.3,4.2-0.4,5-1.5C239,131.6,238.2,131.3,237.8,131.3"/>
	<path fill="#CDAE41" d="M224.1,139.5c0,0-0.6,1.5-0.9,2c-0.4,0.5-0.5,0.6-0.5,0.6c0,0,0.7,0.5,1.5,0.6c0.9,0.1,1.8,0.2,1.8,0.2
		c0,0-1-1.3-1.4-2.2C224.2,139.8,224.1,139.5,224.1,139.5"/>
	<path fill="#CDAE41" d="M236.6,136.9c-0.3-0.7-0.5-1.1-0.5-1.1c-1.3,0.4-3.7,0.2-4.8-0.3c0,0,1,1.8,2,2.4c0.9,0.5,1.1,0.6,1.1,0.6
		c0,0-0.9,0.3-2.2-0.8c-1.3-1.1-1.9-2.5-1.9-2.5c0,0,0.3,3.4-0.2,5.5c-0.5,2.1-0.6,2.4-0.6,2.4c0,0,2.7,0.1,5.7-1.2
		c3.1-1.3,3.3-1.5,3.3-1.5c0,0,0.4-0.2-0.1-0.7C237.8,139,236.9,137.7,236.6,136.9"/>
	<path fill="#CDAE41" d="M226,214.3c0.6,0.1,1.8-0.5,2.4-1.3c0.6-0.8,0.8-1.9,1.2-2.6c0.4-0.7,0.7-1.2,0.7-1.2c0,0-0.1,1.1-0.7,2.5
		c-0.5,1.4-0.6,3.2-0.5,4.1c0.3,1.5,1.3,1.6,1.9,1.3c0.4-0.2,1.1-1,1.7-2.1c0.2-0.4,0.4-0.8,0.6-1.2c0.4-0.8,0.8-2.1,0.9-2.1
		c0.4,0,0.1,0.9,0,1.6c-0.3,1.2-0.9,3.1-0.9,4.1c-0.1,1.1,0.1,3,1.1,2.9c1.1,0,1.6-1.1,2.2-3.3c0.6-2.2,0.8-3,1-3
		c0.3,0,0.3,1.5,0.3,2.1c0,0.2,0,0.8,0.1,1.4c0.2,1.1,0.5,2.5,0.8,2.7c0.5,0.4,0.9,0.3,0.9,0.3c0,0,0.4,0,0.9-0.5
		c0.5-0.5,0.9-3.8,0.9-4.4c0-0.6,0-2.2,0.2-2.2c0.3,0,0.4,0.7,1,2.7c0.6,2.1,1.2,3,2.2,2.7c1.1-0.2,1.2-2.2,1.1-3.2
		c0-1-0.6-2.7-0.9-3.8c-0.3-1.2,0.1-1.1,0.9,0.3c0.3,0.5,0.5,1,0.8,1.4c0.6,0.8,1.1,1.3,1.5,1.4c0.6,0.1,1.6-0.3,1.9-1.9
		c0.2-1.6-0.9-5.9-0.9-5.9c0,0,0.1,0.1,0.5,0.7c0.4,0.6,0.7,1.7,1.3,2.3c0.6,0.7,1.8,0.9,2.4,0.7c0.7-0.3,0.7-1.5,0.2-3.6
		c-0.4-2.1-2.4-3-3.7-4.5c-1.2-1.4-2.2-4-2.3-4.4c-1.7,1.1-3.2,2.2-4.6,3.8c-2.8,3.4-3.4,4.1-3.4,4.1s-0.6-0.6-3.4-3.2
		c-1.4-1.2-2.9-2-4.6-2.6c-0.2,0.4-1.4,3.2-2.6,4.9c-0.6,0.9-1.5,1.6-2.1,2.4c-0.7,0.9-1.2,2.1-1.4,3.3
		C225.3,213,225.3,214.1,226,214.3"/>
	<path fill="#CDAE41" d="M225.9,221.5c0.8-0.9,1.3-1.3,1.3-1.3c0,0,0.6-0.6,0.4,0.4c-0.1,1-0.5,2.9-0.3,3.8c0.2,0.8,0.3,1.5,1.4,0.8
		c1-0.8,1.3-1.2,1.8-1.8c0.5-0.6,1-0.9,0.9-0.1c-0.1,0.8-0.5,2.2-0.3,3.8c0.2,1.7,1,1.8,2.1,0.2c1.1-1.6,1.7-3,2-3.7
		c0.3-0.7,1-1.4,1-0.1c0,2.8,0.7,6.8,3.7,7.4c3.1-1.5,3.7-5.7,3.7-8.5c0-1.3,0.7-0.8,1-0.1c0.4,0.7,1,1.9,2.1,3.2
		c1.1,1.3,1.9,0.9,2.1-0.8c0.2-1.7-0.2-2.9-0.3-3.7c-0.1-0.8,0.4-0.7,0.9-0.2c0.5,0.5,0.7,0.8,1.8,1.3c1,0.5,1.1-0.2,1.3-1.1
		c0.2-0.9-0.1-2.8-0.2-3.7c-0.2-0.9,0.4-0.5,0.4-0.5c0,0,0.4,0.3,1.2,1c0.8,0.6,2,0.5,2,0.5s0.5-3-0.7-4.6c-1.2-1.6-1.7-2.1-1.7-2.1
		c0,0-0.7,0.1-1.2-0.1c-0.5-0.1-1.1-0.4-1-0.4c0,0.4,0,0.8,0,1.2c0,0.1,0,0.3,0,0.4c0,0,1.5,1.2,1.9,1.6c0.4,0.4,1,1,0,0.5
		c-1-0.6-1.9-1.1-1.9-1.1c0,0-0.2,1.5-0.6,1.9c-0.4,0.4-1,0.6-1.3,0.5c-0.1,0-0.2,0-0.2-0.1c0,0.2,0,0.4-0.1,0.6c0,0,0.9,1.6,1,2.3
		c0.1,0.7-0.1,0.6-0.5-0.2c-0.4-0.9-1.2-1.9-1.6-2.5c-0.4-0.6-0.9-0.9-0.9-0.2c0.1,0.8-0.3,2.3-0.6,2.9c-0.3,0.6-0.4,0.8-0.4,0.8
		c0,0,0.6,1.9,0.6,2.3c0.1,0.4,0,0.8-0.3,0.4c-0.3-0.4-1.2-2.3-1.2-2.3c0,0-1.2,0.1-1.6-0.2c-0.4-0.3-0.9-1.6-0.9-1.6
		c0,0-0.5,1.8-0.9,2.4c-0.4,0.6-1.4,1.3-1.4,1.3c0,0-0.1,3-0.1,3.5c-0.1,0.5-0.1,0.8-0.3,0.8c-0.2,0-0.2-0.2-0.3-0.7
		c-0.1-0.5-0.1-3.5-0.1-3.5c0,0-1-0.4-1.4-0.9c-0.4-0.5-0.9-2.1-0.9-2.1c0,0-0.5,1.4-0.9,1.8c-0.3,0.4-1.6,0.6-1.6,0.6
		c0,0-0.9,2.1-1.2,2.6c-0.3,0.5-0.4,0.1-0.3-0.3c0.1-0.4,0.6-2.5,0.6-2.5c0,0-0.2-0.2-0.4-0.6c-0.3-0.5-0.6-1.9-0.5-2.7
		c0-0.8-0.5-0.3-0.9,0.4c-0.4,0.7-1.2,1.9-1.6,2.9c-0.4,0.9-0.6,1-0.5,0.3c0.1-0.7,1.1-2.6,1.1-2.6c0-0.2,0-0.4-0.1-0.6
		c-0.1,0-0.2,0.1-0.2,0.1c-0.3,0.1-0.8,0.1-1.3-0.2c-0.4-0.3-0.6-1.7-0.6-1.7c0,0-0.9,0.8-1.9,1.6c-1,0.8-0.3,0,0-0.5
		c0.4-0.4,1.8-2.1,1.8-2.1c0-0.1,0-0.3,0-0.4c0-0.4,0-0.8,0-1.2c0,0-0.5,0.4-1,0.7c-0.5,0.3-1.2,0.4-1.2,0.4c0,0-0.5,0.7-1.7,2.6
		c-1.3,1.9-0.7,4.8-0.7,4.8C224,222.5,225.1,222.3,225.9,221.5"/>
	<path fill="#CDAE41" d="M222.6,231.9c0.7-0.6,1.4-1.2,3-2.5c1.6-1.4,2.3-2.7,2.3-2.7c-0.2,0-0.4,0.1-0.6,0.1
		c-0.3,0-0.6-0.4-0.6-0.8c0-0.5,0-1.4,0.1-2.5c0.1-1.1-0.2-1.9-0.2-1.9c0,0-0.7,0.7-1.8,1.4c-1.1,0.7-1.5,0.5-1.5,0.5
		c-0.1-0.4-0.2-0.7-0.3-1.1c0,0-0.5,1-1.1,2.3c-0.7,1.2-2.4,2.8-3.7,3.9c-1.3,1.2-2.7,2.3-3.7,2.8c-1.1,0.5-0.4,0.9-0.4,0.9
		c0,0,1,0.9,3.7,1.1C220.6,233.8,221.9,232.5,222.6,231.9"/>
	<path fill="#CDAE41" d="M232.1,229.5c-1,0-1.6-0.2-1.7-1.3c-0.1-0.6,0.1-3.3,0.1-3.3c0,0-0.3,0.3-0.7,0.8c-0.4,0.5-1.2,0.7-1.2,0.7
		c0,0-0.1,0.4-0.5,1c-0.4,0.6-0.8,1.4-1.8,2.2c-1,0.7-2,1.5-2.7,2.2c-0.7,0.7-1.5,1.5-2.5,2.1c-0.9,0.7-1.7,1.6-2.1,3
		c-0.3,1.4-0.1,1.8,1,1.6c1.1-0.2,1.2-0.1,3-0.8c1.7-0.7,4.2-3,6-4.4C230.8,232,232.1,229.5,232.1,229.5"/>
	<path fill="#CDAE41" d="M236.9,230.5c0,0-0.7-0.8-1-1.9c-0.3-1-0.8-3-0.8-3c0,0-0.2,0.7-0.8,2c-0.6,1.3-1.6,1.8-1.6,1.8
		c0,0,0,0.6-0.9,1.7c-0.8,1.2-2,2.4-3.3,3.3c-1.3,0.9-2.9,2.1-3.8,3.5c-0.9,1.4-0.9,2.7-0.5,3.2c0.4,0.5,1-0.2,1.8-0.8
		c0.8-0.5,3.2-1.2,6.5-3.5C235.9,234.6,236.9,230.5,236.9,230.5"/>
	<path fill="#CDAE41" d="M238.4,237.6c0.9-1.5,1-4.8,1-4.8c0,0-0.3-0.2-0.8-0.5c-0.4-0.3-1.3-1.5-1.3-1.5c0,0-0.5,1.2-1.1,2.4
		c-0.6,1.1-0.9,1.6-2.1,2.9c-1.2,1.3-2.9,2.6-3.6,4c-0.7,1.3-0.3,3.6,0.2,4.4c0.5,0.7,1.1,0.4,1.8-0.4c0.7-0.8,0.9-1,2.1-2.2
		C235.8,240.7,237.5,239.1,238.4,237.6"/>
	<path fill="#CDAE41" d="M265.3,224.7c-1.1-0.2-2.5-1-3.7-1.8c-1.3-0.8-3.1-1.8-3.7-2.9c-0.7-1.1-1.1-2-1.1-2
		c-0.1,0.4-0.2,0.8-0.3,1.1c0,0-0.4,0.3-1.5-0.1c-1.1-0.4-1.8-1-1.8-1c0,0-0.3,0.9-0.2,1.9c0.1,1,0.2,2,0.1,2.4
		c0,0.4-0.3,0.9-0.6,0.9c-0.2,0-0.4,0.1-0.6,0.1c0,0,0.6,1.1,2.3,2c1.7,0.9,2.3,1.3,3,1.7c0.7,0.3,2.1,1.3,4.8,0.4
		c2.7-0.9,3.8-2.1,3.8-2.1C265.7,225.5,266.3,224.9,265.3,224.7"/>
	<path fill="#CDAE41" d="M258.7,228.8c-0.9-0.4-1.8-1-2.5-1.4c-0.7-0.5-1.8-1.1-2.8-1.5c-0.9-0.5-1.4-1.1-1.8-1.7
		c-0.3-0.6-0.5-0.9-0.5-0.9s-0.8,0-1.2-0.4c-0.4-0.4-0.7-0.6-0.7-0.6c0,0,0.2,2.6,0,3.3c-0.2,1.1-0.7,1.5-1.7,1.8c0,0,1.3,2.1,3.1,3
		c1.9,0.9,4.3,2.5,6.1,2.7c1.8,0.2,1.9,0.1,3,0c1.1,0,1.3-0.5,1-1.9C260.4,229.9,259.6,229.2,258.7,228.8"/>
	<path fill="#CDAE41" d="M251.2,231.2c-1.3-0.5-2.5-1.4-3.3-2.3c-0.8-0.9-0.9-1.5-0.9-1.5c0,0-1-0.2-1.6-1.3
		c-0.6-1.2-0.9-1.8-0.9-1.8c0,0-0.5,2.1-0.8,3.2c-0.3,1.1-1,2.1-1,2.1c0,0,1.1,3.9,4.3,5.2c3.3,1.3,5.7,1.4,6.5,1.6
		c0.8,0.3,1.4,0.9,1.8,0.3c0.5-0.6,0.4-1.9-0.5-3.1C254.1,232.5,252.5,231.7,251.2,231.2"/>
	<path fill="#CDAE41" d="M245.6,234.4c-1.2-0.9-1.5-1.3-2.1-2.3c-0.6-1-1.1-2-1.1-2s-0.8,1.4-1.3,1.8c-0.4,0.4-0.8,0.7-0.8,0.7
		c0,0,0.2,3.3,1.1,4.5c0.9,1.2,2.6,2.3,3.8,3.2c1.2,0.9,1.4,1,2.1,1.6c0.7,0.6,1.3,0.7,1.8-0.1c0.4-0.9,0.9-3.3,0.1-4.4
		C248.5,236.3,246.9,235.4,245.6,234.4"/>
	<path fill="#CDAE41" d="M240.9,238.9c-0.8-0.8-1-1.2-1.1-1.2c0,0-0.3,0.5-1,1.5c-0.8,1-2.7,2.7-2.7,2.7c0,0,0.2,2.4,1.1,3.6
		c0.7,1,1.5,1.9,2.6,2.5c1.2-0.9,1.9-2,2.6-3.2c0.9-1.5,1.1-3.9,1.1-3.9C243.6,240.9,241.7,239.7,240.9,238.9"/>
	<path fill="#365E8F" d="M306.9,200.5c-0.7-0.1-1-0.4-1-0.4c0,0-0.3,0-0.6,0.5c-0.2,0.5-1.2,1.2-1.2,1.2c0,0-1.3,0.5-1.5,1.4
		c-0.2,0.9,0.5,1.2,1.1,1c0.6-0.2,2.2-0.7,2.8-1.5c0.7-0.9,0.7-1.4,0.9-1.7C307.6,200.7,307.7,200.6,306.9,200.5"/>
	<path fill="#365E8F" d="M309,193c-0.5-2-1.8-4.3-4.3-5.3c0,0-0.9,3.4-1.2,4.5c-0.3,1.1-0.3,1,0.5,1.2c0.8,0.1,3.4,0.4,3.9,0.5
		C308.4,194,309.3,194.3,309,193"/>
	<path fill="#365E8F" d="M297,192.5c0.6,0.1,0.5-0.2,0.7-1c0.2-0.8,1.3-4.9,1.3-4.9c0,0-2.7,0.2-5,1.6c-2.3,1.4-3.3,3.6-3.3,3.5
		c0,0,0.6,0.2,2.2,0.3C294.5,192.2,296.4,192.4,297,192.5"/>
	<path fill="#365E8F" d="M290.9,198.7c-1-0.1-1.3-0.1-1.3-0.1c0,0,0.6,2.2,1.6,3.3c1,1.1,2.1,1.7,4.1,1.4c2-0.2,3.6-1.5,3.8-2.4
		c0.3-0.9,0.7-1.6,0.7-1.6s-3.7-0.1-5.2-0.3C293,198.9,291.8,198.7,290.9,198.7"/>
	<path fill="#AB6C30" d="M261.6,158.1c-0.9-5.5,2.4-11,2.4-11c-2.1-2.2-4.2-4.4-6.4-6.6c-4.9,3.5-11.7,4-17.7,2.1
		c-5.9,3.5-12.8,4.9-17.6,2.8c-2.1,2.8-4.3,5.6-6.4,8.3c0,0,3.3,4.5,2.4,10.3c-1,5.8-3,15.1-2.5,18.7c0.5,3.6,3.1,7.5,5.7,9.3
		c2.6,1.9,6.6,3.2,9.4,3.8c2.8,0.6,5.5,2.2,6.8,3c1.3,0.8,2.1,1.6,2.1,1.6c0,0,0.9-1,2.2-2.2c1.3-1.2,4-3.5,6.8-4.9
		c2.8-1.4,6.7-3.8,9.4-6.4c2.7-2.6,5.2-7.2,5.7-10.9C264.5,172.4,262.5,163.7,261.6,158.1"/>
	<path fill="#AB6C30" d="M248.6,127.9c-0.9,1.2-3.2,2.6-3.2,2.6c0,0.1,0,0.1,0,0.2c0,0,0.9-0.3,1.8-1c0.9-0.6,2.2-2,2.5-2.5
		c0.3-0.5,0-0.8,0-0.8C249.6,126.4,249.5,126.7,248.6,127.9"/>
	<path fill="#AB6C30" d="M252.5,129.5c0,0.6-0.2,4.9-0.2,4.9c0,0.2-0.1,1.5-0.4,1.7c0.2,0,0.5,0,0.6-0.6c0.1-0.8,0.9-6.4,0.9-6.4
		c-0.2,0-0.3-0.1-0.5-0.1C252.9,129,252.5,128.8,252.5,129.5"/>
	<path fill="#AB6C30" d="M259.6,117.8c-0.4,0.2-1.4,1-1.9,1.5c-0.5,0.5-0.9,0.5-1.4,0.9c-0.5,0.3-0.3-0.8,0-1.7c0.3-0.9,1.3-2.1,2-3
		c0.7-0.9,0-0.6-0.4-0.2c-0.3,0.4-1.1,1.4-2.1,3c-0.9,1.6-1.5,5.2-1.5,5.2c0,0,0.6-0.4,1.1-0.9c0.6-0.5,1.2-0.9,2.3-1.9
		c1.1-0.9,1.7-1.6,2.3-2.4C260.8,117.6,260.1,117.6,259.6,117.8"/>
	<path fill="#AB6C30" d="M231.1,130.3c-0.9-0.9-1-1.2-1-1.2c0,0-0.3,0.3-0.1,0.8c0.3,0.4,1.6,1.4,2.5,1.8c0.9,0.4,1.8,0.4,1.8,0.4
		c0-0.1,0-0.1,0-0.2C234.3,132,232,131.3,231.1,130.3"/>
	<path fill="#AB6C30" d="M227.4,137.9c0,0-0.2-4.2-0.2-4.8c0-0.6-0.4-0.4-0.4-0.4c-0.1,0.1-0.3,0.2-0.4,0.3c0,0,0.8,5.3,0.9,6.1
		c0.1,0.6,0.4,0.5,0.6,0.5C227.5,139.3,227.4,138.1,227.4,137.9"/>
	<path fill="#AB6C30" d="M221.7,120.3c-0.4-0.3-1.1-0.4-0.4,0.3c0.7,0.7,1.7,1.6,2,2.5c0.3,0.8,0.5,1.8,0,1.7
		c-0.5-0.2-0.8-0.1-1.4-0.5c-0.5-0.4-1.5-0.9-1.9-1c-0.4-0.1-1.2,0.2-0.6,0.7c0.6,0.6,1.2,1.1,2.3,1.7c1.1,0.7,1.7,0.9,2.3,1.2
		c0.6,0.3,1.1,0.6,1.2,0.6c0,0-0.5-3.4-1.5-4.8C222.8,121.4,222,120.6,221.7,120.3"/>
	<path fill="#AB6C30" d="M239.8,216.1c0.1,0,0.1-0.2,0.1-0.8c0-0.5,0.1-1.7,0.2-2.4c0.1-0.7-0.2-0.6-0.4-0.5c-0.2,0-0.3,0.6-0.3,0.9
		c0,0.3,0.1,2,0.1,2.4C239.6,216,239.7,216.1,239.8,216.1"/>
	<path fill="#AB6C30" d="M252.2,208.1c0.4,0.9,0.6,0.8,0.4,0c-0.2-0.8-0.5-1.5-1-2.2c-0.5-0.7-1.6-1.6-1.6-1.6c0,0,0.3,0.6,0.8,1.2
		C251.1,206.1,251.7,207.2,252.2,208.1"/>
	<path fill="#AB6C30" d="M247.5,209.6c0.2,0.6,1.2,2.3,1.3,2.2c0.1-0.1-0.4-1.6-0.7-2.6c-0.3-1-0.9-1.8-1-1.7
		c-0.1,0,0.1,0.7,0.1,0.7C247.1,208.2,247.3,209,247.5,209.6"/>
	<path fill="#AB6C30" d="M243.8,213c0.2,0.4,0.5,1,0.6,0.9c0.1-0.1-0.3-1-0.3-1.2c-0.1-0.3-0.1-0.8-0.4-1.5c-0.3-0.6-0.4-0.3-0.4,0
		c0,0.2,0.4,1.4,0.4,1.4C243.6,212.6,243.6,212.6,243.8,213"/>
	<path fill="#AB6C30" d="M227.6,211.5c0.5-1,1-2.3,1.5-3c0.4-0.7,0.7-1.4,0.7-1.4c0,0-1.2,1.2-1.6,2c-0.5,0.8-0.7,1.6-1,2.5
		C227,212.5,227.1,212.6,227.6,211.5"/>
	<path fill="#AB6C30" d="M232.3,211.7c0.2-0.7,0.3-1.1,0.3-1.1c0,0,0.2-0.6,0.1-0.7c-0.1,0-0.6,0.5-0.9,1.6
		c-0.3,1.1-0.8,2.7-0.7,2.8C231.1,214.3,232.1,212.4,232.3,211.7"/>
	<path fill="#AB6C30" d="M235.9,214.1c0.2-0.5,0.2-0.5,0.2-0.5c0,0,0.4-1.3,0.4-1.5c0-0.3-0.2-0.5-0.5,0.1c-0.3,0.7-0.3,1.3-0.4,1.6
		c-0.1,0.2-0.4,1.3-0.3,1.3C235.5,215.3,235.7,214.6,235.9,214.1"/>
	<path fill="#AB6C30" d="M224.5,227c-0.2-0.1-0.3-0.2-0.5-0.3c0,0-0.3,0.5-0.7,1c-0.4,0.5-0.9,0.7-1.2,1.2c-0.3,0.5-0.8,1-1.6,1.6
		c-0.7,0.5-1,0.6-0.9,0.7c0.2,0.1,0.7-0.3,0.7-0.3c0,0,0.2,0,1.1-0.7c0.9-0.7,1.1-1,1.7-1.6C223.7,228,224.5,227,224.5,227"/>
	<path fill="#AB6C30" d="M228.5,231.1c0.4-0.4,0.7-0.8,0.5-0.9c-0.2-0.2-0.5-0.1-0.8,0.2c-0.3,0.3-1.2,1.3-1.6,1.7
		c-0.4,0.4-0.7,0.7-1.2,1.1c-0.4,0.4-1.3,1-1.8,1.3c-0.5,0.3,0,0.3,0,0.3c0,0,0.3-0.2,0.7-0.4c0.4-0.2,1.4-0.8,1.4-0.8
		c0,0,0.4-0.3,1-0.7C227.3,232.4,228.1,231.5,228.5,231.1"/>
	<path fill="#AB6C30" d="M233.1,233.6c0.3-0.6,0-0.4-0.5-0.2c-0.5,0.3-1.6,1.6-2.2,2.2c-0.7,0.5-1.2,0.8-1.7,1.1
		c-0.5,0.3-0.5,0.5-0.5,0.6c0,0.1,0.3,0.1,0.5-0.1c0.2-0.1,1-0.7,1-0.7c0,0,0.3-0.2,0.6-0.2c0.3-0.1,0.7-0.4,1.4-1.1
		C232.2,234.7,232.8,234.3,233.1,233.6"/>
	<path fill="#AB6C30" d="M235.2,237.5c-0.8,0.6-2.2,1.9-2.6,2.7c-0.4,0.8-0.6,1.4-0.5,1.4c0.1,0.1,0.5-0.2,0.7-0.5
		c0.2-0.3,0.5-0.8,0.5-0.8c0,0,1.4-1.6,1.9-2c0.5-0.4,1.4-1.4,1.6-2c0.2-0.6,0-0.9,0-0.9C236.9,235.6,236,236.9,235.2,237.5"/>
	<path fill="#AB6C30" d="M259.2,225.1c-0.8-0.3-1.3-0.7-1.6-1.1c-0.3-0.4-0.8-0.5-1.2-0.9c-0.4-0.4-0.7-0.8-0.7-0.8
		c-0.2,0.1-0.3,0.3-0.5,0.4c0,0,0.8,0.8,1.4,1.3c0.6,0.4,0.8,0.7,1.7,1.1c0.9,0.4,1.1,0.4,1.1,0.4c0,0,0.5,0.2,0.7,0.1
		C260.2,225.4,260,225.3,259.2,225.1"/>
	<path fill="#AB6C30" d="M256.1,230c-0.4-0.1-1.4-0.5-1.8-0.8c-0.4-0.3-0.7-0.5-1.2-0.7c-0.4-0.3-1.3-1.1-1.7-1.3
		c-0.3-0.2-0.6-0.2-0.8,0c-0.2,0.2,0.2,0.4,0.5,0.7c0.3,0.3,1.2,1,1.7,1.3c0.6,0.3,1,0.5,1,0.5c0,0,1.1,0.3,1.4,0.4
		c0.4,0.1,0.7,0.2,0.7,0.2C256.1,230.3,256.5,230.2,256.1,230"/>
	<path fill="#AB6C30" d="M251.1,233.6c-0.5-0.2-1.1-0.3-1.7-0.6c-0.6-0.4-1.7-1.4-2.2-1.6c-0.5-0.1-0.8-0.2-0.5,0.3
		c0.3,0.6,0.9,0.8,1.6,1.3c0.6,0.5,1,0.7,1.4,0.7c0.3,0,0.6,0,0.6,0c0,0,0.7,0.4,1,0.4c0.3,0.1,0.5,0,0.5-0.1
		C251.7,234,251.7,233.8,251.1,233.6"/>
	<path fill="#AB6C30" d="M244.5,236.2c-0.8-0.4-1.6-1.5-1.6-1.5c0,0-0.2,0.3,0,0.8c0.2,0.5,1,1.3,1.5,1.5c0.5,0.2,1.9,1.4,1.9,1.4
		c0,0,0.4,0.4,0.5,0.7c0.2,0.3,0.6,0.5,0.7,0.3c0.1-0.1-0.1-0.6-0.5-1.3C246.7,237.5,245.3,236.6,244.5,236.2"/>
	<path fill="#AB6C30" d="M239.5,242.1c0.1,0.5,0,2,0.4,1.9c0.4,0,0.3-1.5,0.4-2c0.1-0.6,0.1-2,0.1-2c-0.3,0-0.6,0.1-0.9,0.1
		C239.4,240.2,239.4,241.6,239.5,242.1"/>
	<path fill="#365E8F" d="M261,158.9c-0.9-6,1.8-11.3,1.8-11.3c-1.9-1.9-3.8-3.7-5.7-5.6c-4.8,3.2-10.7,3.3-17.2,2
		c-6.4,3.1-12.3,4.6-17.2,2.8c-1.9,2.4-3.8,4.8-5.8,7.2c0,0,2.8,4.6,1.8,10.8c-0.9,6.2-2.3,13.4-2,17.4c0,0.3,0.1,0.6,0.1,0.8
		c1.7-0.2,3.5-0.5,5.2-0.7c0,0,0.3-0.4,0.9-0.7c0.6-0.3,0.7-0.5,0.7-0.5c0,0,0.1-1.1,0.7-1.4c0.6-0.3,0.9-0.4,1.2-0.4
		c0.2,0,0.5-0.1,0.8-0.5c0.3-0.4,1.1-1.2,1.5-2.3c0.3-1.1,0.6-1.6,0.6-2.3c0-0.7,0.3-1.8,0.3-1.8c0,0-0.1-0.3-0.7-0.1
		c-0.5,0.3-0.6-0.2-0.7-0.8c-0.1-0.5,0-1.6,0.3-2.2c0.3-0.6,0.4-0.7,0.4-0.7c-0.1-0.3-0.1-0.5-0.2-0.8c0,0-3.4,1.1-3.9-1.4
		c-0.6-2.5-0.7-3.7-0.8-4c-0.1-0.3-0.2-0.4-0.6-0.3c-0.4,0.1-1.4-0.1-2-1.3c-0.7-1.2-0.7-1.8-0.5-2.3c0.2-0.5,0.6-0.4,0.7-0.3
		c0.1,0.1,1,1.3,1.3,0.9c0.4-0.4,0.1-0.4-0.3-1.3c-0.5-0.9-0.3-1.3-0.3-1.8c0.1-0.5-0.2-1.1-0.2-1.4c0-0.3,0.3-0.6,0.6-0.5
		c0.3,0.1,0.6,0.3,0.7,0.4c0.1,0.2,0.2,0.4,0.5,0.2c0.3-0.2,0.1-1.1,0.1-1.4c0-0.3,0.4-0.6,0.8-0.4c0.4,0.2,0.7,0.6,0.7,1
		c0,0.3,0,0.6,0.2,0.6c0.2,0,0.4-0.6,0.4-0.9c0-0.3,0.2-0.9,0.5-0.5c0.3,0.3,0.4,0.9,0.3,1.6c-0.1,0.7,0.1,0.3-0.1,1.4
		c-0.2,1.2-0.3,1.7-0.3,2.5c0,0.8,0.1,1.3,0.5,2.3c0.4,1,0.7,2.1,1.5,2c0.8,0,1-0.1,1-0.1c0,0,0.9-1.8,1.5-2.3
		c0.7-0.5,1.6-0.7,2.3-0.9c0.7-0.2,0.9-0.4,0.9-0.5c0-0.2-0.2-0.2-1-0.2c-0.8,0-1.5-0.1-1.5-0.7c0-0.6,0.1-1.1-0.4-1.1
		c-0.5,0.1-1.8-0.2-2.3-1c-0.5-0.8-0.4-1-0.3-1.5c0.1-0.5,0.7-1.5,1.1-0.7c0.4,0.8,0.6,0.9,1,1.1c0.3,0.1,0.7,0.1,0.5-0.4
		c-0.2-0.6-0.4-0.9-0.3-1.4c0.1-0.5,0.4-0.7,0.7-0.8c0.4-0.1,1.4-0.6,2-0.8c0.5-0.2,0.6-0.2,0.6-0.2c0,0,0.1-0.4,0.8-0.7
		c0.7-0.3,1.2-0.4,1.7-0.5c0.5-0.1,0.9,0,1.6-0.5c0.7-0.4,1.2-0.6,1.7-0.6c0.4,0,0.8,0.1,1.1,0.3c0.4,0.2,0.2,0.5,0.2,0.8
		c0,0.3,0.1,0.5,0.5,0.4c0.5-0.1,0.9-0.1,1.3,0c0.5,0.1,1.1,0.2,0.7,0.8c-0.4,0.5-0.4,1.1-0.7,1.1c-0.2,0-0.2,0.3-0.3,0.4
		c-0.1,0.2-0.2,0.3,0.1,0.5c0.3,0.1,0.3,0.3,0.7,0.6c0.4,0.3,1,0.6,0.4,1.3c-0.6,0.7-1.6,1.3-1.6,1.3c0,0-0.6,0.3,0.1,0.6
		c0.7,0.3,1,1.1,1.2,1.2c0.2,0.1,0.5,0.3,0.6,0.4c0.2,0,0.1,0.6,0.1,0.6c0,0-0.4,0.3-0.9,0.5c-0.5,0.3-1,0.6-1.5,0.6
		c-0.5,0.1-0.7,0.1-0.5,0.5c0.2,0.4,0.5,0.8,0.6,1c0.1,0.3,0.2,0.7,0.2,0.7c0,0,0.8,0,1.5-0.1c0.7-0.1,1-0.1,2.5-0.5
		c1.5-0.4,2-0.5,3.5-0.5c1.5,0,1.7-0.1,2.1-0.1c0.4,0.1,0.8,0.2,0.8,0.2c0,0,2.1-0.3,3.2-0.7c1.2-0.4,1.4-1.2,1.2-1.5
		c-0.2-0.4-0.1-1-2.1-1c-2,0-2.8,0.2-4.4,0.1c-1.6-0.1-4.1-0.5-4.5-2.5c-0.4-1.9,1.2-3,2-3.5c0.8-0.5,2.6-1.4,3.4-1.8
		c0.8-0.4,2.3-1,3.8-1c1.6,0,2.4,0.3,3-0.1c0.6-0.5,1.1-0.3,1,0.3c-0.1,0.5-0.7,1.8-2.5,2.6c-1.8,0.8-3.9,1.1-5,1
		c-1.1-0.2-2-0.5-2.7-0.1c-0.7,0.4-1.5,1.3-0.7,2.2c0.7,0.9,4.6,0.7,5.6,0.7c1,0,4.8-0.8,5.9,0.9c1.1,1.7,0.2,4-1.1,4.6
		c-1.3,0.7-2.4,1.1-3.3,1.4c-0.3,0.1-0.6,0.2-1,0.3c0,0,0.5,1,0.5,1.4c0,0.4-0.1,1.2,0.4,1.4c0.5,0.3,1.1,0.4,1.9,0.2
		c0.8-0.2,1.8,0.2,1.8,0.9c0,0.7,0.2,1.7,0.4,3.1c0.1,1.4,0,2.6,0,2.6c0,0-0.1,0.6-0.3,1.1c-0.2,0.6-1.2,2.7-1.2,2.7
		c1.9-0.3,3.7-0.5,5.6-0.8c0-0.3,0.1-0.6,0.1-0.9C263.3,171.7,261.9,164.9,261,158.9"/>
	<path fill="#738B42" d="M217.5,185.6c1.1,3,3.4,5.9,6.8,7.4c4.8,2.2,6.8,1.5,11.4,3.9c4.5,2.3,4.2,2.8,4.3,2.8c0.1,0-0.2-0.5,4.3-4
		c4.5-3.6,6.6-3.5,11.3-7c3.4-2.5,5.7-6,6.8-9.3C247.3,181.5,232.4,183.6,217.5,185.6z"/>
	<path fill="#CDAE41" d="M221.4,161c0.5,0.5,0.9,0.6,1.6,0.4c0.8-0.2,1,0.3,1.1,0.9c0.1,0.6,0.1,2.1,0.7,3.3
		c0.5,1.3,2.4,1.1,2.4,1.1c0.1-0.7,0.3-1.6,0.6-2.3c0.1-0.1,0.3-0.8-0.4-0.7c-0.7,0.1-0.7-0.2-1-0.8c-0.4-0.6-1.2-2.2-1.4-3.3
		c-0.2-1.1,0.2-2.8,0.3-3.4c0.2-0.6,0.2-1,0-1.1c-0.2,0-0.6,0.1-0.6,0.1c0,0,0.2,0.5,0,0.6c-0.2,0.1-0.4-0.2-0.5-0.6
		c-0.1-0.3-0.3-0.3-0.6-0.2c-0.3,0.1-0.3,0.3-0.1,0.5c0.2,0.3,0.1,0.7,0.1,0.7c0,0-0.6-0.3-0.9-0.4c-0.2-0.1-0.8,0.2-0.9,0.6
		c-0.1,0.3,0.2,1.1,0.7,1.5c0.5,0.4,0.5,1.3,0.4,1.7c-0.2,0.4-0.9,0.5-1.1,0.3c-0.1-0.2-0.5-0.2-0.7,0.1
		C221.1,160.3,220.9,160.5,221.4,161"/>
	<path fill="#CDAE41" d="M221.1,159.6c0,0-0.3-0.2-0.4-0.3c-0.1-0.1-0.3-0.4-0.3-0.4c0,0-0.1,0.1-0.1,0.4c0,0.4,0.3,0.7,0.3,0.7
		C220.8,159.8,220.9,159.7,221.1,159.6z"/>
	<path fill="#CDAE41" d="M222.2,155.7c0.2-0.1,0.4-0.2,0.2-0.5c-0.2-0.2-0.3-0.5-0.5-0.5c-0.2,0-0.4,0-0.4,0c0,0,0.2,0.5,0.3,0.8
		C221.9,155.7,222,155.8,222.2,155.7"/>
	<path fill="#CDAE41" d="M223.6,154.4c0,0.2,0,0.3,0.2,0.2c0.2-0.1,0.3-0.4,0.2-0.6c-0.1-0.2-0.4-0.3-0.4-0.3
		c-0.1,0-0.1-0.1-0.2-0.1C223.5,153.5,223.6,154.1,223.6,154.4"/>
	<path fill="#CDAE41" d="M225.6,154.4c0-0.3-0.1-0.6-0.1-0.6c0,0,0,0.3-0.2,0.5c-0.1,0.2-0.1,0.2,0.1,0.3
		C225.6,154.8,225.6,154.7,225.6,154.4"/>
	<path fill="#CDAE41" d="M228.8,167.7c0.4,0.9,1.4-0.7,2.3-2c0.9-1.3,0.9-0.4,0.8,0.6c-0.1,1,0.3,1.9,0.6,2.5
		c0.3,0.6,0.6,0.2,0.8-0.3c0.2-0.5,0.3-1.5,0.6-2c0.3-0.5,0.6-0.1,0.6,0.3c0,0.4,0.5,1.2,1,1.7c0.4,0.4,0.6-0.3,0.8-1
		c0.1-0.7,0.3-1.7,0.5-2.1c0.1-0.4,0.5-0.1,0.5-0.1c0,0,0.3,0.3,0.9,0.8c0.6,0.5,0.7-0.4,0.8-0.9c0.1-0.5-0.1-1.5,0.1-1.7
		c0.2-0.2,0.7,0.2,1.5,0.4c0.7,0.3,0.7-0.5,0.7-0.9c-0.1-0.4-0.6-1.3-1.2-1.8c-0.6-0.4-0.7-1.1-0.5-1.4c0.2-0.3,1-0.2,1.5-0.3
		c0.5-0.1,0.7-0.2,1.1-0.3c0.4-0.1,0.4-0.5,0.4-0.5c0,0-0.3-0.5-0.8-0.8c-0.5-0.4-0.9-0.7-1.5-0.8c-0.6-0.1-1.5,0.2-1.5,0.2
		c0,0-0.1-0.1-0.1-0.1c-0.1-0.1-0.3-0.1-0.4,0.1c-0.1,0.2-0.4,0.5-0.6,0.7c-0.3,0.2-0.4,0.4-0.5,0.3c-0.2,0,0.1-0.3,0.1-0.3
		c0,0,0.3-0.3,0.6-1c0.3-0.7,0.4-1.3,0.2-1.5c-0.3-0.2-0.9,0.1-1.3,0.2c-0.3,0-0.6,0.1-0.6-0.1c0-0.2,0.4-0.1,0.8-0.3
		c0.5-0.1,0.7-0.7,0.9-1.2c0.2-0.5,0.3-0.4,0.5-0.2c0.3,0.2,0.5,0.1,0.6,0c0.1-0.2,0.3-0.7,0.6-1.2c0.3-0.5,0.5-1.2,0.1-1.5
		c-0.3-0.4-1.1-0.2-1.5,0.1c-0.3,0.3-0.5,0.6-0.6,1.3c-0.1,0.7-0.3,0.4-0.3,0.1c0-0.2-0.3-0.5-0.2-0.8c0.2-0.3,0-0.5,0-0.5
		s0-0.6-0.7-0.6c-0.6,0-1.4,0.2-2,0.5c-0.6,0.2-0.5,0.8-0.5,0.8c0,0-0.5,0.1-1,0.2c-0.5,0.1-1.1,0.4-1.6,0.6
		c-0.5,0.2-0.7,0.3-0.7,0.5c0,0.2,0.1,0.6,0.1,0.6c0,0,0.4-0.1,0.6,0c0.2,0.1,0.1,0.3-0.2,0.4c-0.3,0.1-0.3,0.2-0.3,0.5
		c0,0.3,0.1,0.4,0.4,0.3c0.2,0,0.8-0.1,1.4,0.1c0.6,0.2,0.8,0.7,0.7,1c-0.1,0.3-0.9,0.8-1.3,0.9c-0.4,0.1-0.6,0.2-0.6,0.4
		c0,0.3,0.5,0.2,0.5,0.2c0,0,0.5,0,1.5-0.1c1,0,1.2,0.2,1.6,0.5c0.5,0.3,0.1,0.5-0.1,0.7c-0.2,0.1-0.5,0.5-0.9,0.6
		c-0.4,0.2-0.6,0.5-0.9,0.6c-0.3,0.1-1.1,0.2-2.5,0.9c-1.4,0.7-1.9,2.7-1.9,2.7c0,0,0.2-0.1,0.8-0.5c0.6-0.4,1.5-0.9,2.2-1.5
		c0.7-0.6,0.7,0.1,0.3,0.8c-0.3,0.7,0.3,0.4,0.6,0.2c0.2-0.2,0.5-0.4,1.2-0.9c0.7-0.4,0.5,0.2,0.5,0.2c0,0-0.2,0.5-0.3,1.5
		c0,1,1-0.1,1.5-0.8c0.5-0.7,0.7-0.1,0.3,0.7c-0.4,0.8-1.1,1.5-1.5,1.6c-0.4,0.1-0.7-0.3-0.7-0.6c0-0.3,0.1-1-0.1-1.1
		c-0.2-0.2-0.9,0.1-1.5,0.5c-0.5,0.4-0.6,0.2-0.7-0.1c-0.1-0.2,0.2-0.4,0.1-0.5c-0.1-0.2-0.4,0.1-0.6,0.2c-0.2,0.1-0.7,0.5-1.7,1.1
		c-1,0.6-0.9,0.9-0.9,1.6C228.2,166.7,228.4,166.8,228.8,167.7"/>
	<path fill="#CDAE41" d="M238,151c0.2-0.1,0.6-0.3,0.6-0.3c0,0,0.4-0.2,0.9-0.3c0.4-0.1,0.3-0.4,0.2-0.5c-0.1-0.2-0.2-0.3-0.8-0.2
		c-0.6,0.1-0.9,0.4-1.2,0.6c-0.3,0.2-0.6,0.3-0.6,0.3c0,0,0.1,0.1,0.3,0.4C237.5,151.2,237.8,151.2,238,151"/>
	<path fill="#CDAE41" d="M240.2,152.9c0.2,0,0.5-0.2,0.5-0.2c0,0,0.4-0.3,0.7-0.4c0.4-0.2,0.5-0.3,0.8-0.7c0.2-0.5-0.3-0.4-0.9-0.5
		c-0.6-0.1-0.9,0.2-1,0.4c-0.1,0.3-0.1,0.5-0.3,1C239.7,153,239.9,153,240.2,152.9"/>
	<path fill="#CDAE41" d="M240,153.5c-0.6,0.1-1.3,1.1-1.6,1.3c-0.3,0.2-0.1,0.4-0.1,0.4c0,0,0.2,0.4,0.2,0.7c0.1,0.4,0.1,1,0.1,1
		c0,0,0.1,0,0.4,0c0.4-0.1,0.6-0.3,0.9-0.6c0.3-0.3,0.6-0.4,1.1-0.6c0.5-0.2,0.7-0.3,1.2-0.7c0.6-0.4-0.2-0.8-0.8-1.1
		C240.9,153.5,240.6,153.4,240,153.5"/>
	<path fill="#CDAE41" d="M231.8,156.8c0.5-0.1,0.7-0.4,0.7-0.6c0-0.3-0.3-0.6-0.9-0.4c-1.5,0.3-3,0-3.3-1.5c0,0-0.5,1,0.4,1.9
		C229.8,157.1,231.3,156.9,231.8,156.8"/>
	<path fill="#CDAE41" d="M226.6,181.4c0.1,0.1,0.2,0.2,0.3,0.2c0.8-0.1,1.5-0.2,2.3-0.3c0.4-0.2,0.4-0.5,0.4-0.8
		c0-0.3,0.2-1.2,0.6-2.8c0.3-1.6,0.9-2.7,1.1-3.4c0.2-0.6-0.2-0.8-0.4-1.1c-0.2-0.4-0.4-1-0.5-1.4c-0.1-0.3-0.6-0.2-0.9-0.2
		c-0.3,0.1-0.4,0.6-0.4,1c0,0.5-0.3,1.9-0.5,3.1c-0.2,1.2-1.6,3-1.9,3.4c-0.4,0.4-0.7,0.6-0.9,0.6c-0.2,0-0.8,0.1-1.1,0.3
		c-0.3,0.2-0.6,0.7-0.6,1c0,0.3,0.5,0.4,0.5,0.4c0,0,0.4-0.3,0.6-0.6c0.2-0.2,0.5-0.3,0.9-0.4c0.4-0.1,0.4,0,0.3,0.2
		C226.3,180.9,226.4,181,226.6,181.4"/>
	<path fill="#CDAE41" d="M223.1,181.8c-0.2,0.1-0.3,0.3-0.4,0.4c0.5-0.1,1-0.1,1.5-0.2c0-0.1-0.1-0.2-0.1-0.3
		C223.9,181.4,223.4,181.6,223.1,181.8"/>
	<path fill="#CDAE41" d="M225.1,181.4c-0.2,0.1-0.4,0.3-0.5,0.5c0.5-0.1,1.1-0.1,1.6-0.2c0.1-0.2,0.1-0.4-0.1-0.5
		C225.8,181,225.4,181.3,225.1,181.4"/>
	<path fill="#CDAE41" d="M239.4,178.8c-0.2,0-0.3,0.2-0.6,0.4c-0.3,0.2-0.3,0.5-0.4,0.7c0,0.1,0,0.1,0,0.1c0.2,0,0.5-0.1,0.7-0.1
		c0,0,0,0,0-0.1c0-0.2,0.1-0.4,0.4-0.6C239.8,178.9,239.5,178.8,239.4,178.8"/>
	<path fill="#CDAE41" d="M240.7,179.3c0-0.2-0.1-0.4-0.2-0.4c-0.2,0.1-0.4,0.4-0.6,0.5c-0.1,0.1-0.2,0.2-0.3,0.3
		c0.4,0,0.7-0.1,1.1-0.1C240.7,179.6,240.7,179.5,240.7,179.3"/>
	<path fill="#CDAE41" d="M247,170.9c0.5-0.4,0.4-0.5,0.5-0.9c0-0.4,0-0.5-0.2-0.6c-0.2-0.1-0.9-0.3-1.6-0.2c-0.7,0.1-2,0.4-2.5,0.8
		c-0.5,0.4-0.7,1.7-0.7,2.3c0,0.7,0.1,0.7,0.3,0.7c0.2,0,0.5-0.5,0.5-0.5c0,0,0.7,0.8,1.1,1.3c0.4,0.5,0.2,0.8,0,1.3
		c-0.2,0.5-0.8,1.8-1.3,2.1c-0.5,0.3-0.9,0.2-1.5,0.1c-0.6,0-0.9,0.2-1.3,0.6c-0.4,0.4,0,0.7,0.2,0.6c0.2,0,0.5-0.1,0.7,0.2
		c0.1,0.2,0.1,0.7,0,0.9c1-0.1,2-0.3,3-0.4c0.5-0.3,0.9-1,1-1.4c0.1-0.5,0.8-1.1,1.1-1.5c0.3-0.3,0.4-0.6,0.4-1.2
		c0-0.6-0.2-1-0.4-1.4c-0.2-0.4-0.4-1.1-0.3-1.5C245.9,171.8,246.5,171.3,247,170.9"/>
	<path fill="#CDAE41" d="M242.1,164c0.3,0.5,0.1,0.6-0.3,0.7c-0.4,0.2-0.9,0.3-1.6,0.4c-0.6,0-0.6,0.1-0.6,0.4
		c0,0.4-0.1,1.1-0.5,1.7c-0.4,0.6-0.9,0.5-1.2,0.3c-0.3-0.2-0.5-0.1-0.6,0.3c-0.1,0.4-0.3,0.7-0.6,1.3c-0.3,0.6-0.5,0.7-0.7,0.7
		c-0.2,0-0.4-0.3-0.7-0.3c-0.2,0-0.6-0.4-0.9-0.9c-0.3-0.5-0.5,0.1-0.7,0.6c-0.2,0.5-0.4,0.9-0.9,0.9c-0.4,0-0.9-0.8-1.2-1.2
		c-0.2-0.4-0.4-0.9-0.8-0.9c-0.4,0.1-1,1-1.4,1.2c-0.4,0.3-0.5,0.2-0.7,0c-0.2-0.2-0.4,0.2-0.7,0.8c-0.2,0.7,0,1.1,0.3,1.3
		c0.4,0.1,1-0.4,1.5-0.8c0.5-0.4,0.7-0.3,1.2-0.4c0.4-0.1,0.4,0.7,0.6,1.8c0.2,1.1,0.8,1.2,0.8,1.1c0,0,0.3,0.2,0.7-0.8
		c0.5-1,0.6-1.8,1.1-1.9c0.5-0.1,0.5,0,1,0.6c0.5,0.6,0.9,1.1,1.2,0.5c0.3-0.5,0.5-1.3,0.8-1.7c0.3-0.3,0.6-0.4,0.3,0.2
		c-0.3,0.5-0.5,1.1,0.2,0.8c0.7-0.3,3.4-1.8,4.4-2.1c0,0,1.3-0.4,2.7-0.7c1.4-0.3,1.8-0.4,2.4-0.5c0.6-0.1,0.6-0.2,0.6-0.5
		c0-0.4-0.3-0.3-1.3-0.1c-1,0.1-1.8,0.4-2.5,0.6c-0.7,0.2-1.1,0.3-1,0.1c0.2-0.2,0.4-0.4,1.2-0.6c0.8-0.3,2.6-0.6,3.5-0.7
		c0.9-0.2,0.7,0.2,0.6,0.8c-0.1,0.6,0.1,1.5,0.1,2c0,0.6,0.1,0.7,0.6,1.4c0.5,0.7,2.2,1,2.7,1.2c0.5,0.2,0.4-0.1,0.4-0.5
		c0-0.5,0.4-0.5,0.8-0.3c0.4,0.2,1.2,0.3,1.7,0.3c0.5,0.1,0.6,0.2,0.6,0.4c0,0.3,0.1,0.8,0.1,1.4c0.1,0.5,0.1,0.7-0.2,1.1
		c-0.3,0.4-1.2,1.5-1.2,1.5c0,0-0.4,0.1-1.3,0.4c-0.9,0.4-1.2,0.8-1.3,1.2c-0.1,0.4,0.2,0.5,0.2,0.6c0,0,0,0.3,0,0.4
		c0.1,0,0.1,0,0.2,0c0.1-0.2,0.2-0.3,0.3-0.5c0.3-0.5,1.1-0.6,1.7-0.5c0.3,0.1,0.3,0.5,0.3,0.7c0.7-0.1,1.4-0.2,2.1-0.3
		c0.3-0.6,1-2,1.1-2.4c0.2-0.5,0.4-0.9,0.4-1.6c0-0.7,0.1-3.4-0.1-3.6c-0.1-0.1,0.1-0.6,0-1.3c0-0.8,0-1.3-1.4-1.3
		c-1.4,0.1-1.8-0.5-2.3-0.8c-0.5-0.4-0.4-1.5-0.7-2.8c-0.4-1.3-1.3-1.4-3-1.4c-1.6-0.1-2.8,0-4.1,0.3c-1.2,0.3-2.7,0.7-3.6,0.7
		C241.6,163.4,241.7,163.6,242.1,164"/>
	<path fill="#CDAE41" d="M250,178.1c-0.2,0.1-0.3,0.2-0.3,0.3c0.5-0.1,1-0.1,1.4-0.2c0-0.1,0-0.2-0.2-0.4
		C250.7,177.6,250.3,177.8,250,178.1"/>
	<path fill="#CDAE41" d="M252.5,177.7c-0.2,0.1-0.4,0.3-0.5,0.4c0.5-0.1,1-0.1,1.5-0.2c0-0.1,0-0.1,0-0.2
		C253.4,177.5,253,177.3,252.5,177.7"/>
	<path fill="#CDAE41" d="M216.9,183.5c0.1,0.4,0.2,0.9,0.3,1.3c15.1-2.1,30.2-4.2,45.3-6.3c0.1-0.5,0.2-0.9,0.3-1.4
		C247.5,179.2,232.2,181.4,216.9,183.5z"/>
	<path fill="#CDAE41" d="M247.4,157.6c1.4,0.7,6,0.2,8.1,0.3c2.2,0.1,2,1.8,1.3,2.7c-0.6,1-3.7,1.5-4.2,1.6c0.3,0.2,0.7,0.7,0.7,0.7
		s0.3-0.1,1.3-0.3c0.9-0.2,2.5-0.6,3.5-1.6c1.1-1.1,1-2.5,0.1-3.4c-1-0.8-2.5-0.7-4.2-0.7c-1.6,0-2.8,0.1-4.7,0
		c-1.8-0.1-2.7-0.7-2.7-1.7c0-1,1-1.7,1.7-2c0.7-0.3,1.8-0.7,2.8-0.5c1,0.2,2.2,0.1,4.2-0.4c2-0.5,2.5-1.9,2.5-1.9s-0.2,0.2-1.3,0.3
		c-1,0.2-1.7-0.2-3.5,0c-1.9,0.3-2.5,1-3.4,1.4c-0.8,0.4-3.1,1-3.8,2.6C245.2,156.3,246,156.9,247.4,157.6"/>
	<path fill="#AB6C30" d="M235.5,151.6c0.4-0.1,0.8,0.3,0.8,0.7c0,0.5-0.4,0.9-0.8,1c-0.5,0.1-0.9-0.3-0.9-0.7
		C234.7,152.1,235.1,151.7,235.5,151.6"/>
	<path fill="#AB6C30" d="M253.9,151.3c-1.1,0-2.6,0.6-2.6,0.6c0,0,0.3,0.2,0.7,0.1c0.4-0.1,1-0.2,2.1-0.2c1.1,0.1,1.9-0.6,1.9-0.6
		C256,151.2,255,151.3,253.9,151.3"/>
	<path fill="#CDAE41" d="M290.2,197.3c0.9,0.1,8.4,0.7,9,0.7c0.6,0.1,1.2,0.1,1.3,0c0.2-0.2,0.3-0.3,0.9-0.6c0.7-0.3,0.6-1,0.6-1
		c0,0,0.2-0.6,0.2-1.3c0.1-0.6,0.4-0.9,1.2-0.2c0.7,0.7,0.9,1.8,1,2.9c0.2,1,1.9,1.2,2.5,1.2c0.7,0,1-0.2,1.4-0.9
		c0.4-0.7,0.6-2,0.7-2.8c0.1-0.8,0-0.7-0.8-0.8c-0.8-0.1-4.7-0.6-5.4-0.7c-0.7-0.1-0.6-0.6-0.5-1.1c0.1-0.5,1.7-5.6,1.7-5.6
		c-1.1-0.6-2.6-0.8-4.5-0.8c0,0-1.1,5.1-1.3,5.9c-0.2,0.8-0.7,0.8-1.5,0.8c-0.8-0.1-6.6-0.7-6.6-0.7c-0.1,0.4-0.3,0.8-0.4,1.1
		c-0.4,1.1-0.7,2.4-0.7,3.1C289.1,197.3,289.4,197.2,290.2,197.3"/>
	<path fill="#CDAE41" d="M310.1,199.6c-0.8-0.4-1.4-0.5-1.8,0.5c-0.4,1-0.4,2.3-1.4,3.4c-1,1.1-2.4,2.2-3.8,2.3
		c-1.4,0-2.2-0.2-1.9-1.8c0.3-1.7,2.5-2.4,3-3.3c0.5-0.9,0.4-1.8-0.4-2.4c-0.7-0.6-1.8-0.6-2.1-0.3c-0.3,0.2-1.2,1-1.6,2.3
		c-0.5,1.3-0.7,2.3-1.7,3.1c-0.9,0.9-3.3,1.9-5.2,1.7c-1.8-0.2-2.5-0.7-3.2-2.5c-0.7-1.8-1.5-4.7-1.9-5c-0.4-0.3-0.8-0.5-1.6,0.2
		c-0.8,0.7-0.9,1.5-1,2.2c-0.1,0.7,0,1.4,0.8,2.3c0.8,0.9,1.7,1.7,1.9,2.7c0.3,1,1.2,2.4,0,2.6c-1.3,0.2-1.9,0.3-2.8-0.5
		c-1-0.8-4.8-2.9-5.8-3.6c-1-0.7-1.5-0.9-1.5-0.9c-1.8,0.2-3.5-0.3-5.2-1.3c0,0,1,2.5,1.2,3.4c0.2,0.9,0.2,1.5,0.2,1.5
		c0,0,3.8,1.4,5.3,2c1.5,0.5,4.5,1.9,6,2.6c1.5,0.7,2.7,2,5.3,1.1c2.6-0.9,7.9-3.1,9.6-3.8c1.7-0.7,6.4-2.4,8.1-3.8
		c1.7-1.4,1.9-1.3,2.2-2.6C311.1,200.7,310.9,200,310.1,199.6"/>
	<path fill="#CDAE41" d="M300,182.7c0.3-0.1,0.4-0.1,1.3-0.3c0.9-0.2,0.6,0.7,0.4,1c-0.1,0.4-0.4,1-0.8,1.7
		c-0.4,0.7,0.1,0.7,0.4,0.8c0.3,0,0.6,0.1,1.3,0.2c0.8,0.1,0.6-0.4,0.6-0.7c0-0.3,0.1-1.7,0.1-2.2c0.1-0.5,0.6-0.4,0.7-0.4
		c0.2,0.1,0.7,0.3,1,0.4c0.4,0.1,0.5-0.1,0.6-0.3c0.1-0.2,0.2-0.6,0.4-1.2c0.2-0.6-0.2-0.4-0.6-0.4c-0.3,0-0.8,0.1-1.4,0.1
		c-0.6,0-0.2-0.5-0.2-0.5c0,0,0.4-0.7,0.7-1.3c0.3-0.5,0.2-0.6-0.1-0.7c-0.3-0.1-1.3-0.2-1.6-0.2c-0.3,0-0.4,0-0.4,0.2
		c0,0.2,0,1.2,0,1.6c0,0.4,0,0.6-0.5,0.7c-0.5,0.1-0.8-0.2-1.2-0.6c-0.4-0.4-0.6-0.2-0.6,0c-0.1,0.2-0.4,1.5-0.4,1.9
		C299.5,182.8,299.7,182.7,300,182.7"/>
	<path fill="#CDAE41" d="M271,200.5c-0.6-0.5,0.9-0.7,1.7-0.8c0.9-0.1,2.2-0.8,2.7-1.1c0.4-0.3,1.2-0.6,2.2-1.2
		c0.9-0.5,0.4-0.6-0.6-0.8c-1-0.1-3.5-0.8-3.5-0.8s-1.2,0.8-1.9,1.3c-0.7,0.5-1.6,1.2-3.1,1.6c-1.5,0.4-1.9,0.5-2,0.6
		c-0.1,0.1,0.4,0.4,0.9,1.1c0.5,0.7,0.8,1.2,1.5,2.3c0.7,1.1-0.1,0.5-0.7-0.2c-0.3-0.4-1.1-1.3-1.8-1.9c-0.5-0.5-1.1-0.8-1.1-0.8
		c-0.2,0.4-0.3,0.7-0.5,1.1c0,0.1,0,0.3,0,0.4c0,0.3-0.3,2-0.4,2.7c-0.1,0.7,0.1,0.7,0.7,0.8c0.5,0.1,1.6,0.6,4.3,2
		c2.8,1.4,3.8,2.4,3.8,2.4c0,0,0.1-0.8,0.1-1.5c0-0.8,0-2.3-0.6-3.9C272.2,202,271.6,201,271,200.5"/>
	<path fill="#CDAE41" d="M264.5,197.5c0.7,0,0.9,0.2,1.8,0c0.9-0.1,1.3-0.5,2.2-0.6c1-0.1,1.6-0.6,3.2-1.6c1.5-1,0.1-0.6-1-0.4
		c-1.1,0.2-3.9,0.2-5.1-0.1c-1.2-0.3-0.3-0.5,0-0.4c0.3,0.1,0.5,0.1,2.9,0.2c2.4,0.1,3.3-0.6,4.5-1c1.2-0.5-0.3-0.4-0.3-0.4
		c0,0-4.4-0.7-6.5-2.8c-1.7-1.6-2.2-3.3-2.4-4c-0.9,1.1-1.8,2.2-2.8,3.1c0.1,0.3,0.2,0.8,0.4,1.3c0.3,0.8,1.4,1.7,1.4,1.7
		c0,0-1.3-0.4-1.9-0.9c-0.4-0.4-0.8-1-0.9-1.3c-1.4,1.2-2.9,2.2-4.3,3.1c0.2,0.1,0.4,0.2,0.6,0.4c0.6,0.4,1.1,1.1,1.9,2.2
		c0.8,1.1,0.1,1.1-0.6,0.1c-0.7-1-2.4-1.9-2.7-2.1c0,0-0.1,0-0.1,0c-0.1,0.1-0.3,0.2-0.5,0.3c-1,0.5-1.8,1-2.7,1.5
		c0.6,0.3,1.9,1.4,2.3,2c0.5,0.7,1.5,1.2,1.8,1.6c0.4,0.4,0.8,0.9,1.3,1.4c0.5,0.5,3.4,3.4,4.2,4.6c0.8,1.1,0.3-0.4,0.1-1.2
		c-0.2-0.8-0.5-2-0.7-2.9c-0.3-0.9,0.3-0.6,0.4-0.1c0.1,0.5,0.2,0.5,0.4,1.5c0.2,1,0.8,2.4,1.1,3.4c0.2,1,0.3,0.5,0.6,0
		c0.3-0.5,0.7-1.4,0.8-2c0.1-0.5,0.3-1.7,0.3-3.5c0-1.8-0.8-2.4-0.8-2.7C263.5,197.7,263.9,197.4,264.5,197.5"/>
	<path fill="#CDAE41" d="M277.1,199.7c-0.3,0.2-1.2,0.6-1.5,0.7c-0.4,0.1-0.7,0.2-0.7,0.2c0,0,0.8,1.1,2.1,0.9
		c1.2-0.2,2.4-0.3,3.5-0.5c0,0-2.2-1-2.4-1.2C277.8,199.5,277.4,199.6,277.1,199.7"/>
	<path fill="#CDAE41" d="M302.8,195c0,0,0,1-0.1,1.4c-0.1,0.4-0.3,0.9,0.1,1c0.4,0.1,0.8,0.2,1,0.1c0.2-0.1,0.2-0.6,0-1
		c-0.1-0.4-0.3-0.9-0.7-1.2C303,195.3,302.9,195.1,302.8,195z"/>
	<path fill="#CDAE41" d="M309,198.4c0.1,0.3,0.4,0.4,0.7,0.4c0.2,0,0.5,0,0.5-0.4c0-0.4,0.1-0.9-0.2-1.3c-0.3-0.4-0.5-0.7-0.7,0
		C309,197.8,308.8,198.1,309,198.4"/>
	<path fill="#CDAE41" d="M287.6,196.8c0.1,0,0.8,0.1,0.8,0.1c0,0,0-1,0.1-1.7c0.2-0.6,0.4-1.2,0.2-1.1c-0.3,0-0.4,0.3-0.6,0.6
		c-0.2,0.3-0.7,0.4-0.8,1.2C287.1,196.8,287.4,196.8,287.6,196.8"/>
	<path fill="#AB6C30" d="M203,180.7c-0.7,0.6-1.6,0.9-1.6,0.9c0,0-0.4,0-0.4,0.2c0,0.2,0.5-0.1,1-0.2c0.5-0.2,1.2-0.8,1.5-1
		c0.2-0.2,0.7-0.5,0.5-0.8C203.9,179.5,203.7,180.1,203,180.7"/>
	<path fill="#AB6C30" d="M209,183.1c-0.1,0.2-1.3,1.2-1.3,1.2c0,0-0.3,0.3-0.7,0.5c-0.4,0.2-0.5,0.4-0.5,0.4c0,0,0.1,0.1,0.5-0.1
		c0.4-0.2,1.6-1.2,2-1.6c0.4-0.4,0.6-0.5,0.4-0.6C209.3,182.9,209.2,182.9,209,183.1"/>
	<path fill="#AB6C30" d="M184.6,142.8c0.2,0.3,0.5,0.6,0.6,0.5c0.1-0.2,0-0.3-0.3-0.6c-0.3-0.3-0.5-0.5-0.5-0.5c0,0-0.4-0.6-0.6-0.8
		c-0.2-0.2-0.6-0.3-0.2,0.2C184.1,142.1,184.4,142.6,184.6,142.8"/>
	<path fill="#AB6C30" d="M182.7,147.1c0.3,0.2,0.5,0.4,0.8,0.7c0.3,0.2,0.5,0.6,0.7,0.4c0.2-0.2-0.4-0.5-0.7-0.8
		c-0.3-0.3-0.5-0.5-0.8-0.7c-0.4-0.2-0.7-0.4-0.7-0.4C181.9,146.3,182.5,146.9,182.7,147.1"/>
	<path fill="#AB6C30" d="M183.4,153.6c0.5,0.4,1.2,0.5,1.3,0.3c0.1-0.2-0.1-0.3-0.4-0.5c-0.4-0.1-1-0.5-1.4-0.6
		c-0.3-0.2-0.6-0.4-0.8-0.6c-0.2-0.2-0.5-0.4-0.5-0.3c-0.1,0.1,0.6,0.8,0.8,0.9C182.6,152.8,183,153.1,183.4,153.6"/>
	<path fill="#AB6C30" d="M184.8,158.6c0-0.2,0-0.3-0.3-0.3c-0.4,0-0.9,0.1-0.9,0.1c0,0-0.7-0.2-0.8-0.1c0,0.2,0.7,0.4,0.9,0.4
		c0.3,0,0.7,0,0.8,0.1C184.6,159,184.8,158.8,184.8,158.6"/>
	<path fill="#AB6C30" d="M185.4,164.3c-0.9,0.1-1.6,0-1.6,0.1c-0.1,0.1,0.4,0.3,0.8,0.4c0.4,0.1,1.2,0.1,1.7,0
		c0.5,0,0.6-0.2,0.6-0.4C186.9,164.1,186.2,164.2,185.4,164.3"/>
	<path fill="#AB6C30" d="M191.8,169.8c-0.1-0.1-0.4,0-0.9,0.2c-0.4,0.2-1.2,0.4-1.6,0.4c-0.4,0-1.4,0.2-1.4,0.1c0,0-0.5,0.1-0.5,0.2
		c0,0,0.7,0,1.7,0c1,0,1.7-0.3,2.2-0.4C191.7,170.2,191.9,169.9,191.8,169.8"/>
	<path fill="#AB6C30" d="M194.4,173.9c-0.5,0.2-0.9,0.3-1.2,0.4c-0.4,0.1-1.3,0.3-1.3,0.3c0,0-0.5,0.1-0.4,0.3
		c0.1,0.2,0.2,0,0.6-0.1c0.4-0.1,0.7-0.1,1.4-0.2c0.7-0.1,1.1-0.3,1.5-0.5c0.4-0.1,0.9-0.4,0.6-0.6
		C195.4,173.3,194.9,173.7,194.4,173.9"/>
	<path fill="#AB6C30" d="M199.6,176.6c-0.3,0.3-1.4,1.2-1.4,1.2c0,0-0.2,0.2-0.6,0.5c-0.4,0.3-0.4,0.3-0.4,0.5
		c0.1,0.1,0.4-0.2,0.6-0.4c0.2-0.1,1.1-0.8,1.5-1.2c0.4-0.4,1-0.7,0.8-0.9C200,176.1,199.9,176.3,199.6,176.6"/>
	<path fill="#AB6C30" d="M191,134.1c0,0,0.1,0.2,1,1.2c0.9,1,0.4,0,0.2-0.2c-0.2-0.3-1.5-2-2-2.4c-0.5-0.4-0.5-0.2-0.3,0.1
		C190.1,133,191,134.1,191,134.1"/>
	<path fill="#AB6C30" d="M189.1,140.1c0.1-0.2-0.2-0.3-0.7-0.8c-0.5-0.6-1.5-1.8-1.5-1.8c0,0-0.3-0.6-0.4-0.5
		c-0.1,0.1,0.3,1,0.8,1.4c0.4,0.4,1,1.1,1.3,1.4C188.8,140.1,189,140.2,189.1,140.1"/>
	<path fill="#AB6C30" d="M191.6,150.5c0-0.3-1-0.1-1.5-0.2c-0.5,0-1.3-0.1-1.3-0.1c-0.3,0-0.6,0.1-1,0.1c0,0.1,0.2,0.2,0.7,0.3
		c0.5,0,1.3,0.2,1.9,0.2C191.1,150.8,191.6,150.8,191.6,150.5"/>
	<path fill="#AB6C30" d="M189.1,145c0.7,0.5,1.1,0.7,1.5,0.8c0.4,0.2,0.6,0.4,0.8,0.2c0.2-0.3-0.2-0.4-0.7-0.6
		c-0.6-0.2-0.9-0.4-0.9-0.4c0,0-0.3-0.1-0.6-0.2C188.9,144.7,188.4,144.6,189.1,145"/>
	<path fill="#AB6C30" d="M194.9,140.5c-0.4-0.3-0.8-0.4-0.8-0.4c0,0-0.5-0.4-0.6-0.3c-0.1,0.2,0.6,0.6,0.9,0.8
		c0.3,0.2,0.9,1,1.2,0.8C195.9,141.2,195.3,140.8,194.9,140.5"/>
	<path fill="#AB6C30" d="M191.1,155.9c0,0-0.6,0.2-0.9,0.4c-0.4,0.2-0.4,0.3,0.3,0.2c0.6-0.1,0.9-0.3,1.6-0.5
		c0.7-0.2,0.9-0.3,0.8-0.5c-0.1-0.2-0.4-0.1-0.7,0C191.9,155.6,191.1,155.9,191.1,155.9"/>
	<path fill="#AB6C30" d="M192.1,161.2c-0.1,0.1,0.5-0.1,0.8-0.2c0.4-0.2,1-0.6,1.4-0.8c0.4-0.2,0.4-0.3,0.4-0.5c0-0.2-0.4,0-1,0.3
		c-0.6,0.2-1.2,0.8-1.2,0.8C192.6,160.8,192.2,161.1,192.1,161.2"/>
	<path fill="#AB6C30" d="M199.1,163.7c0.5-0.3,0.6-0.6,0.4-0.7c-0.2-0.1-0.3-0.1-0.7,0.3c-0.4,0.4-1.2,1-1.2,1c0,0-0.4,0.2-0.7,0.4
		c-0.3,0.2-0.6,0.5-0.5,0.6c0.1,0.2,0.7-0.1,1-0.4C197.8,164.5,198.7,164,199.1,163.7"/>
	<path fill="#AB6C30" d="M202.4,167.6c0.2-0.2,0.8-0.5,1.1-0.7c0.2-0.2,0.4-0.8,0.2-0.9c-0.2,0-0.3,0.3-0.8,0.7
		c-0.5,0.4-2.1,1.6-2.1,1.6c0,0,0.1,0-0.4,0.2c-0.5,0.2-0.2,0.3,0.1,0.2c0.4-0.1,0.6-0.1,1-0.5C202.1,167.9,202.2,167.8,202.4,167.6
		"/>
	<path fill="#AB6C30" d="M207.3,171.1c0.4-0.2,1-0.9,1.3-1.1c0.3-0.3,0.7-0.7,0.5-0.8c-0.2-0.1-0.5,0.1-0.8,0.5
		c-0.3,0.4-1.2,1.4-1.2,1.4c0,0-0.1,0.1-0.6,0.5c-0.5,0.5,0,0.3,0.2,0.1C206.8,171.4,206.9,171.3,207.3,171.1"/>
	<path fill="#AB6C30" d="M278.3,171.2c0,0-0.9-0.1-1.6-0.5c-0.7-0.5-0.9-1-1.1-0.7c-0.1,0.4,0.3,0.6,0.5,0.7c0.3,0.2,1,0.6,1.5,0.6
		c0.5,0,1.1,0.1,1,0C278.8,171.1,278.3,171.2,278.3,171.2"/>
	<path fill="#AB6C30" d="M272.7,175.8c-0.4-0.1-0.7-0.3-0.7-0.3c0,0-1.2-0.7-1.3-0.9c-0.2-0.2-0.2-0.2-0.4-0.1
		c-0.2,0.2,0,0.3,0.4,0.5c0.4,0.3,1.6,1,2,1.1c0.4,0,0.5-0.1,0.5-0.1C273.3,176.1,273.1,175.9,272.7,175.8"/>
	<path fill="#AB6C30" d="M295.2,128.1c0.2-0.3,0.5-0.8,0.9-1.4c0.5-0.6,0.1-0.5-0.1-0.2c-0.2,0.3-0.6,1-0.6,1c0,0-0.2,0.2-0.5,0.6
		c-0.3,0.4-0.4,0.5-0.3,0.6C294.6,128.8,294.9,128.4,295.2,128.1"/>
	<path fill="#AB6C30" d="M295.5,133.4c0.2,0.2,0.4-0.2,0.7-0.5c0.3-0.4,0.5-0.6,0.8-0.9c0.3-0.3,0.8-1,0.8-1c0,0-0.4,0.2-0.7,0.5
		c-0.4,0.3-0.6,0.6-0.8,0.9C296,132.8,295.4,133.3,295.5,133.4"/>
	<path fill="#AB6C30" d="M298.2,136.5c-0.1-0.1-0.3,0.1-0.6,0.4c-0.2,0.2-0.5,0.6-0.8,0.8c-0.3,0.2-0.9,0.7-1.3,0.9
		c-0.4,0.3-0.5,0.4-0.4,0.6c0.1,0.2,0.8-0.1,1.2-0.6c0.5-0.5,0.8-1,1-1.1C297.6,137.4,298.3,136.5,298.2,136.5"/>
	<path fill="#AB6C30" d="M296.2,143.5c0,0-0.5,0.1-0.9,0.2c-0.4,0.1-0.3,0.2-0.3,0.3c0,0.2,0.1,0.3,0.3,0.1c0.2-0.1,0.5-0.2,0.8-0.3
		c0.3-0.1,1-0.5,0.9-0.6C297,143.1,296.2,143.5,296.2,143.5"/>
	<path fill="#AB6C30" d="M294.4,149.9c-0.8,0.1-1.5,0.1-1.6,0.4c0,0.3,0.1,0.4,0.6,0.3c0.5-0.1,1.3-0.2,1.7-0.4
		c0.4-0.2,0.8-0.4,0.8-0.6C295.9,149.5,295.2,149.8,294.4,149.9"/>
	<path fill="#AB6C30" d="M291.9,156.7c0,0-1,0.1-1.4,0.2c-0.5,0.1-1.2,0-1.7,0c-0.5-0.1-0.7-0.1-0.8,0c-0.1,0.1,0,0.4,0.5,0.4
		c0.5,0,1.2,0.1,2.2-0.1c1-0.2,1.7-0.3,1.7-0.3C292.4,156.6,291.9,156.7,291.9,156.7"/>
	<path fill="#AB6C30" d="M287.9,161.7c0,0-0.9-0.1-1.3,0c-0.4,0-0.7,0.1-1.3-0.1c-0.5-0.1-0.9-0.4-1.1-0.1c-0.2,0.3,0.3,0.5,0.6,0.4
		c0.4,0,0.8,0.2,1.5,0.1c0.7-0.1,1-0.1,1.4-0.2c0.4,0,0.5,0.2,0.6,0C288.3,161.8,287.9,161.7,287.9,161.7"/>
	<path fill="#AB6C30" d="M282.2,166.9c-0.4-0.2-0.7-0.3-0.7-0.3c0,0-1.1-0.6-1.4-0.9c-0.3-0.3-0.4-0.4-0.5-0.1
		c-0.1,0.2,0.4,0.4,0.8,0.7c0.4,0.3,1.2,0.7,1.5,0.8c0.2,0.1,0.5,0.3,0.6,0.2C282.6,167.1,282.6,167,282.2,166.9"/>
	<path fill="#AB6C30" d="M287.7,122.4c0.9-1.2,1-1.5,1-1.5s0.8-1.3,1.1-1.6c0.2-0.3,0.1-0.6-0.3-0.1c-0.4,0.6-1.8,2.6-2,2.9
		C287.3,122.6,286.8,123.7,287.7,122.4"/>
	<path fill="#AB6C30" d="M293.2,122.8c-0.1,0-0.4,0.6-0.4,0.6c0,0-1,1.4-1.5,2.1c-0.5,0.7-0.8,0.9-0.7,1c0.1,0.1,0.3-0.1,0.6-0.5
		c0.3-0.4,0.8-1.2,1.2-1.7C292.8,123.9,293.3,122.8,293.2,122.8"/>
	<path fill="#AB6C30" d="M288.1,137.6c0,0.3,0.5,0.1,1.1,0c0.6-0.2,1.4-0.5,1.9-0.6c0.5-0.2,0.7-0.3,0.7-0.4c0-0.1-1,0.1-1,0.1
		c0,0-0.8,0.3-1.3,0.4C289.2,137.2,288.1,137.3,288.1,137.6"/>
	<path fill="#AB6C30" d="M290.5,131.3c-0.3,0.2-0.6,0.4-0.6,0.4c0,0-0.3,0.2-0.8,0.6c-0.6,0.3-0.9,0.5-0.7,0.7
		c0.2,0.2,0.4-0.1,0.8-0.4c0.3-0.2,0.8-0.5,1.4-1.2C291.3,130.8,290.8,131.1,290.5,131.3"/>
	<path fill="#AB6C30" d="M284.1,129.4c0.3,0.1,0.9-0.8,1.2-1.1c0.3-0.3,1-0.9,0.9-1.1c-0.1-0.1-0.6,0.4-0.6,0.4c0,0-0.3,0.2-0.7,0.6
		C284.4,128.7,283.8,129.3,284.1,129.4"/>
	<path fill="#AB6C30" d="M287.7,143.2c0.7,0.1,1,0.2,1.6,0.1c0.6-0.1,0.6-0.2,0.2-0.3c-0.3-0.1-0.9-0.1-0.9-0.1c0,0-0.7-0.1-1-0.2
		c-0.3,0-0.6-0.1-0.7,0.2C286.8,143.1,287,143.2,287.7,143.2"/>
	<path fill="#AB6C30" d="M287.1,148.1c0,0-0.7-0.4-1.2-0.5c-0.5-0.1-1-0.3-1,0c0,0.2,0,0.3,0.4,0.4c0.4,0.1,1.1,0.4,1.4,0.4
		c0.4,0.1,0.9,0.1,0.8,0C287.5,148.3,287.1,148.1,287.1,148.1"/>
	<path fill="#AB6C30" d="M282.7,153c-0.3-0.1-0.7-0.2-0.7-0.2c0,0-0.7-0.4-1.1-0.7c-0.4-0.2-0.5-0.3-0.7-0.1
		c-0.2,0.2-0.1,0.4,0.4,0.6c0.5,0.3,1.3,0.5,1.7,0.7c0.3,0.2,0.9,0.3,1,0.1C283.3,153.3,283,153.1,282.7,153"/>
	<path fill="#AB6C30" d="M279.3,157.8c-0.4-0.1-0.4-0.1-0.4-0.1c0,0-1.6-0.9-2-1.1c-0.5-0.3-0.6-0.6-0.8-0.5c-0.2,0.1,0,0.7,0.2,0.9
		c0.3,0.1,0.8,0.3,1,0.4c0.2,0.1,0.4,0.2,0.8,0.5c0.4,0.3,0.7,0.2,1.1,0.2C279.5,158.1,279.7,158,279.3,157.8"/>
	<path fill="#AB6C30" d="M273.3,162.3c-0.5-0.3-0.6-0.3-0.6-0.3c0,0-0.9-0.8-1.2-1.1c-0.4-0.3-0.6-0.5-0.8-0.2
		c-0.2,0.2,0.1,0.5,0.4,0.7c0.3,0.2,0.9,0.7,1.3,0.8c0.4,0.1,0.5,0.2,0.7,0.3C273.3,162.6,273.8,162.6,273.3,162.3"/>
	<path fill="#CDAE41" d="M239.9,108.3c-3.3,0.5-7.2,0.6-9.3,0.1c-0.7,0.2-1.5,0.5-2.3,0.8c3.5,0.8,6.4,1,11.6,0.3
		c5.1-0.8,8-1.7,11.6-3.5c-0.7,0-1.5-0.1-2.3-0.1C247,106.9,243.1,107.9,239.9,108.3"/>
	<path fill="#CDAE41" d="M251.8,103.9c-0.2-0.2-1.7-1-2.1-1.2c-0.4-0.1-0.1-0.7,0-0.9c0.1-0.3,1.7-1,2.7-1.3
		c0.9-0.4,0.8-0.5,0.8-0.5c0,0-0.5-0.6-3.9-0.5c-3.4,0.1-9.4,1-9.4,1c0,0-5.9,0.7-9.4,1.6c-3.4,0.8-3.9,1.6-3.9,1.6
		c0,0-0.1,0.2,0.8,0.3c0.9,0.1,2.7,0.3,2.7,0.6c0.1,0.2,0.4,0.7,0,0.9c-0.4,0.2-1.9,1.5-2.2,1.8c-0.3,0.3-0.3,0.6,0.1,0.6
		c0.4,0,0.4,0,1.6-0.4c3.5-1.2,6.8-1.8,10.3-2.4c3.5-0.4,6.8-0.7,10.3-0.5c1.1,0.1,1.1,0.1,1.6,0
		C252.1,104.4,252.1,104.1,251.8,103.9"/>
	<path fill="#CDAE41" d="M226.9,104.4c-0.5,0.5-1,0.9-1.5,1.4c0.6,0.2,1.2,0.4,1.8,0.6c0.7-0.6,1.3-1.1,2-1.7
		C228.5,104.6,227.7,104.5,226.9,104.4z"/>
	<path fill="#CDAE41" d="M252.8,100.8c-0.8,0.3-1.5,0.6-2.3,0.9c0.6,0.4,1.3,0.8,1.9,1.1c0.6-0.4,1.2-0.7,1.8-1.1
		C253.8,101.4,253.3,101.1,252.8,100.8z"/>
	<path fill="#CDAE41" d="M248,105.8c-2.3,0.1-3.8-0.1-8.1,0.6c-4.3,0.6-5.8,1.1-8.1,1.7c1.5,0.4,3.8,0.3,8.1-0.3
		C244.1,107.2,246.5,106.6,248,105.8"/>
	<path fill="#365E8F" d="M243.1,173.9c-0.3-0.4-0.3-0.3-0.7,0c-0.3,0.3-0.6-0.6-0.7-1.2c0-0.6,0.3-2.4,0.3-2.4c0,0-1.6,0.5-2.4,0.9
		c-0.8,0.4-1.6,0.6-2.3,0.9c-0.7,0.2-1,0.4-1.4,0.4c-0.4,0-1.1,0-1.7,0.1c-0.6,0.1-0.6,0.2-1.2,0.9c-0.6,0.7-0.8,1-1.2,2.2
		c-0.5,1.2-0.6,2.2-0.8,3.6c-0.1,0.9-0.3,1.5-0.4,1.9c2.4-0.3,4.7-0.7,7.1-1c0.1-0.2,0.2-0.5,0.3-0.7c0.2-0.5,0.6-0.8,0.9-0.9
		c0.3-0.2,0.5-0.2,0.7-0.6c0.1-0.3,0.5-0.6,0.8-0.8c0.4-0.2,1-0.2,1.6-0.1c0.6,0.1,0.8-0.4,0.9-0.6c0.2-0.3,0.3-0.5,0.6-1
		c0.3-0.5,0.1-0.8,0.1-0.8C243.7,174.5,243.4,174.3,243.1,173.9"/>
	<path fill="#365E8F" d="M254.6,172.5c-0.1-0.4-0.1-0.4-0.3-0.4c-0.2,0-0.6-0.1-1-0.1c-0.3-0.1-0.3,0.8-0.3,0.8c0,0-0.8,0.2-1.8,0.2
		c-1,0-2.1-0.7-2.4-0.9c-0.4-0.2-0.8-0.8-0.8-0.8c0,0-0.3,0.3-0.6,0.5c-0.3,0.2-0.5,0.8-0.5,1.5c-0.1,0.6,0.7,1.2,0.8,1.8
		c0,0.6-0.6,1.9-1,2.4c-0.2,0.4-0.5,1.1-0.7,1.5c1.1-0.2,2.3-0.3,3.4-0.5c0.1-0.2,0.2-0.4,0.4-0.6c0.4-0.4,1-0.6,1-0.6
		c0,0,0-0.1,0.1-0.5c0.1-0.3,0.5-0.7,1.3-1.2c0.9-0.4,1.9-0.7,1.9-0.7c0,0,0.4-0.4,0.7-0.9C254.9,173.6,254.6,172.9,254.6,172.5"/>
	<path fill="#CDAE41" d="M239.1,75.2c0.6-0.1,1.2-0.3,1.8-0.4c-0.1-0.5-0.1-1-0.2-1.5c0.6,0,1.3,0,1.9,0c0-0.5,0.1-1,0.1-1.5
		c-0.7,0.1-1.3,0.3-2,0.4c0.1-0.6,0.2-1.1,0.3-1.7c-0.7,0.1-1.5,0.2-2.2,0.3c0.1,0.5,0.3,1.1,0.4,1.6c-0.6,0-1.3,0.1-1.9,0.1
		c0,0.5,0,1,0,1.5c0.6-0.2,1.3-0.3,1.9-0.5C239.2,74,239.2,74.6,239.1,75.2z"/>
	<path fill="#CDAE41" d="M243,77.1c-0.8,0.1-1.6,0.2-2.4,0.3c0-0.7,0-1.4,0-2c-0.2,0-0.5,0-0.7,0.1c-0.2,0-0.4,0.1-0.6,0.1
		c0,0.7,0,1.4,0,2c-0.8,0.1-1.7,0.2-2.5,0.3c-0.1,0.3-0.1,0.6-0.1,0.8c0,0.1,0,0.2,0,0.3c0.9-0.1,1.7-0.2,2.6-0.4
		c0.4-0.1,0.9-0.1,1.3-0.2c0.8-0.1,1.7-0.2,2.5-0.4c0,0,0-0.2,0-0.3C243.1,77.7,243.1,77.4,243,77.1"/>
	<path fill="#365E8F" d="M239.9,81.3c1.4-0.2,2.6-1.2,3-2.4c-2,0.3-4.1,0.6-6.1,0.9C237.3,80.8,238.5,81.5,239.9,81.3"/>
	<path fill="#365E8F" d="M241.2,75.5c0,0.5,0,0.9,0,1.4c0.5-0.1,1.1-0.1,1.6-0.2C242.5,76.1,241.9,75.7,241.2,75.5"/>
	<path fill="#365E8F" d="M238.6,75.9c-0.7,0.4-1.2,1-1.6,1.6c0.5-0.1,1.1-0.1,1.6-0.2C238.6,76.8,238.6,76.4,238.6,75.9z"/>
	<path fill="#AB6C30" d="M241.8,101.4c-0.6-0.2-1.9-0.6-1.9-0.6c0,0-1.3,0.8-2,1.2c-0.7,0.4-0.6,0.3-0.8,0.8
		c-0.2,0.5,0.1,0.7,0.3,0.8c0.3,0.1,2.4,0.9,2.4,0.9c0,0,2.1-1.3,2.6-1.6c0.5-0.3,0.4-0.6,0.3-0.9
		C242.6,101.7,242.4,101.6,241.8,101.4"/>
	<path fill="#AB6C30" d="M246.1,100.2c1-0.1,1.9,0.6,1.9,1.5c0,1-0.9,1.9-1.9,2.1c-1,0.1-1.9-0.6-1.9-1.6
		C244.3,101.3,245.1,100.4,246.1,100.2"/>
	<path fill="#AB6C30" d="M233.6,102c1-0.1,1.9,0.6,1.9,1.5c0,1-0.8,2-1.9,2.1c-1,0.1-1.9-0.6-1.9-1.6
		C231.7,103.1,232.5,102.1,233.6,102"/>
	<path fill="#CDAE41" d="M237.8,102.6c0.7,0.3,1.4,0.5,2.1,0.8c0.7-0.5,1.4-0.9,2.1-1.4c-0.7-0.2-1.4-0.5-2.1-0.7
		C239.2,101.7,238.5,102.2,237.8,102.6z"/>
	<path fill="#CDAE41" d="M246.1,100.5c0.6-0.1,1.1,0.4,1.1,0.9c0,0.6-0.5,1.2-1.1,1.3c-0.6,0.1-1.1-0.3-1.1-0.9
		C245,101.2,245.5,100.6,246.1,100.5"/>
	<path fill="#CDAE41" d="M233.6,102.3c0.6-0.1,1.1,0.4,1.1,0.9c0,0.6-0.5,1.2-1.1,1.3c-0.6,0.1-1.1-0.3-1.1-0.9
		C232.4,103,232.9,102.4,233.6,102.3"/>
	<path fill="#CDAE41" d="M229.6,98.1c0.5,0.1,1.1,0,1.1,0c0,0,0.2-0.9-0.3-1.2c-0.4-0.3-0.9-0.6-1.1-0.8c-0.3-0.2-0.3-0.3-0.3-0.3
		c0,0,0,0.7,0,1.2C228.9,97.4,229.1,98,229.6,98.1"/>
	<path fill="#CDAE41" d="M230.6,98.6c0.2,0,0.4,0.1,0.4,0.3c0,0.2-0.2,0.4-0.4,0.4c-0.2,0-0.3-0.1-0.3-0.3
		C230.3,98.7,230.4,98.6,230.6,98.6"/>
	<path fill="#CDAE41" d="M228.1,98.9c-0.1,0.2-0.5,0.6-0.5,0.6c0,0,0.4-0.1,0.7,0.1c0.3,0.2,0.7,0.3,1.1,0.2
		c0.4-0.1,0.5-0.4,0.5-0.7c-0.1-0.3-0.3-0.5-0.9-0.6C228.4,98.4,228.2,98.7,228.1,98.9"/>
	<path fill="#CDAE41" d="M229.4,100.9c-1.2,0.3-2.8-0.8-2.8-0.8c-0.1,1.1-0.8,1.7-1.7,2c0,0,0.1,0,0.1,0.1c0,0,0.9,0.3,2,0.3
		c0.5,0,0.9-0.1,1.5-0.3c0.6-0.2,1.3-0.5,1.7-0.8c0.7-0.5,0.5-1.7,0.5-1.7C230.7,99.8,230.5,100.6,229.4,100.9"/>
	<path fill="#CDAE41" d="M224.8,100.4c-0.5-0.1-1.2-0.4-1.5-0.3c-0.3,0-0.8,0-0.7,0.6c0,0.5,0.6,0.7,1.2,0.7
		c0.6-0.1,0.9-0.3,1.2-0.5C225.3,100.5,225.2,100.5,224.8,100.4"/>
	<path fill="#CDAE41" d="M221.1,98.9c-0.5-0.3-1-0.3-1-0.3c0,0-0.4,0.9-0.2,1.5c0.2,0.5,0.6,0.6,1.1,0.5c0.5-0.1,1.2-0.5,1-0.8
		C221.9,99.4,221.6,99.2,221.1,98.9"/>
	<path fill="#CDAE41" d="M221.5,101.1c0.2,0,0.4,0,0.4,0c0,0.3-0.2,0.5-0.4,0.5c-0.2,0-0.4-0.1-0.4-0.2
		C221.1,101.4,221.3,101.1,221.5,101.1"/>
	<path fill="#CDAE41" d="M222.7,96.7c-0.3-1.5-0.3-3.2,1.2-5.5c1.5-2.3,4-3.6,4-3.6c0,0,0.1-0.2,0.9-1.2c0.8-1,2.5-2.3,2.5-2.3
		c0,0-1.9,0.7-3,1.2c0,0,0,0,0,0.1c0,0.7-0.6,1.4-1.3,1.5c-0.3,0-0.5,0-0.7-0.1c-0.6,0.2-2.6,1.7-3.1,2.2c0.1,0.2,0.2,0.4,0.2,0.7
		c0,0.7-0.6,1.4-1.3,1.5c-0.2,0-0.4,0-0.6-0.1c-0.1,0.1-0.1,0.2-0.2,0.3c-0.4,0.8-0.7,1.6-0.9,2.3c0.3,0.2,0.6,0.6,0.6,1.1
		c0,0.7-0.5,1.4-1.1,1.5c-0.1,0.4,0,0.7,0,0.9c0,0.4,0.2,0.7,1,0.8c0.8,0.1,1.8,1.3,1.8,1.3C222.5,99.2,223.1,98.2,222.7,96.7"/>
	<path fill="#CDAE41" d="M227.4,86.1c0.3-0.2,0.3-0.6,0.1-0.8c-0.2-0.2-0.6-0.1-0.9,0.2c-0.3,0.3-0.3,0.6-0.1,0.8
		C226.7,86.4,227.1,86.4,227.4,86.1"/>
	<path fill="#CDAE41" d="M222.4,90.1c0.3-0.3,0.4-0.8,0.1-1c-0.3-0.2-0.7-0.1-1,0.2c-0.3,0.3-0.4,0.8-0.1,1
		C221.7,90.5,222.1,90.4,222.4,90.1"/>
	<path fill="#CDAE41" d="M219.5,94c0.4-0.1,0.8,0.2,0.8,0.6c0,0.4-0.3,0.8-0.8,0.9c-0.4,0.1-0.7-0.3-0.7-0.7
		C218.7,94.4,219.1,94,219.5,94"/>
	<path fill="#CDAE41" d="M236,81.8c-0.4,0.2-1.1,0.5-2.2,1.2l0,0c0.8-0.1,1.4,0.3,1.4,0.9c0,0.6-0.7,1.4-1.5,1.5
		c-0.8,0.1-1.3-0.5-1.3-1.1c0-0.2,0-0.3,0.1-0.5c-0.3,0.3-0.7,0.5-1,0.8c-2.4,2-3,2.8-4.2,5.2c-1.2,2.4-1.6,4.9-1.1,6.3
		c0.5,1.4,2.4,1.4,2.5,1.4c0,0-0.2-0.2-0.2-0.4c-0.1-0.3,0.1-0.4,0.1-1c0.1-0.5,0-1.2,0-1.2s0.4-0.1,0.7,0.1
		c0.2,0.3,0.6,0.6,0.8,0.8c0.3,0.3,0.9,0.7,0.9,0.7c0,0,0.3-0.6,0.3-1.2c0-0.7-0.4-1.3-0.5-2.4c-0.1-1.1,0.5-3.3,1.6-4.9
		c1.1-1.7,3.2-3.3,3.9-3.7c0.6-0.4,0.7-0.9,0.8-1.2c0-0.3,0.1-0.5,0.1-1.1C237.2,81.5,236.6,81.6,236,81.8"/>
	<path fill="#CDAE41" d="M233.6,84.8c0.4-0.1,0.8-0.5,0.8-0.9c0-0.4-0.3-0.6-0.7-0.5c-0.4,0.1-0.8,0.4-0.8,0.7
		C232.8,84.5,233.1,84.8,233.6,84.8"/>
	<path fill="#CDAE41" d="M237.2,98.5c0.6,0.1,1.2-0.1,1.6-0.3c0.3-0.2,0.4-0.8,0.1-1.1c-0.4-0.2-0.9-0.1-1.3,0.1
		c-0.3,0.2-1.1,0.9-1.1,0.9C236.4,98.1,236.6,98.3,237.2,98.5"/>
	<path fill="#CDAE41" d="M239,98.9c-0.2,0.3-0.4,0.6-1,0.7c-0.7,0.1-1.4,0.2-1.8-0.2c-0.4-0.3-0.7-0.9-0.7-0.9
		c-0.2,0-0.5,0.1-0.7,0.1c0,0-0.3,1-0.6,1.4c-0.3,0.3-1.4,0.5-1.9,0.2c-0.5-0.3-1-0.7-1-0.6c-0.1,0,0,0.4,0.5,0.8
		c0.5,0.4,0.9,0.6,1.7,0.5c1.5-0.2,3.1-0.4,4.6-0.6c0,0,0.9-0.1,1.2-0.6c0.3-0.6,0.3-1,0.2-1.1C239.3,98.3,239.2,98.6,239,98.9"/>
	<path fill="#CDAE41" d="M232,99.1c0.7,0.3,1.1,0,1.3-0.4c0.3-0.3,0.3-0.5,0.3-0.5c0,0-0.6-0.1-1-0.3c-0.3-0.1-0.5-0.3-0.9-0.2
		c-0.3,0.1-0.4,0.1-0.4,0.1C231.4,97.9,231.2,98.8,232,99.1"/>
	<path fill="#CDAE41" d="M240.9,96.8c-0.4,0.4-0.3,0.9,0.1,1c0.3,0.2,1,0.2,1.6-0.1c0.6-0.3,0.8-0.6,0.8-0.6c0,0-0.8-0.4-1.1-0.6
		C241.9,96.4,241.3,96.5,240.9,96.8"/>
	<path fill="#CDAE41" d="M247.4,98c-0.5,0.5-1.6,0.6-1.9,0.3c-0.3-0.3-0.6-1.2-0.6-1.2c-0.2,0-0.5,0.1-0.7,0.1c0,0-0.3,0.6-0.7,1.1
		c-0.4,0.5-1.2,0.7-1.8,0.7c-0.7,0.1-0.8-0.1-1-0.4c-0.2-0.3-0.3-0.5-0.4-0.4c-0.1,0.2-0.1,0.5,0.2,1.1c0.3,0.5,1.2,0.3,1.2,0.3
		c1.5-0.2,3.1-0.4,4.6-0.6c0.8-0.1,1.2-0.4,1.7-0.9c0.5-0.5,0.6-0.9,0.5-0.9C248.4,97.1,247.9,97.6,247.4,98"/>
	<path fill="#CDAE41" d="M247.1,95.9c-0.3,0.2-1,0.6-1,0.6c0,0,0.1,0.1,0.3,0.4c0.2,0.3,0.6,0.5,1.4,0c0.7-0.5,0.6-1.4,0.6-1.4
		c0,0-0.1,0-0.4,0C247.6,95.5,247.4,95.7,247.1,95.9"/>
	<path fill="#CDAE41" d="M250.7,93.9c0-0.4,0-1.2,0-1.2c0,0-0.1,0.1-0.3,0.4c-0.3,0.3-0.7,0.7-1.1,1.1c-0.5,0.5-0.3,1.3-0.3,1.3
		c0,0,0.6,0,1.1-0.3C250.6,95,250.8,94.3,250.7,93.9"/>
	<path fill="#CDAE41" d="M249.4,96.3c0-0.2-0.2-0.3-0.3-0.3c-0.2,0-0.4,0.2-0.4,0.4c0,0.2,0.1,0.3,0.4,0.3
		C249.3,96.6,249.4,96.5,249.4,96.3"/>
	<path fill="#CDAE41" d="M250.3,96.9c0.4,0,0.8-0.3,1.1-0.5c0.3-0.3,0.7-0.3,0.7-0.3c0,0-0.3-0.3-0.5-0.5c-0.1-0.2-0.3-0.4-0.9-0.1
		c-0.6,0.3-0.8,0.6-0.9,0.9C249.8,96.6,249.9,96.9,250.3,96.9"/>
	<path fill="#CDAE41" d="M253.1,96.4c0,0-1.6,1.5-2.8,1.6c-1.2,0-1.3-0.8-1.3-0.8c0,0-0.2,1.2,0.5,1.5c0.4,0.2,1.1,0.3,1.7,0.3
		c0.5,0,1,0.1,1.5-0.1c1.1-0.3,2-0.9,2-0.9c0,0,0.1-0.1,0.1-0.1C253.9,97.9,253.2,97.4,253.1,96.4"/>
	<path fill="#CDAE41" d="M256.4,95.4c-0.3,0-1,0.5-1.5,0.7c-0.5,0.2-0.5,0.3-0.2,0.4c0.3,0.1,0.6,0.3,1.2,0.2c0.6-0.1,1.1-0.5,1.2-1
		C257.2,95.2,256.7,95.3,256.4,95.4"/>
	<path fill="#CDAE41" d="M258.6,93.7c-0.5,0.4-0.8,0.8-1,1.2c-0.2,0.4,0.5,0.6,1,0.5c0.5-0.1,0.9-0.2,1.1-0.8
		c0.2-0.6-0.2-1.4-0.2-1.4C259.6,93,259.2,93.2,258.6,93.7"/>
	<path fill="#CDAE41" d="M258.1,96c0.2,0,0.4,0,0.4,0c0,0.3-0.2,0.5-0.4,0.5c-0.2,0-0.4-0.1-0.4-0.3C257.8,96.3,257.9,96,258.1,96"
		/>
	<path fill="#CDAE41" d="M258.9,89.5c0-0.5,0.2-1,0.6-1.2c-0.2-0.6-0.5-1.3-1-2.1c0-0.1-0.1-0.1-0.1-0.3c-0.2,0.1-0.4,0.2-0.6,0.2
		c-0.7,0.1-1.3-0.4-1.3-1.2c0-0.2,0.1-0.5,0.2-0.7c-0.5-0.3-2.5-1.3-3.1-1.3c-0.2,0.2-0.5,0.3-0.8,0.4c-0.7,0.1-1.3-0.4-1.3-1.2
		c0,0,0,0,0-0.1c-1.1-0.2-3-0.4-3-0.4c0,0,1.7,0.8,2.5,1.6c0.8,0.8,0.9,0.9,0.9,0.9s2.5,0.5,4,2.5c1.5,2,1.5,3.6,1.2,5.2
		c-0.4,1.6,0.2,2.5,0.2,2.5c0,0,1.1-1.5,1.8-1.8c0.8-0.3,0.9-0.6,1-1.1c0-0.1,0-0.4,0-0.9C259.4,90.7,258.9,90.2,258.9,89.5"/>
	<path fill="#CDAE41" d="M252.3,82.6c0.3,0.2,0.7,0.2,0.9-0.1c0.2-0.2,0.2-0.6-0.1-0.8c-0.3-0.2-0.7-0.1-0.9,0.1
		C252,82.1,252,82.4,252.3,82.6"/>
	<path fill="#CDAE41" d="M257.2,85.3c0.3,0.2,0.8,0.2,1-0.1c0.2-0.3,0.2-0.7-0.1-0.9c-0.3-0.3-0.8-0.3-1,0.1
		C256.9,84.6,256.9,85,257.2,85.3"/>
	<path fill="#CDAE41" d="M260.2,88.3c0.4-0.1,0.8,0.2,0.8,0.6c0,0.4-0.3,0.8-0.8,0.9c-0.4,0.1-0.7-0.3-0.7-0.7
		C259.5,88.7,259.8,88.4,260.2,88.3"/>
	<path fill="#CDAE41" d="M242.7,82.6c0.1,0.3,0.1,0.7,0.8,0.9c0.6,0.2,2.7,1.3,3.9,2.6c1.1,1.3,1.7,3.3,1.6,4.5
		c-0.1,1.1-0.5,1.9-0.5,2.6c0,0.6,0.4,1.1,0.4,1.1c0,0,0.7-0.7,0.9-1c0.3-0.3,0.6-0.7,0.9-1.1c0.2-0.3,0.7-0.3,0.7-0.3
		c0,0-0.1,0.7,0,1.2c0.1,0.6,0.2,0.6,0.2,1c-0.1,0.3-0.3,0.5-0.3,0.5c0,0,2-0.6,2.5-2.1c0.5-1.5,0.1-3.9-1.1-6
		c-1.2-2.1-1.7-2.8-4.2-4.1c-0.4-0.2-0.7-0.4-1-0.5c0.1,0.1,0.1,0.3,0.1,0.4c0,0.6-0.5,1.3-1.3,1.4c-0.7,0.1-1.5-0.5-1.5-1.1
		c0-0.7,0.6-1.2,1.4-1.3l0,0c-1.1-0.4-1.8-0.6-2.2-0.6c-0.6,0-1.3,0-1.2,0.7C242.6,82.1,242.6,82.3,242.7,82.6"/>
	<path fill="#CDAE41" d="M239.9,94.1c0,0-0.2,0.8-0.4,1.1c-0.2,0.3-0.4,0.7-0.3,1c0.1,0.3,0.5,0.5,0.8,0.5c0.3,0,0.7-0.3,0.8-0.7
		c0.1-0.4-0.1-0.7-0.4-0.9C240,94.8,239.9,94.1,239.9,94.1"/>
	<path fill="#CDAE41" d="M239.9,97.1c0.2,0,0.4,0.1,0.4,0.3c0,0.2-0.2,0.5-0.4,0.5c-0.2,0-0.4-0.1-0.4-0.4
		C239.5,97.3,239.7,97.2,239.9,97.1"/>
	<path fill="#CDAE41" d="M238.5,95.7c0,0,0.7-0.8,0.9-1.4c0.3-0.5,0.5-1,0.5-1c0,0,0.2,0.4,0.5,0.9c0.2,0.5,0.9,1.1,0.9,1.1
		c0,0,1-0.6,1.5-2.5c0.6-1.9-0.1-3.8-0.4-5.8c-0.2-2-0.4-5.6-0.4-5.6c-0.7,0.5-1.4,0.8-2.1,0.9c-0.7,0.1-1.4,0-2.1-0.3
		c0,0-0.2,3.6-0.5,5.8c-0.2,2.1-0.9,4.2-0.4,5.9C237.5,95.3,238.5,95.7,238.5,95.7"/>
	<path fill="#CDAE41" d="M245.3,82.4c0,0.4,0.4,0.7,0.8,0.7c0.4-0.1,0.7-0.5,0.7-0.8c0-0.4-0.4-0.6-0.8-0.5
		C245.7,81.7,245.3,82,245.3,82.4"/>
	<path fill="#AB6C30" d="M228.6,91.1c0.9-0.1,1.5,0.5,1.5,1.3c0,0.8-0.7,1.6-1.5,1.7c-0.9,0.1-1.6-0.5-1.6-1.3
		C227,92.1,227.7,91.3,228.6,91.1"/>
	<path fill="#AB6C30" d="M231.3,87c-0.6-0.3-1.5,0-2,0.7c-0.5,0.7-0.4,1.6,0.2,1.9c0.6,0.4,1.5,0.1,2-0.7
		C232,88.1,231.9,87.3,231.3,87"/>
	<path fill="#CDAE41" d="M228.5,91.7c0.5-0.1,0.9,0.2,0.9,0.7c0,0.5-0.4,0.9-0.9,1c-0.5,0.1-0.9-0.3-0.9-0.7
		C227.6,92.2,228,91.7,228.5,91.7"/>
	<path fill="#CDAE41" d="M230.6,87.2c-0.4,0-0.9,0.2-1.1,0.6c-0.2,0.4,0,0.7,0.5,0.8C231,88.6,231.5,87.4,230.6,87.2"/>
	<path fill="#AB6C30" d="M239.9,89.7c0.9-0.1,1.7,0.5,1.7,1.4c0,0.9-0.8,1.7-1.7,1.8c-0.9,0.1-1.7-0.5-1.7-1.4
		C238.2,90.7,238.9,89.9,239.9,89.7"/>
	<path fill="#AB6C30" d="M239.9,86.1c0.9-0.1,1.6,0.4,1.6,1.3c0,0.9-0.7,1.7-1.6,1.8c-0.9,0.1-1.6-0.5-1.6-1.3
		C238.2,87,239,86.2,239.9,86.1"/>
	<path fill="#AB6C30" d="M239.9,82.5c0.8-0.1,1.5,0.5,1.5,1.3c0,0.8-0.6,1.6-1.5,1.7c-0.9,0.1-1.5-0.4-1.6-1.3
		C238.3,83.4,239,82.6,239.9,82.5"/>
	<path fill="#AB6C30" d="M251.1,88c-0.9,0.1-1.6,0.9-1.6,1.8c0,0.8,0.7,1.4,1.6,1.3c0.8-0.1,1.6-0.9,1.6-1.8
		C252.7,88.5,252,87.9,251.1,88"/>
	<path fill="#AB6C30" d="M250.5,84.7c-0.5-0.5-1.4-0.6-2-0.1c-0.6,0.5-0.7,1.4-0.2,1.9c0.5,0.6,1.4,0.6,2,0.1
		C250.9,86.1,251,85.2,250.5,84.7"/>
	<path fill="#CDAE41" d="M251.2,88.5c0.5-0.1,0.9,0.2,0.9,0.7c0,0.5-0.4,0.9-0.9,1c-0.5,0.1-0.9-0.3-0.9-0.7
		C250.3,89,250.7,88.6,251.2,88.5"/>
	<path fill="#CDAE41" d="M249.1,84.7c-0.9,0.4-0.4,1.5,0.6,1.2c0.5-0.2,0.8-0.6,0.5-0.9C250,84.6,249.5,84.5,249.1,84.7"/>
	<path fill="#CDAE41" d="M239.9,90.2c0.5-0.1,0.9,0.2,0.9,0.7c0,0.5-0.4,0.9-0.9,1c-0.5,0.1-0.9-0.2-0.9-0.7
		C239,90.7,239.4,90.3,239.9,90.2"/>
	<path fill="#CDAE41" d="M239.9,86.5c0.5-0.1,0.8,0.2,0.8,0.7c0,0.4-0.4,0.9-0.8,0.9c-0.5,0.1-0.9-0.3-0.9-0.7
		C239,87,239.4,86.6,239.9,86.5"/>
	<path fill="#CDAE41" d="M239.9,83c0.4-0.1,0.7,0.2,0.7,0.6c0,0.4-0.4,0.8-0.7,0.8c-0.4,0.1-0.7-0.2-0.7-0.6
		C239.1,83.4,239.4,83.1,239.9,83"/>
	<path fill="#AB6C30" d="M291.8,193.3c0.7-0.1,1.3,0.4,1.3,1.2c0,0.8-0.6,1.4-1.3,1.5c-0.7,0.1-1.4-0.4-1.4-1.2
		C290.4,194,291,193.4,291.8,193.3"/>
	<path fill="#AB6C30" d="M295.6,193.7c0.7-0.1,1.4,0.5,1.4,1.3c0,0.7-0.6,1.4-1.4,1.5c-0.8,0.1-1.4-0.5-1.4-1.2
		C294.2,194.5,294.8,193.8,295.6,193.7"/>
	<path fill="#AB6C30" d="M306.8,194.8c0.8-0.1,1.4,0.5,1.4,1.2c0,0.8-0.6,1.5-1.4,1.6c-0.8,0.1-1.4-0.5-1.4-1.3
		C305.4,195.6,306,194.9,306.8,194.8"/>
	<path fill="#AB6C30" d="M299.4,194.2c0.8-0.1,1.4,0.5,1.4,1.2c0,0.8-0.6,1.4-1.4,1.5c-0.8,0.1-1.4-0.4-1.4-1.2
		C298,195,298.7,194.3,299.4,194.2"/>
	<path fill="#AB6C30" d="M300.4,190.7c0.8-0.1,1.4,0.5,1.4,1.2c0,0.8-0.6,1.5-1.4,1.6c-0.8,0.1-1.4-0.5-1.4-1.3
		C299,191.5,299.7,190.8,300.4,190.7"/>
	<path fill="#AB6C30" d="M301.4,187.3c0.8-0.1,1.4,0.5,1.4,1.2c0,0.8-0.6,1.5-1.4,1.6c-0.8,0.1-1.4-0.5-1.4-1.3
		C300,188,300.7,187.3,301.4,187.3"/>
	<path fill="#CDAE41" d="M291.9,193.8c0.4,0,0.7,0.2,0.7,0.6c0,0.4-0.3,0.7-0.7,0.8c-0.4,0-0.7-0.2-0.7-0.6
		C291.2,194.2,291.5,193.8,291.9,193.8"/>
	<path fill="#CDAE41" d="M295.7,194.3c0.4,0,0.7,0.2,0.7,0.6c0,0.4-0.3,0.7-0.7,0.8c-0.4,0-0.7-0.2-0.7-0.6
		C295,194.6,295.3,194.3,295.7,194.3"/>
	<path fill="#CDAE41" d="M306.9,195.4c0.3,0,0.7,0.2,0.7,0.7c0,0.3-0.3,0.7-0.7,0.8c-0.4,0-0.7-0.3-0.7-0.6
		C306.2,195.7,306.5,195.4,306.9,195.4"/>
	<path fill="#CDAE41" d="M299.5,194.7c0.4,0,0.7,0.2,0.7,0.6c0,0.4-0.3,0.7-0.7,0.8c-0.4,0-0.7-0.2-0.7-0.6
		C298.8,195.1,299.2,194.8,299.5,194.7"/>
	<path fill="#CDAE41" d="M300.6,191.3c0.4,0,0.7,0.2,0.7,0.6c0,0.4-0.3,0.7-0.7,0.8c-0.4,0-0.7-0.2-0.7-0.6
		C299.8,191.6,300.2,191.3,300.6,191.3"/>
	<path fill="#CDAE41" d="M301.5,187.8c0.4,0,0.7,0.2,0.7,0.6c0,0.4-0.3,0.7-0.7,0.8c-0.4,0-0.7-0.3-0.7-0.6
		C300.8,188.2,301.1,187.8,301.5,187.8"/>
</g>
</svg>
