<svg version="1.1" id="mng" name="mongolia" xmlns="http://www.w3.org/2000/svg" xmlns:xlink="http://www.w3.org/1999/xlink" x="0px" y="0px"
	 viewBox="0 0 480 320" enable-background="new 0 0 480 320" xml:space="preserve">
<g id="flag-mng">
	<path fill="#C8202D" d="M0,300c160,44.8,320-44.8,480,0c0-93.4,0-186.7,0-280.1C320-24.8,160,64.8,0,20C0,113.3,0,206.7,0,300z"/>
	<path fill="#63ABCC" d="M160,310c53.3-5,106.7-14.9,160-19.9c0-93.4,0-186.7,0-280.1c-53.3,5-106.7,14.9-160,19.9
		C160,123.3,160,216.6,160,310z"/>
</g>
<g id="crest">
	<path fill="#F3EA2B" d="M80,112.4c12.2,0.6,22,10.4,22,22.5c0,12.1-9.8,22.1-22,21.5c-12.1-0.6-22-11.5-22-23.6
		C58,120.7,67.9,111.9,80,112.4"/>
	<path fill="#C8202D" d="M80,100.5c13.2,0.6,24,11.2,24,24.4c0,13.3-10.8,24.2-24,23.5c-13.3-0.6-24-12.6-24-25.8
		C56,109.4,66.7,99.9,80,100.5"/>
	<path fill="#F3EA2B" d="M80,112.4c8.9,0.4,16,7.6,16,16.5c0,8.8-7.1,15.9-16,15.5c-8.9-0.4-16-8.2-16-17
		C64,118.6,71.1,112,80,112.4"/>
	<path fill="#F3EA2B" d="M79.6,76.6c-3,2-0.8,5.7-1,7.6c-0.3,2-1.3,2.3-1.7,4c-0.6,2.1-0.3,4.4,0.1,5.2c0.3,0.8,0.7,1.6,0.8,2.2
		c0,0,0.1,0,0.1,0c0,0.1,0,0.1,0,0.1l0,0c0,0,0,0,0,0c0,0.1,0,0.1,0,0.1c0,0,0,0,0,0c0,0,0,0,0,0.1l0,0c0,0.1,0,0.2,0,0.2
		c0,1.2-0.9,2.1-2,2c-1.1-0.1-2-1-2-2.1c0,0,0,0,0,0c0,0,0,0,0-0.1c0,0,0,0,0,0l0,0c0,0,0,0,0-0.1l0,0c0,0,0,0,0,0l0,0
		c0-0.1,0-0.1,0-0.1c0,0,0,0,0,0l0,0l0,0c0-0.1,0.1-0.1,0.1-0.1l0,0c0,0,0-0.1,0-0.1c0,0,0,0,0-0.1c0,0,0,0,0,0h0
		c0.3-1.1,1.3-1.9,1.2-3.3c0-1.8-1.2-2.7-1.5-3.3c-0.2-0.5-0.5-1.6,0-2.7c-0.8,1-1.8,1.7-1.8,2.9c0.1,0.8,0.5,1.8,0.5,3
		c-0.1,1.4-2.4,2.2-2.5,5.8c0,5.5,4.4,10.3,10,10.6c5.5,0.3,10-4.1,10-9.7c-0.1-3.6-2.5-4.6-2.5-6c0-1.2,0.4-2.1,0.4-2.9
		c0-1.2-0.9-2-1.8-3.1c0.5,1.1,0.1,2.2-0.1,2.7c-0.2,0.5-1.5,1.3-1.5,3.1c0,1.4,1,2.3,1.3,3.4l0,0l0,0l0,0l0,0c0,0.1,0,0.1,0,0.1
		c0,0.1,0,0.1,0,0.1c0,0,0,0.1,0,0.1c0,0.1,0,0.1,0,0.1c0,0,0,0.1,0,0.1c0,0,0,0,0,0c0,0,0,0,0,0.1l0,0c0,0,0,0,0,0
		c0,1.1-0.9,2-2,1.9c-0.9,0-1.6-0.6-1.9-1.4c0,0,0,0,0,0C82,97,82,96.8,82,96.5c0,0,0-0.2,0-0.3c0,0,0,0,0-0.1c0,0,0,0,0,0
		c0-0.1,0-0.1,0-0.1c0,0,0-0.1,0-0.1c0,0,0,0,0,0c0,0,0,0,0,0c0,0,0,0,0,0c0.2-0.7,0.6-1.4,0.8-1.8c0.3-0.9,1-2.3,1-4.1
		c0-1.4-0.3-4.5-2-6.9c-1.4-2-2.2-2.9-2.7-4.1C78.9,78.2,79.2,77.4,79.6,76.6"/>
	<path fill="#F3EA2B" d="M36,156c6.7,1.1,13.4,2,20,2.7c0,32,0,64,0,96c-6.7-0.7-13.4-1.6-20-2.7C36,219.9,36,187.9,36,156z"/>
	<path fill="#F3EA2B" d="M104,161c6.7,0,13.3-0.2,20-0.5c0,32,0,64,0,96c-6.7,0.3-13.3,0.4-20,0.5C104,224.9,104,192.9,104,161z"/>
	<path fill="#F3EA2B" d="M60,159.1c13.3,1.3,26.7,1.9,40,1.9c-6.7,4-13.3,7.8-20,11.5"/>
	<path fill="#F3EA2B" d="M60,175c13.3,1.3,26.7,1.9,40,1.9c0,2.7,0,5.3,0,8c-13.3,0-26.7-0.6-40-1.9C60,180.4,60,177.7,60,175z"/>
	<path fill="#F3EA2B" d="M60,231.1c13.3,1.3,26.7,1.9,40,1.9c0,2.7,0,5.3,0,8c-13.3,0-26.7-0.6-40-1.9C60,236.4,60,233.7,60,231.1z"
		/>
	<path fill="#F3EA2B" d="M60,243c13.3,1.3,26.7,1.9,40,1.9c-6.7,4-13.3,7.8-20,11.5"/>
	<path fill="#F3EA2B" d="M80,188.4c11,0.5,20,9.4,20,20.5c0,11.1-9,20-20,19.5c-11-0.5-20-10.4-20-21.4C60,196,69,187.9,80,188.4"/>
</g>
</svg>
