<svg version="1.1" id="nor" name="norway" xmlns="http://www.w3.org/2000/svg" xmlns:xlink="http://www.w3.org/1999/xlink" x="0px" y="0px"
	 viewBox="0 0 480 320" enable-background="new 0 0 480 320" xml:space="preserve">
<g id="flags-nor">
	<path fill="#DB1E39" d="M0,300c160,44.8,320-44.8,480,0c0-93.3,0-186.7,0-280C320-24.8,160,64.8,0,20C0,113.3,0,206.7,0,300z"/>
	<path fill="#FFFFFF" d="M105,312.9c23.3-0.2,46.7-1.9,70-4.5c0-93.3,0-186.7,0-280c-23.3,2.5-46.7,4.3-70,4.5
		C105,126.3,105,219.6,105,312.9z"/>
	<path fill="#FFFFFF" d="M0,195c160,44.8,320-44.8,480,0c0-23.3,0-46.7,0-70c-160-44.8-320,44.8-480,0C0,148.3,0,171.7,0,195z"/>
	<path fill="#252E65" d="M122.5,312.5c11.7-0.5,23.3-1.3,35-2.3c0-93.3,0-186.7,0-280c-11.7,1.1-23.3,1.9-35,2.3
		C122.5,125.8,122.5,219.2,122.5,312.5z"/>
	<path fill="#252E65" d="M0,177.5c160,44.8,320-44.8,480,0c0-11.7,0-23.3,0-35c-160-44.8-320,44.8-480,0C0,154.2,0,165.8,0,177.5z"
		/>
</g>
</svg>
