<svg version="1.1" id="nru" name="nauru" xmlns="http://www.w3.org/2000/svg" xmlns:xlink="http://www.w3.org/1999/xlink" x="0px" y="0px"
	 viewBox="0 0 480 320" enable-background="new 0 0 480 320" xml:space="preserve">
<g id="flag-nru">
	<path fill="#2A3479" d="M0,300c160,44.8,320-44.8,480,0c0-93.3,0-186.7,0-280C320-24.8,160,64.8,0,20C0,113.3,0,206.7,0,300z"/>
	<path fill="#FFFFFF" d="M122.4,277.5c-2-8-4-15.9-6-23.9c-5.8,6.1-11.5,12.2-17.3,18.1c2.3-8,4.6-15.9,6.8-23.9
		c-8,2.3-15.9,4.5-23.9,6.4c6-5.5,11.9-11.1,17.9-16.9c-8-2-16.1-4.3-24.1-6.8c8-1.6,16.1-3.3,24.1-5.3c-6-5.8-11.9-11.7-17.9-17.7
		c8,2.6,15.9,5,23.9,7.2c-2.3-8-4.6-15.9-6.8-23.9c5.8,6,11.5,11.9,17.3,17.7c2-8.1,4-16.2,6-24.3c2,8,4,15.9,6,23.9
		c5.8-6.2,11.5-12.6,17.3-19c-2.3,8.1-4.6,16.3-6.8,24.4c8-2.8,15.9-5.7,23.9-8.8c-6,6.3-11.9,12.6-17.9,18.8
		c8,1.4,16.1,2.7,24.1,3.9c-8,2.9-16.1,5.6-24.1,8.2c6,5.3,11.9,10.6,17.9,15.7c-8-1.5-15.9-3.1-23.9-4.9c2.3,7.8,4.6,15.6,6.8,23.4
		c-5.8-5.5-11.5-11.1-17.3-16.8C126.4,261.3,124.4,269.4,122.4,277.5z"/>
	<path fill="#F2C430" d="M0,171.7c160,44.8,320-44.8,480,0c0-7.8,0-15.6,0-23.3c-160-44.8-320,44.8-480,0C0,156.1,0,163.9,0,171.7z"
		/>
</g>
</svg>
