<svg version="1.1" id="nzl" name="newzeland" xmlns="http://www.w3.org/2000/svg" xmlns:xlink="http://www.w3.org/1999/xlink" x="0px" y="0px"
	 viewBox="0 0 480 320" enable-background="new 0 0 480 320" xml:space="preserve">
<g id="flag-nzl">
	<g>
		<path fill="#2C3178" d="M240.1,20c0,3,0,5.9,0,8.9c0,1,0,2,0,3.1c0,0.5,0,1,0,1.4c-17.8,11.4-35.5,22.7-53.3,33.7
			c17.8-2.1,35.5-4.6,53.3-7.1c0,2.7,0,5.3,0,8c0,4,0,8,0,12c0,4,0,8,0,12c0,2.7,0,5.3,0,8c-17.8,2.5-35.5,5-53.3,7.1
			c17.8,6.8,35.5,13.2,53.3,19.6c0,1.5,0,3,0,4.5c0,3,0,6,0,8.9c0,0.3,0,0.5,0,0.8c-5.5,0.8-10.9,1.5-16.4,2.3
			c-2,0.3-4.1,0.6-6.1,0.8c-0.9,0.1-1.9,0.3-2.8,0.4c-24.9-9.1-49.8-18.5-74.7-29.3c0,12.5,0,24.9,0,37.4c-2.7,0.2-5.4,0.3-8,0.5
			c-4,0.2-8,0.4-12,0.5c-4,0.1-8,0.2-12,0.3c-2.7,0-5.3,0-8,0c0-12.5,0-24.9,0-37.4c-24.9,12.4-49.8,22.9-74.7,30.5
			c-3-0.6-6-1.2-8.9-1.9c-5.4-1.2-10.9-2.6-16.3-4.1C0,193.9,0,246.9,0,300c160,44.8,320-44.8,480,0c0-93.3,0-186.7,0-280
			C400-2.4,320.1,8.8,240.1,20z"/>
	</g>
	<g>
		<path fill="#2C3178" d="M0,100c0,8.9,0,17.7,0,26.6c17.7-3.9,35.5-9.5,53.2-16.3C35.5,108.3,17.7,105,0,100z"/>
	</g>
	<g>
		<path fill="#2C3178" d="M140,31.6c0,12.2,0,24.4,0,36.6c24.4-13.8,48.8-29,73.2-44.5C188.8,27,164.4,29.9,140,31.6z"/>
	</g>
	<g>
		<path fill="#2C3178" d="M100,32.9c-24.4-0.1-48.8-2-73.2-6.6c24.4,16.9,48.8,31,73.2,43.3C100,57.4,100,45.1,100,32.9z"/>
	</g>
	<g>
		<path fill="#2C3178" d="M0,60c17.7,5,35.5,8.3,53.2,10.3C35.5,59.4,17.7,47.3,0,33.5C0,42.3,0,51.2,0,60z"/>
	</g>
	<g>
		<path fill="#FFFFFF" d="M240,20c-26.7,17.1-53.3,34.1-80,50c-6,0.6-11.9,1.1-17.9,1.5c26.7-15.2,53.3-31.9,80-48.9
			c-3,0.4-5.9,0.8-8.9,1.2c-24.4,15.5-48.8,30.6-73.2,44.5c0-12.2,0-24.4,0-36.6c-2.7,0.2-5.4,0.3-8,0.5c0,13.5,0,27.1,0,40.6
			c0,1.5,0,3,0,4.4c0,1,0,2,0,3c4-0.2,8-0.5,12-0.8c6-0.4,11.9-0.9,17.9-1.5c2-0.2,4.1-0.4,6.1-0.6c0.9-0.1,1.9-0.2,2.8-0.3
			c23.1-2.4,46.2-5.7,69.3-8.9c0-2.7,0-5.3,0-8c-17.8,2.5-35.5,5-53.3,7.1c17.8-11,35.5-22.4,53.3-33.7c0-0.5,0-1,0-1.4
			c0-1,0-2,0-3.1c0-3,0-5.9,0-8.9C240.1,20,240,20,240,20z"/>
	</g>
	<g>
		<path fill="#FFFFFF" d="M100,32.9c0,12.2,0,24.4,0,36.6C75.6,57.3,51.2,43.2,26.8,26.3C17.9,24.6,8.9,22.5,0,20
			c26.7,20.8,53.3,37.9,80,52.4c-6-0.3-11.9-0.7-17.9-1.2C41.4,59,20.7,45.1,0,29c0,1.5,0,3,0,4.5c17.7,13.8,35.5,26,53.2,36.9
			C35.5,68.3,17.7,65,0,60c0,2.7,0,5.3,0,8c23,6.5,46.1,10.1,69.1,11.8c3,0.2,6,0.4,9,0.6c6,0.3,11.9,0.5,17.9,0.6c4,0,8,0,12,0
			c0-1,0-2,0-3c0-1,0-2,0-3c0-0.5,0-0.9,0-1.4c0-13.5,0-27.1,0-40.6C105.3,32.9,102.7,32.9,100,32.9z"/>
	</g>
	<g>
		<path fill="#FFFFFF" d="M161.9,101.8c-6,0.6-11.9,1.1-17.9,1.5c-4,0.3-8,0.5-12,0.8c0,1,0,2,0,2.9c0,1,0,2,0,3c0,0.5,0,0.9,0,1.4
			c0,13.8,0,27.6,0,41.4c2.7-0.1,5.4-0.3,8-0.5c0-12.5,0-24.9,0-37.4c24.9,10.8,49.8,20.2,74.7,29.3c0.9-0.1,1.9-0.3,2.8-0.4
			c2-0.3,4.1-0.6,6.1-0.8c5.5-0.8,10.9-1.5,16.4-2.3c0-0.3,0-0.5,0-0.8c-26.7-9.6-53.4-19.2-80.1-30.1c6-0.6,11.9-1.2,17.9-1.8
			c20.7,8,41.5,15.5,62.2,23c0-1.5,0-3,0-4.5c-17.8-6.4-35.5-12.8-53.3-19.6c17.8-2.1,35.5-4.6,53.3-7.1c0-2.7,0-5.3,0-8
			c-23.1,3.2-46.2,6.5-69.3,8.9C167.8,101.2,164.9,101.5,161.9,101.8z"/>
	</g>
	<g>
		<path fill="#FFFFFF" d="M96,104.9c-6-0.1-11.9-0.2-17.9-0.6c-2-0.1-4.1-0.2-6.1-0.4c-0.9-0.1-1.9-0.1-2.8-0.2
			C46.1,102.1,23,98.5,0,92c0,2.7,0,5.3,0,8c17.7,5,35.5,8.3,53.2,10.3c-17.7,6.8-35.4,12.4-53.2,16.3c0,4.5,0,8.9,0,13.4
			c26.7-5.9,53.3-15.5,80-27.6c6,0.3,11.9,0.4,17.9,0.5c-27.2,13.4-54.4,24.5-81.6,32c3,0.7,6,1.3,8.9,1.9
			c24.9-7.6,49.8-18.1,74.7-30.5c0,12.5,0,24.9,0,37.4c2.7,0,5.3,0,8,0c0-13.8,0-27.6,0-41.4c0-1.5,0-3,0-4.5c0-1,0-2,0-2.9
			C104,105,100,105,96,104.9z"/>
	</g>
	<g>
		<path fill="#BD2038" d="M80,112.5C53.3,124.5,26.7,134.1,0,140c0,0.3,0,0.5,0,0.8c5.4,1.5,10.9,2.9,16.3,4.1
			c27.2-7.5,54.4-18.6,81.6-32C91.9,112.9,86,112.7,80,112.5z"/>
	</g>
	<g>
		<path fill="#BD2038" d="M0,29c20.7,16.1,41.4,30,62.1,42.2c6,0.5,11.9,0.9,17.9,1.2C53.3,57.9,26.7,40.8,0,20C0,23,0,26,0,29z"/>
	</g>
	<g>
		<path fill="#BD2038" d="M240,20c-6,0.8-11.9,1.7-17.9,2.5c-26.7,17-53.3,33.7-80,48.9c6-0.4,11.9-0.9,17.9-1.5
			C186.7,54.1,213.3,37.1,240,20z"/>
	</g>
	<g>
		<path fill="#BD2038" d="M160,110c26.7,10.9,53.4,20.5,80.1,30.1c0-3,0-6,0-8.9c-20.7-7.5-41.5-14.9-62.2-23
			C171.9,108.8,166,109.4,160,110z"/>
	</g>
	<g>
		<path fill="#BD2038" d="M108,32.9c0,13.5,0,27.1,0,40.6c0,0.5,0,0.9,0,1.4c0,1,0,2,0,3c0,1,0,2,0,3c-4,0.1-8,0.1-12,0
			c-6-0.1-11.9-0.2-17.9-0.6c-3-0.2-6-0.3-9-0.6C46.1,78.1,23,74.5,0,68c0,8,0,16,0,24c23,6.5,46.1,10.1,69.1,11.8
			c0.9,0.1,1.9,0.1,2.8,0.2c2,0.1,4.1,0.3,6.1,0.4c6,0.3,11.9,0.5,17.9,0.6c4,0,8,0,12,0c0,1,0,2,0,2.9c0,1.5,0,3,0,4.5
			c0,13.8,0,27.6,0,41.4c4-0.1,8-0.1,12-0.3c4-0.1,8-0.3,12-0.5c0-13.8,0-27.6,0-41.4c0-0.5,0-0.9,0-1.4c0-1,0-2,0-3c0-1,0-2,0-2.9
			c4-0.2,8-0.5,12-0.8c6-0.4,11.9-0.9,17.9-1.5c3-0.3,5.9-0.6,8.9-0.9c23.1-2.4,46.2-5.7,69.3-8.9c0-4,0-8,0-12c0-4,0-8,0-12
			c-23.1,3.2-46.2,6.5-69.3,8.9c-0.9,0.1-1.9,0.2-2.8,0.3c-2,0.2-4.1,0.4-6.1,0.6c-6,0.6-11.9,1.1-17.9,1.5c-4,0.3-8,0.5-12,0.8
			c0-1,0-2,0-3c0-1.5,0-3,0-4.4c0-13.5,0-27.1,0-40.6C124,32.5,116,32.8,108,32.9z"/>
	</g>
	<g>
		<path fill="#FFFFFF" d="M333.2,90.6c4.3-0.3,8.7-0.6,13-0.9c1.4-4.2,2.7-8.4,4.1-12.6c1.3,4.1,2.7,8.1,4,12.2
			c4.3-0.2,8.7-0.3,13-0.4c-3.5,2.6-7,5.3-10.5,8c1.3,4.1,2.7,8.2,4,12.3c-3.5-2.4-7-4.9-10.5-7.2c-3.5,2.7-7.1,5.5-10.6,8.3
			c1.4-4.2,2.7-8.5,4.1-12.7C340.2,95.2,336.7,92.9,333.2,90.6z"/>
	</g>
	<g>
		<path fill="#BD2038" d="M339,92.1c2.9-0.2,5.7-0.4,8.6-0.5c0.9-2.8,1.8-5.6,2.7-8.3c0.9,2.7,1.8,5.4,2.6,8.1
			c2.9-0.1,5.7-0.2,8.6-0.3c-2.3,1.8-4.6,3.5-6.9,5.3c0.9,2.7,1.8,5.4,2.6,8.1c-2.3-1.6-4.6-3.2-6.9-4.8c-2.3,1.8-4.7,3.6-7,5.5
			c0.9-2.8,1.8-5.6,2.7-8.4C343.6,95.2,341.3,93.6,339,92.1z"/>
	</g>
	<g>
		<path fill="#FFFFFF" d="M281,148.7c4.3-0.6,8.7-1.1,13-1.6c1.4-4.3,2.7-8.6,4.1-12.9c1.3,4,2.7,8,4,12c4.3-0.5,8.7-0.9,13-1.4
			c-3.5,2.9-7,5.8-10.5,8.7c1.3,4,2.7,8,4,12c-3.5-2.2-7-4.3-10.5-6.5c-3.5,3-7,5.9-10.5,8.9c1.3-4.3,2.7-8.6,4-12.9
			C288,152.9,284.5,150.8,281,148.7z"/>
	</g>
	<g>
		<path fill="#BD2038" d="M286.8,149.8c2.9-0.4,5.7-0.7,8.6-1c0.9-2.8,1.8-5.7,2.7-8.5c0.9,2.6,1.8,5.3,2.7,7.9
			c2.9-0.3,5.8-0.6,8.7-0.9c-2.3,1.9-4.7,3.9-7,5.8c0.9,2.6,1.8,5.3,2.7,7.9c-2.3-1.5-4.7-2.9-7-4.3c-2.3,2-4.7,4-7,5.9
			c0.9-2.8,1.8-5.7,2.7-8.5C291.5,152.6,289.1,151.2,286.8,149.8z"/>
	</g>
	<g>
		<path fill="#FFFFFF" d="M379.8,128.3c3.9,0,7.7,0.1,11.6,0.2c1.2-3.6,2.4-7.3,3.6-10.9c1.2,3.7,2.4,7.4,3.6,11.2
			c3.9,0.2,7.7,0.4,11.6,0.7c-3.1,2-6.2,4.1-9.4,6.2c1.2,3.8,2.4,7.5,3.6,11.3c-3.1-2.4-6.3-4.9-9.4-7.2c-3.1,2.2-6.3,4.4-9.4,6.6
			c1.2-3.7,2.4-7.3,3.6-11C386.1,132.8,382.9,130.5,379.8,128.3z"/>
	</g>
	<g>
		<path fill="#BD2038" d="M384.9,130c2.6,0,5.1,0.1,7.7,0.2c0.8-2.4,1.6-4.8,2.4-7.2c0.8,2.5,1.6,4.9,2.4,7.4
			c2.6,0.1,5.1,0.2,7.7,0.4c-2.1,1.4-4.2,2.8-6.2,4.2c0.8,2.5,1.6,4.9,2.4,7.4c-2.1-1.6-4.1-3.2-6.2-4.8c-2.1,1.4-4.2,2.9-6.2,4.3
			c0.8-2.4,1.6-4.8,2.4-7.2C389.1,133.1,387,131.5,384.9,130z"/>
	</g>
	<g>
		<path fill="#FFFFFF" d="M331.3,225.7c4.8-0.4,9.6-0.7,14.5-1c1.5-4.7,3-9.4,4.5-14c1.5,4.5,3,9,4.5,13.6c4.8-0.2,9.7-0.4,14.5-0.5
			c-3.9,2.9-7.8,5.9-11.7,8.9c1.5,4.5,3,9.1,4.5,13.6c-3.9-2.7-7.8-5.4-11.7-8c-3.9,3-7.8,6.1-11.7,9.2c1.5-4.7,3-9.4,4.5-14.1
			C339.1,230.8,335.2,228.2,331.3,225.7z"/>
	</g>
	<g>
		<path fill="#BD2038" d="M337.7,227.3c3.2-0.2,6.4-0.4,9.6-0.6c1-3.1,2-6.2,3-9.3c1,3,2,6,2.9,9c3.2-0.1,6.4-0.3,9.6-0.4
			c-2.6,2-5.1,3.9-7.7,5.9c1,3,2,6,3,9c-2.6-1.8-5.2-3.5-7.8-5.3c-2.6,2-5.2,4-7.8,6.1c1-3.1,2-6.2,3-9.3
			C342.9,230.7,340.3,229,337.7,227.3z"/>
	</g>
</g>
</svg>
