<svg version="1.1" id="omn" name="oman" xmlns="http://www.w3.org/2000/svg" xmlns:xlink="http://www.w3.org/1999/xlink" x="0px" y="0px"
	 viewBox="0 0 480 320" enable-background="new 0 0 480 320" xml:space="preserve">
<g id="flag-omn">
	<path fill="#E7353E" d="M0,300c160,44.8,320-44.8,480,0c0-93.4,0-186.7,0-280.1C320-24.8,160,64.8,0,20C0,113.3,0,206.7,0,300z"/>
	<path fill="#3C9446" d="M140,311.6c113.3-7.6,226.7-43.3,340-11.6c0-31.1,0-62.2,0-93.3c-113.4-31.7-226.7,4-340,11.6
		C140,249.4,140,280.5,140,311.6z"/>
	<path fill="#FFFFFF" d="M140,31.5C253.3,23.9,366.6-11.8,480,20c0,31.1,0,62.2,0,93.3c-113.4-31.7-226.7,4-340,11.6
		C140,93.8,140,62.7,140,31.5z"/>
</g>
<g id="crest">
	<path fill="#FFFFFF" d="M92.8,81.2c5,0.1,10,0.1,15,0c0.9,0,1.5,0.6,1.5,1.4c0,2.4,0,4.7,0,7.1c0,0.8-0.7,1.5-1.5,1.5
		c-5,0.1-10,0.1-15,0c-0.8,0-1.5-0.7-1.5-1.5c0-2.4,0-4.7,0-7.1C91.3,81.7,92,81.1,92.8,81.2L92.8,81.2z"/>
	<path fill="#DB1E37" d="M107.9,91.2c-5,0.1-10,0.1-15,0c-0.8,0-1.6-0.7-1.7-1.5c0-2.4,0-4.7,0-7.1c0-0.8,0.8-1.5,1.7-1.5
		c5,0.1,10,0.1,15,0c1,0,1.6,0.7,1.6,1.5c0,2.4,0,4.7,0,7.1C109.5,90.5,108.8,91.2,107.9,91.2L107.9,91.2z M92.8,81.3
		c-0.8,0-1.4,0.5-1.4,1.2c0,2.4,0,4.7,0,7.1c0,0.7,0.6,1.3,1.4,1.4c5,0.1,10,0.1,15,0c0.8,0,1.5-0.6,1.4-1.4c0-2.4,0-4.7,0-7.1
		c0-0.7-0.7-1.3-1.4-1.3C102.8,81.4,97.8,81.4,92.8,81.3L92.8,81.3z"/>
	<path fill="#FFFFFF" d="M93.2,81.6c4.8,0.1,9.6,0.1,14.3,0c0.8,0,1.4,0.6,1.4,1.3c0,2.2,0,4.4,0,6.5c0,0.7-0.6,1.3-1.4,1.3
		c-4.8,0.1-9.6,0-14.3,0c-0.8,0-1.4-0.6-1.4-1.3c0-2.2,0-4.4,0-6.5C91.8,82.1,92.4,81.5,93.2,81.6L93.2,81.6z"/>
	<path fill="#DB1E37" d="M107.5,90.8c-4.8,0.1-9.6,0-14.3,0c-0.8,0-1.5-0.6-1.5-1.4c0-2.2,0-4.4,0-6.5c0-0.7,0.7-1.3,1.5-1.3
		c4.8,0.1,9.6,0.1,14.3,0c0.8,0,1.6,0.6,1.6,1.3c0,2.2,0,4.4,0,6.5C109.1,90.2,108.4,90.8,107.5,90.8L107.5,90.8z M93.2,81.7
		c-0.7,0-1.3,0.5-1.3,1.1c0,2.2,0,4.4,0,6.5c0,0.7,0.6,1.2,1.3,1.2c4.8,0.1,9.6,0.1,14.3,0c0.7,0,1.3-0.5,1.3-1.2c0-2.2,0-4.4,0-6.5
		c0-0.6-0.6-1.1-1.3-1.1C102.7,81.8,98,81.8,93.2,81.7L93.2,81.7z"/>
	<path fill="#FFFFFF" d="M99.7,84.1c0.3,0,0.6,0,0.9,0.1c0,0.1,0,0.3,0,0.4c0.2,0.1,0.5,0.3,0.7,0.4c0.2-0.2,0.4-0.3,0.6-0.5
		c0.2,0.1,0.4,0.2,0.7,0.4c-0.2,0.1-0.4,0.3-0.6,0.4c0,0.2,0.1,0.4,0.1,0.6c0.3,0,0.5,0,0.8-0.1c0,0.3,0,0.5,0,0.8
		c-0.2,0-0.4,0-0.6,0c-0.1,0.1-0.2,0.3-0.3,0.4c0.2,0.2,0.5,0.3,0.7,0.5c-0.2,0.2-0.4,0.3-0.6,0.5c-0.2-0.2-0.4-0.3-0.6-0.5
		c-0.3,0.1-0.6,0.2-0.8,0.2c0,0.2,0,0.4,0,0.7c-0.3,0-0.6,0-0.9,0c0-0.2,0-0.4-0.1-0.7c-0.3-0.1-0.6-0.2-0.8-0.3
		c-0.1,0.1-0.3,0.3-0.4,0.4c-0.2-0.1-0.4-0.2-0.7-0.3c0.1-0.2,0.2-0.4,0.4-0.5c-0.1-0.1-0.3-0.2-0.4-0.3c-0.2,0-0.5,0-0.7,0
		c0-0.3,0-0.6,0-0.9c0.2,0,0.5,0,0.7,0c0.2-0.2,0.3-0.4,0.5-0.5c-0.2-0.1-0.4-0.3-0.6-0.4c0.2-0.2,0.5-0.3,0.7-0.5
		c0.2,0.1,0.3,0.3,0.5,0.4c0.3,0,0.6-0.1,0.9-0.1C99.7,84.4,99.7,84.2,99.7,84.1z"/>
	<path fill="#DB1E37" d="M99.7,88.3c-0.1-0.2-0.1-0.4-0.2-0.7c-0.2-0.1-0.5-0.2-0.7-0.3c-0.1,0.1-0.2,0.3-0.3,0.4
		c-0.2-0.1-0.5-0.2-0.7-0.3c0.1-0.2,0.2-0.5,0.3-0.7c-0.4,0-0.7-0.1-1.1-0.1c0-0.4-0.1-0.7-0.1-1.1c0.3,0,0.5,0,0.8-0.1
		c0.1-0.2,0.2-0.3,0.4-0.5c-0.2-0.1-0.4-0.2-0.6-0.3c0.2-0.2,0.5-0.4,0.7-0.7c0.2,0.1,0.4,0.3,0.7,0.4c0.2,0,0.3,0,0.5-0.1
		c-0.2,0.1-0.4,0.2-0.6,0.3c-0.2-0.1-0.4-0.3-0.6-0.4c-0.2,0.2-0.4,0.3-0.5,0.5c0.2,0.1,0.4,0.2,0.5,0.3c-0.1,0.2-0.3,0.4-0.4,0.7
		c-0.3,0-0.5,0-0.8,0c0,0.3,0.1,0.6,0.1,0.8c0.2,0,0.4-0.1,0.7-0.1c0.2,0.1,0.3,0.2,0.5,0.3c-0.1,0.2-0.2,0.4-0.4,0.7
		c0.2,0.1,0.4,0.1,0.6,0.2c0.1-0.2,0.2-0.3,0.3-0.5c0.3,0.1,0.6,0.2,0.9,0.3c0.1,0.2,0.1,0.4,0.2,0.6c0.3,0,0.5,0,0.8-0.1
		c0-0.2-0.1-0.4-0.1-0.5c0.3-0.1,0.6-0.2,1-0.3c0.2,0.2,0.4,0.3,0.7,0.5c0.1-0.1,0.3-0.3,0.4-0.4c-0.3-0.1-0.5-0.3-0.8-0.4
		c0.1-0.2,0.3-0.3,0.4-0.5c0.2,0,0.5,0,0.7,0c0-0.2,0-0.4-0.1-0.6c-0.3,0.1-0.5,0.1-0.8,0.2c-0.1-0.2-0.1-0.4-0.2-0.6
		c0.2-0.2,0.4-0.4,0.7-0.5c-0.2,0-0.4-0.1-0.7-0.1c-0.1,0.1-0.3,0.3-0.4,0.4c-0.5-0.2-1-0.4-1.6-0.6c0.2-0.1,0.5-0.2,0.7-0.3
		c0.3,0.3,0.5,0.5,0.8,0.8c0.1-0.2,0.3-0.3,0.4-0.5c0.3,0.1,0.5,0.2,0.8,0.4c-0.2,0.2-0.4,0.4-0.6,0.6c0.3,0.1,0.6,0.2,0.8,0.3
		c0.1,0.3,0.1,0.6,0.2,0.9c-0.3,0-0.5,0-0.8,0.1c0.2,0.2,0.3,0.5,0.5,0.7c-0.2,0.2-0.4,0.4-0.6,0.7c-0.2-0.2-0.5-0.3-0.7-0.5
		c-0.3,0.1-0.5,0.2-0.8,0.2c0.1,0.2,0.1,0.4,0.2,0.6C100.4,88.3,100.1,88.3,99.7,88.3L99.7,88.3z"/>
	<path fill="#FFFFFF" d="M100,85.3c0.5,0,1,0.4,1,0.8c0,0.5-0.4,0.8-1,0.8c-0.6,0-0.9-0.3-0.9-0.8C99.1,85.7,99.5,85.3,100,85.3
		L100,85.3z"/>
	<path fill="#DB1E37" d="M100,87c-0.6,0-1.1-0.4-1.1-1c0-1,2.1-1.1,2.1,0C101.1,86.6,100.6,87,100,87L100,87z M100,85.4
		c-0.5,0-0.8,0.3-0.8,0.7c0,0.8,1.7,0.8,1.7,0C100.8,85.7,100.5,85.4,100,85.4L100,85.4z"/>
	<path fill="#FFFFFF" d="M94.1,82c-0.5,0.4-0.9,0.8-1.4,1.2C93.2,82.8,93.6,82.4,94.1,82z"/>
	<path fill="#FFFFFF" d="M95.1,82c-0.5,0.4-0.9,0.8-1.4,1.2C94.1,82.8,94.6,82.4,95.1,82z"/>
	<path fill="#FFFFFF" d="M95.9,82c-0.5,0.4-0.9,0.8-1.4,1.2C95,82.8,95.5,82.4,95.9,82z"/>
	<path fill="#FFFFFF" d="M96.9,82c-0.5,0.4-0.9,0.8-1.4,1.2C96,82.9,96.4,82.4,96.9,82z"/>
	<path fill="#FFFFFF" d="M97.8,82c-0.5,0.4-0.9,0.8-1.4,1.2C96.9,82.9,97.3,82.5,97.8,82z"/>
	<path fill="#FFFFFF" d="M98.8,82.1c-0.5,0.4-0.9,0.8-1.4,1.2C97.8,82.9,98.3,82.5,98.8,82.1z"/>
	<path fill="#FFFFFF" d="M99.7,82.1c-0.5,0.4-0.9,0.8-1.4,1.2C98.8,82.9,99.2,82.5,99.7,82.1z"/>
	<path fill="#FFFFFF" d="M100.6,82.1c-0.5,0.4-0.9,0.8-1.4,1.2C99.7,82.9,100.2,82.5,100.6,82.1z"/>
	<path fill="#FFFFFF" d="M101.5,82.1c-0.5,0.4-0.9,0.8-1.4,1.2C100.6,82.9,101,82.5,101.5,82.1z"/>
	<path fill="#FFFFFF" d="M102.4,82.1c-0.5,0.4-0.9,0.8-1.4,1.2C101.5,82.9,102,82.5,102.4,82.1z"/>
	<path fill="#FFFFFF" d="M103.4,82.1c-0.5,0.4-0.9,0.8-1.4,1.2C102.4,82.9,102.9,82.5,103.4,82.1z"/>
	<path fill="#FFFFFF" d="M104.3,82.1c-0.5,0.4-0.9,0.8-1.4,1.2C103.4,82.9,103.8,82.5,104.3,82.1z"/>
	<path fill="#FFFFFF" d="M100.6,82.1c-0.5,0.4-0.9,0.8-1.4,1.2C99.7,82.9,100.2,82.5,100.6,82.1z"/>
	<path fill="#FFFFFF" d="M105.3,82c-0.5,0.4-1,0.8-1.5,1.2C104.3,82.9,104.8,82.5,105.3,82z"/>
	<path fill="#FFFFFF" d="M106.2,82c-0.5,0.4-0.9,0.8-1.4,1.2C105.2,82.9,105.7,82.5,106.2,82z"/>
	<path fill="#FFFFFF" d="M107.1,82c-0.5,0.4-1,0.8-1.4,1.3C106.2,82.9,106.6,82.4,107.1,82z"/>
	<path fill="#FFFFFF" d="M108,82c-0.5,0.4-0.9,0.8-1.4,1.3C107,82.9,107.5,82.4,108,82z"/>
	<path fill="#FFFFFF" d="M106.6,82c0.5,0.4,0.9,0.8,1.4,1.2C107.5,82.8,107,82.4,106.6,82z"/>
	<path fill="#FFFFFF" d="M105.7,82c0.5,0.4,1,0.8,1.4,1.2C106.6,82.9,106.2,82.4,105.7,82z"/>
	<path fill="#FFFFFF" d="M104.8,82c0.5,0.4,0.9,0.8,1.4,1.2C105.7,82.9,105.2,82.5,104.8,82z"/>
	<path fill="#FFFFFF" d="M103.8,82.1c0.5,0.4,1,0.8,1.5,1.2C104.8,82.9,104.3,82.5,103.8,82.1z"/>
	<path fill="#FFFFFF" d="M102.9,82.1c0.5,0.4,0.9,0.8,1.4,1.2C103.8,82.9,103.4,82.5,102.9,82.1z"/>
	<path fill="#FFFFFF" d="M102,82.1c0.5,0.4,0.9,0.8,1.4,1.2C102.9,82.9,102.4,82.5,102,82.1z"/>
	<path fill="#FFFFFF" d="M101,82.1c0.5,0.4,0.9,0.8,1.4,1.2C102,82.9,101.5,82.5,101,82.1z"/>
	<path fill="#FFFFFF" d="M100.1,82.1c0.5,0.4,0.9,0.8,1.4,1.2C101,82.9,100.6,82.5,100.1,82.1z"/>
	<path fill="#FFFFFF" d="M99.2,82.1c0.5,0.4,0.9,0.8,1.4,1.2C100.2,82.9,99.7,82.5,99.2,82.1z"/>
	<path fill="#FFFFFF" d="M98.3,82c0.5,0.4,0.9,0.8,1.4,1.2C99.2,82.9,98.8,82.5,98.3,82z"/>
	<path fill="#FFFFFF" d="M97.3,82c0.5,0.4,0.9,0.8,1.4,1.2C98.3,82.9,97.8,82.5,97.3,82z"/>
	<path fill="#FFFFFF" d="M96.4,82c0.5,0.4,0.9,0.8,1.4,1.3C97.3,82.9,96.9,82.4,96.4,82z"/>
	<path fill="#FFFFFF" d="M100.1,82.1c0.5,0.4,0.9,0.8,1.4,1.2C101,82.9,100.6,82.5,100.1,82.1z"/>
	<path fill="#FFFFFF" d="M95.5,82c0.5,0.4,0.9,0.8,1.4,1.3C96.4,82.9,96,82.4,95.5,82z"/>
	<path fill="#FFFFFF" d="M94.5,82c0.5,0.4,0.9,0.8,1.4,1.3C95.5,82.8,95,82.4,94.5,82z"/>
	<path fill="#FFFFFF" d="M93.7,82c0.5,0.4,0.9,0.8,1.4,1.3C94.6,82.8,94.1,82.4,93.7,82z"/>
	<path fill="#FFFFFF" d="M92.7,82c0.5,0.4,0.9,0.8,1.4,1.3C93.6,82.8,93.2,82.4,92.7,82z"/>
	<path fill="#FFFFFF" d="M94.1,89c-0.5,0.4-0.9,0.9-1.4,1.3C93.2,89.8,93.6,89.4,94.1,89z"/>
	<path fill="#FFFFFF" d="M95.1,89c-0.5,0.4-0.9,0.9-1.4,1.3C94.1,89.9,94.6,89.4,95.1,89z"/>
	<path fill="#FFFFFF" d="M95.9,89c-0.5,0.4-0.9,0.9-1.4,1.3C95,89.9,95.5,89.4,95.9,89z"/>
	<path fill="#FFFFFF" d="M96.9,89c-0.5,0.4-0.9,0.9-1.4,1.3C96,89.9,96.4,89.5,96.9,89z"/>
	<path fill="#FFFFFF" d="M97.8,89c-0.5,0.4-0.9,0.9-1.4,1.3C96.9,89.9,97.3,89.5,97.8,89z"/>
	<path fill="#FFFFFF" d="M98.8,89c-0.5,0.4-0.9,0.9-1.4,1.3C97.8,89.9,98.3,89.5,98.8,89z"/>
	<path fill="#FFFFFF" d="M99.7,89c-0.5,0.4-0.9,0.9-1.4,1.3C98.8,89.9,99.2,89.5,99.7,89z"/>
	<path fill="#FFFFFF" d="M100.6,89c-0.5,0.4-0.9,0.9-1.4,1.3C99.7,89.9,100.2,89.5,100.6,89z"/>
	<path fill="#FFFFFF" d="M101.5,89c-0.5,0.4-0.9,0.9-1.4,1.3C100.6,89.9,101,89.5,101.5,89z"/>
	<path fill="#FFFFFF" d="M102.4,89c-0.5,0.4-0.9,0.9-1.4,1.3C101.5,89.9,102,89.5,102.4,89z"/>
	<path fill="#FFFFFF" d="M103.4,89c-0.5,0.4-0.9,0.9-1.4,1.3C102.4,89.9,102.9,89.5,103.4,89z"/>
	<path fill="#FFFFFF" d="M104.3,89c-0.5,0.4-0.9,0.9-1.4,1.3C103.4,89.9,103.8,89.5,104.3,89z"/>
	<path fill="#FFFFFF" d="M100.6,89c-0.5,0.4-0.9,0.9-1.4,1.3C99.7,89.9,100.2,89.5,100.6,89z"/>
	<path fill="#FFFFFF" d="M105.3,89c-0.5,0.4-1,0.9-1.5,1.3C104.3,89.9,104.8,89.5,105.3,89z"/>
	<path fill="#FFFFFF" d="M106.2,89c-0.5,0.4-0.9,0.9-1.4,1.3C105.2,89.9,105.7,89.5,106.2,89z"/>
	<path fill="#FFFFFF" d="M107.1,89c-0.5,0.4-1,0.9-1.4,1.3C106.2,89.9,106.6,89.4,107.1,89z"/>
	<path fill="#FFFFFF" d="M108,89c-0.5,0.4-0.9,0.9-1.4,1.3C107,89.9,107.5,89.4,108,89z"/>
	<path fill="#FFFFFF" d="M106.6,89c0.5,0.4,0.9,0.9,1.4,1.3C107.5,89.9,107,89.4,106.6,89z"/>
	<path fill="#FFFFFF" d="M105.7,89c0.5,0.4,1,0.9,1.4,1.3C106.6,89.9,106.2,89.5,105.7,89z"/>
	<path fill="#FFFFFF" d="M104.8,89c0.5,0.4,0.9,0.9,1.4,1.3C105.7,89.9,105.2,89.5,104.8,89z"/>
	<path fill="#FFFFFF" d="M103.8,89c0.5,0.4,1,0.9,1.5,1.3C104.8,89.9,104.3,89.5,103.8,89z"/>
	<path fill="#FFFFFF" d="M102.9,89c0.5,0.4,0.9,0.9,1.4,1.3C103.8,89.9,103.4,89.5,102.9,89z"/>
	<path fill="#FFFFFF" d="M102,89c0.5,0.4,0.9,0.9,1.4,1.3C102.9,89.9,102.4,89.5,102,89z"/>
	<path fill="#FFFFFF" d="M101,89c0.5,0.4,0.9,0.9,1.4,1.3C102,89.9,101.5,89.5,101,89z"/>
	<path fill="#FFFFFF" d="M100.1,89c0.5,0.4,0.9,0.9,1.4,1.3C101,89.9,100.6,89.5,100.1,89z"/>
	<path fill="#FFFFFF" d="M99.2,89c0.5,0.4,0.9,0.9,1.4,1.3C100.2,89.9,99.7,89.5,99.2,89z"/>
	<path fill="#FFFFFF" d="M98.3,89c0.5,0.4,0.9,0.9,1.4,1.3C99.2,89.9,98.8,89.5,98.3,89z"/>
	<path fill="#FFFFFF" d="M97.3,89c0.5,0.4,0.9,0.9,1.4,1.3C98.3,89.9,97.8,89.5,97.3,89z"/>
	<path fill="#FFFFFF" d="M96.4,89c0.5,0.4,0.9,0.9,1.4,1.3C97.3,89.9,96.9,89.5,96.4,89z"/>
	<path fill="#FFFFFF" d="M100.1,89c0.5,0.4,0.9,0.9,1.4,1.3C101,89.9,100.6,89.5,100.1,89z"/>
	<path fill="#FFFFFF" d="M95.5,89c0.5,0.4,0.9,0.9,1.4,1.3C96.4,89.9,96,89.4,95.5,89z"/>
	<path fill="#FFFFFF" d="M94.5,89c0.5,0.4,0.9,0.9,1.4,1.3C95.5,89.9,95,89.4,94.5,89z"/>
	<path fill="#FFFFFF" d="M93.7,89c0.5,0.4,0.9,0.9,1.4,1.3C94.6,89.9,94.1,89.4,93.7,89z"/>
	<path fill="#FFFFFF" d="M92.7,89c0.5,0.4,0.9,0.9,1.4,1.3C93.6,89.8,93.2,89.4,92.7,89z"/>
	<path fill="#FFFFFF" d="M32.2,75.2c5,0.9,10,1.6,15,2.3c0.8,0.1,1.5,0.8,1.5,1.6c0,2.4,0,4.7,0,7.1c0,0.8-0.7,1.3-1.5,1.2
		c-5-0.7-10-1.4-15-2.3c-0.8-0.1-1.5-0.9-1.5-1.7c0-2.4,0-4.7,0-7.1C30.8,75.6,31.4,75.1,32.2,75.2L32.2,75.2z"/>
	<path fill="#DB1E37" d="M47.3,87.5c-5-0.7-10-1.4-15-2.3c-0.9-0.2-1.6-0.9-1.6-1.8c0-2.4,0-4.7,0-7.1c0-0.9,0.7-1.4,1.6-1.2
		c5,0.9,10,1.6,15,2.3c0.9,0.1,1.6,0.9,1.6,1.7c0,2.4,0,4.7,0,7.1C48.9,87,48.1,87.6,47.3,87.5L47.3,87.5z M32.2,75.3
		c-0.8-0.1-1.3,0.3-1.3,1c0,2.4,0,4.7,0,7.1c0,0.7,0.6,1.4,1.3,1.5c5,0.9,10,1.6,15,2.3c0.8,0.1,1.4-0.4,1.4-1.1c0-2.4,0-4.7,0-7.1
		c0-0.7-0.6-1.4-1.4-1.5C42.3,76.9,37.2,76.2,32.2,75.3L32.2,75.3z"/>
	<path fill="#FFFFFF" d="M32.6,75.6c4.8,0.8,9.5,1.6,14.3,2.2c0.8,0.1,1.5,0.8,1.5,1.5c0,2.2,0,4.3,0,6.5c0,0.7-0.6,1.2-1.5,1.1
		c-4.8-0.6-9.5-1.4-14.3-2.2c-0.8-0.1-1.4-0.9-1.4-1.5c0-2.2,0-4.3,0-6.5C31.2,76,31.8,75.5,32.6,75.6L32.6,75.6z"/>
	<path fill="#DB1E37" d="M46.9,87.1c-4.8-0.6-9.5-1.4-14.3-2.2c-0.8-0.1-1.5-0.9-1.5-1.7c0-2.2,0-4.3,0-6.5c0-0.7,0.7-1.3,1.5-1.1
		c4.8,0.8,9.5,1.6,14.3,2.2c0.8,0.1,1.5,0.9,1.5,1.6c0,2.2,0,4.3,0,6.5C48.4,86.6,47.7,87.2,46.9,87.1L46.9,87.1z M32.6,75.8
		c-0.7-0.1-1.3,0.3-1.3,0.9c0,2.2,0,4.3,0,6.5c0,0.7,0.6,1.3,1.3,1.4c4.8,0.8,9.5,1.6,14.3,2.2c0.7,0.1,1.3-0.3,1.3-1
		c0-2.2,0-4.3,0-6.5c0-0.7-0.6-1.2-1.3-1.3C42.1,77.3,37.3,76.6,32.6,75.8L32.6,75.8z"/>
	<path fill="#FFFFFF" d="M39.1,79.2c0.3,0,0.6,0.1,0.9,0.1c0,0.1,0,0.3,0,0.4c0.2,0.2,0.4,0.3,0.7,0.5c0.2-0.1,0.4-0.3,0.6-0.4
		c0.2,0.2,0.4,0.3,0.7,0.5c-0.2,0.1-0.4,0.2-0.6,0.3c0,0.2,0.1,0.4,0.1,0.6c0.3,0,0.5,0.1,0.8,0.1c0,0.2,0,0.4,0,0.7
		c-0.2-0.1-0.4-0.1-0.6-0.2c-0.1,0.2-0.2,0.3-0.3,0.5c0.2,0.2,0.4,0.4,0.7,0.6c-0.2,0.1-0.3,0.2-0.5,0.3c-0.2-0.2-0.4-0.4-0.6-0.6
		c-0.3,0-0.5,0-0.8,0.1c0,0.2,0,0.4,0,0.7c-0.3,0-0.7-0.1-1-0.1c0-0.2-0.1-0.4-0.1-0.6c-0.3-0.1-0.5-0.3-0.8-0.4
		c-0.1,0.1-0.3,0.3-0.4,0.4c-0.2-0.1-0.4-0.3-0.7-0.4c0.1-0.2,0.2-0.3,0.3-0.5c-0.1-0.1-0.3-0.3-0.4-0.4c-0.2,0-0.4-0.1-0.7-0.1
		c0-0.3,0-0.6,0-0.9c0.2,0.1,0.4,0.1,0.7,0.2c0.1-0.2,0.3-0.3,0.4-0.5c-0.2-0.2-0.4-0.3-0.6-0.5c0.2-0.1,0.5-0.3,0.7-0.4
		c0.2,0.2,0.4,0.3,0.5,0.5c0.3,0,0.5,0,0.8-0.1C39,79.4,39.1,79.3,39.1,79.2z"/>
	<path fill="#DB1E37" d="M39,83.4c0-0.2,0-0.5-0.1-0.7c-0.2-0.1-0.5-0.2-0.7-0.3c-0.1,0.1-0.2,0.2-0.3,0.4c-0.3-0.1-0.5-0.3-0.8-0.4
		c0.1-0.2,0.2-0.4,0.3-0.6c-0.1-0.1-0.3-0.2-0.4-0.2c-0.2,0-0.4,0-0.6,0c-0.1-0.4-0.1-0.7-0.2-1.1c0.3,0,0.6,0.1,0.9,0.1
		c0.1-0.1,0.2-0.3,0.4-0.4c-0.2-0.1-0.4-0.2-0.5-0.4c0.2-0.2,0.4-0.4,0.7-0.6c0.2,0.2,0.4,0.3,0.7,0.5c0.2,0,0.3,0,0.5,0
		c-0.2,0.1-0.4,0.2-0.6,0.2c-0.2-0.2-0.4-0.3-0.6-0.5c-0.2,0.1-0.4,0.2-0.6,0.4c0.2,0.1,0.4,0.2,0.6,0.3c-0.1,0.2-0.3,0.5-0.4,0.7
		c-0.3,0-0.6-0.1-0.8-0.1c0.1,0.3,0.1,0.5,0.2,0.8c0.2,0,0.4,0,0.5,0c0.2,0.1,0.3,0.3,0.5,0.4c-0.1,0.2-0.2,0.4-0.3,0.6
		c0.2,0.1,0.4,0.2,0.6,0.3c0.1-0.1,0.2-0.2,0.4-0.3c0.3,0.1,0.6,0.3,0.9,0.4c0,0.2,0.1,0.4,0.1,0.6c0.3,0,0.6,0.1,0.9,0.1
		c0-0.2-0.1-0.4-0.1-0.6c0.3,0,0.6-0.1,0.9-0.1c0.2,0.2,0.4,0.4,0.7,0.5c0.2-0.1,0.3-0.2,0.5-0.3c-0.3-0.2-0.6-0.3-0.8-0.5
		c0.1-0.2,0.2-0.3,0.4-0.5c0.2,0,0.5,0.1,0.7,0.1c0-0.2-0.1-0.4-0.1-0.6c-0.3,0-0.5-0.1-0.8-0.1c-0.1-0.2-0.1-0.4-0.2-0.6
		c0.2-0.1,0.4-0.3,0.7-0.4c-0.2-0.1-0.4-0.2-0.7-0.3c-0.1,0.1-0.3,0.3-0.4,0.4c-0.5-0.3-1-0.6-1.6-0.9c0.2-0.1,0.5-0.1,0.7-0.2
		c0.3,0.3,0.5,0.6,0.8,0.9c0.1-0.1,0.3-0.3,0.4-0.4c0.3,0.2,0.5,0.3,0.8,0.5c-0.2,0.2-0.4,0.3-0.6,0.5c0.3,0.1,0.6,0.3,0.9,0.4
		c0,0.3,0.1,0.6,0.1,0.9c-0.2,0-0.5,0-0.7,0c0.2,0.3,0.3,0.5,0.5,0.8c-0.2,0.2-0.4,0.4-0.6,0.5c-0.2-0.2-0.5-0.4-0.7-0.6
		c-0.3,0-0.5,0-0.8,0c0,0.2,0.1,0.4,0.1,0.6C39.8,83.4,39.4,83.4,39,83.4L39,83.4z"/>
	<path fill="#FFFFFF" d="M39.4,80.4c0.6,0.1,1,0.5,1,0.9c0,0.5-0.4,0.8-1,0.7c-0.5-0.1-0.9-0.5-0.9-1C38.5,80.6,38.9,80.3,39.4,80.4
		L39.4,80.4z"/>
	<path fill="#DB1E37" d="M39.4,82.1c-0.6-0.1-1.1-0.6-1.1-1.1c0-1,2.1-0.6,2.1,0.3C40.5,81.8,40,82.2,39.4,82.1L39.4,82.1z
		 M39.4,80.5c-0.5-0.1-0.8,0.2-0.8,0.6c0,0.8,1.7,1.1,1.7,0.3C40.3,81,39.9,80.6,39.4,80.5C39.4,80.5,39.4,80.5,39.4,80.5z"/>
	<path fill="#FFFFFF" d="M33.5,76.2c-0.4,0.3-0.9,0.7-1.3,1.1C32.6,76.9,33,76.5,33.5,76.2z"/>
	<path fill="#FFFFFF" d="M34.4,76.3c-0.4,0.4-0.9,0.7-1.3,1.1C33.5,77.1,33.9,76.7,34.4,76.3z"/>
	<path fill="#FFFFFF" d="M35.3,76.5c-0.4,0.4-0.9,0.7-1.3,1.1C34.4,77.2,34.9,76.9,35.3,76.5z"/>
	<path fill="#FFFFFF" d="M36.3,76.7c-0.5,0.4-0.9,0.7-1.4,1.1C35.3,77.4,35.8,77,36.3,76.7z"/>
	<path fill="#FFFFFF" d="M37.2,76.8c-0.5,0.4-0.9,0.7-1.4,1.1C36.3,77.5,36.7,77.2,37.2,76.8z"/>
	<path fill="#FFFFFF" d="M38.1,77c-0.5,0.4-0.9,0.7-1.4,1.1C37.2,77.7,37.7,77.3,38.1,77z"/>
	<path fill="#FFFFFF" d="M39,77.1c-0.4,0.4-0.9,0.7-1.3,1.1C38.1,77.8,38.6,77.5,39,77.1z"/>
	<path fill="#FFFFFF" d="M40,77.2c-0.4,0.4-0.9,0.7-1.3,1.1C39.1,78,39.5,77.6,40,77.2z"/>
	<path fill="#FFFFFF" d="M40.9,77.4c-0.4,0.4-0.9,0.7-1.3,1.1C40,78.1,40.4,77.7,40.9,77.4z"/>
	<path fill="#FFFFFF" d="M41.8,77.5c-0.4,0.4-0.9,0.7-1.3,1.1C40.9,78.2,41.4,77.9,41.8,77.5z"/>
	<path fill="#FFFFFF" d="M42.7,77.7c-0.5,0.4-0.9,0.7-1.4,1.1C41.8,78.4,42.3,78,42.7,77.7z"/>
	<path fill="#FFFFFF" d="M43.6,77.8c-0.4,0.4-0.9,0.7-1.3,1.1C42.7,78.5,43.2,78.1,43.6,77.8z"/>
	<path fill="#FFFFFF" d="M40,77.2c-0.4,0.4-0.9,0.7-1.3,1.1C39.1,78,39.5,77.6,40,77.2z"/>
	<path fill="#FFFFFF" d="M44.6,77.9c-0.5,0.4-0.9,0.7-1.4,1.1C43.7,78.6,44.2,78.3,44.6,77.9z"/>
	<path fill="#FFFFFF" d="M45.5,78c-0.5,0.4-0.9,0.7-1.4,1.1C44.6,78.8,45.1,78.4,45.5,78z"/>
	<path fill="#FFFFFF" d="M46.5,78.2c-0.4,0.4-0.9,0.7-1.3,1.1C45.6,78.9,46,78.5,46.5,78.2z"/>
	<path fill="#FFFFFF" d="M47.4,78.3c-0.4,0.4-0.9,0.7-1.3,1.1C46.5,79,46.9,78.7,47.4,78.3z"/>
	<path fill="#FFFFFF" d="M46,78.1c0.4,0.5,0.9,1,1.3,1.5C46.9,79.1,46.5,78.6,46,78.1z"/>
	<path fill="#FFFFFF" d="M45.1,78c0.4,0.5,0.9,1,1.3,1.5C46,79,45.6,78.5,45.1,78z"/>
	<path fill="#FFFFFF" d="M44.2,77.9c0.5,0.5,0.9,1,1.4,1.5C45.1,78.8,44.6,78.3,44.2,77.9z"/>
	<path fill="#FFFFFF" d="M43.2,77.7c0.5,0.5,0.9,1,1.4,1.5C44.2,78.7,43.7,78.2,43.2,77.7z"/>
	<path fill="#FFFFFF" d="M42.3,77.6c0.4,0.5,0.9,1,1.3,1.5C43.2,78.6,42.7,78.1,42.3,77.6z"/>
	<path fill="#FFFFFF" d="M41.4,77.5c0.5,0.5,0.9,1,1.4,1.5C42.3,78.4,41.8,77.9,41.4,77.5z"/>
	<path fill="#FFFFFF" d="M40.5,77.3c0.4,0.5,0.9,1,1.3,1.5C41.4,78.3,40.9,77.8,40.5,77.3z"/>
	<path fill="#FFFFFF" d="M39.5,77.2c0.4,0.5,0.9,1,1.3,1.5C40.4,78.2,40,77.7,39.5,77.2z"/>
	<path fill="#FFFFFF" d="M38.6,77c0.4,0.5,0.9,1,1.3,1.5C39.5,78,39.1,77.5,38.6,77z"/>
	<path fill="#FFFFFF" d="M37.7,76.9c0.4,0.5,0.9,1,1.3,1.5C38.6,77.9,38.1,77.4,37.7,76.9z"/>
	<path fill="#FFFFFF" d="M36.8,76.7c0.5,0.5,0.9,1,1.4,1.5C37.7,77.7,37.2,77.2,36.8,76.7z"/>
	<path fill="#FFFFFF" d="M35.8,76.6c0.5,0.5,0.9,1,1.4,1.5C36.7,77.6,36.3,77.1,35.8,76.6z"/>
	<path fill="#FFFFFF" d="M39.5,77.2c0.4,0.5,0.9,1,1.3,1.5C40.4,78.2,40,77.7,39.5,77.2z"/>
	<path fill="#FFFFFF" d="M34.9,76.4c0.5,0.5,0.9,1,1.4,1.5C35.8,77.4,35.3,76.9,34.9,76.4z"/>
	<path fill="#FFFFFF" d="M34,76.3c0.4,0.5,0.9,1,1.3,1.5C34.9,77.3,34.4,76.8,34,76.3z"/>
	<path fill="#FFFFFF" d="M33,76.1c0.4,0.5,0.9,1,1.3,1.5C33.9,77.1,33.5,76.6,33,76.1z"/>
	<path fill="#FFFFFF" d="M32.1,76c0.4,0.5,0.9,1,1.3,1.5C33,77,32.6,76.5,32.1,76z"/>
	<path fill="#FFFFFF" d="M33.5,83.2c-0.4,0.3-0.9,0.7-1.3,1C32.6,83.9,33,83.6,33.5,83.2z"/>
	<path fill="#FFFFFF" d="M34.4,83.4c-0.4,0.3-0.9,0.7-1.3,1C33.5,84.1,33.9,83.7,34.4,83.4z"/>
	<path fill="#FFFFFF" d="M35.3,83.5c-0.4,0.3-0.9,0.7-1.3,1C34.4,84.2,34.9,83.9,35.3,83.5z"/>
	<path fill="#FFFFFF" d="M36.3,83.7c-0.5,0.3-0.9,0.7-1.4,1C35.3,84.4,35.8,84,36.3,83.7z"/>
	<path fill="#FFFFFF" d="M37.2,83.8c-0.5,0.3-0.9,0.7-1.4,1C36.3,84.5,36.7,84.2,37.2,83.8z"/>
	<path fill="#FFFFFF" d="M38.1,84c-0.5,0.3-0.9,0.7-1.4,1C37.2,84.7,37.7,84.3,38.1,84z"/>
	<path fill="#FFFFFF" d="M39,84.1c-0.4,0.3-0.9,0.7-1.3,1C38.1,84.8,38.6,84.5,39,84.1z"/>
	<path fill="#FFFFFF" d="M40,84.3c-0.4,0.3-0.9,0.7-1.3,1C39.1,85,39.5,84.6,40,84.3z"/>
	<path fill="#FFFFFF" d="M40.9,84.4c-0.4,0.3-0.9,0.7-1.3,1C40,85.1,40.4,84.8,40.9,84.4z"/>
	<path fill="#FFFFFF" d="M41.8,84.5c-0.4,0.3-0.9,0.7-1.3,1C40.9,85.2,41.4,84.9,41.8,84.5z"/>
	<path fill="#FFFFFF" d="M42.7,84.7c-0.5,0.3-0.9,0.7-1.4,1C41.8,85.4,42.3,85,42.7,84.7z"/>
	<path fill="#FFFFFF" d="M43.6,84.8c-0.4,0.3-0.9,0.7-1.3,1C42.7,85.5,43.2,85.2,43.6,84.8z"/>
	<path fill="#FFFFFF" d="M40,84.3c-0.4,0.3-0.9,0.7-1.3,1C39.1,85,39.5,84.6,40,84.3z"/>
	<path fill="#FFFFFF" d="M44.6,84.9c-0.5,0.3-0.9,0.7-1.4,1C43.7,85.6,44.2,85.3,44.6,84.9z"/>
	<path fill="#FFFFFF" d="M45.5,85.1c-0.5,0.4-0.9,0.7-1.4,1C44.6,85.8,45.1,85.4,45.5,85.1z"/>
	<path fill="#FFFFFF" d="M46.5,85.2c-0.4,0.4-0.9,0.7-1.3,1.1C45.6,85.9,46,85.5,46.5,85.2z"/>
	<path fill="#FFFFFF" d="M47.4,85.3c-0.4,0.4-0.9,0.7-1.3,1.1C46.5,86,46.9,85.7,47.4,85.3z"/>
	<path fill="#FFFFFF" d="M46,85.1c0.4,0.5,0.9,0.9,1.3,1.4C46.9,86.1,46.5,85.6,46,85.1z"/>
	<path fill="#FFFFFF" d="M45.1,85c0.4,0.5,0.9,0.9,1.3,1.4C46,86,45.6,85.5,45.1,85z"/>
	<path fill="#FFFFFF" d="M44.2,84.9c0.5,0.5,0.9,1,1.4,1.4C45.1,85.8,44.6,85.4,44.2,84.9z"/>
	<path fill="#FFFFFF" d="M43.2,84.8c0.5,0.5,0.9,1,1.4,1.4C44.2,85.7,43.7,85.2,43.2,84.8z"/>
	<path fill="#FFFFFF" d="M42.3,84.6c0.4,0.5,0.9,1,1.3,1.4C43.2,85.6,42.7,85.1,42.3,84.6z"/>
	<path fill="#FFFFFF" d="M41.4,84.5c0.5,0.5,0.9,1,1.4,1.4C42.3,85.4,41.8,85,41.4,84.5z"/>
	<path fill="#FFFFFF" d="M40.5,84.3c0.4,0.5,0.9,1,1.3,1.4C41.4,85.3,40.9,84.8,40.5,84.3z"/>
	<path fill="#FFFFFF" d="M39.5,84.2c0.4,0.5,0.9,1,1.3,1.4C40.4,85.2,40,84.7,39.5,84.2z"/>
	<path fill="#FFFFFF" d="M38.6,84.1c0.4,0.5,0.9,1,1.3,1.4C39.5,85,39.1,84.5,38.6,84.1z"/>
	<path fill="#FFFFFF" d="M37.7,83.9c0.4,0.5,0.9,1,1.3,1.4C38.6,84.9,38.1,84.4,37.7,83.9z"/>
	<path fill="#FFFFFF" d="M36.8,83.8c0.5,0.5,0.9,1,1.4,1.5C37.7,84.7,37.2,84.3,36.8,83.8z"/>
	<path fill="#FFFFFF" d="M35.8,83.6c0.5,0.5,0.9,1,1.4,1.5C36.7,84.6,36.3,84.1,35.8,83.6z"/>
	<path fill="#FFFFFF" d="M39.5,84.2c0.4,0.5,0.9,1,1.3,1.4C40.4,85.2,40,84.7,39.5,84.2z"/>
	<path fill="#FFFFFF" d="M34.9,83.5c0.5,0.5,0.9,1,1.4,1.5C35.8,84.4,35.3,84,34.9,83.5z"/>
	<path fill="#FFFFFF" d="M34,83.3c0.4,0.5,0.9,1,1.3,1.5C34.9,84.3,34.4,83.8,34,83.3z"/>
	<path fill="#FFFFFF" d="M33,83.2c0.4,0.5,0.9,1,1.3,1.5C33.9,84.1,33.5,83.6,33,83.2z"/>
	<path fill="#FFFFFF" d="M32.1,83c0.4,0.5,0.9,1,1.3,1.5C33,84,32.6,83.5,32.1,83z"/>
	<path fill="#FFFFFF" d="M59,99.6c-22.5,19.6-32.1,20-27.5,22.8c4.5,2.6,18.9-6.4,34-20.3c15-13.9,24.3-27.2,19.8-29.1
		C80.8,70.9,82.9,78.2,59,99.6L59,99.6z"/>
	<path fill="#DB1E37" d="M32.6,122.8L32.6,122.8c-0.5-0.1-0.8-0.2-1.1-0.4c-0.7-0.4-1.1-0.8-1.2-1.2c-0.1-1,1.6-2.1,5.6-4.6
		c4.7-2.9,12.5-7.8,23.1-17.1C71.8,88,77.2,80.4,80,76.4c2.4-3.5,3-4.4,5.3-3.5c0.6,0.3,1,0.8,1.2,1.4c0.8,4-7.6,15.6-20.9,27.9
		C50.3,116.2,37.6,123.7,32.6,122.8L32.6,122.8z M84.1,72.8c-1.2,0-1.9,1-3.9,3.8c-2.8,3.9-8.1,11.7-21.1,23.1
		C48.5,109,40.6,114,36,116.8c-3.6,2.3-5.6,3.5-5.5,4.4c0.1,0.3,0.4,0.6,1,1c0.3,0.2,0.7,0.3,1.1,0.4l0,0c5,0.9,17.5-6.6,32.8-20.6
		C78.7,89.8,87,78.3,86.2,74.3c-0.1-0.6-0.4-1-1-1.3C84.8,72.9,84.4,72.8,84.1,72.8L84.1,72.8z"/>
	<path fill="#FFFFFF" d="M40.2,113.2c2.6,1.1,5.2,2.1,7.8,3.2c-7.4,6.1-15.7,7.5-18.1,5.8C27.7,120.6,34.1,118.9,40.2,113.2
		L40.2,113.2z"/>
	<path fill="#DB1E37" d="M31.4,122.9c-0.6-0.1-1.1-0.3-1.5-0.5c-0.4-0.2-0.5-0.5-0.5-0.8c-0.1-0.8,1.3-1.7,3.4-3
		c2-1.2,4.7-3,7.3-5.4c2.7,1.1,5.3,2.1,8,3.1C41.9,121.5,34.9,123.5,31.4,122.9L31.4,122.9z M40.1,113.3c-2.5,2.4-5.2,4.2-7.2,5.4
		c-1.9,1.2-3.4,2.1-3.4,2.8c0,0.2,0.2,0.3,0.5,0.5c2.3,1.7,10.8,0.1,17.9-5.9C45.3,115.3,42.7,114.3,40.1,113.3L40.1,113.3z"/>
	<path fill="#FFFFFF" d="M40.2,114c2.2,0.9,4.3,1.7,6.5,2.5c-7.2,5.8-14.4,6.4-16.2,5.3C28.6,120.7,34.3,119.5,40.2,114L40.2,114z"
		/>
	<path fill="#DB1E37" d="M31.5,122.4c-0.5-0.1-0.8-0.2-1.1-0.4c-0.1-0.2-0.3-0.4-0.4-0.5c0-0.6,1-1.1,2.6-2.1c2-1.2,4.7-2.7,7.5-5.4
		c2.2,0.9,4.4,1.8,6.6,2.6C40.4,121.7,34.1,122.9,31.5,122.4L31.5,122.4z M40.1,114.1c-2.7,2.6-5.4,4.2-7.3,5.4
		c-1.6,0.9-2.6,1.5-2.6,1.9c0.6,0.5,0.9,0.6,1.3,0.7c2.6,0.5,8.8-0.7,15.1-5.6C44.4,115.8,42.3,115,40.1,114.1L40.1,114.1z"/>
	<path fill="#DB1E37" d="M61.3,101.6c0.2-0.7,0.1-0.9,0.1-1.1c0,0.1,0.1,0.2,0.1,0.2c0-0.1,0-0.2,0.1-0.3c0,0.2,0.1,0.3,0.1,0.5
		c0.7,0.5,0.8,0.4,1,0.4c0.2-0.1,0.4-0.2,0.5-0.2c0.2-0.1,0.4-0.2,0.5-0.3c0.2-0.5,0.3-0.7,0.2-0.9c0.1-0.1,0.1-0.7,0.1-0.7
		c0.1,0,0.2,0,0.3,0c-0.1,0.1-0.1,0.7-0.2,0.8c0,0.2,0,0.5-0.1,0.7c-0.1,0.2-0.2,0.3-0.3,0.5c-0.1,0.2-0.2,0.2-0.5,0.3
		c-0.1,0.1-0.4,0.2-0.6,0.3c-0.2,0.1-0.4,0.1-0.7,0c-0.1-0.1-0.3-0.2-0.4-0.4C61.6,101.4,61.4,101.5,61.3,101.6L61.3,101.6z"/>
	<path fill="#DB1E37" d="M58.7,103.5c-0.1,0-0.2-0.1-0.3-0.1c-0.1,0.1-0.2,0-0.4,0c0,0,0,0,0.1-0.1c-0.2,0-0.4-0.1-0.5-0.1
		c0.1-0.1,0.2-0.1,0.3-0.2c0.1,0,0.2,0.1,0.4,0.1c0.1-0.2,0.3-0.5,0.4-0.7c0.1-0.2,0.2-0.3,0.4-0.4c0.2-0.1,0.4-0.2,0.6-0.3
		c0.2,0,0.5-0.1,0.7,0c0.3,0,0.5,0,0.8,0.1c0.3,0.1,0.6,0.2,0.9,0.3c0.1,0.1,0.1,0.2,0.2,0.3c0,0-0.1,0-0.1-0.1
		c-0.5-0.2-0.7-0.3-1-0.4c-0.3,0-0.5,0-0.8-0.1c-0.3,0-0.5,0-0.7,0c-0.5,0.4-0.9,0.8-1.4,1.2c0.1,0,0.1,0.1,0.2,0.1l0,0
		C58.5,103.4,58.6,103.4,58.7,103.5L58.7,103.5z"/>
	<path fill="#DB1E37" d="M55.7,107.6c0.1-0.2,0.2-0.3,0.3-0.5c0,0-0.2-0.3-0.4-0.5c-0.1-0.2-0.1-0.4-0.2-0.6
		c0.1-0.2,0.2-0.4,0.3-0.5c0.5-0.2,0.9-0.4,1.4-0.6c0.2-0.1,0.3-0.3,0.5-0.4c0,0.1,0,0.2,0,0.3c-0.3,0.1-0.5,0.2-0.8,0.3
		c0,0,0,0.1,0.1,0.1c-0.4,0.2-0.8,0.4-1.2,0.7l0,0c0.2,0.4,0.3,0.8,0.5,1.2l0,0C56.1,107.3,55.9,107.5,55.7,107.6L55.7,107.6z"/>
	<path fill="#DB1E37" d="M52.6,110.1c-0.4,0-0.5-0.3-0.6-0.5c0-0.2-0.1-0.5-0.1-0.7c0-0.2,0-0.5,0.1-0.7c0.1-0.2,0.3-0.3,0.4-0.5
		c0.5-0.2,0.9-0.4,1.4-0.6c0.2,0,0.5,0.1,0.7,0.1c0.2,0.1,0.7,0.3,0.9,0.3c0,0.1,0,0.2,0,0.3c-0.2-0.1-0.7-0.3-0.9-0.4
		c-0.5,0-1-0.1-1.5-0.1c0,0,0.1,0.1,0.1,0.1c-0.2,0.2-0.2,0.3-0.5,0.4c-0.2,0.1-0.3,0.2-0.5,0.3c0,0,0.1,0,0.1,0
		c-0.1,0.2-0.1,0.4-0.1,0.6c0,0.2,0,0.4,0,0.6c0,0,0.1,0,0.1,0C52.4,109.7,52.4,110,52.6,110.1L52.6,110.1z"/>
	<path fill="#DB1E37" d="M49.9,112.6c-0.1-0.1-0.2-0.2-0.4-0.3c0.4-0.1,0.8-0.1,1.2-0.2c0.2-0.2,0.4-0.3,0.5-0.5c0-0.2,0-0.4,0-0.6
		c0-0.1,0-0.3,0-0.4c0,0,0,0,0-0.1l0,0c0,0,0,0,0,0c-0.1-0.1-0.2-0.3-0.3-0.4c0.1,0.1,0.2,0.3,0.3,0.4c-0.1-0.1-0.2-0.2-0.2-0.3
		c-0.1-0.2-0.2-0.4-0.3-0.6c0.3,0.4,0.6,0.9,0.9,1.3c0.1,0,0.1,0,0.2,0c0.1,0.1,0.1,0.1,0.2,0.2c0.3-0.1,0.5-0.2,0.8-0.3
		c-0.1,0.1-0.1,0.2-0.2,0.3c-0.2,0.1-0.4,0.1-0.6,0.2c-0.2-0.1-0.3-0.3-0.5-0.4c0,0.2-0.1,0.4-0.1,0.6
		C50.9,112,50.4,112.3,49.9,112.6L49.9,112.6z"/>
	<path fill="#DB1E37" d="M45.6,115c0-0.1-0.1-0.2-0.1-0.3c0-0.3,0-0.5-0.1-0.7c-0.1-0.4-0.2-0.8-0.2-1.2c0.3,0.4,0.7,0.8,1,1.2
		c0.2,0.1,0.4,0.3,0.7,0.4c0.9,0.1,1.1,0.1,1.3,0c0.1-0.1,0.3-0.2,0.4-0.3c0.2-0.7,0.2-0.9,0.1-1.2c-0.1-0.3-0.3-0.7-0.4-1
		c0.1,0.1,0.2,0.1,0.2,0.2c0.1,0.3,0.3,0.5,0.4,0.8c0.1,0.3,0.1,0.4,0.1,0.8c-0.1,0.2-0.2,0.3-0.2,0.5c-0.2,0.2-0.3,0.3-0.5,0.5
		c-0.2,0-0.5,0-0.8-0.1c-0.1,0.1-0.4,0-0.7-0.1c-0.2-0.1-0.4-0.2-0.5-0.2c-0.3-0.3-0.7-0.6-1-0.9c0.1,0.2,0.2,0.4,0.2,0.7
		c0,0,0.1,0,0.1,0c0.1,0.2,0.1,0.4,0.1,0.7C45.7,114.8,45.7,114.9,45.6,115L45.6,115z"/>
	<path fill="#DB1E37" d="M33.7,120.9c-0.5-0.1-0.7-0.2-0.9-0.3c0.2-0.1,0.5,0,0.9,0.1c0.5,0,0.7-0.1,0.8-0.2c0.1-0.2,0-0.3-0.1-0.6
		c-0.2-0.3-0.1-0.6-0.1-1c0.2-0.4,0.3-0.6,0.6-0.8c0.1-0.1,0.4,0,0.7,0c0.5,0.1,0.9,0.4,1.2,0.7c0.2,0.2,0.4,0.4,0.6,0.7
		c0,0,0-0.1,0.1-0.1c0.2,0.1,0.4,0.2,0.6,0.2c-0.1,0.2-0.4,0.1-0.8-0.1c-0.2-0.2-0.4-0.3-0.6-0.5c-0.4-0.3-0.7-0.5-1-0.6l0,0
		c-0.2,0-0.5,0-0.7,0c-0.2,0.1-0.4,0.3-0.5,0.6c-0.1,0.3-0.1,0.5,0,0.7c0.2,0.4,0.2,0.5,0,0.8c-0.2,0.2-0.4,0.2-0.7,0.3
		C33.9,121,33.7,120.9,33.7,120.9C33.7,120.9,33.7,120.9,33.7,120.9z M40.9,119.1c-0.2-0.3-0.3-0.7-0.4-1c0-0.4,0-0.6-0.1-0.8
		c-0.1-0.2-0.4-0.4-0.6-0.5c0,0-0.1-0.1-0.1-0.1c0.1,0.1,0.1,0.3,0.2,0.4c-0.4,0.2-0.6,0.3-0.9,0.2c-0.5-0.1-0.7-0.3-0.8-0.5
		c-0.2,0.4-0.4,0.9-0.5,1.3c0.1-0.4,0.3-0.9,0.4-1.3c0.1-0.1,0.2-0.1,0.3-0.2c0.2,0.2,0.3,0.3,0.7,0.4c0.4,0,0.5,0,0.6-0.1
		c0-0.3,0-0.4-0.2-0.5c0-0.1,0.1-0.1,0.1-0.2c0.2,0.1,0.3,0.3,0.5,0.4c0.2,0.2,0.4,0.3,0.6,0.5c0.2,0.2,0.2,0.5,0.2,0.8
		c0.1,0.4,0.2,0.8,0.3,1.1c0.2-0.1,0.3-0.1,0.6-0.1c0.1-0.2,0.1-0.3,0.2-0.5c0,0-0.1-0.1-0.1-0.1c0-0.3,0-0.5,0.2-0.7
		c0.2-0.2,0.4-0.1,0.7-0.1c0.5,0.1,0.8,0,1-0.1c0-0.6-0.1-0.7-0.4-0.8c-0.3-0.3-0.5-0.4-0.9-0.4c-0.2,0.1-0.4,0.2-0.7,0.3
		c-0.4,0-0.8-0.1-1-0.3c0-0.1,0.1-0.3,0.1-0.4c0,0,0,0.1,0,0.1c0.1,0.3,0.5,0.5,0.7,0.4c0.2-0.2,0.4-0.3,0.7-0.3
		c0.5,0.1,0.7,0.3,1,0.4c0.4,0.2,0.5,0.4,0.7,0.7c-0.1,0.2-0.2,0.4-0.2,0.6c-0.2,0.1-0.5,0.1-0.9,0.2l0,0c-0.3,0-0.5,0-0.8,0
		c-0.2,0.1-0.2,0.3-0.2,0.6c-0.1,0.3-0.2,0.6-0.2,0.9C41.4,119.1,41.2,119.2,40.9,119.1L40.9,119.1z"/>
	<path fill="#FFFFFF" d="M84.7,81.5c9.9-16.8,16.6-31.6,14.8-32.4C97.6,48.3,88,61.5,78.1,78.2C80.3,79.3,82.5,80.4,84.7,81.5z"/>
	<path fill="#DB1E37" d="M84.7,81.6c-2.2-1.1-4.4-2.2-6.7-3.3C87.6,61.9,97,48.9,99.2,48.9c0.2,0.2,0.3,0.3,0.5,0.5
		C100.5,51.8,94.1,65.8,84.7,81.6C84.7,81.6,84.7,81.6,84.7,81.6L84.7,81.6z M99.5,49.4c-2.6,0-11.9,13.1-21.3,28.8
		c2.1,1,4.3,2.1,6.4,3.1C93.7,65.9,100.2,51.8,99.5,49.4C99.5,49.4,99.5,49.4,99.5,49.4L99.5,49.4z"/>
	<path fill="#FFFFFF" d="M84,81.1c9.6-16.2,16.2-30.3,14.8-31c-1.5-0.7-10.4,12.2-20,28.3C80.5,79.4,82.2,80.3,84,81.1z"/>
	<path fill="#DB1E37" d="M84.1,81.2c-0.1,0-0.1-0.1-0.2-0.1c8.9-15.1,15.5-28.8,14.9-30.6c-1.4-0.7-9.6,10.8-20,28.1
		c8.4-14.5,18.2-29.3,20-28.5C99.7,52.3,93.3,65.8,84.1,81.2C84.1,81.2,84.1,81.2,84.1,81.2z"/>
	<path fill="#FFFFFF" d="M82.4,72.5c-1.2,1.9-2.4,4-3.6,6c1.8,0.9,3.5,1.8,5.3,2.6c1.2-2,2.5-4.2,3.6-6.1
		C85.9,74.2,84.1,73.3,82.4,72.5z"/>
	<path fill="#DB1E37" d="M84.1,81.3c-1.8-0.9-3.6-1.8-5.4-2.8c0.4-0.7,0.8-1.5,1.2-2.2c0.8-1.4,1.6-2.8,2.3-4
		c1.8,0.9,3.6,1.7,5.4,2.6c-0.7,1.5-1.6,3-2.5,4.5C84.8,80.1,84.4,80.7,84.1,81.3L84.1,81.3z M82.3,72.6c-0.7,1.1-1.5,2.6-2.3,3.9
		c-0.4,0.7-0.8,1.4-1.2,2.1c1.7,0.8,3.4,1.7,5.1,2.5c0.3-0.6,0.6-1.1,0.9-1.7c0.9-1.5,1.8-2.9,2.6-4.3
		C85.8,74.2,84.1,73.4,82.3,72.6L82.3,72.6z"/>
	<path fill="#FFFFFF" d="M82.8,73.2c-1.2,1.9-2,3.3-3.1,5.3c1.3,0.7,2.6,1.4,3.9,2c1.2-2,2.1-3.4,3.2-5.4
		C85.4,74.4,84.1,73.8,82.8,73.2z"/>
	<path fill="#DB1E37" d="M83.6,80.6c-1.4-0.7-2.7-1.4-4.1-2.1c0.4-0.7,0.8-1.5,1.1-2.2c0.6-1.1,1.2-2.1,2-3.3
		c1.4,0.6,2.7,1.3,4.1,1.9c-0.6,1.4-1.2,2.4-1.9,3.5C84.5,79.2,84.1,79.9,83.6,80.6L83.6,80.6z M82.7,73.2c-0.5,1.2-1.2,2.2-1.8,3.3
		c-0.4,0.7-0.8,1.3-1.2,2c1.3,0.6,2.6,1.1,3.8,1.7c0.4-0.7,0.8-1.3,1.2-2c0.6-1.1,1.2-2.1,1.9-3.3C85.3,74.4,84,73.8,82.7,73.2
		L82.7,73.2z"/>
	<path fill="#FFFFFF" d="M85.6,75.5c-0.9-0.4-1.7-0.9-2.6-1.3c-0.8,1.3-1.5,2.6-2.3,3.9c0.9,0.4,1.7,0.9,2.6,1.3
		C84.1,78.1,84.9,76.8,85.6,75.5z"/>
	<path fill="#DB1E37" d="M83.3,79.6c-0.9-0.5-1.8-0.9-2.7-1.4c0.8-1.4,1.5-2.7,2.3-4.1c0.9,0.4,1.8,0.8,2.8,1.2
		C84.9,76.8,84.1,78.2,83.3,79.6L83.3,79.6z M82.9,74.3c-0.7,1.3-1.4,2.6-2.1,3.9c0.8,0.4,1.6,0.7,2.4,1.1c0.8-1.3,1.6-2.5,2.3-3.8
		C84.7,75.1,83.8,74.7,82.9,74.3C82.9,74.3,82.9,74.3,82.9,74.3z"/>
	<path fill="#FFFFFF" d="M85.6,75.5c-1.6,0.9-3.3,1.7-4.9,2.6C82.3,77.2,84,76.4,85.6,75.5z"/>
	<path fill="#DB1E37" d="M80.7,78.2c1.6-0.9,3.2-1.9,4.8-2.8c0.1,0.1,0.1,0.1,0.2,0.2C84.1,76.5,82.4,77.3,80.7,78.2L80.7,78.2z"/>
	<path fill="#FFFFFF" d="M83.3,79.4c-0.1-1.7-0.2-3.5-0.3-5.2C83.1,75.9,83.2,77.7,83.3,79.4z"/>
	<path fill="#DB1E37" d="M83.2,79.4c-0.1-1.7-0.2-3.5-0.3-5.2c0.2,1.8,0.4,3.5,0.6,5.2C83.4,79.4,83.3,79.4,83.2,79.4L83.2,79.4z"/>
	<path fill="#FFFFFF" d="M97.5,55.2c-0.9-0.4-1.7-0.8-2.6-1.3C95.8,54.3,96.6,54.8,97.5,55.2z"/>
	<path fill="#DB1E37" d="M97.5,55.3c-0.9-0.4-1.7-0.8-2.6-1.2c0.9,0.3,1.8,0.7,2.7,1C97.6,55.1,97.5,55.2,97.5,55.3L97.5,55.3z"/>
	<path fill="#DA2228" d="M97.2,52c-0.4,0.1-0.6,0.5-0.5,0.8c0,0.3,0.4,0.6,0.9,0.5c0.4-0.2,0.7-0.6,0.6-0.9
		C98,52.1,97.6,51.9,97.2,52L97.2,52z"/>
	<path fill="#FFFFFF" d="M80.8,100.7c22.4,22.8,32,24.9,27.5,26.9c-4.5,1.8-19-9.4-34-25.4c-15-16-24.2-30.7-19.7-31.9
		C59,68.9,56.8,76,80.8,100.7C80.8,100.7,80.8,100.7,80.8,100.7z"/>
	<path fill="#DB1E37" d="M107.3,127.9c-5.1,0.1-17.7-9.3-33-25.6C60.9,88.2,52.5,75.4,53.3,71.5c0.1-0.7,0.6-1,1.2-1.2
		c2.2-0.7,2.8,0.5,5.2,4.3c2.9,4.4,8.2,12.8,21.1,26.1c10.6,10.8,18.4,16.9,23.1,20.6c3.9,3,5.7,4.4,5.5,5.4c0,0.4-0.4,0.7-1.1,1.1
		C108,127.9,107.7,127.9,107.3,127.9L107.3,127.9z M55.7,70.3c-0.3,0-0.7,0-1.2,0.2c-0.5,0.2-0.8,0.5-1,1
		c-0.8,3.9,7.5,16.6,20.8,30.7c16.4,17.5,29.8,27,33.8,25.4c0.6-0.3,1-0.6,1.1-0.9c0.1-0.9-1.9-2.4-5.5-5.3
		c-4.7-3.6-12.5-9.8-23.1-20.6C67.8,87.5,62.4,79.1,59.6,74.6C57.7,71.7,56.9,70.5,55.7,70.3L55.7,70.3z"/>
	<path fill="#FFFFFF" d="M99.7,117.2c-2.6,0.7-5.2,1.3-7.9,2c7.4,7.1,15.7,10,18,8.7C112.2,126.5,105.7,123.8,99.7,117.2L99.7,117.2
		z"/>
	<path fill="#DB1E37" d="M108.5,128.2c-3.5,0.1-10.6-3.1-16.8-9c2.7-0.7,5.3-1.4,8-2.1c2.7,2.8,5.3,5,7.3,6.6
		c2.1,1.7,3.5,2.8,3.4,3.6c0,0.3-0.1,0.6-0.5,0.7C109.6,128.1,109.1,128.2,108.5,128.2L108.5,128.2z M99.6,117.2
		c-2.6,0.7-5.1,1.3-7.7,2c6.1,5.8,13.1,8.8,16.6,8.8l0,0c0.6,0,1,0,1.3-0.2c0.2-0.2,0.4-0.3,0.4-0.5c0-0.7-1.4-1.8-3.4-3.4
		C104.9,122.2,102.2,120.1,99.6,117.2L99.6,117.2z"/>
	<path fill="#FFFFFF" d="M99.7,117.9c-2.2,0.6-4.3,1.1-6.5,1.6c7.2,6.9,14.4,8.7,16.2,7.8C111.2,126.5,105.5,124.3,99.7,117.9
		L99.7,117.9z"/>
	<path fill="#DB1E37" d="M108.3,127.7c-2.6,0-8.9-2-15.2-8.1c2.2-0.6,4.4-1.2,6.6-1.8c2.9,3.1,5.6,5.1,7.5,6.6
		c1.8,1.3,2.7,2,2.6,2.6c0,0,0,0,0,0c-0.1,0.1-0.3,0.3-0.4,0.4C109.1,127.6,108.8,127.7,108.3,127.7L108.3,127.7z M99.6,118
		c-2.1,0.6-4.3,1.1-6.4,1.7c7.4,6.8,14.4,8.4,16.1,7.6c0.3-0.7-0.7-1.5-2.2-2.7C105.3,123.2,102.4,121.1,99.6,118L99.6,118z"/>
	<path fill="#DB1E37" d="M78.5,102.3c-0.1-0.1-0.2-0.2-0.3-0.4c-0.1,0.1-0.3,0.2-0.4,0.3c-0.3,0-0.5,0-0.8-0.1
		c-0.2-0.1-0.5-0.2-0.6-0.3c-0.2-0.1-0.3-0.2-0.5-0.4c-0.1-0.2-0.2-0.4-0.3-0.6c0-0.3,0-0.7-0.1-1c0.1-0.1,0.1-0.2,0.2-0.3
		c0,0.5,0.1,0.9,0.1,1.4c0.2,0.3,0.5,0.6,0.7,0.8c0.1,0.1,0.3,0.2,0.5,0.3c0.2,0.1,0.4,0.1,0.7,0.1c0.1-0.1,0.2-0.1,0.4-0.2
		c0.1-0.2,0.1-0.4,0.2-0.7c0,0.2,0,0.4,0.1,0.6c0,0,0,0,0,0C78.4,102,78.4,102.2,78.5,102.3L78.5,102.3z"/>
	<path fill="#DB1E37" d="M81.8,104.5c-0.5-0.5-1.1-1-1.6-1.6c0,0,0,0.1,0,0.1c-0.2-0.1-0.4-0.1-0.7-0.1c-0.3,0-0.5,0-0.8,0
		c-0.3,0.1-0.5,0-0.7,0.1c-0.1,0-0.3-0.1-0.4-0.1c0,0,0,0,0.1,0c0.4-0.2,0.7-0.2,1-0.3c0.3,0,0.6,0,0.9,0c0.2,0,0.5,0.1,0.7,0.1
		c0.2,0.2,0.4,0.4,0.6,0.5c0,0,0-0.1,0-0.1C81.1,103.6,81.5,104,81.8,104.5L81.8,104.5z"/>
	<path fill="#DB1E37" d="M84.3,109.2c-0.3-0.1-0.6-0.1-0.9-0.2c0.3-0.5,0.5-1,0.8-1.5c-0.1-0.1-0.2-0.1-0.3-0.2
		c-0.7-0.4-0.9-0.5-1.1-0.6c-0.2-0.1-0.3-0.2-0.5-0.3c-0.1-0.2-0.2-0.4-0.3-0.6c-0.5,0-0.8,0-1.2,0c0-0.1-0.1-0.2-0.1-0.3
		c0,0,0.1,0,0.1,0c0.2,0,0.5,0,0.7,0c0.2-0.1,0.4-0.3,0.7-0.4c0.1,0.3,0.2,0.6,0.2,0.9c0.6,0.4,1.2,0.9,1.9,1.3c0,0.5,0,0.7-0.2,0.8
		c-0.1,0.2-0.2,0.4-0.4,0.6C83.9,108.9,84.1,109.1,84.3,109.2L84.3,109.2z"/>
	<path fill="#DB1E37" d="M87.4,112.4c-0.1-0.3,0-0.5,0.1-0.7c0-0.2,0.1-0.4,0.1-0.5c0-0.3-0.1-0.5-0.1-0.6c-0.1-0.2-0.2-0.4-0.3-0.6
		c0,0,0,0,0,0c-0.3-0.1-0.4-0.2-0.5-0.3c-0.2-0.1-0.4-0.2-0.6-0.3c0,0,0,0.1,0,0.1c-0.3,0-0.5,0-0.8,0c-0.2,0.1-0.7,0.2-0.9,0.3
		c0-0.1,0-0.2,0-0.3c0.1-0.1,0.6-0.1,0.8-0.2c0.3,0,0.6,0,0.8,0c0.3,0.1,0.5,0.2,0.8,0.3c0.2,0.2,0.2,0.2,0.5,0.4
		c0.3,0.3,0.5,0.4,0.5,0.6c0.1,0.2,0.2,0.4,0.2,0.7c0,0.2-0.1,0.4-0.1,0.6C87.7,111.9,87.5,112.2,87.4,112.4
		C87.4,112.4,87.4,112.4,87.4,112.4z"/>
	<path fill="#DB1E37" d="M90.2,114.9c-0.3,0-0.6-0.1-0.9-0.1c-0.2-0.2-0.4-0.4-0.7-0.6c-0.1-0.3-0.2-0.6-0.4-0.8
		c-0.1,0.1-0.2,0.1-0.3,0.2c-0.1,0-0.2-0.1-0.2-0.1c0.3-0.3,0.6-0.7,0.8-1c0,0.1,0,0.2-0.1,0.4c0,0,0,0,0.1-0.1c0,0.1,0,0.1-0.1,0.2
		c0,0,0,0,0.1,0.1c-0.1,0.1-0.1,0.3-0.2,0.4c0.1,0.2,0.2,0.3,0.2,0.5c0.3,0.3,0.5,0.6,0.8,1c0.2,0,0.3,0,0.5,0.1
		c0.6-0.2,1.2-0.4,1.8-0.6c0.1,0.1,0.1,0.2,0.2,0.4c-0.1-0.1-0.3-0.1-0.4-0.2c0,0,0,0,0,0.1C91,114.6,90.6,114.7,90.2,114.9
		L90.2,114.9z"/>
	<path fill="#DB1E37" d="M94.4,118.4c-0.1-0.2-0.2-0.4-0.4-0.6c0-0.4,0-0.5,0.1-0.7c0.1-0.2,0.2-0.4,0.3-0.6c0,0,0,0-0.1,0
		c-0.5,0.3-1,0.5-1.4,0.8c0,0,0,0,0,0.1c-0.2,0.1-0.5,0.1-0.7,0c-0.2-0.1-0.4-0.1-0.6-0.1c-0.3-0.4-0.5-0.7-0.8-1.1
		c0-0.3,0-0.5,0-0.7c0.1-0.2,0.2-0.4,0.3-0.7c0.1,0,0.3-0.1,0.4-0.1c-0.2,0.2-0.3,0.3-0.5,0.5c0,0.1,0,0.2,0,0.3c0,0.2,0,0.4,0,0.6
		c0.1,0.2,0.1,0.4,0.2,0.6c0.6,0.4,0.8,0.4,1,0.4c0,0,0,0,0.1,0c0.2,0,0.4,0,0.6,0c0.4-0.1,0.7-0.3,1.1-0.4c0.2-0.3,0.4-0.6,0.5-0.9
		c0,0.1,0,0.1,0,0.2c0.1-0.1,0.1-0.1,0.2-0.2c0,0,0,0,0.1,0.1c-0.1,0.4-0.3,0.7-0.4,1.1c-0.1,0.2-0.1,0.4-0.2,0.7c0,0,0.1,0,0.1,0
		C94.3,118,94.4,118.2,94.4,118.4L94.4,118.4z"/>
	<path fill="#DB1E37" d="M106.2,125.9c-0.6-0.1-0.9-0.2-1-0.4c-0.2-0.4-0.2-0.5-0.1-0.8c0.2-0.2,0.2-0.4,0.1-0.8
		c-0.1-0.3-0.3-0.5-0.5-0.7c-0.2,0-0.4-0.1-0.5-0.1c-0.5,0.1-0.8,0.2-1.1,0.4c-0.2,0.1-0.5,0.3-0.7,0.4c-0.3,0.2-0.7,0.2-1.1,0.2
		c0.3-0.5,0.5-1,0.8-1.5c0-0.2,0-0.4,0-0.6c-0.1-0.1-0.2-0.3-0.4-0.4c-0.1-0.3-0.2-0.6-0.2-0.8c0,0.3-0.1,0.4-0.6,0.5l0,0
		c-0.4,0-0.5-0.1-0.7-0.2c-0.1-0.2-0.1-0.3-0.1-0.5c-0.3,0.2-0.4,0.4-0.6,0.5c-0.1,0.3-0.2,0.5-0.2,0.8c0,0.2-0.1,0.7-0.2,0.9
		c-0.5,0-0.7,0-1-0.1c-0.1-0.3-0.1-0.6-0.2-0.8c0-0.4,0-0.5-0.2-0.7c-0.1-0.1-0.3-0.2-0.7-0.1c-0.5-0.1-0.8-0.2-1.1-0.3
		c-0.1-0.2-0.1-0.4-0.2-0.6c0.2-0.4,0.4-0.5,0.7-0.6c0.2-0.2,0.5-0.3,0.9-0.3c0.4,0.1,0.5,0.2,0.7,0.4c0.4,0.2,0.7,0.2,0.8,0
		c0.1-0.1,0.2-0.2,0.3-0.3c0,0,0,0,0,0c-0.3,0.6-0.7,0.6-1.1,0.6c-0.2-0.2-0.5-0.4-0.7-0.6c0,0,0,0.1,0,0.1c-0.4,0-0.6,0.2-0.8,0.3
		c-0.4,0.1-0.5,0.2-0.7,0.5c0.4,0.4,0.7,0.6,1,0.6c0.5,0,0.7,0,0.9,0.2c0.2,0.3,0.3,0.5,0.2,0.9c0,0.2,0,0.5,0,0.7
		c0-0.1,0-0.1,0.1-0.2c0.2,0.1,0.3,0.2,0.7,0.2c0-0.2,0.1-0.5,0.2-0.8c0.1-0.5,0.1-0.7,0.2-0.8c0.1-0.2,0.4-0.4,0.6-0.6
		c0.1-0.1,0.2-0.1,0.2-0.2c0.1-0.1,0.2-0.1,0.3-0.1c0,0,0,0,0,0c0.1,0,0.1,0,0.2-0.1c-0.2,0.3-0.3,0.5-0.5,0.8
		c0.3,0.1,0.4,0.1,0.7,0.1c0.4-0.1,0.5-0.1,0.6-0.3c0-0.1,0.1-0.1,0.1-0.2c0.2,0.7,0.4,1.4,0.6,2.1c0,0.2-0.1,0.5-0.1,0.7
		c0,0.1-0.1,0.3-0.2,0.4c0.1,0,0.2-0.1,0.5-0.2c0.2-0.1,0.5-0.2,0.7-0.4c0,0-0.1-0.1-0.1-0.1c0.3-0.2,0.7-0.4,1-0.4
		c0.5,0,0.7,0,0.9,0.2c0.3,0.1,0.4,0.4,0.5,0.8c0.1,0.4,0.1,0.7-0.1,0.9c-0.1,0.2-0.1,0.3,0,0.6c0.1,0.2,0.4,0.2,0.7,0.3
		c0.4,0,0.7,0,0.9-0.1C106.7,125.8,106.4,125.9,106.2,125.9L106.2,125.9z"/>
	<path fill="#FFFFFF" d="M55.2,78.9c-10-18.3-16.6-34.1-14.7-34.6c1.8-0.5,11.4,14.1,21.3,32.2C59.5,77.4,57.4,78.2,55.2,78.9z"/>
	<path fill="#DB1E37" d="M55.1,79.1C55.1,79.1,55.1,79.1,55.1,79.1c-9.4-17.2-15.8-32.3-15-34.5c0.2-0.1,0.3-0.2,0.5-0.3
		c2.3,0.4,11.6,14.8,21.3,32.3C59.6,77.4,57.3,78.3,55.1,79.1L55.1,79.1z M40.6,44.5c-1,2.4,5.5,17.6,14.6,34.3
		c2.2-0.8,4.3-1.5,6.5-2.3C52.2,59.5,42.7,44.8,40.6,44.5L40.6,44.5z"/>
	<path fill="#FFFFFF" d="M55.8,78.7C46.2,61.1,39.5,46,41.1,45.6c1.4-0.5,10.4,13.8,20,31.3C59.3,77.5,57.6,78.1,55.8,78.7z"/>
	<path fill="#DB1E37" d="M55.7,78.8c-9.2-16.8-15.5-31.1-15-33.1c0.1,0,0.2,0,0.4,0c-0.7,2,5.9,16.6,14.8,33
		C55.9,78.7,55.8,78.7,55.7,78.8L55.7,78.8z M61.2,76.7c-8.6-15.3-15.7-26.6-18.7-30C46.1,50.6,54.1,63.9,61.2,76.7
		C61.2,76.7,61.2,76.7,61.2,76.7z"/>
	<path fill="#FFFFFF" d="M57.5,70.2c1.1,2.1,2.4,4.4,3.6,6.6c-1.7,0.6-3.5,1.3-5.2,1.9c-1.3-2.3-2.5-4.5-3.6-6.7
		C54,71.5,55.7,70.9,57.5,70.2z"/>
	<path fill="#DB1E37" d="M55.8,78.8c-0.5-0.8-0.9-1.7-1.4-2.5c-0.9-1.4-1.6-2.9-2.3-4.2c1.8-0.6,3.6-1.3,5.3-2
		c1,1.5,1.8,3.1,2.7,4.7c0.3,0.6,0.7,1.3,1,1.9C59.4,77.5,57.6,78.2,55.8,78.8L55.8,78.8z M57.4,70.3c-1.7,0.6-3.4,1.3-5.2,1.9
		c0.8,1.2,1.6,2.6,2.3,4c0.4,0.8,0.9,1.6,1.3,2.4c1.7-0.6,3.4-1.2,5.2-1.8c-0.4-0.6-0.8-1.2-1.1-1.8C59,73.4,58.2,71.8,57.4,70.3
		L57.4,70.3z"/>
	<path fill="#FFFFFF" d="M57,70.9c1.2,2.1,2,3.6,3.2,5.8c-1.3,0.5-2.6,1-4,1.5c-1.2-2.2-2.1-3.8-3.2-5.9
		C54.4,71.8,55.7,71.3,57,70.9z"/>
	<path fill="#DB1E37" d="M56.2,78.2c-0.4-0.7-0.7-1.4-1.1-2.1c-0.7-1.3-1.3-2.4-2.1-3.8c1.3-0.5,2.6-1,4-1.6
		c0.9,1.4,1.5,2.5,2.1,3.7c0.4,0.7,0.8,1.5,1.2,2.2C58.9,77.2,57.5,77.7,56.2,78.2L56.2,78.2z M56.9,70.9c-1.3,0.5-2.6,0.9-3.8,1.4
		c0.8,1.3,1.5,2.5,2.2,3.7c0.3,0.6,0.7,1.3,1,1.9c1.3-0.4,2.6-0.9,3.9-1.3c-0.4-0.7-0.9-1.4-1.3-2.1C58.3,73.4,57.6,72.2,56.9,70.9
		L56.9,70.9z"/>
	<path fill="#FFFFFF" d="M54.1,72.8c0.9-0.3,1.8-0.6,2.7-0.9c0.8,1.4,1.5,2.9,2.3,4.3c-0.9,0.3-1.8,0.6-2.7,0.9
		C55.7,75.7,54.9,74.2,54.1,72.8z"/>
	<path fill="#DB1E37" d="M56.4,77.2c-0.8-1.5-1.6-2.9-2.4-4.4c0.9-0.4,1.7-0.7,2.6-1.1c0.8,1.4,1.7,2.9,2.5,4.3
		C58.3,76.4,57.4,76.8,56.4,77.2L56.4,77.2z M56.7,71.9c-0.8,0.4-1.6,0.7-2.5,1c0.8,1.3,1.5,2.7,2.3,4c0.8-0.3,1.7-0.6,2.5-0.9
		C58.3,74.7,57.5,73.3,56.7,71.9L56.7,71.9z"/>
	<path fill="#FFFFFF" d="M54.1,72.8c1.7,1.1,3.3,2.3,5,3.4C57.4,75.1,55.8,73.9,54.1,72.8z"/>
	<path fill="#DB1E37" d="M59.2,76c-1.7-1-3.4-2.1-5.1-3.1c0-0.1,0.1-0.1,0.1-0.2C55.9,73.9,57.5,75,59.2,76L59.2,76z"/>
	<path fill="#FFFFFF" d="M56.4,77.1c0.1-1.8,0.3-3.5,0.4-5.3C56.7,73.6,56.6,75.4,56.4,77.1z"/>
	<path fill="#FFFFFF" d="M42.2,50.7c0.9-0.3,1.8-0.6,2.7-0.8C44,50.2,43.1,50.5,42.2,50.7z"/>
	<path fill="#DA2228" d="M42.6,47.6c0.4,0.2,0.7,0.6,0.6,0.9c-0.1,0.4-0.5,0.5-0.9,0.4c-0.4-0.2-0.7-0.6-0.6-0.9
		C41.8,47.6,42.2,47.5,42.6,47.6L42.6,47.6z"/>
	<path fill="#DB1E37" d="M42.4,49c-0.1,0-0.2,0-0.3,0c-0.4-0.2-0.7-0.7-0.6-1.1c0.1-0.3,0.5-0.5,0.8-0.4c0.7,0.2,1,0.7,0.9,1.2
		C43.2,48.9,42.9,49.1,42.4,49L42.4,49z"/>
	<path fill="#FFFFFF" d="M63.1,71c0,14.5,0,19.9-1,20.5C61.1,92.5,33,88,33,91.8c0,4.3,23.1,11.8,30.1,12.1
		c9.2,0.8,13.8-3.2,13.8-11.4c0-6.9,0-13.7,0-20.6C72.4,71.7,67.7,71.4,63.1,71z"/>
	<path fill="#DB1E37" d="M63.1,104c-6.8-0.3-30.2-7.7-30.2-12.2c0-2.9,13.5-1.2,22.4-0.7c3.5,0.3,6.4,0.5,6.7,0.3
		C63,90.8,63,85.8,63,73.7c0-0.9,0-1.9,0-2.8c4.6,0.4,9.3,0.7,13.9,0.9c0.1,6.9,0.1,13.8,0.2,20.7C77.1,100.9,72.4,104.8,63.1,104
		L63.1,104z M76.9,71.9c-4.6-0.2-9.1-0.5-13.7-0.9c0,0.9,0.1,1.8,0.1,2.7c0,12.5,0,17.2-1.1,17.9c-0.3,0.1-2.5,0.1-6.8-0.3
		c-8.3-0.5-22.2-2.2-22.2,0.5c0,4.1,22.4,11.6,29.9,12c9.1,0.8,13.7-3.2,13.7-11.3C76.9,85.7,76.9,78.8,76.9,71.9L76.9,71.9z"/>
	<path fill="#FFFFFF" d="M63.1,75.1c0,0.7,0,1.4,0,2.1c4.6,1.1,9.2,1.4,13.8,1c0-0.7,0-1.4,0-2.1C72.4,76.5,67.8,76.2,63.1,75.1
		L63.1,75.1z"/>
	<path fill="#DB1E37" d="M70.1,78.3c-2.3-0.2-4.7-0.5-6.9-1c0-0.7-0.1-1.5-0.1-2.2c4.8,0.9,9.4,1.3,13.9,0.9
		c0.1,0.7,0.1,1.5,0.2,2.2C74.7,78.5,72.4,78.5,70.1,78.3L70.1,78.3z M63.1,75.2c0,0.7,0.1,1.3,0.1,2C67.6,78,72.4,78.5,77,78
		c0-0.7-0.1-1.3-0.1-2C72.5,76.7,67.8,76.3,63.1,75.2L63.1,75.2z"/>
	<path fill="#FFFFFF" d="M63.1,71c0,0.7,0,1.4,0,2.1c4.6,1.1,9.2,1.4,13.8,1c0-0.7,0-1.4,0-2.1C72.4,72.4,67.8,72,63.1,71L63.1,71z"
		/>
	<path fill="#DB1E37" d="M70.1,74.2c-2.3-0.2-4.7-0.6-6.9-1.1c0-0.7-0.1-1.5-0.1-2.2c4.8,0.9,9.4,1.3,13.9,0.9
		c0.1,0.7,0.1,1.5,0.2,2.2C74.7,74.3,72.4,74.4,70.1,74.2L70.1,74.2z M63.1,71.1c0,0.7,0.1,1.3,0.1,2c4.4,0.8,9.2,1.3,13.7,0.9
		c0-0.7-0.1-1.3-0.1-2C72.5,72.6,67.8,72.2,63.1,71.1L63.1,71.1z"/>
	<path fill="#FFFFFF" d="M63.1,73c0,0.7,0,1.4,0,2.1c4.6,1.1,9.2,1.5,13.8,1c0-0.7,0-1.4,0-2.1C72.4,74.4,67.8,74.1,63.1,73L63.1,73
		z"/>
	<path fill="#DB1E37" d="M70.1,76.3c-2.3-0.2-4.7-0.6-6.9-1.1c0-0.7-0.1-1.5-0.1-2.2c4.8,0.9,9.4,1.4,13.9,0.9
		c0.1,0.7,0.1,1.4,0.2,2.2C74.7,76.4,72.4,76.5,70.1,76.3L70.1,76.3z M63.1,73.1c0,0.7,0.1,1.3,0.1,2c4.4,0.8,9.2,1.3,13.7,0.9
		c0-0.7-0.1-1.3-0.1-2C72.5,74.7,67.8,74.2,63.1,73.1L63.1,73.1z"/>
	<path fill="#FFFFFF" d="M63.1,77.2c0,0.7,0,1.4,0,2.1c4.6,1.1,9.2,1.4,13.8,1c0-0.7,0-1.4,0-2.1C72.4,78.6,67.8,78.2,63.1,77.2
		L63.1,77.2z"/>
	<path fill="#DB1E37" d="M70.1,80.4c-2.3-0.2-4.7-0.5-6.9-1.1c0-0.7-0.1-1.5-0.1-2.2C67.8,78,72.4,78.5,77,78
		c0.1,0.7,0.1,1.5,0.2,2.2C74.7,80.5,72.4,80.6,70.1,80.4L70.1,80.4z M63.1,77.3c0,0.6,0.1,1.3,0.1,1.9c4.4,0.8,9.2,1.3,13.7,0.8
		c0-0.6-0.1-1.3-0.1-1.9C72.5,78.8,67.8,78.4,63.1,77.3L63.1,77.3z"/>
	<path fill="#FFFFFF" d="M63.8,73.8c0.4,0,0.6,0.3,0.6,0.5c0,0.2-0.2,0.4-0.6,0.4c-0.4,0-0.6-0.3-0.6-0.5
		C63.1,74,63.4,73.8,63.8,73.8L63.8,73.8z"/>
	<path fill="#FFFFFF" d="M66.2,74.2c0.4,0,0.7,0.3,0.7,0.5c0,0.2-0.3,0.4-0.7,0.4c-0.3,0-0.6-0.3-0.6-0.5
		C65.6,74.4,65.9,74.2,66.2,74.2L66.2,74.2z"/>
	<path fill="#FFFFFF" d="M68.8,74.7c0.4,0,0.6,0.3,0.6,0.5c0,0.2-0.2,0.4-0.6,0.4c-0.3,0-0.6-0.3-0.6-0.5
		C68.2,74.8,68.5,74.6,68.8,74.7L68.8,74.7z"/>
	<path fill="#FFFFFF" d="M71.3,74.8c0.4,0,0.6,0.3,0.6,0.5c0,0.2-0.2,0.4-0.6,0.4c-0.4,0-0.6-0.3-0.6-0.5C70.7,75,71,74.8,71.3,74.8
		L71.3,74.8z"/>
	<path fill="#FFFFFF" d="M73.9,74.8c0.3,0,0.6,0.3,0.6,0.5c0,0.2-0.3,0.4-0.6,0.4c-0.4,0-0.7-0.3-0.7-0.5
		C73.2,75,73.5,74.7,73.9,74.8L73.9,74.8z"/>
	<path fill="#FFFFFF" d="M76.4,74.7c0.4,0,0.6,0.3,0.6,0.5c0,0.2-0.2,0.4-0.6,0.4c-0.4,0-0.6-0.3-0.6-0.5
		C75.7,74.9,76,74.7,76.4,74.7L76.4,74.7z"/>
	<path fill="#FFFFFF" d="M63.1,81.3c4.6,4.1,9.2,8.1,13.8,12.1C72.4,89.4,67.7,85.4,63.1,81.3z"/>
	<path fill="#DB1E37" d="M77.1,93.3c-4.7-3.9-9.4-7.9-14-12c0,0,0.1-0.1,0.1-0.1C67.8,85.3,72.4,89.4,77.1,93.3L77.1,93.3z"/>
	<path fill="#FFFFFF" d="M64.5,81.4c4.2,3.6,8.3,7.2,12.5,10.7C72.8,88.6,68.6,85.1,64.5,81.4z"/>
	<path fill="#DB1E37" d="M77.1,92c-4.2-3.5-8.4-7-12.6-10.6c0,0,0.1-0.1,0.1-0.1C68.7,85,72.9,88.5,77.1,92L77.1,92z"/>
	<path fill="#FFFFFF" d="M66.3,81.9c3.5,3,7.1,6,10.6,9C73.4,88,69.9,85,66.3,81.9z"/>
	<path fill="#DB1E37" d="M77.1,90.8c-3.6-2.9-7.2-5.8-10.8-8.8c0.1,0,0.1-0.1,0.2-0.2C70,84.9,73.5,87.9,77.1,90.8L77.1,90.8z"/>
	<path fill="#FFFFFF" d="M67.8,82.1c3.1,2.6,6.1,5.1,9.2,7.6C73.9,87.2,70.8,84.6,67.8,82.1z"/>
	<path fill="#DB1E37" d="M77,89.6c-3.1-2.4-6.3-4.9-9.4-7.4c0-0.1,0.1-0.1,0.1-0.2C70.9,84.6,73.9,87.1,77,89.6L77,89.6z"/>
	<path fill="#FFFFFF" d="M69.1,82.2c2.6,2.1,5.2,4.2,7.9,6.2C74.3,86.3,71.7,84.3,69.1,82.2z"/>
	<path fill="#DB1E37" d="M77,88.4c-2.7-2-5.3-4-8-6.1c0.1-0.1,0.1-0.1,0.2-0.2C71.8,84.2,74.4,86.3,77,88.4L77,88.4z"/>
	<path fill="#FFFFFF" d="M70.5,82.3c2.2,1.7,4.3,3.3,6.5,4.9C74.8,85.6,72.7,83.9,70.5,82.3z"/>
	<path fill="#DB1E37" d="M77,87.1c-2.2-1.5-4.4-3.1-6.6-4.7c0.1-0.1,0.1-0.1,0.2-0.2C72.8,83.8,74.9,85.5,77,87.1L77,87.1z"/>
	<path fill="#FFFFFF" d="M71.9,82.4c1.7,1.2,3.4,2.4,5.1,3.6C75.3,84.8,73.6,83.6,71.9,82.4z"/>
	<path fill="#DB1E37" d="M77,85.8c-1.7-1.1-3.5-2.2-5.2-3.4c0-0.1,0.1-0.1,0.1-0.2C73.6,83.5,75.3,84.7,77,85.8L77,85.8z"/>
	<path fill="#FFFFFF" d="M73.3,82.4c1.2,0.9,2.4,1.8,3.7,2.7C75.7,84.2,74.5,83.3,73.3,82.4z"/>
	<path fill="#FFFFFF" d="M74.7,82.5c0.8,0.6,1.5,1.2,2.3,1.8C76.2,83.7,75.5,83.1,74.7,82.5z"/>
	<path fill="#FFFFFF" d="M76.1,82.6c0.3,0.3,0.6,0.5,0.8,0.8C76.7,83.2,76.4,82.9,76.1,82.6z"/>
	<path fill="#FFFFFF" d="M63.1,82.4c4.6,4.1,9.2,8.2,13.8,12.2C72.4,90.6,67.7,86.6,63.1,82.4z"/>
	<path fill="#DB1E37" d="M77.1,94.5c-4.7-3.9-9.4-7.8-14-11.9c0-0.1,0.1-0.1,0.1-0.2C67.8,86.5,72.4,90.6,77.1,94.5L77.1,94.5z"/>
	<path fill="#FFFFFF" d="M77,82.3c-5.1,3.8-10.2,7.6-15.2,11.2C66.8,89.9,71.9,86.1,77,82.3z"/>
	<path fill="#DB1E37" d="M61.8,93.6c5-3.7,10.1-7.5,15.1-11.5c0,0.1,0.1,0.1,0.1,0.2C72,86.2,66.9,90,61.8,93.6L61.8,93.6z"/>
	<path fill="#FFFFFF" d="M75.6,82.2c-4.5,3.3-8.9,6.6-13.4,9.7C66.7,88.8,71.1,85.5,75.6,82.2z"/>
	<path fill="#DB1E37" d="M62.3,92c4.4-3.2,8.8-6.5,13.2-9.9c0.1,0.1,0.1,0.1,0.2,0.2C71.2,85.6,66.8,88.8,62.3,92L62.3,92z"/>
	<path fill="#FFFFFF" d="M73.8,82.5c-3.5,2.5-7.1,5-10.6,7.5C66.7,87.5,70.2,85,73.8,82.5z"/>
	<path fill="#DB1E37" d="M63.2,90.1c3.5-2.5,7-5.1,10.5-7.7c0.1,0.1,0.1,0.1,0.2,0.2C70.3,85.1,66.7,87.6,63.2,90.1L63.2,90.1z"/>
	<path fill="#FFFFFF" d="M72.4,82.4c-3.1,2.1-6.2,4.3-9.2,6.3C66.2,86.6,69.3,84.5,72.4,82.4z"/>
	<path fill="#DB1E37" d="M63.2,88.8c3-2.1,6.1-4.3,9.1-6.5c0,0.1,0.1,0.1,0.1,0.2C69.3,84.6,66.2,86.7,63.2,88.8L63.2,88.8z"/>
	<path fill="#FFFFFF" d="M71,82.3c-2.6,1.7-5.2,3.4-7.8,5.1C65.7,85.7,68.4,84,71,82.3z"/>
	<path fill="#DB1E37" d="M63.2,87.5c2.6-1.7,5.2-3.5,7.7-5.3c0.1,0.1,0.1,0.1,0.2,0.2C68.4,84.1,65.8,85.9,63.2,87.5L63.2,87.5z"/>
	<path fill="#FFFFFF" d="M69.6,82.2c-2.2,1.4-4.3,2.7-6.5,4C65.3,84.9,67.5,83.6,69.6,82.2z"/>
	<path fill="#DB1E37" d="M63.2,86.3c2.1-1.4,4.2-2.8,6.3-4.2c0,0.1,0.1,0.1,0.1,0.2C67.5,83.7,65.3,85,63.2,86.3L63.2,86.3z"/>
	<path fill="#FFFFFF" d="M68.2,82.1c-1.7,1-3.4,1.9-5.1,2.9C64.8,84,66.5,83.1,68.2,82.1z"/>
	<path fill="#DB1E37" d="M63.2,85.1c1.7-1,3.3-2,5-3.1c0,0.1,0,0.1,0.1,0.2C66.6,83.2,64.9,84.1,63.2,85.1L63.2,85.1z"/>
	<path fill="#FFFFFF" d="M66.8,82c-1.2,0.7-2.4,1.4-3.7,2.2C64.4,83.4,65.6,82.7,66.8,82z"/>
	<path fill="#FFFFFF" d="M65.4,81.9c-0.8,0.5-1.5,1-2.3,1.5C63.9,82.9,64.6,82.4,65.4,81.9z"/>
	<path fill="#FFFFFF" d="M64,81.8c-0.3,0.2-0.6,0.5-0.9,0.7C63.4,82.2,63.7,82,64,81.8z"/>
	<path fill="#FFFFFF" d="M77,83.4c-5.1,3.9-10.2,7.6-15.2,11.3C66.8,91.1,71.9,87.3,77,83.4z"/>
	<path fill="#DB1E37" d="M61.8,94.9c5-3.7,10.1-7.6,15.1-11.5c0,0.1,0.1,0.1,0.1,0.2C72,87.5,66.9,91.2,61.8,94.9L61.8,94.9z"/>
	<path fill="#FFFFFF" d="M77,84.8c-5.1,3.8-10.2,7.6-15.2,11.2C66.8,92.3,71.9,88.6,77,84.8z"/>
	<path fill="#DB1E37" d="M61.8,96.1c5-3.7,10.1-7.5,15.1-11.4c0,0,0.1,0.1,0.1,0.1C72,88.6,66.9,92.4,61.8,96.1L61.8,96.1z"/>
	<path fill="#FFFFFF" d="M77,85.9c-5.1,3.9-10.2,7.6-15.2,11.3C66.8,93.6,71.9,89.8,77,85.9z"/>
	<path fill="#DB1E37" d="M61.8,97.4c5-3.7,10.1-7.6,15.1-11.5c0,0.1,0.1,0.2,0.1,0.2C72,89.9,66.9,93.7,61.8,97.4L61.8,97.4z"/>
	<path fill="#FFFFFF" d="M77,87.2c-5.1,3.9-10.2,7.6-15.2,11.3C66.8,94.8,71.9,91,77,87.2z"/>
	<path fill="#DB1E37" d="M61.8,98.5c5-3.7,10.1-7.5,15.1-11.4c0,0.1,0.1,0.1,0.1,0.2C72,91.1,66.9,94.9,61.8,98.5L61.8,98.5z"/>
	<path fill="#FFFFFF" d="M77,88.4c-5.1,3.9-10.2,7.6-15.2,11.3C66.8,96,71.9,92.3,77,88.4z"/>
	<path fill="#DB1E37" d="M61.8,99.8c5-3.7,10.1-7.5,15.1-11.5c0,0.1,0.1,0.1,0.1,0.2C72,92.4,66.9,96.2,61.8,99.8L61.8,99.8z"/>
	<path fill="#FFFFFF" d="M77,89.7c-5.1,3.9-10.2,7.6-15.2,11.3C66.8,97.3,71.9,93.6,77,89.7z"/>
	<path fill="#DB1E37" d="M61.8,101c5-3.7,10.1-7.5,15.1-11.4c0,0.1,0.1,0.1,0.1,0.2C72,93.6,66.9,97.3,61.8,101L61.8,101z"/>
	<path fill="#FFFFFF" d="M77,90.9c-5.1,3.9-10.2,7.6-15.2,11.3C66.8,98.5,71.9,94.8,77,90.9z"/>
	<path fill="#DB1E37" d="M61.8,102.3c5-3.7,10.1-7.6,15.1-11.5c0,0.1,0.1,0.2,0.1,0.3C72,94.9,66.9,98.6,61.8,102.3L61.8,102.3z"/>
	<path fill="#FFFFFF" d="M77,92.2c-5.1,3.9-10.2,7.6-15.2,11.3C66.8,99.8,71.9,96,77,92.2z"/>
	<path fill="#DB1E37" d="M61.8,103.5c5-3.7,10.1-7.6,15.1-11.5c0,0.1,0.1,0.1,0.1,0.2C72,96.1,66.9,99.9,61.8,103.5L61.8,103.5z"/>
	<path fill="#FFFFFF" d="M77,93.4c-4.8,3.6-9.5,7.1-14.3,10.6C67.4,100.5,72.2,97,77,93.4z"/>
	<path fill="#DB1E37" d="M62.7,104c4.7-3.5,9.5-7,14.2-10.7c0,0.1,0.1,0.1,0.1,0.2C72.3,97.1,67.5,100.6,62.7,104L62.7,104z"/>
	<path fill="#FFFFFF" d="M77,94.6c-4.3,3.2-8.6,6.4-12.9,9.4C68.3,101,72.6,97.8,77,94.6z"/>
	<path fill="#DB1E37" d="M64.1,104.1c4.3-3.1,8.5-6.3,12.8-9.6c0,0.1,0.1,0.1,0.1,0.2C72.8,97.9,68.4,101.1,64.1,104.1
		C64.1,104.1,64.1,104.1,64.1,104.1z"/>
	<path fill="#FFFFFF" d="M76.5,96.3c-3.4,2.6-6.8,5.1-10.2,7.6C69.7,101.4,73.1,98.8,76.5,96.3z"/>
	<path fill="#DB1E37" d="M66.4,103.9c3.3-2.5,6.7-5.1,10-7.8c0.1,0.1,0.1,0.1,0.2,0.2C73.2,98.9,69.8,101.4,66.4,103.9L66.4,103.9z"
		/>
	<path fill="#FFFFFF" d="M76.1,97.9c-2.8,2-5.6,4.1-8.4,6C70.5,102,73.3,100,76.1,97.9z"/>
	<path fill="#DB1E37" d="M67.8,104c2.7-2,5.5-4.1,8.2-6.2c0,0.1,0.1,0.1,0.1,0.2C73.4,100,70.6,102,67.8,104L67.8,104z"/>
	<path fill="#FFFFFF" d="M75.2,99.9c-1.4,1-2.8,2.1-4.2,3.1C72.4,101.9,73.8,100.9,75.2,99.9z"/>
	<path fill="#FFFFFF" d="M63.1,83.8c4.5,4,8.9,7.8,13.4,11.6C72,91.6,67.6,87.7,63.1,83.8z"/>
	<path fill="#DB1E37" d="M76.6,95.3c-4.5-3.8-9.1-7.6-13.6-11.6c0,0,0.1-0.1,0.1-0.1C67.6,87.6,72.1,91.5,76.6,95.3L76.6,95.3z"/>
	<path fill="#FFFFFF" d="M63.1,85c4.5,4,8.9,7.9,13.4,11.7C72,92.8,67.6,88.9,63.1,85z"/>
	<path fill="#DB1E37" d="M76.6,96.6C72.1,92.8,67.6,89,63,85.1c0-0.1,0.1-0.1,0.1-0.2C67.6,88.9,72.1,92.8,76.6,96.6L76.6,96.6z"/>
	<path fill="#FFFFFF" d="M63.1,86.2c4.3,3.8,8.7,7.6,13,11.3C71.8,93.8,67.5,90,63.1,86.2z"/>
	<path fill="#DB1E37" d="M76.1,97.4c-4.4-3.6-8.7-7.3-13.1-11.1c0-0.1,0.1-0.1,0.1-0.2C67.5,89.9,71.8,93.7,76.1,97.4L76.1,97.4z"/>
	<path fill="#FFFFFF" d="M63.1,87.4c4.3,3.8,8.7,7.6,13,11.3C71.8,95,67.5,91.3,63.1,87.4z"/>
	<path fill="#DB1E37" d="M76.1,98.6C71.8,95,67.4,91.3,63,87.5c0,0,0.1-0.1,0.1-0.1C67.5,91.2,71.8,94.9,76.1,98.6L76.1,98.6z"/>
	<path fill="#FFFFFF" d="M63.1,88.7c4.2,3.7,8.3,7.3,12.5,10.8C71.4,96,67.3,92.4,63.1,88.7z"/>
	<path fill="#DB1E37" d="M75.7,99.4c-4.2-3.5-8.4-7-12.7-10.6c0-0.1,0.1-0.1,0.1-0.2C67.3,92.3,71.5,95.9,75.7,99.4L75.7,99.4z"/>
	<path fill="#FFFFFF" d="M62.7,89.5c4.2,3.7,8.3,7.3,12.5,10.8C71,96.8,66.8,93.2,62.7,89.5z"/>
	<path fill="#DB1E37" d="M75.2,100.2c-4.2-3.5-8.4-7-12.6-10.7c0-0.1,0.1-0.1,0.1-0.2C66.9,93.1,71,96.7,75.2,100.2
		C75.2,100.2,75.2,100.2,75.2,100.2z"/>
	<path fill="#FFFFFF" d="M62.7,90.7c3.9,3.4,7.7,6.7,11.6,9.9C70.4,97.4,66.5,94.1,62.7,90.7z"/>
	<path fill="#DB1E37" d="M74.2,100.6c-3.9-3.2-7.8-6.4-11.7-9.8c0-0.1,0.1-0.1,0.1-0.2C66.6,94,70.4,97.3,74.2,100.6L74.2,100.6z"/>
	<path fill="#FFFFFF" d="M62.2,91.5c3.9,3.4,7.7,6.7,11.6,10C69.9,98.2,66,94.9,62.2,91.5z"/>
	<path fill="#DB1E37" d="M73.8,101.4c-3.9-3.2-7.8-6.4-11.7-9.7c0.1-0.1,0.1-0.1,0.2-0.2C66.2,94.8,70,98.1,73.8,101.4L73.8,101.4z"
		/>
	<path fill="#FFFFFF" d="M61.7,92.3c3.7,3.2,7.4,6.4,11.1,9.6C69.1,98.7,65.4,95.5,61.7,92.3z"/>
	<path fill="#DB1E37" d="M72.9,101.7c-3.7-3.1-7.5-6.2-11.2-9.4c0,0,0.1-0.1,0.1-0.2C65.5,95.5,69.2,98.6,72.9,101.7L72.9,101.7z"/>
	<path fill="#FFFFFF" d="M61.7,93.5c3.6,3.1,7.1,6.1,10.7,9.1C68.8,99.6,65.3,96.6,61.7,93.5z"/>
	<path fill="#DB1E37" d="M72.4,102.5c-3.6-2.9-7.1-5.9-10.7-8.9c0-0.1,0.1-0.1,0.1-0.2C65.4,96.5,68.9,99.5,72.4,102.5L72.4,102.5z"
		/>
	<path fill="#FFFFFF" d="M61.7,94.7c3.1,2.8,6.2,5.5,9.2,8.2C67.9,100.3,64.8,97.5,61.7,94.7z"/>
	<path fill="#DB1E37" d="M71.1,102.9c-3.1-2.6-6.3-5.3-9.4-8c0-0.1,0.1-0.1,0.1-0.2C64.9,97.4,68,100.2,71.1,102.9L71.1,102.9z"/>
	<path fill="#FFFFFF" d="M63.1,79.2c0,0.7,0,1.4,0,2.1c4.6,1.1,9.2,1.4,13.8,1c0-0.7,0-1.4,0-2.1C72.4,80.6,67.8,80.3,63.1,79.2
		L63.1,79.2z"/>
	<path fill="#DB1E37" d="M70.1,82.5c-2.3-0.2-4.7-0.5-6.9-1.1c0-0.7-0.1-1.5-0.1-2.2c4.8,0.9,9.4,1.3,13.9,0.9
		c0.1,0.7,0.1,1.5,0.2,2.2C74.7,82.6,72.4,82.6,70.1,82.5L70.1,82.5z M63.1,79.3c0,0.7,0.1,1.3,0.1,2c4.4,0.8,9.2,1.2,13.7,0.9
		c0-0.7-0.1-1.3-0.1-2C72.5,80.9,67.8,80.4,63.1,79.3L63.1,79.3z"/>
	<path fill="#FFFFFF" d="M61.7,96c2.8,2.5,5.6,4.9,8.4,7.3C67.3,100.9,64.5,98.4,61.7,96z"/>
	<path fill="#DB1E37" d="M70.1,103.2c-2.8-2.3-5.6-4.7-8.4-7.1c0-0.1,0.1-0.1,0.1-0.2C64.6,98.4,67.4,100.8,70.1,103.2L70.1,103.2z"
		/>
	<path fill="#FFFFFF" d="M61.7,97.2c2.5,2.1,4.9,4.3,7.4,6.4C66.6,101.5,64.2,99.4,61.7,97.2z"/>
	<path fill="#DB1E37" d="M69.2,103.5c-2.5-2-5-4.1-7.5-6.2c0-0.1,0.1-0.1,0.1-0.2C64.3,99.3,66.7,101.4,69.2,103.5L69.2,103.5z"/>
	<path fill="#FFFFFF" d="M61.7,98.5c2.2,1.9,4.3,3.7,6.5,5.5C66.1,102.2,63.9,100.3,61.7,98.5z"/>
	<path fill="#DB1E37" d="M68.3,103.9c-2.2-1.8-4.4-3.6-6.6-5.4c0,0,0.1-0.1,0.1-0.1C64,100.2,66.1,102.1,68.3,103.9L68.3,103.9z"/>
	<path fill="#FFFFFF" d="M61.7,99.7c1.5,1.4,3.1,2.8,4.6,4.1C64.8,102.5,63.3,101.1,61.7,99.7z"/>
	<path fill="#DB1E37" d="M66.4,103.7c-1.6-1.3-3.2-2.6-4.8-3.9c0-0.1,0.1-0.1,0.1-0.2C63.4,101,64.9,102.4,66.4,103.7L66.4,103.7z"
		/>
	<path fill="#FFFFFF" d="M61.7,101c1.2,1.1,2.4,2.1,3.7,3.2C64.2,103.1,63,102,61.7,101z"/>
	<path fill="#FFFFFF" d="M61.7,102.2c0.8,0.6,1.5,1.2,2.3,1.8C63.3,103.4,62.5,102.8,61.7,102.2z"/>
	<path fill="#FFFFFF" d="M63.8,80c0.4,0,0.6,0.3,0.6,0.4c0,0.3-0.2,0.5-0.6,0.4c-0.4,0-0.6-0.2-0.6-0.6C63.1,80.2,63.4,80,63.8,80
		L63.8,80z"/>
	<path fill="#FFFFFF" d="M66.2,80.4c0.4,0,0.7,0.2,0.7,0.5c0,0.3-0.3,0.4-0.7,0.4c-0.3,0-0.6-0.2-0.6-0.5
		C65.6,80.5,65.9,80.4,66.2,80.4L66.2,80.4z"/>
	<path fill="#FFFFFF" d="M68.8,80.8c0.4,0,0.6,0.3,0.6,0.5c0,0.2-0.2,0.4-0.6,0.4c-0.3,0-0.6-0.3-0.6-0.5
		C68.2,81,68.5,80.8,68.8,80.8L68.8,80.8z"/>
	<path fill="#FFFFFF" d="M71.3,81c0.4,0,0.6,0.3,0.6,0.5c0,0.2-0.2,0.4-0.6,0.4c-0.4,0-0.6-0.3-0.6-0.5C70.7,81.2,71,80.9,71.3,81
		L71.3,81z"/>
	<path fill="#FFFFFF" d="M73.9,81c0.3,0,0.6,0.2,0.6,0.5c0,0.3-0.3,0.4-0.6,0.4c-0.4,0-0.7-0.2-0.7-0.5C73.2,81.1,73.5,80.9,73.9,81
		L73.9,81z"/>
	<path fill="#FFFFFF" d="M76.4,80.9c0.4,0,0.6,0.2,0.6,0.4c0,0.3-0.2,0.5-0.6,0.5c-0.4,0-0.6-0.2-0.6-0.5
		C75.7,81.1,76,80.9,76.4,80.9L76.4,80.9z"/>
	<path fill="#FFFFFF" d="M43.2,98.4c5.5-2.1,11.1-4.3,16.6-6.7C54.3,94.1,48.8,96.3,43.2,98.4z"/>
	<path fill="#DB1E37" d="M43.2,98.4c0-0.1,0-0.1-0.1-0.2c5.5-2.1,11.1-4.3,16.6-6.7C54.3,94,48.8,96.3,43.2,98.4L43.2,98.4z"/>
	<path fill="#FFFFFF" d="M42.3,97.8c5.2-2,10.5-4.1,15.7-6.3C52.8,93.7,47.5,95.8,42.3,97.8z"/>
	<path fill="#DB1E37" d="M42.3,98c0-0.1,0-0.2-0.1-0.3c5.2-2,10.5-4.1,15.7-6.3C52.7,93.7,47.5,95.9,42.3,98L42.3,98z"/>
	<path fill="#FFFFFF" d="M41.8,97c4.8-1.8,9.6-3.7,14.4-5.6C51.4,93.3,46.6,95.2,41.8,97z"/>
	<path fill="#DB1E37" d="M41.9,97.1c0-0.1-0.1-0.2-0.1-0.2c4.8-1.8,9.6-3.7,14.3-5.6C51.4,93.3,46.6,95.2,41.9,97.1
		C41.9,97.1,41.9,97.1,41.9,97.1z"/>
	<path fill="#FFFFFF" d="M41.4,96.1c4.2-1.6,8.3-3.3,12.5-5C49.7,92.8,45.5,94.5,41.4,96.1z"/>
	<path fill="#DB1E37" d="M41.4,96.2c0-0.1-0.1-0.1-0.1-0.2c4.2-1.6,8.3-3.2,12.5-5C49.7,92.8,45.6,94.5,41.4,96.2
		C41.4,96.2,41.4,96.2,41.4,96.2z"/>
	<path fill="#FFFFFF" d="M40.5,95.1c3.9-1.3,7.7-2.7,11.6-4.2C48.2,92.3,44.3,93.7,40.5,95.1z"/>
	<path fill="#DB1E37" d="M40.5,95.2c0-0.1,0-0.2,0-0.2c3.8-1.3,7.7-2.7,11.5-4.2C48.1,92.3,44.3,93.8,40.5,95.2L40.5,95.2z"/>
	<path fill="#FFFFFF" d="M40.9,93.9c2.6-1,5.2-2,7.9-3.1C46.1,91.9,43.5,92.9,40.9,93.9z"/>
	<path fill="#DB1E37" d="M41,94c0-0.1-0.1-0.2-0.1-0.3c2.6-1,5.3-2,7.9-3C46.1,91.9,43.5,93,41,94L41,94z"/>
	<path fill="#FFFFFF" d="M40.5,93c2-0.8,4-1.6,6-2.5C44.5,91.4,42.5,92.2,40.5,93z"/>
	<path fill="#DB1E37" d="M40.5,93.1c0-0.1,0-0.2,0-0.2c2-0.8,4-1.6,6-2.4C44.5,91.4,42.5,92.2,40.5,93.1L40.5,93.1z"/>
	<path fill="#FFFFFF" d="M40.5,91.8c1.4-0.5,2.8-1,4.2-1.5C43.2,90.8,41.8,91.3,40.5,91.8z"/>
	<path fill="#FFFFFF" d="M44.6,99c5.2-2.1,10.5-4.2,15.7-6.5C55.1,94.8,49.9,97,44.6,99z"/>
	<path fill="#DB1E37" d="M44.7,99.1c0-0.1-0.1-0.2-0.1-0.3c5.2-2,10.5-4.1,15.7-6.4C55.1,94.8,49.9,97,44.7,99.1L44.7,99.1z"/>
	<path fill="#FFFFFF" d="M46,99.6c4.9-2,9.9-4,14.8-6.2C55.9,95.6,51,97.7,46,99.6z"/>
	<path fill="#DB1E37" d="M46.1,99.7c0-0.1-0.1-0.2-0.1-0.2c4.9-1.9,9.9-4,14.8-6.1C55.8,95.5,51,97.7,46.1,99.7
		C46.1,99.7,46.1,99.7,46.1,99.7z"/>
	<path fill="#FFFFFF" d="M47.4,100.2c4.6-1.9,9.3-3.8,13.9-5.9C56.6,96.4,52,98.3,47.4,100.2z"/>
	<path fill="#DB1E37" d="M47.4,100.3c0-0.1-0.1-0.2-0.1-0.3c4.6-1.9,9.3-3.8,13.9-5.9C56.6,96.3,52,98.4,47.4,100.3L47.4,100.3z"/>
	<path fill="#FFFFFF" d="M48.7,100.8c3.9-1.6,7.7-3.2,11.6-5C56.5,97.6,52.6,99.2,48.7,100.8z"/>
	<path fill="#DB1E37" d="M48.8,100.9c0-0.1,0-0.1-0.1-0.2c3.8-1.6,7.7-3.2,11.5-4.9C56.5,97.5,52.6,99.3,48.8,100.9L48.8,100.9z"/>
	<path fill="#FFFFFF" d="M50.6,101c3.4-1.4,6.8-2.8,10.2-4.3C57.4,98.2,54,99.7,50.6,101z"/>
	<path fill="#DB1E37" d="M50.7,101.2c-0.1-0.1-0.1-0.2-0.2-0.2c3.4-1.4,6.8-2.8,10.2-4.3C57.4,98.2,54,99.7,50.7,101.2L50.7,101.2z"
		/>
	<path fill="#FFFFFF" d="M52,101.6c2.9-1.2,5.9-2.4,8.8-3.6C57.9,99.2,55,100.4,52,101.6z"/>
	<path fill="#DB1E37" d="M52,101.7c0-0.1-0.1-0.2-0.1-0.2c2.9-1.2,5.9-2.3,8.8-3.6C57.8,99.2,54.9,100.5,52,101.7L52,101.7z"/>
	<path fill="#FFFFFF" d="M53.4,102.1c2.3-1,4.6-1.9,7-2.9C58,100.2,55.7,101.2,53.4,102.1z"/>
	<path fill="#DB1E37" d="M53.4,102.3c0-0.1-0.1-0.2-0.1-0.2c2.3-1,4.6-1.9,7-2.9C58,100.2,55.7,101.2,53.4,102.3L53.4,102.3z"/>
	<path fill="#FFFFFF" d="M55.2,102.3c1.9-0.8,3.7-1.5,5.6-2.3C59,100.8,57.1,101.6,55.2,102.3z"/>
	<path fill="#DB1E37" d="M55.3,102.5c0-0.1-0.1-0.2-0.1-0.2c1.8-0.8,3.7-1.5,5.5-2.3C58.9,100.8,57.1,101.6,55.3,102.5L55.3,102.5z"
		/>
	<path fill="#FFFFFF" d="M57.1,103c1.2-0.6,2.5-1.1,3.7-1.7C59.6,101.9,58.3,102.4,57.1,103z"/>
	<path fill="#FFFFFF" d="M58.9,103.2c0.8-0.3,1.6-0.7,2.3-1C60.5,102.5,59.7,102.8,58.9,103.2z"/>
	<path fill="#FFFFFF" d="M62.2,91.5c-0.8-0.1-1.6-0.1-2.3-0.2c-0.8,4.1-0.8,8.2,0,12.4c0.8,0.1,1.6,0.1,2.3,0.2
		C61.4,99.7,61.4,95.6,62.2,91.5L62.2,91.5z"/>
	<path fill="#DB1E37" d="M62.4,104c-0.8-0.1-1.7-0.2-2.5-0.2c-0.8-4.2-0.8-8.4-0.1-12.5c0.8,0,1.6,0.1,2.4,0.1
		C61.5,95.6,61.5,99.7,62.4,104C62.3,103.9,62.3,103.9,62.4,104L62.4,104z M62.1,91.5c-0.7,0-1.5,0-2.2,0c-0.6,3.9-0.6,8,0.1,12.2
		c0.7,0,1.4,0.1,2.1,0.1C61.3,99.6,61.3,95.5,62.1,91.5L62.1,91.5z"/>
	<path fill="#FFFFFF" d="M34.9,93.8c1.9-1.1,3.7-2.2,5.6-3.3C38.6,91.6,36.7,92.7,34.9,93.8z"/>
	<path fill="#DB1E37" d="M34.9,93.9c0-0.1-0.1-0.2-0.1-0.2c1.9-1,3.7-2.1,5.6-3.2C38.6,91.7,36.8,92.8,34.9,93.9L34.9,93.9z"/>
	<path fill="#FFFFFF" d="M34.9,90.9c1.9,2,3.7,3.9,5.6,5.9C38.6,94.8,36.7,92.9,34.9,90.9z"/>
	<path fill="#DB1E37" d="M40.5,96.7c-1.9-1.9-3.8-3.8-5.7-5.7c0.1-0.1,0.1-0.1,0.2-0.2C36.8,92.8,38.7,94.7,40.5,96.7L40.5,96.7z"/>
	<path fill="#FFFFFF" d="M43.2,90.1c-0.9,0-1.9,0-2.8,0c-0.7,2.5-0.7,4.7,0,7.4c0.9,0.4,1.9,0.9,2.8,1.3
		C42.6,96.1,42.6,92.7,43.2,90.1L43.2,90.1z"/>
	<path fill="#DB1E37" d="M43.4,99c-1-0.4-2-0.8-3-1.3c-0.7-2.9-0.7-5.1,0-7.6c1,0,1.9,0,2.9-0.1c-0.5,2.7-0.5,6.1,0.1,8.8
		C43.3,98.9,43.4,98.9,43.4,99L43.4,99z M43.1,90.1c-0.9,0.1-1.8,0.1-2.6,0.2c-0.5,2.4-0.5,4.6,0.1,7.3c0.8,0.4,1.7,0.7,2.5,1
		C42.4,95.9,42.5,92.6,43.1,90.1L43.1,90.1z"/>
	<path fill="#FFFFFF" d="M77,72.8c0-0.7,0-1.4,0-2.1c-2-0.1-3.5-1.4-3.5-2.7c-2.3-0.1-4.6-0.3-6.9-0.5c0,1.3-1.4,2.4-3.5,2.2
		c0,0.7,0,1.4,0,2.1C67.7,72.2,72.4,72.5,77,72.8z"/>
	<path fill="#DB1E37" d="M77.1,72.9c-4.6-0.2-9.3-0.6-13.9-1c0-0.7-0.1-1.5-0.1-2.2c2.2,0.1,3.4-1,3.4-2.2c2.4,0.2,4.7,0.3,7.1,0.4
		c0.1,0.7,0.5,1.3,1,1.8c0.6,0.5,1.5,0.8,2.4,0.9C77,71.3,77,72.1,77.1,72.9C77.1,72.9,77.1,72.9,77.1,72.9z M73.4,68
		c-2.3-0.1-4.5-0.2-6.8-0.3c0.1,1.1-1.3,2.3-3.5,2.1c0,0.7,0.1,1.3,0.1,2c4.5,0.4,9.1,0.6,13.6,0.8c0-0.7,0-1.3,0-2
		c-0.9,0.1-1.9-0.3-2.5-0.8C73.8,69.3,73.4,68.7,73.4,68L73.4,68z"/>
	<path fill="#FFFFFF" d="M67,65.1c2,0.2,3.9,0.3,5.9,0.4c0,0.8,0,1.6,0,2.5c-2-0.1-3.9-0.3-5.9-0.4C67,66.7,67,65.9,67,65.1z"/>
	<path fill="#DB1E37" d="M73.1,68.1c-2-0.1-4.1-0.3-6.1-0.4c0-0.9,0-1.8-0.1-2.6c2,0.1,4,0.2,6,0.3C73,66.3,73.1,67.2,73.1,68.1
		L73.1,68.1z M72.9,65.5c-2-0.1-3.9-0.1-5.9-0.2c0,0.8,0.1,1.5,0.1,2.3c1.9,0.1,3.8,0.2,5.7,0.3C72.9,67.1,72.9,66.3,72.9,65.5
		L72.9,65.5z"/>
	<path fill="#FFFFFF" d="M67.5,62.7c1.7,0.1,3.3,0.2,5,0.4c0,0.8,0,1.6,0,2.5c-1.7-0.1-3.3-0.2-5-0.4C67.5,64.3,67.5,63.5,67.5,62.7
		z"/>
	<path fill="#DB1E37" d="M72.6,65.6c-1.7-0.1-3.4-0.2-5.1-0.4c0-0.9-0.1-1.8-0.1-2.6c1.7,0.1,3.4,0.2,5.1,0.2
		C72.5,63.8,72.6,64.7,72.6,65.6L72.6,65.6z M72.4,63c-1.6-0.1-3.2-0.1-4.9-0.2c0,0.8,0.1,1.6,0.1,2.3c1.6,0.1,3.1,0.2,4.7,0.2
		C72.4,64.6,72.4,63.8,72.4,63L72.4,63z"/>
	<path fill="#FFFFFF" d="M67.5,60.2c1.7,0.1,3.3,0.2,5,0.4c0,0.8,0,1.6,0,2.5c-1.7-0.1-3.3-0.2-5-0.4C67.5,61.8,67.5,61,67.5,60.2z"
		/>
	<path fill="#DB1E37" d="M72.6,63.1c-1.7-0.1-3.4-0.2-5.1-0.4c0-0.9-0.1-1.7-0.1-2.6c1.7,0.1,3.4,0.1,5.1,0.2
		C72.5,61.3,72.6,62.2,72.6,63.1L72.6,63.1z M72.4,60.5c-1.6-0.1-3.2-0.1-4.9-0.2c0,0.8,0.1,1.6,0.1,2.4c1.6,0.1,3.1,0.1,4.7,0.2
		C72.4,62.1,72.4,61.3,72.4,60.5L72.4,60.5z"/>
	<path fill="#FFFFFF" d="M68.1,56.9c1.3,0.1,2.6,0.2,3.9,0.3c0,1.1,0,2.2,0,3.3c-1.3-0.1-2.6-0.2-3.9-0.3
		C68.1,59.1,68.1,58,68.1,56.9z"/>
	<path fill="#DB1E37" d="M72.1,60.6c-1.4-0.1-2.7-0.2-4.1-0.3c0-1.1-0.1-2.3-0.1-3.4c1.4,0.1,2.7,0.1,4.1,0.2
		C72,58.3,72.1,59.5,72.1,60.6L72.1,60.6z M71.9,57.2c-1.3,0-2.5-0.1-3.8-0.1c0,1.1,0.1,2.1,0.1,3.2c1.2,0.1,2.4,0.1,3.7,0.2
		C71.9,59.3,71.9,58.3,71.9,57.2L71.9,57.2z"/>
	<path fill="#FFFFFF" d="M67.9,54c1.4,0.1,2.9,0.2,4.3,0.3c0,1,0,2,0,2.9c-1.4-0.1-2.9-0.2-4.3-0.3C67.9,55.9,67.9,55,67.9,54z"/>
	<path fill="#DB1E37" d="M72.3,57.4c-1.5-0.1-2.9-0.2-4.4-0.3c0-1-0.1-2.1-0.1-3.1c1.5,0.1,2.9,0.2,4.4,0.3
		C72.2,55.3,72.3,56.3,72.3,57.4L72.3,57.4z M72.1,54.3c-1.4,0-2.8-0.1-4.2-0.1c0,0.9,0.1,1.9,0.1,2.8c1.4,0.1,2.7,0.1,4.1,0.2
		C72.1,56.2,72.1,55.2,72.1,54.3L72.1,54.3z"/>
	<path fill="#FFFFFF" d="M70.3,47.6c3.2,0.2,5.7,2.1,5.7,4.3c0,2.2-2.6,3.8-5.7,3.6c-3.2-0.2-5.7-2.2-5.7-4.4
		C64.5,48.9,67.1,47.4,70.3,47.6L70.3,47.6z"/>
	<path fill="#DB1E37" d="M70.3,55.5c-3.2-0.2-5.9-2.3-5.9-4.5c0-2.2,2.6-3.8,5.9-3.6c3.2,0.2,5.9,2.2,5.9,4.4
		C76.1,54.1,73.5,55.8,70.3,55.5L70.3,55.5z M70.3,47.7c-3.1-0.2-5.7,1.3-5.7,3.4c0,2.1,2.5,4,5.7,4.2c3.1,0.2,5.6-1.4,5.6-3.5
		C75.9,49.8,73.4,47.9,70.3,47.7L70.3,47.7z"/>
	<path fill="#FFFFFF" d="M73.2,51.5c0,1.1,1.4,2.9,1.4,2.9c-1.1,0.7-2.8,1.1-4.3,1c-1.6-0.1-3.5-0.5-4.3-1.6c0,0,1.5-1.7,1.5-2.7
		c0-1.1-1.5-2.6-1.5-2.6c1-0.7,2.7-1,4.3-0.9c1.6,0.1,3.2,0.7,4.3,1.5C74.6,49.1,73.2,50.4,73.2,51.5L73.2,51.5z"/>
	<path fill="#DB1E37" d="M70.3,55.5c-0.8-0.1-3.4-0.3-4.4-1.6c0-0.2,1.4-1.8,1.4-2.8c0-1-1.3-2.5-1.4-2.5c2.3-1.7,6.5-1.2,8.8,0.5
		c0,0.2-1.4,1.5-1.4,2.5c0,1.1,1.4,2.9,1.4,2.9C73.5,55.3,71.8,55.7,70.3,55.5L70.3,55.5z M66.1,48.6c0.2,0,1.5,1.5,1.5,2.5
		c0,1.1-1.4,2.7-1.5,2.8c0.9,1,3.5,1.4,4.2,1.4c1.5,0.1,3.2-0.3,4.2-1c-0.1,0-1.5-1.8-1.5-2.9c0-1.1,1.5-2.4,1.5-2.5
		C72.4,47.8,68.2,47.4,66.1,48.6L66.1,48.6L66.1,48.6z"/>
	<path fill="#FFFFFF" d="M72.2,51.4c0,1.1,1.4,3.4,1.4,3.4c-1,0.6-1.7,0.7-3.3,0.6c-1.6-0.1-2.6-0.1-3.4-1c0,0,1.5-2.2,1.5-3.2
		c0-1.1-1.5-3-1.5-3c1.1-0.6,1.8-0.6,3.4-0.5c1.6,0.1,2.3,0.3,3.3,1C73.6,48.6,72.2,50.4,72.2,51.4L72.2,51.4z"/>
	<path fill="#DB1E37" d="M69.3,55.5c-1-0.1-1.8-0.2-2.5-1c0-0.2,1.4-2.2,1.4-3.3c0-1.1-1.4-2.9-1.4-2.9c1-0.8,1.8-0.9,3.4-0.7
		c1.6,0.1,2.3,0.3,3.4,1.1c0,0.2-1.4,1.8-1.4,2.9c0,1,1.4,3.3,1.4,3.3c-1.1,0.8-1.8,0.9-3.4,0.8C70,55.5,69.7,55.5,69.3,55.5
		L69.3,55.5z M67,48.3c0.1,0,1.5,1.9,1.5,2.9c0,1.1-1.4,3.2-1.5,3.3c0.6,0.6,1.3,0.7,2.3,0.8c0,0,0,0.1,0,0.1c0.2,0,0.3,0,0.5-0.1
		c2,0.1,2.7,0.1,3.7-0.6l0,0c-0.1,0-1.4-2.2-1.4-3.3c0-1.1,1.4-2.8,1.4-2.9c-1-0.6-1.7-0.7-3.2-0.9C68.7,47.6,68,47.7,67,48.3
		L67,48.3L67,48.3z"/>
	<path fill="#FFFFFF" d="M64.5,50.1c0.8,0.1,1.4,0.6,1.4,1.3c0,0.7-0.6,1.2-1.4,1.1c-0.8-0.1-1.4-0.7-1.4-1.4
		C63.1,50.5,63.8,50,64.5,50.1L64.5,50.1z"/>
	<path fill="#DB1E37" d="M64.5,52.6c-0.9-0.1-1.5-0.7-1.5-1.5c0-1.5,3-1.2,3,0.3C66.1,52.2,65.4,52.7,64.5,52.6L64.5,52.6z
		 M64.5,50.2c-0.7-0.1-1.3,0.4-1.3,1c0,1.2,2.6,1.4,2.6,0.2C65.8,50.8,65.3,50.2,64.5,50.2L64.5,50.2z"/>
	<path fill="#FFFFFF" d="M76,50.9c0.8,0,1.4,0.6,1.4,1.3c0,0.7-0.6,1.2-1.4,1.2c-0.8,0-1.4-0.6-1.4-1.3C74.6,51.3,75.2,50.8,76,50.9
		L76,50.9z"/>
	<path fill="#DB1E37" d="M76,53.4c-0.9,0-1.5-0.7-1.5-1.4c0-1.5,3.1-1.3,3.1,0.2C77.6,52.9,76.9,53.5,76,53.4L76,53.4z M76,51
		c-0.7,0-1.3,0.4-1.3,1c0,1.2,2.6,1.4,2.6,0.1C77.3,51.6,76.8,51,76,51L76,51z"/>
	<path fill="#FFFFFF" d="M70.3,50.5c0.8,0.1,1.5,0.6,1.5,1.3c0,0.7-0.7,1.2-1.5,1.1c-0.8-0.1-1.4-0.7-1.4-1.3
		C68.9,50.9,69.5,50.5,70.3,50.5L70.3,50.5z"/>
	<path fill="#DB1E37" d="M70.3,53.1c-0.9-0.1-1.5-0.7-1.5-1.4c0-1.5,3.1-1.3,3.1,0.2C71.8,52.6,71.2,53.1,70.3,53.1L70.3,53.1z
		 M70.3,50.6c-0.7-0.1-1.4,0.4-1.4,1c0,1.2,2.7,1.4,2.7,0.2C71.6,51.2,71,50.7,70.3,50.6L70.3,50.6z"/>
	<path fill="#FFFFFF" d="M70.3,46.3c0.8,0.1,1.5,0.6,1.5,1.4c0,0.7-0.7,1.2-1.5,1.1c-0.8-0.1-1.4-0.7-1.4-1.3
		C68.9,46.8,69.5,46.3,70.3,46.3C70.3,46.3,70.3,46.3,70.3,46.3z"/>
	<path fill="#DB1E37" d="M70.3,48.9c-0.9-0.1-1.5-0.7-1.5-1.4c0-1.5,3.1-1.3,3.1,0.2C71.8,48.5,71.2,49,70.3,48.9L70.3,48.9z
		 M70.3,46.5c-0.7-0.1-1.4,0.3-1.4,1c0,1.2,2.7,1.4,2.7,0.2C71.6,47,71,46.5,70.3,46.5L70.3,46.5z"/>
	<path fill="#FFFFFF" d="M66.1,69.6c0.9,0.1,1.5,0.7,1.5,1.4c0,0.7-0.6,1.2-1.5,1.1c-0.8-0.1-1.4-0.7-1.4-1.4
		C64.6,70,65.3,69.5,66.1,69.6L66.1,69.6z"/>
	<path fill="#DB1E37" d="M66.1,72.1c-0.8-0.1-1.6-0.7-1.6-1.5c0-1.5,3.2-1.3,3.2,0.3C67.7,71.7,67,72.2,66.1,72.1L66.1,72.1z
		 M66.1,69.6c-0.7-0.1-1.3,0.4-1.3,1.1c0,1.2,2.7,1.5,2.7,0.2C67.4,70.3,66.9,69.7,66.1,69.6L66.1,69.6z"/>
	<path fill="#FFFFFF" d="M74,70.1c0.9,0.1,1.5,0.7,1.5,1.3c0,0.7-0.6,1.2-1.5,1.2c-0.8,0-1.5-0.7-1.5-1.3
		C72.5,70.6,73.2,70.1,74,70.1L74,70.1z"/>
	<path fill="#DB1E37" d="M74,72.7c-0.8,0-1.6-0.7-1.6-1.4c0-1.5,3.2-1.3,3.2,0.2C75.6,72.2,74.9,72.8,74,72.7L74,72.7z M74,70.2
		c-0.7,0-1.4,0.5-1.4,1.1c0,1.2,2.8,1.4,2.8,0.2C75.4,70.8,74.7,70.3,74,70.2L74,70.2z"/>
	<path fill="#FFFFFF" d="M66.6,67.5c2.3,0.2,4.6,0.3,6.9,0.5c-1.1,1.2-2.3,2.3-3.4,3.5C68.9,70.2,67.8,68.8,66.6,67.5z"/>
	<path fill="#DB1E37" d="M70.1,71.7c-1.2-1.4-2.4-2.7-3.6-4.1c2.3,0.1,4.7,0.2,7,0.3C72.4,69.2,71.2,70.4,70.1,71.7L70.1,71.7z
		 M73.4,68c-2.3-0.1-4.5-0.2-6.8-0.3c1.1,1.2,2.3,2.4,3.4,3.6C71.1,70.2,72.3,69.1,73.4,68L73.4,68z"/>
	<path fill="#FFFFFF" d="M70.1,69c1.1,0.1,1.9,0.9,1.9,1.8c0,0.9-0.8,1.6-1.9,1.6c-1.2-0.1-2-0.9-2-1.8C68.1,69.6,68.9,68.9,70.1,69
		L70.1,69z"/>
	<path fill="#DB1E37" d="M70.1,72.4c-1.2-0.1-2.1-0.9-2.1-2c0-1,1-1.7,2.1-1.6c1.1,0.1,2.1,0.9,2.1,1.9
		C72.1,71.8,71.2,72.5,70.1,72.4L70.1,72.4z M70.1,69.2c-1.1-0.1-1.9,0.5-1.9,1.4c0,1.7,3.7,2,3.7,0.3C71.9,70,71.1,69.2,70.1,69.2
		L70.1,69.2z"/>
	<path fill="#FFFFFF" d="M63,82.4c3.2,0.3,6.3,0.5,9.5,0.7c0.3,0,0.6,0.3,0.6,0.6c0,0.5,0,1,0,1.6c0,0.3-0.3,0.4-0.6,0.4
		c-3.2-0.2-6.3-0.4-9.5-0.7c-0.3,0-0.6-0.2-0.6-0.5c0-0.5,0-1,0-1.6C62.4,82.7,62.7,82.4,63,82.4L63,82.4z"/>
	<path fill="#DB1E37" d="M72.5,85.9c-3.2-0.2-6.3-0.4-9.5-0.7c-0.4,0-0.7-0.3-0.7-0.7c0-0.5,0-1,0-1.6c0-0.3,0.3-0.6,0.7-0.6
		c3.2,0.3,6.3,0.5,9.5,0.7c0.4,0,0.7,0.3,0.7,0.7c0,0.5,0,1,0,1.6C73.2,85.6,72.9,85.9,72.5,85.9L72.5,85.9z M63,82.6
		c-0.2,0.6-0.3,1.2-0.5,1.9c3.3,0.4,6.7,0.8,10,1.1c0.2,0,0.4-0.1,0.4-0.3c0-0.5,0-1,0-1.6C69.6,83.4,66.3,83,63,82.6L63,82.6z"/>
	<path fill="#FFFFFF" d="M76.3,81.4C75,81.3,74,82.2,74,83.4c0,0.6,0,1.2,0,1.8c0,1.2,1,2.2,2.3,2.3c1.3,0.1,2.3-0.9,2.3-2.1
		c0-0.6,0-1.2,0-1.8C78.6,82.5,77.6,81.5,76.3,81.4L76.3,81.4z M76.3,82.2c-0.8,0-1.3,0.7-1.3,1.6c0,0.4,0,0.7,0,1.1
		c0,1,0.6,1.8,1.3,1.8c0.8,0,1.4-0.7,1.4-1.6c0-0.4,0-0.7,0-1.1C77.7,83.1,77.1,82.3,76.3,82.2L76.3,82.2z"/>
	<path fill="#DB1E37" d="M76.3,87.7c-1.3-0.1-2.4-1.1-2.4-2.4c0-0.6,0-1.2,0-1.8c0-1.3,1.1-2.2,2.4-2.1c1.3,0.1,2.4,1.1,2.4,2.4
		c0,0.6,0,1.2,0,1.8C78.7,86.8,77.6,87.7,76.3,87.7L76.3,87.7z M76.3,81.5c-1.2-0.1-2.1,0.8-2.1,1.9c0,0.6,0,1.2,0,1.8
		c0,1.1,0.9,2.1,2.1,2.2c1.3,0.1,2.2-0.8,2.2-2c0-0.6,0-1.2,0-1.8C78.5,82.5,77.6,81.6,76.3,81.5L76.3,81.5z M76.3,86.9
		c-0.8,0-1.5-0.9-1.5-1.9c0-0.4,0-0.7,0-1.1c0-1.1,0.7-1.8,1.5-1.7c0.9,0,1.5,0.8,1.5,1.9c0,0.4,0,0.7,0,1.1
		C77.8,86.2,77.1,86.9,76.3,86.9L76.3,86.9z M76.3,82.3c-0.7,0-1.3,0.7-1.3,1.5c0,0.4,0,0.7,0,1.1c0,1.8,2.6,1.9,2.6,0.1
		c0-0.4,0-0.7,0-1.1C77.6,83.1,77,82.4,76.3,82.3L76.3,82.3z"/>
	<path fill="#FFFFFF" d="M64.3,81c-0.8-0.1-1.4,0.6-1.4,1.6c0,0.7,0,1.3,0,2c0,0.9,0.6,1.8,1.4,1.8c0.8,0.1,1.4-0.7,1.4-1.6
		c0-0.7,0-1.3,0-2C65.7,81.8,65,81.1,64.3,81L64.3,81z M64.3,80.1c-1.3-0.1-2.3,0.8-2.3,2c0,0.9,0,1.8,0,2.6c0,1.2,1,2.3,2.3,2.4
		c1.3,0.1,2.3-0.8,2.3-2c0-0.9,0-1.8,0-2.6C66.6,81.3,65.5,80.3,64.3,80.1L64.3,80.1z"/>
	<path fill="#DB1E37" d="M64.3,87.2c-1.3-0.1-2.4-1.2-2.4-2.5c0-0.9,0-1.8,0-2.6c0-1.3,1.1-2.2,2.4-2.1c1.3,0.1,2.5,1.2,2.5,2.5
		c0,0.9,0,1.8,0,2.6C66.7,86.4,65.6,87.3,64.3,87.2L64.3,87.2z M64.3,80.3c-1.2-0.1-2.2,0.7-2.2,1.9c0,0.9,0,1.8,0,2.6
		c0,1.2,0.9,2.2,2.2,2.3c1.3,0.1,2.2-0.7,2.2-1.9c0-0.9,0-1.8,0-2.6C66.4,81.4,65.5,80.4,64.3,80.3C64.3,80.3,64.3,80.3,64.3,80.3z
		 M64.3,86.4c-0.8-0.1-1.5-0.9-1.5-1.9c0-0.7,0-1.3,0-2c0-1,0.7-1.7,1.5-1.6c0.8,0.1,1.5,0.9,1.5,1.9c0,0.7,0,1.3,0,2
		C65.8,85.8,65.1,86.5,64.3,86.4L64.3,86.4z M64.3,81C63.5,81,63,81.7,63,82.6c0,0.7,0,1.3,0,2c0,1.8,2.5,1.9,2.5,0.2
		c0-0.7,0-1.3,0-2C65.5,82,65,81.1,64.3,81L64.3,81z"/>
	<path fill="#FFFFFF" d="M60.6,81.4c-0.7-0.1-1.4,0.6-1.4,1.6c0,0.2,0,0.3,0,0.5c0,1,0.6,1.8,1.4,1.9c0.7,0.1,1.4-0.6,1.4-1.6
		c0-0.2,0-0.3,0-0.5C61.9,82.3,61.3,81.5,60.6,81.4L60.6,81.4z M60.6,80.7c-1.3-0.1-2.3,0.7-2.3,1.9c0,0.4,0,0.8,0,1.2
		c0,1.2,1,2.3,2.3,2.4c1.3,0.1,2.3-0.8,2.3-2c0-0.4,0-0.8,0-1.2C62.8,81.8,61.9,80.8,60.6,80.7L60.6,80.7z"/>
	<path fill="#DB1E37" d="M60.6,86.3c-1.3-0.1-2.4-1.2-2.4-2.5c0-0.4,0-0.8,0-1.2c0-1.2,1.1-2.1,2.4-2c1.4,0.1,2.5,1.2,2.5,2.4
		c0,0.4,0,0.8,0,1.2C63,85.5,61.9,86.4,60.6,86.3L60.6,86.3z M60.6,80.7c-1.2-0.1-2.2,0.7-2.2,1.9c0,0.4,0,0.8,0,1.2
		c0,1.1,1,2.2,2.2,2.3c1.2,0.1,2.2-0.7,2.2-1.9c0-0.4,0-0.8,0-1.2C62.7,81.9,61.8,80.8,60.6,80.7L60.6,80.7z M60.6,85.5
		c-0.8-0.1-1.5-1-1.5-2c0-3,3-2.2,3-0.2C62.1,84.8,61.4,85.5,60.6,85.5L60.6,85.5z M60.6,81.6c-0.7-0.1-1.3,0.6-1.3,1.5
		c0,2.7,2.5,2.4,2.5,0.7C61.8,82.4,61.3,81.6,60.6,81.6L60.6,81.6z"/>
	<path fill="#FFFFFF" d="M55,79.8c-1.3-0.1-2.5,0.6-2.5,1.6c0,0.7,0,1.4,0,2.1c0,1.1,1.1,2.1,2.5,2.2c1.4,0.2,2.5-0.6,2.5-1.7
		c0-0.7,0-1.4,0-2.1C57.5,80.9,56.4,79.9,55,79.8L55,79.8z M55,78.8c-2.3-0.3-4.1,0.6-4.1,1.9c0,1,0,2,0,3c0,1.3,1.8,2.7,4.1,2.9
		c2.4,0.3,4.2-0.7,4.2-2c0-1,0-2,0-3C59.2,80.4,57.4,79.1,55,78.8L55,78.8z"/>
	<path fill="#DB1E37" d="M55,86.8c-2.3-0.3-4.2-1.6-4.2-3.1c0-1,0-2,0-3c0-1.3,1.9-2.3,4.2-2c2.4,0.3,4.3,1.6,4.3,3c0,1,0,2,0,3
		C59.3,86.1,57.4,87.1,55,86.8L55,86.8z M55,78.9c-2.2-0.2-4,0.6-4,1.8c0,1,0,2,0,3c0,1.3,1.8,2.6,4,2.8c2.3,0.2,4.1-0.6,4.1-1.9
		c0-1,0-2,0-3C59.1,80.4,57.3,79.2,55,78.9L55,78.9z M55,85.9c-1.5-0.2-2.6-1.3-2.6-2.4c0-0.7,0-1.4,0-2.1c0-1.1,1.2-1.9,2.6-1.7
		c1.4,0.2,2.6,1.2,2.6,2.3c0,0.7,0,1.4,0,2.1C57.6,85.2,56.4,86.1,55,85.9L55,85.9z M55,79.9c-1.3-0.1-2.3,0.5-2.3,1.5
		c0,0.7,0,1.4,0,2.1c0,1,1.1,2,2.3,2.1c1.3,0.1,2.4-0.6,2.4-1.6c0-0.7,0-1.4,0-2.1C57.4,80.9,56.3,80,55,79.9L55,79.9z"/>
	<path fill="#FFFFFF" d="M85.1,82.3c-1.4,0-2.5,0.7-2.5,1.9c0,0.7,0,1.4,0,2.1c0,1.1,1.1,1.9,2.5,2c1.4,0,2.5-0.8,2.5-1.8
		c0-0.7,0-1.4,0-2.1C87.6,83.2,86.5,82.3,85.1,82.3L85.1,82.3z M85.1,81.4c-2.3-0.1-4.2,0.9-4.2,2.2c0,1,0,2,0,3
		c0,1.3,1.9,2.5,4.2,2.6c2.3,0.1,4.2-1,4.2-2.3c0-1,0-2,0-3C89.3,82.6,87.4,81.5,85.1,81.4L85.1,81.4z"/>
	<path fill="#DB1E37" d="M85.1,89.3c-2.4-0.1-4.3-1.3-4.3-2.7c0-1,0-2,0-3c0-1.4,1.9-2.4,4.3-2.3c2.4,0.1,4.3,1.2,4.3,2.6
		c0,1,0,2,0,3C89.4,88.4,87.5,89.4,85.1,89.3L85.1,89.3z M85.1,81.5c-2.3-0.1-4,0.9-4,2.1c0,1,0,2,0,3c0,1.2,1.8,2.4,4,2.4
		c2.2,0.1,4-0.9,4-2.2c0-1,0-2,0-3C89.1,82.6,87.3,81.6,85.1,81.5L85.1,81.5z M85.1,88.4c-1.5,0-2.7-1.1-2.7-2.2c0-0.7,0-1.4,0-2.1
		c0-1.1,1.2-2,2.7-1.9c1.4,0,2.6,1,2.6,2.1c0,0.7,0,1.4,0,2.1C87.7,87.6,86.5,88.5,85.1,88.4L85.1,88.4z M85.1,82.4
		c-1.3,0-2.4,0.7-2.4,1.7c0,0.7,0,1.4,0,2.1c0,1,1.1,1.8,2.4,1.9c1.3,0,2.4-0.7,2.4-1.7c0-0.7,0-1.4,0-2.1
		C87.5,83.3,86.4,82.5,85.1,82.4L85.1,82.4z"/>
	<path fill="#FFFFFF" d="M77.6,83.5c1.6,0.1,3.3,0.2,4.9,0.2c0.2,0,0.3,0.3,0.3,0.5c0,0.5,0,1,0,1.6c0,0.3-0.1,0.4-0.3,0.4
		c-1.6-0.1-3.3-0.1-4.9-0.2c-0.2,0-0.4-0.2-0.4-0.5c0-0.5,0-1,0-1.6C77.2,83.7,77.4,83.5,77.6,83.5L77.6,83.5z"/>
	<path fill="#DB1E37" d="M82.5,86.4c-1.7-0.1-3.3-0.1-5-0.2c-0.1-0.2-0.2-0.4-0.3-0.6c0-0.6,0-1.1,0-1.7c0.1-0.2,0.3-0.3,0.4-0.5
		c1.7,0.1,3.4,0.2,5.1,0.2c0.1,0.2,0.2,0.4,0.2,0.6c0,0.6,0,1.2,0,1.7C82.7,86.1,82.6,86.2,82.5,86.4L82.5,86.4z M77.6,83.6
		c-0.1,0.6-0.1,1.3-0.2,1.9c1.7,0.2,3.4,0.5,5.1,0.7c0.1-0.1,0.1-0.3,0.2-0.4c0-0.5,0-1,0-1.6C81,84,79.3,83.8,77.6,83.6L77.6,83.6z
		"/>
	<path fill="#FFFFFF" d="M72.3,82.8c1,0.1,1.9,0.1,2.9,0.2c0.1,0,0.2,0.2,0.2,0.6c0,0.7,0,1.4,0,2.2c0,0.3,0,0.6-0.2,0.5
		c-1-0.1-1.9-0.1-2.9-0.2c-0.1,0-0.2-0.2-0.2-0.6c0-0.7,0-1.4,0-2.2C72.1,83,72.2,82.8,72.3,82.8L72.3,82.8z"/>
	<path fill="#DB1E37" d="M75.2,86.4c-1-0.1-1.9-0.1-2.9-0.2c-0.2,0-0.3-0.4-0.3-0.7c0-0.7,0-1.4,0-2.2c0-0.4,0.1-0.7,0.3-0.7
		c1,0.1,1.9,0.1,2.9,0.2c0.2,0,0.3,0.4,0.3,0.8c0,0.7,0,1.4,0,2.2C75.5,86.1,75.5,86.4,75.2,86.4L75.2,86.4z M72.3,82.9
		c0,0.9,0,1.7-0.1,2.6c1,0.2,2,0.4,2.9,0.6c0-0.9,0.1-1.7,0.1-2.6C74.3,83.4,73.3,83.2,72.3,82.9L72.3,82.9z"/>
	<path fill="#FFFFFF" d="M57.1,81.6c0.9,0.1,1.9,0.2,2.8,0.3c0.1,0,0.3,0.2,0.2,0.6c0,0.7,0,1.4,0,2.2c0,0.3-0.1,0.5-0.2,0.5
		c-0.9-0.1-1.9-0.2-2.8-0.3c-0.1,0-0.2-0.2-0.2-0.6c0-0.7,0-1.4,0-2.2C56.9,81.7,56.9,81.5,57.1,81.6L57.1,81.6z"/>
	<path fill="#DB1E37" d="M59.9,85.2c-0.9-0.1-1.9-0.2-2.8-0.3c-0.2,0-0.3-0.4-0.3-0.7c0-0.7,0-1.4,0-2.2c0-0.4,0.1-0.7,0.3-0.7
		c0.9,0.1,1.9,0.2,2.8,0.3c0.3,0,0.4,0.4,0.4,0.8c0,0.7,0,1.4,0,2.2C60.2,84.9,60.1,85.3,59.9,85.2L59.9,85.2z M57.1,81.7
		c0,0.9-0.1,1.7-0.1,2.6c1,0.2,2,0.5,3,0.7c0-0.9,0-1.7,0.1-2.6C59,82.2,58,81.9,57.1,81.7L57.1,81.7z"/>
	<path fill="#FFFFFF" d="M47.1,79.9c1.9,0.3,3.8,0.5,5.7,0.7c0.2,0,0.4,0.4,0.4,0.8c0,0.9,0,1.8,0,2.7c0,0.4-0.1,0.7-0.4,0.7
		c-1.9-0.2-3.8-0.5-5.7-0.7c-0.2,0-0.4-0.4-0.4-0.7c0-0.9,0-1.8,0-2.7C46.7,80.2,46.8,79.9,47.1,79.9L47.1,79.9z"/>
	<path fill="#DB1E37" d="M52.8,84.9c-1.9-0.2-3.8-0.5-5.7-0.7c-0.3,0-0.5-0.4-0.5-0.9c0-0.9,0-1.8,0-2.7c0-0.5,0.1-0.8,0.5-0.8
		c1.9,0.3,3.8,0.5,5.7,0.7c0.3,0,0.5,0.4,0.5,0.9c0,0.9,0,1.8,0,2.7C53.3,84.6,53.1,84.9,52.8,84.9C52.8,84.9,52.8,84.9,52.8,84.9z
		 M47.1,80c-0.1,0-0.2,0.3-0.2,0.6c0,0.9,0,1.8,0,2.7c0,0.3,0.1,0.6,0.2,0.6c1.9,0.3,3.8,0.5,5.7,0.7c0.1,0,0.2-0.2,0.2-0.6
		c0-0.9,0-1.8,0-2.7c0-0.3-0.1-0.6-0.2-0.7C50.9,80.5,49,80.3,47.1,80L47.1,80z"/>
	<path fill="#FFFFFF" d="M87.3,83.5c1.8,0.1,3.6,0.1,5.4,0.1c0.2,0,0.3,0.3,0.3,0.7c0,0.9,0,1.8,0,2.7c0,0.4-0.1,0.8-0.3,0.8
		c-1.8,0-3.6-0.1-5.4-0.1c-0.2,0-0.4-0.3-0.4-0.8c0-0.9,0-1.8,0-2.7C86.9,83.8,87.1,83.5,87.3,83.5L87.3,83.5z"/>
	<path fill="#DB1E37" d="M92.7,87.9c-1.8,0-3.6-0.1-5.4-0.1c-0.3,0-0.5-0.4-0.5-0.8c0-0.9,0-1.8,0-2.7c0-0.5,0.2-0.9,0.5-0.9
		c1.8,0.1,3.6,0.1,5.4,0.1c0.3,0,0.4,0.4,0.4,0.9c0,0.9,0,1.8,0,2.7C93.1,87.5,92.9,87.9,92.7,87.9L92.7,87.9z M87.3,83.6
		c-0.1,0-0.2,0.2-0.2,0.6c0,0.9,0,1.8,0,2.7c0,0.4,0.1,0.6,0.2,0.6c1.8,0.1,3.6,0.1,5.4,0.1c0,0,0.2-0.2,0.2-0.6c0-0.9,0-1.8,0-2.7
		c0-0.4-0.1-0.6-0.2-0.6C90.9,83.7,89.1,83.7,87.3,83.6L87.3,83.6z"/>
</g>
</svg>
