<svg version="1.1" id="pak" name="pakistan" xmlns="http://www.w3.org/2000/svg" xmlns:xlink="http://www.w3.org/1999/xlink" x="0px" y="0px"
	 viewBox="0 0 480 320" enable-background="new 0 0 480 320" xml:space="preserve">
<g id="flag-pak">
	<path fill="#FFFFFF" d="M0,300c160,44.8,320-44.8,480,0c0-93.4,0-186.7,0-280.1C320-24.8,160,64.8,0,20C0,113.3,0,206.7,0,300z"/>
	<path fill="#2F6B35" d="M119.9,312.6c120-4.2,240-46.2,360.1-12.6c0-93.4,0-186.7,0-280.1c-120-33.6-240,8.4-360.1,12.6
		C119.9,125.9,119.9,219.3,119.9,312.6z"/>
</g>
<g id="crest">
	<path fill="#FFFFFF" d="M292.4,69c46.3-5.9,83.8,31.5,83.8,78c0,46.3-37.5,84-83.8,90c-46.3,5.8-83.8-26.1-83.8-72.7
		C208.6,118.1,246.1,74.9,292.4,69"/>
	<path fill="#2F6B35" d="M262.8,80.1c31.7-32.8,80.2-35.1,108.5-3.2c28.2,31.9,25.4,80.3-6.4,108.8c-31.7,28.7-80.3,31.7-108.5,4
		C228.2,162,231.1,112.8,262.8,80.1"/>
	<path fill="#FFFFFF" d="M355.1,91.8c-8.5,4.1-17,8.4-25.6,12.8c1.9,4.1,3.7,8.3,5.6,12.4C341.8,108.5,348.4,100.1,355.1,91.8z"/>
	<path fill="#FFFFFF" d="M355.1,91.8c-4.7,8.2-9.4,16.5-14.1,24.9c-4-2.1-8.1-4.2-12.1-6.2C337.6,104.1,346.3,97.9,355.1,91.8z"/>
	<path fill="#FFFFFF" d="M358.3,124.4c-6.2-6.8-12.4-13.4-18.6-20c-3.5,3.3-6.9,6.7-10.4,10.1C339,117.6,348.7,120.9,358.3,124.4z"
		/>
	<path fill="#FFFFFF" d="M358.3,124.4c-9.1-1.7-18.2-3.1-27.3-4.4c1-4.6,2-9.2,3-13.8C342.1,112.1,350.2,118.2,358.3,124.4z"/>
	<path fill="#FFFFFF" d="M323,86.9c0.9,9.2,1.9,18.4,2.8,27.6c4.6-0.8,9.2-1.6,13.9-2.4C334.1,103.6,328.6,95.2,323,86.9z"/>
	<path fill="#FFFFFF" d="M323,86.9c6.2,6.4,12.4,12.9,18.6,19.5c-3.5,3.3-7,6.7-10.5,10C328.4,106.6,325.7,96.7,323,86.9z"/>
	<path fill="#FFFFFF" d="M328.2,139.5c4.7-8.5,9.4-16.9,14.1-25.2c-4-2.1-8-4.1-12.1-6.2C329.6,118.5,328.9,129,328.2,139.5z"/>
	<path fill="#FFFFFF" d="M328.2,139.5c-0.9-9.2-1.9-18.4-2.8-27.6c4.6-0.9,9.3-1.7,13.9-2.5C335.7,119.4,331.9,129.4,328.2,139.5z"
		/>
	<path fill="#FFFFFF" d="M306.4,117c9.1,1,18.2,2.1,27.3,3.4c1-4.6,2-9.2,2.9-13.9C326.6,109.8,316.5,113.3,306.4,117z"/>
	<path fill="#FFFFFF" d="M306.4,117c8.5-4.7,17-9.2,25.6-13.6c1.9,4.1,3.7,8.3,5.6,12.4C327.2,116,316.8,116.4,306.4,117z"/>
</g>
</svg>
