<svg version="1.1" id="phl" name="philippines" xmlns="http://www.w3.org/2000/svg" xmlns:xlink="http://www.w3.org/1999/xlink" x="0px" y="0px"
	 viewBox="0 0 480 320" enable-background="new 0 0 480 320" xml:space="preserve">
<g id="flag-phl">
	<path fill="#304197" d="M0,160c160,44.8,320-44.8,480,0c0-46.7,0-93.3,0-140C320-24.8,160,64.8,0,20C0,66.7,0,113.3,0,160z"/>
	<path fill="#BC2035" d="M0,300c160,44.8,320-44.8,480,0c0-46.7,0-93.3,0-140c-160-44.8-320,44.8-480,0C0,206.7,0,253.3,0,300z"/>
	<path fill="#FFFFFF" d="M0,20c0,93.3,0,186.7,0,280c81.2-23.9,162.5-82.5,243.7-140.5C162.5,124.2,81.2,89.4,0,20z"/>
</g>
<g id="crest">
	<path fill="#F4D130" d="M32.9,280.5c-3.6-2.7-7.2-5.5-10.8-8.4c-3.1,2.2-6.2,4.3-9.3,6.4c0.9-3.9,1.8-7.8,2.6-11.6
		C11.8,264,8.2,261,4.6,258c4.2,0.7,8.3,1.3,12.5,1.7c0.8-3.9,1.7-7.8,2.5-11.7c1.7,4.2,3.4,8.3,5,12.5c4.2,0.4,8.3,0.6,12.5,0.8
		c-3.1,2.3-6.2,4.5-9.4,6.7C29.5,272.3,31.2,276.4,32.9,280.5z"/>
	<path fill="#F4D130" d="M65.8,146.2c-3-5.5-6.1-11-9.1-16.5c-1.8-0.4-3.5-0.8-5.3-1.2c4.2,6.4,8.3,12.8,12.5,19
		C64.5,147.1,65.1,146.7,65.8,146.2z M58.7,152.7c-6.4-5.5-12.8-11.3-19.1-17.1c-0.2-2.9-0.5-5.8-0.7-8.7c2.6,0.3,5.2,0.6,7.8,0.8
		c5.3,7.2,10.6,14.2,15.9,21.2C61.2,150.2,59.9,151.5,58.7,152.7z M55.8,155.8c-5.3-3.5-10.5-7.2-15.8-11c-0.2-1.8-0.4-3.5-0.6-5.3
		c6,5,11.9,9.8,17.9,14.5C56.7,154.6,56.2,155.2,55.8,155.8z"/>
	<path fill="#F4D130" d="M88.3,144.2c1.6-5.8,3.2-11.6,4.8-17.4c-1.1-1.4-2.2-2.8-3.3-4.2c-1.3,7.1-2.6,14.2-3.9,21.2
		C86.7,144,87.5,144.1,88.3,144.2z M78.3,143.8c-1-8.1-2-16.1-3-24.2c1.9-2.1,3.8-4.2,5.7-6.2c1.9,1.9,3.7,3.7,5.6,5.6
		c-0.9,8.3-1.8,16.6-2.7,24.8C82,143.8,80.1,143.8,78.3,143.8z M73.8,143.8c-1.6-5.9-3.2-11.9-4.7-17.8c1.1-1.3,2.2-2.6,3.3-3.9
		c1.3,7.2,2.5,14.4,3.8,21.6C75.4,143.7,74.6,143.8,73.8,143.8z"/>
	<path fill="#F4D130" d="M106.6,158.5c5.3-3,10.6-6,15.9-9.2c0.2-1.7,0.5-3.5,0.7-5.2c-6,4.3-12,8.4-18.1,12.5
		C105.7,157.2,106.1,157.8,106.6,158.5z M99.6,151.2c5.1-6.2,10.2-12.6,15.3-19c2.9-0.2,5.7-0.5,8.6-0.7c0,2.6,0,5.2,0.1,7.8
		c-6.6,5.4-13.2,10.7-19.8,15.8C102.4,153.8,101,152.5,99.6,151.2z M96.3,148.2c3.1-5.1,6.2-10.3,9.3-15.5c1.7-0.2,3.5-0.4,5.2-0.6
		c-4.2,5.9-8.5,11.8-12.7,17.6C97.6,149.2,97,148.7,96.3,148.2z"/>
	<path fill="#F4D130" d="M109.4,180.4c5.8,1.5,11.7,2.9,17.5,4.2c1.4-1.2,2.7-2.3,4.1-3.5c-7.1-0.9-14.2-2-21.3-3.1
		C109.6,178.8,109.5,179.6,109.4,180.4z M109.5,170.3c8-1.1,16-2.4,24-3.9c2.2,1.8,4.3,3.5,6.5,5.2c-1.8,2-3.6,4-5.4,6
		c-8.3-0.4-16.6-1-24.9-1.8C109.7,174,109.6,172.2,109.5,170.3z M109.2,165.8c5.8-1.7,11.7-3.4,17.5-5.3c1.4,1,2.8,2,4.1,3
		c-7.1,1.7-14.2,3.2-21.3,4.7C109.4,167.4,109.3,166.6,109.2,165.8z"/>
	<path fill="#F4D130" d="M96.1,198.2c3.1,5.2,6.1,10.4,9.2,15.6c1.7,0.2,3.5,0.4,5.2,0.5c-4.2-5.8-8.4-11.7-12.6-17.6
		C97.4,197.2,96.7,197.7,96.1,198.2z M103.2,191c6.4,4.9,12.8,9.6,19.2,14.3c0.2,2.8,0.5,5.7,0.7,8.5c-2.6,0.2-5.2,0.4-7.7,0.6
		c-5.3-6.3-10.6-12.7-15.9-19.2C100.7,193.8,102,192.4,103.2,191z M106.1,187.6c5.3,2.9,10.5,5.7,15.8,8.5c0.2,1.7,0.5,3.5,0.7,5.2
		c-6-3.8-12-7.7-18-11.7C105.1,188.9,105.6,188.3,106.1,187.6z"/>
	<path fill="#F4D130" d="M73.6,200.7c-1.5,5.7-3.1,11.5-4.6,17.2c1.1,1.5,2.2,2.9,3.3,4.4c1.2-7,2.5-14.1,3.7-21.2
		C75.2,201,74.4,200.9,73.6,200.7z M83.7,201.2c1,8,2.1,16.1,3.1,24.1c-1.9,2.1-3.7,4.3-5.6,6.4c-1.9-1.9-3.8-3.7-5.7-5.6
		c0.8-8.3,1.7-16.5,2.5-24.8C80,201.2,81.8,201.2,83.7,201.2z M88.2,201c1.6,5.9,3.2,11.7,4.8,17.6c-1.1,1.4-2.1,2.7-3.2,4.1
		c-1.3-7.1-2.6-14.3-4-21.4C86.6,201.2,87.4,201.1,88.2,201z"/>
	<path fill="#F4D130" d="M55.4,185.4c-5.2,2.4-10.5,4.7-15.7,6.9c-0.2,1.7-0.5,3.4-0.7,5.1c6-3.2,11.9-6.5,17.9-10
		C56.4,186.8,55.9,186.1,55.4,185.4z M62.5,193.3c-5,5.9-10,11.7-15,17.4c-2.9-0.2-5.7-0.4-8.6-0.6c-0.1-2.6-0.1-5.2-0.2-7.8
		c6.5-4.2,13.1-8.6,19.6-13.1C59.7,190.5,61.1,191.9,62.5,193.3z M65.8,196.5c-3,5-6,10-9.1,14.9c-1.8,0-3.5,0-5.3,0
		c4.1-5.4,8.3-10.9,12.4-16.5C64.6,195.5,65.2,196,65.8,196.5z"/>
	<path fill="#F4D130" d="M52.3,163c-5.8-2.2-11.7-4.6-17.5-7.1c-1.4,0.9-2.8,1.7-4.2,2.5c7.1,2.5,14.3,4.8,21.4,6.9
		C52.1,164.5,52.2,163.8,52.3,163z M52.4,173.1c-8,0.1-16-0.1-24-0.5c-2.2-2.3-4.4-4.6-6.6-6.9c1.8-1.5,3.5-3.1,5.3-4.7
		c8.3,2.4,16.6,4.5,24.9,6.3C52.1,169.3,52.2,171.2,52.4,173.1z M52.7,177.6c-5.8,0.9-11.7,1.7-17.5,2.4c-1.4-1.3-2.8-2.6-4.2-4
		c7.1-0.1,14.2-0.3,21.3-0.8C52.5,175.9,52.6,176.7,52.7,177.6z"/>
	<path fill="#F4D130" d="M80.9,143c16.3,0.7,29.5,13.5,29.5,29.9c0,16.3-13.2,29.9-29.5,29.2c-16.3-0.7-29.5-15.7-29.5-32
		C51.4,153.8,64.6,142.3,80.9,143"/>
	<path fill="#F4D130" d="M182.5,177.8c2.5-3.7,5-7.3,7.4-11c-2.5-3.1-5-6.1-7.5-9.2c4,0.8,7.9,1.7,11.9,2.5
		c2.4-3.7,4.9-7.4,7.3-11.1c0,4.2,0,8.4-0.1,12.5c4,0.8,8,1.5,11.9,2.2c-4,1.8-8,3.6-11.9,5.4c0,4.2,0.1,8.4,0.1,12.6
		c-2.4-3.1-4.9-6.1-7.3-9.2C190.5,174.2,186.5,176,182.5,177.8z"/>
	<path fill="#F4D130" d="M32.9,51.3c-3.6,1.5-7.2,2.9-10.8,4.3c-3.1-3.5-6.2-7-9.3-10.5c0.9,4.3,1.8,8.6,2.6,12.9
		c-3.6,1.2-7.3,2.4-10.9,3.5c4.2,1.5,8.3,2.9,12.5,4.3c0.8,4.3,1.7,8.6,2.5,12.8c1.7-3.5,3.4-6.9,5-10.4c4.2,1.3,8.3,2.5,12.5,3.6
		c-3.1-3.3-6.2-6.6-9.4-9.9C29.5,58.3,31.2,54.8,32.9,51.3z"/>
</g>
</svg>
