<svg version="1.1" id="prk" name="north korea" xmlns="http://www.w3.org/2000/svg" xmlns:xlink="http://www.w3.org/1999/xlink" x="0px" y="0px"
	 viewBox="0 0 480 320" enable-background="new 0 0 480 320" xml:space="preserve">
<g id="flag-prk">
	<path fill="#2D4E9D" d="M0,66.6c160,44.8,320-44.8,480,0c0-15.5,0-31.1,0-46.6C320-24.8,160,64.8,0,20C0,35.6,0,51.1,0,66.6z"/>
	<path fill="#2D4E9D" d="M0,300c160,44.8,320-44.8,480,0c0-15.5,0-31.1,0-46.6c-160-44.8-320,44.8-480,0C0,268.9,0,284.4,0,300z"/>
	<path fill="#D91F35" d="M0,245.6c160,44.8,320-44.8,480,0c0-57.1,0-114.1,0-171.2c-160-44.8-320,44.8-480,0
		C0,131.5,0,188.5,0,245.6z"/>
	<path fill="#FFFFFF" d="M0,74.4c160,44.8,320-44.8,480,0c0-2.6,0-5.2,0-7.8c-160-44.8-320,44.8-480,0C0,69.2,0,71.8,0,74.4z"/>
	<path fill="#FFFFFF" d="M0,253.4c160,44.8,320-44.8,480,0c0-2.6,0-5.2,0-7.8c-160-44.8-320,44.8-480,0C0,248.2,0,250.8,0,253.4z"/>
</g>
<g id="crest">
	<path fill="#FFFFFF" d="M186.6,104.9c34.4-4.2,62.2,19.4,62.2,53.8c0,34.3-27.8,66.4-62.2,70.6c-34.4,4.3-62.2-22.5-62.2-56.9
		C124.4,138.1,152.3,109.2,186.6,104.9"/>
	<path fill="#D91F35" d="M186.6,106.8c4.5,13.3,9,26.6,13.6,39.9c14.6-1.9,29.2-3.9,43.8-6c-11.8,10.2-23.6,20.5-35.4,30.6
		c4.5,13.3,9,26.6,13.5,39.9c-11.8-7-23.6-14-35.4-21.2c-11.8,10-23.6,19.9-35.4,29.4c4.5-14.3,9-28.6,13.5-43
		c-11.8-7.4-23.6-15.1-35.4-23.1c14.6-0.7,29.2-2,43.8-3.6C177.6,135.6,182.1,121.2,186.6,106.8z"/>
</g>
</svg>
