<?xml version="1.0" encoding="utf-8"?>
<!-- Generator: Adobe Illustrator 28.2.0, SVG Export Plug-In . SVG Version: 6.00 Build 0)  -->
<svg version="1.1" id="rus" xmlns="http://www.w3.org/2000/svg" xmlns:xlink="http://www.w3.org/1999/xlink" x="0px" y="0px"
	 viewBox="0 0 480 320" enable-background="new 0 0 480 320" xml:space="preserve">
<g id="flag-rus">
	<path fill="#FFFFFF" d="M0,20c160,44.8,320-44.8,480,0c0,93.4,0,186.7,0,280.1c-160-44.8-320,44.8-480,0C0,206.7,0,113.3,0,20z"/>
	<path fill="#314295" d="M0,206.7c160,44.8,320-44.8,480,0c0-31.1,0-62.2,0-93.4c-160-44.8-320,44.8-480,0C0,144.4,0,175.6,0,206.7z
		"/>
	<path fill="#D72327" d="M0,300c160,44.8,320-44.8,480,0c0-31.1,0-62.2,0-93.3c-160-44.8-320,44.8-480,0C0,237.8,0,268.9,0,300z"/>
</g>
</svg>
