<svg version="1.1" id="svk" name="slovakia" xmlns="http://www.w3.org/2000/svg" xmlns:xlink="http://www.w3.org/1999/xlink" x="0px" y="0px"
	 viewBox="0 0 480 320" enable-background="new 0 0 480 320" xml:space="preserve">
<g id="flag-svk">
	<path fill="#FFFFFF" d="M0,300c160,44.8,320-44.8,480,0c0-93.3,0-186.7,0-280C320-24.8,160,64.8,0,20C0,113.3,0,206.7,0,300z"/>
	<path fill="#304197" d="M0,300c160,44.8,320-44.8,480,0c0-62.2,0-124.4,0-186.7c-160-44.8-320,44.8-480,0C0,175.6,0,237.8,0,300z"
		/>
	<path fill="#BC2035" d="M0,300c160,44.8,320-44.8,480,0c0-31.1,0-62.2,0-93.3c-160-44.8-320,44.8-480,0C0,237.8,0,268.9,0,300z"/>
</g>
<g id="crest">
	<path fill="#FFFFFF" d="M72.6,97.9c-5.6,0-4,7-4.7,10.8c-2,26.6-4.8,54.1,3.4,80.7c6.4,21.5,21.9,39.7,40.6,50.5
		c4.6,2.5,9.1,5.5,14.1,6.7c5.4-1.8,10.1-5.4,14.8-8.4c18.4-12.4,33.4-31.4,39.9-52.9c8.3-27.5,5.4-55.2,3.3-82.2
		c-0.3-3.7,0.3-10.3-5.3-9.2C143.3,97.8,108,100.1,72.6,97.9z"/>
	<path fill="#BC2035" d="M126,102.3c0,46.7,0,93.3,0,140C61.2,212.2,68.3,157.5,72.6,102C90.4,103.2,108.2,103.2,126,102.3z
		 M126,102.3c0,46.7,0,93.3,0,140c64.8-35.8,57.6-88.8,53.4-144.4C161.6,99.9,143.8,101.5,126,102.3z"/>
	<path fill="#FFFFFF" d="M133.5,140.4c6.8-0.4,13.8,0.4,20.4,1.1c-1.9-6.3-1.9-10.3,0-17c-6.7,1.9-13.6,3.7-20.4,4.1
		c-5,0.3-10.1,0.5-15.1,0.7c-6.8,0.2-13.7-0.9-20.4-2.3c2,6.5,2,10.5,0,17c6.7-1.3,13.7-2.6,20.4-2.9
		C123.4,140.9,128.5,140.6,133.5,140.4z"/>
	<path fill="#FFFFFF" d="M139.4,165.5c6.8-0.5,13.7,0.2,20.4,0.9c-2-6.3-2-10.3,0-17c-6.7,1.9-13.6,3.8-20.4,4.2
		c-8.9,0.6-17.9,1-26.8,1.2c-6.9,0.1-13.8-1.1-20.5-2.5c2,6.5,2,10.5,0,17c6.6-1.2,13.6-2.5,20.5-2.6
		C121.5,166.5,130.5,166.1,139.4,165.5z"/>
	<path fill="#FFFFFF" d="M117.4,108c1.4,6.6,2.7,13.5,2.7,20.3c0,28.9,0,57.8,0,86.7c3.9-0.1,7.9-0.3,11.8-0.5c0-28.9,0-57.8,0-86.7
		c0-6.8,1.2-13.7,2.6-20.5C128,109.6,124,109.8,117.4,108"/>
	<path fill="#304197" d="M99.1,194.3c-7.6,0-13.8,5.9-13.8,13.5c0,0.6,0,1.2,0.1,1.7c2.6,4,5.8,7.9,9.4,11.6
		c1.3,0.4,2.8,0.8,4.3,0.8c7.8,0,13.9-6.3,13.9-14C113,200.4,106.8,194.3,99.1,194.3"/>
	<path fill="#304197" d="M126,185.6c-9.8,0.4-17.7,8.4-17.7,18.2c0,9.7,7.9,17.5,17.7,17c9.7-0.4,17.7-8.9,17.7-18.6
		C143.7,192.4,135.7,185.1,126,185.6"/>
	<path fill="#304197" d="M152.9,192c-7.7,0.7-13.9,7.2-13.9,14.8c0,7.7,6.2,13.5,13.9,12.8c1.6-0.1,3-0.6,4.3-1.1
		c3.6-4,6.8-8.1,9.4-12.3c0.1-0.5,0.2-1.1,0.2-1.7C166.8,196.9,160.5,191.3,152.9,192"/>
	<path fill="#304197" d="M87.5,212.6c8.6,11.6,20.8,22,38.5,29.7c17.7-9.4,29.9-20.8,38.5-32.9C138.8,211.9,113.2,213.4,87.5,212.6z
		"/>
</g>
</svg>
