<?xml version="1.0" encoding="utf-8"?>
<!-- Generator: Adobe Illustrator 28.2.0, SVG Export Plug-In . SVG Version: 6.00 Build 0)  -->
<svg version="1.1" id="tto" xmlns="http://www.w3.org/2000/svg" xmlns:xlink="http://www.w3.org/1999/xlink" x="0px" y="0px"
	 viewBox="0 0 480 320" enable-background="new 0 0 480 320" xml:space="preserve">
<g id="flag-tto">
	<g>
		<path fill="#BC2035" d="M0,300c160,44.8,320-44.8,480,0c0-93.3,0-186.7,0-280C320-24.8,160,64.8,0,20C0,113.3,0,206.7,0,300z"/>
	</g>
	<g>
		<path fill="#FFFFFF" d="M0,20c111.1,124.4,222.1,184.1,333.2,268.9c48.9-3.8,97.9-2.6,146.8,11.1
			C368.9,175.6,257.9,115.9,146.8,31.1C97.9,34.8,48.9,33.7,0,20z"/>
	</g>
	<g>
		<path fill="#010101" d="M24.4,25.8c111.1,115.4,222.2,172.7,333.2,261.7c32.6-1.3,65.3,0.2,97.9,6.7
			C344.5,178.8,233.4,121.5,122.3,32.5C89.7,33.8,57.1,32.3,24.4,25.8z"/>
	</g>
</g>
</svg>
