<svg version="1.1" id="vct" name="saint vincent" xmlns="http://www.w3.org/2000/svg" xmlns:xlink="http://www.w3.org/1999/xlink" x="0px" y="0px"
	 viewBox="0 0 480 320" enable-background="new 0 0 480 320" xml:space="preserve">
<g id="flag-vct">
	<path fill="#4070B5" d="M0,300c160,44.8,320-44.8,480,0c0-93.3,0-186.7,0-280C320-24.8,160,64.8,0,20C0,113.3,0,206.7,0,300z"/>
	<path fill="#F4D130" d="M120,312.6c120-4.2,240-46.2,360-12.6c0-93.3,0-186.7,0-280c-120-33.6-240,8.4-360,12.6
		C120,125.9,120,219.3,120,312.6z"/>
	<path fill="#419D62" d="M360,287.4c40-1.4,80,1.4,120,12.6c0-93.3,0-186.7,0-280C440,8.8,400,6,360,7.4
		C360,100.7,360,194.1,360,287.4z"/>
	<path fill="#419D62" d="M213.8,229c8.7,16.3,17.4,32.5,26.2,48.7c8.7-18.7,17.4-37.3,26.2-56c-8.7-16.2-17.4-32.4-26.2-48.7
		C231.3,191.7,222.5,210.4,213.8,229z"/>
	<path fill="#419D62" d="M246.5,159.1c8.7,16.2,17.4,32.4,26.2,48.7c8.7-18.6,17.4-37.1,26.1-55.6c-8.7-16.4-17.4-32.8-26.1-49.1
		C264,121.8,255.3,140.4,246.5,159.1z"/>
	<path fill="#419D62" d="M181.1,167.8c8.7,16.4,17.4,32.8,26.1,49.1c8.7-18.6,17.5-37.2,26.2-55.9c-8.7-16.2-17.5-32.4-26.2-48.7
		C198.6,130.8,189.8,149.3,181.1,167.8z"/>
</g>
</svg>
