<svg version="1.1" id="are" name="united arabic emirates" xmlns="http://www.w3.org/2000/svg" xmlns:xlink="http://www.w3.org/1999/xlink" x="0px" y="0px"
	 viewBox="0 0 480 320" enable-background="new 0 0 480 320" xml:space="preserve">
<g id="flag-are">
	<path fill="#BC2035" d="M0,300c46.7,13.1,93.3,14.7,139.9,11.6c0-93.3,0-186.7,0-280C93.3,34.7,46.6,33,0,20C0,113.3,0,206.7,0,300
		z"/>
	<path fill="#419A45" d="M139.9,31.6C253.3,24,366.6-11.8,480,20c0,31.1,0,62.2,0,93.4c-113.4-31.7-226.7,4-340.1,11.6
		C139.9,93.8,139.9,62.7,139.9,31.6z"/>
	<path fill="#FFFFFF" d="M139.9,124.9c113.4-7.6,226.7-43.3,340.1-11.6c0,31.1,0,62.2,0,93.3c-113.4-31.7-226.7,4-340.1,11.6
		C139.9,187.1,139.9,156,139.9,124.9z"/>
	<path fill="#010101" d="M139.9,311.6C253.3,304,366.6,268.3,480,300c0-31.1,0-62.2,0-93.3c-113.4-31.7-226.7,4-340.1,11.6
		C139.9,249.4,139.9,280.5,139.9,311.6z"/>
</g>
</svg>
