<svg version="1.1" id="atg" name="antigua" xmlns="http://www.w3.org/2000/svg" xmlns:xlink="http://www.w3.org/1999/xlink" x="0px" y="0px"
	 viewBox="0 0 480 320" enable-background="new 0 0 480 320" xml:space="preserve">
<g id="flag-atg">
	<path fill="#FFFFFF" d="M0,300c160,44.8,320-44.8,480,0c0-93.3,0-186.6,0-280C320-24.8,160,64.8,0,20C0,113.3,0,206.7,0,300z"/>
	<path fill="#4070B5" d="M0,190.4c160,44.8,320-44.8,480,0c0-20.3,0-40.6,0-60.8c-160-44.8-320,44.8-480,0C0,149.8,0,170.1,0,190.4z
		"/>
	<path fill="#010101" d="M0,129.6c160,44.8,320-44.8,480,0c0-36.5,0-73,0-109.5C320-24.8,160,64.8,0,20C0,56.5,0,93,0,129.6z"/>
	<path fill="#BC2035" d="M480,20c-80,70.9-160,175.5-240,280C160,217.9,80,135.7,0,20c0,93.3,0,186.6,0,280c160,44.8,320-44.8,480,0
		C480,206.7,480,113.3,480,20z"/>
	<path fill="#F4D130" d="M285.7,114.3c12.9-10.2,25.8-20.3,38.7-30c-15.2,4.4-30.4,9.2-45.7,14.1c8.6-14,17.2-28,25.9-41.8
		c-12.9,10-25.8,20.3-38.7,30.7c3-15.6,6.1-31.2,9.1-46.9c-8.6,14-17.3,28.1-25.9,42.2C246,67.8,243,53,240,38.2
		c-3,15.6-6,31.3-9.1,46.9c-8.6-11.7-17.2-23.4-25.9-35.2c3,14.8,6,29.6,9.1,44.4c-12.9-6.9-25.8-13.8-38.7-21
		c8.6,12,17.2,23.8,25.8,35.6c-15.2-1.1-30.4-2.3-45.6-4c12.9,7.5,25.8,14.6,38.7,21.6c-15.2,4.9-30.4,9.6-45.7,13.9
		c60.9-4.8,121.7-17,182.6-21.9C316.1,116.8,300.9,115.4,285.7,114.3z"/>
</g>
</svg>
