<svg version="1.1" id="aze" name="azerbaijan" xmlns="http://www.w3.org/2000/svg" xmlns:xlink="http://www.w3.org/1999/xlink" x="0px" y="0px"
	 viewBox="0 0 480 320" enable-background="new 0 0 480 320" xml:space="preserve">
<path fill="#4590C3" d="M0,300c160,44.8,320-44.8,480,0c0-93.3,0-186.7,0-280C320-24.8,160,64.8,0,20C0,113.3,0,206.7,0,300z"/>
<path fill="#D41E43" d="M0,206.7c160,44.8,320-44.8,480,0c0-31.1,0-62.2,0-93.3c-160-44.8-320,44.8-480,0C0,144.5,0,175.6,0,206.7z"
	/>
<path fill="#48AD68" d="M0,300c160,44.8,320-44.8,480,0c0-31.1,0-62.2,0-93.3c-160-44.8-320,44.8-480,0C0,237.8,0,268.9,0,300z"/>
<g id="crest">
	<path fill="#FFFFFF" d="M249.5,191.4c-18.1,2.5-32.7-10.1-32.7-28.2c0-18,14.6-34.7,32.7-37.2c6.5-0.9,12.6,0.2,17.7,2.8
		c-7.1-6.3-17.1-9.4-28-7.9c-21.6,3.1-39.2,22.9-39.2,44.5c0,21.7,17.6,36.9,39.2,33.9c10.9-1.5,20.9-7.4,28-15.6
		C262.1,187.7,256,190.5,249.5,191.4"/>
	<path fill="#FFFFFF" d="M293.7,167.7c-3.6-1.2-7.1-2.4-10.7-3.6c-1.4,3.9-2.7,7.7-4.1,11.6c-1.4-3.5-2.8-7-4.1-10.5
		c-3.6,2.1-7.1,4.2-10.7,6.3c1.6-3.8,3.2-7.6,4.9-11.4c-3.7-0.9-7.3-1.8-11-2.7c3.7-1.9,7.3-3.8,11-5.6c-1.6-3.3-3.2-6.7-4.8-10
		c3.6,1.1,7.1,2.2,10.7,3.4c1.4-3.8,2.8-7.7,4.1-11.5c1.4,3.5,2.8,7,4.2,10.5c3.6-2.1,7.1-4.1,10.7-6.2c-1.6,3.7-3.3,7.5-4.9,11.2
		c3.7,0.9,7.4,1.9,11,2.9c-3.7,1.8-7.4,3.6-11,5.4C290.5,161,292.1,164.4,293.7,167.7z"/>
</g>
</svg>
