<svg version="1.1" id="bel" name="belgium" xmlns="http://www.w3.org/2000/svg" xmlns:xlink="http://www.w3.org/1999/xlink" x="0px"
     y="0px"
     viewBox="0 0 480 320" enable-background="new 0 0 480 320" xml:space="preserve">
    <g id="flag-bel">
<path fill="#010101"
      d="M0,295.7c53.3,14.9,106.7,14.9,160,10c0-93.3,0-186.7,0-280c-53.3,5-106.7,5-160-10C0,109,0,202.4,0,295.7z"
/>
        <path fill="#FCE632" d="M160,305.7c53.3-5,106.7-14.9,160-19.9c0-93.3,0-186.7,0-280c-53.3,5-106.7,14.9-160,19.9
	C160,119,160,212.3,160,305.7z"/>
        <path fill="#ED272E" d="M320,285.8c53.3-5,106.7-5,160,10c0-93.3,0-186.7,0-280C426.7,0.8,373.3,0.8,320,5.7
	C320,99.1,320,192.4,320,285.8z"/>
    </g>
</svg>
