<svg version="1.1" id="bra" name="brasilia" xmlns="http://www.w3.org/2000/svg" xmlns:xlink="http://www.w3.org/1999/xlink" x="0px" y="0px"
	 viewBox="0 0 480 320" enable-background="new 0 0 480 320" xml:space="preserve">
<g id="flag-bra">
	<path fill="#3E9344" d="M0,300c160,44.8,320-44.8,480,0c0-93.3,0-186.7,0-280C320-24.8,160,64.8,0,20C0,113.3,0,206.7,0,300z"/>
	<path fill="#EBC021" d="M74,172.1c55.3,38.7,110.6,66.3,166,93.9c55.4-43.1,110.7-86.2,166.1-118.1C350.7,109.2,295.3,81.6,240,54
		C184.7,97.1,129.3,140.1,74,172.1z"/>
	<path fill="#31296C" d="M310,151c0,38.6-31.3,73.4-70,79c-38.6,5.6-69.9-22.3-69.9-61c0-38.5,31.3-73.4,69.9-79
		C278.7,84.4,310,112.3,310,151"/>
</g>
<g id="crest">
	<path fill="#FFFFFF" d="M200,135.4c-8.2,1.1-16.2,2.6-24.1,4.6c-1.5,3.6-2.7,7.3-3.7,11.1c9-2.5,18.3-4.5,27.8-5.7
		c41-5.4,78.5,4.3,106.8,26.8c1.1-3.7,2-7.5,2.5-11.3C279.8,139,241.7,130,200,135.4"/>
	<path fill-rule="evenodd" clip-rule="evenodd" fill="#3E9344" d="M180.3,147.4c1.6-0.4,2.8-2.2,2.5-4c-0.2-1.8-1.7-2.9-3.4-2.5
		c-1.7,0.4-2.8,2.2-2.5,4C177.1,146.6,178.7,147.8,180.3,147.4 M180.2,146.2c0.9-0.2,1.6-1.3,1.5-2.5c-0.1-1.1-1-1.9-2-1.6
		c-1,0.2-1.6,1.3-1.5,2.4C178.3,145.7,179.2,146.4,180.2,146.2"/>
	<path fill-rule="evenodd" clip-rule="evenodd" fill="#3E9344" d="M185.8,146.2c0.4-0.1,0.8-0.2,1.2-0.2c-0.1-0.8-0.1-1.6-0.2-2.4
		c0.9-0.2,1.8-0.3,2.7-0.5c1.1-0.2,2-1.3,1.9-2.5c-0.1-1.2-1.1-1.9-2.2-1.7c-1.3,0.2-2.6,0.5-3.9,0.7
		C185.5,141.7,185.6,143.9,185.8,146.2z M186.7,142.2c0.9-0.2,1.7-0.3,2.6-0.5c0.5-0.1,0.8-0.6,0.8-1c-0.1-0.5-0.4-0.8-0.9-0.7
		c-0.9,0.2-1.7,0.3-2.6,0.5C186.6,141.1,186.7,141.7,186.7,142.2z"/>
	<path fill="#3E9344" d="M191.4,145.1c-0.1-0.9-0.2-3-1.6-2.8c-0.6,0.1-1.2,0.2-1.8,0.4c2.1-0.4,2.2,1.7,2.3,2.6"/>
	<path fill-rule="evenodd" clip-rule="evenodd" fill="#3E9344" d="M194.2,144.6c1-0.2,2.1-0.3,3.1-0.5c1.6-0.2,2.9-1.7,2.9-3.3
		c0-0.3,0-0.6-0.1-0.9c0-1.5-1.3-2.7-2.9-2.5c-1,0.2-2.1,0.3-3.1,0.5C194.1,140.1,194.2,142.4,194.2,144.6z M195.4,143.2
		c0.6-0.1,1.2-0.2,1.8-0.3c1-0.1,1.8-1.1,1.8-2c0-0.2,0-0.4,0-0.6c0-1-0.8-1.6-1.8-1.5c-0.6,0.1-1.2,0.2-1.8,0.3
		C195.4,140.4,195.4,141.8,195.4,143.2z"/>
	<path fill="#3E9344" d="M202.6,143.4c2-0.2,4-0.4,6-0.6c0-0.4,0-0.8,0.1-1.3c-1.6,0.2-3.2,0.3-4.8,0.5c0-0.6,0-1.1,0.1-1.7
		c1.3-0.1,2.6-0.3,3.8-0.4c0-0.4,0-0.8,0-1.1c-1.3,0.1-2.5,0.2-3.8,0.4c0-0.4,0-0.9,0-1.3c1.5-0.1,3.1-0.3,4.6-0.4
		c0-0.4,0-0.8,0-1.3c-1.9,0.2-3.8,0.4-5.7,0.6C202.8,139,202.7,141.2,202.6,143.4z"/>
	<path fill="#3E9344" d="M211.1,142.7c0.4,0,0.8,0,1.1,0c0.1-1.5,0.3-3.1,0.4-4.6c0.3,1.5,0.6,3,0.9,4.5c0.4,0,0.7,0,1.1,0
		c0.6-1.6,1.1-3.1,1.7-4.7c-0.1,1.5-0.3,3.1-0.4,4.6c0.4,0,0.7,0,1.1-0.1c0.2-2.2,0.4-4.5,0.6-6.7c-0.5,0-1.1,0.1-1.6,0.1
		c-0.6,1.6-1.2,3.1-1.8,4.7c-0.3-1.5-0.6-3-0.9-4.5c-0.6,0-1.1,0.1-1.7,0.1C211.5,138.2,211.3,140.4,211.1,142.7z"/>
	<path fill="#3E9344" d="M224.9,142.3c1.7,0.1,3.3,0.1,5,0.1c0-0.4,0.1-0.8,0.1-1.1c-1.3,0-2.5-0.1-3.8-0.1c0.1-0.5,0.2-1,0.3-1.5
		c1,0,2.1,0.1,3.1,0.1c0-0.4,0.1-0.8,0.1-1.2c-1,0-2-0.1-3-0.1c0-0.4,0.1-0.7,0.1-1.1c1.2,0,2.5,0.1,3.7,0.1c0-0.4,0.1-0.8,0.1-1.1
		c-1.6-0.1-3.2-0.1-4.8-0.2C225.6,138.3,225.2,140.3,224.9,142.3z"/>
	<path fill-rule="evenodd" clip-rule="evenodd" fill="#3E9344" d="M237.6,143.1c0.4,0.1,0.8,0.1,1.2,0.2c0.2-0.8,0.4-1.6,0.7-2.5
		c0.8,0.1,1.7,0.2,2.5,0.3c1.2,0.2,2.3-0.7,2.6-1.8c0.3-1.2-0.4-2.2-1.5-2.4c-1.2-0.1-2.5-0.3-3.7-0.4
		C238.8,138.6,238.2,140.8,237.6,143.1z M239.7,139.5c0.8,0.1,1.6,0.2,2.5,0.3c0.5,0,0.9-0.3,1-0.8c0.1-0.5-0.2-0.9-0.6-1
		c-0.8-0.1-1.7-0.2-2.5-0.3C240,138.3,239.9,138.9,239.7,139.5z"/>
	<path fill-rule="evenodd" clip-rule="evenodd" fill="#3E9344" d="M245.7,144.1c0.4,0.1,0.8,0.1,1.2,0.2c0.3-0.8,0.5-1.6,0.7-2.5
		c0.8,0.2,1.7,0.3,2.5,0.5c1.2,0.2,2.3-0.6,2.7-1.7c0.4-1.1-0.2-2.2-1.3-2.4c-1.2-0.2-2.5-0.4-3.7-0.6
		C247.1,139.7,246.4,141.9,245.7,144.1z M248.1,140.6c0.8,0.1,1.6,0.3,2.5,0.4c0.4,0.1,0.9-0.2,1.1-0.7c0.2-0.5-0.1-0.9-0.6-1
		c-0.8-0.1-1.6-0.3-2.4-0.4C248.4,139.5,248.2,140,248.1,140.6z"/>
	<path fill="#3E9344" d="M251.1,145c0.3-0.9,0.9-3-0.4-3.3c-0.6-0.1-1.1-0.2-1.7-0.3c2,0.4,1.3,2.4,1,3.4"/>
	<path fill-rule="evenodd" clip-rule="evenodd" fill="#3E9344" d="M256.6,146.3c1.6,0.3,3.3-0.8,4-2.6c0.7-1.8-0.1-3.6-1.6-4
		c-1.6-0.4-3.4,0.8-4,2.6C254.3,144.1,255.1,145.9,256.6,146.3 M257,145c1,0.3,2-0.5,2.4-1.7c0.4-1.1,0-2.2-0.9-2.4
		c-0.9-0.2-2,0.5-2.4,1.7C255.7,143.7,256.2,144.8,257,145"/>
	<path fill-rule="evenodd" clip-rule="evenodd" fill="#3E9344" d="M264.5,148.3c1.5,0.5,3.4-0.6,4.1-2.4c0.7-1.8,0.1-3.6-1.5-4.1
		c-1.5-0.5-3.3,0.6-4.1,2.4C262.3,146.1,263,147.9,264.5,148.3 M265,147.1c0.9,0.3,2-0.4,2.4-1.5c0.5-1.1,0.1-2.3-0.8-2.5
		c-0.9-0.3-2,0.4-2.4,1.6C263.7,145.7,264,146.9,265,147.1"/>
	<path fill="#3E9344" d="M266.2,145.2c0.8,0.2,1.6,0.5,2.4,0.7c-0.1,0.3-0.3,0.6-0.4,0.9c-0.8-0.2-1.5-0.5-2.3-0.7
		C266,145.8,266.1,145.5,266.2,145.2z"/>
	<path fill="#3E9344" d="M267.7,145.6c0.3,0.1,0.6,0.2,0.9,0.3c-0.5,1.1-0.9,2.1-1.4,3.2c-0.3-0.1-0.5-0.2-0.8-0.3
		C266.8,147.8,267.2,146.7,267.7,145.6z"/>
	<path fill-rule="evenodd" clip-rule="evenodd" fill="#3E9344" d="M269.5,149.9c0.4,0.1,0.7,0.3,1.1,0.4c0.4-0.8,0.7-1.6,1.1-2.4
		c0.8,0.3,1.6,0.6,2.4,0.9c1,0.4,2.3-0.2,2.8-1.3c0.5-1.1,0.1-2.3-0.9-2.7c-1.1-0.4-2.3-0.8-3.4-1.2
		C271.5,145.7,270.5,147.8,269.5,149.9z M272.2,146.8c0.8,0.3,1.5,0.6,2.3,0.8c0.4,0.2,0.9-0.1,1.1-0.5c0.2-0.5,0.1-1-0.4-1.1
		c-0.8-0.3-1.6-0.5-2.3-0.8C272.7,145.7,272.5,146.2,272.2,146.8z"/>
	<path fill="#3E9344" d="M274.5,151.8c0.4-0.9,1.3-2.9,0.1-3.4c-0.5-0.2-1.1-0.4-1.6-0.6c1.9,0.7,1,2.7,0.6,3.6"/>
	<path fill="#3E9344" d="M277,152.8c1.8,0.8,3.5,1.5,5.3,2.3c0.2-0.4,0.4-0.8,0.6-1.2c-1.4-0.6-2.8-1.2-4.2-1.8
		c0.3-0.5,0.5-1.1,0.8-1.6c1.1,0.5,2.2,1,3.3,1.5c0.2-0.4,0.4-0.7,0.6-1.1c-1.1-0.5-2.2-1-3.3-1.4c0.2-0.4,0.4-0.8,0.7-1.3
		c1.3,0.6,2.6,1.2,3.9,1.8c0.2-0.4,0.4-0.8,0.7-1.2c-1.7-0.7-3.4-1.5-5-2.2C279.2,148.6,278.1,150.7,277,152.8z"/>
	<path fill="#3E9344" d="M286.8,154.8c-0.4,0.6,0,1.2,0.8,1.6c0.8,0.4,1.3,0.3,1.6-0.1c0.7-1.3-3.5-2.4-2.2-4.5
		c1.1-1.8,3-0.8,3.7-0.4c0.7,0.4,1.9,1.4,1,2.9c-0.4-0.2-0.8-0.4-1.2-0.6c0.4-0.6,0-1.2-0.7-1.5c-0.6-0.4-1.1-0.5-1.5,0.2
		c-0.6,1,3.5,2.2,2.2,4.4c-0.9,1.6-2.5,1.1-3.6,0.6c-1-0.5-2.3-1.7-1.5-3.2C285.9,154.3,286.3,154.6,286.8,154.8z"/>
	<path fill="#3E9344" d="M293.9,158.6c-0.4,0.6-0.1,1.2,0.7,1.6c0.8,0.5,1.4,0.4,1.6,0c0.7-1.2-3.4-2.6-1.9-4.7
		c1.2-1.8,3.1-0.6,3.7-0.2c0.7,0.4,1.8,1.6,0.8,3c-0.4-0.2-0.8-0.5-1.2-0.7c0.4-0.6,0-1.1-0.6-1.5c-0.6-0.4-1-0.5-1.4,0.1
		c-0.7,1,3.3,2.5,2,4.5c-1,1.5-2.7,1-3.6,0.4c-0.9-0.5-2.2-1.8-1.3-3.3C293.1,158.1,293.5,158.4,293.9,158.6z"/>
	<path fill-rule="evenodd" clip-rule="evenodd" fill="#3E9344" d="M300.6,165.5c1.3,0.9,3.3,0.3,4.4-1.2c1.1-1.6,1-3.6-0.3-4.4
		c-1.3-0.9-3.3-0.4-4.4,1.2C299.2,162.7,299.4,164.6,300.6,165.5 M301.4,164.4c0.8,0.6,2,0.2,2.7-0.8c0.7-1,0.6-2.2-0.1-2.7
		c-0.8-0.6-1.9-0.2-2.6,0.8C300.6,162.7,300.6,164,301.4,164.4"/>
	<path fill="#FFFFFF" d="M182.9,152c-0.3,1-0.6,2-0.9,3c0.5,0.1,1,0.2,1.5,0.3C183.2,154.1,183,153.1,182.9,152z"/>
	<path fill="#FFFFFF" d="M182.9,152c0.3,0.9,0.6,1.8,0.9,2.7c-0.5,0.2-0.9,0.4-1.4,0.6C182.5,154.2,182.7,153.1,182.9,152z"/>
	<path fill="#FFFFFF" d="M185.7,153.7c-1,0.1-2,0.2-3,0.4c0,0.5,0,1,0,1.5C183.7,154.9,184.7,154.3,185.7,153.7z"/>
	<path fill="#FFFFFF" d="M185.7,153.7c-0.8,0.7-1.6,1.3-2.4,2c-0.3-0.4-0.6-0.7-0.9-1.1C183.5,154.3,184.6,154,185.7,153.7z"/>
	<path fill="#FFFFFF" d="M180,154.4c0.8,0.5,1.6,1,2.4,1.4c0.3-0.4,0.6-0.9,0.9-1.3C182.2,154.5,181.1,154.4,180,154.4z"/>
	<path fill="#FFFFFF" d="M180,154.4c1-0.1,2-0.2,3-0.3c0,0.5,0,1,0,1.5C182,155.1,181,154.8,180,154.4z"/>
	<path fill="#FFFFFF" d="M184.6,157.2c-0.3-0.9-0.6-1.8-0.9-2.7c-0.5,0.2-0.9,0.4-1.4,0.6C183.1,155.8,183.8,156.5,184.6,157.2z"/>
	<path fill="#FFFFFF" d="M184.6,157.2c-0.8-0.5-1.6-1-2.4-1.5c0.3-0.4,0.6-0.9,0.9-1.3C183.6,155.3,184.1,156.3,184.6,157.2z"/>
	<path fill="#FFFFFF" d="M181.1,157.6c0.8-0.7,1.6-1.4,2.4-2.1c-0.3-0.4-0.6-0.7-0.9-1.1C182.1,155.5,181.6,156.5,181.1,157.6z"/>
	<path fill="#FFFFFF" d="M181.1,157.6c0.3-1,0.6-2,1-2.9c0.5,0.1,1,0.2,1.4,0.3C182.7,155.8,181.9,156.7,181.1,157.6z"/>
	<path fill="#FFFFFF" d="M189.1,180.7c-0.3,1-0.6,2-1,3c0.5,0.1,1,0.2,1.5,0.3C189.4,182.8,189.2,181.7,189.1,180.7z"/>
	<path fill="#FFFFFF" d="M189.1,180.7c0.3,0.9,0.6,1.8,0.9,2.7c-0.5,0.2-0.9,0.4-1.4,0.6C188.7,182.9,188.9,181.8,189.1,180.7z"/>
	<path fill="#FFFFFF" d="M191.9,182.4c-1,0.1-2,0.2-3,0.4c0,0.5,0,1,0,1.5C189.9,183.6,190.9,183,191.9,182.4z"/>
	<path fill="#FFFFFF" d="M191.9,182.4c-0.8,0.7-1.6,1.4-2.4,2.1c-0.3-0.4-0.6-0.8-0.9-1.1C189.7,183,190.8,182.7,191.9,182.4z"/>
	<path fill="#FFFFFF" d="M186.2,183.1c0.8,0.5,1.6,1,2.4,1.5c0.3-0.5,0.6-0.9,0.9-1.4C188.4,183.2,187.3,183.1,186.2,183.1z"/>
	<path fill="#FFFFFF" d="M186.2,183.1c1-0.1,2-0.2,3-0.4c0,0.5,0,1,0,1.5C188.2,183.8,187.2,183.5,186.2,183.1z"/>
	<path fill="#FFFFFF" d="M190.8,185.9c-0.3-0.9-0.6-1.8-0.9-2.7c-0.5,0.2-1,0.4-1.5,0.6C189.3,184.5,190,185.2,190.8,185.9z"/>
	<path fill="#FFFFFF" d="M190.8,185.9c-0.8-0.5-1.6-1-2.4-1.5c0.3-0.4,0.6-0.9,0.9-1.3C189.8,184,190.3,184.9,190.8,185.9z"/>
	<path fill="#FFFFFF" d="M187.3,186.3c0.8-0.7,1.7-1.4,2.5-2.1c-0.3-0.4-0.6-0.7-0.9-1.1C188.3,184.2,187.8,185.3,187.3,186.3z"/>
	<path fill="#FFFFFF" d="M187.3,186.3c0.3-1,0.6-2,0.9-3c0.5,0.1,1,0.2,1.4,0.3C188.8,184.5,188,185.4,187.3,186.3z"/>
	<path fill="#FFFFFF" d="M180.5,188.9c-0.2,0.7-0.4,1.3-0.6,2c0.3,0.1,0.6,0.1,0.9,0.2C180.7,190.4,180.6,189.7,180.5,188.9z"/>
	<path fill="#FFFFFF" d="M180.5,188.9c0.2,0.6,0.4,1.2,0.6,1.9c-0.3,0.1-0.6,0.3-0.9,0.4C180.3,190.4,180.4,189.7,180.5,188.9z"/>
	<path fill="#FFFFFF" d="M182.4,190.1c-0.7,0.1-1.3,0.2-2,0.2c0,0.3,0,0.7,0,1C181,190.9,181.7,190.5,182.4,190.1z"/>
	<path fill="#FFFFFF" d="M182.4,190.1c-0.5,0.4-1.1,0.9-1.6,1.3c-0.2-0.2-0.4-0.5-0.6-0.7C180.9,190.5,181.6,190.3,182.4,190.1z"/>
	<path fill="#FFFFFF" d="M178.6,190.6c0.5,0.3,1.1,0.7,1.6,1c0.2-0.3,0.4-0.6,0.6-0.9C180.1,190.6,179.3,190.6,178.6,190.6z"/>
	<path fill="#FFFFFF" d="M178.6,190.6c0.7-0.1,1.3-0.2,2-0.2c0,0.3,0,0.7,0,1C179.9,191.1,179.3,190.8,178.6,190.6z"/>
	<path fill="#FFFFFF" d="M181.6,192.4c-0.2-0.6-0.4-1.2-0.6-1.8c-0.3,0.1-0.6,0.3-0.9,0.4C180.6,191.5,181.1,192,181.6,192.4z"/>
	<path fill="#FFFFFF" d="M181.6,192.4c-0.5-0.3-1.1-0.7-1.6-1c0.2-0.3,0.4-0.6,0.6-0.9C181,191.2,181.3,191.8,181.6,192.4z"/>
	<path fill="#FFFFFF" d="M179.3,192.7c0.5-0.4,1.1-0.9,1.6-1.3c-0.2-0.3-0.4-0.5-0.6-0.8C180,191.3,179.7,192,179.3,192.7z"/>
	<path fill="#FFFFFF" d="M179.3,192.7c0.2-0.7,0.4-1.3,0.6-2c0.3,0.1,0.6,0.1,0.9,0.2C180.3,191.5,179.8,192.1,179.3,192.7z"/>
	<path fill="#FFFFFF" d="M195.9,177.1c-0.2,0.5-0.3,0.9-0.5,1.4c0.2,0.1,0.4,0.1,0.7,0.2C196,178.1,196,177.6,195.9,177.1z"/>
	<path fill="#FFFFFF" d="M195.9,177.1c0.1,0.4,0.3,0.9,0.4,1.3c-0.2,0.1-0.4,0.2-0.7,0.3C195.8,178.2,195.8,177.6,195.9,177.1z"/>
	<path fill="#FFFFFF" d="M197.3,177.9c-0.5,0.1-0.9,0.1-1.4,0.2c0,0.2,0,0.5,0,0.7C196.3,178.5,196.8,178.2,197.3,177.9z"/>
	<path fill="#FFFFFF" d="M197.3,177.9c-0.4,0.3-0.8,0.6-1.1,1c-0.1-0.2-0.3-0.4-0.4-0.5C196.2,178.2,196.7,178.1,197.3,177.9z"/>
	<path fill="#FFFFFF" d="M194.5,178.3c0.4,0.2,0.8,0.5,1.2,0.7c0.1-0.2,0.3-0.4,0.4-0.6C195.6,178.3,195.1,178.3,194.5,178.3z"/>
	<path fill="#FFFFFF" d="M194.5,178.3c0.5-0.1,1-0.1,1.4-0.2c0,0.2,0,0.5,0,0.7C195.5,178.6,195,178.4,194.5,178.3z"/>
	<path fill="#FFFFFF" d="M196.8,179.6c-0.2-0.4-0.3-0.9-0.5-1.3c-0.2,0.1-0.4,0.2-0.6,0.3C196,178.9,196.4,179.2,196.8,179.6z"/>
	<path fill="#FFFFFF" d="M196.8,179.6c-0.4-0.2-0.8-0.5-1.1-0.7c0.1-0.2,0.3-0.4,0.4-0.6C196.3,178.7,196.5,179.1,196.8,179.6z"/>
	<path fill="#FFFFFF" d="M195.1,179.8c0.4-0.3,0.8-0.7,1.1-1c-0.1-0.2-0.3-0.4-0.4-0.5C195.6,178.8,195.3,179.3,195.1,179.8z"/>
	<path fill="#FFFFFF" d="M195.1,179.8c0.1-0.5,0.3-1,0.4-1.4c0.2,0,0.4,0.1,0.7,0.1C195.8,178.9,195.4,179.4,195.1,179.8z"/>
	<path fill="#FFFFFF" d="M203.7,186.3c-0.3,0.8-0.5,1.7-0.8,2.5c0.4,0.1,0.7,0.2,1.1,0.3C203.9,188.1,203.8,187.2,203.7,186.3z"/>
	<path fill="#FFFFFF" d="M203.7,186.3c0.2,0.8,0.5,1.5,0.7,2.3c-0.4,0.2-0.8,0.4-1.1,0.6C203.4,188.2,203.5,187.2,203.7,186.3z"/>
	<path fill="#FFFFFF" d="M206,187.7c-0.8,0.1-1.7,0.2-2.5,0.3c0,0.4,0,0.8,0,1.2C204.3,188.7,205.1,188.2,206,187.7z"/>
	<path fill="#FFFFFF" d="M206,187.7c-0.7,0.6-1.3,1.1-2,1.7c-0.2-0.3-0.5-0.6-0.7-0.9C204.2,188.2,205.1,188,206,187.7z"/>
	<path fill="#FFFFFF" d="M201.3,188.3c0.7,0.4,1.3,0.8,2,1.2c0.2-0.4,0.5-0.7,0.7-1.1C203.1,188.4,202.2,188.4,201.3,188.3z"/>
	<path fill="#FFFFFF" d="M201.3,188.3c0.8-0.1,1.7-0.2,2.5-0.3c0,0.4,0,0.8,0,1.2C202.9,188.9,202.1,188.6,201.3,188.3z"/>
	<path fill="#FFFFFF" d="M205.1,190.6c-0.3-0.8-0.5-1.5-0.8-2.3c-0.4,0.2-0.8,0.4-1.2,0.5C203.8,189.4,204.4,190,205.1,190.6z"/>
	<path fill="#FFFFFF" d="M205.1,190.6c-0.7-0.4-1.4-0.8-2-1.2c0.2-0.4,0.5-0.7,0.7-1.1C204.2,189.1,204.7,189.8,205.1,190.6z"/>
	<path fill="#FFFFFF" d="M202.2,191c0.7-0.6,1.3-1.1,2-1.7c-0.2-0.3-0.5-0.6-0.7-0.9C203,189.2,202.6,190.1,202.2,191z"/>
	<path fill="#FFFFFF" d="M202.2,191c0.2-0.8,0.5-1.6,0.7-2.5c0.4,0.1,0.8,0.2,1.2,0.2C203.5,189.5,202.8,190.2,202.2,191z"/>
	<path fill="#FFFFFF" d="M201.5,193.5c-0.3,0.8-0.5,1.7-0.8,2.5c0.4,0.1,0.8,0.2,1.2,0.2C201.8,195.3,201.7,194.4,201.5,193.5z"/>
	<path fill="#FFFFFF" d="M201.5,193.5c0.3,0.8,0.5,1.5,0.7,2.3c-0.4,0.2-0.8,0.4-1.2,0.5C201.3,195.4,201.4,194.4,201.5,193.5z"/>
	<path fill="#FFFFFF" d="M203.9,194.9c-0.8,0.1-1.7,0.2-2.5,0.3c0,0.4,0,0.8,0,1.2C202.2,196,203.1,195.4,203.9,194.9z"/>
	<path fill="#FFFFFF" d="M203.9,194.9c-0.7,0.6-1.4,1.2-2,1.7c-0.2-0.3-0.5-0.6-0.7-0.9C202.1,195.5,203,195.2,203.9,194.9z"/>
	<path fill="#FFFFFF" d="M199.2,195.5c0.7,0.4,1.3,0.8,2,1.2c0.2-0.4,0.5-0.7,0.7-1.1C201,195.6,200.1,195.6,199.2,195.5z"/>
	<path fill="#FFFFFF" d="M199.2,195.5c0.8-0.1,1.7-0.2,2.5-0.3c0,0.4,0,0.8,0,1.2C200.8,196.1,200,195.8,199.2,195.5z"/>
	<path fill="#FFFFFF" d="M203,197.8c-0.2-0.8-0.5-1.5-0.7-2.3c-0.4,0.2-0.8,0.4-1.2,0.5C201.7,196.7,202.3,197.3,203,197.8z"/>
	<path fill="#FFFFFF" d="M203,197.8c-0.7-0.4-1.4-0.8-2-1.3c0.3-0.4,0.5-0.7,0.8-1.1C202.2,196.3,202.6,197.1,203,197.8z"/>
	<path fill="#FFFFFF" d="M200.1,198.2c0.7-0.6,1.3-1.2,2-1.8c-0.2-0.3-0.5-0.6-0.7-0.9C200.9,196.5,200.5,197.3,200.1,198.2z"/>
	<path fill="#FFFFFF" d="M200.1,198.2c0.3-0.8,0.5-1.7,0.8-2.5c0.4,0.1,0.8,0.2,1.2,0.2C201.4,196.7,200.7,197.5,200.1,198.2z"/>
	<path fill="#FFFFFF" d="M261.7,132.3c-0.3,1-0.6,2-0.9,3c0.5,0.1,1,0.2,1.4,0.2C262.1,134.4,261.9,133.3,261.7,132.3z"/>
	<path fill="#FFFFFF" d="M261.7,132.3c0.3,0.9,0.6,1.8,0.9,2.7c-0.5,0.2-1,0.4-1.5,0.6C261.4,134.5,261.5,133.4,261.7,132.3z"/>
	<path fill="#FFFFFF" d="M264.5,133.9c-1,0.1-2,0.3-3,0.4c0,0.5,0,1,0,1.5C262.6,135.2,263.6,134.6,264.5,133.9z"/>
	<path fill="#FFFFFF" d="M264.5,133.9c-0.8,0.7-1.6,1.4-2.4,2.1c-0.3-0.4-0.6-0.7-0.9-1.1C262.4,134.6,263.5,134.3,264.5,133.9z"/>
	<path fill="#FFFFFF" d="M258.9,134.7c0.8,0.5,1.6,1,2.5,1.4c0.3-0.4,0.6-0.9,0.9-1.3C261.1,134.8,260,134.7,258.9,134.7z"/>
	<path fill="#FFFFFF" d="M258.9,134.7c1-0.1,2-0.3,3-0.4c0,0.5,0,1,0,1.5C260.9,135.5,259.9,135.1,258.9,134.7z"/>
	<path fill="#FFFFFF" d="M263.5,137.5c-0.3-0.9-0.6-1.8-0.9-2.7c-0.5,0.2-0.9,0.4-1.4,0.7C261.9,136.1,262.7,136.8,263.5,137.5z"/>
	<path fill="#FFFFFF" d="M263.5,137.5c-0.8-0.5-1.6-1-2.5-1.4c0.3-0.4,0.6-0.9,0.9-1.3C262.4,135.6,263,136.5,263.5,137.5z"/>
	<path fill="#FFFFFF" d="M259.9,138c0.8-0.7,1.6-1.4,2.4-2.1c-0.3-0.4-0.6-0.7-0.9-1.1C261,135.8,260.5,136.9,259.9,138z"/>
	<path fill="#FFFFFF" d="M259.9,138c0.3-1,0.6-2,0.9-3c0.5,0.1,1,0.2,1.5,0.3C261.5,136.1,260.7,137,259.9,138z"/>
	<path fill="#FFFFFF" d="M289,175c-0.3,1-0.6,2-0.9,3c0.5,0.1,1,0.2,1.5,0.3C289.4,177.2,289.2,176.1,289,175z"/>
	<path fill="#FFFFFF" d="M289,175c0.3,0.9,0.6,1.8,1,2.7c-0.5,0.2-0.9,0.4-1.4,0.6C288.7,177.2,288.9,176.1,289,175z"/>
	<path fill="#FFFFFF" d="M291.9,176.7c-1,0.1-2,0.2-3,0.4c0,0.5,0,1,0,1.5C289.9,178,290.9,177.3,291.9,176.7z"/>
	<path fill="#FFFFFF" d="M291.9,176.7c-0.8,0.7-1.6,1.4-2.4,2c-0.3-0.4-0.6-0.7-0.9-1.1C289.7,177.3,290.8,177,291.9,176.7z"/>
	<path fill="#FFFFFF" d="M286.2,177.4c0.8,0.5,1.6,1,2.5,1.4c0.3-0.4,0.6-0.9,0.9-1.3C288.4,177.5,287.3,177.5,286.2,177.4z"/>
	<path fill="#FFFFFF" d="M286.2,177.4c1-0.1,2-0.2,3-0.4c0,0.5,0,1,0,1.5C288.2,178.2,287.2,177.8,286.2,177.4z"/>
	<path fill="#FFFFFF" d="M290.9,180.2c-0.3-0.9-0.6-1.8-0.9-2.7c-0.5,0.2-1,0.4-1.5,0.6C289.3,178.8,290.1,179.5,290.9,180.2z"/>
	<path fill="#FFFFFF" d="M290.9,180.2c-0.8-0.5-1.6-1-2.4-1.5c0.3-0.4,0.6-0.9,0.9-1.3C289.8,178.3,290.3,179.3,290.9,180.2z"/>
	<path fill="#FFFFFF" d="M287.3,180.6c0.8-0.7,1.6-1.4,2.4-2.1c-0.3-0.4-0.6-0.7-0.9-1.1C288.3,178.5,287.8,179.6,287.3,180.6z"/>
	<path fill="#FFFFFF" d="M287.3,180.6c0.3-1,0.6-2,0.9-3c0.5,0.1,1,0.2,1.4,0.3C288.9,178.8,288.1,179.7,287.3,180.6z"/>
	<path fill="#FFFFFF" d="M298.8,175.5c-0.2,0.7-0.4,1.3-0.7,2c0.3,0.1,0.7,0.1,1,0.2C299,176.9,298.9,176.2,298.8,175.5z"/>
	<path fill="#FFFFFF" d="M298.8,175.5c0.2,0.6,0.4,1.2,0.6,1.8c-0.3,0.1-0.7,0.3-1,0.4C298.5,177,298.7,176.2,298.8,175.5z"/>
	<path fill="#FFFFFF" d="M300.6,176.7c-0.7,0.1-1.3,0.1-2,0.2c0,0.3,0,0.6,0,1C299.3,177.5,300,177.1,300.6,176.7z"/>
	<path fill="#FFFFFF" d="M300.6,176.7c-0.5,0.5-1.1,0.9-1.6,1.4c-0.2-0.3-0.4-0.5-0.6-0.8C299.2,177.1,299.9,176.9,300.6,176.7z"/>
	<path fill="#FFFFFF" d="M296.9,177.1c0.5,0.3,1.1,0.7,1.6,1c0.2-0.3,0.4-0.6,0.6-0.9C298.4,177.2,297.6,177.1,296.9,177.1z"/>
	<path fill="#FFFFFF" d="M296.9,177.1c0.7-0.1,1.3-0.2,2-0.2c0,0.3,0,0.6,0,1C298.2,177.6,297.5,177.4,296.9,177.1z"/>
	<path fill="#FFFFFF" d="M299.9,179c-0.2-0.6-0.4-1.3-0.6-1.9c-0.3,0.2-0.6,0.3-1,0.5C298.9,178.1,299.4,178.5,299.9,179z"/>
	<path fill="#FFFFFF" d="M299.9,179c-0.5-0.3-1.1-0.7-1.6-1c0.2-0.3,0.4-0.6,0.6-0.9C299.3,177.7,299.6,178.4,299.9,179z"/>
	<path fill="#FFFFFF" d="M297.6,179.3c0.5-0.5,1.1-0.9,1.6-1.4c-0.2-0.3-0.4-0.5-0.6-0.8C298.3,177.8,297.9,178.6,297.6,179.3z"/>
	<path fill="#FFFFFF" d="M297.6,179.3c0.2-0.7,0.4-1.3,0.6-2c0.3,0.1,0.6,0.2,0.9,0.2C298.6,178.1,298.1,178.7,297.6,179.3z"/>
	<path fill="#FFFFFF" d="M291.9,181.3c-0.2,0.8-0.5,1.6-0.7,2.5c0.4,0.1,0.8,0.2,1.2,0.3C292.2,183.1,292,182.2,291.9,181.3z"/>
	<path fill="#FFFFFF" d="M291.9,181.3c0.3,0.8,0.5,1.5,0.7,2.3c-0.4,0.2-0.7,0.3-1.1,0.5C291.7,183.2,291.8,182.3,291.9,181.3z"/>
	<path fill="#FFFFFF" d="M294.3,182.8c-0.8,0.1-1.7,0.2-2.5,0.3c0,0.4,0,0.8,0,1.2C292.6,183.8,293.4,183.3,294.3,182.8z"/>
	<path fill="#FFFFFF" d="M294.3,182.8c-0.7,0.6-1.3,1.1-2,1.7c-0.3-0.3-0.5-0.6-0.8-0.9C292.4,183.3,293.4,183,294.3,182.8z"/>
	<path fill="#FFFFFF" d="M289.6,183.4c0.7,0.4,1.4,0.8,2,1.2c0.2-0.4,0.5-0.7,0.7-1.1C291.4,183.4,290.5,183.4,289.6,183.4z"/>
	<path fill="#FFFFFF" d="M289.6,183.4c0.8-0.1,1.7-0.2,2.5-0.3c0,0.4,0,0.8,0,1.2C291.2,184,290.4,183.7,289.6,183.4z"/>
	<path fill="#FFFFFF" d="M293.4,185.7c-0.3-0.8-0.5-1.5-0.8-2.3c-0.4,0.2-0.8,0.4-1.2,0.5C292.1,184.5,292.7,185.1,293.4,185.7z"/>
	<path fill="#FFFFFF" d="M293.4,185.7c-0.7-0.4-1.3-0.8-2-1.3c0.2-0.4,0.5-0.7,0.7-1.1C292.5,184.1,293,184.9,293.4,185.7z"/>
	<path fill="#FFFFFF" d="M290.4,186c0.7-0.6,1.3-1.2,2-1.8c-0.2-0.3-0.5-0.6-0.7-0.9C291.3,184.3,290.9,185.2,290.4,186z"/>
	<path fill="#FFFFFF" d="M290.4,186c0.2-0.8,0.5-1.7,0.7-2.5c0.4,0.1,0.8,0.2,1.2,0.2C291.8,184.5,291.1,185.3,290.4,186z"/>
	<path fill="#FFFFFF" d="M275,198.1c-0.3,0.8-0.5,1.6-0.8,2.5c0.4,0.1,0.8,0.2,1.2,0.3C275.3,199.9,275.2,199,275,198.1z"/>
	<path fill="#FFFFFF" d="M275,198.1c0.3,0.8,0.5,1.5,0.8,2.3c-0.4,0.2-0.8,0.4-1.2,0.6C274.8,200,274.9,199,275,198.1z"/>
	<path fill="#FFFFFF" d="M277.4,199.6c-0.8,0.1-1.7,0.2-2.5,0.3c0,0.4,0,0.8,0,1.2C275.8,200.6,276.6,200.1,277.4,199.6z"/>
	<path fill="#FFFFFF" d="M277.4,199.6c-0.7,0.6-1.4,1.1-2,1.7c-0.2-0.3-0.5-0.6-0.7-0.9C275.6,200.1,276.5,199.8,277.4,199.6z"/>
	<path fill="#FFFFFF" d="M272.7,200.2c0.7,0.4,1.3,0.8,2,1.2c0.2-0.4,0.5-0.7,0.7-1.1C274.5,200.2,273.6,200.2,272.7,200.2z"/>
	<path fill="#FFFFFF" d="M272.7,200.2c0.8-0.1,1.7-0.2,2.5-0.3c0,0.4,0,0.8,0,1.2C274.4,200.8,273.5,200.5,272.7,200.2z"/>
	<path fill="#FFFFFF" d="M276.5,202.5c-0.2-0.8-0.5-1.5-0.7-2.3c-0.4,0.2-0.8,0.4-1.3,0.6C275.2,201.3,275.8,201.9,276.5,202.5z"/>
	<path fill="#FFFFFF" d="M276.5,202.5c-0.7-0.4-1.3-0.8-2-1.2c0.2-0.4,0.5-0.7,0.7-1.1C275.6,200.9,276,201.7,276.5,202.5z"/>
	<path fill="#FFFFFF" d="M273.6,202.8c0.7-0.6,1.3-1.2,2-1.7c-0.2-0.3-0.5-0.6-0.7-0.9C274.5,201.1,274,201.9,273.6,202.8z"/>
	<path fill="#FFFFFF" d="M273.6,202.8c0.3-0.8,0.5-1.7,0.7-2.5c0.4,0.1,0.8,0.2,1.2,0.2C274.9,201.3,274.3,202.1,273.6,202.8z"/>
	<path fill="#FFFFFF" d="M274.9,205.7c-0.2,0.6-0.4,1.3-0.6,1.9c0.3,0.1,0.6,0.1,1,0.2C275.2,207.1,275.1,206.4,274.9,205.7z"/>
	<path fill="#FFFFFF" d="M274.9,205.7c0.2,0.6,0.4,1.2,0.6,1.8c-0.3,0.1-0.6,0.3-0.9,0.4C274.7,207.2,274.8,206.4,274.9,205.7z"/>
	<path fill="#FFFFFF" d="M276.8,206.8c-0.7,0.1-1.3,0.2-2,0.3c0,0.3,0,0.7,0,1C275.5,207.7,276.2,207.2,276.8,206.8z"/>
	<path fill="#FFFFFF" d="M276.8,206.8c-0.6,0.5-1.1,0.9-1.7,1.4c-0.2-0.2-0.4-0.5-0.6-0.7C275.4,207.3,276.1,207,276.8,206.8z"/>
	<path fill="#FFFFFF" d="M273.1,207.3c0.5,0.3,1.1,0.6,1.6,0.9c0.2-0.3,0.4-0.6,0.6-0.9C274.5,207.4,273.8,207.3,273.1,207.3z"/>
	<path fill="#FFFFFF" d="M273.1,207.3c0.7-0.1,1.3-0.2,2-0.3c0,0.3,0,0.7,0,1C274.4,207.8,273.7,207.6,273.1,207.3z"/>
	<path fill="#FFFFFF" d="M276.1,209.1c-0.2-0.6-0.4-1.2-0.6-1.8c-0.3,0.1-0.7,0.3-1,0.4C275.1,208.2,275.6,208.7,276.1,209.1z"/>
	<path fill="#FFFFFF" d="M276.1,209.1c-0.5-0.3-1.1-0.6-1.6-0.9c0.2-0.3,0.4-0.6,0.6-0.9C275.4,207.9,275.8,208.5,276.1,209.1z"/>
	<path fill="#FFFFFF" d="M273.8,209.4c0.5-0.4,1.1-0.9,1.6-1.3c-0.2-0.2-0.4-0.5-0.6-0.7C274.5,208,274.1,208.7,273.8,209.4z"/>
	<path fill="#FFFFFF" d="M273.8,209.4c0.2-0.6,0.4-1.3,0.6-1.9c0.3,0.1,0.6,0.1,0.9,0.2C274.8,208.2,274.3,208.8,273.8,209.4z"/>
	<path fill="#FFFFFF" d="M282,192.2c-0.2,0.7-0.4,1.3-0.7,2c0.3,0.1,0.6,0.1,0.9,0.2C282.2,193.6,282.1,192.9,282,192.2z"/>
	<path fill="#FFFFFF" d="M282,192.2c0.2,0.6,0.4,1.2,0.6,1.8c-0.3,0.1-0.6,0.3-0.9,0.4C281.8,193.7,281.9,192.9,282,192.2z"/>
	<path fill="#FFFFFF" d="M283.9,193.3c-0.7,0.1-1.4,0.2-2,0.3c0,0.3,0,0.7,0,1C282.5,194.2,283.2,193.7,283.9,193.3z"/>
	<path fill="#FFFFFF" d="M283.9,193.3c-0.5,0.5-1.1,0.9-1.6,1.4c-0.2-0.2-0.4-0.5-0.6-0.7C282.4,193.8,283.2,193.6,283.9,193.3z"/>
	<path fill="#FFFFFF" d="M280.1,193.8c0.5,0.3,1.1,0.7,1.6,1c0.2-0.3,0.4-0.6,0.6-0.9C281.6,193.9,280.8,193.9,280.1,193.8z"/>
	<path fill="#FFFFFF" d="M280.1,193.8c0.7-0.1,1.4-0.2,2-0.3c0,0.3,0,0.7,0,1C281.5,194.3,280.8,194.1,280.1,193.8z"/>
	<path fill="#FFFFFF" d="M283.2,195.7c-0.2-0.6-0.4-1.2-0.6-1.8c-0.3,0.1-0.6,0.3-0.9,0.4C282.1,194.7,282.7,195.2,283.2,195.7z"/>
	<path fill="#FFFFFF" d="M283.2,195.7c-0.5-0.3-1.1-0.6-1.6-1c0.2-0.3,0.4-0.6,0.6-0.9C282.5,194.4,282.9,195,283.2,195.7z"/>
	<path fill="#FFFFFF" d="M280.8,195.9c0.5-0.5,1.1-0.9,1.6-1.4c-0.2-0.2-0.4-0.5-0.6-0.7C281.5,194.5,281.2,195.2,280.8,195.9z"/>
	<path fill="#FFFFFF" d="M280.8,195.9c0.2-0.7,0.4-1.3,0.6-2c0.3,0.1,0.6,0.1,0.9,0.2C281.9,194.8,281.4,195.4,280.8,195.9z"/>
	<path fill="#FFFFFF" d="M287.6,187.5c-0.3,0.8-0.5,1.6-0.8,2.5c0.4,0.1,0.8,0.2,1.1,0.2C287.9,189.3,287.8,188.4,287.6,187.5z"/>
	<path fill="#FFFFFF" d="M287.6,187.5c0.3,0.8,0.5,1.5,0.8,2.3c-0.4,0.2-0.8,0.4-1.2,0.5C287.3,189.3,287.5,188.4,287.6,187.5z"/>
	<path fill="#FFFFFF" d="M290,188.9c-0.8,0.1-1.7,0.2-2.5,0.3c0,0.4,0,0.8,0,1.2C288.3,189.9,289.1,189.4,290,188.9z"/>
	<path fill="#FFFFFF" d="M290,188.9c-0.7,0.6-1.3,1.1-2,1.7c-0.2-0.3-0.5-0.6-0.7-1C288.2,189.4,289.1,189.2,290,188.9z"/>
	<path fill="#FFFFFF" d="M285.3,189.5c0.7,0.4,1.4,0.8,2,1.2c0.2-0.4,0.5-0.8,0.7-1.1C287.1,189.6,286.2,189.5,285.3,189.5z"/>
	<path fill="#FFFFFF" d="M285.3,189.5c0.8-0.1,1.7-0.2,2.5-0.3c0,0.4,0,0.8,0,1.2C286.9,190.1,286.1,189.8,285.3,189.5z"/>
	<path fill="#FFFFFF" d="M289.1,191.8c-0.2-0.7-0.5-1.5-0.7-2.2c-0.4,0.2-0.8,0.4-1.2,0.5C287.8,190.6,288.4,191.2,289.1,191.8z"/>
	<path fill="#FFFFFF" d="M289.1,191.8c-0.7-0.4-1.3-0.8-2-1.2c0.2-0.4,0.5-0.7,0.7-1.1C288.2,190.2,288.6,191,289.1,191.8z"/>
	<path fill="#FFFFFF" d="M286.1,192.1c0.7-0.6,1.4-1.1,2.1-1.7c-0.3-0.3-0.5-0.6-0.8-0.9C287,190.4,286.6,191.3,286.1,192.1z"/>
	<path fill="#FFFFFF" d="M286.1,192.1c0.3-0.8,0.5-1.6,0.8-2.4c0.4,0.1,0.8,0.2,1.1,0.2C287.4,190.7,286.8,191.4,286.1,192.1z"/>
	<path fill="#FFFFFF" d="M274.7,191.8c-0.2,0.7-0.4,1.3-0.6,2c0.3,0.1,0.6,0.1,0.9,0.2C275,193.2,274.8,192.5,274.7,191.8z"/>
	<path fill="#FFFFFF" d="M274.7,191.8c0.2,0.6,0.5,1.2,0.7,1.8c-0.3,0.1-0.7,0.3-1,0.4C274.5,193.3,274.6,192.6,274.7,191.8z"/>
	<path fill="#FFFFFF" d="M276.7,192.9c-0.7,0.1-1.4,0.2-2,0.3c0,0.3,0,0.7,0,1C275.3,193.8,276,193.4,276.7,192.9z"/>
	<path fill="#FFFFFF" d="M276.7,192.9c-0.6,0.5-1.1,0.9-1.7,1.4c-0.2-0.3-0.4-0.5-0.6-0.8C275.2,193.4,276,193.1,276.7,192.9z"/>
	<path fill="#FFFFFF" d="M272.9,193.4c0.5,0.3,1.1,0.6,1.6,1c0.2-0.3,0.4-0.6,0.6-0.9C274.3,193.5,273.6,193.5,272.9,193.4z"/>
	<path fill="#FFFFFF" d="M272.9,193.4c0.7-0.1,1.3-0.2,2-0.3c0,0.3,0,0.7,0,1C274.2,193.9,273.5,193.7,272.9,193.4z"/>
	<path fill="#FFFFFF" d="M276,195.3c-0.2-0.6-0.4-1.2-0.6-1.8c-0.3,0.1-0.7,0.3-1,0.4C274.9,194.3,275.4,194.8,276,195.3z"/>
	<path fill="#FFFFFF" d="M276,195.3c-0.5-0.3-1.1-0.7-1.6-1c0.2-0.3,0.4-0.6,0.6-0.8C275.2,194,275.6,194.7,276,195.3z"/>
	<path fill="#FFFFFF" d="M273.6,195.6c0.5-0.5,1.1-0.9,1.6-1.4c-0.2-0.2-0.4-0.5-0.6-0.7C274.3,194.2,273.9,194.9,273.6,195.6z"/>
	<path fill="#FFFFFF" d="M273.6,195.6c0.2-0.7,0.4-1.3,0.6-2c0.3,0.1,0.7,0.1,1,0.2C274.7,194.4,274.1,195,273.6,195.6z"/>
	<path fill="#FFFFFF" d="M213.4,164.1c-0.3,0.8-0.5,1.6-0.8,2.5c0.4,0.1,0.8,0.1,1.2,0.2C213.6,165.8,213.5,164.9,213.4,164.1z"/>
	<path fill="#FFFFFF" d="M213.4,164.1c0.2,0.7,0.5,1.5,0.7,2.2c-0.4,0.2-0.8,0.3-1.2,0.5C213.1,165.9,213.2,165,213.4,164.1z"/>
	<path fill="#FFFFFF" d="M215.7,165.4c-0.8,0.1-1.7,0.2-2.5,0.3c0,0.4,0,0.8,0,1.3C214.1,166.5,214.9,166,215.7,165.4z"/>
	<path fill="#FFFFFF" d="M215.7,165.4c-0.7,0.6-1.3,1.2-2,1.8c-0.2-0.3-0.5-0.6-0.7-0.9C213.9,166,214.8,165.7,215.7,165.4z"/>
	<path fill="#FFFFFF" d="M210.9,166.1c0.7,0.4,1.4,0.8,2,1.2c0.2-0.4,0.5-0.8,0.7-1.1C212.8,166.1,211.9,166.1,210.9,166.1z"/>
	<path fill="#FFFFFF" d="M210.9,166.1c0.8-0.1,1.7-0.2,2.5-0.3c0,0.4,0,0.8,0,1.3C212.6,166.7,211.8,166.4,210.9,166.1z"/>
	<path fill="#FFFFFF" d="M214.8,168.4c-0.2-0.8-0.5-1.5-0.7-2.3c-0.4,0.2-0.8,0.4-1.2,0.5C213.5,167.2,214.2,167.8,214.8,168.4z"/>
	<path fill="#FFFFFF" d="M214.8,168.4c-0.7-0.4-1.4-0.8-2-1.2c0.2-0.4,0.5-0.7,0.7-1.1C213.9,166.8,214.4,167.6,214.8,168.4z"/>
	<path fill="#FFFFFF" d="M211.8,168.8c0.7-0.6,1.4-1.2,2.1-1.7c-0.2-0.3-0.5-0.6-0.7-0.9C212.7,167,212.3,167.9,211.8,168.8z"/>
	<path fill="#FFFFFF" d="M211.8,168.8c0.3-0.8,0.5-1.6,0.8-2.5c0.4,0.1,0.8,0.1,1.1,0.2C213.1,167.3,212.5,168,211.8,168.8z"/>
	<path fill="#FFFFFF" d="M259,151.8c-0.2,0.7-0.4,1.3-0.6,2c0.3,0.1,0.6,0.1,0.9,0.2C259.3,153.2,259.1,152.5,259,151.8z"/>
	<path fill="#FFFFFF" d="M259,151.8c0.2,0.6,0.4,1.2,0.7,1.8c-0.3,0.1-0.7,0.3-1,0.4C258.8,153.3,258.9,152.6,259,151.8z"/>
	<path fill="#FFFFFF" d="M261,152.9c-0.7,0.1-1.3,0.2-2,0.3c0,0.3,0,0.7,0,1C259.6,153.8,260.3,153.4,261,152.9z"/>
	<path fill="#FFFFFF" d="M261,152.9c-0.5,0.5-1.1,0.9-1.6,1.4c-0.2-0.2-0.4-0.5-0.6-0.7C259.5,153.4,260.2,153.2,261,152.9z"/>
	<path fill="#FFFFFF" d="M257.2,153.5c0.5,0.3,1.1,0.6,1.6,1c0.2-0.3,0.4-0.6,0.6-0.9C258.6,153.5,257.9,153.5,257.2,153.5z"/>
	<path fill="#FFFFFF" d="M257.2,153.5c0.7-0.1,1.4-0.2,2-0.3c0,0.3,0,0.7,0,1C258.5,153.9,257.8,153.7,257.2,153.5z"/>
	<path fill="#FFFFFF" d="M260.3,155.3c-0.2-0.6-0.5-1.2-0.7-1.8c-0.3,0.1-0.6,0.3-0.9,0.4C259.2,154.4,259.7,154.8,260.3,155.3z"/>
	<path fill="#FFFFFF" d="M260.3,155.3c-0.6-0.3-1.1-0.6-1.7-1c0.2-0.3,0.4-0.6,0.6-0.9C259.5,154,259.9,154.7,260.3,155.3z"/>
	<path fill="#FFFFFF" d="M257.9,155.6c0.5-0.5,1.1-0.9,1.6-1.4c-0.2-0.2-0.4-0.5-0.6-0.7C258.6,154.2,258.2,154.9,257.9,155.6z"/>
	<path fill="#FFFFFF" d="M257.9,155.6c0.2-0.7,0.4-1.3,0.6-2c0.3,0.1,0.6,0.1,0.9,0.2C258.9,154.4,258.4,155,257.9,155.6z"/>
	<path fill="#FFFFFF" d="M240,188.4c-0.3,1-0.6,2-0.9,3c0.5,0.1,1,0.2,1.5,0.3C240.3,190.6,240.2,189.5,240,188.4z"/>
	<path fill="#FFFFFF" d="M240,188.4c0.3,0.9,0.6,1.8,0.9,2.7c-0.5,0.2-0.9,0.4-1.4,0.7C239.7,190.7,239.8,189.5,240,188.4z"/>
	<path fill="#FFFFFF" d="M242.8,190.1c-1,0.1-2,0.3-3,0.4c0,0.5,0,1,0,1.5C240.9,191.4,241.9,190.7,242.8,190.1z"/>
	<path fill="#FFFFFF" d="M242.8,190.1c-0.8,0.7-1.6,1.4-2.4,2.1c-0.3-0.4-0.6-0.8-0.9-1.1C240.7,190.8,241.8,190.4,242.8,190.1z"/>
	<path fill="#FFFFFF" d="M237.2,190.9c0.8,0.5,1.7,1,2.5,1.4c0.3-0.5,0.5-0.9,0.8-1.4C239.4,190.9,238.3,190.9,237.2,190.9z"/>
	<path fill="#FFFFFF" d="M237.2,190.9c1-0.1,2-0.3,3-0.4c0,0.5,0,1,0,1.5C239.1,191.6,238.1,191.3,237.2,190.9z"/>
	<path fill="#FFFFFF" d="M241.8,193.6c-0.3-0.9-0.6-1.8-0.9-2.7c-0.5,0.2-1,0.4-1.5,0.6C240.2,192.2,241,192.9,241.8,193.6z"/>
	<path fill="#FFFFFF" d="M241.8,193.6c-0.8-0.5-1.6-1-2.4-1.4c0.3-0.4,0.6-0.9,0.8-1.3C240.7,191.8,241.2,192.7,241.8,193.6z"/>
	<path fill="#FFFFFF" d="M238.2,194.1c0.8-0.7,1.6-1.4,2.4-2.1c-0.3-0.4-0.6-0.7-0.9-1.1C239.3,192,238.8,193,238.2,194.1z"/>
	<path fill="#FFFFFF" d="M238.2,194.1c0.3-1,0.6-2,0.9-2.9c0.5,0.1,1,0.2,1.5,0.2C239.8,192.3,239,193.2,238.2,194.1z"/>
	<path fill="#FFFFFF" d="M248.1,173.9c-0.3,0.8-0.5,1.7-0.8,2.5c0.4,0.1,0.8,0.1,1.2,0.2C248.4,175.7,248.3,174.8,248.1,173.9z"/>
	<path fill="#FFFFFF" d="M248.1,173.9c0.3,0.8,0.5,1.5,0.8,2.3c-0.4,0.2-0.8,0.3-1.2,0.5C247.8,175.8,248,174.8,248.1,173.9z"/>
	<path fill="#FFFFFF" d="M250.5,175.3c-0.8,0.1-1.7,0.2-2.5,0.3c0,0.4,0,0.8,0,1.2C248.8,176.3,249.6,175.8,250.5,175.3z"/>
	<path fill="#FFFFFF" d="M250.5,175.3c-0.7,0.6-1.4,1.2-2,1.7c-0.2-0.3-0.5-0.6-0.7-0.9C248.6,175.8,249.6,175.6,250.5,175.3z"/>
	<path fill="#FFFFFF" d="M245.7,175.9c0.7,0.4,1.3,0.8,2,1.2c0.2-0.4,0.5-0.7,0.7-1.1C247.6,176,246.7,176,245.7,175.9z"/>
	<path fill="#FFFFFF" d="M245.7,175.9c0.8-0.1,1.7-0.2,2.5-0.3c0,0.4,0,0.8,0,1.2C247.4,176.5,246.6,176.2,245.7,175.9z"/>
	<path fill="#FFFFFF" d="M249.6,178.2c-0.3-0.8-0.5-1.5-0.8-2.3c-0.4,0.2-0.8,0.4-1.2,0.6C248.3,177.1,248.9,177.6,249.6,178.2z"/>
	<path fill="#FFFFFF" d="M249.6,178.2c-0.7-0.4-1.3-0.8-2-1.2c0.2-0.4,0.5-0.7,0.7-1.1C248.7,176.6,249.2,177.4,249.6,178.2z"/>
	<path fill="#FFFFFF" d="M246.6,178.6c0.7-0.6,1.4-1.2,2-1.8c-0.2-0.3-0.5-0.6-0.7-0.9C247.5,176.8,247.1,177.7,246.6,178.6z"/>
	<path fill="#FFFFFF" d="M246.6,178.6c0.3-0.8,0.5-1.7,0.8-2.5c0.4,0.1,0.8,0.2,1.2,0.2C247.9,177.1,247.3,177.8,246.6,178.6z"/>
	<path fill="#FFFFFF" d="M240,168.7c-0.3,0.8-0.5,1.6-0.8,2.5c0.4,0.1,0.8,0.1,1.2,0.2C240.3,170.5,240.1,169.6,240,168.7z"/>
	<path fill="#FFFFFF" d="M240,168.7c0.3,0.7,0.5,1.5,0.8,2.2c-0.4,0.2-0.7,0.4-1.1,0.5C239.8,170.6,239.9,169.7,240,168.7z"/>
	<path fill="#FFFFFF" d="M242.4,170.1c-0.8,0.1-1.7,0.2-2.5,0.3c0,0.4,0,0.8,0,1.3C240.7,171.2,241.5,170.7,242.4,170.1z"/>
	<path fill="#FFFFFF" d="M242.4,170.1c-0.7,0.6-1.3,1.2-2,1.7c-0.2-0.3-0.5-0.6-0.7-0.9C240.5,170.7,241.5,170.4,242.4,170.1z"/>
	<path fill="#FFFFFF" d="M237.7,170.8c0.7,0.4,1.4,0.8,2,1.2c0.2-0.4,0.4-0.7,0.7-1.1C239.5,170.8,238.6,170.8,237.7,170.8z"/>
	<path fill="#FFFFFF" d="M237.7,170.8c0.8-0.1,1.7-0.2,2.5-0.3c0,0.4,0,0.8,0,1.3C239.3,171.4,238.5,171.1,237.7,170.8z"/>
	<path fill="#FFFFFF" d="M241.5,173c-0.3-0.8-0.5-1.5-0.8-2.3c-0.4,0.2-0.8,0.3-1.2,0.5C240.2,171.9,240.8,172.5,241.5,173z"/>
	<path fill="#FFFFFF" d="M241.5,173c-0.7-0.4-1.3-0.8-2-1.2c0.2-0.4,0.5-0.7,0.7-1.1C240.6,171.5,241.1,172.3,241.5,173z"/>
	<path fill="#FFFFFF" d="M238.5,173.4c0.7-0.6,1.3-1.2,2-1.7c-0.2-0.3-0.5-0.6-0.7-0.9C239.4,171.7,239,172.6,238.5,173.4z"/>
	<path fill="#FFFFFF" d="M238.5,173.4c0.3-0.8,0.5-1.6,0.8-2.5c0.4,0.1,0.8,0.1,1.2,0.2C239.9,171.9,239.2,172.7,238.5,173.4z"/>
	<path fill="#FFFFFF" d="M232.9,176.5c-0.2,0.7-0.4,1.3-0.6,2c0.3,0.1,0.7,0.1,1,0.2C233.2,177.9,233.1,177.2,232.9,176.5z"/>
	<path fill="#FFFFFF" d="M232.9,176.5c0.2,0.6,0.4,1.2,0.7,1.8c-0.3,0.1-0.6,0.3-1,0.4C232.7,178,232.8,177.2,232.9,176.5z"/>
	<path fill="#FFFFFF" d="M234.9,177.6c-0.7,0.1-1.3,0.2-2,0.3c0,0.3,0,0.6,0,1C233.5,178.4,234.2,178,234.9,177.6z"/>
	<path fill="#FFFFFF" d="M234.9,177.6c-0.5,0.5-1.1,0.9-1.6,1.4c-0.2-0.3-0.4-0.5-0.6-0.8C233.4,178,234.1,177.8,234.9,177.6z"/>
	<path fill="#FFFFFF" d="M231.1,178.1c0.5,0.3,1.1,0.6,1.6,1c0.2-0.3,0.4-0.6,0.6-0.9C232.5,178.2,231.8,178.2,231.1,178.1z"/>
	<path fill="#FFFFFF" d="M231.1,178.1c0.7-0.1,1.3-0.2,2-0.3c0,0.3,0,0.6,0,1C232.4,178.6,231.7,178.4,231.1,178.1z"/>
	<path fill="#FFFFFF" d="M234.1,180c-0.2-0.6-0.4-1.2-0.6-1.8c-0.3,0.2-0.7,0.3-1,0.5C233.1,179,233.6,179.5,234.1,180z"/>
	<path fill="#FFFFFF" d="M234.1,180c-0.5-0.3-1.1-0.6-1.6-1c0.2-0.3,0.4-0.6,0.6-0.9C233.5,178.7,233.8,179.3,234.1,180z"/>
	<path fill="#FFFFFF" d="M231.8,180.3c0.5-0.5,1.1-0.9,1.6-1.4c-0.2-0.2-0.4-0.5-0.6-0.7C232.5,178.9,232.2,179.6,231.8,180.3z"/>
	<path fill="#FFFFFF" d="M231.8,180.3c0.2-0.7,0.4-1.3,0.6-2c0.3,0.1,0.6,0.1,0.9,0.2C232.8,179.1,232.3,179.7,231.8,180.3z"/>
	<path fill="#FFFFFF" d="M236.5,181.4c-0.1,0.5-0.3,1-0.4,1.4c0.2,0,0.4,0.1,0.7,0.1C236.7,182.5,236.6,181.9,236.5,181.4z"/>
	<path fill="#FFFFFF" d="M236.5,181.4c0.1,0.4,0.3,0.9,0.4,1.3c-0.2,0.1-0.4,0.2-0.7,0.3C236.3,182.5,236.4,182,236.5,181.4z"/>
	<path fill="#FFFFFF" d="M237.8,182.2c-0.5,0.1-1,0.1-1.4,0.2c0,0.2,0,0.5,0,0.7C236.9,182.8,237.4,182.5,237.8,182.2z"/>
	<path fill="#FFFFFF" d="M237.8,182.2c-0.4,0.3-0.7,0.7-1.1,1c-0.1-0.2-0.3-0.4-0.4-0.5C236.8,182.5,237.3,182.4,237.8,182.2z"/>
	<path fill="#FFFFFF" d="M235.1,182.6c0.4,0.2,0.8,0.5,1.2,0.7c0.1-0.2,0.3-0.4,0.4-0.6C236.2,182.6,235.7,182.6,235.1,182.6z"/>
	<path fill="#FFFFFF" d="M235.1,182.6c0.5-0.1,1-0.1,1.4-0.2c0,0.2,0,0.5,0,0.7C236.1,182.9,235.6,182.8,235.1,182.6z"/>
	<path fill="#FFFFFF" d="M237.3,183.9c-0.1-0.4-0.3-0.9-0.4-1.3c-0.2,0.1-0.4,0.2-0.7,0.3C236.6,183.2,236.9,183.6,237.3,183.9z"/>
	<path fill="#FFFFFF" d="M237.3,183.9c-0.4-0.2-0.8-0.5-1.2-0.7c0.2-0.2,0.3-0.4,0.5-0.7C236.8,183,237.1,183.5,237.3,183.9z"/>
	<path fill="#FFFFFF" d="M235.6,184.2c0.4-0.3,0.8-0.7,1.1-1c-0.1-0.2-0.3-0.4-0.4-0.5C236.1,183.1,235.9,183.6,235.6,184.2z"/>
	<path fill="#FFFFFF" d="M235.6,184.2c0.2-0.5,0.3-1,0.5-1.4c0.2,0,0.4,0.1,0.7,0.1C236.4,183.3,236,183.7,235.6,184.2z"/>
	<path fill="#FFFFFF" d="M261,201.7c-0.3,0.8-0.5,1.7-0.8,2.5c0.4,0.1,0.8,0.2,1.2,0.3C261.3,203.5,261.1,202.6,261,201.7z"/>
	<path fill="#FFFFFF" d="M261,201.7c0.3,0.8,0.5,1.5,0.8,2.3c-0.4,0.2-0.8,0.4-1.2,0.6C260.7,203.6,260.8,202.7,261,201.7z"/>
	<path fill="#FFFFFF" d="M263.3,203.1c-0.8,0.1-1.7,0.2-2.5,0.3c0,0.4,0,0.9,0,1.3C261.7,204.2,262.5,203.6,263.3,203.1z"/>
	<path fill="#FFFFFF" d="M263.3,203.1c-0.7,0.6-1.3,1.2-2,1.8c-0.2-0.3-0.5-0.6-0.7-0.9C261.5,203.6,262.4,203.4,263.3,203.1z"/>
	<path fill="#FFFFFF" d="M258.6,203.7c0.7,0.4,1.3,0.8,2,1.2c0.3-0.4,0.5-0.8,0.8-1.1C260.4,203.8,259.5,203.8,258.6,203.7z"/>
	<path fill="#FFFFFF" d="M258.6,203.7c0.8-0.1,1.7-0.2,2.5-0.3c0,0.4,0,0.9,0,1.3C260.3,204.4,259.4,204.1,258.6,203.7z"/>
	<path fill="#FFFFFF" d="M262.4,206c-0.3-0.8-0.5-1.5-0.8-2.3c-0.4,0.2-0.8,0.4-1.2,0.6C261.1,204.9,261.8,205.5,262.4,206z"/>
	<path fill="#FFFFFF" d="M262.4,206c-0.7-0.4-1.3-0.8-2-1.2c0.2-0.4,0.5-0.7,0.7-1.1C261.6,204.5,262,205.3,262.4,206z"/>
	<path fill="#FFFFFF" d="M259.5,206.4c0.7-0.6,1.3-1.2,2-1.7c-0.2-0.3-0.5-0.6-0.7-0.9C260.4,204.7,259.9,205.6,259.5,206.4z"/>
	<path fill="#FFFFFF" d="M259.5,206.4c0.3-0.8,0.5-1.7,0.8-2.5c0.4,0.1,0.8,0.2,1.2,0.2C260.8,204.9,260.1,205.7,259.5,206.4z"/>
	<path fill="#FFFFFF" d="M267,195.2c-0.2,0.7-0.4,1.3-0.6,2c0.3,0.1,0.6,0.1,0.9,0.2C267.2,196.7,267.1,196,267,195.2z"/>
	<path fill="#FFFFFF" d="M267,195.2c0.2,0.6,0.4,1.2,0.6,1.8c-0.3,0.2-0.6,0.3-1,0.5C266.7,196.7,266.8,196,267,195.2z"/>
	<path fill="#FFFFFF" d="M268.8,196.4c-0.7,0.1-1.3,0.2-2,0.3c0,0.3,0,0.6,0,1C267.5,197.2,268.2,196.8,268.8,196.4z"/>
	<path fill="#FFFFFF" d="M268.8,196.4c-0.5,0.5-1.1,0.9-1.6,1.4c-0.2-0.2-0.4-0.5-0.6-0.7C267.4,196.8,268.1,196.6,268.8,196.4z"/>
	<path fill="#FFFFFF" d="M265,196.9c0.5,0.3,1.1,0.6,1.6,0.9c0.2-0.3,0.4-0.6,0.6-0.9C266.5,196.9,265.8,196.9,265,196.9z"/>
	<path fill="#FFFFFF" d="M265,196.9c0.7-0.1,1.4-0.2,2-0.3c0,0.3,0,0.6,0,1C266.4,197.3,265.7,197.1,265,196.9z"/>
	<path fill="#FFFFFF" d="M268.1,198.7c-0.2-0.6-0.4-1.2-0.6-1.8c-0.3,0.1-0.6,0.3-0.9,0.4C267.1,197.8,267.6,198.2,268.1,198.7z"/>
	<path fill="#FFFFFF" d="M268.1,198.7c-0.5-0.3-1.1-0.6-1.6-1c0.2-0.3,0.4-0.6,0.6-0.9C267.5,197.4,267.8,198.1,268.1,198.7z"/>
	<path fill="#FFFFFF" d="M265.8,199c0.5-0.5,1.1-0.9,1.6-1.4c-0.2-0.2-0.4-0.5-0.6-0.7C266.5,197.6,266.1,198.3,265.8,199z"/>
	<path fill="#FFFFFF" d="M265.8,199c0.2-0.7,0.4-1.3,0.6-2c0.3,0.1,0.6,0.1,0.9,0.2C266.8,197.8,266.3,198.4,265.8,199z"/>
	<path fill="#FFFFFF" d="M255.4,195.1c-0.2,0.7-0.4,1.3-0.6,2c0.3,0.1,0.6,0.1,0.9,0.2C255.7,196.5,255.6,195.8,255.4,195.1z"/>
	<path fill="#FFFFFF" d="M255.4,195.1c0.2,0.6,0.4,1.2,0.6,1.8c-0.3,0.2-0.6,0.3-0.9,0.5C255.2,196.6,255.3,195.8,255.4,195.1z"/>
	<path fill="#FFFFFF" d="M257.3,196.2c-0.7,0.1-1.3,0.2-2,0.3c0,0.3,0,0.7,0,1C256,197.1,256.7,196.6,257.3,196.2z"/>
	<path fill="#FFFFFF" d="M257.3,196.2c-0.5,0.5-1.1,0.9-1.6,1.4c-0.2-0.3-0.4-0.5-0.6-0.8C255.9,196.6,256.6,196.4,257.3,196.2z"/>
	<path fill="#FFFFFF" d="M253.5,196.7c0.5,0.3,1.1,0.6,1.6,1c0.2-0.3,0.4-0.6,0.6-0.9C255,196.8,254.2,196.7,253.5,196.7z"/>
	<path fill="#FFFFFF" d="M253.5,196.7c0.7-0.1,1.4-0.2,2-0.3c0,0.3,0,0.7,0,1C254.9,197.2,254.2,197,253.5,196.7z"/>
	<path fill="#FFFFFF" d="M256.6,198.5c-0.2-0.6-0.4-1.2-0.6-1.8c-0.3,0.2-0.6,0.3-1,0.5C255.6,197.6,256.1,198.1,256.6,198.5z"/>
	<path fill="#FFFFFF" d="M256.6,198.5c-0.6-0.3-1.1-0.6-1.7-1c0.2-0.3,0.4-0.6,0.6-0.9C255.9,197.3,256.3,197.9,256.6,198.5z"/>
	<path fill="#FFFFFF" d="M254.2,198.9c0.5-0.5,1.1-0.9,1.6-1.4c-0.2-0.2-0.4-0.5-0.6-0.7C254.9,197.5,254.6,198.2,254.2,198.9z"/>
	<path fill="#FFFFFF" d="M254.2,198.9c0.2-0.7,0.4-1.3,0.6-2c0.3,0.1,0.7,0.1,1,0.2C255.3,197.7,254.8,198.3,254.2,198.9z"/>
	<path fill="#FFFFFF" d="M211.9,198c-0.3,1-0.6,2-0.9,3c0.5,0.1,0.9,0.2,1.4,0.3C212.2,200.2,212.1,199.1,211.9,198z"/>
	<path fill="#FFFFFF" d="M211.9,198c0.3,0.9,0.6,1.8,0.9,2.7c-0.5,0.2-0.9,0.4-1.4,0.7C211.6,200.3,211.7,199.1,211.9,198z"/>
	<path fill="#FFFFFF" d="M214.8,199.7c-1,0.1-2,0.3-3,0.4c0,0.5,0,1,0,1.5C212.8,201,213.8,200.4,214.8,199.7z"/>
	<path fill="#FFFFFF" d="M214.8,199.7c-0.8,0.7-1.7,1.4-2.5,2.1c-0.3-0.4-0.6-0.7-0.8-1.1C212.6,200.4,213.7,200,214.8,199.7z"/>
	<path fill="#FFFFFF" d="M209,200.5c0.8,0.5,1.7,0.9,2.5,1.4c0.3-0.4,0.5-0.9,0.8-1.3C211.2,200.5,210.1,200.5,209,200.5z"/>
	<path fill="#FFFFFF" d="M209,200.5c1-0.1,2-0.3,3-0.4c0,0.5,0,1,0,1.5C211,201.2,210,200.9,209,200.5z"/>
	<path fill="#FFFFFF" d="M213.7,203.2c-0.3-0.9-0.6-1.8-0.9-2.7c-0.5,0.2-0.9,0.4-1.4,0.6C212.1,201.8,212.9,202.5,213.7,203.2z"/>
	<path fill="#FFFFFF" d="M213.7,203.2c-0.8-0.5-1.6-1-2.4-1.4c0.3-0.4,0.6-0.9,0.8-1.3C212.6,201.4,213.1,202.3,213.7,203.2z"/>
	<path fill="#FFFFFF" d="M210.1,203.7c0.8-0.7,1.6-1.4,2.4-2.1c-0.3-0.4-0.6-0.7-0.9-1.1C211.2,201.6,210.7,202.6,210.1,203.7z"/>
	<path fill="#FFFFFF" d="M210.1,203.7c0.3-1,0.6-2,1-3c0.5,0.1,0.9,0.2,1.4,0.3C211.7,201.9,210.9,202.8,210.1,203.7z"/>
	<path fill="#FFFFFF" d="M240,213.7c-0.1,0.3-0.2,0.7-0.3,1c0.1,0,0.3,0.1,0.4,0.1C240.1,214.5,240,214.1,240,213.7z"/>
	<path fill="#FFFFFF" d="M240,213.7c0.1,0.3,0.2,0.6,0.3,0.9c-0.1,0.1-0.3,0.2-0.4,0.2C239.9,214.5,240,214.1,240,213.7z"/>
	<path fill="#FFFFFF" d="M241,214.3c-0.3,0-0.7,0.1-1,0.1c0,0.2,0,0.3,0,0.5C240.3,214.7,240.6,214.5,241,214.3z"/>
	<path fill="#FFFFFF" d="M241,214.3c-0.3,0.2-0.6,0.5-0.8,0.7c-0.1-0.1-0.2-0.3-0.3-0.4C240.2,214.5,240.6,214.4,241,214.3z"/>
	<path fill="#FFFFFF" d="M239,214.6c0.3,0.2,0.6,0.3,0.8,0.5c0.1-0.2,0.2-0.3,0.3-0.5C239.8,214.6,239.4,214.6,239,214.6z"/>
	<path fill="#FFFFFF" d="M239,214.6c0.3,0,0.7-0.1,1-0.1c0,0.2,0,0.3,0,0.5C239.7,214.8,239.4,214.7,239,214.6z"/>
	<path fill="#FFFFFF" d="M240.6,215.5c-0.1-0.3-0.2-0.6-0.2-0.9c-0.2,0.1-0.3,0.2-0.5,0.2C240.1,215,240.3,215.2,240.6,215.5z"/>
	<path fill="#FFFFFF" d="M240.6,215.5c-0.3-0.2-0.5-0.3-0.8-0.5c0.1-0.1,0.2-0.3,0.2-0.4C240.2,214.9,240.4,215.2,240.6,215.5z"/>
	<path fill="#FFFFFF" d="M239.4,215.6c0.3-0.2,0.5-0.5,0.8-0.7c-0.1-0.1-0.2-0.2-0.2-0.4C239.8,214.9,239.6,215.3,239.4,215.6z"/>
	<path fill="#FFFFFF" d="M239.4,215.6c0.1-0.3,0.2-0.7,0.3-1c0.1,0,0.3,0.1,0.4,0.1C239.9,215,239.7,215.3,239.4,215.6z"/>
</g>
</svg>
