<svg version="1.1" id="che" name="switzerland" xmlns="http://www.w3.org/2000/svg" xmlns:xlink="http://www.w3.org/1999/xlink" x="0px" y="0px"
	 viewBox="0 0 480 320" enable-background="new 0 0 480 320" xml:space="preserve">
<g id="flags-che">
	<path fill="#C52328" d="M0,300c160,44.8,320-44.8,480,0c0-93.3,0-186.7,0-280C320-24.8,160,64.8,0,20C0,113.3,0,206.7,0,300z"/>
	<path fill="#FFFFFF" d="M152.5,144.4c20.4-1.7,40.8-4.2,61.2-7c0-20.4,0-40.8,0-61.3c17.5-2.4,35-4.9,52.5-7.3
		c0,20.4,0,40.8,0,61.3c20.4-2.8,40.8-5.3,61.2-7c0,17.5,0,35,0,52.5c-20.4,1.7-40.8,4.2-61.2,7c0,20.4,0,40.8,0,61.2
		c-17.5,2.4-35,4.9-52.5,7.3c0-20.4,0-40.8,0-61.2c-20.4,2.8-40.8,5.3-61.2,7C152.5,179.4,152.5,161.9,152.5,144.4z"/>
</g>
</svg>
