<svg version="1.1" id="chl" name="chile" xmlns="http://www.w3.org/2000/svg" xmlns:xlink="http://www.w3.org/1999/xlink" x="0px" y="0px"
	 viewBox="0 0 480 320" enable-background="new 0 0 480 320" xml:space="preserve">
<g id="flag-chl">
	<path fill="#FFFFFF" d="M0,300c160,44.8,320-44.8,480,0c0-93.3,0-186.7,0-280C320-24.8,160,64.8,0,20C0,113.3,0,206.7,0,300z"/>
	<path fill="#324297" d="M0,300c46.7,13.1,93.3,14.7,140,11.6c0-93.3,0-186.7,0-280C93.3,34.7,46.7,33.1,0,20C0,113.3,0,206.7,0,300
		z"/>
	<path fill="#C22828" d="M0,300c160,44.8,320-44.8,480,0c0-46.7,0-93.3,0-140c-160-44.8-320,44.8-480,0C0,206.7,0,253.3,0,300z"/>
	<path fill="#FFFFFF" d="M70,66.8c-3.6,10.8-7.2,21.7-10.8,32.4c5.5,2.4,11.1,4.6,16.6,6.7C73.9,92.9,72,79.9,70,66.8z"/>
	<path fill="#FFFFFF" d="M70,66.8c3.6,11.4,7.2,22.7,10.8,33.9c-5.5,1.6-11.1,3-16.6,4.3C66.1,92.4,68.1,79.6,70,66.8z"/>
	<path fill="#FFFFFF" d="M103.3,92.1c-11.6,0-23.3-0.3-34.9-1.2c0,5.8,0,11.7,0,17.5C80,103.4,91.6,98,103.3,92.1z"/>
	<path fill="#FFFFFF" d="M103.3,92.1C93.9,99,84.4,105.6,75,111.9C71.5,107,68.1,102,64.7,97C77.6,96,90.4,94.3,103.3,92.1z"/>
	<path fill="#FFFFFF" d="M36.7,87.2c9.5,8.4,18.9,16.4,28.4,24c3.4-4.4,6.8-8.9,10.2-13.5C62.5,94.9,49.6,91.4,36.7,87.2z"/>
	<path fill="#FFFFFF" d="M36.7,87.2c11.7,1.9,23.4,3.2,35,3.9c0,5.8,0,11.7,0,17.5C60.1,102,48.4,94.9,36.7,87.2z"/>
	<path fill="#FFFFFF" d="M90.6,131.1c-3.6-11.2-7.2-22.4-10.8-33.6c-5.5,1.5-11.1,3-16.6,4.3C72.3,111.8,81.4,121.6,90.6,131.1z"/>
	<path fill="#FFFFFF" d="M90.6,131.1c-9.4-7.1-18.9-14.4-28.3-22.1c3.4-4.4,6.9-8.9,10.3-13.3C78.6,107.6,84.6,119.4,90.6,131.1z"/>
	<path fill="#FFFFFF" d="M49.5,128.2c9.4-5.7,18.9-11.7,28.3-18.1c-3.4-4.9-6.9-9.8-10.3-14.8C61.5,106.4,55.5,117.3,49.5,128.2z"/>
	<path fill="#FFFFFF" d="M49.5,128.2c3.6-10.6,7.2-21.3,10.8-32.1c5.6,2.3,11.1,4.5,16.7,6.6C67.8,111.5,58.6,120,49.5,128.2z"/>
</g>
</svg>
