<svg version="1.1" id="cri" name="costa rica" xmlns="http://www.w3.org/2000/svg" xmlns:xlink="http://www.w3.org/1999/xlink" x="0px" y="0px"
	 viewBox="0 0 480 320" enable-background="new 0 0 480 320" xml:space="preserve">
<g id="flag-cri">
	<path fill="#2A3479" d="M0,300c160,44.8,320-44.8,480,0c0-93.3,0-186.7,0-280C320-24.8,160,64.8,0,20C0,113.3,0,206.7,0,300z"/>
	<path fill="#FFFFFF" d="M0,253.3c160,44.8,320-44.8,480,0c0-62.2,0-124.4,0-186.6c-160-44.8-320,44.8-480,0
		C0,128.9,0,191.1,0,253.3z"/>
	<path fill="#BC2035" d="M0,206.7c160,44.8,320-44.8,480,0c0-31.1,0-62.2,0-93.3c-160-44.8-320,44.8-480,0C0,144.5,0,175.6,0,206.7z
		"/>
</g>
</svg>
