<svg version="1.1" id="cub" name="cuba" xmlns="http://www.w3.org/2000/svg" xmlns:xlink="http://www.w3.org/1999/xlink" x="0px" y="0px"
	 viewBox="0 0 480 320" enable-background="new 0 0 480 320" xml:space="preserve">
<g id="flag-cub">
	<path fill="#2D3E85" d="M0,300c160,44.8,320-44.8,480,0c0-93.3,0-186.7,0-280C320-24.8,160,64.8,0,20C0,113.3,0,206.7,0,300z"/>
	<path fill="#2A2D2F" d="M0,216.1c160,44.8,320-44.8,480,0C320,171.3,160,260.9,0,216.1z M0,103.9c160,44.8,320-44.8,480,0
		C320,59.1,160,148.7,0,103.9z"/>
	<path fill="#FFFFFF" d="M0,244.1c160,44.8,320-44.8,480,0c0-18.6,0-37.3,0-55.9c-160-44.8-320,44.8-480,0C0,206.8,0,225.5,0,244.1z
		 M0,131.8c160,44.8,320-44.8,480,0c0-18.6,0-37.3,0-55.9c-160-44.8-320,44.8-480,0C0,94.5,0,113.2,0,131.8z"/>
	<path fill="#D71F35" d="M0,20c0,93.3,0,186.7,0,280c80.7-24,161.4-82.2,242.1-140C161.4,124.5,80.7,89.3,0,20z"/>
	<path fill-rule="evenodd" clip-rule="evenodd" fill="#FFFFFF" d="M80.8,125.8c-4.8,14.5-9.6,29-14.4,43.3c7.4,3,14.7,5.8,22.1,8.4
		C86,160.3,83.4,143.1,80.8,125.8z"/>
	<path fill-rule="evenodd" clip-rule="evenodd" fill="#FFFFFF" d="M80.8,125.8c4.7,14.9,9.3,29.8,14,44.6
		c-7.4,2.3-14.7,4.4-22.1,6.3C75.4,159.8,78.1,142.8,80.8,125.8z"/>
	<path fill-rule="evenodd" clip-rule="evenodd" fill="#FFFFFF" d="M125.1,158.2c-15.5,0.7-31,0.8-46.5,0c0,7.7,0,15.3,0,23
		C94.1,174.3,109.6,166.6,125.1,158.2z"/>
	<path fill-rule="evenodd" clip-rule="evenodd" fill="#FFFFFF" d="M125.1,158.2c-12.6,9.6-25.3,18.7-37.9,27.3
		c-4.5-6.3-9-12.7-13.5-19.1C90.8,164.7,107.9,161.8,125.1,158.2z"/>
	<path fill-rule="evenodd" clip-rule="evenodd" fill="#FFFFFF" d="M36.1,153.8c12.6,11.1,25.3,21.4,37.9,31.2
		c4.5-5.9,9-11.8,13.5-17.9C70.5,163.7,53.3,159.4,36.1,153.8z"/>
	<path fill-rule="evenodd" clip-rule="evenodd" fill="#FFFFFF" d="M36.1,153.8c15.7,2.6,31.3,4,47,4.6c0,7.7,0,15.3,0,23
		C67.5,173.1,51.8,164,36.1,153.8z"/>
	<path fill-rule="evenodd" clip-rule="evenodd" fill="#FFFFFF" d="M108,210.5c-4.8-14.7-9.6-29.4-14.5-44.2
		c-7.4,2.3-14.7,4.4-22.1,6.3C83.6,185.8,95.8,198.4,108,210.5z"/>
	<path fill-rule="evenodd" clip-rule="evenodd" fill="#FFFFFF" d="M108,210.5c-12.5-9-25-18.4-37.5-28.5c4.5-5.9,9-11.8,13.5-17.8
		C92,179.9,100,195.3,108,210.5z"/>
	<path fill-rule="evenodd" clip-rule="evenodd" fill="#FFFFFF" d="M53.3,208c12.5-7.7,25-16.1,37.5-25c-4.5-6.3-9-12.6-13.5-19
		C69.3,178.9,61.3,193.5,53.3,208z"/>
	<path fill-rule="evenodd" clip-rule="evenodd" fill="#FFFFFF" d="M53.3,208c4.8-14.2,9.6-28.4,14.5-42.8c7.4,3,14.8,5.7,22.2,8.3
		C77.7,185.5,65.5,197,53.3,208z"/>
</g>
</svg>
