<svg version="1.1" id="cyp" name="cyprus" xmlns="http://www.w3.org/2000/svg" xmlns:xlink="http://www.w3.org/1999/xlink" x="0px" y="0px"
	 viewBox="0 0 480 320" enable-background="new 0 0 480 320" xml:space="preserve">
<g id="flag-cyp">
	<path fill="#FFFFFF" d="M0,300c160,44.8,320-44.8,480,0c0-93.3,0-186.7,0-280C320-24.8,160,64.8,0,20C0,113.3,0,206.7,0,300z"/>
	<path fill="#DB7D29" d="M205.2,109.8c0,3.6,0.5,4.1,0.7,4.7c0.3,0.7,0.5,13.4-1.3,17c-1.9,3.7-5.6,6.1-7.1,6.7
		c-1.5,0.6-6.2-2.2-10.6-3.1c-4.4-0.9-4.2-0.7-6-0.4c-1.9,0.2-6,2.2-7.1,3.3c-0.8-0.1-1-0.3-1.5,0.2c-0.4,0.5-2.3,2.5-2.7,3.8
		c-0.5,1.2-1.6,5.7-3,6.3c-1.3,0.6-5.1,4.7-7.6,5.1c-2.5,0.4-1.8,0.1-3.5,0.1c-1.7,0.1-1.8-1.7-3.5-2.4c-1.6-0.8-2-1.5-2-1.5
		c0,0-0.5-1.8-1.2-1.7c-0.7,0.1-1.3,3.3-1.3,4.2c0,0.9,1.8,4.2,2.7,4.9c1,0.6,1,4.8,0.5,5.9c-0.5,1.2,0.9,2.3,1.1,3.4
		c0.2,1.1-1.4,2.2-0.7,2.3c0.7,0.1,1.6,1.5,1.6,2.9c0,1.4,3.4,1.6,4.2,2.8c0.7,1.3,1,3.6,1.2,5c0.2,1.4,0.9,0.6,1.1,4.1
		c1.1,0.4,2.7,1.4,4.2,1.9c1.4,0.6,1.1,2.2,3,2.7c1.8,0.5,1.8-0.2,2.8,0c0.9,0.1-0.4,0.5,1.2,0.8c1.6,0.3,2.3-0.5,3.6,0.1
		c1.4,0.6,2.1,2.1,3,2.5c0.9,0.3,4.9,1.1,5.1,1.3c0.2,0.2,2.7,0.8,3.2,0.8c0.4-0.1,1.9-1.1,1.9-1.1c0,0,1.6,0.2,3-0.4
		c1.4-0.6,2.3-2.1,3.2-2.2c1-0.1,1.1,0.3,2.1,0.2c0.9-0.1,2.3-0.7,2.3-0.7c0,0,2.1-0.8,3.7,0c1.6,0.7,5.3,4.6,5.3,6.4
		c0,1.9-0.2,2.8-0.2,2.8s1.9-0.4,2.5-0.1c0.7,0.4,0.6-0.4,5.7-0.3c-0.3-1.2-5.3-4.1-0.7-9.8c4.6-5.7,4.9-3.7,6-4.8
		c1.1-1,5.3-4.3,12.4-2.8c6.9-2.1,1.9-2.4,5.7-3.1c0.7-0.4,2-0.2,3.5,0c0.5-0.9,1.4-1.9,3-1.8c0.3-0.8,2.2-2.2,4.2-2.7
		c0.2-1.6,5.2-4.2,8-4.8c1.2-1.2,2.5-6,8.8-4.7c0.2-1.5,1.2-4.1,3-4.8c0.4-3.1-0.8-9.3,2.3-11.8c3.1-3.3,6.1-3,11.3-3.5
		c3.6,0.3,5.3,2.7,6.5,2.9c1.1,0.1,1.5,0,2.9-1.1c1.4-1-0.2-2.7,1-2.9c1.2-0.1,0.7,0.2,2.5-0.3c1.9-0.4,1.6-1,2.7-1.4
		c1.9,0.7,3.9-0.2,4.9,0.4c0.9,0.6,1,0.5,3,0.5c0.7,1.1,2.6,0.9,2.6,0.9s-1.4-0.3-0.9-1.1c0.5-0.7,0-2.7-0.9-3.5
		c-1-0.8-1.4-1-2.1-1.9c-0.7-0.8,0.3-0.9-0.9-2c-1.1-1-3.7-1.9-4.3-3.2c-0.7-1.3-0.5-2.2-1.7-3.3c-1.1-1.1-5.8-4.4-6-8.5
		c-0.3-4.1,0.2-8.2,3-9.8c-0.1-2.5,0.4-2.8,3-4.5c2.6-1.7,2.8-0.8,4.4-0.9c1.6-0.2,2.5,0,4.2-1.4c1.6-1.3,0.2-3.7,4.4-7.8
		c4.2-4.1,5.8-6.1,7.2-6.5c1.3-0.4,6.4-4.4,8.4-4.3c1.5-1.9,3-4.1,4.9-5.7c1.9-1.5,3.9-1.7,4.8-2.9c1-1.2,0.7-3.3,3.5-5.3
		c2.7-2.1,5.1-3.4,6.2-4.3c1.1-1,3.7-0.5,4.6-1.4c0.9-1,0.9-4.4,1.9-5.2c0.9-0.7-3,1.8-5.1,2.8c-2,1-5,2.9-7.6,2.8
		c-2.5-0.1-1.1,1.5-2.5,2c-1.4,0.5-3.7,0.5-4.6,1.5c-0.9,1-2.5,3.4-3.9,4.5c-1.4,1-2.1,0.9-3.5,1.7c-1.4,0.8-2.5,1.6-3.7,2.2
		c-1.2,0.6-4.6,0.7-4.6,0.7c0,0-3,4.2-4.4,5.8c-1.3,1.5-3,1.4-4.4,2.3c-1.4,0.8-13.1,9.7-21.1,11.9c-8.1,2.1-4.4-0.2-6.9,0.9
		c-2.5,1-6.2,6.3-9.3,6.9c-3,0.7-3.9,0.5-4.5,0.6c-0.7,0.1-4.4,3-6.7,2.8c-3.4,1.5-5.9,1.6-6.9,1.6c-1,0-2.7,1.6-5.3,0.7
		c-1.9-0.4-1.9,1-5.7,0.4c-3.8-0.6-6.4,1.3-8.3,0.7c-1.8-0.7-1.6-1.5-3-1.3c-1.3,0.2-1.3,1.1-3,1.4c-1.6,0.2-1.9-0.7-3.2-0.5
		c-1.3,0.2-3,1.4-5.1,1.4c-2.1,0-2.8-0.8-4.2-0.6C212.9,112,205.2,109.8,205.2,109.8L205.2,109.8z"/>
	<path fill="#2F6954" d="M228.8,247.4c4.1-3.5,7.6-4.9,13-6.6c5.4-1.7,11.2-4.1,14.2-5.3c3-1.2-10.2,5.3-13.6,6.7
		C239.1,243.5,228.8,247.4,228.8,247.4L228.8,247.4z"/>
	<path fill="#2F6954" d="M250.7,235.8c-1.1-6.7,1.6-14.3,7.8-18C260,222.6,255.6,231.6,250.7,235.8L250.7,235.8z"/>
	<path fill="#2F6954" d="M261.3,230.8c-3.3-5.3,2.3-13.4,6.4-17.5C269.7,216.4,266.3,227.1,261.3,230.8L261.3,230.8z"/>
	<path fill="#2F6954" d="M271.1,225c-3.5-4.4,0.7-13.5,5.2-17.5C277.9,212.2,276.2,221,271.1,225L271.1,225z"/>
	<path fill="#2F6954" d="M280.8,217.6c-3.2-4.2-1-11.7,3.7-16.9C287.8,204.2,285,212.9,280.8,217.6L280.8,217.6z"/>
	<path fill="#2F6954" d="M288.7,210.5c-2.7-4,0.6-14.9,5-18.3C295.5,195.9,294.1,206.9,288.7,210.5L288.7,210.5z"/>
	<path fill="#2F6954" d="M294.9,208.1c-0.8-6.2,10.1-14.3,14.5-14.6C309,198.7,304.3,204.7,294.9,208.1L294.9,208.1z"/>
	<path fill="#2F6954" d="M288.8,215.9c5.1-5.9,15.1-7,18.6-6.3C306.5,212.7,294.8,220.7,288.8,215.9L288.8,215.9z"/>
	<path fill="#2F6954" d="M281.8,222c7.2-2.8,11.9-5,16.2-1C294.9,225.2,283.2,225.5,281.8,222C281.8,222,281.8,222,281.8,222z"/>
	<path fill="#2F6954" d="M271.5,228c6.9-4.6,15.2-0.2,16.5,2.8C280.3,235,271.4,228.9,271.5,228L271.5,228z"/>
	<path fill="#2F6954" d="M262.1,234.6c6.3-3.3,13.5-1,16.3,2.1C275,238.8,266.3,241.7,262.1,234.6L262.1,234.6z"/>
	<path fill="#2F6954" d="M253.5,238.5c7.2-1.8,14.1,2.7,15.6,5.6C259.9,246.2,256.4,244,253.5,238.5L253.5,238.5z"/>
	<path fill="#2F6954" d="M251.2,244.2c-4-2.3-7.5-2.8-13-3c-5.4-0.2-11.2-1-14.3-1.4c-3-0.4,10.3,2.4,13.7,2.9
		C240.9,243.3,251.2,244.2,251.2,244.2L251.2,244.2z"/>
	<path fill="#2F6954" d="M229.2,238.8c1.1-7-1.5-13.9-7.8-15.8C220,228.1,224.4,235.9,229.2,238.8L229.2,238.8z"/>
	<path fill="#2F6954" d="M218.7,236.7c3.4-6.2-2.3-12.7-6.4-15.8C210.3,224.6,213.7,234.4,218.7,236.7L218.7,236.7z"/>
	<path fill="#2F6954" d="M208.9,233.6c3.6-5.4-0.6-13.4-5.1-16.2C202,222.5,203.8,231,208.9,233.6L208.9,233.6z"/>
	<path fill="#2F6954" d="M199.1,228.7c3.2-5,1-11.9-3.7-16C192.2,217,195,225,199.1,228.7L199.1,228.7z"/>
	<path fill="#2F6954" d="M191.3,223.6c2.8-4.7-0.6-14.7-5-17.1C184.4,210.6,185.9,221.3,191.3,223.6L191.3,223.6z"/>
	<path fill="#2F6954" d="M185,222.7c0.8-6.3-10.1-12-14.5-11.3C171,216.4,175.6,221.5,185,222.7L185,222.7z"/>
	<path fill="#2F6954" d="M191.2,229c-5.2-4.6-15.1-3.5-18.6-2C173.6,229.9,185.2,235.3,191.2,229L191.2,229z"/>
	<path fill="#2F6954" d="M198.2,233.4c-7.2-1-11.9-2-16.2,3C185,239.8,196.8,237.3,198.2,233.4L198.2,233.4z"/>
	<path fill="#2F6954" d="M208.5,236.7c-6.9-2.7-15.2,3.7-16.5,7C199.7,246,208.6,237.5,208.5,236.7L208.5,236.7z"/>
	<path fill="#2F6954" d="M217.9,240.7c-6.3-1.5-13.4,2.6-16.3,6.5C205,248.4,213.7,249,217.9,240.7L217.9,240.7z"/>
	<path fill="#2F6954" d="M226.6,242.2c-7.3,0.2-14.2,6.6-15.7,9.9C220.1,251.8,223.6,248.5,226.6,242.2L226.6,242.2z"/>
</g>
</svg>
