<svg version="1.1" id="dji" name="dschibuti" xmlns="http://www.w3.org/2000/svg" xmlns:xlink="http://www.w3.org/1999/xlink" x="0px" y="0px"
	 viewBox="0 0 480 320" enable-background="new 0 0 480 320" xml:space="preserve">
<g id="flag-dji">
	<path fill="#80AFDE" d="M0,160c160,44.8,320-44.8,480,0c0-46.6,0-93.3,0-139.9C320-24.8,160,64.8,0,20C0,66.7,0,113.3,0,160z"/>
	<path fill="#4DAE48" d="M0,300c160,44.8,320-44.8,480,0c0-46.7,0-93.3,0-140c-160-44.8-320,44.8-480,0C0,206.6,0,253.3,0,300z"/>
	<path fill="#FFFFFF" d="M0,20C0,66.7,0,113.3,0,160c0,46.7,0,93.3,0,140c40.4-12,80.8-32.6,121.2-57.5
		c40.4-24.8,80.9-53.9,121.3-82.9c-40.4-17.7-80.9-35.2-121.3-57C80.8,80.7,40.4,54.7,0,20z"/>
	<path fill="#E62328" d="M80.8,144.4c2.1,6.6,4.2,13.1,6.2,19.6c6.8,0.2,13.6,0.3,20.4,0.2c-5.5,4.1-11,8-16.5,11.9
		c2.1,6.5,4.2,13,6.3,19.5c-5.5-4-10.9-8.2-16.4-12.4c-5.5,3.7-11,7.4-16.5,10.9c2.1-6.3,4.2-12.6,6.3-18.9
		c-5.5-4.4-11-8.8-16.5-13.4c6.8,0.8,13.6,1.3,20.4,1.7C76.6,157.1,78.7,150.8,80.8,144.4z"/>
</g>
</svg>
