<svg version="1.1" id="dnk" name="denmark" xmlns="http://www.w3.org/2000/svg" xmlns:xlink="http://www.w3.org/1999/xlink" x="0px"
     y="0px"
     viewBox="0 0 480 320" enable-background="new 0 0 480 320" xml:space="preserve">
<g id="flag-dnk">
    <path fill="#BE223F"
          d="M0,300c160,44.8,320-44.8,480,0c0-93.3,0-186.7,0-280C320-24.8,160,64.8,0,20C0,113.3,0,206.7,0,300z"/>
    <path fill="#FFFFFF" d="M155.7,310.3c17.3-1.5,34.6-3.6,51.9-5.9c0-93.3,0-186.7,0-280c-17.3,2.3-34.6,4.4-51.9,5.9
	C155.7,123.7,155.7,217,155.7,310.3z"/>
    <path fill="#FFFFFF"
          d="M0,185.9c160,44.8,320-44.8,480,0c0-17.3,0-34.6,0-51.9c-160-44.8-320,44.8-480,0C0,151.3,0,168.6,0,185.9z"
    />
</g>
</svg>
