<svg version="1.1" id="fin" name="finland" xmlns="http://www.w3.org/2000/svg" xmlns:xlink="http://www.w3.org/1999/xlink" x="0px"
     y="0px"
     viewBox="0 0 480 320" enable-background="new 0 0 480 320" xml:space="preserve">
<g id="flag-fin">
    <path fill="#FFFFFF"
          d="M0,300c160,44.8,320-44.8,480,0c0-93.3,0-186.7,0-280C320-24.8,160,64.8,0,20C0,113.3,0,206.7,0,300z"/>
    <path fill="#27397C" d="M135.1,31.9c0,33.5,0,67.1,0,100.6c-45,2.7-90,0.7-135.1-11.9c0,26.2,0,52.5,0,78.7
	c45,12.6,90,14.6,135.1,11.9c0,33.6,0,67.1,0,100.7c26.2-1.6,52.5-4.7,78.7-8.3c0-33.6,0-67.1,0-100.7c88.7-12,177.5-28.5,266.2-3.6
	c0-26.2,0-52.5,0-78.7c-88.7-24.8-177.5-8.3-266.2,3.6c0-33.5,0-67.1,0-100.6C187.5,27.2,161.3,30.3,135.1,31.9z"/>
</g>
</svg>
