<?xml version="1.0" encoding="utf-8"?>
<!-- Generator: Adobe Illustrator 28.2.0, SVG Export Plug-In . SVG Version: 6.00 Build 0)  -->
<svg version="1.1" id="fsm" xmlns="http://www.w3.org/2000/svg" xmlns:xlink="http://www.w3.org/1999/xlink" x="0px" y="0px"
	 viewBox="0 0 480 320" enable-background="new 0 0 480 320" xml:space="preserve">
<g id="flag-fsm">
	<path fill="#82B0D9" d="M0,300c160,44.8,320-44.8,480,0c0-93.3,0-186.7,0-280C320-24.8,160,64.8,0,20C0,113.3,0,206.7,0,300z"/>
	<path fill="#FFFFFF" d="M240,48c-2.9,9.3-5.8,18.6-8.6,27.8c4.4,0.8,8.9,1.6,13.3,2.5C243.1,68.2,241.5,58.1,240,48z"/>
	<path fill="#FFFFFF" d="M240,48c2.9,8.5,5.8,16.9,8.7,25.4c-4.4,2.1-8.9,4.1-13.3,6.2C236.9,69.1,238.4,58.6,240,48z"/>
	<path fill="#FFFFFF" d="M266.7,63.7c-9.3,1.3-18.7,2.6-28,3.9c0,4.7,0,9.3,0,14C248,75.6,257.3,69.6,266.7,63.7z"/>
	<path fill="#FFFFFF" d="M266.7,63.7c-7.6,6.5-15.1,13.1-22.7,19.6c-2.7-3.4-5.5-6.8-8.2-10.2C246.1,69.9,256.4,66.8,266.7,63.7z"/>
	<path fill="#FFFFFF" d="M213.4,71c7.5,4.5,15.1,8.9,22.6,13.3c2.8-4.2,5.5-8.3,8.3-12.5C234,71.6,223.7,71.4,213.4,71z"/>
	<path fill="#FFFFFF" d="M213.4,71c9.3-1.3,18.7-2.6,28-3.9c0,4.7,0,9.3,0,14C232,77.8,222.7,74.5,213.4,71z"/>
	<path fill="#FFFFFF" d="M256.4,96.4c-2.9-8.5-5.7-17-8.6-25.4c-4.4,2.1-8.9,4.1-13.3,6.2C241.8,83.6,249.1,90,256.4,96.4z"/>
	<path fill="#FFFFFF" d="M256.4,96.4c-7.5-4.4-15.1-8.9-22.6-13.3c2.7-4.2,5.5-8.3,8.2-12.5C246.8,79.2,251.6,87.8,256.4,96.4z"/>
	<path fill="#FFFFFF" d="M223.6,101c7.5-6.5,15.1-13.1,22.6-19.6c-2.7-3.4-5.5-6.8-8.2-10.2C233.2,81.1,228.4,91,223.6,101z"/>
	<path fill="#FFFFFF" d="M223.6,101c2.9-9.3,5.8-18.6,8.6-27.8c4.4,0.8,8.9,1.7,13.3,2.5C238.2,84.1,230.9,92.5,223.6,101z"/>
	<path fill="#FFFFFF" d="M352,147.8c-8.9-2.5-17.8-4.7-26.6-6.8c-1.4,4.6-2.9,9.1-4.3,13.7C331.4,152.1,341.7,149.8,352,147.8z"/>
	<path fill="#FFFFFF" d="M352,147.8c-8.9,3.3-17.8,6.8-26.6,10.5c-1.4-4.3-2.9-8.6-4.3-12.9C331.4,145.9,341.7,146.7,352,147.8z"/>
	<path fill="#FFFFFF" d="M332.7,175.6c0-9.3,0-18.7,0-28c-4.7,0.4-9.3,0.8-14,1.2C323.3,157.7,328,166.7,332.7,175.6z"/>
	<path fill="#FFFFFF" d="M332.7,175.6c-5.5-7.1-11-14.2-16.5-21.2c3.8-3.1,7.6-6.2,11.3-9.2C329.2,155.3,330.9,165.5,332.7,175.6z"
		/>
	<path fill="#FFFFFF" d="M332.7,122.3c-5.5,8-11,16-16.5,24.1c3.8,2.4,7.6,4.8,11.3,7.2C329.2,143.2,330.9,132.8,332.7,122.3z"/>
	<path fill="#FFFFFF" d="M332.7,122.3c0,9.3,0,18.7,0,28c-4.7,0.4-9.3,0.8-14,1.2C323.3,141.8,328,132.1,332.7,122.3z"/>
	<path fill="#FFFFFF" d="M301.4,168.4c8.9-3.9,17.8-7.6,26.6-11.3c-1.4-4.3-2.9-8.6-4.3-13C316.2,152.2,308.8,160.3,301.4,168.4z"/>
	<path fill="#FFFFFF" d="M301.4,168.4c5.5-8.2,11-16.3,16.4-24.4c3.8,2.4,7.6,4.8,11.3,7.2C319.9,156.9,310.6,162.6,301.4,168.4z"/>
	<path fill="#FFFFFF" d="M301.4,135.6c5.5,6.9,11,13.9,16.4,20.9c3.8-3.1,7.6-6.2,11.3-9.2C319.9,143.2,310.6,139.3,301.4,135.6z"/>
	<path fill="#FFFFFF" d="M301.4,135.6c8.9,1.9,17.8,3.9,26.6,6c-1.4,4.6-2.9,9.1-4.3,13.7C316.2,148.6,308.8,142,301.4,135.6z"/>
	<path fill="#FFFFFF" d="M128,172.3c8.9,2.5,17.8,4.7,26.6,6.8c1.4-4.6,2.9-9.1,4.3-13.7C148.6,167.9,138.3,170.2,128,172.3z"/>
	<path fill="#FFFFFF" d="M128,172.3c8.9-3.3,17.8-6.8,26.6-10.5c1.4,4.3,2.9,8.6,4.3,12.9C148.6,174.1,138.3,173.3,128,172.3z"/>
	<path fill="#FFFFFF" d="M147.4,144.4c0,9.3,0,18.7,0,28c4.7-0.4,9.3-0.8,14-1.2C156.7,162.3,152,153.4,147.4,144.4z"/>
	<path fill="#FFFFFF" d="M147.4,144.4c5.5,7.1,11,14.2,16.5,21.2c-3.8,3.1-7.6,6.2-11.4,9.2C150.8,164.7,149.1,154.6,147.4,144.4z"
		/>
	<path fill="#FFFFFF" d="M147.4,197.7c5.5-8,11-16,16.5-24.1c-3.8-2.4-7.6-4.8-11.4-7.2C150.8,176.8,149.1,187.3,147.4,197.7z"/>
	<path fill="#FFFFFF" d="M147.4,197.7c0-9.3,0-18.7,0-28c4.7-0.4,9.3-0.8,14-1.2C156.7,178.3,152,188,147.4,197.7z"/>
	<path fill="#FFFFFF" d="M178.7,151.6c-8.9,3.9-17.8,7.6-26.6,11.3c1.4,4.3,2.9,8.6,4.3,12.9C163.8,167.8,171.2,159.8,178.7,151.6z"
		/>
	<path fill="#FFFFFF" d="M178.7,151.6c-5.5,8.2-11,16.3-16.5,24.4c-3.8-2.4-7.6-4.8-11.3-7.2C160.1,163.2,169.4,157.5,178.7,151.6z"
		/>
	<path fill="#FFFFFF" d="M178.7,184.5c-5.5-6.9-11-13.9-16.5-20.9c-3.8,3.1-7.6,6.2-11.3,9.2C160.1,176.9,169.4,180.7,178.7,184.5z"
		/>
	<path fill="#FFFFFF" d="M178.7,184.5c-8.9-1.9-17.8-3.9-26.6-6c1.4-4.6,2.9-9.1,4.3-13.7C163.8,171.5,171.2,178,178.7,184.5z"/>
	<path fill="#FFFFFF" d="M240,272c2.9-9.3,5.8-18.6,8.7-27.8c-4.4-0.8-8.9-1.6-13.3-2.5C236.9,251.8,238.4,261.9,240,272z"/>
	<path fill="#FFFFFF" d="M240,272c-2.9-8.5-5.8-16.9-8.6-25.4c4.4-2.1,8.9-4.1,13.3-6.2C243.1,251,241.5,261.5,240,272z"/>
	<path fill="#FFFFFF" d="M213.4,256.4c9.3-1.3,18.7-2.6,28-3.9c0-4.7,0-9.3,0-14C232,244.5,222.7,250.4,213.4,256.4z"/>
	<path fill="#FFFFFF" d="M213.4,256.4c7.5-6.5,15.1-13,22.6-19.6c2.8,3.4,5.5,6.8,8.3,10.2C234,250.1,223.7,253.3,213.4,256.4z"/>
	<path fill="#FFFFFF" d="M266.7,249c-7.6-4.5-15.1-8.9-22.7-13.3c-2.7,4.2-5.5,8.3-8.2,12.5C246.1,248.4,256.4,248.7,266.7,249z"/>
	<path fill="#FFFFFF" d="M266.7,249c-9.3,1.3-18.7,2.6-28,3.9c0-4.7,0-9.3,0-14C248,242.2,257.3,245.6,266.7,249z"/>
	<path fill="#FFFFFF" d="M223.6,223.7c2.9,8.5,5.8,17,8.6,25.4c4.4-2.1,8.9-4.1,13.3-6.2C238.2,236.5,230.9,230.1,223.6,223.7z"/>
	<path fill="#FFFFFF" d="M223.6,223.7c7.5,4.4,15.1,8.9,22.6,13.3c-2.7,4.2-5.5,8.3-8.2,12.5C233.2,240.8,228.4,232.3,223.6,223.7z"
		/>
	<path fill="#FFFFFF" d="M256.4,219.1c-7.5,6.5-15.1,13.1-22.6,19.6c2.7,3.4,5.5,6.8,8.2,10.2C246.8,238.9,251.6,229,256.4,219.1z"
		/>
	<path fill="#FFFFFF" d="M256.4,219.1c-2.9,9.3-5.7,18.5-8.6,27.8c-4.4-0.8-8.9-1.6-13.3-2.5C241.8,236,249.1,227.5,256.4,219.1z"/>
</g>
</svg>
