<svg version="1.1" id="geo" name="georgia" xmlns="http://www.w3.org/2000/svg" xmlns:xlink="http://www.w3.org/1999/xlink" x="0px" y="0px"
	 viewBox="0 0 480 320" enable-background="new 0 0 480 320" xml:space="preserve">
<g id="flag-geo">
	<path fill="#D41F3B" d="M104.5,91.2c-0.3,5.5-0.8,11-1.7,16.4c-0.3,1.8-0.6,3.5-0.9,5.2c3.3-0.5,6.7-0.8,10.3-0.9
		c3.4-0.1,6.9,0,10.2,0.2c-0.3-1.7-0.6-3.4-0.9-5.1c-0.8-5.3-1.4-10.7-1.6-16.2c7.3,0,14.5,0.4,21.4,1.2c-0.4-3.4-0.6-6.7-0.6-10.2
		c0-3.5,0.2-6.9,0.6-10.3c-7,1.9-14.1,3.3-21.4,3.9c0.3-7.3,1.1-14.6,2.5-21.6c-3.3,0.6-6.8,1-10.2,1.1c-3.5,0.1-6.9,0-10.3-0.3
		c1.3,7,2.2,14.2,2.6,21.5c-7.4-0.2-14.5-1-21.5-2.5c0.5,3.4,0.7,6.8,0.7,10.3c0,3.4-0.2,6.8-0.7,10.2C90,92.6,97.2,91.7,104.5,91.2
		"/>
	<path fill="#D41F3B" d="M360.1,64.3c-0.3,5.5-0.8,11-1.7,16.4c-0.2,1.8-0.5,3.5-0.9,5.2c3.3-0.6,6.8-1,10.2-1.1
		c3.5-0.1,6.9,0,10.3,0.4c-0.3-1.7-0.6-3.4-0.8-5.2c-0.9-5.3-1.4-10.8-1.7-16.3c7.3,0.1,14.5,1,21.5,2.4c-0.5-3.4-0.7-6.8-0.7-10.2
		c0-3.5,0.2-6.9,0.7-10.3c-7,1.2-14.2,2.1-21.5,2.7c0.4-7.3,1.2-14.5,2.5-21.6c-3.4,0.5-6.8,0.8-10.3,0.9c-3.5,0.1-6.9,0.1-10.2-0.2
		c1.3,6.9,2.2,14.1,2.5,21.4c-7.3,0-14.5-0.4-21.5-1.2c0.4,3.4,0.6,6.7,0.6,10.3c0,3.4-0.2,6.9-0.6,10.3
		C345.6,66.4,352.8,65,360.1,64.3"/>
	<path fill="#D41F3B" d="M120,255.6c0.2-5.5,0.8-11,1.6-16.4c0.3-1.7,0.6-3.5,0.9-5.2c-3.3,0.6-6.8,1-10.2,1.1
		c-3.5,0.1-6.9,0-10.3-0.4c0.3,1.7,0.6,3.4,0.9,5.2c0.8,5.3,1.4,10.8,1.7,16.3c-7.4-0.2-14.5-1-21.5-2.4c0.5,3.4,0.7,6.8,0.7,10.3
		c0,3.4-0.2,6.9-0.7,10.2c7-1.2,14.2-2.1,21.5-2.6c-0.4,7.3-1.3,14.5-2.6,21.5c3.3-0.5,6.7-0.8,10.3-0.9c3.4-0.1,6.9-0.1,10.2,0.1
		c-1.4-6.9-2.2-14.1-2.5-21.3c7.3,0,14.5,0.4,21.4,1.2c-0.4-3.3-0.6-6.7-0.6-10.2c0-3.5,0.2-6.9,0.6-10.3
		C134.4,253.6,127.3,254.9,120,255.6"/>
	<path fill="#D41F3B" d="M375.5,228.7c0.3-5.5,0.8-11,1.7-16.4c0.3-1.7,0.5-3.5,0.8-5.2c-3.4,0.5-6.8,0.8-10.3,0.9
		c-3.5,0.1-6.9,0-10.2-0.2c0.3,1.7,0.7,3.4,0.9,5.1c0.8,5.3,1.4,10.7,1.7,16.2c-7.3,0-14.5-0.4-21.5-1.2c0.4,3.3,0.6,6.7,0.6,10.2
		c0,3.4-0.2,6.9-0.6,10.3c7-1.9,14.2-3.2,21.5-3.9c-0.3,7.3-1.2,14.5-2.5,21.6c3.3-0.6,6.8-0.9,10.2-1.1s6.9,0,10.3,0.3
		c-1.3-7-2.1-14.1-2.5-21.4c7.3,0.2,14.5,1,21.5,2.4c-0.5-3.3-0.7-6.8-0.7-10.2c0-3.5,0.2-6.9,0.7-10.3
		C390,227.3,382.8,228.2,375.5,228.7"/>
	<path fill="#D41F3B" d="M270.3,306.2c-20.2,2.7-40.4,5.7-60.6,8.4c0-100.2,0-200.5,0-300.7c20.2-2.7,40.4-5.7,60.6-8.4
		C270.3,105.7,270.3,205.9,270.3,306.2z"/>
	<path fill="#D41F3B" d="M-17.7,129.6c171.8,48.1,343.6-48.1,515.5,0c0,20.2,0,40.4,0,60.7c-171.8-48.1-343.6,48.1-515.5,0
		C-17.7,170.1-17.7,149.9-17.7,129.6z"/>
</g>
</svg>
