<svg version="1.1" id="ger" name="germany" xmlns="http://www.w3.org/2000/svg" xmlns:xlink="http://www.w3.org/1999/xlink" x="0px"
     y="0px"
     viewBox="0 0 480 320" enable-background="new 0 0 480 320" xml:space="preserve">
    <g id="flag-ger">
        <path fill="#010101"
              d="M0,113.3c160,44.8,320-44.8,480,0c0-31.1,0-62.2,0-93.3C320-24.8,160,64.8,0,20C0,51.1,0,82.2,0,113.3z"/>
        <path fill="#DF2228"
              d="M0,206.6c160,44.8,320-44.8,480,0c0-31.1,0-62.2,0-93.4c-160-44.8-320,44.8-480,0C0,144.4,0,175.5,0,206.6z"
        />
        <path fill="#F6D927"
              d="M0,300c160,44.8,320-44.8,480,0c0-31.1,0-62.2,0-93.4c-160-44.8-320,44.8-480,0C0,237.8,0,268.9,0,300z"/>
        <g id="crest">
	<path fill="#F4D628" d="M173.6,94.9c0,37.4,0,74.7,0,112.1c0,42.3,56.4,30,66.4,45.1c10.1-18.4,66.5-20.6,66.5-62.3
		c0-37.4,0-74.7,0-112.1C262.2,82.5,217.9,90.1,173.6,94.9z"/>
            <path fill="#010101" d="M240,252.8c-0.1-0.2-0.2-0.4-0.4-0.6c-3.6-5.4-13-7.2-24-9.4c-18.9-3.6-42.5-8.8-42.5-35.9
		c0-37.5,0-75,0-112.5c44.6-4.8,89.1-12.5,133.7-17.3c0,37.5,0,75,0,112.5c0,27-23.6,37.6-42.5,46.4c-11,5.2-20.4,9.6-24,16
		C240.2,252.4,240.1,252.6,240,252.8L240,252.8z M174,95.2c0,37.2,0,74.4,0,111.7c0,26.5,22.3,31.4,42,35.2
		c10.8,2.1,20.1,3.9,24.1,9.2c4-6.4,13.3-10.8,24.1-15.9c19.6-9.2,41.9-19.2,41.9-45.6c0-37.2,0-74.4,0-111.7
		C262,82.9,218,90.5,174,95.2L174,95.2z"/>
            <path fill="#010101" d="M235.6,103c0.7,3.2-0.7,11.4-2.3,14.4c-1.7,2.9-6,8.5-6.4,13.6c-1.7,25.5,7.7,60.7,13.1,86.1
		c5.4-26.9,14.8-64.8,13.1-89.8c-1.6-24.9-5-31.2-5-31.2C243.9,98.5,239.8,100.7,235.6,103z"/>
            <path fill="#CA2128"
                  d="M237,106.5c-6.2,0.4-11.5-0.1-15.8-1.5c1.8,1.9,5.9,3.2,12.1,3.7C234.5,108,235.7,107.2,237,106.5z"/>
            <path fill="#010101" d="M233.3,108.5c-6.4-0.1-10.5-1.3-12.3-3.3c4.5,1,9.7,1.6,15.9,1.1c0,0.1,0,0.3,0,0.4
		c-6.3,0.4-11.6-0.1-15.8-1.6C223.1,106.8,227.1,108,233.3,108.5L233.3,108.5z"/>
            <path fill="#CA2128" d="M235,93c-10.1-3.6-16.1,2.9-9.4,11c0.7-1.8,7-5,10.1,2.7c-1.5,1.1-5.3,1.7-11.1,1.9c3,1.9,12.1,1,13.7-0.3
		c1.7-1.2-3-9-3-9C235.2,97.2,235.1,95.1,235,93z"/>
            <path fill="#010101" d="M234.5,109.6c-3.4,0.5-8,0.4-10.1-0.9c5.9-0.5,9.6-1.1,11.1-2.2c-1.9-4.3-4.8-4.6-6.3-4.4c0,0,0,0,0,0
		c-1.8,0.3-3.2,1.3-3.4,2c-3.4-3.6-4.1-7.3-2.2-9.8c2.1-2.8,6.5-3.3,11.5-1.5c-0.1,0.1-0.1,0.3-0.2,0.4c-4.8-1.7-9.1-1.2-11,1.3
		c-1.8,2.3-1.1,5.8,1.8,9.3c0-0.8,1.7-1.9,3.5-2.2c1.6-0.2,4.7,0.1,6.6,4.9c-1.7,1.4-5.4,2-11.3,2.2c3.1,1.5,12,0.6,13.7-0.6
		c1.1-0.8-1.3-5.7-3.1-8.7c1.2,1.1,5.1,7.7,3.3,9C237.8,108.9,236.3,109.3,234.5,109.6L234.5,109.6z"/>
            <path fill="#010101" d="M247.4,98.3c1.7-0.6,4.4-2,6.4-4.2c-3.7,0.5-10.4-0.6-13.1-1.6c-2.7-1-7.4-3.3-7.4,2.3c0,5.7,6,9.2,5,14
		C241.3,105.4,244.4,101.8,247.4,98.3z"/>
            <path fill="#EFF6FC"
                  d="M239,95.8c0,0-3.4-1.2-4-1.8c-0.7-0.6-1.7,3.9,1.3,4.9C236.8,97.7,237.7,96.7,239,95.8L239,95.8z"/>
            <path fill="#010101"
                  d="M236.7,94.1c-1.6,0.7-1.9,1.9-1,3.8c0.2-1.6,1.3-2.7,3.4-3.5C238.2,94.3,237.4,94.2,236.7,94.1z"/>
            <path fill="#010101" d="M254.8,137.2c0,13.2,0,26.4,0,39.6c15,10.2,30,20.5,45,31.1c0-32.8,0-65.5,0-98.3c0-7.6-1.6-12.6-4.7-14.9
		c0,6.8,0,13.7,0,20.5C281.6,122.4,268.2,129.8,254.8,137.2z"/>
            <path fill="#F4D628" d="M263.8,208.1c-0.4,0.1-0.8,0.1-1.3,0.2c0-28,0-55.9,0-83.9c0.4-0.1,0.8-0.1,1.3-0.2
		C263.8,152.2,263.8,180.2,263.8,208.1L263.8,208.1z"/>
            <path fill="#F4D628" d="M273.2,206.8c-0.4,0.1-0.9,0.1-1.3,0.2c0-28,0-55.9,0-83.9c0.4-0.1,0.9-0.1,1.3-0.2
		C273.2,150.9,273.2,178.9,273.2,206.8L273.2,206.8z"/>
            <path fill="#F4D628" d="M282.6,205.6c-0.4,0.1-0.8,0.1-1.3,0.2c0-28,0-55.9,0-83.9c0.4-0.1,0.8-0.1,1.3-0.2
		C282.6,149.7,282.6,177.7,282.6,205.6L282.6,205.6z"/>
            <path fill="#F4D628" d="M292,204.5c-0.4,0.1-0.8,0.1-1.3,0.2c0-28,0-55.9,0-83.9c0.4-0.1,0.8-0.1,1.3-0.2
		C292,148.6,292,176.5,292,204.5L292,204.5z"/>
            <path fill="#010101" d="M246,145.8c30.2-4.2,43-15.5,49.4-23.6c0-9,0-18.1,0-27.1c3.3-1.3,5.1-4,5.4-8.1
		c-9.4,8.8-24.2-7.5-32.9,12.5c4.7,8.7,14.1,6.6,17.5,0.8c6.7,4.9,1.3,26.8-39.3,32.1C246,136.9,246,141.4,246,145.8z"/>
            <path fill="#CA2128"
                  d="M257.1,210c-2.3,3.4-0.3,5.8,1.7,6.5c-0.7-1.9-0.3-3.9,1-5.8C258.9,210.5,258,210.2,257.1,210z"/>
            <path fill="#010101" d="M259,216.4c-1.4-0.1-2.7-1.1-3-2.6c-0.3-1.2,0.1-2.5,1-3.8c0.1,0.1,0.2,0.1,0.3,0.2
		c-0.9,1.2-1.2,2.4-0.9,3.5c0.4,1.4,1.5,2.3,2.6,2.6c-1-1.7-0.6-3.7,0.7-5.7C258.7,212.7,258.4,214.6,259,216.4L259,216.4z"/>
            <path fill="#CA2128"
                  d="M268.9,219.9c0.2,1.3-0.5,3.1-2,5.3c4-1.6,5.7-3.2,4.4-5.3C270.4,219.9,269.6,219.9,268.9,219.9z"/>
            <path fill="#010101" d="M266.9,225.4c1.3-2.4,2-4.2,1.7-5.4c0.1,0,0.3-0.1,0.4-0.1c0.2,1.4-0.5,3.2-2.1,5.4
		c2.5-1.3,3.9-2.3,4.3-3.3c0.3-0.6,0.2-1.2-0.3-1.9c0.9,0.6,1,1.3,0.7,2C271.2,223.2,269.7,224.3,266.9,225.4L266.9,225.4z"/>
            <path fill="#CA2128"
                  d="M282.3,213.1c0.7,1.5,0.8,3.3,0.4,5.3c3-3.1,4-6.8,1.7-7.3C283.6,211.8,282.9,212.4,282.3,213.1z"/>
            <path fill="#010101" d="M282.8,218.5c0.1-2.2,0-3.9-0.7-5.3c0.1-0.1,0.3-0.1,0.4-0.2C283.2,214.5,283.3,216.3,282.8,218.5
		c1.7-2.3,2.9-4.7,2.5-6.1c-0.1-0.6-0.5-1-1.1-1c0.9-0.3,1.3,0.2,1.5,0.9C286.1,213.8,284.9,216.4,282.8,218.5L282.8,218.5z"/>
            <path fill="#CA2128"
                  d="M281.9,201c1.1,0.1,2.2,1,3.4,2.9c0.4-3.7-0.3-5.6-3.7-5.9C281.7,199.1,281.8,200,281.9,201z"/>
            <path fill="#010101" d="M285.5,204c-1.4-1.6-2.5-2.6-3.6-2.7c0-0.1,0.1-0.3,0.1-0.4c1.2,0.1,2.4,1.1,3.5,3c0-3.8-1-5.3-3.9-5.6
		C285.3,198.1,285.8,200.4,285.5,204L285.5,204z"/>
            <path fill="#CA2128" d="M252.4,193.9c5.3,4.1,10.5,8.1,15.8,12.2c0,0-6,2.2-8.4,2.5c-2.4,0.3-4.4,1.3-3.7,1.9
		c0.7,0.6,2,0.4,2.7,1.3c0.6,0.9,1.7,2.1,3,0.6c1.4-1.5,6.1-3.5,6.1-3.5c0,0,0,7.7-0.3,8.7c-0.3,1.1-1.3,3.2-0.7,3.1
		c0.7-0.1,0.7-0.4,3.4-0.5c2.7,0,2.3,0.7,1.7-3.2c-0.7-3.9-0.3-8.3-0.3-8.3c0,0,6,3.2,8.1,5.6c2,2.4,1.7,0.5,2.7-0.7
		c1-1.1,2.4-1.6,3.4-2.1c1-0.5-2.7-1-3.7-1.6c-1-0.5-8.7-3.9-8.7-3.9c0,0,4.3-1.9,7-2.6c2.7-0.6,2.7-0.6,2.4-2c-0.4-1.3,0-2.7,0-3.4
		c0-0.6-0.4-1.3-2,0.3c-1.7,1.6-9.4,5.9-9.4,5.9c-4.4-5.2-8.7-10.4-13.1-15.7C256.2,190.5,254.3,192.2,252.4,193.9z"/>
            <path fill="#010101" d="M272,220.6c-0.2,0-0.4,0-0.8,0c-0.3,0-0.7,0-1,0c-1.9,0-2.4,0.2-2.8,0.3c-0.3,0-0.6,0-0.9,0
		c-0.2-0.3,0.1-1.1,0.5-2.3c0.1-0.3,0.2-0.6,0.3-0.9c0.3-0.8,0.3-6.5,0.3-8.7c-0.2,0.4-4.4,2.2-5.7,3.6c-0.4,0.4-0.9,0.8-1.4,0.8
		c-0.8,0-1.4-0.7-2-1.4c-0.3-0.5-0.9-0.7-1.4-0.8c-0.5-0.1-0.9-0.2-1.2-0.5c0,0-0.1-0.1-0.1-0.1c0-0.2,0-0.3-0.1-0.5
		c0.3-0.8,2.3-1.4,4-1.6c2.3-0.3,8.3-2.5,8.3-2.5c-5.3-4-10.6-7.9-15.9-11.9c0.1-0.1,0.2-0.2,0.3-0.4c5.3,4.1,10.5,8.2,15.8,12.3
		c-0.3,0.5-6.2,2.6-8.5,2.9c-2,0.3-3.5,1-3.6,1.3c0.3,0.4,0.7,0.5,1.1,0.6c0.6,0.2,1.2,0.4,1.7,0.9c0.5,0.6,1,1.2,1.6,1.2
		c0.4,0,0.7-0.2,1-0.6c1.4-1.6,5.9-3.5,6.1-3.6c0.2,0.5,0.2,7.9-0.1,9c-0.1,0.3-0.2,0.6-0.3,0.9c-0.2,0.6-0.7,1.8-0.5,1.9
		c0.8-0.2,1.4-0.4,3.4-0.5c0.4,0,0.7,0,1.1,0.1c0.4,0,0.7,0,0.8-0.1c0.1-0.1,0-0.7-0.1-1.5c-0.1-0.5-0.2-1-0.3-1.5
		c-0.6-3.9-0.4-8.4-0.3-8.4c0.6-0.1,6.4,3.1,8.5,5.5c0.7,1,0.9,1.1,1.3,1.1c0.1,0,0.3-0.3,0.4-0.7c0.2-0.3,0.4-0.8,0.7-1.1
		c0.9-1,2.1-1.6,3.1-2c0.3-0.2-0.7-0.5-1.4-0.7c-0.7-0.2-1.5-0.4-1.9-0.6c-1-0.5-8.7-3.9-8.7-3.9c0.1-0.4,4.5-2.3,7.1-3
		c1.4-0.3,2.1-0.5,2.3-0.8c0.1-0.1,0-0.4-0.1-0.9c-0.2-0.9-0.1-1.9-0.1-2.7c0-0.3,0.1-0.5,0.1-0.7c-0.3-0.6-0.7-0.6-1.7,0.4
		c-1.7,1.6-9.1,5.7-9.5,6c-4.4-5.2-8.9-10.5-13.3-15.7c4.5,5.1,8.9,10.2,13.4,15.4c0-0.2,7.5-4.4,9.1-5.9c0.9-0.8,1.5-1.1,1.9-1
		c0.2,0.1,0.4,0.3,0.4,0.9c0,0.2,0,0.4,0,0.8c-0.1,0.7-0.2,1.6,0,2.5c0.1,0.6,0.3,0.9,0.1,1.3c-0.3,0.4-0.9,0.5-2.6,0.9
		c-2.4,0.6-6.3,2.3-6.9,2.6c0.8-0.1,7.8,3,8.7,3.6c0.4,0.2,1.1,0.4,1.8,0.6c1.6,0.4,2.1,0.6,2.1,0.9c-0.2,0.2-0.5,0.4-0.7,0.6
		c-1,0.4-2,0.9-2.9,1.8c-0.3,0.3-0.4,0.7-0.5,1c-0.2,0.4-0.4,0.8-0.8,0.9c-0.4,0.1-0.9-0.3-1.7-1.2c-1.9-2.3-7.3-5.2-7.9-5.6
		c0.2,0.4,0,4.5,0.6,8.1c0.1,0.5,0.2,1,0.3,1.5c0.2,1.1,0.3,1.6,0.1,1.9C272.3,220.5,272.1,220.5,272,220.6L272,220.6z"/>
            <path fill="#010101" d="M240,239.3c2.4-3.1,4.7-6.3,7.1-9.4c8.1,3.8,14,1.7,17.8-6.5c-12.1,3.7-17.8-6.5-17.1-30.5
		c3,4.3,6,8.5,9.1,12.8c0-4.3,0-8.7,0-13c3.7-0.1,7.4-0.1,11.1-0.2c-9.7-9.1-19.5-18.1-29.2-27.2C239.1,190,239.5,214.6,240,239.3z"
            />
            <path fill="#010101" d="M225.2,141.3c0,13.2,0,26.4,0,39.6c-15,14.4-30,28.7-45,42.7c0-32.8,0-65.5,0-98.3c0-7.6,1.6-12.9,4.7-16
		c0,6.8,0,13.7,0,20.5C198.4,133.8,211.8,137.6,225.2,141.3z"/>
            <path fill="#F4D628" d="M217.5,214.5c-0.4,0.1-0.8,0.1-1.3,0.2c0-28,0-55.9,0-83.9c0.4-0.1,0.8-0.1,1.3-0.2
		C217.5,158.6,217.5,186.6,217.5,214.5L217.5,214.5z"/>
            <path fill="#F4D628" d="M208.1,215.8c-0.4,0.1-0.8,0.1-1.2,0.2c0-28,0-55.9,0-83.9c0.4-0.1,0.8-0.1,1.2-0.2
		C208.1,159.9,208.1,187.8,208.1,215.8L208.1,215.8z"/>
            <path fill="#F4D628" d="M198.7,217c-0.4,0.1-0.8,0.1-1.3,0.2c0-28,0-55.9,0-83.9c0.4-0.1,0.8-0.1,1.3-0.2
		C198.7,161.1,198.7,189.1,198.7,217L198.7,217z"/>
            <path fill="#F4D628" d="M189.3,218.2c-0.4,0.1-0.9,0.1-1.3,0.2c0-28,0-55.9,0-83.9c0.4-0.1,0.9-0.1,1.3-0.2
		C189.3,162.3,189.3,190.2,189.3,218.2L189.3,218.2z"/>
            <path fill="#010101" d="M234,147.5c-30.2,4.2-43-4-49.3-10.6c0-9,0-18.1,0-27.1c-3.4-0.6-5.1-2.8-5.3-6.8
		c9.4,6.7,24.1-13.3,32.9,4.3c-4.7,10-14.1,10.3-17.5,5.3c-6.7,6.4-1.3,27.5,39.3,21.6C234,138.6,234,143.1,234,147.5z"/>
            <path fill="#CA2128"
                  d="M222.9,214.8c2.3,2.7,0.4,5.7-1.7,7c0.7-2.1,0.3-4-1-5.6C221.1,215.7,222,215.3,222.9,214.8z"/>
            <path fill="#010101" d="M221.3,221.9c0.4-2.3,0.1-4-1.3-5.6c1.7,1.4,2,3.3,1.4,5.5c0.7-0.8,1.9-2.1,2.2-3.5
		c0.2-1.2-0.1-2.3-0.9-3.3c0.1-0.1,0.2-0.2,0.3-0.3c0.9,1.1,1.3,2.3,1,3.6C223.7,219.9,222.4,221.2,221.3,221.9L221.3,221.9z"/>
            <path fill="#CA2128"
                  d="M211.1,227.8c-0.2,1.4,0.5,2.9,2,4.8c-4-0.5-5.7-1.7-4.4-4.1C209.6,228.3,210.3,228.1,211.1,227.8z"/>
            <path fill="#010101" d="M213.3,232.4c-3.1,0-4.6-0.6-5-1.6c-0.3-0.6-0.2-1.4,0.3-2.4c-0.1,1-0.2,1.7,0.1,2.2
		c0.4,0.9,1.9,1.5,4.5,1.8c-1.8-1.4-2.5-3.1-2.3-4.5c0.2,0,0.3,0,0.5,0C211.1,229.1,211.8,230.7,213.3,232.4
		C213.3,232.4,213.3,232.4,213.3,232.4z"/>
            <path fill="#CA2128"
                  d="M197.7,224.5c-0.7,1.7-0.8,3.5-0.3,5.4c-3-2.3-4-5.8-1.7-6.8C196.4,223.6,197,224.1,197.7,224.5z"/>
            <path fill="#010101" d="M197.6,229.9c-2.5-1.4-3.7-3.7-3.3-5.4c0.1-0.7,0.6-1.3,1.4-1.6c-0.5,0.6-0.8,1-1,1.7
		C194.3,226.1,195.6,228.3,197.6,229.9c-0.9-1.9-0.7-3.7,0-5.4c0.1,0,0.3,0.1,0.4,0.1C197.3,226.2,197.2,228,197.6,229.9
		L197.6,229.9z"/>
            <path fill="#CA2128"
                  d="M198.1,212.4c-1.1,0.4-2.2,1.6-3.4,3.8c-0.3-3.6,0.4-5.7,3.7-6.8C198.3,210.4,198.2,211.4,198.1,212.4z"/>
            <path fill="#010101" d="M194.9,216.3c-0.7-3.5-0.2-6,3.5-7.1c-2.9,1.4-3.8,3.1-3.4,7c0.8-2.3,1.9-3.5,3.1-3.9
		c0,0.1,0.1,0.3,0.1,0.4C197.1,213,196,214.2,194.9,216.3L194.9,216.3z"/>
            <path fill="#CA2128" d="M227.6,197.4c-5.3,5.5-10.5,11-15.8,16.6c0,0,6,0.5,8.4,0.2c2.3-0.3,4.4,0.1,3.7,0.9c-0.6,0.8-2,0.9-2.7,2
		c-0.6,1.1-1.6,2.6-3,1.4c-1.4-1.1-6-1.8-6-1.8c0,0,0,7.7,0.3,8.7c0.3,1,1.4,2.8,0.7,2.9c-0.7,0.1-0.7-0.2-3.3,0.4
		c-2.7,0.7-2.3,1.3-1.7-2.8c0.7-4.1,0.3-8.4,0.3-8.4c0,0-6,4.8-8,7.7c-2,2.9-1.7,0.9-2.7,0c-1-0.8-2.4-1-3.4-1.2
		c-1-0.2,2.7-1.7,3.7-2.5c1-0.8,8.7-6.2,8.7-6.2c0,0-4.4-0.8-7-0.8c-2.7,0-2.7,0-2.3-1.4c0.3-1.4,0-2.7,0-3.4c0-0.6,0.3-1.4,2-0.3
		c1.7,1.1,9.4,3.5,9.4,3.5c4.4-6.4,8.7-12.8,13.1-19.2C223.8,195,225.7,196.2,227.6,197.4z"/>
            <path fill="#010101" d="M208,229.4c-0.2,0-0.3,0-0.4-0.1c-0.2-0.2-0.2-0.7,0.1-1.9c0.1-0.5,0.2-1,0.3-1.5c0.6-3.8,0.4-7.9,0.3-8.4
		c-0.2,0.6-5.8,5.1-7.7,7.8c-0.8,1.1-1.3,1.6-1.7,1.6c-0.4,0-0.5-0.3-0.7-0.7c-0.2-0.3-0.3-0.6-0.6-0.8c-0.8-0.7-1.9-0.9-2.9-1.1
		c-0.2-0.1-0.5-0.3-0.7-0.4c0-0.3,0.5-0.6,2.1-1.5c0.7-0.4,1.5-0.8,1.9-1.1c0.9-0.8,7.7-5.5,8.6-6.1c-0.7,0.1-4.5-0.5-6.8-0.5
		c-1.7,0-2.3,0-2.6-0.3c-0.2-0.3-0.1-0.7,0.1-1.3c0.2-1,0.1-1.9,0-2.6c0-0.4,0-0.6,0-0.8c0-0.6,0.2-0.8,0.4-1c0.4-0.2,1.1-0.1,2,0.5
		c1.6,1.1,9.2,3.4,9.4,3.5c4.3-6.4,8.6-12.7,12.8-19.1c-4.3,6.5-8.5,13-12.8,19.4c-0.6,0-8-2.2-9.7-3.4c-1-0.7-1.4-0.6-1.5-0.5
		c-0.2,0.7-0.2,1-0.2,1.3c0.1,0.7,0.2,1.7-0.1,2.7c-0.1,0.5-0.2,0.9-0.1,1c0.1,0.2,0.9,0.2,2.3,0.2c2.7,0,7,0.8,7.1,0.8
		c0.1,0.4-7.7,5.7-8.7,6.5c-0.4,0.3-1.2,0.7-1.9,1.1c-0.7,0.4-1.7,1-1.8,1.1c1.3,0.1,2.5,0.4,3.5,1.2c0.3,0.3,0.5,0.6,0.6,0.9
		c0.1,0.3,0.3,0.6,0.4,0.6c0.2-0.1,0.5-0.3,1.3-1.5c2-2.9,7.8-7.6,8.1-7.8c0.3,0.2,0.6,4.5,0,8.6c-0.1,0.5-0.2,1-0.3,1.5
		c-0.2,0.8-0.3,1.4-0.2,1.5c0.1,0.1,0.5-0.1,0.8-0.2c0.4-0.1,0.7-0.2,1.1-0.3c2-0.5,2.5-0.5,2.9-0.4c0.6-0.2,0.1-1.3-0.1-1.8
		c-0.1-0.3-0.2-0.5-0.3-0.8c-0.3-1-0.3-8.5-0.3-8.8c0.5-0.2,5,0.5,6.4,1.7c0.4,0.3,0.7,0.4,1,0.3c0.6-0.2,1.2-0.9,1.6-1.7
		c0.4-0.7,1.1-1,1.7-1.4c0.4-0.2,0.8-0.4,1.1-0.7c-0.1-0.5-1.5-0.8-3.5-0.5c-2.4,0.3-8.2-0.2-8.4-0.2c5.2-5.6,10.5-11.3,15.7-16.9
		c0.1,0.1,0.2,0.2,0.3,0.3c-5.2,5.5-10.5,11-15.7,16.5c0.5-0.3,6,0.2,8.2-0.1c1.7-0.2,3.7-0.2,4,0.5c0,0,0,0,0.1,0.1
		c-0.1,0.2-0.1,0.4-0.2,0.6c-0.3,0.4-0.7,0.6-1.2,0.8c-0.6,0.3-1.1,0.7-1.5,1.2c-0.5,0.9-1.1,1.7-1.9,1.9c-0.5,0.1-0.9,0-1.4-0.4
		c-1.3-1.1-5.9-1.8-5.9-1.8c0.2,1.9,0.3,7.6,0.6,8.4c0.1,0.3,0.2,0.5,0.3,0.8c0.5,1.1,0.7,1.8,0.5,2.2c-0.3,0.1-0.6,0.1-0.9,0.2
		c-0.4,0-0.9,0-2.8,0.5c-0.4,0.1-0.7,0.2-1,0.3C208.4,229.3,208.2,229.3,208,229.4L208,229.4z"/>
            <path fill="#010101" d="M240,239.3c-2.3-2.5-4.7-5-7-7.4c-8,6.1-14,5.5-17.8-1.5c12.1,0.4,17.8-11.4,17.1-35.2
		c-3,5.1-6,10.2-9,15.3c0-4.3,0-8.7,0-13c-3.7,1-7.4,1.9-11.1,2.8c9.7-11.7,19.5-23.5,29.2-35.3C240.9,189.7,240.4,214.5,240,239.3z
		"/>
</g>
    </g>

</svg>
