<svg version="1.1" id="gnq" name="equatorial guinea" xmlns="http://www.w3.org/2000/svg" xmlns:xlink="http://www.w3.org/1999/xlink" x="0px" y="0px"
	 viewBox="0 0 480 320" enable-background="new 0 0 480 320" xml:space="preserve">
<g id="flag-gnq">
	<path fill="#559B44" d="M0,114c160,44.8,320-44.8,480,0c0-31.3,0-62.6,0-94C320-24.8,160,64.8,0,20C0,51.4,0,82.7,0,114z"/>
	<path fill="#FFFFFF" d="M0,206c160,44.8,320-44.8,480,0c0-30.7,0-61.4,0-92.1c-160-44.8-320,44.8-480,0C0,144.7,0,175.4,0,206z"/>
	<path fill="#D0202B" d="M0,300c160,44.8,320-44.8,480,0c0-31.3,0-62.6,0-93.9c-160-44.8-320,44.8-480,0C0,237.4,0,268.7,0,300z"/>
	<path fill="#4570B6" d="M0,20C0,113.3,0,206.7,0,300c46.7-33.6,93.4-78.6,140-128.4C93.4,128,46.7,79.7,0,20z"/>
</g>
<g id="crest">
	<path fill="#C9C9CA" d="M189.4,139.6c0,15,0,30,0,45c0,3.6,2.3,6.8,6.9,6.2c3.1-0.4,6.2-0.8,9.2-1.2c2.3-0.3,4.6,3,4.6,3
		s2.2-3.9,4.6-4.2c3.1-0.4,6.2-0.8,9.3-1.3c4.6-0.6,7-4.5,7-8.1c0-15,0-30,0-45C217.1,136,203.2,137.9,189.4,139.6z"/>
	<path fill="#010101" d="M210.1,193.1c-0.1-0.1-0.1-0.2-0.2-0.2c0-0.1-2.3-3.2-4.4-3c-3.1,0.4-6.2,0.8-9.2,1.2
		c-4.9,0.6-7.2-2.9-7.2-6.5c0-15,0-30,0-45c13.9-1.8,27.9-3.8,41.8-5.8c0.1,15.1,0.1,30.2,0.2,45.2c0,3.6-2.3,7.7-7.2,8.4
		c-3.1,0.4-6.2,0.8-9.3,1.3c-2.2,0.3-4.4,4.1-4.4,4.1C210.3,192.9,210.2,193,210.1,193.1L210.1,193.1z M230.7,134.1
		c-13.8,2-27.6,3.9-41.3,5.7c0.1,14.9,0.2,29.8,0.2,44.7c0,3.4,2.1,6.7,6.7,6.1c3.1-0.4,6.2-0.8,9.2-1.2c2-0.3,4,2,4.6,2.7
		c0.6-0.9,2.5-3.7,4.6-4c3.1-0.4,6.2-0.8,9.3-1.3c4.6-0.6,6.7-4.5,6.7-7.8C230.7,164.1,230.7,149.1,230.7,134.1L230.7,134.1z"/>
	<path fill="#C9C9CA" d="M179.7,189.3c-2.4,0.3-4.7-1.3-4.7-3c0-3,0-6,0-9.1c2,1.4,11.6,5.9,9.3,8c-2.4,2-4.7,0.5-4.7,0.5
		C179.7,185.7,179.7,189.3,179.7,189.3L179.7,189.3z"/>
	<path fill="#010101" d="M179.9,189.5c-0.1,0-0.1,0-0.2,0c-2.5,0.3-4.9-1.3-4.9-3.2c0-3,0-6,0-9.1c0.8,0.1,1.5,0.4,2.3,1
		c3.9,2.1,7.7,4.4,7.8,6.2c0,0.3-0.1,0.7-0.4,1c-1.6,1.4-4,1.1-4.7,0.6c0.1,0.4,0.1,1.5,0.1,3.3
		C179.9,189.3,179.9,189.4,179.9,189.5L179.9,189.5z M174.9,177.4c0.1,2.9,0.3,5.9,0.4,8.8c0,1.5,2.1,3,4.2,2.9c0-0.9,0-3.1,0-3.4
		c0.5-0.1,1.5,0.4,2.6,0.3c0.8-0.1,1.5-0.5,2.1-1c0.2-0.2,0.3-0.4,0.3-0.5c-0.1-1.7-4.8-4.3-7.6-5.9
		C176,178.1,175.3,177.6,174.9,177.4L174.9,177.4z"/>
	<path fill="#C9C9CA" d="M179.7,185.7c2.3-2.2,2.3,1.5,4.7-0.5c-0.8,3.7-1.6,7.3-2.4,11c-2.2-0.1-2.3,0.3-3.6-1.4
		C178.3,193,178.3,187.2,179.7,185.7L179.7,185.7z"/>
	<path fill="#C9C9CA" d="M240.3,181.3c2.4-0.3,4.7-2.5,4.7-4.2c0-3,0-6,0-9.1c-2.1,1.9-11.6,8.8-9.3,10.4c2.3,1.4,4.7-0.7,4.6-0.6
		C240.3,178.9,240.3,180.1,240.3,181.3L240.3,181.3z"/>
	<path fill="#010101" d="M240.3,181.5c-0.1-0.1-0.2-0.1-0.3-0.2c0-1.7,0-2.8,0-3.4c-0.4,0.7-2.9,1.6-4.5,0.6
		c-0.3-0.2-0.5-0.6-0.4-0.9c0-1.8,3.9-5,7.8-8.1c0.9-0.8,1.6-1.3,2-1.7c0.1,3.1,0.2,6.1,0.4,9.2C245.3,179,242.8,181.2,240.3,181.5
		L240.3,181.5z M240.2,177.5c0.3,0.4,0.4,2.7,0.4,3.5c2.1-0.5,4.2-2.4,4.2-3.9c0-3,0-6,0-9.1c0,0.5-0.7,1.1-1.6,1.8
		c-2.8,2.3-7.5,6.1-7.6,7.8c0,0.2,0.1,0.3,0.2,0.5C237.5,179.1,240,177.8,240.2,177.5L240.2,177.5z"/>
	<path fill="#C9C9CA" d="M240,177.8c-2.3-1.6-2.3,2-4.7,0.7c0.8,3.5,1.6,6.9,2.4,10.4c2.2-0.6,2.3-0.3,3.6-2.3
		C241.3,184.7,241.3,179,240,177.8L240,177.8z"/>
	<path fill="#C9C9CA" d="M219.1,196.8c0-1.8-4.6-4.8-4.6-6.6c0-1.8,4.6,1.2,14-0.1c9.3-1.3,13.9-10.9,11.6-12.3
		c2.3,3.2,2.3,6.8,2.3,8.6c0,3.6-4.6,7.9-13.9,9.2C225.3,196,222.2,196.4,219.1,196.8z"/>
	<path fill="#010101" d="M228.4,195.8c-3.1,0.4-6.2,0.9-9.3,1.3c-0.2-1-1.4-2.2-2.5-3.3c-1.2-1.3-2.4-2.5-2.4-3.5
		c0-0.4,0.6-1,3.1-0.6c2.2,0.4,6,0.9,11.1,0.2c5.6-0.8,8.9-4.6,10-6.2c1.3-1.9,2.1-3.9,1.9-5.1c-0.2-0.2-0.3-0.4-0.5-0.7
		c0.7-0.2,0.9,0.1,0.9,0.5c-0.1,0.1-0.3,0.1-0.4,0.2c2.2,2.9,2.2,6.1,2.2,7.7C242.6,190,238.2,194.4,228.4,195.8L228.4,195.8z
		 M215.1,190c-0.4,1.1,0.8,2.2,1.9,3.4c1.2,1.2,2.4,2.4,2.4,3.4c3-0.5,6-1,9-1.5c9.4-1.3,13.7-5.5,13.7-8.9c0-1.6,0-4.6-1.6-7.6
		c0.6,1.1-0.2,3.2-1.6,5.1c-1.2,1.6-4.6,5.6-10.4,6.4c-5.2,0.7-9,0.1-11.2-0.2C216.2,190,215.5,189.9,215.1,190L215.1,190z"/>
	<path fill="#C9C9CA" d="M200.6,199.3c0-1.9,4.6-6,4.6-7.8c0-1.8-4.6,2.4-13.9,3.6c-9.3,1.1-13.9-7.4-11.6-9.3
		c-2.3,3.8-2.3,7.4-2.3,9.2c0,3.6,4.6,6.7,13.9,5.6C194.4,200.1,197.5,199.7,200.6,199.3z"/>
	<path fill="#010101" d="M200.8,199.5c-3.2,0.4-6.3,0.8-9.5,1.2c-9.7,1.2-14.2-2.2-14.2-5.8c0-1.7,0-4.8,1.8-8.3
		c0.1-0.5,0.3-0.8,0.6-1.1c0.2,0.6,0,1-0.1,1.2c-0.1,0-0.3,0-0.4,0c0.2,1.3,0.9,3.1,2.3,4.6c1.2,1.3,4.4,4.3,10.1,3.6
		c5.1-0.6,8.9-2.2,11.1-3.1c2.5-1.1,3.1-0.7,3.1-0.2c0,1-1.1,2.5-2.3,4.1c-1.1,1.4-2.3,2.9-2.3,3.8
		C200.8,199.3,200.8,199.4,200.8,199.5L200.8,199.5z M178.9,186.6c-1.3,3.6-1.3,6.6-1.3,8.3c0,3.4,4.3,6.5,13.7,5.4
		c3-0.4,6.1-0.8,9.1-1.1c0.2-1,1.2-2.4,2.3-3.8c1.1-1.5,2.3-2.9,2.3-3.8c-0.8-0.1-1.5,0.2-2.5,0.6c-2.2,1-6,2.6-11.2,3.2
		c-5.8,0.7-9.3-2.4-10.4-3.7C179.4,190,178.6,188,178.9,186.6L178.9,186.6z"/>
	<path fill="#C9C9CA" d="M200.6,197.4c0-1.8,4.6-4.2,4.6-6c0,3,0,6,0,9c-1.5,0.2-3.1,0.4-4.6,0.6
		C200.6,199.9,200.6,198.7,200.6,197.4z"/>
	<path fill="#C9C9CA" d="M219.1,195c0-1.8-4.6-2.9-4.6-4.7c0,3,0,6,0,9c1.5-0.2,3.1-0.4,4.6-0.6C219.1,197.4,219.1,196.2,219.1,195z
		"/>
	<path fill="#C9C9CA" d="M200.6,197.4c0,1.9,18.5-0.6,18.5-2.5c0,2.4,0,4.8,0,7.2c0,1.8-18.5,4.3-18.5,2.5
		C200.6,202.3,200.6,199.9,200.6,197.4z"/>
	<path fill="#010101" d="M209.8,205.1c-2.2,0.3-9.5,1.1-9.5-0.4c0-2.4,0-4.8,0-7.2c0.4,0.4,3.7,0.7,9.5-0.1c5.8-0.8,9.1-1.9,9.1-2.4
		c0,0,0,0.2,0,0.3c0.2,2.3,0.3,4.6,0.5,6.9C219.4,203.6,212.1,204.8,209.8,205.1L209.8,205.1z M200.3,197.6c0.1,2.4,0.3,4.7,0.4,7
		c0,0.5,3.2,0.7,9.1-0.1c5.8-0.8,9.1-1.8,9.1-2.3c0-2.3,0-4.6,0-7c-0.4,1.4-7,2.4-9.1,2.6C207.6,198.2,200.5,199,200.3,197.6
		L200.3,197.6z"/>
	<path fill="#010101" d="M209.8,197.9c-2.4,0.3-4.7,0.4-6.4,0.5c-2.8,0-3.1-0.4-3.1-0.9c0-1,1.1-2,2.4-3.1c1.1-1,2.2-2,2.2-2.8
		c-0.3-0.3-1.3,0.1-2.5,0.6c-2.2,0.9-6,2.6-11.2,3.2c-6.8,0.8-11.1-3.5-12.1-6.5c-0.5-1.5-0.4-2.7,0.4-3.3c1.3-1.2,2.1-0.7,2.6-0.3
		c0.6,0.4,1,0.7,2-0.2c0.1,0.1,0.2,0.2,0.3,0.4c-1.3,1.1-2.1,0.7-2.6,0.3c-0.6-0.4-1-0.7-2,0.2c-0.6,0.5-0.7,1.5-0.2,2.8
		c1,2.9,5.1,7,11.7,6.2c5.1-0.6,8.9-2.2,11.1-3.1c1.6-0.7,2.4-1.1,2.9-0.8c0,0,0.1,0.1,0.1,0.1c0,0.2,0.1,0.3,0.1,0.5
		c0,1.1-1.2,2.1-2.4,3.2c-1.1,1-2.3,2-2.3,2.8c0,0.5,3.2,0.7,9.1-0.1c5.8-0.8,9.1-1.9,9.1-2.4c0-0.8-1.1-1.5-2.3-2.2
		c-1.2-0.7-2.4-1.5-2.4-2.5c0.1-0.2,0.2-0.4,0.3-0.6c0.4-0.3,1.3-0.2,2.8,0.1c2.2,0.4,6,0.9,11.1,0.2c6.6-0.9,10.6-6.1,11.6-9.2
		c0.5-1.4,0.4-2.4-0.2-2.8c-1-0.7-1.5-0.3-2,0.3c-0.6,0.5-1.3,1.1-2.6,0.4c1.3,0.2,1.7-0.2,2.3-0.7c0.6-0.5,1.3-1.2,2.6-0.4
		c0.8,0.5,0.9,1.7,0.4,3.3c-1,3.2-5.3,8.7-12.1,9.6c-5.2,0.7-9,0.1-11.2-0.2c-1.2-0.2-2.2-0.4-2.4-0.1c-0.1,1,1.1,1.7,2.2,2.4
		c1.2,0.8,2.4,1.5,2.4,2.5C219.3,196.5,212.1,197.6,209.8,197.9L209.8,197.9z"/>
	<path fill="#010101" d="M238.4,191.1c-0.8-1.2-1.6-2.5-2.4-3.7c0.1-0.1,0.3-0.2,0.4-0.2c0.8,1.3,1.6,2.5,2.4,3.8
		C238.7,191,238.6,191.1,238.4,191.1z"/>
	<path fill="#010101" d="M236.9,190.5c0.2,0,0.3-0.1,0.5-0.1c0.1,0.5,0.1,0.9,0,1.2c-0.1,0.3-0.4,0.5-0.7,0.7
		c-0.3,0.2-0.7,0.2-1,0.2c-0.3-0.1-0.6-0.2-0.9-0.5c-0.3-0.2-0.5-0.6-0.7-0.9c-0.2-0.4-0.3-0.7-0.4-1.1c0-0.3,0.1-0.7,0.2-1
		c0.2-0.2,0.4-0.4,0.7-0.5c0.3-0.2,0.6-0.2,1-0.1c0.3,0.1,0.6,0.3,0.9,0.6c-0.1,0.1-0.2,0.2-0.4,0.3c-0.2-0.2-0.4-0.4-0.7-0.5
		c-0.2,0-0.4,0-0.6,0.1c-0.2,0.1-0.4,0.2-0.5,0.5c-0.1,0.2-0.1,0.4-0.1,0.7c0.1,0.3,0.2,0.5,0.3,0.8c0.2,0.3,0.4,0.6,0.6,0.8
		c0.2,0.2,0.4,0.3,0.7,0.4c0.2,0,0.5,0,0.7-0.1c0.2-0.1,0.4-0.3,0.4-0.5C237.1,191.1,237,190.8,236.9,190.5L236.9,190.5z"/>
	<path fill="#010101" d="M234,193.6c-0.5-1.3-1-2.7-1.5-4c0.1-0.1,0.3-0.1,0.4-0.2c0.5,1.3,1,2.7,1.6,4
		C234.3,193.5,234.2,193.5,234,193.6z"/>
	<path fill="#010101" d="M231.1,194.5c-0.1-1.3-0.3-2.5-0.4-3.8c-0.4,0.1-0.8,0.1-1.2,0.2c0-0.2,0-0.3,0-0.5
		c0.9-0.2,1.8-0.4,2.7-0.6c0,0.2,0,0.3,0.1,0.5c-0.4,0.1-0.8,0.1-1.1,0.2c0.1,1.3,0.3,2.6,0.4,3.9
		C231.4,194.4,231.2,194.4,231.1,194.5z"/>
	<path fill="#010101" d="M226.7,193.9c0.1,0,0.3-0.1,0.4-0.1c0,0.3,0.1,0.4,0.1,0.5c0.1,0.2,0.2,0.3,0.4,0.3
		c0.1,0.1,0.3,0.1,0.6,0.1c0.2,0,0.3-0.1,0.4-0.2c0.1-0.1,0.3-0.2,0.3-0.3c0.1-0.1,0.1-0.3,0.1-0.3c0-0.2,0-0.3-0.1-0.4
		c0-0.1-0.1-0.2-0.3-0.2c-0.1,0-0.3-0.1-0.6-0.2c-0.3-0.1-0.6-0.1-0.7-0.2c-0.2-0.1-0.3-0.2-0.4-0.3c-0.1-0.2-0.1-0.4-0.1-0.6
		c0-0.2,0.1-0.4,0.2-0.6c0.1-0.2,0.2-0.4,0.4-0.5c0.2-0.2,0.4-0.2,0.6-0.3c0.3,0,0.5,0,0.7,0.1c0.1,0.1,0.3,0.2,0.5,0.4
		c0.1,0.2,0.2,0.5,0.2,0.7c-0.2,0-0.3,0.1-0.5,0.1c0-0.2-0.1-0.5-0.2-0.6c-0.1-0.1-0.3-0.1-0.6-0.1c-0.3,0-0.5,0.1-0.6,0.2
		c-0.1,0.1-0.2,0.4-0.2,0.5c0,0.1,0.1,0.3,0.2,0.4c0.1,0.1,0.3,0.2,0.7,0.2c0.4,0,0.7,0,0.8,0.1c0.2,0.1,0.4,0.2,0.4,0.4
		c0.1,0.1,0.2,0.3,0.2,0.6c0,0.2-0.1,0.5-0.2,0.7c-0.1,0.2-0.3,0.4-0.4,0.6c-0.2,0.1-0.4,0.2-0.7,0.3c-0.3,0-0.6,0-0.8-0.1
		c-0.2-0.1-0.3-0.3-0.5-0.5C226.7,194.5,226.7,194.2,226.7,193.9C226.7,193.9,226.7,193.9,226.7,193.9z"/>
	<path fill="#010101" d="M225.4,191c0.1,0,0.3,0,0.4,0c0,0.9-0.1,1.7-0.1,2.6c-0.1,0.5-0.1,0.8-0.2,1.1c-0.1,0.3-0.3,0.5-0.4,0.7
		c-0.2,0.2-0.5,0.3-0.9,0.3c-0.3,0-0.6,0-0.8-0.2c-0.2-0.1-0.3-0.3-0.4-0.6c-0.1-0.3-0.1-0.6-0.1-1.1c0-0.9,0.1-1.7,0.1-2.6
		c0.2,0,0.3,0,0.5-0.1c0,0.9-0.1,1.7-0.1,2.6c0,0.4,0,0.7,0,0.9c0,0.2,0.1,0.3,0.3,0.4c0.1,0.1,0.3,0.1,0.5,0.2
		c0.3,0,0.6-0.2,0.7-0.5c0.2-0.2,0.3-0.6,0.3-1.1C225.3,192.8,225.3,191.9,225.4,191z"/>
	<path fill="#010101" d="M219.6,194.8c0.2-0.1,0.3-0.1,0.5-0.2c0,0.4,0.1,0.6,0.1,0.7c0.1,0.1,0.2,0.2,0.4,0.2
		c0.1,0,0.3-0.1,0.3-0.2c0.1-0.1,0.1-0.2,0.2-0.4c0,0,0.1-0.3,0.1-0.6c0-1,0-2,0-3c0.1,0,0.3,0,0.4-0.1c0,1,0,2,0,3
		c0,0.4,0,0.7-0.1,0.9c-0.1,0.2-0.2,0.4-0.3,0.5c-0.1,0.1-0.3,0.2-0.6,0.2c-0.3,0-0.5,0-0.7-0.2
		C219.7,195.6,219.6,195.2,219.6,194.8L219.6,194.8z"/>
	<path fill="#010101" d="M211.7,203.3c0-0.2,0-0.4,0-0.6c0.6-1.2,1.2-2.3,1.8-3.5c0.1-0.3,0.2-0.4,0.4-0.6c-0.7,0.1-1.3,0.2-2,0.3
		c0-0.2,0-0.4,0-0.6c0.8-0.1,1.7-0.2,2.5-0.3c0,0.2,0,0.4,0,0.6c-0.6,1.2-1.3,2.5-1.9,3.7c-0.1,0.1-0.2,0.3-0.2,0.4
		c0.7-0.1,1.5-0.2,2.2-0.3c0,0.2,0,0.4,0,0.6C213.6,203.1,212.7,203.2,211.7,203.3z"/>
	<path fill="#010101" d="M186.2,200.4c0.4-1.7,0.7-3.4,1.1-5c0.1,0,0.3,0,0.4,0c-0.4,1.7-0.7,3.4-1.1,5.1
		C186.5,200.4,186.3,200.4,186.2,200.4z"/>
	<path fill="#010101" d="M181.2,199c1-1.6,1.9-3.1,2.9-4.7c0.1,0,0.3,0.1,0.4,0.1c-0.2,1.4-0.4,2.8-0.6,4.2c0.8-1.2,1.5-2.4,2.3-3.7
		c0.1,0,0.3,0.1,0.4,0.1c-1,1.6-1.9,3.2-2.9,4.7c-0.1,0-0.3-0.1-0.4-0.1c0.2-1.4,0.4-2.8,0.6-4.3c-0.7,1.2-1.5,2.5-2.2,3.7
		C181.5,199.1,181.3,199,181.2,199z"/>
	<path fill="#010101" d="M183.7,193.8c0.1,0.1,0.2,0.1,0.3,0.2c-0.8,0.8-1.7,1.6-2.5,2.4c-0.4,0.4-0.8,0.7-1.1,0.9
		c-0.3,0.2-0.6,0.3-0.9,0.4c-0.3,0-0.6,0-0.8-0.2c-0.2-0.2-0.3-0.4-0.4-0.6c0-0.2,0.1-0.5,0.3-0.8c0.2-0.3,0.5-0.7,1-1.1
		c0.8-0.8,1.7-1.6,2.5-2.4c0.1,0.1,0.2,0.2,0.3,0.2c-0.8,0.8-1.6,1.6-2.5,2.4c-0.4,0.4-0.6,0.7-0.8,0.8c-0.1,0.2-0.2,0.4-0.2,0.5
		c0,0.2,0.1,0.3,0.2,0.4c0.3,0.2,0.5,0.2,0.8,0.1c0.3-0.1,0.7-0.4,1.3-0.9C182,195.4,182.8,194.6,183.7,193.8z"/>
	<path fill="#010101" d="M188.6,200.5c0.1-1.7,0.1-3.4,0.2-5.1c0.4,0,0.8-0.1,1.2-0.1c0.3,0,0.5,0,0.6,0c0.2,0,0.4,0.1,0.5,0.3
		c0.2,0.3,0.3,0.5,0.4,0.8c0.1,0.3,0.1,0.8,0.1,1.2c0,0.4-0.1,0.7-0.1,1c-0.1,0.3-0.1,0.6-0.2,0.8c-0.1,0.2-0.2,0.4-0.3,0.5
		c-0.1,0.2-0.3,0.3-0.4,0.3c-0.2,0.1-0.4,0.1-0.6,0.2C189.5,200.4,189.1,200.5,188.6,200.5z M189.1,199.9c0.2,0,0.5-0.1,0.7-0.1
		c0.3,0,0.4-0.1,0.6-0.1c0.1-0.1,0.2-0.2,0.3-0.3c0.1-0.2,0.2-0.4,0.3-0.7c0.1-0.3,0.1-0.6,0.1-1c0.1-0.5,0-0.9-0.1-1.2
		c-0.1-0.3-0.3-0.4-0.5-0.5c-0.1-0.1-0.3-0.1-0.6,0c-0.2,0-0.5,0-0.7,0C189.2,197.3,189.2,198.6,189.1,199.9z"/>
	<path fill="#010101" d="M191.9,200.2c0.4-1.7,0.9-3.5,1.3-5.2c0.2,0,0.4,0,0.5-0.1c0.5,1.6,1,3.3,1.4,4.9c-0.2,0-0.4,0-0.6,0.1
		c-0.1-0.5-0.2-1.1-0.4-1.6c-0.5,0.1-1,0.1-1.5,0.2c-0.1,0.6-0.3,1.1-0.4,1.7C192.2,200.1,192,200.1,191.9,200.2z M192.9,197.9
		c0.4,0,0.8-0.1,1.2-0.2c-0.1-0.5-0.3-0.9-0.4-1.4c-0.1-0.4-0.2-0.7-0.3-1c0,0.3-0.1,0.6-0.2,1C193.1,196.9,193,197.4,192.9,197.9z"
		/>
	<path fill="#010101" d="M195.6,199.7c0-1.7,0-3.4,0-5.1c0.4-0.1,0.8-0.1,1.2-0.2c0.3,0,0.5,0,0.6,0c0.1,0.1,0.3,0.1,0.5,0.3
		c0.2,0.2,0.4,0.5,0.4,0.8c0.1,0.3,0.2,0.8,0.2,1.2c0,0.4,0,0.7-0.1,1c-0.1,0.3-0.1,0.6-0.2,0.8c-0.1,0.2-0.2,0.4-0.3,0.5
		c-0.1,0.1-0.2,0.3-0.4,0.3c-0.1,0.1-0.3,0.1-0.6,0.2C196.4,199.6,196,199.7,195.6,199.7z M196,199.1c0.3,0,0.5-0.1,0.8-0.1
		c0.2,0,0.4-0.1,0.5-0.2c0.1-0.1,0.2-0.2,0.3-0.3c0.1-0.2,0.2-0.4,0.3-0.7c0.1-0.3,0.1-0.6,0.1-1c0-0.5-0.1-0.9-0.2-1.2
		c-0.1-0.3-0.3-0.5-0.4-0.5c-0.1-0.1-0.3-0.1-0.6,0c-0.3,0-0.5,0.1-0.8,0.1C196,196.5,196,197.8,196,199.1z"/>
	<path fill="#010101" d="M205.5,204.1c0-1.7,0-3.4,0-5c0.4-0.1,0.9-0.1,1.3-0.2c0.3,0,0.4-0.1,0.5,0c0.2,0,0.3,0.1,0.4,0.1
		c0.1,0.1,0.2,0.3,0.3,0.5c0.1,0.2,0.1,0.4,0.1,0.7c0,0.4-0.1,0.8-0.3,1.1c-0.2,0.4-0.6,0.5-1.1,0.6c-0.3,0-0.6,0.1-0.9,0.1
		c0,0.7,0,1.4,0,2.1C205.8,204.1,205.6,204.1,205.5,204.1z M205.9,201.5c0.3,0,0.6-0.1,0.9-0.1c0.3,0,0.5-0.1,0.7-0.3
		c0.1-0.2,0.2-0.4,0.2-0.7c0-0.2,0-0.4-0.1-0.5c-0.1-0.1-0.1-0.2-0.3-0.2c0,0-0.2,0-0.4,0.1c-0.3,0-0.6,0.1-0.9,0.1
		C205.9,200.3,205.9,200.9,205.9,201.5z"/>
	<path fill="#010101" d="M208.4,203.8c0.4-1.7,0.9-3.5,1.3-5.2c0.2,0,0.3,0,0.5-0.1c0.5,1.6,1,3.2,1.5,4.8c-0.2,0-0.4,0-0.5,0.1
		c-0.1-0.5-0.3-1-0.4-1.5c-0.5,0.1-1,0.1-1.5,0.2c-0.1,0.5-0.3,1-0.4,1.6C208.7,203.7,208.5,203.7,208.4,203.8z M209.4,201.6
		c0.4-0.1,0.8-0.1,1.2-0.2c-0.1-0.4-0.2-0.9-0.4-1.3c-0.1-0.5-0.2-0.8-0.3-1.1c-0.1,0.4-0.1,0.7-0.2,1
		C209.6,200.6,209.5,201.1,209.4,201.6z"/>
	<path fill="#010101" d="M239.5,190.6c-0.8-1.3-1.6-2.6-2.4-4c0.1-0.1,0.3-0.2,0.4-0.3c1.5,0.8,2.9,1.6,4.4,2.4
		c-0.1,0.1-0.3,0.2-0.4,0.3c-0.4-0.3-0.9-0.5-1.3-0.8c-0.4,0.3-0.7,0.5-1.1,0.8c0.2,0.4,0.5,0.8,0.7,1.2
		C239.7,190.4,239.6,190.5,239.5,190.6z M238.9,188.7c0.3-0.2,0.6-0.4,0.9-0.6c-0.4-0.2-0.8-0.5-1.2-0.7c-0.3-0.2-0.6-0.4-0.9-0.5
		c0.2,0.2,0.4,0.5,0.5,0.8C238.4,188,238.7,188.3,238.9,188.7z"/>
	<path fill="#602F15" d="M209.5,161c0,2.7,1.6,10.5-3,23.6c-0.4,0.9,0.5,1.3,1.3,1.4c0.8,0,1.1-1,1.1-1c0-0.4,0.2,1.3,1,1
		c0.7-0.3,1.5-1.5,1.5-1.5s0.4,1.7,1.3,1.6c0.9-0.1,0.9-2.2,0.9-2.2c0,0.2,0.7,1.7,1.4,1.6c0.7-0.1,1.9-0.9,1.2-2
		c-4.8-7.5-4.6-21.1-4.6-22.7c0-1.5,2.3-4.5,4.4-4.9c-0.3-0.4-0.6-0.8-0.8-1.2c-0.6,0.2-1.2,0.4-2.4,1.6c-1.1,1.1-1.8,2.2-1.8,2.2
		c0-2.2,0-4.4,0-6.6c-0.6,0.1-1.2,0.2-1.9,0.2c0.1,2,0.1,3.9,0.2,5.9c0,0-0.6-0.6-1.6-1.4c-0.9-0.7-2.6-0.4-3.6-0.1
		c0,0.5-0.1,0.9-0.1,1.4c1.2,0.1,2.7-0.6,3.5,0.4C208.6,159,209.5,159.7,209.5,161L209.5,161z"/>
	<path fill="#010101" d="M212.7,186.2c-0.9,0.1-1.3-0.8-1.5-1.3c-0.1,0.5-0.7,1.2-1.3,1.4c-0.7,0.2-0.9-0.4-1.1-0.8
		c-0.1,0.3-0.5,0.6-0.8,0.7l0,0c-0.8,0-1.5-0.2-1.7-0.7c-0.2-0.3-0.2-0.6,0-0.9c3.9-11,3.4-18.3,3.1-21.8c0-0.7-0.1-1.3-0.1-1.7
		c0-1.1-0.7-1.7-1.6-2.5c-0.7-0.8-1.5-0.7-2.3-0.6c-0.4,0-0.8,0.1-1.2,0.1c0-0.5-0.1-1-0.1-1.6c1.9-1.2,3.2-0.7,4-0.1
		c1,0.7,1.7,1.4,1.7,1.4c-0.2-1.9-0.4-3.7-0.6-5.6c0.7-0.2,1.4-0.3,2.1-0.5c0.1,2,0.1,4.1,0.2,6.1c0.2-0.4,0.8-1.1,1.5-1.8
		c1.1-1,1.7-1.4,2.3-1.6c0.4,0.4,0.9,0.9,1.3,1.3c-2.2,0.7-4.4,3.7-4.4,5.1c-0.1,9.9,1.6,18,4.6,22.6c0.4,0.5,0.2,1,0.1,1.4
		c-0.3,0.6-1,1-1.5,1c-0.6,0.1-1.1-0.5-1.4-1.1C213.7,185.2,213.5,186.1,212.7,186.2L212.7,186.2z M211.2,184.3
		c0.5,0.4,0.9,1.5,1.5,1.4c0.6-0.1,0.7-1.3,0.7-2c0.5,0.2,1.2,1.4,1.7,1.3c0.4-0.1,0.9-0.2,1.1-0.6c0.2-0.3,0.1-0.6-0.1-0.9
		c-4-6.4-4.6-16.8-4.6-22.5c0-1.9,2.3-5,4.7-5.5c-0.4-0.3-0.7-0.6-1.1-0.9c-0.4,0.3-1,0.6-2,1.6c-1.1,1-1.8,2.2-1.8,2.2
		c0-0.1,0-0.1,0-0.2c-0.1-0.1-0.1-0.2,0-0.4c-0.1-2-0.3-4-0.4-6c-0.6,0.2-1.1,0.3-1.7,0.5c0.1,1.9,0.3,3.7,0.4,5.6
		c-0.4,0.2-1.1-0.4-2-1.1c-0.9-0.8-2.5-0.3-3.4-0.1c0,0.4,0.1,0.7,0.1,1.1c0.2-0.2,0.6-0.2,1-0.3c1-0.1,1.9-0.3,2.5,0.5
		c1,0.9,1.8,1.7,1.8,2.9c0,0.5,0,1,0.1,1.7c0.2,3.5,0.8,10.8-3.1,22c0.1,0.8,0.5,1.1,1.2,1.1c0.6-0.1,0.8-0.7,0.8-0.7
		c0.7,0.8,1,0.9,1.1,0.8C210.4,185.6,211,184.7,211.2,184.3L211.2,184.3z"/>
	<path fill="#3C9344" d="M195.8,155.4C195.8,155.4,195.8,155.3,195.8,155.4c0,0.1,0,0.1,0.1-0.3c0.1-0.2,0.3-0.5,0.5-0.7
		c0.4-0.1,0.8-0.1,1.2-0.2c0.3-0.3,0.7,0.3,0.7-0.1c0.5-0.1,0.5-0.5,0.6-0.7c0.5-0.1,0.6-0.5,0.9-0.3c0.3,0,0-0.1,0.5-0.2
		c0.3,0,0.5,0.1,0.7,0c0.1-0.3,0.2-0.6,0.2-0.9c-0.2-0.2-0.1-0.6-0.1-0.9c0.2-0.3,0.7,0.2,1.1,0c0.1-0.4,0.5-0.3,0.3-0.6
		c-0.1-0.4-0.1-0.6,0-0.9c0.1-0.3,0.4-0.3,0.8-0.6c0.1-0.2,0-0.5,0.1-0.8c0.4-0.1,0.4-0.2,0.5-0.5c0.1-0.2,0.3-0.5,0.6-0.7
		c0.2-0.2,0.5-0.2,0.6-0.5c0.2-0.4,0.2-0.5,0.6-0.6c0.3-0.2,0.5-0.2,0.8-0.4c0.2-0.2,0.4-0.5,0.6-0.9c0.3-0.1,1.7,0,2.1,0
		c0.2-0.3,0.6-0.7,0.8-0.9c0.4-0.2,0.6-0.3,1.2-0.4c0.4,0,0.6,0.1,1.2-0.1c0.2-0.3,0.4-0.4,0.9-0.3c0.4,0.2,0.6,0.1,0.8,0.4
		c0.2,0.4,0.2,0.5,0.7,0.5c0.6-0.1,0.7,0,1.1,0.1c0.6,0.1,0.5,0,0.5,0.4c0.4-0.1,0.5-0.1,0.5,0.2c0.2,0,0.5,0.2,0.7,0.3
		c0.2,0.1,0.3,0.3,0.8,0.2c0.4-0.2,0.5-0.2,0.6-0.5c0.3-0.2,0.3-0.4,0.5-0.6c0.2-0.3,0.4-0.3,0.9-0.4c0.5,0,0.5,0.2,0.4,0.5
		c0.3,0,0.4-0.1,0.5,0.2c0.1,0.2,0.1,0.4-0.1,0.6c0.3,0.1,0.4,0.3,0.5,0.6c-0.2,0.3-0.1,0.5,0,0.7c0.3,0.1,0.5,0.2,1,0.3
		c0.2,0,0.7,0.1,1.1,0.1c0.5-0.1,0.6-0.1,1.1,0c0.2,0.3,0.2,0.5,0.4,0.7c0.3,0.1,0.7,0.1,0.8,0.3c0.3,0.1,0.4,0.3,0.8,0.3
		c0.2,0.2,0.5,0.4,0.6,0.6c0.1,0.2,0.2,0.5,0.3,0.9c0,0.3,0,0.6,0,1c0,0.4-0.1,0.6-0.1,1c-0.1,0.2-0.2,0.3-0.2,0.6
		c-0.2,0.2-0.3,0.5-0.5,0.8c-0.2,0.4-0.3,0.6-0.5,0.9c0,0.3,0.1,0.5,0.1,0.9c-0.2,0.2-0.5,0.4-0.9,0.7c-0.3,0.3-0.5,0.4-0.6,0.8
		c-0.2,0.3-0.1,0.3-0.6,0.3c-0.4,0.1-0.8,0.1-1.3,0.2c-0.4,0.1-0.6,0.1-0.8,0c-0.4-0.1-0.8-0.1-1.3,0.1c-0.3-0.1-0.4-0.2-0.8-0.1
		c-0.4,0.1-0.7,0.1-1.1,0.2c-0.3-0.2-0.4-0.2-1-0.1c-0.3,0.1-0.8,0.1-1.2,0.2c-0.4,0-0.5-0.1-0.6-0.3c-0.3-0.1-0.4-0.2-0.8-0.2
		c-0.4,0.1-1,0.2-1.2,0.1c-0.3,0-0.6,0-0.9-0.1c-0.1-0.2-0.4-0.3-0.6-0.5c-0.4,0.1-0.6,0.2-0.8,0c-0.3-0.1-0.6-0.4-1-0.5
		c-0.3-0.1-0.6-0.2-0.7-0.6c0-0.3,0.1-0.4-0.4-0.3c-0.3,0.2-0.4,0.3-1,0.4c-0.4,0-0.7,0.1-1,0.1c-0.4-0.1-0.6-0.1-1-0.1
		c-0.3,0.1-0.7,0.4-1.1,0.5c-0.4,0.2-0.6,0.3-0.7,0.6c-0.4,0.3-0.6,0.3-1,0.6c-0.3,0.2-0.5,0.3-0.7,0.6c-0.1,0.3-0.2,0.5-0.2,0.9
		c0.1,0.4,0.1,0.5-0.2,0.8c-0.2,0.3-0.6,0.4-0.9,0.6c-0.4,0.1-0.5,0.1-0.8,0c-0.3,0-0.7-0.1-1.1-0.1c-0.5,0-0.7-0.1-0.9-0.3
		c0.3,0.1,0.6,0.2,0.9,0.3c-0.5,0-0.7-0.1-0.9-0.3c-0.6-0.1-0.6-0.3-1.3-0.2c-0.6,0.1-0.8,0.1-0.9,0.5c0.3,0,0.1,0.2-0.1,0.3
		c-0.2,0.2-0.6,0.4-0.9,0.5c-0.2,0.1-0.1-0.1-0.4-0.1c-0.4-0.1-0.5-0.3-0.9-0.3c-0.2-0.2-0.4-0.4-0.7-0.6c-0.2-0.1-0.4-0.2-0.6-0.5
		c-0.1-0.1-0.5-0.1-0.6-0.2c-0.1-0.2-0.3-0.7-0.3-0.9c0.2-0.2,0.3-0.7,0.5-0.8c0.4-0.2,0.6-0.1,1-0.1c0.5-0.1-0.6-0.4-0.1-0.5
		c0.4-0.1,0.4-0.3,0.6-0.5C195.1,155.5,195.5,155.4,195.8,155.4z"/>
	<path fill="#010101" d="M202.1,159.6c-0.2,0-0.4-0.1-0.7-0.1c-0.3-0.1-0.7,0-1.1,0c-0.2,0-0.4-0.1-0.5-0.1c-0.2,0-0.3-0.1-0.5-0.1
		c-0.6-0.2-0.7-0.3-1.1-0.2c-0.6,0.1-0.6,0.1-0.7,0.2c-0.4,0.7-0.7,0.8-1.2,1c-0.3-0.1-0.6-0.1-0.8-0.2c-0.2-0.1-0.3-0.1-0.5-0.1
		c-0.3-0.2-0.5-0.3-0.6-0.4c-0.5-0.3-1.1-0.7-1.6-1c-0.1-0.3-0.3-0.7-0.2-1c0.3-0.6,0.4-0.8,0.7-0.9c0.2,0,0.5-0.1,0.7-0.1
		c0.2-0.3,0.4-0.6,0.6-0.9c0.5-0.1,0.9-0.3,1.4-0.4c0-0.4,0.2-0.7,0.4-0.8c0,0,0,0,0-0.1c0.8-0.2,1.5-0.5,2.3-0.7
		c0.2-0.2,0.5-0.4,0.7-0.6c0.5-0.1,0.9-0.1,1.4-0.2c0.3-0.2,0.3-0.4,0.4-0.6c-0.1-0.1-0.1-0.5-0.1-0.7c0-0.1,0-0.2,0-0.3
		c0.1-0.1,0.3-0.2,0.4-0.3c0.3,0,0.6,0.1,0.8,0.1c0-0.8,0-1,0.2-1.4c0.1-0.3,0.3-0.4,0.6-0.5c0,0,0,0,0,0c0.1-0.3,0.2-0.5,0.2-0.8
		c0.1-0.1,0.3-0.3,0.4-0.4c0.2-0.4,0.4-0.7,0.6-0.9c0.3-0.1,0.5-0.3,0.8-0.4c-0.1,0-0.1-0.1-0.2-0.1c0.2-0.4,0.3-0.5,0.7-0.7
		c0.3-0.1,0.5-0.1,0.8-0.2c-0.1,0-0.1-0.1-0.2-0.1c0.2-0.3,0.4-0.5,0.6-0.9c0.8-0.2,1.2-0.2,1.6-0.2c0.3,0,0.6,0,0.7,0
		c0.1-0.3,0.5-0.6,0.7-0.8c0.4-0.3,0.6-0.4,1.2-0.4c0.3,0,0.5,0.1,0.8,0.1c0.4-0.2,0.6-0.4,0.9-0.4c0.2,0,0.5,0,0.7,0.1
		c0.3,0.1,0.4,0.2,0.6,0.5c0.2,0.2,0.3,0.4,0.5,0.6c0-0.1,0-0.2,0-0.3c0.6-0.1,0.7,0,1,0.2c0.7,0.1,0.8,0.2,0.8,0.6
		c0.5,0,0.8,0.1,1.1,0.3c0.3,0.2,0.3,0.3,0.7,0.2c0-0.1,0-0.1,0-0.2c0.3-0.3,0.6-0.6,0.8-0.9c0.3-0.3,0.6-0.4,1.1-0.4
		c0.7,0.1,0.7,0.4,0.6,0.8c0.2,0.2,0.4,0.3,0.6,0.5c0,0.2,0.1,0.4,0.3,0.7c0,0.2,0,0.5,0,0.7c0.4,0,0.5,0.1,0.8,0.1
		c0.2,0.1,0.7,0.2,1.1,0.2c0.6-0.2,0.8-0.1,1.2-0.1c0,0,0.1,0,0.1,0c0.1,0.3,0.2,0.6,0.3,0.9c0.1,0,0.3-0.1,0.4-0.1
		c0.2,0,0.4,0.1,0.6,0.3c0,0,0.1,0,0.1,0c0.2,0.1,0.5,0.2,0.7,0.3c0.4,0.3,0.6,0.5,0.7,0.6c0.1,0.3,0.2,0.7,0.3,1
		c-0.1,0.9-0.2,1.8-0.3,2.7c-0.2,0.4-0.4,0.5-0.6,0.9c-0.1,0.2-0.1,0.4-0.3,0.6l0,0c0,0.4,0,0.7,0,1.1c-0.3,0.4-0.5,0.7-0.9,0.9
		c-0.3,0.2-0.4,0.3-0.4,0.6c0,0.1,0,0.2,0,0.2c-0.2,0.1-0.4,0.2-0.6,0.3c0,0,0,0,0,0c-0.6,0.1-1,0.2-1.4,0.3c-0.5,0.1-0.7,0-0.9-0.1
		c-0.1,0-0.3,0-0.6,0c-0.2,0-0.4,0.1-0.7,0.1c-0.3-0.1-0.3-0.1-0.7-0.1c-0.3,0.1-0.7,0.2-1.1,0.3c-0.4-0.2-0.5-0.3-1-0.2
		c-0.1,0.1-0.4,0.2-0.7,0.2c-1,0-1.1-0.1-1.3-0.3c-0.2-0.1-0.4-0.3-0.7-0.4c0,0.1,0,0.2,0,0.3c-0.8,0.1-1.1,0.1-1.3,0.1
		c-0.4,0-0.7,0-0.9-0.1c-0.2-0.2-0.4-0.3-0.6-0.4c-0.4,0.1-0.7,0.1-0.9,0c-0.5-0.3-0.6-0.4-0.9-0.5c-0.4-0.2-0.7-0.3-0.9-0.7
		c-0.4,0-0.6,0.1-1.2,0.2c-0.4,0-0.7,0.1-1.1,0c-0.5-0.1-0.6-0.1-1-0.1c-0.2,0.2-0.6,0.3-1.1,0.4c0,0,0,0.1-0.1,0.1
		c-0.2,0.2-0.4,0.3-0.6,0.5c-0.4,0.3-0.6,0.4-1.1,0.6c-0.2,0.1-0.5,0.3-0.7,0.4c0.1,0,0.1,0,0.2,0c-0.1,0.4-0.2,0.6-0.2,0.8
		c0.1,0.4,0,0.5-0.2,1c-0.2,0.3-0.4,0.4-0.6,0.5C202.5,159.4,202.3,159.5,202.1,159.6L202.1,159.6z M200.4,159c0.4,0,0.8,0,1.1,0.1
		c0.2,0.1,0.3,0.2,0.5,0.3c0.1-0.1,0.1-0.2,0.2-0.3c0.3-0.1,0.6-0.3,0.9-0.4c-0.1,0-0.1-0.1-0.2-0.1c0.2-0.2,0.2-0.3,0.1-0.7
		c0-0.4,0.1-0.6,0.1-0.8c0.2-0.5,0.4-0.7,0.6-0.8c0.7-0.4,0.9-0.5,1.2-0.8c0.1-0.2,0.3-0.3,0.6-0.5c0.7-0.2,1.1-0.3,1.3-0.6
		c0.6-0.1,0.8,0,1.2,0.1c0.3,0,0.6,0,1-0.1c0.6-0.1,0.6-0.1,0.9-0.3c0-0.1,0.1-0.1,0.1-0.2c0.2,0.1,0.3,0.1,0.5,0.2
		c0.2,0.6,0.4,0.7,0.7,0.9c0.3,0.1,0.5,0.2,0.6,0.3c0.3,0.1,0.5,0.2,0.8,0.3c0.6,0,0.9,0.2,1.1,0.4c0.1,0.1,0.4,0.1,0.7,0.1
		c0.2,0.1,0.6,0,0.7,0c0.8-0.1,1-0.1,1.2-0.1c0.3,0.2,0.5,0.4,0.8,0.7c0-0.1,0-0.1,0-0.2c0.6-0.1,1-0.1,1.1-0.2
		c0.6-0.1,0.8-0.1,1.1,0.1c0.3-0.1,0.6-0.2,1-0.3c0.2,0.1,0.6,0,0.8,0.1c0.4-0.1,0.9-0.2,1.4-0.1c0.2,0,0.5,0,0.7,0
		c0.4-0.1,0.8-0.1,1.3-0.2c0.4-0.5,0.6-0.6,0.9-0.9c0.5-0.3,0.8-0.5,0.9-0.8c0-0.3-0.1-0.6-0.1-0.8c0.3-0.5,0.4-0.6,0.4-0.9
		c0.3-0.3,0.4-0.5,0.6-0.8c0.1-0.2,0.3-0.3,0.4-0.5c-0.1-0.2-0.1-0.4-0.2-0.6c0-0.5,0-0.9,0.1-1.4c0-0.3,0-0.6-0.1-0.9
		c-0.1,0-0.1,0.1-0.2,0.1c-0.1-0.1-0.2-0.3-0.4-0.4c-0.5-0.1-0.6-0.2-0.8-0.4c-0.5-0.3-0.9-0.5-1.4-0.8c-0.4-0.3-0.6-0.4-0.7-0.3
		c-0.9,0.1-1.4,0-1.6-0.2c-0.3,0-0.4,0-0.6,0c-0.5-0.5-0.6-0.9-0.4-1.2c-0.1,0-0.2-0.1-0.4-0.2c0.1-0.2,0.2-0.4,0.3-0.6
		c-0.2-0.2-0.5-0.4-0.7-0.6c-0.7-0.2-0.8-0.1-1,0c-0.1,0.3-0.2,0.6-0.6,0.7c0.1,0.3-0.1,0.4-0.4,0.5c-0.7,0.1-0.8,0-1.1-0.2
		c-0.3-0.1-0.6-0.2-0.8-0.2c-0.1,0-0.1,0-0.2,0c-0.3-0.3-0.7-0.5-1-0.8c-0.2-0.1-0.3-0.1-0.7-0.1c-0.6,0-0.7-0.1-0.8-0.4
		c-0.1-0.1-0.3-0.2-0.4-0.3c0,0,0,0-0.1,0c-0.3,0-0.7,0.1-1,0.1c-0.6,0.1-0.8,0.1-1,0.1c-0.8,0.1-0.9,0.1-1.3,0.3
		c-0.1,0.1-0.4,0.5-0.7,0.8c-0.4,0.1-0.7,0.1-1,0.1c-0.4,0-0.8,0-1.1,0c-0.4,0.3-0.6,0.5-0.8,0.8c0,0,0,0,0,0.1
		c-0.4,0.2-0.8,0.5-1.2,0.7c-0.2,0.3-0.4,0.5-0.5,0.6c-0.4,0.3-0.6,0.5-0.7,0.8c0,0.4-0.1,0.5-0.6,0.6c0,0,0,0.1-0.1,0.1
		c0,0.2,0,0.4,0.1,0.7c-0.3,0.1-0.6,0.3-0.9,0.4c0.1,0,0.2,0,0.3,0.1c0,0.3,0,0.6,0,0.9c-0.2,0.3-0.4,0.6-0.5,0.8
		c-0.2,0-0.4,0-0.6,0c-0.3,0.1-0.3,0.5-0.2,0.6c0,0.4-0.1,0.7-0.1,1c-0.8,0.2-1.7,0.3-2.5,0.5c0.1,0,0.1,0.1,0.2,0.1
		c-0.2,0.4-0.3,0.7-0.8,0.7c0,0,0,0,0,0.1c-0.4,0.1-0.8,0.1-1.2,0.2c-0.7,0.3-0.8,0.5-0.9,0.6c-0.2,0.1-0.3,0.2-0.5,0.2
		c0.1,0,0.1,0,0.2,0c-0.4,0.1-0.7,0.3-1.1,0.4c0,0.2-0.2,0.4-0.6,0.5c0.1,0.1,0.3,0.2,0.4,0.3c-0.3,0.1-0.5,0.2-0.8,0.3
		c-0.2,0.1-0.5,0.2-0.7,0.4c-0.2,0.5,0,0.8,0.1,1c0.2,0.1,0.3,0.3,0.5,0.4c0.1-0.1,0.1-0.1,0.2-0.2c0.2,0.2,0.3,0.4,0.5,0.7
		c0.1-0.1,0.1-0.1,0.2-0.2c0.4,0.3,0.5,0.4,0.7,0.6c0.2,0,0.3,0,0.5,0.1c0.2,0.1,0.4,0.2,0.6,0.2c0.2-0.2,0.6-0.4,0.8-0.5
		c0.1-0.7,0.6-0.7,1.1-0.9c0.6,0,0.7,0.1,1.1,0.3C199.8,158.9,200,158.9,200.4,159C200.4,159,200.4,159,200.4,159
		C200.4,159,200.4,159,200.4,159C200.4,159,200.4,159,200.4,159C200.4,159,200.4,159,200.4,159C200.4,159,200.4,159,200.4,159
		L200.4,159z"/>
	<path fill="#2F6C36" d="M206.3,148.9c-0.5,0.1-0.7,0-1,0c-0.2-0.4-0.3-0.5-0.6-0.5c0,0,0,0,0,0c-0.4,0.1-0.9-0.1-1-0.1
		c0.1-0.1,0.2-0.3,0.3-0.4c0.1,0,0.5,0.2,0.8,0.1c0.6,0,0.7,0.2,0.9,0.7c0.1-0.1,0.2,0,0.6-0.1c0.5,0,0.6,0.1,0.8,0.2
		c-0.3,0-0.5,0-0.8,0C206.3,148.7,206.3,148.8,206.3,148.9L206.3,148.9z"/>
	<path fill="#2F6C36" d="M202.4,153.2c-0.5,0.1-1,0.1-1.2,0.1c0-0.2,0-0.3,0-0.5c0.2,0,0.9-0.1,1.4-0.1c0.1-0.1,0.3-0.3,0.5-0.4
		c0.8-0.3,1-0.2,1.3-0.2c0.4,0.1,0.8,0.2,1.1,0.2c-0.3,0.1-0.5,0.2-0.8,0.3c-0.2,0-0.4,0-0.6,0c-0.3-0.1-0.4-0.1-0.8,0
		c-0.3,0.2-0.5,0.3-0.7,0.5C202.6,153.2,202.5,153.2,202.4,153.2L202.4,153.2z"/>
	<path fill="#2F6C36" d="M205,151.5c-0.1-0.1-0.1-0.3-0.2-0.4c0.1-0.1,0.4-0.3,0.7-0.4c0.2-0.2,0.6-0.4,0.8-0.4
		c0.3-0.1,0.5-0.1,0.8-0.2c0.2,0.1,0.3,0.2,0.5,0.3c-0.2,0-0.3-0.1-0.5-0.1c-0.2,0.1-0.3,0.2-0.5,0.3c-0.4,0.2-0.7,0.3-0.9,0.4
		C205.4,151.2,205.1,151.3,205,151.5L205,151.5z"/>
	<path fill="#2F6C36" d="M213.3,152.5c-0.2,0-0.4,0.1-0.7,0.1c-0.5-0.2-0.8-0.3-1.1-0.4c-0.2,0-0.4-0.2-0.7-0.4
		c-0.6-0.3-0.8-0.5-1.1-0.8c-0.2-0.4-0.3-0.7-0.4-1.2c0.1-0.2,0.2-0.3,0.3-0.5c0,0,0,0.1,0,0.1c0.3,0.6,0.4,0.9,0.5,1.3
		c0.2,0.3,0.4,0.4,0.7,0.5c0.5,0.3,0.7,0.4,0.9,0.4c0.3,0.2,0.6,0.3,0.9,0.4c0.2,0,0.4-0.1,0.6-0.1c0.2,0.1,0.3,0.1,0.5,0.2
		C213.7,152.3,213.5,152.4,213.3,152.5L213.3,152.5z"/>
	<path fill="#2F6C36" d="M211.7,147.9c0.3-0.7,0.4-0.7,0.7-1.1c0.3-0.2,0.5-0.5,0.7-0.7c-0.1,0-0.1-0.1-0.2-0.1
		c0.1-0.4,0.3-0.7,0.8-1c0-0.2,0.2-0.4,0.3-0.6c0.1-0.2,0.2-0.4,0.3-0.6c0.1,0.1,0.1,0.2,0.2,0.3c-0.2,0.7-0.4,1-0.6,1.3
		c-0.5,0.2-0.6,0.4-0.7,0.8c-0.2,0.3-0.4,0.6-0.6,0.9C212.4,147.5,212.2,147.7,211.7,147.9L211.7,147.9z"/>
	<path fill="#2F6C36" d="M218.1,148.4c-0.1,0-0.2,0-0.3,0c-0.1,0-0.2-0.2-0.2-0.3c0,0,0,0,0,0c0,0,0,0-0.1-0.1c0,0.1,0,0.1,0.1,0.1
		c-0.2-0.5-0.2-0.8-0.2-1.1c0.1-0.5,0.1-0.9,0.3-1.2c0.2-0.2,0.4-0.3,0.7-0.5c0,0.1-0.1,0.1-0.1,0.2c-0.4,0.7-0.4,1-0.5,1.4
		c0,0.3,0,0.7,0.1,0.9c0.2,0.3,0.3,0.4,0.7,0.5c0,0,0,0,0,0c0,0,0.1,0,0.1,0C218.4,148.3,218.2,148.4,218.1,148.4L218.1,148.4z"/>
	<path fill="#2F6C36" d="M222.7,149c-0.1,0-0.2,0-0.4,0.1c-0.3,0-0.5,0.1-0.8,0.1c0.3-0.2,0.6-0.4,0.8-0.6c0.5,0,0.6,0,1-0.2
		c0.2-0.1,0.4-0.4,0.6-0.6c0.3-0.2,0.5-0.3,0.8-0.5c-0.1-0.1-0.1-0.1-0.2-0.1c0.2,0.1,0.3,0.1,0.5,0.2c-0.2,0.2-0.4,0.3-0.6,0.5
		c-0.5,0.6-0.7,0.7-0.9,0.9C223.2,148.9,223,149,222.7,149L222.7,149z"/>
	<path fill="#2F6C36" d="M224.9,154.1c-0.2,0-0.4,0-0.5,0c-0.4-0.2-0.7-0.3-1-0.5c0.5-0.2,0.8-0.1,1.1,0c0.4,0.1,0.8,0,1.2-0.1
		c0.2,0,0.4,0,0.6,0c0,0.1,0,0.1-0.1,0.2c0-0.1,0-0.1,0-0.2c0,0.1-0.1,0.2-0.1,0.2C225.6,154,225.2,154.1,224.9,154.1
		C224.9,154.1,224.9,154.1,224.9,154.1z"/>
	<path fill="#2F6C36" d="M222.7,156.6C222.7,156.6,222.7,156.5,222.7,156.6c-0.6-0.3-0.7-0.4-1-0.5c-0.7-0.5-0.7-0.6-0.8-1.1
		c-0.1-0.5-0.2-0.9,0-1.1c0.1,0.2,0.2,0.5,0.4,0.7c0.2,0.6,0.2,0.8,0.6,1c0.5,0.3,0.7,0.3,0.8,0.5c0.2,0.1,0.3,0.2,0.5,0.4
		C223,156.5,222.8,156.5,222.7,156.6L222.7,156.6z"/>
	<path fill="#2F6C36" d="M216.1,156.3c0-0.2,0-0.3,0-0.5c0.2,0,0.9-0.1,1.2-0.3c0.2-0.1,0.4-0.2,0.7-0.4c0.3-0.5,0.4-0.7,0.4-1
		c0.5,0.4,0.4,0.6,0.3,0.9c-0.1,0.2-0.3,0.4-0.5,0.6c-0.3,0.2-0.5,0.2-0.7,0.4C217,156.2,216.3,156.3,216.1,156.3L216.1,156.3z"/>
	<path fill="#2F6C36" d="M198.2,158.9c-0.2,0-0.3,0-0.4,0c0-0.2,0.1-0.3,0.1-0.5c0.1,0,0.4-0.1,0.7-0.1c0.4-0.3,0.8-0.4,1.2-0.5
		c0.2-0.1,0.4-0.2,0.6-0.3c0.2-0.2,0.3-0.3,0.4-0.6c0.2-0.2,0.4-0.4,0.6-0.6c-0.1,0.2-0.1,0.5-0.2,0.7c-0.2,0.3-0.3,0.5-0.7,0.8
		c-0.3,0.1-0.6,0.3-0.8,0.4c-0.4,0.1-0.8,0.2-1.1,0.4C198.6,158.8,198.4,158.9,198.2,158.9L198.2,158.9z"/>
	<path fill="#2F6C36" d="M205.2,154.2c-0.1-0.1-0.1-0.3-0.2-0.4c0,0.1,0,0.1,0.1,0.2c0-0.1,0-0.1-0.1-0.2c0.4-0.1,0.6-0.3,0.9-0.3
		c0.1-0.1,0.3-0.2,0.6-0.4c0.3,0,0.5,0,0.8,0.1c-0.2,0.1-0.4,0.3-0.6,0.4c-0.2,0.1-0.5,0.2-0.6,0.3
		C205.8,153.9,205.6,154,205.2,154.2L205.2,154.2z"/>
	<path fill="#2F6C36" d="M194.4,158.9c-0.2,0-0.3-0.1-0.5-0.1c0-0.1,0-0.2,0-0.2c0,0.1,0,0.2,0,0.2c0-0.1,0.1-0.2,0.1-0.3
		c0.7-0.2,1-0.3,1.3-0.5c0.6-0.4,0.9-0.7,1.3-0.9c-0.1,0.6-0.4,0.8-0.7,1.2C195.2,158.7,194.9,158.8,194.4,158.9L194.4,158.9z"/>
	<path fill="#2F6C36" d="M221.7,152c-0.4,0.1-0.6,0-0.9-0.1c-0.4-0.2-0.5-0.2-0.9-0.3c-0.3,0-0.5,0-0.6-0.1c-0.7,0-1.1-0.1-1.4-0.1
		c-0.2-0.1-0.4-0.2-0.6-0.4c0.1-0.1,0.2-0.2,0.4-0.3c0.7,0.2,1,0.3,1.3,0.2c0.6,0.1,0.8,0.2,1.1,0.1c0.5,0.1,0.7,0.1,1,0.4
		c0.2,0.1,0.4,0.1,0.8,0c0.1-0.1,0.6-0.4,0.9-0.5c-0.1,0.5-0.5,0.7-0.8,1C221.9,152,221.7,152,221.7,152L221.7,152z"/>
	<path fill="#010101" d="M209.3,184.6c-0.5-0.3-0.5-0.8-0.6-1.1c0-0.9,0-1.3-0.1-1.7c-0.2-0.3-0.1-0.6-0.1-0.9
		c0.3-0.8,0.6-1.3,0.8-1.7c0.1-0.4,0.2-0.9,0.2-1.4c0.1-0.4,0.1-0.8,0.2-1.1c0-0.4,0.1-0.8,0.2-1.2c0-0.4,0.1-0.7,0.1-1.1
		c0-0.2,0-0.5,0.1-0.7c0.2-0.4,0.2-0.8,0.2-1.4c0.2-0.6,0.3-1.1,0.3-1.8c0-0.6,0-1.2,0-1.9c0.2,0,0.3,0,0.5-0.1c0,0.6,0,1.2,0,1.9
		c0,0.7-0.1,1.3-0.3,1.8c0,0.6,0,1.1-0.3,1.7c0,0.8-0.1,1.1-0.1,1.5c-0.1,0.5-0.2,0.7-0.2,1.2c0,0.2,0,0.4,0,0.6
		c-0.1,1-0.2,1.4-0.2,1.8c-0.3,0.6-0.6,1.2-0.9,1.5c0,0.6-0.1,0.7,0.1,0.9c0.2,0.5,0.1,1,0.1,1.4
		C209.3,183.7,209.3,184.2,209.3,184.6L209.3,184.6z"/>
	<path fill="#010101" d="M211.7,183.9c-0.6,0-0.6-0.2-0.6-0.5c-0.1-0.2-0.1-0.4-0.3-0.5c-0.1-0.2-0.2-0.3-0.3-0.7
		c0-0.9,0-1.4,0.1-1.8c0.1-0.6,0.2-1.1,0.3-1.7c0.4-0.6,0.5-0.9,0.5-1.6c0-0.6-0.1-1.1-0.1-1.7c0-0.9,0-1.8,0-2.7
		c-0.1-0.4-0.2-0.9-0.2-1.3c0.1-0.1,0.3-0.3,0.4-0.4c-0.1,0-0.2,0.1-0.2,0.1c0.1,0.1,0.2,0.1,0.3,0.2c0.1,0.4,0.2,1,0.2,1.4
		c0,0.9,0,1.8,0,2.7c0,0.6,0,1.1,0.1,1.7c0,0.8-0.2,1.2-0.6,1.8c-0.1,0.5-0.2,1.1-0.2,1.6c-0.1,0.5-0.1,0.9-0.1,1.4
		c0.1,0.5,0.2,0.6,0.3,0.8c0.1,0.1,0.2,0.4,0.2,0.7C211.6,183.6,211.7,183.8,211.7,183.9L211.7,183.9z"/>
	<path fill="#010101" d="M213.6,183.6c-0.1-0.1-0.2-0.2-0.2-0.3c-0.1-0.3-0.1-0.4-0.3-0.6c-0.1-0.2-0.2-0.3-0.3-0.5
		c-0.1,0-0.3-0.2-0.5-0.4c-0.2-0.1-0.4-0.3-0.5-0.4c-0.1-0.8,0.1-1.3,0.3-1.8c0.3-0.3,0.4-0.6,0.5-1.2c0-0.2-0.1-0.4-0.1-0.7
		c-0.1-0.3-0.1-0.5-0.1-0.9c-0.1-0.2-0.2-1-0.2-1.6c0.2,0,0.3,0,0.5-0.1l0,0c0,0.9,0.1,1.4,0.1,1.5c0.1,0.4,0.1,0.7,0.1,0.9
		c0.1,0.3,0.1,0.5,0.1,0.8c-0.1,0.6-0.2,1.1-0.6,1.4c-0.2,0.3-0.3,0.8-0.3,1.3c0.1-0.1,0.3,0.1,0.5,0.4c0.2,0.2,0.3,0.3,0.4,0.4
		c0.1,0.1,0.2,0.3,0.4,0.4c0.2,0.2,0.3,0.4,0.4,0.8C213.8,183.3,213.7,183.5,213.6,183.6L213.6,183.6z"/>
	<path fill="#F4CF2E" d="M215.4,131.4c-0.5-0.6-0.9-1.3-1.4-1.9c-0.9,0.1-1.8,0.2-2.7,0.3c0.4-0.8,0.9-1.5,1.3-2.3
		c-0.4-0.7-0.9-1.3-1.3-2c0.9-0.2,1.8-0.3,2.7-0.5c0.5-0.7,0.9-1.5,1.4-2.2c0.5,0.6,0.9,1.2,1.4,1.9c0.9-0.1,1.8-0.2,2.7-0.2
		c-0.4,0.8-0.9,1.5-1.3,2.3c0.4,0.6,0.9,1.3,1.3,1.9c-0.9,0.1-1.8,0.3-2.7,0.4C216.3,129.9,215.8,130.7,215.4,131.4z"/>
	<path fill="#010101" d="M215.4,131.7c-0.5-0.7-1.1-1.4-1.6-2.1c-0.8,0.1-1.6,0.2-2.5,0.3c0.3-0.9,0.7-1.8,1-2.6
		c-0.4-0.6-0.8-1.1-1.2-1.7c1-0.3,1.9-0.6,2.9-0.9c0.4-0.7,0.8-1.4,1.2-2.1c0.6,0.6,1.2,1.2,1.8,1.9c0.8-0.1,1.7-0.3,2.5-0.4
		c-0.4,0.9-0.7,1.8-1.1,2.7c0.4,0.6,0.8,1.1,1.2,1.7c-0.9,0.3-1.9,0.6-2.8,0.8C216.3,130.1,215.8,130.9,215.4,131.7
		C215.4,131.7,215.4,131.7,215.4,131.7z M214,129.2c0.5,0.6,0.9,1.2,1.4,1.8c0.4-0.7,0.8-1.3,1.2-2c1-0.2,1.9-0.4,2.9-0.6
		c-0.5-0.5-1-1-1.4-1.5c0.4-0.9,0.8-1.7,1.2-2.6c-0.8,0.2-1.6,0.4-2.5,0.7c-0.5-0.7-1.1-1.3-1.6-2c-0.3,0.7-0.7,1.5-1,2.2
		c-0.9,0.2-1.9,0.4-2.8,0.6c0.5,0.5,0.9,1,1.4,1.5c-0.4,0.9-0.8,1.7-1.2,2.6C212.3,129.7,213.2,129.4,214,129.2L214,129.2z"/>
	<path fill="#F4CF2E" d="M204.5,132.9c-0.5-0.6-1-1.3-1.4-1.9c-0.9,0.1-1.8,0.2-2.7,0.3c0.4-0.8,0.8-1.5,1.3-2.3
		c-0.4-0.7-0.8-1.3-1.3-2c0.9-0.2,1.8-0.3,2.7-0.5c0.5-0.7,1-1.5,1.4-2.2c0.5,0.6,0.9,1.2,1.4,1.9c0.9-0.1,1.8-0.1,2.7-0.2
		c-0.4,0.8-0.8,1.5-1.3,2.3c0.4,0.6,0.8,1.3,1.3,1.9c-0.9,0.1-1.8,0.3-2.7,0.4C205.4,131.3,205,132.1,204.5,132.9z"/>
	<path fill="#010101" d="M204.5,133.2c-0.6-0.7-1.1-1.4-1.7-2.1c-0.8,0.1-1.6,0.2-2.4,0.3c0.3-0.9,0.7-1.8,1-2.6
		c-0.4-0.6-0.8-1.1-1.2-1.7c0.9-0.3,1.9-0.6,2.8-0.9c0.4-0.7,0.8-1.4,1.2-2.1c0.6,0.6,1.2,1.3,1.8,1.9c0.8-0.1,1.6-0.2,2.5-0.4
		c-0.4,0.9-0.7,1.8-1.1,2.7c0.4,0.6,0.8,1.1,1.3,1.7c-0.9,0.3-1.9,0.6-2.9,0.8C205.4,131.6,205,132.4,204.5,133.2L204.5,133.2z
		 M203.1,130.7c0.5,0.6,0.9,1.2,1.4,1.8c0.4-0.7,0.8-1.3,1.2-2c0.9-0.2,1.9-0.4,2.9-0.6c-0.5-0.5-1-1-1.5-1.5
		c0.4-0.9,0.8-1.7,1.2-2.6c-0.8,0.2-1.6,0.4-2.4,0.6c-0.5-0.7-1.1-1.3-1.6-2c-0.3,0.7-0.7,1.5-1,2.2c-0.9,0.2-1.9,0.4-2.8,0.5
		c0.5,0.5,1,1,1.5,1.5c-0.4,0.9-0.8,1.7-1.3,2.6C201.4,131.1,202.3,130.9,203.1,130.7L203.1,130.7z"/>
	<path fill="#F4CF2E" d="M195.1,135.9c-0.6-0.5-1.1-1.1-1.7-1.6c-0.9,0.2-1.8,0.4-2.7,0.5c0.3-0.8,0.6-1.6,0.9-2.4
		c-0.5-0.6-1-1.2-1.5-1.8c0.9-0.3,1.7-0.5,2.6-0.8c0.4-0.8,0.7-1.5,1.1-2.3c0.6,0.6,1.1,1.1,1.7,1.7c0.9-0.2,1.8-0.4,2.6-0.6
		c-0.3,0.8-0.6,1.6-0.9,2.4c0.5,0.6,1,1.2,1.6,1.8c-0.9,0.2-1.8,0.5-2.7,0.7C195.8,134.3,195.5,135.1,195.1,135.9z"/>
	<path fill="#010101" d="M195.2,136.3c-0.7-0.6-1.3-1.3-2-1.9c-0.8,0.2-1.6,0.3-2.4,0.5c0.2-0.9,0.4-1.7,0.7-2.6
		c-0.5-0.5-1-1.1-1.5-1.6c1-0.4,1.9-0.8,2.9-1.1c0.3-0.7,0.6-1.4,0.9-2.2c0.7,0.5,1.4,1.1,2,1.6c0.8-0.2,1.7-0.4,2.5-0.7
		c-0.2,0.9-0.5,1.8-0.7,2.7c0.5,0.5,1,1,1.5,1.6c-0.9,0.4-1.8,0.7-2.7,1.1C195.9,134.6,195.5,135.5,195.2,136.3L195.2,136.3z
		 M193.4,134c0.6,0.5,1.1,1,1.7,1.5c0.3-0.7,0.6-1.3,0.9-2c0.9-0.3,1.9-0.6,2.8-0.9c-0.6-0.5-1.1-0.9-1.7-1.4
		c0.3-0.9,0.6-1.7,0.9-2.6c-0.8,0.3-1.6,0.5-2.4,0.8c-0.6-0.6-1.2-1.1-1.9-1.7c-0.3,0.8-0.5,1.5-0.7,2.3c-0.9,0.3-1.9,0.6-2.8,0.8
		c0.6,0.5,1.1,0.9,1.7,1.4c-0.3,0.9-0.6,1.7-0.9,2.6C191.8,134.5,192.6,134.2,193.4,134L193.4,134z"/>
	<path fill="#F4CF2E" d="M225.6,131.6c0.6-0.7,1.1-1.4,1.7-2.1c0.9,0,1.8-0.1,2.6-0.1c-0.3-0.7-0.6-1.4-0.9-2.2
		c0.5-0.7,1-1.5,1.6-2.2c-0.9,0-1.8-0.1-2.6-0.1c-0.4-0.7-0.7-1.3-1.1-2c-0.6,0.7-1.1,1.4-1.7,2.1c-0.9,0-1.8,0.1-2.7,0.1
		c0.3,0.7,0.6,1.5,0.9,2.2c-0.5,0.7-1,1.4-1.5,2.1c0.9,0,1.7,0.1,2.6,0.1C224.9,130.2,225.3,130.9,225.6,131.6z"/>
	<path fill="#010101" d="M225.5,131.9c-0.4-0.8-0.8-1.5-1.2-2.3c-0.8,0-1.6,0-2.4,0.1c0.5-0.9,0.9-1.7,1.4-2.6
		c-0.3-0.6-0.6-1.3-0.9-1.9c1-0.2,1.9-0.3,2.9-0.5c0.5-0.7,1-1.3,1.5-2c0.5,0.7,1,1.4,1.5,2c0.8,0,1.6-0.1,2.5-0.1
		c-0.5,0.9-1,1.7-1.4,2.6c0.3,0.6,0.7,1.3,1,1.9c-1,0.2-1.9,0.3-2.9,0.5C226.7,130.4,226.1,131.2,225.5,131.9L225.5,131.9z
		 M222.5,125.4c0.4,0.6,0.8,1.2,1.2,1.8c-0.5,0.8-1,1.6-1.6,2.4c0.8-0.1,1.6-0.2,2.4-0.3c0.4,0.6,0.7,1.2,1.1,1.8
		c0.5-0.6,1-1.2,1.5-1.8c0.9-0.1,1.9-0.1,2.8-0.2c-0.4-0.6-0.8-1.2-1.1-1.8c0.5-0.8,1-1.6,1.5-2.5c-0.8,0.1-1.6,0.2-2.5,0.3
		c-0.4-0.7-0.8-1.4-1.3-2.2c-0.4,0.7-0.9,1.4-1.3,2.1C224.4,125.2,223.4,125.3,222.5,125.4L222.5,125.4z"/>
	<path fill="#F4CF2E" d="M234.4,134.4c0.7-0.6,1.4-1.2,2.1-1.9c0.8,0.1,1.7,0.3,2.5,0.4c-0.1-0.8-0.3-1.6-0.4-2.3
		c0.7-0.6,1.3-1.3,2-1.9c-0.8-0.2-1.7-0.4-2.5-0.5c-0.2-0.8-0.4-1.6-0.6-2.3c-0.7,0.6-1.4,1.3-2.1,1.9c-0.8-0.1-1.7-0.3-2.5-0.4
		c0.1,0.8,0.3,1.6,0.4,2.4c-0.7,0.7-1.3,1.3-2,2c0.8,0.2,1.7,0.3,2.5,0.5C234,132.9,234.2,133.7,234.4,134.4z"/>
	<path fill="#010101" d="M234.3,134.8c-0.2-0.9-0.5-1.7-0.7-2.6c-0.8-0.1-1.5-0.3-2.3-0.4c0.6-0.8,1.3-1.6,1.9-2.3
		c-0.2-0.7-0.3-1.4-0.5-2.1c0.9,0,1.9,0,2.8,0.1c0.6-0.6,1.3-1.2,1.9-1.7c0.3,0.8,0.6,1.6,0.9,2.4c0.8,0.1,1.6,0.2,2.3,0.3
		c-0.6,0.8-1.3,1.6-1.9,2.3c0.2,0.7,0.3,1.4,0.5,2.1c-0.9,0-1.9,0-2.8,0C235.7,133.5,235,134.1,234.3,134.8L234.3,134.8z
		 M232.8,127.6c0.2,0.7,0.4,1.4,0.7,2c-0.7,0.7-1.3,1.4-2,2.1c0.8,0.1,1.6,0.2,2.4,0.2c0.2,0.7,0.4,1.4,0.7,2.1
		c0.6-0.5,1.2-1.1,1.8-1.6c0.9,0.1,1.8,0.2,2.8,0.3c-0.2-0.7-0.5-1.4-0.7-2c0.7-0.7,1.4-1.5,2-2.2c-0.8,0-1.6-0.1-2.4-0.1
		c-0.3-0.8-0.5-1.7-0.8-2.5c-0.6,0.6-1.1,1.3-1.7,1.9C234.6,127.8,233.7,127.7,232.8,127.6C232.8,127.6,232.8,127.6,232.8,127.6z"/>
	<path fill="#F4CF2E" d="M186.1,140.3c-0.7-0.4-1.4-0.9-2.1-1.3c-0.8,0.4-1.7,0.7-2.5,1.1c0.1-0.8,0.3-1.6,0.4-2.5
		c-0.7-0.5-1.3-1-2-1.5c0.8-0.4,1.6-0.7,2.5-1.1c0.2-0.8,0.4-1.7,0.6-2.5c0.7,0.4,1.4,0.9,2,1.3c0.8-0.3,1.7-0.7,2.5-1
		c-0.1,0.8-0.3,1.7-0.4,2.5c0.7,0.4,1.3,0.9,2,1.3c-0.8,0.4-1.6,0.8-2.5,1.3C186.5,138.7,186.3,139.5,186.1,140.3z"/>
	<path fill="#010101" d="M186.2,140.6c-0.8-0.5-1.6-1-2.4-1.5c-0.8,0.3-1.5,0.7-2.3,1c0-0.9,0.1-1.8,0.1-2.7
		c-0.6-0.4-1.2-0.8-1.9-1.2c0.8-0.5,1.7-1,2.5-1.5c0.1-0.8,0.3-1.5,0.4-2.3c0.8,0.4,1.6,0.7,2.5,1c0.8-0.3,1.6-0.7,2.4-1
		c0,0.9-0.1,1.8-0.1,2.7c0.6,0.4,1.2,0.8,1.9,1.2c-0.9,0.5-1.7,1.1-2.6,1.6C186.6,138.9,186.4,139.8,186.2,140.6L186.2,140.6z
		 M183.9,138.7c0.7,0.4,1.4,0.7,2,1.1c0.2-0.7,0.3-1.4,0.5-2.1c0.9-0.4,1.8-0.9,2.7-1.3c-0.7-0.3-1.4-0.7-2.1-1
		c0.1-0.9,0.3-1.8,0.4-2.7c-0.8,0.4-1.5,0.9-2.3,1.3c-0.8-0.4-1.5-0.9-2.3-1.3c-0.1,0.8-0.1,1.5-0.2,2.3c-0.9,0.4-1.8,0.8-2.7,1.2
		c0.7,0.3,1.3,0.7,2,1c-0.1,0.9-0.2,1.8-0.4,2.7C182.4,139.6,183.1,139.2,183.9,138.7L183.9,138.7z"/>
</g>
</svg>
