<svg version="1.1" id="grc" name="greece" xmlns="http://www.w3.org/2000/svg" xmlns:xlink="http://www.w3.org/1999/xlink" x="0px" y="0px"
	 viewBox="0 0 480 320" enable-background="new 0 0 480 320" xml:space="preserve">
<g id="flag-grc">
	<path fill="#2E2C73" d="M0,300c160,44.8,320-44.8,480,0c0-10.4,0-20.8,0-31.1c-160-44.8-320,44.8-480,0C0,279.3,0,289.6,0,300z"/>
	<path fill="#FFFFFF" d="M0,268.9c160,44.8,320-44.8,480,0c0-10.4,0-20.7,0-31.1c-160-44.8-320,44.8-480,0C0,248.1,0,258.5,0,268.9z
		"/>
	<path fill="#2E2C73" d="M0,237.8c160,44.8,320-44.8,480,0c0-10.4,0-20.7,0-31.1c-160-44.8-320,44.8-480,0C0,217,0,227.4,0,237.8z"
		/>
	<path fill="#FFFFFF" d="M0,206.6c160,44.8,320-44.8,480,0c0-10.4,0-20.7,0-31.1c-160-44.8-320,44.8-480,0C0,185.9,0,196.3,0,206.6z
		"/>
	<path fill="#2E2C73" d="M0,175.5c160,44.8,320-44.8,480,0c0-10.4,0-20.7,0-31.1c-160-44.8-320,44.8-480,0C0,154.8,0,165.2,0,175.5z
		"/>
	<path fill="#FFFFFF" d="M0,144.4c160,44.8,320-44.8,480,0c0-10.4,0-20.7,0-31.1c-160-44.8-320,44.8-480,0C0,123.7,0,134,0,144.4z"
		/>
	<path fill="#2E2C73" d="M0,113.3c160,44.8,320-44.8,480,0c0-10.4,0-20.7,0-31.1C320,37.4,160,127,0,82.2C0,92.6,0,102.9,0,113.3z"
		/>
	<path fill="#FFFFFF" d="M0,82.2c160,44.8,320-44.8,480,0c0-10.4,0-20.8,0-31.1C320,6.3,160,95.9,0,51.1C0,61.4,0,71.8,0,82.2z"/>
	<path fill="#2E2C73" d="M0,51.1c160,44.8,320-44.8,480,0c0-10.4,0-20.7,0-31.1C320-24.8,160,64.8,0,20C0,30.3,0,40.7,0,51.1z"/>
	<path fill="#2E2C73" d="M0,175.5c51.9,14.5,103.7,14.9,155.6,10.4c0-51.8,0-103.7,0-155.5C103.7,34.9,51.9,34.5,0,20
		C0,71.8,0,123.7,0,175.5z"/>
	<path fill="#FFFFFF" d="M0,113.3c51.9,14.5,103.7,14.9,155.6,10.4c0-10.4,0-20.7,0-31.1C103.7,97.1,51.9,96.7,0,82.2
		C0,92.6,0,102.9,0,113.3z"/>
	<path fill="#FFFFFF" d="M62.2,31.2c10.4,0.9,20.7,1.5,31.1,1.6c0,51.8,0,103.7,0,155.5c-10.4-0.2-20.7-0.7-31.1-1.6
		C62.2,134.9,62.2,83.1,62.2,31.2z"/>
</g>
</svg>
