<svg version="1.1" id="guy" name="guyana" xmlns="http://www.w3.org/2000/svg" xmlns:xlink="http://www.w3.org/1999/xlink" x="0px" y="0px"
	 viewBox="0 0 480 320" enable-background="new 0 0 480 320" xml:space="preserve">
<g id="flag-guy">
	<path fill="#419D49" d="M0,300c160,44.8,320-44.8,480,0c0-93.3,0-186.7,0-280C320-24.8,160,64.8,0,20C0,113.3,0,206.7,0,300z"/>
	<path fill="#FFFFFF" d="M0,20c0,93.3,0,186.7,0,280c160-1.9,320-138.1,480-140C320,68.5,160,111.5,0,20z"/>
	<path fill="#F4D130" d="M0,287.8c146.1-1.7,292.1-115.4,438.2-136.6C292.1,87.2,146.1,115.7,0,32.2C0,117.4,0,202.6,0,287.8z"/>
	<path fill="#010101" d="M0,20c0,93.3,0,186.7,0,280c80-24.3,160-82.1,240-140C160,124.5,80,89.1,0,20z"/>
	<path fill="#BC2035" d="M0,283.7c70.7-21.4,141.4-69.1,212-119.8C141.4,132.1,70.7,97.3,0,36.3C0,118.8,0,201.2,0,283.7z"/>
</g>
</svg>
