<svg version="1.1" id="hrv" name="croatia" xmlns="http://www.w3.org/2000/svg" xmlns:xlink="http://www.w3.org/1999/xlink" x="0px" y="0px"
	 viewBox="0 0 480 320" enable-background="new 0 0 480 320" xml:space="preserve">
<path fill="#FFFFFF" d="M0,206.6c160,44.8,320-44.8,480,0c0-31.1,0-62.2,0-93.4c-160-44.8-320,44.8-480,0C0,144.4,0,175.5,0,206.6z"
	/>
<path fill="#2B3580" d="M0,300c160,44.8,320-44.8,480,0c0-31.1,0-62.2,0-93.4c-160-44.8-320,44.8-480,0C0,237.8,0,268.9,0,300z"/>
<path fill="#CA212C" d="M0,113.3c160,44.8,320-44.8,480,0c0-31.1,0-62.2,0-93.3C320-24.8,160,64.8,0,20C0,51.1,0,82.2,0,113.3z"/>
<g id="crest">
	<path fill="#CA212C" d="M295.8,105.2c-0.1,0-0.2,0-0.3-0.1c-17.7-4.3-36.5-4.9-55.8-2.2c-19,2.7-37.9,8.6-55.2,16.7
		c-4.8-8.8-9.6-17.7-14.4-26.6c3.1-6.1,6.3-12.2,9.4-18.4c6.1,1.8,12.1,3.5,18.2,5.2c3.8-5.1,7.5-10.3,11.3-15.4
		c5.6,2.4,11.1,4.7,16.7,7c4.5-4.3,8.9-8.6,13.4-12.9c5.1,3,10.1,6.1,15.2,9.1c5.1-3.9,10.2-7.7,15.3-11.6
		c5.2,4.6,12.4,11.5,12.8,11.8c0.2-0.2,12.6-6.9,17.3-9.4c3.4,5.4,6.9,10.8,10.3,16.2C305.2,84.9,300.5,95,295.8,105.2L295.8,105.2z
		 M179.7,75.2c-3,5.9-6,11.9-9,17.8c4.6,8.7,9.3,17.4,13.9,26.1c16.8-8.3,35.9-14.3,54.6-16.9c19.7-2.8,38.5-2.2,56.2,2
		c4.6-9.8,9.2-19.6,13.8-29.4c-3.3-5.2-6.5-10.4-9.8-15.6c-17.1,9.4-17.2,9.5-17.3,9.5c-0.2,0-0.3,0-12.6-11.9
		c-5.1,3.9-10.1,7.8-15.2,11.6c-5.1-3.1-10.1-6.1-15.2-9.2c-4.4,4.3-8.9,8.6-13.3,12.9c-5.6-2.3-11.1-4.7-16.7-7.1
		c-3.8,5.1-7.5,10.3-11.3,15.4C191.8,78.8,185.8,77,179.7,75.2L179.7,75.2z"/>
	<path fill="#3B7AA0" d="M273.9,99.5c2.7-9.8,5.4-19.6,8-29.3c5.7-3,11.4-6.1,17.1-9c3,4.7,6,9.4,9,14.2c-4.3,9.3-8.6,18.6-13,28
		C287.7,101.2,283.7,100.4,273.9,99.5L273.9,99.5z"/>
	<path fill="#5371B6" d="M295.2,103.4c0,0-0.1,0-0.1,0c-7.3-2.1-11.2-2.9-21.1-3.8c2.6-9.8,5.3-19.6,7.9-29.4
		c5.7-3.1,11.4-6.1,17.2-9.1c3.1,4.7,6.1,9.5,9.2,14.2C303.9,84.6,299.5,94,295.2,103.4L295.2,103.4z M299,61.2
		c-5.7,3-11.3,6-17,9.1c-2.6,9.7-5.3,19.5-7.9,29.2c9.9,0.8,13.8,1.6,21,3.7c4.3-9.3,8.6-18.6,12.9-27.8C305,70.6,302,65.9,299,61.2
		L299,61.2z"/>
	<path fill="#3B7AA0" d="M228.8,102.6c-0.9-9.6-1.8-19.3-2.7-28.9c4.5-4.2,9.1-8.5,13.6-12.7c4.7,2.9,9.5,5.9,14.2,8.8
		c-0.9,9.9-1.7,19.8-2.5,29.7C243.6,100.2,238,101,228.8,102.6L228.8,102.6z"/>
	<path fill="#5371B6" d="M251.5,99.6c0,0-0.1,0-0.1,0c-7.8,0.7-13.4,1.5-22.6,3.2c-0.9-9.7-1.9-19.3-2.8-29
		c4.5-4.3,9.1-8.6,13.6-12.8c4.8,2.9,9.6,5.9,14.4,8.8C253.2,79.7,252.4,89.6,251.5,99.6L251.5,99.6z M239.6,61.1
		c-4.5,4.2-9,8.5-13.5,12.7c0.9,9.6,1.8,19.2,2.7,28.8c8.9-1.8,14.6-2.5,22.4-3.2c0.8-9.9,1.7-19.7,2.5-29.6
		C249.1,66.9,244.4,64,239.6,61.1C239.6,61.1,239.6,61.1,239.6,61.1z"/>
	<path fill="#3B7AA0" d="M185.1,117.9c-4.2-8.4-8.5-16.9-12.7-25.4c2.8-5.3,5.6-10.5,8.5-15.8c5.9,1.9,11.7,3.7,17.6,5.5
		c2.5,8.9,5,17.8,7.5,26.8C197.7,111.6,193.6,113.5,185.1,117.9L185.1,117.9z"/>
	<path fill="#5371B6" d="M185,118c-4.3-8.5-8.5-17-12.8-25.5c2.8-5.3,5.6-10.5,8.5-15.8c5.9,1.9,11.8,3.7,17.7,5.5
		c2.5,8.9,5,17.9,7.5,26.8C197.7,111.8,193.3,113.8,185,118C185.1,117.9,185,118,185,118L185,118z M180.8,76.8
		c-2.8,5.3-5.6,10.5-8.4,15.7c4.2,8.4,8.4,16.8,12.6,25.2c8.2-4.2,12.6-6.2,20.7-8.9c-2.5-8.9-5-17.7-7.5-26.6
		C192.4,80.5,186.6,78.6,180.8,76.8L180.8,76.8z"/>
	<path fill="#FFFFFF" d="M182.3,104.6c3.9,0,6.6-0.5,10-2.1c3.9-2.4,5.2-4.7,6.4-6.6c0.9,3.3,0.6,6.5-4,9.7
		C190.8,108.3,185,108.3,182.3,104.6L182.3,104.6z"/>
	<path fill="#FFFFFF" d="M189.8,107.6c-3.2,0.4-6-0.6-7.6-2.8c1.3-0.1,2.3-0.2,3.3-0.3c2.4-0.3,4.4-0.8,6.8-1.9
		c3.7-2.2,5-4.3,6.2-6.1l0,0c-1.1,2.1-2.5,4.2-6.1,6.3c-3.4,1.5-6.1,2.1-10,2.1c2.5,3.1,8.3,3.5,12.4,0.9c3.7-2.6,4.4-5.2,4.3-7.5
		c0.4,2.2-0.4,4.9-4.2,7.6C193.4,106.7,191.7,107.3,189.8,107.6L189.8,107.6z"/>
	<path fill="#F2EB37" d="M243.5,75.8c-0.3,0.1-0.5,0.2-0.8,0.3c0,0.5,0,0.9,0,1.4c-0.3,0.1-0.7,0.2-1,0.3c-0.2,0.4-0.4,0.9-0.6,1.3
		c0.1,0.1,0.3,0.2,0.4,0.3c0,0.1-0.3,1-0.3,1c0.1,0.1,0.2,0.2,0.3,0.3c0.1,0.2,0.1,0.5,0.2,0.7c0.2,0,0.5,0,0.7,0
		c0,0.3,0.1,0.6,0.1,0.8c0.3,0,0.7,0,1,0c0.3,0.2,0.6,0.4,1,0.5c0,0.1,0,0.3,0,0.4c0.3,0,0.7-0.1,1-0.1c0.2,0,0.5,0.1,0.7,0.1
		c0.8-0.2,1.7-0.4,2.5-0.6c0.1-0.2,0.2-0.4,0.3-0.5c0-0.2,0-0.5,0-0.7c0.4-0.1,0.9-0.1,1.3-0.2c0.1-0.4,0.1-0.8,0.2-1.2
		c0.2,0,0.4-0.1,0.7-0.1c0-0.4-0.1-0.8-0.1-1.3c0.2,0,0.4,0,0.6,0c0-0.2-0.1-0.4-0.1-0.6c-0.1-0.2-0.2-0.3-0.3-0.5
		c0-0.3-0.1-0.5-0.1-0.8c-0.3-0.3-0.7-0.6-1-0.9c-0.1-0.4-0.1-0.9-0.2-1.3c-0.2-0.1-0.4-0.1-0.7-0.2c0-0.3,0-0.6,0-0.9
		c0.2-0.4,0.5-0.8,0.7-1.2c0-0.1,0-0.2,0-0.4c-0.2,0-0.4,0-0.7,0.1c-0.2,0.2-0.4,0.3-0.6,0.5c0,0-0.7,0.2-0.7,0.2c0,0.1,0,0.2,0,0.3
		c0.1,0.2,0.1,0.4,0.2,0.6c-0.3,0-0.5,0.1-0.8,0.1c0-0.3,0-0.6,0-0.9c-0.4-0.1-0.8-0.3-1.2-0.4c0,0-1.1,0.9-1.1,0.9
		c0,0.3,0,0.5-0.1,0.8c-0.2,0.1-0.3,0.1-0.5,0.2c-0.2-0.2-0.4-0.5-0.5-0.7c-0.3-0.1-0.6-0.1-1-0.2c-0.2,0-0.4,0-0.5,0
		c0,0.2,0,0.4,0,0.6c0.3,0.4,0.7,0.7,1,1.1C243.5,75.3,243.5,75.6,243.5,75.8z"/>
	<path fill="#C0A22F" d="M246.2,83.5c-0.6,0-1.2,0-1.9,0c0-0.2,0-0.4-0.1-0.6c-0.3-0.1-0.6-0.2-0.9-0.4c-0.3,0-0.6,0-0.9,0
		c-0.1-0.3-0.2-0.7-0.3-1c-0.1,0.1-0.3,0.1-0.4,0.2c-0.2-0.6-0.4-1.1-0.6-1.7c0.1-0.2,0.3-0.4,0.4-0.6c-0.2,0-0.3-0.1-0.5-0.1
		c0.2-0.5,0.4-1.1,0.6-1.6c0.4-0.2,0.8-0.3,1.2-0.5c-0.1-0.4-0.2-0.7-0.3-1.1c0.3-0.2,0.7-0.4,1-0.6c0-0.2-0.1-0.4-0.1-0.6
		c-0.3-0.3-0.6-0.6-0.9-0.9c0-0.3,0-0.5,0-0.8c0-0.1,0-0.1,0-0.2c0.2,0,0.5,0,0.7-0.1c0.3,0.1,0.7,0.2,1,0.2
		c0.2,0.2,0.4,0.5,0.6,0.7c0-0.3,0.1-0.6,0.1-0.8c0,0,0-0.1,1.2-1.1c0.5,0.1,0.9,0.2,1.4,0.4c0,0.4,0.1,0.7,0.1,1.1
		c0.1-0.1,0.2-0.2,0.3-0.3c-0.1-0.1-0.1-0.2-0.2-0.3c0-0.6,0-0.6,0.9-0.9c0.1-0.1,0.3-0.3,0.4-0.4c0.3-0.1,0.6-0.1,0.8-0.2
		c0.1,0,0.1,0,0.2,0c0,0.2,0.1,0.4,0.1,0.6c-0.3,0.4-0.6,0.9-0.8,1.3c0,0.3,0.1,0.5,0.1,0.8c0-0.2,0.5,0,0.5,0
		c0.1,0.5,0.3,1,0.4,1.5c0.3,0.3,0.7,0.5,1,0.8c0.2,0.6,0.4,1.3,0.6,1.9c-0.3,0.1-0.6,0.2-0.8,0.4c0.1,0.3,0.2,0.6,0.3,1
		c-0.3,0.1-0.6,0.3-0.9,0.4c0,0.3,0.1,0.6,0.1,0.9c-0.5,0.2-1.1,0.3-1.6,0.5c0.1,0.2,0.1,0.3,0.2,0.5c-0.1,0.2-0.2,0.5-0.4,0.7
		C248,83,247.1,83.2,246.2,83.5L246.2,83.5z M245.6,82.9c0.2,0,0.5,0.1,0.7,0.1c0.8-0.2,1.6-0.4,2.5-0.6c0-0.1,0.1-0.3,0.1-0.4
		c0-0.2,0-0.4,0-0.6c0.5-0.2,1.1-0.3,1.6-0.5c0-0.3-0.1-0.6-0.1-0.9c0.3-0.1,0.6-0.2,1-0.3c-0.1-0.3-0.2-0.6-0.3-1
		c0.3-0.1,0.6-0.2,0.9-0.3c-0.3-0.2-0.5-0.4-0.8-0.6c0-0.3-0.1-0.6-0.1-0.9c-0.3-0.3-0.6-0.5-1-0.8c-0.1-0.5-0.2-0.9-0.4-1.4
		c-0.7-0.1-0.7-0.1-0.7-0.3c0-0.3,0-0.6,0-0.9c0.3-0.4,0.5-0.9,0.8-1.3c-0.2,0-0.4,0-0.5,0c-0.1,0.1-0.3,0.3-0.4,0.4
		c-0.1,0.1-0.7,0.2-0.8,0.3c0.4,0.6,0.4,0.6,0.4,0.6c-0.4,0.1-0.7,0.2-1,0.4c-0.1-0.4-0.2-0.7-0.3-1.1c-0.3-0.1-0.7-0.1-1-0.2
		c0.1,0.1-0.7,0.6-0.8,0.8c0,0,0,0.7,0,0.7c0,0.1,0,0.1,0,0.2c-0.2,0.1-0.5,0.2-0.7,0.2c-0.2-0.2-0.5-0.5-0.7-0.7
		c-0.3,0-0.5-0.1-0.8-0.1c-0.1,0.1-0.1,0.2-0.2,0.4c0.3,0.3,0.6,0.7,0.9,1c0,0.3,0,0.6-0.1,0.9c-0.3,0.2-0.6,0.3-0.9,0.5
		c0.1,0.4,0.1,0.8,0.2,1.2c-0.4,0.2-0.8,0.4-1.2,0.6c-0.1,0.4-0.3,0.8-0.4,1.2c0.4,0.3,0.4,0.3,0.2,0.9c-0.1,0-0.1,0.1,0.1,0.5
		c0.1,0.2,0.2,0.5,0.3,0.7c0.1,0,0.3-0.1,0.4-0.1c0.1,0.3,0.2,0.7,0.4,1c0.3-0.1,0.6-0.1,0.8-0.2c0.4,0.2,0.7,0.4,1.1,0.6
		c0,0.2,0,0.3,0.1,0.5C245,83.1,245.3,83,245.6,82.9L245.6,82.9z"/>
	<path fill="#C0A22F" d="M241.5,79.4c0.4-0.1,0.8-0.1,1.2-0.2c0.1,0.3,0.1,0.6,0.2,0.9c0.1,0.1,0.2,0.2,0.4,0.3c0,0.6,0,1.2,0.1,1.7
		c0.1,0,0.2,0.1,0.4,0.1c0-0.2,0.1-0.5,0.1-0.7c0.3-0.1,0.5-0.1,0.8-0.2c0.1,0.5,0.1,1,0.2,1.4c-0.1,0.1-0.1,0.2-0.2,0.3
		c0,0.1,0,0.1,0.1,0.2c0.4-0.1,0.7-0.1,1.1-0.2c0.1-0.1,0.2-0.3,0.2-0.4c0.2,0,0.4-0.1,0.6-0.1c0.1,0.1,0.1,0.2,0.2,0.4
		c0-0.2,0.1-0.4,0.1-0.6c0.2-0.1,0.4-0.2,0.6-0.3c0.1,0.2,0.3,0.5,0.4,0.7c0.2-0.1,0.5-0.1,0.7-0.2c-0.1-0.1-0.3-0.2-0.4-0.4
		c-0.1-0.3-0.2-0.6-0.3-0.9c0.4-0.3,0.7-0.5,1.1-0.8c0.1,0.2,0.2,0.4,0.4,0.7c0,0,0.4,0,0.4-0.1c0,0-0.5-0.7-0.5-0.7
		c0-0.5,0-1.1,0-1.6c0.3-0.4,0.5-0.8,0.8-1.2c0.4-0.1,0.7-0.2,1.1-0.3c0-0.2,0-0.3,0-0.5c-0.4-0.3-0.7-0.5-1.1-0.8
		c-0.1-0.5-0.2-0.9-0.2-1.4c-0.2-0.1-0.4-0.2-0.6-0.2c-0.1,0.1-0.1,0.2-0.2,0.2c-0.2,0-0.5,0.1-0.7,0.1c0.2,0.3,0.5,0.6,0.7,0.9
		c0,0.2,0,0.4,0,0.6c0.1,0,0.2,0.1,0.2,0.1c0,0.6,0,1.2,0,1.8c-0.3,0.1-0.5,0.1-0.8,0.2c0,0.3,0,0.7-0.1,1c-0.2,0.2-0.3,0.4-0.5,0.6
		c-0.1,0.3-0.2,0.6-0.2,0.9c-0.1,0-0.5,0.7-0.5,0.7c-0.3,0-0.6,0.1-0.8,0.1c-0.2-0.1-0.4-0.3-0.5-0.4c0-0.2,0-0.4-0.1-0.7
		c-0.1,0-0.2,0-0.4-0.1c-0.1,0-0.2-0.7-0.2-0.7c-0.2-0.1-0.4-0.2-0.6-0.2c0-0.2,0-0.3,0-0.5c-0.2,0-0.4-0.1-0.6-0.1
		c0-0.1,0-0.3,0-0.4c-0.1,0-0.3-0.1-0.3-0.1c0-0.4,0-0.8,0-1.2c0.2,0,0.3-0.1,0.5-0.1c-0.1-0.1-0.2-0.2-0.3-0.3c0-0.1,0-0.2-0.1-0.3
		c0-0.1,0-0.2,0-0.4c0.1-0.1,0.3-0.3,0.4-0.4c0,0-0.8,0-0.8,0c-0.2,0.1-0.4,0.3-0.7,0.4c0,0.5,0,0.9-0.1,1.4
		c-0.3,0.1-0.6,0.2-0.9,0.3c-0.2,0.4-0.5,0.8-0.7,1.2C241.3,79.2,241.4,79.3,241.5,79.4z"/>
	<path fill="#C0A22F" d="M244.5,83.5c0-0.1-0.1-0.3-0.1-0.4c0-0.6,0-1.1,0-1.7c-0.2,0.1-0.4,0.2-0.6,0.3c0,0.2,0,0.3,0.1,0.5
		c0,0.1,0,0.2,0,0.3c-0.2-0.1-0.4-0.1-0.7-0.2c0-0.6-0.1-1.3-0.1-1.9c-0.2-0.4-0.4-0.8-0.6-1.2c-0.3,0.1-0.6,0.3-0.9,0.4
		c-0.1-0.1-0.3-0.2-0.4-0.3c0.2-0.5,0.4-1,0.6-1.5c0.3-0.2,0.6-0.3,0.9-0.5c-0.1,0-0.1-1-0.1-1.1c0.3-0.3,0.7-0.6,0.9-0.6
		c0.2-0.1,1-0.1,1-0.1c-0.1,0.4-0.3,0.8-0.4,1.3c-0.1-0.1-0.2-0.1-0.3-0.2c0.1-0.2,0.2-0.4,0.3-0.7c-0.1,0.1-0.3,0-0.4,0.1
		c0.1,0.1-0.3,0.2-0.5,0.3c0.1,0.1,0,0.5,0,1.2c-0.3,0.2-0.7,0.4-1,0.6c-0.2,0.4-0.4,0.7-0.5,1.1c0.4-0.1,0.8-0.2,1.2-0.3
		c0.2,0.4,0.3,0.7,0.5,1.1c0.2,0.7,0.3,1.4,0.5,2.1c0-0.2,0-0.4-0.1-0.6c0.4-0.1,0.7-0.3,1.1-0.4c0.2,0.5,0.3,1.1,0.5,1.6
		c-0.1,0.1-0.1,0.1-0.2,0.2c0.4-0.1,0.7-0.2,1.1-0.3c0,0.2,0,0.3,0,0.5C245.4,83.3,245,83.4,244.5,83.5L244.5,83.5z M247.9,82.9
		c-0.7-0.8-0.7-0.8-0.7-0.9c-0.1,0.1-0.3,0.2-0.4,0.3c0,0,0,0.1,0.1,0.1c0-0.1-0.1-0.2-0.1-0.4c0.5-0.3,0.6-0.3,0.6-0.3
		c0.2,0.2,0.6,0.8,0.6,0.8c0.2-0.1,0.4-0.2,0.6-0.3c-0.2,0-0.4,0-0.6,0.1c-0.1-0.4-0.2-0.7-0.2-1.1c0,0,0,0,0-0.1c0,0,0,0.1,0,0.1
		c-0.1,0.2-0.2,0.3-0.3,0.5c-0.3,0.1-0.7,0.2-1,0.3c-0.7-0.4-0.7-0.5-0.7-0.6c0-0.2-0.1-0.4-0.1-0.6c-0.3,0.1-0.3,0.1-0.5-0.8
		c-0.2,0-0.4-0.1-0.6-0.1c0-0.2,0-0.4,0-0.6c-0.2,0-0.4,0-0.6,0c0-0.2-0.1-0.3-0.1-0.5c-0.3,0-0.3,0-0.3-1.4c0-0.1,0-0.1,0-0.2
		c0.2-0.1,0.5-0.1,0.7-0.2l0,0c0.2,0.1,0.3,0.2,0.5,0.3c-0.3,0.1-0.5,0.1-0.8,0.2c0.1,0.1,0.1,0.8,0.1,0.8c0.3,0.2,0.6,0.5,0.9,0.7
		c0,0.2,0.1,0.4,0.1,0.6c0.2,0,0.3,0.1,0.5,0.1c0.1,0.1,0.3,0.7,0.3,0.8c0.4,0.1,0.5,0.8,0.5,0.8c0.1,0.1,0.3,0.2,0.4,0.3
		c0.2-0.1,0.4-0.1,0.7-0.2c0.3-0.6,0.4-0.6,0.5-0.6c-0.2,0,0.1-0.8,0.1-0.8c0.2-0.2,0.4-0.4,0.6-0.7c0-0.3,0-0.5-0.1-0.8
		c0-0.2,0-0.2,1.1-0.5c-0.2-0.8-0.3-1.5-0.5-2.3c-0.2-0.3-0.4-0.5-0.7-0.8c0.3-0.2,0.6-0.4,0.8-0.5c0.3,0,0.6,0,1,0
		c0.1,0.5,0.3,1,0.4,1.5c0.4,0.3,0.7,0.5,1.1,0.8c0,0.2,0,0.4,0,0.6c-0.4,0.2-0.9,0.4-1.3,0.5c-0.2,0.3-0.4,0.7-0.7,1
		c0,0.5,0,1,0,1.5l0,0c0.1,0,0.4,0.6,0.4,0.6c-0.2,0.1-0.4,0.3-0.6,0.4c-0.2-0.2-0.4-0.5-0.5-0.7c-0.3,0.3-0.5,0.5-0.8,0.7
		c0.2,0.3,0.5,0.6,0.7,0.9C248.5,82.5,248.2,82.7,247.9,82.9L247.9,82.9z M248.7,78.7c0,0.1,0,0.8,0,0.8c-0.2,0.2-0.4,0.5-0.5,0.7
		c-0.2,0.7-0.3,0.9-0.4,1c0.4-0.3,0.7-0.6,1.1-0.9c0.1,0.1,0.2,0.2,0.3,0.2c-0.1,0-0.1,0-0.1,0c0-0.6,0-1.2,0-1.8
		c0.1-0.1,0.1-0.2,0.2-0.4C249.1,78.5,248.8,78.6,248.7,78.7L248.7,78.7z M249.1,74.6c-0.2,0.1-0.5,0.3-0.7,0.4
		c0.3,0.2,0.6,0.3,0.8,0.5c0.1,0.9,0.2,1.7,0.2,2.6c0.2-0.2,0.3-0.5,0.5-0.7c0.4-0.1,0.8-0.2,1.2-0.4c-0.4-0.3-0.8-0.6-1.2-0.9
		c-0.1-0.5-0.2-1-0.4-1.5C249.5,74.7,249.3,74.6,249.1,74.6L249.1,74.6z"/>
	<path fill="#614123" d="M245.8,80.6c0.2-0.1,0.4-0.3,0.6-0.4c0-0.2,0-0.4,0-0.6c-0.2,0-0.4,0-0.6-0.1c0-0.1-0.1-0.1-0.1-0.2
		c0.2,0,0.3,0,0.5,0c0.3-0.1,0.6-0.1,0.8-0.2c0.1,0,0.2-0.1,0.2-0.1c-0.1,0.3-0.2,0.3-0.2,0.3c-0.1,0.1-0.3,0.2-0.4,0.2
		c0,0.2,0,0.4,0,0.6c0.4,0,0.9,0,1.3,0c0,0,0,0.2-0.1,0.3c-0.1,0-1.3-0.1-1.3-0.1c-0.3,0.2-0.5,0.4-0.8,0.6
		C245.8,80.8,245.8,80.7,245.8,80.6z"/>
	<path fill="#C0A22F" d="M245.5,81.2c0.1-0.2,0.2-0.5,0.3-0.7c0.2-0.1,0.4-0.3,0.6-0.4c-0.1-0.2-0.1-0.4-0.2-0.6
		c0.1,0,0.2,0.1,0.3,0.1c0,0,0-0.1,0-0.1c0.2-0.1,0.4-0.2,0.5-0.3c0,0,0,0.1,0,0.1c-0.1,0.1-0.2,0.2-0.4,0.4c0,0.2,0,0.3,0.1,0.5
		c1.3-0.1,1.3-0.1,1.3-0.1c-0.2,0.5-0.2,0.5-1.5,0.4C246.2,80.7,245.8,81,245.5,81.2L245.5,81.2z"/>
	<path fill="#C0A22F" d="M249.1,76.3c-0.2,0.2-0.5,0.5-0.7,0.7c-0.2,0.3-0.3,0.6-0.5,0.9c-0.1,0-0.1,0-0.2,0
		c-0.3-0.3-0.5-0.5-0.8-0.8c-0.3,0-0.5,0.1-0.8,0.1c-0.2,0.4-0.3,0.8-0.5,1.2c-0.1,0-0.2,0-0.3,0c-0.3-0.3-0.6-0.5-0.9-0.8
		c0,0-0.2-0.4-0.2-0.4c0.1,0,2.2-0.3,2.2-0.3c0-0.3,0-0.7,0-1c0,0-0.4-0.1-0.5-0.2c0.1-0.1,1.2-0.2,1.2-0.2
		c-0.1,0.1-0.3,0.2-0.5,0.3c0,0.3,0,0.6,0,0.9c0.6-0.1,1.3-0.2,1.9-0.2C248.7,76.5,248.9,76.4,249.1,76.3z"/>
	<path fill="#C0A22F" d="M245.6,78.7c-0.1,0-0.2,0-0.4,0c-0.4-0.3-0.7-0.7-1.1-1c-0.1-0.2-0.1-0.4-0.2-0.6c0.8-0.1,1.6-0.3,2.4-0.4
		c-0.1-0.2-0.1-0.5-0.2-0.7c0.1-0.1,0.1-0.1,0.2-0.2c-0.1,0.1-0.2,0.1-0.3,0.1c-0.2-0.4,0.2-0.5,1-0.6c0.2,0,0.5-0.1,0.7-0.1
		c-0.4,0.3-0.7,0.6-1.1,0.9c0,0.2,0.1,0.4,0.1,0.6c0.7-0.2,1.5-0.5,2.2-0.7c-0.4,0.6-0.7,1.3-1.1,1.9c-0.2,0-0.3,0.1-0.5,0.1
		c-0.2-0.3-0.5-0.6-0.7-0.9c-0.2,0.1-0.4,0.2-0.6,0.2c0.1,0.1-0.2,0.9-0.2,1C245.7,78.6,245.7,78.7,245.6,78.7L245.6,78.7z
		 M246.5,76.9c-0.8,0.2-1.6,0.4-2.3,0.5c0.4,0.3,0.8,0.5,1.2,0.8c0.1-0.2,0.2-0.4,0.4-1c0.2-0.1,0.5-0.1,0.7-0.2
		C246.5,77,246.5,77,246.5,76.9L246.5,76.9z"/>
	<path fill="#614123" d="M245.2,77.4c0.1,0,0.1,0,0.2,0c0.1,0,0.2,0,0.2,0c0,0.1,0,0.2,0,0.2c0,0.1-0.1,0.2-0.2,0.2
		c-0.1,0-0.1,0-0.2,0c-0.1,0-0.2,0-0.2-0.2c0-0.1,0-0.1,0-0.2C245,77.5,245.1,77.4,245.2,77.4L245.2,77.4z"/>
	<path fill="#614123" d="M247.6,76.9c0.1,0,0.1,0,0.2,0c0.1,0,0.2,0,0.2,0.2c0,0,0,0.1,0,0.1c0,0-0.1,0.2-0.2,0.2
		c-0.1,0-0.1,0-0.2,0c-0.1,0-0.1,0-0.1,0c0-0.1,0-0.2,0-0.2C247.4,77,247.5,77,247.6,76.9L247.6,76.9z"/>
	<path fill="#C0A22F" d="M244.2,76c-0.1,0-0.2-0.1-0.3-0.1c0-0.1,0.1-0.2,0.1-0.3c0.7-0.4,1.3-0.7,2.1-0.9c1.1-0.3,1.8-0.2,2.6-0.2
		c-0.9,0.4-1.6,0.4-2.5,0.6C245.4,75.4,244.9,75.7,244.2,76L244.2,76z"/>
	<path fill="#C0A22F" d="M244.4,74.2c-0.2,0-0.4,0.1-0.7,0.1c-0.3-0.3-0.6-0.5-0.9-0.8c0.2,0,0.3,0,0.5,0c0.2,0.1,0.4,0.1,0.6,0.2
		C244,73.8,244.2,74,244.4,74.2z"/>
	<path fill="#C0A22F" d="M244.8,74.4c-0.4,0.1-0.7,0.1-1.1,0.2c-0.5-0.4-1-0.9-1.6-1.3c0.6,0.1,1.2,0.1,1.9,0.2
		C244.3,73.8,244.5,74.1,244.8,74.4L244.8,74.4z"/>
	<path fill="#C0A22F" d="M248.2,73.3c0.5-0.4,1-0.9,1.5-1.3c-0.1,0-0.3,0-0.4,0c-0.2,0.2-0.4,0.4-0.6,0.6c-0.2,0.1-0.4,0.1-0.6,0.2
		C248.1,72.9,248.2,73.1,248.2,73.3z"/>
	<path fill="#C0A22F" d="M247.4,73.6c-0.8,0.1-1.5,0.3-2.3,0.4c0-0.1,0-0.2,0-0.3c0.3-0.1,0.6-0.1,0.8-0.2c0-0.1,0-0.2,0.1-0.4
		c0.1,0,0.2,0,0.3,0c0,0.1,0.1,0.2,0.1,0.3C246.8,73.5,247.1,73.5,247.4,73.6C247.3,73.6,247.4,73.6,247.4,73.6z"/>
	<path fill="#C0A22F" d="M244.8,74.3c0-0.2,0.1-0.3,0.1-0.5c0.4-0.1,0.7-0.3,1.1-0.4c-0.2,0.1-0.3,0.2-0.5,0.4
		c0.2,0,0.4-0.1,0.7-0.1c0-0.1,0-0.2,0-0.3c0.4,0,0.8,0,1.2-0.1c0.1,0.1,0.1,0.2,0.2,0.3c0,0.1-0.1,0.2-0.1,0.2
		C246.6,74,245.7,74.1,244.8,74.3L244.8,74.3z"/>
	<path fill="#C0A22F" d="M247.3,72.8c-0.3,0-0.5,0.1-0.8,0.1c0-0.1,0-0.3,0-0.4C246.7,72.6,247,72.7,247.3,72.8z"/>
	<path fill="#C0A22F" d="M245.9,72.6c0,0.1,0,0.3,0,0.4c-0.3,0.1-0.5,0.2-0.8,0.3C245.4,73,245.7,72.8,245.9,72.6z"/>
	<path fill="#C0A22F" d="M241.6,81c0.1-0.3,0.2-0.7,0.4-1c-0.1-0.2-0.2-0.4-0.3-0.6c-0.1,0.3-0.2,0.7-0.3,1
		C241.4,80.6,241.5,80.8,241.6,81z"/>
	<path fill="#C0A22F" d="M242.4,81.4c0.2-0.4,0.3-0.8,0.5-1.2c-0.3,0.4-0.6,0.7-0.9,1.1C242.1,81.3,242.2,81.4,242.4,81.4z"/>
	<path fill="#C0A22F" d="M242.4,81.7c-0.2-0.1-0.4-0.2-0.6-0.2c0.3-0.5,0.6-0.9,0.8-1.4c-0.2,0.4-0.4,0.9-0.6,1.3c0.1,0,0.2,0,0.2,0
		c-0.1,0-0.1,0-0.2,0c0.2-0.4,0.4-0.8,0.5-1.3C242.6,80.6,242.5,81.2,242.4,81.7L242.4,81.7z"/>
	<path fill="#F2EB37" d="M230.8,78c-0.3,0.1-0.5,0.2-0.8,0.3c0,0.5,0,0.9,0,1.4c-0.3,0.1-0.6,0.2-0.9,0.3c-0.2,0.4-0.4,0.9-0.7,1.3
		c0.1,0.1,0.3,0.2,0.4,0.3c-0.1,0.3-0.2,0.6-0.3,1c0,0,0.3,0.2,0.3,0.2c0.1,0.3,0.1,0.5,0.2,0.8c0.2,0,0.4,0,0.7,0
		c0.1,0.3,0.1,0.6,0.2,0.9c0.3,0,0.7,0,1,0c0.3,0.2,0.6,0.3,0.9,0.5c0,0.1,0,0.3,0,0.4c0.4,0,0.7-0.1,1.1-0.1c0.2,0,0.5,0.1,0.7,0.1
		c0.8-0.2,1.6-0.4,2.5-0.6c0.1-0.2,0.3-0.4,0.4-0.6c0-0.2,0-0.5,0-0.7c0.4-0.1,0.9-0.1,1.3-0.2c0-0.4,0.1-0.8,0.1-1.2
		c0.2,0,0.4-0.1,0.7-0.1c0-0.4,0-0.9,0-1.3c0.2,0,0.4,0,0.6,0c-0.1-0.2-0.1-0.4-0.2-0.6c-0.1-0.1-0.3-0.3-0.4-0.4c0-0.3,0-0.5,0-0.8
		c-0.4-0.3-0.7-0.6-1.1-0.9c-0.1-0.4-0.1-0.9-0.2-1.3c-0.2-0.1-0.4-0.1-0.7-0.2c0-0.3,0-0.6,0-0.9c0.2-0.4,0.5-0.8,0.7-1.2
		c0-0.1,0-0.3-0.1-0.4c-0.2,0-0.4,0.1-0.7,0.1c-0.2,0.2-0.4,0.3-0.6,0.5c-0.2,0.1-0.4,0.1-0.7,0.2c0,0.1,0,0.2,0,0.3
		c0.1,0.2,0.1,0.4,0.2,0.6c-0.3,0-0.5,0.1-0.8,0.1c0-0.3,0-0.6-0.1-0.9c-0.4-0.1-0.7-0.3-1.1-0.4c-0.4,0.3-0.7,0.6-1.1,0.8
		c0,0.3,0,0.6-0.1,0.8c-0.2,0.1-0.3,0.1-0.5,0.2c-0.2-0.2-0.4-0.5-0.5-0.7c-0.3-0.1-0.6-0.1-0.9-0.2c-0.2,0-0.4,0-0.5,0.1
		c0,0.2,0,0.4,0,0.6c0.3,0.4,0.6,0.8,1,1.1C230.8,77.5,230.8,77.8,230.8,78z"/>
	<path fill="#C0A22F" d="M233.6,85.7c-0.7,0-1.3,0-2,0c0-0.2,0-0.4,0-0.6c-0.3-0.1-0.6-0.3-0.8-0.4c-0.3,0-0.6,0-0.9,0
		c-0.1-0.3-0.3-0.7-0.4-1c-0.1,0.1-0.3,0.1-0.4,0.2c-0.2-0.5-0.4-1-0.6-1.6c0.1-0.2,0.2-0.6,0.2-0.6c-0.1-0.1-0.3-0.3-0.4-0.4
		c0.2-0.4,0.4-0.9,0.7-1.3c0.4-0.2,0.7-0.3,1.1-0.5c-0.1-0.4-0.1-0.7-0.2-1.1c0.3-0.2,0.6-0.3,0.9-0.5c0-0.2-0.1-0.3-0.1-0.5
		c-0.3-0.3-0.6-0.7-0.9-1c0-0.2,0-0.5,0-0.7c0-0.1,0-0.2,0-0.2c0.3,0,0.5,0,0.8-0.1c0.3,0.1,0.6,0.2,0.9,0.2
		c0.2,0.3,0.5,0.5,0.7,0.8c0-0.3,0.1-0.6,0.1-0.9c0-0.1,0-0.1,1.2-1.1c0.5,0.1,0.9,0.2,1.4,0.4c0,0.4,0.1,0.8,0.1,1.1
		c0.1-0.1,0.3-0.2,0.4-0.3c0-0.1-0.1-0.2-0.1-0.3c-0.1-0.6-0.1-0.6,0.9-0.9c0.1-0.1,0.3-0.3,0.4-0.4c0.3-0.1,0.6-0.1,0.8-0.2
		c0.1,0,0.1,0,0.2,0c0,0.2,0.1,0.4,0.1,0.6c-0.3,0.5-0.5,0.9-0.8,1.4c0,0.3,0.1,0.5,0.1,0.8c0-0.2,0.5,0,0.5,0
		c0.2,0.5,0.3,1,0.5,1.4c0.3,0.3,0.7,0.5,1,0.8c0.2,0.6,0.4,1.2,0.7,1.9c-0.3,0.1-0.6,0.3-0.9,0.4c0.1,0.3,0.2,0.6,0.4,1
		c-0.3,0.1-0.6,0.2-0.9,0.4c0,0.3,0.1,0.6,0.1,0.9c-0.5,0.2-1,0.3-1.5,0.5c0.1,0.1,0.1,0.3,0.2,0.4c-0.1,0.2-0.3,0.5-0.4,0.7
		C235.4,85.2,234.5,85.4,233.6,85.7L233.6,85.7z M232.9,85.1c0.2,0,0.5,0.1,0.7,0.1c0.8-0.2,1.6-0.4,2.4-0.6
		c0.1-0.2,0.1-0.3,0.2-0.5c0-0.2,0-0.4,0-0.6c0.5-0.2,1-0.3,1.6-0.5c0-0.3-0.1-0.6-0.1-0.9c0.3-0.1,0.6-0.2,0.9-0.4
		c-0.1-0.3-0.2-0.6-0.3-0.9c0.3-0.1,0.6-0.2,0.9-0.3c-0.2-0.2-0.5-0.4-0.7-0.6c0-0.3-0.1-0.6-0.1-0.9c-0.3-0.3-0.7-0.5-1-0.8
		c-0.1-0.5-0.2-0.9-0.3-1.4c-0.7-0.1-0.7-0.1-0.7-0.3c0-0.3,0-0.6,0-0.9c0.3-0.4,0.5-0.9,0.8-1.3c-0.2,0-0.4,0-0.6,0
		c-0.1,0.1-0.3,0.3-0.4,0.4c-0.1,0.1-0.7,0.2-0.8,0.2c0.4,0.6,0.4,0.6,0.4,0.7c-0.3,0.1-0.7,0.2-1,0.4c-0.1-0.4-0.2-0.7-0.2-1.1
		c-0.4-0.1-0.7-0.1-1.1-0.2c0.1,0.1-0.7,0.6-0.8,0.8c0,0.1,0,0.7,0,0.7c0,0.1,0,0.1,0,0.2c-0.2,0.1-0.4,0.2-0.6,0.3
		c-0.3-0.3-0.6-0.5-0.8-0.8c-0.3,0-0.5-0.1-0.8-0.1c-0.1,0.1-0.1,0.2-0.2,0.3c0.3,0.3,0.6,0.7,0.9,1c0,0.3,0,0.6,0,0.9
		c-0.3,0.2-0.6,0.3-1,0.5c0.1,0.4,0.1,0.8,0.2,1.1c-0.4,0.2-0.8,0.4-1.1,0.6c-0.2,0.4-0.3,0.8-0.5,1.2c0.5,0.3,0.5,0.3,0.2,1
		c-0.1-0.1-0.1,0,0.1,0.3c0.1,0.2,0.2,0.5,0.3,0.7c0.1,0,0.3-0.1,0.4-0.1c0.1,0.3,0.2,0.7,0.4,1c0.3,0,0.5-0.1,0.8-0.1
		c0.4,0.2,0.8,0.4,1.2,0.5c0,0.2,0,0.3,0,0.5C232.3,85.3,232.6,85.2,232.9,85.1L232.9,85.1z"/>
	<path fill="#C0A22F" d="M228.8,81.5c0.4-0.1,0.8-0.1,1.2-0.2c0.1,0.3,0.1,0.6,0.2,0.9c0.1,0.1,0.3,0.2,0.4,0.3c0,0.6,0,1.2,0,1.8
		c0.1,0,0.3,0.1,0.4,0.1c0-0.2,0.1-0.5,0.1-0.7c0.3-0.1,0.6-0.2,0.9-0.2c0,0.5,0,1,0.1,1.5c0,0.1-0.1,0.1-0.1,0.2
		c0,0.1,0.1,0.1,0.1,0.2c0.3-0.1,0.6-0.1,1-0.2c0,0,0.2-0.4,0.3-0.4c0.2,0,0.4-0.1,0.5-0.1c0.1,0.1,0.2,0.2,0.2,0.4
		c0.1-0.2,0.1-0.4,0.2-0.5c0,0,0.5-0.3,0.5-0.3c0.1,0.2,0.3,0.4,0.4,0.6c0.3-0.1,0.5-0.1,0.8-0.2c-0.2-0.1-0.3-0.2-0.5-0.3
		c-0.1-0.3-0.1-0.6-0.2-0.9c0.3-0.2,0.7-0.5,1-0.7c0.1,0.2,0.3,0.4,0.4,0.6c0.1,0,0.3,0,0.4-0.1c-0.1,0-0.5-0.7-0.5-0.7
		c0-0.5,0-1.1,0-1.6c0.3-0.4,0.5-0.8,0.8-1.2c0.4-0.1,0.7-0.2,1.1-0.3c0-0.2,0-0.3,0-0.5c-0.4-0.3-0.7-0.6-1.1-0.8
		c-0.1-0.4-0.2-0.9-0.3-1.3c-0.2-0.1-0.4-0.2-0.6-0.2c-0.1,0.1-0.1,0.1-0.2,0.2c-0.2,0.1-0.5,0.1-0.7,0.2c0.2,0.3,0.5,0.6,0.7,0.9
		c0,0.2,0,0.4,0,0.7c0.1,0,0.2,0.1,0.3,0.1c0,0.6-0.1,1.2-0.1,1.8c0,0-0.8,0.2-0.8,0.3c0,0.3,0,0.6,0,1c-0.2,0.2-0.3,0.4-0.5,0.6
		c-0.1,0.3-0.2,0.6-0.2,1c-0.1,0-0.5,0.6-0.5,0.6c-0.3,0-0.6,0.1-0.9,0.1c0,0-0.5-0.4-0.5-0.4c0-0.2,0-0.4-0.1-0.7
		c-0.1,0-0.2,0-0.4-0.1c0,0-0.2-0.8-0.2-0.8c-0.2-0.1-0.4-0.2-0.6-0.2c0-0.2,0-0.3,0-0.5c-0.2-0.1-0.4-0.1-0.7-0.2
		c0-0.2,0-0.3,0-0.5c0,0-0.3-0.1-0.3-0.1c0-0.4,0-0.8,0-1.1c0.2-0.1,0.3-0.1,0.5-0.2c-0.1-0.1-0.2-0.2-0.3-0.3
		c0-0.1-0.1-0.2-0.1-0.3c0-0.1,0-0.2,0-0.3c0.1-0.2,0.3-0.3,0.4-0.5c-0.2,0-0.5,0-0.7,0c-0.2,0.1-0.5,0.3-0.7,0.4
		c0,0.4,0,0.9-0.1,1.3c-0.3,0.1-0.5,0.3-0.8,0.4c-0.2,0.4-0.4,0.8-0.7,1.1C228.7,81.4,228.8,81.5,228.8,81.5z"/>
	<path fill="#C0A22F" d="M231.8,85.7c0-0.1-0.1-0.3-0.1-0.4c0-0.6,0-1.1,0-1.7c-0.2,0.1-0.4,0.2-0.6,0.4c0,0.2,0.1,0.3,0.1,0.5
		c0,0.1,0,0.2-0.1,0.3c-0.2-0.1-0.4-0.1-0.6-0.2c-0.1-0.7-0.1-1.3-0.2-2c-0.2-0.4-0.4-0.8-0.6-1.1c-0.3,0.1-0.6,0.3-1,0.4
		c-0.1-0.1-0.3-0.2-0.4-0.3c0.2-0.5,0.4-1,0.6-1.5c0.3-0.2,0.6-0.3,0.9-0.5c-0.1,0-0.1-0.9-0.1-0.9c0.2-0.4,0.7-0.7,0.8-0.8
		c0.2,0,0.9-0.1,0.9-0.1c-0.1,0.4-0.2,0.8-0.3,1.3c-0.1-0.1-0.3-0.1-0.4-0.2c0.1-0.2,0.3-0.4,0.4-0.7c-0.2,0.1-0.4,0.1-0.4,0.1
		c0.1,0-0.3,0.2-0.5,0.3c0,0,0,0.4,0,1.2c-0.4,0.2-0.7,0.4-1.1,0.6c-0.2,0.3-0.4,0.7-0.5,1c0.4-0.1,0.8-0.2,1.2-0.3
		c0.2,0.4,0.3,0.8,0.5,1.1c0.1,0.7,0.3,1.4,0.4,2.1c0-0.2,0-0.4,0-0.6c0.4-0.1,0.7-0.3,1.1-0.4c0.1,0.5,0.3,1.1,0.4,1.6
		c0,0.1-0.1,0.2-0.1,0.2c0.3-0.1,0.7-0.2,1-0.3c0,0.2,0,0.3,0,0.5C232.8,85.4,232.3,85.6,231.8,85.7L231.8,85.7z M235.2,85.1
		c-0.7-0.8-0.7-0.8-0.7-0.8c-0.1,0.1-0.2,0.1-0.2,0.2c0,0,0,0.1,0,0.1c0-0.1,0-0.2-0.1-0.3c0.5-0.3,0.6-0.3,0.6-0.3
		c0.2,0.2,0.4,0.5,0.6,0.7c0.2-0.1,0.3-0.2,0.5-0.3c-0.2,0-0.4,0-0.6,0.1c-0.1-0.3-0.2-0.7-0.2-1c0.4-0.3,0.8-0.7,1.2-1
		c0.1,0.1,0.2,0.2,0.2,0.3c0,0,0,0,0-0.1c0-0.6,0-1.1-0.1-1.7c0.1-0.1,0.2-0.3,0.2-0.4c-0.2,0.1-0.5,0.2-0.7,0.3
		c0.1,0.1,0.1,0.8,0.1,0.8c-0.2,0.2-0.4,0.4-0.6,0.6c-0.3,1.1-0.3,1.1-0.4,1.1c-0.1,0.2-0.2,0.4-0.3,0.5c-0.3,0.1-0.7,0.2-1,0.3
		c-0.7-0.5-0.7-0.5-0.7-0.6c0-0.2-0.1-0.4-0.1-0.6c-0.4,0.1-0.4,0.1-0.5-0.7c-0.2-0.1-0.4-0.1-0.6-0.2c0-0.2,0-0.4,0-0.6
		c-0.2,0-0.3,0-0.5,0c-0.1-0.2-0.1-0.3-0.2-0.5c-0.3,0-0.3,0-0.3-1.4c0-0.1,0-0.1,0-0.2c0.2-0.1,0.5-0.1,0.7-0.2l0,0
		c0.2,0.1,0.3,0.2,0.5,0.3c-0.3,0.1-0.6,0.2-0.8,0.3c0.2,0.1,0.2,0.8,0.2,0.9c0.3,0.2,0.6,0.4,0.9,0.6c0,0.2,0,0.4,0,0.6
		c0.2,0,0.3,0.1,0.5,0.1c0.1,0.1,0.2,0.7,0.3,0.8c0.4,0.1,0.5,0.8,0.5,0.8c0.1,0.1,0.3,0.2,0.4,0.2c0.2,0,0.4-0.1,0.7-0.1
		c0.3-0.6,0.3-0.6,0.4-0.6c-0.1,0,0.1-0.8,0.1-0.8c0.2-0.2,0.3-0.4,0.5-0.7c0-0.3,0-0.5,0-0.8c0-0.3,0-0.3,1-0.5
		c-0.2-0.8-0.3-1.6-0.5-2.3c-0.2-0.3-0.4-0.5-0.7-0.8c0.3-0.2,0.6-0.4,0.9-0.5c0.3,0,0.6,0,1,0c0.1,0.5,0.3,1,0.4,1.5
		c0.3,0.3,0.7,0.6,1,0.8c0,0.2,0,0.4,0,0.5c-0.4,0.2-0.8,0.4-1.3,0.6c-0.2,0.3-0.5,0.7-0.7,1c0,0.5,0,1,0,1.5l0,0
		c0.1,0,0.4,0.5,0.4,0.6l0,0c-0.2,0.1-0.4,0.3-0.6,0.4c-0.2-0.2-0.4-0.5-0.6-0.7c-0.3,0.3-0.5,0.5-0.8,0.8c0.2,0.3,0.5,0.6,0.7,0.9
		C235.8,84.7,235.5,84.9,235.2,85.1L235.2,85.1z M236.5,76.8c-0.2,0.1-0.5,0.2-0.7,0.4c0.3,0.2,0.6,0.4,0.8,0.5
		c0.1,0.9,0.2,1.7,0.2,2.5c0.2-0.2,0.3-0.5,0.5-0.7c0.4-0.1,0.8-0.2,1.2-0.4c-0.4-0.3-0.8-0.6-1.2-0.9c-0.1-0.5-0.2-1-0.4-1.4
		C236.8,76.9,236.7,76.8,236.5,76.8L236.5,76.8z"/>
	<path fill="#614123" d="M233.2,82.8c0.2-0.1,0.4-0.3,0.6-0.4c0-0.2,0-0.4,0-0.6c-0.2,0-0.4,0-0.6-0.1c0-0.1-0.1-0.1-0.1-0.2
		c0.2,0,0.4,0,0.6,0c0.3-0.1,0.5-0.1,0.8-0.2c0.1,0,0.2-0.1,0.3-0.1c-0.1,0.3-0.2,0.3-0.3,0.3c-0.1,0.1-0.3,0.2-0.4,0.2
		c0,0.2,0,0.4,0,0.6c0.4,0,0.8,0,1.2,0c0,0,0,0.3,0,0.3c-0.4,0-0.9-0.1-1.3-0.1c-0.3,0.2-0.6,0.4-0.8,0.6
		C233.1,83,233.1,82.9,233.2,82.8z"/>
	<path fill="#C0A22F" d="M232.9,83.4c0.1-0.2,0.1-0.4,0.2-0.6c0.2-0.2,0.4-0.3,0.6-0.5c0-0.2-0.1-0.4-0.1-0.6c0.1,0,0.2,0,0.3,0
		c0,0,0-0.1,0-0.1c0.2-0.1,0.4-0.2,0.5-0.3c0,0,0,0.1,0,0.1c-0.1,0.1-0.2,0.2-0.4,0.4c0,0.2,0.1,0.3,0.1,0.5
		c1.2-0.1,1.2-0.1,1.2-0.1c-0.1,0.5-0.1,0.5-1.5,0.4C233.5,82.9,233.2,83.1,232.9,83.4L232.9,83.4z"/>
	<path fill="#C0A22F" d="M236.4,78.5c-0.3,0.2-0.5,0.4-0.8,0.7c-0.2,0.3-0.3,0.6-0.5,0.9c-0.1,0-0.1,0-0.2,0.1
		c-0.2-0.3-0.5-0.6-0.7-0.9c-0.3,0-0.5,0.1-0.8,0.1c-0.2,0.4-0.3,0.8-0.5,1.2c-0.1,0-0.2,0-0.4,0c-0.3-0.3-0.6-0.5-0.8-0.8
		c0,0-0.3-0.5-0.2-0.5c0,0,2.2-0.3,2.2-0.3c0-0.3,0-0.6,0-1c0,0-0.2-0.1-0.5-0.1c0.1-0.1,1.2-0.2,1.2-0.2c-0.2,0.1-0.3,0.3-0.5,0.4
		c0,0.3,0,0.6,0,0.9c0.6-0.1,1.3-0.2,1.9-0.3C236,78.7,236.2,78.6,236.4,78.5z"/>
	<path fill="#C0A22F" d="M233,80.9c-0.1,0-0.3,0-0.4,0c-0.4-0.3-0.7-0.6-1.1-1c0-0.2-0.1-0.4-0.1-0.6c0.8-0.1,1.6-0.3,2.4-0.4
		c-0.1-0.2-0.1-0.4-0.2-0.7c0-0.1,0.1-0.1,0.1-0.2c-0.1,0-0.1,0-0.2,0.1c-0.2-0.4,0.2-0.5,0.9-0.6c0.3,0,0.5-0.1,0.8-0.1
		c-0.4,0.3-0.8,0.6-1.2,0.9c0.1,0.2,0.1,0.5,0.2,0.7c0.7-0.2,1.5-0.5,2.2-0.7c-0.4,0.6-0.8,1.3-1.1,1.9c-0.2,0-0.3,0.1-0.5,0.1
		c-0.2-0.3-0.5-0.6-0.7-0.9c-0.2,0.1-0.4,0.1-0.6,0.2c0,0.1-0.4,0.9-0.4,1C233.1,80.8,233,80.8,233,80.9L233,80.9z M233.8,79.1
		c-0.8,0.2-1.5,0.4-2.3,0.5c0.4,0.3,0.8,0.6,1.2,0.9c0.1-0.2,0.2-0.5,0.4-1.1C233.4,79.3,233.7,79.2,233.8,79.1
		C233.9,79.1,233.9,79.1,233.8,79.1L233.8,79.1z"/>
	<path fill="#614123" d="M232.6,79.5c0.1,0,0.1,0,0.2,0c0.1,0,0.1,0.1,0.1,0.2c0,0.1,0,0.1,0,0.2c0,0,0,0.2-0.1,0.2
		c-0.1,0-0.1,0-0.2,0c-0.1,0-0.2,0-0.2,0c0-0.1,0-0.2,0-0.3C232.4,79.7,232.4,79.6,232.6,79.5L232.6,79.5z"/>
	<path fill="#614123" d="M234.9,79.1c0.1,0,0.2,0,0.2,0c0,0,0.1,0.1,0.1,0.1c0,0.1,0,0.2,0,0.2c0,0.1,0,0.2-0.1,0.2
		c-0.1,0-0.2,0-0.2,0c0,0-0.1,0-0.1-0.1c0,0,0-0.1,0-0.1C234.8,79.3,234.9,79.1,234.9,79.1L234.9,79.1z"/>
	<path fill="#C0A22F" d="M231.6,78.2c-0.1,0-0.2-0.1-0.2-0.1c0-0.1,0-0.2,0.1-0.3c0.7-0.4,1.3-0.7,2.2-0.9c1-0.2,1.7-0.2,2.5-0.2
		c-0.9,0.5-1.6,0.4-2.4,0.6C232.8,77.5,232.2,77.8,231.6,78.2L231.6,78.2z"/>
	<path fill="#C0A22F" d="M231.7,76.4c-0.2,0-0.4,0.1-0.6,0.1c-0.3-0.3-0.6-0.5-0.9-0.8c0.2,0,0.3,0,0.5,0c0.2,0.1,0.5,0.1,0.7,0.2
		C231.4,76,231.6,76.2,231.7,76.4z"/>
	<path fill="#C0A22F" d="M232.1,76.6c-0.3,0-0.7,0.1-1,0.1c-0.5-0.4-1.1-0.9-1.6-1.3c0.6,0,1.2,0.1,1.8,0.1
		C231.6,75.9,231.9,76.2,232.1,76.6L232.1,76.6z"/>
	<path fill="#C0A22F" d="M235.6,75.5c0.5-0.4,1-0.9,1.5-1.3c-0.2,0-0.3,0-0.5,0c-0.2,0.2-0.4,0.4-0.6,0.6c-0.2,0.1-0.4,0.1-0.6,0.2
		C235.5,75.1,235.6,75.3,235.6,75.5z"/>
	<path fill="#C0A22F" d="M234.7,75.8c-0.8,0.1-1.5,0.3-2.3,0.4c0-0.1,0-0.2,0-0.2c0.3-0.1,0.6-0.2,0.8-0.2c0-0.1,0.1-0.2,0.1-0.3
		c0.1,0,0.1,0,0.2,0c0.1,0.1,0.1,0.2,0.2,0.3c0.3,0,0.6,0,0.8,0C234.7,75.7,234.7,75.8,234.7,75.8z"/>
	<path fill="#C0A22F" d="M232.2,76.5c0-0.2,0-0.3,0-0.5c0.4-0.1,0.7-0.3,1.1-0.4c-0.2,0.1-0.3,0.2-0.5,0.4c0.2,0,0.5-0.1,0.7-0.1
		c0-0.1,0-0.2-0.1-0.2c0.4,0,0.8,0,1.2-0.1c0.1,0.1,0.1,0.2,0.2,0.3c0,0.1-0.1,0.1-0.1,0.2C233.9,76.2,233.1,76.3,232.2,76.5
		L232.2,76.5z"/>
	<path fill="#C0A22F" d="M234.7,74.9c-0.3,0.1-0.6,0.1-0.8,0.2c0-0.1,0-0.3,0-0.4C234.1,74.8,234.4,74.8,234.7,74.9z"/>
	<path fill="#C0A22F" d="M233.3,74.8c0,0.1,0,0.3-0.1,0.4c-0.3,0.1-0.5,0.1-0.8,0.2C232.7,75.2,233,75,233.3,74.8z"/>
	<path fill="#C0A22F" d="M228.9,83.2c0.1-0.3,0.3-0.7,0.4-1c-0.1-0.2-0.3-0.4-0.4-0.6c-0.1,0.3-0.2,0.7-0.3,1
		C228.7,82.8,228.8,83,228.9,83.2z"/>
	<path fill="#C0A22F" d="M229.7,83.6c0.2-0.4,0.3-0.8,0.5-1.2c-0.3,0.3-0.6,0.7-0.9,1C229.4,83.5,229.6,83.6,229.7,83.6z"/>
	<path fill="#C0A22F" d="M229.8,83.9c-0.2-0.1-0.4-0.2-0.6-0.3c0.3-0.4,0.6-0.9,0.8-1.3c-0.2,0.4-0.4,0.9-0.6,1.3c0.1,0,0.2,0,0.3,0
		c-0.1,0-0.1-0.1-0.2-0.1c0.2-0.4,0.4-0.8,0.6-1.3C230,82.8,229.9,83.4,229.8,83.9L229.8,83.9z"/>
	<path fill="#2B3580" d="M251.6,99.4c0.8-9.9,1.7-19.8,2.5-29.7c5.2-3.7,10.4-7.4,15.5-11.1c4,3.8,8,7.6,12,11.4
		c-2.7,9.8-5.3,19.5-8,29.3C266,98.9,261.5,98.8,251.6,99.4L251.6,99.4z"/>
	<path fill="#2E2C74" d="M273.8,99.5c0,0-0.1,0-0.1,0c-7.7-0.5-12.2-0.7-22.1,0c0.8-9.9,1.6-19.9,2.4-29.8
		c5.2-3.7,10.4-7.5,15.6-11.2c4.1,3.8,8.1,7.6,12.2,11.5C279.2,79.9,276.5,89.7,273.8,99.5L273.8,99.5z M269.7,58.7
		c-5.1,3.7-10.3,7.4-15.4,11.1c-0.8,9.9-1.7,19.7-2.5,29.6c9.7-0.7,14.3-0.6,21.9-0.1c2.7-9.8,5.3-19.5,8-29.3
		C277.7,66.3,273.7,62.5,269.7,58.7L269.7,58.7z"/>
	<path fill="#F2EB37" d="M237.3,88.1c-0.2,0.1-0.5,0.2-0.7,0.3c0,0.5,0,0.9,0,1.4c-0.3,0.1-0.6,0.2-1,0.3c-0.2,0.4-0.4,0.9-0.6,1.3
		c0.1,0.1,0.3,0.2,0.4,0.3c0,0-0.3,1-0.2,1c0.1,0.1,0.1,0.2,0.2,0.3c0.1,0.2,0.2,0.5,0.3,0.7c0.2,0,0.4,0,0.6-0.1
		c0,0.3,0.1,0.6,0.1,0.9c0.3,0,0.7,0,1,0c0.3,0.2,0.7,0.4,1,0.5c0,0.1,0,0.3,0,0.4c0.4-0.1,0.7-0.1,1.1-0.2c0.2,0,0.5,0.1,0.7,0.1
		c0.8-0.2,1.7-0.4,2.5-0.6c0.1-0.2,0.2-0.4,0.4-0.6c0-0.2,0-0.5,0-0.7c0.5-0.1,0.9-0.2,1.4-0.3c0-0.4,0.1-0.7,0.1-1.1
		c0.2,0,0.5-0.1,0.7-0.1c0-0.4-0.1-0.8-0.1-1.3c0.2,0,0.4,0,0.6,0c0-0.2-0.1-0.4-0.1-0.6c-0.1-0.1-0.3-0.3-0.4-0.4
		c0-0.3-0.1-0.5-0.1-0.8c-0.3-0.3-0.7-0.6-1-0.9c-0.1-0.4-0.2-0.9-0.2-1.3c-0.2-0.1-0.5-0.2-0.7-0.3c0-0.3,0-0.6-0.1-0.8
		c0.3-0.4,0.5-0.8,0.8-1.2c0-0.1,0-0.3,0-0.4c-0.2,0-0.5,0.1-0.7,0.1c-0.2,0.2-0.3,0.3-0.5,0.5c-0.2,0.1-0.5,0.1-0.7,0.2
		c0,0.1,0,0.2,0,0.3c0.1,0.2,0.2,0.4,0.2,0.6c-0.3,0-0.6,0.1-0.8,0.1c0-0.3,0-0.6,0-0.9c-0.4-0.1-0.8-0.3-1.2-0.4
		c-0.3,0.3-0.7,0.6-1,0.9c0,0.3,0,0.6-0.1,0.9c-0.2,0.1-0.4,0.1-0.6,0.2c-0.2-0.2-0.4-0.5-0.5-0.7c-0.3-0.1-0.6-0.2-0.9-0.2
		c-0.2,0-0.3,0-0.5,0.1c0,0.2,0,0.4,0,0.6c0.3,0.4,0.6,0.7,0.9,1.1C237.4,87.6,237.4,87.8,237.3,88.1z"/>
	<path fill="#C0A22F" d="M240.1,95.7c-0.7,0-1.3,0-1.9,0c0-0.2-0.1-0.4-0.1-0.6c-0.3-0.1-0.5-0.2-0.8-0.3c-0.3,0-0.6,0-0.9,0
		c-0.1-0.3-0.2-0.7-0.4-1c-0.2,0.1-0.3,0.1-0.5,0.2c-0.2-0.6-0.4-1.2-0.7-1.8c0-0.3,0-0.6,0-0.8c0.2-0.4,0.4-0.9,0.6-1.3
		c0.4-0.2,0.8-0.3,1.2-0.5c-0.1-0.4-0.2-0.8-0.2-1.2c0.3-0.2,0.6-0.3,0.9-0.5c0-0.2,0-0.4-0.1-0.5c-0.3-0.3-0.6-0.6-0.9-1
		c0-0.2,0-0.5-0.1-0.7c0-0.1,0-0.2,0.1-0.3c0.2,0,0.4,0,0.7,0c0.3,0.1,0.7,0.1,1,0.2c0.2,0.3,0.4,0.6,0.6,0.8
		c0.1-0.3,0.1-0.6,0.2-0.9c0,0,0,0,1.2-1.1c0.5,0.1,0.9,0.2,1.4,0.4c0,0.4,0.1,0.8,0.1,1.1c0.1-0.1,0.3-0.2,0.4-0.2
		c-0.1-0.1-0.1-0.2-0.2-0.3c0-0.6,0-0.6,0.9-0.8c0.1-0.1,0.3-0.3,0.4-0.4c0.3-0.1,0.5-0.1,0.8-0.2c0.1,0,0.1,0,0.2,0
		c0,0.2,0.1,0.4,0.1,0.6c-0.3,0.5-0.5,0.9-0.8,1.4c0,0.2,0.1,0.5,0.1,0.7c0-0.1,0.5,0,0.5,0c0.1,0.5,0.3,1,0.4,1.5
		c0.3,0.3,0.6,0.5,0.9,0.8c0.2,0.6,0.5,1.2,0.7,1.9c-0.3,0.1-0.6,0.2-0.8,0.4c0.1,0.3,0.2,0.6,0.4,1c-0.3,0.1-0.6,0.3-0.9,0.4
		c0,0.3,0,0.6,0.1,0.9c-0.5,0.2-1,0.3-1.6,0.5c0.1,0.1,0.1,0.3,0.2,0.4c-0.1,0.2-0.3,0.5-0.4,0.7C242,95.2,241,95.5,240.1,95.7
		L240.1,95.7z M239.5,95.2c0.3,0,0.5,0.1,0.8,0.1c0.8-0.2,1.6-0.4,2.4-0.7c0.1-0.1,0.1-0.3,0.2-0.4c0-0.2,0-0.4,0-0.6
		c0.5-0.2,1.1-0.3,1.6-0.5c0-0.3-0.1-0.6-0.1-0.9c0.3-0.1,0.6-0.2,0.9-0.3c-0.1-0.3-0.2-0.7-0.4-1c0.3-0.1,0.6-0.2,0.9-0.3
		c-0.2-0.2-0.5-0.4-0.7-0.6c0-0.3,0-0.6-0.1-0.9c-0.3-0.3-0.7-0.5-1-0.8c-0.1-0.5-0.2-1-0.3-1.4c-0.7-0.1-0.7-0.1-0.7-0.3
		c0-0.3,0-0.6,0-0.8c0.3-0.4,0.5-0.9,0.8-1.3c-0.2,0-0.4,0-0.6,0c-0.1,0.1-0.2,0.3-0.3,0.4c-0.1,0.1-0.8,0.2-0.8,0.2
		c0.4,0.6,0.4,0.6,0.4,0.7c-0.3,0.1-0.7,0.3-1,0.4c-0.1-0.4-0.2-0.8-0.3-1.1c-0.3-0.1-0.7-0.1-1-0.2c0.1,0.1-0.7,0.7-0.8,0.8
		c0.1,0,0,0.7,0,0.7c0,0,0,0.1,0,0.1c-0.2,0.1-0.4,0.2-0.7,0.3c-0.3-0.3-0.5-0.5-0.8-0.8c-0.3-0.1-0.6-0.1-0.8-0.2
		c-0.1,0.1-0.1,0.3-0.2,0.4c0.3,0.3,0.6,0.6,1,1c0,0.3,0,0.6-0.1,0.9c-0.3,0.2-0.6,0.3-0.9,0.5c0.1,0.4,0.1,0.8,0.2,1.1
		c-0.4,0.2-0.8,0.4-1.2,0.6c-0.2,0.4-0.3,0.8-0.5,1.2c0.5,0.2,0.5,0.3,0.2,0.9c-0.2,0.1-0.2,0.1,0.1,0.5c0.1,0.2,0.2,0.5,0.3,0.7
		c0.2,0,0.3-0.1,0.5-0.1c0.1,0.3,0.2,0.7,0.4,1c0.3,0,0.5-0.1,0.8-0.1c0.4,0.2,0.7,0.4,1.1,0.6c0,0.2,0.1,0.4,0.1,0.5
		C238.9,95.3,239.2,95.2,239.5,95.2L239.5,95.2z"/>
	<path fill="#C0A22F" d="M235.4,91.6c0.4-0.1,0.8-0.1,1.1-0.2c0.1,0.3,0.1,0.6,0.2,0.9c0.1,0.1,0.2,0.2,0.4,0.2c0,0.6,0,1.2,0.1,1.8
		c0.1,0,0.2,0.1,0.4,0.1c0-0.2,0.1-0.5,0.1-0.7c0.3-0.1,0.6-0.1,0.9-0.2c0,0.5,0.1,1,0.1,1.4c-0.1,0.1-0.1,0.1-0.2,0.2
		c0,0.1,0,0.2,0,0.2c0.3,0,0.7-0.1,1-0.1c0.1-0.2,0.2-0.3,0.3-0.5c0,0,0.6-0.1,0.6-0.1c0.1,0.2,0.2,0.3,0.3,0.5
		c0-0.2,0.1-0.4,0.1-0.6c0.2-0.1,0.4-0.2,0.6-0.3c0.1,0.2,0.3,0.4,0.4,0.7c0.2-0.1,0.5-0.1,0.7-0.2c-0.1-0.1-0.3-0.3-0.4-0.4
		c-0.1-0.3-0.2-0.6-0.2-0.9c0.4-0.2,0.7-0.5,1.1-0.7c0.1,0.2,0.3,0.4,0.4,0.6c0,0,0.4-0.1,0.4,0c-0.2-0.3-0.3-0.5-0.5-0.8
		c0-0.5,0-1.1,0-1.6c0.3-0.4,0.6-0.8,0.9-1.2c0.4-0.1,0.7-0.2,1.1-0.3c0-0.1,0-0.3,0-0.4c-0.4-0.3-0.7-0.6-1.1-0.9
		c-0.1-0.4-0.2-0.9-0.3-1.3c-0.2-0.1-0.4-0.1-0.7-0.2c0,0.1-0.1,0.1-0.1,0.2c-0.2,0.1-0.5,0.1-0.7,0.2c0.2,0.3,0.5,0.6,0.7,0.9
		c0,0.2,0,0.4,0,0.6c0.1,0,0.2,0.1,0.3,0.1c0,0.6,0,1.2-0.1,1.8c-0.3,0.1-0.5,0.1-0.8,0.2c0,0,0,1,0,1c-0.2,0.2-0.4,0.4-0.5,0.6
		c0,0-0.2,1-0.3,1c-0.1,0.2-0.3,0.4-0.4,0.6c-0.3,0.1-0.6,0.1-0.9,0.2c-0.2-0.1-0.3-0.3-0.5-0.4c0-0.2-0.1-0.4-0.1-0.7
		c0,0-0.3-0.1-0.4-0.1c0-0.3-0.1-0.5-0.1-0.8c-0.2-0.1-0.4-0.1-0.6-0.2c0-0.2,0-0.3,0-0.5c-0.2-0.1-0.3-0.1-0.5-0.2
		c0,0,0-0.4-0.1-0.4c-0.1,0-0.2-0.1-0.2-0.1c-0.1,0-0.1-1.2-0.1-1.2c0.2-0.1,0.3-0.1,0.5-0.2c-0.1-0.1-0.2-0.2-0.2-0.3
		c0-0.1-0.1-0.2-0.1-0.3c0-0.1,0-0.2,0-0.3c0.1-0.2,0.3-0.3,0.4-0.5c-0.3,0-0.5,0-0.8,0c0,0-0.7,0.4-0.7,0.4c0,0,0,1.3,0,1.3
		c-0.3,0.1-0.6,0.2-0.9,0.4c-0.2,0.4-0.4,0.8-0.7,1.2C235.2,91.5,235.3,91.5,235.4,91.6z"/>
	<path fill="#C0A22F" d="M238.4,95.7c0-0.1-0.1-0.2-0.1-0.3c0-0.6,0-1.1,0.1-1.7c-0.2,0.1-0.4,0.2-0.6,0.3c0,0.2,0.1,0.3,0.1,0.5
		c0,0.1,0,0.2-0.1,0.3c-0.2-0.1-0.4-0.1-0.6-0.2c-0.1-0.7-0.1-1.3-0.2-2c-0.2-0.4-0.4-0.8-0.5-1.2c-0.3,0.1-0.7,0.3-1,0.4
		c-0.1-0.1-0.3-0.2-0.4-0.3c0.2-0.5,0.4-1,0.6-1.5c0.3-0.2,0.7-0.3,1-0.5c-0.1,0-0.1-0.9-0.1-0.9c0.2-0.4,0.7-0.7,0.8-0.8
		c0.2-0.1,0.9-0.1,0.9-0.1c-0.1,0.4-0.2,0.8-0.3,1.2c-0.1-0.1-0.3-0.2-0.4-0.2c0.1-0.2,0.3-0.4,0.4-0.7c-0.2,0.1-0.4,0.1-0.5,0.1
		c0.2,0.1-0.3,0.2-0.5,0.4c0,0.2,0,0.5,0,1.2c-0.3,0.2-0.7,0.4-1,0.6c-0.2,0.4-0.4,0.7-0.6,1.1c0.4-0.1,0.9-0.2,1.3-0.3
		c0.1,0.4,0.3,0.7,0.4,1.1c0.2,0.7,0.3,1.4,0.5,2.1c0-0.2,0-0.4,0-0.6c0.3-0.1,0.7-0.3,1.1-0.4c0.1,0.5,0.3,1.1,0.4,1.6
		c0,0.1-0.1,0.1-0.1,0.2c0.4-0.1,0.7-0.2,1.1-0.3c0,0.2,0,0.3-0.1,0.5C239.3,95.5,238.8,95.6,238.4,95.7
		C238.4,95.7,238.4,95.7,238.4,95.7z M241.8,95.1c-0.7-0.7-0.7-0.7-0.7-0.8c-0.1,0.3-0.2,0.6-0.2,0.8c-0.2-0.1-0.4-0.3-0.7-0.4
		c-0.1,0-0.2,0.1-0.3,0.1c0.2-0.1,0.4-0.2,0.5-0.4c0,0.1,0,0.2,0,0.2c0.1,0.1,0.3,0.2,0.4,0.2c0,0,0.1-0.1,0.1-0.1
		c-0.1-0.2-0.1-0.3-0.2-0.5c0.6-0.3,0.6-0.3,0.7-0.3c0.2,0.2,0.6,0.7,0.6,0.7c0.2-0.1,0.4-0.2,0.6-0.3c-0.2,0-0.4,0.1-0.6,0.1
		c-0.1-0.3-0.2-0.7-0.2-1.1c0.4-0.3,0.8-0.6,1.2-0.9c0.1,0.1,0.2,0.1,0.2,0.2c0,0,0,0,0-0.1c0-0.6,0-1.2,0-1.8
		c0.1-0.1,0.1-0.2,0.2-0.3c-0.2,0.1-0.5,0.2-0.6,0.3c0.1,0.1,0,0.8,0,0.8c-0.2,0.2-0.3,0.5-0.5,0.7c-0.4,1.1-0.3,1.1-0.5,1.1
		c0.1,0-0.2,0.5-0.2,0.5c-0.4,0.1-0.7,0.2-1.1,0.3c-0.8-0.5-0.8-0.5-0.8-0.6c0-0.2,0-0.4,0-0.7c-0.3,0.1-0.4,0.1-0.6-0.8
		c-0.2,0-0.4-0.1-0.5-0.1c0-0.2,0-0.4-0.1-0.6c-0.2,0-0.3,0-0.5,0c0-0.2-0.1-0.3-0.1-0.5c-0.4,0-0.4,0-0.4-1.4c0-0.1,0-0.1,0-0.2
		c0.2-0.1,0.5-0.1,0.7-0.2c0,0,0,0,0,0c0.2,0.1,0.3,0.2,0.5,0.3c-0.3,0.1-0.5,0.2-0.8,0.3c0.1,0.1,0.1,0.8,0.1,0.8
		c0.3,0.1,0.3,0.1,0.4,0.7c0.2,0,0.4,0,0.6,0c0,0.2,0,0.4,0,0.6c0.2,0,0.3,0,0.5,0.1c0.1,0.2,0.3,0.8,0.3,0.8
		c0.5,0.2,0.5,0.9,0.5,0.9c0.2,0.1,0.3,0.2,0.5,0.3c0.2,0,0.4-0.1,0.7-0.1c0.3-0.7,0.3-0.7,0.4-0.7c-0.1,0,0.1-0.8,0.1-0.8
		c0.2-0.2,0.3-0.4,0.5-0.6c0-0.3,0-0.6,0-0.9c0-0.2,0-0.2,1-0.5c-0.2-0.8-0.3-1.5-0.5-2.3c-0.2-0.3-0.4-0.5-0.6-0.8
		c0.3-0.2,0.5-0.4,0.8-0.5c0.3,0,0.6,0,0.9,0c0.2,0.5,0.3,1,0.5,1.5c0.3,0.3,0.7,0.5,1,0.8c0,0.2,0,0.4,0,0.5
		c-0.4,0.2-0.9,0.4-1.3,0.6c-0.2,0.3-0.4,0.7-0.6,1c0,0.5,0,1,0,1.4l0,0c0,0,0.4,0.6,0.4,0.7c-0.2,0.2-0.4,0.3-0.5,0.5
		c-0.2-0.3-0.4-0.5-0.6-0.8c-0.2,0.3-0.5,0.5-0.7,0.8c0.2,0.3,0.5,0.6,0.7,0.9C242.4,94.7,242.1,94.9,241.8,95.1L241.8,95.1z
		 M243,86.9c-0.2,0.1-0.5,0.3-0.7,0.4c0.3,0.2,0.5,0.3,0.8,0.5c0.1,0.9,0.2,1.7,0.4,2.6c0.1-0.2,0.3-0.4,0.4-0.7
		c0.4-0.1,0.8-0.3,1.3-0.4c-0.4-0.3-0.8-0.6-1.2-0.9c-0.1-0.5-0.2-1-0.3-1.5C243.4,86.9,243.2,86.9,243,86.9L243,86.9z"/>
	<path fill="#614123" d="M239.8,92.8c0.2-0.1,0.4-0.3,0.6-0.4c0-0.2,0-0.4,0-0.6c-0.2,0-0.4,0-0.6,0c-0.1-0.1-0.1-0.1-0.2-0.2
		c0.2,0,0.4,0,0.6,0c0.3-0.1,0.5-0.1,0.8-0.2c0.1,0,0.2-0.1,0.2-0.1c-0.1,0.3-0.2,0.2-0.2,0.2c0,0-0.4,0.3-0.4,0.3
		c0,0.2,0,0.4,0,0.6c0.4,0,0.9,0,1.3,0c-0.1,0,0,0.2-0.1,0.2c0,0-1.3-0.1-1.3-0.1c-0.3,0.2-0.5,0.4-0.8,0.6
		C239.7,93.1,239.7,92.9,239.8,92.8z"/>
	<path fill="#C0A22F" d="M239.4,93.5c0.1-0.2,0.2-0.5,0.2-0.7c0.2-0.1,0.4-0.3,0.6-0.4c-0.1-0.2-0.1-0.4-0.2-0.6c0.1,0,0.2,0,0.3,0
		c0,0,0,0,0,0c0.2-0.1,0.4-0.2,0.5-0.3c0,0,0,0.1,0,0.1c-0.1,0.1-0.2,0.2-0.4,0.4c0,0.2,0,0.3,0.1,0.5c1.3-0.1,1.3-0.1,1.3-0.1
		c-0.2,0.5-0.3,0.5-1.5,0.4C240.1,92.9,239.7,93.2,239.4,93.5L239.4,93.5z"/>
	<path fill="#C0A22F" d="M243,88.6c-0.3,0.2-0.5,0.4-0.8,0.7c-0.2,0.3-0.3,0.6-0.5,0.9c-0.1,0-0.2,0-0.2,0.1
		c-0.2-0.3-0.5-0.6-0.7-0.9c-0.3,0-0.5,0.1-0.8,0.1c-0.2,0.4-0.3,0.8-0.5,1.3c-0.1,0-0.2,0-0.3,0c-0.3-0.3-0.6-0.5-0.9-0.8
		c0,0-0.3-0.5-0.2-0.5c0,0,2.2-0.3,2.2-0.3c0-0.3,0-0.7,0-1c0,0-0.3-0.1-0.5-0.1c0.1,0,1.2-0.2,1.2-0.2c-0.1,0.1-0.3,0.2-0.4,0.4
		c0,0.3,0,0.6,0,0.8c0.6-0.1,1.2-0.2,1.9-0.2C242.6,88.7,242.8,88.7,243,88.6z"/>
	<path fill="#C0A22F" d="M239.5,91c-0.1,0-0.2,0-0.4,0c-0.4-0.3-0.8-0.6-1.2-0.9c0-0.2-0.1-0.4-0.1-0.6c0.8-0.1,1.6-0.3,2.4-0.4
		c-0.1-0.2-0.2-0.4-0.2-0.7c0.1-0.1,0.2-0.1,0.2-0.2c-0.1,0.1-0.2,0.1-0.2,0.1c-0.3-0.4,0.2-0.5,0.9-0.6c0.3,0,0.5-0.1,0.8-0.1
		c-0.4,0.3-0.7,0.6-1.1,0.9c0,0.2,0.1,0.4,0.1,0.7c0.8-0.2,1.5-0.4,2.3-0.7c-0.4,0.6-0.8,1.3-1.1,1.9c-0.2,0-0.3,0.1-0.5,0.1
		c-0.3-0.3-0.5-0.6-0.8-0.9c-0.2,0.1-0.4,0.1-0.6,0.2c0.1,0-0.2,0.9-0.2,0.9C239.7,90.7,239.6,90.9,239.5,91L239.5,91z M240.4,89.2
		c-0.8,0.2-1.6,0.4-2.3,0.6c0.4,0.3,0.8,0.6,1.2,0.9c0.1-0.2,0.2-0.5,0.4-1.1c0.2-0.1,0.5-0.1,0.7-0.2
		C240.5,89.2,240.4,89.2,240.4,89.2L240.4,89.2z"/>
	<path fill="#614123" d="M239.2,89.6c0,0,0.1,0,0.1,0c0.1,0,0.2,0.1,0.2,0.1c0,0.1,0,0.2,0,0.2c0,0.1-0.1,0.2-0.2,0.2
		c0,0-0.1,0-0.1,0c-0.1,0-0.2,0-0.2-0.1c0-0.1,0-0.1,0-0.2C239,89.8,239,89.6,239.2,89.6L239.2,89.6z"/>
	<path fill="#614123" d="M241.5,89.2c0.1,0,0.1,0,0.2,0c0,0,0.1,0.1,0.1,0.1c0,0.1,0,0.2,0,0.3c0,0-0.1,0.1-0.1,0.1
		c-0.1,0-0.1,0-0.2,0c-0.1,0-0.1,0-0.1,0c0-0.1,0-0.2,0-0.2C241.4,89.4,241.4,89.2,241.5,89.2L241.5,89.2z"/>
	<path fill="#C0A22F" d="M238.1,88.3c-0.1,0-0.2-0.1-0.2-0.1c0-0.1,0-0.1,0-0.2c0.7-0.4,1.3-0.8,2.3-1c1-0.2,1.7-0.2,2.5-0.2
		c-0.9,0.4-1.6,0.4-2.4,0.6C239.3,87.6,238.8,87.9,238.1,88.3L238.1,88.3z"/>
	<path fill="#C0A22F" d="M238.3,86.4c-0.2,0-0.4,0.1-0.7,0.1c-0.3-0.3-0.6-0.6-0.9-0.9c0.2,0,0.3,0,0.5,0c0.2,0.1,0.4,0.1,0.6,0.2
		C238,86.1,238.2,86.3,238.3,86.4z"/>
	<path fill="#C0A22F" d="M238.7,86.6c-0.4,0.1-0.7,0.1-1.1,0.2c-0.5-0.4-1-0.9-1.6-1.3c0.6,0.1,1.2,0.1,1.9,0.2
		C238.2,85.9,238.5,86.3,238.7,86.6L238.7,86.6z"/>
	<path fill="#C0A22F" d="M242.1,85.6c0.5-0.4,1-0.9,1.5-1.3c-0.2,0-0.4,0-0.5,0c-0.2,0.2-0.3,0.4-0.5,0.6c-0.2,0-0.4,0.1-0.7,0.1
		C242,85.1,242.1,85.4,242.1,85.6z"/>
	<path fill="#C0A22F" d="M241.3,85.8c-0.8,0.1-1.5,0.3-2.3,0.4c0-0.1,0-0.1,0-0.2c0.3-0.1,0.6-0.2,0.9-0.2c0-0.1,0-0.2,0.1-0.3
		c0.1,0,0.2,0,0.2,0c0.1,0.1,0.1,0.2,0.2,0.3C240.7,85.7,241,85.7,241.3,85.8C241.3,85.8,241.3,85.8,241.3,85.8z"/>
	<path fill="#C0A22F" d="M238.8,86.5c0-0.2,0-0.3,0-0.5c0.4-0.1,0.7-0.3,1.1-0.4c-0.2,0.1-0.3,0.3-0.5,0.4c0.2-0.1,0.5-0.1,0.7-0.2
		c0-0.1-0.1-0.2-0.1-0.3c0.4,0,0.9-0.1,1.3-0.1c0,0.1,0.1,0.2,0.1,0.3c0,0.1-0.1,0.2-0.1,0.3C240.5,86.2,239.6,86.4,238.8,86.5
		L238.8,86.5z"/>
	<path fill="#C0A22F" d="M241.2,85c-0.3,0-0.5,0.1-0.8,0.1c0-0.1,0-0.3-0.1-0.4C240.6,84.8,240.9,84.9,241.2,85z"/>
	<path fill="#C0A22F" d="M239.9,84.8c0,0.1,0,0.3,0,0.4c-0.3,0.1-0.5,0.2-0.8,0.3C239.3,85.3,239.6,85,239.9,84.8z"/>
	<path fill="#C0A22F" d="M235.4,93.3c0.1-0.3,0.3-0.7,0.4-1c-0.1-0.2-0.2-0.4-0.4-0.6c-0.1,0.4-0.2,0.7-0.3,1.1
		C235.3,92.8,235.4,93,235.4,93.3z"/>
	<path fill="#C0A22F" d="M236.3,93.7c0.2-0.4,0.3-0.8,0.5-1.2c-0.3,0.4-0.6,0.7-0.9,1.1C236,93.6,236.1,93.6,236.3,93.7z"/>
	<path fill="#C0A22F" d="M236.4,94c-0.2-0.1-0.4-0.2-0.7-0.2c0.3-0.4,0.6-0.9,0.9-1.3c-0.2,0.4-0.4,0.9-0.5,1.3c0.1,0,0.2,0,0.3,0
		c-0.1,0-0.1,0-0.2,0c0.2-0.4,0.4-0.9,0.5-1.3C236.5,92.8,236.4,93.4,236.4,94C236.4,94,236.4,94,236.4,94z"/>
	<path fill="#CA212C" d="M255.5,93.6c-0.3,0.3-0.5,0.7-0.8,1c0,0.3,0,0.5,0,0.8c0.5-0.1,1.1-0.2,1.6-0.2c0.5-0.2,0.7-0.5,0.8-0.6
		c0.1-0.3,0-0.4,0.1-0.8C256.7,93.7,256.1,93.7,255.5,93.6z"/>
	<path fill="#D2202C" d="M254.7,95.5c0-0.3,0-0.6-0.1-0.8c0.3-0.4,0.5-0.7,0.8-1.1c0.6,0,1.2,0.1,1.8,0.1c0,0.3,0,0.6-0.1,0.9
		c0,0,0.1,0,0.1,0c-0.1,0.2-0.2,0.5-0.9,0.7C255.8,95.3,255.3,95.4,254.7,95.5L254.7,95.5z"/>
	<path fill="#CA212C" d="M259.4,95.3c-0.2,0.2-0.5,0.4-0.7,0.6c0,0.2,0,0.5-0.1,0.7c0.5,0,1-0.1,1.5-0.1c0.5-0.1,0.6-0.2,0.7-0.4
		c0.2-0.3,0.2-0.3,0.2-0.6C260.4,95.4,259.9,95.3,259.4,95.3z"/>
	<path fill="#D2202C" d="M260,96.7c-0.5,0-1,0-1.5,0.1c0-0.3,0-0.5-0.1-0.8c0.2-0.2,0.5-0.5,0.7-0.7c0.6,0.1,1.1,0.1,1.7,0.2
		c-0.1,0.2-0.2,0.5-0.3,0.7c0,0,0.1,0,0.1,0C260.7,96.4,260.5,96.5,260,96.7L260,96.7L260,96.7z"/>
	<path fill="#CA212C" d="M265.7,92.5c-0.3,0.3-0.5,0.6-0.8,0.9c0,0.2,0,0.4,0,0.6c0.5-0.1,1.1-0.1,1.6-0.2c0.4-0.2,0.4-0.1,0.5-0.5
		c0.2-0.3,0.1-0.3,0.2-0.7C266.8,92.7,266.3,92.6,265.7,92.5z"/>
	<path fill="#D2202C" d="M266.6,94c-0.5,0-1.1,0.1-1.6,0.1c-0.1-0.2-0.1-0.4-0.2-0.6c0.3-0.3,0.6-0.6,0.9-0.9c0.5,0,1.1,0.1,1.6,0.1
		c-0.1,0.3-0.1,0.5-0.2,0.8c0,0,0.1,0,0.1,0C267,93.8,267,93.8,266.6,94L266.6,94L266.6,94z"/>
	<path fill="#CA212C" d="M270.2,93.4c-0.3,0.3-0.6,0.6-0.9,0.8c0,0.2,0,0.5,0,0.7c0.5,0,1.1,0,1.6,0c0.5-0.2,0.6-0.3,0.7-0.6
		c0.1-0.2,0-0.2,0.1-0.6C271.2,93.6,270.7,93.5,270.2,93.4z"/>
	<path fill="#D2202C" d="M271,94.9c-0.6,0-1.1,0.1-1.7,0.1c0-0.3,0-0.5,0-0.8c0.3-0.3,0.5-0.6,0.8-0.9c0.6,0.1,1.2,0.1,1.7,0.2
		c0,0.3,0,0.5-0.1,0.8C271.5,94.6,271.4,94.8,271,94.9L271,94.9L271,94.9z"/>
	<path fill="#CA212C" d="M259.3,75.6c1,0.5,2,1.1,3,1.6c0.6-0.6,1.8-0.4,2.3-0.4c0.8,0.1,1.4,0.5,2.1,0.6c1.3,0.2,3,0.2,4.2-0.1
		c1.2-0.3,2.2-1.1,3.2-1.7c0-0.1,0-0.2,0-0.3c-0.2,0-0.4,0.1-0.6,0.1c-1,0.5-2.3,0.7-3.4,0.7c-1,0-1.3-0.4-2.8-0.7
		c-0.1-0.1-0.1-0.2-0.2-0.2c1.9-0.2,2.3-0.3,3.1-0.7c0.7-0.3,1.1-0.8,1.5-1.2c0-0.1,0-0.2,0-0.3c-0.2,0-0.4,0.1-0.6,0.1
		c-0.7,0.5-1.2,0.7-2.3,0.7c-1.1,0-2-0.4-2.7-0.3c-0.7,0.1-0.7-0.2-1.4-0.2c-1.1,0.1-2.3,0.4-3.3,0.8
		C260.1,74.5,259.9,74.9,259.3,75.6L259.3,75.6z"/>
	<path fill="#B92327" d="M270.2,77.5c-1,0.1-2.2,0.1-3.5,0c-0.4,0-0.7-0.1-1.1-0.3c-0.3-0.1-0.7-0.2-1.1-0.3c-1.1-0.1-1.8,0-2.2,0.3
		c-1.1-0.5-2.1-1-3.2-1.6c0.7-1,1-1.3,2.1-1.8c1.2-0.4,2.4-0.7,3.4-0.8c0.4,0,0.5,0,0.7,0.1c0.2,0.1,0.4,0.2,0.7,0.1
		c0.4-0.1,0.7,0,1.2,0.2c0.4,0.1,0.9,0.2,1.5,0.1c1,0,1.5-0.1,2.3-0.7c0,0,0,0,0,0c0.2,0,0.4,0,0.6,0c0,0,0,0.1-0.1,0.1
		c0,0,0,0,0.1,0c0,0,0,0,0,0.1c-0.1,0-0.1,0.1-0.1,0.1c-0.1,0.2-0.2,0.4-0.2,0.6c-0.3,0.3-0.7,0.7-1.2,0.9c-0.6,0.4-0.9,0.5-1.8,0.6
		c-0.2,0-0.3,0-0.5,0.1c0.2-0.1,0.3-0.2,0.5-0.3c0.8-0.1,1.2-0.2,1.8-0.6c0.5-0.2,0.9-0.5,1.1-0.8c0.1-0.2,0.3-0.3,0.4-0.5
		c-1.4,0.6-1.8,0.8-2.8,0.8c-0.6,0-1.1-0.1-1.5-0.2c-0.4-0.1-0.8-0.1-1.1-0.1c-0.4,0.1-0.6,0-0.7-0.1c-0.2,0-0.3-0.1-0.6-0.1
		c-1.1,0.1-2.2,0.4-3.3,0.8c-1.1,0.5-1.3,0.8-1.8,1.3c0.9,0.6,1.9,1.1,2.8,1.7c0.2-0.3,1.1-0.5,2.2-0.3c0.3,0,0.7,0.2,1.1,0.2
		c0.4,0.2,0.7,0.3,1,0.3c1.5,0.1,3,0.1,4.2-0.1c1-0.2,1.9-0.8,2.7-1.3c0-0.1-0.1-0.2-0.1-0.4c-1.2,0.6-2.5,0.7-3.4,0.7
		c-0.6,0-1-0.1-1.3-0.3c-0.4-0.1-0.8-0.3-1.5-0.4c0.1-0.1,0.2-0.1,0.4-0.2c0.6,0.1,1,0.3,1.3,0.3c0.4,0.1,0.7,0.3,1.2,0.3
		c0.9-0.1,2.2-0.1,3.4-0.7c0.2,0,0.4-0.1,0.7-0.1c-0.1,0.3-0.3,0.5-0.4,0.8c-0.8,0.5-1.7,1.1-2.8,1.3
		C270.7,77.4,270.5,77.5,270.2,77.5C270.2,77.5,270.2,77.5,270.2,77.5z"/>
	<path fill="#83383D" d="M259.9,75c0.3,0,0.6,0.1,0.8,0.2c0.2,0.1,0.1,0.1,0.4,0.3c0-0.2,0-0.2-0.1-0.4c-0.2-0.2-0.5-0.3-0.7-0.4
		C260.2,74.8,260.1,74.9,259.9,75z"/>
	<path fill="#83383D" d="M262.5,76.9c0-0.2-0.1-0.4-0.2-0.7c-0.1-0.2-0.2-0.4-0.4-0.6c0.2,0,0.4,0.1,0.6,0.3
		c0.2,0.2,0.2,0.5,0.2,0.8C262.6,76.8,262.5,76.8,262.5,76.9z"/>
	<path fill="#83383D" d="M263,73.6c0.1,0.2,0.2,0.3,0.4,0.7c0.1,0.3,0.1,0.8,0.1,0.8c0-0.3,0-0.5,0-0.8c0-0.2-0.1-0.5-0.2-0.7
		C263.2,73.6,263.1,73.6,263,73.6z"/>
	<path fill="#83383D" d="M265.5,73.4c0,0.5,0.1,0.9,0.1,1.4c0-0.5,0.1-0.9,0.1-1.4C265.7,73.4,265.6,73.4,265.5,73.4z"/>
	<path fill="#83383D" d="M265,76.5c0-0.2,0-0.5,0-0.7c-0.1-0.2-0.1-0.4-0.2-0.7c0.2,0.2,0.3,0.4,0.4,0.7
		C265.2,76.1,265.1,76.3,265,76.5L265,76.5z"/>
	<path fill="#83383D" d="M267.5,75.5c0,0,0,0.5-0.1,0.8c-0.1,0.4-0.1,0.4-0.4,0.7c0.4-0.3,0.6-0.4,0.7-0.6
		C267.8,76,267.6,75.6,267.5,75.5L267.5,75.5z"/>
	<path fill="#83383D" d="M268,75c-0.2,0.1-0.2-0.6-0.4-1c0.1,0,0.1,0,0.3,0.1C268,74.2,267.9,74.7,268,75L268,75z"/>
	<path fill="#83383D" d="M269.7,74.5c0-0.2,0.1-0.4,0.1-0.7c0.1,0,0.1,0,0.2,0c0,0.2,0,0.3,0,0.5C270,74.4,269.7,74.5,269.7,74.5
		L269.7,74.5z"/>
	<path fill="#83383D" d="M269.6,76.1c0.1,0.2,0.2,0.4,0.3,0.6c0.1,0.2-0.1,0.3-0.2,0.6c0.1,0,0.2,0,0.3,0c0.2-0.3,0.2-0.4,0.2-0.6
		c0-0.2-0.1-0.3-0.4-0.5C269.7,76.1,269.6,76.1,269.6,76.1z"/>
	<path fill="#84373D" d="M270.1,77.4c-0.1,0-0.3,0-0.4,0c0-0.2,0.1-0.5,0.1-0.7c-0.1-0.2-0.2-0.4-0.3-0.6c0,0,0.1,0,0.2,0
		c0,0-0.1,0-0.1,0c0.2,0.2,0.3,0.3,0.5,0.5c0,0.2,0,0.3-0.2,0.5C269.9,77.3,269.9,77.3,270.1,77.4c-0.1-0.1-0.1-0.1-0.2-0.1
		c0.2-0.2,0.2-0.4,0.2-0.6c-0.1-0.2-0.2-0.3-0.2-0.4c0.3,0.1,0.5,0.2,0.5,0.4C270.3,76.9,270.3,77,270.1,77.4
		C270.1,77.4,270.1,77.4,270.1,77.4L270.1,77.4z"/>
	<path fill="#83383D" d="M271.7,76c0,0.3,0,0.6,0.1,0.9c0.1-0.1,0.1-0.1,0.2-0.2c0-0.2,0-0.5,0-0.7C271.8,76,271.8,76,271.7,76z"/>
	<path fill="#F2EB37" d="M259.1,75.7c-0.7,0.3-0.9,0.8-1.2,1.1c-0.7-0.3-1.3-0.5-2-0.8c-0.3,0.3-0.4,0.7-0.3,1.1
		c0.1,0.3,0.8,0.9,1.2,1.1c-0.1,0.6-0.3,1-0.5,1.5c-0.2,0.6-0.7,1.3-0.7,1.5c0,0.2,0,0.7,0.3,0.9c0.3,0.1,1.5-0.3,1.9-0.3
		c-0.1,0.2-0.2,0.6-0.2,0.7c0.1,0.1,0.2,0.2,0.5,0.1c-0.1,0.2-0.3,0.5-0.1,0.6c0.2,0.1,0.5,0.1,0.7,0c-0.1,0.2-0.4,0.4-0.6,0.7
		c-0.4,0.4-0.8,0.9-1,1.1c-0.3,0.5-0.4,1,0.2,0.9c-0.2,0.3-0.4,0.5-0.4,0.8c0.1,0.2,0.2,0.4,0.6,0.2c-0.3,0.6-0.1,1.2,0,1.8
		c-0.2,0.5-0.1,0.9-0.2,1.5c-0.4,0.3-0.5,0.6-0.8,1.2c-0.2,0.6-0.8,0.9-1,2.1c0.6,0.1,1.2,0.1,1.7,0.2c0.1-0.3,0.3-0.5,0.4-0.7
		c0.1-0.3,0.1-0.6,0-0.8c0.4-0.6,1.1-1.7,1.3-2.3c0.4-0.3,0.7-0.5,1-0.5c0.2,0,0.5,0.1,0.8,0.3c-0.1,0.5-0.5,1.1-0.5,1.7
		c0,0.6,0,1.2,0,1.9c-0.1,0.4-0.6,0.5-0.8,1.9c0.5,0.1,1.1,0.1,1.6,0.2c0.3-0.5,0.7-0.6,0.8-0.8c0-0.7,0-1.3,0.1-2
		c0.2-0.9,1.5-1.9,1.5-2.8c0.5-0.1,0.6-0.1,0.8-0.2c0.2-0.1,0.3-0.2,0.5-0.5c0,0.3,0.3,0.3,0.4,0.3c0.2,0,0.7-0.4,0.8-0.5
		c0.1,0.1,0.1,0.3,0.4,0.3c0.2,0,0.9-0.2,1.2-0.2c-0.4,0.8-0.9,1.5-1.3,2.3c-0.1,0.2,0,0.3-0.1,0.6c0,0.3-0.3,0.4-0.3,0.6
		c0.5,0,1,0.1,1.5,0.1c0.1-0.2,0.1-0.4,0.2-0.7c0.4-0.2,0.6-0.3,0.8-0.5c0.1-0.2,0.1-0.6,0.3-0.9c0.5-0.4,1.3-1.4,1.9-2.1
		c0.4,0,0.9,0.3,1.1,0.7c0.1,0.5,0.1,1.4-0.1,2.1c-0.3,0.5-0.6,1.1-0.9,1.6c0,0.1-0.1,0.2-0.1,0.3c0.5,0.1,1,0.2,1.5,0.3
		c0.3-0.3,0.7-0.6,1-0.9c0-0.3,0-0.7,0-1c0.5-0.9,1.2-1.5,1.9-2.1c0,0,0.1-1.2,0.1-1.2c-0.2-0.1-0.3,0-0.3-0.3
		c-0.1-0.2-0.1-0.8,0-1.1c0-0.1,0.2-0.3,0.2-0.4c-0.2-0.2-0.1-1-0.1-1.6c0-0.7,0.9-1.6,1-1.9c0-0.2,0.1-0.5,0.1-0.7
		c-0.1-0.1-0.2-0.2-0.2-0.4c0-0.1,0.1-0.4,0.2-0.6c0.1-0.1,0.2-0.2,0.3-0.3c0-0.6,0-1.2,0-1.8c-0.1-0.2-0.3-0.4-0.4-0.5
		c-0.1,0-0.4,0.2-0.6,0.4c-0.3,0.2-0.6,0.5-0.9,0.7c-0.4,0.2-0.7,0.3-1.5,0.2c-0.4,0.1-0.7,0.1-1.1,0.1c-0.6,0.3-0.9,0.4-1.5,0.2
		c-0.2,0-0.4,0.1-0.7,0.1c-0.3,0.2-0.5,0.4-0.7,0.4c-0.3,0.1-0.5,0.1-0.7,0.1c-1.8,0.3-1.3,0.4-1.8,0.6c-0.4,0-0.2-0.3-1.8,0
		c-0.2,0-0.4-0.1-0.6-0.1c-0.8-0.4-1.4-1.1-1.9-2c1.5-0.7,2.2-1.2,2.7-2.4c-0.8,0.1-1.5,0.3-2.3,0.4
		C261.2,76.9,260.2,76.3,259.1,75.7z"/>
	<path fill="#E8D52C" d="M261.1,95.4c-0.6-0.1-1.1-0.1-1.7-0.2c0.1-1,0.3-1.4,0.6-1.7c0.1-0.7,0.1-1.5,0.2-2.2
		c0-0.5,0.2-0.9,0.3-1.2c-0.2-0.2-0.3-0.4-0.5-0.6c-0.3,0-0.5,0.1-1,0.4c-0.2,0.5-0.9,1.7-1.2,2.3c0,0.1,0.1,0.5,0,0.8
		c-0.2,0.2-0.3,0.5-0.5,0.7c-0.6-0.1-1.2-0.1-1.7-0.2c0-0.9,0.3-1.3,0.6-1.7c0.2-0.3,0.4-0.6,0.5-0.9c0.1-0.3,0.3-0.6,0.6-0.8
		c-0.1,0.5-0.2,0.6-0.4,0.9c-0.3,0.6-0.4,0.8-0.6,1c-0.3,0.3-0.5,0.7-0.7,1.5c0.6,0,1.1,0.1,1.7,0.1c0.1-0.2,0.1-0.4,0.2-0.6
		c0-0.2,0.1-0.5,0-0.8c0.4-0.6,1.1-1.8,1.3-2.4c0.7-0.5,1.2-0.6,1.7-0.4c0.3,0.4,0.2,0.5,0.1,0.8c-0.2,0.3-0.4,0.7-0.4,1.1
		c0,0.6,0,1.2,0,1.9c-0.4,0.7-0.7,1.1-0.8,1.9c0.5,0,1,0.1,1.5,0.1c0.1-0.3,0.4-0.4,0.5-0.6c0.1-0.7,0.2-1.4,0.3-2.1
		c0.1-0.4,0.5-0.9,0.7-1.3c0.4-0.5,0.8-1,0.8-1.5c0.1,0,0.3,0,0.4-0.1c0,0,0.1-0.1,0.1-0.2c0.1,0,0.3,0.1,0.4,0.1
		c-0.3,0-0.5,0.1-0.8,0.1c0,0.5-0.4,1-0.7,1.6c-0.3,0.4-0.6,0.8-0.7,1.2c-0.1,0.6-0.1,1.3-0.2,1.9C261.5,94.8,261.3,95,261.1,95.4
		C261.1,95.3,261.1,95.3,261.1,95.4L261.1,95.4z M271.9,93.5c-0.5-0.1-1.1-0.2-1.6-0.3c0.3-0.7,0.7-1.3,1-2c0.2-0.4,0.2-1.2,0.2-2.1
		c-0.2-0.3-0.7-0.6-1-0.6c-0.5,0.6-1.3,1.6-1.8,2.1c-0.1,0.3-0.2,0.6-0.3,0.9c-0.1,0.2-0.3,0.3-0.6,0.4c-0.1,0.2-0.2,0.5-0.3,0.7
		c-0.5,0-1.1-0.1-1.6-0.1c0.1-0.2,0.2-0.4,0.3-0.6c0,0.1,0,0.2-0.1,0.3c0.4,0.1,0.8,0.2,1.3,0.3c0-0.2,0-0.4,0.1-0.5
		c0.5-0.3,0.7-0.4,0.8-0.6c0.1-0.3,0.2-0.6,0.3-0.9c0.5-0.5,1.3-1.4,1.8-2c0.6,0,1.1,0.2,1.3,0.7c0.1,0.9,0,1.7-0.2,2.2
		c-0.3,0.6-0.7,1.1-1,1.7c0.5,0.2,0.9,0.3,1.4,0.5c0.3-0.3,0.6-0.6,0.9-0.9c0-0.3,0-0.6,0-1c0.4-0.9,1-1.4,1.6-1.9
		c0.3-1.1,0.3-1.3,0.3-1.3c-0.4-0.6-0.4-1.2-0.3-1.4c0-0.6,0.1-1.3,0.1-2c0-0.5,0.4-1,0.7-1.4c0.1-0.2,0.3-0.5,0.4-0.6
		c0-0.2,0-0.5,0-0.7c-0.2-0.5-0.1-0.8,0-1c0.1-0.7,0.1-1.4,0.2-2.1c0,0,0,0,0,0c-0.2,0-0.5,0-0.7,0c-0.3,0.3-0.6,0.5-0.9,0.8
		c-0.4,0.2-0.9,0.3-1.6,0.2c-0.4,0.1-0.7,0.1-1.1,0.1c-0.5,0.2-1,0.3-1.5,0.1c-0.2,0-0.4,0.1-0.6,0.1c-0.3,0.2-0.5,0.3-0.7,0.4
		c-0.2,0-0.5,0-0.7,0c0,0,0,0.1,0,0.1c-1.2,0.3-1.3,0.4-1.5,0.4c-0.2,0-0.4,0.1-0.6,0.1c-0.2,0-0.4-0.1-1.5,0
		c-0.2,0-0.4-0.1-0.6-0.1c-0.7-0.4-1.3-1-1.9-2c1.6-0.8,2.3-1.4,2.7-2.5c-0.7,0.2-1.4,0.3-2.2,0.5c-1.1-0.6-2.2-1.1-3.3-1.7
		c-0.4,0.2-0.7,0.5-0.9,0.8c0,0-0.1,0-0.1,0c0.3-0.4,0.6-0.8,1.1-1c1.1,0.6,2.2,1.1,3.3,1.7c0.7-0.1,1.5-0.3,2.2-0.4
		c-0.4,1.3-1.1,1.9-2.7,2.6c0.7,0.8,1.2,1.5,1.9,1.8c0.2,0,0.4,0,0.6,0.1c1.1-0.1,1.3-0.1,1.6,0c0.6-0.2,0.7-0.3,2-0.6
		c0.2,0,0.5,0,0.7-0.1c0.2-0.1,0.4-0.2,0.6-0.3c0.3-0.1,0.5-0.1,0.8-0.2c0.6,0.1,0.9,0.1,1.4-0.2c0.4-0.1,0.8-0.1,1.2-0.2
		c0.7,0.1,1.1-0.1,1.5-0.2c0.3-0.2,0.6-0.5,0.8-0.7c0.1-0.1,0.4-0.4,0.6-0.5c0.2,0,0.5,0.4,0.5,0.6c0,0.6,0,1.2,0,1.8
		c-0.2,0.3-0.3,0.6-0.5,0.9c0,0.4,0.1,0.8,0.1,1.1c0,0.2-0.2,0.4-0.4,0.6c-0.3,0.4-0.7,0.9-0.7,1.3c-0.1,0.4-0.1,1.4,0.1,1.6
		c-0.3,0.7-0.4,1.3-0.3,1.6c0.4,0.2,0.4,0.2,0.3,1.3c-0.9,0.9-1.5,1.5-1.9,2.3c0,0.3,0,0.7,0,1C272.6,92.9,272.2,93.2,271.9,93.5
		L271.9,93.5z M266.2,91.8L266.2,91.8c0-0.2,0-0.4,0-0.6c0.5-0.8,0.9-1.5,1.4-2.3c-0.2,0.2-0.6,0.3-0.9,0.4
		c-0.2-0.1-0.4-0.2-0.6-0.2c-0.6,0.5-1,0.8-1.3,0.2c0.2,0,0.4,0,0.6,0c0.1,0,0.3-0.1,0.7-0.5c0.2,0.1,0.3,0.2,0.5,0.3
		c0.4-0.1,0.9-0.2,1.2-0.3C267.1,89.8,266.7,90.8,266.2,91.8L266.2,91.8z M257.3,90c0-0.7,0-1,0.2-1.4c-0.2-0.7-0.2-1.2,0-1.7
		c-0.4,0.2-0.6,0.1-0.6-0.1c0-0.2,0.1-0.4,0.3-0.6c0,0.3-0.1,0.4-0.1,0.6c0.1,0,0.1-0.1,0.2-0.1c0.1,0.1,0.2,0.3,0.4,0.4
		c-0.2,0.5-0.1,0.9,0,1.4c-0.1,0.6-0.1,0.9-0.1,1.3C257.5,89.8,257.4,89.9,257.3,90L257.3,90z M257,85.8c-0.2-0.2-0.2-0.4,0-0.6
		c0.1-0.2,0.4-0.6,0.8-0.9c0.3-0.3,0.6-0.6,0.8-0.9c-0.4,0.2-0.5,0.2-0.7,0.1c0.1-0.2,0.1-0.4,0.2-0.6c0,0,0,0.1,0,0.1
		c0.2,0.1,0.4,0.2,0.6,0.3c-0.1,0.2-0.2,0.4-0.3,0.6c-0.7,0.8-1,1.1-1.2,1.4C257,85.4,257,85.6,257,85.8C257,85.8,257,85.8,257,85.8
		z M258.1,82.8c-0.2-0.1-0.4-0.1-0.6-0.2c0-0.2,0-0.4,0.1-0.7c-0.1,0-0.3,0.1-0.5,0.1c-0.3,0.1-0.7,0.2-0.9,0.2
		c-0.8-0.1-0.7-0.7-0.7-0.9c0-0.1,0.1-0.4,0.3-0.7c0.1-0.3,0.2-0.5,0.4-0.8c0.2-0.5,0.4-0.9,0.5-1.4c-0.5-0.1-1.1-0.7-1.2-1
		c-0.1-0.4-0.1-0.8,0.3-1.3c0.4,0.2,0.9,0.3,1.3,0.5c-0.4-0.1-0.9-0.2-1.3-0.3c-0.2,0.3-0.2,0.6-0.1,0.9c0.1,0.3,0.8,0.9,1.2,1.1
		c0,0.7-0.2,1.1-0.4,1.6c-0.1,0.3-0.3,0.6-0.4,0.8c-0.1,0.2-0.2,0.5-0.2,0.5c-0.1,0.5-0.1,0.8,0.1,0.9c0.6,0,0.9-0.1,1.2-0.2
		c0.2,0,0.5-0.1,0.7-0.1C257.9,82,258,82.4,258.1,82.8L258.1,82.8z"/>
	<path fill="#635021" d="M258.3,78.7c0.2,0.1,0.4,0.1,0.6,0.2c0,0.1,0.2,0.1,0.4,0.1c0.1,0,0.1-0.1,0.2-0.2c0.2-0.1,0.4-0.3,0.6-0.4
		c-0.3,0-0.5-0.2-0.8-0.2C258.9,78.3,258.7,78.5,258.3,78.7L258.3,78.7z"/>
	<path fill="#635021" d="M259.3,79.1c-0.4-0.1-0.7-0.3-1.1-0.4c0,0,0,0,0,0c0,0,0,0,0-0.1c0,0,0.1,0,0.1,0c0.5-0.4,0.7-0.4,1-0.5
		c0.2,0.1,0.4,0.1,0.6,0.2c-0.2,0-0.4,0-0.6,0c-0.3,0.1-0.6,0.2-0.8,0.4c0.3,0.1,0.5,0.2,0.8,0.3c0,0,0-0.1,0-0.1c0,0,0,0.1,0,0.1
		c0-0.1,0.1-0.1,0.1-0.2c0.2-0.1,0.4-0.3,0.6-0.4c0,0,0.1,0.1,0.1,0.1C259.9,78.7,259.6,78.9,259.3,79.1L259.3,79.1z"/>
	<path fill="#C0A22F" d="M259.5,86.1c0,0-0.1,0.1-0.1,0.1c0-0.8-0.2-1.3-0.5-1.8C259.2,84.7,259.4,85.4,259.5,86.1L259.5,86.1z"/>
	<path fill="#C0A22F" d="M263.2,85.6c0.1,0,0.3,0,0.4-0.1c0-0.2-0.1-0.4-0.2-0.5c-0.2-0.4-0.4-0.9-0.5-1c0-0.1-0.2,0-0.2,0
		C263,84.4,263.2,85.5,263.2,85.6L263.2,85.6z"/>
	<path fill="#C0A22F" d="M265.3,85.1c0,0-0.3,0-0.4-0.1c0-0.2-0.4-1.6-0.3-1.7c0,0,0.3,0.5,0.4,0.7C265.1,84,265.2,84.7,265.3,85.1
		L265.3,85.1z"/>
	<path fill="#C0A22F" d="M265,88.2c0,0,0.2,0,0.4-0.1c0.3-0.5,0.6-1,0.7-1.2c0.1-0.2,0.4-1.4,0.2-1.4c0,0-0.3,0.7-0.6,1.3
		C265.4,87.5,265,88.1,265,88.2L265,88.2z"/>
	<path fill="#C0A22F" d="M265.1,88.3c0,0-0.1,0-0.1,0c-0.1-0.1-0.1-0.2,0.7-1.6c0.1-0.3,0.3-0.5,0.4-0.8c0.1-0.1,0.1-0.1,0.1-0.1
		c-0.1,0.3-0.3,0.7-0.4,1c-0.6,1-0.7,1.3-0.7,1.3c0,0,0,0,0,0C265.1,88.2,265.1,88.2,265.1,88.3c0.2-0.4,0.4-0.7,0.6-1
		c0.2-0.5,0.5-1.2,0.5-1.4c0.3,0.1,0,1,0,1C265.8,87.4,265.4,87.9,265.1,88.3L265.1,88.3z"/>
	<path fill="#C0A22F" d="M267.1,87.3c-0.1,0,0.2-1.1,0.2-1.3c0.1-0.3,0.1-0.8,0.2-1.5C267.7,85.4,267.6,86.5,267.1,87.3L267.1,87.3z
		"/>
	<path fill="#C0A22F" d="M267.1,87.4c0,0-0.1-0.1-0.1-0.1c-0.1,0-0.1-0.1,0.1-0.9c0.1-0.7,0.2-1.3,0.3-2c0.4,0.9,0.2,2-0.2,2.8
		C267.2,87.3,267.1,87.4,267.1,87.4L267.1,87.4z"/>
	<path fill="#C0A22F" d="M268.3,83.9c0,0-0.9-1.3-0.9-1.3c0.1,0,0.7,0.9,0.9,1C268.3,83.6,268.4,83.7,268.3,83.9L268.3,83.9z"/>
	<path fill="#C0A22F" d="M270.4,84.6c-0.1-0.1-0.1-0.5-0.1-1c-0.2-0.5-0.4-1-0.3-1.1c0-0.1,0.1,0,0.3,0c0,0.3,0.1,1.4,0.3,2
		C270.5,84.6,270.5,84.6,270.4,84.6L270.4,84.6z"/>
	<path fill="#C0A22F" d="M271.8,83.1c0,0,0.2,0.5,0.4,1.1c0.1,0.7,0.3,1.9,0.4,1.8c0.1-0.1,0.1-0.2,0.3-0.3c0.2,0,1-0.1,0.9-0.1
		c-0.5-0.4-0.9-0.7-1.2-1.1C272.3,84.2,272.1,83.6,271.8,83.1L271.8,83.1z"/>
	<path fill="#C0A22F" d="M272.6,86.2c0,0-0.1,0-0.1,0c0-0.2-0.1-0.4-0.1-0.6c-0.1-0.3-0.1-0.9-0.2-1.2c-0.1-0.3-0.2-0.7-0.3-0.9
		c0,0,0,0,0.1,0c-0.1-0.1-0.1-0.1-0.1-0.2c0.1,0.2,0.2,0.3,0.4,0.5c0.2,0.2,0.3,0.5,0.5,0.8c0.3,0.3,0.6,0.6,1,0.9
		C273.3,85.6,273,85.9,272.6,86.2L272.6,86.2z"/>
	<path fill="#FFFFFF" d="M279.2,80c4.5,0.4,8.5,0.9,12.6,1.8c4.1,0.8,7.9,1.9,11.9,3.2c-2.2,4.7-4.4,9.4-6.5,14
		c-3.7-1-7.3-1.7-11-2.4c-3.6-0.7-7.2-1.3-10.8-1.9C276.6,89.8,277.9,84.9,279.2,80z"/>
	<path fill="#FFFFFF" d="M297.1,99.1C297.1,99.1,297.1,99.1,297.1,99.1c-3.2-0.9-6.3-1.5-9.4-2.1c-0.6-0.1-1.1-0.2-1.7-0.3
		c-2.4-0.5-4.9-0.9-7.4-1.3c-1.1-0.2-2.3-0.4-3.4-0.6c1.3-4.9,2.6-9.8,3.9-14.8c4.6,0.3,8.6,0.9,12.6,1.7c4.4,0.8,8.5,2.1,11.8,3.2
		C301.5,89.6,299.3,94.3,297.1,99.1L297.1,99.1z M279.2,80.1c-1.3,4.8-2.5,9.7-3.8,14.5c1.1,0.2,2.3,0.3,3.4,0.5
		c2.4,0.4,4.9,0.9,7.4,1.4c0.5,0.1,1.1,0.2,1.6,0.3c3,0.6,6.1,1.2,9.2,2.1c2.2-4.7,4.4-9.3,6.6-14c-3.4-1-7.4-2.1-11.8-3
		C287.8,81,283.7,80.4,279.2,80.1L279.2,80.1z"/>
	<path fill="#CA212C" d="M278.4,83.2c0,0,6.2,0.6,12.1,1.8c5.9,1.2,11.7,3,11.7,3c0,0-3.7,8.1-3.7,8.1c-3.6-1-7.3-1.9-11.1-2.7
		c-3.7-0.7-7.5-1.4-11.3-1.8C276.9,88.8,277.7,86,278.4,83.2z"/>
	<path fill="#D2202C" d="M298.5,96.1c0,0-0.1,0-0.1,0c-3.5-1-7.2-1.9-11-2.7c-3.5-0.7-7.3-1.4-11.3-1.8c0.7-2.8,1.4-5.7,2.2-8.5
		c0.3-0.1,6.3,0.5,12.2,1.7c3.9,0.8,10.6,2.5,11.7,3c-0.5,0-5.9-1.7-11.7-2.8c-5.9-1.2-12-1.7-12.1-1.8c-0.7,2.8-1.4,5.5-2.1,8.3
		c3.9,0.3,7.7,1,11.2,1.7c3.9,0.7,7.5,1.7,11,2.6c3.3-7.1,3.7-7.9,3.8-8c0.1,0,0.1,0.1,0.1,0.1C302.1,88.2,299.5,93.9,298.5,96.1
		C298.5,96.1,298.5,96.1,298.5,96.1L298.5,96.1z"/>
	<path fill="#010101" d="M278.9,86.9c0.6-0.4,1-0.6,1.4-1.2c0.7-0.1,1.4-0.2,2.1-0.3c0,0.3,0,0.5,0,0.8c0.6,0.1,0.8,0.4,1.4,0.6
		c0.5,0.2,1.3,0.3,1.8,0.5c1.6-0.1,3.1-0.1,4.7-0.2c0.6,0,1.5,0.2,2,0.4c0.6,0.2,0.9,0.6,1.2,1.1c1,0.2,1.9,0.3,2.9,0.3
		c1,0.1,2.2,0,3.2-0.1c0.5,0.1,0.5,0.4,0.3,0.7c0,0-0.5,0.7-2,0.9c-1.4,0.2-3-0.4-3.8-0.2c0.1,0.4,0.8,1.2,1.6,1.5c0,0.7,0,1.4,0,2
		c-0.1,0.1-0.3,0.3-0.4,0.4c-0.2-0.1-0.3-0.2-0.5-0.2c0.4-0.5,0.3-1.1,0.1-1.6c-0.3-0.4-0.3-0.6-0.9-0.6c-0.7-0.1-1.2-0.2-2.2-0.7
		c-0.1,0-0.2,0.1-0.3,0.1c-0.2,0.3-0.4,0.6-0.9,0.9c-0.3,0-0.6,0-0.8,0.1c-0.7-0.1-1.4-0.2-2.1-0.2c0,0-0.1-0.3,0-0.4
		c0.1,0,0.7-0.1,0.7-0.1c0.5,0.1,1.4,0,1.4,0c0-0.3,0-0.5,0-0.8c0.5-0.1,0.9-0.2,1.4-0.3c-0.2-0.9-0.4-1.6-1.7-1.6
		c-1.4,0.2-2.8,0.4-4.1,0.7c0,0.2,0,0.4,0,0.6c-0.9,0-2.9,0.2-3.8,0.6c-0.5,0.1-1.4,0.5-1.7,0.5c-0.1,0-0.3,0-0.4-0.1
		c-0.3,0-0.3-0.1-0.2-0.4c1.8-0.3,2.1-0.5,2.6-0.8c0-0.2-0.1-0.5-0.2-0.5c-1.2,0.1-2,0.3-2.3,0.2c-0.5-0.1-1.2-0.3-1.2-0.3
		c0,0,0-0.4,0-0.4c0.2,0,0.5,0,0.7,0.1c0.7,0.1,2.1-0.1,2.4-0.3c0-0.2,0-0.4,0-0.6c0-0.3-0.2-0.5-0.2-0.5c-0.1,0-1.2,0-1.7,0.1
		C278.8,87.6,278.9,87.2,278.9,86.9C278.9,86.9,278.9,86.9,278.9,86.9z"/>
	<path fill="#010101" d="M295.4,94.4c-0.2-0.1-0.3-0.2-0.5-0.3c0.3-0.6,0.2-1.1,0-1.6c-0.3-0.5-0.4-0.6-0.8-0.5
		c-0.7-0.1-1.2-0.2-2-0.6c1,0.2,1.4,0.3,2,0.4c0.6,0,0.7,0.1,0.9,0.5c0.3,0.7,0.4,1.3,0,1.8c0.1,0.1,0.3,0.1,0.4,0.2
		c0,0-0.1,0-0.1-0.1c0.1-0.1,0.3-0.3,0.4-0.4c0-0.7,0-1.3,0-2c-0.8-0.2-1.6-1-1.7-1.5c0.6-0.2,1.1-0.1,1.6,0
		c0.7,0.1,1.5,0.2,2.3,0.2c1.4-0.2,1.9-0.9,1.9-0.9c-1.1-0.4-2.3-0.3-3.3-0.4c-1,0-2-0.1-2.9-0.3c-0.3-0.5-0.7-0.9-1.2-1.1
		c-0.6-0.2-1.4-0.3-2-0.4c-1.6,0.1-3.1,0.1-4.7,0.2c-0.3-0.1-0.6-0.2-0.9-0.3c-0.4-0.1-0.7-0.1-1-0.2c-0.3-0.1-0.5-0.2-0.7-0.3
		c-0.2-0.1-0.4-0.2-0.7-0.3c0-0.3-0.1-0.5-0.1-0.8c-0.7,0.1-1.3,0.2-2,0.3c-0.3,0.4-0.5,0.6-1,0.8c-0.3,0.6-0.3,0.8,0.1,0.8
		c0.1-0.1,1.6-0.1,1.7,0c0,0,0.3,0.3,0.3,0.6c0,0.2,0,0.4,0,0.6c-0.5,0.4-1.8,0.5-2.5,0.5c-0.2,0-0.3-0.1-0.5-0.1
		c0,0,0.1-0.1,0.1-0.1c1.7,0.2,2.4-0.1,2.7-0.3c0-0.2,0-0.3,0-0.5c-0.3-0.5-1.4-0.4-1.8-0.4c-0.7-0.1-0.7-0.4-0.7-0.7c0,0,0,0,0-0.1
		c0.1-0.1,0.3-0.2,0.4-0.3c0.4-0.3,0.7-0.5,1-0.9c0.8-0.1,1.5-0.2,2.3-0.3c0,0.3,0.1,0.6,0.1,0.9c0.2,0,0.4,0.1,0.7,0.2
		c0.2,0.1,0.3,0.3,0.7,0.3c0.2,0.1,0.5,0.2,0.8,0.3c0.3,0.1,0.6,0.2,0.9,0.3c1.6-0.1,3.1-0.1,4.7-0.2c0.6,0,1.6,0.1,2.1,0.5
		c0.5,0.2,0.9,0.6,1.2,1.1c0.9,0.2,1.8,0.3,2.8,0.3c1,0.1,2.2,0,3.2-0.1c0,0,0.1,0,0.1,0c0.1,0.1,0.3,0.2,0.4,0.3
		c-0.2,0.5-0.7,1.3-2.2,1.5c-0.7,0.1-1.6,0-2.3-0.2c-0.5-0.1-0.9-0.2-1.3-0.1c0,0.3,0.7,1.1,1.5,1.3c0,0.7,0,1.5,0,2.2
		C295.7,94,295.5,94.2,295.4,94.4L295.4,94.4z M290.8,92.3c-0.3,0-0.7,0-1,0.1c-2.2-0.3-2.2-0.3-2.2-0.3c0.1-0.5,0.1-0.6,0.9-0.7
		c0.5,0.1,1.4,0,1.4,0c0-0.2-0.1-0.5-0.1-0.7c0.3-0.1,0.6-0.2,0.9-0.2c-0.3,0.1-0.5,0.2-0.8,0.3c0,0.2,0.1,0.5,0.1,0.7
		c-0.1,0.1-1.1,0.2-1.6,0.1c-0.3,0-0.6,0.1-0.7,0.1c0.1,0.2,2.1,0.4,2.1,0.4c0.3,0,0.6,0,0.9-0.1c0.4-0.3,0.5-0.5,0.7-0.8
		c0.1,0,0.2,0,0.2,0.1C291.5,91.7,291.3,92,290.8,92.3L290.8,92.3z M291.3,90.3c-0.4-0.8-0.5-1.3-1.6-1.4c-1.4,0.2-2.8,0.4-4.1,0.6
		c0,0.1,0.1,0.3,0.1,0.4c-0.6,0.2-1.1,0.2-1.7,0.3c-1,0.1-1.7,0.3-2.2,0.5c-0.3,0.1-0.6,0.2-1,0.3c-0.3,0.1-0.6,0.2-0.8,0.3
		c-0.2-0.1-0.5-0.2-0.7-0.2c0.2-0.1,0.2-0.1,0.4-0.1c0.1,0.1,0.3,0.2,0.4,0.3c0,0,0-0.1,0-0.1c0.2,0,0.5-0.1,0.8-0.3
		c0.3-0.1,0.6-0.2,0.9-0.3c0.7-0.3,1.7-0.5,2.2-0.5c0.6-0.1,1.2-0.1,1.6-0.1c-0.1-0.1-0.1-0.3-0.2-0.4c1.4-0.3,2.8-0.5,4.3-0.8
		c1.3,0.1,1.5,0.6,1.8,1.5C291.4,90.2,291.3,90.3,291.3,90.3L291.3,90.3z M280.3,90.7c1-0.5,1.3-0.7,1.7-0.9
		c-0.4-0.1-0.7-0.2-1.1-0.3c-0.2,0-0.4,0.1-0.7,0.1c-0.3,0-0.5,0.1-0.8,0.1c-0.3,0-1.2-0.2-1.2-0.4c0.1-0.1,0.1-0.1,0.2-0.2
		c0.2,0.2,0.7,0.3,1,0.3c0.3,0,0.5-0.1,0.8-0.1c0.2,0,0.4-0.1,0.7-0.1c0.3,0,0.6,0,0.9,0c0.1,0,0.4,0.4,0.3,0.6
		C281.7,90.3,281.3,90.4,280.3,90.7L280.3,90.7z"/>
	<path fill="#FFFFFF" d="M287.9,90.6c0.6,0.2,1,0.2,2,0.1c0.5-0.1,0.9-0.2,1.4-0.3c-0.2-0.9-0.4-1.6-1.7-1.6
		c-1.4,0.2-2.8,0.4-4.1,0.7c0,0.2,0,0.4,0,0.6C286.8,90.3,287.5,90.5,287.9,90.6L287.9,90.6z"/>
	<path fill="#010101" d="M289.9,90.8L289.9,90.8c-1,0.1-1.4,0.1-2.1-0.1c-0.7-0.2-1.3-0.4-2.3-0.6c0-0.2-0.1-0.4-0.1-0.6
		c1.4-0.3,2.8-0.5,4.3-0.8c1.3,0.1,1.5,0.6,1.8,1.5c0,0-0.1,0-0.1,0.1c-0.4-0.8-0.5-1.3-1.6-1.4c-1.4,0.2-2.8,0.4-4.1,0.6
		c0,0.1,0.1,0.3,0.1,0.4c1,0.2,1.5,0.4,1.9,0.5c0.9,0.2,1.4,0.2,2.3,0.2c0.4-0.1,0.7-0.2,1.1-0.2C290.7,90.5,290.3,90.7,289.9,90.8
		L289.9,90.8z"/>
	<path fill="#2B3580" d="M206.1,108.8c-2.5-8.9-5-17.9-7.5-26.8c3.8-5.1,7.6-10.2,11.4-15.2c5.3,2.3,10.6,4.6,15.9,6.9
		c0.9,9.7,1.8,19.4,2.8,29C220.5,104.4,215.2,106,206.1,108.8L206.1,108.8z"/>
	<path fill="#2E2C74" d="M206,108.9c0,0,0-0.1,0-0.1c-2.5-8.9-5-17.8-7.5-26.8c3.8-5.1,7.6-10.3,11.4-15.4c5.4,2.3,10.7,4.6,16,6.9
		c0.9,9.7,1.8,19.4,2.7,29.1c-8.3,1.9-13.7,3.5-22.6,6.2C206,108.9,206,108.9,206,108.9L206,108.9z M209.9,66.8
		c-3.8,5.1-7.5,10.2-11.3,15.2c2.5,8.9,4.9,17.7,7.4,26.6c8.9-2.7,14.3-4.3,22.5-6c-0.9-9.6-1.9-19.3-2.8-28.9
		C220.5,71.4,215.2,69.1,209.9,66.8L209.9,66.8z"/>
	<path fill="#F2EB37" d="M179.4,88.9c0.9,0.6,1.8,1.2,2.7,1.8c-0.2,1.3-0.3,2.5-0.5,3.8c1.2-0.6,2.3-1.2,3.5-1.9
		c0.9,0.6,1.9,1.2,2.8,1.8c0.1-1.1,0.3-2.3,0.4-3.4c1-0.5,1.9-1,2.9-1.5c-0.8-0.7-1.6-1.3-2.4-2c0.2-1.1,0.3-2.3,0.5-3.4
		c-1.2,0.5-2.3,1.1-3.5,1.6c0-0.1-2.5-1.8-2.5-1.8c0,0.1-0.6,3.3-0.6,3.3C181.7,87.8,180.6,88.4,179.4,88.9z"/>
	<path fill="#F3C525" d="M188,94.6c-1-0.6-2-1.2-3-1.9c-1.2,0.6-2.3,1.2-3.5,1.9c0.1-1.3,0.2-2.6,0.4-3.9c-0.9-0.5-1.8-1.1-2.7-1.6
		c1.1-0.7,2.3-1.3,3.4-2c0.5-3.2,0.5-3.2,0.5-3.2c0.1,0,2.6,1.7,2.7,1.7c0.1-0.1,3.3-1.6,3.3-1.6c-0.1,1.2-0.2,2.4-0.4,3.6
		c0.8,0.6,1.6,1.3,2.4,1.9c-1,0.6-2,1.1-2.9,1.7C188.2,92.3,188.1,93.5,188,94.6L188,94.6z M185.1,92.5c0.9,0.6,1.8,1.2,2.7,1.7
		c0.1-1.1,0.3-2.2,0.4-3.3c1-0.5,2-1.1,2.9-1.6c-0.8-0.6-1.6-1.1-2.4-1.7c0.2-1.2,0.3-2.4,0.5-3.6c-3.3,1.8-3.3,1.8-3.4,1.8
		c-0.2-0.1-2.4-1.8-2.5-1.8c0.1,0.1-0.4,3.2-0.4,3.2c-1.2,0.6-2.3,1.2-3.5,1.9c0.9,0.5,1.9,1,2.8,1.6c-0.2,1.3-0.3,2.6-0.5,3.9
		C182.8,93.8,184,93.2,185.1,92.5L185.1,92.5z"/>
	<path fill="#F2C325" d="M179.4,89c3.9,0.2,7.8,0.3,11.7,0.5c-1,0.5-1.9,1-2.9,1.5c-0.9-0.5-1.9-1.1-2.8-1.6c0,0,2.5,5,2.5,4.9
		c0,0-2.7-1.6-2.8-1.7c0.1-1.1,0.2-2.2,0.2-3.2c-1.2,1.7-2.4,3.4-3.7,5.1c0-0.1,0.5-3.8,0.5-3.8C181.3,90.1,180.4,89.5,179.4,89z"/>
	<path fill="#F3C525" d="M182.7,87.2c0.9,0.7,1.8,1.3,2.7,2c-0.7-1.8-1.4-3.6-2.1-5.3C183.1,85,182.9,86.1,182.7,87.2z"/>
	<path fill="#F3C525" d="M185.8,85.8c0.1,0-0.4,3.4-0.4,3.4c0.2-0.4,3.9-5.1,3.8-5.1C189.2,84.1,185.9,85.8,185.8,85.8L185.8,85.8z"
		/>
	<path fill="#F2EB37" d="M290.7,69.5c0.2,1.1,0.5,2.2,0.7,3.3c-0.9,0.9-1.9,1.9-2.8,2.8c1.2,0.2,2.4,0.5,3.6,0.7
		c0.2,1.1,0.5,2.2,0.7,3.3c0.8-0.9,1.7-1.8,2.5-2.7c1,0.2,2,0.4,3,0.6c-0.1-1.1-0.2-2.1-0.3-3.2c0.9-0.9,1.8-1.7,2.7-2.6
		c0,0-3.5-0.8-3.5-0.9c0,0-0.5-3.1-0.6-3.1c-0.1,0-2.5,2.4-2.5,2.4C293.1,69.9,291.9,69.7,290.7,69.5z"/>
	<path fill="#F3C525" d="M292.9,79.8c-0.3-1.2-0.5-2.3-0.8-3.5c-1.2-0.2-2.4-0.4-3.6-0.6c0.9-1,1.9-2,2.8-3
		c-0.2-1.1-0.5-2.1-0.7-3.2c1.2,0.2,2.4,0.3,3.6,0.5c2.4-2.4,2.4-2.4,2.5-2.4c0.1,0.1,0.7,3.2,0.6,3.3c0.2,0,3.5,0.7,3.5,0.7
		c-0.9,0.9-1.7,1.8-2.6,2.7c0.1,1,0.2,2.1,0.3,3.1c-1-0.2-2.1-0.3-3.1-0.5C294.6,77.9,293.8,78.9,292.9,79.8L292.9,79.8z
		 M290.7,69.6c0.3,1,0.6,2.1,0.8,3.1c-1,1-2,2-2.9,3c1.2,0.2,2.4,0.3,3.6,0.5c0.2,1.1,0.5,2.1,0.7,3.2c0.8-0.8,1.6-1.7,2.4-2.5
		c1,0.2,2.1,0.4,3.1,0.6c-0.2-1-0.4-2.1-0.5-3.1c0.9-0.9,1.8-1.8,2.7-2.7c-3.5-0.7-3.5-0.7-3.5-0.7c0-0.2-0.5-3-0.5-3.1
		c0,0.2-2.4,2.4-2.4,2.4C293.1,70,291.9,69.8,290.7,69.6L290.7,69.6z"/>
	<path fill="#F3C525" d="M290.8,69.6c2.6,2.6,5.1,5.3,7.7,7.9c-1-0.2-2-0.4-3-0.6c-0.3-1.1-0.5-2.1-0.8-3.2c0,0-1.6,5.8-1.6,5.8
		c0,0-0.8-3.1-0.8-3.2c0.8-0.9,1.6-1.8,2.4-2.6c-2,0.6-4,1.3-6,1.9c0.1,0,2.9-2.8,2.9-2.8C291.3,71.7,291,70.6,290.8,69.6z"/>
	<path fill="#F3C525" d="M294.2,70.1c0.2,1.1,0.4,2.3,0.6,3.4c0.7-2,1.3-3.9,2-5.8C295.9,68.5,295.1,69.3,294.2,70.1z"/>
	<path fill="#F3C525" d="M297.2,70.9c0,0.1-2.5,2.6-2.5,2.6c0.4-0.2,6-1.8,6-1.8C300.7,71.7,297.3,70.9,297.2,70.9L297.2,70.9z"/>
	<path fill="#CA212C" d="M198.7,82.1c4-2.4,8.6-4.5,13.4-5.9c4.6-1.3,9.2-1.9,13.9-2.6c0.2,2.4,0.4,4.8,0.6,7.2
		c-3.7,0.6-6.5,0.9-13,2.6c-6.6,1.8-9.2,2.9-13.2,4.9C199.8,86.3,199.2,84.2,198.7,82.1z"/>
	<path fill="#D2202C" d="M200.4,88.5c-0.6-2.1-1.2-4.2-1.8-6.3c4.6-2.8,9-4.8,13.5-6c4.1-1.1,8.1-1.8,13-2.4c0.3,0,0.6-0.1,0.9-0.1
		c0.1,0.1,0.7,7.2,0.7,7.2c-0.4,0.1-0.8,0.2-1.1,0.4c-3.2,0.4-6,0.8-12,2.4C207,85.3,204.3,86.4,200.4,88.5
		C200.4,88.5,200.4,88.5,200.4,88.5L200.4,88.5z M225.9,73.7c-0.3,0.1-0.5,0.1-0.8,0.2c-4.9,0.7-8.9,1.3-13,2.4
		c-4.5,1.2-8.9,3.2-13.3,5.9c0.6,2,1.2,4,1.8,6c3.9-2,6.6-3.1,13.1-4.9c5.9-1.6,8.8-2,12-2.4c0.3,0,0.7-0.1,1-0.1
		C226.4,80.8,225.9,73.7,225.9,73.7L225.9,73.7z"/>
	<path fill="#CA212C" d="M202.1,94.5c-0.1,0,2.1,7.4,2.1,7.4c3.8-1.5,7.8-2.7,11.8-3.9c3.9-1.1,8.2-2,12-2.8
		c-0.2-2.5-0.4-4.9-0.7-7.4c-4.1,0.4-8.6,1-12.8,2.1C210.3,91,206.3,92.5,202.1,94.5L202.1,94.5z"/>
	<path fill="#D2202C" d="M204.1,101.9C204.1,101.9,204,101.9,204.1,101.9c-2.1-7.4-2.1-7.5-2.1-7.5c4.3-2,8.4-3.5,12.5-4.6
		c3.7-1,8.5-1.7,12.8-2.1c0.3,2.5,0.5,5,0.8,7.5c-3.8,0.9-8,1.8-12.1,2.9c-4.1,1.1-8.1,2.4-11.8,3.8
		C204.2,101.9,204.1,101.9,204.1,101.9L204.1,101.9z M222.2,88.5c-2.8,0.4-5.4,0.9-7.7,1.5c-4,1-8.1,2.6-12.3,4.5
		c0.1,0.2,1.3,4.4,2.1,7.2c3.7-1.4,7.7-2.7,11.8-3.8c4-1.1,8.3-2,12-2.8c-0.3-2.4-0.5-4.9-0.8-7.3C225.6,88.1,223.9,88.2,222.2,88.5
		C222.2,88.5,222.2,88.5,222.2,88.5z"/>
	<path fill="#FFFFFF" d="M183.5,120.4c37.6-4.4,75.3-10.5,112.9-14.9c0,24.1,0,48.3,0,72.4c-2.9,28.4-29.9,52.9-54.7,56.3
		c-26.7,5-56.3-13.2-58.3-41.6C183.4,168.5,183.4,144.5,183.5,120.4z"/>
	<path fill="#CA212C" d="M239.7,235c-25.2,3.6-54.6-13.1-56.8-42.3c0.1-24,0.2-48.1,0.2-72.1c37.8-4.5,75.5-10.8,113.3-15.4
		c0.1,24.2,0.3,48.5,0.4,72.7c-3,29.4-31.4,53.4-54.9,56.7C241.1,234.7,240.3,234.9,239.7,235L239.7,235z M296.1,105.5
		c-37.5,4.5-75.1,10.8-112.6,15.3c0.1,23.9,0.2,47.8,0.3,71.7c2.1,29.5,32.6,46,57.9,41.3c23.5-3.4,51.4-26.9,54.4-55.9
		C296.1,153.8,296.1,129.7,296.1,105.5L296.1,105.5z"/>
	<path fill="#CA212C" d="M185.9,122.7c36.1-4.3,72.1-10.1,108.2-14.4c0,23.1,0,46.3,0,69.4c-2.8,27.3-28.8,50.8-52.5,54
		c-25.6,4.8-53.9-12.6-56-39.8C185.7,168.8,185.8,145.7,185.9,122.7z"/>
	<path fill="#CA212C" d="M239.7,232.4c-24.1,3.5-52.3-12.5-54.5-40.5c0.1-23.1,0.1-46.1,0.2-69.2c36.2-4.4,72.4-10.4,108.6-14.8
		c0.1,23.2,0.2,46.5,0.4,69.7c-2.8,28.2-30,51.2-52.6,54.4C241,232.2,240.3,232.3,239.7,232.4L239.7,232.4z M293.7,108.3
		c-35.9,4.4-71.9,10.3-107.8,14.7c0,22.9,0.1,45.8,0.1,68.8c2.1,28.2,31.4,44,55.6,39.5c22.5-3.2,49.3-25.8,52.1-53.6
		C293.7,154.6,293.7,131.4,293.7,108.3L293.7,108.3z"/>
	<path fill="#FFFFFF" d="M207.6,120.3c7.2-0.9,14.3-1.9,21.5-2.9c0,7.7,0,15.4,0,23.2c-7.2,1-14.3,2-21.5,2.9
		C207.6,135.7,207.6,128,207.6,120.3z"/>
	<path fill="#FFFFFF" d="M272.4,180.9c0,7.6,0,15.2,0,22.8c4-0.5,8.1-1,12.1-1.5c5.9-9.5,8.4-18.4,9-24
		C293.4,178.2,272.4,180.9,272.4,180.9L272.4,180.9z"/>
	<path fill="#FFFFFF" d="M284.6,202.4c-4.1,0.5-8.1,1-12.2,1.5c0-7.6-0.1-15.3-0.1-22.9c3.4-0.5,6.7-1,10.1-1.4
		c3.7-0.5,7.4-0.9,11.1-1.4C293.3,180.9,291.9,190.4,284.6,202.4C284.6,202.3,284.6,202.3,284.6,202.4L284.6,202.4z M272.4,181
		c0,7.6,0.1,15.2,0.1,22.7c4-0.5,8-1.1,12-1.6c7.3-11.8,8.7-21.3,8.9-23.9c-3.7,0.5-7.3,0.9-11,1.4
		C279.1,180.1,275.7,180.6,272.4,181L272.4,181z"/>
	<path fill="#FFFFFF" d="M250.9,206.9c0,7.3,0,14.6,0,21.9c9.3-3.1,16.9-8.8,21.3-12.6c0-4.1,0-8.2-0.1-12.3
		C265,205,257.9,205.9,250.9,206.9z"/>
	<path fill="#FFFFFF" d="M250.8,229.1c0-7.4,0-14.7,0-22.1c7.1-1,14.2-2.1,21.3-3c0.1,4.1,0.1,8.3,0.2,12.4
		c-4.8,4.2-12.3,9.6-21.4,12.7C250.9,229,250.8,229,250.8,229.1L250.8,229.1z M272,204.1c-7,1-14.1,2-21.1,3c0,7.2,0,14.5,0,21.7
		c9-3.1,16.5-8.5,21.2-12.5C272.1,212.2,272,208.1,272,204.1L272,204.1z"/>
	<path fill="#FFFFFF" d="M207.8,212.9c0,4.1,0,8.2,0.1,12.3c7.3,4.2,15.7,6.2,21.3,6.6c0-7.2,0-14.5,0-21.7
		C222,211,214.9,211.9,207.8,212.9z"/>
	<path fill="#FFFFFF" d="M229.2,231.8c0,0-0.1,0-0.1,0c-5.4-0.4-13.8-2.3-21.3-6.6c0-4.1,0-8.2-0.1-12.3c7.1-1,14.3-2,21.4-3
		C229.1,217.2,229.2,224.5,229.2,231.8L229.2,231.8z M229,210c-7.1,1-14.1,2-21.2,3c0.1,4,0.1,8.1,0.2,12.1
		c7.4,4.2,15.7,6.1,21.1,6.5C229,224.4,229,217.2,229,210L229,210z"/>
	<path fill="#FFFFFF" d="M186.3,192.5c0.7,8.9,4.7,16.4,8.7,21.5c4.2-0.4,8.4-0.9,12.5-1.4c0-7.6,0-15.2,0-22.8
		C200.5,190.8,193.4,191.7,186.3,192.5z"/>
	<path fill="#FFFFFF" d="M207.6,212.8C207.6,212.8,207.6,212.8,207.6,212.8c-4.3,0.5-8.4,0.9-12.6,1.3c-3-3.8-8.1-11.5-8.9-21.6
		c7.1-0.9,14.3-1.8,21.4-2.8C207.6,197.4,207.6,205.1,207.6,212.8L207.6,212.8z M207.5,189.8c-7.1,1-14.1,1.9-21.2,2.8
		c0.9,9.9,5.9,17.6,8.9,21.4c4.1-0.4,8.2-0.9,12.4-1.4C207.5,205,207.5,197.4,207.5,189.8L207.5,189.8z"/>
	<path fill="#FFFFFF" d="M186.2,146.1c7.2-0.9,14.3-1.8,21.5-2.7c0,7.7,0,15.4,0,23.1c-7.2,0.9-14.3,1.9-21.5,2.7
		C186.2,161.5,186.2,153.8,186.2,146.1z"/>
	<path fill="#FFFFFF" d="M229.2,140.5c7.2-1,14.4-2,21.6-3c0,7.7,0,15.4,0,23.1c-7.2,1-14.4,2-21.6,3
		C229.2,155.9,229.2,148.2,229.2,140.5z"/>
	<path fill="#FFFFFF" d="M250.7,114.2c7.2-1,14.3-2,21.5-2.9c0,7.7,0,15.4,0,23.1c-7.2,0.9-14.3,1.9-21.5,2.9
		C250.7,129.6,250.7,121.9,250.7,114.2z"/>
	<path fill="#FFFFFF" d="M272.3,134.5c7.2-0.9,14.3-1.9,21.5-2.7c0,7.7,0,15.4,0,23.1c-7.2,0.9-14.3,1.8-21.5,2.7
		C272.3,149.9,272.3,142.2,272.3,134.5z"/>
	<path fill="#FFFFFF" d="M207.6,166.5c7.2-0.9,14.3-1.9,21.5-2.9c0,7.7,0,15.4,0,23.1c-7.2,1-14.3,2-21.5,2.9
		C207.6,182,207.6,174.3,207.6,166.5z"/>
	<path fill="#FFFFFF" d="M250.7,160.6c7.2-1,14.3-2,21.5-2.9c0,7.7,0,15.4,0,23.1c-7.2,0.9-14.3,1.9-21.5,2.9
		C250.7,176,250.7,168.3,250.7,160.6z"/>
	<path fill="#FFFFFF" d="M229.2,186.7c7.2-1,14.4-2,21.6-3c0,7.7,0,15.4,0,23.2c-7.2,1-14.4,2-21.6,3
		C229.2,202.2,229.2,194.5,229.2,186.7z"/>
	<path fill="#C0A22F" d="M261.3,85.5c-0.1,0.1-0.3-1-0.3-1.1c-0.1-0.3-0.2-0.8-0.4-1.5C261.1,83.7,261.4,84.7,261.3,85.5L261.3,85.5
		z"/>
	<path fill="#C0A22F" d="M261.3,85.6c-0.1,0-0.2-0.1-0.3-0.8c-0.2-0.6-0.4-1.2-0.5-1.8c0.7,0.6,1.1,1.6,1,2.5
		C261.3,85.6,261.3,85.6,261.3,85.6L261.3,85.6z"/>
</g>
</svg>
