<svg version="1.1" id="ind" name="india" xmlns="http://www.w3.org/2000/svg" xmlns:xlink="http://www.w3.org/1999/xlink" x="0px" y="0px"
	 viewBox="0 0 480 320" enable-background="new 0 0 480 320" xml:space="preserve">
<g id="flag-ind">
	<path fill="#FFFFFF" d="M0,300c160,44.8,320-44.8,480,0c0-93.3,0-186.6,0-280C320-24.8,160,64.8,0,20C0,113.3,0,206.7,0,300z"/>
	<path fill="#EF943D" d="M0,113.3c160,44.8,320-44.8,480,0c0-31.1,0-62.2,0-93.3C320-24.8,160,64.8,0,20C0,51.1,0,82.2,0,113.3z"/>
	<path fill="#3F8940" d="M0,300c160,44.8,320-44.8,480,0c0-31.1,0-62.2,0-93.3c-160-44.8-320,44.8-480,0C0,237.8,0,268.9,0,300z"/>
</g>
<g id="crest">
	<path fill="#2E2C73" d="M240,118c-23.2,3.3-42,24.5-42,47.7c0,23.2,18.8,39.6,42,36.3c23.2-3.3,42-24.6,42-47.7
		C282,131.1,263.2,114.8,240,118 M240,122.1c-0.4,7.1-0.7,14.2-1.1,21.3c0.4,3.9,0.8,7.9,1.1,11.8c0.4-4,0.7-8.1,1.1-12.1
		C240.8,136.1,240.4,129.1,240,122.1c1.2-0.2,2.3-0.2,3.3-0.3c0,0,0,0.1-0.1,0.1c0,1,0.8,1.7,1.7,1.6c0.9-0.1,1.6-0.9,1.7-1.8
		c1.1,0.1,2,0.1,3.1,0.3c-2.2,7-4.3,14-6.5,21c-0.7,4.1-1.4,8.1-2.1,12.2c1.4-4,2.8-8,4.2-12c1.5-7.1,3-14.2,4.5-21.2
		c1,0.2,2,0.3,3,0.6c0,0.2-0.1,0.4-0.1,0.6c0,0.9,0.8,1.6,1.8,1.5c0.7-0.1,1.3-0.6,1.6-1.3c1,0.3,1.9,0.7,2.8,1.1
		c-3.8,6.4-7.6,12.8-11.5,19.3c-1.7,3.9-3.4,7.8-5.1,11.7c2.3-3.6,4.7-7.2,7-10.9c3.2-6.7,6.4-13.4,9.6-20.1
		c0.9,0.4,1.8,0.8,2.6,1.3c-0.2,0.3-0.4,0.7-0.4,1.2c0,0.9,0.8,1.6,1.8,1.5c0.6-0.1,1.1-0.4,1.4-0.9c0.8,0.6,1.6,1.2,2.3,1.9
		c-5.2,5.4-10.4,10.8-15.6,16.3c-2.6,3.5-5.2,6.9-7.8,10.4c3.1-3,6.2-6,9.3-9c4.7-5.9,9.4-11.8,14.1-17.6c0.7,0.7,1.5,1.3,2.1,2.1
		c-0.4,0.4-0.6,0.9-0.6,1.4c0,1,0.8,1.6,1.7,1.5c0.4-0.1,0.7-0.2,1-0.5c0.6,0.8,1.2,1.6,1.7,2.5c-6.3,4-12.5,8.1-18.8,12.2
		c-3.3,2.8-6.6,5.6-9.9,8.4c3.7-2.2,7.3-4.4,11-6.6c5.9-4.7,11.8-9.3,17.7-14c0.6,0.9,1.1,1.9,1.5,2.8c-0.6,0.4-1.1,1.1-1.1,1.8
		c0,0.9,0.8,1.6,1.7,1.5c0.2,0,0.4-0.1,0.7-0.3c0.3,0.9,0.6,1.9,0.9,2.8c-6.9,2.3-13.8,4.7-20.6,7.1c-3.8,1.9-7.5,3.8-11.3,5.8
		c4-1.2,7.9-2.4,11.9-3.7c6.7-3.1,13.4-6.1,20.1-9.1c0.3,0.8,0.5,1.9,0.7,2.9c-0.9,0.2-1.5,1-1.5,1.9c0,1,0.8,1.6,1.7,1.5
		c0.1,0,0.1,0,0.2,0c0.1,1,0.1,2.1,0.1,3.1c-7,0.6-14,1.2-21.1,1.8c-4,0.9-8,1.8-12.1,2.7c4-0.2,8-0.3,12.1-0.5
		c7-1.3,14-2.7,21.1-3.9c0,1.1,0,2.2-0.1,3.2c0,0-0.1,0-0.2,0c-1,0.1-1.7,1.1-1.7,2c0,0.9,0.6,1.5,1.5,1.5c-0.2,1.1-0.4,2.1-0.7,3.2
		c-2.4-0.5-4.8-0.9-7.2-1.3c-4.3-0.8-8.6-1.6-12.9-2.4c-4-0.1-7.9-0.3-11.9-0.4c0,0,0,0,0,0c0,0,0,0,0,0c3.8,0.9,7.5,1.7,11.3,2.6
		c6.9,0.5,13.8,1.1,20.6,1.6c-0.2,1.1-0.6,2.2-1,3.1c-0.1,0-0.2,0-0.2,0l0,0c-0.2,0-0.3,0-0.4,0c-1,0.1-1.8,0.9-1.8,2
		c0,0.3,0,0.4,0.1,0.6l0,0c0.1,0.3,0.3,0.5,0.5,0.6l0,0c0,0,0.1,0,0.1,0l0,0c0,0.1,0.1,0.1,0.2,0.1l0,0c0,0,0.1,0,0.1,0.1
		c-0.5,1-1,2-1.5,3c-5.9-3-11.8-6.1-17.7-9.1c0,0,0,0,0,0c-3.7-1.2-7.3-2.3-11-3.5c0,0,0,0,0,0c1.9,1.1,3.8,2.1,5.7,3.2
		c1.4,0.8,2.7,1.5,4.1,2.3l0,0c6.3,2.3,12.5,4.7,18.8,7.1c-0.6,1-1.1,2-1.7,3c-0.3-0.1-0.6-0.2-1-0.2c-1,0.1-1.8,1-1.8,1.9
		c0,0.6,0.3,1,0.7,1.3c-0.7,0.9-1.4,1.7-2.1,2.6c-4.7-4.6-9.4-9.2-14.1-13.7c-3.1-2.1-6.2-4.3-9.3-6.4c2.6,2.8,5.2,5.5,7.7,8.3
		c5.2,4,10.4,8,15.6,12c-0.7,0.9-1.5,1.6-2.3,2.4c-0.4-0.2-0.7-0.3-1.1-0.3c-1,0.1-1.7,1.1-1.7,2c0,0.3,0.1,0.5,0.1,0.8
		c-0.9,0.7-1.9,1.4-2.8,2.2c-3.2-5.8-6.4-11.6-9.6-17.4c-2.3-3-4.7-6-7-9l0,0c1.7,3.4,3.4,6.9,5,10.3c3.8,5.4,7.7,10.8,11.5,16.2
		c-0.9,0.6-1.9,1.2-2.8,1.8c-0.2-0.6-0.9-0.9-1.5-0.8c-1,0.1-1.8,1.1-1.8,2c0,0.2,0.1,0.4,0.1,0.6c-1,0.5-2,0.9-3,1.3
		c-1.5-6.7-3-13.4-4.5-20.1c-1.4-3.5-2.8-7.1-4.2-10.6c0,0,0,0,0-0.1c0.7,3.9,1.4,7.7,2.1,11.6c2.2,6.4,4.3,12.8,6.5,19.2
		c-1.1,0.4-2.1,0.9-3.1,1.1c-0.1-0.8-0.9-1.3-1.7-1.2c-1,0.1-1.7,1-1.7,1.9c0,0.1,0,0.2,0,0.2c-1.1,0.3-2.1,0.4-3.2,0.6
		c0.4-7.1,0.7-14.1,1.1-21.2c-0.4-4-0.8-7.9-1.1-11.9c-0.4,4.1-0.7,8.1-1.1,12.2c0.4,7,0.7,13.9,1.1,20.9c-1.1,0.2-2.1,0.3-3.2,0.3
		c0-0.1,0-0.1,0-0.2c0-0.9-0.8-1.6-1.8-1.4c-0.8,0.1-1.5,0.9-1.7,1.7c-1.1,0-2.1-0.1-3-0.3c2.2-7,4.3-14,6.5-21
		c0.7-4,1.3-8.1,2-12.1c-1.4,3.9-2.8,7.9-4.2,11.8c-1.5,7.1-2.9,14.2-4.4,21.3c-1-0.1-2-0.3-3-0.5c0.1-0.2,0.1-0.5,0.1-0.7
		c0-0.9-0.8-1.6-1.7-1.5c-0.7,0.1-1.3,0.6-1.7,1.3c-0.9-0.3-1.9-0.7-2.8-1.1c3.8-6.5,7.7-12.9,11.5-19.4c1.7-3.9,3.3-7.8,5-11.7
		c-2.3,3.6-4.7,7.2-7,10.9c-3.2,6.7-6.4,13.4-9.6,20.1c-0.9-0.5-1.8-0.9-2.7-1.4c0.2-0.3,0.3-0.6,0.4-1c0-1-0.8-1.7-1.7-1.6
		c-0.6,0.1-1.1,0.4-1.3,0.8c-0.8-0.6-1.6-1.1-2.3-1.8c5.2-5.4,10.5-10.9,15.7-16.3c2.6-3.5,5.1-6.9,7.7-10.4l0,0c-3.1,3-6.2,6-9.3,9
		c-4.7,5.9-9.5,11.7-14.2,17.6c-0.8-0.6-1.5-1.4-2.2-2c0.4-0.4,0.7-0.9,0.7-1.5c0-1-0.8-1.6-1.7-1.4c-0.4,0.1-0.7,0.2-1,0.4
		c-0.6-0.7-1.2-1.6-1.7-2.5c6.3-4,12.5-8.1,18.8-12.2c3.3-2.7,6.5-5.5,9.8-8.2c-3.7,2.2-7.3,4.4-11,6.5c-5.9,4.6-11.8,9.3-17.7,13.9
		c-0.5-0.8-1-1.7-1.4-2.6c0.7-0.3,1.1-1,1.1-1.7c0-1-0.7-1.7-1.8-1.5c-0.2,0-0.5,0.1-0.7,0.3c-0.3-0.9-0.7-1.9-1-3
		c6.9-2.4,13.8-4.8,20.7-7.2c3.8-1.9,7.6-3.8,11.4-5.8c-4,1.2-8,2.5-12,3.7c-6.7,3.1-13.4,6.1-20.1,9.2c-0.3-1-0.5-1.9-0.7-3
		c0.9-0.2,1.5-1,1.5-1.9c0-1-0.8-1.6-1.7-1.5c0,0-0.1,0-0.2,0c-0.1-1-0.1-2.1-0.1-3.2c7-0.5,14.1-1.1,21.1-1.7c4-0.9,8-1.9,12-2.8
		c-4,0.2-8,0.4-12,0.6c-7,1.3-14.1,2.6-21.1,3.8c0-1,0.1-2.1,0.1-3.1c0.1,0,0.2,0,0.3,0c1-0.1,1.8-1,1.8-2c0-0.9-0.7-1.5-1.6-1.5
		c0.2-1,0.4-2.2,0.7-3.1c6.7,1.3,13.4,2.5,20.1,3.7c4,0.1,8,0.2,12,0.3c-3.8-0.9-7.6-1.7-11.4-2.6c-6.9-0.5-13.8-1.1-20.7-1.6
		c0.3-1.1,0.6-2.1,1-3.1c0.2,0,0.5,0,0.6,0c1-0.1,1.7-1,1.7-2c0-0.7-0.4-1.3-1-1.4c0.5-1.1,0.9-2.1,1.5-3.1
		c5.9,3.1,11.8,6.1,17.7,9.2c3.7,1.2,7.4,2.3,11,3.5c-3.3-1.9-6.6-3.8-9.9-5.7c-6.3-2.3-12.5-4.7-18.8-7.1c0.5-1,1.1-1.9,1.7-3
		c0.3,0.3,0.7,0.3,1,0.3c0.9-0.1,1.7-1,1.7-2c0-0.5-0.3-1-0.6-1.3c0.6-0.8,1.3-1.7,2.1-2.6c4.7,4.6,9.5,9.2,14.2,13.7
		c3.1,2.1,6.2,4.3,9.3,6.4c-2.6-2.8-5.1-5.5-7.7-8.3c-5.2-4-10.5-8-15.7-12c0.8-0.9,1.5-1.7,2.3-2.4c0.3,0.3,0.8,0.6,1.3,0.5
		c1-0.1,1.8-1,1.8-2c0-0.4-0.2-0.7-0.4-1c0.9-0.6,1.8-1.4,2.7-2c3.2,5.8,6.4,11.6,9.6,17.4c2.3,3,4.7,5.9,7,8.9
		c-1.7-3.4-3.3-6.9-5-10.3c-3.8-5.4-7.7-10.7-11.5-16.1c0.9-0.7,1.9-1.3,2.8-1.9c0.3,0.6,0.9,1,1.6,0.9c1-0.1,1.7-1,1.7-1.9
		c0-0.3-0.1-0.5-0.1-0.7c0.9-0.5,2-1,3-1.4c1.5,6.7,3,13.3,4.5,20c1.4,3.6,2.8,7.2,4.2,10.8c-0.7-3.9-1.3-7.7-2-11.6
		c-2.2-6.4-4.3-12.8-6.5-19.2c1-0.5,2-0.8,3.1-1.1c0.1,0.8,0.8,1.4,1.7,1.3c1-0.1,1.8-1.1,1.8-2.1c0,0,0-0.1,0-0.2
		C237.8,122.4,238.9,122.3,240,122.1"/>
	<path fill="#FFFFFF" d="M240.1,153.7c3.5-0.5,6.2,2,6.2,5.4c0,3.5-2.8,6.7-6.2,7.2c-3.5,0.5-6.3-2-6.3-5.4
		C233.8,157.5,236.5,154.2,240.1,153.7"/>
	<path fill="#2E2C73" d="M240.1,155.2c2.6-0.4,4.8,1.4,4.8,4.1c0,2.7-2.2,5.2-4.8,5.6c-2.7,0.4-4.9-1.5-4.9-4.2
		C235.1,158,237.3,155.6,240.1,155.2"/>
</g>
</svg>
