<svg version="1.1" id="irn" name="iran" xmlns="http://www.w3.org/2000/svg" xmlns:xlink="http://www.w3.org/1999/xlink" x="0px" y="0px"
	 viewBox="0 0 480 320" enable-background="new 0 0 480 320" xml:space="preserve">
<g id="flag-irn">
	<path fill="#FFFFFF" d="M1.1,300.4c160,44.8,320-44.8,480,0c0-93.3,0-186.6,0-280c-160-44.8-320,44.8-480,0
		C1.1,113.7,1.1,207,1.1,300.4z"/>
	<path fill="#49A146" d="M0,113.6c160,44.8,320-44.8,480,0c0-31.2,0-62.4,0-93.6C320-24.8,160,64.8,0,20C0,51.2,0,82.4,0,113.6z"/>
	<path fill="#C52328" d="M0,300c160,44.8,320-44.8,480,0c0-31.2,0-62.3,0-93.5c-160-44.8-320,44.8-480,0C0,237.7,0,268.8,0,300z"/>
</g>
<g id="crest">
	<path fill="#C52328" d="M240,126.3c-1.7,1.6-3.4,3.2-5.1,4.8c0.3,22,0.6,44,1,66c1.4,1.4,2.8,2.8,4.1,4.2c1.4-1.8,2.8-3.6,4.2-5.4
		c0.3-22.1,0.6-44.2,1-66.3C243.4,128.6,241.7,127.5,240,126.3z"/>
	<path fill="#C52328" d="M250.2,117.8c-2.1,3.6-6.3,5.3-9.6,3.6c-0.2-0.1-0.4-0.1-0.5-0.2c-3.1,2.7-7.5,2.7-9.8,0
		c-0.1-0.2-0.2-0.4-0.4-0.5c-0.8,3.4,1.1,6.4,4.3,6.8c2.1,0.3,4.3-0.6,5.9-2.4c2.3,2,6.1,1.5,8.5-1.1
		C250.1,122.2,250.7,119.8,250.2,117.8"/>
	<path fill="#C52328" d="M252.7,126.7c13.5,16.6,9.5,43-8.9,59.1c-8.5,7.3-18.9,11.5-29.3,11.7c19.6,5.3,41.9-7.5,49.8-28.2
		C270.6,152.8,265.9,135.4,252.7,126.7"/>
	<path fill="#C52328" d="M227.2,130.3c-13.5,20.3-9.5,45.6,8.9,56.6c8.5,5,18.9,6.2,29.3,3.6c-19.6,10.6-41.9,4.2-49.8-14.4
		C209.3,161.2,214.1,142.7,227.2,130.3"/>
	<path fill="#C52328" d="M257.5,124.8c18.4,10.9,22.6,36.2,9.1,56.5c-0.7,1-1.4,2-2.1,2.9c16-10.7,21.8-31.3,13.2-46.1
		C273.5,130.8,266.1,125.9,257.5,124.8"/>
	<path fill="#C52328" d="M222.5,129.7c-18.4,16-22.6,42.3-9.1,59c0.6,0.8,1.4,1.7,2.1,2.3c-15.9-6.4-21.9-25.6-13.2-42.6
		C206.6,140,213.8,133.2,222.5,129.7"/>
</g>
<g id="banderole">
	<path fill="#FFFFFF" d="M1.1,109.4c0.7,0.2,1.5,0.4,2.2,0.6c0-1.5,0-3,0-4.4c2.2,0.6,4.4,1.1,6.6,1.7c0,1.5,0,3,0,4.4
		c3.6,0.9,7.3,1.7,10.9,2.5c0-2.2,0-4.4,0-6.7c-2.2-0.5-4.4-0.9-6.5-1.4c0,0.7,0,1.5,0,2.2c1.4,0.3,2.9,0.7,4.3,1c0,0.8,0,1.5,0,2.3
		c-2.2-0.5-4.3-1-6.5-1.5c0-1.5,0-3,0-4.5c-3.6-0.9-7.3-1.8-10.9-2.8C1.1,104.9,1.1,107.1,1.1,109.4z M5.5,110.5
		c0.7,0.2,1.4,0.4,2.2,0.6c0-0.7,0-1.5,0-2.2c-0.7-0.2-1.4-0.4-2.2-0.6C5.5,109.1,5.5,109.8,5.5,110.5z M1.1,100.5
		c9.5,2.6,18.9,4.8,28.4,6.5c0-0.7,0-1.5,0-2.2c-9.5-1.7-18.9-3.9-28.4-6.5C1.1,99,1.1,99.7,1.1,100.5z M29.4,115.9
		c-2.2-0.4-4.4-0.8-6.6-1.3c0-2.2,0-4.4,0-6.7c2.9,0.6,5.8,1.1,8.8,1.7c0-1.5,0-3,0-4.5c0.7,0.1,1.4,0.3,2.1,0.4c0,3,0,6,0,9
		c0.7,0.1,1.5,0.2,2.2,0.4c0-3,0-6,0-9c0.7,0.1,1.5,0.2,2.2,0.4c0,3,0,6,0,9c0.7,0.1,1.5,0.2,2.2,0.3c0-3,0-6,0-9
		c0.7,0.1,1.4,0.2,2.1,0.3c0,3.7,0,7.4,0,11.2c-3.6-0.5-7.2-1.1-10.9-1.7c0-1.5,0-3,0-4.4c-2.2-0.4-4.4-0.8-6.6-1.2
		c0,0.8,0,1.5,0,2.3c1.5,0.3,2.9,0.6,4.4,0.8C29.4,114.4,29.4,115.1,29.4,115.9z"/>
	<path fill="#FFFFFF" d="M44.7,118.3c0.7,0.1,1.5,0.2,2.2,0.3c0-1.5,0-3,0-4.4c2.2,0.3,4.3,0.6,6.5,0.8c0,1.5,0,3,0,4.4
		c3.6,0.4,7.3,0.8,10.9,1.1c0-2.2,0-4.4,0-6.7c-2.2-0.2-4.4-0.4-6.5-0.6c0,0.7,0,1.5,0,2.2c1.4,0.1,2.9,0.3,4.3,0.4
		c0,0.8,0,1.5,0,2.3c-2.2-0.2-4.4-0.4-6.5-0.6c0-1.5,0-3,0-4.5c-3.6-0.4-7.3-0.8-10.9-1.3C44.7,113.9,44.7,116.1,44.7,118.3z
		 M49.1,118.9c0.7,0.1,1.4,0.2,2.2,0.3c0-0.7,0-1.5,0-2.2c-0.7-0.1-1.4-0.2-2.2-0.3C49.1,117.4,49.1,118.2,49.1,118.9z M44.7,109.4
		c9.5,1.3,18.9,2.2,28.4,2.8c0-0.7,0-1.5,0-2.2c-9.5-0.6-18.9-1.5-28.4-2.8C44.7,107.9,44.7,108.7,44.7,109.4z M73.1,121.1
		c-2.2-0.1-4.4-0.3-6.6-0.5c0-2.2,0-4.4,0-6.7c2.9,0.2,5.8,0.4,8.7,0.6c0-1.5,0-3,0-4.5c0.7,0,1.5,0.1,2.2,0.1c0,3,0,6,0,9
		c0.7,0,1.5,0.1,2.2,0.1c0-3,0-6,0-9c0.7,0,1.4,0.1,2.2,0.1c0,3,0,6,0,9c0.7,0,1.5,0.1,2.2,0.1c0-3,0-6,0-9c0.7,0,1.5,0.1,2.2,0.1
		c0,3.7,0,7.4,0,11.2c-3.6-0.1-7.3-0.3-10.9-0.5c0-1.5,0-3,0-4.4c-2.2-0.1-4.4-0.3-6.5-0.4c0,0.8,0,1.5,0,2.3
		c1.5,0.1,2.9,0.2,4.4,0.3C73.1,119.7,73.1,120.4,73.1,121.1z"/>
	<path fill="#FFFFFF" d="M88.4,121.8c0.7,0,1.5,0,2.2,0.1c0-1.5,0-3,0-4.4c2.2,0,4.3,0.1,6.5,0.1c0,1.5,0,3,0,4.4
		c3.6,0,7.3,0,10.9,0c0-2.2,0-4.4,0-6.7c-2.2,0-4.4,0-6.6,0c0,0.7,0,1.5,0,2.2c1.5,0,2.9,0,4.4,0c0,0.8,0,1.5,0,2.3
		c-2.2,0-4.4,0-6.6,0c0-1.5,0-3,0-4.5c-3.6,0-7.3-0.1-10.9-0.2C88.4,117.4,88.4,119.6,88.4,121.8z M92.7,121.9c0.7,0,1.4,0,2.2,0
		c0-0.7,0-1.5,0-2.2c-0.7,0-1.4,0-2.2,0C92.7,120.5,92.7,121.2,92.7,121.9z M88.4,112.9c9.5,0.3,18.9,0.2,28.4,0c0-0.7,0-1.5,0-2.2
		c-9.5,0.3-18.9,0.3-28.4,0C88.4,111.4,88.4,112.2,88.4,112.9z M116.7,121.8c-2.2,0.1-4.4,0.1-6.6,0.2c0-2.2,0-4.4,0-6.7
		c2.9,0,5.8-0.1,8.7-0.2c0-1.5,0-3,0-4.5c0.7,0,1.4,0,2.1-0.1c0,3,0,6,0,9c0.7,0,1.5-0.1,2.2-0.1c0-3,0-6,0-9c0.7,0,1.5-0.1,2.2-0.1
		c0,3,0,6,0,9c0.7,0,1.4-0.1,2.1-0.1c0-3,0-6,0-9c0.7,0,1.4-0.1,2.1-0.1c0,3.7,0,7.4,0,11.2c-3.6,0.2-7.3,0.3-10.9,0.5
		c0-1.5,0-3,0-4.4c-2.2,0.1-4.4,0.1-6.6,0.2c0,0.8,0,1.5,0,2.3c1.5,0,2.9-0.1,4.4-0.1C116.7,120.3,116.7,121,116.7,121.8z"/>
	<path fill="#FFFFFF" d="M132,121.1c0.7,0,1.5-0.1,2.2-0.1c0-1.5,0-3,0-4.4c2.2-0.1,4.3-0.3,6.5-0.4c0,1.5,0,3,0,4.4
		c3.6-0.2,7.3-0.5,10.9-0.8c0-2.2,0-4.4,0-6.7c-2.2,0.2-4.4,0.4-6.6,0.5c0,0.7,0,1.5,0,2.2c1.4-0.1,2.9-0.2,4.3-0.3
		c0,0.8,0,1.5,0,2.3c-2.2,0.2-4.4,0.3-6.5,0.5c0-1.5,0-3,0-4.5c-3.6,0.3-7.3,0.5-10.9,0.7C132,116.7,132,118.9,132,121.1z
		 M136.4,120.9c0.7,0,1.4-0.1,2.2-0.1c0-0.7,0-1.5,0-2.2c-0.7,0-1.4,0.1-2.2,0.1C136.4,119.4,136.4,120.1,136.4,120.9z M132,112.2
		c9.5-0.5,18.9-1.2,28.4-2.1c0-0.7,0-1.5,0-2.2c-9.5,0.9-18.9,1.6-28.4,2.1C132,110.7,132,111.5,132,112.2z M160.3,119
		c-2.2,0.2-4.4,0.4-6.6,0.6c0-2.2,0-4.4,0-6.7c2.9-0.2,5.8-0.5,8.8-0.8c0-1.5,0-3,0-4.5c0.7-0.1,1.5-0.1,2.2-0.2c0,3,0,6,0,9
		c0.7-0.1,1.4-0.1,2.1-0.2c0-3,0-6,0-9c0.7-0.1,1.5-0.2,2.2-0.2c0,3,0,6,0,9c0.7-0.1,1.5-0.2,2.2-0.2c0-3,0-6,0-9
		c0.7-0.1,1.4-0.2,2.1-0.2c0,3.7,0,7.4,0,11.2c-3.6,0.4-7.3,0.8-10.9,1.1c0-1.5,0-3,0-4.4c-2.2,0.2-4.4,0.4-6.6,0.6
		c0,0.8,0,1.5,0,2.3c1.5-0.1,2.9-0.3,4.4-0.4C160.3,117.5,160.3,118.3,160.3,119z"/>
	<path fill="#FFFFFF" d="M175.6,117.4c0.7-0.1,1.5-0.2,2.2-0.2c0-1.5,0-3,0-4.4c2.2-0.2,4.3-0.5,6.5-0.7c0,1.5,0,3,0,4.4
		c3.6-0.4,7.3-0.9,10.9-1.3c0-2.2,0-4.4,0-6.7c-2.2,0.3-4.4,0.5-6.6,0.8c0,0.7,0,1.5,0,2.2c1.5-0.2,2.9-0.4,4.4-0.5
		c0,0.8,0,1.5,0,2.3c-2.2,0.3-4.3,0.5-6.5,0.8c0-1.5,0-3,0-4.5c-3.6,0.4-7.3,0.9-10.9,1.3C175.6,113,175.6,115.2,175.6,117.4z
		 M180,116.9c0.7-0.1,1.4-0.2,2.1-0.2c0-0.7,0-1.5,0-2.2c-0.7,0.1-1.4,0.2-2.1,0.2C180,115.5,180,116.2,180,116.9z M175.6,108.5
		c9.5-1,18.9-2.2,28.4-3.4c0-0.7,0-1.5,0-2.2c-9.5,1.2-18.9,2.4-28.4,3.4C175.6,107,175.6,107.8,175.6,108.5z M204,114
		c-2.2,0.3-4.4,0.6-6.6,0.8c0-2.2,0-4.4,0-6.7c2.9-0.4,5.8-0.7,8.7-1.1c0-1.5,0-3,0-4.5c0.7-0.1,1.5-0.2,2.2-0.3c0,3,0,6,0,9
		c0.7-0.1,1.5-0.2,2.2-0.3c0-3,0-6,0-9c0.7-0.1,1.5-0.2,2.2-0.3c0,3,0,6,0,9c0.7-0.1,1.5-0.2,2.2-0.3c0-3,0-6,0-9
		c0.7-0.1,1.4-0.2,2.2-0.3c0,3.7,0,7.4,0,11.2c-3.6,0.5-7.3,1-10.9,1.5c0-1.5,0-3,0-4.4c-2.2,0.3-4.4,0.6-6.6,0.9c0,0.8,0,1.5,0,2.3
		c1.5-0.2,2.9-0.4,4.4-0.6C204,112.5,204,113.3,204,114z"/>
	<path fill="#FFFFFF" d="M219.2,112c0.7-0.1,1.5-0.2,2.2-0.3c0-1.5,0-3,0-4.4c2.2-0.3,4.3-0.6,6.5-0.9c0,1.5,0,3,0,4.4
		c3.6-0.5,7.3-1,10.9-1.5c0-2.2,0-4.4,0-6.7c-2.2,0.3-4.3,0.6-6.5,0.9c0,0.7,0,1.5,0,2.2c1.4-0.2,2.9-0.4,4.3-0.6c0,0.8,0,1.5,0,2.3
		c-2.2,0.3-4.3,0.6-6.5,0.9c0-1.5,0-3,0-4.5c-3.6,0.5-7.3,1-10.9,1.5C219.2,107.5,219.2,109.7,219.2,112z M223.6,111.3
		c0.7-0.1,1.4-0.2,2.1-0.3c0-0.7,0-1.5,0-2.2c-0.7,0.1-1.4,0.2-2.1,0.3C223.6,109.9,223.6,110.6,223.6,111.3z M219.2,103
		c9.5-1.3,18.9-2.6,28.4-4c0-0.7,0-1.5,0-2.2c-9.5,1.3-18.9,2.7-28.4,4C219.2,101.5,219.2,102.3,219.2,103z M247.6,108
		c-2.2,0.3-4.4,0.6-6.6,0.9c0-2.2,0-4.4,0-6.7c2.9-0.4,5.8-0.8,8.8-1.2c0-1.5,0-3,0-4.5c0.7-0.1,1.4-0.2,2.1-0.3c0,3,0,6,0,9
		c0.7-0.1,1.5-0.2,2.2-0.3c0-3,0-6,0-9c0.7-0.1,1.5-0.2,2.2-0.3c0,3,0,6,0,9c0.7-0.1,1.5-0.2,2.2-0.3c0-3,0-6,0-9
		c0.7-0.1,1.4-0.2,2.2-0.3c0,3.7,0,7.4,0,11.2c-3.6,0.5-7.2,1-10.9,1.5c0-1.5,0-3,0-4.4c-2.2,0.3-4.4,0.6-6.6,0.9c0,0.8,0,1.5,0,2.3
		c1.5-0.2,2.9-0.4,4.4-0.6C247.6,106.5,247.6,107.3,247.6,108z"/>
	<path fill="#FFFFFF" d="M262.9,105.9c0.7-0.1,1.5-0.2,2.2-0.3c0-1.5,0-3,0-4.4c2.2-0.3,4.4-0.6,6.6-0.9c0,1.5,0,3,0,4.4
		c3.6-0.5,7.3-1,10.9-1.4c0-2.2,0-4.4,0-6.7c-2.2,0.3-4.3,0.6-6.5,0.8c0,0.7,0,1.5,0,2.2c1.5-0.2,2.9-0.4,4.4-0.6c0,0.8,0,1.5,0,2.3
		c-2.2,0.3-4.4,0.6-6.6,0.9c0-1.5,0-3,0-4.5c-3.6,0.5-7.3,1-10.9,1.5C262.9,101.4,262.9,103.7,262.9,105.9z M267.3,105.3
		c0.7-0.1,1.5-0.2,2.2-0.3c0-0.7,0-1.5,0-2.2c-0.7,0.1-1.5,0.2-2.2,0.3C267.3,103.8,267.3,104.6,267.3,105.3z M262.9,97
		c9.5-1.3,18.9-2.5,28.4-3.7c0-0.7,0-1.5,0-2.2c-9.5,1.1-18.9,2.4-28.4,3.7C262.9,95.5,262.9,96.2,262.9,97z M291.3,102.2
		c-2.2,0.3-4.4,0.5-6.6,0.8c0-2.2,0-4.4,0-6.7c2.9-0.4,5.8-0.7,8.8-1.1c0-1.5,0-3,0-4.5c0.7-0.1,1.4-0.2,2.1-0.3c0,3,0,6,0,9
		c0.7-0.1,1.5-0.2,2.2-0.3c0-3,0-6,0-9c0.7-0.1,1.5-0.2,2.2-0.3c0,3,0,6,0,9c0.7-0.1,1.5-0.2,2.2-0.2c0-3,0-6,0-9
		c0.7-0.1,1.4-0.2,2.2-0.2c0,3.7,0,7.4,0,11.2c-3.6,0.4-7.2,0.8-10.9,1.2c0-1.5,0-3,0-4.4c-2.2,0.3-4.4,0.5-6.5,0.8
		c0,0.8,0,1.5,0,2.3c1.4-0.2,2.9-0.4,4.3-0.5C291.3,100.8,291.3,101.5,291.3,102.2z"/>
	<path fill="#FFFFFF" d="M306.5,100.5c0.7-0.1,1.4-0.2,2.1-0.2c0-1.5,0-3,0-4.4c2.2-0.2,4.3-0.5,6.5-0.7c0,1.5,0,3,0,4.4
		c3.6-0.4,7.3-0.7,10.9-1c0-2.2,0-4.4,0-6.7c-2.2,0.2-4.3,0.4-6.5,0.6c0,0.7,0,1.5,0,2.2c1.5-0.1,2.9-0.3,4.4-0.4c0,0.8,0,1.5,0,2.3
		c-2.2,0.2-4.4,0.4-6.6,0.6c0-1.5,0-3,0-4.5c-3.6,0.3-7.3,0.7-10.9,1.1C306.5,96,306.5,98.2,306.5,100.5z M310.9,100
		c0.7-0.1,1.4-0.1,2.1-0.2c0-0.7,0-1.5,0-2.2c-0.7,0.1-1.4,0.1-2.1,0.2C310.9,98.6,310.9,99.3,310.9,100z M306.5,91.6
		c9.5-1,18.9-1.9,28.4-2.6c0-0.7,0-1.5,0-2.2c-9.5,0.7-18.9,1.6-28.4,2.6C306.5,90.1,306.5,90.8,306.5,91.6z M334.9,97.9
		c-2.2,0.2-4.4,0.3-6.6,0.5c0-2.2,0-4.4,0-6.7c2.9-0.2,5.8-0.5,8.8-0.7c0-1.5,0-3,0-4.5c0.7,0,1.5-0.1,2.2-0.2c0,3,0,6,0,9
		c0.7,0,1.5-0.1,2.2-0.1c0-3,0-6,0-9c0.7,0,1.4-0.1,2.1-0.1c0,3,0,6,0,9c0.7,0,1.5-0.1,2.2-0.1c0-3,0-6,0-9c0.7,0,1.5-0.1,2.2-0.1
		c0,3.7,0,7.4,0,11.2c-3.6,0.2-7.3,0.4-10.9,0.7c0-1.5,0-3,0-4.4c-2.2,0.2-4.4,0.3-6.6,0.5c0,0.8,0,1.5,0,2.3
		c1.5-0.1,2.9-0.2,4.4-0.3C334.9,96.4,334.9,97.1,334.9,97.9z"/>
	<path fill="#FFFFFF" d="M350.2,96.9c0.7,0,1.5-0.1,2.2-0.1c0-1.5,0-3,0-4.4c2.2-0.1,4.3-0.2,6.5-0.3c0,1.5,0,3,0,4.4
		c3.6-0.1,7.3-0.2,10.9-0.3c0-2.2,0-4.4,0-6.7c-2.2,0-4.3,0.1-6.5,0.2c0,0.7,0,1.5,0,2.2c1.5,0,2.9-0.1,4.4-0.1c0,0.8,0,1.5,0,2.3
		c-2.2,0-4.4,0.1-6.6,0.2c0-1.5,0-3,0-4.5c-3.6,0.1-7.3,0.3-10.9,0.5C350.2,92.4,350.2,94.7,350.2,96.9z M354.5,96.7
		c0.7,0,1.4-0.1,2.1-0.1c0-0.7,0-1.5,0-2.2c-0.7,0-1.4,0.1-2.1,0.1C354.5,95.2,354.5,96,354.5,96.7z M350.2,88
		c9.5-0.5,18.9-0.8,28.4-0.8c0-0.7,0-1.5,0-2.2c-9.5,0-18.9,0.3-28.4,0.8C350.2,86.5,350.2,87.2,350.2,88z M378.5,96.1
		c-2.2,0-4.4,0-6.5,0c0-2.2,0-4.4,0-6.7c2.9,0,5.8-0.1,8.7,0c0-1.5,0-3,0-4.5c0.7,0,1.4,0,2.1,0c0,3,0,6,0,9c0.8,0,1.5,0,2.3,0
		c0-3,0-6,0-9c0.7,0,1.4,0,2.1,0c0,3,0,6,0,9c0.7,0,1.5,0,2.2,0c0-3,0-6,0-9c0.7,0,1.5,0,2.2,0.1c0,3.7,0,7.4,0,11.2
		c-3.6-0.1-7.3-0.2-10.9-0.2c0-1.5,0-3,0-4.4c-2.2,0-4.4,0-6.6,0c0,0.8,0,1.5,0,2.3c1.5,0,2.9,0,4.4,0
		C378.5,94.7,378.5,95.4,378.5,96.1z"/>
	<path fill="#FFFFFF" d="M393.8,96.4c0.7,0,1.5,0,2.2,0.1c0-1.5,0-3,0-4.4c2.2,0.1,4.3,0.2,6.5,0.3c0,1.5,0,3,0,4.4
		c3.6,0.2,7.3,0.4,10.9,0.7c0-2.2,0-4.4,0-6.7c-2.2-0.2-4.4-0.3-6.6-0.5c0,0.7,0,1.5,0,2.2c1.5,0.1,2.9,0.2,4.4,0.3
		c0,0.8,0,1.5,0,2.3c-2.2-0.2-4.4-0.3-6.5-0.4c0-1.5,0-3,0-4.5c-3.6-0.2-7.3-0.4-10.9-0.5C393.8,91.9,393.8,94.2,393.8,96.4z
		 M398.2,96.5c0.7,0,1.5,0.1,2.2,0.1c0-0.7,0-1.5,0-2.2c-0.7,0-1.5-0.1-2.2-0.1C398.2,95.1,398.2,95.8,398.2,96.5z M393.8,87.5
		c9.5,0.3,18.9,0.9,28.4,1.9c0-0.7,0-1.5,0-2.2c-9.5-1-18.9-1.6-28.4-1.9C393.8,86,393.8,86.7,393.8,87.5z M422.2,98.3
		c-2.2-0.2-4.4-0.4-6.6-0.6c0-2.2,0-4.4,0-6.7c2.9,0.2,5.8,0.5,8.7,0.8c0-1.5,0-3,0-4.5c0.7,0.1,1.5,0.2,2.2,0.2c0,3,0,6,0,9
		c0.7,0.1,1.5,0.2,2.2,0.3c0-3,0-6,0-9c0.7,0.1,1.5,0.2,2.2,0.3c0,3,0,6,0,9c0.7,0.1,1.5,0.2,2.2,0.3c0-3,0-6,0-9
		c0.7,0.1,1.4,0.2,2.2,0.3c0,3.7,0,7.4,0,11.2c-3.6-0.5-7.3-0.9-10.9-1.3c0-1.5,0-3,0-4.4c-2.2-0.2-4.3-0.4-6.5-0.6
		c0,0.8,0,1.5,0,2.3c1.5,0.1,2.9,0.3,4.4,0.4C422.2,96.8,422.2,97.5,422.2,98.3z"/>
	<path fill="#FFFFFF" d="M437.4,100.1c0.7,0.1,1.5,0.2,2.2,0.3c0-1.5,0-3,0-4.4c2.2,0.3,4.4,0.7,6.6,1.1c0,1.5,0,3,0,4.4
		c3.6,0.6,7.2,1.3,10.9,2c0-2.2,0-4.4,0-6.7c-2.2-0.4-4.4-0.9-6.6-1.3c0,0.7,0,1.5,0,2.2c1.5,0.3,2.9,0.5,4.4,0.8c0,0.8,0,1.5,0,2.3
		c-2.2-0.4-4.3-0.8-6.5-1.2c0-1.5,0-3,0-4.5c-3.6-0.6-7.3-1.2-10.9-1.8C437.4,95.7,437.4,97.9,437.4,100.1z M441.8,100.8
		c0.7,0.1,1.4,0.2,2.1,0.3c0-0.7,0-1.5,0-2.2c-0.7-0.1-1.4-0.2-2.1-0.3C441.8,99.3,441.8,100.1,441.8,100.8z M437.4,91.2
		c9.5,1.4,18.9,3.1,28.4,5.3c0-0.7,0-1.5,0-2.2c-9.5-2.2-18.9-3.9-28.4-5.3C437.4,89.7,437.4,90.5,437.4,91.2z M465.8,105.4
		c-2.2-0.5-4.4-1-6.5-1.4c0-2.2,0-4.4,0-6.7c2.9,0.6,5.8,1.3,8.7,2c0-1.5,0-3,0-4.5c0.7,0.2,1.5,0.4,2.2,0.5c0,3,0,6,0,9
		c0.7,0.2,1.4,0.4,2.1,0.5c0-3,0-6,0-9c0.8,0.2,1.5,0.4,2.3,0.6c0,3,0,6,0,9c0.7,0.2,1.4,0.4,2.1,0.6c0-3,0-6,0-9
		c0.7,0.2,1.5,0.4,2.2,0.6c0,3.7,0,7.4,0,11.2c-3.6-1-7.3-1.9-10.9-2.8c0-1.5,0-3,0-4.4c-2.2-0.5-4.4-1-6.6-1.5c0,0.8,0,1.5,0,2.3
		c1.5,0.3,2.9,0.6,4.4,1C465.8,104,465.8,104.7,465.8,105.4z"/>
	<path fill="#FFFFFF" d="M1.1,116.1c6.5,1.8,13.1,3.4,19.6,4.8c0-1.5,0-3,0-4.5c-6.5-1.4-13.1-3-19.6-4.8
		C1.1,113.1,1.1,114.6,1.1,116.1z M22.9,121.3c6.5,1.3,13.1,2.5,19.6,3.4c0-1.5,0-3,0-4.5c-6.5-0.9-13.1-2.1-19.6-3.4
		C22.9,118.3,22.9,119.8,22.9,121.3z"/>
	<path fill="#FFFFFF" d="M44.7,125c6.5,0.9,13.1,1.6,19.6,2.2c0-1.5,0-3,0-4.5c-6.5-0.6-13.1-1.3-19.6-2.2
		C44.7,122.1,44.7,123.5,44.7,125z M66.5,127.4c6.5,0.5,13.1,0.9,19.6,1.1c0-1.5,0-3,0-4.5c-6.5-0.2-13.1-0.6-19.6-1.1
		C66.5,124.4,66.5,125.9,66.5,127.4z"/>
	<path fill="#FFFFFF" d="M88.4,128.6c6.5,0.2,13.1,0.2,19.6,0.1c0-1.5,0-3,0-4.5c-6.5,0.1-13.1,0-19.6-0.1
		C88.4,125.6,88.4,127.1,88.4,128.6z M110.2,128.7c6.5-0.1,13.1-0.3,19.6-0.7c0-1.5,0-3,0-4.5c-6.5,0.3-13.1,0.6-19.6,0.7
		C110.2,125.7,110.2,127.2,110.2,128.7z"/>
	<path fill="#FFFFFF" d="M132,127.9c6.5-0.4,13.1-0.8,19.6-1.4c0-1.5,0-3,0-4.5c-6.5,0.5-13.1,1-19.6,1.4
		C132,124.9,132,126.4,132,127.9z M153.8,126.3c6.5-0.6,13.1-1.2,19.6-1.9c0-1.5,0-3,0-4.5c-6.5,0.7-13.1,1.3-19.6,1.9
		C153.8,123.3,153.8,124.8,153.8,126.3z"/>
	<path fill="#FFFFFF" d="M175.6,124.2c6.5-0.7,13.1-1.5,19.6-2.3c0-1.5,0-3,0-4.5c-6.5,0.8-13.1,1.6-19.6,2.3
		C175.6,121.2,175.6,122.7,175.6,124.2z M197.4,121.6c6.5-0.8,13.1-1.7,19.6-2.6c0-1.5,0-3,0-4.5c-6.5,0.9-13.1,1.8-19.6,2.6
		C197.4,118.6,197.4,120.1,197.4,121.6z"/>
	<path fill="#FFFFFF" d="M219.2,118.7c6.5-0.9,13.1-1.8,19.6-2.7c0-1.5,0-3,0-4.5c-6.5,0.9-13.1,1.8-19.6,2.7
		C219.2,115.7,219.2,117.2,219.2,118.7z M241.1,115.7c6.5-0.9,13.1-1.8,19.6-2.7c0-1.5,0-3,0-4.5c-6.5,0.9-13.1,1.8-19.6,2.7
		C241.1,112.7,241.1,114.2,241.1,115.7z"/>
	<path fill="#FFFFFF" d="M262.9,112.6c6.5-0.9,13.1-1.8,19.6-2.6c0-1.5,0-3,0-4.5c-6.5,0.8-13.1,1.7-19.6,2.6
		C262.9,109.6,262.9,111.1,262.9,112.6z M284.7,109.8c6.5-0.8,13.1-1.6,19.6-2.3c0-1.5,0-3,0-4.5c-6.5,0.7-13.1,1.5-19.6,2.3
		C284.7,106.8,284.7,108.3,284.7,109.8z"/>
	<path fill="#FFFFFF" d="M306.5,107.2c6.5-0.7,13.1-1.3,19.6-1.9c0-1.5,0-3,0-4.5c-6.5,0.6-13.1,1.2-19.6,1.9
		C306.5,104.2,306.5,105.7,306.5,107.2z M328.3,105.1c6.6-0.5,13.1-1,19.7-1.4c0-1.5,0-3,0-4.5c-6.6,0.4-13.1,0.8-19.7,1.4
		C328.3,102.1,328.3,103.6,328.3,105.1z"/>
	<path fill="#FFFFFF" d="M350.2,103.6c6.5-0.3,13.1-0.6,19.6-0.7c0-1.5,0-3,0-4.5c-6.5,0.1-13.1,0.3-19.6,0.7
		C350.2,100.6,350.2,102.1,350.2,103.6z M372,102.9c6.5-0.1,13.1,0,19.6,0.1c0-1.5,0-3,0-4.5c-6.5-0.2-13.1-0.2-19.6-0.1
		C372,99.9,372,101.4,372,102.9z"/>
	<path fill="#FFFFFF" d="M393.8,103.1c6.5,0.2,13.1,0.6,19.6,1.1c0-1.5,0-3,0-4.5c-6.5-0.5-13.1-0.9-19.6-1.1
		C393.8,100.1,393.8,101.6,393.8,103.1z M415.6,104.4c6.5,0.6,13.1,1.3,19.6,2.2c0-1.5,0-3,0-4.5c-6.5-0.9-13.1-1.6-19.6-2.2
		C415.6,101.4,415.6,102.9,415.6,104.4z"/>
	<path fill="#FFFFFF" d="M437.4,106.9c6.5,0.9,13.1,2.1,19.6,3.4c0-1.5,0-3,0-4.5c-6.5-1.3-13.1-2.5-19.6-3.4
		C437.4,103.9,437.4,105.4,437.4,106.9z M459.3,110.7c6.5,1.4,13.1,3,19.6,4.8c0-1.5,0-3,0-4.5c-6.5-1.8-13.1-3.4-19.6-4.8
		C459.3,107.7,459.3,109.2,459.3,110.7z"/>
	<path fill="#FFFFFF" d="M1.1,222.4c0.7,0.2,1.5,0.4,2.2,0.6c0-1.5,0-3,0-4.5c2.2,0.6,4.4,1.1,6.6,1.7c0,1.5,0,3,0,4.5
		c3.6,0.9,7.3,1.7,10.9,2.5c0-2.2,0-4.5,0-6.7c-2.2-0.5-4.4-0.9-6.5-1.4c0,0.7,0,1.5,0,2.2c1.4,0.3,2.9,0.7,4.3,1c0,0.7,0,1.5,0,2.2
		c-2.2-0.5-4.3-1-6.5-1.5c0-1.5,0-3,0-4.5c-3.6-0.9-7.3-1.8-10.9-2.8C1.1,217.9,1.1,220.1,1.1,222.4z M5.5,223.6
		c0.7,0.2,1.4,0.4,2.2,0.6c0-0.8,0-1.5,0-2.3c-0.7-0.2-1.4-0.4-2.2-0.6C5.5,222,5.5,222.8,5.5,223.6z M1.1,213.5
		c9.5,2.6,18.9,4.8,28.4,6.5c0-0.7,0-1.5,0-2.2c-9.5-1.7-18.9-3.9-28.4-6.5C1.1,212,1.1,212.7,1.1,213.5z M29.4,228.9
		c-2.2-0.4-4.4-0.8-6.6-1.3c0-2.2,0-4.5,0-6.7c2.9,0.6,5.8,1.1,8.8,1.7c0-1.5,0-2.9,0-4.4c0.7,0.1,1.4,0.3,2.1,0.4c0,3,0,5.9,0,8.9
		c0.7,0.1,1.5,0.2,2.2,0.4c0-3,0-5.9,0-8.9c0.7,0.1,1.5,0.2,2.2,0.4c0,3,0,5.9,0,8.9c0.7,0.1,1.5,0.2,2.2,0.3c0-3,0-5.9,0-8.9
		c0.7,0.1,1.4,0.2,2.1,0.3c0,3.7,0,7.4,0,11.1c-3.6-0.5-7.2-1.1-10.9-1.7c0-1.5,0-3,0-4.5c-2.2-0.4-4.4-0.8-6.6-1.2
		c0,0.7,0,1.5,0,2.2c1.5,0.3,2.9,0.6,4.4,0.8C29.4,227.4,29.4,228.1,29.4,228.9z"/>
	<path fill="#FFFFFF" d="M44.7,231.3c0.7,0.1,1.5,0.2,2.2,0.3c0-1.5,0-3,0-4.5c2.2,0.3,4.3,0.6,6.5,0.8c0,1.5,0,3,0,4.5
		c3.6,0.4,7.3,0.8,10.9,1.1c0-2.2,0-4.5,0-6.7c-2.2-0.2-4.4-0.4-6.5-0.6c0,0.7,0,1.5,0,2.2c1.4,0.1,2.9,0.3,4.3,0.4
		c0,0.7,0,1.5,0,2.2c-2.2-0.2-4.4-0.4-6.5-0.6c0-1.5,0-3,0-4.5c-3.6-0.4-7.3-0.8-10.9-1.3C44.7,226.8,44.7,229.1,44.7,231.3z
		 M49.1,231.9c0.7,0.1,1.4,0.2,2.2,0.3c0-0.8,0-1.5,0-2.3c-0.7-0.1-1.4-0.2-2.2-0.3C49.1,230.4,49.1,231.1,49.1,231.9z M44.7,222.4
		c9.5,1.3,18.9,2.2,28.4,2.8c0-0.7,0-1.5,0-2.2c-9.5-0.6-18.9-1.5-28.4-2.8C44.7,220.9,44.7,221.7,44.7,222.4z M73.1,234.1
		c-2.2-0.1-4.4-0.3-6.6-0.5c0-2.2,0-4.5,0-6.7c2.9,0.2,5.8,0.4,8.7,0.6c0-1.5,0-2.9,0-4.4c0.7,0,1.5,0.1,2.2,0.1c0,3,0,5.9,0,8.9
		c0.7,0,1.5,0.1,2.2,0.1c0-3,0-5.9,0-8.9c0.7,0,1.4,0.1,2.2,0.1c0,3,0,5.9,0,8.9c0.7,0,1.5,0.1,2.2,0.1c0-3,0-5.9,0-8.9
		c0.7,0,1.5,0.1,2.2,0.1c0,3.7,0,7.4,0,11.1c-3.6-0.1-7.3-0.3-10.9-0.5c0-1.5,0-3,0-4.5c-2.2-0.1-4.4-0.3-6.5-0.4c0,0.7,0,1.5,0,2.2
		c1.5,0.1,2.9,0.2,4.4,0.3C73.1,232.6,73.1,233.4,73.1,234.1z"/>
	<path fill="#FFFFFF" d="M88.4,234.8c0.7,0,1.5,0,2.2,0.1c0-1.5,0-3,0-4.5c2.2,0,4.3,0.1,6.5,0.1c0,1.5,0,3,0,4.5
		c3.6,0,7.3,0,10.9,0c0-2.2,0-4.5,0-6.7c-2.2,0-4.4,0-6.6,0c0,0.7,0,1.5,0,2.2c1.5,0,2.9,0,4.4,0c0,0.7,0,1.5,0,2.2
		c-2.2,0-4.4,0-6.6,0c0-1.5,0-3,0-4.5c-3.6,0-7.3-0.1-10.9-0.2C88.4,230.4,88.4,232.6,88.4,234.8z M92.7,234.9c0.7,0,1.4,0,2.2,0
		c0-0.8,0-1.5,0-2.3c-0.7,0-1.4,0-2.2,0C92.7,233.4,92.7,234.2,92.7,234.9z M88.4,225.9c9.5,0.3,18.9,0.2,28.4,0c0-0.7,0-1.5,0-2.2
		c-9.5,0.3-18.9,0.3-28.4,0C88.4,224.4,88.4,225.2,88.4,225.9z M116.7,234.8c-2.2,0.1-4.4,0.1-6.6,0.2c0-2.2,0-4.5,0-6.7
		c2.9,0,5.8-0.1,8.7-0.2c0-1.5,0-2.9,0-4.4c0.7,0,1.4,0,2.1-0.1c0,3,0,5.9,0,8.9c0.7,0,1.5-0.1,2.2-0.1c0-3,0-5.9,0-8.9
		c0.7,0,1.5-0.1,2.2-0.1c0,3,0,5.9,0,8.9c0.7,0,1.4-0.1,2.1-0.1c0-3,0-5.9,0-8.9c0.7,0,1.4-0.1,2.1-0.1c0,3.7,0,7.4,0,11.1
		c-3.6,0.2-7.3,0.3-10.9,0.5c0-1.5,0-3,0-4.5c-2.2,0.1-4.4,0.1-6.6,0.2c0,0.7,0,1.5,0,2.2c1.5,0,2.9-0.1,4.4-0.1
		C116.7,233.3,116.7,234,116.7,234.8z"/>
	<path fill="#FFFFFF" d="M132,234.1c0.7,0,1.5-0.1,2.2-0.1c0-1.5,0-3,0-4.5c2.2-0.1,4.3-0.3,6.5-0.4c0,1.5,0,3,0,4.5
		c3.6-0.2,7.3-0.5,10.9-0.8c0-2.2,0-4.5,0-6.7c-2.2,0.2-4.4,0.4-6.6,0.5c0,0.7,0,1.5,0,2.2c1.4-0.1,2.9-0.2,4.3-0.3
		c0,0.7,0,1.5,0,2.2c-2.2,0.2-4.4,0.3-6.5,0.5c0-1.5,0-3,0-4.5c-3.6,0.3-7.3,0.5-10.9,0.7C132,229.7,132,231.9,132,234.1z
		 M136.4,233.9c0.7,0,1.4-0.1,2.2-0.1c0-0.8,0-1.5,0-2.3c-0.7,0-1.4,0.1-2.2,0.1C136.4,232.4,136.4,233.1,136.4,233.9z M132,225.2
		c9.5-0.5,18.9-1.2,28.4-2.1c0-0.7,0-1.5,0-2.2c-9.5,0.9-18.9,1.6-28.4,2.1C132,223.7,132,224.5,132,225.2z M160.3,232
		c-2.2,0.2-4.4,0.4-6.6,0.6c0-2.2,0-4.5,0-6.7c2.9-0.2,5.8-0.5,8.8-0.8c0-1.5,0-2.9,0-4.4c0.7-0.1,1.5-0.1,2.2-0.2c0,3,0,5.9,0,8.9
		c0.7-0.1,1.4-0.1,2.1-0.2c0-3,0-5.9,0-8.9c0.7-0.1,1.5-0.2,2.2-0.2c0,3,0,5.9,0,8.9c0.7-0.1,1.5-0.2,2.2-0.2c0-3,0-5.9,0-8.9
		c0.7-0.1,1.4-0.2,2.1-0.2c0,3.7,0,7.4,0,11.1c-3.6,0.4-7.3,0.8-10.9,1.1c0-1.5,0-3,0-4.5c-2.2,0.2-4.4,0.4-6.6,0.6
		c0,0.7,0,1.5,0,2.2c1.5-0.1,2.9-0.3,4.4-0.4C160.3,230.5,160.3,231.3,160.3,232z"/>
	<path fill="#FFFFFF" d="M175.6,230.4c0.7-0.1,1.5-0.2,2.2-0.2c0-1.5,0-3,0-4.5c2.2-0.2,4.3-0.5,6.5-0.7c0,1.5,0,3,0,4.5
		c3.6-0.4,7.3-0.9,10.9-1.3c0-2.2,0-4.5,0-6.7c-2.2,0.3-4.4,0.5-6.6,0.8c0,0.7,0,1.5,0,2.2c1.5-0.2,2.9-0.4,4.4-0.5
		c0,0.7,0,1.5,0,2.2c-2.2,0.3-4.3,0.5-6.5,0.8c0-1.5,0-3,0-4.5c-3.6,0.4-7.3,0.9-10.9,1.3C175.6,226,175.6,228.2,175.6,230.4z
		 M180,230c0.7-0.1,1.4-0.2,2.1-0.2c0-0.8,0-1.5,0-2.3c-0.7,0.1-1.4,0.2-2.1,0.2C180,228.4,180,229.2,180,230z M175.6,221.6
		c9.5-1,18.9-2.2,28.4-3.4c0-0.7,0-1.5,0-2.2c-9.5,1.2-18.9,2.4-28.4,3.4C175.6,220.1,175.6,220.8,175.6,221.6z M204,227
		c-2.2,0.3-4.4,0.6-6.6,0.8c0-2.2,0-4.5,0-6.7c2.9-0.4,5.8-0.7,8.7-1.1c0-1.5,0-2.9,0-4.4c0.7-0.1,1.5-0.2,2.2-0.3c0,3,0,5.9,0,8.9
		c0.7-0.1,1.5-0.2,2.2-0.3c0-3,0-5.9,0-8.9c0.7-0.1,1.5-0.2,2.2-0.3c0,3,0,5.9,0,8.9c0.7-0.1,1.5-0.2,2.2-0.3c0-3,0-5.9,0-8.9
		c0.7-0.1,1.4-0.2,2.2-0.3c0,3.7,0,7.4,0,11.1c-3.6,0.5-7.3,1-10.9,1.5c0-1.5,0-3,0-4.5c-2.2,0.3-4.4,0.6-6.6,0.9c0,0.7,0,1.5,0,2.2
		c1.5-0.2,2.9-0.4,4.4-0.6C204,225.5,204,226.3,204,227z"/>
	<path fill="#FFFFFF" d="M219.2,225c0.7-0.1,1.5-0.2,2.2-0.3c0-1.5,0-3,0-4.5c2.2-0.3,4.3-0.6,6.5-0.9c0,1.5,0,3,0,4.5
		c3.6-0.5,7.3-1,10.9-1.5c0-2.2,0-4.5,0-6.7c-2.2,0.3-4.3,0.6-6.5,0.9c0,0.7,0,1.5,0,2.2c1.4-0.2,2.9-0.4,4.3-0.6c0,0.7,0,1.5,0,2.2
		c-2.2,0.3-4.3,0.6-6.5,0.9c0-1.5,0-3,0-4.5c-3.6,0.5-7.3,1-10.9,1.5C219.2,220.5,219.2,222.7,219.2,225z M223.6,224.4
		c0.7-0.1,1.4-0.2,2.1-0.3c0-0.8,0-1.5,0-2.3c-0.7,0.1-1.4,0.2-2.1,0.3C223.6,222.9,223.6,223.6,223.6,224.4z M219.2,216.1
		c9.5-1.3,18.9-2.6,28.4-4c0-0.7,0-1.5,0-2.2c-9.5,1.3-18.9,2.7-28.4,4C219.2,214.6,219.2,215.3,219.2,216.1z M247.6,221
		c-2.2,0.3-4.4,0.6-6.6,0.9c0-2.2,0-4.5,0-6.7c2.9-0.4,5.8-0.8,8.8-1.2c0-1.5,0-2.9,0-4.4c0.7-0.1,1.4-0.2,2.1-0.3c0,3,0,5.9,0,8.9
		c0.7-0.1,1.5-0.2,2.2-0.3c0-3,0-5.9,0-8.9c0.7-0.1,1.5-0.2,2.2-0.3c0,3,0,5.9,0,8.9c0.7-0.1,1.5-0.2,2.2-0.3c0-3,0-5.9,0-8.9
		c0.7-0.1,1.4-0.2,2.2-0.3c0,3.7,0,7.4,0,11.1c-3.6,0.5-7.2,1-10.9,1.5c0-1.5,0-3,0-4.5c-2.2,0.3-4.4,0.6-6.6,0.9c0,0.7,0,1.5,0,2.2
		c1.5-0.2,2.9-0.4,4.4-0.6C247.6,219.5,247.6,220.3,247.6,221z"/>
	<path fill="#FFFFFF" d="M262.9,218.9c0.7-0.1,1.5-0.2,2.2-0.3c0-1.5,0-3,0-4.5c2.2-0.3,4.4-0.6,6.6-0.9c0,1.5,0,3,0,4.5
		c3.6-0.5,7.3-1,10.9-1.4c0-2.2,0-4.5,0-6.7c-2.2,0.3-4.3,0.6-6.5,0.8c0,0.7,0,1.5,0,2.2c1.5-0.2,2.9-0.4,4.4-0.6c0,0.7,0,1.5,0,2.2
		c-2.2,0.3-4.4,0.6-6.6,0.9c0-1.5,0-3,0-4.5c-3.6,0.5-7.3,1-10.9,1.5C262.9,214.4,262.9,216.7,262.9,218.9z M267.3,218.3
		c0.7-0.1,1.5-0.2,2.2-0.3c0-0.8,0-1.5,0-2.3c-0.7,0.1-1.5,0.2-2.2,0.3C267.3,216.8,267.3,217.6,267.3,218.3z M262.9,210
		c9.5-1.3,18.9-2.5,28.4-3.7c0-0.7,0-1.5,0-2.2c-9.5,1.1-18.9,2.4-28.4,3.7C262.9,208.5,262.9,209.3,262.9,210z M291.3,215.2
		c-2.2,0.3-4.4,0.5-6.6,0.8c0-2.2,0-4.5,0-6.7c2.9-0.4,5.8-0.7,8.8-1.1c0-1.5,0-2.9,0-4.4c0.7-0.1,1.4-0.2,2.1-0.3c0,3,0,5.9,0,8.9
		c0.7-0.1,1.5-0.2,2.2-0.3c0-3,0-5.9,0-8.9c0.7-0.1,1.5-0.2,2.2-0.3c0,3,0,5.9,0,8.9c0.7-0.1,1.5-0.2,2.2-0.2c0-3,0-5.9,0-8.9
		c0.7-0.1,1.4-0.2,2.2-0.2c0,3.7,0,7.4,0,11.1c-3.6,0.4-7.2,0.8-10.9,1.2c0-1.5,0-3,0-4.5c-2.2,0.3-4.4,0.5-6.5,0.8
		c0,0.7,0,1.5,0,2.2c1.4-0.2,2.9-0.4,4.3-0.5C291.3,213.7,291.3,214.5,291.3,215.2z"/>
	<path fill="#FFFFFF" d="M306.5,213.5c0.7-0.1,1.4-0.2,2.1-0.2c0-1.5,0-3,0-4.5c2.2-0.2,4.3-0.5,6.5-0.7c0,1.5,0,3,0,4.5
		c3.6-0.4,7.3-0.7,10.9-1c0-2.2,0-4.5,0-6.7c-2.2,0.2-4.3,0.4-6.5,0.6c0,0.7,0,1.5,0,2.2c1.5-0.1,2.9-0.3,4.4-0.4c0,0.7,0,1.5,0,2.2
		c-2.2,0.2-4.4,0.4-6.6,0.6c0-1.5,0-3,0-4.5c-3.6,0.3-7.3,0.7-10.9,1.1C306.5,209,306.5,211.2,306.5,213.5z M310.9,213
		c0.7-0.1,1.4-0.1,2.1-0.2c0-0.8,0-1.5,0-2.3c-0.7,0.1-1.4,0.1-2.1,0.2C310.9,211.5,310.9,212.3,310.9,213z M306.5,204.6
		c9.5-1,18.9-1.9,28.4-2.6c0-0.7,0-1.5,0-2.2c-9.5,0.7-18.9,1.6-28.4,2.6C306.5,203.1,306.5,203.8,306.5,204.6z M334.9,210.9
		c-2.2,0.2-4.4,0.3-6.6,0.5c0-2.2,0-4.5,0-6.7c2.9-0.2,5.8-0.5,8.8-0.7c0-1.5,0-2.9,0-4.4c0.7,0,1.5-0.1,2.2-0.2c0,3,0,5.9,0,8.9
		c0.7,0,1.5-0.1,2.2-0.1c0-3,0-5.9,0-8.9c0.7,0,1.4-0.1,2.1-0.1c0,3,0,5.9,0,8.9c0.7,0,1.5-0.1,2.2-0.1c0-3,0-5.9,0-8.9
		c0.7,0,1.5-0.1,2.2-0.1c0,3.7,0,7.4,0,11.1c-3.6,0.2-7.3,0.4-10.9,0.7c0-1.5,0-3,0-4.5c-2.2,0.2-4.4,0.3-6.6,0.5c0,0.7,0,1.5,0,2.2
		c1.5-0.1,2.9-0.2,4.4-0.3C334.9,209.4,334.9,210.1,334.9,210.9z"/>
	<path fill="#FFFFFF" d="M350.2,209.9c0.7,0,1.5-0.1,2.2-0.1c0-1.5,0-3,0-4.5c2.2-0.1,4.3-0.2,6.5-0.3c0,1.5,0,3,0,4.5
		c3.6-0.1,7.3-0.2,10.9-0.3c0-2.2,0-4.5,0-6.7c-2.2,0-4.3,0.1-6.5,0.2c0,0.7,0,1.5,0,2.2c1.5,0,2.9-0.1,4.4-0.1c0,0.7,0,1.5,0,2.2
		c-2.2,0-4.4,0.1-6.6,0.2c0-1.5,0-3,0-4.5c-3.6,0.1-7.3,0.3-10.9,0.5C350.2,205.4,350.2,207.7,350.2,209.9z M354.5,209.7
		c0.7,0,1.4-0.1,2.1-0.1c0-0.8,0-1.5,0-2.3c-0.7,0-1.4,0.1-2.1,0.1C354.5,208.2,354.5,208.9,354.5,209.7z M350.2,201
		c9.5-0.5,18.9-0.8,28.4-0.8c0-0.7,0-1.5,0-2.2c-9.5,0-18.9,0.3-28.4,0.8C350.2,199.5,350.2,200.3,350.2,201z M378.5,209.2
		c-2.2,0-4.4,0-6.5,0c0-2.2,0-4.5,0-6.7c2.9,0,5.8-0.1,8.7,0c0-1.5,0-2.9,0-4.4c0.7,0,1.4,0,2.1,0c0,3,0,5.9,0,8.9
		c0.8,0,1.5,0,2.3,0c0-3,0-5.9,0-8.9c0.7,0,1.4,0,2.1,0c0,3,0,5.9,0,8.9c0.7,0,1.5,0,2.2,0c0-3,0-5.9,0-8.9c0.7,0,1.5,0,2.2,0.1
		c0,3.7,0,7.4,0,11.1c-3.6-0.1-7.3-0.2-10.9-0.2c0-1.5,0-3,0-4.5c-2.2,0-4.4,0-6.6,0c0,0.7,0,1.5,0,2.2c1.5,0,2.9,0,4.4,0
		C378.5,207.6,378.5,208.4,378.5,209.2z"/>
	<path fill="#FFFFFF" d="M393.8,209.4c0.7,0,1.5,0.1,2.2,0.1c0-1.5,0-3,0-4.5c2.2,0.1,4.3,0.2,6.5,0.3c0,1.5,0,3,0,4.5
		c3.6,0.2,7.3,0.4,10.9,0.7c0-2.2,0-4.5,0-6.7c-2.2-0.2-4.4-0.3-6.6-0.5c0,0.7,0,1.5,0,2.2c1.5,0.1,2.9,0.2,4.4,0.3
		c0,0.7,0,1.5,0,2.2c-2.2-0.2-4.4-0.3-6.5-0.4c0-1.5,0-3,0-4.5c-3.6-0.2-7.3-0.4-10.9-0.5C393.8,204.9,393.8,207.2,393.8,209.4z
		 M398.2,209.6c0.7,0,1.5,0.1,2.2,0.1c0-0.8,0-1.5,0-2.3c-0.7,0-1.5-0.1-2.2-0.1C398.2,208,398.2,208.8,398.2,209.6z M393.8,200.5
		c9.5,0.3,18.9,0.9,28.4,1.9c0-0.7,0-1.5,0-2.2c-9.5-1-18.9-1.6-28.4-1.9C393.8,199,393.8,199.8,393.8,200.5z M422.2,211.3
		c-2.2-0.2-4.4-0.4-6.6-0.6c0-2.2,0-4.5,0-6.7c2.9,0.2,5.8,0.5,8.7,0.8c0-1.5,0-2.9,0-4.4c0.7,0.1,1.5,0.2,2.2,0.2c0,3,0,5.9,0,8.9
		c0.7,0.1,1.5,0.2,2.2,0.3c0-3,0-5.9,0-8.9c0.7,0.1,1.5,0.2,2.2,0.3c0,3,0,5.9,0,8.9c0.7,0.1,1.5,0.2,2.2,0.3c0-3,0-5.9,0-8.9
		c0.7,0.1,1.4,0.2,2.2,0.3c0,3.7,0,7.4,0,11.1c-3.6-0.5-7.3-0.9-10.9-1.3c0-1.5,0-3,0-4.5c-2.2-0.2-4.3-0.4-6.5-0.6
		c0,0.7,0,1.5,0,2.2c1.5,0.1,2.9,0.3,4.4,0.4C422.2,209.8,422.2,210.5,422.2,211.3z"/>
	<path fill="#FFFFFF" d="M437.4,213.1c0.7,0.1,1.5,0.2,2.2,0.3c0-1.5,0-3,0-4.5c2.2,0.3,4.4,0.7,6.6,1.1c0,1.5,0,3,0,4.5
		c3.6,0.6,7.2,1.3,10.9,2c0-2.2,0-4.5,0-6.7c-2.2-0.4-4.4-0.9-6.6-1.3c0,0.7,0,1.5,0,2.2c1.5,0.3,2.9,0.5,4.4,0.8c0,0.7,0,1.5,0,2.2
		c-2.2-0.4-4.3-0.8-6.5-1.2c0-1.5,0-3,0-4.5c-3.6-0.6-7.3-1.2-10.9-1.8C437.4,208.7,437.4,210.9,437.4,213.1z M441.8,213.8
		c0.7,0.1,1.4,0.2,2.1,0.3c0-0.8,0-1.5,0-2.3c-0.7-0.1-1.4-0.2-2.1-0.3C441.8,212.3,441.8,213.1,441.8,213.8z M437.4,204.3
		c9.5,1.4,18.9,3.1,28.4,5.3c0-0.7,0-1.5,0-2.2c-9.5-2.2-18.9-3.9-28.4-5.3C437.4,202.8,437.4,203.5,437.4,204.3z M465.8,218.5
		c-2.2-0.5-4.4-1-6.5-1.4c0-2.2,0-4.5,0-6.7c2.9,0.6,5.8,1.3,8.7,2c0-1.5,0-2.9,0-4.4c0.7,0.2,1.5,0.4,2.2,0.5c0,3,0,5.9,0,8.9
		c0.7,0.2,1.4,0.4,2.1,0.5c0-3,0-5.9,0-8.9c0.8,0.2,1.5,0.4,2.3,0.6c0,3,0,5.9,0,8.9c0.7,0.2,1.4,0.4,2.1,0.6c0-3,0-5.9,0-8.9
		c0.7,0.2,1.5,0.4,2.2,0.6c0,3.7,0,7.4,0,11.1c-3.6-1-7.3-1.9-10.9-2.8c0-1.5,0-3,0-4.5c-2.2-0.5-4.4-1-6.6-1.5c0,0.7,0,1.5,0,2.2
		c1.5,0.3,2.9,0.6,4.4,1C465.8,216.9,465.8,217.7,465.8,218.5z"/>
	<path fill="#FFFFFF" d="M1.1,209c6.5,1.8,13.1,3.4,19.6,4.8c0-1.5,0-3,0-4.5c-6.5-1.4-13.1-3-19.6-4.8C1.1,206,1.1,207.5,1.1,209z
		 M22.9,214.2c6.5,1.3,13.1,2.5,19.6,3.4c0-1.5,0-3,0-4.5c-6.5-0.9-13.1-2.1-19.6-3.4C22.9,211.3,22.9,212.7,22.9,214.2z"/>
	<path fill="#FFFFFF" d="M44.7,217.9c6.5,0.9,13.1,1.6,19.6,2.2c0-1.5,0-3,0-4.5c-6.5-0.6-13.1-1.3-19.6-2.2
		C44.7,215,44.7,216.5,44.7,217.9z M66.5,220.3c6.5,0.5,13.1,0.9,19.6,1.1c0-1.5,0-3,0-4.5c-6.5-0.2-13.1-0.6-19.6-1.1
		C66.5,217.3,66.5,218.8,66.5,220.3z"/>
	<path fill="#FFFFFF" d="M88.4,221.5c6.5,0.2,13.1,0.2,19.6,0.1c0-1.5,0-3,0-4.5c-6.5,0.1-13.1,0-19.6-0.1
		C88.4,218.5,88.4,220,88.4,221.5z M110.2,221.6c6.5-0.1,13.1-0.3,19.6-0.7c0-1.5,0-3,0-4.5c-6.5,0.3-13.1,0.6-19.6,0.7
		C110.2,218.6,110.2,220.1,110.2,221.6z"/>
	<path fill="#FFFFFF" d="M132,220.8c6.5-0.4,13.1-0.8,19.6-1.4c0-1.5,0-3,0-4.5c-6.5,0.5-13.1,1-19.6,1.4
		C132,217.8,132,219.3,132,220.8z M153.8,219.2c6.5-0.6,13.1-1.2,19.6-1.9c0-1.5,0-3,0-4.5c-6.5,0.7-13.1,1.3-19.6,1.9
		C153.8,216.2,153.8,217.7,153.8,219.2z"/>
	<path fill="#FFFFFF" d="M175.6,217.1c6.5-0.7,13.1-1.5,19.6-2.3c0-1.5,0-3,0-4.5c-6.5,0.8-13.1,1.6-19.6,2.3
		C175.6,214.1,175.6,215.6,175.6,217.1z M197.4,214.5c6.5-0.8,13.1-1.7,19.6-2.6c0-1.5,0-3,0-4.5c-6.5,0.9-13.1,1.8-19.6,2.6
		C197.4,211.5,197.4,213,197.4,214.5z"/>
	<path fill="#FFFFFF" d="M219.2,211.6c6.5-0.9,13.1-1.8,19.6-2.7c0-1.5,0-3,0-4.5c-6.5,0.9-13.1,1.8-19.6,2.7
		C219.2,208.6,219.2,210.1,219.2,211.6z M241.1,208.6c6.5-0.9,13.1-1.8,19.6-2.7c0-1.5,0-3,0-4.5c-6.5,0.9-13.1,1.8-19.6,2.7
		C241.1,205.6,241.1,207.1,241.1,208.6z"/>
	<path fill="#FFFFFF" d="M262.9,205.5c6.5-0.9,13.1-1.8,19.6-2.6c0-1.5,0-3,0-4.5c-6.5,0.8-13.1,1.7-19.6,2.6
		C262.9,202.6,262.9,204,262.9,205.5z M284.7,202.7c6.5-0.8,13.1-1.6,19.6-2.3c0-1.5,0-3,0-4.5c-6.5,0.7-13.1,1.5-19.6,2.3
		C284.7,199.7,284.7,201.2,284.7,202.7z"/>
	<path fill="#FFFFFF" d="M306.5,200.1c6.5-0.7,13.1-1.3,19.6-1.9c0-1.5,0-3,0-4.5c-6.5,0.6-13.1,1.2-19.6,1.9
		C306.5,197.1,306.5,198.6,306.5,200.1z M328.3,198c6.6-0.5,13.1-1,19.7-1.4c0-1.5,0-3,0-4.5c-6.6,0.4-13.1,0.8-19.7,1.4
		C328.3,195,328.3,196.5,328.3,198z"/>
	<path fill="#FFFFFF" d="M350.2,196.5c6.5-0.3,13.1-0.6,19.6-0.7c0-1.5,0-3,0-4.5c-6.5,0.1-13.1,0.3-19.6,0.7
		C350.2,193.6,350.2,195,350.2,196.5z M372,195.8c6.5-0.1,13.1,0,19.6,0.1c0-1.5,0-3,0-4.5c-6.5-0.2-13.1-0.2-19.6-0.1
		C372,192.8,372,194.3,372,195.8z"/>
	<path fill="#FFFFFF" d="M393.8,196c6.5,0.2,13.1,0.6,19.6,1.1c0-1.5,0-3,0-4.5c-6.5-0.5-13.1-0.9-19.6-1.1
		C393.8,193,393.8,194.5,393.8,196z M415.6,197.3c6.5,0.6,13.1,1.3,19.6,2.2c0-1.5,0-3,0-4.5c-6.5-0.9-13.1-1.6-19.6-2.2
		C415.6,194.3,415.6,195.8,415.6,197.3z"/>
	<path fill="#FFFFFF" d="M437.4,199.8c6.5,0.9,13.1,2.1,19.6,3.4c0-1.5,0-3,0-4.5c-6.5-1.3-13.1-2.5-19.6-3.4
		C437.4,196.8,437.4,198.3,437.4,199.8z M459.3,203.6c6.5,1.4,13.1,3,19.6,4.8c0-1.5,0-3,0-4.5c-6.5-1.8-13.1-3.4-19.6-4.8
		C459.3,200.7,459.3,202.1,459.3,203.6z"/>
</g>
</svg>
