<svg version="1.1" id="irq" name="iraq" xmlns="http://www.w3.org/2000/svg" xmlns:xlink="http://www.w3.org/1999/xlink" x="0px" y="0px"
	 viewBox="0 0 480 320" enable-background="new 0 0 480 320" xml:space="preserve">
<g id="flag-irq">
	<path fill="#BD2235" d="M0,113.3c160,44.8,320-44.8,480,0c0-31.1,0-62.2,0-93.3C320-24.8,160,64.8,0,20C0,51.1,0,82.2,0,113.3z"/>
	<path fill="#FFFFFF" d="M0,206.7c160,44.8,320-44.8,480,0c0-31.1,0-62.2,0-93.3c-160-44.8-320,44.8-480,0C0,144.4,0,175.5,0,206.7z
		"/>
	<path fill="#080808" d="M0,300c160,44.8,320-44.8,480,0c0-31.1,0-62.2,0-93.3c-160-44.8-320,44.8-480,0C0,237.8,0,268.9,0,300z"/>
</g>
<g id="crest">
	<path fill="#429A4A" d="M281.5,137.2c-0.6-0.3-1.2-0.7-1.5-0.9c-0.3-0.5-0.1-0.5,1.2-0.3c2.4,0.3,3.9-0.2,5.4-1.6
		c0.4-0.4,0.9-0.8,1.3-1.2c0.5,0.2,1,0.4,1.5,0.6c0.9,0.3,1.8,0.5,2,0.4c0.7-0.3,2.1-2.2,2.1-2.8c0-0.8,0.6-0.7,0.9,0.2
		c0.6,1.6-0.2,3.6-1.9,4.2c-0.8,0.3-1.5,0.3-2.7,0.1c-1.5-0.4-1.7-0.4-2.5,0.3C285.8,137.6,283.5,138,281.5,137.2"/>
	<path fill="#429A4A" d="M287.3,131.1c-0.6-0.7-1.2-3.4-1-4.1c0.2-0.6,0.4-0.8,0.9-0.7c0.9,0.2,1.2,0.8,1.1,3
		C288,131.1,287.8,131.7,287.3,131.1"/>
	<path fill="#429A4A" d="M218.3,138.5c-0.2,1.4,2.4,4.3,3.5,4.8c-0.8,0.5-1.7,0.5-2.5,1c-4,4.7-18.8,20.9-21.4,24.7
		c8-0.8,16.8-2.3,24.3-3.7c0-5.4,5.1-6.5,8.5-8.9c1.8,2.6,6.2,1.8,6.8,5.8c0,5.1,0,12.6,0,18.1c-22.7,3.2-45.4,6.3-68.1,8.7
		c-1.2,5.3-6,9.9-12.6,8.9c2.1-2.4,5.5-3.5,6.8-6.6c1.1-6.6-2.1-10.2-4.1-13.8c3.3-1.6,3.8-2,7.2-4.5c-2.3,7.5,6.2,5.9,12.7,5
		c0.2-2.5,0.1-5.4-1.8-5.6c2.4-1.1,2.8-1.5,6.7-5.2c0,3.3,0,6.5,0,9.8c15.2-1.8,31.6-4.2,47.2-6.3c0-3,0.8-8.1-1.6-7.7
		c-2.4,0.3-0.1,6.3-1.9,6.6c-12.1,1.7-24.3,3.3-36.4,4.8c0-1.4,0-4.2,0-6.3c1.5-1.7,1.4-1.5,11.9-13.5
		C204.4,153.3,211.8,145.7,218.3,138.5"/>
	<path fill="#429A4A" d="M309.3,126.3c2.5,1.1,4.6,2.8,7.7,3.2c-0.4,1.3-1.5,2-1.8,3.4c0,9.2,0,18.3,0,27.5c3.5,0.4,4.2-1.6,5.9-2.8
		c0.4,4.3,3.2,8.4,3.2,11.9c-5,0.4-9.9,0.9-14.9,1.4C309.3,156.1,309.3,141.2,309.3,126.3z"/>
	<path fill="#429A4A" d="M289.5,143.4c0,0,5.4-5.2,5.4-5.4c0,8,0,16,0,24c1.3-0.2,2.6-0.3,3.9-0.5c0-9.2-0.1-18.4-0.1-26.9
		c1.6-1.7,4.7-4.4,5.4-6.1c0,14.3,0,28.7,0,43c-11,1.2-31.4,3.8-34.1,4.2c-0.5-8.8-0.6-18.1,9.8-17.5c0-1.2,0-2.5,0-3.7
		c-0.3-0.5-0.9,0.3-1-0.4c1.7-1.9,2.2-2.4,6.6-6.9c0,4.7,0.1,15.8,0.1,15.9c1.1-0.1,3.2-0.4,4-0.5
		C289.4,162.6,289.5,143.9,289.5,143.4 M276.6,163.9c0.7,1,3.2,0.7,3.1-1.2C279.3,161.3,276,162.3,276.6,163.9"/>
	<path fill="#429A4A" d="M177.7,191c1.1-0.1,2.1,0.7,2.1,1.8c0,1.2-0.9,2.2-2.1,2.3c-1.2,0.1-2.1-0.6-2.1-1.8
		C175.6,192.2,176.5,191.1,177.7,191"/>
	<path fill="#429A4A" d="M242.1,135c2.5,1,4.5,2.5,7.7,3c-0.4,1.3-1.5,1.9-1.8,3.4c0,9.1,0,18.3,0,27.4c3.5,0.3,4.2-1.8,5.9-3
		c0.5,4.2,3.2,8.2,3.1,11.8c-5,0.7-9.9,1.4-14.9,2.1C242.1,164.8,242.1,149.9,242.1,135z"/>
</g>
</svg>
