<svg version="1.1" id="jam" name="jamaika" xmlns="http://www.w3.org/2000/svg" xmlns:xlink="http://www.w3.org/1999/xlink" x="0px" y="0px"
	 viewBox="0 0 480 320" enable-background="new 0 0 480 320" xml:space="preserve">
<g id="flag-jam">
	<path fill="#488B41" d="M44.7,309.2c130.2,18,260.3-36.4,390.5-18.5C370.2,243.8,305.1,215,240,186.1
		C174.9,233.2,109.8,280.3,44.7,309.2z"/>
	<path fill="#488B41" d="M435.2,10.8C305.1-7.2,174.9,47.2,44.7,29.2c65.1,47,130.2,75.8,195.3,104.7
		C305.1,86.9,370.2,39.8,435.2,10.8z"/>
	<path fill="#010101" d="M0,273.9c65.1-19.8,130.2-61.7,195.3-107.9C130.2,136.2,65.1,102.3,0,46.1C0,122,0,198,0,273.9z"/>
	<path fill="#010101" d="M480,273.9c0-75.9,0-151.9,0-227.8C414.9,65.8,349.8,107.8,284.7,154C349.8,183.8,414.9,217.7,480,273.9z"
		/>
	<path fill="#F0DA28" d="M0,300L0,300c14.9,4.2,29.8,7.2,44.7,9.2c65.1-29,130.2-76.1,195.3-123.1c65.1,28.9,130.2,57.7,195.2,104.6
		c14.9,2.1,29.8,5.1,44.8,9.2c-80-69.1-160-104.5-240-140C160,217.9,80,275.7,0,300z"/>
	<path fill="#F0DA28" d="M435.2,10.8c-65.1,29-130.2,76.1-195.2,123.2C174.9,105.1,109.8,76.2,44.7,29.2C29.8,27.2,14.9,24.2,0,20
		c80,69.1,160,104.5,240,140c80-57.9,160-115.7,240-140C465.1,15.8,450.2,12.8,435.2,10.8z"/>
	<path fill="#F0DA28" d="M480,20c-80,24.3-160,82.1-240,140c80,35.5,160,70.9,240,140c0-8.7,0-17.4,0-26.1
		c-65.1-56.2-130.2-90.2-195.3-120C349.8,107.8,414.9,65.8,480,46.1C480,37.4,480,28.7,480,20z"/>
	<path fill="#F0DA28" d="M0,46.1c65.1,56.2,130.2,90.1,195.3,119.9C130.2,212.2,65.1,254.2,0,273.9c0,8.7,0,17.4,0,26.1
		c80-24.3,160-82.1,240-140C160,124.5,80,89.1,0,20C0,28.7,0,37.4,0,46.1z"/>
</g>
</svg>
