<svg version="1.1" id="jor" name="jordan" xmlns="http://www.w3.org/2000/svg" xmlns:xlink="http://www.w3.org/1999/xlink" x="0px" y="0px"
	 viewBox="0 0 480 320" enable-background="new 0 0 480 320" xml:space="preserve">
<g id="flag-jor">
	<path fill="#010101" d="M0,300c160,44.8,320-44.8,480,0c0-93.3,0-186.7,0-280C320-24.8,160,64.8,0,20C0,113.3,0,206.7,0,300z"/>
	<path fill="#FFFFFF" d="M0,206.6c160,44.8,320-44.8,480,0c0-31.1,0-62.2,0-93.3c-160-44.8-320,44.8-480,0C0,144.4,0,175.5,0,206.6z
		"/>
	<path fill="#347D41" d="M0,300c160,44.8,320-44.8,480,0c0-31.1,0-62.2,0-93.3c-160-44.8-320,44.8-480,0C0,237.8,0,268.9,0,300z"/>
	<path fill="#BC2035" d="M0,20c0,93.3,0,186.7,0,280c93.3-20.5,186.7-86.8,280-145.4C186.7,119.9,93.3,92.8,0,20z"/>
	<path fill="#FFFFFF" d="M86.5,152.7c-1.5,3.6-2.9,7.2-4.4,10.8c-3.8-1.3-7.5-2.7-11.3-4.1c2,3.5,3.9,7.1,5.9,10.6
		c-3.3,2.1-6.5,4.1-9.8,6.1c3.9,0.9,7.8,1.7,11.7,2.5c-0.3,3.9-0.6,7.8-0.9,11.8c2.9-2.5,5.8-5.1,8.7-7.7c2.9,2.8,5.8,5.5,8.7,8.2
		c-0.3-3.9-0.6-7.9-0.9-11.8c3.9-0.5,7.8-1.1,11.7-1.7c-3.2-2.2-6.5-4.5-9.7-6.7c2-3.4,3.9-6.8,5.9-10.2c-3.8,1.2-7.5,2.3-11.3,3.3
		C89.4,160.1,88,156.4,86.5,152.7z"/>
</g>
</svg>
