<svg version="1.1" id="kaz" name="kasachstan" xmlns="http://www.w3.org/2000/svg" xmlns:xlink="http://www.w3.org/1999/xlink" x="0px" y="0px"
	 viewBox="0 0 480 320" enable-background="new 0 0 480 320" xml:space="preserve">
<path id="flag-kaz" fill="#4EACC3" d="M0,300c160,44.8,320-44.8,480,0c0-93.3,0-186.6,0-280C320-24.8,160,64.8,0,20
	C0,113.3,0,206.7,0,300z"/>
<g id="crest">
	<path fill="#F5C933" d="M31.5,224.6c0-5.6,5.1-7.6,9-7c5.3,0.8,8.2,4.3,8.2,8.5c0,2.4-0.4,3.8-1.5,6c0,0-8.8,17-12.2,23.5
		c-0.4,0.8-0.6,1.8-0.6,3.3c0,2.3,2.2,4.5,4.5,4.9c2.1,0.4,4.4-1.3,4.4-3.7c0-2.7-1.4-4.2-2.9-4.4c-1.9-0.3-2.6,0.3-2.6,1.6
		c0,0.9,0.4,1.3,1.1,1.4c1.5,0.2,1.1-1.9,1.1-1.9c0.8,0.3,1.5,1.2,1.1,2.1c0.6,0.3,1.1,0.6,1.5,1.1c-0.4,0.3-0.9,0.6-1.5,0.6
		c0.4,1.3-0.1,1.8-1.2,1.8c0.2-0.3,0.3-0.8,0.2-1.2c-1.7,0.2-4.3-1-4.3-3.9c0-2.8,2-4.9,5.7-3.8c-0.9-0.6-1.3-1.5-1.4-2.4
		c0.7,0.3,1.4,0.5,1.4,0.5c-0.4-0.8-1-1.6-1-3.1c0.6,0.5,1.3,1.2,2.2,0.9c-1.4-3,0.3-6.5,4.7-6.8c-1.6,1.6-2.4,3.5-2.4,5.5
		c0,6.5,1.8,7.9,1.8,12.3c0,1.9-1,3.8-2.9,5c0,0,0,0,0,0c1.3,0.5,2.1,1.2,2.5,2.1c-2.9,0.4-7.1-0.2-9.4-1.5c-2.6-0.7-4.4-3-5-4.1
		c-0.6-1.2-1.6-5,0-8c1.7-3.3,9.9-19.2,12.4-24.4c0.6-1.1,0.9-2.2,0.9-3.6c0-3.3-3-4.9-4.8-5.1c-2.1-0.3-4.2,0.9-4.2,2.9
		c0,1.2,0.7,2.1,1.7,2.3c2.3,0.4,2.2-1.7,1.7-3c1.5,0.9,2.4,2.1,2.1,3.3c0.8,0.2,1.6,0.8,2.3,1.8c-0.6,0.6-1.3,1-2.3,0.9
		c0.5,2-0.8,2.6-2.1,2.8c0.4-1.3,0.7-2.9-1.7-3.2c-1.7-0.3-3.1-0.8-3.9-2c0,1.4-0.2,7.3-0.2,7.3c-0.1,2.2,3,2.7,4.9,2.4
		c-0.7,2.4-2.2,3.6-5.8,2.7c0.8,0.5,1.8,1.4,1.8,3c0,2.1-1.7,4.1-2.8,4.6C31.9,239.2,31.7,231.9,31.5,224.6z"/>
	<path fill="#F5C933" d="M32.6,224.8c0-5.6-5-9.4-9-10.2c-5.3-1.1-8.1,1.4-8.1,5.6c0,2.4,0.4,3.9,1.5,6.5c0,0,8.8,20.1,12.3,27.8
		c0.4,0.9,0.6,2,0.6,3.5c0,2.3-2.2,3.7-4.5,3.3c-2.1-0.3-4.4-2.8-4.4-5.2c0-2.7,1.4-3.7,2.9-3.4c1.8,0.4,2.6,1.2,2.6,2.5
		c0,0.9-0.4,1.2-1.1,1.1c-1.5-0.3-1.1-2.3-1.1-2.3c-0.8,0-1.4,0.7-1.1,1.7c-0.6,0.1-1.1,0.2-1.5,0.6c0.4,0.5,0.9,0.9,1.5,1.1
		c-0.3,1.1,0.1,1.8,1.2,2.3c-0.2-0.4-0.2-0.9-0.2-1.3c1.7,0.8,4.3,0.5,4.3-2.4c0-2.8-2-5.6-5.7-5.8c0.9-0.2,1.4-1,1.4-1.9
		c-0.7,0.1-1.4,0-1.4,0c0.5-0.7,1.1-1.2,1-2.8c-0.7,0.2-1.4,0.7-2.2,0.1c1.4-2.5-0.3-6.6-4.7-8.4c1.6,2.1,2.4,4.4,2.4,6.4
		c0,6.5-1.8,7.2-1.8,11.7c0,1.9,1,4.2,2.9,6c0,0,0,0,0,0c-1.3,0.1-2.1,0.4-2.6,1.2c2.9,1.4,7.2,2.3,9.4,1.8c2.7,0.2,4.4-1.5,5-2.4
		c0.5-1,1.6-4.4,0-8c-1.8-3.9-9.9-22.7-12.5-28.7c-0.5-1.3-0.8-2.5-0.8-3.9c0-3.3,3-3.8,4.8-3.5c2,0.4,4.2,2.4,4.2,4.4
		c0,1.2-0.7,1.9-1.7,1.7c-2.3-0.5-2.2-2.4-1.7-3.6c-1.5,0.4-2.3,1.3-2.1,2.6c-0.8,0-1.6,0.2-2.3,0.9c0.6,0.8,1.3,1.5,2.3,1.7
		c-0.5,1.8,0.8,2.8,2.1,3.5c-0.4-1.4-0.7-3.1,1.7-2.6c1.8,0.3,3.1,0.2,3.9-0.7c0.1,1.4,0.2,7.4,0.2,7.4c0.1,2.3-3,1.6-5,0.6
		c0.7,2.7,2.3,4.4,5.8,4.7c-0.9,0.2-1.8,0.8-1.8,2.4c0,2.1,1.7,4.7,2.8,5.6C32.3,239.3,32.4,232.1,32.6,224.8z"/>
	<path fill="#F5C933" d="M32.1,285.3c0,0,2.6,2.6,3.6,1.7c1.5-1.6-4.5-11.5-4.5-14.7c0-5.2,3.4-6,7.7-6c2.9,0,7.5,1.3,7.5,1.3
		c-0.8,1.1-1.4,1.3-2.9,1.2c1.7,1.1,3.3,3.2,3.4,6c0,4.5-1.8,6.1-1.8,11c0,2.8,2.3,6.7,2.3,6.7c-4-0.9-6.1-5.1-4.9-7.8
		c-0.6-0.2-1.3-0.1-1.7,0.3c-0.3-0.9,0.1-1.7,0.8-2.6c-0.5-0.3-0.9-0.1-1.7-0.1c0.1-0.8,0.6-1.6,1.8-2.3c-3.6,0.5-5.9-2.5-5.9-5.2
		c0-2,1.4-3.2,2.8-3c0.5,0.1,1.1,0.3,1.5,0.7c0.2-0.5,0.1-1.2-0.2-1.8c1,0.4,1.7,1,1.2,2.2c0.8,0.2,1.4,0.5,1.8,1.1
		c-0.4,0.5-1.1,0.7-1.8,0.6c0.6,1.3,0,1.8-1,2.2c0,0,0.6-2.3-0.9-2.5c-0.7-0.1-1.3,0.1-1.3,1c0,0.8,0.7,2.2,2.5,2.4
		c1.7,0.1,3.1-0.8,3.1-3.6c0-2.5-2-4.1-4.8-4.6c-2.4-0.5-4.3,0.5-4.3,3.1c0,3.3,4.9,11.7,4.9,14.7c0,2.2-2,3.2-4,2.8
		c-2.5-0.4-4.7-3.3-4.7-3.3C31.1,286.4,31.6,285.8,32.1,285.3z"/>
	<path fill="#F5C933" d="M32.1,285.3c0,0-2.7,1.7-3.5,0.4c-1.5-2.1,4.5-9.9,4.5-13.1c0-5.2-3.5-7.2-7.7-8.7c-2.9-1-7.6-1.4-7.6-1.4
		c0.9,1.4,1.5,1.8,2.9,2.3c-1.6,0.5-3.3,2-3.3,4.9c0,4.5,1.8,6.7,1.8,11.7c0,2.8-2.3,5.9-2.3,5.9c4,0.5,6.1-2.9,4.9-6.1
		c0.6,0,1.2,0.3,1.7,0.9c0.3-0.8-0.2-1.8-0.8-2.8c0.5-0.1,0.9,0.2,1.7,0.4c-0.1-0.8-0.6-1.8-1.9-3c3.7,1.8,5.9-0.5,5.9-3.1
		c0-2-1.4-3.7-2.8-3.9c-0.4-0.1-1.1-0.1-1.5,0.2c-0.3-0.6-0.1-1.2,0.1-1.8c-1,0-1.7,0.4-1.2,1.8c-0.8-0.1-1.4,0-1.8,0.4
		c0.4,0.7,1.1,1.1,1.8,1.2c-0.6,1.1,0.1,1.9,1,2.5c0,0-0.6-2.5,0.9-2.2c0.7,0.1,1.3,0.5,1.3,1.5c0,0.9-0.7,1.9-2.5,1.5
		c-1.7-0.4-3.1-1.8-3.1-4.7c0-2.5,2-3.4,4.8-2.9c2.4,0.4,4.3,2,4.3,4.6c0,3.3-4.8,10-4.8,13c0,2.2,2,3.9,4,4.2
		c2.6,0.5,4.7-1.7,4.7-1.7C33.1,286.7,32.6,286,32.1,285.3z"/>
	<path fill="#F5C933" d="M31.5,126.5c0-5.6,5.1-7.6,9-7c5.3,0.8,8.2,4.3,8.2,8.5c0,2.4-0.4,3.8-1.5,5.9c0,0-8.8,17-12.2,23.5
		c-0.4,0.8-0.6,1.8-0.6,3.3c0,2.3,2.2,4.5,4.5,4.9c2.1,0.4,4.4-1.3,4.4-3.6c0-2.8-1.4-4.2-2.9-4.4c-1.9-0.3-2.6,0.3-2.6,1.6
		c0,0.9,0.4,1.3,1.1,1.4c1.5,0.2,1.1-2,1.1-2c0.8,0.4,1.5,1.2,1.1,2.2c0.6,0.2,1.1,0.6,1.5,1.1c-0.4,0.3-0.9,0.6-1.5,0.6
		c0.4,1.2-0.1,1.8-1.2,1.8c0.2-0.4,0.3-0.8,0.2-1.3c-1.7,0.3-4.3-0.9-4.3-3.9c0-2.9,2-4.9,5.7-3.7c-0.9-0.5-1.3-1.5-1.4-2.5
		c0.7,0.4,1.4,0.5,1.4,0.5c-0.4-0.8-1-1.5-1-3.1c0.6,0.5,1.3,1.1,2.2,0.9c-1.4-2.9,0.3-6.4,4.7-6.8c-1.6,1.7-2.4,3.6-2.4,5.6
		c0,6.5,1.8,7.8,1.8,12.3c0,1.9-1,3.9-2.9,5c0,0,0,0,0,0c1.3,0.5,2.1,1.2,2.5,2.1c-2.9,0.5-7.1-0.2-9.4-1.5c-2.6-0.7-4.4-3-5-4.1
		c-0.6-1.2-1.6-5,0-8c1.7-3.3,9.9-19.3,12.4-24.4c0.6-1,0.9-2.2,0.9-3.6c0-3.3-3-4.9-4.8-5.2c-2.1-0.3-4.2,0.9-4.2,2.9
		c0,1.2,0.7,2,1.7,2.2c2.3,0.4,2.2-1.6,1.7-2.9c1.5,0.9,2.4,2.2,2.1,3.3c0.8,0.2,1.6,0.8,2.3,1.7c-0.6,0.5-1.3,1-2.3,0.9
		c0.5,2-0.8,2.6-2.1,2.8c0.4-1.3,0.7-2.8-1.7-3.2c-1.7-0.3-3.1-0.9-3.9-2c0,1.5-0.2,7.3-0.2,7.3c-0.1,2.3,3,2.7,4.9,2.3
		c-0.7,2.5-2.2,3.6-5.8,2.7c0.8,0.5,1.8,1.5,1.8,3c0,2-1.7,4.1-2.8,4.6C31.9,141.2,31.7,133.9,31.5,126.5z"/>
	<path fill="#F5C933" d="M32.6,126.7c0-5.6-5-9.4-9-10.2c-5.3-1.1-8.1,1.5-8.1,5.6c0,2.4,0.4,3.9,1.5,6.4c0,0,8.8,20.2,12.3,27.8
		c0.4,1,0.6,2,0.6,3.5c0,2.3-2.2,3.7-4.5,3.3c-2.1-0.4-4.4-2.8-4.4-5.2c0-2.8,1.4-3.7,2.9-3.4c1.8,0.4,2.6,1.2,2.6,2.5
		c0,0.9-0.4,1.2-1.1,1.1c-1.5-0.3-1.1-2.4-1.1-2.4c-0.8,0.1-1.4,0.7-1.1,1.8c-0.6,0-1.1,0.2-1.5,0.6c0.4,0.4,0.9,0.9,1.5,1.2
		c-0.3,1.1,0.1,1.8,1.2,2.2c-0.2-0.4-0.2-0.9-0.2-1.3c1.7,0.8,4.3,0.6,4.3-2.4c0-2.9-2-5.6-5.7-5.8c0.9-0.2,1.4-1.1,1.4-2
		c-0.7,0.2-1.4,0-1.4,0c0.5-0.7,1.1-1.1,1-2.7c-0.7,0.2-1.4,0.6-2.2,0.1c1.4-2.5-0.3-6.5-4.7-8.4c1.6,2.3,2.4,4.4,2.4,6.5
		c0,6.5-1.8,7.1-1.8,11.7c0,1.9,1,4.2,2.9,6c0,0,0,0,0,0c-1.3,0-2.1,0.4-2.6,1.2c2.9,1.5,7.2,2.4,9.4,1.8c2.7,0.2,4.4-1.4,5-2.3
		c0.5-1,1.6-4.4,0-8c-1.8-3.9-9.9-22.7-12.5-28.7c-0.5-1.2-0.8-2.5-0.8-3.9c0-3.3,3-3.8,4.8-3.5c2,0.4,4.2,2.4,4.2,4.3
		c0,1.2-0.7,1.8-1.7,1.6c-2.3-0.5-2.2-2.4-1.7-3.5c-1.5,0.4-2.3,1.4-2.1,2.6c-0.8,0-1.6,0.2-2.3,0.9c0.6,0.8,1.3,1.5,2.3,1.7
		c-0.5,1.8,0.8,2.9,2.1,3.6c-0.4-1.5-0.7-3.1,1.7-2.6c1.8,0.3,3.1,0.2,3.9-0.7c0.1,1.5,0.2,7.4,0.2,7.4c0.1,2.3-3,1.6-5,0.6
		c0.7,2.8,2.3,4.4,5.8,4.7c-0.9,0.2-1.8,0.8-1.8,2.4c0,2,1.7,4.7,2.8,5.6C32.3,141.2,32.4,134,32.6,126.7z"/>
	<path fill="#F5C933" d="M32.6,109.9c0,5.6-5,7.6-9,6.8c-5.3-1.1-8.1-4.9-8.1-9.1c0-2.3,0.4-3.7,1.5-5.7c0,0,8.8-16.4,12.3-22.9
		c0.4-0.7,0.6-1.7,0.6-3.2c0-2.3-2.2-4.5-4.5-5c-2.1-0.5-4.4,1.1-4.4,3.4c0,2.8,1.4,4.4,2.9,4.7c1.8,0.4,2.6-0.3,2.6-1.6
		c0-0.9-0.4-1.4-1.1-1.5c-1.5-0.3-1.1,1.9-1.1,1.9c-0.8-0.3-1.4-1.2-1.1-2.2c-0.6-0.3-1.1-0.6-1.5-1.2c0.4-0.3,0.9-0.6,1.5-0.5
		c-0.3-1.3,0.1-1.8,1.2-1.8c-0.2,0.5-0.2,0.9-0.2,1.3c1.7-0.2,4.3,1.1,4.3,3.9c0,2.9-2,5-5.7,3.5c0.9,0.6,1.4,1.6,1.4,2.6
		c-0.7-0.4-1.4-0.6-1.4-0.6c0.5,0.9,1.1,1.6,1,3.2c-0.7-0.5-1.4-1.2-2.2-1c1.4,3-0.3,6.5-4.7,6.4c1.6-1.6,2.4-3.4,2.4-5.4
		c0-6.5-1.8-8-1.8-12.5c0-1.9,1-3.7,2.9-4.6c0,0,0,0,0,0c-1.3-0.6-2.1-1.5-2.6-2.3c2.9-0.2,7.2,0.7,9.4,2c2.7,0.8,4.4,3.2,5,4.2
		c0.5,1.1,1.6,5,0,8c-1.8,3.4-9.9,19.1-12.5,23.9c-0.5,1-0.8,2.2-0.8,3.5c0,3.3,3,5.2,4.8,5.5c2,0.4,4.2-0.8,4.2-2.7
		c0-1.3-0.7-2.2-1.7-2.4c-2.3-0.5-2.2,1.6-1.7,2.9c-1.5-0.9-2.3-2.3-2.1-3.5c-0.8-0.3-1.6-0.8-2.3-1.8c0.6-0.6,1.3-1,2.3-0.8
		c-0.5-2,0.8-2.6,2.1-2.7c-0.4,1.3-0.7,2.8,1.7,3.3c1.8,0.3,3.1,0.9,3.9,2.2c0.1-1.5,0.2-7.4,0.2-7.4c0.1-2.2-3-2.7-5-2.5
		c0.7-2.4,2.3-3.5,5.8-2.5c-0.9-0.5-1.8-1.5-1.8-3c0-2.1,1.7-4.1,2.8-4.6C32.3,95.3,32.4,102.6,32.6,109.9z"/>
	<path fill="#F5C933" d="M31.5,109.7c0,5.6,5.1,9.4,9,10c5.3,0.8,8.2-2,8.2-6.3c0-2.3-0.4-3.8-1.5-6.2c0,0-8.8-19.5-12.2-27.2
		c-0.4-0.9-0.6-1.9-0.6-3.4c0-2.3,2.2-3.7,4.5-3.4c2.1,0.3,4.4,2.7,4.4,4.9c0,2.8-1.4,3.9-2.9,3.7c-1.9-0.3-2.6-1.2-2.6-2.5
		c0-0.9,0.4-1.2,1.1-1.1c1.5,0.2,1.1,2.3,1.1,2.3c0.8,0,1.5-0.7,1.1-1.8c0.6-0.1,1.1-0.2,1.5-0.7c-0.4-0.4-0.9-0.9-1.5-1.1
		c0.4-1.2-0.1-1.9-1.2-2.2c0.2,0.6,0.3,0.9,0.2,1.4c-1.7-0.8-4.3-0.4-4.3,2.4c0,2.9,2,5.7,5.7,5.6c-0.9,0.3-1.3,1.1-1.4,2.1
		c0.7-0.1,1.4-0.1,1.4-0.1c-0.4,0.7-1,1.2-1,2.8c0.6-0.2,1.3-0.8,2.2-0.2c-1.4,2.5,0.3,6.6,4.7,8c-1.6-2.1-2.4-4.2-2.4-6.2
		c0-6.5,1.8-7.4,1.8-11.9c0-1.9-1-4-2.9-5.6c0,0,0,0,0,0c1.3-0.2,2.1-0.7,2.5-1.4c-2.9-1.3-7.1-1.9-9.4-1.3c-2.6-0.1-4.4,1.6-5,2.5
		c-0.6,0.9-1.6,4.4,0,8c1.7,4,9.9,22.5,12.4,28.3c0.6,1.2,0.9,2.5,0.9,3.8c0,3.3-3,4.1-4.8,3.8c-2.1-0.3-4.2-2.3-4.2-4.2
		c0-1.3,0.7-1.9,1.7-1.8c2.3,0.4,2.2,2.4,1.7,3.5c1.5-0.4,2.4-1.5,2.1-2.7c0.8,0,1.6-0.3,2.3-1c-0.6-0.8-1.3-1.5-2.3-1.6
		c0.5-1.8-0.8-2.9-2.1-3.5c0.4,1.4,0.7,3.1-1.7,2.7c-1.7-0.3-3.1-0.2-3.9,0.8c0-1.5-0.2-7.5-0.2-7.5c-0.1-2.3,3-1.7,4.9-0.7
		c-0.7-2.7-2.2-4.3-5.8-4.6c0.8-0.2,1.8-0.9,1.8-2.4c0-2.1-1.7-4.7-2.8-5.6C31.9,95.3,31.7,102.5,31.5,109.7z"/>
	<path fill="#F5C933" d="M32.6,208c0,5.6-5,7.6-9,6.8c-5.3-1.1-8.1-5-8.1-9.1c0-2.4,0.4-3.7,1.5-5.8c0,0,8.8-16.4,12.3-22.8
		c0.4-0.8,0.6-1.8,0.6-3.2c0-2.2-2.2-4.6-4.5-5.1c-2.1-0.5-4.4,1.1-4.4,3.4c0,2.8,1.4,4.4,2.9,4.7c1.8,0.4,2.6-0.2,2.6-1.6
		c0-0.9-0.4-1.4-1.1-1.5c-1.5-0.3-1.1,2-1.1,2c-0.8-0.4-1.4-1.3-1.1-2.2c-0.6-0.2-1.1-0.6-1.5-1.2c0.4-0.3,0.9-0.5,1.5-0.5
		c-0.3-1.3,0.1-1.8,1.2-1.8c-0.2,0.5-0.2,0.9-0.2,1.3c1.7-0.1,4.3,1.1,4.3,4c0,2.9-2,4.9-5.7,3.6c0.9,0.6,1.4,1.6,1.4,2.6
		c-0.7-0.4-1.4-0.6-1.4-0.6c0.5,0.9,1.1,1.7,1,3.2c-0.7-0.5-1.4-1.2-2.2-1c1.4,3-0.3,6.4-4.7,6.4c1.6-1.5,2.4-3.3,2.4-5.4
		c0-6.5-1.8-7.9-1.8-12.5c0-1.8,1-3.7,2.9-4.6c0,0,0,0,0,0c-1.3-0.6-2.1-1.4-2.6-2.4c2.9-0.1,7.2,0.7,9.4,2c2.7,0.8,4.4,3.1,5,4.2
		c0.5,1.1,1.6,5,0,8c-1.8,3.4-9.9,19.1-12.5,23.9c-0.5,1-0.8,2.2-0.8,3.5c0,3.4,3,5.1,4.8,5.5c2,0.4,4.2-0.7,4.2-2.7
		c0-1.2-0.7-2.1-1.7-2.3c-2.3-0.5-2.2,1.6-1.7,2.9c-1.5-1-2.3-2.2-2.1-3.5c-0.8-0.3-1.6-0.8-2.3-1.8c0.6-0.6,1.3-1,2.3-0.7
		c-0.5-2.1,0.8-2.6,2.1-2.8c-0.4,1.4-0.7,2.9,1.7,3.4c1.8,0.3,3.1,0.8,3.9,2.2c0.1-1.5,0.2-7.5,0.2-7.5c0.1-2.2-3-2.7-5-2.4
		c0.7-2.4,2.3-3.5,5.8-2.5c-0.9-0.5-1.8-1.5-1.8-3c0-2.1,1.7-4.1,2.8-4.7C32.3,193.4,32.4,200.7,32.6,208z"/>
	<path fill="#F5C933" d="M31.5,207.8c0,5.6,5.1,9.4,9,10c5.3,0.8,8.2-2.1,8.2-6.2c0-2.4-0.4-3.9-1.5-6.3c0,0-8.8-19.5-12.2-27.1
		c-0.4-1-0.6-2-0.6-3.4c0-2.2,2.2-3.8,4.5-3.5c2.1,0.3,4.4,2.7,4.4,4.9c0,2.8-1.4,3.9-2.9,3.7c-1.9-0.3-2.6-1.1-2.6-2.5
		c0-0.9,0.4-1.2,1.1-1.1c1.5,0.2,1.1,2.3,1.1,2.3c0.8-0.1,1.5-0.8,1.1-1.8c0.6,0,1.1-0.2,1.5-0.7c-0.4-0.4-0.9-0.8-1.5-1
		c0.4-1.1-0.1-1.8-1.2-2.3c0.2,0.5,0.3,1,0.2,1.4c-1.7-0.7-4.3-0.4-4.3,2.5c0,2.9,2,5.6,5.7,5.6c-0.9,0.3-1.3,1.1-1.4,2.1
		c0.7-0.2,1.4-0.1,1.4-0.1c-0.4,0.7-1,1.3-1,2.8c0.6-0.2,1.3-0.7,2.2-0.2c-1.4,2.5,0.3,6.5,4.7,8c-1.6-2.1-2.4-4.2-2.4-6.2
		c0-6.5,1.8-7.3,1.8-11.9c0-1.8-1-4-2.9-5.6c0,0,0,0,0,0c1.3-0.2,2.1-0.7,2.5-1.5c-2.9-1.2-7.1-1.8-9.4-1.3c-2.6-0.1-4.4,1.5-5,2.5
		c-0.6,0.9-1.6,4.4,0,8c1.7,4,9.9,22.5,12.4,28.3c0.6,1.2,0.9,2.5,0.9,3.8c0,3.4-3,4-4.8,3.8c-2.1-0.3-4.2-2.2-4.2-4.2
		c0-1.2,0.7-1.9,1.7-1.8c2.3,0.4,2.2,2.4,1.7,3.5c1.5-0.4,2.4-1.4,2.1-2.8c0.8,0,1.6-0.2,2.3-0.9c-0.6-0.8-1.3-1.4-2.3-1.6
		c0.5-1.9-0.8-2.9-2.1-3.6c0.4,1.5,0.7,3.1-1.7,2.8c-1.7-0.3-3.1-0.2-3.9,0.8c0-1.5-0.2-7.5-0.2-7.5c-0.1-2.3,3-1.6,4.9-0.7
		c-0.7-2.7-2.2-4.3-5.8-4.5c0.8-0.2,1.8-0.9,1.8-2.4c0-2.1-1.7-4.7-2.8-5.7C31.9,193.3,31.7,200.6,31.5,207.8z"/>
	<path fill="#F5C933" d="M32.1,49.3c0,0,2.6-1.8,3.6-0.6c1.5,2.1-4.5,10.1-4.5,13.2c0,5.2,3.4,7.2,7.7,8.6c2.9,0.9,7.5,0.9,7.5,0.9
		c-0.8-1.4-1.4-1.8-2.9-2c1.7-0.7,3.3-2.3,3.4-5.2c0-4.5-1.8-6.5-1.8-11.6c0-2.8,2.3-6,2.3-6c-4-0.2-6.1,3.3-4.9,6.4
		c-0.6,0-1.3-0.2-1.7-0.8c-0.3,0.8,0.1,1.8,0.8,2.8c-0.5,0.2-0.9,0-1.7-0.3c0.1,0.9,0.6,1.9,1.8,2.9c-3.6-1.5-5.9,0.6-5.9,3.3
		c0,2,1.4,3.6,2.8,3.8c0.5,0.1,1.1-0.1,1.5-0.3c0.2,0.7,0.1,1.4-0.2,1.9c1-0.1,1.7-0.6,1.2-1.9c0.8,0.1,1.4-0.1,1.8-0.5
		c-0.4-0.6-1.1-1-1.8-1.1c0.6-1,0-1.8-1-2.5c0,0,0.6,2.4-0.9,2.2c-0.7-0.1-1.3-0.4-1.3-1.4c0-0.9,0.7-1.9,2.5-1.6
		c1.7,0.3,3.1,1.6,3.1,4.4c0,2.5-2,3.5-4.8,3.1c-2.4-0.2-4.3-1.9-4.3-4.4c0-3.4,4.9-10.3,4.9-13.2c0-2.2-2-3.8-4-4.2
		c-2.5-0.4-4.7,1.8-4.7,1.7C31.1,47.9,31.6,48.6,32.1,49.3z"/>
	<path fill="#F5C933" d="M32.1,49.3c0,0-2.7-2.7-3.5-1.8C27,49.1,33,59.1,33,62.3c0,5.2-3.5,6-7.7,5.9c-2.9-0.1-7.6-1.7-7.6-1.7
		c0.9-1,1.5-1.3,2.9-1c-1.6-1.2-3.3-3.5-3.3-6.4c0-4.5,1.8-5.9,1.8-11c0-2.8-2.3-6.8-2.3-6.8c4,1.2,6.1,5.4,4.9,8.2
		c0.6,0.2,1.2,0.3,1.7-0.2c0.3,0.9-0.2,1.8-0.8,2.5c0.5,0.4,0.9,0.3,1.7,0.3c-0.1,0.8-0.6,1.7-1.9,2.3c3.7-0.2,5.9,2.7,5.9,5.4
		c0,2-1.4,3.1-2.8,2.9c-0.4-0.1-1.1-0.4-1.5-0.8c-0.3,0.6-0.1,1.4,0.1,1.9c-1-0.5-1.7-1.2-1.2-2.4c-0.8-0.2-1.4-0.6-1.8-1.1
		c0.4-0.5,1.1-0.7,1.8-0.5c-0.6-1.2,0.1-1.8,1-2.1c0,0-0.6,2.2,0.9,2.5c0.7,0.1,1.3,0,1.3-0.9c0-0.9-0.7-2.2-2.5-2.4
		c-1.7-0.3-3.1,0.5-3.1,3.3c0,2.5,2,4.2,4.8,4.8c2.4,0.6,4.3-0.4,4.3-2.9c0-3.4-4.8-12-4.8-14.9c0-2.2,2-3.1,4-2.8
		c2.6,0.5,4.7,3.4,4.7,3.4C33.1,48.2,32.6,48.8,32.1,49.3z"/>
	<path fill="#4EACC3" d="M26.8,206.5c0-0.4-1-0.4-1.7-0.3c-0.8,0-1.2,0.3-1.2,0.8c0.1,0.5,1,0.4,1.7,0.4
		C26.4,207.2,26.9,207,26.8,206.5L26.8,206.5z"/>
	<path fill="#4EACC3" d="M24.4,207.5L24.4,207.5c-0.1,0-0.2,0-0.3-0.1c-0.2-0.2-0.3-0.4-0.5-0.6c-0.1-0.6,0.4-1,1.4-1
		c0.6,0,1,0,1.4,0c0.1,0,0.2,0,0.2,0c0.1,0.2,0.3,0.4,0.4,0.6c0,0.6-0.5,1-1.4,1.1C25.3,207.6,24.8,207.6,24.4,207.5L24.4,207.5z"/>
	<path fill="#F5C933" d="M250.6,208.8c-37.6,5.5-64-21.3-66.4-51.3c0,0-1.5-0.4-1.7,1c-0.4,3.2,0.9,12.9,0.4,12.3
		c-0.9-1.2-7.8-18.7-9-16.7c-1.7,2.9,7.7,22.8,7.1,23.5c-1.9,2.5-12.6-19.1-13.5-17.3c-3.3,6.7,13.2,25.5,13.1,26.4
		c-0.3,2.8-12.6-9.7-13.6-8.2c-2.3,3.6,13.2,14.2,14,15c2.4,2.5-8.4-4-8.8-1.3c-0.3,2.1,5.3,6,8.5,7.5c3.3,1.5,4.4,0.8,5.3,2.3
		c0.7,1.1-6.2-0.1-6,1.4c0.3,3,7.6,1.5,8.7,2.7c1.1,1.2-4.9,0.9-4.6,2c0.4,1.9,6.5,1.5,6.6,2.3c0.1,0.8-3.9,0.8-3.6,2.3
		c0.2,1.4,6.2,0.4,7.7,1.2c1.5,0.8-5.4,0.8-0.1,2.8c5.3,2,11.4,4.2,19.8,4.7c8.4,0.5,12.6-1.9,12.9-2.5c0.3-0.5-4,1-9.9,0.8
		c-5.9-0.3-13.8-3-17-4.5c-1-0.4,3.1-2.1,2.3-3.2c-0.9-1-4.2,0.7-5.5-0.8c-0.8-1,1.6-1.3,1.5-1.9c-0.1-0.6-4.6-1.1-5.4-2.2
		c-0.8-1,2-1.2,2.2-1.9c0.1-0.6-2.9-1.2-3.1-1.9c-0.3-0.7,3.3-1,1.6-1.7c-1.8-0.8-6.5-1.4-7.4-3c-0.9-1.5,3.6-0.2,2.5-1.6
		c-0.8-1-5.2-2.3-6.1-4.8c-0.6-1.7,3.1-0.6,3.2-1.7c0.1-1.7-2.2-0.3-2.9-5.2c-0.2-1.6,2.9-0.9,2.9-0.9c0.2-0.3,0.3-0.6,0.5-0.9
		c0,0,3.7,1.6,8.4,6.6c4.8,4.9,6.1,10,10.6,13.1c2.2,1.6,2.2-1,7.1,1.4c4.9,2.4,6.9,4.2,12,7.9c0.7,0.5,4-1.2,13.9-0.5
		c5.3,0.4,6.4,3,6.4,3c0,0.1,3-2.2,4.4-4.5c0.6-1,1.1-0.2,1.3-0.4C251.2,209.4,250.6,208.8,250.6,208.8L250.6,208.8z"/>
	<path fill="#F5C933" d="M220.8,221.4c-2,0.3-4.1,0.3-6.4,0.2c-8.7-0.6-15.1-3-19.8-4.7c-1.6-0.6-2.3-1.1-2.2-1.6
		c0-0.5,0.8-0.8,1.6-1c0.3-0.1,0.7-0.2,0.8-0.3c-0.7-0.2-2.2-0.2-3.6-0.2c-2.2,0-4.2,0-4.3-1c0,0,0,0-0.1-0.1
		c0.1-0.2,0.1-0.5,0.2-0.7c0.4-0.6,1.4-0.9,2.2-1.1c0.5-0.2,1.1-0.3,1.2-0.5c-0.1-0.2-1.2-0.2-2-0.4c-1.9-0.3-4.3-0.5-4.6-1.9
		c0.4-0.9,1.3-1.1,2.7-1.2c0.7-0.1,2-0.3,2.1-0.5c-0.4-0.5-1.8-0.6-3.2-0.6c-2.5-0.2-5.4-0.3-5.6-2.3c0.7-1.5,2.1-1.2,3.8-1.2
		c0.6,0,1.2,0,1.7-0.1c0-0.8-0.5-0.9-1.5-1.2c-0.8-0.2-1.8-0.4-3.2-1.1c-3.1-1.4-9-5.3-8.7-7.8c0-0.3,0.2-0.9,1-1
		c1.3-0.1,3.9,0.9,5.8,1.7c1,0.4,2.2,0.9,2.5,0.8c-0.6-0.3-1.2-0.7-2-1.3c-7.1-5.4-14.2-11.3-12.4-14.1c1.4-0.4,3.5,1.3,6.9,4
		c2.5,2,5.7,4.5,6.6,4.4c0.1-0.4-1-1.7-2-3.1c-4.4-5.9-13.5-18.2-11-23.5c1.1-0.4,2.4,1.6,5.6,6.8c2.6,4.2,6.6,10.6,7.8,10.5
		c0.1-0.5-1-3.3-2.1-6c-3.4-8.4-6.1-15.6-5-17.5c1.5-0.4,3.7,3.8,7.4,12.1c0.8,1.7,1.5,3.3,1.9,4.1c-0.2-0.6-0.3-1.9-0.4-3.1
		c-0.2-3.1-0.5-6.8-0.2-8.6c0.1-0.7,0.6-1.2,1.3-1.2c0.4-0.1,0.7,0.1,0.8,0c2.5,29.4,27.8,56.7,66.1,51.2c0.5,0.1,0.8,0.5,0.8,0.9
		c0,0,0,0.1,0,0.1c-0.1,0.2-0.2,0.4-0.3,0.6c-0.1-0.1-0.3-0.1-0.4-0.2c-0.2,0.1-0.3,0.2-0.5,0.2c-1.7,2.5-4.6,4.9-4.9,5
		c-0.3-0.5-1.6-2.7-6.4-3.1c-5.4-0.3-8.8,0-10.8,0.3c-0.6,0.1-1.2,0.2-1.8,0.2c-0.7,0.1-1.1,0.2-1.4-0.1c-1-0.7-1.9-1.4-2.9-2.1
		c-3.2-2.4-5.2-3.9-9-5.8c-2.2-1.1-3.4-1-4.2-0.9c-0.3,0-0.6,0.1-1,0.1c-0.6,0.1-1.2,0-1.9-0.5c-2.5-1.9-4.1-4.2-5.8-6.8
		c-1.3-2.1-2.8-4.2-4.9-6.5c-4.7-4.8-8.4-6.5-8.4-6.5c0,0.3,0,0.5,0,0.8c-0.4,0.2-1.3,0-2.1,0.1c-0.3,0-0.6,0.1-0.7,0.3
		c0.3,3.2,1.3,3.8,2,4.3c0.5,0.3,0.9,0.6,0.9,1.3c0,0.7-0.9,0.8-1.3,0.9c-0.4,0-0.7,0.1-1.1,0.1c-0.6,0.1-0.7,0.1-0.8,0.2
		c0.6,1.9,2.6,3,4.1,3.8c0.9,0.5,1.6,0.9,1.9,1.3c0,0,0.1,0.1,0.1,0.2c0,0.2,0.1,0.4,0.1,0.6c-0.1,0.3-0.5,0.3-0.8,0.4
		c-0.5,0-0.9,0.1-1.4,0.1c0.1,1.4,2.5,2.1,4.4,2.6c1,0.2,1.9,0.4,2.5,0.7c0.3,0.1,0.6,0.3,0.6,0.7c-0.1,0.4-0.5,0.6-1.2,0.7
		c-0.3,0.1-0.8,0.3-0.9,0.5c0.1,0.2,1,0.5,1.6,0.8c1,0.4,1.6,0.7,1.5,1.1c-0.1,0.6-0.7,0.8-1.3,1.1c-0.4,0.2-1,0.4-1,0.5
		c0.5,0.7,2,1.2,3.2,1.5c1.6,0.3,2.3,0.6,2.3,1c0.1,0.4-0.5,0.7-1,1c-0.2,0.1-0.6,0.4-0.7,0.5c0.7,0.9,1.9,0.8,3.1,0.7
		c1-0.1,2-0.3,2.5,0.3c0.1,0.2,0.1,0.4,0.2,0.6c-0.1,0.6-0.9,1.3-1.6,1.8c-0.4,0.3-0.9,0.7-0.9,0.8c2.9,1.3,10.9,4.1,17,4.3
		c1.9,0.1,3.9,0.1,6.1-0.2c0.8-0.1,1.6-0.3,2.2-0.4c0.3-0.1,0.6-0.1,0.9-0.2c0.5-0.1,0.7-0.1,0.9,0.1
		C227.3,219.5,225,220.8,220.8,221.4L220.8,221.4z M181.5,202.9c-0.9,0.1-1.1,0.2-1.1,0.3c0.2,1.7,3,1.8,5.1,2c1.7,0,3,0.1,3.5,0.7
		c0,0,0.1,0.1,0.1,0.2c0,0.2,0,0.3,0.1,0.5c-0.3,0.5-1.1,0.6-2.6,0.9c-0.7,0.1-2,0.4-2.2,0.6c0.2,0.9,2.5,1.3,4.2,1.5
		c1.6,0.2,2.4,0.3,2.4,0.8c0.1,0.6-0.8,0.8-1.7,1.1c-0.7,0.2-1.6,0.5-1.9,0.8c0,0.9,2.2,1,3.8,0.9c1.6,0,3,0,3.7,0.4
		c0.1,0.2,0.2,0.4,0.3,0.6c-0.1,0.3-0.6,0.5-1.2,0.7c-0.3,0.1-1,0.3-1.1,0.5c0,0,0,0.4,1.9,1.1c4.7,1.7,11.1,4.2,19.7,4.6
		c2.2,0.2,4.3,0.1,6.3-0.2c4-0.6,6.1-1.8,6.3-2.2c-0.4,0.2-0.9,0.4-1.3,0.5c-0.6,0.1-1.3,0.2-2.2,0.4c-2.2,0.3-4.2,0.3-6.2,0.3
		c-6.1-0.3-14.2-3.1-17.1-4.5c-0.3-0.8,0.2-1.2,0.9-1.7c0.6-0.4,1.3-1.1,1.4-1.4c-0.4-0.6-1.2-0.5-2.1-0.4c-1.3,0.1-2.6,0.3-3.4-0.6
		c-0.1-0.2-0.2-0.5-0.2-0.7c0.1-0.5,0.6-0.7,1.1-1c0.2-0.1,0.6-0.3,0.6-0.4c-0.1-0.1-1.2-0.4-2-0.7c-1.5-0.3-3-0.7-3.4-1.4
		c-0.1-0.2-0.1-0.5-0.2-0.7c0.1-0.4,0.7-0.7,1.3-0.9c0.3-0.1,0.9-0.4,0.9-0.5c-0.1-0.1-0.7-0.4-1.2-0.6c-1-0.4-1.7-0.7-1.8-1.2
		c0.2-0.8,0.8-0.9,1.4-1.1c0.2-0.1,0.7-0.3,0.7-0.3c-0.9-0.4-1.8-0.6-2.7-0.8c-2.1-0.5-4.5-1.2-5.2-2.3c0-0.1,0-0.1-0.1-0.2
		c0-0.2,0-0.4,0-0.7c0.3-0.5,1.1-0.5,1.7-0.5c0.2,0,0.4-0.1,0.6-0.1c-0.1-0.5-0.8-0.9-1.6-1.4c-1.7-0.9-3.7-2-4.3-3.7
		c-0.1-0.3-0.1-0.6,0-0.9c0.2-0.4,0.8-0.5,1.3-0.5c0.4,0,0.7,0,1.1-0.1c0.3,0,0.7-0.1,0.7-0.3c0-0.5-0.2-0.6-0.7-0.9
		c-0.7-0.5-1.8-1.2-2.3-4.3c0-0.3,0-0.6,0.2-0.8c0.6-0.8,3-0.4,3-0.4c0-0.3,0.1-0.5,0.1-0.8c0,0,0,0,0,0c0.6-0.1,4.2,1.6,8.9,6.5
		c2.1,2.2,3.6,4.4,4.9,6.5c1.6,2.5,3.2,4.9,5.6,6.6c0.7,0.5,1.1,0.5,1.6,0.4c0.3,0,0.6-0.1,1-0.1c0.9-0.1,2.1-0.1,4.5,1.1
		c3.8,1.9,5.9,3.4,9.1,5.7c1,0.7,2,1.4,2.9,2.2c0.1,0.1,0.7,0,1,0c0.6-0.1,1.2-0.2,1.8-0.3c2.1-0.3,5.5-0.6,10.9-0.3
		c5.4,0.4,6.5,3,6.6,3.1c0-0.2,2.6-2.5,3.9-4.4c0.2-0.4,0.5-0.6,0.8-0.7c0.2,0,0.4,0.1,0.6,0.1c0-0.3,0-0.6,0.1-0.8
		c-0.1,0.1-0.2,0.2-0.2,0.3c-38.5,5.5-64-21.9-66.5-51.4c-0.1,0-0.2,0-0.4,0c-0.4,0-0.7,0.2-0.7,0.7c-0.2,1.8,0.1,5.6,0.3,8.5
		c0.3,3.3,0.3,3.8,0.1,4c-0.8-0.3-1.5-1.8-2.6-4.5c-1.8-3.9-5.4-12.1-6.4-12.1c-1,1.7,2.8,11.3,5,17c2.1,5.3,2.4,6.1,2.1,6.4
		c-0.2,0.1-0.4,0.2-0.6,0.3c-1.5,0.2-4.2-4.1-8.3-10.6c-2-3.2-4.2-6.9-4.8-7c-2.3,4.9,6.8,17,11.1,22.8c1.9,2.6,2.2,3,2.2,3.4
		c0,0.1,0,0.2,0,0.3c-0.2,0.1-0.4,0.3-0.6,0.4c-1.1,0.1-3.4-1.6-7-4.5c-2.4-2-5.2-4.3-6-4.2c-1.8,2.8,8.9,10.8,12.3,13.3
		c0.9,0.7,1.5,1.1,1.6,1.3c0.3,0.4,0.5,0.6,0.4,0.9c-0.7,0.2-1.5,0-3-0.7c-1.9-0.7-4.4-1.7-5.6-1.6c-0.4,0-0.5,0.3-0.5,0.4
		c-0.2,1.9,4.8,5.6,8.4,7.2c1.4,0.7,2.4,0.9,3.1,1.1c1,0.2,1.7,0.4,2.3,1.4c-0.3,1.7-1.5,1.1-2.8,1
		C182.9,202.8,182.2,202.8,181.5,202.9L181.5,202.9z"/>
	<path fill="#F5C933" d="M275.9,216.6c-1.4-0.1-1.2,0.9-1.2,0.9c0.1,1.3-0.9,3-2,3.4c-0.9,0.3-0.4,0.9-0.7,1.5
		c-1.2,0.1-2.4,0.2-3.7,0.3c-5.8,3.9-13.1,6-21.8,6.2c0,0-1.8,1.6-3.4,3.3c-1.6,1.8-2.8,2.2-3.1,3.4c-0.3,1.3,0.8,1.7,2.3,1.5
		c1.5-0.2,3.5-1.8,3.5-1.8c0,0,0.3,1.1,1.7,1.1c1.4-0.1,3.9-1.4,3.9-1.4c0,0,2.1,0.7,3.8,0.2c1.6-0.5,3-1.7,3-1.7s0.4,1.8,2,1.6
		c1.6-0.1,4-2.5,4-2.5c0,0,1.2,1.2,2.7,0.8c1.5-0.4,3.3-2.4,3.3-2.4c0,0,1.8,0.6,3.5-0.2c1.7-0.7,3.4-2.7,3.4-2.7
		c0,0,1.5,1.1,2.9,0.4c1.4-0.6,2.3-2.7,2.3-2.7c0,0,3.7,1.1,6.2-0.5c1.7-1,1.3-3.7,1.3-3.7c0,0,10.2,0.2,9.7-6.4
		C299.4,214.7,283,216.9,275.9,216.6L275.9,216.6z"/>
	<path fill="#F5C933" d="M260.2,235.6c0,0-0.1,0-0.1,0c-1.5,0.1-2.1-1.2-2.2-1.7c-0.2,0.4-1.3,1.3-2.7,1.7c-1.9,0.2-3.8-0.2-3.9-0.2
		c0.1,0-2.1,1.1-3.5,1.3c-1.4,0.1-2-0.6-2.1-1.2c-0.2,0.5-1.8,1.7-3.2,1.9c-1.2,0.1-2.1-0.1-2.5-0.5c-0.2-0.4-0.3-0.8-0.2-1.3
		c0.3-0.8,0.8-1.3,1.7-2.1c0.4-0.4,0.9-0.8,1.4-1.4c1.7-1.6,3.5-3.3,3.5-3.3c2.2-0.1,4.2-0.3,6.1-0.6c6.1-0.8,11.3-2.8,15.7-5.7
		c1.3-0.1,2.5-0.2,3.8-0.3c-0.1-0.8-0.1-1.2,0.7-1.5c1-0.4,1.9-1.9,1.8-3.1c0,0-0.1-0.4,0.2-0.8c0.2-0.3,0.5-0.5,0.9-0.5
		c4.4,0.3,11.1-0.3,16.5-0.8c7.3-0.6,7.7-0.5,7.8-0.1c0.1,1.5-0.3,2.7-1.2,3.8c-1.6,1.9-4.5,2.6-6.6,2.8l0,0
		c-1.1,0.1-1.9,0.1-2.2,0.1c0.3,0.2,0.6,2.6-1.2,3.6c-2,1.2-5.9,0.6-6.3,0.5c0.1,0.2-0.8,2.1-2.2,2.7c-1.2,0.5-2.8-0.3-3.1-0.4
		c0.1,0.3-1.5,2-3.2,2.7c-1.5,0.6-3.5,0.3-3.8,0.2c0.1,0.1-1.6,2-3.1,2.4c0,0,0,0,0,0c-1.6,0.2-2.7-0.8-2.8-1
		C264,233.2,261.8,235.4,260.2,235.6L260.2,235.6z M257.8,233.4c0.5,0.2,0.9,1.7,2.2,1.5c0,0.1,0.1,0.2,0.1,0.3c0-0.1,0-0.2,0-0.2
		c1.5-0.2,3.8-2.5,3.8-2.5c0.4,0,1.3,1,2.6,0.8c1.6-0.4,3.3-2.3,3.4-2.3c0.2,0,1.3,0.2,2.5,0c0.4-0.1,0.8-0.1,1.1-0.3
		c1.7-0.7,3.3-2.6,3.3-2.6c0.2,0,1.4,0.7,2.5,0.5c1.8-0.8,2.7-2.7,2.7-2.7c0.4-0.2,2.2,0.3,4.1,0c0.9-0.1,1.6-0.4,2.2-0.7
		c1.5-0.9,1.1-3.4,1.1-3.4c0.3-0.3,1.3-0.4,2.5-0.5l0,0c2-0.2,4.8-0.9,6.2-2.6c0.7-0.9,1.1-1.9,1-3.3c-0.3,0-3.8,0.3-7.2,0.5
		c-5.4,0.4-12.1,1-16.1,0.9c-0.3,0-0.5,0.1-0.7,0.1c0,1.9-1,3.7-2.3,4.1c-0.4,0.1-0.4,0.2-0.4,0.7c0,0.2,0,0.5-0.2,0.7
		c-1.3,0.2-2.6,0.3-3.9,0.5c-5.6,3.9-13,6-21.8,6.4c0.1,0-1.7,1.6-3.2,3.2c-0.6,0.6-1.1,1.1-1.6,1.4c-0.8,0.8-1.3,1.1-1.5,1.8
		c-0.1,0.3-0.1,0.6,0.1,0.8c0.3,0.3,1.1,0.5,2,0.4c0,0,0,0,0,0c1.5-0.2,3.3-1.7,3.3-1.8c0.5,0.2,0.7,1,1.8,1c0,0,0,0,0,0
		c1.5-0.2,3.7-1.3,3.7-1.3c0.3,0,1.9,0.5,3.4,0.3C256.5,234.6,257.8,233.4,257.8,233.4L257.8,233.4z"/>
	<path fill="#F5C933" d="M254.2,212.4c0,0,3-1.6,8.2-3.3c9.9-3.4,13.3-3.2,14-3.9c7.8-9.7,13.5-11.1,19.2-14c4.5-4.3,6-9.9,10.8-16
		c4.8-6,7.6-6.8,7.6-6.8c0.2,0.4,0.4,0.8,0.6,1.2c0,0,2.6-2.2,2.4-0.5c-0.2,2.5-2.2,5-2.1,6.7c0.1,1.1,3.5-0.8,3.2,0.2
		c-0.8,2.7-3.6,4.5-4.3,5.7c-1.2,1.8,3.1-0.9,2.2,0.9c-0.9,1.8-5.3,4-7,5.2c-1.1,0.7,1.1,0.7,0.9,1.4c-0.2,0.8-4.7,2.9-4.6,3.5
		c0.1,0.8,1.2,0.7,0.7,1.3c-0.9,1.2-4.7,1.7-4.7,2.4c-0.1,0.7,0.8,1.2-0.1,2.4c-1.3,1.8-2.3,0.3-2.9,1.7c-0.3,0.8,2.2,2,0.5,2.5
		c-2.2,0.7-4,1.9-5.9,3.3c-0.7,0.6-4.1,1.6-6,2.4c-1.3,0.4-8.2,2.2-7.9,2.7c0.3,0.5,4.7-0.1,14-2.8c4-1.2,6.3-1.9,12.6-4.6
		c7.2-3.1-1.8-2.2-0.4-3.4c1.5-1.1,7.7-1.3,7.9-2.7c0.2-1.6-3.5-0.8-3.4-1.6c0.1-0.9,7.6-1.6,8-3.6c0.2-1.1-4.2,0.1-3.2-1.3
		c1.1-1.4,7-2.4,7.3-5c0.1-1.5-4.9,0.8-4.3-0.5c0.3-0.5,2.3-1.3,4.3-2.8c3.2-2.5,8.1-6.7,7.8-8.8c-0.3-2.7-10.3,7-9.4,3.6
		c0.3-1.3,16.3-15.3,13.8-18.1c-1.8-2-13.3,12.6-13.7,10c-0.1-0.9,17.9-22.6,14.6-28.7c-0.9-1.7-14.4,25.4-16.3,23.4
		c-0.5-0.6,11.5-26.7,9.6-28.9c-0.9-1.2-2.8,3.1-4.9,7.8c-2,4.8-4.3,10.1-4.8,10.8c-0.5,0.7,0.5-9.8,0.1-12.9
		c-0.2-1.3-1.6-0.6-1.6-0.6c-2.1,32.6-33.3,60-58.1,67.2c-6.4,1.8-8.5,5.1-15.6,10.1c-2.3,1.6-6,2.7-9.2,5c-3.2,2.2-5.4,5.2-6.5,7
		c-0.5,0.9,0.2,3.2,0.9,3.4c0.7,0.1,0.6-1.8,1.4-2.4c0.7-0.4,0.7,0.7,1.6,0.5c0.9-0.2,1.8-1.2,1.8-1.2c0,0,17.5-2.5,25-3.7
		c1.4-0.3,3.6-1.1,4.6-2.2c-0.3-0.8-2.3-0.1-3.6,0.2c-5.3,0.4-12.2,1.7-17.2,2.1c0,0-0.8,0.1-0.7-0.8c0-0.3,3.2-4.1,3.2-4.1
		c-0.8,0.1-1.7,0.2-2.5,0.3c0,0-1.5,1-2.2,1.2c-0.7,0.2-1-0.2-0.7-0.5C242.9,219.1,254.2,212.4,254.2,212.4L254.2,212.4z"/>
	<path fill="#F5C933" d="M228.7,233.3c-0.1,0-0.1,0-0.2,0c-0.5-0.1-0.9-1-1-1.3c-0.3-0.7-0.4-1.7,0-2.3c1.2-2.1,3.5-5.1,6.5-7.1
		c1.7-1.2,3.5-2.1,5.2-2.9c1.5-0.7,2.9-1.3,4-2.1c2.2-1.6,4-3,5.5-4.3c3.3-2.6,5.7-4.6,10.1-5.9c26.3-7.5,55.8-35.6,57.9-66.9
		c0.5-0.7,2.1-0.5,2.2,0.5c0.3,1.8,0.1,5.5,0,8.6c-0.1,2-0.2,4-0.2,4.3c0-0.5,1.9-4.9,3.7-9.1c0.2-0.5,0.4-1.1,0.6-1.6
		c2.4-5.5,3.7-8.2,4.8-8.3c0,0,0.1,0,0.1,0c0.2,0.1,0.3,0.2,0.5,0.3c1.2,1.5-2.3,10.6-6.8,21.6c-1.5,3.5-2.8,6.8-2.8,7.3
		c1.3-0.2,6.1-8.3,9.5-14.1c4-6.9,5.6-9.4,6.3-9.4c2.9,5-7,18.8-11.8,25.6c-1.1,1.6-2.3,3.1-2.3,3.4c0.8-0.2,3.2-2.4,5.4-4.4
		c2.9-2.9,5.9-5.8,7.4-5.9c0,0,0.1,0,0.1,0c0.2,0.1,0.4,0.2,0.7,0.2c1.8,2-4.1,8.3-10.4,14.8c-1.6,1.6-3.2,3.3-3.3,3.5
		c0.7,0.4,2.3-0.7,3.9-1.8c2.8-2,5.4-3.4,5.6-2c0.2,1.7-2.4,4.8-8,9.1c-1,0.7-2.1,1.4-2.9,1.8c-0.5,0.3-1.2,0.7-1.3,0.9
		c0.6,0,1-0.1,1.4-0.2c1.2-0.2,2.2-0.3,2.6,0c0.1,0.2,0.1,0.4,0.2,0.5c-0.2,1.8-2.5,2.8-4.6,3.6c-1.2,0.5-2.3,0.9-2.7,1.5
		c0,0.4,0.8,0.4,1.3,0.4c0.9,0,1.6,0,1.9,0.4c-0.2,1.9-3,2.6-5.4,3.2c-1.1,0.3-2.3,0.7-2.5,0.9c0.1,0,0.7,0.1,1.1,0.2
		c1,0,2.4,0.2,2.3,1.4c-0.2,1-2.1,1.4-4.4,1.9c-1.6,0.3-3.1,0.6-3.7,1.1c0,0,0.7,0.2,1.2,0.3c1.1,0.2,2.1,0.4,2.2,1.1
		c0,0.4-0.4,1-3,2.1c-6.3,2.7-8.6,3.5-12.6,4.7c-7.2,2-10.7,2.7-12.2,2.9c-1.7,0.2-2,0-2.2-0.2c0.2-0.7,1.4-1.1,5.7-2.4
		c1.1-0.3,2.1-0.6,2.5-0.8c0.6-0.2,1.3-0.5,2-0.8c1.6-0.6,3.3-1.2,3.8-1.5c1.9-1.4,3.6-2.6,6-3.3c0.4-0.3,0-0.7-0.1-1
		c-0.4-0.4-0.8-0.9-0.6-1.4c0.2-0.6,0.5-0.8,1-0.9c0.2,0.1,0.4,0.1,0.6,0.2c0-0.1,0-0.2,0-0.3c0.3,0,0.8-0.1,1.2-0.9
		c0.5-0.6,0.3-1,0.2-1.4c-0.1-0.2-0.2-0.5-0.2-0.8c0.1-0.6,0.8-0.8,2-1.2c1-0.3,2.3-0.8,2.8-1.3c-0.4-0.4-0.7-0.6-0.8-1.1
		c-0.1-0.5,0.5-0.8,2.3-1.9c0.9-0.5,2.3-1.4,2.4-1.7c0.1-0.2-0.3-0.2-0.5-0.4c-0.3-0.1-0.7-0.3-0.7-0.6c0-0.1,0-0.1,0-0.2
		c0.1-0.2,0.3-0.3,0.4-0.5c0.5-0.3,1.2-0.8,2-1.3c1.9-1.1,4.2-2.6,4.8-3.7c-0.4-0.2-0.7-0.2-1-0.1c-0.3,0.1-0.6,0.2-0.8,0.2
		c-0.2-0.1-0.4-0.2-0.7-0.3c-0.1-0.2,0.1-0.5,0.2-0.8c0.3-0.4,0.7-0.8,1.2-1.3c1.2-1.1,2.6-2.5,3.1-4.3c-0.4,0.1-0.7,0.1-1,0.2
		c-1.4,0.4-2.2,0.1-2.2-0.3c-0.1-0.9,0.4-2,0.9-3.2c0.5-1.2,1.1-2.4,1.2-3.6c-0.6-0.3-1.5,0.4-2,0.8c-0.3-0.4-0.7-0.8-1-1.2
		c0,0.2-2.7,1.1-7.1,6.7c-2.1,2.7-3.5,5.3-4.9,7.7c-1.7,3-3.3,5.9-5.8,8.3c-1.1,0.6-2.1,1-3.1,1.5c-4.7,2.2-9.7,4.5-16.1,12.4
		c-0.4,0.4-1,0.5-2.4,0.8c-2.1,0.4-5.7,1.1-11.7,3.1c-5.2,1.8-8.1,3.3-8.1,3.3c-0.1,0.1-11.2,6.6-15,10c1.1-0.2,2.3-0.8,2.7-1.1
		c0.9-0.1,1.8-0.3,2.7-0.4c-1.3,2.2-2.8,4.1-2.9,4.4c0.1,0.3,0.3,0.5,0.4,0.8c0-0.1,0-0.2,0-0.3c5-0.4,11.9-1.7,17.2-2
		c0.3-0.1,0.6-0.2,0.9-0.2c1.1-0.3,2.5-0.8,2.9,0.2c-1.1,1.5-3.4,2.3-4.8,2.5c-7.4,1.2-24.6,3.7-25,3.8c0,0.1-1,1-1.9,1.2l0,0
		c-0.6,0.1-0.9-0.2-1-0.4c-0.6,0-0.9,0.6-1,1C229.3,232.7,229.1,233.2,228.7,233.3L228.7,233.3z M317.6,140.6
		c-0.3,0-0.6,0.2-0.6,0.2c-1.8,31.1-31.6,59.5-58.2,67c-4.3,1.2-6.6,3.2-9.9,5.8c-1.5,1.3-3.3,2.7-5.6,4.3c-1.1,0.8-2.6,1.5-4.1,2.2
		c-1.7,0.9-3.5,1.6-5.1,2.9c-2.9,2-5.2,4.8-6.3,6.9c-0.2,0.3-0.2,1.1,0.1,1.8c0.2,0.6,0.5,1,0.7,1.1l0,0c0.1-0.1,0.2-0.5,0.3-0.8
		c0.2-0.6,0.4-1.2,0.9-1.6c0.7-0.1,0.9,0,1.1,0.2c0.2,0.3,0.3,0.4,0.6,0.3c0.8-0.1,1.7-1,1.7-1c0.2-0.1,17.7-2.6,25.2-3.9
		c1.2-0.2,3.5-0.9,4.3-2.1c-0.1,0.1-0.4,0-1.1,0.1c-0.4,0.1-0.9,0.2-1.3,0.3c-0.3,0.1-0.6,0.2-1,0.2c-5.3,0.3-12.2,1.7-17.2,2
		c0,0-0.4,0.1-0.7-0.2c-0.2-0.2-0.3-0.4-0.3-0.8c0.1-0.3,1.1-1.7,3.2-4.3c-0.8,0.3-1.5,0.6-2.3,0.8l0,0c0.1,0-1.4,1-2.2,1.2
		c-0.6,0.1-1,0-1.2-0.3c0-0.1-0.1-0.2-0.1-0.2c0.1-0.1,0.2-0.2,0.3-0.4c3.8-3.4,14.7-9.8,15.1-10.1c0,0,3-1.6,8.2-3.3
		c6-2.1,9.6-2.9,11.7-3.3c1.2-0.2,1.9-0.4,2.1-0.6c6.4-8,11.5-10.3,16.3-12.6c1-0.4,2-0.9,3-1.4c2.4-2.4,4-5.1,5.7-8.1
		c1.4-2.4,2.8-5,5-7.7c4.8-6.1,7.6-6.9,7.8-6.9c0.3,0.4,0.6,0.8,0.9,1.3c-0.1-0.3,1-1.2,1.7-1.2c0.2,0.1,0.4,0.1,0.6,0.2
		c0.1,0.1,0.2,0.4,0.2,0.7c-0.1,1.4-0.7,2.7-1.2,3.8c-0.5,1.1-1,2.1-0.9,2.9c0.7,0.1,1.1,0,1.5-0.1c0.3-0.1,0.7-0.2,1-0.2
		c0.2,0.1,0.4,0.1,0.7,0.2c-0.6,2.4-2.1,3.9-3.2,4.9c-0.4,0.5-0.9,0.9-1.1,1.2c0.1,0.2,0.3,0.1,0.7,0c0.3-0.1,0.7-0.2,0.9-0.2
		c0.1,0,0.1,0,0.2,0c0.2,0.1,0.4,0.2,0.6,0.2c0.2,0.3,0,0.7-0.1,0.8c-0.7,1.4-3,2.8-5,4c-0.8,0.5-1.5,0.9-2,1.3
		c0.6,0.5,1.2,0.8,1,1.3c-0.1,0.5-0.9,1-2.7,2.1c-0.7,0.5-1.8,1.2-2,1.4c0.1,0.2,0.2,0.3,0.4,0.4c0.1,0.2,0.3,0.3,0.4,0.5
		c-0.7,1.3-2.1,1.7-3.2,2.1c-0.6,0.2-1.5,0.6-1.6,0.7c0.4,1,0.6,1.6-0.1,2.5c-0.6,0.9-1.2,1.1-1.7,1.1c-0.2,0-0.4,0-0.6,0
		c-0.2,0-0.3,0.1-0.5,0.5c-0.1,0.2,0.3,0.6,0.5,0.9c0.4,0.3,0.7,0.9,0.5,1.3c-0.1,0.3-0.4,0.4-0.8,0.5c-2.3,0.8-4,1.9-5.8,3.3
		c-0.6,0.4-2.2,1-4,1.6c-0.7,0.2-1.5,0.5-2.1,0.8c-0.4,0.1-1.3,0.4-2.5,0.8c-1.5,0.4-4.2,1.1-5.1,1.6c0.6,0,2.5,0.2,13.5-3
		c4-1.2,6.3-1.9,12.6-4.6c2.6-1.2,2.6-1.6,2.6-1.6c0-0.3-1.3-0.5-1.8-0.5c-1-0.2-1.5-0.4-1.6-0.7c0-0.1,0-0.1,0-0.2
		c0.1-0.1,0.2-0.2,0.3-0.4c0.7-0.5,2.3-0.9,3.9-1.1c1.5-0.3,3.8-0.9,3.9-1.4c0.1-0.6-0.7-0.7-1.9-0.8c-0.8-0.1-1.6-0.2-1.5-0.8
		c0.1-0.6,0.9-0.8,2.9-1.3c1.9-0.5,4.8-1.3,5.1-2.3c-0.1-0.3-1-0.3-1.5-0.3c-0.9,0-1.7,0-1.8-0.4c0,0-0.1-0.1-0.1-0.1
		c0.1-0.2,0.2-0.4,0.2-0.7c0.5-0.6,1.7-1.1,3-1.6c1.9-0.8,4.1-1.7,4.2-3.1c-0.2-0.4-1.2-0.2-2.2,0c-0.9,0.2-1.7,0.4-2,0
		c0.2-0.8,0.7-1.2,1.6-1.7c0.7-0.5,1.8-1,2.8-1.8c7-5.5,7.9-7.7,7.7-8.5c-1.2-0.2-3.1,1.1-4.7,2.3c-1.8,1.2-3.3,2.2-4.1,2.3
		c-0.2-0.1-0.4-0.1-0.6-0.2c-0.1-0.2-0.1-0.5,0-0.9c0.1-0.3,0.9-1.3,3.4-3.8c4.2-4.3,12-12.2,10.3-14c-1.5,0.1-4.8,3.1-7.3,5.6
		c-2.9,2.8-4.8,4.7-5.7,4.7c-0.1,0-0.2,0-0.3,0c-0.1-0.2-0.3-0.4-0.4-0.6c-0.1-0.3,0.3-0.9,2.5-3.9c4.7-6.7,14.5-20.3,12.1-24.8
		c-0.5,0.3-3.3,5-5.8,9.2c-5,8.6-8.4,14.3-10,14.4c-0.7-0.5-0.5-1.1,2.2-8c3-7.4,8-19.7,6.8-21.1c-0.9,0-3,4.5-4.4,7.8
		c-0.2,0.5-0.4,1-0.6,1.6c-1.9,4.5-3.7,8.6-4.2,9.3c-0.7-0.1-0.7-0.7-0.5-4.5c0.1-3.1,0.3-6.8,0.1-8.5
		C318.3,140.7,318,140.6,317.6,140.6L317.6,140.6z"/>
	<path fill="#4EACC3" d="M236.8,225.5c0-0.3-0.9,0-1.5,0.2c-0.6,0.3-1,0.6-1,0.9c0,0.4,0.8,0.1,1.4-0.2
		C236.4,226.2,236.8,225.9,236.8,225.5L236.8,225.5z"/>
	<path fill="#4EACC3" d="M234.8,227c-0.1,0-0.2,0-0.3,0c-0.1-0.1-0.3-0.3-0.4-0.4c-0.1-0.5,0.4-1,1.2-1.3c0.5-0.2,0.9-0.3,1.2-0.3
		c0.1,0,0.2,0,0.3,0c0.1,0.1,0.2,0.3,0.4,0.4c0,0.4-0.4,1-1.2,1.3C235.4,226.9,235.1,227,234.8,227L234.8,227z"/>
	<path fill="#F5C933" d="M259.2,95.2c2.1,0.2,3.2-1.2,3.5-2.8c0.4-2.2-0.5-12.7-0.5-12.7c0,0-4.9,10.2-5.3,12.3
		C256.6,93.7,257.1,95,259.2,95.2L259.2,95.2z"/>
	<path fill="#F5C933" d="M267,96.4c2,0.6,3.3-0.5,3.9-2.1c0.8-2.1,2-12.9,2-12.9c0,0-6.7,9.2-7.5,11.3C264.8,94.4,265,95.9,267,96.4
		L267,96.4z"/>
	<path fill="#F5C933" d="M274.1,99.4c1.8,0.9,3.2,0,4.1-1.4c1.1-1.9,4.4-12.5,4.4-12.5c0,0-8.1,7.9-9.4,9.9
		C272.4,96.8,272.3,98.4,274.1,99.4L274.1,99.4z"/>
	<path fill="#F5C933" d="M280.3,103.6c1.5,1.4,3.1,0.7,4.2-0.6c1.5-1.7,6.7-11.6,6.7-11.6c0,0-9.3,6.3-10.8,8
		C279.2,100.8,278.8,102.3,280.3,103.6L280.3,103.6z"/>
	<path fill="#F5C933" d="M285.4,109.2c1.2,1.6,2.8,1.4,4.1,0.3c1.8-1.4,8.7-10.3,8.7-10.3c0,0-10.1,4.4-11.9,5.8
		C284.9,106.1,284.2,107.6,285.4,109.2L285.4,109.2z"/>
	<path fill="#F5C933" d="M289.2,115.9c0.9,1.9,2.4,1.9,3.9,1.1c2-1.1,10.3-8.7,10.3-8.7c0,0-10.6,2.4-12.6,3.5
		C289.3,112.6,288.4,114,289.2,115.9L289.2,115.9z"/>
	<path fill="#F5C933" d="M291.6,123.3c0.4,2,1.9,2.4,3.5,1.9c2.1-0.7,11.6-6.6,11.6-6.6c0,0-10.6,0.3-12.7,0.9
		C292.3,120.1,291.2,121.3,291.6,123.3L291.6,123.3z"/>
	<path fill="#F5C933" d="M292.4,131.2c0,2.2,1.4,2.8,3,2.6c2.2-0.3,12.4-4.4,12.4-4.4c0,0-10.2-1.8-12.4-1.6
		C293.7,128.1,292.4,129.1,292.4,131.2L292.4,131.2z"/>
	<path fill="#F5C933" d="M291.6,139.4c-0.4,2.2,0.8,3,2.4,3.2c2.1,0.2,12.7-1.9,12.7-1.9c0,0-9.5-3.9-11.6-4
		C293.5,136.5,291.9,137.1,291.6,139.4L291.6,139.4z"/>
	<path fill="#F5C933" d="M289.2,147.4c-0.8,2.1,0.1,3.2,1.6,3.6c2,0.6,12.6,0.5,12.6,0.5c0,0-8.4-5.7-10.3-6.3
		C291.6,144.9,290.1,145.3,289.2,147.4L289.2,147.4z"/>
	<path fill="#F5C933" d="M285.4,155c-1.2,1.9-0.5,3.3,0.8,4c1.8,0.9,11.9,3,11.9,3c0,0-6.8-7.3-8.7-8.4
		C288.2,153,286.6,153,285.4,155L285.4,155z"/>
	<path fill="#F5C933" d="M280.3,161.8c-1.5,1.7-1.2,3.2,0,4.2c1.5,1.2,10.8,5.3,10.8,5.3c0,0-5.1-8.8-6.7-10
		C283.4,160.3,281.8,160.1,280.3,161.8L280.3,161.8z"/>
	<path fill="#F5C933" d="M274.1,167.7c-1.8,1.5-1.7,3-0.8,4.3c1.2,1.7,9.4,7.4,9.4,7.4c0,0-3.2-9.7-4.4-11.3
		C277.3,166.8,275.9,166.3,274.1,167.7L274.1,167.7z"/>
	<path fill="#F5C933" d="M267,172.5c-2,1.1-2.2,2.6-1.6,4.1c0.8,1.9,7.5,9.3,7.5,9.3c0,0-1.2-10.4-2-12.3
		C270.2,172.3,268.9,171.4,267,172.5L267,172.5z"/>
	<path fill="#F5C933" d="M228.4,174c-1.8-0.9-3.2-0.1-4.1,1.5c-1.2,1.9-4.4,12.5-4.4,12.5c0,0,8.2-7.9,9.4-9.9
		C230.1,176.6,230.2,175,228.4,174L228.4,174z"/>
	<path fill="#F5C933" d="M222.1,169.8c-1.6-1.3-3.1-0.7-4.2,0.6c-1.6,1.7-6.7,11.7-6.7,11.7c0,0,9.3-6.4,10.8-8.1
		C223.2,172.7,223.6,171.1,222.1,169.8L222.1,169.8z"/>
	<path fill="#F5C933" d="M217,164.3c-1.2-1.6-2.8-1.3-4.1-0.3c-1.8,1.5-8.7,10.5-8.7,10.5c0,0,10.2-4.6,12-6
		C217.5,167.4,218.2,165.9,217,164.3L217,164.3z"/>
	<path fill="#F5C933" d="M213.2,157.7c-0.8-1.9-2.4-1.9-3.9-1.1c-2,1.1-10.3,8.8-10.3,8.8c0,0,10.6-2.5,12.6-3.7
		C213,160.9,214,159.6,213.2,157.7L213.2,157.7z"/>
	<path fill="#F5C933" d="M210.8,150.3c-0.4-2.1-1.9-2.3-3.5-1.9c-2,0.7-11.5,6.9-11.5,6.8c0,0,10.6-0.5,12.7-1.2
		C210.1,153.5,211.3,152.3,210.8,150.3L210.8,150.3z"/>
	<path fill="#F5C933" d="M210.1,142.3c0-2.2-1.4-2.8-3-2.6c-2.2,0.3-12.5,4.6-12.5,4.6c0,0,10.3,1.7,12.5,1.4
		C208.7,145.5,210.1,144.5,210.1,142.3L210.1,142.3z"/>
	<path fill="#F5C933" d="M210.8,134.3c0.4-2.2-0.8-3.1-2.3-3.2c-2.1-0.1-12.7,2.2-12.7,2.1c0,0,9.5,3.7,11.5,3.8
		C208.9,137.1,210.4,136.4,210.8,134.3L210.8,134.3z"/>
	<path fill="#F5C933" d="M213.2,126.2c0.8-2.1-0.1-3.2-1.6-3.7c-2-0.5-12.6-0.3-12.6-0.3c0,0,8.3,5.6,10.3,6.1
		C210.8,128.7,212.3,128.3,213.2,126.2L213.2,126.2z"/>
	<path fill="#F5C933" d="M217,118.6c1.2-1.9,0.5-3.3-0.8-4c-1.8-0.9-12-2.8-12-2.8c0,0,6.9,7.2,8.7,8.2
		C214.2,120.7,215.8,120.6,217,118.6L217,118.6z"/>
	<path fill="#F5C933" d="M222.1,111.6c1.5-1.7,1.1-3.2-0.1-4.2c-1.5-1.3-10.8-5.2-10.8-5.2s5.1,8.6,6.7,9.9
		C219,113.1,220.6,113.4,222.1,111.6L222.1,111.6z"/>
	<path fill="#F5C933" d="M251.2,100.5c20-2.8,36.2,11.4,36.2,31.4c0,20-16.2,38.3-36.2,41.1c-20,2.8-36.2-11.2-36.2-31.2
		C214.9,121.8,231.1,103.3,251.2,100.5L251.2,100.5z"/>
	<path fill="#F5C933" d="M251.2,95.5c2.2-0.3,3-1.8,3-3.4c0-2.1-3-12-3-12c0,0-2.9,10.7-2.9,12.8C248.3,94.5,249.1,95.8,251.2,95.5
		L251.2,95.5z"/>
	<path fill="#F5C933" d="M259.2,175.9c-2.1,0.8-2.6,2.3-2.3,3.9c0.4,2,5.3,10.8,5.3,10.8s0.9-10.8,0.5-12.8
		C262.4,176.2,261.3,175.2,259.2,175.9L259.2,175.9z"/>
	<path fill="#F5C933" d="M251.2,177.8c-2.1,0.4-2.9,1.8-2.9,3.4c0,2.2,2.9,12,2.9,12s3-10.6,3-12.8
		C254.2,178.7,253.3,177.5,251.2,177.8L251.2,177.8z"/>
	<path fill="#F5C933" d="M243.2,178.1c-2.1,0-3.2,1.2-3.5,2.9c-0.4,2.1,0.5,12.7,0.5,12.7c0,0,4.9-10.2,5.3-12.3
		C245.8,179.7,245.3,178.3,243.2,178.1L243.2,178.1z"/>
	<path fill="#F5C933" d="M235.4,176.9c-2-0.6-3.3,0.6-3.9,2.2c-0.8,2.1-2,12.8-2,12.8c0,0,6.7-9.3,7.5-11.4
		C237.7,178.9,237.4,177.4,235.4,176.9L235.4,176.9z"/>
	<path fill="#F5C933" d="M228.4,105.7c1.8-1.5,1.7-3,0.8-4.2c-1.2-1.6-9.4-7.4-9.4-7.4c0,0,3.2,9.7,4.4,11.3
		C225.1,106.5,226.5,107.1,228.4,105.7L228.4,105.7z"/>
	<path fill="#F5C933" d="M235.4,100.8c2-1.1,2.2-2.6,1.6-4.1c-0.8-1.9-7.5-9.3-7.5-9.3s1.2,10.5,2,12.3
		C232.2,101.2,233.5,101.9,235.4,100.8L235.4,100.8z"/>
	<path fill="#F5C933" d="M243.2,97.4c2.1-0.7,2.6-2.2,2.3-3.9c-0.4-2-5.3-10.8-5.3-10.8c0,0-0.9,10.8-0.5,12.8
		C240,97.1,241.1,98.2,243.2,97.4L243.2,97.4z"/>
</g>
</svg>
