<svg version="1.1" id="kor" name="south korea" xmlns="http://www.w3.org/2000/svg" xmlns:xlink="http://www.w3.org/1999/xlink" x="0px" y="0px"
	 viewBox="0 0 480 320" enable-background="new 0 0 480 320" xml:space="preserve">
<g id="flag-kor">
	<path fill="#FFFFFF" d="M0,300c160,44.8,320-44.8,480,0c0-93.3,0-186.7,0-280C320-24.8,160,64.8,0,20C0,113.3,0,206.7,0,300z"/>
	<path fill="#010101" d="M317.7,56.4c5.9,8.3,11.8,16.7,17.8,25.2c-3.2,2.4-6.4,4.8-9.7,7.3c-5.9-8.4-11.9-16.7-17.8-25
		C311.2,61.4,314.4,58.9,317.7,56.4z"/>
	<path fill="#010101" d="M338.7,86.2c5.9,8.5,11.9,17.1,17.8,25.7c-3.2,2.3-6.5,4.6-9.7,6.9c-5.9-8.5-11.9-17-17.8-25.4
		C332.2,91,335.4,88.6,338.7,86.2z"/>
	<path fill="#010101" d="M332.2,45.4c12.9,18.4,25.9,37.2,38.8,56.4c-3.2,2.2-6.5,4.4-9.7,6.7c-12.9-19-25.9-37.6-38.8-55.8
		C325.8,50.3,329,47.8,332.2,45.4z"/>
	<path fill="#010101" d="M346.8,34.7c5.9,8.6,11.9,17.2,17.8,26c-3.2,2.2-6.5,4.5-9.7,6.8c-5.9-8.6-11.9-17.2-17.8-25.7
		C340.3,39.4,343.5,37.1,346.8,34.7z"/>
	<path fill="#010101" d="M367.8,65.5c5.9,8.8,11.8,17.7,17.8,26.7c-3.2,2.1-6.5,4.2-9.7,6.4c-5.9-8.9-11.9-17.6-17.8-26.3
		C361.3,70,364.6,67.7,367.8,65.5z"/>
	<path fill="#010101" d="M133.2,201.1c12.9,18.7,25.9,36.9,38.8,55c-3.2,2.5-6.5,5-9.7,7.5c-12.9-18.2-25.9-36.6-38.8-55.5
		C126.7,205.8,130,203.4,133.2,201.1z"/>
	<path fill="#010101" d="M118.7,211.5c5.9,8.7,11.8,17.3,17.8,25.8c-3.2,2.4-6.5,4.7-9.7,7c-5.9-8.6-11.9-17.3-17.8-26.1
		C112.2,216,115.4,213.7,118.7,211.5z"/>
	<path fill="#010101" d="M139.7,242c5.9,8.5,11.9,16.9,17.8,25.3c-3.2,2.5-6.5,4.9-9.7,7.3c-5.9-8.4-11.9-16.9-17.8-25.5
		C133.2,246.7,136.5,244.4,139.7,242z"/>
	<path fill="#010101" d="M104.1,221.5c12.9,19.3,25.9,38.2,38.8,56.7c-3.2,2.4-6.5,4.8-9.7,7.1c-12.9-18.7-25.9-37.7-38.8-57.3
		C97.6,225.8,100.9,223.6,104.1,221.5z"/>
	<path fill="#010101" d="M123.5,136.9c12.9-20,25.9-40.3,38.8-61c3.2,1.9,6.5,3.7,9.7,5.5c-12.9,20.8-25.9,41.3-38.8,61.4
		C130,140.9,126.7,138.9,123.5,136.9z"/>
	<path fill="#010101" d="M109,127.6c12.9-19.6,25.9-39.7,38.8-60.1c3.2,1.9,6.5,3.8,9.7,5.7c-12.9,20.6-25.9,40.9-38.8,60.7
		C115.4,131.8,112.2,129.7,109,127.6z"/>
	<path fill="#010101" d="M94.4,117.9c12.9-19.3,25.9-39,38.8-59.2c3.2,2,6.5,3.9,9.7,5.8c-12.9,20.4-25.9,40.4-38.8,59.9
		C100.9,122.3,97.6,120.1,94.4,117.9z"/>
	<path fill="#010101" d="M308,238.6c5.9-9.5,11.9-19,17.8-28.4c3.2,1.9,6.4,3.8,9.7,5.7c-5.9,9.3-11.8,18.7-17.8,28.1
		C314.4,242.2,311.2,240.4,308,238.6z"/>
	<path fill="#010101" d="M329,205.1c5.9-9.4,11.9-18.8,17.8-28c3.2,2,6.5,4,9.7,6c-5.9,9.1-11.9,18.4-17.8,27.7
		C335.4,208.9,332.2,207,329,205.1z"/>
	<path fill="#010101" d="M322.5,246.9c5.9-9.4,11.9-18.8,17.8-28.1c3.2,1.9,6.5,3.9,9.7,5.9c-5.9,9.2-11.9,18.5-17.8,27.9
		C329,250.7,325.8,248.8,322.5,246.9z"/>
	<path fill="#010101" d="M343.5,213.7c5.9-9.2,11.9-18.4,17.8-27.5c3.2,2,6.5,4.1,9.7,6.2c-5.9,9-11.9,18-17.8,27.2
		C350,217.6,346.8,215.6,343.5,213.7z"/>
	<path fill="#010101" d="M337.1,255.4c5.9-9.3,11.9-18.5,17.8-27.7c3.2,2,6.5,4,9.7,6.1c-5.9,9.1-11.9,18.2-17.8,27.5
		C343.5,259.3,340.3,257.3,337.1,255.4z"/>
	<path fill="#010101" d="M358.1,222.7c5.9-9.1,11.9-18.2,17.8-27.1c3.2,2.1,6.5,4.3,9.7,6.5c-5.9,8.8-11.8,17.7-17.8,26.7
		C364.6,226.8,361.3,224.7,358.1,222.7z"/>
	<path fill="#B51F3C" d="M181.8,128.8c-0.3,0.4-0.5,0.8-0.7,1.3C181.3,129.6,181.5,129.2,181.8,128.8"/>
	<path fill="#B51F3C" d="M278.9,96.4c-32.2-17.2-75.6-2-97.1,32.4c-10.8,17.3-6.4,38.6,9.7,47.4c16.1,8.8,37.8,1.3,48.5-16.2
		c10.7-17.6,32.5-25,48.5-16.3c16.1,8.8,20.4,30.2,9.7,47.4C319.7,156.7,311,113.9,278.9,96.4"/>
	<path fill="#273875" d="M181.8,128.8c-10.8,17.3-6.4,38.6,9.7,47.4c16.1,8.8,37.8,1.3,48.5-16.2c10.7-17.6,32.5-25,48.5-16.3
		c16.1,8.8,20.4,30.2,9.7,47.4c-21.4,34.5-64.9,49.6-97.1,32.4C169,206.1,160.3,163.3,181.8,128.8"/>
</g>
</svg>
