<svg version="1.1" id="kwt" name="kuwait" xmlns="http://www.w3.org/2000/svg" xmlns:xlink="http://www.w3.org/1999/xlink" x="0px" y="0px"
	 viewBox="0 0 480 320" enable-background="new 0 0 480 320" xml:space="preserve">
<g id="flag-kwt">
	<path fill="#419877" d="M0,112.8c160,44.8,320-44.8,480,0c0-30.9,0-61.9,0-92.8C320-24.8,160,64.8,0,20C0,51,0,81.9,0,112.8z"/>
	<path fill="#FFFFFF" d="M0,206.2c160,44.8,320-44.8,480,0c0-31.1,0-62.2,0-93.4c-160-44.8-320,44.8-480,0C0,144,0,175.1,0,206.2z"
		/>
	<path fill="#BC2035" d="M0,299.6c160,44.8,320-44.8,480,0c0-31.1,0-62.2,0-93.4c-160-44.8-320,44.8-480,0C0,237.3,0,268.4,0,299.6z
		"/>
	<path fill="#010101" d="M0,20c0,93.2,0,186.4,0,279.5c46.7-18.1,93.3-47.5,140-81.8c0-31.1,0-62.2,0-93.4
		C93.6,96.6,47.1,64,0.7,20.2C0.5,20.1,0.2,20.1,0,20z"/>
</g>
</svg>
