<svg version="1.1" id="lie" name="lichtenstein" xmlns="http://www.w3.org/2000/svg" xmlns:xlink="http://www.w3.org/1999/xlink" x="0px" y="0px"
	 viewBox="0 0 480 320" enable-background="new 0 0 480 320" xml:space="preserve">
<path fill="#2A3479" d="M0,300c160,44.8,320-44.8,480,0c0-93.3,0-186.7,0-280C320-24.8,160,64.8,0,20C0,113.3,0,206.7,0,300z"/>
<path fill="#BC2035" d="M0,160c160,44.8,320-44.8,480,0c0,46.7,0,93.3,0,140c-160-44.8-320,44.8-480,0C0,253.3,0,206.7,0,160z"/>
<g id="crest">
	<path fill="#F6D849" d="M101,90c-0.3,9.7-0.6,19.4-0.9,29.2c-9.8,0-19.7-0.4-29.5-1c-3.7-7.3-6.7-13.6-6.7-21.8
		c0-6.8,5.4-11.7,13.1-11.3C85.1,85.5,94.1,88.5,101,90L101,90z"/>
	<path fill="#F6D849" d="M67.4,90.1c0,5.6,0,11.2,0,16.8C67.4,101.3,67.4,95.7,67.4,90.1z"/>
	<path fill="#010101" d="M67.4,107.3c-0.2,0-0.4-0.2-0.4-0.4c0-5.6,0-11.2,0-16.8c0-0.4,0.7-0.3,0.7,0.1c0,5.6,0,11.2,0,16.8
		C67.8,107.1,67.6,107.3,67.4,107.3L67.4,107.3z"/>
	<path fill="#F6D849" d="M69.8,88.6c0,7.5,0,14.9,0,22.4C69.8,103.5,69.8,96,69.8,88.6z"/>
	<path fill="#010101" d="M69.8,111.3c-0.2,0-0.3-0.2-0.3-0.4c0-7.5,0-14.9,0-22.4c0-0.4,0.7-0.3,0.7,0.1c0,7.5,0,14.9,0,22.4
		C70.2,111.2,70,111.3,69.8,111.3L69.8,111.3z"/>
	<path fill="#F6D849" d="M72.2,87.5c0,8.9,0,17.8,0,26.7C72.2,105.3,72.2,96.4,72.2,87.5z"/>
	<path fill="#010101" d="M72.2,114.6c-0.2,0-0.4-0.2-0.4-0.4c0-8.9,0-17.8,0-26.7c0-0.4,0.7-0.3,0.7,0c0,8.9,0,17.8,0,26.7
		C72.5,114.4,72.3,114.6,72.2,114.6L72.2,114.6z"/>
	<path fill="#F6D849" d="M74.5,87.1c0,7,0,14,0,20.9C74.5,101.1,74.5,94.1,74.5,87.1z"/>
	<path fill="#010101" d="M74.5,108.4c-0.2,0-0.3-0.2-0.3-0.4c0-7,0-14,0-20.9c0-0.4,0.7-0.3,0.7,0c0,7,0,14,0,20.9
		C74.9,108.3,74.7,108.4,74.5,108.4L74.5,108.4z"/>
	<path fill="#F6D849" d="M76.9,87.2c0,7.1,0,14.1,0,21.2C76.9,101.3,76.9,94.2,76.9,87.2z"/>
	<path fill="#010101" d="M76.9,108.7c-0.2,0-0.3-0.2-0.4-0.4c0-7.1,0-14.1,0-21.2c0-0.4,0.7-0.3,0.7,0c0,7.1,0,14.1,0,21.2
		C77.2,108.5,77.1,108.7,76.9,108.7L76.9,108.7z"/>
	<path fill="#F6D849" d="M79.3,86.6c0,7.3,0,14.6,0,21.9C79.3,101.1,79.3,93.9,79.3,86.6z"/>
	<path fill="#010101" d="M79.3,108.8c-0.2,0-0.4-0.2-0.4-0.3c0-7.3,0-14.6,0-21.9c0-0.4,0.7-0.4,0.7,0c0,7.3,0,14.6,0,21.9
		C79.6,108.6,79.5,108.8,79.3,108.8L79.3,108.8z"/>
	<path fill="#F6D849" d="M81.7,86.7c0,7.3,0,14.6,0,21.9C81.7,101.3,81.7,94,81.7,86.7z"/>
	<path fill="#010101" d="M81.7,108.9c-0.2,0-0.4-0.2-0.4-0.3c0-7.3,0-14.6,0-21.9c0-0.4,0.7-0.4,0.7,0c0,7.3,0,14.6,0,21.9
		C82,108.7,81.9,108.9,81.7,108.9C81.7,108.9,81.7,108.9,81.7,108.9z"/>
	<path fill="#F6D849" d="M84,87c0,7.3,0,14.6,0,21.9C84,101.5,84,94.2,84,87z"/>
	<path fill="#010101" d="M84,109.2c-0.2,0-0.4-0.2-0.4-0.4c0-7.3,0-14.6,0-21.9c0-0.4,0.7-0.4,0.7,0c0,7.3,0,14.6,0,21.9
		C84.4,109,84.3,109.2,84,109.2L84,109.2z"/>
	<path fill="#F6D849" d="M86.5,87.3c0,7.3,0,14.6,0,21.9C86.5,101.8,86.5,94.6,86.5,87.3z"/>
	<path fill="#010101" d="M86.5,109.5c-0.3,0-0.4-0.2-0.4-0.2c0-7.4,0-14.7,0-22.1c0-0.4,0.7-0.4,0.7,0c0,7.3,0,14.6,0,21.9
		C86.8,109.2,86.6,109.5,86.5,109.5L86.5,109.5z"/>
	<path fill="#F6D849" d="M88.8,88.7c0,7.3,0,14.6,0,21.9C88.8,103.3,88.8,96,88.8,88.7z"/>
	<path fill="#010101" d="M88.8,110.9c-0.2,0-0.4-0.2-0.4-0.3c0-7.3,0-14.6,0-21.9c0-0.4,0.7-0.4,0.7,0c0,7.3,0,14.6,0,21.9
		C89.2,110.8,89,110.9,88.8,110.9L88.8,110.9z"/>
	<path fill="#F6D849" d="M91.2,89c0,8.2,0,16.4,0,24.7C91.2,105.4,91.2,97.2,91.2,89z"/>
	<path fill="#010101" d="M91.2,114c-0.2,0-0.4-0.1-0.4-0.3c0-8.2,0-16.4,0-24.7c0-0.4,0.7-0.4,0.7,0c0,8.2,0,16.4,0,24.7
		C91.5,113.9,91.4,114,91.2,114L91.2,114z"/>
	<path fill="#F6D849" d="M93.5,89c0,7.3,0,14.6,0,21.9C93.5,103.6,93.5,96.3,93.5,89z"/>
	<path fill="#010101" d="M93.5,111.3c-0.2,0-0.3-0.1-0.3-0.4c0-7.3,0-14.6,0-21.9c0-0.4,0.7-0.4,0.7,0c0,7.3,0,14.6,0,21.9
		C93.9,111.1,93.8,111.3,93.5,111.3L93.5,111.3z"/>
	<path fill="#F6D849" d="M95.9,89.1c0,7.3,0,14.6,0,21.9C95.9,103.6,95.9,96.4,95.9,89.1z"/>
	<path fill="#010101" d="M95.9,111.3c-0.2,0-0.4-0.1-0.4-0.4c0-7.3,0-14.6,0-21.9c0-0.4,0.7-0.4,0.7,0c0,7.3,0,14.6,0,21.9
		C96.3,111.2,96.1,111.3,95.9,111.3L95.9,111.3z"/>
	<path fill="#010101" d="M82.3,87.6c5,1.1,16,6.4,14.8,13.3c-1.8,9.9-7.6,5.9-15.2,4.1c-1.9,0.6-3.9,1.1-5.8,1.6
		c-2.1,2-5.1,3.8-7.2,1.1c-1.1-0.1-2.3-0.2-3.4-0.3c0,4.5,0,8.9,0,13.4c12.6,1,25.3,1.5,37.9,1.4c0-10.8,0-21.6,0-32.4
		C96.4,89.3,89.4,88.5,82.3,87.6z"/>
	<path fill="#010101" d="M103.4,122.6c-12.6,0-25.3-0.4-37.9-1.4c-0.1-4.6-0.2-9.2-0.4-13.8c1.3,0,2.5,0,3.8-0.1
		c2.7,2.9,5.6,0.4,6.9-1c2-0.6,4-1.1,6-1.7c1.6,0.4,3.1,0.8,4.4,1.2c2,0.6,3.8,1.1,5.4,1.1c2,0,4.3-0.7,5.2-6.1
		c0.3-1.7-0.1-3.4-1.3-5c-3-4.2-9.6-7.2-13.2-7.9c-0.2,0-0.3-0.2-0.3-0.4c0-0.2,0.1-0.3,0.4-0.3c7,0.9,14.1,1.7,21.1,2.3
		c0.1,10.9,0.2,21.8,0.3,32.7C103.8,122.5,103.6,122.6,103.4,122.6L103.4,122.6z M68.6,107.9c-1.1,0-2.1-0.1-3.2-0.1
		c0.1,4.4,0.3,8.7,0.4,13.1c12.4,0.9,24.8,1.2,37.2,1c0-10.7,0-21.4,0-32c-5.7-0.4-11.5-0.9-17.2-1.6c3.6,1.4,7.9,3.9,10.1,7.1
		c1.3,1.8,1.8,3.7,1.4,5.6c-0.8,4.7-2.7,6.8-5.9,6.7c-1.6,0-3.6-0.6-5.5-1.2c-1.4-0.4-2.7-0.8-4.2-1.1c-1.9,0.6-3.8,1.1-5.6,1.6
		c-0.9,0.9-2.9,2.5-4.9,2.4C70.2,109.4,69.4,108.9,68.6,107.9L68.6,107.9z"/>
	<path fill="#F6D849" d="M101.6,85.7c0,1.3-1,2.3-2.3,2.3c-1.3,0-2.3-1-2.3-2.3l0,0c0-1.3,1-2.3,2.3-2.3
		C100.6,83.3,101.6,84.4,101.6,85.7L101.6,85.7z"/>
	<path fill="#010101" d="M99.3,88.3c-1.5,0-2.7-1.2-2.7-2.7c0-1.5,1.2-2.7,2.6-2.7c1.5,0,2.7,1.2,2.7,2.7
		C102,87.1,100.8,88.4,99.3,88.3L99.3,88.3z M99.3,83.7c-1.1,0-1.9,0.9-1.9,2c0,1.1,0.9,1.9,2,2c1.1,0,1.9-0.9,1.9-1.9
		C101.2,84.6,100.4,83.7,99.3,83.7L99.3,83.7z"/>
	<path fill="#F6D849" d="M96.4,84.4c0,1.3-1,2.3-2.3,2.3c-1.3,0-2.4-1.1-2.4-2.3l0,0c0-1.3,1.1-2.3,2.4-2.3
		C95.4,82.1,96.4,83.1,96.4,84.4L96.4,84.4z"/>
	<path fill="#010101" d="M94.1,87c-1.4,0-2.7-1.2-2.7-2.7c0-1.5,1.2-2.6,2.7-2.6c1.5,0,2.6,1.2,2.6,2.7c0,0.7-0.2,1.4-0.8,1.9
		C95.5,86.8,94.8,87,94.1,87C94.1,87,94.1,87,94.1,87z M94.1,82.4c-1.1,0-1.9,0.8-1.9,1.9c0,1.6,2.2,2.6,3.3,1.4
		c0.4-0.4,0.6-0.9,0.6-1.4C96.1,83.3,95.2,82.4,94.1,82.4C94.1,82.4,94.1,82.4,94.1,82.4z"/>
	<path fill="#F6D849" d="M91.2,83c0,1.3-1,2.3-2.3,2.2c-1.2,0-2.3-1.1-2.3-2.4l0,0c0-1.3,1-2.3,2.3-2.2C90.2,80.7,91.2,81.7,91.2,83
		L91.2,83z"/>
	<path fill="#010101" d="M88.9,85.6L88.9,85.6c-1.5,0-2.6-1.3-2.6-2.7c0-1.5,1.2-2.6,2.6-2.6c1.5,0,2.7,1.2,2.7,2.7
		C91.5,84.5,90.4,85.6,88.9,85.6L88.9,85.6z M88.9,81c-1,0-2,0.8-2,1.9c0,1.1,1,2,2,2c1.1,0,2-0.8,2-1.9C90.8,81.9,89.9,81,88.9,81
		L88.9,81z"/>
	<path fill="#F6D849" d="M85.9,82c0,1.3-1,2.3-2.3,2.2c-1.3,0-2.3-1.1-2.3-2.4l0,0c0-1.3,1-2.2,2.3-2.2C84.9,79.6,85.9,80.7,85.9,82
		L85.9,82z"/>
	<path fill="#010101" d="M83.6,84.6c-1.5-0.1-2.7-1.3-2.7-2.8c0-1.4,1.2-2.6,2.7-2.5c1.5,0.1,2.7,1.3,2.7,2.7
		C86.3,83.4,85.1,84.6,83.6,84.6L83.6,84.6z M83.6,79.9c-1,0-1.9,0.8-1.9,1.9c0,1.1,0.9,2,1.9,2.1c1.1,0,1.9-0.8,1.9-1.9
		C85.5,80.9,84.7,80,83.6,79.9L83.6,79.9z"/>
	<path fill="#F6D849" d="M80.6,81.2c0,1.3-1.1,2.3-2.3,2.2C77.1,83.4,76,82.3,76,81l0,0c0-1.3,1.1-2.2,2.4-2.2
		C79.6,78.9,80.6,80,80.6,81.2L80.6,81.2z"/>
	<path fill="#010101" d="M78.3,83.8c-1.4-0.1-2.7-1.3-2.7-2.8c0-1.5,1.2-2.6,2.7-2.5c1.4,0.1,2.6,1.3,2.6,2.8
		C81,82.7,79.8,83.9,78.3,83.8L78.3,83.8z M78.3,79.2c-1.1-0.1-2,0.8-2,1.9c0,1.1,0.9,2,2,2.1c1,0.1,1.9-0.8,1.9-1.9
		C80.2,80.2,79.4,79.2,78.3,79.2L78.3,79.2z"/>
	<path fill="#F6D849" d="M75.5,81.3c0,1.3-1.1,2.2-2.4,2.2c-1.3-0.1-2.3-1.2-2.3-2.5l0,0c0-1.3,1-2.2,2.3-2.1
		C74.4,78.9,75.5,80,75.5,81.3L75.5,81.3z"/>
	<path fill="#010101" d="M73.1,83.8c-1.4-0.1-2.6-1.4-2.6-2.8c0-0.7,0.3-1.3,0.8-1.8c1.5-1.4,4.5,0,4.5,2.2
		C75.8,82.8,74.6,83.9,73.1,83.8L73.1,83.8z M73.1,79.2c-0.5,0-1,0.1-1.4,0.5c-0.4,0.3-0.6,0.8-0.6,1.3c0,1.1,0.9,2,1.9,2.1
		c1.1,0.1,2-0.8,2-1.8C75.1,80.2,74.2,79.3,73.1,79.2L73.1,79.2z"/>
	<path fill="#F6D849" d="M70.6,82.6c0,1.3-1.1,2.2-2.4,2.1c-1.2-0.1-2.3-1.2-2.3-2.5l0,0c0-1.2,1-2.2,2.3-2.1
		C69.5,80.3,70.6,81.4,70.6,82.6C70.6,82.6,70.6,82.6,70.6,82.6z"/>
	<path fill="#010101" d="M68.2,85.2c-1.5-0.1-2.7-1.4-2.7-2.9c0-2.2,3-3.2,4.5-1.5c0.5,0.6,0.8,1.2,0.8,1.9
		C70.9,84.1,69.7,85.3,68.2,85.2L68.2,85.2z M68.2,80.5c-1.1-0.1-1.9,0.7-1.9,1.8c0,1.1,0.8,2,1.9,2.1c1.1,0.1,1.9-0.7,1.9-1.8
		C70.2,81.5,69.3,80.6,68.2,80.5L68.2,80.5z"/>
	<path fill="#F6D849" d="M66.4,85.4c0,1.3-1,2.2-2.3,2.1c-1.3-0.1-2.4-1.2-2.4-2.5l0,0c0-1.3,1.1-2.2,2.4-2.1
		C65.3,83,66.3,84.1,66.4,85.4L66.4,85.4z"/>
	<path fill="#010101" d="M64.1,87.9c-1.5-0.1-2.6-1.4-2.6-2.9c0-1.4,1.1-2.5,2.6-2.4c1.5,0.1,2.6,1.4,2.6,2.9
		C66.7,86.9,65.5,88,64.1,87.9L64.1,87.9z M64.1,83.3c-1.1-0.1-2,0.7-2,1.8c0,1.1,0.8,2,2,2.1c1,0.1,1.9-0.7,1.9-1.8
		C66,84.3,65.1,83.3,64.1,83.3L64.1,83.3z"/>
	<path fill="#F6D849" d="M63.4,89.4c0,1.3-1,2.2-2.3,2.1c-1.3-0.1-2.4-1.2-2.4-2.5l0,0c0-1.3,1.1-2.2,2.4-2.1
		C62.4,87,63.4,88.1,63.4,89.4L63.4,89.4z"/>
	<path fill="#010101" d="M61.1,91.9c-1.5-0.1-2.6-1.5-2.6-2.9c0-0.7,0.2-1.3,0.7-1.8c1.6-1.4,4.5,0.1,4.5,2.3
		C63.7,90.9,62.6,92,61.1,91.9L61.1,91.9z M61.1,87.3c-0.5,0-1,0.1-1.4,0.4c-0.3,0.3-0.6,0.8-0.6,1.3c0,1.1,0.9,2,2,2.1
		c1.1,0.1,1.9-0.7,1.9-1.8C63.1,88.3,62.2,87.4,61.1,87.3L61.1,87.3z"/>
	<path fill="#F6D849" d="M62,94.3c0,1.3-1,2.2-2.3,2.1c-1.3-0.1-2.3-1.3-2.3-2.5l0,0c0-1.3,1-2.2,2.3-2.1C60.9,91.9,62,93,62,94.3
		C62,94.3,62,94.3,62,94.3z"/>
	<path fill="#010101" d="M59.7,96.8c-1.4-0.1-2.7-1.5-2.7-2.9c0-1.5,1.2-2.6,2.7-2.4c1.5,0.1,2.7,1.5,2.7,2.9
		C62.4,95.8,61.2,96.9,59.7,96.8L59.7,96.8z M59.7,92.1c-1.1-0.1-2,0.7-2,1.8c0,1,0.9,2,2,2.1c1.1,0.1,1.9-0.7,1.9-1.7
		C61.6,93.2,60.8,92.2,59.7,92.1L59.7,92.1z"/>
	<path fill="#F6D849" d="M62,99.5c0,1.3-1,2.2-2.3,2.1c-1.3-0.1-2.4-1.3-2.4-2.5l0,0c0-1.3,1.1-2.2,2.4-2.1C61,97.1,62,98.2,62,99.5
		L62,99.5z"/>
	<path fill="#010101" d="M59.8,101.9c-1.5-0.1-2.7-1.5-2.7-2.9c0-1.5,1.2-2.6,2.7-2.4c1.4,0.1,2.6,1.4,2.6,2.9
		C62.4,101,61.2,102.1,59.8,101.9L59.8,101.9z M59.8,97.4c-1.1-0.1-2,0.6-2,1.7c0,1.1,0.9,2,2,2.1c1,0.1,1.9-0.7,1.9-1.8
		C61.7,98.4,60.8,97.5,59.8,97.4L59.8,97.4z"/>
	<path fill="#F6D849" d="M63,104.7c0,1.3-1.1,2.2-2.3,2.1c-1.3-0.1-2.4-1.3-2.4-2.6c0,0,0,0,0,0c0-1.3,1-2.2,2.4-2.1
		C62,102.3,63,103.4,63,104.7L63,104.7z"/>
	<path fill="#010101" d="M60.8,107.2c-1.5-0.1-2.7-1.5-2.7-2.9c0-1.5,1.2-2.5,2.7-2.4c1.5,0.1,2.6,1.4,2.6,2.9
		C63.4,106.2,62.2,107.3,60.8,107.2L60.8,107.2z M60.8,102.5c-1.1-0.1-2,0.7-2,1.7c0,1.1,0.9,2,2,2.1c1,0.1,2-0.7,1.9-1.8
		C62.7,103.6,61.8,102.6,60.8,102.5L60.8,102.5z"/>
	<path fill="#F6D849" d="M100.3,88.7c-0.1,1-0.1,2-0.2,3c-5.7-0.9-13.8-4.2-21.4-4.6c-7-0.3-12.5,2-12.5,9.1c0,7,3,13.5,6.9,20.2
		c-1.3,0.6-2.7,1.1-4,1.7c-3.7-7.3-6.7-13.6-6.7-21.8c0-6.8,5.4-13,14.6-12.5C85.1,84.2,93.5,87.2,100.3,88.7L100.3,88.7z"/>
	<path fill="#010101" d="M69.1,118.4c-0.2,0-0.3-0.1-0.4-0.2c-3.5-6.9-6.7-13.5-6.7-21.9c0-6.7,5.3-13.3,15-12.8
		c6.2,0.3,12.7,2.2,18.3,3.6c1.8,0.5,3.5,0.9,5.1,1.3c0,1.1,0,2.3,0,3.4c0,0,0,0,0,0c-2.4,0-4.8-0.7-7.4-1.3
		c-4.4-1.3-9.6-2.7-14.4-3c-4.6-0.2-12.1,0.5-12.1,8.7c0,7.3,3.5,14.3,6.8,20c-1.4,0.7-2.8,1.4-4.2,2.2
		C69.1,118.4,69.1,118.4,69.1,118.4L69.1,118.4z M77,84.2c-9.3-0.5-14.3,5.7-14.3,12.1c0,8.1,3.1,14.5,6.5,21.3
		c1.2-0.5,2.5-1,3.7-1.5c-3.6-5.4-7-12.4-7-19.9c0-6.5,4.7-9.8,12.8-9.4c4.9,0.2,10,1.7,14.6,3c2.6,0.7,4.9,1.3,6.9,1.7
		c-0.1-0.9-0.1-1.8-0.2-2.7c0,0,0,0,0,0c-1.3,0-3.1-0.5-4.9-0.9C89.5,86.3,83.2,84.5,77,84.2L77,84.2z"/>
	<path fill="#F6D849" d="M106.2,90c0.3,9.7,0.6,19.4,0.9,29.2c9.9-0.1,19.7-0.5,29.6-1.1c3.6-7.3,6.7-13.5,6.7-21.7
		c0-6.8-5.4-11.8-13.1-11.4C122,85.4,113.1,88.4,106.2,90L106.2,90z"/>
	<path fill="#F6D849" d="M139.8,90c0,5.6,0,11.2,0,16.8C139.8,101.2,139.8,95.6,139.8,90z"/>
	<path fill="#010101" d="M139.8,107.2c-0.2,0-0.4-0.2-0.4-0.3c0-5.6,0-11.2,0-16.8c0-0.4,0.7-0.4,0.7,0c0,5.6,0,11.2,0,16.8
		C140.1,107,139.9,107.2,139.8,107.2L139.8,107.2z"/>
	<path fill="#F6D849" d="M137.4,88.5c0,7.5,0,14.9,0,22.4C137.4,103.4,137.4,95.9,137.4,88.5z"/>
	<path fill="#010101" d="M137.4,111.2c-0.2,0-0.4-0.2-0.4-0.4c0-7.5,0-14.9,0-22.4c0-0.4,0.7-0.4,0.7,0c0,7.5,0,14.9,0,22.4
		C137.7,111,137.6,111.2,137.4,111.2L137.4,111.2z"/>
	<path fill="#F6D849" d="M135,87.4c0,8.9,0,17.8,0,26.7C135,105.2,135,96.3,135,87.4z"/>
	<path fill="#010101" d="M135,114.5c-0.2,0-0.4-0.2-0.4-0.3c0-8.9,0-17.8,0-26.7c0-0.4,0.7-0.4,0.7,0c0,8.9,0,17.8,0,26.7
		C135.4,114.3,135.2,114.5,135,114.5L135,114.5z"/>
	<path fill="#F6D849" d="M132.6,87c0,7,0,14,0,20.9C132.6,101,132.6,94,132.6,87z"/>
	<path fill="#010101" d="M132.6,108.3c-0.2,0-0.4-0.1-0.4-0.3c0-7,0-14,0-20.9c0-0.4,0.7-0.4,0.7,0c0,7,0,14,0,20.9
		C133,108.1,132.8,108.3,132.6,108.3L132.6,108.3z"/>
	<path fill="#F6D849" d="M130.3,87c0,7.1,0,14.1,0,21.2C130.3,101.1,130.3,94.1,130.3,87z"/>
	<path fill="#010101" d="M130.3,108.5c-0.2,0-0.3-0.2-0.4-0.3c0-7.1,0-14.1,0-21.2c0-0.4,0.7-0.4,0.7,0c0,7.1,0,14.1,0,21.2
		C130.6,108.3,130.5,108.5,130.3,108.5L130.3,108.5z"/>
	<path fill="#F6D849" d="M127.8,86.4c0,7.3,0,14.6,0,21.9C127.8,101,127.8,93.7,127.8,86.4z"/>
	<path fill="#010101" d="M127.8,108.6c-0.1,0-0.3-0.1-0.3-0.3c0-7.3,0-14.6,0-21.9c0-0.4,0.7-0.4,0.7,0c0,7.3,0,14.6,0,21.9
		C128.2,108.5,128.1,108.6,127.8,108.6L127.8,108.6z"/>
	<path fill="#F6D849" d="M125.5,86.5c0,7.3,0,14.6,0,21.9C125.5,101.1,125.5,93.8,125.5,86.5z"/>
	<path fill="#010101" d="M125.5,108.7c-0.2,0-0.3-0.1-0.4-0.3c0-7.3,0-14.6,0-21.9c0-0.4,0.7-0.4,0.7,0c0,7.3,0,14.6,0,21.9
		C125.8,108.6,125.7,108.7,125.5,108.7C125.5,108.7,125.5,108.7,125.5,108.7z"/>
	<path fill="#F6D849" d="M123.1,86.8c0,7.3,0,14.6,0,21.9C123.1,101.4,123.1,94.1,123.1,86.8z"/>
	<path fill="#010101" d="M123.1,109.1c-0.2,0-0.4-0.1-0.4-0.4c0-7.3,0-14.6,0-21.9c0-0.4,0.7-0.4,0.7,0c0,7.3,0,14.6,0,21.9
		C123.5,108.9,123.4,109,123.1,109.1L123.1,109.1z"/>
	<path fill="#F6D849" d="M120.7,87.1c0,7.3,0,14.6,0,21.9C120.7,101.7,120.7,94.4,120.7,87.1z"/>
	<path fill="#010101" d="M120.7,109.4c-0.2,0-0.4-0.2-0.4-0.2c0-7.4,0-14.7,0-22.1c0-0.4,0.7-0.4,0.7,0c0,7.3,0,14.6,0,21.9
		C121.1,109,120.9,109.4,120.7,109.4L120.7,109.4z"/>
	<path fill="#F6D849" d="M118.4,88.6c0,7.3,0,14.6,0,21.9C118.4,103.2,118.4,95.9,118.4,88.6z"/>
	<path fill="#010101" d="M118.4,110.8c-0.2,0-0.4-0.1-0.4-0.3c0-7.3,0-14.6,0-21.9c0-0.4,0.7-0.4,0.7,0c0,7.3,0,14.6,0,21.9
		C118.7,110.7,118.5,110.8,118.4,110.8L118.4,110.8z"/>
	<path fill="#F6D849" d="M116,88.9c0,8.2,0,16.4,0,24.7C116,105.3,116,97.1,116,88.9z"/>
	<path fill="#010101" d="M116,113.9c-0.2,0-0.3-0.1-0.3-0.3c0-8.2,0-16.4,0-24.7c0-0.4,0.7-0.4,0.7,0c0,8.2,0,16.4,0,24.7
		C116.3,113.7,116.2,113.9,116,113.9L116,113.9z"/>
	<path fill="#F6D849" d="M113.6,89c0,7.3,0,14.6,0,21.9C113.6,103.5,113.6,96.2,113.6,89z"/>
	<path fill="#010101" d="M113.6,111.2c-0.2,0-0.3-0.1-0.3-0.3c0-7.3,0-14.6,0-21.9c0-0.4,0.7-0.4,0.7,0c0,7.3,0,14.6,0,21.9
		C114,111,113.8,111.2,113.6,111.2L113.6,111.2z"/>
	<path fill="#F6D849" d="M111.2,89c0,7.3,0,14.6,0,21.9C111.2,103.6,111.2,96.3,111.2,89z"/>
	<path fill="#010101" d="M111.2,111.2c-0.2,0-0.3-0.1-0.3-0.3c0-7.3,0-14.6,0-21.9c0-0.4,0.7-0.4,0.7,0c0,7.3,0,14.6,0,21.9
		C111.6,111.1,111.4,111.2,111.2,111.2C111.2,111.2,111.2,111.2,111.2,111.2z"/>
	<path fill="#010101" d="M124.8,87.4c-5,1.1-16,6.5-14.8,13.4c1.8,9.9,7.6,5.8,15.3,4c1.9,0.6,3.8,1.1,5.7,1.6
		c2.1,2,5.2,3.8,7.2,1.1c1.1-0.1,2.3-0.2,3.4-0.2c0,4.5,0,8.9,0,13.4c-12.7,0.9-25.3,1.4-38,1.5c0-10.8,0-21.6,0-32.4
		C110.8,89.2,117.8,88.4,124.8,87.4z"/>
	<path fill="#010101" d="M141.7,121.2c-12.7,0.9-25.3,1.4-38,1.5c-0.1-10.9-0.3-21.8-0.4-32.7c7.1-0.8,14.3-1.7,21.4-2.8
		c0.2,0,0.4,0.1,0.4,0.3c0,0.2-0.1,0.4-0.3,0.4c-3.6,0.8-10.3,3.8-13.2,8c-1.1,1.6-1.6,3.3-1.3,5c1,5.5,3.3,6.1,5.3,6.1
		c1.5,0,3.2-0.6,5.4-1.2c1.3-0.4,2.7-0.8,4.2-1.2c2,0.6,4,1.1,6,1.6c1.6,1.5,5,3.6,6.8,1.2c1.2-0.1,2.5-0.3,3.7-0.4
		c0.1,4.6,0.2,9.2,0.4,13.7C142,121,141.9,121.1,141.7,121.2L141.7,121.2z M121,88.3c-5.8,0.7-11.5,1.4-17.3,1.9
		c0.1,10.7,0.2,21.3,0.3,32c12.4-0.2,24.9-0.8,37.3-1.8c0-4.4,0-8.7,0-13c-1,0.2-2,0.4-3.1,0.6c-0.5,0.8-1.3,1.3-2.4,1.3
		c-2,0.1-4-1.5-5.1-2.5c-1.9-0.5-3.8-1-5.6-1.5c-1.2,0.3-2.6,0.7-4,1.1c-2,0.6-3.9,1.2-5.5,1.2c-3.2,0.1-5.1-2-6-6.7
		c-0.3-1.9,0.1-3.7,1.4-5.6C113.3,92.2,117.5,89.8,121,88.3L121,88.3z"/>
	<path fill="#F6D849" d="M105.5,85.7c0,1.3,1.1,2.3,2.4,2.3c1.2,0,2.3-1.1,2.3-2.3l0,0c0-1.3-1.1-2.3-2.3-2.3
		C106.6,83.3,105.5,84.4,105.5,85.7L105.5,85.7z"/>
	<path fill="#010101" d="M107.9,88.3c-1.5,0-2.7-1.2-2.7-2.7c0-1.5,1.2-2.7,2.7-2.7c1.4,0,2.6,1.2,2.6,2.6
		C110.5,87,109.3,88.3,107.9,88.3C107.9,88.3,107.9,88.3,107.9,88.3z M107.9,83.7c-1.1,0-2,0.9-2,2c0,1.1,0.9,1.9,2,1.9
		c1,0,1.9-0.9,1.9-2C109.8,84.5,108.9,83.7,107.9,83.7C107.9,83.7,107.9,83.7,107.9,83.7z"/>
	<path fill="#F6D849" d="M110.7,84.3c0,1.3,1,2.3,2.3,2.3c1.3,0,2.3-1.1,2.3-2.4l0,0c0-1.3-1-2.3-2.3-2.3
		C111.8,82,110.7,83.1,110.7,84.3L110.7,84.3z"/>
	<path fill="#010101" d="M113,87c-1.5,0-2.7-1.1-2.7-2.6c0-1.5,1.2-2.7,2.7-2.7c1.5,0,2.7,1.1,2.7,2.6C115.7,85.7,114.5,86.9,113,87
		C113,87,113,87,113,87z M113,82.3c-1.1,0-1.9,0.9-1.9,2c0,1.1,0.8,1.9,1.9,1.9c1.1,0,2-0.9,2-2C115,83.1,114.1,82.3,113,82.3
		L113,82.3z"/>
	<path fill="#F6D849" d="M116,82.9c0,1.3,1,2.3,2.3,2.2c1.3,0,2.3-1.1,2.3-2.4c0,0,0,0,0,0c0-1.3-1.1-2.3-2.3-2.2
		C117,80.6,116,81.6,116,82.9L116,82.9z"/>
	<path fill="#010101" d="M118.3,85.5c-1.5,0.1-2.6-1.1-2.6-2.6c0-1.5,1.1-2.7,2.6-2.7c1.5,0,2.6,1.1,2.6,2.6c0,0.7-0.3,1.4-0.8,1.9
		C119.6,85.2,119,85.5,118.3,85.5L118.3,85.5z M118.3,80.9c-1.1,0-2,0.9-2,2c0,1.1,0.9,1.9,2,1.9l0,0c0.5,0,1-0.2,1.3-0.6
		c0.4-0.4,0.6-0.9,0.6-1.4C120.2,81.7,119.3,80.9,118.3,80.9L118.3,80.9z"/>
	<path fill="#F6D849" d="M121.3,81.8c0,1.3,1,2.3,2.3,2.2c1.2-0.1,2.3-1.1,2.3-2.4l0,0c0-1.3-1.1-2.2-2.3-2.2
		C122.3,79.5,121.3,80.6,121.3,81.8L121.3,81.8z"/>
	<path fill="#010101" d="M123.6,84.4c-1.5,0.1-2.7-1.1-2.7-2.6c0-2.2,3.1-3.5,4.6-2.1c0.5,0.5,0.8,1.1,0.8,1.8
		C126.2,83.1,125,84.4,123.6,84.4L123.6,84.4z M123.6,79.8c-1.1,0-2,1-2,2c0,1.1,0.9,1.9,2,1.9c1.1,0,1.9-1,1.9-2.1
		c0-0.5-0.2-1-0.5-1.4C124.6,80,124.1,79.8,123.6,79.8L123.6,79.8z"/>
	<path fill="#F6D849" d="M126.6,81.1c0,1.3,1,2.3,2.3,2.2c1.2-0.1,2.3-1.2,2.3-2.4l0,0c0-1.3-1.1-2.2-2.3-2.2
		C127.5,78.8,126.6,79.8,126.6,81.1L126.6,81.1z"/>
	<path fill="#010101" d="M128.9,83.7c-0.8,0-1.5-0.2-1.9-0.7c-0.5-0.5-0.8-1.1-0.8-1.8c0-1.4,1.2-2.7,2.7-2.8
		c1.4-0.1,2.6,1.1,2.6,2.5C131.5,82.3,130.3,83.6,128.9,83.7L128.9,83.7z M128.9,79c-1.1,0.1-2,1-2,2.1c0,0.5,0.2,1,0.5,1.3
		c1.1,1.1,3.4,0,3.4-1.5C130.8,79.8,129.9,79,128.9,79C128.9,79,128.9,79,128.9,79z"/>
	<path fill="#F6D849" d="M131.7,81.1c0,1.3,1,2.3,2.3,2.2c1.2-0.1,2.3-1.2,2.3-2.5l0,0c0-1.3-1.1-2.2-2.3-2.1
		C132.8,78.8,131.7,79.8,131.7,81.1L131.7,81.1z"/>
	<path fill="#010101" d="M134,83.7c-1.4,0.1-2.6-1-2.6-2.5c0-1.5,1.2-2.7,2.6-2.8c1.5-0.1,2.7,1,2.7,2.5
		C136.7,82.3,135.5,83.6,134,83.7L134,83.7z M134,79.1c-1.1,0.1-1.9,1-1.9,2.1c0,1.1,0.9,1.9,1.9,1.8c1.1-0.1,1.9-1,1.9-2.1
		C136,79.8,135.1,79,134,79.1C134,79.1,134,79.1,134,79.1z"/>
	<path fill="#F6D849" d="M136.6,82.5c0,1.3,1,2.2,2.3,2.2c1.3-0.1,2.3-1.2,2.3-2.5l0,0c0-1.2-1-2.2-2.3-2.2
		C137.7,80.2,136.6,81.3,136.6,82.5C136.6,82.5,136.6,82.5,136.6,82.5z"/>
	<path fill="#010101" d="M138.9,85.1c-1.5,0.1-2.6-1.1-2.6-2.5c0-1.5,1.2-2.7,2.6-2.8c1.4-0.1,2.6,1,2.6,2.5
		C141.6,83.7,140.4,85,138.9,85.1L138.9,85.1z M138.9,80.4c-0.5,0-1,0.3-1.4,0.7c-0.4,0.4-0.5,0.9-0.5,1.4c0,1.1,0.8,1.9,1.9,1.9
		c1.1-0.1,2-1,2-2.1C140.9,81.2,140,80.4,138.9,80.4L138.9,80.4L138.9,80.4z"/>
	<path fill="#F6D849" d="M140.8,85.3c0,1.3,1,2.3,2.3,2.2c1.3-0.1,2.3-1.2,2.3-2.5l0,0c0-1.2-1-2.2-2.3-2.1
		C141.9,83,140.8,84,140.8,85.3L140.8,85.3z"/>
	<path fill="#010101" d="M143.1,87.8c-1.5,0.1-2.6-1-2.7-2.5c0-1.4,1.2-2.7,2.7-2.8c1.4-0.1,2.7,1,2.7,2.4
		C145.8,86.4,144.5,87.7,143.1,87.8L143.1,87.8z M143.1,83.2c-1.1,0.1-1.9,1-1.9,2.1c0,1.1,0.8,1.9,1.9,1.8c1.1-0.1,2-1,2-2.1
		C145.1,84,144.2,83.1,143.1,83.2L143.1,83.2z"/>
	<path fill="#F6D849" d="M143.8,89.4c0,1.3,1.1,2.2,2.3,2.1c1.3-0.1,2.4-1.2,2.4-2.5l0,0c0-1.3-1.1-2.2-2.4-2.1
		C144.8,87,143.8,88.1,143.8,89.4L143.8,89.4z"/>
	<path fill="#010101" d="M146,91.9c-1.4,0.1-2.6-1-2.6-2.5c0-1.5,1.2-2.7,2.6-2.8c1.5-0.1,2.7,1,2.7,2.4
		C148.7,90.5,147.5,91.8,146,91.9L146,91.9z M146,87.3c-1.1,0.1-1.9,1-1.9,2.1c0,1.1,0.8,1.9,1.9,1.8c1.1-0.1,2-1,2-2.1
		C148,88,147.1,87.2,146,87.3L146,87.3z"/>
	<path fill="#F6D849" d="M145.1,94.3c0,1.3,1.1,2.2,2.4,2.1c1.2-0.1,2.3-1.2,2.3-2.5l0,0c0-1.3-1.1-2.2-2.3-2.1
		C146.2,91.9,145.1,93,145.1,94.3C145.1,94.3,145.1,94.3,145.1,94.3z"/>
	<path fill="#010101" d="M147.5,96.8c-1.5,0.1-2.7-1-2.7-2.4c0-1.5,1.2-2.8,2.7-2.9c1.4-0.1,2.7,1,2.7,2.5
		C150.2,95.4,149,96.7,147.5,96.8L147.5,96.8z M147.5,92.2c-1.1,0.1-1.9,1-1.9,2.1c0,1.1,0.8,1.9,1.9,1.8c1-0.1,1.9-1,1.9-2.1
		C149.4,92.9,148.5,92.1,147.5,92.2L147.5,92.2z"/>
	<path fill="#F6D849" d="M145.1,99.5c0,1.3,1.1,2.2,2.3,2.1c1.3-0.1,2.4-1.2,2.4-2.5l0,0c0-1.3-1-2.2-2.3-2.1
		C146.2,97.1,145.1,98.2,145.1,99.5L145.1,99.5z"/>
	<path fill="#010101" d="M147.4,102c-1.4,0.1-2.6-1-2.6-2.4c0-1.5,1.2-2.8,2.7-2.9c1.4-0.1,2.7,1,2.7,2.5
		C150.1,100.6,148.9,101.9,147.4,102L147.4,102z M147.4,97.4c-1.1,0.1-1.9,1-1.9,2.1c0,1.1,0.8,1.9,1.9,1.8c1.1-0.1,2-1,2-2.1
		C149.4,98.1,148.5,97.3,147.4,97.4L147.4,97.4z"/>
	<path fill="#F6D849" d="M144.1,104.7c0,1.3,1,2.3,2.3,2.2c1.3-0.1,2.3-1.2,2.3-2.5l0,0c0-1.3-1-2.2-2.3-2.1
		C145.1,102.3,144.1,103.4,144.1,104.7L144.1,104.7z"/>
	<path fill="#010101" d="M146.4,107.2c-1.5,0.1-2.6-1-2.6-2.5c0-1.5,1.2-2.7,2.6-2.8c1.5-0.1,2.7,1,2.7,2.4
		C149.1,105.8,147.9,107.1,146.4,107.2L146.4,107.2z M146.4,102.5c-1.1,0.1-1.9,1-1.9,2.1c0,1.1,0.9,1.9,1.9,1.8c1.1-0.1,2-1,2-2.1
		C148.4,103.3,147.5,102.5,146.4,102.5L146.4,102.5z"/>
	<path fill="#F6D849" d="M106.8,88.7c0.1,1,0.1,2,0.2,3c5.8-0.9,13.9-4.3,21.5-4.7c7-0.3,12.4,2.1,12.4,9.1c0,7-2.9,13.5-6.8,20.1
		c1.4,0.6,2.7,1.1,4.1,1.7c3.6-7.3,6.7-13.5,6.7-21.7c0-6.8-5.4-13.1-14.6-12.6C122,84.1,113.7,87.1,106.8,88.7L106.8,88.7z"/>
	<path fill="#010101" d="M138.2,118.3c0,0-0.1,0-0.2,0c-1.4-0.6-2.7-1.1-4.1-1.7c3.2-6.2,6.7-13.1,6.7-20.5c0-8.3-7.6-9-12.1-8.8
		c-4.8,0.2-10,1.8-14.5,3c-2.5,0.7-4.9,1.4-7,1.7c-0.2-1.1-0.4-2.2-0.6-3.3c1.9-0.7,3.6-1.2,5.4-1.7c5.6-1.5,12.1-3.4,18.3-3.7
		c9.7-0.5,14.9,6.2,14.9,12.9c0,8.4-3.2,15-6.7,21.8C138.4,118.2,138.3,118.3,138.2,118.3L138.2,118.3z M128.5,86.6
		c8.1-0.4,12.7,3,12.7,9.5c0,7.5-3.5,14.5-6.9,20.3c1.2,0.4,2.4,0.7,3.6,1.1c3.4-6.7,6.5-13.1,6.5-21.3c0-6.4-5-12.8-14.2-12.3
		c-6.2,0.3-12.5,2.1-18.2,3.7c-1.7,0.5-3.5,0.9-5.1,1.3c0.2,0.9,0.3,1.8,0.5,2.6c1.7-0.6,4-1.3,6.5-2
		C118.4,88.4,123.6,86.8,128.5,86.6L128.5,86.6z"/>
	<path fill="#F6D849" d="M103.6,57.7c-0.8,1.5-1.6,3-2.5,4.5c0.8,1.5,1.6,3,2.5,4.5c0.8-1.5,1.6-3,2.3-4.5
		C105.2,60.7,104.4,59.2,103.6,57.7z M103.6,69.1c-0.8,1.5-1.6,3-2.5,4.5c0.8,1.5,1.6,3,2.5,4.5c0.8-1.5,1.6-3,2.3-4.5
		C105.2,72.1,104.4,70.6,103.6,69.1z"/>
	<path fill="#010101" d="M103.6,78.4c-0.2,0-0.3-0.1-0.3-0.2c-0.8-1.5-1.6-3-2.4-4.5c0.8-1.6,1.6-3.2,2.4-4.8
		c0.1-0.1,0.1-0.2,0.3-0.2l0,0c0.1,0,0.1,0.1,0.3,0.2c0.8,1.5,1.6,3,2.4,4.5c-0.8,1.6-1.6,3.2-2.4,4.9
		C103.8,78.4,103.7,78.4,103.6,78.4L103.6,78.4z M103.6,69.8c-0.7,1.3-1.4,2.6-2.1,3.9c0.7,1.2,1.4,2.4,2.1,3.6
		c0.7-1.3,1.4-2.6,2.1-4C105,72.2,104.3,71,103.6,69.8L103.6,69.8z M103.6,67.1c-0.2,0-0.3-0.1-0.3-0.2c-0.8-1.5-1.6-3-2.4-4.5
		c0.8-1.6,1.6-3.2,2.4-4.8c0.1-0.1,0.1-0.2,0.3-0.2l0,0c0.1,0,0.1,0.1,0.3,0.2c0.8,1.5,1.6,3,2.4,4.5c-0.8,1.6-1.6,3.2-2.4,4.8
		C103.8,67,103.7,67.1,103.6,67.1L103.6,67.1z M103.6,58.4c-0.7,1.3-1.4,2.6-2.1,4c0.7,1.2,1.4,2.4,2.1,3.6c0.7-1.3,1.4-2.6,2.1-3.9
		C105,60.9,104.3,59.6,103.6,58.4L103.6,58.4z"/>
	<path fill="#F6D849" d="M95,67.9c1.3,0.8,2.5,1.6,3.8,2.4c1.3-0.8,2.5-1.6,3.8-2.4c-1.3-0.8-2.5-1.6-3.8-2.4
		C97.5,66.3,96.3,67.1,95,67.9z M104.5,67.9c1.3,0.8,2.6,1.6,3.8,2.4c1.2-0.8,2.5-1.6,3.7-2.5c-1.2-0.8-2.5-1.6-3.7-2.4
		C107.1,66.3,105.8,67.1,104.5,67.9z"/>
	<path fill="#010101" d="M108.4,70.6c-0.1,0-0.1,0-0.2,0c-1.3-0.8-2.5-1.6-3.8-2.4c-0.1-0.1-0.1-0.2-0.1-0.3c0-0.1,0-0.2,0.1-0.3
		c1.3-0.8,2.5-1.6,3.8-2.5c1.4,0.8,2.8,1.6,4.2,2.4c0.1,0,0.1,0.2,0.1,0.3c0,0.1,0,0.2-0.1,0.3c-1.3,0.8-2.5,1.7-3.8,2.5
		C108.5,70.6,108.4,70.6,108.4,70.6L108.4,70.6z M105.2,67.9c1.1,0.7,2.1,1.3,3.2,2c1-0.7,2.1-1.4,3.1-2c-1.1-0.7-2.2-1.4-3.4-2.1
		C107.2,66.5,106.2,67.2,105.2,67.9L105.2,67.9z M98.8,70.7c0,0-0.1,0-0.2-0.1c-1.3-0.8-2.5-1.6-3.8-2.5c-0.1-0.1-0.1-0.2-0.1-0.3
		c0-0.1,0-0.2,0.1-0.3c1.3-0.8,2.5-1.6,3.8-2.4c1.4,0.8,2.8,1.6,4.1,2.4c0.1,0.1,0.2,0.2,0.2,0.3c0,0.1-0.1,0.2-0.2,0.3
		c-1.2,0.8-2.5,1.6-3.7,2.4C98.9,70.7,98.9,70.7,98.8,70.7L98.8,70.7z M95.7,67.9c1,0.7,2.1,1.4,3.1,2c1-0.7,2.1-1.3,3.1-2
		c-1.1-0.7-2.2-1.4-3.3-2.1C97.6,66.5,96.6,67.2,95.7,67.9L95.7,67.9z"/>
	<path fill="#F6D849" d="M105.4,68c0,1-0.8,1.8-1.8,1.8c-1,0-1.9-0.8-1.9-1.8c0-1,0.9-1.8,1.9-1.8C104.6,66.2,105.4,67,105.4,68
		L105.4,68z"/>
	<path fill="#010101" d="M103.6,70.2c-1.2,0-2.2-1-2.2-2.2c0-1.2,1-2.1,2.2-2.2c1.2,0,2.1,0.9,2.1,2.1
		C105.7,69.2,104.8,70.1,103.6,70.2L103.6,70.2z M103.6,66.5c-0.9,0-1.5,0.7-1.5,1.5c0,1.6,2.9,1.6,2.9,0
		C105,67.1,104.4,66.5,103.6,66.5L103.6,66.5z"/>
	<path fill="#F6D849" d="M108.5,79.6c0,2.7-2.2,4.9-4.9,4.9c-2.7,0-4.9-2.2-4.9-4.9c0-2.7,2.2-4.9,4.9-4.9
		C106.3,74.7,108.5,76.9,108.5,79.6L108.5,79.6z"/>
	<path fill="#010101" d="M103.6,84.9c-3,0-5.3-2.4-5.3-5.2c0-2.9,2.3-5.3,5.3-5.3c2.9,0,5.2,2.3,5.2,5.2
		C108.9,82.4,106.5,84.8,103.6,84.9L103.6,84.9z M103.6,75.1c-2.5,0-4.6,2.1-4.6,4.6c0,2.5,2,4.5,4.6,4.5c2.4,0,4.5-2.1,4.5-4.5
		C108.1,77.1,106.1,75.1,103.6,75.1L103.6,75.1z"/>
	<path fill="#010101" d="M108.3,81.1C108.3,81.1,108.3,81.1,108.3,81.1c-3.2-0.5-6.3-0.5-9.4,0c-0.2,0-0.4-0.1-0.4-0.3
		c0-0.2,0.1-0.4,0.3-0.4c3.2-0.5,6.4-0.5,9.6,0c0.2,0,0.3,0.2,0.3,0.4C108.6,81,108.5,81.1,108.3,81.1L108.3,81.1z M108.3,78.6
		C108.3,78.6,108.3,78.6,108.3,78.6c-1.2-0.2-2.4-0.3-3.5-0.3c-0.1-1.1-0.2-2.3-0.4-3.4c0-0.4,0.7-0.4,0.7,0c0,1,0,2.1,0,3.1
		c0.8-0.3,2-0.2,3.1,0c0.2,0.1,0.3,0.2,0.3,0.4C108.6,78.5,108.5,78.6,108.3,78.6L108.3,78.6z M98.9,78.7c-0.2,0-0.4-0.1-0.4-0.3
		c0-0.2,0.1-0.4,0.3-0.4c1.1-0.2,2.3-0.3,3.5-0.3c-0.1-0.2-0.2-0.5-0.4-0.7c0-0.7,0-1.3,0-2c0-0.4,0.7-0.4,0.7,0c0,1,0,2.1,0,3.1
		C101.2,78.4,100.1,78.5,98.9,78.7L98.9,78.7L98.9,78.7z"/>
	<path fill="#F6D849" d="M98.8,87.9c-0.5,7.9-1.4,16.1-4.5,21.9c1.7-0.7,3.3-1.3,5-2c1.8-6.7,2.2-15.3,2.7-19.4
		C100.9,88.2,99.9,88,98.8,87.9z M108.4,87.8c-1.1,0.2-2.1,0.4-3.2,0.6c0.5,4.1,0.9,12.7,2.7,19.4c1.7,0.7,3.4,1.3,5,1.9
		C109.8,103.9,108.8,95.8,108.4,87.8L108.4,87.8z"/>
	<path fill="#010101" d="M94.3,110.2c-0.1,0-0.2,0-0.3-0.1c-0.1-0.1-0.1-0.3-0.1-0.4c3.2-5.9,4.1-14.4,4.5-21.8
		c1.2,0.1,2.4,0.2,3.6,0.2c0.2,1.4,0.1,2.9-0.1,4.5c-0.4,4.4-1,10.4-2.3,15.3c-1.8,0.8-3.5,1.5-5.3,2.2
		C94.4,110.1,94.4,110.2,94.3,110.2L94.3,110.2z M98.8,88.2c0,6.8-0.8,14.9-3.7,20.9c1.4-0.5,2.8-1.1,4.2-1.7c1.1-4.6,1.7-10.6,2-15
		c0.2-1.6,0.4-3,0.4-4.2C100.7,88.3,99.7,88.3,98.8,88.2L98.8,88.2z M112.9,110.1c-0.1,0-0.1,0-0.2,0c-1.7-0.6-3.4-1.3-5.1-1.9
		c-1.5-5.1-2-11.1-2.4-15.4c-0.1-1.7-0.3-3.1-0.4-4.3c1.2-0.3,2.3-0.6,3.5-0.9c0.8,7.7,1.7,16.1,4.8,22c0.1,0.1,0.1,0.3,0,0.4
		C113.1,110,113,110.1,112.9,110.1L112.9,110.1z M108,87.8c-0.9,0.3-1.9,0.6-2.8,0.9c0.4,0.7,0.5,2.2,0.7,3.9
		c0.4,4.3,1,10.3,2.2,15.1c1.3,0.5,2.7,0.9,4,1.4C109.2,103.1,108.4,95,108,87.8L108,87.8z"/>
	<path fill="#F6D849" d="M103.6,105.1c-6.1,0-10.5,2.8-10.7,10c-1.5-2.6-7.8-10.9-13.6-10.1c-3.4,0.5-6.5,5.1-5.9,10.6
		c-2.9-8.4-11.3-10.3-17.4-6.2c5.5,5.1,7.8,18.4,12.4,24.5c11.7,0.9,23.5,1.2,35.2,1.2c11.7-0.1,23.4-0.5,35.1-1.3
		c4.6-6,7.1-19.4,12.4-24.3c-6.1-4.3-14.5-2.5-17.4,5.9c0.5-5.5-2.5-10.1-6-10.6c-5.8-0.8-12,7.5-13.5,10.2
		C114.1,107.8,109.6,105.1,103.6,105.1L103.6,105.1z"/>
	<path fill="#010101" d="M138.7,134.2c-23.4,1.5-46.9,1.8-70.3,0.1c-2.3-2.8-3.9-6.9-5.6-11.2c-2-5.2-4.1-10.6-7.1-13.4
		c2.4-2.2,5.2-2.9,7.9-2.7c4.1,0.4,7.4,2.8,9.3,6.7c0.2-5,3.3-8.7,6.4-9.1c5.7-0.8,11.2,6.2,13.3,9.3c0.6-6,4.4-9.2,11-9.2
		c6.5,0,10.4,3.1,11,9.1c2-3.1,7.8-10.2,13.2-9.4c3.1,0.4,6.1,4.1,6.4,9.1c1.9-3.9,5.4-6.4,9.4-6.7c2.7-0.2,5.5,0.6,7.9,2.3
		c-3,3.2-5.1,8.6-7.1,13.8c-1.6,4.2-3.2,8.3-5.3,11C139,134.1,138.8,134.2,138.7,134.2L138.7,134.2z M63.6,107.7
		c-2.5-0.2-5.2,0.5-7.4,2c3.1,2.3,5.2,7.8,7.3,13.1c1.6,4.2,3.2,8.2,5.2,10.9c23.3,1.7,46.6,1.3,69.9-0.2c1.9-2.6,3.5-6.5,5.1-10.7
		c2.1-5.3,4.2-10.7,7.3-13.5c-2.3-1-4.9-1.8-7.4-1.6c-4.2,0.3-7.8,3.2-9.4,7.9c-0.1,0.2-0.2,0.3-0.4,0.2c-0.2,0-0.3-0.2-0.2-0.4
		c0.5-5.5-2.7-9.8-5.8-10.3c-5.2-0.7-11.3,6.7-13.1,10c0,0.1-0.3,0.2-0.4,0.2c-0.1-0.1-0.3-0.2-0.3-0.4c-0.3-8-5.8-9.6-10.4-9.6
		c-4.6,0-10,1.6-10.4,9.7c0,0.2-0.2,0.3-0.3,0.4c-0.2,0-0.4,0-0.4-0.2c-1.2-2-7.4-10.8-13.2-10c-3.1,0.5-6.2,4.7-5.7,10.3
		c0,0.1-0.1,0.3-0.3,0.3c-0.2,0-0.4-0.1-0.4-0.3C71.4,111,67.9,108.1,63.6,107.7L63.6,107.7z"/>
	<path fill="#010101" d="M138.6,133.9c0,2.5-15.7,6.6-35,6.7c-19.4,0.1-35.1-4.1-35.1-6.6c0-2.6,15.7-2.7,35.1-2.8
		C122.9,131.1,138.6,131.2,138.6,133.9L138.6,133.9z"/>
	<path fill="#010101" d="M103.6,140.9c-18.9,0.1-35.4-3.9-35.4-7c0-3.8,27.1-2.8,35.4-3.1c8.3,0.2,35.4-0.8,35.4,3
		C139,136.9,122.5,140.9,103.6,140.9L103.6,140.9z M103.6,131.5c-22.9,0-34.8,0.6-34.8,2.5c0,2,14.6,6.4,34.8,6.3
		c20.1-0.1,34.6-4.4,34.6-6.4C138.3,132,126.4,131.3,103.6,131.5L103.6,131.5z"/>
	<path fill="#F6D849" d="M105.2,86.4c0,0.9-0.7,1.6-1.6,1.6c-0.9,0-1.6-0.7-1.7-1.6l0,0c0-0.9,0.7-1.6,1.7-1.6
		C104.5,84.7,105.2,85.4,105.2,86.4L105.2,86.4z"/>
	<path fill="#010101" d="M103.6,88.3c-1.1,0-2-0.9-2-2c0-0.5,0.2-1,0.6-1.4c1.2-1.1,3.4-0.3,3.4,1.4
		C105.6,87.4,104.7,88.3,103.6,88.3L103.6,88.3z M103.6,85.1c-0.3,0-0.7,0.1-1,0.4c-0.2,0.2-0.3,0.6-0.4,0.9c0,1.4,2.6,1.4,2.6,0
		C104.9,85.6,104.3,85.1,103.6,85.1L103.6,85.1z"/>
	<path fill="#F6D849" d="M105.4,89.9c0,0.9-0.8,1.7-1.7,1.7c-1,0-1.8-0.8-1.8-1.7l0,0c0-1,0.7-1.8,1.8-1.8
		C104.5,88.1,105.4,88.9,105.4,89.9C105.4,89.9,105.4,89.9,105.4,89.9z"/>
	<path fill="#010101" d="M103.6,92c-1.2,0-2.1-0.9-2.1-2.1c0-1.2,0.9-2.1,2.1-2.1c1.1,0,2,0.9,2,2.1C105.6,91,104.7,92,103.6,92
		L103.6,92z M103.6,88.5c-0.8,0-1.4,0.6-1.4,1.4c0,1.5,2.7,1.5,2.7,0C105,89.1,104.4,88.5,103.6,88.5L103.6,88.5z"/>
	<path fill="#F6D849" d="M105.5,93.7c0,1.1-0.9,1.9-1.9,1.9c-1.1,0-1.9-0.8-1.9-1.9l0,0c0-1,0.8-1.9,1.9-1.9
		C104.6,91.8,105.5,92.6,105.5,93.7L105.5,93.7z"/>
	<path fill="#010101" d="M103.6,95.9C103.6,95.9,103.6,95.9,103.6,95.9c-1.3,0-2.3-1-2.3-2.3c0-1.2,1.1-2.2,2.3-2.2
		c1.2,0,2.3,1,2.3,2.2C105.9,94.9,104.8,95.9,103.6,95.9L103.6,95.9z M103.6,92.1c-0.9,0-1.6,0.7-1.6,1.5c0,1.7,3.1,1.7,3.1,0
		C105.1,92.8,104.5,92.1,103.6,92.1L103.6,92.1z"/>
	<path fill="#F6D849" d="M105.7,97.9c0,1.2-1,2.2-2.1,2.2c-1.2,0-2.2-0.9-2.2-2.2l0,0c0-1.2,1-2.2,2.2-2.2
		C104.8,95.7,105.7,96.7,105.7,97.9L105.7,97.9z"/>
	<path fill="#010101" d="M103.6,100.4C103.6,100.4,103.6,100.4,103.6,100.4c-1.4,0-2.5-1.1-2.5-2.5c0-1.4,1.2-2.5,2.5-2.5
		c1.4,0,2.4,1.1,2.4,2.5C106.1,99.3,105,100.4,103.6,100.4L103.6,100.4z M103.6,96.1c-1,0-1.9,0.8-1.9,1.8c0,1,0.8,1.8,1.8,1.8
		c0.9,0,1.8-0.8,1.8-1.8C105.4,96.9,104.5,96.1,103.6,96.1L103.6,96.1z"/>
	<path fill="#F6D849" d="M106,102.6c0,1.3-1,2.4-2.3,2.4c-1.4,0-2.4-1.1-2.4-2.4l0,0c0-1.3,1.1-2.4,2.4-2.4
		C104.9,100.2,106,101.3,106,102.6L106,102.6z"/>
	<path fill="#010101" d="M103.6,105.4c-1.5,0-2.8-1.2-2.8-2.7c0-1.5,1.2-2.7,2.8-2.7c1.5,0,2.7,1.2,2.7,2.7
		C106.3,104.1,105.1,105.4,103.6,105.4L103.6,105.4z M103.6,100.6c-1.2,0-2,0.9-2,2c0,1.1,0.8,2,2,2c1.1,0,2-0.9,2-2.1
		C105.6,101.5,104.7,100.6,103.6,100.6L103.6,100.6z"/>
	<path fill="#010101" d="M102.6,107.2c-0.2,0-0.5,0.2-0.4,0.7c0,0.5,0.1,1.4,0.2,2c0.1,0.7,0.5,0.5,0.6,0c0.1-0.5,0-0.9,0.1-1.9
		C103.2,107.5,102.9,107.2,102.6,107.2L102.6,107.2z M104.5,107.2c-0.3,0-0.5,0.3-0.5,0.7c0,1,0,1.4,0.1,1.9c0.1,0.5,0.5,0.7,0.6,0
		c0.1-0.6,0.2-1.5,0.2-2C105,107.5,104.8,107.2,104.5,107.2L104.5,107.2z M100.9,107.5c-0.3,0.1-0.5,0.3-0.5,0.5
		c0.1,0.5,0.2,1,0.2,1.7c0.1,0.7,0.6,0.4,0.6,0.1c0-0.4,0.1-1,0-1.9c0-0.3-0.1-0.4-0.3-0.4C101,107.5,101,107.5,100.9,107.5
		L100.9,107.5z M106.1,107.5c-0.2,0-0.3,0.2-0.3,0.4c-0.1,0.8,0,1.4,0.1,1.9c0,0.4,0.5,0.7,0.6-0.1c0.1-0.7,0.2-1.2,0.2-1.7
		C106.7,107.8,106.5,107.5,106.1,107.5C106.2,107.5,106.2,107.5,106.1,107.5L106.1,107.5z M98.9,108.3c-0.2,0.1-0.4,0.3-0.3,0.6
		c0.1,0.6,0.2,1.3,0.2,1.9c0,0.5,0.5,0.3,0.5,0c0-0.4,0-1.1,0-1.8C99.3,108.4,99.1,108.2,98.9,108.3L98.9,108.3z M108.1,108.3
		c-0.1,0.1-0.3,0.3-0.3,0.6c0,0.7,0.1,1.5,0.1,1.8c0,0.4,0.5,0.5,0.5,0c0-0.6,0.1-1.3,0.2-1.9c0.1-0.3-0.1-0.5-0.3-0.6
		C108.2,108.3,108.1,108.3,108.1,108.3C108.1,108.3,108.1,108.3,108.1,108.3z M80.5,107.9c-0.3,0-0.4,0.3-0.3,0.7
		c0.3,0.6,0.6,1,0.9,1.7c0.3,0.7,0.7,0.3,0.5-0.2c-0.1-0.4-0.3-0.9-0.6-1.8C80.9,108.1,80.7,107.9,80.5,107.9L80.5,107.9z
		 M126.7,107.8c-0.2,0-0.4,0.2-0.5,0.5c-0.4,0.9-0.5,1.4-0.6,1.8c-0.1,0.4,0.3,0.8,0.5,0.2c0.3-0.7,0.6-1.1,0.9-1.7
		C127.1,108.1,126.9,107.8,126.7,107.8L126.7,107.8z M82.4,108c-0.2,0.1-0.3,0.3-0.2,0.6c0.2,0.6,0.6,1.2,0.8,1.8
		c0.2,0.5,0.7,0.4,0.5-0.1c-0.2-0.5-0.2-0.8-0.5-1.7C82.9,108.2,82.6,108,82.4,108L82.4,108z M124.6,107.9c-0.2,0-0.4,0.2-0.5,0.6
		c-0.3,0.9-0.4,1.2-0.5,1.7c-0.1,0.5,0.4,0.6,0.5,0.1c0.2-0.6,0.6-1.2,0.8-1.8c0.1-0.3,0-0.5-0.2-0.6
		C124.7,107.9,124.7,107.9,124.6,107.9L124.6,107.9z M84.8,108.6c-0.2,0-0.5,0.4-0.2,0.8c0.1,0.6,0.5,1.1,0.7,1.8
		c0.3,0.6,0.7,0.5,0.6,0.1c-0.1-0.4-0.2-1.1-0.5-2.1C85.1,108.7,84.9,108.6,84.8,108.6C84.8,108.6,84.8,108.6,84.8,108.6z
		 M122.5,108.5c-0.2,0-0.4,0.1-0.6,0.6c-0.3,1-0.4,1.7-0.5,2.1c-0.1,0.4,0.4,0.5,0.7-0.1c0.2-0.6,0.5-1.2,0.7-1.8
		C122.9,108.8,122.7,108.5,122.5,108.5L122.5,108.5z M78.9,108.7c-0.3,0-0.4,0.4-0.3,0.8c0.2,0.5,0.4,0.7,0.7,1.3
		c0.3,0.6,0.6,0.2,0.4-0.2c-0.1-0.4-0.2-0.8-0.3-1.3C79.3,108.8,79.1,108.7,78.9,108.7L78.9,108.7z M128.2,108.5
		c-0.2,0-0.3,0.1-0.4,0.5c-0.1,0.5-0.2,0.9-0.4,1.3c-0.1,0.4,0.2,0.8,0.4,0.2c0.3-0.6,0.5-0.7,0.7-1.3
		C128.7,108.9,128.5,108.5,128.2,108.5L128.2,108.5z M96.9,110.5c-0.3,0-0.6,0.4-0.5,0.7c0.2,0.6,0.5,1,0.6,1.8
		c0.2,0.6,0.6,0.3,0.5-0.1c0-0.4,0-1-0.2-1.9C97.3,110.6,97.1,110.5,96.9,110.5L96.9,110.5z M110.2,110.4c-0.2,0-0.3,0.1-0.4,0.5
		c-0.2,0.9-0.2,1.4-0.3,1.9c0,0.4,0.4,0.7,0.6,0.1c0.2-0.7,0.4-1.2,0.6-1.8C110.8,110.8,110.5,110.4,110.2,110.4L110.2,110.4z
		 M103.6,111c-0.3,0-0.4,0.5-0.4,0.8c0,1.2-0.5,2.4-0.9,3c-0.4,0.6-1.1,0.4-1.6,0.1c-0.6-0.3-1-0.6-1.6-1c-0.7-0.5-1.1-0.2-0.3,0.9
		c2.1,3.1,4.4,5.7,4.4,10.7c0,0.6,0.2,0.8,0.4,0.8c0.2,0,0.4-0.2,0.4-0.8c0-5,2.3-7.7,4.5-10.8c0.7-1.1,0.2-1.3-0.4-0.9
		c-0.7,0.4-1,0.7-1.6,1c-0.6,0.3-1.2,0.5-1.7-0.1c-0.4-0.6-0.9-1.8-0.9-3C104,111.5,103.9,111,103.6,111L103.6,111z M87.2,110.1
		c0,0-0.1,0-0.1,0c-0.2,0-0.3,0.2-0.2,0.5c0.1,0.5,0.4,1.4,0.5,1.8c0.1,0.5,0.7,0.4,0.5-0.2c-0.1-0.6-0.1-0.8-0.3-1.4
		C87.5,110.3,87.3,110.1,87.2,110.1L87.2,110.1z M120.1,110c-0.2,0-0.5,0.3-0.6,0.7c-0.2,0.7-0.2,0.8-0.3,1.4
		c-0.1,0.6,0.4,0.7,0.5,0.2c0.1-0.4,0.4-1.4,0.5-1.8C120.4,110.2,120.3,110,120.1,110C120.1,110,120.1,110,120.1,110L120.1,110z
		 M77.3,109.9c-0.2,0-0.5,0.3-0.2,0.8c0.2,0.5,0.8,1.3,1,1.7c0.3,0.4,0.6,0.2,0.4-0.4c-0.3-0.5-0.4-1-0.7-1.8
		C77.7,110,77.5,109.9,77.3,109.9L77.3,109.9z M129.9,109.7c-0.2,0-0.4,0.1-0.5,0.4c-0.4,0.7-0.4,1.3-0.7,1.8
		c-0.2,0.5,0.2,0.8,0.4,0.4c0.2-0.4,0.7-1.1,1-1.7C130.3,110.1,130,109.8,129.9,109.7L129.9,109.7z M62.5,110.4
		c-0.3-0.1-0.4,0.5-0.1,0.9c0.4,0.6,0.7,0.9,1.1,1.4c0.4,0.4,0.5-0.1,0.4-0.4c-0.2-0.4-0.5-0.7-0.9-1.3
		C62.9,110.6,62.7,110.4,62.5,110.4L62.5,110.4z M144.6,110.4c-0.2,0-0.3,0.2-0.6,0.5c-0.4,0.6-0.7,1-0.9,1.3
		c-0.2,0.4-0.1,0.8,0.3,0.4c0.5-0.5,0.8-0.8,1.2-1.4C145,110.9,145,110.3,144.6,110.4L144.6,110.4z M64.9,111.1
		c-0.2,0-0.4,0.1-0.2,0.6c0.3,0.6,0.6,1.3,0.9,1.8c0.2,0.5,1,0.7,0.7,0c-0.3-0.8-0.3-1.1-0.6-1.8C65.5,111.3,65.1,111.1,64.9,111.1
		L64.9,111.1z M142.2,111c-0.3,0-0.6,0.2-0.7,0.5c-0.2,0.7-0.2,1-0.6,1.8c-0.3,0.7,0.4,0.5,0.7,0c0.3-0.5,0.6-1.2,0.9-1.8
		C142.7,111.1,142.5,111,142.2,111C142.2,111,142.2,111,142.2,111z M60.3,110.8c-0.4,0-0.4,0.3-0.1,0.6c0.5,0.3,1,0.7,1.5,1.2
		c0.6,0.5,0.8,0.1,0.5-0.3c-0.3-0.4-0.6-0.8-1.4-1.3C60.6,110.8,60.5,110.8,60.3,110.8L60.3,110.8z M146.8,110.8
		c-0.1,0-0.2,0-0.5,0.1c-0.7,0.5-1.1,0.9-1.4,1.3c-0.3,0.4-0.1,0.9,0.5,0.3c0.5-0.4,1-0.8,1.4-1.1
		C147.2,111.2,147.2,110.8,146.8,110.8C146.8,110.8,146.8,110.8,146.8,110.8z M95.7,113c-0.2,0-0.4,0.2-0.2,0.5
		c0.1,0.5,0.3,1.1,0.4,1.7c0.1,0.6,0.7,0.6,0.6,0.1c-0.1-0.5-0.2-1.1-0.3-1.8c-0.1-0.3-0.2-0.4-0.4-0.4C95.7,113,95.7,113,95.7,113
		L95.7,113z M111.5,112.9c-0.2,0-0.3,0.1-0.4,0.4c-0.2,0.7-0.2,1.4-0.4,1.8c-0.1,0.5,0.5,0.5,0.7-0.1c0.1-0.5,0.3-1.1,0.4-1.7
		C111.9,113.2,111.7,112.9,111.5,112.9C111.5,112.9,111.5,112.9,111.5,112.9L111.5,112.9z M81.6,111.7c-0.1,0-0.2,0.3-0.1,0.7
		c0.6,2.4,0.9,3.7,0.7,4.2c-0.1,0.6-0.4,0.6-0.8,0.4c-0.5-0.2-1-0.5-1.4-0.8c-0.3-0.3-0.7,0-0.2,0.5c2.9,2.5,4.8,5.2,5.5,8.4
		c0.2,0.7,0.6,0.7,0.5,0c-0.7-4.1-0.7-7.4,0.3-9.5c0.4-0.8,0-1.6-0.6-0.3c-0.4,0.8-1,1.1-1.6,0.4c-0.5-0.8-1.5-2.7-1.8-3.7
		c-0.1-0.3-0.3-0.5-0.4-0.5C81.7,111.7,81.7,111.7,81.6,111.7L81.6,111.7z M125.5,111.5c-0.1,0-0.2,0.2-0.3,0.5
		c-0.4,0.9-1.3,2.9-1.9,3.7c-0.5,0.8-1.1,0.4-1.6-0.4c-0.6-1.3-0.9-0.5-0.6,0.3c1,2.1,0.9,5.4,0.2,9.5c-0.1,0.7,0.3,0.6,0.5,0
		c0.7-3.3,2.7-6,5.6-8.4c0.5-0.5,0.1-0.8-0.2-0.5c-0.4,0.3-0.9,0.6-1.3,0.8c-0.4,0.2-0.8,0.2-0.8-0.4c-0.1-0.6,0.1-1.8,0.7-4.2
		c0.1-0.4,0-0.7-0.1-0.7C125.6,111.5,125.5,111.5,125.5,111.5L125.5,111.5z M67.4,112c-0.3,0-0.5,0.1-0.4,0.5
		c0.2,0.6,0.6,1.3,0.7,1.8c0.1,0.4,0.6,0.3,0.5-0.3c-0.1-0.5-0.1-0.9-0.2-1.5C67.9,112.2,67.6,112,67.4,112L67.4,112z M139.8,111.9
		c-0.3,0-0.5,0.2-0.6,0.5c-0.1,0.6-0.1,0.9-0.2,1.5c0,0.6,0.4,0.7,0.5,0.3c0.2-0.4,0.5-1.1,0.7-1.7C140.2,112,140,111.9,139.8,111.9
		L139.8,111.9z M76.2,111.7c-0.2-0.1-0.3,0.7-0.1,1c0.4,0.4,0.8,0.9,1.3,1.5c0.4,0.5,0.6,0.1,0.4-0.3c-0.3-0.4-0.6-0.8-1.2-1.8
		C76.4,111.9,76.3,111.8,76.2,111.7L76.2,111.7z M131,111.6c-0.1,0-0.3,0.2-0.4,0.4c-0.6,1-0.9,1.4-1.2,1.8c-0.2,0.4,0,0.8,0.5,0.3
		c0.4-0.6,0.8-1.1,1.2-1.5C131.3,112.3,131.3,111.5,131,111.6L131,111.6z M69.4,113.1c-0.2,0-0.4,0.1-0.2,0.5c0.1,0.5,0.2,1,0.3,1.5
		c0.1,0.5,0.5,0.4,0.5,0c0-0.5-0.1-1-0.1-1.5C69.8,113.3,69.6,113.2,69.4,113.1L69.4,113.1z M137.7,113c-0.1,0-0.4,0.2-0.4,0.5
		c0,0.5-0.1,1-0.1,1.5c0,0.5,0.4,0.5,0.5,0c0.1-0.5,0.2-1,0.3-1.5C138.1,113.1,137.9,113,137.7,113L137.7,113z M75.6,114.2
		c-0.3,0-0.6,0.2-0.2,0.7c0.5,0.7,1.1,1.2,1.3,1.5c0.3,0.3,0.7,0.2,0.5-0.4c-0.4-0.5-0.9-1.2-1.2-1.7
		C75.8,114.3,75.7,114.2,75.6,114.2L75.6,114.2z M131.5,114.1c-0.1,0-0.2,0-0.3,0.2c-0.2,0.4-0.8,1.1-1.1,1.6
		c-0.3,0.6,0.2,0.7,0.4,0.4c0.2-0.3,0.8-0.8,1.4-1.5c0.3-0.5,0-0.7-0.3-0.7C131.6,114.1,131.6,114,131.5,114.1L131.5,114.1z
		 M65.9,115.5c-0.3,0-0.3,0.2,0,0.6c0.7,1,1.4,2.5,1.5,3.1c0.1,0.6-0.3,0.6-0.6,0.6c-0.8-0.1-1.2-0.7-2-1c-0.8-0.2-0.9,0.1-0.3,0.6
		c2.9,2.3,5.7,4.8,6.8,7c0.5,0.9,1.1,1.2,0.8,0.4c-1.1-2.6-1.3-4.7-1.2-5.9c0.3-1.3,0.6-2.1,0.5-2.9c0-0.7-0.4-0.7-0.6,0
		c-0.1,0.5-0.3,1.1-0.5,1.3c-0.1,0.2-0.8,0.3-1.4-0.5c-0.6-0.9-2.1-2.5-2.6-2.9C66.2,115.6,66,115.5,65.9,115.5L65.9,115.5z
		 M141.3,115.4c-0.1,0-0.4,0.2-0.5,0.3c-0.5,0.4-2,2.1-2.6,2.9c-0.6,0.8-1.3,0.7-1.4,0.5c-0.2-0.2-0.3-0.8-0.5-1.3
		c-0.1-0.7-0.6-0.7-0.7,0c0,0.7,0.3,1.6,0.5,2.9c0.2,1.3,0,3.3-1.1,5.9c-0.4,0.8,0.3,0.5,0.7-0.4c1.2-2.2,4-4.7,6.8-6.9
		c0.5-0.5,0.4-0.8-0.4-0.6c-0.8,0.2-1.2,0.9-2.1,1c-0.2,0-0.6,0-0.5-0.6c0-0.6,0.8-2.1,1.5-3.1C141.6,115.6,141.5,115.4,141.3,115.4
		L141.3,115.4z"/>
	<path fill="#AE519D" d="M70.1,131.1c0.3,1,0.6,1.9,0.9,2.9C70.7,133.1,70.4,132.1,70.1,131.1z M72,130.7c0.3,1,0.5,2,0.8,2.9
		C72.5,132.7,72.2,131.7,72,130.7z M74,130.5c0.2,1,0.4,2,0.5,3C74.3,132.5,74.1,131.5,74,130.5z M75.8,130.2c0.2,1,0.4,2,0.6,3
		C76.2,132.2,76,131.2,75.8,130.2z M78.2,130.1c0.2,1,0.3,2,0.5,3C78.5,132.1,78.4,131.1,78.2,130.1z M80.8,130.2c0.2,1,0.4,2,0.5,3
		C81.1,132.2,80.9,131.2,80.8,130.2z M83.3,129.5c0.1,1,0.2,2,0.3,3C83.5,131.5,83.4,130.5,83.3,129.5z M85.6,129.8
		c0.1,1,0.3,2,0.4,3C85.9,131.8,85.8,130.8,85.6,129.8z M87.9,129.5c0.1,1,0.2,2,0.4,3C88.2,131.5,88,130.5,87.9,129.5z M90.2,129.3
		c0.1,1,0.1,2,0.2,3C90.3,131.4,90.3,130.4,90.2,129.3z M92.6,129.4c0.1,1,0.1,2,0.2,3C92.7,131.4,92.7,130.4,92.6,129.4z
		 M94.9,129.3c0,1,0.1,2,0.1,3C95,131.3,94.9,130.3,94.9,129.3z M97.3,129.1c0,1,0.1,2,0.1,3.1C97.4,131.2,97.3,130.1,97.3,129.1z
		 M100.1,129.1c0,1,0.1,2,0.1,3C100.2,131.1,100.1,130.1,100.1,129.1z M137.1,131c-0.3,1-0.6,1.9-0.8,2.9
		C136.5,133,136.8,132,137.1,131z M135.2,130.6c-0.3,1-0.5,2-0.8,2.9C134.7,132.5,134.9,131.6,135.2,130.6z M133.3,130.4
		c-0.2,1-0.4,2-0.6,3C132.9,132.4,133.1,131.4,133.3,130.4z M131.3,130.1c-0.2,1-0.4,2-0.6,3C130.9,132.1,131.1,131.1,131.3,130.1z
		 M129,130c-0.2,1-0.3,2-0.5,3C128.6,132,128.8,131,129,130z M126.4,130.1c-0.2,1-0.4,2-0.6,3C126,132.1,126.2,131.1,126.4,130.1z
		 M123.9,129.4c-0.1,1-0.3,2-0.4,3C123.6,131.4,123.8,130.4,123.9,129.4z M121.5,129.6c-0.1,1-0.3,2-0.4,3
		C121.2,131.6,121.4,130.6,121.5,129.6z M119.2,129.4c-0.1,1-0.2,2-0.3,3C119,131.4,119.1,130.4,119.2,129.4z M117,129.2
		c-0.1,1-0.1,2-0.2,3C116.8,131.2,116.9,130.2,117,129.2z M114.5,129.3c-0.1,1-0.1,2-0.2,3C114.4,131.3,114.5,130.3,114.5,129.3z
		 M112.3,129.2c-0.1,1-0.1,2-0.2,3C112.2,131.2,112.3,130.2,112.3,129.2z M109.9,129.1c0,1-0.1,2-0.1,3.1
		C109.8,131.1,109.9,130.1,109.9,129.1z M107,129.1c0,1-0.1,2-0.1,3C107,131.1,107,130.1,107,129.1z M103.6,128.9c0,1.1,0,2.2,0,3.3
		C103.6,131.1,103.6,130,103.6,128.9z"/>
	<path fill="#010101" d="M136.2,134.3c0,0-0.1,0-0.1,0c-0.2-0.1-0.3-0.2-0.2-0.4c0.3-1,0.6-1.9,0.9-2.9c0-0.2,0.2-0.3,0.4-0.3
		c0.2,0.1,0.3,0.2,0.3,0.5c-0.3,1-0.6,2-0.9,2.9C136.5,134.2,136.4,134.3,136.2,134.3L136.2,134.3z M71,134.4
		c-0.1,0-0.3-0.1-0.3-0.2c-0.3-1-0.6-2-0.9-3c-0.1-0.2,0-0.4,0.2-0.4c0.2,0,0.4,0.1,0.5,0.3c0.3,1,0.6,1.9,0.9,2.9
		c0.1,0.2,0,0.4-0.2,0.4C71,134.4,71,134.4,71,134.4L71,134.4z M134.4,133.9c0,0-0.1,0-0.1,0c-0.1-0.1-0.3-0.2-0.2-0.4
		c0.3-1,0.5-2,0.8-3c0.1-0.1,0.2-0.3,0.4-0.3c0.2,0,0.3,0.2,0.2,0.4c-0.3,1-0.5,2-0.8,2.9C134.8,133.8,134.6,133.9,134.4,133.9
		L134.4,133.9z M72.7,134c-0.1,0-0.3-0.1-0.3-0.3c-0.3-1-0.5-2-0.8-2.9c-0.1-0.2,0-0.4,0.2-0.4c0.2,0,0.4,0.1,0.4,0.3
		c0.3,1,0.5,2,0.8,3C73.1,133.8,73.1,134,72.7,134C72.8,134,72.8,134,72.7,134L72.7,134z M74.5,133.9c-0.1,0-0.3-0.2-0.4-0.3
		c-0.2-1-0.4-2-0.5-3c-0.1-0.2,0.1-0.4,0.2-0.4c0.2-0.1,0.4,0.1,0.4,0.3c0.2,1,0.4,2,0.6,3c0,0.2-0.1,0.4-0.3,0.4
		C74.5,133.9,74.5,133.9,74.5,133.9L74.5,133.9z M132.7,133.7C132.7,133.7,132.6,133.7,132.7,133.7c-0.2,0-0.4-0.2-0.4-0.4
		c0.2-1,0.4-2,0.6-3c0-0.2,0.3-0.4,0.4-0.3c0.2,0,0.3,0.2,0.2,0.4c-0.2,1-0.3,2-0.5,3C133,133.6,132.8,133.7,132.7,133.7
		L132.7,133.7z M130.7,133.4L130.7,133.4c-0.2,0-0.3-0.2-0.3-0.4c0.2-1,0.4-2,0.5-3c0-0.2,0.2-0.3,0.4-0.3c0.1,0,0.3,0.2,0.2,0.4
		c-0.2,1-0.4,2-0.6,3C131.1,133.3,130.9,133.4,130.7,133.4L130.7,133.4z M76.4,133.6c-0.1,0-0.3-0.1-0.4-0.3c-0.2-1-0.4-2-0.6-3
		c-0.1-0.2,0.1-0.4,0.2-0.4c0.2,0,0.4,0.1,0.4,0.3c0.2,1,0.4,2,0.6,3C76.8,133.3,76.6,133.5,76.4,133.6
		C76.4,133.6,76.4,133.6,76.4,133.6L76.4,133.6z M125.8,133.4C125.8,133.4,125.8,133.4,125.8,133.4c-0.2,0-0.4-0.2-0.3-0.4
		c0.2-1,0.4-2,0.5-3c0-0.2,0.1-0.3,0.4-0.3c0.2,0,0.3,0.2,0.3,0.4c-0.2,1-0.4,2-0.6,3C126.2,133.3,126,133.4,125.8,133.4
		L125.8,133.4z M81.3,133.6c-0.2,0-0.3-0.1-0.4-0.3c-0.2-1-0.3-2-0.5-3c-0.1-0.2,0.1-0.4,0.3-0.4c0.2-0.1,0.3,0.1,0.4,0.3
		c0.2,1,0.4,2,0.5,3c0.1,0.2-0.1,0.4-0.3,0.4C81.3,133.6,81.3,133.6,81.3,133.6L81.3,133.6z M128.5,133.3
		C128.4,133.3,128.4,133.3,128.5,133.3c-0.2,0-0.4-0.2-0.4-0.4c0.2-1,0.3-2,0.5-3c0-0.2,0.2-0.3,0.4-0.3c0.1,0,0.3,0.2,0.3,0.4
		c-0.2,1-0.3,2-0.5,3C128.8,133.2,128.6,133.3,128.5,133.3L128.5,133.3z M78.7,133.4c-0.1,0-0.3-0.1-0.3-0.3c-0.2-1-0.4-2-0.5-3
		c0-0.2,0.1-0.4,0.3-0.4c0.2,0,0.4,0.1,0.4,0.3c0.2,1,0.3,2,0.5,3C79.1,133.3,78.9,133.5,78.7,133.4
		C78.7,133.4,78.7,133.4,78.7,133.4L78.7,133.4z M121.1,133C121.1,133,121.1,133,121.1,133c-0.2-0.1-0.3-0.2-0.3-0.4
		c0.1-1,0.2-2,0.4-3c0-0.2,0.2-0.3,0.4-0.3c0.2,0,0.3,0.2,0.3,0.4c-0.1,1-0.3,2-0.4,3C121.5,132.8,121.3,133,121.1,133L121.1,133z
		 M86,133.1c-0.2,0-0.3-0.2-0.4-0.3c-0.1-1-0.2-2-0.4-3c0-0.2,0.1-0.4,0.3-0.4c0.2,0,0.4,0.1,0.4,0.3c0.1,1,0.2,2,0.3,3
		C86.4,132.9,86.3,133.1,86,133.1C86,133.1,86,133.1,86,133.1L86,133.1z M123.5,132.7C123.5,132.7,123.5,132.7,123.5,132.7
		c-0.2,0-0.3-0.2-0.3-0.4c0.1-1,0.3-2,0.4-3c0-0.2,0.1-0.3,0.4-0.3c0.1,0,0.2,0.1,0.3,0.3c-0.1,1-0.2,2-0.4,3
		C123.9,132.6,123.7,132.7,123.5,132.7L123.5,132.7z M83.6,132.9c-0.1,0-0.3-0.1-0.3-0.3c-0.1-1-0.3-2-0.4-3c0-0.2,0.1-0.3,0.3-0.3
		c0.4,0,0.4,0.1,0.4,0.3c0.1,1,0.3,2,0.4,3c0,0.2-0.1,0.3-0.3,0.4C83.7,132.9,83.7,132.9,83.6,132.9
		C83.6,132.9,83.6,132.9,83.6,132.9z M118.9,132.7C118.9,132.7,118.9,132.7,118.9,132.7c-0.2,0-0.4-0.2-0.4-0.4c0.1-1,0.3-2,0.4-3
		c0-0.2,0.1-0.4,0.4-0.3c0.2,0,0.3,0.2,0.3,0.4c-0.1,1-0.3,2-0.4,3C119.2,132.6,119.1,132.7,118.9,132.7L118.9,132.7z M88.3,132.9
		c-0.1,0-0.3-0.2-0.4-0.3c-0.1-1-0.3-2-0.4-3c0-0.2,0.1-0.4,0.4-0.4c0.2,0,0.3,0.1,0.3,0.3c0.2,1,0.3,2,0.5,3
		C88.7,132.7,88.5,132.8,88.3,132.9C88.3,132.9,88.3,132.9,88.3,132.9L88.3,132.9z M114.3,132.7L114.3,132.7c-0.2,0-0.4-0.2-0.4-0.4
		c0-1,0.1-2,0.1-3c0.1-0.2,0.1-0.3,0.5-0.4c0.2,0,0.3,0.2,0.3,0.4c0,1-0.1,2-0.1,3C114.7,132.5,114.6,132.7,114.3,132.7L114.3,132.7
		z M116.8,132.6L116.8,132.6c-0.2,0-0.4-0.2-0.4-0.4c0.1-1,0.2-2,0.2-3c0-0.2,0.3-0.3,0.4-0.3c0.1,0,0.3,0.2,0.3,0.4
		c-0.1,1-0.1,2-0.2,3C117.1,132.5,116.9,132.6,116.8,132.6L116.8,132.6z M90.4,132.7c-0.2,0-0.4-0.1-0.4-0.3c-0.1-1-0.1-2-0.2-3
		c0-0.2,0.1-0.4,0.3-0.4c0.4,0,0.4,0.1,0.4,0.3c0.1,1,0.1,2,0.2,3C90.8,132.5,90.6,132.7,90.4,132.7L90.4,132.7L90.4,132.7z
		 M92.8,132.8c-0.2,0-0.3-0.1-0.3-0.3c-0.1-1-0.1-2-0.2-3c0-0.2,0.2-0.4,0.4-0.4c0.4,0,0.4,0.1,0.4,0.4c0,1,0.1,2,0.1,3
		C93.2,132.6,93,132.8,92.8,132.8C92.8,132.8,92.8,132.8,92.8,132.8C92.8,132.8,92.8,132.8,92.8,132.8z M112.1,132.6L112.1,132.6
		c-0.2,0-0.4-0.2-0.4-0.4c0-1,0.1-2,0.1-3c0-0.2,0.2-0.2,0.4-0.3c0.1,0,0.3,0.2,0.3,0.4c-0.1,1-0.1,2-0.2,3
		C112.5,132.4,112.3,132.6,112.1,132.6L112.1,132.6z M95,132.6c-0.2,0-0.4-0.1-0.4-0.3c-0.1-1-0.1-2-0.2-3c0-0.2,0.1-0.4,0.3-0.4
		c0.3,0.1,0.3,0.2,0.4,0.3c0,1,0.1,2,0.1,3C95.4,132.5,95.2,132.6,95,132.6L95,132.6L95,132.6z M103.6,132.5c-0.3,0-0.4-0.2-0.4-0.4
		c0-1.1,0-2.2,0-3.3c0-0.4,0.7-0.4,0.7,0c0,1.1,0,2.2,0,3.3C103.9,132.4,103.8,132.5,103.6,132.5L103.6,132.5z M109.8,132.5
		C109.8,132.5,109.8,132.5,109.8,132.5c-0.2,0-0.4-0.2-0.4-0.4c0.1-1,0.1-2,0.2-3c0-0.2,0.1-0.3,0.4-0.3c0.1,0,0.3,0.2,0.3,0.4
		c0,1-0.1,2-0.1,3C110.1,132.3,109.9,132.5,109.8,132.5C109.8,132.5,109.8,132.5,109.8,132.5z M97.4,132.5c-0.1,0-0.3-0.2-0.4-0.4
		c0-1-0.1-2-0.1-3c0-0.2,0.2-0.4,0.4-0.4c0.2,0.1,0.3,0.2,0.3,0.3c0.1,1,0.1,2,0.2,3C97.8,132.3,97.6,132.5,97.4,132.5L97.4,132.5
		L97.4,132.5z M106.9,132.4C106.9,132.4,106.9,132.4,106.9,132.4c-0.2,0-0.4-0.1-0.4-0.3c0-1,0.1-2,0.1-3c0-0.2,0.2-0.3,0.4-0.4
		c0.2,0,0.3,0.2,0.3,0.4c0,1,0,2-0.1,3C107.3,132.3,107.1,132.4,106.9,132.4L106.9,132.4z M100.2,132.4c-0.2,0-0.3-0.1-0.3-0.3
		c0-1-0.1-2-0.1-3c0-0.2,0.2-0.4,0.3-0.4c0.2,0,0.4,0.2,0.4,0.4c0,1,0.1,2,0.1,3C100.6,132.3,100.4,132.4,100.2,132.4
		C100.2,132.4,100.2,132.4,100.2,132.4L100.2,132.4z"/>
</g>
</svg>
