<svg version="1.1" id="lka" name="ski lanka" xmlns="http://www.w3.org/2000/svg" xmlns:xlink="http://www.w3.org/1999/xlink" x="0px" y="0px"
	 viewBox="0 0 480 320" enable-background="new 0 0 480 320" xml:space="preserve">
<g id="flag-lka">
	<path fill="#F5CC2B" d="M0,300c160,44.8,320-44.8,480,0c0-93.3,0-186.7,0-280C320-24.8,160,64.8,0,20C0,113.3,0,206.7,0,300z"/>
	<path fill="#EC7225" d="M101.5,62.3c27.2,0,54.3-2.2,81.5-5.4c0,73.8,0,147.5,0,221.3c-27.2,3.2-54.3,5.4-81.5,5.4
		C101.5,209.8,101.5,136.1,101.5,62.3z"/>
	<path fill="#34763A" d="M21.2,54.5c26.8,5.6,53.5,7.8,80.3,7.8c0,73.8,0,147.6,0,221.3c-26.8,0-53.5-2.2-80.3-7.8
		C21.2,202.1,21.2,128.3,21.2,54.5z"/>
	<path fill="#8E1942" d="M204.2,54.3c84.8-11.1,169.7-27.8,254.5-10.1c0,73.8,0,147.6,0,221.3c-84.8-17.7-169.7-1-254.5,10.1
		C204.2,201.8,204.2,128,204.2,54.3z"/>
	<path fill="#F5CC2B" d="M301.3,144.1c1.4-0.1,2.8-0.2,4.2-0.3c0,0-4.7,4.5-3.6,9.8c4.9-7.9,6.8-6.7,6.8-6.7
		c-1.5,1.8-4.4,4.4-2.2,9.1c2-5.2,5.9-9.6,5.9-9.6c0,0-1.1,5.7,1.3,10.6c1.7-5.3,4.6-10,4.6-10c0,0-0.4,5.6,2,7.4
		c2-1.9,3.2-6.5,3.2-6.5c0,0,3.7,6.2,5.9,6.9c1.8-4.5,1.8-8,1.8-8c0,0,7.5,4.8,13.6,1.3c-5.4-1.6-7.2-6-7.2-6c0,0,9.8,3.6,14,1.6
		c-4.1-2.9-13.7-7-13.7-6.9c0,0,7.1,2.1,9.2,1.4c-1-1.3-4.1-2.9-4.1-2.9C329.1,137.8,315.2,140.8,301.3,144.1z"/>
	<path fill="#8E1942" d="M313.9,157c-2.5-4.3-2-9.2-1.8-10.4c-0.5,1.1-3.8,4.9-5.4,9.4c-2.6-4.4-0.3-7.1,1.3-8.8
		c0.1-0.1,0.2-0.3,0.4-0.4c-0.4,0.2-2.3,0.4-6.3,6.8c-1.6-5.4,3.2-10.1,3.3-10.2c-1.4,0.3-2.7,0.6-4.1,0.9c-0.1,0-0.2-0.2-0.2-0.3
		c0,0,0.1-0.3,0.2-0.2c1.4-0.1,2.8-0.2,4.2-0.4c0.1,0.5-4.4,4.9-3.4,9.9c2.7-5.1,4.7-6.5,5.8-6.8c0.6-0.2,0.9-0.1,0.9,0
		c-0.1,0.3-0.3,0.6-0.4,0.9c-1.5,1.8-3.6,4.2-1.6,8.3c1.5-5.2,5.4-9.6,5.5-9.6c0.4,0.2-0.6,5.9,1.7,10.6c1.2-5.2,4.2-9.9,4.2-10
		c0.4,0.1,0.1,5.6,2.4,7.4c1.5-1.8,2.8-6.2,2.8-6.2c0.5-0.1,4.1,5.9,6.3,6.7c1.4-4.2,1.5-7.7,1.5-7.7c0.2-0.2,4.9,2.5,9.6,2.2
		c1.4-0.1,2.8-0.4,4.1-1.2c-5.4-1.2-7.2-5.4-7.3-5.7c0.3-0.2,6.9,2,11.4,1.8c1-0.1,2-0.3,2.7-0.6c-4-2.5-13.6-6.5-13.6-6.5
		c0.2-0.4,5.8,1.1,8.4,1c0.3,0,0.6,0,0.8-0.1c-1.1-0.9-4.1-2.4-4.2-2.4c0.4-0.3,3.4,1.1,4.4,2.5c-1.5,0.8-5,0.2-7.3-0.4
		c3.1,1.1,8.9,3.8,11.8,5.9c-4,2.4-12.6-0.5-14.1-1c0.7,0.6,2.6,4,7.2,5.4c-5.8,3.9-12.7-0.1-13.7-0.7c0.3,0.5,0.1,3.7-1.5,7.8
		c-2.5-0.6-5.8-5.9-6.3-6.7c0.1,0.7-1.1,4.6-2.9,6.4c-2.5-1.6-2.5-6-2.5-7.2C317.6,148.6,315.3,152.6,313.9,157L313.9,157z"/>
	<path fill="#F5CC2B" d="M360,87c13-1.7,33,9.1,43.6,16.9c0-2.4,0-4.8,2.4-5.8c2.3-1,5.9,1.6,4.7,5.1c-3.6,7.9-17.7-2.2-22.4-4.6
		c0.8,1.6,1.6,3.2,2.4,4.8c-7.1-1.3-8.2-2.5-13-8.4c-1.2,4.7-1.2,5.9-7.1,5.9c2.2-3.6,3-4.7,0-8.2c-0.4,2.4-0.8,4.7-1.2,7.1
		c-2-2.7-3.9-5.4-5.9-8.1c0,2.7,0,5.5,0,8.2c-1.2-1.2-5.9-4.5-8.3-4.4c-3.5-1-5.9,6.2-7.1,9.7c3.6-3.7,4.7-6.1,10.6-4
		c-3.2,3.1-2.3,6.7,1.2,9.4c0,0,0.6-4.9,1-6.1c1.9,1.3,5.9,6.5,10.8,7c3.5,0,7.1-1.2,10.6-2.4c11.8-1.4,37.7,2.9,31.8,20.2
		c-1.2,3.5-2.4,5.7-4.7,7.9c16.5,7.3,2.4,27.3-1.2,37.6c-2.3,9.3-0.7,16.8,10.9,16.6c-2.3,4.5-6.2,4.9-10.9,4.6c0,0,0.6,2.9,3.7,4.5
		c-5.1,4.1,1.7,11.4-1.3,14.5c-5.1,2-11.8-1.9-11.8-1.9c-0.1,1.1-0.2,2.2-0.3,3.3c0,0-8.9-0.9-9.1-1.2c0,0,2.5-4.7,2.4-4.8
		c-2.4,3.5-4.7,5.5-9.4,4.7c0,0,0.4-2.2,3-5c-3.6,3.6-4,5.1-7.7,5c0-5.9,3.5-12.9,10.6-10.5c1.2,0,4.9,3.1,6.7,1.2
		c1.4-2,0.5-8.9,0.5-11.2c0.8-10.4-1.3-9.9-7.2-16c-4.7-3.6-8.2-9.1-14.1-10.2c-5.9-1.1-15.4,5.7-20.1,8.3
		c-11.8,7.6-22.4,13.1-35.4,16.6c0,0,0.3-0.6,0.3-1.8c0-0.7,12.7-11.8,15-29.4c-3.5,17.4-15.9,27.6-16.3,30.9
		c-0.5,3.2-3,8.9-3.3,9.3c1.6-1,6.4-3.9,12.7-5c-1.4,7.4-8.2,6.6-9.4,10.2c0,3.6,4.7,7.8,0,10.6c-6.3,0.6-12.6,1.3-18.9,2
		c0,0,2.9-4.4,3-5.4c-2.6,1.8-4.2,6-9.7,6.3c0.2-1.6,2.8-4.3,2.4-5.1c-3.2,3.3-4.7,6-8.7,5.9c1.2-3.7,1.2-8.4,5.9-8.9
		c3.5-1.6,7.1,0.3,9.4-3.5c4.7-6.4-0.9-18.7-2-25.6c0-5.9,0-7-1.5-13.9c0.4,7,0.8,14,1.2,21c-4.7-3-9.4-4.7-13-9.1
		c-8.3-9.5-5.9-21.6,4.7-30c4.7-4.1,7.3-6.2,13.2-9.2c-1.2-3.4,1.7-6.4-2.5-7c-1.3,2.3-2.5,4.9-4.9,5c0.4-2,0.9-4.1,1.3-6.1
		c0,0-4.3,0.8-3.4,8.3c-4.9-1.8-2.5-7.6-2.5-7.6c-0.8,0.1-1.6,0.2-2.4,0.3c0,0,0,7-3.9,8.9c1-3.4,1.5-8.6,1.5-8.6
		c0,0-6.3,8.3-10,6.4c2.2-2.7,3.8-3.3,3.5-6.2c-0.3-2.9-1.8-6.5-2.1-7.1c1.3,0.5,10.2,2,15.8-1.5c-0.4,1.9-0.2,4-0.2,4
		c5.9-1.9,7.1-2,13-0.4c-1.2-8-5.9-8.8-10.6-14c0,1.6,0,3.1,0,4.7c-4.7-0.6-5.9-1.7-8.3-6.1c-1.2,0.9-2.4,1.9-3.5,2.8
		c-6.2-2.9-10.8-11-2-11.7c5.3,0,0.8,4.7,0.8,4.7c0,0,13.5-6,18.9-7c0,0-1.6-3.1-6.6-3.2c4.1-3.6,8.3-5,11.3,1.2
		c2.9-0.1,5.7-4,3.9-8.4c4.4-0.5,6.5,2,8.5,4.7c1.6,0.1,3.3-1.7,2.9-7.5c4.1,3.2,6.1,4.1,6.4,7.1c3.5,0.5,5.9-0.5,11.2-3.2
		c-1.2,4.8-1.2,5.9-5.9,8.7c3.4,3.8,3.7,8.8,3,10.6c-1.2-0.2-1.5-0.4-2.3-0.5c0.3,1.8,0.6,6.8,0.5,9.8c-0.8,0.1-1.6,0.1-2.4,0.2
		c1.2,3.4,2.4,6.9,3.5,10.4c-0.8,1.2-1.6,2.4-2.4,3.6c8.3-4.1,16.6-3.5,24.8-6.1c9.4-1.6,18.9-5.3,29.5-5.1
		c7.1,0.2,7.1,3.7,16.5,4.2c0-2,0-3.9,0-5.9c0-4.7-3.5-9.7-9.4-11.1c-3.5-0.1-9.4,2.1-13,3.2c-4.7,1.2-11.8,1.3-16.5,1.4
		c-15.3-1.9-12.9-3.4-18.2-6c-3.2,1-5,3.9-6.6,8.8c-3-4.2-2.3-9.7,1.2-12.4C338.8,96.4,348.2,89.8,360,87L360,87z"/>
	<path fill="#F5CC2B" d="M363.6,192.9c-2.4-3.5-10.7-9-8.3-15c3.6-6.2,23.6-16,27.1-2.9c1.2,3.5-2.5,12.9-3.7,16.5
		c1.8-0.5,3.8-3.3,9.6-2.1c-1.1,4.6-8.2,8.1-8.2,8.1c0.7,3.1-4.8,17.6-4.8,17.6c-5.1,0-10.2,0.1-15.4,0.3c0.8-1.6,1.6-3.2,2.4-4.8
		c-1.2,1.6-2.3,3.2-3.5,4.8c-2,0.1-3.9,0.2-5.9,0.2c1.6-2,3.1-4.1,4.7-6.1c0,0-5.6,6.8-10.3,6.8c1.1-9.5,6.8-11.4,15-8.1
		C363.6,203.6,365.9,197.6,363.6,192.9L363.6,192.9z"/>
	<path fill="#8E1942" d="M347.6,216.7c-0.1,0-0.2,0-0.3-0.1c0.8-9.3,6.1-12.2,15.2-8.5c-0.2-0.6,0-1.4,0.3-2.2
		c1.1-4.2,2.5-9,0.6-12.8c-0.6-0.9-1.6-1.9-2.7-3c-3.3-3.4-7.4-7.6-5.6-12.2c2.4-4.1,11.6-9.5,18.4-9.5c4.8-0.1,8,2.3,9.2,6.7
		c1.1,3.1-1.5,10.5-3.1,14.9c-0.2,0.5-0.4,1.1-0.5,1.6c0.2-0.4,0.6-0.7,1.2-1c1.6-0.9,3.9-2.2,8.2-1.3c-0.9,4.9-7.8,8.4-8.1,8.5
		c0.9,2.9-4.5,16.8-4.7,17.5c-5.2,0.1-10.4,0.2-15.6,0.4c0.7-1.7,1.4-3.4,2.2-5.2c-1,1.7-2.1,3.4-3.1,5.2c-2,0.1-4.1,0.2-6.1,0.3
		c1-1.5,2-2.9,3-4.4C354.1,213.6,350.7,216.5,347.6,216.7L347.6,216.7z M356.2,211.4c-1,1.5-2,3-3,4.5c1.9-0.2,3.8-0.5,5.7-0.7
		c1.1-1.6,2.2-3.1,3.3-4.7c-0.6,1.7-1.3,3.4-1.9,5c5-0.3,10.1-0.5,15.1-0.7c-0.2,0,5.3-14.3,4.6-17.3c0.2-0.3,7.1-3.8,8.2-8.2
		c-0.7,0.1-1.5,0-2.2,0c-2.7,0-4.2,0.9-5.5,1.6c-0.6,0.4-1.1,0.6-1.6,0.8c0.1-0.7,0.2-1.4,0.2-2.1c1.4-4,4.1-11.6,3.1-14.6
		c-1.5-5.3-5.5-6.3-8.7-6.3c-7.2,0.1-15.9,5.7-17.9,9.1c-1.7,4.3,2.3,8.4,5.5,11.6c1.1,1.2,2.2,2.3,2.8,3.1c2,4,0.6,8.9-0.6,13.2
		c-0.2,0.8-0.4,1.6-0.6,2.3c-3-0.8-5.3-1.3-7.3-1.2c-4.4,0.2-6.9,3.1-7.7,9.1c4.5-0.3,9.8-6.6,9.9-6.7l0,0
		C357.5,209.6,357,210.4,356.2,211.4L356.2,211.4z"/>
	<path fill="#F5CC2B" d="M300.4,109c-1.6,1.1-0.3,7.5,2.2,6.1C305.6,113.4,301.6,108.2,300.4,109L300.4,109z"/>
	<path fill="#8E1942" d="M302,115.6c-0.9,0.1-1.8-0.8-2.2-2.4c-0.5-1.6-0.4-3.7,0.5-4.4c1.6-0.3,3.2,1.7,3.6,3.6
		c0.3,1.3-0.1,2.4-1.2,3C302.5,115.4,302.2,115.5,302,115.6L302,115.6z M300.7,109.2c-0.8,0.5-0.9,2.3-0.4,3.8
		c0.3,1.1,0.9,2.1,1.8,2c0,0.1,0,0.2,0,0.3c0.2-0.1,0.3-0.3,0.5-0.4c1-0.6,1.1-1.6,0.9-2.4C302.9,110.8,301.3,109.1,300.7,109.2
		L300.7,109.2z"/>
	<path fill="#F5CC2B" d="M301.9,106.8c2.9,1.7,7.5,6.6,13.3,5.8c-4.3-3.1-3.4-5.8-3.4-5.8c2.2,2.4,9.8,4.2,12.3,3
		c-2.9-1.9-3.5-2.1-4.1-4c3.5,0.1,7.8,0.4,11.2-1.3C321.3,105.1,311.6,105.9,301.9,106.8z"/>
	<path fill="#8E1942" d="M314,112.6c-4.1,0.4-7.5-2.1-10-4.1c-0.8-0.6-1.6-1.1-2.2-1.5c-0.1-0.1-0.1-0.2-0.1-0.3
		c0.1-0.1,0.2-0.2,0.4-0.1c0.6,0.4,1.4,0.9,2.2,1.5c2.8,2.1,6.5,4.9,10.8,4.2c-4.6-2.7-3.7-5.5-3.7-5.6c2.6,2.2,10,4,12.4,2.7
		c-0.3,0-0.6-0.1-0.9-0.1c-2.2-1.4-2.7-1.7-3.3-3.6c0.4-0.1,0.8-0.2,1.3-0.3c3.3,0.1,7,0.3,10.1-1.3c-3,2.1-6.8,1.9-10.1,1.8
		c-0.3,0-0.6,0-1,0c0.8,1.3,1.3,1.6,3.4,3c0.3,0.2,0.6,0.4,0.9,0.5c-2.6,1.8-10,0.1-12.5-2.3c0.2,0.5,0.2,2.7,3.6,5.2
		C314.9,112.5,314.5,112.6,314,112.6C314,112.6,314,112.6,314,112.6z"/>
	<path fill="#F5CC2B" d="M307.5,142.2c0.1-1.7,0.2-3.3,0.3-5c0,0,3.2,7.2,5.6,7.1c-1.5-5.4-0.9-9.8-0.9-9.8
		C310.9,137,309.2,139.6,307.5,142.2z"/>
	<path fill="#8E1942" d="M313.6,144.2c-2.7,0.3-5.6-6.2-6-6.9c0.1,1.6,0.1,3.2,0.2,4.8c0,0.2-0.2,0.2-0.3,0.3
		c-0.1-0.1-0.2-0.1-0.2-0.2c0.1-1.7,0.2-3.3,0.3-5c1.4,1.8,4.1,6.9,5.9,6.8c-1.8-5-1.2-9.5-1.2-9.5
		C312.8,134.5,312.2,138.9,313.6,144.2C313.7,144.2,313.6,144.2,313.6,144.2L313.6,144.2z"/>
	<path fill="#F5CC2B" d="M315,135.3c0,0,6.5,11.2,9.6,9.1c-4.7-3.8-4.2-9.3-4.2-9.3c0,0,2.1,7.1,8.5,8.8c0.4-4.2-2.5-10.6-2.5-10.6
		c0,0,5.3,8.8,8,8.8c1.7-2.3,1.1-4.5,1.1-4.5C328.7,136.8,321.9,136,315,135.3z"/>
	<path fill="#8E1942" d="M323.8,144.9c-0.1,0-0.3,0-0.5,0c-3.4-0.6-8.2-9-8.5-9.3c-0.1-0.2,0-0.3,0.1-0.4c0.1,0,0.3,0,0.3,0.1
		c0,0.1,4.9,8.6,8.1,9.2c0.4,0.1,0.8,0,1.1-0.2c-4.8-3.4-4.3-9-4.3-9c0.5,0,2.7,6.8,8.8,8.5c0.1-3.8-2.8-10.1-2.8-10.2
		c0,0,0,0,0,0.1c0.1,0,0.3,0.2,0.5,0.6c2.1,2.6,5.8,7.8,7.7,7.9c1.4-2.1,0.9-4.2,0.8-4.3c0,0,0,0,0,0c0.5,0,1.1,2.3-0.6,4.6
		c-2.2,0.1-5.6-4.5-7.3-7.1c1,2.2,2.2,5.9,1.9,8.7c-5.5-1.2-8-6.2-8.8-8.1c0.3,1.6,0.8,5.5,4.4,8.3
		C324.5,144.7,324.1,144.8,323.8,144.9L323.8,144.9z"/>
	<path fill="#F5CC2B" d="M310,127.6c1.6,1.9,3.2,3.7,4.7,5.6c0.2-2.7,0.5-5.4,0.7-8.1c0,0,4.6,3.2,5.5,3c0.8-0.1-1.3-8.5-1.3-8.5
		c0,0,6.3,8.9,6.6,8.7c0.4-0.3,0.6-9.5,0.6-9.5c0,0,4.8,12.6,6.4,12.5c1.6-0.3,1.2-1.9,1.2-1.9C326.4,128.7,318.2,128.1,310,127.6z"
		/>
	<path fill="#8E1942" d="M315,133.2c-1.7-1.8-3.5-3.6-5.2-5.4c-0.1-0.1,0-0.2,0.1-0.3c0.1-0.1,0.3-0.1,0.4,0
		c1.6,1.8,3.1,3.7,4.7,5.5c0.1-2.7,0.2-5.3,0.3-8c2.6,1.4,5.2,2.8,5.7,2.8c0.2-0.5-0.6-4.5-1.5-8.2c2.7,2.9,6.4,8.1,6.9,8.4
		c0-0.4,0.3-5,0.4-9.2c2.7,5.9,5.8,12.3,6.6,12.2c0.4-0.1,0.6-0.2,0.8-0.5c0.3-0.5,0.2-1.1,0.2-1.1c0.4-0.2,0.7,0.7,0.3,1.4
		c-0.3,0.4-0.6,0.6-1.2,0.7c0,0,0,0,0,0c-1.7,0.1-5.4-9.6-6.6-12.5c0.3,9.2-0.2,9.4-0.3,9.5c-0.2,0.1-0.6,0.4-7-8.7
		c0.9,1.5,2.4,7.4,1.8,8.4c-1.2,0.4-4.9-2.1-6-2.9C315.2,127.9,315.1,130.6,315,133.2L315,133.2z"/>
	<path fill="#F5CC2B" d="M306.4,117.5c0,0,7.3,5.8,8.1,5.4c0.8-0.5-3-7.4-3-7.4s4.2,3.5,5.8,3.7c1.6,0.2,0.6-5.2,0.6-5.2
		c0,0,5,3.8,5.8,3.4c0.9-0.2,0.4-4,0.4-4c0,0,3.2,2.9,3.5,2.9c0.2,0-0.7-9.2-0.7-9.2c0,0,7.2,7.1,7.8,6.9
		C325.2,115,315.8,116.2,306.4,117.5z"/>
	<path fill="#8E1942" d="M314.5,123.2c-1,0.1-5-2.9-8.2-5.4c-0.1-0.1-0.1-0.2,0-0.4c0.1-0.1,0.3-0.1,0.4,0c3.3,2.7,7.1,5.4,7.8,5.4
		l0,0c0.1-0.4-1.5-4-3.1-7c1.5,0.6,4.8,3.2,6.1,3.3c0.8-0.7,0.5-3.3,0.2-4.9c2.7,1.5,5.4,3.2,6,3.1c0.3-0.1,0.4-1.9,0.2-3.7
		c1.9,1.1,3.5,2.5,3.8,2.6c-0.2-0.3-0.7-5.6-1-8.9c3.1,2.3,7.4,6.5,8,6.6c-0.1,0.6-0.6,0.6-7.9-6.5c1.3,8.8,1.1,9,1,9.1
		c-0.3,0.1-0.5,0.2-3.8-2.9c0.6,1,0.8,3.7-0.2,4.1c-0.8,0.4-4.7-2.4-5.9-3.4c0.5,0.5,1.1,3.9,0.2,4.9c-0.1,0.1-0.7,0.3-0.8,0.3
		c-1.7-0.2-5.8-3.6-5.9-3.8c3,4.4,3.9,7,3.3,7.4C314.6,123.2,314.6,123.2,314.5,123.2L314.5,123.2z"/>
	<path fill="#F5CC2B" d="M277.2,123.4c0.4,0.5,1.5,9.8,16.3,4.2c1.4-0.9,0.8,2.6,0.7,3.5c0.7-0.2,7.7-3.5,12.5-0.5
		c-0.6-3.9-1.6-6.4-5.8-8.2c-2.1-0.2-3.6,1-3.6,1C297.3,123.4,279.5,125.7,277.2,123.4L277.2,123.4z"/>
	<path fill="#8E1942" d="M306.7,130.9c-0.1,0-0.1,0-0.2,0c-1.7-1.1-3.8-1.4-6.3-1.2c-2.5,0.3-4.6,1.1-5.5,1.5c-0.1,0-0.4,0.1-0.4,0
		c-0.1,0-0.3,0-0.3,0c0-0.2,0-0.4,0.1-0.7c0.1-0.9,0.3-2.6-0.1-2.8c-2.7,1-4.9,1.6-6.8,1.8c-5.3,0.7-8.7-1.2-10-5.7
		c0-0.1-0.1-0.1-0.1-0.1c2.5,5.7,7.8,6.9,16.4,3.6c0.3,0,0.6,0,0.9,0c0.4,0.5,0.4,1.7,0.2,3.2c0,0.2,0,0.4,0,0.6
		c1.1-0.7,3.2-1.6,5.8-1.9c2.4-0.3,4.5,0.1,6.1,0.9c-0.5-3.5-1.7-5.8-5.6-7.4c-0.3,0-0.6,0-0.9,0c-1.4,0.2-2.4,0.9-2.4,0.9
		c-4.7,0.6-18.3,2.1-20.5-0.1c0,0,0-0.2,0.1-0.2c0.1-0.1,0.2-0.3,0.3-0.2c1.6,1.6,11.5,1,19.5,0c0.2,0,1.4-0.9,3-1.1
		c0.3,0,0.7,0,1.1,0c4.3,1.8,5.4,4.4,6,8.4c0,0.1,0,0.2-0.1,0.3C306.8,130.9,306.7,130.9,306.7,130.9L306.7,130.9z"/>
	<path fill="#F5CC2B" d="M269.2,185c-0.3,1.2-1,1.6-3.2,5c1,1.3,5.5,2.8,6.7,1.5c1.1-0.7,1.2-3.7,1.2-3.7c2.4,3.2,6.5,8.3,11.3,8.9
		c3.5,0.7,7.1-2.1,7.1-5.6c0-3.6-5.3-8.6-7.7-10.6c-5.9-6.4-5.4-19.8-16.5-16.4c0,0.1-0.5,1.7-1.6,2.2c0.9,1.6,1.4,2.9-0.7,3.8
		c1.7,1.4,1.9,2.5-0.2,3.7c1.3,1.5,2.8,2-0.2,3.9C268.3,180.1,269,184.5,269.2,185L269.2,185z"/>
	<path fill="#8E1942" d="M286.9,196.9c-0.7,0.1-1.3,0.1-1.9-0.1c-3.5-0.4-7.2-3.3-11.2-8.7c0.2,0.7,0,2.9-1,3.5
		c-0.2,0.3-0.6,0.4-1.2,0.5l0,0c-1.8,0.2-5-0.9-5.8-2c1-1.8,1.7-2.7,2.2-3.4c0.6-0.9,0.9-1.2,1-1.8c-0.3-1.4-1.2-5-3.9-7.3
		c1-1,1.6-1.5,1.6-1.9c0.1-0.4-0.3-0.7-0.8-1.2c-0.2-0.2-0.4-0.4-0.7-0.8c0.9-0.8,1.4-1.2,1.5-1.6c0.1-0.5-0.3-1.2-1.2-1.9
		c0.7-0.7,1.2-1.1,1.3-1.4c0.3-0.6,0-1.4-0.6-2.5c0.7-0.6,1.2-1.2,1.5-2.2c1-0.5,1.6-0.6,2.3-0.7c6.1-0.8,8.1,4,10.3,9.2
		c1.2,2.8,2.5,5.6,4.4,7.8c2.3,2,7.8,7.1,7.8,10.8C292.4,194,290,196.6,286.9,196.9L286.9,196.9z M273.6,187.8
		c4.5,5.2,8.1,8.1,11.5,8.6c3.4,0.7,6.7-2.1,6.7-5.3c0-3.5-5.3-8.5-7.6-10.5c-2-2.1-3.3-5-4.5-7.9c-2.4-5.5-4.6-10.6-11.8-8.4
		c-0.3,1-0.9,1.8-1.6,2.1c0.7,0.5,1.2,1.6,0.9,2.5c-0.2,0.6-0.7,0.9-1.6,1.3c1.2,0.4,1.6,1.2,1.5,1.9c-0.1,0.6-0.7,1.1-1.7,1.7
		c0.3-0.1,0.6,0.2,0.8,0.4c0.6,0.6,1,1,0.9,1.7c-0.1,0.6-0.7,1.1-1.9,1.9c2.9,1.9,3.7,5.7,4,6.9c-0.1,1.1-0.4,1.6-1.1,2.4
		c-0.5,0.7-1.2,1.7-2.1,3.1c0.9,0.8,5.4,2.1,6.3,1.2C273.3,190.7,273.5,188.6,273.6,187.8L273.6,187.8z"/>
	<path fill="#F5CC2B" d="M266.2,85.6c-3.6,5.6-3.9,62.2-2.8,73.4c-3.6,2.8-10.2,2.8-12,2.3C252.3,157.1,255.4,91.1,266.2,85.6
		L266.2,85.6z"/>
	<path fill="#8E1942" d="M257.2,161.5c-2.4,0.3-4.8,0.2-5.9,0c0-1,0.3-4,0.6-7.9c1.6-19.1,5.2-63.7,14.2-68.3
		c-3.2,5.8-3.6,61.7-2.5,73.6C261.7,160.6,259.1,161.3,257.2,161.5L257.2,161.5z M266,85.5c-8.5,4.7-12.2,50.7-13.6,68.1
		c-0.3,4.2-0.6,6.9-0.7,7.8c0.8-0.1,3.2,0.1,5.5-0.3c1.8-0.2,4.3-0.8,6.1-2.2C262.2,148.9,262.3,91.3,266,85.5L266,85.5z"/>
	<path fill="#F5CC2B" d="M256.2,202.8c0,0-15.7,4.4-9.1-5.8c5.6-3.3,5.5,2.5,3.4,4.8c2.6-0.1,4.3-1.9,4.7-4.6
		c-3.2-3.9,1.4-7.3,1.1-7.3c-10.9,4-12.3-3.3-8.4-5c5.1-0.4,3.5,1.4,5.5,2.6c3.6-3.9,5.9-4.6,8.1-1.4c2.2-3.7,5.4-3.8,5.5-3.4
		c3.5,5.6-4.3,6.9-7.4,6.7c2.7,2.5,1.6,5.5,0.7,7.7c0.1,2.1,1.7,2.1,4.2,2.6c-5.4-14.1,19,1.4-5.5,2.8c0.1,0.7,0.1,1.3,0.1,1.9
		c2,0.1,3.4,0.4,4.1,2.4c-0.9,1.2-2.2,1.6-4.3,1.1c0,0,1.2,3.2-1,4.5c-1.8-0.9-2.1-3.5-2.1-3.5c-1,1.4-2.5,0.7-3.8-0.1
		C253.2,205.9,256.4,206.8,256.2,202.8L256.2,202.8z"/>
	<path fill="#F5CC2B" d="M242.8,159.4c0.9-4.4,10.8-5.2,6.1,0c3.2,4.6,12.8,2.5,16.4-0.8c-3-5.4,5.2-5.2,4.9-0.8
		C269.1,165.8,241.7,168.5,242.8,159.4L242.8,159.4z"/>
	<path fill="#F5CC2B" d="M423.6,224.2c2.9,5.8,8.2,19.4,11,22.9c2.7,2.8,9.5,3.5,11.5,1.1c0,0,4.3,5.2,6.1,6.9c1-0.2,1.7-1,1.7-1
		c-1.7-2.2-4.1-3.8-5.3-7.5c1.7-2.1,2.7-6.4,1.5-10.2C445,226.8,427.8,227.8,423.6,224.2L423.6,224.2z"/>
	<path fill="#8E1942" d="M452.2,255.5c0,0-0.1-0.1-0.1-0.1c-1.7-1.7-5.9-6.7-6.1-6.9c-1.3,2.3-8.8,1.6-11.5-1.2
		c-1.9-2.3-4.8-9-7.4-15c-1.4-3.1-2.7-6.1-3.7-8c1.9,1,5.2,1.7,9.1,2.5c6.5,1.4,14.6,3.5,17.9,9.6c1.3,4,0.2,8.4-1.5,10.5
		c0.9,2.4,2.3,3.9,3.7,5.4c0.6,0.5,1.1,1.2,1.6,1.8C454.1,254.5,453.4,255.3,452.2,255.5C452.3,255.5,452.2,255.5,452.2,255.5
		L452.2,255.5z M446,248.1c0.4,0.1,4.5,5.1,6.3,6.8c0.9-0.2,1.4-1,1.4-1c-0.5-0.2-1-0.9-1.5-1.4c-1.4-1.6-2.9-3.1-3.8-5.8
		c1.7-2.2,2.7-6.4,1.6-10.2c-3.1-5.8-11.1-7.8-17.5-9.2c-4-0.8-7.4-1.5-9-2.9c1.4,1.8,2.7,4.7,4.1,7.8c2.5,5.9,5.4,12.6,7.3,14.8
		C437.2,249.5,444.1,250.2,446,248.1L446,248.1z"/>
	<path fill="#F5CC2B" d="M239.4,84.9c-2.9-5.1-8.2-17.4-11-20.1c-2.7-2-9.5-0.8-11.5,2.2c0,0-4.3-3.8-6.1-5
		c-1.1,0.5-1.7,1.6-1.7,1.6c1.8,1.6,4.2,2.4,5.3,5.8c-1.8,2.6-2.7,7.2-1.6,10.7C218,88,235.2,82.2,239.4,84.9L239.4,84.9z"/>
	<path fill="#8E1942" d="M239.2,85.1c-1.5-0.9-4.8-0.8-8.7-0.5c-6.5,0.3-14.6,0.7-17.9-4.4c-1.2-3.6-0.2-8.4,1.6-10.9
		c-0.8-2.1-2.3-3.2-3.7-4.2c-0.5-0.4-1.1-0.8-1.6-1.3c0-0.4,0.7-1.5,1.8-2c2,1.1,6.1,4.9,6.3,5c1.3-2.8,8.9-4.2,11.5-2.2
		c1.9,1.8,4.8,7.8,7.4,13c1.4,2.8,2.7,5.4,3.7,7.2C239.5,84.8,239.3,84.9,239.2,85.1L239.2,85.1z M210.6,62.2
		c-0.7,0.5-1.3,1.5-1.3,1.5c0.5,0.2,1,0.6,1.6,0.9c1.5,1,2.9,2.1,3.8,4.6c-1.7,2.7-2.7,7.2-1.6,10.6c3.1,4.8,11.1,4.5,17.5,4.1
		c3.4-0.2,6.4-0.3,8.2,0.3c-1-1.8-2.1-4.1-3.3-6.5c-2.6-5.2-5.4-11.1-7.3-12.9c-2.4-1.8-9.3-0.4-11.1,2.2
		C216.6,67.1,212.3,63.3,210.6,62.2L210.6,62.2z"/>
	<path fill="#F5CC2B" d="M237.6,234.3c-5.5,3.7-18.5,10.8-21.6,14.1c-2.4,3.1-2.1,9.8,0.6,11.5c0,0-4.5,4.9-5.8,6.9
		c0.4,1,1.3,1.5,1.3,1.5c1.9-2,3-4.6,6.5-6.2c2.4,1.4,6.9,1.8,10.4,0.1C237.8,255.8,234.3,239,237.6,234.3L237.6,234.3z"/>
	<path fill="#8E1942" d="M212.2,268.5c-0.1,0-0.1-0.1-0.2-0.1c-0.1,0-1.1-0.5-1.5-1.6c1.4-2.2,5.7-6.9,5.9-7.1
		c-1.2-0.4-2.1-2.2-2.3-4.5c-0.2-2.6,0.4-5.4,1.7-7c2.1-2.2,8.4-6,14-9.3c3-1.8,5.8-3.5,7.7-4.8c-0.8,2-1.1,5.4-1.5,9.3
		c-0.6,6.6-1.2,14.7-6.8,18.8c-1.1,0.5-2.3,0.9-3.5,1.1l0,0c-2.7,0.4-5.5,0-7.2-1.1c-2.2,1.2-3.5,2.8-4.7,4.4
		c-0.5,0.6-1,1.3-1.5,1.8C212.3,268.4,212.2,268.5,212.2,268.5L212.2,268.5z M237.4,234.2c-1.6,1.6-4.4,3.3-7.4,5.1
		c-5.6,3.3-11.9,7.1-13.8,9.2c-1.2,1.5-1.8,4-1.5,6.5c0.2,2.2,1,3.9,2.1,4.6c0,0.4-4.4,5.3-5.8,7.2c0.3,0.5,0.8,0.9,1.1,1.1
		c0.5-0.6,0.9-1.1,1.3-1.6c1.3-1.6,2.5-3.3,5.2-4.5c2.7,1.5,7.3,1.6,10.4,0.1c5.3-3.9,5.9-11.9,6.5-18.4
		C235.9,239.5,236.2,236,237.4,234.2L237.4,234.2z"/>
	<path fill="#F5CC2B" d="M424,74.2c2.9-5.2,8.2-17.6,11-20.3c2.7-2,9.5-0.7,11.5,2.4c0,0,4.3-3.7,6.1-4.7c1,0.5,1.7,1.7,1.7,1.7
		c-1.8,1.5-4.2,2.2-5.4,5.5c1.7,2.6,2.7,7.4,1.5,10.7C445.4,77,428.2,71.2,424,74.2L424,74.2z"/>
	<path fill="#8E1942" d="M424.2,74.4c-0.1-0.1-0.3-0.2-0.4-0.3c1.1-1.8,2.4-4.5,3.7-7.3c2.6-5.3,5.5-11.3,7.4-13
		c2.7-2.1,9.9-0.6,11.9,2.4c-0.1-0.3,4-3.8,5.7-4.8c1.4,0.6,2,1.7,2,1.8c-0.5,0.8-1.1,1.1-1.6,1.5c-1.4,0.9-2.9,1.9-3.7,4.2
		c1.7,2.4,2.8,7.3,1.6,10.7c-3.3,4.9-11.4,4.3-17.9,4.1C429,73.4,425.7,73.3,424.2,74.4L424.2,74.4z M440.5,53.2
		c-2.2-0.3-4.2,0-5.3,0.8c-1.9,1.7-4.8,7.6-7.3,12.9c-1.2,2.4-2.3,4.8-3.3,6.5c1.8-0.6,4.8-0.6,8.2-0.4c6.4,0.2,14.3,0.9,17.5-3.8
		c1.2-3.3,0.1-7.9-1.5-10.4c0.8-2.8,2.3-3.8,3.8-4.7c0.5-0.3,1.1-0.7,1.5-1.1c-0.2,0-0.7-0.9-1.5-1.3c-1.5,1.1-5.8,4.7-5.8,4.7
		C445.4,54.9,443.1,53.6,440.5,53.2L440.5,53.2z"/>
	<path fill="#F5CC2B" d="M247.2,168.5c-0.2,1.8,4.1,2,8.5,1.4c4.4-0.5,8.8-1.9,9-3.2c0-2.2-3.8,0.2-8.3,0.8
		C252,168.1,248.3,166.8,247.2,168.5L247.2,168.5z"/>
	<path fill="#F5CC2B" d="M255.8,170.1c-0.1,0-0.1,0-0.2,0c-1.6,0.2-6.9,0.8-8.4-0.6c-0.3-0.3-0.4-0.7-0.3-1.1
		c0.8-1.2,2.4-1.2,4.8-1.1c1.4,0,3,0.1,4.7-0.1l0,0c1.7-0.2,3.2-0.7,4.5-1.1c1.9-0.6,3.2-0.9,3.8-0.5c0.2,0.3,0.3,0.6,0.3,1
		C264.6,168.4,258.8,169.7,255.8,170.1L255.8,170.1z M248.8,167.8c-0.7,0.1-1.2,0.3-1.5,0.8c0.1,0.1,0.1,0.3,0.3,0.5
		c0.8,0.9,3.9,1.1,8,0.6c0.1,0.1,0.1,0.1,0.2,0.2c0-0.1,0-0.1,0-0.2c5-0.7,8.5-2.1,8.6-2.9c0-0.3-0.1-0.4-0.2-0.5
		c-0.4-0.3-1.7-0.1-3.3,0.5c-1.3,0.4-2.8,0.8-4.4,1c-1.9,0.3-3.5,0.3-4.9,0.2C250.6,167.8,249.6,167.7,248.8,167.8L248.8,167.8z"/>
	<path fill="#F5CC2B" d="M247.5,173.4c0.1,1.7,4.3,1.5,8.1,1.1c3.8-0.4,7.5-1.7,8.2-3c-0.7-1.8-4.8,0.3-8.2,0.9
		C252.2,173,248.4,171.7,247.5,173.4L247.5,173.4z"/>
	<path fill="#F5CC2B" d="M256.3,174.6c-0.3,0-0.5,0.1-0.8,0.1c-3.8,0.4-8.2,0.6-8.3-1.3c0.4-0.9,1.3-1.1,1.8-1.2
		c0.7-0.1,1.6-0.1,2.6-0.1c1.2,0.1,2.4,0.1,3.6-0.1c1.3-0.2,2.5-0.5,3.6-0.8c1.1-0.3,2.1-0.6,2.9-0.8c0.8-0.1,1.9-0.2,2.2,0.8
		C263.2,173.1,259.5,174.2,256.3,174.6L256.3,174.6z M249.1,172.8c-0.7,0.1-1.1,0.3-1.3,0.7c0.1,1,2.7,1.3,7.8,0.7
		c0.2,0,0.5,0,0.7-0.1c3.5-0.5,6.7-1.7,7.3-2.7c-0.4-0.5-2.3-0.3-4.6,0.4c-1.1,0.4-2.3,0.7-3.4,0.9c-1.3,0.4-2.8,0.2-4,0.1
		C250.7,172.7,249.8,172.7,249.1,172.8L249.1,172.8z"/>
	<path fill="#F5CC2B" d="M248.7,177.7c-0.3,1.3,3.4,1.6,6.9,1.2c3.4-0.5,8.3-2.4,8.4-3.8c-0.2-1-5,1.1-8.3,1.6
		C252.5,177.3,248.7,176.5,248.7,177.7L248.7,177.7z"/>
	<path fill="#F5CC2B" d="M255.7,179.1C255.7,179.1,255.7,179.1,255.7,179.1c-2.8,0.4-6.2,0.2-7-0.7c-0.2-0.3-0.2-0.5-0.2-0.8
		c0-0.7,0.9-0.8,1.2-0.9c0.6-0.1,1.3,0,2.1-0.1c1.1,0,2.3,0,3.5-0.2c1.7-0.2,3.1-0.7,4.4-1.1c1.3-0.3,2.4-0.7,3.2-0.8
		c0.3,0,1.2-0.2,1.3,0.5C264.2,176.7,259,178.7,255.7,179.1L255.7,179.1z M249.7,177.3c-0.5,0.1-0.7,0.1-0.7,0.4
		c0.7,1.1,3.7,1.4,6.7,1c0,0.1,0,0.2,0.1,0.3c0-0.1,0-0.2,0-0.3c3.5-0.5,8-2.4,8-3.5c0-0.1-1.8,0.2-3.9,0.8c-1.4,0.4-2.8,0.8-4.1,1
		c-1.8,0.2-2.9,0.3-3.9,0.3C251,177.2,250.2,177.2,249.7,177.3L249.7,177.3z"/>
	<path fill="#F5CC2B" d="M248.3,182.3c0.3,1.2,4.5,1,8.3,0.2c3.8-0.8,7.6-2.4,7.8-3.9c-0.2-0.8-4.5,1.3-8,1.9
		C252.9,181.3,248.3,181.3,248.3,182.3L248.3,182.3z"/>
	<path fill="#F5CC2B" d="M254.4,183.2c-1.4,0.2-5.9,0.7-6.3-0.8c0.4-0.8,1.2-1.1,2.8-1.3c1.3-0.2,2.6-0.3,3.9-0.5
		c0.5-0.1,1.1-0.1,1.6-0.3c1.5-0.3,3.2-0.8,4.6-1.2c1.2-0.4,2.2-0.7,2.8-0.8c0.2,0,0.8-0.1,0.9,0.4c-0.4,1.7-4.4,3.4-8.1,4.1
		C255.9,182.9,255.1,183.1,254.4,183.2L254.4,183.2z M250.9,181.6c-1.4,0.2-2.2,0.4-2.3,0.7c0.2,0.6,2.2,0.9,5.8,0.4
		c0.7-0.1,1.5-0.3,2.2-0.4c3.8-0.8,7.3-2.4,7.6-3.6c-1,0.1-2,0.5-3.1,0.8c-1.4,0.5-3.1,1-4.7,1.3c-0.5,0.1-1.1,0.2-1.6,0.3
		C253.5,181.3,252.2,181.4,250.9,181.6L250.9,181.6z"/>
</g>
</svg>
