<svg version="1.1" id="mkd" name="macedonia" xmlns="http://www.w3.org/2000/svg" xmlns:xlink="http://www.w3.org/1999/xlink" x="0px" y="0px"
	 viewBox="0 0 480 320" enable-background="new 0 0 480 320" xml:space="preserve">
<g id="flag-mkd">
	<path fill="#BF2328" d="M0,300c160,44.8,320-44.8,480,0c0-93.3,0-186.7,0-280C320-24.8,160,64.8,0,20C0,113.3,0,206.7,0,300z"/>
	<path fill="#F8E61C" d="M408,288c24,1.6,48,5.3,72,12c-80-69.1-160-104.5-240-140C296,198.8,352,237.7,408,288z"/>
	<path fill="#F8E61C" d="M0,20c80,69.1,160,104.5,240,140C184,121.2,128,82.3,72,32C48,30.4,24,26.7,0,20z"/>
	<path fill="#F8E61C" d="M216,303.3c16-2.2,32-4.5,48.1-6.7c-8-45.6-16-91.1-24-136.7C232,207.8,224,255.6,216,303.3z"/>
	<path fill="#F8E61C" d="M216,23.3c8,45.6,16,91.1,24,136.7c8-47.8,16-95.6,24-143.3C248,18.8,232,21.1,216,23.3z"/>
	<path fill="#F8E61C" d="M0,300c24,6.7,48,10.4,72,12c56-43,112-97.5,168-152C160,217.9,80,275.8,0,300z"/>
	<path fill="#F8E61C" d="M408,8c-56,43-112,97.5-168,152c80-57.9,160-115.7,240-140C456,13.3,432,9.6,408,8z"/>
	<path fill="#F8E61C" d="M0,188c80,13.1,160-7.5,240-28c-80,1.9-160,3.8-240-28C0,150.7,0,169.3,0,188z"/>
	<path fill="#F8E61C" d="M240,160c80-1.9,160-3.7,240,28c0-18.7,0-37.3,0-56C400,118.9,320,139.5,240,160z"/>
	<path fill="#BF2328" d="M240,110c27.6-3.9,50,15.6,50,43.3c0,27.6-22.4,52.8-50,56.7c-27.6,3.9-50-15.6-50-43.3
		C190,139.1,212.4,113.9,240,110"/>
	<path fill="#F8E61C" d="M240,120c22.1-3.1,40,12.5,40,34.6c0,22.1-17.9,42.3-40,45.4c-22.1,3.1-40-12.4-40-34.6
		C200,143.4,217.9,123.1,240,120"/>
</g>
</svg>
