<svg version="1.1" id="mda" name="malta" xmlns="http://www.w3.org/2000/svg" xmlns:xlink="http://www.w3.org/1999/xlink" x="0px" y="0px"
	 viewBox="0 0 480 320" enable-background="new 0 0 480 320" xml:space="preserve">
<g id="flag-mda">
	<path fill="#BD2038" d="M240,300c80-11.2,160-22.4,240,0c0-93.3,0-186.7,0-280C400-2.4,320,8.8,240,20C240,113.3,240,206.7,240,300
		z"/>
	<path fill="#FFFFFF" d="M0,300c80,22.4,160,11.2,240,0c0-93.3,0-186.7,0-280C160,31.2,80,42.4,0,20C0,113.3,0,206.7,0,300z"/>
</g>
<g id="creat">
	<path fill="#EFECEB" d="M55.5,73.2c0,0.4-0.5,0.7-1.1,0.7c-0.6-0.1-1.1-0.5-1.1-0.9c0-0.4,0.5-0.8,1.1-0.7
		C55,72.3,55.5,72.8,55.5,73.2L55.5,73.2z"/>
	<path fill="#D31F3D" d="M20,63.6c0,6.9,0,13.7,0,20.6c6.9,1.5,13.7,2.7,20.6,3.7c0,3.4,3.5,7.4,6.9,7.8c0,6.9,0,13.7,0,20.6
		c6.9,0.9,13.7,1.6,20.6,2.1c0-6.9,0-13.7,0-20.6c3.4,0.3,6.9-3,6.9-6.4c6.9,0.4,13.8,0.6,20.6,0.7c0-6.9,0-13.7,0-20.6
		c-6.9-0.1-13.8-0.3-20.6-0.7c0-3.5-3.5-7-6.9-7.3c0-6.9,0-13.8,0-20.6c-6.9-0.5-13.7-1.2-20.6-2.1c0,6.9,0,13.8,0,20.6
		c-3.4-0.4-6.9,2.4-6.9,5.9C33.7,66.3,26.9,65.1,20,63.6z"/>
	<path fill="#BD2038" d="M20.7,64.5c0,6.4,0,12.8,0,19.2c6.9,1.4,13.7,2.7,20.6,3.7c0,3.4,3.4,7.4,6.8,7.8c0,6.9,0,13.7,0,20.6
		c6.4,0.8,12.8,1.5,19.2,2c0-6.9,0-13.7,0-20.6c3.5,0.3,6.9-3,6.9-6.4c6.9,0.4,13.7,0.7,20.6,0.7c0-6.4,0-12.8,0-19.2
		c-6.9-0.1-13.7-0.3-20.6-0.7c0-3.4-3.4-7.1-6.9-7.3c0-6.9,0-13.8,0-20.6c-6.4-0.5-12.8-1.1-19.2-2c0,6.9,0,13.8,0,20.6
		c-3.4-0.4-6.8,2.5-6.8,5.9C34.4,67.1,27.6,65.9,20.7,64.5z"/>
	<path fill="#91857D" d="M21.4,65.3c0,6,0,11.9,0,17.9c6.9,1.4,13.8,2.6,20.6,3.6c0,3.5,3.4,7.4,6.8,7.8c0,6.9,0,13.8,0,20.6
		c6,0.8,11.9,1.4,17.9,1.8c0-6.9,0-13.8,0-20.6c3.4,0.3,6.9-2.9,6.9-6.4c6.9,0.4,13.7,0.7,20.6,0.8c0-6,0-11.9,0-17.9
		c-6.9-0.1-13.7-0.4-20.6-0.8c0-3.5-3.5-7.1-6.9-7.4c0-6.9,0-13.8,0-20.6c-6-0.5-11.9-1.1-17.9-1.8c0,6.9,0,13.8,0,20.6
		c-3.4-0.4-6.8,2.5-6.8,5.9C35.1,67.9,28.3,66.7,21.4,65.3z"/>
	<path fill="#C9C9CA" d="M22,66.1c0,5.5,0,11,0,16.5c6.9,1.4,13.8,2.6,20.6,3.6c0,3.4,3.4,7.4,6.9,7.8c0,6.9,0,13.8,0,20.6
		c5.5,0.7,11,1.2,16.5,1.7c0-6.9,0-13.8,0-20.6c3.4,0.3,6.8-2.9,6.8-6.4c6.9,0.4,13.7,0.7,20.6,0.8c0-5.5,0-11,0-16.5
		c-6.9-0.1-13.7-0.4-20.6-0.8c0-3.4-3.4-7.1-6.8-7.4c0-6.9,0-13.7,0-20.6c-5.5-0.4-11-1-16.5-1.7c0,6.9,0,13.7,0,20.6
		c-3.5-0.4-6.9,2.5-6.9,6C35.8,68.7,28.9,67.5,22,66.1z"/>
	<path fill="#CECECE" d="M49.7,62.1c1.2,1.3,0.2,4.2-2.2,6.3c-2.4,2.1-5.4,2.7-6.6,1.3c-1.2-1.4-0.2-4.2,2.2-6.2
		C45.6,61.3,48.5,60.7,49.7,62.1L49.7,62.1z"/>
	<path fill="#91857D" d="M48.3,63.3c1.2,1.4,0.9,3.6-0.7,5c-1.6,1.4-3.9,1.4-5.1,0c-1.2-1.4-0.9-3.6,0.7-5
		C44.8,62,47.1,62,48.3,63.3L48.3,63.3z"/>
	<path fill="#CECECE" d="M42.2,66.2c0.2-0.1,0.4-0.3,0.5-0.4c0.6,0.4,1.3,0.8,1.9,1.3c-0.3-0.7-0.6-1.4-0.9-2.1
		c0.2-0.1,0.3-0.3,0.5-0.4c0.7,1.4,1.3,2.8,2,4.2C44.8,67.8,43.5,67,42.2,66.2z"/>
	<path fill="#CECECE" d="M45.1,63.7c0.2-0.1,0.3-0.3,0.5-0.4c1,1.1,1.9,2.2,2.9,3.3c-0.2,0.1-0.3,0.3-0.5,0.4
		C47.1,65.9,46.1,64.8,45.1,63.7z"/>
	<path fill="#CECECE" d="M74.6,73.1c-1.2,1.1-4.2,0-6.6-2.6c-2.4-2.6-3.4-5.6-2.2-6.7c1.2-1.1,4.2,0.1,6.6,2.7
		C74.8,68.9,75.9,72,74.6,73.1L74.6,73.1z"/>
	<path fill="#91857D" d="M73.2,71.5c-1.2,1.1-3.5,0.7-5.1-1.1c-1.5-1.7-1.9-4-0.7-5.1c1.2-1.1,3.5-0.6,5.1,1.1
		C74,68.1,74.4,70.4,73.2,71.5L73.2,71.5z"/>
	<path fill="#CECECE" d="M69.5,65.2c0.2,0.2,0.3,0.3,0.5,0.5c-0.3,0.6-0.7,1.2-1,1.9c0.7-0.3,1.3-0.5,2-0.8c0.2,0.2,0.3,0.3,0.5,0.5
		c-1.3,0.6-2.6,1.1-3.9,1.7C68.2,67.7,68.9,66.5,69.5,65.2z"/>
	<path fill="#CECECE" d="M72.4,68.4c0.2,0.2,0.3,0.3,0.5,0.5c-1,0.9-1.9,1.8-2.9,2.7c-0.2-0.2-0.3-0.4-0.5-0.5
		C70.5,70.2,71.5,69.3,72.4,68.4z"/>
	<path fill="#CECECE" d="M65.8,97.4c-1.2-1.3-0.2-4.2,2.2-6.4c2.4-2.2,5.4-3,6.6-1.7c1.3,1.3,0.2,4.2-2.2,6.4
		C70,97.9,67,98.7,65.8,97.4L65.8,97.4z"/>
	<path fill="#91857D" d="M67.4,96c-1.2-1.3-0.9-3.6,0.7-5.1c1.7-1.5,3.9-1.7,5.1-0.4c1.2,1.3,0.9,3.5-0.7,5.1
		C70.8,97.2,68.6,97.4,67.4,96L67.4,96z"/>
	<path fill="#CECECE" d="M73.4,92.8c-0.2,0.1-0.3,0.3-0.5,0.4c-0.6-0.4-1.3-0.7-1.9-1.1c0.3,0.7,0.7,1.4,1,2
		c-0.2,0.1-0.3,0.3-0.5,0.4c-0.6-1.3-1.3-2.7-1.9-4C70.8,91.4,72.1,92.1,73.4,92.8z"/>
	<path fill="#CECECE" d="M70.5,95.5c-0.1,0.2-0.3,0.3-0.4,0.5c-1-1-1.9-2.1-2.9-3.1c0.2-0.1,0.3-0.3,0.5-0.4
		C68.5,93.5,69.5,94.5,70.5,95.5z"/>
	<path fill="#CECECE" d="M40.9,85.8c1.2-1,4.2,0.4,6.6,3.1c2.4,2.7,3.4,5.8,2.2,6.9c-1.2,1-4.1-0.3-6.6-3.1
		C40.8,89.9,39.8,86.8,40.9,85.8L40.9,85.8z"/>
	<path fill="#91857D" d="M42.4,87.4c1.3-1,3.5-0.4,5.1,1.4c1.6,1.8,1.9,4.1,0.7,5.2c-1.2,1.1-3.5,0.4-5.1-1.4
		C41.5,90.8,41.2,88.5,42.4,87.4L42.4,87.4z"/>
	<path fill="#CECECE" d="M46.1,94.1c-0.2-0.2-0.3-0.4-0.5-0.6c0.3-0.6,0.7-1.2,1-1.8c-0.7,0.2-1.3,0.5-2,0.7
		c-0.1-0.2-0.3-0.4-0.4-0.6c1.3-0.5,2.6-0.9,3.9-1.4C47.4,91.6,46.7,92.8,46.1,94.1z"/>
	<path fill="#CECECE" d="M43.1,90.7c-0.1-0.2-0.3-0.4-0.4-0.6c1-0.8,1.9-1.7,2.9-2.5c0.2,0.2,0.3,0.4,0.5,0.5
		C45.1,89.1,44.1,89.9,43.1,90.7z"/>
	<path fill="#91857D" d="M57.8,94.4c-8-0.8-14.6-8.3-14.6-16.3c0-8,6.5-13.6,14.6-12.8c3.9,0.4,7.5,2.2,10.2,5.2
		c2.8,2.9,4.3,6.7,4.3,10.6c0,3.9-1.5,7.5-4.3,10C65.3,93.6,61.7,94.8,57.8,94.4L57.8,94.4z M57.8,65.5c-7.9-0.8-14.3,4.7-14.3,12.6
		c0,7.9,6.4,15.3,14.3,16.1c3.8,0.4,7.4-0.8,10.1-3.3c2.7-2.5,4.2-6,4.2-9.9c0-3.8-1.5-7.5-4.2-10.4C65.2,67.7,61.7,65.9,57.8,65.5
		L57.8,65.5z"/>
	<path fill="#91857D" d="M57.8,90.9c-6.1-0.6-11.2-6.3-11.2-12.4c0-6.1,5.1-10.4,11.2-9.8c6.1,0.6,11.1,5.9,11.1,12.1
		C68.9,86.9,63.9,91.5,57.8,90.9L57.8,90.9z M57.8,68.9c-6-0.6-10.9,3.6-10.9,9.6c0,6,4.9,11.6,10.9,12.2c6,0.6,10.8-3.9,10.8-9.9
		C68.7,74.8,63.8,69.5,57.8,68.9L57.8,68.9z"/>
	<path fill="#010101" d="M53,91c0,0.2-0.1,0.5-0.4,0.6c-0.2,0.1-0.5,0.1-0.7-0.1c-0.2-0.1-0.4-0.4-0.4-0.6c0-0.3,0.1-0.5,0.4-0.5
		c0.2-0.1,0.4-0.1,0.7,0.1C52.9,90.5,53,90.7,53,91L53,91z"/>
	<path fill="#010101" d="M64,92.1c0,0.2-0.1,0.5-0.3,0.6c-0.3,0.1-0.5,0.1-0.7-0.1c-0.2-0.1-0.4-0.4-0.4-0.6c0-0.3,0.2-0.5,0.4-0.5
		c0.2-0.1,0.5-0.1,0.7,0.1C63.8,91.6,64,91.8,64,92.1L64,92.1z"/>
	<path fill="#010101" d="M57.4,91.5c0,0.2,0,0.5,0,0.7c-0.3,0-0.6-0.1-0.9-0.1c-0.9-0.1-0.9,0.6,0,0.7c0.3,0,0.6,0.1,0.9,0.1
		c0,0.2,0,0.5,0,0.7c0,0.7,0.8,0.9,0.8,0.1c0-0.3,0.1-0.5,0.1-0.8c0.3,0,0.6,0.1,0.9,0.1c0.9,0.1,0.9-0.6,0-0.7
		c-0.3,0-0.6-0.1-0.9-0.1c0-0.2,0-0.5,0-0.7C58.3,90.8,57.4,90.7,57.4,91.5L57.4,91.5z"/>
	<path fill="#91857D" d="M65.6,82.6c0.2,0,0.6,0,0.6,0c0,0,0.1,0.2-0.1,0.2c0.1,0.1,0.5,0.1,0.5,0.1c0,0-0.2,0.1-0.2,0.2
		c0.1,0,0.3,0.2,0.3,0.2c0,0-0.3,0-0.4-0.1c0.1,0.2,0.1,0.4,0.1,0.4s-0.6-0.2-0.8-0.6C65.6,82.9,65.6,82.8,65.6,82.6z"/>
	<path fill="#91857D" d="M64.7,82.2c-0.1,0.3-1.1-0.4-1.1-0.4c0,0,0.4,0.7,1.1,0.9C64.7,82.6,64.7,82.4,64.7,82.2z"/>
	<path fill="#91857D" d="M52.2,87.4c3.9,0.5,7.8,0.9,11.7,1.2c0.3-0.2,0.6-0.4,0.9-0.6c-0.5-0.3-1-0.6-1.5-0.9
		c-0.8-0.3-1.5-0.7-2.3-1c-0.3-0.2-0.6-0.4-0.9-0.6c-0.6,0-1.1-0.1-1.7-0.1c-0.5,0.2-1,0.4-1.5,0.6c-0.7,0-1.3,0-2,0
		c-0.2,0.2-0.3,0.3-0.5,0.5c-0.5,0-1,0-1.4-0.1c-0.8-0.1-1.5-0.2-2.3-0.3c1.3,0.4,2.5,0.7,3.8,1c-1.1-0.2-2.1-0.3-3.2-0.5
		C51.6,86.9,51.9,87.1,52.2,87.4z"/>
	<path fill="#010101" d="M63.9,88.7c-3.9-0.3-7.8-0.7-11.7-1.2c-0.3-0.3-0.6-0.5-0.9-0.8c1.1,0.1,2.1,0.3,3.2,0.4
		c-1.3-0.3-2.6-0.6-3.9-0.9c1.2,0.1,2.5,0.2,3.7,0.3c0.1-0.1,0.3-0.3,0.4-0.4c0.7,0,1.3,0,2-0.1c0.5-0.2,1-0.4,1.5-0.6
		c0.6,0,1.1,0,1.7,0.1c0.3,0.2,0.7,0.4,1,0.6c1.3,0.7,2.6,1.3,3.8,2C64.6,88.2,64.2,88.4,63.9,88.7L63.9,88.7z M51.3,86.7
		c0.3,0.2,0.6,0.5,0.9,0.7c3.9,0.4,7.8,0.8,11.7,1.2c0.3-0.2,0.6-0.4,0.9-0.6c-1.6-0.8-3.2-1.6-4.8-2.5c-0.6,0-1.1,0-1.7-0.1
		c-0.5,0.2-0.9,0.4-1.4,0.6c-0.7,0-1.3,0-2,0c-0.1,0.2-0.3,0.3-0.4,0.5c-0.5,0-1,0-1.5-0.1c-0.8-0.1-1.5-0.2-2.3-0.3
		c1.3,0.3,2.6,0.6,3.9,0.9C53.5,87,52.4,86.8,51.3,86.7L51.3,86.7z"/>
	<path fill="#91857D" d="M58.6,84.7c-1.5-1-1.9,0.9-2.6,1.3c0.9,0.3,1.5-0.5,2.3-0.8c0.5,1.6,1.4,0.6,1.4,0.6c0,0,0.9,1.6,2.1,1
		c0.4,0.3,0.7,0.1,0.7,0.1c0,0,0.5,0.1,0.6-0.1c0.2,0.1,0.5-0.2,0.5-0.2c0,0,0.5,0.1,0.6-0.2c0.7,0.2,1.7-1.4,1.7-1.4
		c0.1-0.2,0.2-0.4,0.3-0.6c0.1,0,0.3,0,0.4-0.1c0,0,0-0.3-0.2-0.3c0-0.2-0.2-0.3-0.4-0.3c0-0.1-0.2-0.2-0.2-0.2
		c-0.4,0.1-0.4,1.1-0.4,1.1c0,0-0.7,0.5-1,0.6c0-0.6-1-1.5-0.8-1.9c0.2-0.4,0.9,0.7,1.4,0.5c0.6-0.1,0.9-0.9,0.9-1.4
		c-0.2-0.4-0.6-1.1-0.6-1.1c-0.1,0-0.2,0-0.4-0.1c-0.1-0.3-0.2-0.5-0.3-0.8c0,0-0.7,0.4-0.7,0.7c0,0.4,0.7,0.8,0.7,0.8
		c0,0-0.4,0.3-0.8,0.1c-0.1,0.4,0.4,0.4,0.7,0.4c0.1,0.3,0.4,0.4,0.4,0.4c0,0,0.1,0.5-0.3,0.4c-0.5,0-1-1.2-1.7-0.7
		c-0.7,0.4,0.3,1.5,0.3,1.5c0,0-0.6,0.3-1,1C61,84.1,60.2,84.6,58.6,84.7C58.6,84.7,58.6,84.7,58.6,84.7z"/>
	<path fill="#010101" d="M61.1,87.1c-0.9-0.1-1.5-0.9-1.5-1.1c0,0.2-1,0.5-1.4-0.7c-0.2,0.1-0.4,0.2-0.6,0.4
		c-0.4,0.3-0.9,0.6-1.4,0.5c-0.1-0.1-0.1-0.1-0.1-0.1c0.6,0,1-0.3,1.3-0.5c0.3-0.1,0.5-0.3,0.7-0.4c0.6,1.2,1.4,0.7,1.4,0.7
		c0.1,0,1.1,1.4,2.2,1l0,0c0.2,0,0.5,0.1,0.7,0.1c0.2,0,0.4,0,0.6-0.1c0.4-0.2,0.9-0.2,1-0.4c0.8,0.1,1.7-1.4,1.7-1.4
		c0.1-0.2,0.2-0.4,0.4-0.6c0,0-0.1,0-0.1,0c0-0.2,0-0.4-0.1-0.6c-0.4-0.1-0.5,0.7-0.5,1c-0.1,0-0.7,0.5-1,0.7
		c-0.1-0.3-0.3-0.7-0.5-1c-0.3-0.4-0.5-0.7-0.4-1c0.2,0.1,0.4,0.1,0.7,0.2c0.2,0.2,0.4,0.4,0.7,0.4c0.6-0.2,0.9-0.8,1-1.4
		c-0.1-0.3-0.4-0.8-0.5-1c0.3,0.3,0.5,0.7,0.6,1c0,0.7-0.4,1.4-0.9,1.5c-0.4,0-0.7-0.2-0.9-0.4c-0.6-0.1-0.4,0.3-0.1,0.6
		c0.2,0.4,0.5,0.7,0.5,1.1c0.2-0.2,0.9-0.7,0.9-0.7c0-0.1,0-1.1,0.4-1.1c0.2,0.2,0.4,0.3,0.5,0.5c-0.2,0.3-0.4,0.6-0.5,1
		c0,0.1-0.9,1.5-1.7,1.4c-0.1,0.2-0.6,0.2-0.7,0.2c-0.3,0.1-0.6,0.2-0.8,0.3c-0.3-0.1-0.6-0.1-0.9-0.2c0,0,0,0,0,0.1
		C61.6,87.1,61.3,87.1,61.1,87.1L61.1,87.1z M56.2,86c0.1-0.2,0.2-0.4,0.3-0.6c0.5-0.7,1.1-1.4,2.1-0.7c0.3,0,0.5-0.1,0.8-0.1
		c1.2-0.2,2.1-0.2,3.1,0.8c0.3-0.8,0.8-1,0.9-1l0,0c-0.1,0-0.6-0.6-0.5-1c0.2-0.2,0.4-0.4,0.6-0.5c0.3,0,0.6,0.3,0.8,0.5
		c0.2,0.2,0.4,0.3,0.5,0.4c0.2-0.3,0-0.5-0.1-0.7c0.2,0.1,0.3,0.2,0.5,0.4c-0.1,0.1-0.2,0.3-0.4,0.4c-0.2,0-0.3-0.2-0.5-0.4
		c-0.3-0.2-0.5-0.4-0.7-0.5c-0.2,0.1-0.3,0.3-0.5,0.4c-0.1,0.5,0.5,1,0.5,1c0,0.1-0.6,0.4-0.9,1.1c-1.2-1-2-1-3.2-0.8
		c-0.3,0-0.5,0.1-0.8,0.1c-1.1-0.6-1.6,0.1-2,0.7C56.4,85.7,56.3,85.9,56.2,86L56.2,86z M64.4,82.6c0.1-0.1,0.2-0.1,0.3-0.2
		c-0.2-0.1-0.7-0.5-0.7-0.8c0-0.4,0.7-0.8,0.7-0.8c0,0.1,0.1,0.1,0.1,0.2c0-0.1-0.1-0.1-0.1-0.2c-0.1,0.1-0.6,0.5-0.6,0.8
		c0,0.3,0.5,0.6,0.7,0.7c0,0,0,0,0,0.1c0,0,0,0-0.1,0.1c0,0,0,0,0,0C64.7,82.5,64.5,82.5,64.4,82.6L64.4,82.6z"/>
	<path fill="#91857D" d="M56.4,82.4c0.6,0.6,0.2,1.5,0.4,1.7c0.2,0.2,0.6,0,0.6,0c0.7,0.3,1.8,0,1.8,0c0.5,0.3,0.3-0.1,0.6-0.1
		c0.3,0.7,1.1,0.7,1.1,0.7c0,0-0.8-0.9-1.3-1.2c-0.4,0.2-1.5,0.1-1.7,0.1c-0.2-0.1-0.1-0.3-0.2-0.5c0.4-0.4,0.1-1.4-0.2-1.8
		C56.7,80.6,55.5,81.5,56.4,82.4L56.4,82.4z"/>
	<path fill="#010101" d="M60.8,84.8c-0.3,0-0.8-0.2-1.1-0.7c-0.6,0.1-1.3,0.2-1.9,0.2c-0.3,0-0.5,0-0.8,0.1
		c-0.1-0.2-0.2-0.4-0.4-0.7c0.1-0.4,0.1-0.8-0.3-1.2C56,82.2,56,81.8,56,81.5c0.3-0.5,1-0.7,1.6-0.2c0.3,0.5,0.6,1.5,0.2,1.9
		c0.8,0.5,1.6,0.5,1.8,0.3c0.6,0.3,1.4,1.2,1.4,1.2C60.9,84.7,60.9,84.8,60.8,84.8L60.8,84.8z M59.8,84c0.3,0.5,0.7,0.6,1,0.7
		c0,0,0,0,0,0.1c0,0,0.1,0,0.1,0c-0.1,0-0.9-0.8-1.3-1.1c-0.2,0.2-1,0.2-1.4,0.1c-0.2-0.2-0.3-0.4-0.5-0.6c0.4-0.3,0.1-1.4-0.2-1.7
		c-0.4-0.3-1.1-0.2-1.3,0.2c-0.2,0.2-0.1,0.6,0.3,0.9c0.4,0.4,0.3,0.9,0.3,1.3c0.1,0.2,0.2,0.4,0.3,0.6c0.1-0.1,0.2-0.1,0.3-0.2
		c1.1,0.1,1.8,0,1.8,0C59.4,84.1,59.6,84,59.8,84C59.8,84,59.8,84,59.8,84z"/>
	<path fill="#91857D" d="M52.4,80.3c-0.8,0.1-2.1-1.2-2.7-0.8c-0.6,0.4-0.4,1.5,0.1,2.2c0.4,0.6-0.5,0.7-0.8,1
		c-0.2,0.3,0.1,0.7,0.1,0.7c0.1,0.1,0.2,0.1,0.2,0.2c0,0.1,0,0.3,0,0.4c0,0.2,0.1,0.3,0.1,0.5c0,0,0.1,0.1,0.2,0
		c0.1,0.2,0,0.5,0.3,0.6c-0.1-0.2,0.1-0.8,0.1-0.8c0,0,0.5,0.1,0.7-0.2c0.1-0.2-0.2-0.8-0.2-0.8c0.1,0,0.1,0,0.2,0
		c-0.2-0.1-0.3-0.5-0.3-0.5c0,0,0.7-0.2,0.7-0.7c0-0.6-1.2-1.4-0.8-1.6c0.5-0.3,1.3,1,2.1,0.5c0.7-0.4,0.3,0,0.3,0
		C52.8,80.9,53.1,80.2,52.4,80.3L52.4,80.3z"/>
	<path fill="#010101" d="M50,85c-0.1,0-0.1,0-0.2-0.1c-0.2-0.4-0.4-0.7-0.6-1.1c0,0,0-0.1,0-0.1c0,0,0,0.1,0,0.1c0,0,0,0,0,0
		c0.2,0.3,0.4,0.6,0.5,0.9c0-0.3,0.1-0.7,0.1-0.7c0.4,0,0.7-0.1,0.7-0.2c0.1-0.1-0.1-0.6-0.2-0.7c0-0.2,0-0.4-0.1-0.6
		c0,0,0.7-0.1,0.7-0.7c0-0.3-0.3-0.6-0.4-0.8c-0.3-0.3-0.4-0.5-0.4-0.7c0.1-0.1,0.3-0.1,0.4-0.1c-0.3,0.2,0,0.5,0.1,0.7
		c0.3,0.3,0.5,0.6,0.5,0.9c0,0.6-0.8,0.8-0.8,0.8c0.2,0.5,0.4,1.1,0.3,1.3c-0.1,0.2-0.4,0.2-0.7,0.1c-0.1,0.1-0.2,0.6-0.1,0.8
		C50,84.9,50,85,50,85L50,85z M49.1,83.3c-0.1,0-0.1,0-0.2-0.1c-0.1-0.2-0.3-0.5-0.1-0.8c0.7-0.3,0.9-0.4,0.9-0.6
		c-0.3-0.6-0.5-1.1-0.5-1.5c0-0.5,0.1-0.8,0.4-1c0.7,0,1.1,0.2,1.5,0.4c0.4,0.2,0.8,0.4,1.1,0.4c0.2,0,0.4,0.1,0.6,0.1
		c-0.1,0.1-0.1,0.2-0.2,0.3c-0.2-0.1-0.3-0.2-0.5-0.3c-0.4,0-0.8-0.3-1.1-0.5c-0.4-0.2-0.8-0.4-1-0.4c-0.7,0.3-0.7,0.7-0.7,1
		c0.1,0.4,0.2,0.8,0.4,1.1c0.1,0.6-0.2,0.7-0.5,0.8c-0.6,0.5-0.3,0.8-0.3,0.8C49.1,83.2,49.1,83.3,49.1,83.3
		C49.1,83.3,49.1,83.3,49.1,83.3z"/>
	<path fill="#91857D" d="M56.3,72.6c-1-0.6-3.1-0.8-4.3-1.5c-0.5,0-0.7,0.4-0.8,0.5c-0.5-0.1-0.9,0.7-0.8,0.9
		c-1-0.5-1.4,0.9-1.1,1.3c-0.8-0.1-0.7,1-0.8,1.3c-0.2,0.6,0.1,0.9,0.6,0.7c0.1,0.3-0.1,0.4-0.3,0.4c1.4,1.8,2.2-0.7,3.5-0.6
		c1.5-0.3,2.2-1,2.2-1c0.2,0,0.4,0.1,0.6,0.1C55.6,74.1,55.9,73.3,56.3,72.6z"/>
	<path fill="#010101" d="M49.8,76.9c-0.3,0-0.6-0.3-0.9-0.6c-0.1-0.2-0.2-0.4-0.3-0.6c-0.1-0.2-0.1-0.4,0-0.7
		c0.1-0.6,0.1-1.4,0.8-1.3c-0.1-0.1-0.1-0.5-0.1-0.9c0.2-0.4,0.5-0.6,0.9-0.6c0.2,0,0.2-0.2,0.4-0.4c0.1-0.2,0.3-0.5,0.7-0.4
		c-0.1-0.1,0.2-0.5,0.8-0.5c0.6,0.4,1.5,0.6,2.4,0.9c0.7,0.2,1.4,0.4,1.9,0.6c-0.4,0.8-0.7,1.5-1.1,2.3c-0.2,0-0.4-0.1-0.7-0.1
		c0,0-0.6,0.7-2.2,1c-0.4,0-0.8,0.3-1.3,0.6C50.7,76.7,50.3,77,49.8,76.9L49.8,76.9z M48.6,75.6c0.2,0,0.4,0.1,0.6,0.1
		c-0.1,0.2-0.2,0.4-0.3,0.5c0.8,0.7,1.5,0.5,2.1-0.1c0.4-0.4,0.8-0.7,1.4-0.7c1.5-0.2,2.1-1,2.1-1c0.2,0.1,0.4,0.1,0.7,0.2
		c0.4-0.7,0.7-1.5,1.1-2.2c-0.5-0.2-1.1-0.3-1.8-0.5c-0.9-0.2-1.8-0.5-2.4-0.9c-0.4,0-0.7,0.3-0.7,0.5c-0.4,0-0.6,0.3-0.6,0.4
		c0,0,0,0.1,0.1,0.1c-0.1,0.1-0.2,0.2-0.3,0.4c-0.6-0.1-0.9,0.1-1,0.4c-0.1,0.3-0.1,0.7,0,0.8c-0.6,0-0.7,0.6-0.7,1.1
		C48.7,75.1,48.6,75.4,48.6,75.6C48.6,75.6,48.6,75.6,48.6,75.6L48.6,75.6z"/>
	<path fill="#91857D" d="M59.1,71.7c0,0.8-0.7,1.5-1.5,1.4c-0.8-0.1-1.5-0.8-1.5-1.7c0-0.8,0.7-1.4,1.5-1.3
		C58.4,70.1,59.1,70.9,59.1,71.7L59.1,71.7z"/>
	<path fill="#010101" d="M57.6,73.1C56.8,73,56,72.3,56,71.4c0-1.7,3.1-1.4,3.1,0.3C59.2,72.6,58.5,73.2,57.6,73.1L57.6,73.1z
		 M57.6,70.1c-0.8-0.1-1.5,0.5-1.5,1.3c0,1.6,2.9,1.9,2.9,0.3C59,70.9,58.4,70.2,57.6,70.1L57.6,70.1z"/>
	<path fill="#91857D" d="M55,83.1c-1-0.3-2.5-1.4-2.6-2.7c0.8-3.3,5.3-1.1,5.7-3.6c-0.1-1.7,0.2-3.3,1.1-4.6c0.4-0.5,1-0.6,1-0.6
		c0,0,0.1,0.4,0,0.6c0.7-0.1,1.8,0.5,2.4,0.6c0.2,0.4,0.2,0.6,0.2,0.9c-0.1,0.2-0.4,0.1-0.4,0.1c-0.2,0.2-0.4,0.3-0.8,0.2
		c-0.4,0.2-1.2,0.2-1.2,0.2c0,0,1.7,1.9,1.4,2.4c0.3,0.2,0.8,1,0.8,1c0,0,1.1-0.5,1.5-1c0.6,0.1,1.7,0.9,2.2,0.9
		c0.6,0.6,1.3,1.2,1.3,1.2c0,0-0.8,0.4-1.1-0.2c-0.4,0-1.2-1-2.5-0.9c0,1.1-1.2,1.7-1.2,1.7c0,0,1.1,0,1.7,0.4
		c0.6,0.6,1.6,1.4,1.6,1.4c0.3,0.5,0.5,1,0.8,1.4c0,0-0.7,0.1-1-0.9c-0.3,0.8-0.3-0.5-1.4-1.2c-0.4,0-0.5,0-0.8-0.2
		c-0.8,0.1-1.7,0.5-2.9,0.3c-0.8,0.2-1.4,0.8-2.2,1.1c-0.8,0.3-1.1,0.1-1.1,0.1c-0.2,0-0.4,0-0.6,0c-0.1,0.4-0.1,1-0.4,1.1
		c0.2,0.3-0.1,1.3-0.6,1.4c0.1,0.7,0.7,1,1.3,1.4c0,0,0.5-0.2,0.9,0.2c0.3,0.3,0.6,1.2,0.6,1.2c0,0-0.7,0-0.9-0.1
		c-0.2-0.2-0.3-0.4-0.5-0.3c-1.6-1.6-2.4-1.1-2.6-1.4C54.6,84.4,55.1,83.6,55,83.1L55,83.1z"/>
	<path fill="#010101" d="M58.3,86.7c-0.2,0-0.3-0.1-0.5-0.1c-1.6-1.3-2.3-1.5-2.7-1.6c-0.1-0.1-0.1-0.1-0.2-0.2
		c0.7,0.2,1.4,0.3,2.4,1.4C57.7,86.3,58,86.5,58.3,86.7c0.1-0.1,0.2-0.1,0.4-0.1c-0.1,0-0.3-0.6-0.5-0.9c0.4,0.5,0.6,0.9,0.6,0.9
		C58.6,86.6,58.5,86.7,58.3,86.7L58.3,86.7z M58,85.5c-0.3-0.1-0.5-0.1-0.8-0.2c-0.7-0.5-1.1-0.8-1.3-1.4c0.2-0.2,0.5-0.6,0.6-1
		c0,0,0,0,0,0c-0.1,0.6-0.3,0.9-0.6,1c0.2,0.5,0.6,0.8,1.1,1.1c0.2,0,0.4,0.1,0.6,0.1C57.8,85.3,57.9,85.4,58,85.5L58,85.5L58,85.5z
		 M54.8,84.6c-0.1-0.2-0.1-0.4,0-0.6c0.1-0.3,0.2-0.7,0.1-1c-1-0.3-2.5-1.4-2.7-2.7c0.5-1.8,2-2,3.4-2.2c1.1-0.1,2.2-0.3,2.4-1.4
		c-0.1-1.9,0.2-3.5,1.2-4.7c0.4-0.5,1-0.6,1-0.6c0.1,0,0.1,0.2,0.1,0.4c0-0.1-0.1-0.2-0.1-0.4c0,0,0,0,0,0.1c0,0-0.5,0.1-0.9,0.6
		c-0.9,1.2-1.3,2.8-1.1,4.6c-0.2,1.2-1.3,1.4-2.5,1.5c-1.3,0.2-2.8,0.3-3.3,2c0.1,1.2,1.6,2.3,2.6,2.6c0.1,0.4,0,0.7-0.1,1.1
		C54.9,84.3,54.8,84.5,54.8,84.6L54.8,84.6z M57.7,81.6c-0.2,0-0.3-0.1-0.5-0.1c0.1,0,0.2-0.1,0.3-0.1c0.4,0.1,0.6,0.1,1.1,0
		c0.3-0.2,0.7-0.4,1-0.5c0.4-0.2,0.7-0.5,1.2-0.6c1.1,0.1,1.7,0,2.3-0.2c0.2,0,0.4-0.1,0.6-0.1c0.3,0.1,0.5,0.2,0.8,0.2
		c0.5,0.3,0.7,0.6,0.9,1c-0.3-0.3-0.5-0.6-0.9-0.9c-0.3-0.1-0.5-0.2-0.8-0.3c0,0,0,0,0.1,0.1c-0.2,0-0.4,0.1-0.6,0.1
		c-0.6,0.1-1.2,0.3-1.9,0.2c-0.8,0-1.1,0.3-1.5,0.5c-0.3,0.2-0.6,0.4-1,0.5C58.2,81.6,58,81.7,57.7,81.6L57.7,81.6z M66.6,82.4
		c-0.3,0-0.5-0.1-0.7-0.4c0.4,0.3,0.7,0.4,0.8,0.4c-0.3-0.5-0.5-0.9-0.8-1.4l0,0c0,0-0.9-0.8-1.5-1.3c-0.4-0.2-0.8-0.3-1.1-0.3
		c-0.1,0-0.1,0-0.1,0c0.6,0,1,0.1,1.3,0.3c0.6,0.6,1.5,1.4,1.5,1.4c0.3,0.5,0.5,1,0.8,1.5C66.8,82.4,66.7,82.4,66.6,82.4L66.6,82.4z
		 M63.2,79c0.1-0.3,0.7-0.8,0.7-1.5c1.1,0,1.6,0.3,2,0.6c0.2,0.1,0.4,0.2,0.5,0.3c0,0,0,0,0-0.1c0.2,0.1,0.3,0.3,0.5,0.4
		c-0.2-0.4-0.5-0.8-0.7-1.2c-0.2,0-0.5-0.2-0.9-0.4c-0.4-0.2-1-0.5-1.3-0.5c-0.3,0.5-1.4,1-1.5,1c0,0-0.6-0.8-0.9-1
		c0.1-0.5-0.9-1.9-1.4-2.4c0.1-0.1,0.8-0.1,1.2-0.3c0.6,0.1,0.7,0,0.9-0.2c0.4-0.4,0.4-0.5,0.1-0.9c-0.2,0-0.6-0.1-0.9-0.2
		c-0.4-0.1-0.8-0.3-1.3-0.3c0,0,0,0,0,0c0.5,0,0.9,0.1,1.3,0.2c0.3,0.1,0.7,0.2,0.9,0.2c0.3,0.5,0.3,0.7,0.2,0.9
		c-0.5,0.3-0.7,0.5-1,0.4c-0.6,0.2-1.4,0.2-1.4,0.2c0.2,0.1,1.7,1.8,1.4,2.3c0.4,0.1,0.8,0.9,0.8,0.9c0.1,0,1.1-0.5,1.4-0.9
		c0.4,0.1,0.9,0.2,1.4,0.5c0.3,0.2,0.6,0.3,0.9,0.4c0.4,0.4,0.9,0.8,1.3,1.2c0,0.2-0.9,0.4-1.2-0.2c-0.1,0-0.2-0.1-0.5-0.2
		c-0.4-0.2-0.9-0.6-1.4-0.6C64.1,78.2,63.6,78.7,63.2,79L63.2,79z"/>
	<path fill="#91857D" d="M51.2,76.4c0.1-0.1,0.7,0.2,0.7,0.2c0.3,0.3,0.7,0.5,1,0.8c0.7,0.5,1.4,1.1,2.1,1.6
		c0.3,0.4,0.5,0.8,0.8,1.2c-0.5-0.2-0.9-0.4-1.4-0.6c-0.6-0.6-1.3-1.2-1.9-1.8c-0.3-0.3-0.7-0.5-1-0.8C51.5,77,51.1,76.5,51.2,76.4
		L51.2,76.4z"/>
	<path fill="#010101" d="M56,80.3c-0.5-0.2-1-0.5-1.5-0.7c-1-0.9-2-1.8-3-2.6c-0.1-0.2-0.5-0.6-0.4-0.7c0.4,0,0.7,0.2,0.7,0.2
		c1.1,0.8,2.1,1.6,3.2,2.4C55.4,79.4,55.7,79.9,56,80.3L56,80.3z M51.3,76.4C51.3,76.4,51.3,76.4,51.3,76.4c1,1.1,2.1,2.1,3.1,3.2
		c0.4,0.2,0.8,0.3,1.2,0.5c-0.2-0.3-0.4-0.7-0.6-1C53.8,78.2,52.5,77.3,51.3,76.4C51.3,76.4,51.3,76.4,51.3,76.4z"/>
	<path fill="#91857D" d="M63.8,81.2C63.1,81,61.3,83,61.3,83c0.4,0.5,0.9,1.1,1.3,1.6C62.6,84.6,62.7,82.1,63.8,81.2L63.8,81.2z"/>
	<path fill="#010101" d="M62.7,84.8c-0.5-0.6-1-1.1-1.5-1.7c0.1-0.2,1.7-2,2.5-1.9c0,0,0,0.1-0.1,0.1c-0.8,0.1-2.3,1.8-2.3,1.9
		c0.4,0.5,0.8,0.9,1.2,1.4c0-0.5,0.2-2,0.8-2.9c-0.7,1.1-0.7,3-0.7,3.1C62.7,84.7,62.7,84.7,62.7,84.8L62.7,84.8z"/>
	<path fill="#91857D" d="M54.9,74.1c-0.4,0.5-0.5,1.5,0.1,2c0.1,0.6,0.6,2,1,2.1c0.5,0.2,2.3,0.8,3,0.7c-0.1,1.2,0.8,2.2,1.6,2.9
		c0,0,0,0.2,0.1,0.4c0.1,0.2,0.5,0.2,0.6,0.1c0.2,0.3,1.2,0.5,1.2,0.4c0.1-0.1-1.4-1.3-1.7-1.6c-0.3-0.5-0.8-1.8-1-2.7
		c-0.7-0.9-2-1-2-1c0-0.6,0-1.1,0.1-1.7c0-0.6,0-1.3,0-1.9c-0.2-0.1-0.4-0.3-0.7-0.4c0,0,0.2,0,0.2-0.1c0.1,0.1,0.4-0.2,0.5-0.3
		c0.2,0.1,0.3,0.1,0.3,0.1c0.1-0.2,0.1-0.5,0.2-0.6c0.5-0.4-0.1-1.4-0.9-1.5c-0.8-0.1-0.9,0.8-0.9,0.8c0.1,0.4,0.1,0.5,0,0.6
		c-0.1,0.1-0.3,0.2-0.3,0.2c0,0-0.5-0.2-1-0.1c-0.5,0.1-1.1,0.4-1.2,0.7c-0.2,0-0.6,0.3-0.7,0.5c-0.2,0-0.5,0.1-0.9,0.8
		c-0.8,0.3-0.8,2-0.8,2c0,0-0.2,0.3-0.2,0.4c0,0.2,0.1,0.4,0.2,0.3c0,0,0.1,0.2,0.2,0.2c0.1,0.1,0.2,0.2,0.3,0.2c0,0,0.3,0.1,0.3,0
		c0-0.1,0-0.5,0-0.5c0.1,0,0.3,0.2,0.4,0.1c0.1,0,0-0.2,0-0.3c-0.1-0.1-0.3-0.1-0.3-0.4c0-0.3,0.2-0.7,0.2-0.7c0,0,0.9-0.6,0.9-1.2
		C54.3,74.9,54.6,74.4,54.9,74.1L54.9,74.1z"/>
	<path fill="#010101" d="M62.2,82.9c-0.2,0-0.9-0.2-1-0.4l0,0c0.3,0.1,0.8,0.3,1,0.3C62.2,82.8,62.2,82.8,62.2,82.9
		c0.1-0.1,0.1-0.1,0.2-0.1c0,0-0.6-0.6-1-0.9c-0.3-0.3-0.6-0.5-0.7-0.6c-0.1-0.2-0.8-1.6-1-2.7c-0.7-0.8-1.8-1-1.9-1
		c0-0.6,0-1.2,0-1.8c0-0.6,0-1.3,0.1-1.9c-0.2-0.1-0.5-0.2-0.7-0.3c0,0,0,0,0.1-0.1c0.4-0.3,0.8-0.7,1.1-1c0.2-0.1,0.2-0.4,0.1-0.6
		c-0.1-0.3-0.5-0.7-1-0.8l0,0c-0.2,0-0.5,0-0.6,0.2c-0.3,0.2-0.3,0.6-0.3,0.6c0,0,0,0,0,0c-0.1,0.3-0.3,0.5-0.4,0.8
		c-0.3,0-0.6-0.1-0.9-0.1c0,0,0,0,0,0.1c-0.4,0.1-1.1,0.3-1.1,0.7c-0.3,0-0.6,0.3-0.7,0.5c-0.3,0-0.6,0.2-0.9,0.8
		c-0.8,0.3-0.8,1.9-0.8,1.9c0,0.1,0,0.2-0.1,0.3c0-0.1,0-0.2,0-0.3c0,0,0,0,0,0c0-0.1,0-1.8,0.8-2c0.4-0.6,0.7-0.8,1-0.8
		c0.1-0.2,0.4-0.5,0.7-0.5c0-0.3,0.6-0.5,1.1-0.7c0.3,0,0.7,0.1,1,0.1c0,0,0,0-0.1,0c0.1-0.2,0.2-0.4,0.3-0.7
		c-0.1-0.1,0.1-0.5,0.3-0.7c0.2-0.2,0.4-0.3,0.7-0.3c0.5,0.1,1,0.5,1.1,0.9c0.1,0.3,0,0.6-0.2,0.8c-0.1,0.2-0.2,0.4-0.2,0.6
		c-0.2,0-0.5,0.3-0.7,0.3c0.2,0.1,0.3,0.3,0.5,0.4c0,1.2-0.1,2.4-0.1,3.6c0.1-0.1,1.2,0.1,2,1c0.2,1.2,0.8,2.6,1,2.7
		c0.1,0.1,0.4,0.3,0.7,0.6c0.9,0.8,1.1,1,1,1.1C62.4,82.8,62.3,82.9,62.2,82.9L62.2,82.9z M58.6,79c-1.1-0.1-2.2-0.5-2.7-0.7
		c-0.4-0.2-1-1.5-1-2.2c-0.4-0.4-0.5-1.1-0.3-1.7c-0.2,0.3-0.4,0.4-0.9,0.4c-0.1,0.5-1,1.1-1,1.1c0,0-0.2,0.3-0.1,0.6
		c0.1,0.3,0.2,0.5,0.4,0.8c-0.2,0.1-0.4,0.2-0.6,0.4c-0.2-0.2-0.4-0.4-0.6-0.5c0.1,0.1,0.3,0.2,0.4,0.4c0.1-0.2,0.2-0.3,0.4-0.5
		c-0.1-0.8,0.1-1.2,0.1-1.1c0,0,0.8-0.6,1-1.2c0.6,0,0.9-0.3,1.1-0.5c0,0,0,0,0,0c0,0,0.1-0.1,0.1-0.2c-0.1,0.1-0.1,0.2-0.2,0.3
		c-0.1,0.5-0.1,1.3,0.3,1.7c0,0.7,0.6,2,1,2.1C56.4,78.4,57.8,78.9,58.6,79C58.6,79,58.6,79,58.6,79C58.6,79,58.6,79,58.6,79
		L58.6,79z"/>
	<path fill="#91857D" d="M53.3,71.5c0.2-0.5,0.9-0.4,0.9-0.4c0,0,0.3-0.6,1.2-0.1c0.4-0.2,1.3,0.2,1.3,0.2c0,0,0.4-0.4,0.8-0.3
		c0.9,0.2,1,1,1,1.2c-0.5,0.1-1.4-0.5-2-0.4c-0.4,0.2-0.9,0.3-1.1,0.6C54.9,72.3,54.3,71.6,53.3,71.5L53.3,71.5z"/>
	<path fill="#010101" d="M55.4,72.4c-0.2,0-0.5-0.2-0.8-0.3c-0.3-0.2-0.7-0.4-1.2-0.4c0,0,0,0,0,0c0.4,0,0.8,0.2,1.2,0.3
		c0.3,0.2,0.6,0.3,0.8,0.3C55.4,72.2,55.4,72.3,55.4,72.4c0-0.1,0.1-0.1,0.1-0.1c0.1-0.2,0.5-0.3,0.8-0.5c0.2,0,0.4-0.1,0.6-0.1
		c0.3,0,0.6,0.2,0.9,0.3c0.3,0.1,0.4,0.2,0.7,0.2c-0.2-0.7-0.4-0.9-0.8-1c-0.5,0-0.8,0.3-0.8,0.3c-0.1,0-0.6-0.3-1-0.3
		c-0.3,0-0.6-0.1-0.9-0.1c-0.5-0.1-0.6,0.3-0.6,0.3c-0.3,0-0.7,0-0.9,0.3c0.1-0.4,0.6-0.4,0.8-0.4l0,0c0,0,0.5-0.6,1.3-0.1
		c0.8,0,1.3,0.2,1.3,0.2c0,0,0.3-0.4,0.8-0.3c0.6,0.1,0.8,0.4,1,0.7c0,0.2,0.1,0.4,0.1,0.6c-0.4,0-0.7-0.1-0.9-0.2
		c-0.3-0.1-0.6-0.2-0.8-0.2c-0.2,0.1-0.4,0.1-0.6,0.2c-0.3,0.1-0.7,0.2-0.8,0.4C55.4,72.3,55.4,72.3,55.4,72.4L55.4,72.4z"/>
	<path fill="#91857D" d="M55.1,72.5c0.2-0.1,0.8-0.3,1.1,0.1c0.4,0.4,0.9,0.9,0.9,0.9c0.2,0.1,0.5,0.2,0.7,0.4
		c0.1,0.1,0.2,0.1,0.3,0.2c-0.1,1-0.2,2-0.2,3c-0.6-0.7-1.2-0.8-1.6-1.6c-0.3-0.3-0.1-1.1-0.5-1.6C55.5,73.2,55.1,72.9,55.1,72.5
		L55.1,72.5z"/>
	<path fill="#010101" d="M58,77.2c0,0-0.1-0.1-0.1-0.1c-0.2-0.3-0.4-0.5-0.7-0.7c-0.4-0.3-0.7-0.5-0.9-1c-0.1-0.1-0.2-0.4-0.2-0.6
		c-0.1-0.3-0.1-0.7-0.3-1c-0.6-0.8-0.8-1-0.7-1.3c0.1-0.1,0.4-0.2,0.7-0.2c0.1,0.1,0.2,0.2,0.4,0.3c-0.6-0.2-0.8-0.1-1,0
		c-0.1,0.1,0.2,0.4,0.5,0.8c0.6,0.7,0.6,1,0.6,1.4c0.1,0.2,0.1,0.4,0.2,0.6c0.3,0.5,0.6,0.7,0.9,1c0.2,0.2,0.4,0.4,0.6,0.6
		c0-0.3,0.1-0.6,0.1-0.9c0,0.4,0,0.7,0.1,1.1C58.1,77.1,58,77.1,58,77.2L58,77.2z"/>
	<path fill="#91857D" d="M56.7,73.6c0,0,0.4,0,0.4,0.1c0.1,0.1,0.2,0.1,0.3,0.2c0.1,0.1,0.2,0.1,0.2,0.2c0.2,0.1,0.2,0.3,0.2,0.3
		c0,0-0.1,0.1-0.1,0.1c0,0-0.1-0.2-0.2-0.3c0-0.1-0.2-0.1-0.3-0.2c-0.1,0-0.2-0.1-0.2-0.2C56.9,73.8,56.7,73.6,56.7,73.6
		C56.7,73.6,56.7,73.6,56.7,73.6z"/>
	<path fill="#91857D" d="M59.7,71.9c-0.2-0.2-0.6-0.1-0.6-0.1c-0.3,0.5-0.6,1-0.9,1.5c-0.1,0.1-0.2,0.2-0.4,0.3c0,0.4,0,0.8-0.1,1.2
		c0.1,0.4,0.2,0.8,0.3,1.2c0,0.3-0.1,0.6-0.1,0.9c0,0,0.5-0.4,0.5-0.6c0.1-0.2-0.2-1-0.2-1c0,0-0.3-0.5,0-1.4
		C58.7,73.1,59.5,72.4,59.7,71.9L59.7,71.9z"/>
	<path fill="#010101" d="M57.9,77.1c0-0.3,0.1-0.7,0.1-1.1c-0.1-0.4-0.2-0.8-0.3-1.2c0-0.4,0-0.8,0-1.3c0.2-0.1,0.3-0.2,0.5-0.3
		c0.3-0.5,0.6-1,0.9-1.5c0.2,0,0.4,0.1,0.6,0.1c-0.1,0.3-0.3,0.6-0.5,0.9c-0.3,0.4-0.6,0.8-0.8,1.2c-0.3,0.8-0.1,1.3-0.1,1.3
		c0,0.1,0.2,0.8,0.2,1.1C58.5,76.6,58,77,58,77C58,77,57.9,77.1,57.9,77.1L57.9,77.1z M59.6,71.9c-0.4,0.5-0.9,1-1.4,1.5
		c-0.1,0.5-0.3,1-0.4,1.5c0.1,0.4,0.2,0.8,0.3,1.2c0,0.3,0,0.5-0.1,0.8c0.1-0.1,0.4-0.4,0.4-0.5c0.1-0.2-0.1-0.8-0.2-0.9
		c0,0-0.3-0.5,0.1-1.4c0.2-0.5,0.5-0.9,0.8-1.2C59.3,72.4,59.5,72.1,59.6,71.9L59.6,71.9z"/>
	<path fill="#91857D" d="M61.9,73.5c0,0-1.4,2-3.8,2.5c-0.6,0.1-0.4-1.6-0.4-1.6c-0.1,0-0.1,0-0.2,0c0,0-0.4,1.6,0.5,1.8
		c2.4-0.2,4.1-2.6,4.1-2.6C62.1,73.6,62,73.6,61.9,73.5z"/>
	<path fill="#010101" d="M58.1,76.2c-0.2-0.1-0.3-0.2-0.5-0.3c-0.4-0.5-0.1-1.5-0.1-1.5c0,0,0,0.1,0.1,0.2c-0.1,0.3-0.1,1,0.1,1.3
		C57.8,76,58,76.1,58.1,76.2c0-0.1,0-0.1,0-0.1c1.6-0.1,2.9-1.3,3.6-2C61.1,74.9,59.7,76.1,58.1,76.2C58.1,76.2,58.1,76.2,58.1,76.2
		L58.1,76.2z M58.2,76c-0.1,0-0.2-0.1-0.2-0.2c2.5-0.4,3.9-2.3,3.9-2.3c0.1,0,0.1,0.2-0.1,0.3C61.3,74.4,60,75.7,58.2,76
		C58.2,76,58.2,76,58.2,76z"/>
	<path fill="#91857D" d="M62.9,85.6c0,0-0.2,0.1-0.5,0c-0.2-0.4-0.6-0.5-0.6-0.5c0,0-0.2-0.8-0.7-0.6c-0.1-0.4-0.5-0.2-0.5-0.2
		c0,0,0-0.5-0.5-0.5c0.2-0.7-0.7-0.7-0.7-0.7c0,0,0-0.7-1.3-0.7c2.8-1,5.1,2.5,5.1,2.5C63.1,85.1,63,85.3,62.9,85.6z"/>
	<path fill="#010101" d="M62.4,85.6c-0.2-0.3-0.5-0.4-0.5-0.4c-0.1-0.1-0.2-0.5-0.4-0.6c0,0-0.1,0-0.1,0.1c-0.2-0.1-0.5-0.2-0.7-0.3
		c0,0-0.1,0-0.1,0c-0.1-0.2-0.3-0.4-0.4-0.6c-0.2-0.6-0.7-0.6-0.7-0.6c-0.5-0.6-0.8-0.7-1.3-0.7c2.9-1.1,5.1,2.4,5.2,2.4
		c0.1,0.1-1.6-2.4-3.8-2.6c-0.4,0-0.8,0-1.3,0.2c0.5-0.1,0.9,0,1.1,0.2c0.1,0.4,0.7,0.4,0.9,0.7c0.3,0.3,0.6,0.6,0.9,0.9
		c0.7,0.3,0.8,0.8,0.8,0.8c0,0,0.4,0.1,0.6,0.4c0.2,0,0.3,0.1,0.5,0.1C62.8,85.6,62.6,85.6,62.4,85.6L62.4,85.6z"/>
	<path fill="#91857D" d="M64.3,86c0,0,0.6,0.8,1,0.8c0.4,0,0.4-0.7,0.4-0.7c0,0,0.1,0.3,0.3,0.2c0,0.2,0.2,0.3,0.2,0.3
		c0,0-0.6,1.3-2.3-0.1C64,86.3,64.2,86.2,64.3,86z"/>
	<path fill="#010101" d="M65.2,87.2c-0.4,0-0.8-0.2-1.3-0.7c0.7,0.4,1.2,0.7,1.6,0.6c0.5-0.1,0.7-0.5,0.7-0.5
		c-0.1-0.2-0.3-0.3-0.4-0.5c0,0.2-0.1,0.7-0.4,0.7l0,0c-0.4-0.1-0.9-0.7-1-0.8c0,0,0.1-0.1,0.1-0.1c0.1,0.2,0.8,0.7,0.9,0.8
		c0.2,0,0.3-0.4,0.3-0.6c0,0,0.1,0,0.1,0c0,0,0,0-0.1,0c0,0,0.1,0,0.1,0c0,0,0,0-0.1,0c0.2,0.2,0.3,0.3,0.5,0.5c0,0-0.2,0.5-0.8,0.6
		C65.3,87.3,65.3,87.3,65.2,87.2L65.2,87.2z"/>
	<path fill="#91857D" d="M59.2,85.8c-0.1,0.3-0.2,0.6-0.3,1c0,0-0.3,0.2-0.2,0.3c0.1,0.1,0.6,0,0.6,0c0,0,0.7,0,0.9-0.2
		c0.1,0.3,0.5,0.4,0.5,0.4c0,0,0-0.1-0.1-0.2c0.2,0,0.3,0,0.3,0c0,0,0.1-0.2-0.1-0.4c0.1-0.2,0.1-0.4-0.2-0.4
		c-0.3,0.3-1,0.5-1.1,0.4c-0.2-0.2,0.6-0.4,0.4-0.9C59.7,85.7,59.5,85.7,59.2,85.8z"/>
	<path fill="#010101" d="M58.6,87.1c0.2-0.4,0.3-0.9,0.5-1.3c0,0,0.1,0,0.1,0c-0.1,0.3-0.2,0.6-0.3,0.9c0.5,0.2,1.1,0.1,1.3,0
		c0.1,0.1,0.3,0.3,0.4,0.4c0.1-0.2,0.1-0.3,0.2-0.5c0.1,0.1,0.1,0.3,0.2,0.4c-0.2,0.1-0.2,0.1-0.4,0.1c0,0,0,0,0.1,0
		c0,0-0.1,0-0.1,0l0,0c-0.3-0.1-0.4-0.1-0.4-0.4c-0.1,0.2-0.9,0.3-0.9,0.3C59.1,87,58.9,87,58.6,87.1L58.6,87.1z"/>
	<path fill="#010101" d="M44.4,81.8c0.3,0,0.6-0.1,0.9-0.1c0-0.2-0.1-0.3-0.1-0.5c0-0.1-0.1-0.2-0.1-0.2c-0.1-0.1-0.2-0.1-0.3-0.1
		c0,0,0,0,0-0.1c0.3,0,0.6-0.1,0.8-0.1c0,0,0,0,0,0.1c-0.1,0-0.2,0-0.2,0.1c-0.1,0-0.1,0.1-0.1,0.1c-0.1,0.1-0.1,0.1,0,0.2
		c0,0.2,0.1,0.3,0.1,0.5c0.2,0,0.5-0.1,0.7-0.1c0.1,0,0.2,0,0.2-0.1c0,0,0,0,0.1-0.1c0-0.1,0-0.1,0-0.2c0,0,0-0.1-0.1-0.1
		c0,0,0.1,0,0.1,0c0.1,0.4,0.2,0.7,0.3,1.1c0,0-0.1,0-0.1,0c0,0,0-0.1,0-0.1c-0.1-0.1-0.1-0.2-0.1-0.2c-0.1,0-0.2,0-0.2,0
		c-0.5,0.1-1,0.1-1.6,0.2c-0.2,0-0.2,0-0.3,0c0,0,0,0.1,0,0.1c0,0,0,0.1,0,0.1c0,0,0,0.1,0,0.1c0,0-0.1,0-0.1,0
		c-0.1-0.6-0.3-1.2-0.4-1.9c0.2,0,0.3-0.1,0.5-0.1c0,0,0,0,0,0.1c-0.1,0.1-0.1,0.1-0.2,0.1c-0.1,0-0.1,0.1-0.1,0.2c0,0,0,0.2,0,0.2
		C44.3,81.3,44.3,81.5,44.4,81.8z M43.8,77.4c0-0.3,0.1-0.6,0.4-0.8c0.2-0.2,0.6-0.2,0.9-0.2c0.4,0.1,0.7,0.3,0.9,0.5
		c0.2,0.3,0.3,0.6,0.3,0.9c0,0.4-0.2,0.6-0.4,0.8c-0.3,0.2-0.6,0.2-1,0.2c-0.4-0.1-0.7-0.3-0.9-0.6C43.8,78,43.7,77.7,43.8,77.4
		L43.8,77.4z M43.9,77.5c-0.1,0.2,0.1,0.4,0.2,0.6c0.2,0.2,0.4,0.3,0.8,0.4c0.5,0.1,0.8,0.1,1,0c0.2-0.1,0.3-0.3,0.3-0.5
		c0-0.2-0.1-0.4-0.2-0.6c-0.2-0.2-0.5-0.3-0.9-0.4c-0.4-0.1-0.7,0-0.9,0.1C44,77.1,43.9,77.2,43.9,77.5
		C43.9,77.5,43.9,77.5,43.9,77.5z M47.5,73.5c-0.1,0.2-0.2,0.4-0.3,0.6c-0.4,0.1-0.9,0.1-1.3,0.2c-0.1,0-0.1,0.1-0.1,0.1
		c0,0,0,0-0.1,0.1c0,0,0,0,0,0c0.2,0.1,0.4,0.2,0.6,0.3c0.2,0.1,0.3,0.1,0.3,0.1c0.1,0,0.1-0.1,0.2-0.2c0,0,0,0,0.1-0.1
		c0,0,0,0,0.1,0c-0.1,0.3-0.2,0.6-0.4,0.9c0,0-0.1,0-0.1,0c0,0,0-0.1,0.1-0.1c0-0.1,0-0.2,0-0.2c-0.1-0.1-0.2-0.1-0.2-0.2
		c-0.5-0.3-1-0.5-1.5-0.8c-0.1-0.1-0.2-0.1-0.3-0.1c-0.1,0-0.1,0.1-0.1,0.2c0,0,0,0-0.1,0.1c0,0,0,0-0.1,0c0.1-0.3,0.2-0.5,0.3-0.8
		c0.1-0.3,0.2-0.4,0.3-0.5c0.1-0.1,0.2-0.2,0.3-0.2c0.1,0,0.3,0,0.4,0.1c0.1,0.1,0.3,0.2,0.3,0.3c0,0.1,0.1,0.4,0,0.6
		c0.3,0,0.6-0.1,0.8-0.1c0.2,0,0.4-0.1,0.4-0.1c0.1-0.1,0.2-0.1,0.2-0.3C47.4,73.4,47.5,73.4,47.5,73.5z M45.7,74.4
		C45.7,74.4,45.7,74.4,45.7,74.4C45.7,74.3,45.7,74.3,45.7,74.4c0.1-0.3,0.1-0.5,0.1-0.6c0-0.1-0.1-0.3-0.2-0.4
		c-0.2-0.1-0.3-0.1-0.5-0.1c-0.1,0.1-0.2,0.2-0.3,0.3c0,0-0.1,0.1-0.1,0.3C45,74.1,45.3,74.2,45.7,74.4z M50.9,66.9
		c0.2,0.2,0.3,0.5,0.5,0.7c0,0,0,0-0.1,0c-0.2-0.2-0.3-0.3-0.5-0.3c-0.2-0.1-0.4,0-0.6,0.1c-0.3,0.1-0.4,0.3-0.4,0.7
		c0,0.2,0.1,0.5,0.3,0.8c0.1,0.2,0.2,0.3,0.5,0.5c0.2,0.1,0.4,0.2,0.5,0.2c0.2,0,0.4,0,0.5-0.1c0.1,0,0.1-0.1,0.2-0.1
		c0.1-0.1,0.1-0.1,0.2-0.2c-0.1-0.2-0.3-0.4-0.4-0.7c0-0.1-0.1-0.2-0.1-0.2c-0.1,0-0.1,0-0.1,0c-0.1,0-0.1,0-0.2,0c0,0,0,0,0,0
		c0.3-0.1,0.5-0.3,0.8-0.4c0,0,0,0,0.1,0.1c0,0,0,0-0.1,0c-0.1,0-0.1,0.1-0.1,0.1c0,0,0.1,0.2,0.1,0.3c0.1,0.2,0.3,0.5,0.4,0.7
		c-0.1,0.1-0.1,0.3-0.2,0.3c-0.1,0.1-0.2,0.2-0.3,0.3c-0.4,0.2-0.8,0.2-1.2,0.1c-0.3-0.1-0.5-0.3-0.7-0.6c-0.1-0.2-0.2-0.4-0.2-0.6
		c-0.1-0.3,0-0.5,0.1-0.7c0.1-0.2,0.3-0.3,0.5-0.4c0.1-0.1,0.1-0.1,0.2-0.1c0.1,0,0.2,0,0.4-0.1c0.1,0,0.1,0,0.1,0
		c0,0,0-0.1,0.1-0.1C50.9,67,50.9,67,50.9,66.9C50.9,66.9,50.9,66.9,50.9,66.9z M54.9,67.6c-0.3,0-0.6,0.1-0.9,0.1
		c0,0.1,0,0.3-0.1,0.4c0,0.1,0,0.2,0,0.2c0,0,0.1,0.1,0.1,0.1c0.1,0,0.1,0,0.2,0c0,0,0,0,0,0.1c-0.2,0-0.5,0.1-0.7,0.1
		c0,0,0,0-0.1-0.1c0.1,0,0.1-0.1,0.2-0.1c0-0.1,0.1-0.2,0.1-0.4c0.1-0.7,0.2-1.4,0.3-2.1c0,0,0,0,0,0c0.4,0.6,0.9,1.3,1.3,1.9
		c0.1,0.2,0.2,0.2,0.3,0.3c0.1,0,0.2,0.1,0.2,0c0,0,0,0,0,0.1c-0.3,0-0.6,0.1-0.9,0.1c0,0,0,0,0-0.1c0.1,0,0.2-0.1,0.2-0.1
		c0,0,0-0.1,0-0.1c0-0.1,0-0.1-0.1-0.3C55.1,67.8,55,67.7,54.9,67.6z M54.9,67.5c-0.2-0.3-0.4-0.6-0.7-0.9c-0.1,0.4-0.1,0.7-0.2,1.1
		C54.3,67.6,54.6,67.5,54.9,67.5z M59.2,67.9C59.2,67.9,59.3,67.9,59.2,67.9c0,0.2-0.1,0.4-0.2,0.7c-0.6-0.1-1.2-0.2-1.8-0.3
		c0,0,0-0.1,0-0.1c0,0,0.1,0,0.1,0c0.1,0,0.2,0,0.2-0.1c0,0,0-0.1,0-0.3c0-0.5,0-1.1,0-1.6c0-0.1,0-0.3,0-0.3c0-0.1-0.1-0.1-0.2-0.1
		c-0.1,0-0.1,0-0.2,0c0,0,0,0,0.1-0.1c0.4,0,0.7,0.1,1.1,0.1c0,0,0,0.1,0,0.1c-0.1,0-0.2,0-0.3,0c-0.1,0-0.1,0-0.1,0
		c-0.1,0.1-0.1,0.2-0.1,0.2c0,0.6,0,1.2,0,1.7c0,0.1,0,0.1,0,0.1c0,0.1,0,0.1,0,0.1c0.1,0,0.2,0,0.3,0.1c0.1,0,0.2,0,0.2,0
		c0.2,0,0.3,0,0.4,0c0.1,0,0.1,0,0.2-0.1C59.1,68.2,59.2,68.1,59.2,67.9C59.2,67.9,59.2,67.9,59.2,67.9z M62.5,69.1
		C62.5,69.1,62.6,69.2,62.5,69.1c-0.1,0.2-0.2,0.4-0.4,0.6c-0.6-0.3-1.2-0.5-1.8-0.8c0,0,0,0,0-0.1c0,0,0.1,0,0.1,0
		c0.1,0,0.2,0.1,0.3,0c0,0,0.1-0.1,0.1-0.3c0.2-0.5,0.4-1,0.5-1.4c0.1-0.2,0.1-0.2,0-0.3c0,0-0.1-0.1-0.2-0.2c0,0-0.1,0-0.1,0
		c0,0,0-0.1,0.1-0.1c0.4,0.1,0.7,0.3,1.1,0.4c0,0,0,0,0,0.1c-0.2-0.1-0.3-0.1-0.3-0.1c-0.1,0-0.1,0-0.1,0c0,0-0.1,0.2-0.1,0.3
		c-0.2,0.5-0.3,1-0.5,1.4c-0.1,0.1-0.1,0.1-0.1,0.2c0,0,0,0.1,0.1,0.1c0,0,0.1,0.1,0.3,0.2c0,0,0.1,0.1,0.1,0.1
		c0.2,0.1,0.3,0.1,0.4,0.1c0.1,0,0.2,0,0.2,0C62.3,69.3,62.4,69.2,62.5,69.1L62.5,69.1z M65.2,70.7c-0.3-0.2-0.5-0.4-0.8-0.6
		c-0.1,0.1-0.2,0.1-0.4,0.2c-0.1,0-0.1,0.1-0.2,0.1c0,0,0,0,0,0.1c0,0,0.1,0.1,0.1,0.2c0,0,0,0,0,0c-0.2-0.2-0.4-0.3-0.6-0.5
		c0,0,0,0,0.1-0.1c0,0.1,0.2,0.1,0.2,0.1c0.1,0,0.2-0.1,0.4-0.2c0.6-0.3,1.3-0.7,1.9-1c0,0,0,0,0,0c-0.1,0.7-0.3,1.4-0.4,2.1
		c-0.1,0.1-0.1,0.3-0.1,0.3c0.1,0.1,0.1,0.2,0.1,0.3c0,0,0,0-0.1,0.1c-0.3-0.2-0.5-0.4-0.7-0.6c0,0,0,0,0-0.1
		c0.1,0.1,0.2,0.1,0.2,0.1c0,0,0.1,0,0.1,0c0-0.1,0-0.2,0-0.2C65.1,71,65.1,70.9,65.2,70.7z M65.2,70.6c0.1-0.3,0.2-0.7,0.2-1
		c-0.3,0.2-0.6,0.3-0.9,0.5C64.7,70.2,65,70.4,65.2,70.6z M68.1,71.4c0.1,0.2,0.3,0.4,0.4,0.6c-0.2,0.8-0.4,1.5-0.6,2.3
		c0.4-0.3,0.7-0.5,1.1-0.8c0.1-0.1,0.2-0.2,0.2-0.2c0.1-0.1,0-0.2-0.1-0.3c0,0,0,0-0.1-0.1c0,0,0,0,0.1,0c0.2,0.2,0.3,0.5,0.5,0.7
		c0,0,0,0,0,0.1c0,0,0-0.1-0.1-0.1c-0.1-0.1-0.1-0.1-0.2-0.2c0,0-0.1,0.1-0.2,0.1c-0.6,0.4-1.1,0.7-1.7,1.1c0,0,0,0,0,0
		c0.2-0.8,0.4-1.6,0.6-2.5c-0.4,0.3-0.8,0.5-1.2,0.8c-0.1,0.1-0.2,0.1-0.2,0.2c-0.1,0.1,0,0.2,0.1,0.2c0,0,0,0.1,0.1,0.1
		c0,0,0,0-0.1,0.1c-0.2-0.3-0.3-0.5-0.5-0.8c0,0,0,0,0,0c0,0,0.1,0.1,0.1,0.1c0.1,0.1,0.1,0.1,0.2,0.1c0,0,0.1,0,0.3-0.1
		c0.5-0.3,0.9-0.6,1.4-0.9c0-0.1,0-0.2,0-0.2c0,0,0-0.1-0.1-0.2C68.1,71.5,68.1,71.5,68.1,71.4C68.1,71.4,68.1,71.4,68.1,71.4z
		 M71.2,77.3c-0.2,0.1-0.3,0.1-0.5,0.2c0,0,0,0-0.1-0.1c0.1,0,0.2-0.1,0.2-0.1c0.1-0.1,0.1-0.2,0.1-0.2c0-0.1,0-0.2,0-0.3
		c0-0.1-0.1-0.2-0.1-0.4c-0.6,0.2-1.2,0.3-1.8,0.5c-0.1,0-0.2,0.1-0.2,0.1c-0.1,0.1-0.1,0.2,0,0.3c0,0,0,0,0,0.1c0,0,0,0-0.1,0
		c-0.1-0.3-0.2-0.7-0.3-1l0,0c0,0,0,0,0.1,0.1c0,0.1,0.1,0.2,0.2,0.2c0,0,0.1,0,0.2,0c0.6-0.2,1.2-0.3,1.8-0.5
		c0-0.1-0.1-0.2-0.1-0.3c-0.1-0.1-0.1-0.2-0.1-0.2c-0.1-0.1-0.1-0.1-0.2-0.2c-0.1,0-0.2,0-0.3,0c0,0,0-0.1-0.1-0.1
		c0.2,0,0.4-0.1,0.6-0.1C70.8,76,71,76.7,71.2,77.3z M69.3,81.6c0-0.2,0-0.4,0-0.7c0.4-0.3,0.8-0.5,1.1-0.8
		c-0.1-0.1-0.1-0.1-0.1-0.2c0,0,0,0,0,0c0,0,0,0,0-0.1c-0.2,0-0.5,0-0.7,0c-0.2,0-0.3,0-0.3,0c0,0.1-0.1,0.1-0.1,0.2
		c0,0,0,0.1,0,0.1c0,0,0,0-0.1,0c0-0.4,0-0.7-0.1-1.1c0,0,0.1,0,0.1,0c0,0,0,0.1,0,0.1c0,0,0,0.1,0.1,0.2c0.1,0,0.1,0,0.3,0.1
		c0.5,0,1,0,1.5,0c0.2,0,0.3,0,0.3,0c0.1,0,0.1-0.1,0.1-0.2c0,0,0-0.1,0-0.1c0,0,0,0,0,0c0,0.3,0,0.6,0.1,0.9c0,0.3,0,0.5,0,0.6
		c-0.1,0.1-0.1,0.2-0.2,0.3c-0.1,0.1-0.2,0.1-0.3,0.1c-0.2,0-0.3-0.1-0.4-0.2c-0.2-0.1-0.2-0.3-0.3-0.5c-0.2,0.2-0.5,0.3-0.7,0.5
		c-0.1,0.1-0.2,0.2-0.3,0.3c0,0,0,0.2,0,0.3C69.4,81.6,69.3,81.6,69.3,81.6z M70.5,79.9C70.5,79.9,70.5,79.9,70.5,79.9
		c0,0.1,0,0.1,0,0.1c0,0.2,0.1,0.4,0.2,0.5c0.1,0.1,0.2,0.2,0.4,0.2c0.1,0,0.3-0.1,0.3-0.1c0.1-0.1,0.2-0.2,0.2-0.4
		c0-0.1,0-0.2-0.1-0.3C71.2,79.9,70.8,79.9,70.5,79.9z M71.2,85c-0.1,0.3-0.2,0.5-0.2,0.8c0,0,0,0-0.1,0c0,0,0,0,0,0
		c0,0,0-0.1,0-0.2c0,0,0-0.1,0-0.2c-0.1,0-0.2-0.1-0.2-0.3c-0.3-0.3-0.5-0.6-0.8-0.9c-0.2-0.1-0.4-0.1-0.6-0.2c-0.2,0-0.3,0-0.3,0
		c-0.1,0-0.1,0.1-0.1,0.2c0,0,0,0.1-0.1,0.1c0,0,0,0-0.1,0c0.1-0.3,0.2-0.6,0.3-1c0,0,0,0,0.1,0c0,0,0,0.1,0,0.1
		c-0.1,0.1-0.1,0.2,0.1,0.3c0,0,0.1,0,0.2,0.1c0.2,0.1,0.4,0.1,0.6,0.2c0.4-0.1,0.8-0.2,1.2-0.3c0.1,0,0.2-0.1,0.3-0.1
		c0,0,0.1,0,0.2-0.1c0,0,0-0.1,0-0.1c0,0,0.1,0.1,0.1,0.1c-0.1,0.3-0.2,0.6-0.2,1c0,0-0.1,0-0.1,0c0,0,0,0,0-0.1
		c0.1,0,0.1-0.1,0-0.1c0,0,0-0.1-0.1-0.1c0,0-0.1,0-0.3,0c-0.3,0.1-0.6,0.1-0.9,0.2c0.2,0.2,0.4,0.5,0.6,0.7
		c0.1,0.1,0.2,0.2,0.2,0.2c0,0,0.1,0,0.1,0c0,0,0,0,0.1-0.1C71.1,85.1,71.1,85,71.2,85C71.1,85,71.1,85,71.2,85z"/>
</g>
</svg>
