<svg version="1.1" id="nld" name="netherlands" xmlns="http://www.w3.org/2000/svg" xmlns:xlink="http://www.w3.org/1999/xlink" x="0px" y="0px"
	 viewBox="0 0 480 320" enable-background="new 0 0 480 320" xml:space="preserve">
<g id="flag-nld">
	<path fill="#314789" d="M0,300c160,44.8,320-44.8,480,0c0-93.3,0-186.7,0-280C320-24.8,160,64.8,0,20C0,113.3,0,206.7,0,300z"/>
	<path fill="#FFFFFF" d="M0,206.7c160,44.8,320-44.8,480,0c0-62.2,0-124.4,0-186.7C320-24.8,160,64.8,0,20C0,82.2,0,144.4,0,206.7z"
		/>
	<path fill="#9F1C34" d="M0,113.3c160,44.8,320-44.8,480,0c0-31.1,0-62.2,0-93.3C320-24.8,160,64.8,0,20C0,51.1,0,82.2,0,113.3z"/>
</g>
</svg>
