<svg version="1.1" id="qat" name="qatar" xmlns="http://www.w3.org/2000/svg" xmlns:xlink="http://www.w3.org/1999/xlink" x="0px" y="0px"
	 viewBox="0 0 480 320" enable-background="new 0 0 480 320" xml:space="preserve">
<g id="flag-qat">
	<path fill="#6A1840" d="M143,31.4c17,4,34,7.3,51,10.4c-17,7.3-34,14.3-51,20.7c17,4,34,7.3,51,10.4c-17,7.3-34,14.3-51,20.7
		c17,4,34,7.3,51,10.4c-17,7.3-34,14.3-51,20.7c17,4,34,7.3,51,10.4c-17,7.3-34,14.3-51,20.7c17,4,34,7.3,51,10.4
		c-17,7.3-34,14.3-51,20.7c17,4,34,7.3,51,10.4c-17,7.3-34,14.3-51,20.8c17,4,34,7.3,51,10.4c-17,7.3-34,14.3-51,20.8
		c17,4,34,7.3,51,10.4c-17,7.3-34,14.3-51,20.7c17,4,34,7.3,51,10.4c-17,7.3-34,14.3-51,20.7c112.3-8,224.6-42.8,337-11.4
		c0-93.3,0-186.7,0-280C367.7-11.5,255.4,23.3,143,31.4z"/>
	<path fill="#FFFFFF" d="M0,20c0,93.3,0,186.7,0,280c47.7,13.4,95.4,14.8,143,11.4c17-6.4,34-13.4,51-20.7c-17-3.1-34-6.4-51-10.4
		c17-6.4,34-13.4,51-20.7c-17-3.1-34-6.4-51-10.4c17-6.4,34-13.4,51-20.8c-17-3.1-34-6.4-51-10.4c17-6.4,34-13.4,51-20.8
		c-17-3.1-34-6.4-51-10.4c17-6.4,34-13.4,51-20.7c-17-3.1-34-6.4-51-10.4c17-6.4,34-13.4,51-20.7c-17-3.1-34-6.4-51-10.4
		c17-6.4,34-13.4,51-20.7c-17-3.1-34-6.4-51-10.4c17-6.4,34-13.4,51-20.7c-17-3.1-34-6.4-51-10.4c17-6.4,34-13.4,51-20.7
		c-17-3.1-34-6.4-51-10.4C95.4,34.8,47.7,33.3,0,20z"/>
</g>
</svg>
