<svg version="1.1" id="sgp" name="singapore" xmlns="http://www.w3.org/2000/svg" xmlns:xlink="http://www.w3.org/1999/xlink" x="0px" y="0px"
	 viewBox="0 0 480 320" enable-background="new 0 0 480 320" xml:space="preserve">
<g id="flag-sgp">
	<path fill="#D91D43" d="M0,160c159.5,44.7,319.1-44.7,478.6,0c0-46.5,0-93.1,0-139.6C319.1-24.3,159.5,65.1,0,20.4
		C0,66.9,0,113.5,0,160z"/>
	<path fill="#FFFFFF" d="M0,299.6c159.5,44.7,319.1-44.7,478.6,0c0-46.5,0-93.1,0-139.6C319.1,115.3,159.5,204.7,0,160
		C0,206.6,0,253.1,0,299.6z"/>
</g>
<g id="crest">
	<path fill="#FFFFFF" d="M143.6,101.4c0,28.9-23.5,54.7-52.5,54.1c-29-0.5-52.5-28-52.5-57c0-29,23.5-48.5,52.5-48
		C120.1,51.1,143.6,72.4,143.6,101.4"/>
	<path fill="#D91D43" d="M160.1,100c0,27.4-22.2,52-49.6,52.6c-27.4,0.6-49.6-23.9-49.6-51.3c0-27.4,22.2-47.2,49.6-47.9
		C137.9,52.9,160.1,72.6,160.1,100"/>
	<path fill="#FFFFFF" d="M97.6,104.3c-2.4-1.8-4.7-3.7-7.1-5.6c-2.4,1.8-4.8,3.5-7.2,5.3c0.9-2.9,1.8-5.8,2.8-8.7
		c-2.4-1.9-4.8-3.8-7.2-5.7c2.9,0.2,5.9,0.3,8.8,0.4c0.9-2.9,1.8-5.9,2.7-8.8c0.9,3,1.8,5.9,2.7,8.9c2.9,0,5.9,0,8.8,0
		c-2.4,1.8-4.8,3.6-7.2,5.4C95.8,98.5,96.7,101.4,97.6,104.3z"/>
	<path fill="#FFFFFF" d="M153.6,101.9c-2.4-1.6-4.8-3.2-7.1-4.9c-2.4,2-4.7,4-7.1,6c0.9-3,1.8-6,2.7-9c-2.4-1.6-4.8-3.3-7.2-5
		c2.9-0.2,5.9-0.3,8.8-0.5c0.9-3,1.8-6,2.7-9.1c0.9,2.9,1.8,5.8,2.7,8.6c2.9-0.3,5.9-0.5,8.8-0.8c-2.4,2-4.8,4.1-7.1,6.1
		C151.8,96.2,152.7,99.1,153.6,101.9z"/>
	<path fill="#FFFFFF" d="M125.6,83.1c-2.4-1.7-4.7-3.5-7.1-5.2c-2.4,1.9-4.7,3.8-7.1,5.7c0.9-3,1.8-5.9,2.7-8.9
		c-2.4-1.7-4.8-3.5-7.1-5.3c2.9,0,5.9-0.1,8.8-0.2c0.9-3,1.8-6,2.7-8.9c0.9,2.9,1.8,5.8,2.7,8.8c2.9-0.1,5.9-0.3,8.8-0.5
		c-2.4,2-4.8,3.9-7.2,5.8C123.8,77.2,124.7,80.2,125.6,83.1z"/>
	<path fill="#FFFFFF" d="M108.1,137.5c-2.4-1.8-4.8-3.6-7.2-5.4c-2.4,1.8-4.7,3.6-7.1,5.4c0.9-2.9,1.8-5.9,2.7-8.8
		c-2.4-1.8-4.8-3.7-7.2-5.5c2.9,0.1,5.9,0.1,8.8,0.1c0.9-2.9,1.8-5.9,2.7-8.8c0.9,2.9,1.8,5.9,2.7,8.8c2.9,0,5.9-0.1,8.8-0.1
		c-2.4,1.9-4.8,3.7-7.1,5.5C106.3,131.7,107.2,134.6,108.1,137.5z"/>
	<path fill="#FFFFFF" d="M143.1,136c-2.4-1.6-4.8-3.3-7.2-5c-2.4,2-4.7,3.9-7.1,5.8c0.9-3,1.8-6,2.8-9c-2.4-1.7-4.8-3.4-7.1-5
		c2.9-0.1,5.9-0.3,8.8-0.4c0.9-3,1.8-6,2.7-9c0.9,2.9,1.8,5.8,2.7,8.7c2.9-0.2,5.9-0.4,8.8-0.6c-2.4,2-4.8,4-7.2,5.9
		C141.3,130.2,142.2,133.1,143.1,136z"/>
</g>
</svg>
