<svg version="1.1" id="svn" name="slovenia" xmlns="http://www.w3.org/2000/svg" xmlns:xlink="http://www.w3.org/1999/xlink" x="0px" y="0px"
	 viewBox="0 0 480 320" enable-background="new 0 0 480 320" xml:space="preserve">
<g id="flag-svn">
	<path fill="#FFFFFF" d="M0,300c160,44.8,320-44.8,480,0c0-93.3,0-186.7,0-280C320-24.8,160,64.8,0,20C0,113.3,0,206.7,0,300z"/>
	<path fill="#E62328" d="M0,300c160,44.8,320-44.8,480,0c0-31.1,0-62.2,0-93.3c-160-44.8-320,44.8-480,0C0,237.8,0,268.9,0,300z"/>
	<path fill="#4960AA" d="M0,206.7c160,44.8,320-44.8,480,0c0-31.1,0-62.2,0-93.3c-160-44.8-320,44.8-480,0C0,144.4,0,175.6,0,206.7z
		"/>
</g>
<g id="crest">
	<path fill="#E62328" d="M106.2,86.7c-0.9,0.4-1.7,0.8-2.6,1.2c0.9,14.1,1.8,28.2,2.7,42.3c0.7,11.5,5.6,22.5,13.9,30.4
		c5.6,5.4,12.5,9.2,20,10.9l0,0c7.4-2.8,14.4-7.4,20-13.6c8.2-9,13.2-20.5,13.9-32.1c0.9-14.2,1.8-28.4,2.7-42.6
		c-0.8-0.3-1.7-0.6-2.6-0.9l0,0c-0.9,14.5-1.8,29.1-2.7,43.6c-0.7,11-5.3,21.8-13.1,30.3c-5.1,5.6-11.3,9.9-18.1,12.5l0,0
		c-6.8-1.7-13-5.2-18.2-10.1c-7.7-7.5-12.4-17.8-13.1-28.6C108,115.6,107.1,101.2,106.2,86.7C106.2,86.7,106.2,86.7,106.2,86.7"/>
	<path fill="#4960AA" d="M174.1,82.4c-10.6-3.5-22.2-4.9-34-4.1c-11.8,0.8-23.3,3.7-34,8.5c0.9,14.4,1.9,28.9,2.8,43.3
		c0.7,10.9,5.4,21.2,13.1,28.6c5.1,4.9,11.4,8.4,18.2,10.1l0,0c6.8-2.6,13-6.9,18.1-12.5c7.8-8.5,12.4-19.3,13.1-30.3"/>
	<path fill="#F8E61C" d="M142.1,98.4c0.5-0.7,1-1.5,1.5-2.2c-0.8,0.2-1.7,0.3-2.5,0.5c-0.3-0.8-0.7-1.5-1-2.3
		c-0.3,0.8-0.7,1.6-1,2.4c-0.9,0-1.7-0.1-2.5-0.1c0.5,0.7,1,1.3,1.5,2c-0.5,0.7-1,1.4-1.5,2.1c0.9-0.1,1.7-0.3,2.5-0.4
		c0.3,0.8,0.7,1.5,1,2.3c0.3-0.8,0.7-1.6,1-2.4c0.8,0,1.7,0.1,2.5,0.1"/>
	<path fill="#F8E61C" d="M132.6,86.2c0.5-0.7,1-1.4,1.5-2.1c-0.8,0.1-1.7,0.3-2.5,0.4c-0.4-0.8-0.7-1.5-1.1-2.3
		c-0.3,0.8-0.6,1.6-0.9,2.4c-0.9-0.1-1.7-0.1-2.6-0.2c0.5,0.7,1,1.3,1.5,2c-0.5,0.7-1,1.4-1.5,2.2c0.9-0.1,1.7-0.3,2.6-0.4
		c0.3,0.8,0.6,1.5,0.9,2.3c0.4-0.8,0.7-1.6,1.1-2.4c0.8,0.1,1.7,0.1,2.5,0.2"/>
	<path fill="#F8E61C" d="M151.7,84.8c0.5-0.7,1-1.5,1.6-2.2c-0.8,0.2-1.7,0.3-2.5,0.5c-0.3-0.7-0.7-1.5-1-2.2
		c-0.4,0.8-0.7,1.6-1.1,2.4c-0.8,0-1.7-0.1-2.5-0.1c0.5,0.6,1,1.3,1.5,1.9c-0.5,0.7-1,1.5-1.5,2.2c0.8-0.2,1.7-0.3,2.5-0.5
		c0.4,0.7,0.7,1.5,1.1,2.2c0.3-0.8,0.7-1.6,1-2.4c0.8,0,1.7,0.1,2.5,0.1"/>
	<path fill="#FFFFFF" d="M167.6,132.7c-4.6-5.6-9.1-11.3-13.7-16.9c-1.8,2.6-3.6,5.2-5.5,7.7c-2.8-5.3-5.5-10.6-8.3-15.9
		c-2.7,5.7-5.5,11.3-8.2,17c-1.8-2.3-3.6-4.7-5.4-7c-4.6,6.3-9.2,12.5-13.8,18.7c0,2.5,1,4.8,2.8,6.4c1.7,1.7,4,2.6,6.4,2.5
		c1.6-0.1,3.2-0.6,4.6-1.4l0,0c0.7-0.4,1.4-0.8,2.2-1c2.3-0.8,4.8-0.5,6.9,0.5c1.4,0.7,3,1,4.6,0.9l0,0c1.6-0.1,3.1-0.7,4.6-1.6
		c2.1-1.4,4.6-1.9,6.9-1.5c0.8,0.1,1.5,0.4,2.2,0.7l0,0c1.4,0.7,2.9,1,4.5,0.8c2.5-0.2,4.8-1.4,6.5-3.3
		C166.6,137.6,167.6,135.1,167.6,132.7"/>
	<path fill="#FFFFFF" d="M116,146.1c0.6,1.2,1.3,2.4,2.1,3.6l0,0c1.9,0.9,4.1,1,6.1,0.3c0.8-0.2,1.6-0.6,2.3-1l0,0
		c1.3-0.8,2.9-1.4,4.5-1.5l0,0c1.6-0.1,3.2,0.3,4.6,1c2.1,1.1,4.6,1.2,6.9,0.5c0.8-0.3,1.5-0.6,2.2-1.1c0,0,0,0,0,0
		c1.4-0.9,3-1.5,4.6-1.6c0,0,0,0-0.1,0c1.6-0.1,3.2,0.2,4.6,0.9c2.1,1,4.6,1.1,6.9,0.3c0.5-0.2,1.1-0.4,1.5-0.7
		c0.8-1.2,1.4-2.5,2.1-3.8l0,0c-0.5,0.2-0.9,0.5-1.3,0.8l0,0c-0.7,0.5-1.5,0.8-2.3,1.1c-2.3,0.8-4.8,0.7-6.9-0.3
		c-1.4-0.7-3-1-4.6-0.9c0,0,0,0,0.1,0c-1.7,0.1-3.2,0.7-4.6,1.6c0,0,0,0,0,0c-0.7,0.4-1.5,0.8-2.3,1.1c-2.3,0.8-4.8,0.6-6.9-0.5
		c-1.4-0.7-3-1.1-4.6-1l0,0c-1.6,0.1-3.2,0.6-4.5,1.5l0,0c-0.7,0.4-1.4,0.7-2.3,1c-2.3,0.7-4.8,0.5-6.9-0.7
		C116.9,146.5,116.4,146.3,116,146.1L116,146.1"/>
	<path fill="#FFFFFF" d="M159.9,150.4c-1.1,1.5-2.3,2.9-3.4,4.2c-4.7,5-10.2,9-16.3,11.4l0,0c-6.1-1.6-11.6-4.8-16.3-9.2
		c-1.2-1.2-2.4-2.5-3.4-3.8l0,0c1.3,0.2,2.6,0,3.8-0.3c0.8-0.2,1.6-0.6,2.3-1l0,0c1.3-0.8,2.9-1.4,4.5-1.4l0,0
		c1.6-0.1,3.2,0.2,4.6,1c2.1,1.1,4.6,1.3,6.9,0.5c0.8-0.3,1.5-0.6,2.2-1.1c0,0,0,0,0,0c1.4-0.9,3-1.4,4.6-1.6c0,0,0,0-0.1,0
		c1.6-0.1,3.2,0.1,4.6,0.8C155.7,150.7,157.8,150.9,159.9,150.4L159.9,150.4"/>
</g>
</svg>
