<?xml version="1.0" encoding="utf-8"?>
<!-- Generator: Adobe Illustrator 28.2.0, SVG Export Plug-In . SVG Version: 6.00 Build 0)  -->
<svg version="1.1" id="swe" xmlns="http://www.w3.org/2000/svg" xmlns:xlink="http://www.w3.org/1999/xlink" x="0px" y="0px"
	 viewBox="0 0 480 320" enable-background="new 0 0 480 320" xml:space="preserve">
<g id="flag-swe">
	<path fill="#2F5B95" d="M0,300c160,44.8,320-44.8,480,0c0-93.3,0-186.6,0-280C320-24.8,160,64.8,0,20C0,113.3,0,206.7,0,300z"/>
	<path fill="#F4D130" d="M140,311.6c18.7-1.3,37.4-3.3,56-5.6c0-93.3,0-186.6,0-280c-18.7,2.4-37.4,4.4-56,5.6
		C140,124.9,140,218.2,140,311.6z"/>
	<path fill="#F4D130" d="M0,188c160,44.8,320-44.8,480,0c0-18.7,0-37.3,0-56c-160-44.8-320,44.8-480,0C0,150.7,0,169.3,0,188z"/>
</g>
</svg>
