<svg version="1.1" id="tkm" name="turkmenistan" xmlns="http://www.w3.org/2000/svg" xmlns:xlink="http://www.w3.org/1999/xlink" x="0px" y="0px"
	 viewBox="0 0 480 320" enable-background="new 0 0 480 320" xml:space="preserve">
<g id="flag-tkm">
	<path fill="#32755B" d="M0,300c160,44.8,320-44.8,480,0c0-93.4,0-186.7,0-280.1C320-24.8,160,64.8,0,20C0,113.3,0,206.7,0,300z"/>
	<path fill="#BE203A" d="M50.4,310c25.2,3.1,50.4,3.5,75.7,2.4c0-93.4,0-186.7,0-280.1c-25.2,1.1-50.4,0.7-75.7-2.4
		C50.4,123.3,50.4,216.7,50.4,310z"/>
</g>
<g id="crest">
	<path fill-rule="evenodd" clip-rule="evenodd" fill="#FFFFFF" d="M229.8,84.2c0-19.2-15.7-32.7-35-30.2
		c-19.2,2.4-34.6,19.6-34.6,38.8c0,19.5,15.4,33.5,34.6,31.1C214.1,121.4,229.8,103.7,229.8,84.2L229.8,84.2z"/>
	<path fill-rule="evenodd" clip-rule="evenodd" fill="#32755B" d="M220.3,80.1c0-19-15.5-32.2-34.5-29.9
		c-18.9,2.3-34.4,18.9-34.4,37.9c0,19.2,15.5,33.4,34.4,31.1C204.9,116.9,220.3,99.3,220.3,80.1L220.3,80.1z"/>
	<path fill-rule="evenodd" clip-rule="evenodd" fill="#FAFDFF" d="M199.5,68.8c-1.6,0.2-3.3,0.4-4.9,0.6c-0.4,1.7-0.9,3.3-1.3,5
		c-0.5-1.6-1.1-3.1-1.6-4.7c-1.6,0.2-3.3,0.4-4.9,0.6c1.3-1.1,2.5-2.3,3.8-3.4c-0.5-1.5-1.1-2.9-1.6-4.4c1.4,0.7,2.7,1.5,4.1,2.2
		c1.3-1.1,2.7-2.1,4-3.2c-0.4,1.6-0.9,3.2-1.3,4.8C196.9,67.1,198.2,68,199.5,68.8z"/>
	<path fill-rule="evenodd" clip-rule="evenodd" fill="#FAFDFF" d="M181.8,62.1c-1.6,0.3-3.2,0.6-4.8,0.8c-0.4,1.6-0.9,3.2-1.3,4.7
		c-0.5-1.5-1.1-2.9-1.6-4.4c-1.6,0.1-3.2,0.2-4.9,0.2c1.3-1.1,2.5-2.3,3.8-3.4c-0.6-1.5-1.1-2.9-1.7-4.4c1.4,0.7,2.7,1.5,4.1,2.2
		c1.3-1,2.5-2.1,3.8-3.1c-0.4,1.6-0.7,3.1-1.1,4.7C179.3,60.3,180.5,61.2,181.8,62.1z"/>
	<path fill-rule="evenodd" clip-rule="evenodd" fill="#FAFDFF" d="M181.8,79.9c-1.6,0.2-3.2,0.4-4.8,0.5c-0.4,1.6-0.9,3.2-1.3,4.7
		c-0.5-1.5-1.1-2.9-1.6-4.4c-1.6,0.2-3.2,0.3-4.9,0.5c1.3-1.1,2.5-2.2,3.8-3.4c-0.6-1.6-1.1-3.1-1.7-4.7c1.4,0.8,2.7,1.7,4.1,2.5
		c1.3-1.1,2.5-2.2,3.8-3.4c-0.4,1.7-0.7,3.3-1.1,5C179.3,78.2,180.5,79,181.8,79.9z"/>
	<path fill-rule="evenodd" clip-rule="evenodd" fill="#FAFDFF" d="M181.8,97.7c-1.6,0.2-3.2,0.4-4.8,0.5c-0.4,1.6-0.9,3.2-1.3,4.8
		c-0.5-1.5-1.1-3-1.6-4.5c-1.6,0.2-3.2,0.3-4.9,0.5c1.3-1.1,2.5-2.2,3.8-3.4c-0.6-1.6-1.1-3.1-1.7-4.7c1.4,0.9,2.7,1.7,4.1,2.6
		c1.3-1.1,2.5-2.3,3.8-3.4c-0.4,1.7-0.7,3.3-1.1,5C179.3,96,180.5,96.9,181.8,97.7z"/>
	<path fill-rule="evenodd" clip-rule="evenodd" fill="#FAFDFF" d="M164.2,90.4c-1.6,0.2-3.2,0.3-4.9,0.5c-0.4,1.7-0.9,3.3-1.3,5
		c-0.5-1.6-1.1-3.1-1.6-4.7c-1.6,0.1-3.2,0.3-4.9,0.4c1.3-1.1,2.5-2.2,3.8-3.3c-0.5-1.5-1.1-3-1.6-4.5c1.4,0.8,2.7,1.6,4.1,2.4
		c1.3-1,2.7-2.1,4-3.1c-0.4,1.6-0.9,3.2-1.3,4.8C161.7,88.7,162.9,89.6,164.2,90.4z"/>
</g>
<g id="crest_00000054980462562185783920000009863914211474560699_">
	<path fill-rule="evenodd" clip-rule="evenodd" fill="#E18529" d="M50.4,108.2c0-0.7,0-1.5,0-2.2c1.1-1.7,2.2-3.4,3.3-5
		c-0.3-0.4-0.6-0.8-0.9-1.2c0.6-0.9,1.3-1.8,1.9-2.7c-0.2-0.4-0.4-0.8-0.6-1.2c-0.5,0.7-0.9,1.3-1.4,2c-0.2-0.4-0.3-0.7-0.5-1.1
		c1.4-2.4,2.9-4.7,4.3-7.1c0.3,0.4,0.6,0.8,0.9,1.2c-0.3,0.3-0.6,0.6-0.9,1c0.5,0.8,0.9,1.5,1.4,2.3c1.1-1.7,2.2-3.4,3.3-5
		c-1.1-1.8-2.2-3.6-3.3-5.5c-0.5,0.6-0.9,1.1-1.4,1.7c0.3,0.4,0.6,0.8,0.9,1.2c-0.3,0.3-0.6,0.6-0.9,1c-1.4-2.7-2.9-5.3-4.3-8
		c0.2-0.4,0.3-0.7,0.5-1.1c0.5,0.8,0.9,1.6,1.4,2.3c0.2-0.3,0.4-0.7,0.6-1c-0.6-1.1-1.3-2.1-1.9-3.2c0.3-0.3,0.6-0.7,0.9-1
		c-1.1-1.9-2.2-3.9-3.3-5.8c0-0.7,0-1.4,0-2.1c1.5,2.7,2.9,5.4,4.4,8c-0.2,0.3-0.4,0.7-0.6,1c0.6,1.1,1.3,2.1,1.9,3.2
		c-0.5,0.7-0.9,1.4-1.4,2c0.5,0.8,0.9,1.6,1.4,2.3c0.6-1,1.2-2.1,1.9-3.1c1.4,2.7,2.9,5.4,4.3,8c-1.4,2.4-2.9,4.8-4.3,7.1
		c-0.6-1.1-1.2-2.3-1.9-3.4c-0.5,0.7-0.9,1.3-1.4,2c0.5,0.8,0.9,1.5,1.4,2.3c-0.6,0.9-1.3,1.8-1.9,2.7c0.2,0.4,0.4,0.7,0.6,1.1
		C53.3,103.4,51.8,105.8,50.4,108.2z"/>
	<path fill-rule="evenodd" clip-rule="evenodd" fill="#E18529" d="M50.4,81.4c0.3,0.8,0.6,1.5,0.8,2.3c0,1.1,0,2.1,0,3.2
		c0.6,0.1,1.3,0.2,1.9,0.2c0.3,0.4,0.7,0.8,1,1.2c-0.3,0.3-0.7,0.6-1,0.9c-0.6-0.1-1.3-0.1-1.9-0.2c0,1.1,0,2.2,0,3.2
		c-0.3,0.7-0.6,1.4-0.8,2.1C50.4,90,50.4,85.7,50.4,81.4z"/>
	<path fill-rule="evenodd" clip-rule="evenodd" fill="#E18529" d="M50.4,159.6c0-0.7,0-1.5,0-2.2c1.1-1.7,2.2-3.3,3.3-5
		c-0.3-0.4-0.6-0.8-0.9-1.2c0.6-1,1.3-2,1.9-3c-0.2-0.4-0.4-0.8-0.6-1.2c-0.5,0.7-0.9,1.3-1.4,2c-0.2-0.4-0.3-0.7-0.5-1.1
		c1.4-2.3,2.9-4.6,4.3-6.8c0.3,0.4,0.6,0.8,0.9,1.2c-0.3,0.3-0.6,0.6-0.9,1c0.5,0.8,0.9,1.5,1.4,2.3c1.1-1.7,2.2-3.4,3.3-5.1
		c-1.1-1.8-2.2-3.6-3.3-5.5c-0.5,0.6-0.9,1.2-1.4,1.8c0.3,0.4,0.6,0.8,0.9,1.2c-0.3,0.3-0.6,0.6-0.9,1c-1.4-2.7-2.9-5.4-4.3-8.1
		c0.2-0.4,0.3-0.7,0.5-1.1c0.5,0.8,0.9,1.6,1.4,2.3c0.2-0.3,0.4-0.7,0.6-1c-0.6-1.2-1.3-2.3-1.9-3.5c0.3-0.3,0.6-0.7,0.9-1
		c-1.1-1.8-2.2-3.7-3.3-5.5c0-0.7,0-1.4,0-2.1c1.5,2.6,2.9,5.2,4.4,7.8c-0.2,0.3-0.4,0.7-0.6,1c0.6,1.2,1.3,2.3,1.9,3.5
		c-0.5,0.7-0.9,1.3-1.4,2c0.5,0.8,0.9,1.6,1.4,2.3c0.6-1,1.2-2.1,1.9-3.1c1.4,2.7,2.9,5.3,4.3,8c-1.4,2.3-2.9,4.6-4.3,6.9
		c-0.6-1-1.2-2.1-1.9-3.1c-0.5,0.7-0.9,1.3-1.4,2c0.5,0.7,0.9,1.4,1.4,2.1c-0.6,1-1.3,2-1.9,3c0.2,0.4,0.4,0.8,0.6,1.2
		C53.3,154.9,51.8,157.2,50.4,159.6z"/>
	<path fill-rule="evenodd" clip-rule="evenodd" fill="#E18529" d="M50.4,132.8c0.3,0.8,0.6,1.5,0.8,2.3c0,1.1,0,2.2,0,3.3
		c0.6,0.1,1.3,0.2,1.9,0.2c0.3,0.4,0.7,0.8,1,1.2c-0.3,0.3-0.7,0.6-1,0.9c-0.6-0.1-1.3-0.1-1.9-0.2c0,1.1,0,2.2,0,3.3
		c-0.3,0.7-0.6,1.3-0.8,2C50.4,141.4,50.4,137.1,50.4,132.8z"/>
	<path fill-rule="evenodd" clip-rule="evenodd" fill="#E18529" d="M50.4,211c0-0.7,0-1.4,0-2.1c1.1-1.7,2.2-3.4,3.3-5
		c-0.3-0.4-0.6-0.8-0.9-1.2c0.6-1,1.3-2,1.9-3c-0.2-0.4-0.4-0.8-0.6-1.1c-0.5,0.7-0.9,1.3-1.4,2c-0.2-0.4-0.3-0.8-0.5-1.2
		c1.4-2.3,2.9-4.6,4.3-6.9c0.3,0.3,0.6,0.6,0.9,0.9c-0.3,0.3-0.6,0.6-0.9,1c0.5,0.8,0.9,1.6,1.4,2.3c1.1-1.6,2.2-3.2,3.3-4.8
		c-1.1-1.9-2.2-3.8-3.3-5.7c-0.5,0.7-0.9,1.4-1.4,2c0.3,0.4,0.6,0.8,0.9,1.2c-0.3,0.3-0.6,0.7-0.9,1c-1.4-2.7-2.9-5.4-4.3-8.1
		c0.2-0.3,0.3-0.7,0.5-1c0.5,0.8,0.9,1.5,1.4,2.3c0.2-0.3,0.4-0.7,0.6-1c-0.6-1.1-1.3-2.3-1.9-3.5c0.3-0.3,0.6-0.7,0.9-1
		c-1.1-1.9-2.2-3.8-3.3-5.8c0-0.7,0-1.5,0-2.2c1.5,2.7,2.9,5.4,4.4,8.1c-0.2,0.4-0.4,0.7-0.6,1.1c0.6,1.2,1.3,2.3,1.9,3.4
		c-0.5,0.7-0.9,1.3-1.4,2c0.5,0.8,0.9,1.5,1.4,2.3c0.6-1,1.2-2,1.9-3c1.4,2.7,2.9,5.3,4.3,8c-1.4,2.3-2.9,4.6-4.3,6.9
		c-0.6-1.1-1.2-2.3-1.9-3.4c-0.5,0.7-0.9,1.3-1.4,2c0.5,0.8,0.9,1.6,1.4,2.3c-0.6,1-1.3,2-1.9,3c0.2,0.4,0.4,0.8,0.6,1.2
		C53.3,206.3,51.8,208.6,50.4,211z"/>
	<path fill-rule="evenodd" clip-rule="evenodd" fill="#E18529" d="M50.4,184.2c0.3,0.8,0.6,1.5,0.8,2.3c0,1.1,0,2.2,0,3.3
		c0.6,0.1,1.3,0.2,1.9,0.2c0.3,0.4,0.7,0.8,1,1.2c-0.3,0.3-0.7,0.6-1,0.9c-0.6-0.1-1.3-0.1-1.9-0.2c0,1,0,2,0,3
		c-0.3,0.7-0.6,1.3-0.8,2C50.4,192.6,50.4,188.4,50.4,184.2z"/>
	<path fill-rule="evenodd" clip-rule="evenodd" fill="#E18529" d="M50.4,259.1c0-0.7,0-1.4,0-2.2c1.1-1.7,2.2-3.3,3.3-5
		c-0.3-0.4-0.6-0.8-0.9-1.2c0.6-1,1.3-2,1.9-3c-0.2-0.4-0.4-0.8-0.6-1.2c-0.5,0.7-0.9,1.4-1.4,2c-0.2-0.4-0.3-0.7-0.5-1.1
		c1.4-2.4,2.9-4.7,4.3-7.1c0.3,0.4,0.6,0.8,0.9,1.2c-0.3,0.3-0.6,0.6-0.9,1c0.5,0.8,0.9,1.6,1.4,2.3c1.1-1.7,2.2-3.4,3.3-5.1
		c-1.1-1.8-2.2-3.6-3.3-5.5c-0.5,0.7-0.9,1.4-1.4,2c0.3,0.4,0.6,0.8,0.9,1.2c-0.3,0.3-0.6,0.6-0.9,1c-1.4-2.7-2.9-5.3-4.3-8
		c0.2-0.4,0.3-0.7,0.5-1.1c0.5,0.8,0.9,1.6,1.4,2.4c0.2-0.3,0.4-0.7,0.6-1c-0.6-1.2-1.3-2.3-1.9-3.5c0.3-0.3,0.6-0.7,0.9-1
		c-1.1-1.9-2.2-3.8-3.3-5.7c0-0.7,0-1.4,0-2.2c1.5,2.7,2.9,5.4,4.4,8c-0.2,0.4-0.4,0.7-0.6,1.1c0.6,1.2,1.3,2.3,1.9,3.5
		c-0.5,0.7-0.9,1.3-1.4,2c0.5,0.8,0.9,1.6,1.4,2.3c0.6-1,1.2-2,1.9-3c1.4,2.6,2.9,5.3,4.3,7.9c-1.4,2.3-2.9,4.6-4.3,6.9
		c-0.6-1.1-1.2-2.2-1.9-3.4c-0.5,0.7-0.9,1.3-1.4,2c0.5,0.8,0.9,1.6,1.4,2.3c-0.6,1-1.3,2-1.9,3c0.2,0.4,0.4,0.8,0.6,1.2
		C53.3,254.4,51.8,256.8,50.4,259.1z"/>
	<path fill-rule="evenodd" clip-rule="evenodd" fill="#E18529" d="M50.4,232.3c0.3,0.8,0.6,1.5,0.8,2.3c0,1.1,0,2.2,0,3.2
		c0.6,0.1,1.3,0.2,1.9,0.2c0.3,0.3,0.7,0.6,1,1c-0.3,0.3-0.7,0.6-1,0.9c-0.6-0.1-1.3-0.1-1.9-0.2c0,1.1,0,2.2,0,3.3
		c-0.3,0.7-0.6,1.3-0.8,2C50.4,240.8,50.4,236.5,50.4,232.3z"/>
	<path fill-rule="evenodd" clip-rule="evenodd" fill="#E18529" d="M126,110.6c0-0.7,0-1.5,0-2.2c-1.1-1.8-2.2-3.5-3.3-5.3
		c0.3-0.4,0.6-0.7,0.8-1.1c-0.6-1-1.3-1.9-1.9-2.9c0.2-0.4,0.4-0.8,0.6-1.1c0.4,0.7,0.9,1.4,1.3,2.1c0.2-0.4,0.3-0.7,0.5-1.1
		c-1.4-2.5-2.9-4.9-4.3-7.4c-0.3,0.4-0.5,0.8-0.8,1.1c0.3,0.3,0.5,0.7,0.8,1c-0.4,0.7-0.9,1.5-1.3,2.2c-1-1.8-2-3.5-3-5.3
		c1-1.7,2-3.5,3-5.2c0.4,0.6,0.9,1.2,1.3,1.8c-0.3,0.4-0.5,0.8-0.8,1.2c0.3,0.3,0.5,0.7,0.8,1c1.4-2.6,2.9-5.1,4.3-7.7
		c-0.2-0.4-0.3-0.7-0.5-1.1c-0.4,0.7-0.9,1.5-1.3,2.2c-0.2-0.3-0.4-0.7-0.6-1c0.6-1,1.3-2,1.9-3c-0.3-0.4-0.6-0.7-0.8-1.1
		c1.1-1.8,2.2-3.7,3.3-5.6c0-0.7,0-1.4,0-2.1c-1.4,2.6-2.9,5.2-4.3,7.7c0.2,0.4,0.4,0.7,0.6,1.1c-0.6,1-1.3,2-1.9,3
		c0.5,0.7,0.9,1.4,1.4,2.1c-0.5,0.7-0.9,1.5-1.4,2.2c-0.6-1.1-1.3-2.2-1.9-3.3c-1.4,2.6-2.9,5.2-4.3,7.7c1.4,2.5,2.9,5,4.3,7.4
		c0.6-1.1,1.3-2.2,1.9-3.3c0.5,0.7,0.9,1.4,1.4,2.1c-0.5,0.7-0.9,1.5-1.4,2.2c0.6,1,1.3,1.9,1.9,2.9c-0.2,0.4-0.4,0.7-0.6,1.1
		C123.1,105.6,124.6,108.1,126,110.6z"/>
	<path fill-rule="evenodd" clip-rule="evenodd" fill="#E18529" d="M126,83.8c-0.2,0.7-0.4,1.5-0.6,2.2c0,1.1,0,2.1,0,3.2
		c-0.6,0-1.2,0.1-1.9,0.1c-0.4,0.4-0.9,0.8-1.3,1.2c0.4,0.3,0.9,0.7,1.3,1c0.6,0,1.2-0.1,1.9-0.1c0,1.1,0,2.2,0,3.2
		c0.2,0.7,0.4,1.4,0.6,2.1C126,92.4,126,88.1,126,83.8z"/>
	<path fill-rule="evenodd" clip-rule="evenodd" fill="#E18529" d="M126,162c0-0.7,0-1.5,0-2.2c-1.1-1.7-2.2-3.5-3.3-5.2
		c0.3-0.4,0.6-0.8,0.8-1.2c-0.6-1.1-1.3-2.1-1.9-3.2c0.2-0.4,0.4-0.8,0.6-1.1c0.4,0.7,0.9,1.4,1.3,2.1c0.2-0.4,0.3-0.7,0.5-1.1
		c-1.4-2.4-2.9-4.8-4.3-7.1c-0.3,0.4-0.5,0.8-0.8,1.1c0.3,0.3,0.5,0.7,0.8,1c-0.4,0.7-0.9,1.5-1.3,2.2c-1-1.8-2-3.5-3-5.3
		c1-1.7,2-3.5,3-5.2c0.4,0.6,0.9,1.2,1.3,1.9c-0.3,0.4-0.5,0.8-0.8,1.2c0.3,0.3,0.5,0.7,0.8,1c1.4-2.6,2.9-5.2,4.3-7.8
		c-0.2-0.4-0.3-0.7-0.5-1.1c-0.4,0.7-0.9,1.5-1.3,2.2c-0.2-0.3-0.4-0.7-0.6-1c0.6-1.1,1.3-2.2,1.9-3.3c-0.3-0.4-0.6-0.7-0.8-1.1
		c1.1-1.8,2.2-3.5,3.3-5.3c0-0.7,0-1.4,0-2.1c-1.4,2.5-2.9,5-4.3,7.4c0.2,0.4,0.4,0.7,0.6,1.1c-0.6,1.1-1.3,2.2-1.9,3.3
		c0.5,0.7,0.9,1.4,1.4,2.1c-0.5,0.7-0.9,1.5-1.4,2.2c-0.6-1.1-1.3-2.2-1.9-3.2c-1.4,2.6-2.9,5.2-4.3,7.7c1.4,2.4,2.9,4.8,4.3,7.1
		c0.6-1,1.3-2,1.9-3c0.5,0.7,0.9,1.4,1.4,2.1c-0.5,0.6-0.9,1.3-1.4,2c0.6,1.1,1.3,2.1,1.9,3.2c-0.2,0.4-0.4,0.8-0.6,1.1
		C123.1,157,124.6,159.5,126,162z"/>
	<path fill-rule="evenodd" clip-rule="evenodd" fill="#E18529" d="M126,135.2c-0.2,0.7-0.4,1.5-0.6,2.2c0,1.1,0,2.2,0,3.3
		c-0.6,0-1.2,0.1-1.9,0.1c-0.4,0.4-0.9,0.7-1.3,1.1c0.4,0.3,0.9,0.7,1.3,1c0.6,0,1.2-0.1,1.9-0.1c0,1.1,0,2.2,0,3.3
		c0.2,0.7,0.4,1.4,0.6,2.1C126,143.8,126,139.5,126,135.2z"/>
	<path fill-rule="evenodd" clip-rule="evenodd" fill="#E18529" d="M126,213.3c0-0.7,0-1.4,0-2.1c-1.1-1.8-2.2-3.5-3.3-5.3
		c0.3-0.4,0.6-0.8,0.8-1.1c-0.6-1.1-1.3-2.1-1.9-3.2c0.2-0.4,0.4-0.7,0.6-1.1c0.4,0.7,0.9,1.4,1.3,2.1c0.2-0.4,0.3-0.7,0.5-1.1
		c-1.4-2.4-2.9-4.8-4.3-7.2c-0.3,0.3-0.5,0.6-0.8,0.9c0.3,0.3,0.5,0.7,0.8,1c-0.4,0.7-0.9,1.5-1.3,2.2c-1-1.7-2-3.4-3-5.1
		c1-1.8,2-3.7,3-5.5c0.4,0.7,0.9,1.4,1.3,2.1c-0.3,0.4-0.5,0.7-0.8,1.1c0.3,0.4,0.5,0.7,0.8,1.1c1.4-2.6,2.9-5.2,4.3-7.8
		c-0.2-0.3-0.3-0.7-0.5-1c-0.4,0.7-0.9,1.5-1.3,2.2c-0.2-0.4-0.4-0.7-0.6-1.1c0.6-1.1,1.3-2.2,1.9-3.3c-0.3-0.4-0.6-0.7-0.8-1.1
		c1.1-1.8,2.2-3.7,3.3-5.5c0-0.7,0-1.5,0-2.2c-1.4,2.6-2.9,5.2-4.3,7.7c0.2,0.4,0.4,0.7,0.6,1.1c-0.6,1.1-1.3,2.2-1.9,3.3
		c0.5,0.7,0.9,1.4,1.4,2.1c-0.5,0.7-0.9,1.5-1.4,2.2c-0.6-1.1-1.3-2.1-1.9-3.2c-1.4,2.6-2.9,5.1-4.3,7.7c1.4,2.4,2.9,4.8,4.3,7.2
		c0.6-1.1,1.3-2.2,1.9-3.3c0.5,0.7,0.9,1.4,1.4,2.1c-0.5,0.7-0.9,1.5-1.4,2.2c0.6,1.1,1.3,2.1,1.9,3.2c-0.2,0.4-0.4,0.8-0.6,1.1
		C123.1,208.4,124.6,210.9,126,213.3z"/>
	<path fill-rule="evenodd" clip-rule="evenodd" fill="#E18529" d="M126,186.5c-0.2,0.7-0.4,1.5-0.6,2.2c0,1.1,0,2.2,0,3.3
		c-0.6,0-1.2,0.1-1.9,0.1c-0.4,0.4-0.9,0.7-1.3,1.1c0.4,0.3,0.9,0.7,1.3,1c0.6,0,1.2-0.1,1.9-0.1c0,1,0,2,0,3
		c0.2,0.7,0.4,1.4,0.6,2.1C126,195,126,190.8,126,186.5z"/>
	<path fill-rule="evenodd" clip-rule="evenodd" fill="#E18529" d="M126,261.5c0-0.7,0-1.4,0-2.2c-1.1-1.7-2.2-3.5-3.3-5.2
		c0.3-0.4,0.6-0.8,0.8-1.1c-0.6-1.1-1.3-2.1-1.9-3.2c0.2-0.4,0.4-0.8,0.6-1.2c0.4,0.7,0.9,1.4,1.3,2.1c0.2-0.4,0.3-0.7,0.5-1.1
		c-1.4-2.5-2.9-4.9-4.3-7.4c-0.3,0.4-0.5,0.8-0.8,1.1c0.3,0.3,0.5,0.7,0.8,1c-0.4,0.7-0.9,1.5-1.3,2.2c-1-1.8-2-3.5-3-5.3
		c1-1.7,2-3.5,3-5.2c0.4,0.7,0.9,1.4,1.3,2.1c-0.3,0.4-0.5,0.7-0.8,1.1c0.3,0.3,0.5,0.7,0.8,1c1.4-2.6,2.9-5.1,4.3-7.7
		c-0.2-0.4-0.3-0.7-0.5-1.1c-0.4,0.8-0.9,1.5-1.3,2.3c-0.2-0.4-0.4-0.7-0.6-1.1c0.6-1.1,1.3-2.2,1.9-3.3c-0.3-0.4-0.6-0.7-0.8-1.1
		c1.1-1.8,2.2-3.7,3.3-5.5c0-0.7,0-1.4,0-2.2c-1.4,2.6-2.9,5.1-4.3,7.7c0.2,0.4,0.4,0.7,0.6,1.1c-0.6,1.1-1.3,2.2-1.9,3.3
		c0.5,0.7,0.9,1.4,1.4,2.1c-0.5,0.7-0.9,1.5-1.4,2.2c-0.6-1-1.3-2.1-1.9-3.1c-1.4,2.5-2.9,5.1-4.3,7.6c1.4,2.4,2.9,4.8,4.3,7.2
		c0.6-1.1,1.3-2.2,1.9-3.2c0.5,0.7,0.9,1.4,1.4,2.1c-0.5,0.7-0.9,1.5-1.4,2.2c0.6,1.1,1.3,2.1,1.9,3.2c-0.2,0.4-0.4,0.8-0.6,1.1
		C123.1,256.6,124.6,259,126,261.5z"/>
	<path fill-rule="evenodd" clip-rule="evenodd" fill="#E18529" d="M126,234.7c-0.2,0.7-0.4,1.5-0.6,2.2c0,1.1,0,2.2,0,3.2
		c-0.6,0-1.2,0.1-1.9,0.1c-0.4,0.3-0.9,0.6-1.3,0.9c0.4,0.3,0.9,0.7,1.3,1c0.6,0,1.2-0.1,1.9-0.1c0,1.1,0,2.2,0,3.3
		c0.2,0.7,0.4,1.4,0.6,2.1C126,243.2,126,238.9,126,234.7z"/>
	<path fill-rule="evenodd" clip-rule="evenodd" fill="#E18529" d="M50.4,50.6c0-0.7,0-1.5,0-2.2c1.1-1.7,2.2-3.4,3.3-5
		c-0.3-0.4-0.6-0.8-0.9-1.2c0.6-1,1.3-2,1.9-3.1c-0.2-0.4-0.4-0.8-0.6-1.1c-0.5,0.7-0.9,1.3-1.4,2c-0.2-0.4-0.3-0.8-0.5-1.2
		c1.4-2.4,2.9-4.7,4.3-7.1c0.3,0.4,0.6,0.8,0.9,1.2c-0.3,0.3-0.6,0.7-0.9,1c0.5,0.8,0.9,1.5,1.4,2.3c1.1-1.7,2.2-3.4,3.3-5.1
		c0.3,0,0.7,0.1,1,0.1c-1.4,2.4-2.9,4.8-4.3,7.2c-0.6-1.1-1.2-2.3-1.9-3.4c-0.5,0.7-0.9,1.3-1.4,2c0.5,0.8,0.9,1.5,1.4,2.3
		c-0.6,1-1.3,2-1.9,3.1c0.2,0.4,0.4,0.7,0.6,1.1C53.3,45.8,51.8,48.2,50.4,50.6z"/>
	<path fill-rule="evenodd" clip-rule="evenodd" fill="#E18529" d="M50.4,29.9c1.3,0.2,2.5,0.3,3.8,0.4c-0.3,0.3-0.7,0.7-1,1
		c-0.6-0.1-1.3-0.1-1.9-0.2c0,1.1,0,2.2,0,3.2c-0.3,0.7-0.6,1.4-0.8,2.1C50.4,34.3,50.4,32.1,50.4,29.9z"/>
	<path fill-rule="evenodd" clip-rule="evenodd" fill="#E18529" d="M126,53c0-0.7,0-1.5,0-2.2c-1.1-1.8-2.2-3.5-3.3-5.3
		c0.3-0.4,0.6-0.7,0.8-1.1c-0.6-1.1-1.3-2.1-1.9-3.2c0.2-0.4,0.4-0.7,0.6-1.1c0.4,0.7,0.9,1.4,1.3,2.1c0.2-0.4,0.3-0.7,0.5-1.1
		c-1.4-2.5-2.9-4.9-4.3-7.4c-0.3,0.4-0.5,0.7-0.8,1.1c0.3,0.4,0.5,0.7,0.8,1.1c-0.4,0.7-0.9,1.4-1.3,2.2c-1-1.8-2-3.6-3-5.3
		c-0.4,0-0.9,0-1.3,0c1.4,2.5,2.9,5,4.3,7.5c0.6-1.1,1.3-2.2,1.9-3.3c0.5,0.7,0.9,1.4,1.4,2.1c-0.5,0.7-0.9,1.5-1.4,2.2
		c0.6,1.1,1.3,2.1,1.9,3.2c-0.2,0.4-0.4,0.7-0.6,1.1C123.1,48,124.6,50.5,126,53z"/>
	<path fill-rule="evenodd" clip-rule="evenodd" fill="#E18529" d="M126,32.3c-1.3,0.1-2.5,0.1-3.8,0.2c0.4,0.4,0.9,0.7,1.3,1.1
		c0.6,0,1.2-0.1,1.9-0.1c0,1.1,0,2.2,0,3.2c0.2,0.7,0.4,1.4,0.6,2.1C126,36.7,126,34.5,126,32.3z"/>
	<path fill-rule="evenodd" clip-rule="evenodd" fill="#E18529" d="M81.8,310.1c0,0,2.7-3.9,9.8-5.1c6.8-0.9,7.8,3.1,11.9,3.1
		c3.8,0,10-3.1,10-3.1c0,0-6.2,5.6-11.1,5.3c-4.6,0-6.3-2.7-11.1-2.3C86.4,308.1,81.8,310.4,81.8,310.1L81.8,310.1z"/>
	<path fill-rule="evenodd" clip-rule="evenodd" fill="#E18529" d="M95.1,310.5c0,0-2.7-4.1-9.5-5.6c-6.8-1.3-8.2,2.6-12,2.4
		c-4-0.2-10.1-3.7-10.1-3.7c0,0,6,5.9,10.9,5.9c4.9,0.3,6.5-2.3,11.4-1.7C90.8,308.3,95.1,310.8,95.1,310.5L95.1,310.5z"/>
	<path fill-rule="evenodd" clip-rule="evenodd" fill="#E18529" d="M72.9,302.9c-0.8-1.2-2.2-6.1-1.4-6.6c1.1-0.2,4.3,4.9,4.1,9.2
		c-2.2,0.7-9.2-1.2-9.2-2.3C66.9,301.3,71,302.2,72.9,302.9L72.9,302.9z"/>
	<path fill-rule="evenodd" clip-rule="evenodd" fill="#E18529" d="M68.6,298.5c-0.6-1.4-1.1-6.5-0.3-6.8c1.4,0.1,3.5,5.7,2.4,9.9
		c-2.1,0.2-8.9-3.4-8.4-4.7C63.1,295.4,66.9,297.3,68.6,298.5L68.6,298.5z"/>
	<path fill-rule="evenodd" clip-rule="evenodd" fill="#E18529" d="M65,293.4c-0.3-1.1-0.2-6.3,0.6-6.4c1.3,0.1,3,6.2,1.3,9.8
		c-2.2,0.1-8.6-4.5-8.1-5.6C59.8,289.7,63.4,292.2,65,293.4L65,293.4z"/>
	<path fill-rule="evenodd" clip-rule="evenodd" fill="#E18529" d="M62.3,288.3c-0.2-1.4,0.6-6.4,1.3-6.4c1.4,0.3,2.3,6.7,0,10
		c-2.1-0.5-7.9-5.9-7.3-6.9C57.5,283.7,61,286.8,62.3,288.3L62.3,288.3z"/>
	<path fill-rule="evenodd" clip-rule="evenodd" fill="#E18529" d="M60.4,283c0-1.3,1.1-6.2,2.2-6.1c1,0.7,1.4,6.7-1.1,9.9
		c-2.4-0.9-7.3-7.4-6.7-8.2C56.1,277.6,59.1,281.2,60.4,283L60.4,283z"/>
	<path fill-rule="evenodd" clip-rule="evenodd" fill="#E18529" d="M61,277c-0.2,5.1-1.3,5-3.2,1.1c-1.1-1.5-1.1-7.7-0.3-7.6
		C58.5,270.3,61,274.9,61,277L61,277z"/>
	<path fill-rule="evenodd" clip-rule="evenodd" fill="#E18529" d="M104.1,304.3c0.6-1.1,1.9-6,1.1-6.6c-1.1-0.2-4.3,4.6-4,9
		c2.2,0.9,9.2-0.6,9.2-1.7C109.7,303.1,105.6,303.8,104.1,304.3L104.1,304.3z"/>
	<path fill-rule="evenodd" clip-rule="evenodd" fill="#E18529" d="M108.1,300.2c0.5-1.4,1-6.5,0.2-6.8c-1.3,0-3.5,5.4-2.4,9.7
		c2.2,0.3,9-2.8,8.7-4.2C113.8,297.4,110,299.1,108.1,300.2L108.1,300.2z"/>
	<path fill-rule="evenodd" clip-rule="evenodd" fill="#E18529" d="M111.6,295.3c0.3-1.1,0.6-6.3-0.5-6.4c-1.1,0-3,5.9-1.4,9.7
		c2.2,0.2,8.7-4,8.1-5C116.8,291.9,113.3,294.2,111.6,295.3C111.6,295.3,111.6,295.3,111.6,295.3z"/>
	<path fill-rule="evenodd" clip-rule="evenodd" fill="#E18529" d="M114.4,290.4c0.3-1.4-0.3-6.5-1.3-6.5c-1.1,0.3-2.2,6.6,0,10.1
		c2.1-0.3,7.8-5.3,7.3-6.4C119.2,286.1,116,288.9,114.4,290.4L114.4,290.4z"/>
	<path fill-rule="evenodd" clip-rule="evenodd" fill="#E18529" d="M116.2,285.2c0-1.4-1.1-6.2-2.1-6.2c-1.1,0.5-1.4,6.5,1.3,9.9
		c2.2-0.6,7-6.9,6.5-7.8C120.6,280.2,117.6,283.4,116.2,285.2L116.2,285.2z"/>
	<path fill-rule="evenodd" clip-rule="evenodd" fill="#E18529" d="M116,279.2c0,5.2,1.1,5.1,3,1.3c1.1-1.4,1.1-7.6,0.2-7.6
		C118.1,272.7,116,277.1,116,279.2L116,279.2z"/>
	<path fill-rule="evenodd" clip-rule="evenodd" fill="#C14029" d="M114.4,225.4c-1.3,0-2.6,0.1-3.9,0.1c0,1.1,0,2.1,0,3.2
		c-1.2,0-2.3,0-3.5,0c0,1.1,0,2.2,0,3.3c-4.9,0.1-9.8,0-14.6-0.1c-0.8,1.1-1.7,2.1-2.5,3.2c0.5,0.6,0.9,1.1,1.4,1.7c2,0,4,0.1,6,0.1
		c0.4-0.6,0.9-1.1,1.3-1.7c-2.1,0-4.2,0-6.2-0.1c0.5-0.5,0.9-1,1.4-1.5c2.8,0,5.6,0.1,8.4,0.1c-1.2,1.6-2.3,3.2-3.5,4.8
		c-2.9,0-5.8-0.1-8.7-0.1c-0.8-0.6-1.6-1.1-2.4-1.7c-0.8,0.5-1.6,1-2.4,1.6c-2.8-0.1-5.6-0.2-8.4-0.4c-1.2-1.7-2.4-3.4-3.6-5.1
		c2.8,0.2,5.6,0.3,8.5,0.4c0.3,0.5,0.7,1.1,1,1.6c-2-0.1-4-0.2-5.9-0.3c0.4,0.6,0.9,1.2,1.3,1.7c2,0.1,4,0.2,6,0.3
		c0.4-0.5,0.7-1.1,1.1-1.6c-0.8-1.1-1.6-2.2-2.4-3.3c-4.4-0.2-8.9-0.4-13.3-0.7c0-1.1,0-2.2,0-3.3c-1.2-0.1-2.4-0.2-3.5-0.3
		c0-1.1,0-2.1,0-3.2c-1.2-0.1-2.4-0.2-3.5-0.3c0-4.9,0-9.9,0-14.8c1.2,0.1,2.4,0.2,3.5,0.3c0-1.1,0-2.2,0-3.3
		c1.2,0.1,2.4,0.2,3.5,0.3c0-1.1,0-2.2,0-3.2c4.4,0.3,8.9,0.6,13.3,0.7c0.8-1,1.6-2.1,2.4-3.2c-0.4-0.6-0.7-1.1-1.1-1.7
		c-2-0.1-4-0.2-6-0.3c-0.4,0.5-0.9,1.1-1.3,1.6c2,0.1,4,0.2,5.9,0.3c-0.3,0.5-0.7,1.1-1,1.6c-2.8-0.1-5.7-0.3-8.5-0.4
		c1.2-1.5,2.4-3.1,3.6-4.6c2.8,0.2,5.6,0.3,8.4,0.4c0.8,0.5,1.6,1.1,2.4,1.6c0.8-0.5,1.6-1,2.4-1.5c2.9,0.1,5.8,0.1,8.7,0.1
		c1.2,1.6,2.3,3.2,3.5,4.9c-2.8,0-5.6,0-8.4-0.1c-0.5-0.6-0.9-1.1-1.4-1.7c2.1,0,4.2,0.1,6.2,0.1c-0.4-0.6-0.9-1.1-1.3-1.7
		c-2,0-4,0-6-0.1c-0.5,0.5-0.9,1.1-1.4,1.6c0.8,1.1,1.7,2.2,2.5,3.3c4.9,0.1,9.8,0.1,14.6,0.1c0,1.1,0,2.2,0,3.2c1.2,0,2.3,0,3.5,0
		c0,1.1,0,2.2,0,3.3c1.3,0,2.6,0,3.9-0.1C114.4,215.5,114.4,220.5,114.4,225.4z"/>
	<path fill-rule="evenodd" clip-rule="evenodd" fill="#32755B" d="M63.4,211c0,3.8,0,7.6,0,11.3c1.2,0.1,2.4,0.2,3.5,0.3
		c0,1.1,0,2.2,0,3.3c1.3,0.1,2.5,0.2,3.8,0.3c0,1.1,0,2.2,0,3.2c4,0.3,8,0.5,11.9,0.7c1.6,1.7,3.2,3.3,4.9,5
		c1.6-1.5,3.3-3.1,4.9-4.7c4.4,0.1,8.8,0.1,13.2,0.1c0-1.1,0-2.2,0-3.2c1.3,0,2.6,0,3.8,0c0-1.1,0-2.2,0-3.3c1.2,0,2.4,0,3.6-0.1
		c0-3.9,0-7.7,0-11.6c-1.2,0-2.4,0-3.6,0.1c0-1.1,0-2.2,0-3.2c-1.3,0.1-2.6,0.2-3.8,0.3c0-1.2,0-2.4,0-3.6c-4.4,0-8.8,0-13.2-0.1
		c-1.6-1.6-3.3-3.3-4.9-4.9c-1.6,1.6-3.2,3.1-4.9,4.6c-4-0.2-8-0.4-11.9-0.7c0,1.2,0,2.4,0,3.6c-1.3-0.1-2.5-0.2-3.8-0.3
		c0,1.1,0,2.2,0,3.2C65.7,211.2,64.6,211.1,63.4,211z"/>
	<path fill="#E18529" d="M64.2,222.4c-0.5,0-1.1-0.1-1.6-0.1c0-3.8,0-7.6,0-11.3c0.5,0,1.1,0.1,1.6,0.1
		C64.2,214.8,64.2,218.6,64.2,222.4z M63.4,223.2c-0.3,0-0.5,0-0.8-0.1c0-0.3,0-0.6,0-0.8c0.3,0,0.5,0,0.8,0.1
		C63.4,222.6,63.4,222.9,63.4,223.2z M63.4,221.6c1.2,0.1,2.4,0.2,3.5,0.3c0,0.5,0,1.1,0,1.6c-1.2-0.1-2.4-0.2-3.5-0.3
		C63.4,222.6,63.4,222.1,63.4,221.6z M66.9,221.8c0.3,0,0.6,0,0.9,0.1c0,0.3,0,0.5,0,0.8c-0.3,0-0.6,0-0.9-0.1
		C66.9,222.4,66.9,222.1,66.9,221.8z M67.8,226c-0.6,0-1.1-0.1-1.7-0.1c0-1.1,0-2.2,0-3.3c0.6,0,1.1,0.1,1.7,0.1
		C67.8,223.8,67.8,224.9,67.8,226z M66.9,226.7c-0.3,0-0.5,0-0.8-0.1c0-0.3,0-0.5,0-0.8c0.3,0,0.5,0,0.8,0.1
		C66.9,226.2,66.9,226.4,66.9,226.7z M66.9,225.1c1.3,0.1,2.5,0.2,3.8,0.3c0,0.5,0,1.1,0,1.6c-1.3-0.1-2.5-0.2-3.8-0.3
		C66.9,226.2,66.9,225.6,66.9,225.1z M70.7,225.3c0.3,0,0.5,0,0.8,0.1c0,0.3,0,0.6,0,0.8c-0.3,0-0.5,0-0.8-0.1
		C70.7,225.9,70.7,225.6,70.7,225.3z M71.5,229.5c-0.6,0-1.1-0.1-1.7-0.1c0-1.1,0-2.2,0-3.2c0.6,0,1.1,0.1,1.7,0.1
		C71.5,227.3,71.5,228.4,71.5,229.5z M70.7,230.2c-0.3,0-0.6,0-0.8-0.1c0-0.3,0-0.5,0-0.8c0.3,0,0.6,0,0.8,0.1
		C70.7,229.7,70.7,230,70.7,230.2z M70.7,228.6c4,0.3,8,0.5,11.9,0.7c0,0.5,0,1.1,0,1.6c-4-0.2-8-0.4-11.9-0.7
		C70.7,229.7,70.7,229.1,70.7,228.6z M82.6,229.2c0.2,0,0.4,0,0.6,0c0.1,0,0.2,0,0.3,0c-0.3,0.3-0.6,0.5-0.8,0.8
		C82.6,229.8,82.6,229.5,82.6,229.2z M83.5,229.3c1.5,1.7,3.1,3.4,4.6,5c-0.4,0.4-0.7,0.9-1.1,1.3c-1.6-1.7-3.2-3.3-4.9-5
		C82.6,230.1,83,229.7,83.5,229.3z M88.1,235.6c-0.2,0.2-0.4,0.4-0.6,0.5c-0.2-0.2-0.4-0.4-0.5-0.6c0.2-0.2,0.4-0.4,0.5-0.6
		C87.7,235.2,87.9,235.4,88.1,235.6z M87,234.3c1.6-1.6,3.2-3.2,4.9-4.7c0.4,0.5,0.7,0.9,1.1,1.4c-1.6,1.6-3.3,3.2-4.9,4.7
		C87.7,235.2,87.3,234.7,87,234.3z M91.9,229.5c0.1,0,0.2,0,0.3,0c0.1,0,0.2,0,0.3,0c0,0.3,0,0.6,0,0.8
		C92.2,230.1,92,229.8,91.9,229.5z M92.4,229.5c4.4,0.1,8.8,0.1,13.2,0.1c0,0.5,0,1.1,0,1.6c-4.4,0-8.8,0-13.2-0.1
		C92.4,230.6,92.4,230.1,92.4,229.5z M106.6,231.2c-0.3,0-0.6,0-0.9,0c0-0.3,0-0.5,0-0.8c0.3,0,0.6,0,0.9,0
		C106.6,230.7,106.6,231,106.6,231.2z M104.9,227.2c0.6,0,1.1,0,1.7,0c0,1.1,0,2.2,0,3.2c-0.6,0-1.1,0-1.7,0
		C104.9,229.4,104.9,228.3,104.9,227.2z M104.9,226.4c0.3,0,0.5,0,0.8,0c0,0.3,0,0.6,0,0.8c-0.3,0-0.5,0-0.8,0
		C104.9,226.9,104.9,226.6,104.9,226.4z M105.6,226.4c1.3,0,2.6,0,3.8,0c0,0.5,0,1.1,0,1.6c-1.3,0-2.6,0-3.8,0
		C105.6,227.4,105.6,226.9,105.6,226.4z M110.3,227.9c-0.3,0-0.5,0-0.8,0c0-0.3,0-0.5,0-0.8c0.3,0,0.5,0,0.8,0
		C110.3,227.4,110.3,227.7,110.3,227.9z M108.7,223.9c0.5,0,1.1,0,1.6,0c0,1.1,0,2.2,0,3.3c-0.5,0-1.1,0-1.6,0
		C108.7,226.1,108.7,225,108.7,223.9z M108.7,223.1c0.3,0,0.5,0,0.8,0c0,0.3,0,0.5,0,0.8c-0.3,0-0.5,0-0.8,0
		C108.7,223.6,108.7,223.4,108.7,223.1z M109.5,223.1c1.2,0,2.4,0,3.6-0.1c0,0.5,0,1.1,0,1.6c-1.2,0-2.4,0-3.6,0.1
		C109.5,224.2,109.5,223.6,109.5,223.1z M113.8,224.6c-0.2,0-0.5,0-0.7,0c0-0.3,0-0.6,0-0.8c0.2,0,0.5,0,0.7,0
		C113.8,224,113.8,224.3,113.8,224.6z M112.2,212.2c0.5,0,1.1,0,1.6,0c0,3.9,0,7.7,0,11.6c-0.5,0-1.1,0-1.6,0
		C112.2,219.9,112.2,216.1,112.2,212.2z M113.1,211.3c0.2,0,0.5,0,0.7,0c0,0.3,0,0.6,0,0.8c-0.2,0-0.5,0-0.7,0
		C113.1,211.9,113.1,211.6,113.1,211.3z M113.1,212.9c-1.2,0-2.4,0-3.6,0.1c0-0.5,0-1.1,0-1.6c1.2,0,2.4,0,3.6-0.1
		C113.1,211.9,113.1,212.4,113.1,212.9z M109.5,213c-0.3,0-0.5,0-0.8,0c0-0.3,0-0.5,0-0.8c0.3,0,0.5,0,0.8,0
		C109.5,212.5,109.5,212.7,109.5,213z M108.7,209c0.5,0,1.1,0,1.6,0c0,1.1,0,2.2,0,3.2c-0.5,0-1.1,0-1.6,0
		C108.7,211.2,108.7,210.1,108.7,209z M109.5,208.2c0.3,0,0.5,0,0.8,0c0,0.3,0,0.6,0,0.8c-0.3,0-0.5,0-0.8,0
		C109.5,208.7,109.5,208.4,109.5,208.2z M109.5,209.8c-1.3,0.1-2.6,0.2-3.8,0.3c0-0.5,0-1,0-1.6c1.3-0.1,2.6-0.2,3.8-0.4
		C109.5,208.7,109.5,209.3,109.5,209.8z M105.6,210.1c-0.3,0-0.5,0-0.8,0c0-0.3,0-0.5,0-0.8c0.3,0,0.5,0,0.8,0
		C105.6,209.6,105.6,209.8,105.6,210.1z M104.9,205.8c0.6,0,1.1,0,1.7,0c0,1.2,0,2.4,0,3.6c-0.6,0-1.1,0-1.7,0
		C104.9,208.1,104.9,206.9,104.9,205.8z M105.6,205c0.3,0,0.6,0,0.9,0c0,0.3,0,0.6,0,0.8c-0.3,0-0.6,0-0.9,0
		C105.6,205.5,105.6,205.2,105.6,205z M105.6,206.6c-4.4,0-8.8,0-13.2-0.1c0-0.6,0-1.1,0-1.7c4.4,0.1,8.8,0.1,13.2,0.1
		C105.6,205.5,105.6,206.1,105.6,206.6z M92.4,206.6c-0.1,0-0.2,0-0.3,0c-0.1,0-0.2,0-0.3,0c0.2-0.3,0.4-0.6,0.6-0.9
		C92.4,206,92.4,206.3,92.4,206.6z M91.9,206.6c-1.6-1.7-3.2-3.3-4.9-5c0.4-0.4,0.7-0.9,1.1-1.3c1.6,1.7,3.2,3.3,4.9,5
		C92.6,205.6,92.2,206.1,91.9,206.6z M87,200.2c0.2-0.2,0.4-0.4,0.5-0.6c0.2,0.2,0.4,0.4,0.6,0.6c-0.2,0.2-0.4,0.4-0.6,0.5
		C87.3,200.6,87.2,200.4,87,200.2z M88.1,201.6c-1.5,1.6-3.1,3.2-4.6,4.8c-0.5-0.5-0.9-1-1.4-1.4c1.6-1.5,3.2-3.1,4.9-4.7
		C87.3,200.7,87.7,201.1,88.1,201.6z M83.5,206.3c-0.1,0-0.2,0-0.3,0c-0.2,0-0.4,0-0.6,0c0-0.3,0-0.6,0-0.9
		C82.9,205.7,83.2,206,83.5,206.3z M82.6,206.3c-4-0.2-8-0.4-11.9-0.7c0-0.6,0-1.1,0-1.7c4,0.3,8,0.5,11.9,0.7
		C82.6,205.2,82.6,205.7,82.6,206.3z M69.9,203.9c0.3,0,0.6,0,0.8,0.1c0,0.3,0,0.6,0,0.8c-0.3,0-0.6,0-0.8-0.1
		C69.9,204.4,69.9,204.2,69.9,203.9z M71.5,208.4c-0.6,0-1.1-0.1-1.7-0.1c0-1.2,0-2.4,0-3.6c0.6,0,1.1,0.1,1.7,0.1
		C71.5,206,71.5,207.2,71.5,208.4z M71.5,209.1c-0.3,0-0.5,0-0.8-0.1c0-0.3,0-0.5,0-0.8c0.3,0,0.5,0,0.8,0.1
		C71.5,208.6,71.5,208.9,71.5,209.1z M70.7,209.1c-1.3-0.1-2.5-0.2-3.8-0.3c0-0.5,0-1,0-1.6c1.3,0.1,2.5,0.2,3.8,0.3
		C70.7,208,70.7,208.6,70.7,209.1z M66.1,207.2c0.3,0,0.5,0,0.8,0.1c0,0.3,0,0.5,0,0.8c-0.3,0-0.5,0-0.8-0.1
		C66.1,207.7,66.1,207.4,66.1,207.2z M67.8,211.3c-0.6,0-1.1-0.1-1.7-0.1c0-1.1,0-2.2,0-3.2c0.6,0,1.1,0.1,1.7,0.1
		C67.8,209.2,67.8,210.3,67.8,211.3z M67.8,212.2c-0.3,0-0.6,0-0.9-0.1c0-0.3,0-0.6,0-0.8c0.3,0,0.6,0,0.9,0.1
		C67.8,211.6,67.8,211.9,67.8,212.2z M66.9,212.1c-1.2-0.1-2.4-0.2-3.5-0.3c0-0.5,0-1.1,0-1.6c1.2,0.1,2.4,0.2,3.5,0.3
		C66.9,211,66.9,211.6,66.9,212.1z M62.6,210.1c0.3,0,0.5,0,0.8,0.1c0,0.3,0,0.5,0,0.8c-0.3,0-0.5,0-0.8-0.1
		C62.6,210.7,62.6,210.4,62.6,210.1z"/>
	<path fill-rule="evenodd" clip-rule="evenodd" fill="#C14029" d="M80.5,207c-2.4,2.6-4.9,5.2-7.3,7.7c0-2.7,0-5.4,0-8.1
		C75.6,206.7,78,206.9,80.5,207z"/>
	<path fill-rule="evenodd" clip-rule="evenodd" fill="#C14029" d="M94.8,207.4c2.4,2.7,4.9,5.5,7.3,8.2c0-2.7,0-5.4,0-8.1
		C99.7,207.4,97.3,207.4,94.8,207.4z"/>
	<path fill-rule="evenodd" clip-rule="evenodd" fill="#C14029" d="M80.5,228.3c-2.4-2.8-4.9-5.6-7.3-8.4c0,2.7,0,5.4,0,8
		C75.6,228.1,78,228.2,80.5,228.3z"/>
	<path fill-rule="evenodd" clip-rule="evenodd" fill="#C14029" d="M94.8,228.7c2.4-2.6,4.9-5.3,7.3-8c0,2.7,0,5.4,0,8
		C99.7,228.8,97.3,228.8,94.8,228.7z"/>
	<path fill-rule="evenodd" clip-rule="evenodd" fill="#C14029" d="M97.3,212.3c-0.8,1.1-1.7,2.1-2.5,3.2c1.6,0,3.2,0,4.9,0
		C98.9,214.5,98.1,213.4,97.3,212.3z"/>
	<path fill-rule="evenodd" clip-rule="evenodd" fill="#C14029" d="M78,211.7c-0.8,1-1.6,2.1-2.4,3.1c1.6,0.1,3.2,0.2,4.9,0.2
		C79.6,214,78.8,212.8,78,211.7z"/>
	<path fill-rule="evenodd" clip-rule="evenodd" fill="#C14029" d="M78,223.3c-0.8-1.1-1.6-2.2-2.4-3.3c1.6,0.1,3.2,0.2,4.9,0.2
		C79.6,221.3,78.8,222.3,78,223.3z"/>
	<path fill-rule="evenodd" clip-rule="evenodd" fill="#C14029" d="M97.3,223.9c-0.8-1.1-1.7-2.1-2.5-3.2c1.6,0,3.2,0,4.9,0
		C98.9,221.8,98.1,222.8,97.3,223.9z"/>
	<path fill-rule="evenodd" clip-rule="evenodd" fill="#E18529" d="M87.5,231.8c-0.8-1.1-1.6-2.2-2.4-3.3c1.6,0.1,3.2,0.1,4.9,0.1
		C89.1,229.7,88.3,230.8,87.5,231.8z"/>
	<path fill-rule="evenodd" clip-rule="evenodd" fill="#E18529" d="M87.5,215.3c-0.8-1.1-1.6-2.2-2.4-3.3c1.6,0.1,3.2,0.1,4.9,0.1
		C89.1,213.2,88.3,214.3,87.5,215.3z"/>
	<path fill-rule="evenodd" clip-rule="evenodd" fill="#E18529" d="M87.5,204c-0.8,1.1-1.6,2.1-2.4,3.2c1.6,0.1,3.2,0.1,4.9,0.1
		C89.1,206.2,88.3,205.1,87.5,204z"/>
	<path fill-rule="evenodd" clip-rule="evenodd" fill="#E18529" d="M87.5,220.5c-0.8,1-1.6,2.1-2.4,3.1c1.6,0.1,3.2,0.1,4.9,0.1
		C89.1,222.7,88.3,221.6,87.5,220.5z"/>
	<path fill-rule="evenodd" clip-rule="evenodd" fill="#E18529" d="M94.8,217.2c1.6,0,3.2,0,4.9,0c0-0.6,0-1.1,0-1.7
		c-1.6,0-3.2,0-4.9,0C94.8,216.1,94.8,216.6,94.8,217.2z"/>
	<path fill-rule="evenodd" clip-rule="evenodd" fill="#CF3F27" d="M76.7,218.4c0.8,0,1.6,0.1,2.4,0.1c0-0.6,0-1.2,0-1.9
		c-0.8,0-1.6-0.1-2.4-0.1C76.7,217.2,76.7,217.8,76.7,218.4z"/>
	<path fill-rule="evenodd" clip-rule="evenodd" fill="#CF3F27" d="M96.2,219c0.8,0,1.7,0,2.5,0c0-0.6,0-1.2,0-1.9
		c-0.8,0-1.7,0-2.5,0C96.2,217.8,96.2,218.4,96.2,219z"/>
	<path fill-rule="evenodd" clip-rule="evenodd" fill="#AE3D2D" d="M85.1,208.8c1.6,0.1,3.2,0.1,4.9,0.1c0-0.5,0-1.1,0-1.6
		c-1.6,0-3.2-0.1-4.9-0.1C85.1,207.7,85.1,208.2,85.1,208.8z"/>
	<path fill-rule="evenodd" clip-rule="evenodd" fill="#AE3D2D" d="M85.1,212c1.6,0.1,3.2,0.1,4.9,0.1c0-0.5,0-1,0-1.5
		c-1.6,0-3.2-0.1-4.9-0.1C85.1,211,85.1,211.5,85.1,212z"/>
	<path fill-rule="evenodd" clip-rule="evenodd" fill="#AE3D2D" d="M84,210.4c2.5,0.1,4.9,0.2,7.4,0.2c0-0.6,0-1.1,0-1.7
		c-2.5-0.1-4.9-0.1-7.4-0.2C84,209.3,84,209.9,84,210.4z"/>
	<path fill-rule="evenodd" clip-rule="evenodd" fill="#AE3D2D" d="M85.1,225.3c1.6,0.1,3.2,0.1,4.9,0.1c0-0.6,0-1.1,0-1.7
		c-1.6,0-3.2-0.1-4.9-0.1C85.1,224.2,85.1,224.8,85.1,225.3z"/>
	<path fill-rule="evenodd" clip-rule="evenodd" fill="#AE3D2D" d="M85.1,228.5c1.6,0.1,3.2,0.1,4.9,0.1c0-0.5,0-1,0-1.5
		c-1.6,0-3.2-0.1-4.9-0.1C85.1,227.5,85.1,228,85.1,228.5z"/>
	<path fill-rule="evenodd" clip-rule="evenodd" fill="#AE3D2D" d="M84,226.9c2.5,0.1,4.9,0.2,7.4,0.2c0-0.5,0-1.1,0-1.6
		c-2.5-0.1-4.9-0.1-7.4-0.2C84,225.8,84,226.4,84,226.9z"/>
	<path fill-rule="evenodd" clip-rule="evenodd" fill="#E18529" d="M94.8,220.7c1.6,0,3.2,0,4.9,0c0-0.6,0-1.1,0-1.7
		c-1.6,0-3.2,0-4.9,0C94.8,219.6,94.8,220.1,94.8,220.7z"/>
	<path fill-rule="evenodd" clip-rule="evenodd" fill="#E18529" d="M75.6,216.5c1.6,0.1,3.2,0.2,4.9,0.2c0-0.6,0-1.1,0-1.7
		c-1.6-0.1-3.2-0.2-4.9-0.2C75.6,215.4,75.6,215.9,75.6,216.5z"/>
	<path fill-rule="evenodd" clip-rule="evenodd" fill="#E18529" d="M75.6,220c1.6,0.1,3.2,0.2,4.9,0.2c0-0.6,0-1.1,0-1.7
		c-1.6-0.1-3.2-0.2-4.9-0.2C75.6,218.9,75.6,219.5,75.6,220z"/>
	<path fill-rule="evenodd" clip-rule="evenodd" fill="#E18529" d="M74.2,218.3c0.8,0,1.6,0.1,2.5,0.1c0-0.6,0-1.2,0-1.9
		c-0.8,0-1.6-0.1-2.5-0.1C74.2,217,74.2,217.7,74.2,218.3z"/>
	<path fill-rule="evenodd" clip-rule="evenodd" fill="#E18529" d="M79.1,218.5c0.8,0,1.7,0.1,2.5,0.1c0-0.6,0-1.2,0-1.9
		c-0.8,0-1.7-0.1-2.5-0.1C79.1,217.3,79.1,217.9,79.1,218.5z"/>
	<path fill-rule="evenodd" clip-rule="evenodd" fill="#E18529" d="M93.8,219c0.8,0,1.6,0,2.4,0c0-0.6,0-1.2,0-1.9
		c-0.8,0-1.6,0-2.4,0C93.8,217.8,93.8,218.4,93.8,219z"/>
	<path fill-rule="evenodd" clip-rule="evenodd" fill="#E18529" d="M98.7,219.1c0.7,0,1.4,0,2.2,0c0-0.6,0-1.2,0-1.9
		c-0.7,0-1.4,0-2.2,0C98.7,217.8,98.7,218.4,98.7,219.1z"/>
	<path fill-rule="evenodd" clip-rule="evenodd" fill="#FFFFFF" d="M84.8,226.1c0,0,0,0.2-0.3,0.2c-0.1-0.1-0.2-0.2-0.3-0.2
		c0-0.3,0.3-0.5,0.3-0.5C84.8,225.6,84.8,225.8,84.8,226.1L84.8,226.1z"/>
	<path fill-rule="evenodd" clip-rule="evenodd" fill="#FFFFFF" d="M88.1,226.2c0,0-0.2,0.2-0.6,0.2c-0.1-0.1-0.2-0.2-0.2-0.2
		c0-0.3,0.2-0.5,0.2-0.5C87.8,225.7,88.1,225.9,88.1,226.2L88.1,226.2z"/>
	<path fill-rule="evenodd" clip-rule="evenodd" fill="#FFFFFF" d="M91,226c0,0.3-0.2,0.5-0.2,0.5c-0.2,0-0.5-0.2-0.5-0.5
		c0,0,0.3-0.2,0.5-0.2C90.8,225.8,90.9,225.9,91,226z"/>
	<path fill-rule="evenodd" clip-rule="evenodd" fill="#FFFFFF" d="M86.2,224.5c-0.1,0.1-0.2,0.2-0.2,0.3c-0.3,0-0.3-0.3-0.3-0.3
		c0-0.3,0-0.5,0.3-0.5C85.9,224,86.2,224.2,86.2,224.5L86.2,224.5z"/>
	<path fill-rule="evenodd" clip-rule="evenodd" fill="#FFFFFF" d="M89.7,224.3c0,0.3,0,0.6-0.2,0.6c-0.3,0-0.2-0.3-0.3-0.6
		c0,0,0-0.3,0.3-0.3C89.7,224.1,89.7,224.3,89.7,224.3L89.7,224.3z"/>
	<path fill-rule="evenodd" clip-rule="evenodd" fill="#FFFFFF" d="M86.2,227.5c0,0.3-0.2,0.6-0.2,0.6c-0.3,0-0.3-0.3-0.3-0.6
		c0,0,0-0.3,0.3-0.3C86,227.3,86.1,227.4,86.2,227.5z"/>
	<path fill-rule="evenodd" clip-rule="evenodd" fill="#FFFFFF" d="M89.7,227.9c0,0.3,0,0.3-0.2,0.3c-0.3,0-0.2,0-0.3-0.3
		c0-0.3,0-0.6,0.3-0.6C89.7,227.3,89.7,227.6,89.7,227.9L89.7,227.9z"/>
	<path fill-rule="evenodd" clip-rule="evenodd" fill="#FFFFFF" d="M94.6,218c0,0.3-0.2,0.5-0.2,0.5c-0.3,0-0.3-0.3-0.3-0.5
		c0-0.3,0-0.3,0.3-0.3C94.3,217.7,94.6,217.7,94.6,218L94.6,218z"/>
	<path fill-rule="evenodd" clip-rule="evenodd" fill="#FFFFFF" d="M97.6,218c0,0.3,0,0.5-0.2,0.5c-0.3,0-0.3-0.3-0.3-0.5
		c0-0.3,0-0.3,0.3-0.3C97.6,217.7,97.6,217.7,97.6,218L97.6,218z"/>
	<path fill-rule="evenodd" clip-rule="evenodd" fill="#FFFFFF" d="M100.5,218c0,0.3,0,0.5-0.2,0.5c-0.3,0-0.3-0.3-0.3-0.5
		c0-0.3,0-0.3,0.3-0.3C100.5,217.7,100.5,217.7,100.5,218L100.5,218z"/>
	<path fill-rule="evenodd" clip-rule="evenodd" fill="#FFFFFF" d="M95.7,216.4c0,0.2,0,0.5-0.3,0.5c0,0-0.3-0.3-0.2-0.5
		c0-0.3,0.3-0.3,0.3-0.3C95.7,216.1,95.7,216.1,95.7,216.4L95.7,216.4z"/>
	<path fill-rule="evenodd" clip-rule="evenodd" fill="#FFFFFF" d="M99.4,216.4c0,0.2-0.2,0.5-0.2,0.5c-0.3,0-0.5-0.3-0.5-0.5
		c0-0.3,0.2-0.3,0.5-0.3C99.2,216.1,99.4,216.1,99.4,216.4L99.4,216.4z"/>
	<path fill-rule="evenodd" clip-rule="evenodd" fill="#FFFFFF" d="M95.7,219.6c0,0.3,0,0.5-0.3,0.5c0,0-0.3-0.2-0.2-0.5
		c0-0.3,0.3-0.3,0.2-0.3C95.7,219.3,95.7,219.3,95.7,219.6L95.7,219.6z"/>
	<path fill-rule="evenodd" clip-rule="evenodd" fill="#FFFFFF" d="M99.4,219.6c0,0.3-0.2,0.5-0.2,0.5c-0.3,0-0.5-0.2-0.5-0.5
		c0,0,0.2-0.3,0.5-0.3C99.3,219.4,99.4,219.5,99.4,219.6z"/>
	<path fill-rule="evenodd" clip-rule="evenodd" fill="#FFFFFF" d="M84.8,209.6c0,0.2,0,0.5-0.3,0.5c0,0-0.3-0.3-0.3-0.5
		c0.1-0.1,0.2-0.2,0.3-0.3C84.8,209.3,84.8,209.6,84.8,209.6L84.8,209.6z"/>
	<path fill-rule="evenodd" clip-rule="evenodd" fill="#FFFFFF" d="M87.8,209.7c0,0.2,0,0.5-0.3,0.5c0,0-0.2-0.3-0.2-0.5
		c0.1-0.1,0.2-0.2,0.2-0.3C87.8,209.4,87.8,209.7,87.8,209.7L87.8,209.7z"/>
	<path fill-rule="evenodd" clip-rule="evenodd" fill="#FFFFFF" d="M91,209.8c0,0.2-0.3,0.5-0.5,0.5c0,0-0.3-0.3-0.3-0.5
		c0-0.3,0.3-0.3,0.3-0.3C90.8,209.5,91,209.5,91,209.8L91,209.8z"/>
	<path fill-rule="evenodd" clip-rule="evenodd" fill="#FFFFFF" d="M86.2,208c0,0.3-0.2,0.5-0.2,0.5c-0.3,0-0.3-0.2-0.3-0.6
		c0,0,0-0.3,0.3-0.3C86,207.8,86.1,207.9,86.2,208z"/>
	<path fill-rule="evenodd" clip-rule="evenodd" fill="#FFFFFF" d="M89.7,208.1c0,0.3,0,0.5-0.2,0.5c-0.3,0-0.2-0.2-0.3-0.6
		c0-0.3,0-0.3,0.3-0.3C89.7,207.8,89.7,207.8,89.7,208.1L89.7,208.1z"/>
	<path fill-rule="evenodd" clip-rule="evenodd" fill="#FFFFFF" d="M86.2,211.2c0,0.3-0.2,0.6-0.2,0.6c-0.3,0-0.5-0.3-0.5-0.6
		c0-0.2,0.3-0.2,0.5-0.2C85.9,211,86.2,211,86.2,211.2L86.2,211.2z"/>
	<path fill-rule="evenodd" clip-rule="evenodd" fill="#FFFFFF" d="M89.7,211.7c0,0,0,0.3-0.2,0.3c-0.3,0-0.2-0.3-0.3-0.3
		c0-0.3,0-0.6,0.3-0.5C89.7,211.1,89.7,211.3,89.7,211.7L89.7,211.7z"/>
	<path fill-rule="evenodd" clip-rule="evenodd" fill="#FFFFFF" d="M75.3,217.5c0,0.3-0.2,0.3-0.2,0.3c-0.3,0-0.6,0-0.6-0.3
		c0-0.3,0.3-0.5,0.6-0.5C75.1,217,75.3,217.3,75.3,217.5L75.3,217.5z"/>
	<path fill-rule="evenodd" clip-rule="evenodd" fill="#FFFFFF" d="M78.3,217.7c0,0.3-0.4,0.3-0.4,0.3c-0.3,0-0.2,0-0.2-0.3
		c0-0.3,0-0.5,0.2-0.5C78,217.1,78.3,217.4,78.3,217.7L78.3,217.7z"/>
	<path fill-rule="evenodd" clip-rule="evenodd" fill="#FFFFFF" d="M81.3,217.8c-0.1,0.1-0.2,0.2-0.3,0.3c-0.3,0-0.3-0.3-0.3-0.3
		c0-0.3,0-0.5,0.3-0.5C81,217.3,81.3,217.6,81.3,217.8L81.3,217.8z"/>
	<path fill-rule="evenodd" clip-rule="evenodd" fill="#FFFFFF" d="M76.4,215.9c0,0.3,0,0.3-0.2,0.3c-0.3,0-0.3,0-0.3-0.3
		c0-0.2,0-0.5,0.3-0.5C76.4,215.4,76.4,215.7,76.4,215.9L76.4,215.9z"/>
	<path fill-rule="evenodd" clip-rule="evenodd" fill="#FFFFFF" d="M79.9,216.1c0,0,0,0.3-0.2,0.3c-0.1-0.1-0.2-0.2-0.3-0.3
		c0-0.2,0.3-0.5,0.3-0.5C79.9,215.6,79.9,215.9,79.9,216.1L79.9,216.1z"/>
	<path fill-rule="evenodd" clip-rule="evenodd" fill="#FFFFFF" d="M76.4,219.2c0,0,0,0.2-0.2,0.2c-0.3,0-0.3-0.2-0.3-0.2
		c0-0.3,0-0.6,0.3-0.5C76.4,218.7,76.4,218.9,76.4,219.2L76.4,219.2z"/>
	<path fill-rule="evenodd" clip-rule="evenodd" fill="#FFFFFF" d="M79.9,219.4c0,0.2,0,0.2-0.2,0.2c0,0-0.3,0-0.3-0.2
		c0-0.3,0.3-0.5,0.3-0.5C79.9,218.9,79.9,219.1,79.9,219.4L79.9,219.4z"/>
	<path fill-rule="evenodd" clip-rule="evenodd" fill="#FFFFFF" d="M92.4,182.5c0.7-0.4,1.4-0.7,2.1-1.1c0.6,0.4,1.2,0.8,1.9,1.1
		C95.1,182.5,93.8,182.5,92.4,182.5z"/>
	<path fill-rule="evenodd" clip-rule="evenodd" fill="#FFFFFF" d="M86.2,182.3c0.7-0.3,1.4-0.7,2.1-1c0.6,0.4,1.3,0.8,1.9,1.2
		C88.9,182.4,87.5,182.4,86.2,182.3z"/>
	<path fill-rule="evenodd" clip-rule="evenodd" fill="#FFFFFF" d="M79.9,182.1c0.7-0.3,1.5-0.7,2.2-1c0.6,0.4,1.2,0.8,1.9,1.2
		C82.6,182.2,81.3,182.2,79.9,182.1z"/>
	<path fill-rule="evenodd" clip-rule="evenodd" fill="#FFFFFF" d="M92.4,154.1c0.7,0.4,1.4,0.7,2.1,1.1c0.6-0.3,1.2-0.7,1.9-1
		C95.1,154.1,93.8,154.1,92.4,154.1z"/>
	<path fill-rule="evenodd" clip-rule="evenodd" fill="#FFFFFF" d="M86.2,153.9c0.7,0.4,1.4,0.7,2.1,1.1c0.6-0.3,1.3-0.7,1.9-1
		C88.9,154,87.5,153.9,86.2,153.9z"/>
	<path fill-rule="evenodd" clip-rule="evenodd" fill="#FFFFFF" d="M79.9,153.6c0.7,0.4,1.5,0.8,2.2,1.1c0.6-0.3,1.2-0.6,1.9-1
		C82.6,153.8,81.3,153.7,79.9,153.6z"/>
	<path fill-rule="evenodd" clip-rule="evenodd" fill="#32755B" d="M90.8,181.8c-0.8,0.7-1.6,1.4-2.4,2.1c-0.8-0.8-1.6-1.5-2.4-2.3
		c-0.8,0.7-1.6,1.4-2.4,2.1c-0.8-0.8-1.6-1.5-2.5-2.3c0,0.4,0,0.8,0,1.1c0.5,0.4,1.1,0.8,1.6,1.1c-0.3,0.3-0.6,0.5-0.8,0.8
		c0,0.4,0,0.7,0,1.1c0.3,0,0.6,0,0.8,0c0.3-0.3,0.6-0.7,0.8-1c0.3,0.4,0.5,0.7,0.8,1.1c0.3,0,0.5,0,0.8,0c0-0.4,0-0.7,0-1.1
		c-0.3-0.3-0.5-0.6-0.8-0.9c0.5-0.3,1.1-0.7,1.6-1c0.5,0.4,1.1,0.7,1.6,1.1c-0.3,0.3-0.5,0.5-0.8,0.8c0,0.4,0,0.7,0,1.1
		c0.3,0,0.5,0,0.8,0c0.3-0.3,0.5-0.7,0.8-1.1c0.3,0.4,0.6,0.7,0.8,1.1c0.3,0,0.5,0,0.8,0c0-0.4,0-0.7,0-1.1
		c-0.3-0.3-0.5-0.6-0.8-0.8c0.5-0.3,1.1-0.7,1.6-1c0.6,0.4,1.1,0.7,1.7,1.1c-0.3,0.3-0.5,0.5-0.8,0.8c0,0.4,0,0.7,0,1.1
		c0.3,0,0.5,0,0.8,0c0.2-0.4,0.4-0.7,0.5-1.1c0.3,0.4,0.6,0.7,0.8,1.1c0.3,0,0.5,0,0.8,0c0-0.4,0-0.7,0-1.1
		c-0.3-0.3-0.5-0.6-0.8-0.8c0.5-0.3,1.1-0.7,1.6-1c0-0.4,0-0.8,0-1.1c-0.8,0.7-1.6,1.4-2.4,2.2C92.2,183.3,91.5,182.6,90.8,181.8z"
		/>
	<path fill-rule="evenodd" clip-rule="evenodd" fill="#32755B" d="M90.8,153.7c-0.8-0.6-1.6-1.3-2.4-1.9c-0.8,0.6-1.6,1.2-2.4,1.8
		c-0.8-0.7-1.6-1.3-2.4-2c-0.8,0.6-1.6,1.2-2.5,1.8c0-0.3,0-0.5,0-0.8c0.5-0.3,1.1-0.7,1.6-1c-0.3-0.3-0.6-0.6-0.8-0.8
		c0-0.4,0-0.7,0-1.1c0.3,0,0.6,0,0.8,0c0.3,0.4,0.6,0.7,0.8,1.1c0.3-0.3,0.5-0.7,0.8-1c0.3,0,0.5,0,0.8,0c0,0.4,0,0.7,0,1.1
		c-0.3,0.3-0.5,0.5-0.8,0.8c0.5,0.4,1.1,0.8,1.6,1.2c0.5-0.3,1.1-0.7,1.6-1c-0.3-0.3-0.5-0.6-0.8-0.8c0-0.4,0-0.7,0-1.1
		c0.3,0,0.5,0,0.8,0c0.3,0.4,0.5,0.7,0.8,1.1c0.3-0.3,0.6-0.7,0.8-1c0.3,0,0.5,0,0.8,0c0,0.4,0,0.7,0,1.1c-0.3,0.3-0.5,0.5-0.8,0.8
		c0.5,0.4,1.1,0.8,1.6,1.1c0.6-0.4,1.1-0.7,1.7-1.1c-0.3-0.3-0.5-0.5-0.8-0.8c0-0.4,0-0.7,0-1.1c0.3,0,0.5,0,0.8,0
		c0.2,0.4,0.4,0.7,0.5,1.1c0.3-0.3,0.6-0.7,0.8-1c0.3,0,0.5,0,0.8,0c0,0.4,0,0.7,0,1.1c-0.3,0.3-0.5,0.5-0.8,0.8
		c0.5,0.4,1.1,0.7,1.6,1.1c0,0.3,0,0.5,0,0.8c-0.8-0.6-1.6-1.3-2.4-1.9C92.2,152.5,91.5,153.1,90.8,153.7z"/>
	<path fill-rule="evenodd" clip-rule="evenodd" fill="#32755B" d="M108.9,170c0.9-0.7,1.8-1.5,2.7-2.2c-0.9-0.6-1.8-1.2-2.7-1.8
		c0.9-0.7,1.8-1.5,2.7-2.2c-0.9-0.7-1.8-1.4-2.7-2.1c0.4,0,0.9,0,1.3,0c0.4,0.4,0.9,0.9,1.3,1.3c0.5-0.2,1-0.4,1.5-0.6
		c0.4,0,0.9,0,1.3,0c0,0.2,0,0.4,0,0.6c-0.4,0.3-0.9,0.5-1.3,0.8c0.4,0.2,0.9,0.4,1.3,0.5c0,0.3,0,0.6,0,0.8c-0.4,0-0.9,0-1.3,0
		c-0.5-0.3-1-0.5-1.5-0.8c-0.4,0.5-0.9,1.1-1.3,1.6c0.4,0.4,0.9,0.9,1.3,1.3c0.5-0.3,1-0.6,1.5-0.8c0.4,0,0.9,0,1.3,0
		c0,0.3,0,0.5,0,0.8c-0.4,0.2-0.9,0.4-1.3,0.6c0.4,0.3,0.9,0.5,1.3,0.8c0,0.3,0,0.5,0,0.8c-0.4,0-0.9,0-1.3,0
		c-0.5-0.3-1-0.5-1.5-0.8c-0.4,0.4-0.9,0.9-1.3,1.3c0.4,0.4,0.9,0.9,1.3,1.3c0.5-0.2,1-0.4,1.5-0.6c0.4,0,0.9,0,1.3,0
		c0,0.2,0,0.4,0,0.5c-0.4,0.3-0.9,0.6-1.3,0.9c0.4,0.2,0.9,0.5,1.3,0.7c0,0.2,0,0.4,0,0.6c-0.4,0-0.9,0-1.3,0
		c-0.5-0.2-1-0.4-1.5-0.5c-0.4,0.5-0.9,0.9-1.3,1.4c-0.4,0-0.9,0-1.3,0c0.9-0.7,1.8-1.4,2.7-2.2C110.7,171.5,109.8,170.7,108.9,170z
		"/>
	<path fill-rule="evenodd" clip-rule="evenodd" fill="#32755B" d="M67.5,168.8c-0.9-0.8-1.8-1.6-2.7-2.4c0.9-0.6,1.8-1.1,2.7-1.7
		c-0.9-0.8-1.8-1.6-2.7-2.4c0.9-0.6,1.8-1.3,2.7-1.9c-0.5,0-0.9-0.1-1.4-0.1c-0.4,0.4-0.9,0.8-1.3,1.2c-0.5-0.2-0.9-0.5-1.4-0.7
		c-0.4,0-0.7-0.1-1.1-0.1c0,0.2,0,0.4,0,0.6c0.4,0.3,0.7,0.6,1.1,0.9c-0.4,0.2-0.7,0.3-1.1,0.5c0,0.3,0,0.6,0,0.8
		c0.4,0,0.7,0.1,1.1,0.1c0.5-0.2,0.9-0.5,1.4-0.7c0.4,0.6,0.9,1.2,1.3,1.7c-0.4,0.4-0.9,0.8-1.3,1.2c-0.5-0.3-0.9-0.6-1.4-0.9
		c-0.4,0-0.7-0.1-1.1-0.1c0,0.3,0,0.5,0,0.8c0.4,0.2,0.7,0.4,1.1,0.6c-0.4,0.2-0.7,0.5-1.1,0.7c0,0.3,0,0.5,0,0.8
		c0.4,0,0.7,0.1,1.1,0.1c0.5-0.2,0.9-0.4,1.4-0.7c0.4,0.5,0.9,0.9,1.3,1.4c-0.4,0.4-0.9,0.8-1.3,1.3c-0.5-0.2-0.9-0.4-1.4-0.7
		c-0.4,0-0.7-0.1-1.1-0.1c0,0.2,0,0.4,0,0.5c0.4,0.3,0.7,0.6,1.1,0.9c-0.4,0.2-0.7,0.5-1.1,0.7c0,0.2,0,0.4,0,0.6
		c0.4,0,0.7,0.1,1.1,0.1c0.5-0.1,0.9-0.3,1.4-0.4c0.4,0.5,0.9,1,1.3,1.5c0.5,0,0.9,0.1,1.4,0.1c-0.9-0.8-1.8-1.6-2.7-2.3
		C65.7,170.2,66.6,169.5,67.5,168.8z"/>
	<path fill-rule="evenodd" clip-rule="evenodd" fill="#32755B" d="M110,178.1c0.4,0,0.7,0,1.1,0c0-0.3,0-0.7,0-1c-0.4,0-0.7,0-1.1,0
		C110,177.4,110,177.8,110,178.1z"/>
	<path fill-rule="evenodd" clip-rule="evenodd" fill="#32755B" d="M108.9,179.2c0.4,0,0.7,0,1.1,0c0-0.4,0-0.7,0-1.1
		c-0.4,0-0.7,0-1.1,0C108.9,178.5,108.9,178.9,108.9,179.2z"/>
	<path fill-rule="evenodd" clip-rule="evenodd" fill="#32755B" d="M103.8,184.1c0.4,0,0.7,0,1.1,0c0-0.4,0-0.7,0-1.1
		c-0.4,0-0.7,0-1.1,0C103.8,183.4,103.8,183.8,103.8,184.1z"/>
	<path fill-rule="evenodd" clip-rule="evenodd" fill="#32755B" d="M104.9,183.1c0.4,0,0.7,0,1.1,0c0-0.4,0-0.8,0-1.1
		c-0.4,0-0.7,0-1.1,0C104.9,182.3,104.9,182.7,104.9,183.1z"/>
	<path fill-rule="evenodd" clip-rule="evenodd" fill="#32755B" d="M70.5,182.1c0.4,0,0.7,0,1.1,0.1c0-0.4,0-0.8,0-1.1
		c-0.4,0-0.7,0-1.1-0.1C70.5,181.3,70.5,181.7,70.5,182.1z"/>
	<path fill-rule="evenodd" clip-rule="evenodd" fill="#32755B" d="M65.3,176.8c0.4,0,0.7,0.1,1.1,0.1c0-0.3,0-0.7,0-1
		c-0.4,0-0.7-0.1-1.1-0.1C65.3,176.1,65.3,176.4,65.3,176.8z"/>
	<path fill-rule="evenodd" clip-rule="evenodd" fill="#32755B" d="M66.4,177.9c0.4,0,0.7,0.1,1.1,0.1c0-0.4,0-0.7,0-1.1
		c-0.4,0-0.7-0.1-1.1-0.1C66.4,177.2,66.4,177.6,66.4,177.9z"/>
	<path fill-rule="evenodd" clip-rule="evenodd" fill="#32755B" d="M66.4,156.6c0.4,0,0.7,0.1,1.1,0.1c0-0.4,0-0.8,0-1.1
		c-0.4,0-0.7-0.1-1.1-0.1C66.4,155.9,66.4,156.2,66.4,156.6z"/>
	<path fill-rule="evenodd" clip-rule="evenodd" fill="#32755B" d="M65.3,157.4c0.4,0,0.7,0.1,1.1,0.1c0-0.3,0-0.6,0-0.8
		c-0.4,0-0.7-0.1-1.1-0.1C65.3,156.8,65.3,157.1,65.3,157.4z"/>
	<path fill-rule="evenodd" clip-rule="evenodd" fill="#32755B" d="M71.5,152.1c0.4,0,0.7,0,1.1,0.1c0-0.4,0-0.7,0-1.1
		c-0.4,0-0.7,0-1.1-0.1C71.5,151.4,71.5,151.7,71.5,152.1z"/>
	<path fill-rule="evenodd" clip-rule="evenodd" fill="#32755B" d="M70.5,152.8c0.4,0,0.7,0,1.1,0.1c0-0.3,0-0.5,0-0.8
		c-0.4,0-0.7,0-1.1-0.1C70.5,152.3,70.5,152.6,70.5,152.8z"/>
	<path fill-rule="evenodd" clip-rule="evenodd" fill="#32755B" d="M103.8,153.1c0.4,0,0.7,0,1.1,0c0-0.4,0-0.7,0-1.1
		c-0.4,0-0.7,0-1.1,0C103.8,152.3,103.8,152.7,103.8,153.1z"/>
	<path fill-rule="evenodd" clip-rule="evenodd" fill="#32755B" d="M104.9,153.8c0.4,0,0.7,0,1.1,0c0-0.3,0-0.5,0-0.8
		c-0.4,0-0.7,0-1.1,0C104.9,153.3,104.9,153.6,104.9,153.8z"/>
	<path fill-rule="evenodd" clip-rule="evenodd" fill="#32755B" d="M108.9,157.9c0.4,0,0.7,0,1.1,0c0-0.4,0-0.8,0-1.1
		c-0.4,0-0.7,0-1.1,0C108.9,157.1,108.9,157.5,108.9,157.9z"/>
	<path fill-rule="evenodd" clip-rule="evenodd" fill="#32755B" d="M110,158.7c0.4,0,0.7,0,1.1,0c0-0.3,0-0.6,0-0.8
		c-0.4,0-0.7,0-1.1,0C110,158.2,110,158.4,110,158.7z"/>
	<path fill-rule="evenodd" clip-rule="evenodd" fill="#32755B" d="M71.5,183.2c0.4,0,0.7,0,1.1,0.1c0-0.4,0-0.7,0-1.1
		c-0.4,0-0.7,0-1.1-0.1C71.5,182.5,71.5,182.8,71.5,183.2z"/>
	<path fill-rule="evenodd" clip-rule="evenodd" fill="#FFFFFF" d="M85.1,167.7c-1,0-2-0.1-3-0.1c0-0.6,0-1.3,0-1.9
		c0.6,0,1.2,0,1.9,0.1c0-0.5,0-1.1,0-1.6c0.7,0,1.5,0.1,2.2,0.1c0-0.5,0-1.1,0-1.6c0.6,0,1.3,0,1.9,0.1c0,0.6,0,1.2,0,1.8
		C86.4,164.4,85.1,165.8,85.1,167.7L85.1,167.7z"/>
	<path fill-rule="evenodd" clip-rule="evenodd" fill="#E18529" d="M91,167.8c1.1,0,2.2,0,3.3,0.1c0-0.6,0-1.3,0-1.9
		c-0.7,0-1.5,0-2.2,0c0-0.5,0-1.1,0-1.6c-0.6,0-1.3,0-1.9,0c0-0.5,0-1.1,0-1.6c-0.7,0-1.4,0-2.1-0.1c0,0.6,0,1.2,0,1.8
		C89.7,164.5,91,165.9,91,167.8L91,167.8z"/>
	<path fill-rule="evenodd" clip-rule="evenodd" fill="#FFFFFF" d="M91,167.8c1.1,0,2.2,0,3.3,0.1c0,0.6,0,1.3,0,1.9
		c-0.7,0-1.5,0-2.2,0c0,0.6,0,1.3,0,1.9c-0.6,0-1.3,0-1.9,0c0,0.5,0,1,0,1.6c-0.7,0-1.4,0-2.1-0.1c0-0.6,0-1.2,0-1.9
		C89.7,171.3,91,169.7,91,167.8L91,167.8z"/>
	<path fill-rule="evenodd" clip-rule="evenodd" fill="#E18529" d="M85.1,167.7c-1,0-2-0.1-3-0.1c0,0.6,0,1.3,0,1.9
		c0.6,0,1.2,0,1.9,0.1c0,0.6,0,1.3,0,1.9c0.7,0,1.5,0.1,2.2,0.1c0,0.5,0,1,0,1.6c0.6,0,1.3,0,1.9,0.1c0-0.6,0-1.2,0-1.9
		C86.4,171.2,85.1,169.5,85.1,167.7L85.1,167.7z"/>
	<path fill-rule="evenodd" clip-rule="evenodd" fill="#32755B" d="M91,167.8c-1,0-2,0-2.9-0.1c0-1.1,0-2.2,0-3.3
		C89.7,164.5,91,166.2,91,167.8L91,167.8z"/>
	<path fill-rule="evenodd" clip-rule="evenodd" fill="#C14029" d="M91,167.8c-1,0-2,0-2.9-0.1c0,1.2,0,2.3,0,3.5
		C89.7,171.3,91,169.7,91,167.8L91,167.8z"/>
	<path fill-rule="evenodd" clip-rule="evenodd" fill="#32755B" d="M85.1,167.7c1,0,2,0.1,3,0.1c0,1.2,0,2.3,0,3.5
		C86.4,171.2,85.1,169.5,85.1,167.7L85.1,167.7z"/>
	<path fill-rule="evenodd" clip-rule="evenodd" fill="#C14029" d="M85.1,167.7c1,0,2,0.1,3,0.1c0-1.1,0-2.2,0-3.3
		C86.4,164.4,85.1,166,85.1,167.7L85.1,167.7z"/>
	<path fill-rule="evenodd" clip-rule="evenodd" fill="#32755B" d="M91.4,180c-1-0.7-2-1.3-3-2c-1.1,0.6-2.2,1.2-3.2,1.8
		c-1-0.7-2-1.3-3-2c-1.1,0.6-2.2,1.2-3.3,1.8c0-0.3,0-0.6,0-0.8c0.7-0.3,1.5-0.6,2.2-1c-0.4-0.4-0.7-0.7-1.1-1.1c0-0.3,0-0.6,0-0.9
		c0.4,0,0.7,0,1.1,0c0.4,0.3,0.7,0.6,1.1,0.9c0.3-0.3,0.6-0.5,0.8-0.8c0.3,0,0.7,0,1,0c0,0.3,0,0.6,0,0.9c-0.3,0.3-0.7,0.7-1,1
		c0.7,0.4,1.4,0.8,2.1,1.1c0.7-0.3,1.5-0.7,2.2-1c-0.4-0.4-0.7-0.7-1.1-1.1c0-0.3,0-0.6,0-0.9c0.4,0,0.7,0,1.1,0
		c0.4,0.3,0.7,0.6,1.1,0.9c0.3-0.3,0.6-0.6,0.8-0.8c0.4,0,0.7,0,1.1,0c0,0.3,0,0.6,0,0.9c-0.4,0.3-0.7,0.7-1.1,1
		c0.7,0.4,1.5,0.7,2.2,1.1c0.7-0.3,1.4-0.7,2.1-1c-0.4-0.4-0.7-0.7-1.1-1.1c0-0.3,0-0.6,0-0.9c0.3,0,0.7,0,1.1,0
		c0.4,0.3,0.7,0.6,1.1,0.9c0.3-0.3,0.5-0.6,0.8-0.8c0.3,0,0.7,0,1.1,0c0,0.3,0,0.6,0,0.9c-0.4,0.3-0.7,0.7-1.1,1
		c0.7,0.4,1.4,0.7,2.1,1.1c0,0.3,0,0.6,0,0.8c-1-0.6-2-1.3-2.9-1.9C93.5,178.8,92.4,179.4,91.4,180z"/>
	<path fill-rule="evenodd" clip-rule="evenodd" fill="#32755B" d="M91.4,155.9c-1,0.6-2,1.3-3,1.9c-1.1-0.7-2.2-1.4-3.2-2.1
		c-1,0.6-2,1.2-3,1.8c-1.1-0.7-2.2-1.4-3.3-2.1c0,0.3,0,0.6,0,0.8c0.7,0.4,1.5,0.8,2.2,1.2c-0.4,0.3-0.7,0.5-1.1,0.8
		c0,0.3,0,0.7,0,1c0.4,0,0.7,0,1.1,0c0.4-0.3,0.7-0.6,1.1-0.9c0.3,0.3,0.6,0.7,0.8,1c0.3,0,0.7,0,1,0c0-0.3,0-0.7,0-1
		c-0.3-0.3-0.7-0.6-1-0.9c0.7-0.3,1.4-0.7,2.1-1.1c0.7,0.4,1.5,0.8,2.2,1.2c-0.4,0.3-0.7,0.5-1.1,0.8c0,0.3,0,0.7,0,1
		c0.4,0,0.7,0,1.1,0c0.4-0.3,0.7-0.6,1.1-1c0.3,0.3,0.6,0.7,0.8,1c0.4,0,0.7,0,1.1,0c0-0.3,0-0.7,0-1c-0.4-0.3-0.7-0.6-1.1-0.9
		c0.7-0.4,1.5-0.7,2.2-1.1c0.7,0.4,1.4,0.8,2.1,1.2c-0.4,0.3-0.7,0.5-1.1,0.8c0,0.3,0,0.7,0,1c0.3,0,0.7,0,1.1,0
		c0.4-0.3,0.7-0.6,1.1-1c0.3,0.3,0.5,0.7,0.8,1c0.3,0,0.7,0,1.1,0c0-0.3,0-0.7,0-1c-0.4-0.3-0.7-0.6-1.1-0.9
		c0.7-0.4,1.4-0.7,2.1-1.1c0-0.3,0-0.6,0-0.8c-1,0.6-2,1.3-2.9,1.9C93.5,157.2,92.4,156.6,91.4,155.9z"/>
	<path fill-rule="evenodd" clip-rule="evenodd" fill="#32755B" d="M102.7,170.3c-0.4-0.8-0.9-1.6-1.3-2.4c0.4-0.8,0.9-1.6,1.3-2.5
		c-0.4-0.8-0.9-1.6-1.3-2.4c0.4-0.7,0.9-1.5,1.3-2.2c-0.3,0-0.5,0-0.8,0c-0.2,0.5-0.4,1.1-0.5,1.6c-0.3-0.3-0.6-0.5-0.9-0.8
		c-0.3,0-0.6,0-0.8,0c0,0.3,0,0.5,0,0.8c0.3,0.2,0.6,0.4,0.8,0.6c-0.3,0.3-0.6,0.5-0.8,0.8c0,0.3,0,0.5,0,0.8c0.3,0,0.6,0,0.8,0
		c0.3-0.3,0.6-0.5,0.9-0.8c0.2,0.5,0.4,1.1,0.5,1.6c-0.2,0.5-0.4,1.1-0.5,1.6c-0.3-0.3-0.6-0.5-0.9-0.8c-0.3,0-0.6,0-0.8,0
		c0,0.3,0,0.5,0,0.8c0.3,0.3,0.6,0.6,0.8,0.8c-0.3,0.3-0.6,0.5-0.8,0.8c0,0.3,0,0.5,0,0.8c0.3,0,0.6,0,0.8,0
		c0.3-0.3,0.6-0.5,0.9-0.8c0.2,0.5,0.4,1,0.5,1.6c-0.2,0.5-0.4,1.1-0.5,1.6c-0.3-0.3-0.6-0.5-0.9-0.8c-0.3,0-0.6,0-0.8,0
		c0,0.3,0,0.5,0,0.8c0.3,0.3,0.6,0.6,0.8,0.8c-0.3,0.3-0.6,0.6-0.8,0.8c0,0.3,0,0.5,0,0.8c0.3,0,0.6,0,0.8,0
		c0.3-0.3,0.6-0.5,0.9-0.8c0.2,0.5,0.4,1.1,0.5,1.6c0.3,0,0.5,0,0.8,0c-0.4-0.8-0.9-1.6-1.3-2.5C101.8,172,102.3,171.2,102.7,170.3z
		"/>
	<path fill-rule="evenodd" clip-rule="evenodd" fill="#32755B" d="M78.8,156.3c-1.3,1.3-2.7,2.6-4,3.9c0,4.8,0,9.6,0,14.3
		c1.3,1.4,2.7,2.8,4,4.2c6.2,0.3,12.5,0.5,18.7,0.5c1.4-1.3,2.7-2.7,4.1-4c0-4.8,0-9.6,0-14.3c-1.4-1.4-2.7-2.7-4.1-4.1
		C91.3,156.8,85.1,156.6,78.8,156.3z M77.7,153.3c-3.4,3.1-6.8,6.1-10.2,9.1c0,3,0,5.9,0,8.9c3.4,3.4,6.8,6.8,10.2,10.1
		c7,0.4,13.9,0.6,20.9,0.6c3.4-3.1,6.8-6.3,10.3-9.5c0-3,0-5.9,0-8.9c-3.4-3.2-6.8-6.5-10.3-9.7C91.7,153.8,84.7,153.6,77.7,153.3z"
		/>
	<path fill-rule="evenodd" clip-rule="evenodd" fill="#E18529" d="M83.2,179.8c0.5,0.6,1.1,1.3,1.6,1.9c0.5-0.6,1.1-1.2,1.6-1.8
		C85.4,179.9,84.3,179.8,83.2,179.8z"/>
	<path fill-rule="evenodd" clip-rule="evenodd" fill="#E18529" d="M83.2,155.6c0.5-0.7,1.1-1.4,1.6-2.1c0.5,0.7,1.1,1.5,1.6,2.2
		C85.4,155.7,84.3,155.7,83.2,155.6z"/>
	<path fill-rule="evenodd" clip-rule="evenodd" fill="#E18529" d="M89.9,155.9c0.6-0.7,1.1-1.4,1.7-2.1c0.5,0.7,1.1,1.4,1.6,2.2
		C92.1,155.9,91,155.9,89.9,155.9z"/>
	<path fill-rule="evenodd" clip-rule="evenodd" fill="#E18529" d="M89.9,180c0.6,0.6,1.1,1.2,1.7,1.9c0.5-0.6,1.1-1.2,1.6-1.8
		C92.1,180,91,180,89.9,180z"/>
	<path fill-rule="evenodd" clip-rule="evenodd" fill="#C14029" d="M79.9,155.5c0.6-0.7,1.1-1.4,1.7-2.1c0.5,0.7,1.1,1.5,1.6,2.2
		C82.1,155.6,81,155.6,79.9,155.5z"/>
	<path fill-rule="evenodd" clip-rule="evenodd" fill="#C14029" d="M86.4,155.8c0.6-0.7,1.3-1.4,1.9-2.1c0.5,0.7,1.1,1.5,1.6,2.2
		C88.8,155.8,87.6,155.8,86.4,155.8z"/>
	<path fill-rule="evenodd" clip-rule="evenodd" fill="#C14029" d="M93.2,155.9c0.5-0.7,1.1-1.4,1.6-2.1c0.5,0.7,1.1,1.4,1.6,2.2
		C95.3,156,94.3,155.9,93.2,155.9z"/>
	<path fill-rule="evenodd" clip-rule="evenodd" fill="#C14029" d="M75.9,176.5c1,1,2,2.1,3,3.1c-1,0-2-0.1-3-0.2
		C75.9,178.4,75.9,177.5,75.9,176.5z"/>
	<path fill-rule="evenodd" clip-rule="evenodd" fill="#32755B" d="M73.7,169.5c0.5-0.8,1.1-1.5,1.6-2.3c-0.5-0.9-1.1-1.7-1.6-2.6
		c0.5-0.8,1.1-1.5,1.6-2.3c-0.5-0.8-1.1-1.5-1.6-2.3c0.3,0,0.5,0,0.8,0c0.3,0.6,0.5,1.1,0.8,1.7c0.2-0.2,0.4-0.5,0.6-0.7
		c0.3,0,0.6,0,0.8,0c0,0.3,0,0.5,0,0.8c-0.3,0.2-0.6,0.3-0.8,0.5c0.3,0.3,0.6,0.6,0.8,0.8c0,0.3,0,0.5,0,0.8c-0.3,0-0.6,0-0.8,0
		c-0.2-0.3-0.4-0.5-0.6-0.8c-0.3,0.5-0.5,1-0.8,1.6c0.3,0.6,0.5,1.1,0.8,1.7c0.2-0.3,0.4-0.5,0.6-0.8c0.3,0,0.6,0,0.8,0
		c0,0.3,0,0.5,0,0.8c-0.3,0.3-0.6,0.5-0.8,0.8c0.3,0.3,0.6,0.6,0.8,0.9c0,0.3,0,0.5,0,0.8c-0.3,0-0.6,0-0.8,0
		c-0.2-0.3-0.4-0.5-0.6-0.8c-0.3,0.5-0.5,1-0.8,1.5c0.3,0.6,0.5,1.1,0.8,1.7c0.2-0.3,0.4-0.5,0.6-0.8c0.3,0,0.6,0,0.8,0
		c0,0.3,0,0.5,0,0.8c-0.3,0.3-0.6,0.5-0.8,0.8c0.3,0.3,0.6,0.6,0.8,0.9c0,0.3,0,0.5,0,0.8c-0.3,0-0.6,0-0.8,0
		c-0.2-0.3-0.4-0.5-0.6-0.8c-0.3,0.5-0.5,1-0.8,1.6c-0.3,0-0.5,0-0.8,0c0.5-0.8,1.1-1.6,1.6-2.4C74.8,171.2,74.2,170.4,73.7,169.5z"
		/>
	<path fill-rule="evenodd" clip-rule="evenodd" fill="#C14029" d="M103.8,165.5c1.5,0,2.9,0,4.4,0c0.3,0.3,0.5,0.6,0.8,0.8
		c-0.3,0.3-0.5,0.5-0.8,0.8c-1.5,0-2.9,0-4.4,0C103.8,166.6,103.8,166,103.8,165.5z"/>
	<path fill-rule="evenodd" clip-rule="evenodd" fill="#C14029" d="M75.9,158.1c-0.7,0.7-1.5,1.3-2.2,2c0,4.8,0,9.6,0,14.3
		c0.7,0.7,1.5,1.4,2.2,2c-1.1-0.1-2.2-0.1-3.2-0.2c0-6.1,0-12.3,0-18.4C73.7,158,74.8,158,75.9,158.1z"/>
	<path fill-rule="evenodd" clip-rule="evenodd" fill="#C14029" d="M79.9,179.6c0.6,0.6,1.1,1.3,1.7,1.9c0.5-0.6,1.1-1.2,1.6-1.8
		C82.1,179.7,81,179.7,79.9,179.6z"/>
	<path fill-rule="evenodd" clip-rule="evenodd" fill="#C14029" d="M86.4,179.9c0.6,0.6,1.3,1.3,1.9,1.9c0.5-0.6,1.1-1.2,1.6-1.8
		C88.8,180,87.6,179.9,86.4,179.9z"/>
	<path fill-rule="evenodd" clip-rule="evenodd" fill="#C14029" d="M93.2,180.1c0.5,0.6,1.1,1.2,1.6,1.9c0.5-0.6,1.1-1.2,1.6-1.8
		C95.3,180.1,94.3,180.1,93.2,180.1z"/>
	<path fill-rule="evenodd" clip-rule="evenodd" fill="#C14029" d="M100.8,158.8c0.6,0.7,1.3,1.4,1.9,2.1c0,4.8,0,9.6,0,14.3
		c-0.6,0.6-1.3,1.3-1.9,1.9c1,0,2,0,3,0c0-6.1,0-12.3,0-18.4C102.8,158.8,101.8,158.8,100.8,158.8z"/>
	<path fill-rule="evenodd" clip-rule="evenodd" fill="#C14029" d="M100.8,177.2c-1.1,1-2.2,2-3.3,2.9c1.1,0,2.2,0,3.3,0
		C100.8,179.1,100.8,178.2,100.8,177.2z"/>
	<path fill-rule="evenodd" clip-rule="evenodd" fill="#C14029" d="M100.8,158.8c-1.1-0.9-2.2-1.9-3.3-2.8c1.1,0,2.2,0,3.3,0
		C100.8,156.9,100.8,157.9,100.8,158.8z"/>
	<path fill-rule="evenodd" clip-rule="evenodd" fill="#C14029" d="M75.9,158.1c1-0.9,2-1.8,3-2.6c-1,0-2-0.1-3-0.2
		C75.9,156.2,75.9,157.2,75.9,158.1z"/>
	<path fill-rule="evenodd" clip-rule="evenodd" fill="#32755B" d="M78.8,156.3c-1.3,1.3-2.7,2.6-4,3.9c0,4.8,0,9.6,0,14.3
		c1.3,1.4,2.7,2.8,4,4.2c6.2,0.3,12.5,0.5,18.7,0.5c1.4-1.3,2.7-2.7,4.1-4c0-4.8,0-9.6,0-14.3c-1.4-1.4-2.7-2.7-4.1-4.1
		C91.3,156.8,85.1,156.6,78.8,156.3z M78.8,155.4c-1.7,1.6-3.4,3.1-5.2,4.6c0,4.8,0,9.6,0,14.3c1.7,1.7,3.4,3.4,5.2,5.2
		c6.2,0.3,12.5,0.5,18.7,0.5c1.7-1.6,3.4-3.2,5.2-4.9c0-4.8,0-9.6,0-14.3c-1.7-1.6-3.4-3.3-5.2-4.9
		C91.3,155.9,85.1,155.8,78.8,155.4z"/>
	<path fill-rule="evenodd" clip-rule="evenodd" fill="#E18529" d="M103.8,167.1c1.5,0,2.9,0,4.4,0c0.3,0.3,0.5,0.5,0.8,0.8
		c-0.3,0.4-0.5,0.7-0.8,1.1c-1.5,0-2.9,0-4.4,0C103.8,168.4,103.8,167.7,103.8,167.1z"/>
	<path fill-rule="evenodd" clip-rule="evenodd" fill="#C14029" d="M103.8,169c1.5,0,2.9,0,4.4,0c0.3,0.3,0.5,0.5,0.8,0.8
		c-0.3,0.3-0.5,0.5-0.8,0.8c-1.5,0-2.9,0-4.4,0C103.8,170.1,103.8,169.5,103.8,169z"/>
	<path fill-rule="evenodd" clip-rule="evenodd" fill="#E18529" d="M103.8,170.6c1.5,0,2.9,0,4.4,0c0.3,0.3,0.5,0.5,0.8,0.8
		c-0.3,0.4-0.5,0.7-0.8,1.1c-1.5,0-2.9,0-4.4,0C103.8,171.9,103.8,171.2,103.8,170.6z"/>
	<path fill-rule="evenodd" clip-rule="evenodd" fill="#E18529" d="M103.8,163.6c1.5,0,2.9,0,4.4,0c0.3,0.3,0.5,0.7,0.8,1
		c-0.3,0.3-0.5,0.6-0.8,0.8c-1.5,0-2.9,0-4.4,0C103.8,164.9,103.8,164.2,103.8,163.6z"/>
	<path fill-rule="evenodd" clip-rule="evenodd" fill="#C14029" d="M72.6,164.6c-1.3-0.1-2.7-0.2-4-0.3c-0.4,0.3-0.7,0.5-1.1,0.8
		c0.4,0.3,0.7,0.6,1.1,0.9c1.3,0.1,2.7,0.2,4,0.3C72.6,165.7,72.6,165.1,72.6,164.6z"/>
	<path fill-rule="evenodd" clip-rule="evenodd" fill="#E18529" d="M72.6,166.2c-1.3-0.1-2.7-0.2-4-0.3c-0.4,0.2-0.7,0.5-1.1,0.7
		c0.4,0.4,0.7,0.8,1.1,1.1c1.3,0.1,2.7,0.2,4,0.3C72.6,167.5,72.6,166.9,72.6,166.2z"/>
	<path fill-rule="evenodd" clip-rule="evenodd" fill="#C14029" d="M72.6,168.1c-1.3-0.1-2.7-0.2-4-0.3c-0.4,0.2-0.7,0.5-1.1,0.7
		c0.4,0.3,0.7,0.6,1.1,0.9c1.3,0.1,2.7,0.2,4,0.3C72.6,169.2,72.6,168.6,72.6,168.1z"/>
	<path fill-rule="evenodd" clip-rule="evenodd" fill="#E18529" d="M72.6,169.7c-1.3-0.1-2.7-0.2-4-0.3c-0.4,0.2-0.7,0.5-1.1,0.7
		c0.4,0.4,0.7,0.8,1.1,1.1c1.3,0.1,2.7,0.2,4,0.3C72.6,171,72.6,170.4,72.6,169.7z"/>
	<path fill-rule="evenodd" clip-rule="evenodd" fill="#E18529" d="M72.6,162.7c-1.3-0.1-2.7-0.2-4-0.3c-0.4,0.3-0.7,0.6-1.1,0.9
		c0.4,0.3,0.7,0.6,1.1,0.9c1.3,0.1,2.7,0.2,4,0.3C72.6,164,72.6,163.4,72.6,162.7z"/>
	<path fill-rule="evenodd" clip-rule="evenodd" fill="#AB3C2D" d="M66.4,156.6c0,6.8,0,13.5,0,20.3c1.7,0.1,3.4,0.3,5.1,0.4
		c0,1.6,0,3.2,0,4.9c11.1,0.7,22.2,1,33.3,1c0-1.6,0-3.2,0-4.9c1.7,0,3.4,0,5.2-0.1c0-6.8,0-13.5,0-20.3c-1.7,0-3.4,0-5.2,0.1
		c0-1.6,0-3.2,0-4.9c-11.1,0.1-22.2-0.2-33.3-1c0,1.6,0,3.2,0,4.9C69.8,156.9,68.1,156.7,66.4,156.6z M67.5,157.5
		c0,6.1,0,12.3,0,18.4c1.7,0.1,3.4,0.3,5.1,0.4c0,1.6,0,3.2,0,4.8c10.4,0.7,20.8,0.9,31.1,0.9c0-1.6,0-3.2,0-4.8c1.7,0,3.4,0,5.2,0
		c0-6.1,0-12.3,0-18.4c-1.7,0-3.4,0-5.2,0c0-1.6,0-3.3,0-4.9c-10.4,0-20.8-0.2-31.1-0.9c0,1.6,0,3.3,0,4.9
		C70.9,157.8,69.2,157.7,67.5,157.5z"/>
	<path fill-rule="evenodd" clip-rule="evenodd" fill="#C14029" d="M114.4,58.2c-1.1-1.6-2.2-3.2-3.3-4.8c0-1.2,0-2.3,0-3.5
		c-1-1.3-2-2.5-3-3.8c-2.2,0-4.3,0-6.5,0c-1.7-1.2-3.5-2.4-5.2-3.6c-5.5-0.1-11-0.2-16.5-0.5c-1.7,1.1-3.4,2.2-5.1,3.3
		c-2.1-0.1-4.1-0.3-6.2-0.4c-1.1,1.2-2.2,2.4-3.3,3.6c0,1.2,0,2.3,0,3.5c-1,1.5-2,3.1-3,4.6c0,3.2,0,6.3,0,9.5c1,1.7,2,3.4,3,5.1
		c0,1.2,0,2.4,0,3.5c1.1,1.3,2.2,2.5,3.3,3.8c2.1,0.2,4.1,0.3,6.2,0.4c1.7,1.3,3.4,2.5,5.1,3.8c5.5,0.3,11,0.4,16.5,0.5
		c1.7-1.1,3.5-2.3,5.2-3.5c2.2,0,4.4,0,6.5,0c1-1.2,2-2.4,3-3.6c0-1.2,0-2.4,0-3.5c1.1-1.6,2.2-3.2,3.3-4.9
		C114.4,64.6,114.4,61.4,114.4,58.2z"/>
	<path fill-rule="evenodd" clip-rule="evenodd" fill="#E18529" d="M63.1,61.3c0,1.2,0,2.4,0,3.5c1.1,1.7,2.2,3.4,3.3,5.1
		c0,1.2,0,2.4,0,3.5c1,1.3,2,2.7,2.9,4c2.2,0.2,4.4,0.3,6.5,0.4c1.7,1.3,3.4,2.5,5.1,3.8c2.4,0.1,4.9,0.2,7.3,0.3
		c0-6.4,0-12.8,0-19.2C79.9,62.5,71.5,62.1,63.1,61.3z"/>
	<path fill-rule="evenodd" clip-rule="evenodd" fill="#C14029" d="M79.4,70.8c-1.3,0.9-2.5,1.9-3.8,2.8c-0.7,0-1.4-0.1-2.2-0.1
		c0.3,0.4,0.5,0.7,0.8,1.1c-0.5,0.7-1.1,1.3-1.6,2c0.3,0.4,0.5,0.8,0.8,1.2c0.7-0.3,1.4-0.7,2.2-1c0.3,0.4,0.5,0.8,0.8,1.2
		c0.1-0.9,0.2-1.8,0.3-2.7c1.4-1,2.9-2,4.3-3C80.5,71.8,79.9,71.3,79.4,70.8z"/>
	<path fill-rule="evenodd" clip-rule="evenodd" fill="#C14029" d="M75.3,68.1c-1.3,1-2.5,2.1-3.8,3.1c-0.8-0.1-1.6-0.1-2.4-0.2
		c0.3,0.3,0.5,0.6,0.8,0.9c-0.4,0.7-0.8,1.4-1.3,2c0.2,0.4,0.3,0.7,0.5,1.1c0.8-0.3,1.6-0.6,2.4-0.9c0.3,0.4,0.5,0.8,0.8,1.1
		c0.1-0.9,0.2-1.8,0.3-2.7c1.4-1,2.7-2,4.1-3C76.2,69.1,75.8,68.6,75.3,68.1z"/>
	<path fill-rule="evenodd" clip-rule="evenodd" fill="#C14029" d="M73.2,63.4c-1.3,0.9-2.5,1.9-3.8,2.8c-0.7-0.1-1.4-0.1-2.1-0.2
		c0.3,0.4,0.5,0.7,0.8,1.1c-0.5,0.6-1.1,1.2-1.6,1.8c0.3,0.4,0.5,0.8,0.8,1.1c0.7-0.3,1.4-0.6,2.1-0.9c0.3,0.4,0.6,0.7,0.8,1.1
		c0.1-0.9,0.2-1.8,0.3-2.7c1.4-1,2.9-2,4.3-3C74.3,64.3,73.7,63.8,73.2,63.4z"/>
	<path fill-rule="evenodd" clip-rule="evenodd" fill="#E18529" d="M113.3,62.8c0-1.2,0-2.4,0-3.6c-1.1-1.6-2.2-3.2-3.3-4.7
		c0-1.2,0-2.4,0-3.5c-1-1.2-2-2.3-3-3.5c-2.1,0-4.2,0-6.2,0c-1.8-1.3-3.6-2.5-5.4-3.8c-2.4,0-4.7-0.1-7.1-0.1c0,6.4,0,12.8,0,19.2
		C96.7,63,105,63,113.3,62.8z"/>
	<path fill-rule="evenodd" clip-rule="evenodd" fill="#C14029" d="M88.3,82c-0.7,0-1.4,0-2.1-0.1c-0.7-0.8-1.5-1.7-2.2-2.5
		c-1.2,0-2.4-0.1-3.5-0.1c-0.6-0.4-1.2-0.8-1.9-1.2c0.4-0.4,0.7-0.9,1.1-1.3c0.6,0.5,1.3,0.9,1.9,1.4c0.6,0,1.2,0.1,1.9,0.1
		c0.6-1.2,1.3-2.5,1.9-3.7c1,0.5,2,1,2.9,1.4c0,0.8,0,1.6,0,2.4c-1,0-2-0.1-2.9-0.1C86.4,79.6,87.3,80.8,88.3,82z"/>
	<path fill-rule="evenodd" clip-rule="evenodd" fill="#FFFFFF" d="M63.1,61.3c0-1.2,0-2.4,0-3.6c1.1-1.5,2.2-3,3.3-4.5
		c0-1.2,0-2.4,0-3.5c1-1.1,2-2.2,2.9-3.3c2.2,0.2,4.4,0.3,6.5,0.4c1.7-1.2,3.4-2.3,5.1-3.5c2.4,0.1,4.9,0.2,7.3,0.3
		c0,6.4,0,12.8,0,19.2C79.9,62.5,71.5,62.1,63.1,61.3z"/>
	<path fill-rule="evenodd" clip-rule="evenodd" fill="#C14029" d="M88.3,43.6c-0.7,0-1.4,0-2.1-0.1c-0.7,0.8-1.5,1.6-2.2,2.4
		c-1.2,0-2.4-0.1-3.5-0.1c-0.6,0.4-1.2,0.8-1.9,1.2c0.4,0.4,0.7,0.7,1.1,1.1c0.6-0.3,1.3-0.6,1.9-1c0.6,0,1.2,0.1,1.9,0.1
		c0.6,1.2,1.3,2.4,1.9,3.6c1-0.3,2-0.6,2.9-1c0-0.8,0-1.7,0-2.5c-1,0-2-0.1-2.9-0.1C86.4,46,87.3,44.8,88.3,43.6z"/>
	<path fill-rule="evenodd" clip-rule="evenodd" fill="#C14029" d="M88.3,43.6c0.6,0,1.3,0,1.9,0c0.7,0.8,1.5,1.7,2.2,2.5
		c1.2,0,2.3,0,3.5,0.1c0.6,0.5,1.3,0.9,1.9,1.4c-0.3,0.4-0.6,0.7-0.8,1.1c-0.7-0.4-1.5-0.7-2.2-1.1c-0.6,0-1.2,0-1.9,0
		c-0.6,1.2-1.3,2.3-1.9,3.5c-0.9-0.4-1.8-0.7-2.7-1.1c0-0.8,0-1.7,0-2.5c0.9,0,1.8,0,2.7,0.1C90.1,46.1,89.2,44.9,88.3,43.6z"/>
	<path fill-rule="evenodd" clip-rule="evenodd" fill="#FFFFFF" d="M113.3,62.8c0,1.2,0,2.4,0,3.5c-1.1,1.6-2.2,3.3-3.3,4.9
		c0,1.2,0,2.4,0,3.5c-1,1.3-2,2.6-3,3.8c-2.1,0-4.2,0-6.2,0c-1.8,1.2-3.6,2.3-5.4,3.5c-2.4,0-4.7-0.1-7.1-0.1c0-6.4,0-12.8,0-19.2
		C96.7,63,105,63,113.3,62.8z"/>
	<path fill-rule="evenodd" clip-rule="evenodd" fill="#C14029" d="M88.3,82c0.6,0,1.3,0,1.9,0c0.7-0.8,1.5-1.6,2.2-2.4
		c1.2,0,2.3,0,3.5,0.1c0.6-0.4,1.3-0.7,1.9-1.1c-0.3-0.4-0.6-0.9-0.8-1.3c-0.7,0.4-1.5,0.9-2.2,1.3c-0.6,0-1.2,0-1.9,0
		c-0.6-1.3-1.3-2.5-1.9-3.8c-0.9,0.4-1.8,0.9-2.7,1.3c0,0.8,0,1.6,0,2.4c0.9,0,1.8,0,2.7,0.1C90.1,79.7,89.2,80.9,88.3,82z"/>
	<path fill-rule="evenodd" clip-rule="evenodd" fill="#C14029" d="M75.3,56.3c-1.3-1.1-2.5-2.1-3.8-3.2c-0.8-0.1-1.6-0.1-2.4-0.2
		c0.3-0.3,0.5-0.7,0.8-1c-0.4-0.8-0.8-1.5-1.3-2.3c0.2-0.2,0.3-0.5,0.5-0.7c0.8,0.3,1.6,0.6,2.4,0.9c0.3-0.2,0.5-0.5,0.8-0.7
		c0.1,0.9,0.2,1.8,0.3,2.7c1.4,1.2,2.7,2.3,4.1,3.5C76.2,55.6,75.8,55.9,75.3,56.3z"/>
	<path fill-rule="evenodd" clip-rule="evenodd" fill="#C14029" d="M97,54.6c1.3-1,2.5-2,3.8-3c0.7,0,1.4,0,2.2,0
		c-0.2-0.4-0.4-0.7-0.5-1.1c0.4-0.6,0.9-1.3,1.3-1.9c-0.3-0.4-0.5-0.7-0.8-1.1c-0.7,0.4-1.4,0.7-2.2,1.1c-0.3-0.4-0.5-0.7-0.8-1.1
		c-0.1,0.9-0.2,1.8-0.3,2.7c-1.4,1.1-2.9,2.2-4.3,3.3C95.9,53.9,96.5,54.2,97,54.6z"/>
	<path fill-rule="evenodd" clip-rule="evenodd" fill="#C14029" d="M79.4,54.1c-1.3-1.1-2.5-2.1-3.8-3.2c-0.7,0-1.4-0.1-2.2-0.1
		c0.3-0.3,0.5-0.7,0.8-1c-0.5-0.7-1.1-1.3-1.6-2c0.3-0.3,0.5-0.7,0.8-1c0.7,0.4,1.4,0.8,2.2,1.2c0.3-0.3,0.5-0.7,0.8-1
		c0.1,0.9,0.2,1.8,0.3,2.7c1.4,1.2,2.9,2.4,4.3,3.5C80.5,53.4,79.9,53.7,79.4,54.1z"/>
	<path fill-rule="evenodd" clip-rule="evenodd" fill="#C14029" d="M73.2,61c-1.3-1.2-2.5-2.3-3.8-3.5c-0.7-0.1-1.4-0.1-2.1-0.2
		c0.3-0.3,0.5-0.5,0.8-0.8c-0.5-0.8-1.1-1.5-1.6-2.3c0.3-0.3,0.5-0.7,0.8-1c0.7,0.4,1.4,0.8,2.1,1.2c0.3-0.3,0.6-0.7,0.8-1
		c0.1,0.9,0.2,1.8,0.3,2.7c1.4,1.2,2.9,2.4,4.3,3.5C74.3,60.2,73.7,60.6,73.2,61z"/>
	<path fill-rule="evenodd" clip-rule="evenodd" fill="#FFFFFF" d="M65,61.5c0.4,0,0.7,0.1,1.1,0.1c0.3,0.5,0.5,0.9,0.8,1.4
		c0.4-0.4,0.7-0.8,1.1-1.2c6.8,0.5,13.5,0.9,20.3,1c0,5.6,0,11.2,0,16.8c-0.4,0-0.7,0-1.1,0c0.4,0.4,0.7,0.7,1.1,1.1
		c0,0.4,0,0.9,0,1.3c-1-1.2-2-2.4-2.9-3.6c0-0.4,0-0.9,0-1.3c0.3,0,0.5,0,0.8,0c0,0.4,0,0.9,0,1.3c0.4,0,0.7,0,1.1,0
		c0-0.4,0-0.9,0-1.3c-2.6-1.8-5.3-3.6-7.9-5.4c-2.2-0.1-4.3-0.2-6.5-0.4c0-1.7,0-3.4,0-5.1c-1-1-2-2-3-3c-0.6,0-1.2-0.1-1.9-0.1
		c-0.4,0.3-0.7,0.7-1.1,1c0.4,0.4,0.7,0.8,1.1,1.1c-0.4,0-0.7-0.1-1.1-0.1C66.3,64,65.6,62.7,65,61.5z"/>
	<path fill-rule="evenodd" clip-rule="evenodd" fill="#E18529" d="M65,61.5c0.4,0,0.7,0.1,1.1,0.1c0.3-0.3,0.5-0.7,0.8-1
		c0.4,0.4,0.7,0.8,1.1,1.2c6.8,0.5,13.5,0.9,20.3,1c0-5.6,0-11.2,0-16.8c-0.4,0-0.7,0-1.1,0c0.4-0.4,0.7-0.7,1.1-1.1
		c0-0.4,0-0.9,0-1.3c-1,1.2-2,2.5-2.9,3.7c0,0.4,0,0.7,0,1.1c0.3,0,0.5,0,0.8,0c0-0.4,0-0.7,0-1.1c0.4,0,0.7,0,1.1,0
		c0,0.4,0,0.7,0,1.1c-2.6,1.7-5.3,3.4-7.9,5.1c-2.2-0.1-4.3-0.2-6.5-0.4c0,1.7,0,3.4,0,5.1c-1,0.8-2,1.7-3,2.5
		c-0.6,0-1.2-0.1-1.9-0.1c-0.4-0.5-0.7-1-1.1-1.4c0.4-0.3,0.7-0.7,1.1-1c-0.4,0-0.7-0.1-1.1-0.1C66.3,59.2,65.6,60.4,65,61.5z"/>
	<path fill-rule="evenodd" clip-rule="evenodd" fill="#32755B" d="M69.4,61.8c6.3,0.5,12.6,0.8,19,0.9c0,4.8,0,9.6,0,14.4
		c-2.8-2.1-5.6-4.2-8.4-6.3c-2.1-0.1-4.2-0.2-6.2-0.3c0-1.6,0-3.2,0-4.9C72.2,64.4,70.8,63.1,69.4,61.8z"/>
	<path fill-rule="evenodd" clip-rule="evenodd" fill="#C14029" d="M101.1,57c1.3-1,2.5-2,3.8-3c0.8,0,1.6,0,2.4,0
		c-0.3-0.3-0.5-0.7-0.8-1c0.6-0.7,1.1-1.5,1.7-2.2c-0.3-0.3-0.6-0.5-0.8-0.8c-0.8,0.3-1.6,0.5-2.4,0.8c-0.2-0.3-0.4-0.5-0.6-0.8
		c-0.2,0.9-0.4,1.8-0.5,2.7c-1.4,1.1-2.7,2.2-4.1,3.2C100.2,56.3,100.6,56.6,101.1,57z"/>
	<path fill-rule="evenodd" clip-rule="evenodd" fill="#C14029" d="M103.3,61.9c1.3-1.1,2.5-2.2,3.8-3.2c0.7,0,1.4,0,2.1,0
		c-0.2-0.3-0.3-0.5-0.5-0.8c0.4-0.7,0.9-1.5,1.3-2.2c-0.3-0.3-0.6-0.7-0.8-1c-0.7,0.4-1.4,0.7-2.1,1.1c-0.3-0.4-0.6-0.7-0.8-1.1
		c-0.1,0.9-0.2,1.8-0.3,2.7c-1.4,1.1-2.9,2.2-4.3,3.3C102.2,61,102.7,61.4,103.3,61.9z"/>
	<path fill-rule="evenodd" clip-rule="evenodd" fill="#FFFFFF" d="M111.4,62.9c-0.4,0-0.8,0-1.2,0c-0.3-0.4-0.5-0.7-0.8-1.1
		c-0.4,0.4-0.8,0.7-1.2,1.1c-6.7,0.1-13.3,0.1-20-0.1c0-5.6,0-11.2,0-16.8c0.3,0,0.6,0,0.8,0c-0.3-0.4-0.6-0.8-0.8-1.1
		c0-0.4,0-0.9,0-1.3c0.9,1.3,1.8,2.6,2.7,3.9c0,0.4,0,0.7,0,1.1c-0.3,0-0.5,0-0.8,0c0-0.4,0-0.7,0-1.1c-0.4,0-0.7,0-1.1,0
		c0,0.4,0,0.7,0,1.1c2.6,1.9,5.2,3.7,7.8,5.6c2.2,0,4.3,0,6.5,0c0,1.7,0,3.4,0,5.1c1,0.9,2,1.8,3,2.7c0.6,0,1.2,0,1.8,0
		c0.4-0.5,0.8-0.9,1.2-1.4c-0.4-0.4-0.8-0.7-1.2-1.1c0.4,0,0.8,0,1.2,0C110.1,60.5,110.8,61.7,111.4,62.9z"/>
	<path fill-rule="evenodd" clip-rule="evenodd" fill="#32755B" d="M107,62.9c-6.2,0.1-12.5,0-18.7-0.1c0-4.8,0-9.6,0-14.4
		c2.7,2.1,5.4,4.1,8.1,6.1c2.1,0,4.2,0,6.3,0c0,1.6,0,3.2,0,4.8C104.2,60.6,105.6,61.8,107,62.9z"/>
	<path fill-rule="evenodd" clip-rule="evenodd" fill="#C14029" d="M97,71.3c1.3,1,2.5,2,3.8,3c0.7,0,1.4,0,2.2,0
		c-0.2,0.4-0.4,0.7-0.5,1.1c0.4,0.7,0.9,1.4,1.3,2.1c-0.3,0.4-0.5,0.7-0.8,1.1c-0.7-0.4-1.4-0.7-2.2-1.1c-0.3,0.4-0.5,0.7-0.8,1.1
		c-0.1-0.9-0.2-1.8-0.3-2.7c-1.4-1.1-2.9-2.2-4.3-3.3C95.9,72.2,96.5,71.8,97,71.3z"/>
	<path fill-rule="evenodd" clip-rule="evenodd" fill="#C14029" d="M101.1,68.9c1.3,1.1,2.5,2.2,3.8,3.3c0.8,0,1.6,0,2.4,0
		c-0.3,0.3-0.5,0.6-0.8,0.8c0.6,0.7,1.1,1.4,1.7,2.1c-0.3,0.4-0.6,0.7-0.8,1.1c-0.8-0.3-1.6-0.7-2.4-1.1c-0.2,0.4-0.4,0.7-0.6,1.1
		c-0.2-0.9-0.4-1.8-0.5-2.7c-1.4-1.1-2.7-2.2-4.1-3.3C100.2,69.8,100.6,69.3,101.1,68.9z"/>
	<path fill-rule="evenodd" clip-rule="evenodd" fill="#C14029" d="M103.3,64.3c1.3,1,2.5,2,3.8,3c0.7,0,1.4,0,2.1,0
		c-0.2,0.4-0.3,0.7-0.5,1.1c0.4,0.6,0.9,1.3,1.3,1.9c-0.3,0.4-0.6,0.7-0.8,1.1c-0.7-0.3-1.4-0.7-2.1-1c-0.3,0.4-0.6,0.7-0.8,1.1
		c-0.1-0.9-0.2-1.8-0.3-2.7c-1.4-1.1-2.9-2.1-4.3-3.2C102.2,65,102.7,64.7,103.3,64.3z"/>
	<path fill-rule="evenodd" clip-rule="evenodd" fill="#E18529" d="M111.4,62.9c-0.4,0-0.8,0-1.2,0c-0.3,0.4-0.5,0.9-0.8,1.3
		c-0.4-0.4-0.8-0.9-1.2-1.3c-6.7,0.1-13.3,0.1-20-0.1c0,5.6,0,11.2,0,16.8c0.3,0,0.6,0,0.8,0c-0.3,0.4-0.6,0.7-0.8,1.1
		c0,0.4,0,0.9,0,1.3c0.9-1.1,1.8-2.3,2.7-3.4c0-0.4,0-0.9,0-1.3c-0.3,0-0.5,0-0.8,0c0,0.4,0,0.9,0,1.3c-0.4,0-0.7,0-1.1,0
		c0-0.4,0-0.9,0-1.3c2.6-1.6,5.2-3.3,7.8-5c2.2,0,4.3,0,6.5,0c0-1.7,0-3.4,0-5.1c1-0.9,2-1.9,3-2.8c0.6,0,1.2,0,1.8,0
		c0.4,0.4,0.8,0.7,1.2,1.1c-0.4,0.4-0.8,0.7-1.2,1.1c0.4,0,0.8,0,1.2,0C110.1,65.2,110.8,64,111.4,62.9z"/>
	<path fill-rule="evenodd" clip-rule="evenodd" fill="#C14029" d="M107,62.9c-6.2,0.1-12.5,0-18.7-0.1c0,4.8,0,9.6,0,14.4
		c2.7-1.9,5.4-3.9,8.1-5.8c2.1,0,4.2,0,6.3,0c0-1.6,0-3.2,0-4.9C104.2,65.3,105.6,64.1,107,62.9z"/>
	<path fill-rule="evenodd" clip-rule="evenodd" fill="#C14029" d="M69.4,61.8c6.3,0.5,12.6,0.8,19,0.9c0-4.8,0-9.6,0-14.4
		c-2.8,1.9-5.6,3.8-8.4,5.7c-2.1-0.1-4.2-0.2-6.2-0.3c0,1.6,0,3.2,0,4.8C72.2,59.7,70.8,60.8,69.4,61.8z"/>
	<path fill-rule="evenodd" clip-rule="evenodd" fill="#C14029" d="M90.2,62.8c1.7-1.1,3.4-2.3,5.2-3.5c1.1,0,2.2,0,3.3,0
		c-0.4-0.3-0.8-0.7-1.2-1c0.7-0.8,1.5-1.6,2.2-2.4c-0.3-0.4-0.7-0.9-1-1.3c-1.1,0.4-2.2,0.9-3.3,1.3c-0.3-0.5-0.5-0.9-0.8-1.4
		c-0.2,1.1-0.4,2.2-0.5,3.2c-1.9,1.2-3.8,2.4-5.7,3.6C89,61.9,89.6,62.4,90.2,62.8z"/>
	<path fill-rule="evenodd" clip-rule="evenodd" fill="#C14029" d="M86.2,62.7c-1.7,1.1-3.4,2.2-5.2,3.3c-1.1,0-2.2-0.1-3.3-0.2
		c0.4,0.5,0.7,1,1.1,1.5c-0.7,0.8-1.4,1.5-2.1,2.3c0.3,0.4,0.7,0.7,1,1.1c1.1-0.3,2.2-0.6,3.3-0.9c0.4,0.4,0.7,0.7,1.1,1.1
		c0.1-1.1,0.2-2.2,0.2-3.2c2-1.2,4-2.4,6-3.6C87.6,63.6,86.9,63.2,86.2,62.7z"/>
	<path fill-rule="evenodd" clip-rule="evenodd" fill="#32755B" d="M86.2,62.7c-1.7-1.2-3.4-2.5-5.2-3.8c-1.1,0-2.2-0.1-3.3-0.2
		c0.4-0.3,0.7-0.6,1.1-0.9c-0.7-0.9-1.4-1.7-2.1-2.6c0.3-0.4,0.7-0.9,1-1.3c1.1,0.5,2.2,1,3.3,1.5c0.4-0.4,0.7-0.9,1.1-1.3
		c0.1,1.1,0.2,2.2,0.2,3.2c2,1.3,4,2.7,6,4C87.6,61.8,86.9,62.3,86.2,62.7z"/>
	<path fill-rule="evenodd" clip-rule="evenodd" fill="#32755B" d="M90.2,62.8c1.7,1.2,3.4,2.4,5.2,3.6c1.1,0,2.2,0,3.3,0
		c-0.4,0.5-0.8,0.9-1.2,1.4c0.7,0.8,1.5,1.6,2.2,2.4c-0.3,0.4-0.7,0.7-1,1.1c-1.1-0.4-2.2-0.7-3.3-1.1c-0.3,0.4-0.5,0.7-0.8,1.1
		c-0.2-1.1-0.4-2.2-0.5-3.3c-1.9-1.3-3.8-2.6-5.7-3.9C89,63.7,89.6,63.3,90.2,62.8z"/>
	<path fill-rule="evenodd" clip-rule="evenodd" fill="#FFFFFF" d="M82.1,62.6c2.1-1.9,4.1-3.8,6.2-5.7c2.1,2,4.2,4.1,6.2,6.1
		c-2.1,1.9-4.2,3.9-6.2,5.8C86.3,66.7,84.2,64.6,82.1,62.6z"/>
	<path fill-rule="evenodd" clip-rule="evenodd" fill="#C14029" d="M68,64.2c0.3,0.4,0.6,0.7,0.8,1.1c-0.3,0.4-0.6,0.9-0.8,1.3
		c-0.4,0-0.7-0.1-1.1-0.1c-0.9-1.7-1.8-3.4-2.7-5.1c0.3,0,0.5,0,0.8,0.1c0.6,1.2,1.3,2.5,1.9,3.7c0.4,0,0.7,0.1,1.1,0.1
		c-0.4-0.4-0.7-0.8-1.1-1.1c0.4-0.3,0.7-0.7,1.1-1c0.6,0,1.2,0.1,1.9,0.1c0,0.4,0,0.8,0,1.1C69.3,64.3,68.6,64.3,68,64.2z"/>
	<path fill-rule="evenodd" clip-rule="evenodd" fill="#C14029" d="M68,59.3c0.3-0.4,0.6-0.7,0.8-1.1c-0.3-0.4-0.6-0.7-0.8-1.1
		c-0.4,0-0.7-0.1-1.1-0.1c-0.9,1.5-1.8,2.9-2.7,4.3c0.3,0,0.5,0,0.8,0.1c0.6-1.1,1.3-2.3,1.9-3.4c0.4,0,0.7,0.1,1.1,0.1
		c-0.4,0.3-0.7,0.7-1.1,1c0.4,0.5,0.7,1,1.1,1.4c0.6,0,1.2,0.1,1.9,0.1c0-0.4,0-0.9,0-1.3C69.3,59.4,68.6,59.3,68,59.3z"/>
	<path fill-rule="evenodd" clip-rule="evenodd" fill="#C14029" d="M108.3,65.4c-0.3,0.4-0.5,0.7-0.8,1.1c0.3,0.5,0.5,0.9,0.8,1.4
		c0.4,0,0.8,0,1.2,0c0.9-1.7,1.8-3.3,2.7-5c-0.3,0-0.5,0-0.8,0c-0.6,1.2-1.3,2.4-1.9,3.6c-0.4,0-0.8,0-1.2,0
		c0.4-0.4,0.8-0.7,1.2-1.1c-0.4-0.4-0.8-0.7-1.2-1.1c-0.6,0-1.2,0-1.8,0c0,0.4,0,0.8,0,1.1C107.1,65.4,107.7,65.4,108.3,65.4z"/>
	<path fill-rule="evenodd" clip-rule="evenodd" fill="#C14029" d="M108.3,60.5c-0.3-0.4-0.5-0.7-0.8-1.1c0.3-0.3,0.5-0.7,0.8-1
		c0.4,0,0.8,0,1.2,0c0.9,1.5,1.8,3,2.7,4.5c-0.3,0-0.5,0-0.8,0c-0.6-1.2-1.3-2.4-1.9-3.5c-0.4,0-0.8,0-1.2,0
		c0.4,0.4,0.8,0.7,1.2,1.1c-0.4,0.5-0.8,0.9-1.2,1.4c-0.6,0-1.2,0-1.8,0c0-0.4,0-0.9,0-1.3C107.1,60.5,107.7,60.5,108.3,60.5z"/>
	<path fill-rule="evenodd" clip-rule="evenodd" fill="#C14029" d="M87.3,67.7c0.6,0,1.3,0,1.9,0.1c0-3.2,0-6.3,0-9.5
		c-0.6,0-1.3,0-1.9-0.1C87.3,61.3,87.3,64.5,87.3,67.7z"/>
	<path fill-rule="evenodd" clip-rule="evenodd" fill="#C14029" d="M84.3,65.1c2.6,0.1,5.2,0.2,7.8,0.2c0-1.6,0-3.3,0-4.9
		c-2.6,0-5.2-0.1-7.8-0.2C84.3,61.8,84.3,63.5,84.3,65.1z"/>
	<path fill-rule="evenodd" clip-rule="evenodd" fill="#32755B" d="M79.7,249.7c-5.8,3.1-11.6,6-17.4,8.8c0,5.7,0,11.4,0,17.1
		c5.8,3.9,11.6,7.6,17.4,11.2c5.8,0.3,11.5,0.4,17.3,0.5c5.8-3.3,11.6-6.7,17.4-10.2c0-5.7,0-11.4,0-17.1
		c-5.8-3.2-11.6-6.5-17.4-9.9C91.2,250.1,85.5,250,79.7,249.7z"/>
	<path fill-rule="evenodd" clip-rule="evenodd" fill="#CF3F27" d="M68.6,263.6c0.3,0,0.7,0.1,1,0.1c0-0.8,0-1.6,0-2.4
		c0.7,0.1,1.4,0.1,2.2,0.1c0,0.8,0,1.6,0,2.4c0.4,0,0.7,0,1.1,0.1c0-1.9,0-3.8,0-5.6c-0.4,0-0.7,0-1.1-0.1c0,0.8,0,1.6,0,2.4
		c-0.7,0-1.4-0.1-2.2-0.1c0-0.8,0-1.6,0-2.4c-0.3,0-0.7-0.1-1-0.1C68.6,259.8,68.6,261.7,68.6,263.6z"/>
	<path fill-rule="evenodd" clip-rule="evenodd" fill="#CF3F27" d="M95.1,283.9c0.3,0,0.7,0,1,0c0-0.8,0-1.6,0-2.4c0.8,0,1.5,0,2.3,0
		c0,0.8,0,1.6,0,2.4c0.3,0,0.7,0,1,0c0-1.9,0-3.8,0-5.6c-0.3,0-0.7,0-1,0c0,0.8,0,1.6,0,2.4c-0.8,0-1.5,0-2.3,0c0-0.8,0-1.6,0-2.4
		c-0.3,0-0.7,0-1,0C95.1,280.2,95.1,282.1,95.1,283.9z"/>
	<path fill-rule="evenodd" clip-rule="evenodd" fill="#CF3F27" d="M103.5,264.8c0.4,0,0.7,0,1.1,0c0-0.8,0-1.6,0-2.4
		c0.7,0,1.4,0,2.1,0c0,0.8,0,1.6,0,2.4c0.4,0,0.7,0,1.1,0c0-1.9,0-3.8,0-5.6c-0.4,0-0.7,0-1.1,0c0,0.8,0,1.6,0,2.4
		c-0.7,0-1.4,0-2.1,0c0-0.8,0-1.6,0-2.4c-0.4,0-0.7,0-1.1,0C103.5,261,103.5,262.9,103.5,264.8z"/>
	<path fill-rule="evenodd" clip-rule="evenodd" fill="#CF3F27" d="M103.5,274.5c0.4,0,0.7,0,1.1,0c0-0.8,0-1.6,0-2.4
		c0.7,0,1.4,0,2.1,0c0,0.8,0,1.6,0,2.4c0.4,0,0.7,0,1.1,0c0-2,0-4,0-6c-0.4,0-0.7,0-1.1,0c0,0.9,0,1.8,0,2.7c-0.7,0-1.4,0-2.1,0
		c0-0.9,0-1.8,0-2.7c-0.4,0-0.7,0-1.1,0C103.5,270.5,103.5,272.5,103.5,274.5z"/>
	<path fill-rule="evenodd" clip-rule="evenodd" fill="#E18529" d="M88.3,286.3c0-6,0-11.9,0-17.9c8.3,0.2,16.7,0.2,25,0
		c0,2.7,0,5.4,0,8.1c-5.5,3.4-11,6.7-16.6,9.8C93.9,286.4,91.1,286.3,88.3,286.3z"/>
	<path fill-rule="evenodd" clip-rule="evenodd" fill="#E18529" d="M88.3,250.9c0,5.8,0,11.7,0,17.5c-8.4-0.2-16.8-0.7-25.2-1.4
		c0-2.6,0-5.2,0-7.8c5.6-2.7,11.2-5.6,16.8-8.6C82.7,250.7,85.5,250.8,88.3,250.9z"/>
	<path fill-rule="evenodd" clip-rule="evenodd" fill="#FFFFFF" d="M88.3,250.9c0,5.8,0,11.7,0,17.5c8.3,0.2,16.7,0.2,25,0
		c0-2.6,0-5.2,0-7.8c-5.5-3.1-11-6.3-16.6-9.6C93.9,251,91.1,250.9,88.3,250.9z"/>
	<path fill-rule="evenodd" clip-rule="evenodd" fill="#FFFFFF" d="M88.3,286.3c0-6,0-11.9,0-17.9c-8.4-0.2-16.8-0.7-25.2-1.4
		c0,2.7,0,5.4,0,8.1c5.6,3.7,11.2,7.4,16.8,10.9C82.7,286.1,85.5,286.2,88.3,286.3z"/>
	<path fill-rule="evenodd" clip-rule="evenodd" fill="#E18529" d="M101.6,261.5c3.3,0,6.7,0,10-0.1c-3.3-1.5-6.7-3.1-10-4.7
		C101.6,258.3,101.6,259.9,101.6,261.5z M113.3,260.6c0,2.6,0,5.2,0,7.8c-5.3,0.1-10.5,0.2-15.8,0.1c0-2.1,0-4.1,0-6.2
		c-1.2,0-2.3,0-3.5,0c-1.4-0.8-2.7-1.7-4.1-2.5c0-1.9,0-3.8,0-5.7c0.8-0.8,1.7-1.6,2.5-2.4c-1.1,0-2.2,0-3.2-0.1c0,2.7,0,5.4,0,8.1
		c-0.3,0-0.6,0-0.8,0c0-3,0-5.9,0-8.9c2.8,0.1,5.6,0.1,8.4,0.2C102.3,254.3,107.8,257.5,113.3,260.6z"/>
	<path fill-rule="evenodd" clip-rule="evenodd" fill="#C14029" d="M79.9,262.7c0,3.7,0,7.4,0,11.1c0.8,0,1.6,0.1,2.4,0.1
		c2,1.2,4,2.3,6,3.4c1.9-1,3.8-2.1,5.7-3.1c0.9,0,1.8,0,2.7,0c0-3.7,0-7.4,0-11.1c-0.9,0-1.8,0-2.7,0c-1.9-1.1-3.8-2.2-5.7-3.4
		c-2,1-4,2-6,3C81.6,262.7,80.7,262.7,79.9,262.7z"/>
	<path fill-rule="evenodd" clip-rule="evenodd" fill="#E18529" d="M74.8,275.1c-3.3-0.2-6.7-0.4-10-0.7c3.3,1.9,6.7,3.8,10,5.6
		C74.8,278.4,74.8,276.7,74.8,275.1z M63.1,275.1c0-2.7,0-5.4,0-8.1c5.3,0.5,10.7,0.8,16,1.1c0,2.2,0,4.4,0,6.5
		c1.1,0.1,2.2,0.1,3.2,0.1c1.4,0.9,2.7,1.7,4.1,2.5c0,1.9,0,3.8,0,5.7c-0.8,0.8-1.6,1.6-2.4,2.4c1.1,0,2.2,0.1,3.3,0.1
		c0-2.7,0-5.4,0-8.2c0.4,0,0.7,0,1.1,0c0,3,0,6,0,8.9c-2.8-0.1-5.6-0.2-8.4-0.3C74.3,282.4,68.7,278.8,63.1,275.1z"/>
	<path fill-rule="evenodd" clip-rule="evenodd" fill="#FFFFFF" d="M74.8,260.8c-3.3-0.2-6.7-0.4-10-0.7c3.3-1.3,6.7-2.7,10-4.1
		C74.8,257.5,74.8,259.1,74.8,260.8z M63.1,259.1c0,2.6,0,5.2,0,7.8c5.3,0.5,10.7,0.8,16,1.1c0-2.1,0-4.1,0-6.2
		c1.1,0.1,2.2,0.1,3.2,0.1c1.4-0.8,2.7-1.5,4.1-2.3c0-1.9,0-3.8,0-5.7c-0.8-0.8-1.6-1.7-2.4-2.5c1.1,0,2.2,0.1,3.3,0.1
		c0,2.7,0,5.4,0,8.1c0.4,0,0.7,0,1.1,0c0-3,0-5.9,0-8.9c-2.8-0.1-5.6-0.2-8.4-0.3C74.3,253.5,68.7,256.4,63.1,259.1z"/>
	<path fill-rule="evenodd" clip-rule="evenodd" fill="#FFFFFF" d="M101.6,275.9c3.3,0,6.7,0,10-0.1c-3.3,1.7-6.7,3.3-10,5
		C101.6,279.1,101.6,277.5,101.6,275.9z M113.3,276.6c0-2.7,0-5.4,0-8.1c-5.3,0.1-10.5,0.2-15.8,0.1c0,2.2,0,4.4,0,6.5
		c-1.2,0-2.3,0-3.5,0c-1.4,0.8-2.7,1.5-4.1,2.3c0,1.9,0,3.8,0,5.7c0.8,0.8,1.7,1.7,2.5,2.5c-1.1,0-2.2,0-3.2-0.1c0-2.7,0-5.4,0-8.2
		c-0.3,0-0.6,0-0.8,0c0,3,0,6,0,8.9c2.8,0.1,5.6,0.1,8.4,0.2C102.3,283.2,107.8,279.9,113.3,276.6z"/>
	<path fill-rule="evenodd" clip-rule="evenodd" fill="#C14029" d="M68,273.9c0.4,0,0.7,0.1,1.1,0.1c0-0.8,0-1.6,0-2.5
		c0.7,0.1,1.5,0.1,2.2,0.2c0,0.8,0,1.6,0,2.5c0.4,0,0.7,0,1.1,0.1c0-1.9,0-3.8,0-5.7c-0.4,0-0.7,0-1.1-0.1c0,0.8,0,1.6,0,2.4
		c-0.7,0-1.5-0.1-2.2-0.2c0-0.8,0-1.6,0-2.4c-0.4,0-0.7-0.1-1.1-0.1C68,270.1,68,272,68,273.9z"/>
	<path fill-rule="evenodd" clip-rule="evenodd" fill="#C14029" d="M78,282.6c0.4,0,0.8,0,1.1,0.1c0-0.8,0-1.6,0-2.4
		c0.7,0,1.5,0.1,2.2,0.1c0,0.8,0,1.6,0,2.4c0.4,0,0.7,0,1.1,0c0-1.9,0-3.8,0-5.7c-0.4,0-0.7,0-1.1,0c0,0.8,0,1.6,0,2.4
		c-0.7,0-1.5-0.1-2.2-0.1c0-0.8,0-1.6,0-2.4c-0.4,0-0.8,0-1.1-0.1C78,278.8,78,280.7,78,282.6z"/>
	<path fill-rule="evenodd" clip-rule="evenodd" fill="#C14029" d="M68,261.1c0.4,0,0.7,0.1,1.1,0.1c0,0.8,0,1.6,0,2.4
		c0.7,0.1,1.5,0.1,2.2,0.2c0-0.8,0-1.6,0-2.4c0.4,0,0.7,0,1.1,0.1c0,1.9,0,3.8,0,5.7c-0.4,0-0.7,0-1.1-0.1c0-0.8,0-1.6,0-2.4
		c-0.7,0-1.5-0.1-2.2-0.2c0,0.8,0,1.6,0,2.4c-0.4,0-0.7-0.1-1.1-0.1C68,264.9,68,263,68,261.1z"/>
	<path fill-rule="evenodd" clip-rule="evenodd" fill="#C14029" d="M78,253.7c0.4,0,0.8,0,1.1,0.1c0,0.8,0,1.6,0,2.4
		c0.7,0,1.5,0.1,2.2,0.1c0-0.8,0-1.6,0-2.4c0.4,0,0.7,0,1.1,0c0,1.9,0,3.8,0,5.7c-0.4,0-0.7,0-1.1,0c0-0.8,0-1.6,0-2.4
		c-0.7,0-1.5-0.1-2.2-0.1c0,0.8,0,1.6,0,2.4c-0.4,0-0.8,0-1.1-0.1C78,257.4,78,255.5,78,253.7z"/>
	<path fill-rule="evenodd" clip-rule="evenodd" fill="#C14029" d="M104.1,268c0.4,0,0.7,0,1.1,0c0-0.8,0-1.6,0-2.4
		c0.7,0,1.5,0,2.2,0c0,0.8,0,1.6,0,2.4c0.3,0,0.7,0,1,0c0-1.9,0-3.8,0-5.7c-0.3,0-0.7,0-1,0c0,0.8,0,1.6,0,2.4c-0.7,0-1.5,0-2.2,0
		c0-0.8,0-1.6,0-2.4c-0.4,0-0.7,0-1.1,0C104.1,264.2,104.1,266.1,104.1,268z"/>
	<path fill-rule="evenodd" clip-rule="evenodd" fill="#C14029" d="M94,283.1c0.4,0,0.7,0,1.1,0c0-0.8,0-1.6,0-2.4c0.7,0,1.5,0,2.2,0
		c0,0.8,0,1.6,0,2.4c0.4,0,0.7,0,1.1,0c0-1.9,0-3.8,0-5.7c-0.4,0-0.7,0-1.1,0c0,0.8,0,1.6,0,2.4c-0.7,0-1.5,0-2.2,0
		c0-0.8,0-1.6,0-2.4c-0.4,0-0.7,0-1.1,0C94,279.3,94,281.2,94,283.1z"/>
	<path fill-rule="evenodd" clip-rule="evenodd" fill="#C14029" d="M104.1,275.1c0.4,0,0.7,0,1.1,0c0-0.8,0-1.6,0-2.5
		c0.7,0,1.5,0,2.2,0c0,0.8,0,1.6,0,2.5c0.3,0,0.7,0,1,0c0-1.9,0-3.8,0-5.7c-0.3,0-0.7,0-1,0c0,0.8,0,1.6,0,2.4c-0.7,0-1.5,0-2.2,0
		c0-0.8,0-1.6,0-2.4c-0.4,0-0.7,0-1.1,0C104.1,271.3,104.1,273.2,104.1,275.1z"/>
	<path fill-rule="evenodd" clip-rule="evenodd" fill="#C14029" d="M94,259.8c0.4,0,0.7,0,1.1,0c0-0.8,0-1.6,0-2.4c0.7,0,1.5,0,2.2,0
		c0,0.8,0,1.6,0,2.4c0.4,0,0.7,0,1.1,0c0-1.9,0-3.8,0-5.7c-0.4,0-0.7,0-1.1,0c0,0.8,0,1.6,0,2.4c-0.7,0-1.5,0-2.2,0
		c0-0.8,0-1.6,0-2.4c-0.4,0-0.7,0-1.1,0C94,256.1,94,258,94,259.8z"/>
	<path fill-rule="evenodd" clip-rule="evenodd" fill="#32755B" d="M89.2,268.4c1.1-0.9,2.2-1.7,3.2-2.6c0.5,0,1.1,0,1.6,0
		c0,0.4,0,0.9,0,1.3c-0.5,0-1.1,0-1.6,0c0,0.3,0,0.5,0,0.8c0.8,0,1.6,0,2.4,0c0-1,0-2,0-3c-0.8,0-1.6,0-2.4,0c0-0.7,0-1.4,0-2.2
		c-1.1,0-2.2,0-3.2-0.1c0,0.7,0,1.4,0,2.2c0.3,0,0.5,0,0.8,0c0-0.5,0-1.1,0-1.6c0.6,0,1.1,0,1.7,0c0,0.5,0,1.1,0,1.6
		c-1.1,1-2.2,1.9-3.3,2.9c-1.2-1-2.3-2-3.5-3.1c0-0.5,0-1.1,0-1.6c0.5,0,1.1,0,1.6,0.1c0,0.5,0,1.1,0,1.6c0.3,0,0.6,0,0.8,0
		c0-0.7,0-1.4,0-2.2c-1.1,0-2.2-0.1-3.3-0.1c0,0.7,0,1.4,0,2.2c-0.8,0-1.6-0.1-2.4-0.1c0,1,0,2,0,3c0.8,0,1.6,0.1,2.4,0.1
		c0-0.3,0-0.5,0-0.8c-0.5,0-1.1,0-1.6-0.1c0-0.4,0-0.9,0-1.3c0.5,0,1.1,0,1.6,0.1c1.1,0.9,2.2,1.9,3.3,2.8c-1.1,1-2.2,1.9-3.3,2.9
		c-0.5,0-1.1,0-1.6-0.1c0-0.5,0-0.9,0-1.4c0.5,0,1.1,0,1.6,0.1c0-0.3,0-0.5,0-0.8c-0.8,0-1.6-0.1-2.4-0.1c0,1,0,2,0,3
		c0.8,0,1.6,0.1,2.4,0.1c0,0.7,0,1.4,0,2.2c1.1,0,2.2,0.1,3.3,0.1c0-0.7,0-1.4,0-2.2c-0.3,0-0.6,0-0.8,0c0,0.6,0,1.1,0,1.7
		c-0.5,0-1.1,0-1.6-0.1c0-0.6,0-1.1,0-1.7c1.2-1,2.3-1.9,3.5-2.9c1.1,1,2.2,2,3.3,3.1c0,0.6,0,1.1,0,1.7c-0.6,0-1.1,0-1.7,0
		c0-0.6,0-1.1,0-1.7c-0.3,0-0.5,0-0.8,0c0,0.7,0,1.4,0,2.2c1.1,0,2.2,0.1,3.2,0.1c0-0.7,0-1.4,0-2.2c0.8,0,1.6,0,2.4,0c0-1,0-2,0-3
		c-0.8,0-1.6,0-2.4,0c0,0.3,0,0.5,0,0.8c0.5,0,1.1,0,1.6,0c0,0.5,0,0.9,0,1.4c-0.5,0-1.1,0-1.6,0C91.3,270.5,90.3,269.4,89.2,268.4z
		"/>
	<path fill-rule="evenodd" clip-rule="evenodd" fill="#C14029" d="M64.8,117.5c0.6-0.7,1.1-1.3,1.7-2c3.2,0.3,6.5,0.5,9.7,0.7
		c2.4-2.9,4.9-5.9,7.3-8.9c3.2,0.1,6.5,0.2,9.7,0.3c2.4,3.1,4.9,6.2,7.3,9.3c3.2,0,6.3,0,9.5-0.1c0.5,0.7,1.1,1.4,1.6,2.1
		c-0.5,0.7-1.1,1.5-1.6,2.2c-3.2,0.1-6.3,0.1-9.5,0.1c-2.4,3.2-4.9,6.3-7.3,9.4c-3.2-0.1-6.5-0.1-9.7-0.3c-2.4-3.3-4.9-6.5-7.3-9.9
		c-3.2-0.2-6.5-0.4-9.7-0.7C65.9,119,65.3,118.2,64.8,117.5z"/>
	<path fill-rule="evenodd" clip-rule="evenodd" fill="#C14029" d="M65.6,115.1c0.3-0.3,0.6-0.5,0.8-0.8c3.3,0.3,6.7,0.5,10,0.7
		c2.5-2.8,5.1-5.7,7.6-8.5c2.8,0.1,5.6,0.2,8.4,0.2c2.5,3,5.1,6,7.6,9c3.3,0,6.7,0,10-0.1c0.3,0.3,0.6,0.5,0.8,0.8
		c-0.3,0.3-0.6,0.5-0.8,0.8c-3.3,0.1-6.7,0.1-10,0.1c-2.3,2.6-4.5,5.2-6.8,7.8c-3.3-0.1-6.7-0.2-10-0.3c-2.3-2.7-4.5-5.5-6.8-8.2
		c-3.3-0.2-6.7-0.4-10-0.7C66.1,115.7,65.9,115.4,65.6,115.1z"/>
	<path fill-rule="evenodd" clip-rule="evenodd" fill="#E18529" d="M92.4,117.2c1.1,1.2,2.2,2.4,3.2,3.6c-0.5,0.6-1.1,1.3-1.6,1.9
		c-0.3-0.3-0.6-0.5-0.8-0.8c-0.3,0-0.5,0-0.8,0c0,0.3,0,0.5,0,0.8c0.3,0.4,0.5,0.8,0.8,1.1c0.5,0,1.1,0,1.6,0
		c0.5-0.6,1.1-1.3,1.6-1.9c0-0.6,0-1.3,0-1.9c-1.1-1.3-2.2-2.6-3.2-3.9c1.1-1.2,2.2-2.5,3.2-3.7c0-0.5,0-1.1,0-1.6
		c-0.5-0.6-1.1-1.3-1.6-1.9c-0.5,0-1.1,0-1.6,0c-0.3,0.3-0.5,0.6-0.8,0.8c0,0.3,0,0.7,0,1.1c0.3,0,0.5,0,0.8,0
		c0.3-0.3,0.6-0.7,0.8-1c0.5,0.6,1.1,1.3,1.6,1.9c-1.1,1.2-2.2,2.5-3.2,3.7c-1.1-1.3-2.2-2.5-3.2-3.8c1.1-1.2,2.2-2.5,3.2-3.7
		c0-0.3,0-0.6,0-0.8c-0.3,0-0.5,0-0.8,0c-1.1,1.2-2.2,2.5-3.3,3.7c-1.1-1.3-2.2-2.6-3.2-3.9c-0.3,0-0.5,0-0.8,0c0,0.3,0,0.6,0,0.8
		c1.1,1.3,2.1,2.6,3.2,3.9c-1.1,1.2-2.1,2.4-3.2,3.6c-1.1-1.3-2.2-2.6-3.3-3.9c0.5-0.6,1.1-1.2,1.6-1.8c0.3,0.4,0.6,0.7,0.8,1.1
		c0.3,0,0.5,0,0.8,0c0-0.4,0-0.7,0-1.1c-0.3-0.3-0.5-0.6-0.8-0.9c-0.6,0-1.1,0-1.7-0.1c-0.5,0.6-1.1,1.2-1.6,1.8c0,0.5,0,1.1,0,1.6
		c1.1,1.3,2.2,2.6,3.3,3.9c-1.1,1.2-2.2,2.4-3.3,3.7c0,0.6,0,1.3,0,1.9c0.5,0.7,1.1,1.3,1.6,2c0.6,0,1.1,0,1.7,0.1
		c0.3-0.4,0.5-0.7,0.8-1.1c0-0.3,0-0.5,0-0.8c-0.3,0-0.5,0-0.8,0c-0.3,0.2-0.6,0.5-0.8,0.7c-0.5-0.7-1.1-1.3-1.6-2
		c1.1-1.1,2.2-2.2,3.3-3.4c1.1,1.2,2.1,2.4,3.2,3.6c-1.1,1.2-2.1,2.5-3.2,3.7c0,0.4,0,0.7,0,1.1c0.3,0,0.5,0,0.8,0
		c1.1-1.2,2.2-2.4,3.2-3.6c1.1,1.3,2.2,2.6,3.3,3.8c0.3,0,0.5,0,0.8,0c0-0.4,0-0.7,0-1.1c-1.1-1.3-2.2-2.6-3.2-3.9
		C90.3,119.5,91.3,118.4,92.4,117.2z M88.3,112.3c-1.1,1.2-2.2,2.5-3.2,3.7c1.1,1.3,2.2,2.6,3.2,3.9c1.1-1.2,2.2-2.5,3.3-3.7
		C90.5,114.9,89.4,113.6,88.3,112.3z"/>
	<path fill-rule="evenodd" clip-rule="evenodd" fill="#E18529" d="M83.5,126.2c0,2.4,0,4.8,0,7.3c0.3-0.3,0.5-0.5,0.8-0.8
		c0.3,0.3,0.5,0.6,0.8,0.8c0.3-0.3,0.6-0.5,0.9-0.8c0.3,0.3,0.5,0.6,0.8,0.8c0.3-0.3,0.5-0.5,0.8-0.8c0.3,0.3,0.5,0.6,0.8,0.8
		c0.3-0.3,0.6-0.5,0.8-0.8c0.3,0.3,0.5,0.5,0.8,0.8c0.3-0.3,0.5-0.5,0.8-0.8c0.3,0.3,0.6,0.5,0.9,0.8c0.3-0.3,0.5-0.5,0.8-0.8
		c0.3,0.3,0.5,0.5,0.8,0.8c0-2.4,0-4.8,0-7.3C90,126.4,86.7,126.3,83.5,126.2z"/>
	<path fill-rule="evenodd" clip-rule="evenodd" fill="#E18529" d="M93.2,105.9c0-2.4,0-4.9,0-7.3c-0.3,0.3-0.5,0.5-0.8,0.8
		c-0.3-0.3-0.5-0.6-0.8-0.8c-0.3,0.3-0.6,0.5-0.9,0.8c-0.3-0.3-0.5-0.6-0.8-0.8c-0.3,0.3-0.5,0.5-0.8,0.8c-0.3-0.3-0.6-0.6-0.8-0.8
		c-0.3,0.3-0.5,0.5-0.8,0.8c-0.3-0.3-0.5-0.6-0.8-0.8c-0.3,0.3-0.5,0.5-0.8,0.8c-0.3-0.3-0.6-0.6-0.9-0.9c-0.3,0.3-0.5,0.5-0.8,0.8
		c-0.3-0.3-0.5-0.6-0.8-0.9c0,2.4,0,4.9,0,7.3C86.7,105.8,90,105.9,93.2,105.9z"/>
	<path fill-rule="evenodd" clip-rule="evenodd" fill="#E18529" d="M106.7,114.3c0-2.4,0-4.9,0-7.3c-0.3,0.3-0.5,0.6-0.8,0.8
		c-0.3-0.3-0.5-0.6-0.8-0.8c-0.3,0.3-0.5,0.6-0.8,0.8c-0.3-0.3-0.5-0.6-0.8-0.8c-0.2,0.3-0.4,0.6-0.6,0.8c-0.3-0.3-0.5-0.6-0.8-0.8
		c-0.3,0.3-0.5,0.6-0.8,0.8c-0.3-0.3-0.6-0.6-0.9-0.8c0,2.4,0,4.9,0,7.3C102.6,114.4,104.7,114.4,106.7,114.3z"/>
	<path fill-rule="evenodd" clip-rule="evenodd" fill="#E18529" d="M76.2,113.7c0-2.4,0-4.9,0-7.3c-0.3,0.3-0.6,0.5-0.8,0.8
		c-0.3-0.3-0.5-0.6-0.8-0.9c-0.3,0.3-0.5,0.5-0.8,0.8c-0.3-0.3-0.5-0.6-0.8-0.9c-0.3,0.3-0.5,0.5-0.8,0.8c-0.3-0.3-0.5-0.6-0.8-0.9
		c-0.3,0.3-0.5,0.5-0.8,0.8c-0.3-0.3-0.5-0.6-0.8-0.9c0,2.4,0,4.9,0,7.3C71.8,113.4,74,113.6,76.2,113.7z"/>
	<path fill-rule="evenodd" clip-rule="evenodd" fill="#E18529" d="M106.7,118.1c0,2.5,0,5,0,7.6c-0.3-0.4-0.5-0.7-0.8-1.1
		c-0.3,0.4-0.5,0.7-0.8,1.1c-0.3-0.4-0.5-0.7-0.8-1.1c-0.3,0.4-0.5,0.7-0.8,1.1c-0.2-0.4-0.4-0.7-0.6-1.1c-0.3,0.4-0.5,0.7-0.8,1.1
		c-0.3-0.4-0.5-0.7-0.8-1.1c-0.3,0.4-0.6,0.7-0.9,1.1c0-2.5,0-5,0-7.6C102.6,118.2,104.7,118.1,106.7,118.1z"/>
	<path fill-rule="evenodd" clip-rule="evenodd" fill="#E18529" d="M76.2,117.5c0,2.5,0,5,0,7.6c-0.3-0.4-0.6-0.7-0.8-1.1
		c-0.3,0.3-0.5,0.7-0.8,1c-0.3-0.4-0.5-0.7-0.8-1.1c-0.3,0.3-0.5,0.7-0.8,1c-0.3-0.4-0.5-0.7-0.8-1.1c-0.3,0.3-0.5,0.7-0.8,1
		c-0.3-0.4-0.5-0.7-0.8-1.1c-0.3,0.3-0.5,0.7-0.8,1c0-2.5,0-5,0-7.6C71.8,117.2,74,117.3,76.2,117.5z"/>
	<path fill-rule="evenodd" clip-rule="evenodd" fill="#32755B" d="M93.2,126.5c0,1.5,0,3.1,0,4.6c0.3-0.3,0.6-0.5,0.8-0.8
		c0.3,0.3,0.5,0.5,0.8,0.8c0.3-0.3,0.6-0.5,0.8-0.8c0.3,0.3,0.5,0.5,0.8,0.8c0.3-0.3,0.6-0.5,0.9-0.8c0.3,0.3,0.5,0.5,0.8,0.8
		c0.3-0.3,0.5-0.5,0.8-0.8c0.3,0.3,0.5,0.5,0.8,0.8c0.3-0.3,0.6-0.5,0.8-0.8c0-4.1,0-8.1,0-12.2C98.1,120.9,95.6,123.7,93.2,126.5z"
		/>
	<path fill-rule="evenodd" clip-rule="evenodd" fill="#32755B" d="M83.5,126.2c0,1.5,0,3.1,0,4.6c-0.3-0.3-0.6-0.5-0.8-0.8
		c-0.3,0.3-0.6,0.5-0.8,0.8c-0.3-0.3-0.5-0.5-0.8-0.8c-0.3,0.3-0.6,0.5-0.8,0.8c-0.3-0.3-0.5-0.6-0.8-0.8c-0.3,0.3-0.5,0.5-0.8,0.7
		c-0.3-0.3-0.6-0.6-0.9-0.8c-0.2,0.2-0.5,0.5-0.7,0.7c-0.3-0.3-0.6-0.6-0.8-0.8c0-4.1,0-8.1,0-12.2C78.6,120.4,81,123.3,83.5,126.2z
		"/>
	<path fill-rule="evenodd" clip-rule="evenodd" fill="#32755B" d="M83.5,105.6c0-1.5,0-3.1,0-4.6c-0.3,0.3-0.6,0.7-0.8,1
		c-0.3-0.4-0.6-0.7-0.8-1.1c-0.3,0.3-0.5,0.7-0.8,1c-0.3-0.4-0.6-0.7-0.8-1.1c-0.3,0.3-0.5,0.7-0.8,1c-0.3-0.4-0.5-0.7-0.8-1.1
		c-0.3,0.3-0.6,0.7-0.9,1c-0.2-0.4-0.5-0.7-0.7-1.1c-0.3,0.3-0.6,0.7-0.8,1c0,4,0,7.9,0,11.9C78.6,111,81,108.4,83.5,105.6z"/>
	<path fill-rule="evenodd" clip-rule="evenodd" fill="#32755B" d="M93.2,105.9c0-1.5,0-3.1,0-4.6c0.3,0.4,0.6,0.7,0.8,1.1
		c0.3-0.3,0.5-0.7,0.8-1c0.3,0.4,0.6,0.7,0.8,1.1c0.3-0.4,0.5-0.7,0.8-1.1c0.3,0.4,0.6,0.7,0.9,1.1c0.3-0.4,0.5-0.7,0.8-1.1
		c0.3,0.4,0.5,0.7,0.8,1.1c0.3-0.4,0.5-0.7,0.8-1.1c0.3,0.4,0.6,0.7,0.8,1.1c0,4,0,7.9,0,11.9C98.1,111.6,95.6,108.8,93.2,105.9z"/>
	<path fill-rule="evenodd" clip-rule="evenodd" fill="#32755B" d="M69.7,122.8c-0.3-0.4-0.5-0.8-0.8-1.2c-0.3,0.4-0.6,0.7-0.8,1.1
		c-0.3-0.4-0.5-0.8-0.8-1.2c-0.3,0.4-0.5,0.7-0.8,1.1c-0.3-0.4-0.6-0.8-0.8-1.2c-0.3,0.4-0.5,0.7-0.8,1.1c-0.3-0.4-0.5-0.8-0.8-1.2
		c-0.3,0.4-0.6,0.7-0.8,1.1c0-5,0-10,0-14.9c0.3,0.3,0.6,0.6,0.8,0.9c0.3-0.3,0.5-0.5,0.8-0.8c0.3,0.3,0.5,0.6,0.8,0.9
		c0.3-0.3,0.6-0.5,0.8-0.8c0.3,0.3,0.5,0.6,0.8,0.9c0.3-0.3,0.5-0.5,0.8-0.8c0.3,0.3,0.6,0.6,0.8,0.9c0.3-0.3,0.5-0.5,0.8-0.8
		c0,1.8,0,3.6,0,5.4c-1.1-0.1-2.2-0.2-3.2-0.2c-0.6,0.6-1.1,1.2-1.7,1.7c0.6,0.7,1.1,1.4,1.7,2c1.1,0.1,2.2,0.2,3.2,0.2
		C69.7,119,69.7,120.9,69.7,122.8z"/>
	<path fill-rule="evenodd" clip-rule="evenodd" fill="#32755B" d="M106.7,123.8c0.3-0.4,0.5-0.8,0.8-1.1c0.3,0.4,0.5,0.7,0.8,1.1
		c0.3-0.4,0.6-0.8,0.8-1.1c0.3,0.4,0.6,0.7,0.8,1.1c0.3-0.4,0.6-0.8,0.8-1.2c0.2,0.4,0.5,0.7,0.7,1.1c0.3-0.4,0.6-0.8,0.8-1.2
		c0.3,0.4,0.6,0.7,0.8,1.1c0-5,0-10,0-14.9c-0.3,0.3-0.6,0.6-0.8,0.9c-0.3-0.3-0.6-0.6-0.8-0.8c-0.2,0.3-0.5,0.6-0.7,0.9
		c-0.3-0.3-0.6-0.6-0.8-0.8c-0.3,0.3-0.6,0.6-0.8,0.9c-0.3-0.3-0.6-0.6-0.8-0.8c-0.3,0.3-0.5,0.6-0.8,0.9c-0.3-0.3-0.5-0.6-0.8-0.8
		c0,1.8,0,3.6,0,5.4c1.1,0,2.2,0,3.3,0c0.5,0.6,1.1,1.2,1.6,1.8c-0.5,0.6-1.1,1.3-1.6,1.9c-1.1,0-2.2,0-3.3,0
		C106.7,120,106.7,121.9,106.7,123.8z"/>
	<path fill-rule="evenodd" clip-rule="evenodd" fill="#FFFFFF" d="M79.4,126.6c0,0-0.8,0.7-0.8,1c0,0.3,0.8,1.1,1.1,1.1
		c0.5,0,1-0.5,1-1c0-0.3-0.8-1.1-0.8-1.1c0-0.5,0-0.9,0-1.4c0,0,1.7,2.5,1.7,1.5c0-0.8-1.7-2.3-1.7-2.3c-0.2,0-0.4,0-0.6,0
		c0,0-1.6,1.5-1.6,2.1c0,1.1,1.6-1.3,1.6-1.3C79.4,125.7,79.4,126.1,79.4,126.6z"/>
	<path fill-rule="evenodd" clip-rule="evenodd" fill="#C14029" d="M87.8,129.8c0,0-0.8,0.8-0.9,1.4c0,0.6,0.9,1.6,1.3,1.7
		c0.3,0,1.1-1,1.1-1.6c0-0.5-0.8-1.4-0.8-1.4c0-0.7,0-1.4,0-2.1c0,0,1.3,3.3,1.3,1.9c0-1.1-1.3-3-1.3-3c-0.3,0-0.5,0-0.8,0
		c0,0-1.6,2.3-1.4,2.9c0,1.3,1.4-1.9,1.4-1.9C87.8,128.4,87.8,129.1,87.8,129.8z"/>
	<path fill-rule="evenodd" clip-rule="evenodd" fill="#32755B" d="M81,115.8c0,0.6-0.8,1-1.7,1c-1-0.1-1.6-0.6-1.6-1.2
		c0-0.5,0.6-0.8,1.6-0.7C80.2,114.9,81,115.3,81,115.8L81,115.8z"/>
	<path fill-rule="evenodd" clip-rule="evenodd" fill="#32755B" d="M89.9,116.1c0,0.6-0.8,1.1-1.6,1c-1.1,0-1.6-0.6-1.6-1.1
		c0-0.5,0.5-0.8,1.6-0.8C89.2,115.3,89.9,115.6,89.9,116.1L89.9,116.1z"/>
	<path fill-rule="evenodd" clip-rule="evenodd" fill="#32755B" d="M98.9,116.2c0,0.6-0.8,1.1-1.6,1.1c-1.2,0-1.7-0.5-1.7-1.1
		c0-0.5,0.5-0.8,1.7-0.8C98.1,115.4,98.9,115.7,98.9,116.2L98.9,116.2z"/>
	<path fill-rule="evenodd" clip-rule="evenodd" fill="#FFFFFF" d="M79.1,105.2c0,0-0.5-0.9-0.5-1.4c0-0.3,0.5-1,0.8-1
		c0.6,0,1.1,0.8,1.1,1.1c0,0.5-0.5,1.3-0.5,1.3c0,0.4,0,0.9,0,1.3c0,0,1.4-2.3,1.4-1.3c0,0.9-1.4,2.1-1.4,2.1c-0.3,0-0.5,0-0.8,0
		c0,0-1.4-1.7-1.4-2.3c0-1.1,1.4,1.4,1.4,1.4C79.1,106.1,79.1,105.6,79.1,105.2z"/>
	<path fill-rule="evenodd" clip-rule="evenodd" fill="#C14029" d="M87.5,102.5c0,0-0.8-1-0.8-1.6c0-0.3,1.1-1.4,1.3-1.4
		c0.5,0,1.1,0.9,1.1,1.4c0,0.6-0.9,1.5-0.8,1.5c0,0.7,0,1.4,0,2.2c0,0,1.6-3.4,1.6-1.8c0,1.1-1.6,2.7-1.6,2.7c-0.3,0-0.5,0-0.8,0
		c0,0-1.6-2.2-1.3-2.8c0-1.6,1.3,1.9,1.3,1.9C87.5,103.9,87.5,103.2,87.5,102.5z"/>
	<path fill-rule="evenodd" clip-rule="evenodd" fill="#FFFFFF" d="M96.7,127.1c0,0-0.8,0.8-0.8,1c0,0.3,0.8,1.1,1.1,1.1
		c0.3,0,1.1-0.6,1.1-1.1c0-0.3-0.8-1.1-0.8-1.1c0-0.5,0-0.9,0-1.4c0,0,1.6,2.5,1.6,1.4c0-0.8-1.6-2.2-1.6-2.2c-0.2,0-0.4,0-0.6,0
		c0,0-1.6,1.6-1.6,2.2c0,1.1,1.6-1.4,1.6-1.4C96.7,126.2,96.7,126.6,96.7,127.1z"/>
	<path fill-rule="evenodd" clip-rule="evenodd" fill="#FFFFFF" d="M96.4,105.7c0,0-0.5-0.9-0.5-1.3c-0.3-0.3,0.5-1,0.8-1
		c0.6,0,1.1,0.8,1.1,1.1c0,0.5-0.5,1.3-0.5,1.3c0,0.4,0,0.9,0,1.3c0,0,1.3-2.4,1.3-1.3c0,0.9-1.3,2.2-1.3,2.2c-0.3,0-0.6,0-0.9,0
		c0,0-1.3-1.6-1.3-2.2c0-1.1,1.3,1.4,1.3,1.4C96.4,106.6,96.4,106.1,96.4,105.7z"/>
	<path fill-rule="evenodd" clip-rule="evenodd" fill="#C14029" d="M72.3,121c0,0-1.1,0.7-1.1,1c0,0.3,1.1,1.1,1.3,1.2
		c0.5,0,1.3-0.7,1.3-1c0-0.3-0.8-1.1-0.8-1.1c0-0.4,0-0.9,0-1.3c0,0,1.7,2.2,1.7,1.2c0-0.6-1.7-2-1.7-2c-0.3,0-0.5,0-0.8-0.1
		c0,0-1.9,1.4-1.6,1.8c0,1.1,1.6-1,1.6-1C72.3,120.2,72.3,120.6,72.3,121z"/>
	<path fill-rule="evenodd" clip-rule="evenodd" fill="#C14029" d="M72.1,110.5c0,0-0.8-0.6-0.8-1.2c0-0.3,0.8-1,1.3-1
		c0.5,0,1.3,0.9,1.3,1.1c0,0.6-1.1,1-1.1,1c0,0.4,0,0.9,0,1.3c0,0,1.6-2.1,1.6-0.9c0,0.5-1.6,1.8-1.6,1.8c-0.3,0-0.5,0-0.8-0.1
		c0,0-1.9-1.7-1.6-2c0-1.1,1.6,1.2,1.6,1.2C72.1,111.4,72.1,110.9,72.1,110.5z"/>
	<path fill-rule="evenodd" clip-rule="evenodd" fill="#C14029" d="M103.5,121.7c0,0-0.8,0.8-0.8,1.1c-0.3,0.3,0.8,1.1,1.3,1.1
		c0.2,0,1.3-0.9,1.3-1.1c0-0.3-1.1-1.1-1.1-1.1c0-0.4,0-0.9,0-1.3c0,0,1.6,2.1,1.6,1.3c0-0.8-1.6-1.9-1.6-1.9c-0.3,0-0.5,0-0.8,0
		c0,0-1.9,1.3-1.6,1.9c0,0.8,1.6-1.3,1.6-1.3C103.5,120.8,103.5,121.2,103.5,121.7z"/>
	<path fill-rule="evenodd" clip-rule="evenodd" fill="#C14029" d="M103.3,111.1c0,0-0.8-0.6-0.8-1.1c0-0.2,0.8-0.8,1.3-0.8
		c0.5,0,1.3,0.6,1.3,0.8c0,0.6-1.1,1.1-1.1,1.1c0,0.4,0,0.9,0,1.3c0,0,1.6-2.2,1.6-1.1c0,0.6-1.6,1.9-1.6,1.9c-0.3,0-0.5,0-0.8,0
		c0,0-1.9-1.6-1.6-1.9c0-1.1,1.6,1.1,1.6,1.1C103.3,112,103.3,111.6,103.3,111.1z"/>
	<path fill-rule="evenodd" clip-rule="evenodd" fill="#FFFFFF" d="M65.6,120.6c-0.2-0.9,0-1.1,0-1.3c-0.3-0.3,0.8-1.1,1.1-1
		c0.2,0,0.9,0.9,0.8,1.2c0,0.4,0,0.9,0,1.3c-0.2-0.4-0.4-0.8-0.6-1.2c-0.5,1.6-0.5,1.6-0.8-0.1C65.9,119.8,65.8,120.2,65.6,120.6z"
		/>
	<path fill-rule="evenodd" clip-rule="evenodd" fill="#FFFFFF" d="M65.6,109.7c-0.2,0.5,0,1.1,0,1.3c0,0.3,0.8,1.1,1.1,1.2
		c0.2,0,0.9-0.7,0.8-1.3c0-0.4,0-0.7,0-1.1c-0.2,0.3-0.4,0.7-0.6,1c-0.5-1.7-0.5-1.7-0.8-0.1C65.9,110.5,65.8,110.1,65.6,109.7z"/>
	<path fill-rule="evenodd" clip-rule="evenodd" fill="#FFFFFF" d="M109.5,121.6c-0.3-0.6-0.3-0.8-0.3-1.3c0-0.3,0.8-0.9,1.1-0.9
		c0.6,0,1.2,0.5,1.2,1.1c0,0.2,0,0.5-0.3,1.4c-0.1-0.4-0.2-0.8-0.3-1.1c-0.6,1.4-0.6,1.4-0.8-0.2
		C109.8,120.9,109.7,121.3,109.5,121.6z"/>
	<path fill-rule="evenodd" clip-rule="evenodd" fill="#FFFFFF" d="M109.5,111.1c-0.3,0.6-0.3,0.8-0.3,1.1c0,0.5,0.8,1.1,1.1,1.1
		c0.6,0,1.2-0.9,1.2-1.1c0-0.4,0-0.9,0-1.3c-0.2,0.4-0.4,0.8-0.6,1.1c-0.6-1.7-0.6-1.7-0.8,0C109.8,111.6,109.7,111.3,109.5,111.1z"
		/>
	<path fill-rule="evenodd" clip-rule="evenodd" fill="#C14029" d="M83.2,133.7c0-0.9,0-1.8,0-2.7c-2.5-0.1-5.1-0.2-7.6-0.4
		c0-1.7,0-3.4,0-5.1c-2.2-0.1-4.5-0.3-6.7-0.4c0-0.6,0-1.3,0-1.9c-1.9-0.1-3.8-0.3-5.7-0.5c0-5.3,0-10.7,0-16
		c1.9,0.2,3.8,0.3,5.7,0.5c0-0.5,0-1,0-1.5c2.2,0.2,4.5,0.3,6.7,0.4c0-1.8,0-3.6,0-5.4c2.5,0.1,5.1,0.3,7.6,0.4c0-0.8,0-1.6,0-2.5
		c3.3,0.1,6.7,0.2,10,0.3c0,0.8,0,1.6,0,2.5c2.5,0,5.1,0.1,7.6,0.1c0,1.8,0,3.6,0,5.4c2.2,0,4.5,0,6.7,0c0,0.5,0,1,0,1.5
		c1.9,0,3.8-0.1,5.8-0.1c0,5.3,0,10.7,0,16c-1.9,0-3.8,0.1-5.8,0.1c0,0.6,0,1.3,0,1.9c-2.2,0-4.5,0-6.7,0c0,1.7,0,3.4,0,5.1
		c-2.5,0-5.1,0-7.6-0.1c0,0.9,0,1.8,0,2.7C89.9,134,86.5,133.9,83.2,133.7z M82.4,134.5c0-0.8,0-1.6,0-2.5c-2.5-0.1-5-0.2-7.6-0.4
		c0-1.8,0-3.6,0-5.4c-2.3-0.1-4.5-0.3-6.8-0.5c0-0.6,0-1.3,0-1.9c-1.9-0.1-3.8-0.3-5.7-0.5c0-5.9,0-11.7,0-17.6
		c1.9,0.2,3.8,0.3,5.7,0.5c0-0.5,0-1.1,0-1.6c2.3,0.2,4.5,0.3,6.8,0.5c0-1.8,0-3.6,0-5.4c2.5,0.1,5,0.3,7.6,0.4c0-0.9,0-1.8,0-2.7
		c3.9,0.2,7.8,0.3,11.7,0.3c0,0.9,0,1.8,0,2.7c2.5,0,5.1,0.1,7.6,0.1c0,1.8,0,3.6,0,5.4c2.2,0,4.5,0,6.7,0c0,0.5,0,1.1,0,1.6
		c2,0,4-0.1,6.1-0.1c0,5.9,0,11.7,0,17.6c-2,0-4,0.1-6.1,0.1c0,0.6,0,1.3,0,1.9c-2.2,0-4.5,0-6.7,0c0,1.8,0,3.6,0,5.4
		c-2.5,0-5.1,0-7.6-0.1c0,0.8,0,1.6,0,2.5C90.1,134.8,86.3,134.7,82.4,134.5z"/>
	<path fill-rule="evenodd" clip-rule="evenodd" fill="#C14029" d="M94,283.1c0.4,0,0.7,0,1.1,0c0-0.8,0-1.6,0-2.4c0.7,0,1.5,0,2.2,0
		c0,0.8,0,1.6,0,2.4c0.4,0,0.7,0,1.1,0c0-1.9,0-3.8,0-5.7c-0.4,0-0.7,0-1.1,0c0,0.8,0,1.6,0,2.4c-0.7,0-1.5,0-2.2,0
		c0-0.8,0-1.6,0-2.4c-0.4,0-0.7,0-1.1,0C94,279.3,94,281.2,94,283.1z"/>
</g>
</svg>
