<svg version="1.1" id="ton" name="tonga" xmlns="http://www.w3.org/2000/svg" xmlns:xlink="http://www.w3.org/1999/xlink" x="0px" y="0px"
	 viewBox="0 0 480 320" enable-background="new 0 0 480 320" xml:space="preserve">
<g id="flag-ton">
	<path fill="#AF2025" d="M0,300c160,44.8,320-44.8,480,0c0-93.3,0-186.7,0-280C320-24.8,160,64.8,0,20C0,113.3,0,206.7,0,300z"/>
	<path fill="#FFFFFF" d="M0,160c77.8,21.8,155.6,11.8,233.4,0.9c0-46.7,0-93.3,0-140C155.6,31.8,77.8,41.8,0,20
		C0,66.7,0,113.3,0,160z"/>
	<path fill="#AF2025" d="M99.2,50.4c11.7,0.1,23.3-0.3,35-1c0,35,0,70,0,105c-11.7,0.7-23.3,1-35,1C99.2,120.4,99.2,85.4,99.2,50.4z
		"/>
	<path fill="#AF2025" d="M64.2,83.9c35,3,70,1.3,105-2.4c0,11.7,0,23.3,0,35c-35,3.6-70,5.3-105,2.4C64.2,107.2,64.2,95.6,64.2,83.9
		z"/>
</g>
</svg>
