<svg version="1.1" id="tuv" name="tuvalu" xmlns="http://www.w3.org/2000/svg" xmlns:xlink="http://www.w3.org/1999/xlink" x="0px" y="0px"
	 viewBox="0 0 480 320" enable-background="new 0 0 480 320" xml:space="preserve">
<g id="flag-tuv">
	<path fill="#7DA5D7" d="M0,300c160,44.8,320-44.8,480,0c0-93.3,0-186.7,0-280C320-24.8,160,64.8,0,20C0,113.3,0,206.7,0,300z"/>
	<path fill-rule="evenodd" clip-rule="evenodd" fill="#F4D130" d="M460.8,84.4c-4.6-4.2-9.2-8.2-13.8-12.2
		c-4.6,2.4-9.2,4.8-13.8,7.4c1.8-4.9,3.5-9.7,5.3-14.6c-4.6-3.8-9.2-7.6-13.8-11.2c5.7,0.6,11.4,1.4,17,2.3
		c1.8-4.8,3.5-9.6,5.3-14.4c1.8,5.4,3.5,10.8,5.3,16.3c5.7,1.1,11.4,2.3,17,3.7c-4.6,2-9.2,4.2-13.8,6.4
		C457.3,73.5,459,79,460.8,84.4z"/>
	<path fill-rule="evenodd" clip-rule="evenodd" fill="#F4D130" d="M417.9,199.9c-4.6-3.6-9.2-7.1-13.8-10.5
		c-4.6,2.9-9.2,5.9-13.8,8.9c1.8-5.1,3.5-10.1,5.3-15.1c-4.6-3.3-9.2-6.6-13.8-9.7c5.7,0,11.4,0.2,17.1,0.4c1.8-5,3.5-10,5.3-15
		c1.8,5.2,3.5,10.4,5.3,15.6c5.7,0.4,11.4,0.9,17.1,1.6c-4.6,2.6-9.2,5.3-13.9,8.1C414.4,189.4,416.1,194.7,417.9,199.9z"/>
	<path fill-rule="evenodd" clip-rule="evenodd" fill="#F4D130" d="M460.8,178.8c-4.6-4.2-9.2-8.2-13.8-12.2
		c-4.6,2.4-9.2,4.8-13.8,7.4c1.8-4.9,3.5-9.7,5.3-14.6c-4.6-3.8-9.2-7.5-13.8-11.2c5.7,0.6,11.4,1.4,17,2.3
		c1.8-4.8,3.5-9.6,5.3-14.4c1.8,5.4,3.5,10.8,5.3,16.3c5.7,1.1,11.4,2.3,17,3.7c-4.6,2-9.2,4.1-13.8,6.4
		C457.3,167.8,459,173.3,460.8,178.8z"/>
	<path fill-rule="evenodd" clip-rule="evenodd" fill="#F4D130" d="M276.3,267c-4.6-2.6-9.2-5.1-13.8-7.6c-4.6,3.8-9.2,7.6-13.8,11.4
		c1.7-5.3,3.5-10.7,5.3-16c-4.6-2.5-9.2-5-13.8-7.5c5.7-0.8,11.4-1.6,17.1-2.3c1.8-5.4,3.6-10.7,5.3-16.1c1.8,4.9,3.5,9.7,5.3,14.6
		c5.7-0.8,11.4-1.5,17-2.3c-4.6,3.7-9.2,7.5-13.8,11.2C272.8,257.3,274.6,262.2,276.3,267z"/>
	<path fill-rule="evenodd" clip-rule="evenodd" fill="#F4D130" d="M298,167.5c4.6,2.6,9.2,5.3,13.8,8c4.6-3.6,9.2-7.2,13.8-10.8
		c-1.8,5.3-3.6,10.5-5.3,15.8c4.6,2.7,9.2,5.5,13.9,8.3c-5.7,0.4-11.4,0.9-17.1,1.5c-1.7,5.3-3.5,10.5-5.3,15.8
		c-1.8-4.9-3.5-9.8-5.3-14.8c-5.7,0.6-11.4,1.3-17.1,2c4.6-3.7,9.2-7.4,13.8-11C301.6,177.3,299.8,172.4,298,167.5z"/>
	<path fill-rule="evenodd" clip-rule="evenodd" fill="#F4D130" d="M348.4,93.4c4.6,2.9,9.2,5.9,13.8,8.9c4.6-3.3,9.2-6.5,13.8-9.7
		c-1.8,5.1-3.5,10.2-5.3,15.3c4.6,3.1,9.2,6.2,13.8,9.4c-5.7-0.1-11.4-0.1-17.1,0.1c-1.8,5.1-3.5,10.3-5.3,15.5
		c-1.8-5.1-3.5-10.1-5.3-15.1c-5.7,0.2-11.4,0.6-17,0.9c4.6-3.5,9.2-6.9,13.8-10.2C352,103.4,350.2,98.4,348.4,93.4z"/>
	<path fill-rule="evenodd" clip-rule="evenodd" fill="#F4D130" d="M390.8,78.2c4.6,3.3,9.2,6.6,13.8,10c4.6-2.9,9.2-5.7,13.8-8.4
		c-1.8,4.9-3.5,9.9-5.3,14.8c4.6,3.5,9.2,7.1,13.8,10.8c-5.7-0.7-11.4-1.2-17.1-1.6c-1.8,5-3.5,10-5.3,15
		c-1.8-5.2-3.5-10.4-5.3-15.6c-5.7-0.2-11.4-0.4-17.1-0.4c4.6-3.1,9.2-6.2,13.8-9.2C394.3,88.5,392.6,83.3,390.8,78.2z"/>
	<path fill-rule="evenodd" clip-rule="evenodd" fill="#F4D130" d="M348.4,199.5c4.6,2.9,9.2,5.9,13.8,8.9c4.6-3.3,9.2-6.6,13.8-9.8
		c-1.8,5.1-3.5,10.2-5.3,15.4c4.6,3.1,9.2,6.2,13.8,9.4c-5.7-0.1-11.4-0.1-17.1,0.1c-1.8,5.1-3.5,10.3-5.3,15.4
		c-1.8-5-3.5-10.1-5.3-15.1c-5.7,0.2-11.4,0.6-17,0.9c4.6-3.5,9.2-6.9,13.8-10.2C352,209.5,350.2,204.5,348.4,199.5z"/>
	<path fill-rule="evenodd" clip-rule="evenodd" fill="#F4D130" d="M298,216.3c4.6,2.6,9.2,5.3,13.8,7.9c4.6-3.6,9.2-7.2,13.8-10.8
		c-1.8,5.2-3.6,10.5-5.3,15.8c4.6,2.7,9.2,5.5,13.9,8.3c-5.7,0.4-11.4,0.9-17.1,1.5c-1.7,5.3-3.5,10.5-5.3,15.8
		c-1.8-4.9-3.5-9.8-5.3-14.8c-5.7,0.6-11.4,1.3-17.1,2c4.6-3.7,9.2-7.4,13.8-11.1C301.6,226.1,299.8,221.2,298,216.3z"/>
	<path fill="#2B3279" d="M0,140c80,22.4,160,11.2,240,0c0-40,0-80,0-120C160,31.2,80,42.4,0,20C0,60,0,100,0,140z"/>
	<path fill="#FFFFFF" d="M213.2,23.7C142.1,68.8,71.1,111,0,126.6c0,4.5,0,9,0,13.4c8.9,2.5,17.9,4.6,26.8,6.3
		C97.9,124.4,169,78.9,240,33.4c0-4.5,0-8.9,0-13.4C231.1,21.3,222.1,22.5,213.2,23.7z"/>
	<path fill="#FFFFFF" d="M0,20c0,4.5,0,8.9,0,13.4c71.1,55.4,142.1,84.4,213.2,110.3c8.9-1.2,17.9-2.5,26.8-3.7c0-4.5,0-9,0-13.4
		C169,101,97.9,75.4,26.8,26.3C17.9,24.6,8.9,22.5,0,20z"/>
	<path fill="#FFFFFF" d="M100,32.9c0,13.3,0,26.7,0,40C66.7,72.8,33.3,69.3,0,60c0,13.3,0,26.7,0,40c33.3,9.3,66.7,12.8,100,12.9
		c0,13.3,0,26.7,0,40c13.3,0,26.7-0.5,40-1.4c0-13.3,0-26.7,0-40c33.3-2.2,66.7-6.9,100-11.6c0-13.3,0-26.7,0-40
		c-33.3,4.7-66.7,9.3-100,11.6c0-13.3,0-26.7,0-40C126.7,32.5,113.3,33,100,32.9z"/>
	<path fill="#C01F41" d="M108,32.9c0,16,0,32,0,48C72,81.4,36,78.1,0,68c0,8,0,16,0,24c36,10.1,72,13.4,108,12.9c0,16,0,32,0,48
		c8-0.1,16-0.4,24-0.8c0-16,0-32,0-48c36-2,72-7,108-12.1c0-8,0-16,0-24c-36,5-72,10.1-108,12.1c0-16,0-32,0-48
		C124,32.5,116,32.8,108,32.9z"/>
	<path fill-rule="evenodd" clip-rule="evenodd" fill="#C01F41" d="M142.1,71.4c6-0.4,11.9-0.9,17.9-1.5c26.7-15.8,53.3-32.9,80-49.9
		c-6,0.8-11.9,1.7-17.9,2.5C195.4,39.5,168.8,56.2,142.1,71.4z"/>
	<path fill="#C01F41" d="M0,28.9C20.7,45.1,41.4,59,62.1,71.2c5.9,0.5,11.9,0.9,17.8,1.2C53.3,57.9,26.7,40.8,0,20C0,23,0,26,0,28.9
		z"/>
	<path fill-rule="evenodd" clip-rule="evenodd" fill="#C01F41" d="M240,140c0-3,0-6,0-9c-20.7-7.5-41.4-14.9-62.1-22.9
		c-5.9,0.7-11.9,1.3-17.9,1.8C186.7,120.8,213.3,130.4,240,140z"/>
	<path fill="#C01F41" d="M80,112.4C53.3,124.5,26.7,134.1,0,140c6,1.7,11.9,3.1,17.9,4.5c26.7-7.5,53.3-18.4,80-31.6
		C91.9,112.9,85.9,112.7,80,112.4z"/>
</g>
</svg>
