<svg version="1.1" id="usa" name="amerika" xmlns="http://www.w3.org/2000/svg" xmlns:xlink="http://www.w3.org/1999/xlink" x="0px" y="0px"
	 viewBox="0 0 480 320" enable-background="new 0 0 480 320" xml:space="preserve">
<g id="flag-usa">
	<path fill="#CB2128" d="M0,300c160,44.8,320-44.8,480,0c0-7.2,0-14.4,0-21.5c-160-44.8-320,44.8-480,0C0,285.6,0,292.8,0,300z"/>
	<path fill="#FFFFFF" d="M0,278.5c160,44.8,320-44.8,480,0c0-7.2,0-14.4,0-21.5c-160-44.8-320,44.8-480,0C0,264.1,0,271.3,0,278.5z"
		/>
	<path fill="#CB2128" d="M0,256.9c160,44.8,320-44.8,480,0c0-7.2,0-14.3,0-21.5c-160-44.8-320,44.8-480,0C0,242.6,0,249.8,0,256.9z"
		/>
	<path fill="#FFFFFF" d="M0,235.4c160,44.8,320-44.8,480,0c0-7.2,0-14.4,0-21.5c-160-44.8-320,44.8-480,0C0,221.1,0,228.2,0,235.4z"
		/>
	<path fill="#CB2128" d="M0,213.9c160,44.8,320-44.8,480,0c0-7.2,0-14.4,0-21.5c-160-44.8-320,44.8-480,0C0,199.5,0,206.7,0,213.9z"
		/>
	<path fill="#FFFFFF" d="M0,192.3c160,44.8,320-44.8,480,0c0-7.2,0-14.3,0-21.5c-160-44.8-320,44.8-480,0C0,178,0,185.1,0,192.3z"/>
	<path fill="#CB2128" d="M0,170.8c160,44.8,320-44.8,480,0c0-7.2,0-14.4,0-21.6c-160-44.8-320,44.8-480,0C0,156.4,0,163.6,0,170.8z"
		/>
	<path fill="#FFFFFF" d="M0,149.2c160,44.8,320-44.8,480,0c0-7.2,0-14.4,0-21.5c-160-44.8-320,44.8-480,0C0,134.9,0,142.1,0,149.2z"
		/>
	<path fill="#CB2128" d="M0,127.7c160,44.8,320-44.8,480,0c0-7.2,0-14.3,0-21.5c-160-44.8-320,44.8-480,0C0,113.4,0,120.5,0,127.7z"
		/>
	<path fill="#FFFFFF" d="M0,106.2c160,44.8,320-44.8,480,0c0-7.2,0-14.4,0-21.5c-160-44.8-320,44.8-480,0C0,91.8,0,99,0,106.2z"/>
	<path fill="#CB2128" d="M0,84.6c160,44.8,320-44.8,480,0c0-7.2,0-14.4,0-21.5c-160-44.8-320,44.8-480,0C0,70.3,0,77.5,0,84.6z"/>
	<path fill="#FFFFFF" d="M0,63.1c160,44.8,320-44.8,480,0c0-7.2,0-14.4,0-21.5C320-3.2,160,86.4,0,41.6C0,48.7,0,55.9,0,63.1z"/>
	<path fill="#CB2128" d="M0,41.6c160,44.8,320-44.8,480,0c0-7.2,0-14.4,0-21.6C320-24.8,160,64.8,0,20C0,27.2,0,34.4,0,41.6z"/>
	<path fill="#2C3661" d="M0,170.8c73.1,20.5,146.1,12.9,219.2,2.9c0-50.3,0-100.5,0-150.8C146.1,32.9,73.1,40.5,0,20
		C0,70.3,0,120.5,0,170.8z"/>
	<path fill="#FFFFFF" d="M19.8,41.5c0.6,2,1.3,4.1,1.9,6.1c2,0.4,4,0.8,6,1.2c-1.6,0.9-3.2,1.7-4.8,2.6c0.6,2,1.2,4,1.8,6.1
		c-1.6-1.5-3.2-3-4.9-4.5c-1.6,0.8-3.2,1.6-4.9,2.5c0.6-1.8,1.3-3.5,1.9-5.3c-1.6-1.5-3.2-3.1-4.9-4.6c2,0.5,4,0.9,6,1.4
		C18.5,45,19.2,43.3,19.8,41.5z"/>
	<path fill="#FFFFFF" d="M19.8,66.7c0.6,2,1.3,4.1,1.9,6.1c2,0.4,4,0.8,6,1.2c-1.6,0.9-3.2,1.7-4.8,2.5c0.6,2,1.2,4.1,1.8,6.1
		c-1.6-1.5-3.2-3-4.9-4.5c-1.6,0.8-3.2,1.6-4.9,2.5c0.6-1.8,1.3-3.5,1.9-5.3c-1.6-1.5-3.2-3.1-4.9-4.6c2,0.5,4,0.9,6,1.4
		C18.5,70.2,19.2,68.4,19.8,66.7z"/>
	<path fill="#FFFFFF" d="M19.8,91.8c0.6,2,1.3,4.1,1.9,6.1c2,0.4,4,0.8,6,1.2c-1.6,0.9-3.2,1.7-4.8,2.6c0.6,2,1.2,4.1,1.8,6.1
		c-1.6-1.5-3.2-3-4.9-4.5c-1.6,0.8-3.2,1.6-4.9,2.5c0.6-1.8,1.3-3.5,1.9-5.3c-1.6-1.5-3.2-3.1-4.9-4.6c2,0.5,4,0.9,6,1.4
		C18.5,95.4,19.2,93.6,19.8,91.8z"/>
	<path fill="#FFFFFF" d="M19.8,117c0.6,2,1.3,4.1,1.9,6.1c2,0.4,4,0.8,6,1.2c-1.6,0.9-3.2,1.7-4.8,2.6c0.6,2,1.2,4,1.8,6.1
		c-1.6-1.5-3.2-3-4.9-4.5c-1.6,0.8-3.2,1.6-4.9,2.4c0.6-1.7,1.3-3.5,1.9-5.3c-1.6-1.5-3.2-3.1-4.9-4.7c2,0.5,4,0.9,6,1.4
		C18.5,120.5,19.2,118.8,19.8,117z"/>
	<path fill="#FFFFFF" d="M19.8,142.2c0.6,2,1.3,4.1,1.9,6.1c2,0.4,4,0.8,6,1.2c-1.6,0.9-3.2,1.7-4.8,2.5c0.6,2,1.2,4.1,1.8,6.1
		c-1.6-1.5-3.2-3-4.9-4.5c-1.6,0.8-3.2,1.6-4.9,2.5c0.6-1.8,1.3-3.5,1.9-5.3c-1.6-1.5-3.2-3.1-4.9-4.6c2,0.5,4,0.9,6,1.4
		C18.5,145.7,19.2,143.9,19.8,142.2z"/>
	<path fill="#FFFFFF" d="M37.3,58c0.6,2,1.2,4,1.8,6c2,0.3,4,0.6,6,0.9c-1.6,1-3.2,1.9-4.8,2.9c0.6,2,1.2,4,1.8,6
		c-1.6-1.4-3.2-2.8-4.8-4.2c-1.6,0.9-3.2,1.8-4.8,2.7c0.6-1.8,1.2-3.6,1.8-5.4c-1.6-1.5-3.2-2.9-4.8-4.4c2,0.4,4,0.7,6,1
		C36.1,61.6,36.7,59.8,37.3,58z"/>
	<path fill="#FFFFFF" d="M37.3,83.2c0.6,2,1.2,4,1.8,6c2,0.3,4,0.6,6,0.9c-1.6,1-3.2,1.9-4.8,2.8c0.6,2,1.2,4,1.8,6
		c-1.6-1.4-3.2-2.8-4.8-4.2c-1.6,0.9-3.2,1.8-4.8,2.7c0.6-1.8,1.2-3.6,1.8-5.4c-1.6-1.4-3.2-2.9-4.8-4.4c2,0.4,4,0.7,6,1
		C36.1,86.8,36.7,85,37.3,83.2z"/>
	<path fill="#FFFFFF" d="M37.3,108.4c0.6,2,1.2,4,1.8,6c2,0.3,4,0.6,6,0.9c-1.6,0.9-3.2,1.9-4.8,2.8c0.6,2,1.2,4,1.8,6
		c-1.6-1.4-3.2-2.8-4.8-4.3c-1.6,0.9-3.2,1.8-4.8,2.7c0.6-1.8,1.2-3.6,1.8-5.4c-1.6-1.4-3.2-2.9-4.8-4.4c2,0.4,4,0.7,6,1
		C36.1,112,36.7,110.2,37.3,108.4z"/>
	<path fill="#FFFFFF" d="M37.3,133.5c0.6,2,1.2,4,1.8,6c2,0.3,4,0.6,6,0.9c-1.6,1-3.2,1.9-4.8,2.8c0.6,2,1.2,4,1.8,6
		c-1.6-1.4-3.2-2.8-4.8-4.3c-1.6,0.9-3.2,1.8-4.8,2.7c0.6-1.8,1.2-3.6,1.8-5.4c-1.6-1.4-3.2-2.9-4.8-4.4c2,0.4,4,0.7,6,1
		C36.1,137.1,36.7,135.3,37.3,133.5z"/>
	<path fill="#FFFFFF" d="M55,47.1c0.6,2,1.3,3.9,1.9,5.9c2,0.2,4,0.4,6,0.6c-1.6,1-3.2,2-4.9,3c0.6,2,1.2,3.9,1.9,5.9
		c-1.6-1.3-3.3-2.7-4.9-4c-1.6,1-3.2,2-4.8,3c0.6-1.8,1.2-3.7,1.8-5.5c-1.6-1.4-3.2-2.7-4.8-4.1c2,0.3,4,0.5,6,0.7
		C53.8,50.8,54.4,49,55,47.1z"/>
	<path fill="#FFFFFF" d="M55,72.3c0.6,2,1.3,3.9,1.9,5.9c2,0.2,4,0.4,6,0.6c-1.6,1-3.2,2-4.9,3c0.6,2,1.2,3.9,1.9,5.9
		c-1.6-1.3-3.3-2.7-4.9-4c-1.6,1-3.2,2-4.8,3c0.6-1.8,1.2-3.7,1.8-5.5c-1.6-1.4-3.2-2.7-4.8-4.1c2,0.3,4,0.5,6,0.7
		C53.8,76,54.4,74.2,55,72.3z"/>
	<path fill="#FFFFFF" d="M55,97.5c0.6,2,1.3,3.9,1.9,5.9c2,0.2,4,0.4,6,0.6c-1.6,1-3.2,2-4.9,3c0.6,2,1.2,3.9,1.9,5.9
		c-1.6-1.3-3.3-2.7-4.9-4c-1.6,1-3.2,2-4.8,3c0.6-1.8,1.2-3.7,1.8-5.5c-1.6-1.4-3.2-2.7-4.8-4.1c2,0.3,4,0.5,6,0.7
		C53.8,101.1,54.4,99.3,55,97.5z"/>
	<path fill="#FFFFFF" d="M55,122.6c0.6,2,1.3,3.9,1.9,5.9c2,0.2,4,0.4,6,0.6c-1.6,1-3.2,2.1-4.9,3.1c0.6,2,1.2,3.9,1.9,5.9
		c-1.6-1.3-3.3-2.7-4.9-4c-1.6,1-3.2,2-4.8,2.9c0.6-1.8,1.2-3.6,1.8-5.5c-1.6-1.4-3.2-2.7-4.8-4.1c2,0.3,4,0.5,6,0.7
		C53.8,126.3,54.4,124.5,55,122.6z"/>
	<path fill="#FFFFFF" d="M55,147.8c0.6,2,1.3,3.9,1.9,5.9c2,0.2,4,0.4,6,0.6c-1.6,1-3.2,2-4.9,3c0.6,2,1.2,3.9,1.9,5.9
		c-1.6-1.3-3.3-2.7-4.9-4c-1.6,1-3.2,2-4.8,3c0.6-1.8,1.2-3.7,1.8-5.5c-1.6-1.4-3.2-2.7-4.8-4.1c2,0.3,4,0.5,6,0.7
		C53.8,151.5,54.4,149.6,55,147.8z"/>
	<path fill="#FFFFFF" d="M72.6,61.9c0.6,1.9,1.2,3.9,1.8,5.8c2,0.1,4,0.2,6,0.3c-1.6,1.1-3.2,2.2-4.9,3.3c0.6,1.9,1.2,3.9,1.9,5.8
		c-1.6-1.3-3.2-2.5-4.9-3.8c-1.6,1.1-3.2,2.1-4.8,3.2c0.6-1.8,1.2-3.7,1.9-5.5c-1.6-1.3-3.3-2.6-4.9-3.9c2,0.2,4,0.3,6,0.5
		C71.4,65.6,72,63.8,72.6,61.9z"/>
	<path fill="#FFFFFF" d="M72.6,87.1c0.6,1.9,1.2,3.9,1.8,5.8c2,0.1,4,0.2,6,0.3c-1.6,1.1-3.2,2.2-4.9,3.3c0.6,1.9,1.2,3.9,1.9,5.8
		c-1.6-1.2-3.2-2.5-4.9-3.8c-1.6,1.1-3.2,2.1-4.8,3.2c0.6-1.8,1.2-3.7,1.9-5.5c-1.6-1.3-3.3-2.6-4.9-3.9c2,0.2,4,0.3,6,0.5
		C71.4,90.8,72,89,72.6,87.1z"/>
	<path fill="#FFFFFF" d="M72.6,112.3c0.6,1.9,1.2,3.9,1.8,5.8c2,0.1,4,0.2,6,0.3c-1.6,1.1-3.2,2.2-4.9,3.3c0.6,1.9,1.2,3.9,1.9,5.8
		c-1.6-1.3-3.2-2.5-4.9-3.8c-1.6,1.1-3.2,2.1-4.8,3.2c0.6-1.9,1.2-3.7,1.9-5.6c-1.6-1.3-3.3-2.6-4.9-3.9c2,0.2,4,0.3,6,0.5
		C71.4,116,72,114.1,72.6,112.3z"/>
	<path fill="#FFFFFF" d="M72.6,137.4c0.6,1.9,1.2,3.9,1.8,5.8c2,0.1,4,0.2,6,0.3c-1.6,1.1-3.2,2.2-4.9,3.3c0.6,1.9,1.2,3.9,1.9,5.8
		c-1.6-1.3-3.2-2.5-4.9-3.8c-1.6,1.1-3.2,2.1-4.8,3.2c0.6-1.8,1.2-3.7,1.9-5.5c-1.6-1.3-3.3-2.6-4.9-3.9c2,0.2,4,0.3,6,0.5
		C71.4,141.1,72,139.3,72.6,137.4z"/>
	<path fill="#FFFFFF" d="M90.3,49.4c0.6,1.9,1.3,3.8,1.9,5.8c2,0,3.9,0.1,5.9,0.1c-1.6,1.2-3.2,2.3-4.9,3.5c0.6,1.9,1.3,3.8,1.9,5.7
		c-1.6-1.2-3.3-2.4-4.9-3.6c-1.6,1.1-3.2,2.3-4.8,3.4c0.6-1.9,1.2-3.8,1.8-5.6c-1.6-1.2-3.2-2.4-4.8-3.7c2,0.1,4,0.1,6,0.2
		C89.1,53.2,89.7,51.3,90.3,49.4z"/>
	<path fill="#FFFFFF" d="M90.3,74.6c0.6,1.9,1.3,3.8,1.9,5.7c2,0,3.9,0.1,5.9,0.1c-1.6,1.2-3.2,2.3-4.9,3.4c0.6,1.9,1.3,3.8,1.9,5.8
		c-1.6-1.2-3.3-2.4-4.9-3.6c-1.6,1.1-3.2,2.3-4.8,3.4c0.6-1.9,1.2-3.8,1.8-5.7c-1.6-1.2-3.2-2.4-4.8-3.7c2,0.1,4,0.1,6,0.2
		C89.1,78.4,89.7,76.5,90.3,74.6z"/>
	<path fill="#FFFFFF" d="M90.3,99.8c0.6,1.9,1.3,3.8,1.9,5.7c2,0,3.9,0.1,5.9,0.1c-1.6,1.2-3.2,2.3-4.9,3.5c0.6,1.9,1.3,3.8,1.9,5.7
		c-1.6-1.2-3.3-2.4-4.9-3.6c-1.6,1.1-3.2,2.3-4.8,3.4c0.6-1.9,1.2-3.8,1.8-5.7c-1.6-1.2-3.2-2.4-4.8-3.7c2,0.1,4,0.1,6,0.2
		C89.1,103.5,89.7,101.7,90.3,99.8z"/>
	<path fill="#FFFFFF" d="M90.3,124.9c0.6,1.9,1.3,3.8,1.9,5.7c2,0,3.9,0.1,5.9,0.1c-1.6,1.2-3.2,2.3-4.9,3.5
		c0.6,1.9,1.3,3.8,1.9,5.7c-1.6-1.2-3.3-2.4-4.9-3.6c-1.6,1.1-3.2,2.2-4.8,3.4c0.6-1.9,1.2-3.7,1.8-5.6c-1.6-1.2-3.2-2.5-4.8-3.7
		c2,0.1,4,0.1,6,0.2C89.1,128.7,89.7,126.8,90.3,124.9z"/>
	<path fill="#FFFFFF" d="M90.3,150.1c0.6,1.9,1.3,3.8,1.9,5.8c2,0,3.9,0.1,5.9,0.1c-1.6,1.2-3.2,2.3-4.9,3.4
		c0.6,1.9,1.3,3.8,1.9,5.7c-1.6-1.2-3.3-2.4-4.9-3.6c-1.6,1.1-3.2,2.3-4.8,3.4c0.6-1.9,1.2-3.8,1.8-5.7c-1.6-1.2-3.2-2.4-4.8-3.7
		c2,0.1,4,0.1,6,0.2C89.1,153.9,89.7,152,90.3,150.1z"/>
	<path fill="#FFFFFF" d="M107.9,62.8c0.6,1.9,1.2,3.8,1.8,5.7c2,0,4-0.1,6-0.1c-1.6,1.2-3.2,2.4-4.8,3.7c0.6,1.9,1.2,3.8,1.8,5.6
		c-1.6-1.1-3.2-2.3-4.8-3.4c-1.6,1.2-3.2,2.4-4.8,3.5c0.6-1.9,1.2-3.8,1.8-5.7c-1.6-1.2-3.2-2.3-4.8-3.5c2,0,4,0,6,0
		C106.7,66.6,107.3,64.7,107.9,62.8z"/>
	<path fill="#FFFFFF" d="M107.9,88c0.6,1.9,1.2,3.8,1.8,5.7c2,0,4-0.1,6-0.1c-1.6,1.2-3.2,2.4-4.8,3.6c0.6,1.9,1.2,3.8,1.8,5.6
		c-1.6-1.1-3.2-2.3-4.8-3.4c-1.6,1.2-3.2,2.4-4.8,3.5c0.6-1.9,1.2-3.8,1.8-5.7c-1.6-1.2-3.2-2.3-4.8-3.5c2,0,4,0,6,0
		C106.7,91.8,107.3,89.9,107.9,88z"/>
	<path fill="#FFFFFF" d="M107.9,113.1c0.6,1.9,1.2,3.8,1.8,5.7c2,0,4-0.1,6-0.1c-1.6,1.2-3.2,2.4-4.8,3.6c0.6,1.9,1.2,3.8,1.8,5.7
		c-1.6-1.1-3.2-2.3-4.8-3.4c-1.6,1.2-3.2,2.4-4.8,3.6c0.6-1.9,1.2-3.8,1.8-5.7c-1.6-1.2-3.2-2.3-4.8-3.5c2,0,4,0,6,0
		C106.7,116.9,107.3,115,107.9,113.1z"/>
	<path fill="#FFFFFF" d="M107.9,138.3c0.6,1.9,1.2,3.8,1.8,5.6c2,0,4-0.1,6-0.1c-1.6,1.2-3.2,2.4-4.8,3.6c0.6,1.9,1.2,3.8,1.8,5.6
		c-1.6-1.1-3.2-2.3-4.8-3.4c-1.6,1.2-3.2,2.4-4.8,3.6c0.6-1.9,1.2-3.8,1.8-5.7c-1.6-1.2-3.2-2.3-4.8-3.5c2,0,4,0,6,0
		C106.7,142.1,107.3,140.2,107.9,138.3z"/>
	<path fill="#FFFFFF" d="M125.6,49c0.6,1.9,1.2,3.8,1.9,5.6c2-0.1,4-0.2,6-0.3c-1.6,1.3-3.2,2.5-4.8,3.8c0.6,1.9,1.3,3.7,1.9,5.6
		c-1.6-1.1-3.3-2.2-4.9-3.3c-1.6,1.2-3.2,2.5-4.8,3.7c0.6-1.9,1.2-3.8,1.8-5.8c-1.6-1.1-3.2-2.2-4.8-3.3c2-0.1,4-0.1,6-0.2
		C124.4,52.9,125,50.9,125.6,49z"/>
	<path fill="#FFFFFF" d="M125.6,74.2c0.6,1.9,1.2,3.7,1.9,5.6c2-0.1,4-0.2,6-0.3c-1.6,1.3-3.2,2.5-4.8,3.8c0.6,1.9,1.3,3.8,1.9,5.6
		c-1.6-1.1-3.3-2.2-4.9-3.3c-1.6,1.2-3.2,2.5-4.8,3.7c0.6-1.9,1.2-3.9,1.8-5.8c-1.6-1.1-3.2-2.2-4.8-3.3c2-0.1,4-0.1,6-0.2
		C124.4,78,125,76.1,125.6,74.2z"/>
	<path fill="#FFFFFF" d="M125.6,99.3c0.6,1.9,1.2,3.7,1.9,5.6c2-0.1,4-0.2,6-0.3c-1.6,1.3-3.2,2.5-4.8,3.8c0.6,1.9,1.3,3.7,1.9,5.6
		c-1.6-1.1-3.3-2.2-4.9-3.3c-1.6,1.2-3.2,2.5-4.8,3.7c0.6-1.9,1.2-3.9,1.8-5.8c-1.6-1.1-3.2-2.2-4.8-3.3c2-0.1,4-0.1,6-0.2
		C124.4,103.2,125,101.3,125.6,99.3z"/>
	<path fill="#FFFFFF" d="M125.6,124.5c0.6,1.9,1.2,3.7,1.9,5.6c2-0.1,4-0.2,6-0.3c-1.6,1.3-3.2,2.5-4.8,3.8c0.6,1.9,1.3,3.7,1.9,5.6
		c-1.6-1.1-3.3-2.2-4.9-3.3c-1.6,1.2-3.2,2.5-4.8,3.7c0.6-1.9,1.2-3.8,1.8-5.7c-1.6-1.1-3.2-2.2-4.8-3.4c2-0.1,4-0.1,6-0.2
		C124.4,128.4,125,126.4,125.6,124.5z"/>
	<path fill="#FFFFFF" d="M125.6,149.7c0.6,1.9,1.2,3.8,1.9,5.6c2-0.1,4-0.2,6-0.3c-1.6,1.3-3.2,2.5-4.8,3.8c0.6,1.9,1.3,3.7,1.9,5.6
		c-1.6-1.1-3.3-2.2-4.9-3.3c-1.6,1.2-3.2,2.5-4.8,3.7c0.6-1.9,1.2-3.9,1.8-5.8c-1.6-1.1-3.2-2.2-4.8-3.3c2-0.1,4-0.1,6-0.2
		C124.4,153.5,125,151.6,125.6,149.7z"/>
	<path fill="#FFFFFF" d="M143.1,61.2c0.6,1.9,1.2,3.7,1.9,5.6c2-0.1,4-0.3,6-0.5c-1.6,1.3-3.2,2.6-4.9,3.9c0.6,1.8,1.2,3.7,1.8,5.5
		c-1.6-1-3.2-2.1-4.9-3.1c-1.6,1.3-3.2,2.6-4.8,3.8c0.6-1.9,1.2-3.9,1.9-5.8c-1.6-1.1-3.2-2.2-4.8-3.2c2-0.1,4-0.2,6-0.4
		C141.9,65.1,142.5,63.2,143.1,61.2z"/>
	<path fill="#FFFFFF" d="M143.1,86.4c0.6,1.9,1.2,3.7,1.9,5.6c2-0.1,4-0.3,6-0.5c-1.6,1.3-3.2,2.6-4.9,3.9c0.6,1.8,1.2,3.7,1.8,5.5
		c-1.6-1-3.2-2.1-4.9-3.1c-1.6,1.3-3.2,2.6-4.8,3.8c0.6-1.9,1.2-3.9,1.9-5.8c-1.6-1.1-3.2-2.1-4.8-3.2c2-0.1,4-0.2,6-0.4
		C141.9,90.3,142.5,88.4,143.1,86.4z"/>
	<path fill="#FFFFFF" d="M143.1,111.6c0.6,1.9,1.2,3.7,1.9,5.6c2-0.1,4-0.3,6-0.5c-1.6,1.3-3.2,2.6-4.9,3.9c0.6,1.9,1.2,3.7,1.8,5.6
		c-1.6-1-3.2-2.1-4.9-3.2c-1.6,1.3-3.2,2.6-4.8,3.9c0.6-1.9,1.2-3.9,1.9-5.8c-1.6-1.1-3.2-2.1-4.8-3.2c2-0.1,4-0.2,6-0.4
		C141.9,115.5,142.5,113.5,143.1,111.6z"/>
	<path fill="#FFFFFF" d="M143.1,136.8c0.6,1.8,1.2,3.7,1.9,5.5c2-0.1,4-0.3,6-0.5c-1.6,1.3-3.2,2.6-4.9,3.9c0.6,1.8,1.2,3.7,1.8,5.5
		c-1.6-1-3.2-2.1-4.9-3.2c-1.6,1.3-3.2,2.6-4.8,3.9c0.6-1.9,1.2-3.9,1.9-5.8c-1.6-1.1-3.2-2.1-4.8-3.2c2-0.1,4-0.2,6-0.4
		C141.9,140.6,142.5,138.7,143.1,136.8z"/>
	<path fill="#FFFFFF" d="M160.9,46.5c0.6,1.8,1.3,3.7,1.9,5.5c2-0.2,4-0.4,6-0.6c-1.6,1.3-3.2,2.7-4.8,4c0.6,1.8,1.2,3.7,1.8,5.5
		c-1.6-1-3.2-2-4.8-3.1c-1.6,1.3-3.2,2.6-4.8,4c0.6-2,1.2-3.9,1.8-5.9c-1.6-1-3.2-2.1-4.8-3.1c2-0.2,4-0.3,6-0.5
		C159.7,50.4,160.3,48.5,160.9,46.5z"/>
	<path fill="#FFFFFF" d="M160.9,71.7c0.6,1.8,1.3,3.7,1.9,5.5c2-0.2,4-0.4,6-0.6c-1.6,1.3-3.2,2.7-4.8,4c0.6,1.9,1.2,3.7,1.8,5.6
		c-1.6-1-3.2-2-4.8-3.1c-1.6,1.3-3.2,2.6-4.8,4c0.6-2,1.2-3.9,1.8-5.9c-1.6-1-3.2-2-4.8-3.1c2-0.2,4-0.3,6-0.5
		C159.7,75.6,160.3,73.6,160.9,71.7z"/>
	<path fill="#FFFFFF" d="M160.9,96.8c0.6,1.8,1.3,3.7,1.9,5.5c2-0.2,4-0.4,6-0.6c-1.6,1.3-3.2,2.7-4.8,4c0.6,1.8,1.2,3.7,1.8,5.5
		c-1.6-1-3.2-2-4.8-3.1c-1.6,1.3-3.2,2.6-4.8,4c0.6-2,1.2-3.9,1.8-5.9c-1.6-1-3.2-2.1-4.8-3.1c2-0.2,4-0.3,6-0.5
		C159.7,100.7,160.3,98.8,160.9,96.8z"/>
	<path fill="#FFFFFF" d="M160.9,122c0.6,1.8,1.3,3.7,1.9,5.5c2-0.2,4-0.4,6-0.6c-1.6,1.3-3.2,2.7-4.8,4c0.6,1.8,1.2,3.7,1.8,5.5
		c-1.6-1-3.2-2-4.8-3c-1.6,1.3-3.2,2.6-4.8,3.9c0.6-1.9,1.2-3.9,1.8-5.8c-1.6-1-3.2-2.1-4.8-3.1c2-0.2,4-0.3,6-0.5
		C159.7,125.9,160.3,124,160.9,122z"/>
	<path fill="#FFFFFF" d="M160.9,147.2c0.6,1.8,1.3,3.7,1.9,5.5c2-0.2,4-0.4,6-0.6c-1.6,1.3-3.2,2.7-4.8,4c0.6,1.8,1.2,3.7,1.8,5.5
		c-1.6-1-3.2-2-4.8-3.1c-1.6,1.3-3.2,2.6-4.8,4c0.6-2,1.2-3.9,1.8-5.9c-1.6-1-3.2-2-4.8-3.1c2-0.2,4-0.3,6-0.5
		C159.7,151.1,160.3,149.1,160.9,147.2z"/>
	<path fill="#FFFFFF" d="M178.4,57.9c0.6,1.8,1.2,3.7,1.8,5.5c2-0.2,4-0.5,6-0.7c-1.6,1.4-3.2,2.7-4.8,4.1c0.6,1.8,1.2,3.6,1.8,5.5
		c-1.6-1-3.2-2-4.8-3c-1.6,1.4-3.2,2.7-4.9,4c0.6-2,1.2-3.9,1.9-5.9c-1.6-1-3.2-2-4.8-3c2-0.2,4-0.4,5.9-0.6
		C177.2,61.9,177.8,59.9,178.4,57.9z"/>
	<path fill="#FFFFFF" d="M178.4,83.1c0.6,1.8,1.2,3.7,1.8,5.5c2-0.2,4-0.5,6-0.7c-1.6,1.4-3.2,2.7-4.8,4.1c0.6,1.8,1.2,3.6,1.8,5.5
		c-1.6-1-3.2-2-4.8-2.9c-1.6,1.3-3.2,2.7-4.9,4c0.6-2,1.2-3.9,1.9-5.9c-1.6-1-3.2-2-4.8-3c2-0.2,4-0.4,5.9-0.6
		C177.2,87,177.8,85.1,178.4,83.1z"/>
	<path fill="#FFFFFF" d="M178.4,108.3c0.6,1.8,1.2,3.7,1.8,5.5c2-0.2,4-0.5,6-0.7c-1.6,1.4-3.2,2.7-4.8,4.1c0.6,1.8,1.2,3.7,1.8,5.5
		c-1.6-1-3.2-2-4.8-3c-1.6,1.4-3.2,2.7-4.9,4.1c0.6-2,1.2-3.9,1.9-5.9c-1.6-1-3.2-2-4.8-3c2-0.2,4-0.4,5.9-0.6
		C177.2,112.2,177.8,110.2,178.4,108.3z"/>
	<path fill="#FFFFFF" d="M178.4,133.5c0.6,1.8,1.2,3.6,1.8,5.5c2-0.2,4-0.5,6-0.7c-1.6,1.4-3.2,2.7-4.8,4.1c0.6,1.8,1.2,3.6,1.8,5.5
		c-1.6-1-3.2-2-4.8-3c-1.6,1.4-3.2,2.7-4.9,4.1c0.6-2,1.2-3.9,1.9-5.9c-1.6-1-3.2-2-4.8-3c2-0.2,4-0.4,5.9-0.6
		C177.2,137.4,177.8,135.4,178.4,133.5z"/>
	<path fill="#FFFFFF" d="M196.1,42.6c0.6,1.8,1.3,3.7,1.9,5.5c2-0.3,4-0.5,6-0.8c-1.6,1.4-3.2,2.8-4.8,4.1c0.6,1.8,1.2,3.6,1.9,5.5
		c-1.6-1-3.3-1.9-4.9-2.9c-1.6,1.4-3.2,2.8-4.8,4.1c0.6-2,1.2-4,1.8-5.9c-1.6-1-3.2-1.9-4.8-2.9c2-0.2,4-0.5,6-0.7
		C194.9,46.5,195.5,44.5,196.1,42.6z"/>
	<path fill="#FFFFFF" d="M196.1,67.7c0.6,1.8,1.3,3.6,1.9,5.4c2-0.3,4-0.5,6-0.8c-1.6,1.4-3.2,2.7-4.8,4.1c0.6,1.8,1.2,3.7,1.9,5.5
		c-1.6-1-3.3-1.9-4.9-2.9c-1.6,1.4-3.2,2.8-4.8,4.1c0.6-2,1.2-4,1.8-6c-1.6-1-3.2-1.9-4.8-2.9c2-0.2,4-0.5,6-0.7
		C194.9,71.7,195.5,69.7,196.1,67.7z"/>
	<path fill="#FFFFFF" d="M196.1,92.9c0.6,1.8,1.3,3.6,1.9,5.5c2-0.3,4-0.5,6-0.8c-1.6,1.4-3.2,2.8-4.8,4.1c0.6,1.8,1.2,3.7,1.9,5.5
		c-1.6-1-3.3-1.9-4.9-2.9c-1.6,1.4-3.2,2.8-4.8,4.1c0.6-2,1.2-4,1.8-5.9c-1.6-1-3.2-1.9-4.8-2.9c2-0.2,4-0.5,6-0.7
		C194.9,96.9,195.5,94.9,196.1,92.9z"/>
	<path fill="#FFFFFF" d="M196.1,118.1c0.6,1.8,1.3,3.6,1.9,5.5c2-0.3,4-0.5,6-0.8c-1.6,1.4-3.2,2.8-4.8,4.2c0.6,1.8,1.2,3.6,1.9,5.4
		c-1.6-1-3.3-1.9-4.9-2.9c-1.6,1.4-3.2,2.7-4.8,4.1c0.6-2,1.2-3.9,1.8-5.9c-1.6-1-3.2-2-4.8-2.9c2-0.2,4-0.5,6-0.7
		C194.9,122,195.5,120,196.1,118.1z"/>
	<path fill="#FFFFFF" d="M196.1,143.2c0.6,1.8,1.3,3.6,1.9,5.5c2-0.3,4-0.5,6-0.8c-1.6,1.4-3.2,2.7-4.8,4.1c0.6,1.8,1.2,3.7,1.9,5.5
		c-1.6-1-3.3-1.9-4.9-2.9c-1.6,1.4-3.2,2.8-4.8,4.1c0.6-2,1.2-4,1.8-5.9c-1.6-1-3.2-1.9-4.8-2.9c2-0.2,4-0.5,6-0.7
		C194.9,147.2,195.5,145.2,196.1,143.2z"/>
</g>
</svg>
