<svg version="1.1" id="uzb" name="uzbekistan" xmlns="http://www.w3.org/2000/svg" xmlns:xlink="http://www.w3.org/1999/xlink" x="0px" y="0px"
	 viewBox="0 0 480 320" enable-background="new 0 0 480 320" xml:space="preserve">
<g id="flag-uzb">
	<path fill="#4697B1" d="M0,109.6c160,44.8,320-44.8,480,0c0-29.9,0-59.8,0-89.7C320-24.8,160,64.8,0,20C0,49.9,0,79.7,0,109.6z"/>
	<path fill="#BC2035" d="M0,115.2c160,44.8,320-44.8,480,0c0-1.9,0-3.7,0-5.6c-160-44.8-320,44.8-480,0C0,111.5,0,113.4,0,115.2z"/>
	<path fill="#FFFFFF" d="M0,204.8c160,44.8,320-44.8,480,0c0-29.9,0-59.7,0-89.6c-160-44.8-320,44.8-480,0C0,145.1,0,175,0,204.8z"
		/>
	<path fill="#BC2035" d="M0,210.4c160,44.8,320-44.8,480,0c0-1.9,0-3.7,0-5.6c-160-44.8-320,44.8-480,0C0,206.7,0,208.6,0,210.4z"/>
	<path fill="#4FB548" d="M0,300c160,44.8,320-44.8,480,0c0-29.9,0-59.7,0-89.6c-160-44.8-320,44.8-480,0C0,240.3,0,270.2,0,300z"/>
</g>
<g id="crest">
	<path fill="#FFFFFF" d="M112,77.7c0,18.5-15.1,34-33.6,33.1c-18.6-0.9-33.6-18.2-33.6-36.6c0-18.6,15.1-31.4,33.6-30.5
		C96.9,44.5,112,59.1,112,77.7"/>
	<path fill="#4697B1" d="M121.5,77.4c0,15.4-12.5,28.5-28,28.3c-15.4-0.2-28-13.9-28-29.3c0-15.5,12.5-26.9,28-26.7
		C109,49.9,121.5,61.9,121.5,77.4"/>
	<path fill="#FFFFFF" d="M163.5,40.8c-0.7,2.2-1.4,4.4-2,6.6c1.1,0.2,2.1,0.5,3.2,0.7C164.3,45.7,163.9,43.3,163.5,40.8z"/>
	<path fill="#FFFFFF" d="M163.5,40.8c0.7,2.1,1.4,4.1,2.1,6.2c-1.1,0.4-2.2,0.9-3.2,1.3C162.8,45.9,163.1,43.3,163.5,40.8z"/>
	<path fill="#FFFFFF" d="M169.9,44.8c-2.2,0.2-4.5,0.5-6.7,0.7c0,1.1,0,2.3,0,3.4C165.4,47.6,167.7,46.2,169.9,44.8z"/>
	<path fill="#FFFFFF" d="M169.9,44.8c-1.8,1.5-3.7,3-5.5,4.5c-0.6-0.8-1.3-1.7-1.9-2.5C165,46.2,167.5,45.5,169.9,44.8z"/>
	<path fill="#FFFFFF" d="M157.2,46.1c1.8,1.2,3.6,2.3,5.4,3.5c0.7-1,1.3-1.9,2-2.9C162.1,46.4,159.6,46.3,157.2,46.1z"/>
	<path fill="#FFFFFF" d="M157.2,46.1c2.2-0.2,4.5-0.4,6.7-0.6c0,1.1,0,2.3,0,3.4C161.6,47.9,159.4,47,157.2,46.1z"/>
	<path fill="#FFFFFF" d="M167.5,52.6c-0.7-2.1-1.4-4.1-2-6.2c-1.1,0.4-2.1,0.9-3.2,1.3C164,49.4,165.7,51,167.5,52.6z"/>
	<path fill="#FFFFFF" d="M167.5,52.6c-1.8-1.1-3.6-2.3-5.4-3.4c0.6-1,1.3-1.9,1.9-2.9C165.2,48.4,166.3,50.5,167.5,52.6z"/>
	<path fill="#FFFFFF" d="M159.6,53.4c1.8-1.5,3.6-3,5.5-4.5c-0.7-0.8-1.3-1.7-2-2.5C161.9,48.7,160.7,51.1,159.6,53.4z"/>
	<path fill="#FFFFFF" d="M159.6,53.4c0.7-2.2,1.4-4.4,2.1-6.6c1.1,0.2,2.1,0.5,3.2,0.7C163.1,49.4,161.3,51.4,159.6,53.4z"/>
	<path fill="#FFFFFF" d="M190.4,37.9c-0.7,2.2-1.4,4.5-2.1,6.7c1.1,0.2,2.1,0.4,3.2,0.6C191.2,42.7,190.8,40.3,190.4,37.9z"/>
	<path fill="#FFFFFF" d="M190.4,37.9c0.7,2.1,1.4,4.1,2.1,6.2c-1.1,0.5-2.1,0.9-3.2,1.4C189.7,42.9,190,40.4,190.4,37.9z"/>
	<path fill="#FFFFFF" d="M196.8,41.7c-2.2,0.3-4.5,0.6-6.7,0.8c0,1.1,0,2.3,0,3.4C192.3,44.5,194.5,43.1,196.8,41.7z"/>
	<path fill="#FFFFFF" d="M196.8,41.7c-1.8,1.5-3.6,3.1-5.4,4.6c-0.7-0.8-1.3-1.7-2-2.5C191.8,43.1,194.3,42.4,196.8,41.7z"/>
	<path fill="#FFFFFF" d="M184,43.3c1.8,1.1,3.6,2.2,5.4,3.3c0.7-1,1.3-2,2-3C188.9,43.5,186.5,43.4,184,43.3z"/>
	<path fill="#FFFFFF" d="M184,43.3c2.2-0.3,4.5-0.5,6.7-0.8c0,1.1,0,2.3,0,3.4C188.5,45,186.2,44.1,184,43.3z"/>
	<path fill="#FFFFFF" d="M194.3,49.6c-0.7-2.1-1.4-4.1-2.1-6.2c-1,0.5-2.1,0.9-3.1,1.4C190.9,46.4,192.6,48,194.3,49.6z"/>
	<path fill="#FFFFFF" d="M194.3,49.6c-1.8-1.1-3.6-2.2-5.4-3.3c0.7-1,1.3-2,2-3C192,45.4,193.2,47.5,194.3,49.6z"/>
	<path fill="#FFFFFF" d="M186.4,50.5c1.8-1.5,3.6-3.1,5.5-4.6c-0.7-0.8-1.3-1.7-2-2.5C188.8,45.8,187.6,48.2,186.4,50.5z"/>
	<path fill="#FFFFFF" d="M186.4,50.5c0.7-2.2,1.4-4.5,2.1-6.7c1.1,0.2,2.1,0.4,3.2,0.6C190,46.5,188.2,48.5,186.4,50.5z"/>
	<path fill="#FFFFFF" d="M217.3,34.4c-0.7,2.2-1.4,4.5-2.1,6.7c1.1,0.2,2.1,0.4,3.2,0.6C218,39.2,217.7,36.8,217.3,34.4z"/>
	<path fill="#FFFFFF" d="M217.3,34.4c0.7,2,1.4,4.1,2.1,6.1c-1.1,0.5-2.2,1-3.2,1.4C216.5,39.4,216.9,36.9,217.3,34.4z"/>
	<path fill="#FFFFFF" d="M223.7,38.1c-2.2,0.3-4.5,0.6-6.7,0.9c0,1.1,0,2.3,0,3.4C219.2,41,221.5,39.6,223.7,38.1z"/>
	<path fill="#FFFFFF" d="M223.7,38.1c-1.8,1.6-3.6,3.1-5.4,4.7c-0.7-0.8-1.3-1.6-2-2.5C218.7,39.6,221.2,38.9,223.7,38.1z"/>
	<path fill="#FFFFFF" d="M210.9,39.9c1.8,1.1,3.6,2.2,5.4,3.2c0.7-1,1.3-2,2-3C215.8,40,213.4,39.9,210.9,39.9z"/>
	<path fill="#FFFFFF" d="M210.9,39.9c2.2-0.3,4.5-0.6,6.7-0.9c0,1.1,0,2.3,0,3.4C215.3,41.5,213.1,40.7,210.9,39.9z"/>
	<path fill="#FFFFFF" d="M221.2,46c-0.7-2-1.4-4.1-2.1-6.1c-1.1,0.5-2.1,0.9-3.2,1.4C217.7,42.9,219.5,44.4,221.2,46z"/>
	<path fill="#FFFFFF" d="M221.2,46c-1.8-1.1-3.6-2.2-5.4-3.2c0.6-1,1.3-2,1.9-3C218.9,41.9,220.1,43.9,221.2,46z"/>
	<path fill="#FFFFFF" d="M213.4,47.1c1.8-1.6,3.6-3.1,5.4-4.7c-0.7-0.8-1.3-1.6-2-2.5C215.7,42.3,214.5,44.7,213.4,47.1z"/>
	<path fill="#FFFFFF" d="M213.4,47.1c0.7-2.2,1.4-4.5,2.1-6.7c1.1,0.2,2.1,0.4,3.2,0.6C216.9,43,215.1,45,213.4,47.1z"/>
	<path fill="#FFFFFF" d="M136.6,69.9c-0.7,2.2-1.4,4.3-2.1,6.5c1.1,0.3,2.1,0.6,3.2,0.9C137.4,74.8,137,72.3,136.6,69.9z"/>
	<path fill="#FFFFFF" d="M136.6,69.9c0.7,2.1,1.4,4.2,2.1,6.2c-1.1,0.4-2.1,0.8-3.2,1.3C135.9,74.9,136.3,72.4,136.6,69.9z"/>
	<path fill="#FFFFFF" d="M143,74.1c-2.2,0.2-4.5,0.3-6.7,0.4c0,1.1,0,2.2,0,3.4C138.6,76.6,140.8,75.4,143,74.1z"/>
	<path fill="#FFFFFF" d="M143,74.1c-1.8,1.4-3.6,2.9-5.4,4.3c-0.7-0.9-1.3-1.7-2-2.6C138.1,75.2,140.6,74.7,143,74.1z"/>
	<path fill="#FFFFFF" d="M130.3,74.9c1.8,1.2,3.6,2.4,5.4,3.6c0.7-0.9,1.3-1.9,2-2.8C135.2,75.4,132.7,75.2,130.3,74.9z"/>
	<path fill="#FFFFFF" d="M130.3,74.9c2.2-0.1,4.5-0.2,6.7-0.4c0,1.1,0,2.2,0,3.4C134.7,76.9,132.5,75.9,130.3,74.9z"/>
	<path fill="#FFFFFF" d="M140.6,81.7c-0.7-2.1-1.4-4.2-2-6.2c-1.1,0.4-2.1,0.9-3.2,1.3C137.1,78.4,138.8,80.1,140.6,81.7z"/>
	<path fill="#FFFFFF" d="M140.6,81.7c-1.8-1.2-3.6-2.4-5.4-3.6c0.7-0.9,1.3-1.9,2-2.8C138.3,77.5,139.4,79.6,140.6,81.7z"/>
	<path fill="#FFFFFF" d="M132.7,82.2c1.8-1.4,3.6-2.8,5.4-4.2c-0.7-0.9-1.3-1.7-2-2.6C135,77.7,133.8,80,132.7,82.2z"/>
	<path fill="#FFFFFF" d="M132.7,82.2c0.7-2.2,1.4-4.3,2-6.5c1.1,0.3,2.2,0.6,3.2,0.9C136.2,78.5,134.5,80.4,132.7,82.2z"/>
	<path fill="#FFFFFF" d="M163.5,67.7c-0.7,2.2-1.4,4.4-2,6.6c1.1,0.3,2.1,0.5,3.2,0.8C164.3,72.6,163.9,70.1,163.5,67.7z"/>
	<path fill="#FFFFFF" d="M163.5,67.7c0.7,2.1,1.4,4.1,2.1,6.2c-1.1,0.5-2.2,0.9-3.2,1.4C162.8,72.7,163.1,70.2,163.5,67.7z"/>
	<path fill="#FFFFFF" d="M169.9,71.7c-2.2,0.2-4.5,0.5-6.7,0.7c0,1.1,0,2.2,0,3.4C165.4,74.4,167.7,73,169.9,71.7z"/>
	<path fill="#FFFFFF" d="M169.9,71.7c-1.8,1.5-3.7,3-5.5,4.5c-0.6-0.8-1.3-1.7-1.9-2.5C165,73,167.5,72.4,169.9,71.7z"/>
	<path fill="#FFFFFF" d="M157.2,72.9c1.8,1.1,3.6,2.3,5.4,3.4c0.7-1,1.3-1.9,2-2.9C162.1,73.3,159.6,73.1,157.2,72.9z"/>
	<path fill="#FFFFFF" d="M157.2,72.9c2.2-0.2,4.5-0.4,6.7-0.6c0,1.1,0,2.2,0,3.4C161.6,74.8,159.4,73.9,157.2,72.9z"/>
	<path fill="#FFFFFF" d="M167.5,79.4c-0.7-2.1-1.4-4.1-2-6.2c-1.1,0.5-2.1,0.9-3.2,1.4C164,76.3,165.7,77.8,167.5,79.4z"/>
	<path fill="#FFFFFF" d="M167.5,79.4c-1.8-1.1-3.6-2.3-5.4-3.4c0.6-1,1.3-1.9,1.9-2.9C165.2,75.3,166.3,77.4,167.5,79.4z"/>
	<path fill="#FFFFFF" d="M159.6,80.2c1.8-1.5,3.6-3,5.5-4.4c-0.7-0.8-1.3-1.7-2-2.5C161.9,75.6,160.7,77.9,159.6,80.2z"/>
	<path fill="#FFFFFF" d="M159.6,80.2c0.7-2.2,1.4-4.4,2.1-6.6c1.1,0.3,2.1,0.5,3.2,0.8C163.1,76.3,161.3,78.3,159.6,80.2z"/>
	<path fill="#FFFFFF" d="M190.4,64.7c-0.7,2.2-1.4,4.4-2.1,6.6c1.1,0.2,2.1,0.4,3.2,0.7C191.2,69.6,190.8,67.2,190.4,64.7z"/>
	<path fill="#FFFFFF" d="M190.4,64.7c0.7,2,1.4,4.1,2.1,6.1c-1.1,0.5-2.1,1-3.2,1.5C189.7,69.8,190,67.3,190.4,64.7z"/>
	<path fill="#FFFFFF" d="M196.8,68.6c-2.2,0.3-4.5,0.6-6.7,0.8c0,1.1,0,2.2,0,3.4C192.3,71.4,194.5,70,196.8,68.6z"/>
	<path fill="#FFFFFF" d="M196.8,68.6c-1.8,1.5-3.6,3.1-5.4,4.6c-0.7-0.8-1.3-1.6-2-2.4C191.8,70,194.3,69.3,196.8,68.6z"/>
	<path fill="#FFFFFF" d="M184,70.1c1.8,1.1,3.6,2.2,5.4,3.3c0.7-1,1.3-1.9,2-2.9C188.9,70.4,186.5,70.3,184,70.1z"/>
	<path fill="#FFFFFF" d="M184,70.1c2.2-0.3,4.5-0.5,6.7-0.8c0,1.1,0,2.2,0,3.4C188.5,71.8,186.2,71,184,70.1z"/>
	<path fill="#FFFFFF" d="M194.3,76.4c-0.7-2-1.4-4.1-2.1-6.1c-1,0.5-2.1,1-3.1,1.5C190.9,73.3,192.6,74.8,194.3,76.4z"/>
	<path fill="#FFFFFF" d="M194.3,76.4c-1.8-1.1-3.6-2.2-5.4-3.3c0.7-1,1.3-1.9,2-2.9C192,72.3,193.2,74.3,194.3,76.4z"/>
	<path fill="#FFFFFF" d="M186.4,77.3c1.8-1.5,3.6-3,5.5-4.6c-0.7-0.8-1.3-1.6-2-2.4C188.8,72.7,187.6,75,186.4,77.3z"/>
	<path fill="#FFFFFF" d="M186.4,77.3c0.7-2.2,1.4-4.4,2.1-6.6c1.1,0.2,2.1,0.5,3.2,0.7C190,73.4,188.2,75.4,186.4,77.3z"/>
	<path fill="#FFFFFF" d="M217.3,61.2c-0.7,2.2-1.4,4.4-2.1,6.6c1.1,0.2,2.1,0.4,3.2,0.6C218,66.1,217.7,63.7,217.3,61.2z"/>
	<path fill="#FFFFFF" d="M217.3,61.2c0.7,2,1.4,4.1,2.1,6.1c-1.1,0.5-2.2,1-3.2,1.5C216.5,66.3,216.9,63.8,217.3,61.2z"/>
	<path fill="#FFFFFF" d="M223.7,65c-2.2,0.3-4.5,0.6-6.7,0.9c0,1.1,0,2.2,0,3.4C219.2,67.8,221.5,66.4,223.7,65z"/>
	<path fill="#FFFFFF" d="M223.7,65c-1.8,1.6-3.6,3.1-5.4,4.7c-0.7-0.8-1.3-1.6-2-2.4C218.7,66.5,221.2,65.7,223.7,65z"/>
	<path fill="#FFFFFF" d="M210.9,66.7c1.8,1.1,3.6,2.1,5.4,3.2c0.7-1,1.3-2,2-3C215.8,66.9,213.4,66.8,210.9,66.7z"/>
	<path fill="#FFFFFF" d="M210.9,66.7c2.2-0.3,4.5-0.6,6.7-0.9c0,1.1,0,2.2,0,3.4C215.3,68.4,213.1,67.6,210.9,66.7z"/>
	<path fill="#FFFFFF" d="M221.2,72.8c-0.7-2-1.4-4.1-2.1-6.1c-1.1,0.5-2.1,1-3.2,1.5C217.7,69.8,219.5,71.3,221.2,72.8z"/>
	<path fill="#FFFFFF" d="M221.2,72.8c-1.8-1.1-3.6-2.1-5.4-3.2c0.6-1,1.3-2,1.9-2.9C218.9,68.7,220.1,70.8,221.2,72.8z"/>
	<path fill="#FFFFFF" d="M213.4,73.9c1.8-1.6,3.6-3.1,5.4-4.7c-0.7-0.8-1.3-1.6-2-2.4C215.7,69.2,214.5,71.5,213.4,73.9z"/>
	<path fill="#FFFFFF" d="M213.4,73.9c0.7-2.2,1.4-4.4,2.1-6.7c1.1,0.2,2.1,0.4,3.2,0.6C216.9,69.9,215.1,71.9,213.4,73.9z"/>
	<path fill="#FFFFFF" d="M109.8,97.8c-0.7,2.2-1.4,4.3-2,6.5c1.1,0.3,2.1,0.6,3.2,1C110.5,102.8,110.1,100.3,109.8,97.8z"/>
	<path fill="#FFFFFF" d="M109.8,97.8c0.7,2.1,1.4,4.3,2.1,6.4c-1.1,0.4-2.1,0.7-3.2,1.1C109,102.8,109.4,100.3,109.8,97.8z"/>
	<path fill="#FFFFFF" d="M116.2,102.4c-2.3,0.1-4.5,0.1-6.7,0.1c0,1.1,0,2.2,0,3.3C111.7,104.7,113.9,103.5,116.2,102.4z"/>
	<path fill="#FFFFFF" d="M116.2,102.4c-1.8,1.4-3.6,2.7-5.4,4c-0.7-0.9-1.3-1.8-2-2.7C111.2,103.3,113.7,102.8,116.2,102.4z"/>
	<path fill="#FFFFFF" d="M103.3,102.6c1.8,1.3,3.7,2.6,5.5,3.9c0.7-0.9,1.3-1.8,2-2.8C108.3,103.3,105.8,102.9,103.3,102.6z"/>
	<path fill="#FFFFFF" d="M103.3,102.6c2.2,0,4.5,0,6.7-0.1c0,1.1,0,2.2,0,3.3C107.8,104.7,105.6,103.7,103.3,102.6z"/>
	<path fill="#FFFFFF" d="M113.7,109.9c-0.7-2.1-1.4-4.2-2.1-6.3c-1.1,0.4-2.1,0.7-3.2,1.1C110.2,106.4,111.9,108.2,113.7,109.9z"/>
	<path fill="#FFFFFF" d="M113.7,109.9c-1.8-1.3-3.6-2.5-5.4-3.8c0.7-0.9,1.3-1.9,2-2.8C111.4,105.5,112.6,107.7,113.7,109.9z"/>
	<path fill="#FFFFFF" d="M105.8,110c1.8-1.3,3.6-2.6,5.4-4c-0.7-0.9-1.3-1.8-2-2.8C108.1,105.5,107,107.8,105.8,110z"/>
	<path fill="#FFFFFF" d="M105.8,110c0.7-2.1,1.4-4.3,2.1-6.4c1.1,0.3,2.1,0.6,3.2,1C109.3,106.4,107.6,108.2,105.8,110z"/>
	<path fill="#FFFFFF" d="M136.6,96.7c-0.7,2.2-1.4,4.4-2.1,6.6c1.1,0.3,2.1,0.5,3.2,0.8C137.4,101.6,137,99.2,136.6,96.7z"/>
	<path fill="#FFFFFF" d="M136.6,96.7c0.7,2.1,1.4,4.2,2.1,6.3c-1.1,0.4-2.1,0.8-3.2,1.2C135.9,101.7,136.3,99.2,136.6,96.7z"/>
	<path fill="#FFFFFF" d="M143,101c-2.2,0.2-4.5,0.3-6.7,0.4c0,1.1,0,2.2,0,3.3C138.6,103.5,140.8,102.3,143,101z"/>
	<path fill="#FFFFFF" d="M143,101c-1.8,1.4-3.6,2.9-5.4,4.3c-0.7-0.9-1.3-1.7-2-2.6C138.1,102.1,140.6,101.6,143,101z"/>
	<path fill="#FFFFFF" d="M130.3,101.8c1.8,1.2,3.6,2.4,5.4,3.6c0.7-1,1.3-1.9,2-2.9C135.2,102.3,132.7,102.1,130.3,101.8z"/>
	<path fill="#FFFFFF" d="M130.3,101.8c2.2-0.1,4.5-0.2,6.7-0.4c0,1.1,0,2.2,0,3.3C134.7,103.8,132.5,102.8,130.3,101.8z"/>
	<path fill="#FFFFFF" d="M140.6,108.7c-0.7-2.1-1.4-4.1-2-6.2c-1.1,0.4-2.1,0.8-3.2,1.2C137.1,105.3,138.8,107,140.6,108.7z"/>
	<path fill="#FFFFFF" d="M140.6,108.7c-1.8-1.2-3.6-2.4-5.4-3.5c0.7-1,1.3-2,2-2.9C138.3,104.3,139.4,106.5,140.6,108.7z"/>
	<path fill="#FFFFFF" d="M132.7,109.1c1.8-1.4,3.6-2.8,5.4-4.2c-0.7-0.9-1.3-1.8-2-2.7C135,104.5,133.8,106.8,132.7,109.1z"/>
	<path fill="#FFFFFF" d="M132.7,109.1c0.7-2.2,1.4-4.3,2-6.5c1.1,0.3,2.2,0.5,3.2,0.8C136.2,105.4,134.5,107.3,132.7,109.1z"/>
	<path fill="#FFFFFF" d="M163.5,94.6c-0.7,2.2-1.4,4.4-2,6.6c1.1,0.2,2.1,0.5,3.2,0.7C164.3,99.5,163.9,97,163.5,94.6z"/>
	<path fill="#FFFFFF" d="M163.5,94.6c0.7,2.1,1.4,4.2,2.1,6.2c-1.1,0.4-2.2,0.9-3.2,1.3C162.8,99.6,163.1,97.1,163.5,94.6z"/>
	<path fill="#FFFFFF" d="M169.9,98.6c-2.2,0.2-4.5,0.5-6.7,0.7c0,1.1,0,2.2,0,3.3C165.4,101.3,167.7,99.9,169.9,98.6z"/>
	<path fill="#FFFFFF" d="M169.9,98.6c-1.8,1.5-3.7,3-5.5,4.5c-0.6-0.9-1.3-1.7-1.9-2.6C165,99.9,167.5,99.3,169.9,98.6z"/>
	<path fill="#FFFFFF" d="M157.2,99.9c1.8,1.1,3.6,2.3,5.4,3.4c0.7-1,1.3-2,2-2.9C162.1,100.2,159.6,100,157.2,99.9z"/>
	<path fill="#FFFFFF" d="M157.2,99.9c2.2-0.2,4.5-0.4,6.7-0.6c0,1.1,0,2.2,0,3.3C161.6,101.7,159.4,100.8,157.2,99.9z"/>
	<path fill="#FFFFFF" d="M167.5,106.4c-0.7-2.1-1.4-4.1-2-6.2c-1.1,0.4-2.1,0.9-3.2,1.3C164,103.1,165.7,104.7,167.5,106.4z"/>
	<path fill="#FFFFFF" d="M167.5,106.4c-1.8-1.1-3.6-2.2-5.4-3.4c0.6-1,1.3-2,1.9-3C165.2,102.1,166.3,104.2,167.5,106.4z"/>
	<path fill="#FFFFFF" d="M159.6,107.1c1.8-1.5,3.6-2.9,5.5-4.4c-0.7-0.9-1.3-1.7-2-2.6C161.9,102.4,160.7,104.8,159.6,107.1z"/>
	<path fill="#FFFFFF" d="M159.6,107.1c0.7-2.2,1.4-4.4,2.1-6.6c1.1,0.2,2.1,0.5,3.2,0.7C163.1,103.2,161.3,105.2,159.6,107.1z"/>
	<path fill="#FFFFFF" d="M190.4,91.6c-0.7,2.2-1.4,4.5-2.1,6.7c1.1,0.2,2.1,0.4,3.2,0.6C191.2,96.5,190.8,94,190.4,91.6z"/>
	<path fill="#FFFFFF" d="M190.4,91.6c0.7,2.1,1.4,4.1,2.1,6.2c-1.1,0.5-2.1,0.9-3.2,1.4C189.7,96.6,190,94.1,190.4,91.6z"/>
	<path fill="#FFFFFF" d="M196.8,95.5c-2.2,0.3-4.5,0.6-6.7,0.8c0,1.1,0,2.2,0,3.3C192.3,98.3,194.5,96.9,196.8,95.5z"/>
	<path fill="#FFFFFF" d="M196.8,95.5c-1.8,1.5-3.6,3.1-5.4,4.6c-0.7-0.8-1.3-1.7-2-2.5C191.8,96.9,194.3,96.2,196.8,95.5z"/>
	<path fill="#FFFFFF" d="M184,97c1.8,1.1,3.6,2.2,5.4,3.3c0.7-1,1.3-2,2-3C188.9,97.2,186.5,97.2,184,97z"/>
	<path fill="#FFFFFF" d="M184,97c2.2-0.3,4.5-0.5,6.7-0.8c0,1.1,0,2.2,0,3.3C188.5,98.7,186.2,97.9,184,97z"/>
	<path fill="#FFFFFF" d="M194.3,103.3c-0.7-2-1.4-4.1-2.1-6.1c-1,0.5-2.1,0.9-3.1,1.4C190.9,100.1,192.6,101.7,194.3,103.3z"/>
	<path fill="#FFFFFF" d="M194.3,103.3c-1.8-1.1-3.6-2.1-5.4-3.2c0.7-1,1.3-2,2-3C192,99.1,193.2,101.2,194.3,103.3z"/>
	<path fill="#FFFFFF" d="M186.4,104.3c1.8-1.5,3.6-3,5.5-4.6c-0.7-0.9-1.3-1.7-2-2.6C188.8,99.5,187.6,101.9,186.4,104.3z"/>
	<path fill="#FFFFFF" d="M186.4,104.3c0.7-2.2,1.4-4.4,2.1-6.6c1.1,0.2,2.1,0.4,3.2,0.6C190,100.3,188.2,102.3,186.4,104.3z"/>
	<path fill="#FFFFFF" d="M217.3,88.1c-0.7,2.2-1.4,4.5-2.1,6.7c1.1,0.2,2.1,0.4,3.2,0.6C218,93,217.7,90.5,217.3,88.1z"/>
	<path fill="#FFFFFF" d="M217.3,88.1c0.7,2.1,1.4,4.1,2.1,6.2c-1.1,0.5-2.2,1-3.2,1.4C216.5,93.2,216.9,90.6,217.3,88.1z"/>
	<path fill="#FFFFFF" d="M223.7,91.9c-2.2,0.3-4.5,0.6-6.7,0.9c0,1.1,0,2.2,0,3.3C219.2,94.7,221.5,93.3,223.7,91.9z"/>
	<path fill="#FFFFFF" d="M223.7,91.9c-1.8,1.6-3.6,3.1-5.4,4.7c-0.7-0.8-1.3-1.6-2-2.5C218.7,93.4,221.2,92.6,223.7,91.9z"/>
	<path fill="#FFFFFF" d="M210.9,93.7c1.8,1.1,3.6,2.1,5.4,3.2c0.7-1,1.3-2,2-3C215.8,93.8,213.4,93.7,210.9,93.7z"/>
	<path fill="#FFFFFF" d="M210.9,93.7c2.2-0.3,4.5-0.6,6.7-0.9c0,1.1,0,2.2,0,3.3C215.3,95.3,213.1,94.5,210.9,93.7z"/>
	<path fill="#FFFFFF" d="M221.2,99.7c-0.7-2-1.4-4-2.1-6.1c-1.1,0.5-2.1,1-3.2,1.4C217.7,96.6,219.5,98.2,221.2,99.7z"/>
	<path fill="#FFFFFF" d="M221.2,99.7c-1.8-1.1-3.6-2.1-5.4-3.2c0.6-1,1.3-2,1.9-3.1C218.9,95.6,220.1,97.7,221.2,99.7z"/>
	<path fill="#FFFFFF" d="M213.4,100.8c1.8-1.5,3.6-3.1,5.4-4.6c-0.7-0.8-1.3-1.7-2-2.5C215.7,96,214.5,98.4,213.4,100.8z"/>
	<path fill="#FFFFFF" d="M213.4,100.8c0.7-2.2,1.4-4.4,2.1-6.6c1.1,0.2,2.1,0.4,3.2,0.6C216.9,96.8,215.1,98.8,213.4,100.8z"/>
</g>
</svg>
