<svg version="1.1" id="vnm" name="vietnam" xmlns="http://www.w3.org/2000/svg" xmlns:xlink="http://www.w3.org/1999/xlink" x="0px" y="0px"
	 viewBox="0 0 480 320" enable-background="new 0 0 480 320" xml:space="preserve">
<g id="flag-vnm">
	<path fill="#C8202D" d="M0,300c160,44.8,320-44.8,480,0c0-93.3,0-186.7,0-280C320-24.8,160,64.8,0,20C0,113.3,0,206.7,0,300z"/>
	<path fill="#F2EA33" d="M273.9,175.2c7,20.6,14,41.2,21,61.9c-18.3-11.1-36.6-21.9-54.9-32.6c-18.3,15.9-36.6,31.7-54.9,47.2
		c7-22.3,14-44.7,21-67.2c-18.3-10.9-36.6-22-54.9-33.7c22.6-1.9,45.2-4.7,67.8-7.8c7-22.5,14-44.9,21-67.4c7,20.5,14,41.1,21,61.6
		c22.6-3.1,45.2-5.9,67.8-7.8C310.5,144.1,292.2,159.5,273.9,175.2z"/>
</g>
</svg>
