<?xml version="1.0" encoding="utf-8"?>
<!-- Generator: Adobe Illustrator 28.2.0, SVG Export Plug-In . SVG Version: 6.00 Build 0)  -->
<svg version="1.1" id="vut" xmlns="http://www.w3.org/2000/svg" xmlns:xlink="http://www.w3.org/1999/xlink" x="0px" y="0px"
	 viewBox="0 0 480 320" enable-background="new 0 0 480 320" xml:space="preserve">
<g id="flag-vut">
	<path fill="#C01F41" d="M0,160c160,44.8,320-44.8,480,0c0-46.7,0-93.3,0-140C320-24.8,160,64.8,0,20C0,66.7,0,113.3,0,160z"/>
	<path fill="#3C9446" d="M0,300c160,44.8,320-44.8,480,0c0-46.7,0-93.3,0-140c-160-44.8-320,44.8-480,0C0,206.7,0,253.3,0,300z"/>
	<path fill="#010101" d="M0,20c0,93.3,0,186.7,0,280c90.5-21.3,181-85.7,271.5-144.3C181,121,90.5,92,0,20z"/>
	<path fill="#010101" d="M0,185.1c160,44.8,320-44.8,480,0c0-16.7,0-33.4,0-50.1c-160-44.8-320,44.8-480,0C0,151.7,0,168.4,0,185.1z
		"/>
	<path fill="#F5CC2B" d="M0,280.1c77.7-18.3,155.3-68.2,233-119.1C155.3,131.8,77.7,101.7,0,39.9C0,119.9,0,200,0,280.1z"/>
	<path fill="#F5CC2B" d="M0,167.4c160,44.8,320-44.8,480,0c0-4.9,0-9.8,0-14.7c-160-44.8-320,44.8-480,0C0,157.6,0,162.5,0,167.4z"
		/>
	<path fill="#010101" d="M0,263.5c66.9-15.8,133.9-55.1,200.8-98.2C133.9,139.4,66.9,109.7,0,56.5C0,125.5,0,194.5,0,263.5z"/>
</g>
<g id="crest">
	<path fill="#F5CE30" d="M56.7,197.5c0,5.3,0,10.6,0,16c13.9,1.8,41.1-8.3,41.1-42.7c0-34-29.1-41.3-37.7-42.5
		c-8.7-0.5-35.6,1.3-35.6,29c0,28.3,26.3,35.2,31.5,35.4c5.2,0.7,24.7-2.7,22.5-23.9c0,5.9-6.7,18.4-20.9,17
		c-14.1-1.5-22.9-13.6-22.9-24c0-10.4,8.5-22.7,23.5-21.1c14.9,1.5,25.9,15,25.9,28.3C84,182.3,73.5,199.2,56.7,197.5L56.7,197.5z"
		/>
	<path fill="#F5CE30" d="M44.6,175.2c0.3,0.2,0.5,0.4,0.8,0.6c0-0.1,6.6-13.8,24.3-23.1C67.4,153.8,55.6,158.8,44.6,175.2
		L44.6,175.2z"/>
	<path fill="#F5CE30" d="M45.5,176.2c-0.4-0.3-0.7-0.6-1.1-0.8c4.8-7.6,13.1-17.3,24.8-22.7l0,0c-3.5,1.8-6.7,3.9-9.5,6.2
		c2.7-2.2,5.9-4.3,9.5-6.2c0.2,0.1,0.4,0.2,0.5,0.3c-17.4,9.2-24.1,22.9-24.1,23.1C45.6,176.1,45.6,176.2,45.5,176.2L45.5,176.2z
		 M50.9,167.4c-2.5,2.8-4.4,5.5-6.1,8c0.1,0.1,0.3,0.1,0.4,0.2C45.7,174.8,47.4,171.5,50.9,167.4L50.9,167.4z"/>
	<path fill="#F5CE30" d="M46.3,172.9c0,0-2-4.5-0.2-6.1c1.8-1.6,1,5,1,5c0.3-0.3,0.5-0.7,0.8-1c0,0-1.3-5.3,0.1-6.2
		c1.3-0.9,0.7,5,0.7,5c0.3-0.3,0.6-0.6,0.8-0.9c0,0-0.9-5.1,0.4-5.8c1.3-0.7,0.5,4.7,0.5,4.7c0.3-0.3,0.6-0.7,0.9-1
		c0,0-0.7-4.8,0.9-5.7c1.6-0.9,0.1,4.5,0.1,4.5c0.4-0.3,0.7-0.7,1.1-1c0,0-0.4-4.4,0.9-5.2c1.3-0.8,0.2,4.1,0.2,4.1
		c0.3-0.3,0.6-0.6,0.9-0.9c0,0-0.3-4.1,1-4.8c1.3-0.8,0.1,3.8,0.1,3.8c0.3-0.3,0.7-0.6,1-0.9c0,0-0.2-4.1,1.4-4.7
		c1.6-0.6-0.3,3.8-0.3,3.8c0.4-0.3,0.7-0.6,1.1-0.9c0,0,0.4-4.7,1.8-5c1.4-0.3-0.7,4.1-0.7,4.1c0.3-0.2,0.7-0.5,1-0.7
		c0,0,0.6-4,2.1-4.3c1.6-0.4-1,3.6-1,3.6c0.3-0.2,0.7-0.4,1-0.7c0,0,1.2-3.9,2.6-4.2c1.5-0.3-1.5,3.7-1.5,3.7c0.3-0.2,0.7-0.4,1-0.6
		c0,0,1.6-3.5,2.9-3.7c1.3-0.1-1.5,2.9-1.5,2.9c0.4-0.2,0.8-0.4,1.2-0.7c0,0,2.1-3.6,2.8-2.4c0.7,1.2-3,2.7-3,2.6
		c-0.4,0.2-0.8,0.4-1.2,0.6c0,0,4.4-1.8,5-0.7c0.5,1.1-6.1,1.3-6.1,1.3c-0.3,0.2-0.7,0.4-1.1,0.7c0,0,4.4-0.9,3.9,0.2
		c-0.6,1.1-4.9,0.5-4.9,0.5c-0.3,0.2-0.7,0.4-1,0.7c0,0,4.5-0.7,3.8,0.2c-0.6,1-4.9,0.5-4.9,0.5c-0.3,0.3-0.7,0.5-1,0.8
		c0,0,4.3-0.7,3.7,0.5c-0.7,1.3-5.6,0.7-5.6,0.7c-0.4,0.3-0.8,0.7-1.2,1c0,0,4.5-1.1,4.2,0.1c-0.3,1.2-5.6,1.3-5.6,1.3
		c-0.4,0.3-0.8,0.7-1.2,1c0,0,4.9-1.1,3.5,0.2c-1.5,1.4-5,1.4-5,1.4c-0.5,0.5-1,1-1.5,1.5c0,0,4.9-2.4,4.2-0.8
		c-0.7,1.6-5.5,2.1-5.5,2.1c-0.3,0.4-0.6,0.7-0.9,1.1c0,0,4.4-2,4-0.6c-0.4,1.4-5.1,2.3-5.1,2.3c-0.3,0.3-0.6,0.6-0.8,1
		c0,0,5.2-2.4,4.7-0.9c-0.4,1.5-5.3,2-5.3,2c-0.2,0.3-0.4,0.6-0.7,0.9c0,0,4.8-2.1,4.8-0.8c0.1,1.3-5.6,1.9-5.6,1.9
		C46.3,173.6,46.3,173.3,46.3,172.9z"/>
	<path fill="#F5CE30" d="M72.5,178c-0.3,0.2-0.5,0.3-0.8,0.5c0-0.1-6.5-15.1-24.2-28C49.7,152.1,61.6,159.4,72.5,178L72.5,178z"/>
	<path fill="#F5CE30" d="M71.6,178.9c0-0.1-0.1-0.2-0.1-0.3c-0.1-0.2-6.7-15.3-24.1-27.9c0.1,0,0.1,0,0.2,0c0,0,0-0.1,0-0.1
		c0-0.1,0.1-0.1,0.1-0.2c0,0,0.1,0.1,0.2,0.2l0,0c11.8,7.8,20,19.1,24.9,27.4C72.4,178.2,72,178.6,71.6,178.9
		C71.6,178.9,71.6,178.9,71.6,178.9z M64.7,166.8c4.4,5.7,6.7,10.2,7.2,11.3c0.2-0.1,0.4-0.2,0.6-0.3
		C70.4,174.6,67.8,170.7,64.7,166.8L64.7,166.8z"/>
	<path fill="#F5CE30" d="M70.9,175.4c0,0,2-4.1,0.2-6c-1.8-2-1,4.8-1,4.8c-0.3-0.4-0.5-0.8-0.8-1.2c0,0,1.3-5-0.1-6.2
		c-1.4-1.2-0.7,4.8-0.7,4.8c-0.3-0.4-0.5-0.7-0.8-1.1c0,0,0.9-4.9-0.4-5.9c-1.3-1-0.5,4.6-0.5,4.6c-0.3-0.4-0.7-0.8-1-1.2
		c0,0,0.7-4.7-0.9-5.9c-1.6-1.2-0.2,4.5-0.2,4.5c-0.3-0.4-0.7-0.8-1-1.2c0,0,0.5-4.3-0.9-5.4c-1.3-1.1-0.2,4.1-0.2,4.1
		c-0.3-0.4-0.6-0.7-0.9-1.1c0,0,0.3-4-1.1-5.1c-1.3-1.1,0,3.8,0,3.8c-0.4-0.4-0.7-0.7-1.1-1.1c0,0,0.3-4-1.4-5
		c-1.6-1,0.3,3.8,0.3,3.8c-0.4-0.4-0.7-0.7-1.1-1.1c0,0-0.4-4.8-1.8-5.4c-1.4-0.6,0.6,4.2,0.6,4.2c-0.3-0.3-0.7-0.6-1-0.9
		c0,0-0.5-4.1-2.1-4.7c-1.6-0.7,1,3.8,1,3.8c-0.3-0.3-0.7-0.6-1-0.9c0,0-1.1-4.2-2.6-4.8c-1.4-0.6,1.5,4,1.5,4
		c-0.3-0.3-0.6-0.5-1-0.8c0,0-1.6-3.8-2.9-4.3c-1.3-0.4,1.4,3.2,1.4,3.2c-0.4-0.3-0.8-0.6-1.2-0.9c0,0-2.1-4.1-2.8-3
		c-0.7,1.1,2.9,3.2,2.9,3.2c0.4,0.3,0.8,0.6,1.2,0.9c0,0-4.4-2.7-5-1.7c-0.6,1,6.1,2.5,6.1,2.5c0.3,0.3,0.7,0.6,1,0.9
		c0,0-4.4-1.7-3.9-0.6c0.5,1.2,4.9,1.5,4.9,1.5c0.4,0.3,0.7,0.6,1.1,0.9c0,0-4.4-1.6-3.9-0.5c0.6,1.1,4.9,1.5,4.9,1.5
		c0.3,0.3,0.7,0.7,1,1c0,0-4.3-1.6-3.7-0.2c0.6,1.4,5.5,1.8,5.5,1.8c0.4,0.4,0.8,0.9,1.3,1.3c0,0-4.6-2-4.2-0.8
		c0.4,1.3,5.6,2.4,5.6,2.4c0.4,0.4,0.8,0.8,1.2,1.3c0,0-4.9-2.1-3.4-0.5c1.4,1.6,5,2.4,5,2.4c0.5,0.6,0.9,1.2,1.4,1.8
		c0,0-4.8-3.3-4.2-1.6c0.7,1.7,5.4,3.2,5.4,3.2c0.3,0.4,0.7,0.8,1,1.3c0,0-4.4-2.9-4-1.4c0.4,1.4,5.1,3.3,5.1,3.3
		c0.3,0.4,0.5,0.8,0.8,1.1c0,0-5.2-3.5-4.7-1.9c0.5,1.6,5.3,3.1,5.3,3.1c0.2,0.3,0.4,0.7,0.7,1c0,0-4.8-3.1-4.8-1.8
		c-0.1,1.3,5.5,3.1,5.5,3C70.8,176.1,70.8,175.7,70.9,175.4z"/>
</g>
</svg>
