<?xml version="1.0" encoding="utf-8"?>
<!-- Generator: Adobe Illustrator 28.2.0, SVG Export Plug-In . SVG Version: 6.00 Build 0)  -->
<svg version="1.1" id="Ebene_1" xmlns="http://www.w3.org/2000/svg" xmlns:xlink="http://www.w3.org/1999/xlink" x="0px" y="0px"
	 viewBox="0 0 145.2 24" style="enable-background:new 0 0 145.2 24;" xml:space="preserve">
<style type="text/css">
	.st0{fill:none;stroke:#EA580C;stroke-width:1.5;stroke-linecap:round;stroke-linejoin:round;}
	.st1{fill:#9A3412;}
	.st2{fill:#FB923C;}
</style>
<g>
	<path class="st0" d="M15.5,20.7l4.9-2.4c0.4-0.2,0.6-0.6,0.6-1V4.8c0-0.8-0.9-1.4-1.6-1l-3.9,1.9c-0.3,0.2-0.7,0.2-1,0l-5-2.5
		c-0.3-0.2-0.7-0.2-1,0L3.6,5.7C3.2,5.9,3,6.3,3,6.7v12.5c0,0.8,0.9,1.4,1.6,1l3.9-1.9c0.3-0.2,0.7-0.2,1,0l5,2.5
		C14.8,20.9,15.2,20.9,15.5,20.7L15.5,20.7z"/>
	<path class="st1" d="M14.5,5.7l-5-2.5C9.3,3.2,9.1,3.1,8.9,3.1v15c0.2,0,0.4,0,0.6,0.1l5,2.5c0,0,0,0,0.1,0L14.5,5.7
		C14.5,5.8,14.5,5.8,14.5,5.7z"/>
	<path class="st0" d="M8.5,3.3L3.6,5.7C3.2,5.9,3,6.3,3,6.7v12.5c0,0.8,0.9,1.4,1.6,1l3.9-1.9c0.1-0.1,0.3-0.1,0.4-0.1v-15
		C8.8,3.1,8.6,3.2,8.5,3.3z"/>
	<path class="st0" d="M19.4,3.8l-3.9,1.9c-0.3,0.1-0.6,0.2-0.9,0v15c0.3,0.1,0.7,0.1,0.9,0v0l4.9-2.4c0.4-0.2,0.6-0.6,0.6-1V4.8
		C21,4,20.1,3.4,19.4,3.8z"/>
</g>
<path class="st2" d="M8.5,3.3L3.6,5.7C3.2,5.9,3,6.3,3,6.7v12.5c0,0.8,0.9,1.4,1.6,1l3.9-1.9c0.1-0.1,0.3-0.1,0.4-0.1v-15
	C8.8,3.1,8.6,3.2,8.5,3.3z"/>
<path class="st0" d="M14.5,5.7l-5-2.5C9.3,3.2,9.1,3.1,8.9,3.1v15c0.2,0,0.4,0,0.6,0.1l5,2.5c0.1,0.1,0.3,0.1,0.5,0.1v-15
	C14.8,5.9,14.6,5.8,14.5,5.7z"/>
<path class="st2" d="M19.4,3.8l-3.9,1.9c-0.2,0.1-0.4,0.1-0.5,0.1v15c0.2,0,0.4,0,0.5-0.1v0l4.9-2.4c0.4-0.2,0.6-0.6,0.6-1V4.8
	C21,4,20.1,3.4,19.4,3.8z"/>
<path class="st0" d="M15.5,20.7l4.9-2.4c0.4-0.2,0.6-0.6,0.6-1V4.8c0-0.8-0.9-1.4-1.6-1l-3.9,1.9c-0.3,0.2-0.7,0.2-1,0l-5-2.5
	c-0.3-0.2-0.7-0.2-1,0L3.6,5.7C3.2,5.9,3,6.3,3,6.7v12.5c0,0.8,0.9,1.4,1.6,1l3.9-1.9c0.3-0.2,0.7-0.2,1,0l5,2.5
	C14.8,20.9,15.2,20.9,15.5,20.7L15.5,20.7z"/>
<g>
	<path class="st1" d="M34.9,8.7c0.7,0,1.2,0.5,1.2,1.2c0,0.7-0.5,1.2-1.2,1.2h-2.3v6.2c0,0.7-0.5,1.2-1.2,1.2H29
		c-0.7,0-1.2-0.5-1.2-1.2V11h-1.2c-0.7,0-1.2-0.5-1.2-1.2c0-0.6,0.5-1.2,1.2-1.2H28c0.5-2,2.4-3.5,4.6-3.5h1.2
		c0.6,0,1.2,0.5,1.2,1.2c0,0.7-0.5,1.2-1.2,1.2h-0.6c-0.3,0-0.6,0.3-0.6,0.6v0.6H34.9z"/>
	<path class="st1" d="M43.7,16c0.7,0,1.2,0.5,1.2,1.2c0,0.7-0.5,1.2-1.2,1.2h-3.5c-1.3,0-2.4-1-2.4-2.3V6.3c0-0.6,0.5-1.2,1.2-1.2
		h2.3c0.7,0,1.2,0.5,1.2,1.2v9.1c0,0.3,0.3,0.6,0.6,0.6H43.7z"/>
	<path class="st1" d="M57.2,17.2c0,0.7-0.5,1.2-1.2,1.2h-7.3c-1.5,0-2.7-1.2-2.7-2.7c0-1.3,0.9-2.4,2.2-2.7l4.3-0.8v-0.5
		c0-0.3-0.3-0.6-0.6-0.6h-2.3c-0.7,0-1.2-0.5-1.2-1.2c0-0.6,0.5-1.2,1.2-1.2h5.3c1.3,0,2.3,1,2.3,2.3V17.2z M50.7,14.8v1.1
		c0,0.3,0.3,0.6,0.6,0.6h0.6c0.3,0,0.6-0.3,0.6-0.6v-2.2l-1.4,0.6C51,14.3,50.7,14.5,50.7,14.8z"/>
	<path class="st1" d="M71.3,17.2c0,2.6-2.1,4.7-4.7,4.7h-2.3c-0.7,0-1.2-0.5-1.2-1.2c0-0.7,0.5-1.2,1.2-1.2H66
		c0.3,0,0.6-0.3,0.6-0.6V17l-3.8,1.6c-0.3,0.1-0.6,0.2-0.9,0.2c-1.3,0-2.4-1.1-2.4-2.4v-3.1c0-2.6,2.1-4.7,4.7-4.7h5.9
		c0.7,0,1.2,0.5,1.2,1.2V17.2z M64.2,11.6c0,2.7,0,3.2,0,3.2c0,0.5,0.4,0.6,0.7,0.6l1.7-0.3V11h-1.8C64.5,11,64.2,11.3,64.2,11.6z"
		/>
	<path class="st1" d="M80.7,12c0.7,0,1.2,0.5,1.2,1.2c0,0.7-0.5,1.2-1.2,1.2h-5.9c-0.7,0-1.2-0.5-1.2-1.2c0-0.6,0.5-1.2,1.2-1.2
		H80.7z"/>
	<path class="st1" d="M84.3,6.2c0-0.8,1.1-1.5,2.5-1.5c1.4,0,2.5,0.7,2.5,1.5c0,0.8-1.1,1.5-2.5,1.5C85.5,7.6,84.3,7,84.3,6.2z
		 M88.2,8.7c0.7,0,1.2,0.5,1.2,1.2v7.3c0,0.7-0.5,1.2-1.2,1.2h-2.6c-0.7,0-1.2-0.5-1.2-1.2V9.8c0-0.6,0.5-1.2,1.2-1.2H88.2z"/>
	<path class="st1" d="M101.8,16c0.6,0,1.2,0.5,1.2,1.2c0,0.7-0.5,1.2-1.2,1.2h-5.3c-2.6,0-4.7-2.1-4.7-4.7V11c0-1.3,1.1-2.3,2.4-2.3
		h5.9c0.6,0,1.2,0.5,1.2,1.2c0,0.7-0.5,1.2-1.2,1.2h-3c-0.3,0-0.6,0.3-0.6,0.6v3.8c0,0.3,0.3,0.6,0.6,0.6H101.8z"/>
	<path class="st1" d="M113,8.7c1.9,0,3.5,1.6,3.5,3.5v2.6c0,2-1.6,3.5-3.5,3.5h-4.7c-1.9,0-3.5-1.6-3.5-3.5v-2.6
		c0-2,1.6-3.5,3.5-3.5H113z M111.8,11.6c0-0.3-0.3-0.6-0.6-0.6H110c-0.3,0-0.6,0.3-0.6,0.6v3.8c0,0.3,0.3,0.6,0.6,0.6h1.2
		c0.3,0,0.6-0.3,0.6-0.6V11.6z"/>
	<path class="st1" d="M130.6,10.6v6.6c0,0.7-0.5,1.2-1.2,1.2h-2.3c-0.7,0-1.2-0.5-1.2-1.2v-4.9c0-0.4-0.3-0.6-0.7-0.6l-1.7,0.3v5.2
		c0,0.7-0.5,1.2-1.2,1.2H120c-0.7,0-1.2-0.5-1.2-1.2V9.8c0-0.6,0.5-1.2,1.2-1.2h2.3c0.7,0,1.2,0.5,1.2,1.2V10l3.8-1.6
		c0.3-0.1,0.6-0.2,0.9-0.2C129.5,8.2,130.6,9.3,130.6,10.6z"/>
	<path class="st1" d="M142.1,14.3c0.4,0.4,0.7,1,0.7,1.7c0,1.3-1.1,2.3-2.4,2.3h-6.6c-0.7,0-1.2-0.5-1.2-1.2c0-0.7,0.5-1.2,1.2-1.2
		h2.8c0.1,0,0.3-0.1,0.3-0.3c0-0.1,0-0.2-0.1-0.2l-3.1-2.8c-0.4-0.4-0.7-1-0.7-1.6c0-1.3,1-2.4,2.3-2.4h5.8c0.6,0,1.2,0.5,1.2,1.2
		c0,0.7-0.5,1.2-1.2,1.2h-2.1c-0.2,0-0.3,0.1-0.3,0.3c0,0.1,0,0.2,0.1,0.2L142.1,14.3z"/>
</g>
</svg>
