<?xml version="1.0" encoding="utf-8"?>
<!-- Generator: Adobe Illustrator 28.2.0, SVG Export Plug-In . SVG Version: 6.00 Build 0)  -->
<svg version="1.1" id="ago" xmlns="http://www.w3.org/2000/svg" xmlns:xlink="http://www.w3.org/1999/xlink" x="0px" y="0px"
	 viewBox="0 0 480 320" enable-background="new 0 0 480 320" xml:space="preserve">
<path d="M0,0h480v320H0V0z"/>
<path fill="#CC092F" d="M0,0h480v160H0V0z"/>
<g id="crest">
	<path fill-rule="evenodd" clip-rule="evenodd" fill="#FFCB00" d="M208.5,109.8H228l5.9-18.4l6.1,18.4h19.5l-15.7,11.7l6.1,18.7
		l-16-11.4l-15.9,11.4l6.1-18.7L208.5,109.8z"/>
	<path fill-rule="evenodd" clip-rule="evenodd" fill="#FFCB00" d="M279.9,210.5l-15.4-12c15.5-12.7,25.6-32,25.6-53.7
		c0-33-23.5-60.7-54.6-67.3l2.4-11.2c4.3,1,9.4,2.8,13.6,4.2l4-6.7c4.3,2.1,9.1,4.2,13.1,6.7l-3,7.2c4,2.6,8.8,6.5,11.5,9.7l6-4.7
		c3.2,3.5,7,7.2,9.8,11.1l-5.4,5.6c3.5,5.2,4.9,7.5,7.5,13.5l7.6-1.8c1.4,4.5,3.6,10,4.4,14.6l-7.2,2.8c0.9,3.6,2,9.9,1.9,15.2
		c0,0.3,0,0.7,0,1l7.6,1.1c-0.3,4.6-0.5,9.9-1.4,14.6h-7.8c-1.1,4.8-2.6,10.7-4.3,15.2l6.6,3.8c-2.1,4.2-4.2,9.1-6.9,13.1l-7.2-3
		c-2.7,4-5.8,7.8-9.1,11.4l4.6,6.1C282.3,208.1,281.2,209.2,279.9,210.5 M246.1,209.1l11.6,7c-1.1,1-4.3,2.7-5.2,3l1.9,7.3
		c-4.5,1.4-9.3,3.5-14.3,4.5l-2.9-7.2c-4.6,1-9.3,1.6-14.1,1.6l-1,7.5c-4.5-0.3-9.9,0-14.9-1.1v-7.5c-4.5-0.8-8.8-1.9-13-3.4
		l-3.7,6.6c-3.8-1.6-9-3.5-13.1-6.1l2.7-7.2c-3.4-1.8-6.4-4-9.3-6.3l7.2-9.1c11.9,9.5,26.7,15.1,43.1,15.1
		C229.9,213.7,238.4,212.3,246.1,209.1"/>
	<path fill-rule="evenodd" clip-rule="evenodd" fill="#FFCB00" d="M294.5,227.6l-76.7-58.3l-0.7,1l76.5,58.4l-4.5,5.7l-74.5-47.8
		c-20.2-12.7-19.4-22.6-15.2-33.3l3.5-8.6c1.9,11.2,13.5,19.7,25.5,29.2l67.7,52L294.5,227.6z M313.7,245c-0.7,0-1.2-0.5-1.2-1.2
		c0,0,0,0,0,0c0-0.7,0.5-1.2,1.2-1.2c0,0,0,0,0,0c0.7,0,1.2,0.5,1.2,1.2C314.9,244.5,314.4,245,313.7,245
		C313.7,245,313.7,245,313.7,245 M309.2,241.7c-0.7,0-1.2-0.5-1.2-1.2c0-0.7,0.5-1.2,1.2-1.2c0.7,0,1.2,0.5,1.2,1.2
		C310.4,241.1,309.8,241.7,309.2,241.7L309.2,241.7 M304.5,237.9c-0.7,0-1.2-0.5-1.2-1.2c0-0.7,0.6-1.2,1.2-1.2
		c0.6,0,1.1,0.5,1.2,1.2C305.7,237.4,305.1,237.9,304.5,237.9 M320.2,244.5l-23-17.8l-6.7,8.6l20,14c1.6,1.1,1.8,6.2,7.7,7.1
		c2.4,0.3,4-1.4,4-1.4C324.8,251.8,324.1,247.5,320.2,244.5"/>
</g>
</svg>
