<?xml version="1.0" encoding="utf-8"?>
<!-- Generator: Adobe Illustrator 28.2.0, SVG Export Plug-In . SVG Version: 6.00 Build 0)  -->
<svg version="1.1" baseProfile="tiny" id="aia" xmlns="http://www.w3.org/2000/svg" xmlns:xlink="http://www.w3.org/1999/xlink"
	 x="0px" y="0px" viewBox="0 0 1200 600" overflow="visible" xml:space="preserve">
<g id="flag-aia">
	<path fill="#012169" d="M0,0h1200v600H0V0z"/>
	<g id="symbol">
		<path stroke="#FFFFFF" stroke-width="60" d="M0,0l600,300 M600,0L0,300"/>
		<path fill="none" d="M0,0v150h700v150H600L0,0z M600,0H300v350H0v-50L600,0z"/>
		<path stroke="#C8102E" stroke-width="40" d="M0,0l600,300 M600,0L0,300"/>
		<path stroke="#FFFFFF" stroke-width="100" d="M300,0v350 M0,150h700"/>
		<path stroke="#C8102E" stroke-width="60" d="M300,0v350 M0,150h700"/>
		<path fill="#012169" d="M0,300h600V0h200v400H0V300z"/>
	</g>
	<g id="crest">
		<path fill="#FFFFFF" d="M784.8,156c0,151,17.5,203,52.6,238.1c20.9,20.8,30.2,28.6,62.6,49.9c32.5-21.3,41.7-29.1,62.6-49.9
			c35.1-35.1,52.6-87.1,52.6-238.1c-25.5,10.9-40,16.2-61.1,15.9c-18.8-0.3-38.7-9-54.1-15.9c-15.4,6.9-35.3,15.6-54.1,15.9
			C824.8,172.2,810.3,166.9,784.8,156L784.8,156z"/>
		<path fill="#FF9900" d="M903.6,231.6c5.4,12.1,22.8,25.5,27.5,32.1c-6.1,6.6-7.3,5.9-6.5,18.1c10.6-10.5,10.7-11.6,17.5-10
			c14.9,14.2,2.7,44.6-9.6,51.2c-12.3,7.1-10.1-0.2-28.5,8.6c8.4,6.9,18.2-1,26.2,1.1c4.3,4.9-2.1,13.9,1.3,22.3
			c7.1-0.6,6.2-14.3,7.9-19.2c5.2-18.1,36.2-30.7,37.8-47.3c6.5-2.9,13.1-0.9,21.1,3.3c-4-15.5-17.1-15.4-20.6-20.2
			c-8.4-12.2-15.8-26.1-33.7-29.7c-13.6-2.7-12.6,0.8-21.2-4.8C917.5,233,901,225.4,903.6,231.6L903.6,231.6z"/>
		<ellipse fill="#FFFFFF" cx="939.8" cy="245.4" rx="2.8" ry="2.7"/>
		<path fill="#FF9900" d="M860.3,283.1c8.7-10.2,13.1-31.1,16.9-38.2c8.9,2.1,8.8,3.4,19.8-3c-14.7-4-15.8-3.6-17.5-10.1
			c6.2-19.2,40.1-23.1,52-15.8c12.3,7.1,4.5,8.6,21.3,20c2.4-10.3-9.5-14.9-11.2-22.6c2.5-6,13.8-4.7,20.1-11.5
			c-3.9-5.7-16.1,1.4-21.5,2.3c-19.2,4.1-45.4-16.2-61.5-9.8c-5.8-4.1-7-10.6-6.7-19.3c-12.6,10.6-6.3,21.6-9.1,26.8
			c-7.4,12.7-16.8,25.5-11.8,42.2c3.8,12.7,6.6,10.2,5.4,20.2C855.1,270.8,855.8,288.2,860.3,283.1L860.3,283.1z"/>
		<ellipse fill="#FFFFFF" cx="856.2" cy="246.1" rx="2.8" ry="2.7"/>
		<path fill="#FF9900" d="M931.2,290.3c-13.7-1.8-34.7,5.5-43.1,6c-2.8-8.3-1.5-9-12.9-14.6c4,14.1,4.9,14.8,0,19.5
			c-20.4,4.9-41.4-20.8-41-34.2c0-13.7,5.4-8.1,6.9-27.7c-10.5,3.4-8.5,15.4-14.5,20.9c-6.7,1-11.4-8.8-20.7-10.4
			c-3.1,6.1,9.6,12.4,13.2,16.3c13.6,13.5,8.9,45.4,23,55.2c-0.7,6.9-5.9,11.2-13.8,15.5c16,4.8,22.6-6,28.8-6.4
			c15.3-0.6,31.6,0.5,44-12.2c9.5-9.7,5.7-10.7,15.3-14.9C922.8,300.9,938.1,291.3,931.2,290.3L931.2,290.3z"/>
		<ellipse fill="#FFFFFF" cx="900.1" cy="312.8" rx="2.8" ry="2.7"/>
		<path fill="#99CCFF" d="M813.7,362.1c6.7,12.8,14.6,23,23.7,32c20.9,20.8,30.2,28.6,62.6,49.9c32.5-21.3,41.7-29.1,62.6-49.9
			c9.1-9.1,16.9-19.3,23.7-32H813.7z"/>
		<path fill="#FDC301" d="M780,150c0,157.3,18.2,211.5,54.8,248c21.8,21.6,31.4,29.8,65.2,52c33.8-22.2,43.5-30.4,65.2-52
			c36.5-36.5,54.8-90.7,54.8-248c-26.6,11.4-41.7,16.9-63.6,16.5c-19.6-0.3-40.4-9.4-56.4-16.5c-16.1,7.1-36.8,16.2-56.4,16.5
			C821.7,166.9,806.6,161.4,780,150z M900,159.1c15.7,7,35.6,15.6,56.3,15.9c19.3,0.3,35.3-4.8,54.9-12.7
			c-0.5,70.5-4.7,120.7-13,155.1c-8.9,36.6-21.6,57.5-38.8,74.7c-20.3,20.1-30.6,28.6-59.3,47.7c-28.7-19.1-39.1-27.5-59.3-47.7l0,0
			c0,0,0,0,0,0c-17.3-17.3-30-38.1-38.8-74.7c-8.3-34.4-12.5-84.6-13-155.1c19.7,7.9,35.6,13,54.9,12.7
			C864.5,174.6,884.3,166,900,159.1z"/>
	</g>
</g>
</svg>
