<?xml version="1.0" encoding="utf-8"?>
<!-- Generator: Adobe Illustrator 28.2.0, SVG Export Plug-In . SVG Version: 6.00 Build 0)  -->
<svg version="1.1" id="aia" xmlns="http://www.w3.org/2000/svg" xmlns:xlink="http://www.w3.org/1999/xlink" x="0px" y="0px"
	 viewBox="0 0 480 320" enable-background="new 0 0 480 320" xml:space="preserve">
<path fill="#012169" d="M0.5,0.2h480.9v320.3H0.5V0.2z"/>
<g id="symbol">
	<line x1="5.5" y1="11.2" x2="228" y2="122.5"/>
	
		<rect x="105" y="-57.5" transform="matrix(0.4472 -0.8944 0.8944 0.4472 4.7356 141.4257)" fill="#FFFFFF" width="23.5" height="248.8"/>
	<line x1="219" y1="10.4" x2="4.9" y2="122.5"/>
	<polygon fill="#FFFFFF" points="10.2,133.1 -0.4,111.9 213.7,-0.2 224.3,21 	"/>
	<polygon fill="none" points="-2,15.9 -2,66.9 235.7,66.9 235.7,97.8 201.7,117.8 	"/>
	<polygon fill="none" points="222.4,8.2 111.2,3.1 111.2,133.1 10.1,112.8 10.1,115 	"/>
	<line x1="5.5" y1="11.2" x2="228" y2="122.5"/>
	
		<rect x="109.4" y="-57.5" transform="matrix(0.4472 -0.8944 0.8944 0.4472 4.7354 141.4256)" fill="#C8102E" width="14.8" height="248.8"/>
	<line x1="228" y1="11.4" x2="11.4" y2="124.7"/>
	<polygon fill="#C8102E" points="8.2,129.2 1.5,115.9 215.7,3.7 222.4,17.1 	"/>
	<line x1="115.8" y1="-1.7" x2="115.8" y2="133"/>
	<rect x="95.5" y="-1.7" fill="#FFFFFF" width="40.7" height="134.7"/>
	<line x1="0" y1="66.9" x2="237.7" y2="66.9"/>
	<rect x="0" y="48.9" fill="#FFFFFF" width="237.7" height="35.9"/>
	<line x1="115.8" y1="-1.7" x2="115.8" y2="133"/>
	<rect x="104.3" y="-1.7" fill="#C8102E" width="23.1" height="134.7"/>
	<line x1="0" y1="66.9" x2="237.7" y2="66.9"/>
	<rect x="0" y="56.1" fill="#C8102E" width="237.7" height="21.5"/>
</g>
<g id="crest">
	<path fill="#FFFFFF" d="M324.2,116.6c0,42.2,5.6,56.7,16.9,66.5c6.7,5.8,9.7,8,20.1,13.9c10.4-6,13.4-8.1,20.1-13.9
		c11.3-9.8,16.9-24.3,16.9-66.5c-8.2,3-12.8,4.5-19.6,4.4c-6-0.1-12.4-2.5-17.4-4.4c-4.9,1.9-11.3,4.4-17.4,4.4
		C337,121.1,332.4,119.6,324.2,116.6L324.2,116.6z"/>
	<path fill="#FF9900" d="M362.3,137.7c1.7,3.4,7.3,7.1,8.8,9c-1.9,1.8-2.3,1.6-2.1,5c3.4-2.9,3.5-3.2,5.6-2.8
		c4.8,4,0.9,12.4-3.1,14.3c-3.9,2-3.2-0.1-9.1,2.4c2.7,1.9,5.9-0.3,8.4,0.3c1.4,1.4-0.7,3.9,0.4,6.2c2.3-0.2,2-4,2.5-5.4
		c1.7-5,11.6-8.6,12.1-13.2c2.1-0.8,4.2-0.3,6.8,0.9c-1.3-4.3-5.5-4.3-6.6-5.6c-2.7-3.4-5.1-7.3-10.8-8.3c-4.4-0.8-4,0.2-6.8-1.3
		C366.8,138.1,361.5,135.9,362.3,137.7L362.3,137.7z"/>
	<ellipse fill="#FFFFFF" cx="373.9" cy="141.5" rx="0.9" ry="0.8"/>
	<path fill="#FF9900" d="M348.4,152c2.8-2.9,4.2-8.7,5.4-10.7c2.9,0.6,2.8,1,6.3-0.8c-4.7-1.1-5.1-1-5.6-2.8
		c2-5.3,12.9-6.4,16.7-4.4c3.9,2,1.4,2.4,6.8,5.6c0.8-2.9-3-4.2-3.6-6.3c0.8-1.7,4.4-1.3,6.4-3.2c-1.3-1.6-5.2,0.4-6.9,0.7
		c-6.2,1.1-14.6-4.5-19.7-2.7c-1.9-1.2-2.2-3-2.2-5.4c-4,3-2,6-2.9,7.5c-2.4,3.6-5.4,7.1-3.8,11.8c1.2,3.5,2.1,2.8,1.7,5.6
		C346.8,148.6,347,153.5,348.4,152L348.4,152z"/>
	<ellipse fill="#FFFFFF" cx="347.1" cy="141.7" rx="0.9" ry="0.8"/>
	<path fill="#FF9900" d="M371.2,154c-4.4-0.5-11.1,1.5-13.8,1.7c-0.9-2.3-0.5-2.5-4.1-4.1c1.3,3.9,1.6,4.1,0,5.4
		c-6.5,1.4-13.3-5.8-13.2-9.6c0-3.8,1.7-2.3,2.2-7.7c-3.4,0.9-2.7,4.3-4.7,5.8c-2.1,0.3-3.7-2.5-6.7-2.9c-1,1.7,3.1,3.5,4.2,4.6
		c4.4,3.8,2.9,12.7,7.4,15.4c-0.2,1.9-1.9,3.1-4.4,4.3c5.1,1.3,7.3-1.7,9.2-1.8c4.9-0.2,10.1,0.2,14.1-3.4c3-2.7,1.8-3,4.9-4.2
		C368.5,157,373.4,154.3,371.2,154L371.2,154z"/>
	<ellipse fill="#FFFFFF" cx="361.2" cy="160.3" rx="0.9" ry="0.8"/>
	<path fill="#99CCFF" d="M333.5,174.1c2.2,3.6,4.7,6.4,7.6,8.9c6.7,5.8,9.7,8,20.1,13.9c10.4-6,13.4-8.1,20.1-13.9
		c2.9-2.5,5.4-5.4,7.6-8.9H333.5z"/>
	<path fill="#FDC301" d="M322.6,114.9c0,43.9,5.9,59,17.6,69.2c7,6,10.1,8.3,20.9,14.5c10.9-6.2,14-8.5,20.9-14.5
		c11.7-10.2,17.6-25.3,17.6-69.2c-8.5,3.2-13.4,4.7-20.4,4.6c-6.3-0.1-13-2.6-18.1-4.6c-5.2,2-11.8,4.5-18.1,4.6
		C336,119.6,331.2,118.1,322.6,114.9z M361.2,117.4c5,1.9,11.4,4.3,18.1,4.4c6.2,0.1,11.3-1.3,17.6-3.5c-0.2,19.7-1.5,33.7-4.2,43.3
		c-2.8,10.2-6.9,16-12.5,20.9c-6.5,5.6-9.8,8-19,13.3c-9.2-5.3-12.5-7.7-19-13.3l0,0c0,0,0,0,0,0c-5.5-4.8-9.6-10.6-12.5-20.9
		c-2.7-9.6-4-23.6-4.2-43.3c6.3,2.2,11.4,3.6,17.6,3.5C349.8,121.8,356.1,119.4,361.2,117.4z"/>
</g>
</svg>
