<?xml version="1.0" encoding="utf-8"?>
<!-- Generator: Adobe Illustrator 28.2.0, SVG Export Plug-In . SVG Version: 6.00 Build 0)  -->
<svg version="1.1" id="Ebene_1" xmlns="http://www.w3.org/2000/svg" xmlns:xlink="http://www.w3.org/1999/xlink" x="0px" y="0px"
	 viewBox="0 0 480 320" enable-background="new 0 0 480 320" xml:space="preserve">
<rect fill="#74ACDF" width="481" height="320"/>
<rect y="106.7" fill="#FFFFFF" width="481" height="106.7"/>
<g>
	<g>
		<path id="ray1" fill="#F6B40E" stroke="#85340A" stroke-width="1.1116" d="M238.3,159.4l21.1,46c0,0,0.4,0.9,0.9,0.6
			c0.6-0.2,0.2-1.1,0.2-1.1L243,157.4 M242.5,175.3c-0.3,7,4,10.8,3.5,17.1c-0.6,6.2,2.9,9.8,3.7,12.2c0.8,2.4-0.9,3.9-0.1,4.2
			c0.7,0.3,2.3-1.6,1.8-5s-3.1-4.5-2.5-12.1c0.6-7.6-3.1-9.4-2.2-16.4"/>
		<path id="ray1_00000135667324326559726350000009184025884470145167_" fill="#F6B40E" stroke="#85340A" stroke-width="1.1116" d="
			M238.1,158.4L240,209c0,0,0,1,0.6,1c0.6,0,0.6-1,0.6-1l1.9-50.6 M235.9,174.7c-2.9,6.4-0.4,11.6-3.3,17.1
			c-2.9,5.6-1.1,10.1-1.3,12.7c-0.2,2.5-2.3,3.3-1.8,3.8c0.5,0.6,2.7-0.6,3.6-4c0.9-3.4-1.2-5.3,2.3-12.1c3.5-6.8,0.7-9.9,4.2-16"/>
		<path id="ray1_00000094615115835951934770000007873117958794557087_" fill="#F6B40E" stroke="#85340A" stroke-width="1.1116" d="
			M238.3,157.4l-17.6,47.4c0,0-0.4,0.9,0.2,1.1c0.6,0.2,0.9-0.6,0.9-0.6l21.1-46 M230,171.7c-5.1,4.8-4.8,10.5-9.6,14.5
			c-4.8,4-4.9,8.9-6,11.2c-1.2,2.3-3.4,2.1-3.1,2.9c0.3,0.7,2.7,0.5,4.8-2.3c2.1-2.8,1-5.4,6.8-10.3c5.8-5,4.4-8.9,10-13.1"/>
		<path id="ray1_00000042696760414950213820000006954366503290956965_" fill="#F6B40E" stroke="#85340A" stroke-width="1.1116" d="
			M238.9,156.6l-34.4,37.1c0,0-0.7,0.7-0.2,1.1c0.4,0.4,1.1-0.2,1.1-0.2l37.1-34.4 M225.7,166.6c-6.6,2.4-8.5,7.9-14.5,9.8
			c-6,1.9-7.9,6.4-9.9,8.1c-1.9,1.7-3.9,0.7-4,1.5c0,0.8,2.3,1.5,5.3-0.3c3-1.8,2.9-4.6,10.2-7c7.3-2.4,7.5-6.5,14.3-8.3"/>
		<path id="ray2" fill="#85340A" d="M243.9,176.5c0.3,6.7,4.1,9.7,3.4,15.8c1.6-4.8-2.3-8.6-2.1-15.7 M239.5,159l14.5,31.6
			L241.8,158"/>
		<path id="ray2_00000086671509728030091900000012554615684526656411_" fill="#85340A" d="M236.7,176.4c-2.3,6.3,0.1,10.5-2.9,15.9
			c3.4-3.8,1.1-8.8,4.1-15.3 M239.4,158.5l1.3,34.7l1.3-34.7"/>
		<path id="ray2_00000044170899776078204110000002704186139114020482_" fill="#85340A" d="M230.1,173.5c-4.5,5-3.9,9.8-8.8,13.6
			c4.6-2.3,4.4-7.7,9.7-12.6 M239.4,158l-12.1,32.6l14.5-31.6"/>
		<path id="ray2_00000100350774626873726580000012676452090894175918_" fill="#85340A" d="M225.2,168.3c-6.1,2.9-7.4,7.5-13.3,9.2
			c5.1-0.3,7.1-5.4,13.7-8 M239.7,157.5L216.1,183l25.4-23.7"/>
		<path id="ray1_00000040562768991767428610000013822234236293028486_" fill="#F6B40E" stroke="#85340A" stroke-width="1.1116" d="
			M238.4,156.6l-46,21.1c0,0-0.9,0.4-0.6,0.9c0.2,0.6,1.1,0.2,1.1,0.2l47.4-17.6 M222.4,160.7c-7-0.3-10.8,4-17.1,3.5
			c-6.2-0.6-9.8,2.9-12.2,3.7c-2.4,0.8-3.9-0.9-4.2-0.1c-0.3,0.7,1.6,2.3,5,1.8c3.5-0.5,4.5-3.1,12.1-2.5c7.6,0.6,9.4-3.1,16.4-2.2"
			/>
		<path id="ray1_00000093137225676176531180000017712751218645877945_" fill="#F6B40E" stroke="#85340A" stroke-width="1.1116" d="
			M239.3,156.4l-50.6,1.9c0,0-1,0-1,0.6c0,0.6,1,0.6,1,0.6l50.6,1.9 M223,154.1c-6.4-2.9-11.6-0.4-17.1-3.3
			c-5.6-2.9-10.1-1.1-12.7-1.3c-2.5-0.2-3.3-2.3-3.8-1.8c-0.6,0.5,0.6,2.7,4,3.6c3.4,0.9,5.3-1.2,12.1,2.3c6.8,3.5,9.9,0.7,16,4.2"
			/>
		<path id="ray1_00000006707528814697161460000007497820933470387877_" fill="#F6B40E" stroke="#85340A" stroke-width="1.1116" d="
			M240.3,156.6L192.9,139c0,0-0.9-0.4-1.1,0.2c-0.2,0.6,0.6,0.9,0.6,0.9l46,21.1 M226.1,148.2c-4.8-5.1-10.5-4.8-14.5-9.6
			c-4-4.8-8.9-4.9-11.2-6c-2.3-1.2-2.1-3.4-2.9-3.1c-0.7,0.3-0.5,2.7,2.3,4.8s5.4,1,10.3,6.8c5,5.8,8.9,4.4,13.1,10"/>
		<path id="ray1_00000103235524563517977970000001064172928421976216_" fill="#F6B40E" stroke="#85340A" stroke-width="1.1116" d="
			M241.1,157.1L204,122.7c0,0-0.7-0.7-1.1-0.2c-0.4,0.4,0.2,1.1,0.2,1.1l34.4,37.1 M231.2,144c-2.4-6.6-7.9-8.5-9.8-14.5
			c-1.9-6-6.4-7.9-8.1-9.9c-1.7-1.9-0.7-3.9-1.5-4c-0.8,0-1.5,2.3,0.3,5.3c1.8,3,4.6,2.9,7,10.2c2.4,7.3,6.5,7.5,8.3,14.3"/>
		<path id="ray2_00000133513131204331744150000006705304566779429255_" fill="#85340A" d="M221.2,162.1c-6.7,0.3-9.7,4.1-15.8,3.4
			c4.8,1.6,8.6-2.3,15.7-2.1 M238.8,157.7l-31.6,14.5l32.6-12.1"/>
		<path id="ray2_00000036941686695226547020000018236740970507010965_" fill="#85340A" d="M221.4,154.9c-6.3-2.3-10.5,0.1-15.9-2.9
			c3.8,3.4,8.8,1.1,15.3,4.1 M239.3,157.6l-34.7,1.3l34.7,1.3"/>
		<path id="ray2_00000075124830956121935630000000075879011027726977_" fill="#85340A" d="M224.3,148.4c-5-4.5-9.8-3.9-13.6-8.8
			c2.3,4.6,7.7,4.4,12.6,9.7 M239.8,157.7l-32.6-12.1l31.6,14.5"/>
		<path id="ray2_00000022540598075191989430000015546032899228715648_" fill="#85340A" d="M229.4,143.4c-2.9-6.1-7.5-7.4-9.2-13.3
			c0.3,5.1,5.4,7.1,8,13.7 M240.2,157.9l-25.4-23.6l23.7,25.4"/>
		<path id="ray1_00000088108107016041446220000015793983669671295653_" fill="#F6B40E" stroke="#85340A" stroke-width="1.1116" d="
			M244,160.6l-21.1-46c0,0-0.4-0.9-0.9-0.6c-0.6,0.2-0.2,1.1-0.2,1.1l17.6,47.4 M239.8,144.7c0.3-7-4-10.8-3.5-17.1
			c0.6-6.2-2.9-9.8-3.7-12.2c-0.8-2.4,0.9-3.9,0.1-4.2c-0.7-0.3-2.3,1.6-1.8,5c0.5,3.5,3.1,4.5,2.5,12.1c-0.6,7.6,3.1,9.4,2.2,16.4"
			/>
		<path id="ray1_00000062189570603315564450000006107505946508472989_" fill="#F6B40E" stroke="#85340A" stroke-width="1.1116" d="
			M244.2,161.6l-1.9-50.6c0,0,0-1-0.6-1c-0.6,0-0.6,1-0.6,1l-1.9,50.6 M246.5,145.3c2.9-6.4,0.4-11.6,3.3-17.1
			c2.9-5.6,1.1-10.1,1.3-12.7c0.2-2.5,2.3-3.3,1.8-3.8c-0.5-0.6-2.7,0.6-3.6,4c-0.9,3.4,1.2,5.3-2.3,12.1c-3.5,6.8-0.7,9.9-4.2,16"
			/>
		<path id="ray1_00000146466269633338553830000000146671393445543313_" fill="#F6B40E" stroke="#85340A" stroke-width="1.1116" d="
			M244,162.6l17.6-47.4c0,0,0.4-0.9-0.2-1.1c-0.6-0.2-0.9,0.6-0.9,0.6l-21.1,46 M252.3,148.3c5.1-4.8,4.8-10.5,9.6-14.5
			c4.8-4,4.9-8.9,6-11.2c1.2-2.3,3.4-2.1,3.1-2.9c-0.3-0.7-2.7-0.5-4.8,2.3c-2.1,2.8-1,5.4-6.8,10.3c-5.8,5-4.4,8.9-10,13.1"/>
		<path id="ray1_00000044168517187929790680000004617322804409017511_" fill="#F6B40E" stroke="#85340A" stroke-width="1.1116" d="
			M243.5,163.4l34.4-37.1c0,0,0.7-0.7,0.2-1.1c-0.4-0.4-1.1,0.2-1.1,0.2l-37.1,34.4 M256.6,153.4c6.6-2.4,8.5-7.9,14.5-9.8
			c6-1.9,7.9-6.4,9.9-8.1c1.9-1.7,3.9-0.7,4-1.5c0-0.8-2.3-1.5-5.3,0.3c-3,1.8-2.9,4.6-10.2,7c-7.3,2.4-7.5,6.5-14.3,8.3"/>
		<path id="ray2_00000093178227813288097500000012583303746903350196_" fill="#85340A" d="M238.5,143.5c-0.3-6.7-4.1-9.7-3.4-15.8
			c-1.6,4.8,2.3,8.6,2.1,15.7 M242.8,161l-14.5-31.6l12.1,32.6"/>
		<path id="ray2_00000177484007604451537030000006535115607528278964_" fill="#85340A" d="M245.6,143.6c2.3-6.3-0.1-10.5,2.9-15.9
			c-3.4,3.8-1.1,8.8-4.1,15.3 M243,161.5l-1.3-34.7l-1.3,34.7"/>
		<path id="ray2_00000012458031499540446360000015225890702773653176_" fill="#85340A" d="M252.2,146.5c4.5-5,3.9-9.8,8.8-13.6
			c-4.6,2.3-4.4,7.7-9.7,12.6 M242.9,162l12.1-32.6l-14.5,31.6"/>
		<path id="ray2_00000088836774724325559110000010355052965118309559_" fill="#85340A" d="M257.2,151.7c6.1-2.9,7.4-7.5,13.3-9.2
			c-5.1,0.3-7.1,5.4-13.7,8 M242.6,162.5l23.6-25.4l-25.4,23.7"/>
		<path id="ray1_00000073685189157126379270000008291109770462426520_" fill="#F6B40E" stroke="#85340A" stroke-width="1.1116" d="
			M241.6,162.2l46-21.1c0,0,0.9-0.4,0.6-0.9c-0.2-0.6-1.1-0.2-1.1-0.2l-47.4,17.6 M257.6,158c7,0.3,10.8-4,17.1-3.5
			c6.2,0.6,9.8-2.9,12.2-3.7c2.4-0.8,3.9,0.9,4.2,0.1c0.3-0.7-1.6-2.3-5-1.8c-3.5,0.5-4.5,3.1-12.1,2.5c-7.6-0.6-9.4,3.1-16.4,2.2"
			/>
		<path id="ray1_00000033331994684903943320000000295117125691205302_" fill="#F6B40E" stroke="#85340A" stroke-width="1.1116" d="
			M240.7,162.4l50.6-1.9c0,0,1,0,1-0.6c0-0.6-1-0.6-1-0.6l-50.6-1.9 M257,164.7c6.4,2.9,11.6,0.4,17.1,3.3
			c5.6,2.9,10.1,1.1,12.7,1.3c2.5,0.2,3.3,2.3,3.8,1.8c0.6-0.5-0.6-2.7-4-3.6c-3.4-0.9-5.3,1.2-12.1-2.3c-6.8-3.5-9.9-0.7-16-4.2"/>
		<path id="ray1_00000165230670297184804980000012294250638712471704_" fill="#F6B40E" stroke="#85340A" stroke-width="1.1116" d="
			M239.7,162.2l47.4,17.6c0,0,0.9,0.4,1.1-0.2c0.2-0.6-0.6-0.9-0.6-0.9l-46-21.1 M253.9,170.5c4.8,5.1,10.5,4.8,14.5,9.6
			c4,4.8,8.9,4.9,11.2,6c2.3,1.2,2.1,3.4,2.9,3.1c0.7-0.3,0.5-2.7-2.3-4.8c-2.8-2.1-5.4-1-10.3-6.8c-5-5.8-8.9-4.4-13.1-10"/>
		<path id="ray1_00000056416399900276649670000015305268928443304854_" fill="#F6B40E" stroke="#85340A" stroke-width="1.1116" d="
			M238.9,161.7l37.1,34.4c0,0,0.7,0.7,1.1,0.2c0.4-0.4-0.2-1.1-0.2-1.1l-34.4-37.1 M248.8,174.8c2.4,6.6,7.9,8.5,9.8,14.5
			c1.9,6,6.4,7.9,8.1,9.9c1.7,1.9,0.7,3.9,1.5,4c0.8,0,1.5-2.3-0.3-5.3c-1.8-3-4.6-2.9-7-10.2c-2.4-7.3-6.5-7.5-8.3-14.3"/>
		<path id="ray2_00000080895765452370829530000017366693465061379734_" fill="#85340A" d="M258.8,156.7c6.7-0.3,9.7-4.1,15.8-3.4
			c-4.8-1.6-8.6,2.3-15.7,2.1 M241.2,161l31.6-14.5l-32.6,12.1"/>
		<path id="ray2_00000138574003895690319240000015907990230151427485_" fill="#85340A" d="M258.6,163.9c6.3,2.3,10.5-0.1,15.9,2.9
			c-3.8-3.4-8.8-1.1-15.3-4.1 M240.7,161.2l34.7-1.3l-34.7-1.3"/>
		<path id="ray2_00000018941162925125381050000007300909139068424380_" fill="#85340A" d="M255.7,170.4c5,4.5,9.8,3.9,13.6,8.8
			c-2.3-4.6-7.7-4.4-12.6-9.7 M240.2,161.1l32.6,12.1l-31.6-14.5"/>
		<path id="ray2_00000148624984525648772680000007413120322537780662_" fill="#85340A" d="M250.6,175.4c2.9,6.1,7.5,7.4,9.2,13.3
			c-0.3-5.1-5.4-7.1-8-13.7 M239.8,160.8l25.4,23.6L241.6,159"/>
	</g>
	<circle fill="#F6B40E" stroke="#85340A" stroke-width="1.5" cx="239.2" cy="158.6" r="20.6"/>
	<path id="loweyecontour" fill="#843511" d="M246.2,154.2c-1.4,0-2.8,0.6-3.5,1.9c1.6,1.4,5.1,1.6,7.5-0.2
		C249.1,154.8,247.6,154.2,246.2,154.2L246.2,154.2z M246.2,154.5c1.4,0,2.6,0.6,2.8,1.2c-1.6,1.7-4.1,1.6-5.7,0.3
		C244,155,245.1,154.6,246.2,154.5L246.2,154.5z"/>
	<g transform="matrix(-1 0 0 1 800.25 0)">
		<path id="uppalpebra" fill="#85340A" d="M246.5,153.2c-2.1,0-2.5,0.5-3.5,1.3c-1,0.8-1.4,0.6-1.6,0.8c-0.2,0.2,0,0.6,0.3,0.5
			c0.3-0.2,1-0.5,1.9-1.3c1-0.8,1.9-0.8,2.9-0.8c2.9,0,4.4,2.4,4.8,2.2C251.5,155.8,249.6,153.2,246.5,153.2L246.5,153.2z"/>
	</g>
	<g transform="matrix(-1 0 0 1 800.25 0)">
		<path id="eyebrow_nose" fill="#85340A" d="M252.2,154.2c-3.6-3.2-8.2-3.6-10.8-1.3c-0.6,0.8-1,1.7-1.2,2.6
			c-0.3,1.8,0.2,3.8,1.7,5.8c-0.2,0-0.5,0.2-0.6,0.3c-1.3-2.4-1.7-4.9-1.3-7.2c0.1-0.6,0.3-1.2,0.5-1.8
			C243.9,149.8,248.7,149.4,252.2,154.2L252.2,154.2z"/>
	</g>
	<g transform="translate(18.862)">
		<circle id="pupil" fill="#85340A" cx="246.1" cy="155.8" r="1.4"/>
	</g>
	<g transform="matrix(-1 0 0 1 800.25 0)">
		<path id="lowpalpebra" fill="#85340A" d="M250.3,156.7c-2.7,2.1-5.4,1.9-7,1c-1.6-1-1.6-1.3-1.3-1.3c0.3,0,0.6,0.3,1.9,1
			C245.2,158,247.1,158,250.3,156.7L250.3,156.7z"/>
	</g>
	<path fill="#85340A" d="M236,161.5c-0.7,0.1-1.2,0.7-1.2,1.4c0,0.8,0.7,1.4,1.4,1.4c0.5,0,0.9-0.2,1.2-0.6c0.5,0.4,1.3,0.5,1.7,0.5
		c0.1,0,0.1,0,0.2,0c0.4,0,1.2-0.1,1.7-0.5c0.3,0.4,0.7,0.6,1.2,0.6c0.8,0,1.4-0.6,1.4-1.4c0-0.7-0.5-1.3-1.2-1.4
		c0.4,0.1,0.6,0.5,0.6,0.9c0,0.5-0.4,1-1,1c-0.5,0-0.9-0.4-1-0.9c-0.2,0.3-0.8,1.2-2,1.3c-1.2,0-1.8-1-2-1.3c0,0.5-0.4,0.9-1,0.9
		c-0.5,0-1-0.4-1-1C235.4,162,235.6,161.6,236,161.5L236,161.5z"/>
	<path fill="#85340A" d="M237.6,165.7c-1.6,0-2.2,1.4-3.6,2.4c0.8-0.3,1.4-0.9,2.5-1.6c1.1-0.6,2.1,0.1,2.7,0.1h0
		c0.6,0,1.6-0.8,2.7-0.1c1.1,0.6,1.8,1.3,2.6,1.6c-1.4-1-2.1-2.4-3.7-2.4c-0.3,0-0.9,0.2-1.6,0.5h0
		C238.5,165.9,237.9,165.7,237.6,165.7z"/>
	<path fill="#85340A" d="M237,167.6c-0.6,0-1.5,0.2-2.6,0.5c2.9-0.6,3.5,0.3,4.8,0.3h0c1.3,0,1.9-1,4.8-0.3c-3.2-1-3.8-0.3-4.8-0.3
		h0C238.6,167.8,238.1,167.5,237,167.6L237,167.6z"/>
	<path fill="#85340A" d="M234.5,168.1c-0.2,0-0.4,0-0.6,0c3.3,0.3,1.7,2.2,5.2,2.2h0c3.5,0,1.9-1.9,5.2-2.2
		c-3.5-0.3-2.4,1.7-5.2,1.7h0C236.5,169.8,237.3,168,234.5,168.1L234.5,168.1z"/>
	<path fill="#85340A" d="M242,173.2c0-1.6-1.3-2.9-2.9-2.9c-1.6,0-2.9,1.3-2.9,2.9c0.3-1.3,1.5-2.3,2.9-2.3
		C240.5,171,241.7,171.9,242,173.2L242,173.2L242,173.2z"/>
	<path id="eyebrow_nose_00000117657304943418312170000015017394259948938140_" fill="#85340A" d="M226.4,154.2
		c3.6-3.2,8.2-3.6,10.8-1.3c0.6,0.8,1,1.7,1.2,2.6c0.3,1.8-0.2,3.8-1.7,5.8c0.2,0,0.5,0.2,0.6,0.3c1.3-2.4,1.7-4.9,1.3-7.2
		c-0.1-0.6-0.3-1.2-0.5-1.8C234.6,149.8,229.9,149.4,226.4,154.2L226.4,154.2z"/>
	<path id="uppalpebra_00000119077902840791062400000000593233669050912447_" fill="#85340A" d="M232.1,153.2c2.1,0,2.5,0.5,3.5,1.3
		c1,0.8,1.4,0.6,1.6,0.8c0.2,0.2,0,0.6-0.3,0.5c-0.3-0.2-1-0.5-1.9-1.3c-1-0.8-1.9-0.8-2.9-0.8c-2.9,0-4.4,2.4-4.8,2.2
		C227,155.8,228.9,153.2,232.1,153.2L232.1,153.2z"/>
	<g transform="translate(-19.181)">
		<path id="loweyecontour_00000110433268663950823270000014224749708024768703_" fill="#843511" d="M232,154.2
			c-1.4,0-2.8,0.6-3.5,1.9c1.6,1.4,5.1,1.6,7.5-0.2C234.9,154.8,233.4,154.2,232,154.2L232,154.2z M231.9,154.5
			c1.4,0,2.6,0.6,2.8,1.2c-1.6,1.7-4.1,1.6-5.7,0.3C229.8,155,230.9,154.6,231.9,154.5L231.9,154.5z"/>
	</g>
	<circle id="pupil_00000140724973635162165110000007844505291445574806_" fill="#85340A" cx="232.2" cy="155.8" r="1.4"/>
	<path id="lowpalpebra_00000016757236958939035450000015325054088420106684_" fill="#85340A" d="M228.3,156.7c2.7,2.1,5.4,1.9,7,1
		c1.6-1,1.6-1.3,1.3-1.3c-0.3,0-0.6,0.3-1.9,1C233.3,158,231.4,158,228.3,156.7L228.3,156.7z"/>
</g>
</svg>
