<?xml version="1.0" encoding="utf-8"?>
<!-- Generator: Adobe Illustrator 27.9.1, SVG Export Plug-In . SVG Version: 6.00 Build 0)  -->
<svg version="1.1" id="arg" xmlns="http://www.w3.org/2000/svg" xmlns:xlink="http://www.w3.org/1999/xlink" x="0px" y="0px"
	 viewBox="0 0 480 320" enable-background="new 0 0 480 320" xml:space="preserve">
<rect fill="#74ACDF" width="480" height="320"/>
<rect y="106.7" fill="#FFFFFF" width="480" height="106.7"/>
<g id="crest">
	<g id="rays">
		<path id="ray1" fill="#F6B40E" stroke="#85340A" stroke-width="1.1116" d="M238.1,160.8l17.1,37.2c0,0,0.3,0.7,0.8,0.5
			c0.5-0.2,0.2-0.9,0.2-0.9l-14.2-38.4 M241.5,173.7c-0.2,5.7,3.3,8.8,2.8,13.8c-0.5,5.1,2.3,7.9,3,9.9c0.6,2-0.7,3.1-0.1,3.4
			c0.6,0.3,1.8-1.3,1.4-4.1c-0.4-2.8-2.5-3.6-2-9.8c0.5-6.2-2.5-7.6-1.8-13.2"/>
		<g transform="rotate(22.5 400,250)">
			<path id="ray1_00000135667324326559726350000009184025884470145167_" fill="#F6B40E" stroke="#85340A" stroke-width="1.1116" d="
				M237.9,160l1.5,40.9c0,0,0,0.8,0.5,0.8c0.5,0,0.5-0.8,0.5-0.8l1.5-40.9 M236.1,173.2c-2.4,5.1-0.3,9.4-2.7,13.8
				c-2.4,4.5-0.9,8.2-1,10.3c-0.2,2.1-1.8,2.6-1.4,3.1c0.4,0.5,2.2-0.5,2.9-3.2c0.7-2.7-1-4.3,1.9-9.8c2.8-5.5,0.6-8,3.4-12.9"/>
		</g>
		<g transform="rotate(45 400,250)">
			<path id="ray1_00000094615115835951934770000007873117958794557087_" fill="#F6B40E" stroke="#85340A" stroke-width="1.1116" d="
				M238.1,159.2l-14.2,38.4c0,0-0.3,0.7,0.2,0.9c0.5,0.2,0.8-0.5,0.8-0.5l17.1-37.2 M231.4,170.7c-4.1,3.9-3.9,8.5-7.8,11.8
				c-3.9,3.3-4,7.2-4.9,9.1c-0.9,1.8-2.7,1.7-2.5,2.3c0.2,0.6,2.2,0.4,3.9-1.9c1.7-2.3,0.8-4.4,5.5-8.4c4.7-4,3.6-7.2,8.1-10.6"/>
		</g>
		<g transform="rotate(67.5 400,250)">
			<path id="ray1_00000042696760414950213820000006954366503290956965_" fill="#F6B40E" stroke="#85340A" stroke-width="1.1116" d="
				M238.5,158.5l-27.8,30c0,0-0.5,0.5-0.2,0.9c0.4,0.4,0.9-0.2,0.9-0.2l30-27.8 M227.9,166.6c-5.3,2-6.8,6.4-11.7,7.9
				c-4.8,1.5-6.4,5.2-8,6.5c-1.6,1.3-3.2,0.6-3.2,1.2c0,0.6,1.9,1.2,4.3-0.2c2.4-1.4,2.4-3.7,8.3-5.6c5.9-1.9,6.1-5.2,11.5-6.7"/>
		</g>
		<path id="ray2" fill="#85340A" d="M242.6,174.6c0.3,5.4,3.4,7.8,2.7,12.8c1.3-3.9-1.9-6.9-1.7-12.7 M239.1,160.4l11.7,25.5
			l-9.8-26.3"/>
		<g transform="rotate(22.5 400,250)">
			<path id="ray2_00000086671509728030091900000012554615684526656411_" fill="#85340A" d="M236.8,174.5c-1.8,5.1,0.1,8.5-2.4,12.9
				c2.7-3.1,0.9-7.1,3.3-12.4 M239,160.1l1,28.1l1-28.1"/>
		</g>
		<g transform="rotate(45 400,250)">
			<path id="ray2_00000044170899776078204110000002704186139114020482_" fill="#85340A" d="M231.5,172.2c-3.6,4-3.2,7.9-7.1,11
				c3.7-1.8,3.6-6.2,7.8-10.2 M239,159.6l-9.8,26.3l11.7-25.5"/>
		</g>
		<g transform="rotate(67.5 400,250)">
			<path id="ray2_00000100350774626873726580000012676452090894175918_" fill="#85340A" d="M227.5,168c-4.9,2.3-6,6.1-10.8,7.4
				c4.1-0.3,5.7-4.4,11.1-6.4 M239.2,159.3l-19.1,20.6l20.6-19.1"/>
		</g>
	</g>
	<g transform="rotate(90 400,250)">
		<g id="rays_00000092425504409782358700000018204706342992964785_">
			<path id="ray1_00000040562768991767428610000013822234236293028486_" fill="#F6B40E" stroke="#85340A" stroke-width="1.1116" d="
				M239.2,158.1L202,175.2c0,0-0.7,0.3-0.5,0.8c0.2,0.5,0.9,0.2,0.9,0.2l38.4-14.2 M226.3,161.5c-5.7-0.2-8.8,3.3-13.8,2.8
				c-5.1-0.5-7.9,2.3-9.9,3c-2,0.6-3.1-0.7-3.4-0.1c-0.3,0.6,1.3,1.8,4.1,1.4c2.8-0.4,3.6-2.5,9.8-2c6.2,0.5,7.6-2.5,13.2-1.8"/>
			<g transform="rotate(22.5 400,250)">
				
					<path id="ray1_00000093137225676176531180000017712751218645877945_" fill="#F6B40E" stroke="#85340A" stroke-width="1.1116" d="
					M240,157.9l-40.9,1.5c0,0-0.8,0-0.8,0.5c0,0.5,0.8,0.5,0.8,0.5l40.9,1.5 M226.8,156.1c-5.1-2.4-9.4-0.3-13.8-2.7
					c-4.5-2.4-8.2-0.9-10.3-1c-2.1-0.2-2.6-1.8-3.1-1.4c-0.5,0.4,0.5,2.2,3.2,2.9c2.7,0.7,4.3-1,9.8,1.9c5.5,2.8,8,0.6,12.9,3.4"/>
			</g>
			<g transform="rotate(45 400,250)">
				
					<path id="ray1_00000006707528814697161460000007497820933470387877_" fill="#F6B40E" stroke="#85340A" stroke-width="1.1116" d="
					M240.8,158.1l-38.4-14.2c0,0-0.7-0.3-0.9,0.2c-0.2,0.5,0.5,0.8,0.5,0.8l37.2,17.1 M229.3,151.4c-3.9-4.1-8.5-3.9-11.8-7.8
					c-3.3-3.9-7.2-4-9.1-4.9c-1.8-0.9-1.7-2.7-2.3-2.5c-0.6,0.2-0.4,2.2,1.9,3.9c2.3,1.7,4.4,0.8,8.4,5.5c4,4.7,7.2,3.6,10.6,8.1"/>
			</g>
			<g transform="rotate(67.5 400,250)">
				
					<path id="ray1_00000103235524563517977970000001064172928421976216_" fill="#F6B40E" stroke="#85340A" stroke-width="1.1116" d="
					M241.5,158.5l-30-27.8c0,0-0.5-0.5-0.9-0.2c-0.4,0.4,0.2,0.9,0.2,0.9l27.8,30 M233.4,147.9c-2-5.3-6.4-6.8-7.9-11.7
					c-1.5-4.8-5.2-6.4-6.5-8c-1.3-1.6-0.6-3.2-1.2-3.2c-0.6,0-1.2,1.9,0.2,4.3c1.4,2.4,3.7,2.4,5.6,8.3c1.9,5.9,5.2,6.1,6.7,11.5"/>
			</g>
			<path id="ray2_00000133513131204331744150000006705304566779429255_" fill="#85340A" d="M225.4,162.6c-5.4,0.3-7.8,3.4-12.8,2.7
				c3.9,1.3,6.9-1.9,12.7-1.7 M239.6,159.1L214,170.7l26.3-9.8"/>
			<g transform="rotate(22.5 400,250)">
				<path id="ray2_00000036941686695226547020000018236740970507010965_" fill="#85340A" d="M225.5,156.8c-5.1-1.8-8.5,0.1-12.9-2.4
					c3.1,2.7,7.1,0.9,12.4,3.3 M239.9,159l-28.1,1l28.1,1"/>
			</g>
			<g transform="rotate(45 400,250)">
				<path id="ray2_00000075124830956121935630000000075879011027726977_" fill="#85340A" d="M227.8,151.5c-4-3.6-7.9-3.2-11-7.1
					c1.8,3.7,6.2,3.6,10.2,7.8 M240.4,159l-26.3-9.8l25.5,11.7"/>
			</g>
			<g transform="rotate(67.5 400,250)">
				<path id="ray2_00000022540598075191989430000015546032899228715648_" fill="#85340A" d="M232,147.5c-2.3-4.9-6.1-6-7.4-10.8
					c0.3,4.1,4.4,5.7,6.4,11.1 M240.7,159.2l-20.6-19.1l19.1,20.6"/>
			</g>
		</g>
	</g>
	<g transform="rotate(180 400,250)">
		<g id="rays_00000153682844504222281900000003062071042784515997_">
			<path id="ray1_00000088108107016041446220000015793983669671295653_" fill="#F6B40E" stroke="#85340A" stroke-width="1.1116" d="
				M241.9,159.2L224.8,122c0,0-0.3-0.7-0.8-0.5c-0.5,0.2-0.2,0.9-0.2,0.9l14.2,38.4 M238.5,146.3c0.2-5.7-3.3-8.8-2.8-13.8
				c0.5-5.1-2.3-7.9-3-9.9c-0.6-2,0.7-3.1,0.1-3.4c-0.6-0.3-1.8,1.3-1.4,4.1c0.4,2.8,2.5,3.6,2,9.8c-0.5,6.2,2.5,7.6,1.8,13.2"/>
			<g transform="rotate(22.5 400,250)">
				
					<path id="ray1_00000062189570603315564450000006107505946508472989_" fill="#F6B40E" stroke="#85340A" stroke-width="1.1116" d="
					M242.1,160l-1.5-40.9c0,0,0-0.8-0.5-0.8c-0.5,0-0.5,0.8-0.5,0.8l-1.5,40.9 M243.9,146.8c2.4-5.1,0.3-9.4,2.7-13.8
					c2.4-4.5,0.9-8.2,1-10.3c0.2-2.1,1.8-2.6,1.4-3.1c-0.4-0.5-2.2,0.5-2.9,3.2c-0.7,2.7,1,4.3-1.9,9.8c-2.8,5.5-0.6,8-3.4,12.9"/>
			</g>
			<g transform="rotate(45 400,250)">
				
					<path id="ray1_00000146466269633338553830000000146671393445543313_" fill="#F6B40E" stroke="#85340A" stroke-width="1.1116" d="
					M241.9,160.8l14.2-38.4c0,0,0.3-0.7-0.2-0.9c-0.5-0.2-0.8,0.5-0.8,0.5l-17.1,37.2 M248.6,149.3c4.1-3.9,3.9-8.5,7.8-11.8
					c3.9-3.3,4-7.2,4.9-9.1c0.9-1.8,2.7-1.7,2.5-2.3c-0.2-0.6-2.2-0.4-3.9,1.9c-1.7,2.3-0.8,4.4-5.5,8.4c-4.7,4-3.6,7.2-8.1,10.6"/>
			</g>
			<g transform="rotate(67.5 400,250)">
				
					<path id="ray1_00000044168517187929790680000004617322804409017511_" fill="#F6B40E" stroke="#85340A" stroke-width="1.1116" d="
					M241.5,161.5l27.8-30c0,0,0.5-0.5,0.2-0.9c-0.4-0.4-0.9,0.2-0.9,0.2l-30,27.8 M252.1,153.4c5.3-2,6.8-6.4,11.7-7.9
					c4.8-1.5,6.4-5.2,8-6.5c1.6-1.3,3.2-0.6,3.2-1.2c0-0.6-1.9-1.2-4.3,0.2c-2.4,1.4-2.4,3.7-8.3,5.6c-5.9,1.9-6.1,5.2-11.5,6.7"/>
			</g>
			<path id="ray2_00000093178227813288097500000012583303746903350196_" fill="#85340A" d="M237.4,145.4c-0.3-5.4-3.4-7.8-2.7-12.8
				c-1.3,3.9,1.9,6.9,1.7,12.7 M240.9,159.6L229.3,134l9.8,26.3"/>
			<g transform="rotate(22.5 400,250)">
				<path id="ray2_00000177484007604451537030000006535115607528278964_" fill="#85340A" d="M243.2,145.5c1.8-5.1-0.1-8.5,2.4-12.9
					c-2.7,3.1-0.9,7.1-3.3,12.4 M241,159.9l-1-28.1l-1,28.1"/>
			</g>
			<g transform="rotate(45 400,250)">
				<path id="ray2_00000012458031499540446360000015225890702773653176_" fill="#85340A" d="M248.5,147.8c3.6-4,3.2-7.9,7.1-11
					c-3.7,1.8-3.6,6.2-7.8,10.2 M241,160.4l9.8-26.3l-11.7,25.5"/>
			</g>
			<g transform="rotate(67.5 400,250)">
				<path id="ray2_00000088836774724325559110000010355052965118309559_" fill="#85340A" d="M252.5,152c4.9-2.3,6-6.1,10.8-7.4
					c-4.1,0.3-5.7,4.4-11.1,6.4 M240.8,160.7l19.1-20.6l-20.6,19.1"/>
			</g>
		</g>
	</g>
	<g transform="rotate(270 400,250)">
		<g id="rays_00000164515401471209345790000015457663987352535992_">
			<path id="ray1_00000073685189157126379270000008291109770462426520_" fill="#F6B40E" stroke="#85340A" stroke-width="1.1116" d="
				M240.8,161.9l37.2-17.1c0,0,0.7-0.3,0.5-0.8c-0.2-0.5-0.9-0.2-0.9-0.2l-38.4,14.2 M253.7,158.5c5.7,0.2,8.8-3.3,13.8-2.8
				c5.1,0.5,7.9-2.3,9.9-3c2-0.6,3.1,0.7,3.4,0.1c0.3-0.6-1.3-1.8-4.1-1.4c-2.8,0.4-3.6,2.5-9.8,2c-6.2-0.5-7.6,2.5-13.2,1.8"/>
			<g transform="rotate(22.5 400,250)">
				
					<path id="ray1_00000033331994684903943320000000295117125691205302_" fill="#F6B40E" stroke="#85340A" stroke-width="1.1116" d="
					M240,162.1l40.9-1.5c0,0,0.8,0,0.8-0.5c0-0.5-0.8-0.5-0.8-0.5l-40.9-1.5 M253.2,163.9c5.1,2.4,9.4,0.3,13.8,2.7
					c4.5,2.4,8.2,0.9,10.3,1c2.1,0.2,2.6,1.8,3.1,1.4c0.5-0.4-0.5-2.2-3.2-2.9c-2.7-0.7-4.3,1-9.8-1.9c-5.5-2.8-8-0.6-12.9-3.4"/>
			</g>
			<g transform="rotate(45 400,250)">
				
					<path id="ray1_00000165230670297184804980000012294250638712471704_" fill="#F6B40E" stroke="#85340A" stroke-width="1.1116" d="
					M239.2,161.9l38.4,14.2c0,0,0.7,0.3,0.9-0.2c0.2-0.5-0.5-0.8-0.5-0.8l-37.2-17.1 M250.7,168.6c3.9,4.1,8.5,3.9,11.8,7.8
					c3.3,3.9,7.2,4,9.1,4.9c1.8,0.9,1.7,2.7,2.3,2.5c0.6-0.2,0.4-2.2-1.9-3.9c-2.3-1.7-4.4-0.8-8.4-5.5c-4-4.7-7.2-3.6-10.6-8.1"/>
			</g>
			<g transform="rotate(67.5 400,250)">
				
					<path id="ray1_00000056416399900276649670000015305268928443304854_" fill="#F6B40E" stroke="#85340A" stroke-width="1.1116" d="
					M238.5,161.5l30,27.8c0,0,0.5,0.5,0.9,0.2c0.4-0.4-0.2-0.9-0.2-0.9l-27.8-30 M246.6,172.1c2,5.3,6.4,6.8,7.9,11.7
					c1.5,4.8,5.2,6.4,6.5,8c1.3,1.6,0.6,3.2,1.2,3.2c0.6,0,1.2-1.9-0.2-4.3c-1.4-2.4-3.7-2.4-5.6-8.3c-1.9-5.9-5.2-6.1-6.7-11.5"/>
			</g>
			<path id="ray2_00000080895765452370829530000017366693465061379734_" fill="#85340A" d="M254.6,157.4c5.4-0.3,7.8-3.4,12.8-2.7
				c-3.9-1.3-6.9,1.9-12.7,1.7 M240.4,160.9l25.5-11.7l-26.3,9.8"/>
			<g transform="rotate(22.5 400,250)">
				<path id="ray2_00000138574003895690319240000015907990230151427485_" fill="#85340A" d="M254.5,163.2c5.1,1.8,8.5-0.1,12.9,2.4
					c-3.1-2.7-7.1-0.9-12.4-3.3 M240.1,161l28.1-1l-28.1-1"/>
			</g>
			<g transform="rotate(45 400,250)">
				<path id="ray2_00000018941162925125381050000007300909139068424380_" fill="#85340A" d="M252.2,168.5c4,3.6,7.9,3.2,11,7.1
					c-1.8-3.7-6.2-3.6-10.2-7.8 M239.6,161l26.3,9.8l-25.5-11.7"/>
			</g>
			<g transform="rotate(67.5 400,250)">
				<path id="ray2_00000148624984525648772680000007413120322537780662_" fill="#85340A" d="M248,172.5c2.3,4.9,6.1,6,7.4,10.8
					c-0.3-4.1-4.4-5.7-6.4-11.1 M239.3,160.8l20.6,19.1l-19.1-20.6"/>
			</g>
		</g>
	</g>
	<circle fill="#F6B40E" stroke="#85340A" stroke-width="1.5" cx="240" cy="160" r="16.7"/>
	<path id="loweyecontour" fill="#843511" d="M245.7,156.4c-1.1,0-2.2,0.5-2.9,1.5c1.3,1.2,4.1,1.3,6-0.1
		C248,156.9,246.8,156.4,245.7,156.4L245.7,156.4z M245.7,156.7c1.1,0,2.1,0.5,2.3,1c-1.3,1.4-3.3,1.3-4.6,0.3
		C243.9,157.1,244.8,156.7,245.7,156.7L245.7,156.7z"/>
	<g transform="matrix(-1 0 0 1 800.25 0)">
		<path id="uppalpebra" fill="#85340A" d="M245.9,155.6c-1.7,0-2.1,0.4-2.8,1c-0.8,0.6-1.2,0.5-1.3,0.6c-0.1,0.1,0,0.5,0.3,0.4
			c0.3-0.1,0.8-0.4,1.5-1c0.8-0.6,1.5-0.6,2.3-0.6c2.3,0,3.6,1.9,3.8,1.8C250,157.7,248.5,155.6,245.9,155.6L245.9,155.6z"/>
	</g>
	<g transform="matrix(-1 0 0 1 800.25 0)">
		<path id="eyebrow_nose" fill="#85340A" d="M250.5,156.4c-2.9-2.6-6.7-2.9-8.7-1c-0.5,0.7-0.8,1.4-1,2.1c-0.3,1.5,0.2,3,1.3,4.7
			c-0.1,0-0.4,0.1-0.5,0.3c-1-1.9-1.4-3.9-1-5.8c0.1-0.5,0.2-1,0.4-1.5C243.8,152.8,247.7,152.6,250.5,156.4L250.5,156.4z"/>
	</g>
	<g transform="translate(18.862)">
		<circle id="pupil" fill="#85340A" cx="245.6" cy="157.7" r="1.2"/>
	</g>
	<g transform="matrix(-1 0 0 1 800.25 0)">
		<path id="lowpalpebra" fill="#85340A" d="M249,158.5c-2.2,1.7-4.4,1.5-5.6,0.8c-1.3-0.8-1.3-1-1-1c0.3,0,0.5,0.3,1.5,0.8
			C244.9,159.5,246.4,159.5,249,158.5L249,158.5z"/>
	</g>
	<path fill="#85340A" d="M237.4,162.3c-0.5,0.1-0.9,0.6-0.9,1.1c0,0.6,0.5,1.1,1.2,1.1c0.4,0,0.7-0.2,0.9-0.5
		c0.4,0.3,1.1,0.4,1.4,0.4c0.1,0,0.1,0,0.1,0c0.3,0,0.9,0,1.4-0.4c0.2,0.3,0.6,0.5,0.9,0.5c0.6,0,1.2-0.5,1.2-1.1
		c0-0.6-0.4-1-0.9-1.1c0.3,0.1,0.5,0.4,0.5,0.7c0,0.4-0.3,0.8-0.8,0.8c-0.4,0-0.7-0.3-0.8-0.7c-0.1,0.2-0.6,1-1.6,1
		c-1,0-1.5-0.8-1.6-1c0,0.4-0.4,0.7-0.8,0.7c-0.4,0-0.8-0.3-0.8-0.8C236.9,162.7,237.1,162.4,237.4,162.3L237.4,162.3z"/>
	<path fill="#85340A" d="M238.7,165.7c-1.3,0-1.8,1.2-2.9,1.9c0.6-0.3,1.1-0.8,2-1.3c0.9-0.5,1.7,0.1,2.2,0.1h0
		c0.5,0,1.3-0.6,2.2-0.1c0.9,0.5,1.4,1,2.1,1.3c-1.2-0.8-1.7-1.9-3-1.9c-0.3,0-0.8,0.1-1.3,0.4h0C239.5,165.9,239,165.7,238.7,165.7
		z"/>
	<path fill="#85340A" d="M238.3,167.2c-0.5,0-1.2,0.1-2.1,0.4c2.3-0.5,2.8,0.3,3.8,0.3h0c1,0,1.5-0.8,3.8-0.3
		c-2.6-0.8-3.1-0.3-3.8-0.3h0C239.5,167.4,239.1,167.2,238.3,167.2L238.3,167.2z"/>
	<path fill="#85340A" d="M236.2,167.6c-0.1,0-0.3,0-0.5,0c2.7,0.3,1.4,1.8,4.2,1.8h0c2.8,0,1.5-1.5,4.2-1.8
		c-2.8-0.3-1.9,1.4-4.2,1.4h0C237.8,169.1,238.5,167.6,236.2,167.6L236.2,167.6z"/>
	<path fill="#85340A" d="M242.3,171.8c0-1.3-1-2.3-2.3-2.3c-1.3,0-2.3,1-2.3,2.3c0.3-1.1,1.2-1.8,2.3-1.8
		C241.1,170,242.1,170.7,242.3,171.8L242.3,171.8L242.3,171.8z"/>
	<path id="eyebrow_nose_00000117657304943418312170000015017394259948938140_" fill="#85340A" d="M229.6,156.4
		c2.9-2.6,6.7-2.9,8.7-1c0.5,0.7,0.8,1.4,1,2.1c0.3,1.5-0.2,3-1.3,4.7c0.1,0,0.4,0.1,0.5,0.3c1-1.9,1.4-3.9,1-5.8
		c-0.1-0.5-0.2-1-0.4-1.5C236.3,152.8,232.5,152.6,229.6,156.4L229.6,156.4z"/>
	<path id="uppalpebra_00000119077902840791062400000000593233669050912447_" fill="#85340A" d="M234.3,155.6c1.7,0,2.1,0.4,2.8,1
		c0.8,0.6,1.2,0.5,1.3,0.6c0.1,0.1,0,0.5-0.3,0.4c-0.3-0.1-0.8-0.4-1.5-1c-0.8-0.6-1.5-0.6-2.3-0.6c-2.3,0-3.6,1.9-3.8,1.8
		C230.2,157.7,231.7,155.6,234.3,155.6L234.3,155.6z"/>
	<g transform="translate(-19.181)">
		<path id="loweyecontour_00000110433268663950823270000014224749708024768703_" fill="#843511" d="M234.2,156.4
			c-1.1,0-2.2,0.5-2.9,1.5c1.3,1.2,4.1,1.3,6-0.1C236.5,156.9,235.3,156.4,234.2,156.4L234.2,156.4z M234.2,156.7
			c1.1,0,2.1,0.5,2.3,1c-1.3,1.4-3.3,1.3-4.6,0.3C232.4,157.1,233.3,156.7,234.2,156.7L234.2,156.7z"/>
	</g>
	<circle id="pupil_00000140724973635162165110000007844505291445574806_" fill="#85340A" cx="234.3" cy="157.7" r="1.2"/>
	<path id="lowpalpebra_00000016757236958939035450000015325054088420106684_" fill="#85340A" d="M231.2,158.5
		c2.2,1.7,4.4,1.5,5.6,0.8c1.3-0.8,1.3-1,1-1c-0.3,0-0.5,0.3-1.5,0.8C235.3,159.5,233.7,159.5,231.2,158.5L231.2,158.5z"/>
</g>
</svg>
