<?xml version="1.0" encoding="utf-8"?>
<!-- Generator: Adobe Illustrator 28.2.0, SVG Export Plug-In . SVG Version: 6.00 Build 0)  -->
<svg version="1.1" id="asm" xmlns="http://www.w3.org/2000/svg" xmlns:xlink="http://www.w3.org/1999/xlink" x="0px" y="0px"
	 viewBox="0 0 480 320" enable-background="new 0 0 480 320" xml:space="preserve">
<path fill="#000066" d="M0,0h480v320H0V0z"/>
<path fill="#BD1021" d="M0,160L480,0v320L0,160z"/>
<path fill="#FFFFFF" d="M51.4,160L480,17.1v285.7"/>
<g id="crest">
	<path d="M367.9,173.4c3.2,0.2,3.1,3.4,3.1,3.4l11.3,0.3c1.4-3.9,3-3.5,5.7-1.5c2.6,1.9,5.5,2.7,5.5,2.7c1.1-5.7,9.1-4.5,9.1-4.5
		c3.4-8.2,3.7-8.1,1.7-9.1c-2-1-2.9-2.8-2.9-2.8c-1.9-2.3-3-5.7-3.2-7.8c-0.2-2.1-2.6,1-3.1,0.4c-0.4-0.7-4-0.3-4-0.3
		c0.9,0.9-2.1,0.4-2.1,0.4c0.3,0.2,0,1.1,0,1.1c-0.3-0.4-2.6-0.8-2.6-0.8c-0.2,0.5-0.7,1-0.7,1c-1.2-0.5-3.7-0.4-3.7-0.4
		c-3.6-0.1-5.8,1.1-6.9,1.7s-4.7,2.5-7.7,5.3c-3,2.9-4.7,2.6-4.7,2.6c-0.9,3.2-8,7.1-8,7.1c-1.2,1-4.7,1.5-6.6,0s0-4.3,0-4.3
		c0.7-1.3,1.3-1.2,1.4-5.6c0.1-3,3.1-5.4,6.3-8.8c3.9-4.3,9.3-11.3,9.3-11.3c0,2.1,1.2,2.5,1.2,2.5c1.1-2.2,2.6-3.9,2.6-3.9
		c0.1,0.2,0.3,0.3,0.3,0.3c1.2-1.6,1.9-2.3,1.9-2.3c-0.4-0.2-3.8,0-6.9,2.7c-3.1,2.7-5.3,1.8-5.3,1.8c-2.2-0.7-2.4-2.4-2.4-2.4
		c-1.6-6.9,4.7-11.8,4.7-11.8c-8.4-2-2.4-12.7,8.1-17.2c10.4-4.5,10.3-6.6,10.3-6.6c0.6,0.7,1.1,1.9,1.1,1.9
		c0.1-0.1,0.9-1.2,6.9-3.9c6-2.7,8.9-5,8.9-5c0.8,1.5,0.6,2.5,0.6,2.5c16.5-5.8,32.7-19,32.7-19c0.5,1.1,0.2,2.8,0.2,2.8
		c2.7-2.5,12.4-8.2,12.4-8.2c0.2,3.7-2.9,5.1-2.9,5.1c0.3,0.5,0.5,1.5,0.5,1.5c1.6-0.9,9-6,9-6c2.7,2.3,0.2,6.2,0.2,6.2
		c1-0.1,1.7-1,1.7-1c0.7,4-3.7,7.5-3.7,7.5c0.8,0,2.1-0.7,2.1-0.7c-0.8,4.3-9.1,9.1-9.1,9.1c1.2,1.1,0.1,2.5-0.9,3.1s-2.7,2-2.2,2.6
		c0.5,0.6,4.2-2,4.2-2c0.6,1.8-4,5.4-4,5.4c3.3,0.4,12.3-3.7,12.3-3.7c-0.7,3.5-4.2,6.2-8.4,7.8c-4.2,1.6-4,1.8-4,1.8
		c0.7,0.6,6.6-1.1,6.6-1.1c-1.8,3.9-7.8,6.6-7.8,6.6c1.7,1.4,3.9-0.2,6.2-1.8c2.3-1.6,5.4-2.9,8.8-4c3.4-1.1,5.8-0.3,5.8-0.3
		c2.8-0.9,5.2,0.4,5.2,0.4c5.5,0.5,6,2.4,6,2.4c0.6,0.1,1.1,0.4,2.5,1.4s1.3,4.2,1.3,5.8c-0.1,1.6-0.5,1.6-0.8,2
		c-0.3,0.4-0.3,0.9-0.3,1.5s-1.4,4.3-9.8,4.3c-8.4,0-12.8,0-12.8,0c-0.7,0-1.5,0.4-1.5,0.4c-3.6,1.8-1.7-1.2-5.9,2.3
		c-4.2,3.5-6.4,2.9-6.4,2.9c-0.7,0.8-5.1,5-7.7,6.6c-2.5,1.6-2.1,1.5,0.1,2.4c2.2,1,5.5,0,5.5,0c-2.1,1.4-0.7,2.1-0.7,2.1
		c2.8-1.7,4.5-1.1,4.5-1.1c0.9,2.4-2.3,6.3-2.3,6.3c1.2,0.2,3.6,0,3.6,0c-0.6,1.7-2.9,3.5-4.6,4c-1.7,0.6-1.4,0.8-0.9,1.8
		c0.5,1,0.1,2.1,0.1,2.1c-3-2.1-3.1-0.2-3.1-0.2c-0.3,2.5-0.3,6-0.3,6c-2.1-1.1-2.2,0.4-2.2,0.4c-0.5,2.2-3.1,4.8-3.1,4.8
		c-0.1-1.4-1.4-1.7-1.4-1.7c-1.3,2.6-3.8,4.1-3.8,4.1c-0.3,2.2,0.3,5.4,0.3,5.4c-1.6-0.3-2.2-0.3-2.4,0.1c-0.3,0.4,0.4,0.6,0.4,0.6
		l20.9,0.5c0.3,0,1.5,0.2,1.6,2.4c0,2.3-1.8,2.4-1.8,2.4l-22.9-0.5c0,0,0.1,0.6-1.1,1.3c-1.2,0.6-0.8-0.7-1.1,2.1
		c-0.3,2.8-4.9-0.2-4.9-0.2c-0.7,1.1-2.5,2.5-2.5,2.5c-1-3.1-2.1-4-3.7-1.4s3,2.2,3,2.2s26.8-4,28.3-4.1c1.5-0.1,3.1-0.1,3.7,2
		c0.7,2-3.2,2.4-3.2,2.4l-27.5,3c-0.6,1.6-2.9,1.5-2.9,1.5c0.2,1.6-1.5,2.5-2.3,3.1c-0.8,0.6-3.5,0.3-3.5,0.3
		c-3.2,2.2-4.8,0.5-4.8,0.5c-2.1,0.9-3.4,0.5-5.1-0.2c-1.7-0.7-1.6-2.8-1.6-2.8l-17.4,1.8c-0.8,0.3-1.4,0.8-1.4,0.8
		c0.6,0.8-1.2,2.6-1.2,2.6c0.5,0.4,1.5,1.4,1.7,3.5c0.1,2.3-2.8,2.7-1.3,4.3c1.5,1.6,4.2,0.3,7.2-1.2c3-1.4,6-1.3,7.2-1.2
		c1.3,0,4.9,0.9,7.1,1.7c2.2,0.8,3,0.3,3.1-0.8s1.1-1.5,1.1-1.5c-0.3,1.1,0.3,1.6,0.3,1.6c0.9,0.1,2.4-0.8,2.4-0.8
		c-0.1,0.8-1.2,1.4-1.2,1.4c-2.2,1.5,0.8,0.9,0.8,0.9c6-1.2,8.1-1.1,9.7-0.9s8.9,3.3,8.9,3.3c0.3-0.7,0.1-2.6,0.1-2.6
		c1.9,0.5,2.7,1.6,2.7,1.6c0.7-0.8,0.2-2.1,0.2-2.1c6.1,3.4-1.3,4.9-3.2,5.6c-1.9,0.7-1.9,1.5-1.9,1.5c1.6-0.5,2.7-0.7,4.1-0.8
		c1.3-0.1,0.9,0,4.1-0.7c3.2-0.6,4.8,0.7,4.8,0.7c-2.7,0.1-3.5,0.9-3.5,0.9c1.7,1.2,0.1,2.1,0.1,2.1c-2.4-3.1-4.5,0.1-4.5,0.1
		c0.8-0.1,3.3,0.4,4,0.8c0.5,0.3,1.8,1,3.4,1.7c2.2,1,1.8,0.4,3.5,1c1.7,0.7,1.1,2.3,1.1,2.3c-0.7-1.4-2.3-1.8-2.3-1.8
		c-0.1,1.8-2,2.1-2,2.1c2.2-2.5-2.6-3.6-4.9-3.5c-2.3,0-4,1.5-4,1.5c4.6,4.3,7.7,2.9,7.7,2.9c-0.6,1.6-4.3,0.9-4.3,0.9
		c1.8,1.3,1.6,2.3,1.6,2.3c-0.9-0.9-2.5-0.5-5.7-2.6s-6.2-1.4-6.2-1.4c3.2,3.4-1.2,5.4-1.2,5.4c-1.6,0.9,0.7,2.2,0.7,2.2
		c-2,0.4-2.3-1.7-2.3-1.7c-1.1-0.2-2.6,1.1-2.6,1.1c0.1-2.1,2.8-1,2.9-3.2s-2.5-3.8-10.3-2.8c-7.7,1.1-10-1.4-10-1.4
		c-0.7,0-0.8,0.7-0.8,0.7c1.3,1.2,1.9,1.7,1.6,2.6c-0.2,0.9,0.4,1.1,0.4,1.1c-1.4-0.1-1.5-1.8-1.5-1.8c0,0.7-0.3,0.8-0.8,1.5
		c-0.5,0.7,0,1.7,0,1.7c-0.6-0.5-1.7-1.2-0.7-2.7c0.8-1.2-1.7-2.7-1.7-2.7c-1-1-3.5-0.1-3.5-0.1c-5.3,1-8.4-2.3-8.4-2.3
		c-0.6,0-1.8-0.3-1.8-0.3c-5.6,2.5-10.5-2.9-10.5-2.9c-4.2,0.8-6.1-1.2-7.4-3.2s-1.5-2.1-3.2-3.2c-1.7-1-3.3-3.9-1.7-5.4
		c1.4-1.3,1-1.6,1-1.6c-2.2-3.7,3.9-4.9,4-5.7c0.2-1.3,1.4-2.1,2.8-2.2c1.4-0.1,1.4,0,2.3-0.9c0.9-0.9,2.6,0.2,2.6,0.2
		c0.4-0.3,3.4-2.6,6-1.4c2.7,1.2,4.9,0.3,4.9,0.3c1.9-0.4,17.6-2.5,17.6-2.5c1-1.5,1.7-3.3,6-4.3c4.3-1,7.6-3.7,7.6-3.7
		c-0.8-0.8-2.1-0.8-2.7-0.9s-2-1.2-2-1.2c-0.8,0.3-1.2,0.2-6.9,3.6c-5.1,3.1-5.2-3-5.2-3l-11,0c-0.2,2.3-2,3.3-2,3.3l-4,0.2
		c-2.2-1.2-2.3-5.1-2.3-5.1c-12.1,0.2-18.9,4.5-18.9,4.5c-13.8-7-24.5-8.6-24.5-8.6c16.7-1.8,25.5-6.5,25.5-6.5
		c9.2,5.5,17.9,5.7,17.9,5.7c0.3-3.3,2.6-4.2,2.6-4.2L367.9,173.4L367.9,173.4z"/>
	<path fill="#FFC221" d="M348,201.1c-3.5,2-2.9,3.2-2.6,3.8c0.3,0.6,0.3,1.3-0.6,2.2c-0.9,1-0.9,1.3-0.9,1.3
		c0.1,3.4,2.5,4.1,3.6,4.9c0.8,0.7,2.3,2.9,2.3,2.9c1.8,2.6,3.7,2.6,5.1,2.6s1.3-0.1,0.6-0.8c-0.7-0.6-2.1-1.7-2.1-1.7
		c1.9,0.7,3.7,2.6,3.7,2.6c3.5,3.9,6.8,3.4,8.3,3.2c1.4-0.2,1.2-1,1.2-1c-0.1-0.1-1.5-0.2-1.5-0.2c-5.3-0.5-6.9-4-6.9-4
		c3.2,3.2,8.2,3.8,9.8,3.7c1.5-0.1,1.5,0.4,1.1,0.5c-0.3,0.1-0.8,0-1.5-0.1c-0.7-0.1-0.7,0.1-0.5,0.4s0.8,0.3,1.7,0.3
		c0.8,0,0.2,0.1,2.4,1.8c2.2,1.7,7.7,0.3,7.7,0.3c-3.5-0.9-4-2.5-4-2.5c-4.8,0.6-6.8-2.3-6.8-2.3c-0.9-0.9-3.4-2.2-3.4-2.2
		c-2.7-1.2-3.1-3.6-3.1-3.6c0.8,1.1,2.3,2.3,4.1,2.9c1.9,0.5,2.4,0.8,2.4,0.8c-0.9,0.1-1.4-0.2-1.4-0.2c-1.9-0.6-0.8,0.2-0.8,0.2
		c2.1,1.7,2.7,1.5,2.7,1.5c5.5,0.6,2.7-1.6,2.7-1.6c3.9,0.9,4.5-0.5,4.5-0.5c0.8,1.7,3.7,1.1,3.7,1.1c-3.9,1.9-0.9,1.3-0.9,1.3
		c4-0.7,4.7,0.3,4.7,0.3c1.1,1,2.2,0.9,2.2,0.9s0.7,0,2.2,0.3s3.8,1.6,6,1.3c2.2-0.3,2.5,0.4,2.5,0.4c-0.4-0.1-1.4-0.3-3.1,0.5
		c-1.7,0.8-4.6,1-8.9,0c-4.3-1-4.6-0.9-4.6-0.9c1,0.8,1.9,1.8,2.1,2.6c0.2,0.7,0.9,0.8,0.9,0.8c0.3-0.9,1.6-1.4,1.6-1.4
		c0.8,0.8,3.1,1.8,3.1,1.8c0.2-0.5,0-0.9,0-0.9c1.6,1.6,3.6,1.1,3.6,1.1c0.5-0.4,0.4-1.2,0.4-1.2c0.7,0,0.8,0.4,1.2,0.7
		c0.5,0.3,1.9,0.1,1.9,0.1c-0.5-0.2-0.9-1.1-0.9-1.1c2.2-1.5,6.8-0.8,6.8-0.8c3.4,0.6,3,2.8,3,2.8c0.7,0.3,1.6,1.4,1.6,1.4
		c0.3-0.8,0-1.6,0-1.6c1.5,0.7,1.9,2.5,1.9,2.5c1.8-2-1.7-4.3-1.7-4.3c1.7-0.2,3.6-0.1,4.7,0.1c1.1,0.2,2.8,0.8,4.1,1.9
		c1.3,1.1,3.7,1.6,3.7,1.6c-0.1-0.5-1.3-1.2-1.6-1.4s-0.4-0.6-0.4-0.6c1.2,0.2,2,0.1,2,0.1c-4.1-2.5-5.1-3.7-5.1-3.7
		c1.5,0.2,2.4-0.8,2.4-0.8c-3.2,0.1-3.3-0.8-3.3-0.8c0.4,0.1,1.9,0.5,3.8,0.1s4.6,0,4.6,0c-1.4-2.2-6.8-1.9-8.5-1.8
		c-1.7,0.1-2.4-0.1-2.4-0.1c0.3-0.1,0.6-0.4,1.9-0.4c1.4,0,2.7,0.1,4.2-1c1.5-1.1,3.6-0.7,3.6-0.7c-0.5-1-2.9-1.4-5.1,0
		c-2.1,1.4-4.1,0.9-4.1,0.9c3.4-0.5,4.4-1.7,4.4-1.7c-1-0.2-1.6,0.1-3.6,0.5s-2.6-0.3-2.6-0.3c2.2-1.3,3.8-1.9,3.8-1.9
		c-1.9-0.4-3.6-1.2-3.6-1.2c-2,1.9-3.5,2.9-7.3,0.9c-3.8-2-5.7-1.7-5.7-1.7c3.3-2,6.7-1.1,9.2,0.4c2.5,1.5,3.2,0.3,3.2,0.3
		c-0.8-0.5-0.7-0.9-0.7-0.9c6,3.1,8.6,1.2,10,0.3c1.3-0.9-0.6-2.1-0.6-2.1c-0.1,2-2.6,2.8-4.5,2.2s-3.7-1.5-6.5-2.6
		c-2.8-1.2-6.3-0.6-9.5,0.1c-3.2,0.7-3.7,0.4-4,0.1c-0.3-0.3-0.5-1.1-2.1-0.4c-1.7,0.7-5.5-1.1-7.9-1.7s-6.3-0.3-9.8,1.6
		s-5.1,1.4-6.1,0.9c-1-0.5-1.7-1.7-0.6-2.9c1.1-1.1,1.2-1.5,1.1-3.1c-0.1-1.7-1.7-2.6-1.7-2.6c1.5-1.5,1.9-1.9,1.3-2.6
		c-0.5-0.7,0.3-0.7,1.1-1c0.9-0.4,0.5-0.4,0.3-0.9c-0.2-0.5-0.7-0.4-0.7-0.4c-2,0.1-3.1-0.5-3.1-0.5c-3.3-1.5-6.3,1.4-6.3,1.4
		c-1.9-1.4-2.3-0.5-2.6-0.2c-0.3,0.4-1,0.6-1.9,0.7c-0.8,0.1-2,0.4-2.4,1.1c0,0-0.4,0.6,0.1,1.3c0,0,0.5,0.8-0.4,1.7
		c-0.9,0.9-1.3,1.2-1,2c0.3,0.9,0.2,1.6-0.2,2.1c0,0-0.4-0.5-0.3-1.1c0.1-0.6,0.1-1,0-1.3c0,0-0.9,0.9-1.1,1.5c0,0-0.4-1,0.9-2.3
		c1.3-1.3,1.9-2,1.6-2.5C349.2,200.4,348.3,201,348,201.1L348,201.1z"/>
	<path d="M351.8,215.8c0,0-1.7-1.3-1.5-3c0.2-1.8,0.2-2,0-2.3c0,0-0.3,0.2-0.3,0.9c0,0.6-0.1,1.3-0.1,1.4c0,0-0.9-1.5-1.2-1.7
		c0,0,0.3-1.5-0.2-2.2c-0.5-0.7-0.9-0.7-1.5-0.5c-0.8,0.3-1.3,1,1.2,3.1c0,0,0.9,0.8,1.6,2.4C350.5,215.4,351.6,215.7,351.8,215.8z
		 M360,210.9c0,0-0.1-1,0.8-2.8c0.9-1.8,0.4-3.1,0.2-3.5c-0.2-0.4-0.3-0.3,0.6-1c1.1-0.9-0.4-2.1,1.4-3.7c0,0,1.2-1,1.5-1.5
		c0,0-1.9,1-3.2,1.6c-1.3,0.5-6.1,2.9-5,4.5c1.1,1.6,0.9,1.7,0.8,2.3c0,0-2.9-1.5-1.9-4c0,0,0.5-1,1.7-2.1c1.1-1,0.4,0.2,2.7-1.1
		c0,0,1.8-1.1,2.7-2.5c0,0-1.2,0.7-1.6,0.9c0,0-2.6,0.5-3.6,1.6c-1,1.1-3.2,3-2.5,5.1c0,0-2.6-0.3-3.2-3c0,0-4.8,5.9,5.2,8.6
		C356.5,210.3,358.4,210.8,360,210.9z"/>
	<path fill="#FFC221" d="M404,191.3c3.7-0.6,25.4-3.8,27.3-4c2.2-0.2,3-0.5,3.7,1.2c0.8,2-3,2-3,2l-25.8,2.9
		c-1.3,0.1-1.5-0.3-1.5-0.3c-0.2-0.4-0.7-1-1-1.3C403.7,191.8,403.4,191.4,404,191.3L404,191.3z"/>
	<path fill="#5A3719" d="M351.2,203c0,0-2.8,5.9,8.2,7.3c0,0,0-0.7,0.5-1.6c0.4-0.9,1.4-2.8,0.5-4c-0.9-1.2,0.7-0.6,1-2.1
		c0.2-1.6-0.2-1.4,0.6-2.4c0,0-3.4,1.2-4.8,2.8c-1.3,1.5,1.8,2.7-0.1,4.3c0,0-1.5-0.6-2.4-2.2C354.6,205.1,352.5,205.2,351.2,203
		L351.2,203z"/>
	<path d="M361.9,210.3c0,0,2.7,2.3,5.9,2.2s4.6-1,5.4-2.2c0,0,0.6,1,0.6,1.6c0,0,2.8-2.3,7.6-0.3c4.8,2,3.3,1.5,4.4,1.6
		c0,0-2-0.4-6.7,1.8C374.3,217.2,361.8,216.4,361.9,210.3L361.9,210.3z"/>
	<path fill="#5A3719" d="M357.4,199.9c0,0,1.2,0.2,2.4-1.2C359.8,198.7,358.2,199,357.4,199.9z M348.2,210.8c0,0-2.3-1.8-0.8-2.1
		C347.4,208.7,348.4,208.5,348.2,210.8z"/>
	<path d="M397.5,221.9c0,0,1.2-2.2,4.7-2.2c3.5,0,3.9,1.6,8.3,1.9c0,0-5.3,1.5-8.9,0.1C399.6,221.1,397.8,221.7,397.5,221.9z"/>
	<path fill="#5A3719" d="M363.1,211.8c0,0,5.2,3.2,9.8-0.3c0,0,0.4,0.4,0.7,1.2c0,0,3.5-3.4,9.8,0.3c0,0-0.8-0.1-3.7,1.2
		C375.8,215.9,366.2,217,363.1,211.8z"/>
	<path d="M383.1,215c0,0,5,0.6,9.2,0.3c2.6-0.2,5.4-0.6,4,0.2c-1.4,0.9-0.7,1,5.2,0.4c6-0.6-0.1,1.1,4,1.7
		C405.6,217.6,395.7,222.7,383.1,215z"/>
	<path fill="#5A3719" d="M396.2,211.8c0,0,2.9-1.1,5.6,0.2c2.7,1.3,2.3,1.4,4.1,1.6c0,0-1.3,1.8-4.2,0.3
		C398.7,212.5,397.9,212.2,396.2,211.8z M399.5,220.8c0,0,2.9-1.4,6,0.1c0.4,0.2,1.3,0.5,2.1,0.7c0,0-2.4,0.8-4.9,0
		C401.6,221.3,400.8,221,399.5,220.8L399.5,220.8z M385.3,215.7c0,0,6.4,0.6,9.9-0.1c0,0-4,1.9,6.1,1c0,0,2.2-0.2,2,0.1
		c-0.3,0.3-0.4,0.6,0.7,0.9C403.8,217.7,396.3,221,385.3,215.7L385.3,215.7z"/>
	<path d="M353.3,210.3c0,0,0.1,0.5,1.5,1.1c1.4,0.6,2.2,1.8,2.5,2.4c0.3,0.6,1,1.5,2.2,1.8c0,0-5,1-7.3-1.6
		C352.2,214,350.5,212.1,353.3,210.3"/>
	<path fill="#5A3719" d="M392.8,221.8c0,0-2-0.1-4.7-1.1c-2.7-0.9-3.4-0.1-4.9-1.3c-1.5-1.1-4.6-0.4-5.2-0.3c-0.6,0.1-2.2,0-0.2-1.3
		c0,0-1.6,0-2.3-0.9c0,0-0.7,0.7-3.5,0.5c0,0,1.2,1.9-3.7,1.4c0,0,1.5,1.7,3.3,2.1c1.8,0.3,2.5,0.2,3.7-0.1c0,0-0.3,1.5,2,2.1
		s2.8,1,3.9,1.5c0,0,0.2-1-2.9-3.2c0,0,1.6-0.1,4,0.5C384.6,222.2,389.9,223.5,392.8,221.8L392.8,221.8z M394,224.1
		c0,0,0.5,1.1,2,0.9c1.5-0.3,4-0.7,6.4,0.5c0,0,0.4-2-4.4-2.2C398,223.3,395,223.5,394,224.1L394,224.1z M353.1,211
		c0,0-1.9,1.5-0.2,3.1c1.5,1.5,3.9,1.3,5.1,1.3c0,0-0.7-0.4-1.3-1.3c-0.6-0.9-0.6-1.5-1.9-2.1C353.5,211.4,353.4,211.2,353.1,211z
		 M351.2,203c0,0-2.8,5.9,8.2,7.3c0,0,0-0.7,0.5-1.6s1.4-2.8,0.5-4c-0.9-1.2,0.7-0.6,1-2.1c0.2-1.6-0.2-1.4,0.6-2.4
		c0,0-3.4,1.2-4.8,2.8c-1.3,1.5,1.8,2.7-0.1,4.3c0,0-1.5-0.6-2.4-2.2C354.6,205.1,352.5,205.2,351.2,203L351.2,203z"/>
	<path d="M380,216.6c0,0,2.3-0.4,8.1,1.8c5.9,2.2,8.3,1.6,9.2,1.6c0,0-3.3,1.7-8.4-0.5C384.4,217.5,384.1,218.2,380,216.6L380,216.6
		z"/>
	<path fill="#FFC221" d="M416.6,215.3c0,0,1.3,0,2.1,0.3c0,0,0.5-0.4,1.7-0.6C420.5,215,419.7,214.2,416.6,215.3z M412.6,212
		c0,0,1.3-0.1,1.7-0.7c0,0-0.7-0.9-1.7-1.3C412.7,210.1,412.9,211,412.6,212z M367.7,197.1c0,0-0.2-0.7,1.1-0.9
		c1.4-0.2,19.6-2.8,19.6-2.8s1,0,1.1,0.6c0.1,0.7-0.1,1.2-4.5,1.7c-4.4,0.5-16,2-16,2S367.8,197.9,367.7,197.1z"/>
	<path fill="#FFC221" d="M385.4,196.3c0,0,0,2.6,2.6,3c2.5,0.4,3.4-0.2,4.1-1.5c0.2-0.4,1-3-0.2-3.3c-0.4-0.1-1.2,0-1.8,0.2
		c-0.9,0.4-1.7,0.8-1.4,1.3c0.6,0.9,0.7,1.2,0.5,1.2c-0.6,0.2-1.1-0.4-1.2-0.8c-0.2-0.5,0.3-0.8-1.4-0.5
		C386,196,385.4,196,385.4,196.3L385.4,196.3z"/>
	<path fill="#FFC221" d="M396.4,194.3c1.3,0.2,1.2,3-0.4,4.3c-1.7,1.4-3.4,0.9-3.4,0.9c-0.9-0.4-0.8-0.2-0.1-1.3
		c0.6-1,0.9-2.3,0.6-3.2c-0.1-0.3,0.2-0.5,0.6-0.6C393.8,194.4,395,194.2,396.4,194.3z"/>
	<path fill="#FFC221" d="M397.5,194.6c0,0,1,1.2-0.2,3.4c0,0-0.5,0.7,0.7,0.6c1.2-0.1,3.8-1.4,3.6-3c0,0-0.1-0.4-0.8-0.4
		c-0.7,0-0.1-0.4,0.2-0.5c0.3-0.1,1.2-0.4-1.1-1.9c0,0-0.4-0.3-0.8-0.2c-0.4,0.1-1.6,0.6-1.6,1.4
		C397.3,194.3,397.5,194.6,397.5,194.6L397.5,194.6z"/>
	<path fill="#FFC221" d="M400.1,192.5c0,0,1.9,1.3,1.9,1.7c0,0.4-0.2,0.9,0.3,0.9c0.5,0,2.5-0.5,2-1.8c-0.6-1.3-1.1-1.8-2.1-2.1
		c-0.9-0.3-1.2,0.1-2,0.7C400.2,191.9,399.6,192.3,400.1,192.5z M390,194.4c0,0,0.3-1-1.4-1.4c0,0,0.7-0.6,2.1-0.3
		c1.4,0.3,1.3,1.2,1.3,1.4C392,194.1,390.9,194.1,390,194.4L390,194.4z M393.6,194.2c0,0,1.9-0.3,2.8-0.2c0,0-1-2.1-3.5-1.4
		C392.9,192.5,393.8,193.6,393.6,194.2L393.6,194.2z M397,193.7c0,0,0-0.7,1.6-1.3c0,0-0.8-0.8-1.9-0.7c-1.3,0.1-1.5,0.5-1.5,0.5
		S396.5,192.7,397,193.7z M397.6,191.4c0,0,1,0.3,1.7,0.8c0,0,1-1.1,1.8-1.3C401,190.9,399.4,190.1,397.6,191.4z"/>
	<path fill="#5A3719" d="M343.9,186.3c0,0,4.5-3.8,7-3.4c2.5,0.5,1.3,0.1,4-0.3c2.8-0.4,5.6-0.7,6.8-0.6c0,0-3.3-2.4-9.3-2.4
		c0,0-4.2,1.5-7.1,3.4c0,0-5.6-3.1-11.3-1.2C334,181.8,340.2,184.1,343.9,186.3L343.9,186.3z"/>
	<path fill="#FFC221" d="M391.8,192.9l0.8-0.1c0,0,1.3,1.6,0.3,1.6c-0.7,0-0.4-0.2-0.6-0.7C392.2,193.2,392,193,391.8,192.9z
		 M386.2,193c0,0-0.5,0.6,0.4,0.4c1-0.2,0.8,0,2-0.7c0,0,0.7-0.7,2-0.3c0,0,1.1,0.4,2-0.1c0.9-0.4,1.1-0.4,1.6-0.4
		c0.5,0,0.4,0.1,1.1-0.3c0.6-0.5,1.7-0.1,2.4-0.7c0.7-0.6,1.6-0.1,0-1.2c0,0-0.3-0.3-0.3-0.6c0,0,0.6,0.2,1.1,0.6
		c0.5,0.4,1.3,0.3,1.4,0.2c0,0,0.1-1.4,1.5-2.7c1.4-1.3,1.4-1.4,0.6-1.4c-0.8,0-2.2-0.3-2.7,0c-0.5,0.3-4.6,3-6.9,3.5
		C389.9,189.8,387.7,190.5,386.2,193z M322.7,178.3c0,0,7.3,1.9,8.9,2.7c0,0,0.4-1.2-2.9-2.2c0,0,8.1-0.2,16.6,3.6
		c0,0,4.1-3.5,17.3-2.4c0,0,0-1.2,0.1-2.1c0,0-9.3-0.3-17.8-5.5C344.9,172.5,337.3,176.2,322.7,178.3L322.7,178.3z M363.3,181.8
		c-0.5-7.5,2.4-8.1,2.4-8.1s1.3,0,2.8,0.2c0,0-2.3,2.7-1.7,8c0,0,0.2,0.9-1.7,0.9C363.2,182.8,363.3,181.8,363.3,181.8z"/>
	<path fill="#5A3719" d="M365.2,186.8c0,0-1.4-1.4-1.5-3.1c0,0,0-0.4,1.4-0.4c1.4,0,1.6-0.1,1.9,0.7c0.3,0.8,1.2,2.5,1.4,2.7
		L365.2,186.8L365.2,186.8z"/>
	<path fill="#FFC221" d="M368.2,183.1c-0.1-1-0.2-1.8-0.2-2.8c0.1-4.2,0.8-3.8,1.1-3.3l1.4,0c0,0-1-4.7-2.3-2
		c-1.2,2.7-1.1,4.4-1,6.6c0.1,1.2,0.2,2,0.4,2.4L368.2,183.1z"/>
	<path fill="#5A3719" d="M384.3,183.1c0,0,2.7,0.4-1.5,1.4c0,0,0.2,5.1,5.2,1.5c0,0,2.9-1.9,5-2.6c0,0,1-0.4,0.9-1.1
		c0,0,0.1-0.9-1-0.7c0,0-0.8,0-1.4-0.2c0,0-0.6-0.7-1-0.4s-1.3,0.1-0.6,1c0.7,0.9,0.9,0.7,1.3,0.4c0.4-0.3,1.9-0.9,0.5,0.4
		c-1.4,1.3-2.6-0.7-3-1.1L384.3,183.1L384.3,183.1z M370.5,183.7l-1.2,0c0,0-0.7,1-1.1-0.6l-0.5,1
		C367.7,184.1,369.2,189.5,370.5,183.7z"/>
	<path fill="#FFC221" d="M368.8,177.3c0,0-0.6,3.6,0.2,5.8l13.2,0.2c0,0-0.2-2.6,0-6h-1.9c0,0-0.3,2.9,0,4.7l-0.3,0
		c0,0-0.2-2.5,0-4.7h-1.5c0,0-0.3,2.7-0.1,4.7h-0.3c0,0-0.2-2.3,0-4.7h-1.5c0,0-0.3,2.4,0,4.6l-0.4,0c0,0-0.3-2.4,0-4.6h-1.7
		c0,0-0.4,2.3,0,4.7h-0.3c0,0-0.4-2.3,0-4.7h-1.7c0,0-0.4,2.6-0.1,4.7h-0.3c0,0-0.3-2.5,0.1-4.7h-1.6c0,0-0.4,2.2-0.1,4.7h-0.3
		c0,0-0.3-1.9,0.1-4.7L368.8,177.3L368.8,177.3z M382.8,183.9c0,0-0.4-6.5,0.9-8.1s1.5-1.3,3.6,0c2.1,1.3,4.8,2.8,5.3,2.9
		s1.1,0.3,1.1,1.5c0,1.2,0.2,1.5-1.6,0.1c-0.3-0.2-1.1-1-1.7-1.2c-1.6-0.5,0.4,0.4,1,1.2c0.5,0.7,0.9,0.6-0.4,1
		C389.5,181.5,385.1,183,382.8,183.9L382.8,183.9z"/>
	<path d="M387.4,179.2c0,0-1-1.2,0.3-1.5c1.2-0.3,1.3,1.9,1.5,3.2C389.4,182.3,387.6,179.7,387.4,179.2z M385.6,184.9
		c0,0-1.4,0.5-0.5,1s3.6-1.7,2.7-1.6C386.9,184.4,385.6,184.9,385.6,184.9z M387.5,182.9c0,0,1.3-0.1,1,0.4
		c-0.2,0.5-0.7,0.2-0.9,0.1C387.5,183.3,386.6,183,387.5,182.9L387.5,182.9z"/>
	<path fill="#FFC221" d="M394.2,181.2c0,0,0.3,2.5,2.5,3.1c0,0,1.2,0.3,1-0.8c0,0-0.2-0.9-0.4-1.3c-0.2-0.4-1-0.6-1.1-0.7
		c-0.1,0-0.2-0.3,0.4-0.1c0.6,0.2,0.7,0.2,0.6-0.2c0-0.4-0.4-0.2-0.9-0.5c-0.2-0.1,0-0.2,0.2-0.2c0.2,0,0.7,0.2,0.7-0.6
		c0,0,0.1-0.5-0.5-0.5c-0.7,0-0.6-0.4-0.4-0.4s1,0.5,1.2-0.4c0.2-0.9-1-0.4-0.8-0.8s1,0.3,1.1-0.3c0.1-0.5,0.8-0.7-0.4-0.9
		c-0.6-0.1,0-0.3,0.6-0.2c0.7,0.1,1.1-0.7,1.5-1c0.4-0.3,2.6-1.6-0.3-1.2c-3,0.4-3.8,1.9-4,2.2C394.8,176.7,394,178.4,394.2,181.2
		L394.2,181.2z"/>
	<path fill="#FFC221" d="M401.1,183.1c0.4-0.1,0.7,0,0.9,0.3c0.5,1-0.6,0.6-1.2,1.4c-0.6,0.7-0.6,0.6-1.5,0.3
		c-0.9-0.3-1.2-1.6-1.2-1.6c-0.1-0.4,0.3-0.4,0.7-0.4C398.8,183.1,400.2,183.3,401.1,183.1L401.1,183.1z M397.9,182.6
		c0,0,0.1,0.3,0.6,0.3c0.5,0,2,0.2,2.8-0.1c0,0,0.3-0.1,0.2-0.6c0,0,0-0.4-0.8-0.2c-0.8,0.1-1.9,0-2.3-0.1
		C398,181.8,397.7,181.9,397.9,182.6L397.9,182.6z M397.8,180.8c0,0,0,0.8,0.8,0.9c0.8,0.1,1.8,0.1,2.2,0c0.3-0.1,0.9-0.2,0.9-0.6
		c0-0.5,0.2-0.8-0.8-0.6c-1,0.2-2.1,0.1-2.3,0.1C398.5,180.5,397.8,180.3,397.8,180.8L397.8,180.8z M398.2,179.2
		c0,0-0.2,0.4-0.2,0.7c0,0.3,0.6,0.5,1.6,0.5s1.9-0.1,2-0.5s0.3-0.7-0.5-0.6c-0.8,0.1-1.8,0.2-2.2,0
		C398.5,179.1,398.2,179.1,398.2,179.2z"/>
	<path fill="#5A3719" d="M435.6,183.2c0,0,0,0.7,0.5,1.4l-28.3-0.8c0,0,0.4-0.3,0.5-1.4L435.6,183.2L435.6,183.2z"/>
	<path fill="#FFC221" d="M398.4,178c0,0-0.2,0.7,0.3,0.9c0.5,0.1,1.4,0.3,2.5,0.1c0,0,0.6,0,0.8-0.6c0.2-0.6,0.2-0.3-1.5-0.6
		c0,0-0.5-0.2,1-0.2c0,0,0.8,0,1-0.1c0.1-0.1,1.2-1-0.2-1c-1.4,0.1-0.7-0.3,0-0.3c0.7,0,1,0.2,1.2-0.1c0.2-0.2,0-0.1-0.4-0.5
		c-0.4-0.4-0.1-0.3,0.2-0.1c0.3,0.2,0.5,0.3,0.8,0c0.3-0.3-0.2-0.7,0-0.6c0.2,0,0.4,0.5,1.3,0.1c0.9-0.5,2.2-0.2,2.5,0
		c0.3,0.3,1.3,0.6,1.9,0c0.6-0.6-0.7-1.1-0.2-1.2c0.5-0.1,0.9,0.1,1.1-0.3c0.2-0.4-0.8-0.9,0.2-1.1c1-0.3,0.2-3.2-0.2-3.4
		c0,0-1.1,0.7-2.4,2.7s-2,3.2-3.7,2.6c-2.5-0.9-3.7,0.4-4.1,0.6c-0.6,0.4,1.2,0.5,0.2,0.6c-1.1,0-1.1,0.1-1.2,0.3
		c-0.1,0.2,0,0.3,0.2,0.3c0.2,0,0.6,0.4-0.1,0.4c-0.7,0-1.1-0.1-0.9,0.6c0,0,0,0.2,0.4,0.2c0.4,0,0.5,0.4-0.2,0.4
		C398.4,177.8,398.4,178,398.4,178L398.4,178z M401,185.1c0,0-0.5,0.4,0.2,0.4c0.7,0,1.1,0.2,1.3-0.2c0.2-0.4,1.2-0.2,0.5-0.7
		C402.4,184.1,402,184.4,401,185.1L401,185.1z"/>
	<path fill="#FFC221" d="M403.9,176.6c0,0,2.4-2.2,4.3-0.7c2,1.5,2.2,1.7,2.2,1.8c0,0,0.2,0.2-0.3,0.7c-0.5,0.5,0,0.5,0.6,0.2
		c0.6-0.3,0.6,0,0.9,0.3s0.7,0.5-0.2,0.5c-0.9,0-2.9,0-2.9,0s-1.3,0.1-0.7-0.4c0.7-0.5,0.6-1.2,0.2-1.2c-0.3,0,0,0.3-0.2,0.6
		s-0.7,0.5-1.1,0.5c-0.5,0-0.9,0.3-0.1,0.6c0.7,0.3-0.1,0.4-0.5,0.4c-0.4,0-2.2,0.1-0.4,0.4c1.9,0.2-0.2,0.2,1.2,1
		c1.5,0.9,0.4,2.7-0.2,2.9c0,0-0.6,0.3,0.2,0.2c0.8-0.1,1.2-0.2,0.7,0.2c-0.6,0.4-1.7,1.9-3.2,0.8c0,0-0.7-0.3,0.6-0.4
		c1.3-0.1-1-0.3-1.4-0.6c-0.4-0.3-1.8-1.8-0.9-1.6c0.9,0.2,0.6-0.3,0-0.5c-0.5-0.2-0.7-1,0-0.8s1.3,0.5,1.8,0.5
		c0.5,0,0.4-0.2-0.7-0.6c-1.1-0.3-1.5-0.4-1.2-1.3c0.2-0.9,1.4,0.3,1.1-0.3s-1.3-0.3-0.7-1.2c0.5-0.9,0.7-0.5,0.9-0.4
		c0.2,0.1,0.6,0-0.1-0.5C403.3,177.2,403.8,176.7,403.9,176.6L403.9,176.6z"/>
	<path d="M405.6,177.2c0,0,0-0.3,0.4-0.2c0.4,0.1,0.3-0.2,0.4-0.2c0.1-0.1,1.2,0.3,0.2,0.7C406.3,177.6,405.7,177.5,405.6,177.2
		L405.6,177.2z"/>
	<path fill="#FFC221" d="M407.9,179.7c0,0-0.8,0.4-0.1,1.2c0.6,0.7,0.6,0.9,0.6,1.4c-0.1,0.5,27.3,0.8,27.3,0.8s0-1.8,1.1-2.7
		C436.8,180.4,421.8,180.1,407.9,179.7L407.9,179.7z"/>
	<path fill="#5A3719" d="M436.1,182.7c0,0,0.1-1.5,0.9-2c0.5-0.3,1-0.1,1.3,1.1c0.4,1.7-1.1,3.1-1.7,2.5
		C436,183.7,436.1,182.7,436.1,182.7L436.1,182.7z"/>
	<path fill="#7B3C20" d="M404.8,189.1c0,0,1.8-1.5,2.1-2.2c0,0,4.9,3.5,4.6,0.3c0,0,0-0.9,0.2-1.7c0,0,1.8,0.2,2.1-1.2l-4.6-0.1
		c0,0-0.5-0.1-1.2,0.7c-0.7,0.8-2.2,1.6-3.5,0.9c0,0-0.6-0.5-1.2-0.1c-0.6,0.4-0.6,0.5-0.1,1C403.6,187,404.6,188.3,404.8,189.1
		L404.8,189.1z M415.4,179.4l-2.7-0.1c0,0-1-1.4-2.9-2.9c0,0-0.6-0.2,0.5-1.1c1.1-0.9,1.4-1.8,1.4-2.2c0-0.4-0.1-1.1,0.3-0.6
		c0.4,0.5,3.2,3,3.6,2.3c0.4-0.7,0.5-1.1,0.5-1.3c0.1-0.2,0.2-0.9,0.6-0.2c0.4,0.7,0.7,0.5,0.7,2.4c0,0,0.1,1.9,0.4,2.5
		C417.8,178.3,414.3,177.1,415.4,179.4L415.4,179.4z M403.7,173.7c0,0,2.1,1.1,3.1-0.4c1-1.6,1.7-1.8,0.9-3.3s0-2.2,0.6-2.8
		c0.6-0.6,1.1-0.5,1.2-2.9s1.7-3.2,2.5-3.9s2.6-1.9-0.2-2.3c-2.8-0.5-8.4-1.9-9.8-4.1c-1.4-2.2-2.1-0.9-2.1-0.8c0,0.1-0.5,1.7,1,4.6
		c1.4,2.9,2.7,4.7,4.1,5.7c1.4,0.9,2.7,1.4,1.9,3.4C405.9,168.7,404.7,172.2,403.7,173.7z"/>
	<path fill="#5A3719" d="M411.2,167.6c0,0,0.4,4.9,4,6.7c0,0,0.8-1.9,0.5-3.8c0,0,1.2,0.1,1.5,0.6c0,0,0.1-1.4-1.6-2
		c-1.7-0.5-0.9-3.7-0.3-4.1c0.6-0.4,0.4-1,0-1.6c-0.4-0.6-0.5-1.5,0.9-1.1c1.4,0.4,1.2-0.4,0.4-1.1c-0.8-0.7-0.8-1.6,0.4-1.6
		s3.2-1.2,2-1.5c-1.2-0.4-1.6-0.8,0.1-1.2c1.6-0.5,2.4-1.1,1.2-1.2c-1.2-0.1-2.1-0.6-0.8-0.8c1.2-0.2-0.2-1.4-1.6-1.5
		s-4.4,0.5-2-1.4s-3.4-0.5-1-1.8s-0.8-0.7-1.2-0.7c-0.4,0-0.4,0-0.3-0.6c0.2-0.6-0.3-0.9-1-0.5s-0.7,0.4-0.7-0.5
		c0-0.9-0.8-0.2-1.3,0c-0.5,0.2-1.8,1.2-2.4,0.7c-0.5-0.5-0.8-1.1-2.4-0.1c-1.6,1-1.2,0.1-1.2-0.3c0-0.4,0.6-2.1-1.6-0.3
		c-2.2,1.8-0.4-2-2.2-0.7c-1.8,1.3-1.9,1.5-2.2,0.9c-0.3-0.6-0.6-1-2.5,0.2c-1.9,1.2-0.5-0.7-0.2-1.2s1.1-3.2-0.6-1
		c0,0-0.8,1.5-2.7-1.2c0,0-1.9,2.7-2.4,1.5c-0.5-1.2-1-1.3-1.6-0.5c-0.6,0.8-0.2,0-0.4-0.7c-0.3-0.7-0.4-1.9-3.7,0.5
		c-3.2,2.4,1.1,0.6-1.3,1.7c-2.5,1.1-8.4,4.4-3,3.6s-2.7,2.1-0.8,2.7c1.9,0.5,1.3,2.2,8.4,0.2s5.9-0.3,9.5-1.9
		c3.6-1.6-0.8,0.5,4,0.4c4.8-0.1,0.8,0,1.8,1c0.9,1,5,3.4,8.9,3.8c3.8,0.4,4.8-1,3.7,0.6c-1.1,1.7-1.5,2.3-2.1,2.9s-2.5,1.9-2.5,4.2
		c0,2.3-3,2.7-1.9,5.2C408.6,170.1,410.3,168.5,411.2,167.6L411.2,167.6z"/>
	<path fill="#5A3719" d="M417.5,173.1c0,0-0.9-0.6-0.9-1.7c0,0,0.6,0.1,0.9,0.5c0,0,2.2-2.5-0.4-3.4c-2.6-0.9-1.3-3.3-0.4-3.3
		s1-0.3,0.3-1.3c-0.8-1-0.7-1,0.8-1.3c1.5-0.3,1.3-0.6,0.6-0.9c-0.7-0.4-1.2-1-1.2-1s4.2-1.8,2.9-2.7c-1.4-0.8,0-0.6,1.2-1.5
		c1.2-0.9,1.4-1,1.6-1.4c0,0-1.2,0.1-2.1-0.1c0,0,1.1-0.5,0-1.4c-1.1-0.9-1.5-1.6-3.2-1.2c-1.7,0.4-1.1-0.2-0.5-0.9
		c0.7-0.7,0.3-1.1-0.8-1.3c0,0,0.1-0.7,1-1.6c0,0-2.3,0.2-3-0.2c0,0,0.9-0.6,1-1.4c0,0-1.3,0.4-2.8,0.3c0,0,0.9-0.8,0.9-1.5
		c0,0-2.8,0.6-4,1.6c0,0-0.3-0.1-0.5-0.4c-0.2-0.3-0.4-0.6-3.4,0.4c0,0,0.3-1.4,1.1-1.9c0.7-0.5,0.6-1.6-4.1,1.3
		c0,0-0.6-0.4-1.2-1.8c0,0-1,1.4-1.8,1.9c0,0-0.7,0.3-0.6-0.6c0.1-0.9-0.5-0.3-1,0c-0.5,0.3-0.8,0.9-0.6-0.9
		c0.2-1.9-0.7-2.3-0.7-2.3s-1.5,2.1-2.3,2.3c0,0-1.6-1.5-2.1-2.5c-0.5-1-0.5-1.4-1.1,0.4c-0.5,1.7-1.2,1.9-1.2,1.9s-0.9-0.8-1-1.2
		c0,0-0.2,0.5-0.5,0.7c0,0-0.8-1-0.8-2.4c0,0-5.1,2.8-5.7,4.5c0,0-4.8-0.3-6.8,0.1c0,0,0.5-1.6,1.8-2.3c0,0-1.3-0.1-1.3-1.4
		c0,0,1,0.1,1.6,0c0.6-0.2-0.9-2,0.7-2c1.6,0,2.6,0.8,1.9-1.4c-0.7-2.1-0.4-2.1-0.4-2.1s2.8,1.6,3.2,1.2c0.4-0.4-0.4-1.3,2.1-0.9
		c2.5,0.4,1.8-1,2.7-1.1c1-0.1,1.5,0.6,0.9-3.8s3,2.2,0.5-4.5c0,0-0.6-2-2.1-2.9c0,0-0.3,1.5-2,0.2s-4.9-1.8-3.5-2.8
		c1.4-1,2-2.4,1.6-3.3c0,0-1.6,1.7-4.4,0.5c-2.2-1-2.7,0.8-4.9,0.3c0,0,0-0.6,2-2.1c1.9-1.5-1.1,0.5-2.3,0.8s-1.5,0.1,1-1.9
		c2.5-1.9,7.5-5.4,6.8-8.2c0,0,1.2,1.5,4.3,0.4c3.1-1.1,5.4-1.5,6.3-3.1c0.9-1.6,3.4-3.2,4-3.6c0.6-0.3,1.5-0.6,0.5,0.9
		c-1,1.5-2.5,4.1-6.8,5.9c-4.3,1.8-5.9,3-6.7,4c-0.8,0.9-4.6,3-2.1,2.6c2.5-0.3,6.9,0.1,4.8-0.5c-2.1-0.6-4.4,0.4-2.5-1.4
		c1.9-1.7,2.2-2.3,4.9-3.4s5.8-3.8,5.5-1c-0.3,2.8-5.4,5.8-6.6,6.7c-1.3,0.9-0.8,0.8-0.8,1.1c0,0.4-0.2,1.1-0.7,1.5
		c-0.5,0.3-0.4,0.7-0.2,1.5c0.1,0.8-0.1,1.1,0.2,1.2c0.4,0.1,0.8,0.2,0.9,0.7c0.1,0.6,0.4,0.6,1.1,0.6c0.7-0.1,1.2,0,1.3,0.4
		c0.1,0.4,0.8,1,0.8-0.3c0.1-1.3,0.6-1.6-0.8-1s-1.6,0.4-1.6-0.2c0-0.6-0.1-0.5-0.7-0.5c-0.6-0.1-0.8-0.8,0.2-1.4c1-0.5,1,0,2.2-1
		c1.2-1,1.2-1.3,1.4-1.8c0.2-0.5-1.8,1.4-2.7,1.8c-0.9,0.4-0.7-0.3-0.5-1.4s2.5-2.5,3.6-2.5c1.1,0,3.5,0.6,2.5,2.1s-4,3.2-2.7,3.4
		c1.3,0.1,1.5-0.4,2.2,0.3s0.1,2-0.3,2.7s-1.1,1.6-1.4,1.8c0,0-1.4-2.4-1.3-0.5s-0.3,2.6,0,2.7c0.3,0.1,1.8,1.1,2.3,1.1
		c0.5,0-2.6,1.4-1.3,1.5c1.3,0.1,3.3-0.6,4-1.9c0,0-2.6-0.6-3.7-1.6c0,0,3-0.7,2.2-3.7c0,0,3,0.8,1.7,2.2c-1.3,1.4-2.1,1.2-1,1.6
		c1.1,0.4,1.7,0.7,1.7,0.7s0.8,0.4,0.3,1c-0.4,0.6-0.5,1.6-0.1,1.6c0.4,0,1.7-0.6,0.6-1.3c-1.1-0.7,1.2-0.5,0.2-1.1
		c-1-0.6-1.2-0.7-1.5-1c-0.3-0.3,12.4-7.7,6-4.9c0,0,1.3-2.9,3.2-2.9c1.9,0,2,1.5,0.9,2.6c-1.1,1.1-1.7,2.9-4.2,3.3
		c0,0,3.5,1.7-0.6,4.6c0,0-0.9,0.4-0.6,0.7c0.3,0.3,2.8-1.1,3.2-1.9c0.3-0.8,0.9-1.4,1.8-1.9c0.9-0.5,5.6-3.6,7-6
		c1.4-2.4,1.8-2.5,4.5-4.7s2.3-1.8,2.6-2.3c0.3-0.5,0.5-1.4,1.8-2.1c1.3-0.7,6.1-3.4,7.7-4.5c1.5-1.1,4.7-3.1,6-4.9
		c1.3-1.7,5-3.9,5.9-3.5c0.9,0.4-0.1,1.7-2.2,3.3c-2.1,1.6-7.4,5.9-8.3,6.5c-0.9,0.7-5.3,3.9-7,4.1c-1.7,0.2-1.5,0.8-2.5,1.9
		s-3.3,3.4-4.1,4c-0.8,0.6-2.6,1.9-2.8,2.8c-0.1,0.9,0.3,1-1.2,2.4c-1.5,1.4-5.9,4.6-7.5,5.1c0,0,2.8,0.9,1.1,2.8s-1.6,1.6-1.7,1.7
		c0,0,4.3-0.6,1.2,2.7c0,0-0.6,1,0.8,0c1.4-1.1,0.8-2.5,0.7-2.7c0,0,2.3-1.4,4.9-1.4s2.5-0.2,0.2-0.9c0,0,1.7-2,3.1-1
		s0.9,1.6-0.5,2.4c-1.5,0.8-3.7,1.1-5.3,2c0,0,3.1,0.6,4.7-0.7s1.7-0.6,2-0.4c0.2,0.2,0.4,0.6-0.3,1.7c-0.7,1.1-0.8,1.1-0.8,1.3
		c0,0.2-0.1,1-1.5,1.2c-1.5,0.2-2.2,0.9-1.7,1.6c0.5,0.7,0.5,2.5-0.7,2.3c-1.3-0.2-0.9-1.2-1.4-1.6c-0.5-0.4-1.2-1-3.4,0.2
		c-2.2,1.2-2.4-0.2-2.3-0.9c0,0-1.4,1.3-2.6,0.1c-1.2-1.2-0.1-1.6,0.6-2.2c0.7-0.6,3.5-1.8,1.8-1.6c-1.7,0.2-4.2,0.3-4.8-1
		c-0.6-1.3,1.3-1.2,1.5-1c0.3,0.1,1.5,1.1,1.5-0.2c0-1.3,1.9-1.4,1.3-1.7s-1.5,0.5-1.8,0.9c0,0-1.3-1.8-3.4-1.2s0.7,0.4,1.2,0.5
		s0.2,1.1-1.7,2.9c-1.9,1.7-1,1.2,0.4,1.2c1.4,0,4.8,0,2.8,1.7c-2,1.6-2.8,2.5-3.8,2.2s0.1-1,0.6-1.3s0.7-0.8-0.3-0.4
		s-1.3,0.4-2.1-1c-0.8-1.4-0.5-1-0.1-1.9c0.3-0.9,1.1-1.9,0.2-1.5c-0.9,0.3-0.8,0.4-0.7-0.7c0.1-1.1-1-1.3-1-1.3s0.4,1.1,0,1.7
		c-0.4,0.7-0.4,0.9,0.2,1.1c0.7,0.2,1.3,0.7,0.4,1.4c-0.9,0.6-0.8,0.5-0.2,0.9c0.6,0.4,1.4,0.8,0.5,1.7s-0.1,0.6,0.3,0.6
		c0.4,0,1.4,0.4,1.4,1.2c0,0.8-0.1,1.1,1.4,0.3s4.3-0.7,4.2,0.4c0,1.1-0.4,1.4,1.1,0.4c1.5-0.9,2.2,0.9,3.2,0c1-0.9,1.7-1.7,2.9-0.2
		c1.2,1.5,0.8,2-0.6,3c-1.5,1.1,0.7,0.2,1.8-0.3c1.1-0.6,4.2-1,6-0.2c1.8,0.8,2.3,0.6,3.6,0.1s2-0.7,4,0.7c2,1.3,3.5,1.6,4.6,1.5
		c0,0-2.2,0.9-4.7,1s-3.7,0.6-4.2,1c0,0,1.5,0.9,1.8,2c0,0,1.6-0.2,2.4,0.1c0,0-0.4,1.2,0.6,1.8c1,0.6,1.7,0.9,0.9,1.7
		c-0.7,0.9,1.1,0.5,0.1,1.7c-1.1,1.2-1.4,1.8-1.4,2.8c0,1,0.2,1.1-0.7,1.2c-1,0.1,0.2,1.2-0.3,2.5c-0.4,1.3-3.1,1.1-3,4.6
		c0,0,0.7-1.7,2.4-3.2s1.7-1.6,1.6-2.5s-0.1-0.7,0.7-1.4s-0.4-1.3,0.5-2.3c0.9-1,0.1-0.8,1.1-1.7s-0.9-1.1,0.1-2.1s-2.5-2.1-1.5-2.8
		s2.7-1.5-3.1-1.4c0,0,1.4-2.3,6.3-1.8c0,0-1.3,0.9-1.4,1.8c0,0,0.6,0.3,0.9,0.4c0,0-0.2,0.7-1.1,1.5c0,0,2.6,1.5,3,2.3
		c0,0-1.6,0.5-2,1.2c0,0,0.7,0.8,0.9,1.8c0,0-1.8-0.2-2,1.1c-0.2,1.3-0.8,0.4-0.8,1.2s0.1,1.1-0.6,1.2s-0.1,0.8,0,1.2
		c0.1,0.4,0.3,1.4,0.2,1.7c0,0-0.9,0-1.3,0.1c0,0,0.3,1.9-0.8,2.2c-1.1,0.3,0.6,0.7-0.6,0.9c-1.1,0.2-1,0.3-2.4,2.8
		c0,0,1.2-0.7,2.4-1.5c1.2-0.8-0.1-0.6,1.9-2.6c2-2,1.7-2.1,1.5-3.2c-0.2-1-0.2-1.8,0.5-2.8c0.7-1,1-2,3.6-1.9c0,0-0.8-1.7-1.7-2.2
		c0,0,1.2-0.9,2.6-1c0,0-1.1-1.4-3.5-2.7c0,0,1.9-1.7,2.4-2.5c0,0-0.9,0.1-1.6,0c0,0,0.3-0.8,2.1-1.9c0,0,0.9,0.9,0.9,1.8
		c0,0,3-1.7,4.7-1.5c0,0,0.9,2.2-3.3,6.2c0,0,2.6,0.2,3.7,0.1c0,0-0.6,2-3.7,3.2c-3.1,1.2,0.7,2.5-2.5,2.3s-2.2,0.9-2.1,2.5
		c0.1,1.6,0.2,3.3,0.1,3.7c0,0-2.6-0.8-2.5,1.6c0.1,2.5-1.3,3-1.6,3.2c0,0-0.7-0.7-1.9-1.1C421.7,168.3,420.1,171.3,417.5,173.1
		L417.5,173.1z"/>
	<path fill="#7B3C20" d="M413.9,142.1c0,0,0.9-0.1,2.4,0.8c1.5,0.9,2.9-1,1.3-1.5c-1.6-0.5,0-1.1,1.5,0.1c1.5,1.2,2.1,0.6,2.6,0.2
		s1.2-0.6,0.2-1.3c-1-0.7,0.7-0.4,1.4,0.1c0.8,0.5,0.5,1,0.4,1.1c-0.1,0.1-0.2,1.7,1.3,0.2c1.5-1.5,2.2-3,2.2-3.7
		c0,0,0.8,0.5,0.9,1.5c0.1,0.9,1.3-0.5,1.6-1c0.4-0.5,1-1.8,1-2.8c0,0,1,1.6,2.5,0c1.5-1.6,0.8-0.6,2.7-1.1c1.8-0.5,4.1-1.8,5.3-3.3
		s1.3-0.5,2.9-0.9c1.6-0.4,4.8-2.6,5.1-3.8c0.3-1.2,0.2-1.9-0.2-1.5c-0.5,0.4-0.3,0.1-1-0.3c-0.7-0.4-1.7,0.6-1.7,0.6s1,0.8,0.2,1.1
		c-0.8,0.3-1.5,1.4-3,1c-1.4-0.4-3,1.3-3,1.3s1.3,1-0.4,1.7c-1.7,0.7-1.4,0.9-2.5,0.2c0,0-1.8,2.3-2.8,2.8c0,0-0.5,0-0.8-0.5
		c0,0-1.2,1.3-1.8,1.6c0,0-0.7-0.7-1.4-0.9c0,0-1.4,1.8-2.6,2.3c0,0-0.4-0.7-1.1-1.1c0,0-0.4,2.3-2.9,3.7c0,0,0.2-0.6-1.1-1.5
		c0,0-3.1,2.7-4.3,3c-1.2,0.3-0.1-0.6,0.1-0.9c0.2-0.3,0.9-1.5-0.6-2c-1.5-0.5-1.3,0.3-1.6,0.5c-0.3,0.1-0.4-0.3-1.4-0.1
		c-1,0.1-0.8,0.6-1.3,0.8c-0.4,0.2-2.2-0.3-2.1,0.9s0.9,2-0.6,2.6C409.8,142.6,411.9,142.4,413.9,142.1L413.9,142.1z"/>
	<path fill="#5A3719" d="M420.2,138.8c0,0,0.4-1.5-0.9-2.2c0,0,8.3-1.3,2-4.4c0,0,7.4-1.5,5.7-3.9c-1.8-2.4-3.5-1.8-3.7-1.8
		c-0.3,0,1.6-1.4,2.1-1.2c0.5,0.2,6.5,2.5,4.9,0.5c-1.5-2-1.4-1.8-1.6-2.4c0,0,2,0,4.9,2.9c0,0,0.6-0.7,0.5-1.8c0,0,2.1,0.6,2.8,1.2
		c0,0,0.4-0.7,0.2-1.1c0,0,1.8,1,2.5,2c0,0,0.8-0.7,1-1.6c0,0,1.8,0.8,2.3,1.3c0,0,0.6-0.8,0.4-1.9c0,0,3,0.9,3.4-1
		c0,0,3.1,0.7,1.1,1.9c-2.6,1.5-0.3-0.4-2.9,1.4c-2,1.4-3.2,3.1-4.1,2.7c-0.7-0.3-1.6,1.8-2.6,0.8c-1-1-1-0.6-1.7,0.5
		c-0.7,1.1-1.8,2.1-1.8,2.1s-0.5-0.3-0.9-0.7c0,0-0.6,1-1.4,1.7c0,0-0.6-0.8-1.6-1.3c0,0-1.5,1.7-2.4,2.3c0,0-0.9-0.9-1.8-1.1
		c0,0-0.1,2.4-2,3.6c0,0-0.4-0.8-1.6-1.2C423.1,136.1,422.2,137.6,420.2,138.8L420.2,138.8z"/>
	<path fill="#5A3719" d="M415.9,135.2c0,0-1,0.8-0.4,1.6c0.6,0.8,0.7-0.1,1.5-0.2s10.9-1.8,1.8-4.6c0,0,0.4-0.3,2-0.5
		c1.6-0.1,7.3-1.7,4.6-3.7c-2.7-2-4.9,0.7-2.7-1.8c1.8-2,0.4-2.9,0.4-2.9s-5.3,3.6-6.5,4.2s-2.9,1.9-0.9,2.6c2,0.7,3.4-2.2,3.6-1.5
		c0.2,0.6-4,3-3.4,4.1c0.6,1.1,0.5,2,1.5,1.8c1-0.2,3.9,0.5,1.6,0.5C416.6,134.6,415.9,135.2,415.9,135.2L415.9,135.2z"/>
	<path d="M419.5,130.1c0,0-0.9,0.7,0.3,0.3c1.2-0.3,3.7-0.9,3.2-1.5C422.6,128.3,421,129.1,419.5,130.1z"/>
	<path fill="#7B3C20" d="M435.8,119.6c0,0,4.7-0.1,6.6,1.2c1.9,1.3,2.9,2.2,3.4,2.4c0,0-0.1,1.8-3.1,0.5c0,0,0.2,0.9-0.2,1.7
		c0,0-1.1-0.7-2.4-1.1c0,0-0.2,0.7-0.6,1.1c0,0-1.3-1.4-2.8-1.8c0,0-0.3,0.7-0.6,0.9c0,0-1.6-0.9-2.8-0.9c0,0,0.2,1,0,1.4
		c0,0-3.4-2.7-6.5-2.3c0,0,1.5,2.1,2.4,3.2c0,0-6.2-0.5-5.1-3.8c1-3.3-0.1-2.5,3.9-2.5C432.1,119.6,435.8,119.6,435.8,119.6z"/>
	<path fill="#5A3719" d="M406.9,128.7c0,0-0.7,0.6,0,1.1c0.7,0.5,3.1-1.3,3.5-1.5c0.3-0.2,1.2-0.2,0,0.7c-1.2,0.9-2.4,1.9-3.2,2.9
		c0,0,4.1-1.1,6.7-3.4c2.7-2.3-0.1-0.8,4.4-3c4.5-2.2,6.9-5.7,4.5-5.3c-2.4,0.4-4.6,3.2-6.5,4.2c-1.9,1.1-3,1.2-2.7,0.6
		c0.3-0.6,1.7-0.4,4.3-2.5c2.6-2.1,2-1.9,2.1-2.7s-1-2.6,2.9-4.6c3.9-2,16.1-9.2,17.1-11.6c0,0-3.6,0.4-8.2,3.8
		c-4.7,3.5-7.2,5.1-8.5,5.5s-1.1,0.1-2,1.1c-0.8,1-5.5,5.5-6.3,6.1c-0.8,0.7-1.1,1.1-1.2,2.4C413.8,123.3,408.5,127.2,406.9,128.7
		L406.9,128.7z"/>
	<path fill="#5A3719" d="M423,119.5c0,0-0.9,0.4-1.8,0c-0.9-0.4-0.6-2.3,1.5-3.4c2.1-1.1,5.9-2.8,7.9-3c0,0-0.3,2.4-6.3,4.5
		C424.3,117.5,424.7,118.7,423,119.5z"/>
	<path fill="#AA5323" d="M425.1,117.9c0,0,0.2,0.6,0,1.1c0,0,11.2,1.1,17-5.8c0,0-8,0.7-11.1,2.6c0,0,2-2.5,8-4.6
		c6-2.1,8.4-4.6,8.9-6c0,0-7.5,2.6-11.1,2.6c0,0-0.7,0-1.4,0.4c-0.7,0.4-5.5,3.9-6.8,4.5c0,0,2.7-0.2,3.7-1.1
		C432.3,111.7,430.4,116.8,425.1,117.9L425.1,117.9z"/>
	<path fill="#5A3719" d="M403.6,124.3c0,0-1.4,1-0.8,1.5c0.6,0.5,1.6,0.6,3.8-1.2c2.2-1.8,7.5-6.4,4.2-6.6c0,0-4.3-0.3-4.2,2.4
		C406.8,123,403.8,124.1,403.6,124.3z M393.7,122.8c0,0,2.8,1.7,1.8,3c0,0,8.7-7.4,6.3-9s-4.4,1.4-3.8,1.7c0.6,0.3,1.9-0.3,1.4,0.3
		C398.9,119.4,394.2,122.5,393.7,122.8L393.7,122.8z M391.4,120.4c0,0,1.9,0.6,2,1.4c0.1,0.8,5.8-4,4.3-6c-0.7-0.9-3.9-1.3-4,0.5
		s2.8-0.2,1.8,1.1C394.1,119.1,391.8,120.1,391.4,120.4z M411.9,116.3c0,0-1.2,0.9-0.1,1.4c1.1,0.5,1.8-0.3,2.4-0.8
		c0.5-0.5,3.3-2.5,3.9-3.7c0.6-1.3,1.6-1.7,2.5-2.3c1-0.7,7.9-4.1,12.2-7.9c4.3-3.8,2.5-2.8,6.9-5.3c4.4-2.5,7.3-4.7,8.3-7.4
		c0,0-2.1,0.7-3.9,1.8c-1.8,1.2-5.9,3.7-6.7,4.1s-2,0.4-2.6,1c-0.6,0.6-0.5,1.4-2.7,3.2c-2.1,1.8-13.2,9.5-14.5,10.6
		C416.3,112.1,411.9,116.3,411.9,116.3L411.9,116.3z"/>
	<path fill="#AA5323" d="M403,118.9c0,0,1.2-0.7,3.5-0.5c2.3,0.2,11.2-8.5,13.8-10.2c2.6-1.7,10.7-7.6,11.8-8.7
		c1.1-1.1,1.3-2.2,2.2-2.8c0.9-0.6,1.8-0.5,4-1.8c2.2-1.3,12.7-7.5,12.1-11.2c0,0-15.6,9.4-19.2,12.4c-3.6,3.1-13.6,10-15.4,11.1
		c-1.8,1.1-3.2,3.1-6.2,5.5C406.5,115.1,403.5,117.2,403,118.9L403,118.9z"/>
	<path fill="#AA5323" d="M399.7,115.6c0,0,2.9-0.3,3.3,1.1c0,0,6.2-4.3,7.6-6c1.4-1.7-0.5-0.7,3.1-3.1c3.5-2.3,15.3-10.5,17-12
		c1.7-1.5,4.8-3.4,7.4-5.1c2.6-1.7,12.5-6.6,11.4-10.6c0,0-7.3,4.9-9,6c-1.6,1.1-2.3,0.5-4,1.8c-1.7,1.3-5.4,3.9-6,4.7
		c-0.7,0.8-6.3,5.1-9,7s-8.9,5.4-11.8,7.9C406.7,109.8,401,114.6,399.7,115.6L399.7,115.6z"/>
	<path fill="#AA5323" d="M390.7,114.7c0,0,1.5,0,1.9,0.6c0,0,2.7-2.4,5.6,0c0,0,10.6-7.1,11.6-9s2.8-1.8,6.9-4.8s6.7-4.3,9.4-6.4
		c2.7-2.1,5-4.5,7-5.8c2-1.3,6.9-4.5,6.1-7.3c0,0-4,2.3-6.6,5.2c-2.6,2.9-2.4,0.4-5.1,2.8c-2.7,2.4-6.8,5.7-10.2,7.4
		c-3.4,1.7-1.3,1.5-3.8,3.1s-2.3,1.3-3.2,1.6c-0.9,0.2-2.3,0.9-3.2,1.9c-0.9,1.1-3.4,2.5-6,4C398.4,109.4,391.9,113.3,390.7,114.7
		L390.7,114.7z"/>
	<path fill="#AA5323" d="M393.9,109.2c0,0-0.6-1.2,0.4-2c1-0.8,2.8-3,3.1-4.4c0.3-1.4,0.1-1.2,3-2.4c2.9-1.2,9.6-4.3,13.3-6.6
		c3.7-2.3,9.4-6,10.6-6.9s4-2.9,5.2-3.8c0,0,0.6,1.6-0.7,2.7s-6.1,4.5-6.9,5c-0.8,0.5-5.2,3.5-6.6,4.3c-1.4,0.8-4.8,2.5-6,3.5
		c-1.2,1-1,1.3-6.4,3.9c-5.4,2.6-5.6,2.9-5.5,3.1c0.2,0.2,2.6-0.8,3.7-1.5c1.1-0.7,5.6-2.7,6.9-3.7c1.3-1,3.5-2.7,4.5-3.2
		s8.9-5.3,11.2-7c2.3-1.7,2.9-2.2,3.4-1.9c0.5,0.3,1.3,0.3,0.3,1.3c-1,1-4.2,3.8-5.5,4.6c-1.2,0.8-5.1,3.1-6.2,3.7s-1.5,1.6-2.1,2
		s-2.4,1.7-4.5,2.2c-2.1,0.5-2.5,2.1-3.9,3s-11.3,6.2-11.6,6.5C393.7,111.3,394.3,110.7,393.9,109.2L393.9,109.2z"/>
	<path fill="#AA5323" d="M428.2,87c0,0-0.5,0.5-0.2,0.8c0.4,0.4,1.8,1.3,3.5-0.4c1.7-1.7,6.4-5.4,7.9-6.3c1.5-0.9,2.2-1.7,2.2-2.9
		C441.5,78.1,434.4,81.9,428.2,87z M438,86.3c0,0,1.1-1.8,3.8-3.5s6.7-4.2,7.2-4.8c0,0,1,1.1-1.1,2.4c-2.1,1.3-6.2,4.1-6.7,4.4
		C440.7,85.2,439.9,85.8,438,86.3z"/>
	<path fill="#7B3C20" d="M383.5,106.1c0,0-3,1.6-1.9,2.6s2.7,0.7,3.3,0.4s1.9-0.6,2.1-0.7c0.2-0.1,2.8-0.8,3.4-2s2.4-2.6,3.8-3.6
		s1.9-2,1.7-2.7C396,100.2,384.2,105.7,383.5,106.1z M365.8,119.9c0,0,2.1-1.2,4.9-0.5c0,0-0.1-0.7-0.6-1.1c0,0,3.5-0.9,4.3-2.5
		c0.8-1.6,0.9-1.2,1.6-1.7s5.4-4.3,4.9-5.1c-0.5-0.8-0.7-1.9-1.1-2.3c0,0-1,1.4-5.6,3.6c-4.6,2.2-9.7,3.9-13.4,8.9
		c-3.7,5-3.3,7.9,1.2,9.2c0,0,3.2-2,11-1.3c7.8,0.7,10.4,3.6,10.9,4.2c0.5,0.5,2.1,2.5,0.5,5.7c0,0,1.6,0.7,1.7-0.8s0.2-1.1,0.6-0.9
		c0.4,0.2,0.8,0.3,0.6-0.9c-0.2-1.1-0.7-3.7-1.4-4.6c-0.7-0.9,0.1-0.5,0.5-0.3c0.5,0.2,2.1,1.5,1.1-0.9c-1-2.5-1.2-1.2-1.3-1.1
		c0,0.1-0.2,0.7-2.4-0.9c-2.1-1.6-4.1-2.4-5.5-2.8c-1.4-0.4-0.4-0.4,0.4-0.7c0.8-0.3,2-0.5,2.4-1.4c0,0-0.8,0.2-2.4-0.3
		s-4.7-0.6-7.2,1.3c0,0,0.8-2.9-1.5-2.7s-3.9,0.1-6.3,2c0,0-0.1-2.9,2.2-4.4c2.3-1.5,2-0.6,3.3-1s1.4-1.7,0.8-2.1c0,0,3,0.5,8.1-3.7
		c0,0-2.7,3.6-6,4.3c0,0-0.5,1.9-3.5,2.3C365.7,117.7,365.8,119.5,365.8,119.9L365.8,119.9z"/>
	<path fill="#5A3719" d="M357.2,137.3c0,0,1.5-8.8,9.7-9.5c7.2-0.6,9.5,0.3,11,0.8c1.4,0.5,5,1.5,3.6,2.6s-2.2,0.9-2.2,0.9
		s1.6-1.8,0.1-2.1c-1.4-0.3-1.6,0.6-1.8,1.3s-0.3,1.6-1,2.2c0,0-0.7-0.8-1.8-0.1c-1,0.7-0.1,0.8,0.3,0.6c0.4-0.1,1-0.3,0.9,0.3
		c-0.1,0.6-0.7,1.7-2.4,2.6c-1.7,0.9-1.6,0.8-3.7,1.2c-2,0.3-3.9,1.1-6.5,3.4c-2.6,2.2-5.5,1.5-6-1
		C356.9,138.5,357.2,137.3,357.2,137.3L357.2,137.3z"/>
	<path d="M366.6,137c0,0,0.8-1.7-0.6-2.5c0,0-4.3,0.7-5.6-0.6c0,0,4.7-0.2,7.7-1.4c2.9-1.1,2.1-1.9,1-2.1c-1-0.2-2.9,0.3-3.1,1.2
		c0,0-0.6-1,0.2-1.6s1.9-0.8,2.9-0.5c1,0.3,2,0.8,5.4-1c0,0,2,0.5,2,1.8s-0.1,1.9-0.3,2.1c-0.2,0.2-0.4,0.6-0.8,0.6
		c-0.4,0-0.9-0.1-1.4,0.8c-0.5,0.9-0.8,1.7-1.7,2.3c0,0,1-2.9-1.5-3.5c0,0-2.1,1.2-3.7,1.3C367.1,133.7,369.1,135.6,366.6,137
		L366.6,137z"/>
	<path fill="#5A3719" d="M371.2,131.7c0,0-1-1.1,0.3-1.2c1.3-0.1,2.9,0.8,2.6,1.6C373.7,132.9,372.3,132.9,371.2,131.7L371.2,131.7z
		"/>
	<path fill="#FFFFFF" d="M442.2,117.7c0,0-2.3,0.7-0.2,2.1c2.1,1.4,3.2,2.6,4.7,3s3.2,1,3.1,2.5c0,1.6-0.3,2.2-1.2,3.2
		c-0.8,1.1,0.5,1.5,1.6,0.9c1.1-0.6,2.1-0.9,2.8-1.4c0.7-0.4,2-0.4,0.8,0.2c-1.1,0.6-2.3,0.9-0.8,1c1.4,0,10.2,0.2,12-0.4
		s4.2-0.8,4.4-3.2c0,0,0.1-1.1,0.8-1.5c0.7-0.4,1.1-1.5,0.2-0.8c-1,0.7-1.8,1-2,0.8c-0.2-0.2-0.2-0.3,0.5-0.7c0.7-0.3,1.1,0,1.8-1
		c0.7-1,0.6-0.8,0.2-1.2c-0.4-0.4-1.1-0.7-0.7-1.1s0.7-1.9-0.9-1.1c-1.6,0.8-4.7,3-6.2,3.3s-2.6,0.8-4.5,1.2c-2,0.4-3.2,0.8-5.3,2
		c-2.1,1.2-2-0.6-1.6-0.9c0,0,0.8,1.4,2.9-0.4c2.1-1.8,1.4-0.1,6.7-1.8s3.9-2,6-3.1c2-1.1,4-1.1,2.6-2.5s-1.6-1.5-3.4,0
		c-1.8,1.5-6.9,4-10,4.1c0,0,11.8-5.1,10.6-5.8c-1.2-0.7-2.5-1.4-3.3-1.6s-1-0.4-2.9,0.5s-2.2,1.1-2.8,1.1c-0.5,0.1-2.1,0.4-4.4,1.5
		c-2.2,1.2-3.4,1.6-4.9,2.5c0,0,1-2.1,5.7-3.5c4.6-1.4,7-2.7,6.5-2.9c-0.5-0.2-1.7-0.4-2.5-0.3c-0.9,0.1-0.6-0.1-3.4,1.1
		c-2.8,1.1-1.6,0.9-3.9,1.4s-3.2,1-4.3,1.5c0,0,0.5-0.6,2-1.2c0.8-0.3-0.9-0.6,1.3-0.7c0.2,0,0.4,0,0.6,0c2.8-0.8,5.9-1.9,5.5-2
		c-0.5-0.1-3.2-0.4-6,0.9c-2.8,1.3-1.5,0.8-2.5,1.1c-1,0.2-3.1,1.5-3.8,2.1C443.2,117.3,442.2,117.7,442.2,117.7L442.2,117.7z"/>
	<path fill="#5A3719" d="M373.4,130.4c0,0,1.1,0.3,1.4,1.1s1-0.3,0.9-0.7c0-0.3-0.7-1.9-1.9-1.2
		C372.6,130.4,373.2,130.4,373.4,130.4L373.4,130.4z"/>
	<path fill="#7B3C20" d="M370.3,145.6c0,0,2.3-1.1,4.3-1c0,0-0.8-2.8,0.6-2.3c1.4,0.5,1,0.3,1.3,0.3c0,0,0.1-1.8-0.3-2.5
		c0,0,1.4,0.3,2.8,0.3c0,0-1.3-2.6,0.1-4.4c0,0,0.8,1.7,2.6,2.1c0,0,0-0.7,0-1.5c0,0,1.1-0.1,1.9,0.3c0.8,0.5,1.6-4.7-1-5.9
		c0,0-0.6,1-3,1.5c-2.4,0.5-2.3,1-3.3,2.7s-1.8,1.8-3.8,3.1c-2,1.3-3.2,3.8-3.3,4.1C369.4,142.4,370.5,143.7,370.3,145.6
		L370.3,145.6z"/>
	<path fill="#999999" d="M448.8,115.4c0.9-0.1-0.9-0.6,1.3-0.7c0.2,0,0.4,0,0.6,0c2.8-0.8,5.9-1.9,5.5-2c-0.5-0.1-3.2-0.4-6,0.9
		c-2.8,1.3-1.5,0.8-2.5,1.1c-1,0.2-3.1,1.5-3.8,2.1c-0.7,0.6-1.7,1-1.7,1s-2.3,0.7-0.2,2.1c2.1,1.4,3.2,2.6,4.7,3s3.2,1,3.1,2.5
		c0,1.6-0.3,2.2-1.2,3.2c-0.8,1.1,0.5,1.5,1.6,0.9s2.1-0.9,2.8-1.4c0.7-0.4,2-0.4,0.8,0.2c-1.1,0.6-2.3,0.9-0.8,1
		c1.4,0,10.2,0.2,12-0.4c1.8-0.6,4.2-0.8,4.4-3.2c0,0,0.1-1.1,0.8-1.5c0.7-0.4,1.1-1.5,0.2-0.8c-1,0.7-1.8,1-2,0.8
		c-0.2-0.2-0.2-0.3,0.5-0.7c0.7-0.3,1.1,0,1.8-1c0.7-1,0.6-0.8,0.2-1.2c-0.2-0.2-0.5-0.4-0.7-0.5c0,0-0.5-0.5-1.1-0.1
		s-3.3,1.5-4.4,1.7c-1.1,0.1-2.2,0.6-4.1,1.5c-1.9,0.9-5.1,2.9-5.7,1.1c0,0-1.4,0.5-1.7,0.7c-2.2,1.1-2-0.5-1.6-0.9
		c0,0-1.1,1.3-1.1,0.1c0-1.2,0.8-1,2-1.3c1.3-0.4,3.2-1.2,2.4-1.9s-1.7,0.7-2.6,1.1c-0.9,0.4-2.7,0.8-3-0.5s-0.3-2.2-2.7-2.4
		s-2.4-1.7-1.7-2.3S446.4,115.8,448.8,115.4L448.8,115.4z"/>
	<path d="M456.6,127.4c0,0,3.8-1.8,7.4-2.6c3.5-0.8,0.8,0.1,0.2,0.3c-0.6,0.2-6.1,2-7.4,2.6C455.5,128.3,455.7,127.8,456.6,127.4
		L456.6,127.4z M457.5,128.2c0,0,4.3-1.4,5.1-0.8c0.8,0.6,0.1,0.3-0.8,0.4c-0.9,0.1-3.6,0.6-4.2,0.6
		C456.9,128.3,457.5,128.2,457.5,128.2z M464.4,126.7c0,0,0.8-0.2,0.9,0.2c0.1,0.3-0.4,0.3-0.8,0.3
		C464.1,127,463.7,126.8,464.4,126.7z"/>
	<path fill="#FFFFFF" d="M350.3,164.3c0,0-0.2-3.8,1.8-5.7c1.9-1.9,11.2-11.6,12.6-14.3c0,0,1.2,0.8,1.3,2.4c0,0,1.6-2.7,2.8-3.7
		c0,0,1.1,1.1,0.9,3.3c0,0,2.2-1.2,5.7-1.2c0,0-1.3,1.5-1.3,2.4c0,0,4.8-0.5,7.3-0.1c0,0-6.6,3.7-4.8,4c1.9,0.3,3.8,0,3.8,0
		s-2.1,2.1-5.5,2.6c0,0,4.3-0.1,5.1,0.9c0,0-4.2,0.6-7.5,3.2c0,0-0.3-0.1-0.3-1.1c0,0-0.1,0.8-1.1,1.6c-1,0.8-3.3,2.5-4.1,3.4
		c-0.8,0.9-2.4,2.6-4.1,2.5c0,0,0.4-1.3-0.9-1.7c-1.3-0.4-2.7-0.1-3.7,1c0,0-4.5,0.1-5.9,0.3c0,0,1-1.6,1.9-1.6c0.9,0,4.7,0.6,5-2
		c0.3-2.6-2.4-1.9-1.4-3.4c1-1.5,0.8-1.5,0.8-1.6c0,0-0.8,0.5-1.3,1.8s-0.8,2.4-2.6,3.7c-1.8,1.4-2.5,2.2-3,3.1
		C351.9,164,351,164.1,350.3,164.3z"/>
	<path fill="#FFFFFF" d="M354.6,162c0,0,0.1-0.5,1.5-0.7s1.4-0.8,1.2-1.1c-0.2-0.3-0.9-0.3,0.3-1.7c0,0,0.5,0.1,0.8,0.5
		S360.1,162.4,354.6,162z"/>
	<path fill="#999999" d="M351.5,159.3c0.1,2.5,3.4,1.6,3.4,1.6c-1.2,0.9-1.9,1.6-2.4,2.2c0.2-1.2-1.9-1.5-1.9-1.5
		C350.8,160.8,351,160,351.5,159.3z M363.7,145.8c0.5-0.6,0.8-1.2,1-1.5c0,0,1.2,0.8,1.3,2.4c0,0,1.6-2.7,2.8-3.7
		c0,0,1.1,1.1,0.9,3.3c0,0,2.2-1.2,5.7-1.2c0,0-1.3,1.5-1.3,2.4c0,0,4.8-0.5,7.3-0.1c0,0-6.6,3.7-4.8,4c1.9,0.3,3.8,0,3.8,0
		s-2.1,2.1-5.5,2.6c0,0,4.3-0.1,5.1,0.9c0,0-1.2,0.2-2.9,0.8c0,0-1.2-1.2-4.8-1c0,0,2.8-1.5,5-2c0,0-1-1.3-2.5-0.1
		c0,0-3-2.1-0.5-3.8c0,0-1.8-0.4-2.9,0.5c0,0,0.1-1.4,1.3-2.1c0,0-3.4-0.5-4.2,1.9c0,0-0.6-1-0.3-2.2c0,0-2,1.2-3,2.5
		C365.3,149.3,365,146.8,363.7,145.8 M357.1,161.9c-0.6,0.1-1.4,0.2-2.5,0.1c0,0,0.1-0.3,0.8-0.6
		C355.4,161.4,355.6,161.9,357.1,161.9"/>
	<path d="M363.3,152.3c0,0,1.5,1.2,2.1,1.9c0,0,1.4-1,1.9-1.8c0,0,1.1,0.7,1.5,1.8c0,0,0.8-0.5,0.9-1.3c0,0,1.9,0.4,2.6,1
		c0,0,0.3-1.9,0-3c0,0,1.3,0.1,2.2,0.5c0,0-0.8-1.2,3.1-2.8c0,0-2.9,0.6-4.1,1.9c0,0-1.3,0.1-1.8-0.3c0,0,0.1,1.9,0,2.8
		c0,0-0.8-0.3-2.2-0.7c0,0-0.4,0.6-0.6,0.8c0,0-0.9-0.7-1.3-1.7c0,0-1.4,1.3-2,1.8C365.5,153.3,364.2,152.3,363.3,152.3L363.3,152.3
		z"/>
	<path fill="#FFC221" d="M354.5,171.5c0,0,0.6,0.3,2-0.9c1.4-1.1,5.4-3.7,5.8-5.8s-1.3-2.2-2.6-1.6c-1.3,0.6-0.8,1.7-0.7,2.1
		c0.1,0.4,0.1,1.8-2.1,3.8C354.8,171.2,354.5,171.5,354.5,171.5L354.5,171.5z"/>
	<path fill="#FFC221" d="M354,172.1c0,0-3.2-1.4-0.3-2.8c2.9-1.5,4.2-1.8,4.5-3c0.3-1.2,0.1-1-0.9-0.5s-5.2,2.4-5.8,0.6
		c0,0,1.7,0.7,3.8-0.4s3.8-1.3,2.5-1.8c-1.3-0.4-6.2,0.1-7,0.3c-0.8,0.2-0.6,0.2-0.7,1c-0.1,0.8-1,2.5-1.4,3
		c-0.3,0.5-1.1,2.5,0.4,3.4C350.5,172.9,352.8,172.8,354,172.1z"/>
	<path d="M352.7,165.1c0,0-0.7,0.1-0.6,0.4c0.1,0.3,0.3,0.2,0.6,0.3c0.3,0,0.7-0.1,0.7-0.3C353.5,165.2,353,165,352.7,165.1
		L352.7,165.1z"/>
	<path fill="#FFFFFF" d="M353.8,171.4c0,0-1.5-0.7,0.2-1.7c1.7-0.9,3.6-1.8,3.8-2.2C357.8,167.5,357,168.7,353.8,171.4L353.8,171.4z
		"/>
</g>
</svg>
