<svg version="1.1" id="asm" name="American Samoa" xmlns="http://www.w3.org/2000/svg" xmlns:xlink="http://www.w3.org/1999/xlink" x="0px" y="0px"
	 viewBox="0 0 480 240" enable-background="new 0 0 480 240" xml:space="preserve">
<g id="flag-asm">
	<path fill="#000066" d="M0,0h480v240H0V0z"/>
	<path fill="#BD1021" d="M0,120L480,0v240L0,120z"/>
	<path fill="#FFFFFF" d="M51.4,120L480,12.9v214.3"/>
	<g id="crest">
		<path d="M367.9,133.4c3.2,0.2,3.1,3.4,3.1,3.4l11.3,0.3c1.4-3.9,3-3.5,5.7-1.5c2.6,1.9,5.5,2.7,5.5,2.7c1.1-5.7,9.1-4.5,9.1-4.5
			c3.4-8.2,3.7-8.1,1.7-9.1c-2-1-2.9-2.8-2.9-2.8c-1.9-2.3-3-5.7-3.2-7.8s-2.6,1-3.1,0.4c-0.4-0.7-4-0.3-4-0.3
			c0.9,0.9-2.1,0.4-2.1,0.4c0.3,0.2,0,1.1,0,1.1c-0.3-0.4-2.6-0.8-2.6-0.8c-0.2,0.5-0.7,1-0.7,1c-1.2-0.5-3.7-0.4-3.7-0.4
			c-3.6-0.1-5.8,1.1-6.9,1.7c-1,0.6-4.7,2.5-7.7,5.3c-3,2.9-4.7,2.6-4.7,2.6c-0.9,3.2-8,7.1-8,7.1c-1.2,1-4.7,1.5-6.6,0s0-4.3,0-4.3
			c0.7-1.3,1.3-1.2,1.4-5.6c0.1-3,3.1-5.4,6.3-8.8c3.9-4.3,9.3-11.3,9.3-11.3c0,2.1,1.2,2.5,1.2,2.5c1.1-2.2,2.6-3.9,2.6-3.9
			c0.1,0.2,0.3,0.3,0.3,0.3c1.2-1.6,1.9-2.3,1.9-2.3c-0.4-0.2-3.8,0-6.9,2.7c-3.1,2.7-5.3,1.8-5.3,1.8c-2.2-0.7-2.4-2.4-2.4-2.4
			c-1.6-6.9,4.7-11.8,4.7-11.8c-8.4-2-2.4-12.7,8.1-17.2c10.4-4.5,10.3-6.6,10.3-6.6c0.6,0.7,1.1,1.9,1.1,1.9
			c0.1-0.1,0.9-1.2,6.9-3.9c6-2.7,8.9-5,8.9-5c0.8,1.5,0.6,2.5,0.6,2.5c16.5-5.8,32.7-19,32.7-19c0.5,1.1,0.2,2.8,0.2,2.8
			c2.7-2.5,12.4-8.2,12.4-8.2c0.2,3.7-2.9,5.1-2.9,5.1c0.3,0.5,0.5,1.5,0.5,1.5c1.6-0.9,9-6,9-6c2.7,2.3,0.2,6.2,0.2,6.2
			c1-0.1,1.7-1,1.7-1c0.7,4-3.7,7.5-3.7,7.5c0.8,0,2.1-0.7,2.1-0.7c-0.8,4.3-9.1,9.1-9.1,9.1c1.2,1.1,0.1,2.5-0.9,3.1
			s-2.7,2-2.2,2.6c0.5,0.6,4.2-2,4.2-2c0.6,1.8-4,5.4-4,5.4c3.3,0.4,12.3-3.7,12.3-3.7c-0.7,3.5-4.2,6.2-8.4,7.8
			c-4.2,1.6-4,1.8-4,1.8c0.7,0.6,6.6-1.1,6.6-1.1c-1.8,3.9-7.8,6.6-7.8,6.6c1.7,1.4,3.9-0.2,6.2-1.8c2.3-1.6,5.4-2.9,8.8-4
			c3.4-1.1,5.8-0.3,5.8-0.3c2.8-0.9,5.2,0.4,5.2,0.4c5.5,0.5,6,2.4,6,2.4c0.6,0.1,1.1,0.4,2.5,1.4s1.3,4.2,1.3,5.8
			c-0.1,1.6-0.5,1.6-0.8,2c-0.3,0.4-0.3,0.9-0.3,1.5s-1.4,4.3-9.8,4.3c-8.4,0-12.8,0-12.8,0c-0.7,0-1.5,0.4-1.5,0.4
			c-3.6,1.8-1.7-1.2-5.9,2.3c-4.2,3.5-6.4,2.9-6.4,2.9c-0.7,0.8-5.1,5-7.7,6.6c-2.5,1.6-2.1,1.5,0.1,2.4c2.2,1,5.5,0,5.5,0
			c-2.1,1.4-0.7,2.1-0.7,2.1c2.8-1.7,4.5-1.1,4.5-1.1c0.9,2.4-2.3,6.3-2.3,6.3c1.2,0.2,3.6,0,3.6,0c-0.6,1.7-2.9,3.5-4.6,4
			s-1.4,0.8-0.9,1.8s0.1,2.1,0.1,2.1c-3-2.1-3.1-0.2-3.1-0.2c-0.3,2.5-0.3,6-0.3,6c-2.1-1.1-2.2,0.4-2.2,0.4
			c-0.5,2.2-3.1,4.8-3.1,4.8c-0.1-1.4-1.4-1.7-1.4-1.7c-1.3,2.6-3.8,4.1-3.8,4.1c-0.3,2.2,0.3,5.4,0.3,5.4c-1.6-0.3-2.2-0.3-2.4,0.1
			c-0.3,0.4,0.4,0.6,0.4,0.6l20.9,0.5c0.3,0,1.5,0.2,1.6,2.4c0,2.3-1.8,2.4-1.8,2.4l-22.9-0.5c0,0,0.1,0.6-1.1,1.3
			c-1.2,0.6-0.8-0.7-1.1,2.1c-0.3,2.8-4.9-0.2-4.9-0.2c-0.7,1.1-2.5,2.5-2.5,2.5c-1-3.1-2.1-4-3.7-1.4s3,2.2,3,2.2s26.8-4,28.3-4.1
			c1.5-0.1,3.1-0.1,3.7,2c0.7,2-3.2,2.4-3.2,2.4l-27.5,3c-0.6,1.6-2.9,1.5-2.9,1.5c0.2,1.6-1.5,2.5-2.3,3.1
			c-0.8,0.6-3.5,0.3-3.5,0.3c-3.2,2.2-4.8,0.5-4.8,0.5c-2.1,0.9-3.4,0.5-5.1-0.2c-1.7-0.7-1.6-2.8-1.6-2.8l-17.4,1.8
			c-0.8,0.3-1.4,0.8-1.4,0.8c0.6,0.8-1.2,2.6-1.2,2.6c0.5,0.4,1.5,1.4,1.7,3.5c0.1,2.3-2.8,2.7-1.3,4.3c1.5,1.6,4.2,0.3,7.2-1.2
			c3-1.4,6-1.3,7.2-1.2c1.3,0,4.9,0.9,7.1,1.7c2.2,0.8,3,0.3,3.1-0.8s1.1-1.5,1.1-1.5c-0.3,1.1,0.3,1.6,0.3,1.6
			c0.9,0.1,2.4-0.8,2.4-0.8c-0.1,0.8-1.2,1.4-1.2,1.4c-2.2,1.5,0.8,0.9,0.8,0.9c6-1.2,8.1-1.1,9.7-0.9s8.9,3.3,8.9,3.3
			c0.3-0.7,0.1-2.6,0.1-2.6c1.9,0.5,2.7,1.6,2.7,1.6c0.7-0.8,0.2-2.1,0.2-2.1c6.1,3.4-1.3,4.9-3.2,5.6c-1.9,0.7-1.9,1.5-1.9,1.5
			c1.6-0.5,2.7-0.7,4.1-0.8c1.3-0.1,0.9,0,4.1-0.7c3.2-0.6,4.8,0.7,4.8,0.7c-2.7,0.1-3.5,0.9-3.5,0.9c1.7,1.2,0.1,2.1,0.1,2.1
			c-2.4-3.1-4.5,0.1-4.5,0.1c0.8-0.1,3.3,0.4,4,0.8c0.5,0.3,1.8,1,3.4,1.7c2.2,1,1.8,0.4,3.5,1c1.7,0.7,1.1,2.3,1.1,2.3
			c-0.7-1.4-2.3-1.8-2.3-1.8c-0.1,1.8-2,2.1-2,2.1c2.2-2.5-2.6-3.6-4.9-3.5c-2.3,0-4,1.5-4,1.5c4.6,4.3,7.7,2.9,7.7,2.9
			c-0.6,1.6-4.3,0.9-4.3,0.9c1.8,1.3,1.6,2.3,1.6,2.3c-0.9-0.9-2.5-0.5-5.7-2.6s-6.2-1.4-6.2-1.4c3.2,3.4-1.2,5.4-1.2,5.4
			c-1.6,0.9,0.7,2.2,0.7,2.2c-2,0.4-2.3-1.7-2.3-1.7c-1.1-0.2-2.6,1.1-2.6,1.1c0.1-2.1,2.8-1,2.9-3.2s-2.5-3.8-10.3-2.8
			c-7.7,1.1-10-1.4-10-1.4c-0.7,0-0.8,0.7-0.8,0.7c1.3,1.2,1.9,1.7,1.6,2.6c-0.2,0.9,0.4,1.1,0.4,1.1c-1.4-0.1-1.5-1.8-1.5-1.8
			c0,0.7-0.3,0.8-0.8,1.5c-0.5,0.7,0,1.7,0,1.7c-0.6-0.5-1.7-1.2-0.7-2.7c0.8-1.2-1.7-2.7-1.7-2.7c-1-1-3.5-0.1-3.5-0.1
			c-5.3,1-8.4-2.3-8.4-2.3c-0.6,0-1.8-0.3-1.8-0.3c-5.6,2.5-10.5-2.9-10.5-2.9c-4.2,0.8-6.1-1.2-7.4-3.2s-1.5-2.1-3.2-3.2
			c-1.7-1-3.3-3.9-1.7-5.4c1.4-1.3,1-1.6,1-1.6c-2.2-3.7,3.9-4.9,4-5.7c0.2-1.3,1.4-2.1,2.8-2.2c1.4-0.1,1.4,0,2.3-0.9
			c0.9-0.9,2.6,0.2,2.6,0.2c0.4-0.3,3.4-2.6,6-1.4c2.7,1.2,4.9,0.3,4.9,0.3c1.9-0.4,17.6-2.5,17.6-2.5c1-1.5,1.7-3.3,6-4.3
			c4.3-1,7.6-3.7,7.6-3.7c-0.8-0.8-2.1-0.8-2.7-0.9s-2-1.2-2-1.2c-0.8,0.3-1.2,0.2-6.9,3.6c-5.1,3.1-5.2-3-5.2-3l-11,0
			c-0.2,2.3-2,3.3-2,3.3l-4,0.2c-2.2-1.2-2.3-5.1-2.3-5.1c-12.1,0.2-18.9,4.5-18.9,4.5c-13.8-7-24.5-8.6-24.5-8.6
			c16.7-1.8,25.5-6.5,25.5-6.5c9.2,5.5,17.9,5.7,17.9,5.7c0.3-3.3,2.6-4.2,2.6-4.2L367.9,133.4L367.9,133.4z"/>
		<path fill="#FFC221" d="M348,161.1c-3.5,2-2.9,3.2-2.6,3.8c0.3,0.6,0.3,1.3-0.6,2.2c-0.9,1-0.9,1.3-0.9,1.3
			c0.1,3.4,2.5,4.1,3.6,4.9c0.8,0.7,2.3,2.9,2.3,2.9c1.8,2.6,3.7,2.6,5.1,2.6s1.3-0.1,0.6-0.8c-0.7-0.6-2.1-1.7-2.1-1.7
			c1.9,0.7,3.7,2.6,3.7,2.6c3.5,3.9,6.8,3.4,8.3,3.2c1.4-0.2,1.2-1,1.2-1c-0.1-0.1-1.5-0.2-1.5-0.2c-5.3-0.5-6.9-4-6.9-4
			c3.2,3.2,8.2,3.8,9.8,3.7c1.5-0.1,1.5,0.4,1.1,0.5c-0.3,0.1-0.8,0-1.5-0.1c-0.7-0.1-0.7,0.1-0.5,0.4s0.8,0.3,1.7,0.3
			c0.8,0,0.2,0.1,2.4,1.8c2.2,1.7,7.7,0.3,7.7,0.3c-3.5-0.9-4-2.5-4-2.5c-4.8,0.6-6.8-2.3-6.8-2.3c-0.9-0.9-3.4-2.2-3.4-2.2
			c-2.7-1.2-3.1-3.6-3.1-3.6c0.8,1.1,2.3,2.3,4.1,2.9c1.9,0.5,2.4,0.8,2.4,0.8c-0.9,0.1-1.4-0.2-1.4-0.2c-1.9-0.6-0.8,0.2-0.8,0.2
			c2.1,1.7,2.7,1.5,2.7,1.5c5.5,0.6,2.7-1.6,2.7-1.6c3.9,0.9,4.5-0.5,4.5-0.5c0.8,1.7,3.7,1.1,3.7,1.1c-3.9,1.9-0.9,1.3-0.9,1.3
			c4-0.7,4.7,0.3,4.7,0.3c1.1,1,2.2,0.9,2.2,0.9s0.7,0,2.2,0.3s3.8,1.6,6,1.3c2.2-0.3,2.5,0.4,2.5,0.4c-0.4-0.1-1.4-0.3-3.1,0.5
			c-1.7,0.8-4.6,1-8.9,0c-4.3-1-4.6-0.9-4.6-0.9c1,0.8,1.9,1.8,2.1,2.6c0.2,0.7,0.9,0.8,0.9,0.8c0.3-0.9,1.6-1.4,1.6-1.4
			c0.8,0.8,3.1,1.8,3.1,1.8c0.2-0.5,0-0.9,0-0.9c1.6,1.6,3.6,1.1,3.6,1.1c0.5-0.4,0.4-1.2,0.4-1.2c0.7,0,0.8,0.4,1.2,0.7
			c0.5,0.3,1.9,0.1,1.9,0.1c-0.5-0.2-0.9-1.1-0.9-1.1c2.2-1.5,6.8-0.8,6.8-0.8c3.4,0.6,3,2.8,3,2.8c0.7,0.3,1.6,1.4,1.6,1.4
			c0.3-0.8,0-1.6,0-1.6c1.5,0.7,1.9,2.5,1.9,2.5c1.8-2-1.7-4.3-1.7-4.3c1.7-0.2,3.6-0.1,4.7,0.1c1.1,0.2,2.8,0.8,4.1,1.9
			c1.3,1.1,3.7,1.6,3.7,1.6c-0.1-0.5-1.3-1.2-1.6-1.4s-0.4-0.6-0.4-0.6c1.2,0.2,2,0.1,2,0.1c-4.1-2.5-5.1-3.7-5.1-3.7
			c1.5,0.2,2.4-0.8,2.4-0.8c-3.2,0.1-3.3-0.8-3.3-0.8c0.4,0.1,1.9,0.5,3.8,0.1s4.6,0,4.6,0c-1.4-2.2-6.8-1.9-8.5-1.8
			c-1.7,0.1-2.4-0.1-2.4-0.1c0.3-0.1,0.6-0.4,1.9-0.4c1.4,0,2.7,0.1,4.2-1c1.5-1.1,3.6-0.7,3.6-0.7c-0.5-1-2.9-1.4-5.1,0
			c-2.1,1.4-4.1,0.9-4.1,0.9c3.4-0.5,4.4-1.7,4.4-1.7c-1-0.2-1.6,0.1-3.6,0.5s-2.6-0.3-2.6-0.3c2.2-1.3,3.8-1.9,3.8-1.9
			c-1.9-0.4-3.6-1.2-3.6-1.2c-2,1.9-3.5,2.9-7.3,0.9c-3.8-2-5.7-1.7-5.7-1.7c3.3-2,6.7-1.1,9.2,0.4c2.5,1.5,3.2,0.3,3.2,0.3
			c-0.8-0.5-0.7-0.9-0.7-0.9c6,3.1,8.6,1.2,10,0.3c1.3-0.9-0.6-2.1-0.6-2.1c-0.1,2-2.6,2.8-4.5,2.2s-3.7-1.5-6.5-2.6
			c-2.8-1.2-6.3-0.6-9.5,0.1c-3.2,0.7-3.7,0.4-4,0.1c-0.3-0.3-0.5-1.1-2.1-0.4c-1.7,0.7-5.5-1.1-7.9-1.7s-6.3-0.3-9.8,1.6
			s-5.1,1.4-6.1,0.9c-1-0.5-1.7-1.7-0.6-2.9c1.1-1.1,1.2-1.5,1.1-3.1c-0.1-1.7-1.7-2.6-1.7-2.6c1.5-1.5,1.9-1.9,1.3-2.6
			c-0.5-0.7,0.3-0.7,1.1-1c0.9-0.4,0.5-0.4,0.3-0.9c-0.2-0.5-0.7-0.4-0.7-0.4c-2,0.1-3.1-0.5-3.1-0.5c-3.3-1.5-6.3,1.4-6.3,1.4
			c-1.9-1.4-2.3-0.5-2.6-0.2c-0.3,0.4-1,0.6-1.9,0.7c-0.8,0.1-2,0.4-2.4,1.1c0,0-0.4,0.6,0.1,1.3c0,0,0.5,0.8-0.4,1.7
			c-0.9,0.9-1.3,1.2-1,2c0.3,0.9,0.2,1.6-0.2,2.1c0,0-0.4-0.5-0.3-1.1c0.1-0.6,0.1-1,0-1.3c0,0-0.9,0.9-1.1,1.5c0,0-0.4-1,0.9-2.3
			c1.3-1.3,1.9-2,1.6-2.5C349.2,160.4,348.3,161,348,161.1L348,161.1z"/>
		<path d="M351.8,175.8c0,0-1.7-1.3-1.5-3c0.2-1.8,0.2-2,0-2.3c0,0-0.3,0.2-0.3,0.9c0,0.6-0.1,1.3-0.1,1.4c0,0-0.9-1.5-1.2-1.7
			c0,0,0.3-1.5-0.2-2.2c-0.5-0.7-0.9-0.7-1.5-0.5c-0.8,0.3-1.3,1,1.2,3.1c0,0,0.9,0.8,1.6,2.4C350.5,175.4,351.6,175.7,351.8,175.8z
			 M360,170.9c0,0-0.1-1,0.8-2.8c0.9-1.8,0.4-3.1,0.2-3.5c-0.2-0.4-0.3-0.3,0.6-1c1.1-0.9-0.4-2.1,1.4-3.7c0,0,1.2-1,1.5-1.5
			c0,0-1.9,1-3.2,1.6c-1.3,0.5-6.1,2.9-5,4.5c1.1,1.6,0.9,1.7,0.8,2.3c0,0-2.9-1.5-1.9-4c0,0,0.5-1,1.7-2.1c1.1-1,0.4,0.2,2.7-1.1
			c0,0,1.8-1.1,2.7-2.5c0,0-1.2,0.7-1.6,0.9c0,0-2.6,0.5-3.6,1.6c-1,1.1-3.2,3-2.5,5.1c0,0-2.6-0.3-3.2-3c0,0-4.8,5.9,5.2,8.6
			C356.5,170.3,358.4,170.8,360,170.9z"/>
		<path fill="#FFC221" d="M404,151.3c3.7-0.6,25.4-3.8,27.3-4c2.2-0.2,3-0.5,3.7,1.2c0.8,2-3,2-3,2l-25.8,2.9
			c-1.3,0.1-1.5-0.3-1.5-0.3c-0.2-0.4-0.7-1-1-1.3C403.7,151.8,403.4,151.4,404,151.3L404,151.3z"/>
		<path fill="#5A3719" d="M351.2,163c0,0-2.8,5.9,8.2,7.3c0,0,0-0.7,0.5-1.6c0.4-0.9,1.4-2.8,0.5-4c-0.9-1.2,0.7-0.6,1-2.1
			c0.2-1.6-0.2-1.4,0.6-2.4c0,0-3.4,1.2-4.8,2.8c-1.3,1.5,1.8,2.7-0.1,4.3c0,0-1.5-0.6-2.4-2.2C354.6,165.1,352.5,165.2,351.2,163
			L351.2,163z"/>
		<path d="M361.9,170.3c0,0,2.7,2.3,5.9,2.2s4.6-1,5.4-2.2c0,0,0.6,1,0.6,1.6c0,0,2.8-2.3,7.6-0.3c4.8,2,3.3,1.5,4.4,1.6
			c0,0-2-0.4-6.7,1.8C374.3,177.2,361.8,176.4,361.9,170.3L361.9,170.3z"/>
		<path fill="#5A3719" d="M357.4,159.9c0,0,1.2,0.2,2.4-1.2C359.8,158.7,358.2,159,357.4,159.9z M348.2,170.8c0,0-2.3-1.8-0.8-2.1
			C347.4,168.7,348.4,168.5,348.2,170.8z"/>
		<path d="M397.5,181.9c0,0,1.2-2.2,4.7-2.2c3.5,0,3.9,1.6,8.3,1.9c0,0-5.3,1.5-8.9,0.1C399.6,181.1,397.8,181.7,397.5,181.9z"/>
		<path fill="#5A3719" d="M363.1,171.8c0,0,5.2,3.2,9.8-0.3c0,0,0.4,0.4,0.7,1.2c0,0,3.5-3.4,9.8,0.3c0,0-0.8-0.1-3.7,1.2
			C375.8,175.9,366.2,177,363.1,171.8z"/>
		<path d="M383.1,175c0,0,5,0.6,9.2,0.3c2.6-0.2,5.4-0.6,4,0.2c-1.4,0.9-0.7,1,5.2,0.4c6-0.6-0.1,1.1,4,1.7
			C405.6,177.6,395.7,182.7,383.1,175z"/>
		<path fill="#5A3719" d="M396.2,171.8c0,0,2.9-1.1,5.6,0.2c2.7,1.3,2.3,1.4,4.1,1.6c0,0-1.3,1.8-4.2,0.3
			C398.7,172.5,397.9,172.2,396.2,171.8z M399.5,180.8c0,0,2.9-1.4,6,0.1c0.4,0.2,1.3,0.5,2.1,0.7c0,0-2.4,0.8-4.9,0
			C401.6,181.3,400.8,181,399.5,180.8L399.5,180.8z M385.3,175.7c0,0,6.4,0.6,9.9-0.1c0,0-4,1.9,6.1,1c0,0,2.2-0.2,2,0.1
			c-0.3,0.3-0.4,0.6,0.7,0.9C403.8,177.7,396.3,181,385.3,175.7L385.3,175.7z"/>
		<path d="M353.3,170.3c0,0,0.1,0.5,1.5,1.1c1.4,0.6,2.2,1.8,2.5,2.4c0.3,0.6,1,1.5,2.2,1.8c0,0-5,1-7.3-1.6
			C352.2,174,350.5,172.1,353.3,170.3"/>
		<path fill="#5A3719" d="M392.8,181.8c0,0-2-0.1-4.7-1.1c-2.7-0.9-3.4-0.1-4.9-1.3c-1.5-1.1-4.6-0.4-5.2-0.3
			c-0.6,0.1-2.2,0-0.2-1.3c0,0-1.6,0-2.3-0.9c0,0-0.7,0.7-3.5,0.5c0,0,1.2,1.9-3.7,1.4c0,0,1.5,1.7,3.3,2.1c1.8,0.3,2.5,0.2,3.7-0.1
			c0,0-0.3,1.5,2,2.1s2.8,1,3.9,1.5c0,0,0.2-1-2.9-3.2c0,0,1.6-0.1,4,0.5C384.6,182.2,389.9,183.5,392.8,181.8L392.8,181.8z
			 M394,184.1c0,0,0.5,1.1,2,0.9c1.5-0.3,4-0.7,6.4,0.5c0,0,0.4-2-4.4-2.2C398,183.3,395,183.5,394,184.1L394,184.1z M353.1,171
			c0,0-1.9,1.5-0.2,3.1c1.5,1.5,3.9,1.3,5.1,1.3c0,0-0.7-0.4-1.3-1.3c-0.6-0.9-0.6-1.5-1.9-2.1C353.5,171.4,353.4,171.2,353.1,171z
			 M351.2,163c0,0-2.8,5.9,8.2,7.3c0,0,0-0.7,0.5-1.6s1.4-2.8,0.5-4c-0.9-1.2,0.7-0.6,1-2.1c0.2-1.6-0.2-1.4,0.6-2.4
			c0,0-3.4,1.2-4.8,2.8c-1.3,1.5,1.8,2.7-0.1,4.3c0,0-1.5-0.6-2.4-2.2C354.6,165.1,352.5,165.2,351.2,163L351.2,163z"/>
		<path d="M380,176.6c0,0,2.3-0.4,8.1,1.8c5.9,2.2,8.3,1.6,9.2,1.6c0,0-3.3,1.7-8.4-0.5C384.4,177.5,384.1,178.2,380,176.6
			L380,176.6z"/>
		<path fill="#FFC221" d="M416.6,175.3c0,0,1.3,0,2.1,0.3c0,0,0.5-0.4,1.7-0.6C420.5,175,419.7,174.2,416.6,175.3z M412.6,172
			c0,0,1.3-0.1,1.7-0.7c0,0-0.7-0.9-1.7-1.3C412.7,170.1,412.9,171,412.6,172z M367.7,157.1c0,0-0.2-0.7,1.1-0.9
			c1.4-0.2,19.6-2.8,19.6-2.8s1,0,1.1,0.6c0.1,0.7-0.1,1.2-4.5,1.7c-4.4,0.5-16,2-16,2S367.8,157.9,367.7,157.1z"/>
		<path fill="#FFC221" d="M385.4,156.3c0,0,0,2.6,2.6,3c2.5,0.4,3.4-0.2,4.1-1.5c0.2-0.4,1-3-0.2-3.3c-0.4-0.1-1.2,0-1.8,0.2
			c-0.9,0.4-1.7,0.8-1.4,1.3c0.6,0.9,0.7,1.2,0.5,1.2c-0.6,0.2-1.1-0.4-1.2-0.8c-0.2-0.5,0.3-0.8-1.4-0.5
			C386,156,385.4,156,385.4,156.3L385.4,156.3z"/>
		<path fill="#FFC221" d="M396.4,154.3c1.3,0.2,1.2,3-0.4,4.3c-1.7,1.4-3.4,0.9-3.4,0.9c-0.9-0.4-0.8-0.2-0.1-1.3
			c0.6-1,0.9-2.3,0.6-3.2c-0.1-0.3,0.2-0.5,0.6-0.6C393.8,154.4,395,154.2,396.4,154.3z"/>
		<path fill="#FFC221" d="M397.5,154.6c0,0,1,1.2-0.2,3.4c0,0-0.5,0.7,0.7,0.6c1.2-0.1,3.8-1.4,3.6-3c0,0-0.1-0.4-0.8-0.4
			c-0.7,0-0.1-0.4,0.2-0.5c0.3-0.1,1.2-0.4-1.1-1.9c0,0-0.4-0.3-0.8-0.2c-0.4,0.1-1.6,0.6-1.6,1.4
			C397.3,154.3,397.5,154.6,397.5,154.6L397.5,154.6z"/>
		<path fill="#FFC221" d="M400.1,152.5c0,0,1.9,1.3,1.9,1.7c0,0.4-0.2,0.9,0.3,0.9c0.5,0,2.5-0.5,2-1.8c-0.6-1.3-1.1-1.8-2.1-2.1
			c-0.9-0.3-1.2,0.1-2,0.7C400.2,151.9,399.6,152.3,400.1,152.5z M390,154.4c0,0,0.3-1-1.4-1.4c0,0,0.7-0.6,2.1-0.3
			c1.4,0.3,1.3,1.2,1.3,1.4C392,154.1,390.9,154.1,390,154.4L390,154.4z M393.6,154.2c0,0,1.9-0.3,2.8-0.2c0,0-1-2.1-3.5-1.4
			C392.9,152.5,393.8,153.6,393.6,154.2L393.6,154.2z M397,153.7c0,0,0-0.7,1.6-1.3c0,0-0.8-0.8-1.9-0.7c-1.3,0.1-1.5,0.5-1.5,0.5
			S396.5,152.7,397,153.7z M397.6,151.4c0,0,1,0.3,1.7,0.8c0,0,1-1.1,1.8-1.3C401,150.9,399.4,150.1,397.6,151.4z"/>
		<path fill="#5A3719" d="M343.9,146.3c0,0,4.5-3.8,7-3.4c2.5,0.5,1.3,0.1,4-0.3c2.8-0.4,5.6-0.7,6.8-0.6c0,0-3.3-2.4-9.3-2.4
			c0,0-4.2,1.5-7.1,3.4c0,0-5.6-3.1-11.3-1.2C334,141.8,340.2,144.1,343.9,146.3L343.9,146.3z"/>
		<path fill="#FFC221" d="M391.8,152.9l0.8-0.1c0,0,1.3,1.6,0.3,1.6c-0.7,0-0.4-0.2-0.6-0.7C392.2,153.2,392,153,391.8,152.9z
			 M386.2,153c0,0-0.5,0.6,0.4,0.4c1-0.2,0.8,0,2-0.7c0,0,0.7-0.7,2-0.3c0,0,1.1,0.4,2-0.1c0.9-0.4,1.1-0.4,1.6-0.4
			c0.5,0,0.4,0.1,1.1-0.3c0.6-0.5,1.7-0.1,2.4-0.7c0.7-0.6,1.6-0.1,0-1.2c0,0-0.3-0.3-0.3-0.6c0,0,0.6,0.2,1.1,0.6
			c0.5,0.4,1.3,0.3,1.4,0.2c0,0,0.1-1.4,1.5-2.7c1.4-1.3,1.4-1.4,0.6-1.4c-0.8,0-2.2-0.3-2.7,0c-0.5,0.3-4.6,3-6.9,3.5
			C389.9,149.8,387.7,150.5,386.2,153z M322.7,138.3c0,0,7.3,1.9,8.9,2.7c0,0,0.4-1.2-2.9-2.2c0,0,8.1-0.2,16.6,3.6
			c0,0,4.1-3.5,17.3-2.4c0,0,0-1.2,0.1-2.1c0,0-9.3-0.3-17.8-5.5C344.9,132.5,337.3,136.2,322.7,138.3L322.7,138.3z M363.3,141.8
			c-0.5-7.5,2.4-8.1,2.4-8.1s1.3,0,2.8,0.2c0,0-2.3,2.7-1.7,8c0,0,0.2,0.9-1.7,0.9C363.2,142.8,363.3,141.8,363.3,141.8z"/>
		<path fill="#5A3719" d="M365.2,146.8c0,0-1.4-1.4-1.5-3.1c0,0,0-0.4,1.4-0.4c1.4,0,1.6-0.1,1.9,0.7c0.3,0.8,1.2,2.5,1.4,2.7
			L365.2,146.8L365.2,146.8z"/>
		<path fill="#FFC221" d="M368.2,143.1c-0.1-1-0.2-1.8-0.2-2.8c0.1-4.2,0.8-3.8,1.1-3.3l1.4,0c0,0-1-4.7-2.3-2
			c-1.2,2.7-1.1,4.4-1,6.6c0.1,1.2,0.2,2,0.4,2.4L368.2,143.1z"/>
		<path fill="#5A3719" d="M384.3,143.1c0,0,2.7,0.4-1.5,1.4c0,0,0.2,5.1,5.2,1.5c0,0,2.9-1.9,5-2.6c0,0,1-0.4,0.9-1.1
			c0,0,0.1-0.9-1-0.7c0,0-0.8,0-1.4-0.2c0,0-0.6-0.7-1-0.4s-1.3,0.1-0.6,1c0.7,0.9,0.9,0.7,1.3,0.4c0.4-0.3,1.9-0.9,0.5,0.4
			c-1.4,1.3-2.6-0.7-3-1.1L384.3,143.1L384.3,143.1z M370.5,143.7l-1.2,0c0,0-0.7,1-1.1-0.6l-0.5,1
			C367.7,144.1,369.2,149.5,370.5,143.7z"/>
		<path fill="#FFC221" d="M368.8,137.3c0,0-0.6,3.6,0.2,5.8l13.2,0.2c0,0-0.2-2.6,0-6h-1.9c0,0-0.3,2.9,0,4.7l-0.3,0
			c0,0-0.2-2.5,0-4.7h-1.5c0,0-0.3,2.7-0.1,4.7h-0.3c0,0-0.2-2.3,0-4.7h-1.5c0,0-0.3,2.4,0,4.6l-0.4,0c0,0-0.3-2.4,0-4.6h-1.7
			c0,0-0.4,2.3,0,4.7h-0.3c0,0-0.4-2.3,0-4.7h-1.7c0,0-0.4,2.6-0.1,4.7h-0.3c0,0-0.3-2.5,0.1-4.7h-1.6c0,0-0.4,2.2-0.1,4.7h-0.3
			c0,0-0.3-1.9,0.1-4.7L368.8,137.3L368.8,137.3z M382.8,143.9c0,0-0.4-6.5,0.9-8.1s1.5-1.3,3.6,0c2.1,1.3,4.8,2.8,5.3,2.9
			s1.1,0.3,1.1,1.5c0,1.2,0.2,1.5-1.6,0.1c-0.3-0.2-1.1-1-1.7-1.2c-1.6-0.5,0.4,0.4,1,1.2c0.5,0.7,0.9,0.6-0.4,1
			C389.5,141.5,385.1,143,382.8,143.9L382.8,143.9z"/>
		<path d="M387.4,139.2c0,0-1-1.2,0.3-1.5c1.2-0.3,1.3,1.9,1.5,3.2C389.4,142.3,387.6,139.7,387.4,139.2z M385.6,144.9
			c0,0-1.4,0.5-0.5,1s3.6-1.7,2.7-1.6C386.9,144.4,385.6,144.9,385.6,144.9z M387.5,142.9c0,0,1.3-0.1,1,0.4
			c-0.2,0.5-0.7,0.2-0.9,0.1C387.5,143.3,386.6,143,387.5,142.9L387.5,142.9z"/>
		<path fill="#FFC221" d="M394.2,141.2c0,0,0.3,2.5,2.5,3.1c0,0,1.2,0.3,1-0.8c0,0-0.2-0.9-0.4-1.3c-0.2-0.4-1-0.6-1.1-0.7
			c-0.1,0-0.2-0.3,0.4-0.1c0.6,0.2,0.7,0.2,0.6-0.2c0-0.4-0.4-0.2-0.9-0.5c-0.2-0.1,0-0.2,0.2-0.2c0.2,0,0.7,0.2,0.7-0.6
			c0,0,0.1-0.5-0.5-0.5c-0.7,0-0.6-0.4-0.4-0.4s1,0.5,1.2-0.4c0.2-0.9-1-0.4-0.8-0.8s1,0.3,1.1-0.3c0.1-0.5,0.8-0.7-0.4-0.9
			c-0.6-0.1,0-0.3,0.6-0.2c0.7,0.1,1.1-0.7,1.5-1c0.4-0.3,2.6-1.6-0.3-1.2c-3,0.4-3.8,1.9-4,2.2C394.8,136.7,394,138.4,394.2,141.2
			L394.2,141.2z"/>
		<path fill="#FFC221" d="M401.1,143.1c0.4-0.1,0.7,0,0.9,0.3c0.5,1-0.6,0.6-1.2,1.4c-0.6,0.7-0.6,0.6-1.5,0.3
			c-0.9-0.3-1.2-1.6-1.2-1.6c-0.1-0.4,0.3-0.4,0.7-0.4C398.8,143.1,400.2,143.3,401.1,143.1L401.1,143.1z M397.9,142.6
			c0,0,0.1,0.3,0.6,0.3c0.5,0,2,0.2,2.8-0.1c0,0,0.3-0.1,0.2-0.6c0,0,0-0.4-0.8-0.2c-0.8,0.1-1.9,0-2.3-0.1
			C398,141.8,397.7,141.9,397.9,142.6L397.9,142.6z M397.8,140.8c0,0,0,0.8,0.8,0.9c0.8,0.1,1.8,0.1,2.2,0c0.3-0.1,0.9-0.2,0.9-0.6
			c0-0.5,0.2-0.8-0.8-0.6c-1,0.2-2.1,0.1-2.3,0.1C398.5,140.5,397.8,140.3,397.8,140.8L397.8,140.8z M398.2,139.2
			c0,0-0.2,0.4-0.2,0.7c0,0.3,0.6,0.5,1.6,0.5s1.9-0.1,2-0.5s0.3-0.7-0.5-0.6c-0.8,0.1-1.8,0.2-2.2,0
			C398.5,139.1,398.2,139.1,398.2,139.2z"/>
		<path fill="#5A3719" d="M435.6,143.2c0,0,0,0.7,0.5,1.4l-28.3-0.8c0,0,0.4-0.3,0.5-1.4L435.6,143.2L435.6,143.2z"/>
		<path fill="#FFC221" d="M398.4,138c0,0-0.2,0.7,0.3,0.9c0.5,0.1,1.4,0.3,2.5,0.1c0,0,0.6,0,0.8-0.6c0.2-0.6,0.2-0.3-1.5-0.6
			c0,0-0.5-0.2,1-0.2c0,0,0.8,0,1-0.1c0.1-0.1,1.2-1-0.2-1c-1.4,0.1-0.7-0.3,0-0.3c0.7,0,1,0.2,1.2-0.1c0.2-0.2,0-0.1-0.4-0.5
			c-0.4-0.4-0.1-0.3,0.2-0.1c0.3,0.2,0.5,0.3,0.8,0c0.3-0.3-0.2-0.7,0-0.6c0.2,0,0.4,0.5,1.3,0.1c0.9-0.5,2.2-0.2,2.5,0
			c0.3,0.3,1.3,0.6,1.9,0c0.6-0.6-0.7-1.1-0.2-1.2c0.5-0.1,0.9,0.1,1.1-0.3c0.2-0.4-0.8-0.9,0.2-1.1c1-0.3,0.2-3.2-0.2-3.4
			c0,0-1.1,0.7-2.4,2.7s-2,3.2-3.7,2.6c-2.5-0.9-3.7,0.4-4.1,0.6c-0.6,0.4,1.2,0.5,0.2,0.6c-1.1,0-1.1,0.1-1.2,0.3
			c-0.1,0.2,0,0.3,0.2,0.3c0.2,0,0.6,0.4-0.1,0.4c-0.7,0-1.1-0.1-0.9,0.6c0,0,0,0.2,0.4,0.2c0.4,0,0.5,0.4-0.2,0.4
			C398.4,137.8,398.4,138,398.4,138L398.4,138z M401,145.1c0,0-0.5,0.4,0.2,0.4c0.7,0,1.1,0.2,1.3-0.2c0.2-0.4,1.2-0.2,0.5-0.7
			C402.4,144.1,402,144.4,401,145.1L401,145.1z"/>
		<path fill="#FFC221" d="M403.9,136.6c0,0,2.4-2.2,4.3-0.7c2,1.5,2.2,1.7,2.2,1.8c0,0,0.2,0.2-0.3,0.7c-0.5,0.5,0,0.5,0.6,0.2
			c0.6-0.3,0.6,0,0.9,0.3s0.7,0.5-0.2,0.5c-0.9,0-2.9,0-2.9,0s-1.3,0.1-0.7-0.4c0.7-0.5,0.6-1.2,0.2-1.2c-0.3,0,0,0.3-0.2,0.6
			s-0.7,0.5-1.1,0.5c-0.5,0-0.9,0.3-0.1,0.6c0.7,0.3-0.1,0.4-0.5,0.4c-0.4,0-2.2,0.1-0.4,0.4c1.9,0.2-0.2,0.2,1.2,1
			c1.5,0.9,0.4,2.7-0.2,2.9c0,0-0.6,0.3,0.2,0.2c0.8-0.1,1.2-0.2,0.7,0.2c-0.6,0.4-1.7,1.9-3.2,0.8c0,0-0.7-0.3,0.6-0.4
			c1.3-0.1-1-0.3-1.4-0.6c-0.4-0.3-1.8-1.8-0.9-1.6c0.9,0.2,0.6-0.3,0-0.5c-0.5-0.2-0.7-1,0-0.8s1.3,0.5,1.8,0.5
			c0.5,0,0.4-0.2-0.7-0.6c-1.1-0.3-1.5-0.4-1.2-1.3c0.2-0.9,1.4,0.3,1.1-0.3s-1.3-0.3-0.7-1.2c0.5-0.9,0.7-0.5,0.9-0.4
			c0.2,0.1,0.6,0-0.1-0.5C403.3,137.2,403.8,136.7,403.9,136.6L403.9,136.6z"/>
		<path d="M405.6,137.2c0,0,0-0.3,0.4-0.2c0.4,0.1,0.3-0.2,0.4-0.2c0.1-0.1,1.2,0.3,0.2,0.7C406.3,137.6,405.7,137.5,405.6,137.2
			L405.6,137.2z"/>
		<path fill="#FFC221" d="M407.9,139.7c0,0-0.8,0.4-0.1,1.2c0.6,0.7,0.6,0.9,0.6,1.4c-0.1,0.5,27.3,0.8,27.3,0.8s0-1.8,1.1-2.7
			C436.8,140.4,421.8,140.1,407.9,139.7L407.9,139.7z"/>
		<path fill="#5A3719" d="M436.1,142.7c0,0,0.1-1.5,0.9-2c0.5-0.3,1-0.1,1.3,1.1c0.4,1.7-1.1,3.1-1.7,2.5
			C436,143.7,436.1,142.7,436.1,142.7L436.1,142.7z"/>
		<path fill="#7B3C20" d="M404.8,149.1c0,0,1.8-1.5,2.1-2.2c0,0,4.9,3.5,4.6,0.3c0,0,0-0.9,0.2-1.7c0,0,1.8,0.2,2.1-1.2l-4.6-0.1
			c0,0-0.5-0.1-1.2,0.7c-0.7,0.8-2.2,1.6-3.5,0.9c0,0-0.6-0.5-1.2-0.1c-0.6,0.4-0.6,0.5-0.1,1C403.6,147,404.6,148.3,404.8,149.1
			L404.8,149.1z M415.4,139.4l-2.7-0.1c0,0-1-1.4-2.9-2.9c0,0-0.6-0.2,0.5-1.1c1.1-0.9,1.4-1.8,1.4-2.2c0-0.4-0.1-1.1,0.3-0.6
			c0.4,0.5,3.2,3,3.6,2.3c0.4-0.7,0.5-1.1,0.5-1.3c0.1-0.2,0.2-0.9,0.6-0.2c0.4,0.7,0.7,0.5,0.7,2.4c0,0,0.1,1.9,0.4,2.5
			C417.8,138.3,414.3,137.1,415.4,139.4L415.4,139.4z M403.7,133.7c0,0,2.1,1.1,3.1-0.4c1-1.6,1.7-1.8,0.9-3.3s0-2.2,0.6-2.8
			c0.6-0.6,1.1-0.5,1.2-2.9s1.7-3.2,2.5-3.9s2.6-1.9-0.2-2.3c-2.8-0.5-8.4-1.9-9.8-4.1c-1.4-2.2-2.1-0.9-2.1-0.8
			c0,0.1-0.5,1.7,1,4.6c1.4,2.9,2.7,4.7,4.1,5.7c1.4,0.9,2.7,1.4,1.9,3.4C405.9,128.7,404.7,132.2,403.7,133.7z"/>
		<path fill="#5A3719" d="M411.2,127.6c0,0,0.4,4.9,4,6.7c0,0,0.8-1.9,0.5-3.8c0,0,1.2,0.1,1.5,0.6c0,0,0.1-1.4-1.6-2
			c-1.7-0.5-0.9-3.7-0.3-4.1c0.6-0.4,0.4-1,0-1.6s-0.5-1.5,0.9-1.1s1.2-0.4,0.4-1.1c-0.8-0.7-0.8-1.6,0.4-1.6s3.2-1.2,2-1.5
			c-1.2-0.4-1.6-0.8,0.1-1.2s2.4-1.1,1.2-1.2c-1.2-0.1-2.1-0.6-0.8-0.8c1.2-0.2-0.2-1.4-1.6-1.5c-1.4-0.1-4.4,0.5-2-1.4
			s-3.4-0.5-1-1.8s-0.8-0.7-1.2-0.7s-0.4,0-0.3-0.6c0.2-0.6-0.3-0.9-1-0.5s-0.7,0.4-0.7-0.5c0-0.9-0.8-0.2-1.3,0
			c-0.5,0.2-1.8,1.2-2.4,0.7c-0.5-0.5-0.8-1.1-2.4-0.1c-1.6,1-1.2,0.1-1.2-0.3c0-0.4,0.6-2.1-1.6-0.3c-2.2,1.8-0.4-2-2.2-0.7
			c-1.8,1.3-1.9,1.5-2.2,0.9c-0.3-0.6-0.6-1-2.5,0.2c-1.9,1.2-0.5-0.7-0.2-1.2c0.3-0.4,1.1-3.2-0.6-1c0,0-0.8,1.5-2.7-1.2
			c0,0-1.9,2.7-2.4,1.5c-0.5-1.2-1-1.3-1.6-0.5c-0.6,0.8-0.2,0-0.4-0.7s-0.4-1.9-3.7,0.5c-3.2,2.4,1.1,0.6-1.3,1.7s-8.4,4.4-3,3.6
			c5.4-0.8-2.7,2.1-0.8,2.7c1.9,0.5,1.3,2.2,8.4,0.2s5.9-0.3,9.5-1.9c3.6-1.6-0.8,0.5,4,0.4c4.8-0.1,0.8,0,1.8,1
			c0.9,1,5,3.4,8.9,3.8c3.8,0.4,4.8-1,3.7,0.6c-1.1,1.7-1.5,2.3-2.1,2.9s-2.5,1.9-2.5,4.2c0,2.3-3,2.7-1.9,5.2
			C408.6,130.1,410.3,128.5,411.2,127.6L411.2,127.6z"/>
		<path fill="#5A3719" d="M417.5,133.1c0,0-0.9-0.6-0.9-1.7c0,0,0.6,0.1,0.9,0.5c0,0,2.2-2.5-0.4-3.4c-2.6-0.9-1.3-3.3-0.4-3.3
			s1-0.3,0.3-1.3c-0.8-1-0.7-1,0.8-1.3c1.5-0.3,1.3-0.6,0.6-0.9c-0.7-0.4-1.2-1-1.2-1s4.2-1.8,2.9-2.7c-1.4-0.8,0-0.6,1.2-1.5
			c1.2-0.9,1.4-1,1.6-1.4c0,0-1.2,0.1-2.1-0.1c0,0,1.1-0.5,0-1.4c-1.1-0.9-1.5-1.6-3.2-1.2s-1.1-0.2-0.5-0.9
			c0.7-0.7,0.3-1.1-0.8-1.3c0,0,0.1-0.7,1-1.6c0,0-2.3,0.2-3-0.2c0,0,0.9-0.6,1-1.4c0,0-1.3,0.4-2.8,0.3c0,0,0.9-0.8,0.9-1.5
			c0,0-2.8,0.6-4,1.6c0,0-0.3-0.1-0.5-0.4c-0.2-0.3-0.4-0.6-3.4,0.4c0,0,0.3-1.4,1.1-1.9c0.7-0.5,0.6-1.6-4.1,1.3
			c0,0-0.6-0.4-1.2-1.8c0,0-1,1.4-1.8,1.9c0,0-0.7,0.3-0.6-0.6c0.1-0.9-0.5-0.3-1,0c-0.5,0.3-0.8,0.9-0.6-0.9s-0.7-2.3-0.7-2.3
			s-1.5,2.1-2.3,2.3c0,0-1.6-1.5-2.1-2.5c-0.5-1-0.5-1.4-1.1,0.4c-0.5,1.7-1.2,1.9-1.2,1.9s-0.9-0.8-1-1.2c0,0-0.2,0.5-0.5,0.7
			c0,0-0.8-1-0.8-2.4c0,0-5.1,2.8-5.7,4.5c0,0-4.8-0.3-6.8,0.1c0,0,0.5-1.6,1.8-2.3c0,0-1.3-0.1-1.3-1.4c0,0,1,0.1,1.6,0
			c0.6-0.2-0.9-2,0.7-2s2.6,0.8,1.9-1.4c-0.7-2.1-0.4-2.1-0.4-2.1s2.8,1.6,3.2,1.2c0.4-0.4-0.4-1.3,2.1-0.9s1.8-1,2.7-1.1
			c1-0.1,1.5,0.6,0.9-3.8c-0.6-4.5,3,2.2,0.5-4.5c0,0-0.6-2-2.1-2.9c0,0-0.3,1.5-2,0.2s-4.9-1.8-3.5-2.8c1.4-1,2-2.4,1.6-3.3
			c0,0-1.6,1.7-4.4,0.5c-2.2-1-2.7,0.8-4.9,0.3c0,0,0-0.6,2-2.1c1.9-1.5-1.1,0.5-2.3,0.8s-1.5,0.1,1-1.9c2.5-1.9,7.5-5.4,6.8-8.2
			c0,0,1.2,1.5,4.3,0.4c3.1-1.1,5.4-1.5,6.3-3.1c0.9-1.6,3.4-3.2,4-3.6c0.6-0.3,1.5-0.6,0.5,0.9c-1,1.5-2.5,4.1-6.8,5.9
			c-4.3,1.8-5.9,3-6.7,4c-0.8,0.9-4.6,3-2.1,2.6c2.5-0.3,6.9,0.1,4.8-0.5c-2.1-0.6-4.4,0.4-2.5-1.4c1.9-1.7,2.2-2.3,4.9-3.4
			s5.8-3.8,5.5-1c-0.3,2.8-5.4,5.8-6.6,6.7c-1.3,0.9-0.8,0.8-0.8,1.1c0,0.4-0.2,1.1-0.7,1.5c-0.5,0.3-0.4,0.7-0.2,1.5
			c0.1,0.8-0.1,1.1,0.2,1.2c0.4,0.1,0.8,0.2,0.9,0.7c0.1,0.6,0.4,0.6,1.1,0.6c0.7-0.1,1.2,0,1.3,0.4c0.1,0.4,0.8,1,0.8-0.3
			c0.1-1.3,0.6-1.6-0.8-1s-1.6,0.4-1.6-0.2c0-0.6-0.1-0.5-0.7-0.5c-0.6-0.1-0.8-0.8,0.2-1.4c1-0.5,1,0,2.2-1c1.2-1,1.2-1.3,1.4-1.8
			c0.2-0.5-1.8,1.4-2.7,1.8c-0.9,0.4-0.7-0.3-0.5-1.4s2.5-2.5,3.6-2.5c1.1,0,3.5,0.6,2.5,2.1s-4,3.2-2.7,3.4
			c1.3,0.1,1.5-0.4,2.2,0.3s0.1,2-0.3,2.7s-1.1,1.6-1.4,1.8c0,0-1.4-2.4-1.3-0.5s-0.3,2.6,0,2.7c0.3,0.1,1.8,1.1,2.3,1.1
			c0.5,0-2.6,1.4-1.3,1.5c1.3,0.1,3.3-0.6,4-1.9c0,0-2.6-0.6-3.7-1.6c0,0,3-0.7,2.2-3.7c0,0,3,0.8,1.7,2.2c-1.3,1.4-2.1,1.2-1,1.6
			c1.1,0.4,1.7,0.7,1.7,0.7s0.8,0.4,0.3,1c-0.4,0.6-0.5,1.6-0.1,1.6c0.4,0,1.7-0.6,0.6-1.3c-1.1-0.7,1.2-0.5,0.2-1.1
			c-1-0.6-1.2-0.7-1.5-1c-0.3-0.3,12.4-7.7,6-4.9c0,0,1.3-2.9,3.2-2.9c1.9,0,2,1.5,0.9,2.6c-1.1,1.1-1.7,2.9-4.2,3.3
			c0,0,3.5,1.7-0.6,4.6c0,0-0.9,0.4-0.6,0.7c0.3,0.3,2.8-1.1,3.2-1.9c0.3-0.8,0.9-1.4,1.8-1.9c0.9-0.5,5.6-3.6,7-6
			c1.4-2.4,1.8-2.5,4.5-4.7s2.3-1.8,2.6-2.3c0.3-0.5,0.5-1.4,1.8-2.1c1.3-0.7,6.1-3.4,7.7-4.5c1.5-1.1,4.7-3.1,6-4.9
			c1.3-1.7,5-3.9,5.9-3.5c0.9,0.4-0.1,1.7-2.2,3.3c-2.1,1.6-7.4,5.9-8.3,6.5c-0.9,0.7-5.3,3.9-7,4.1c-1.7,0.2-1.5,0.8-2.5,1.9
			s-3.3,3.4-4.1,4c-0.8,0.6-2.6,1.9-2.8,2.8c-0.1,0.9,0.3,1-1.2,2.4c-1.5,1.4-5.9,4.6-7.5,5.1c0,0,2.8,0.9,1.1,2.8
			c-1.7,1.9-1.6,1.6-1.7,1.7c0,0,4.3-0.6,1.2,2.7c0,0-0.6,1,0.8,0c1.4-1.1,0.8-2.5,0.7-2.7c0,0,2.3-1.4,4.9-1.4
			c2.6,0,2.5-0.2,0.2-0.9c0,0,1.7-2,3.1-1s0.9,1.6-0.5,2.4c-1.5,0.8-3.7,1.1-5.3,2c0,0,3.1,0.6,4.7-0.7s1.7-0.6,2-0.4
			c0.2,0.2,0.4,0.6-0.3,1.7c-0.7,1.1-0.8,1.1-0.8,1.3c0,0.2-0.1,1-1.5,1.2c-1.5,0.2-2.2,0.9-1.7,1.6c0.5,0.7,0.5,2.5-0.7,2.3
			c-1.3-0.2-0.9-1.2-1.4-1.6c-0.5-0.4-1.2-1-3.4,0.2c-2.2,1.2-2.4-0.2-2.3-0.9c0,0-1.4,1.3-2.6,0.1c-1.2-1.2-0.1-1.6,0.6-2.2
			c0.7-0.6,3.5-1.8,1.8-1.6s-4.2,0.3-4.8-1c-0.6-1.3,1.3-1.2,1.5-1c0.3,0.1,1.5,1.1,1.5-0.2c0-1.3,1.9-1.4,1.3-1.7
			c-0.6-0.3-1.5,0.5-1.8,0.9c0,0-1.3-1.8-3.4-1.2c-2.1,0.6,0.7,0.4,1.2,0.5c0.6,0.1,0.2,1.1-1.7,2.9c-1.9,1.7-1,1.2,0.4,1.2
			c1.4,0,4.8,0,2.8,1.7c-2,1.6-2.8,2.5-3.8,2.2s0.1-1,0.6-1.3s0.7-0.8-0.3-0.4s-1.3,0.4-2.1-1c-0.8-1.4-0.5-1-0.1-1.9
			c0.3-0.9,1.1-1.9,0.2-1.5c-0.9,0.3-0.8,0.4-0.7-0.7c0.1-1.1-1-1.3-1-1.3s0.4,1.1,0,1.7s-0.4,0.9,0.2,1.1c0.7,0.2,1.3,0.7,0.4,1.4
			c-0.9,0.6-0.8,0.5-0.2,0.9c0.6,0.4,1.4,0.8,0.5,1.7c-0.9,0.9-0.1,0.6,0.3,0.6c0.4,0,1.4,0.4,1.4,1.2c0,0.8-0.1,1.1,1.4,0.3
			s4.3-0.7,4.2,0.4c0,1.1-0.4,1.4,1.1,0.4c1.5-0.9,2.2,0.9,3.2,0c1-0.9,1.7-1.7,2.9-0.2c1.2,1.5,0.8,2-0.6,3
			c-1.5,1.1,0.7,0.2,1.8-0.3c1.1-0.6,4.2-1,6-0.2c1.8,0.8,2.3,0.6,3.6,0.1c1.3-0.5,2-0.7,4,0.7c2,1.3,3.5,1.6,4.6,1.5
			c0,0-2.2,0.9-4.7,1s-3.7,0.6-4.2,1c0,0,1.5,0.9,1.8,2c0,0,1.6-0.2,2.4,0.1c0,0-0.4,1.2,0.6,1.8c1,0.6,1.7,0.9,0.9,1.7
			c-0.7,0.9,1.1,0.5,0.1,1.7c-1.1,1.2-1.4,1.8-1.4,2.8c0,1,0.2,1.1-0.7,1.2c-1,0.1,0.2,1.2-0.3,2.5c-0.4,1.3-3.1,1.1-3,4.6
			c0,0,0.7-1.7,2.4-3.2s1.7-1.6,1.6-2.5c0-0.9-0.1-0.7,0.7-1.4c0.9-0.7-0.4-1.3,0.5-2.3c0.9-1,0.1-0.8,1.1-1.7s-0.9-1.1,0.1-2.1
			c1-1-2.5-2.1-1.5-2.8c1-0.6,2.7-1.5-3.1-1.4c0,0,1.4-2.3,6.3-1.8c0,0-1.3,0.9-1.4,1.8c0,0,0.6,0.3,0.9,0.4c0,0-0.2,0.7-1.1,1.5
			c0,0,2.6,1.5,3,2.3c0,0-1.6,0.5-2,1.2c0,0,0.7,0.8,0.9,1.8c0,0-1.8-0.2-2,1.1c-0.2,1.3-0.8,0.4-0.8,1.2s0.1,1.1-0.6,1.2
			s-0.1,0.8,0,1.2c0.1,0.4,0.3,1.4,0.2,1.7c0,0-0.9,0-1.3,0.1c0,0,0.3,1.9-0.8,2.2s0.6,0.7-0.6,0.9c-1.1,0.2-1,0.3-2.4,2.8
			c0,0,1.2-0.7,2.4-1.5c1.2-0.8-0.1-0.6,1.9-2.6c2-2,1.7-2.1,1.5-3.2s-0.2-1.8,0.5-2.8c0.7-1,1-2,3.6-1.9c0,0-0.8-1.7-1.7-2.2
			c0,0,1.2-0.9,2.6-1c0,0-1.1-1.4-3.5-2.7c0,0,1.9-1.7,2.4-2.5c0,0-0.9,0.1-1.6,0c0,0,0.3-0.8,2.1-1.9c0,0,0.9,0.9,0.9,1.8
			c0,0,3-1.7,4.7-1.5c0,0,0.9,2.2-3.3,6.2c0,0,2.6,0.2,3.7,0.1c0,0-0.6,2-3.7,3.2s0.7,2.5-2.5,2.3s-2.2,0.9-2.1,2.5
			c0.1,1.6,0.2,3.3,0.1,3.7c0,0-2.6-0.8-2.5,1.6c0.1,2.5-1.3,3-1.6,3.2c0,0-0.7-0.7-1.9-1.1C421.7,128.3,420.1,131.3,417.5,133.1
			L417.5,133.1z"/>
		<path fill="#7B3C20" d="M413.9,102.1c0,0,0.9-0.1,2.4,0.8c1.5,0.9,2.9-1,1.3-1.5s0-1.1,1.5,0.1s2.1,0.6,2.6,0.2
			c0.5-0.4,1.2-0.6,0.2-1.3c-1-0.7,0.7-0.4,1.4,0.1c0.8,0.5,0.5,1,0.4,1.1c-0.1,0.1-0.2,1.7,1.3,0.2c1.5-1.5,2.2-3,2.2-3.7
			c0,0,0.8,0.5,0.9,1.5c0.1,0.9,1.3-0.5,1.6-1c0.4-0.5,1-1.8,1-2.8c0,0,1,1.6,2.5,0s0.8-0.6,2.7-1.1s4.1-1.8,5.3-3.3
			s1.3-0.5,2.9-0.9c1.6-0.4,4.8-2.6,5.1-3.8c0.3-1.2,0.2-1.9-0.2-1.5c-0.5,0.4-0.3,0.1-1-0.3c-0.7-0.4-1.7,0.6-1.7,0.6
			s1,0.8,0.2,1.1c-0.8,0.3-1.5,1.4-3,1c-1.4-0.4-3,1.3-3,1.3s1.3,1-0.4,1.7c-1.7,0.7-1.4,0.9-2.5,0.2c0,0-1.8,2.3-2.8,2.8
			c0,0-0.5,0-0.8-0.5c0,0-1.2,1.3-1.8,1.6c0,0-0.7-0.7-1.4-0.9c0,0-1.4,1.8-2.6,2.3c0,0-0.4-0.7-1.1-1.1c0,0-0.4,2.3-2.9,3.7
			c0,0,0.2-0.6-1.1-1.5c0,0-3.1,2.7-4.3,3c-1.2,0.3-0.1-0.6,0.1-0.9c0.2-0.3,0.9-1.5-0.6-2c-1.5-0.5-1.3,0.3-1.6,0.5
			c-0.3,0.1-0.4-0.3-1.4-0.1c-1,0.1-0.8,0.6-1.3,0.8c-0.4,0.2-2.2-0.3-2.1,0.9c0.1,1.2,0.9,2-0.6,2.6
			C409.8,102.6,411.9,102.4,413.9,102.1L413.9,102.1z"/>
		<path fill="#5A3719" d="M420.2,98.8c0,0,0.4-1.5-0.9-2.2c0,0,8.3-1.3,2-4.4c0,0,7.4-1.5,5.7-3.9c-1.8-2.4-3.5-1.8-3.7-1.8
			c-0.3,0,1.6-1.4,2.1-1.2c0.5,0.2,6.5,2.5,4.9,0.5c-1.5-2-1.4-1.8-1.6-2.4c0,0,2,0,4.9,2.9c0,0,0.6-0.7,0.5-1.8
			c0,0,2.1,0.6,2.8,1.2c0,0,0.4-0.7,0.2-1.1c0,0,1.8,1,2.5,2c0,0,0.8-0.7,1-1.6c0,0,1.8,0.8,2.3,1.3c0,0,0.6-0.8,0.4-1.9
			c0,0,3,0.9,3.4-1c0,0,3.1,0.7,1.1,1.9c-2.6,1.5-0.3-0.4-2.9,1.4c-2,1.4-3.2,3.1-4.1,2.7c-0.7-0.3-1.6,1.8-2.6,0.8
			c-1-1-1-0.6-1.7,0.5s-1.8,2.1-1.8,2.1s-0.5-0.3-0.9-0.7c0,0-0.6,1-1.4,1.7c0,0-0.6-0.8-1.6-1.3c0,0-1.5,1.7-2.4,2.3
			c0,0-0.9-0.9-1.8-1.1c0,0-0.1,2.4-2,3.6c0,0-0.4-0.8-1.6-1.2C423.1,96.1,422.2,97.6,420.2,98.8L420.2,98.8z"/>
		<path fill="#5A3719" d="M415.9,95.2c0,0-1,0.8-0.4,1.6c0.6,0.8,0.7-0.1,1.5-0.2c0.8-0.1,10.9-1.8,1.8-4.6c0,0,0.4-0.3,2-0.5
			c1.6-0.1,7.3-1.7,4.6-3.7c-2.7-2-4.9,0.7-2.7-1.8c1.8-2,0.4-2.9,0.4-2.9s-5.3,3.6-6.5,4.2s-2.9,1.9-0.9,2.6c2,0.7,3.4-2.2,3.6-1.5
			c0.2,0.6-4,3-3.4,4.1c0.6,1.1,0.5,2,1.5,1.8c1-0.2,3.9,0.5,1.6,0.5C416.6,94.6,415.9,95.2,415.9,95.2L415.9,95.2z"/>
		<path d="M419.5,90.1c0,0-0.9,0.7,0.3,0.3c1.2-0.3,3.7-0.9,3.2-1.5C422.6,88.3,421,89.1,419.5,90.1z"/>
		<path fill="#7B3C20" d="M435.8,79.6c0,0,4.7-0.1,6.6,1.2c1.9,1.3,2.9,2.2,3.4,2.4c0,0-0.1,1.8-3.1,0.5c0,0,0.2,0.9-0.2,1.7
			c0,0-1.1-0.7-2.4-1.1c0,0-0.2,0.7-0.6,1.1c0,0-1.3-1.4-2.8-1.8c0,0-0.3,0.7-0.6,0.9c0,0-1.6-0.9-2.8-0.9c0,0,0.2,1,0,1.4
			c0,0-3.4-2.7-6.5-2.3c0,0,1.5,2.1,2.4,3.2c0,0-6.2-0.5-5.1-3.8c1-3.3-0.1-2.5,3.9-2.5C432.1,79.6,435.8,79.6,435.8,79.6z"/>
		<path fill="#5A3719" d="M406.9,88.7c0,0-0.7,0.6,0,1.1c0.7,0.5,3.1-1.3,3.5-1.5c0.3-0.2,1.2-0.2,0,0.7s-2.4,1.9-3.2,2.9
			c0,0,4.1-1.1,6.7-3.4c2.7-2.3-0.1-0.8,4.4-3c4.5-2.2,6.9-5.7,4.5-5.3c-2.4,0.4-4.6,3.2-6.5,4.2c-1.9,1.1-3,1.2-2.7,0.6
			c0.3-0.6,1.7-0.4,4.3-2.5c2.6-2.1,2-1.9,2.1-2.7s-1-2.6,2.9-4.6c3.9-2,16.1-9.2,17.1-11.6c0,0-3.6,0.4-8.2,3.8
			c-4.7,3.5-7.2,5.1-8.5,5.5s-1.1,0.1-2,1.1c-0.8,1-5.5,5.5-6.3,6.1c-0.8,0.7-1.1,1.1-1.2,2.4C413.8,83.3,408.5,87.2,406.9,88.7
			L406.9,88.7z"/>
		<path fill="#5A3719" d="M423,79.5c0,0-0.9,0.4-1.8,0c-0.9-0.4-0.6-2.3,1.5-3.4c2.1-1.1,5.9-2.8,7.9-3c0,0-0.3,2.4-6.3,4.5
			C424.3,77.5,424.7,78.7,423,79.5z"/>
		<path fill="#AA5323" d="M425.1,77.9c0,0,0.2,0.6,0,1.1c0,0,11.2,1.1,17-5.8c0,0-8,0.7-11.1,2.6c0,0,2-2.5,8-4.6
			c6-2.1,8.4-4.6,8.9-6c0,0-7.5,2.6-11.1,2.6c0,0-0.7,0-1.4,0.4c-0.7,0.4-5.5,3.9-6.8,4.5c0,0,2.7-0.2,3.7-1.1
			C432.3,71.7,430.4,76.8,425.1,77.9L425.1,77.9z"/>
		<path fill="#5A3719" d="M403.6,84.3c0,0-1.4,1-0.8,1.5c0.6,0.5,1.6,0.6,3.8-1.2c2.2-1.8,7.5-6.4,4.2-6.6c0,0-4.3-0.3-4.2,2.4
			C406.8,83,403.8,84.1,403.6,84.3z M393.7,82.8c0,0,2.8,1.7,1.8,3c0,0,8.7-7.4,6.3-9s-4.4,1.4-3.8,1.7c0.6,0.3,1.9-0.3,1.4,0.3
			C398.9,79.4,394.2,82.5,393.7,82.8L393.7,82.8z M391.4,80.4c0,0,1.9,0.6,2,1.4c0.1,0.8,5.8-4,4.3-6c-0.7-0.9-3.9-1.3-4,0.5
			s2.8-0.2,1.8,1.1C394.1,79.1,391.8,80.1,391.4,80.4z M411.9,76.3c0,0-1.2,0.9-0.1,1.4c1.1,0.5,1.8-0.3,2.4-0.8
			c0.5-0.5,3.3-2.5,3.9-3.7c0.6-1.3,1.6-1.7,2.5-2.3c1-0.7,7.9-4.1,12.2-7.9c4.3-3.8,2.5-2.8,6.9-5.3c4.4-2.5,7.3-4.7,8.3-7.4
			c0,0-2.1,0.7-3.9,1.8s-5.9,3.7-6.7,4.1s-2,0.4-2.6,1c-0.6,0.6-0.5,1.4-2.7,3.2c-2.1,1.8-13.2,9.5-14.5,10.6
			C416.3,72.1,411.9,76.3,411.9,76.3L411.9,76.3z"/>
		<path fill="#AA5323" d="M403,78.9c0,0,1.2-0.7,3.5-0.5c2.3,0.2,11.2-8.5,13.8-10.2c2.6-1.7,10.7-7.6,11.8-8.7
			c1.1-1.1,1.3-2.2,2.2-2.8c0.9-0.6,1.8-0.5,4-1.8c2.2-1.3,12.7-7.5,12.1-11.2c0,0-15.6,9.4-19.2,12.4c-3.6,3.1-13.6,10-15.4,11.1
			c-1.8,1.1-3.2,3.1-6.2,5.5C406.5,75.1,403.5,77.2,403,78.9L403,78.9z"/>
		<path fill="#AA5323" d="M399.7,75.6c0,0,2.9-0.3,3.3,1.1c0,0,6.2-4.3,7.6-6c1.4-1.7-0.5-0.7,3.1-3.1c3.5-2.3,15.3-10.5,17-12
			s4.8-3.4,7.4-5.1c2.6-1.7,12.5-6.6,11.4-10.6c0,0-7.3,4.9-9,6c-1.6,1.1-2.3,0.5-4,1.8s-5.4,3.9-6,4.7s-6.3,5.1-9,7
			s-8.9,5.4-11.8,7.9C406.7,69.8,401,74.6,399.7,75.6L399.7,75.6z"/>
		<path fill="#AA5323" d="M390.7,74.7c0,0,1.5,0,1.9,0.6c0,0,2.7-2.4,5.6,0c0,0,10.6-7.1,11.6-9s2.8-1.8,6.9-4.8s6.7-4.3,9.4-6.4
			c2.7-2.1,5-4.5,7-5.8c2-1.3,6.9-4.5,6.1-7.3c0,0-4,2.3-6.6,5.2c-2.6,2.9-2.4,0.4-5.1,2.8c-2.7,2.4-6.8,5.7-10.2,7.4
			c-3.4,1.7-1.3,1.5-3.8,3.1s-2.3,1.3-3.2,1.6c-0.9,0.2-2.3,0.9-3.2,1.9s-3.4,2.5-6,4C398.4,69.4,391.9,73.3,390.7,74.7L390.7,74.7z
			"/>
		<path fill="#AA5323" d="M393.9,69.2c0,0-0.6-1.2,0.4-2c1-0.8,2.8-3,3.1-4.4c0.3-1.4,0.1-1.2,3-2.4c2.9-1.2,9.6-4.3,13.3-6.6
			c3.7-2.3,9.4-6,10.6-6.9c1.2-0.9,4-2.9,5.2-3.8c0,0,0.6,1.6-0.7,2.7s-6.1,4.5-6.9,5c-0.8,0.5-5.2,3.5-6.6,4.3s-4.8,2.5-6,3.5
			c-1.2,1-1,1.3-6.4,3.9c-5.4,2.6-5.6,2.9-5.5,3.1c0.2,0.2,2.6-0.8,3.7-1.5c1.1-0.7,5.6-2.7,6.9-3.7c1.3-1,3.5-2.7,4.5-3.2
			c1-0.5,8.9-5.3,11.2-7c2.3-1.7,2.9-2.2,3.4-1.9c0.5,0.3,1.3,0.3,0.3,1.3c-1,1-4.2,3.8-5.5,4.6c-1.2,0.8-5.1,3.1-6.2,3.7
			c-1.1,0.6-1.5,1.6-2.1,2s-2.4,1.7-4.5,2.2c-2.1,0.5-2.5,2.1-3.9,3c-1.4,0.9-11.3,6.2-11.6,6.5C393.7,71.3,394.3,70.7,393.9,69.2
			L393.9,69.2z"/>
		<path fill="#AA5323" d="M428.2,47c0,0-0.5,0.5-0.2,0.8c0.4,0.4,1.8,1.3,3.5-0.4c1.7-1.7,6.4-5.4,7.9-6.3c1.5-0.9,2.2-1.7,2.2-2.9
			C441.5,38.1,434.4,41.9,428.2,47z M438,46.3c0,0,1.1-1.8,3.8-3.5s6.7-4.2,7.2-4.8c0,0,1,1.1-1.1,2.4c-2.1,1.3-6.2,4.1-6.7,4.4
			C440.7,45.2,439.9,45.8,438,46.3z"/>
		<path fill="#7B3C20" d="M383.5,66.1c0,0-3,1.6-1.9,2.6s2.7,0.7,3.3,0.4s1.9-0.6,2.1-0.7c0.2-0.1,2.8-0.8,3.4-2s2.4-2.6,3.8-3.6
			c1.4-1,1.9-2,1.7-2.7C396,60.2,384.2,65.7,383.5,66.1z M365.8,79.9c0,0,2.1-1.2,4.9-0.5c0,0-0.1-0.7-0.6-1.1c0,0,3.5-0.9,4.3-2.5
			c0.8-1.6,0.9-1.2,1.6-1.7s5.4-4.3,4.9-5.1c-0.5-0.8-0.7-1.9-1.1-2.3c0,0-1,1.4-5.6,3.6c-4.6,2.2-9.7,3.9-13.4,8.9
			c-3.7,5-3.3,7.9,1.2,9.2c0,0,3.2-2,11-1.3c7.8,0.7,10.4,3.6,10.9,4.2c0.5,0.5,2.1,2.5,0.5,5.7c0,0,1.6,0.7,1.7-0.8
			s0.2-1.1,0.6-0.9c0.4,0.2,0.8,0.3,0.6-0.9c-0.2-1.1-0.7-3.7-1.4-4.6s0.1-0.5,0.5-0.3c0.5,0.2,2.1,1.5,1.1-0.9
			c-1-2.5-1.2-1.2-1.3-1.1c0,0.1-0.2,0.7-2.4-0.9s-4.1-2.4-5.5-2.8c-1.4-0.4-0.4-0.4,0.4-0.7c0.8-0.3,2-0.5,2.4-1.4
			c0,0-0.8,0.2-2.4-0.3s-4.7-0.6-7.2,1.3c0,0,0.8-2.9-1.5-2.7s-3.9,0.1-6.3,2c0,0-0.1-2.9,2.2-4.4c2.3-1.5,2-0.6,3.3-1
			s1.4-1.7,0.8-2.1c0,0,3,0.5,8.1-3.7c0,0-2.7,3.6-6,4.3c0,0-0.5,1.9-3.5,2.3C365.7,77.7,365.8,79.5,365.8,79.9L365.8,79.9z"/>
		<path fill="#5A3719" d="M357.2,97.3c0,0,1.5-8.8,9.7-9.5c7.2-0.6,9.5,0.3,11,0.8c1.4,0.5,5,1.5,3.6,2.6s-2.2,0.9-2.2,0.9
			s1.6-1.8,0.1-2.1c-1.4-0.3-1.6,0.6-1.8,1.3s-0.3,1.6-1,2.2c0,0-0.7-0.8-1.8-0.1s-0.1,0.8,0.3,0.6c0.4-0.1,1-0.3,0.9,0.3
			c-0.1,0.6-0.7,1.7-2.4,2.6c-1.7,0.9-1.6,0.8-3.7,1.2c-2,0.3-3.9,1.1-6.5,3.4c-2.6,2.2-5.5,1.5-6-1
			C356.9,98.5,357.2,97.3,357.2,97.3L357.2,97.3z"/>
		<path d="M366.6,97c0,0,0.8-1.7-0.6-2.5c0,0-4.3,0.7-5.6-0.6c0,0,4.7-0.2,7.7-1.4c2.9-1.1,2.1-1.9,1-2.1c-1-0.2-2.9,0.3-3.1,1.2
			c0,0-0.6-1,0.2-1.6s1.9-0.8,2.9-0.5c1,0.3,2,0.8,5.4-1c0,0,2,0.5,2,1.8s-0.1,1.9-0.3,2.1c-0.2,0.2-0.4,0.6-0.8,0.6
			c-0.4,0-0.9-0.1-1.4,0.8c-0.5,0.9-0.8,1.7-1.7,2.3c0,0,1-2.9-1.5-3.5c0,0-2.1,1.2-3.7,1.3C367.1,93.7,369.1,95.6,366.6,97
			L366.6,97z"/>
		<path fill="#5A3719" d="M371.2,91.7c0,0-1-1.1,0.3-1.2c1.3-0.1,2.9,0.8,2.6,1.6C373.7,92.9,372.3,92.9,371.2,91.7L371.2,91.7z"/>
		<path fill="#FFFFFF" d="M442.2,77.7c0,0-2.3,0.7-0.2,2.1c2.1,1.4,3.2,2.6,4.7,3s3.2,1,3.1,2.5c0,1.6-0.3,2.2-1.2,3.2
			c-0.8,1.1,0.5,1.5,1.6,0.9c1.1-0.6,2.1-0.9,2.8-1.4s2-0.4,0.8,0.2c-1.1,0.6-2.3,0.9-0.8,1c1.4,0,10.2,0.2,12-0.4s4.2-0.8,4.4-3.2
			c0,0,0.1-1.1,0.8-1.5c0.7-0.4,1.1-1.5,0.2-0.8c-1,0.7-1.8,1-2,0.8c-0.2-0.2-0.2-0.3,0.5-0.7c0.7-0.3,1.1,0,1.8-1
			c0.7-1,0.6-0.8,0.2-1.2c-0.4-0.4-1.1-0.7-0.7-1.1s0.7-1.9-0.9-1.1c-1.6,0.8-4.7,3-6.2,3.3s-2.6,0.8-4.5,1.2c-2,0.4-3.2,0.8-5.3,2
			c-2.1,1.2-2-0.6-1.6-0.9c0,0,0.8,1.4,2.9-0.4c2.1-1.8,1.4-0.1,6.7-1.8s3.9-2,6-3.1c2-1.1,4-1.1,2.6-2.5s-1.6-1.5-3.4,0
			c-1.8,1.5-6.9,4-10,4.1c0,0,11.8-5.1,10.6-5.8c-1.2-0.7-2.5-1.4-3.3-1.6s-1-0.4-2.9,0.5s-2.2,1.1-2.8,1.1
			c-0.5,0.1-2.1,0.4-4.4,1.5c-2.2,1.2-3.4,1.6-4.9,2.5c0,0,1-2.1,5.7-3.5c4.6-1.4,7-2.7,6.5-2.9c-0.5-0.2-1.7-0.4-2.5-0.3
			c-0.9,0.1-0.6-0.1-3.4,1.1c-2.8,1.1-1.6,0.9-3.9,1.4s-3.2,1-4.3,1.5c0,0,0.5-0.6,2-1.2c0.8-0.3-0.9-0.6,1.3-0.7c0.2,0,0.4,0,0.6,0
			c2.8-0.8,5.9-1.9,5.5-2c-0.5-0.1-3.2-0.4-6,0.9c-2.8,1.3-1.5,0.8-2.5,1.1c-1,0.2-3.1,1.5-3.8,2.1
			C443.2,77.3,442.2,77.7,442.2,77.7L442.2,77.7z"/>
		<path fill="#5A3719" d="M373.4,90.4c0,0,1.1,0.3,1.4,1.1c0.3,0.8,1-0.3,0.9-0.7c0-0.3-0.7-1.9-1.9-1.2S373.2,90.4,373.4,90.4
			L373.4,90.4z"/>
		<path fill="#7B3C20" d="M370.3,105.6c0,0,2.3-1.1,4.3-1c0,0-0.8-2.8,0.6-2.3c1.4,0.5,1,0.3,1.3,0.3c0,0,0.1-1.8-0.3-2.5
			c0,0,1.4,0.3,2.8,0.3c0,0-1.3-2.6,0.1-4.4c0,0,0.8,1.7,2.6,2.1c0,0,0-0.7,0-1.5c0,0,1.1-0.1,1.9,0.3c0.8,0.5,1.6-4.7-1-5.9
			c0,0-0.6,1-3,1.5c-2.4,0.5-2.3,1-3.3,2.7c-1,1.8-1.8,1.8-3.8,3.1c-2,1.3-3.2,3.8-3.3,4.1C369.4,102.4,370.5,103.7,370.3,105.6
			L370.3,105.6z"/>
		<path fill="#999999" d="M448.8,75.4c0.9-0.1-0.9-0.6,1.3-0.7c0.2,0,0.4,0,0.6,0c2.8-0.8,5.9-1.9,5.5-2c-0.5-0.1-3.2-0.4-6,0.9
			c-2.8,1.3-1.5,0.8-2.5,1.1c-1,0.2-3.1,1.5-3.8,2.1c-0.7,0.6-1.7,1-1.7,1s-2.3,0.7-0.2,2.1c2.1,1.4,3.2,2.6,4.7,3s3.2,1,3.1,2.5
			c0,1.6-0.3,2.2-1.2,3.2c-0.8,1.1,0.5,1.5,1.6,0.9s2.1-0.9,2.8-1.4c0.7-0.4,2-0.4,0.8,0.2c-1.1,0.6-2.3,0.9-0.8,1
			c1.4,0,10.2,0.2,12-0.4c1.8-0.6,4.2-0.8,4.4-3.2c0,0,0.1-1.1,0.8-1.5c0.7-0.4,1.1-1.5,0.2-0.8c-1,0.7-1.8,1-2,0.8
			c-0.2-0.2-0.2-0.3,0.5-0.7c0.7-0.3,1.1,0,1.8-1c0.7-1,0.6-0.8,0.2-1.2c-0.2-0.2-0.5-0.4-0.7-0.5c0,0-0.5-0.5-1.1-0.1
			s-3.3,1.5-4.4,1.7c-1.1,0.1-2.2,0.6-4.1,1.5c-1.9,0.9-5.1,2.9-5.7,1.1c0,0-1.4,0.5-1.7,0.7c-2.2,1.1-2-0.5-1.6-0.9
			c0,0-1.1,1.3-1.1,0.1c0-1.2,0.8-1,2-1.3c1.3-0.4,3.2-1.2,2.4-1.9s-1.7,0.7-2.6,1.1c-0.9,0.4-2.7,0.8-3-0.5s-0.3-2.2-2.7-2.4
			s-2.4-1.7-1.7-2.3S446.4,75.8,448.8,75.4L448.8,75.4z"/>
		<path d="M456.6,87.4c0,0,3.8-1.8,7.4-2.6c3.5-0.8,0.8,0.1,0.2,0.3c-0.6,0.2-6.1,2-7.4,2.6C455.5,88.3,455.7,87.8,456.6,87.4
			L456.6,87.4z M457.5,88.2c0,0,4.3-1.4,5.1-0.8c0.8,0.6,0.1,0.3-0.8,0.4c-0.9,0.1-3.6,0.6-4.2,0.6
			C456.9,88.3,457.5,88.2,457.5,88.2z M464.4,86.7c0,0,0.8-0.2,0.9,0.2c0.1,0.3-0.4,0.3-0.8,0.3C464.1,87,463.7,86.8,464.4,86.7z"/>
		<path fill="#FFFFFF" d="M350.3,124.3c0,0-0.2-3.8,1.8-5.7s11.2-11.6,12.6-14.3c0,0,1.2,0.8,1.3,2.4c0,0,1.6-2.7,2.8-3.7
			c0,0,1.1,1.1,0.9,3.3c0,0,2.2-1.2,5.7-1.2c0,0-1.3,1.5-1.3,2.4c0,0,4.8-0.5,7.3-0.1c0,0-6.6,3.7-4.8,4c1.9,0.3,3.8,0,3.8,0
			s-2.1,2.1-5.5,2.6c0,0,4.3-0.1,5.1,0.9c0,0-4.2,0.6-7.5,3.2c0,0-0.3-0.1-0.3-1.1c0,0-0.1,0.8-1.1,1.6c-1,0.8-3.3,2.5-4.1,3.4
			c-0.8,0.9-2.4,2.6-4.1,2.5c0,0,0.4-1.3-0.9-1.7c-1.3-0.4-2.7-0.1-3.7,1c0,0-4.5,0.1-5.9,0.3c0,0,1-1.6,1.9-1.6c0.9,0,4.7,0.6,5-2
			c0.3-2.6-2.4-1.9-1.4-3.4c1-1.5,0.8-1.5,0.8-1.6c0,0-0.8,0.5-1.3,1.8c-0.5,1.4-0.8,2.4-2.6,3.7c-1.8,1.4-2.5,2.2-3,3.1
			C351.9,124,351,124.1,350.3,124.3z"/>
		<path fill="#FFFFFF" d="M354.6,122c0,0,0.1-0.5,1.5-0.7s1.4-0.8,1.2-1.1c-0.2-0.3-0.9-0.3,0.3-1.7c0,0,0.5,0.1,0.8,0.5
			C358.7,119.3,360.1,122.4,354.6,122z"/>
		<path fill="#999999" d="M351.5,119.3c0.1,2.5,3.4,1.6,3.4,1.6c-1.2,0.9-1.9,1.6-2.4,2.2c0.2-1.2-1.9-1.5-1.9-1.5
			C350.8,120.8,351,120,351.5,119.3z M363.7,105.8c0.5-0.6,0.8-1.2,1-1.5c0,0,1.2,0.8,1.3,2.4c0,0,1.6-2.7,2.8-3.7
			c0,0,1.1,1.1,0.9,3.3c0,0,2.2-1.2,5.7-1.2c0,0-1.3,1.5-1.3,2.4c0,0,4.8-0.5,7.3-0.1c0,0-6.6,3.7-4.8,4c1.9,0.3,3.8,0,3.8,0
			s-2.1,2.1-5.5,2.6c0,0,4.3-0.1,5.1,0.9c0,0-1.2,0.2-2.9,0.8c0,0-1.2-1.2-4.8-1c0,0,2.8-1.5,5-2c0,0-1-1.3-2.5-0.1
			c0,0-3-2.1-0.5-3.8c0,0-1.8-0.4-2.9,0.5c0,0,0.1-1.4,1.3-2.1c0,0-3.4-0.5-4.2,1.9c0,0-0.6-1-0.3-2.2c0,0-2,1.2-3,2.5
			C365.3,109.3,365,106.8,363.7,105.8 M357.1,121.9c-0.6,0.1-1.4,0.2-2.5,0.1c0,0,0.1-0.3,0.8-0.6
			C355.4,121.4,355.6,121.9,357.1,121.9"/>
		<path d="M363.3,112.3c0,0,1.5,1.2,2.1,1.9c0,0,1.4-1,1.9-1.8c0,0,1.1,0.7,1.5,1.8c0,0,0.8-0.5,0.9-1.3c0,0,1.9,0.4,2.6,1
			c0,0,0.3-1.9,0-3c0,0,1.3,0.1,2.2,0.5c0,0-0.8-1.2,3.1-2.8c0,0-2.9,0.6-4.1,1.9c0,0-1.3,0.1-1.8-0.3c0,0,0.1,1.9,0,2.8
			c0,0-0.8-0.3-2.2-0.7c0,0-0.4,0.6-0.6,0.8c0,0-0.9-0.7-1.3-1.7c0,0-1.4,1.3-2,1.8C365.5,113.3,364.2,112.3,363.3,112.3
			L363.3,112.3z"/>
		<path fill="#FFC221" d="M354.5,131.5c0,0,0.6,0.3,2-0.9c1.4-1.1,5.4-3.7,5.8-5.8c0.4-2-1.3-2.2-2.6-1.6c-1.3,0.6-0.8,1.7-0.7,2.1
			c0.1,0.4,0.1,1.8-2.1,3.8C354.8,131.2,354.5,131.5,354.5,131.5L354.5,131.5z"/>
		<path fill="#FFC221" d="M354,132.1c0,0-3.2-1.4-0.3-2.8c2.9-1.5,4.2-1.8,4.5-3c0.3-1.2,0.1-1-0.9-0.5c-1.1,0.5-5.2,2.4-5.8,0.6
			c0,0,1.7,0.7,3.8-0.4c2.1-1,3.8-1.3,2.5-1.8c-1.3-0.4-6.2,0.1-7,0.3c-0.8,0.2-0.6,0.2-0.7,1c-0.1,0.8-1,2.5-1.4,3
			c-0.3,0.5-1.1,2.5,0.4,3.4C350.5,132.9,352.8,132.8,354,132.1z"/>
		<path d="M352.7,125.1c0,0-0.7,0.1-0.6,0.4s0.3,0.2,0.6,0.3c0.3,0,0.7-0.1,0.7-0.3C353.5,125.2,353,125,352.7,125.1L352.7,125.1z"
			/>
		<path fill="#FFFFFF" d="M353.8,131.4c0,0-1.5-0.7,0.2-1.7c1.7-0.9,3.6-1.8,3.8-2.2C357.8,127.5,357,128.7,353.8,131.4L353.8,131.4
			z"/>
	</g>
</g>
</svg>
