<?xml version="1.0" encoding="utf-8"?>
<!-- Generator: Adobe Illustrator 28.2.0, SVG Export Plug-In . SVG Version: 6.00 Build 0)  -->
<svg version="1.1" id="atg" xmlns="http://www.w3.org/2000/svg" xmlns:xlink="http://www.w3.org/1999/xlink" x="0px" y="0px"
	 viewBox="0 0 480 320" enable-background="new 0 0 480 320" xml:space="preserve">
<path fill="#FFFFFF" d="M0,0h480v320H0V0z"/>
<path d="M0,0h480l-31.3,160H31.3L0,0z"/>
<path fill="#FCD116" d="M240,160l-104.3-34.8l53.2-10.2l-45.2-29.8l53,10.9l-30.4-44.8L211,81.8l-10.9-53L229.8,74L240,20.9
	L250.2,74l29.8-45.2l-10.9,53l44.8-30.4l-30.4,44.8l53-10.9L291.2,115l53.2,10.2L240,160z"/>
<path fill="#0072C6" d="M31.3,125.2h417.4v69.6H31.3V125.2z"/>
<path fill="#CE1126" d="M0,0l240,320L480,0v320H0V0z"/>
</svg>
