<?xml version="1.0" encoding="utf-8"?>
<!-- Generator: Adobe Illustrator 27.9.1, SVG Export Plug-In . SVG Version: 6.00 Build 0)  -->
<svg version="1.1" id="atg" xmlns="http://www.w3.org/2000/svg" xmlns:xlink="http://www.w3.org/1999/xlink" x="0px" y="0px"
	 viewBox="0 0 480 320" style="enable-background:new 0 0 480 320;" xml:space="preserve">
<style type="text/css">
	.st0{fill:#FFFFFF;}
	.st1{fill:#FCD116;}
	.st2{fill:#0072C6;}
	.st3{fill:#CE1126;}
</style>
<path class="st0" d="M0,0h480v320H0V0z"/>
<path d="M0,0h480l-31.3,160H31.3L0,0z"/>
<path class="st1" d="M240,160l-104.3-34.8l53.2-10.2l-45.2-29.8l53,10.9l-30.4-44.8L211,81.8l-10.9-53L229.8,74L240,20.9L250.2,74
	L280,28.8l-10.9,53l44.8-30.4l-30.4,44.8l53-10.9L291.2,115l53.2,10.2L240,160z"/>
<path class="st2" d="M31.3,125.2h417.4v69.6H31.3V125.2z"/>
<path class="st3" d="M0,0l240,320L480,0v320H0V0z"/>
</svg>
