<?xml version="1.0" encoding="utf-8"?>
<!-- Generator: Adobe Illustrator 28.2.0, SVG Export Plug-In . SVG Version: 6.00 Build 0)  -->
<svg version="1.1" id="aus" xmlns="http://www.w3.org/2000/svg" xmlns:xlink="http://www.w3.org/1999/xlink" x="0px" y="0px"
	 viewBox="0 0 480 320" enable-background="new 0 0 480 320" xml:space="preserve">
<rect fill="#012169" width="480" height="320"/>
<g>
	<g id="Comwlth" transform="translate(2520, 3780) scale(2.1)">
		<path id="Star7" fill="#FFFFFF" d="M120,184l6.9,21.6l21.2-8l-12.5,18.9l19.5,11.6l-22.6,2l3.1,22.5L120,236l-15.6,16.4l3.1-22.5
			l-22.6-2l19.5-11.6l-12.5-18.9l21.2,8L120,184z"/>
	</g>
	<g id="αCrucis">
		<path id="Star7_00000080900247598587630260000001946648439407987329_" fill="#FFFFFF" d="M360,222.9l3.3,10.3l10.1-3.8l-6,9
			l9.3,5.5l-10.8,0.9l1.5,10.7l-7.4-7.8l-7.4,7.8l1.5-10.7l-10.8-0.9l9.3-5.5l-6-9l10.1,3.8L360,222.9z"/>
	</g>
	<g id="βCrucis">
		<path id="Star7_00000003821247761998431090000010073412579377706383_" fill="#FFFFFF" d="M300,127.9l3.3,10.3l10.1-3.8l-6,9
			l9.3,5.5l-10.8,0.9l1.5,10.7l-7.4-7.8l-7.4,7.8l1.5-10.7l-10.8-0.9l9.3-5.5l-6-9l10.1,3.8L300,127.9z"/>
	</g>
	<g id="γCrucis">
		<path id="Star7_00000103225514940970189670000011939726614649507986_" fill="#FFFFFF" d="M360,62.9l3.3,10.3l10.1-3.8l-6,9
			l9.3,5.5L366,84.8l1.5,10.7l-7.4-7.8l-7.4,7.8l1.5-10.7l-10.8-0.9l9.3-5.5l-6-9l10.1,3.8L360,62.9z"/>
	</g>
	<g id="δCrucis">
		<path id="Star7_00000027602134807245594640000003301516410105667255_" fill="#FFFFFF" d="M413.3,111.9l3.3,10.3l10.1-3.8l-6,9
			l9.3,5.5l-10.8,0.9l1.5,10.7l-7.4-7.8l-7.4,7.8l1.5-10.7l-10.8-0.9l9.3-5.5l-6-9l10.1,3.8L413.3,111.9z"/>
	</g>
	<g id="εCrucis">
		<path id="Star5" fill="#FFFFFF" d="M384,160l2.6,6.4l6.9,0.5l-5.3,4.5l1.7,6.7l-5.9-3.6l-5.9,3.6l1.7-6.7l-5.3-4.5l6.9-0.5
			L384,160z"/>
	</g>
</g>
<g id="symbol">
	<polygon fill="#FFFFFF" points="216.3,99.2 125.3,54.1 99.8,66.8 195.1,113.9 216.3,113.9 216.3,113.9 	"/>
	<polygon fill="#FFFFFF" points="132.9,59.1 216.3,17.9 216.3,0.3 200.8,0.3 107.4,46.5 	"/>
	<rect x="0.3" y="42.7" fill="#FFFFFF" width="216.1" height="23.9"/>
	<rect x="0.3" y="47.9" fill="#E4002B" width="216.1" height="13.5"/>
	<polygon fill="#FFFFFF" points="109.9,44 21.5,0.3 0.3,0.3 0.3,15.1 84.4,56.6 	"/>
	<polygon fill="#E4002B" points="99.3,49.3 0.3,0.3 0.3,0.3 0.3,9.6 89.9,53.9 	"/>
	<polygon fill="#E4002B" points="122.3,53.9 216.3,7.4 216.3,0.3 211.9,0.3 112.9,49.3 	"/>
	<polygon fill="#FFFFFF" points="86.9,54.1 0.3,97 0.3,113.9 17.1,113.9 112.4,66.8 	"/>
	<polygon fill="#E4002B" points="119.7,56.9 110.4,61.5 216.3,113.9 216.3,104.6 	"/>
	<polygon fill="none" points="216.3,113.9 216.3,113.9 216.3,113.9 	"/>
	<polygon fill="#E4002B" points="97.5,59.4 0.3,107.5 0.3,113.9 6,113.9 106.9,64 	"/>
	
		<rect x="49.7" y="33" transform="matrix(-1.836970e-16 1 -1 -1.836970e-16 162.6276 -49.6903)" fill="#FFFFFF" width="112.9" height="46.8"/>
	
		<rect x="49.9" y="43.4" transform="matrix(-1.836970e-16 1 -1 -1.836970e-16 162.7883 -49.5296)" fill="#E4002B" width="112.6" height="26.4"/>
</g>
</svg>
