<?xml version="1.0" encoding="utf-8"?>
<!-- Generator: Adobe Illustrator 28.2.0, SVG Export Plug-In . SVG Version: 6.00 Build 0)  -->
<svg version="1.1" id="dza" xmlns="http://www.w3.org/2000/svg" xmlns:xlink="http://www.w3.org/1999/xlink" x="0px" y="0px"
	 viewBox="0 0 900 600" enable-background="new 0 0 900 600" xml:space="preserve">
<path fill="#FFFFFF" d="M0,0h900v600H0V0z"/>
<path fill="#006633" d="M0,0h450v600H0V0z"/>
<g id="crest">
	<path fill="#D21034" d="M579.9,225c-41.4-71.7-133.2-96.3-204.9-54.9S278.7,303.3,320.1,375s133.2,96.3,204.9,54.9
		c22.8-13.2,41.7-32.1,54.9-54.9c-41.4,51.7-116.9,60.1-168.7,18.7S351.1,276.7,392.6,225s116.9-60.1,168.7-18.7
		C568.1,211.8,574.4,218.1,579.9,225"/>
	<polygon fill="#D21034" points="585.7,300 450,255.9 533.9,371.3 533.9,228.7 450,344.1 	"/>
</g>
</svg>
