<svg version="1.1" id="alb" name="Albania" xmlns="http://www.w3.org/2000/svg" xmlns:xlink="http://www.w3.org/1999/xlink" x="0px" y="0px"
	 viewBox="0 0 44 25.7" enable-background="new 0 0 44 25.7" xml:space="preserve">
<g id="flag-alb">
	<g>
		<rect fill="#BC1F34" width="44" height="25.7"/>
	</g>
</g>
<path id="crest" d="M29.1,16.3c-0.1,0-0.1-0.1-0.2-0.1c-0.1,0-0.2,0-0.3-0.1c-0.1-0.1-0.3,0-0.4,0.1c-0.1,0.1-0.1,0.1-0.5,0.1
	c-0.5,0-0.6,0-0.6,0c0,0,0.1-0.1,0.3-0.2c0.2-0.1,0.3-0.2,0.4-0.2c0.1,0,0.3,0,0.5-0.2c0.1-0.1,0.2-0.1,0.5-0.1c0.1,0,0,0,0.1,0
	c0-0.1-0.2-0.3-0.5-0.3c-0.1,0-0.2,0-0.3,0c-0.2-0.1-0.4,0.1-0.5,0.3c0,0.1-0.2,0.3-0.6,0.5l-0.2,0.2l-0.5-0.2c-0.5-0.2-1-0.4-1-0.4
	c0,0,0.1-0.1,0.1-0.2c0.1-0.1,0.1-0.2,0.1-0.2s-0.1-0.1-0.2-0.1c-0.7-0.4-1.3-0.9-1.5-1.5c-0.2-0.4-0.1-0.5,0.1-0.1
	c0.2,0.3,0.3,0.4,0.5,0.6c0.2,0.1,0.4,0.2,0.4,0.1c0.1-0.1,0.1-0.2-0.1-0.4c-0.3-0.4-0.4-0.9-0.2-0.9c0.1,0,0.1,0,0.3,0.5
	c0.3,0.7,0.6,1.1,0.8,1.2c0.2,0.1,0.5,0,0.6-0.1c0-0.1,0-0.2-0.2-0.4c-0.4-0.2-0.6-0.6-0.7-1.1c0-0.2,0-0.2,0-0.3
	c0.1-0.1,0.1-0.1,0.4,0.3c0.4,0.6,1.2,1.5,1.5,1.7c0.6,0.3,1.1,0.3,1.4,0c0.1-0.1,0.1-0.1,0.1-0.2c0-0.2-0.1-0.2-0.4-0.2
	c-0.6,0-0.6,0-0.9-0.1c-0.4-0.2-0.9-0.7-1.2-1.4c-0.3-0.6-0.2-0.7,0.3-0.1c0.7,0.7,1.3,1,1.8,0.8c0.3-0.1,0.5-0.3,0.5-0.5
	c0-0.2-0.1-0.2-0.4-0.2c-0.1,0-0.4,0-0.5,0c-0.3,0-0.3,0-0.5-0.1c-0.1-0.1-0.3-0.2-0.4-0.3c-0.3-0.3-0.9-1.1-0.9-1.3
	c0-0.2,0.1-0.1,0.5,0.2c0.3,0.3,0.8,0.6,1,0.7c0.1,0.1,0.2,0.1,0.5,0.1c0.3,0,0.3,0,0.5-0.1c0.2-0.1,0.3-0.2,0.3-0.4
	c0-0.3-0.1-0.4-0.6-0.3c-0.7,0.2-1,0-1.6-0.6c-0.3-0.3-0.4-0.5-0.4-0.6c0-0.1,0.2,0,0.7,0.2c0.6,0.3,0.8,0.4,1.1,0.4
	c0.3,0,0.4-0.1,0.6-0.2c0.2-0.2,0.3-0.4,0.1-0.6c-0.1-0.1-0.4-0.1-0.6,0c-0.1,0.1-0.3,0.1-0.4,0.1c-0.4,0-1-0.2-1.3-0.5
	c-0.2-0.2-0.3-0.4-0.2-0.5c0.1-0.1,0.1-0.1,0.4,0c0.4,0.2,0.7,0.2,1,0.2c0.4,0,0.6-0.1,0.9-0.2c0.2-0.1,0.4-0.3,0.4-0.4
	c0-0.1,0-0.1-0.1-0.2c-0.1-0.2-0.3-0.1-0.6,0C27.8,9,27.4,9,26.9,8.8c-0.2-0.1-0.5-0.4-0.6-0.6c0-0.1,0-0.1,0-0.2
	C26.4,8,26.5,8,26.9,8.2c0.2,0.1,0.4,0.1,0.6,0.1c0.4,0,0.6,0,0.9-0.1c0.3-0.2,0.7-0.6,0.7-0.8c0-0.1-0.1-0.3-0.1-0.3
	c-0.1-0.1-0.2,0-0.4,0.2c-0.3,0.3-0.7,0.5-1.2,0.5c-0.6,0-0.8-0.1-0.8-0.3c0-0.2,0.1-0.2,0.4-0.3c0.7-0.1,1.6-0.5,2-0.9
	c0.3-0.2,0.4-0.4,0.4-0.6c0-0.2-0.1-0.4-0.3-0.5c-0.2,0-0.3,0-0.4,0.3c-0.3,0.4-0.6,0.7-1.1,1c-0.3,0.2-0.8,0.3-0.9,0.3
	c0,0-0.1-0.1-0.1-0.1c-0.1-0.2-0.1-0.2-0.4-0.1c-0.2,0.1-0.5,0.2-0.7,0.3c-0.5,0.2-0.7,0.3-0.8,0.5c-0.1,0.1-0.1,0.2-0.1,0.5
	c0,0.4,0,0.4-0.1,0.5c-0.1,0.1-0.2,0.2-0.4,0.2c-0.3,0-0.5-0.2-0.5-0.5c0-0.3,0-0.5,0.2-0.8c0.1-0.3,0.3-0.5,0.6-0.7
	c0.3-0.2,0.6-0.3,1-0.3c0.4,0,0.7-0.2,0.8-0.3c-0.4,0.1-0.7,0-0.7-0.1c0,0,0.7,0,0.8,0c0.3,0,0.4-0.1,0.5-0.2
	c0.2-0.1,0.3-0.2,0.2-0.3c0-0.1-0.2-0.1-0.3,0c0,0.1-0.1,0.1-0.2,0.2c-0.1,0.1-0.1,0.1-0.4,0.2c-0.2,0-0.3,0-0.4,0
	c0,0-0.1-0.1-0.1-0.1c0,0,0.1-0.1,0.3-0.1c0.1,0,0.3,0,0.4,0.1c0-0.1,0-0.1-0.1-0.2c-0.1-0.2-0.2-0.2-0.6-0.2c-0.2,0-0.3,0-0.4-0.1
	C25,5,24.9,5,24.9,5c0,0-0.1,0-0.2,0c-0.2,0-0.6,0.1-0.9,0.2c-0.2,0.1-0.3,0.1-0.5,0.1c-0.1,0-0.3,0-0.4,0c-0.3-0.1-0.3-0.1-0.3,0
	c0,0.1,0.2,0.3,0.4,0.3c0.1,0.1,0.1,0.1,0.1,0.1c0,0.1-0.3,0.2-0.4,0.3c-0.2,0.1-0.2,0.1,0,0.2c0.1,0,0.1,0.1,0.1,0.1
	c0,0.1-0.3,0.3-0.5,0.3c-0.2,0-0.1,0.1,0.1,0.2c0.1,0,0.1,0,0,0.1C22.4,7,22.3,7.1,22.2,7c-0.1,0-0.1,0-0.1,0.1
	c0.1,0.1,0.1,0.1,0,0.1c0,0-0.1,0-0.1,0l0,0c0,0,0,0,0,0c0,0,0,0,0,0c0,0,0,0,0,0c0,0,0,0,0,0l0,0c0,0-0.1,0-0.1,0
	c-0.1,0-0.1-0.1,0-0.1c0.1-0.1,0-0.2-0.1-0.1c-0.1,0-0.2,0-0.3-0.1c-0.1-0.1-0.1-0.1,0-0.1c0.2,0,0.3-0.2,0.1-0.2
	c-0.1,0-0.5-0.2-0.5-0.3c0,0,0.1-0.1,0.1-0.1c0.2-0.1,0.2-0.1,0-0.2c-0.2-0.1-0.4-0.2-0.4-0.3c0,0,0-0.1,0.1-0.1
	c0.2-0.1,0.4-0.3,0.4-0.3c0-0.1,0-0.1-0.3,0c-0.1,0-0.2,0-0.4,0c-0.2,0-0.3,0-0.5-0.1c-0.3-0.1-0.7-0.2-0.9-0.2c-0.1,0-0.1,0-0.2,0
	C19.1,5,19,5,19,5.1c-0.1,0-0.1,0.1-0.4,0.1c-0.4,0-0.5,0.1-0.6,0.2C18,5.5,18,5.5,17.9,5.6c0.2,0,0.4-0.1,0.4-0.1
	c0.1,0,0.3,0.1,0.3,0.1c0,0,0,0.1-0.1,0.1c-0.1,0-0.2,0-0.4,0c-0.3,0-0.3-0.1-0.4-0.2c-0.1-0.1-0.1-0.2-0.2-0.2
	c-0.1-0.1-0.2-0.1-0.3,0c0,0.1,0.1,0.2,0.2,0.3c0.2,0.1,0.3,0.2,0.5,0.2c0.1,0,0.7,0,0.8,0c0,0-0.3,0.2-0.7,0.1
	c0.1,0.2,0.5,0.3,0.8,0.3c0.4,0,0.7,0.1,1,0.3c0.3,0.2,0.5,0.4,0.6,0.7c0.1,0.3,0.2,0.5,0.2,0.8c0,0.3-0.2,0.5-0.5,0.5
	c-0.2,0-0.3,0-0.4-0.2c-0.1-0.1-0.1-0.1-0.1-0.5c0-0.4,0-0.4-0.1-0.5c-0.1-0.2-0.3-0.3-0.8-0.5c-0.2-0.1-0.6-0.2-0.7-0.3
	c-0.3-0.1-0.3-0.1-0.4,0.1c0,0.1-0.1,0.1-0.1,0.1c-0.1,0-0.6-0.2-0.9-0.3c-0.5-0.3-0.8-0.5-1.1-1c-0.2-0.3-0.3-0.3-0.4-0.3
	c-0.2,0.1-0.3,0.2-0.3,0.5c0,0.2,0.1,0.4,0.4,0.6c0.4,0.4,1.3,0.8,2,0.9c0.2,0,0.4,0.1,0.4,0.3c0,0.2-0.2,0.3-0.8,0.3
	c-0.5,0-0.9-0.1-1.2-0.5C15.2,7.1,15.2,7,15,7.1c-0.1,0-0.2,0.2-0.2,0.3c0,0.2,0.3,0.6,0.7,0.8c0.3,0.1,0.5,0.2,0.9,0.1
	c0.3,0,0.4,0,0.6-0.1C17.5,8,17.6,8,17.6,8.1c0,0,0,0.1,0,0.2c-0.1,0.2-0.4,0.5-0.6,0.6C16.6,9,16.2,9,15.5,8.7
	c-0.3-0.2-0.5-0.2-0.6,0c0,0.1-0.1,0.1-0.1,0.2c0,0.1,0.2,0.3,0.4,0.4c0.3,0.2,0.6,0.2,0.9,0.2c0.3,0,0.5-0.1,1-0.2
	c0.2-0.1,0.3-0.1,0.4,0c0.1,0.1,0,0.3-0.2,0.5C17,10,16.4,10.2,16,10.2c-0.1,0-0.3-0.1-0.4-0.1c-0.3-0.1-0.5-0.1-0.6,0
	c-0.2,0.1-0.1,0.4,0.1,0.6c0.2,0.1,0.3,0.2,0.6,0.2c0.3,0,0.5-0.1,1.1-0.4c0.6-0.3,0.7-0.3,0.7-0.2c0,0.1-0.1,0.3-0.4,0.6
	c-0.6,0.6-0.9,0.7-1.6,0.6c-0.5-0.1-0.6,0-0.6,0.3c0,0.2,0.1,0.3,0.3,0.4c0.1,0.1,0.2,0.1,0.5,0.1c0.3,0,0.3,0,0.5-0.1
	c0.2-0.1,0.7-0.5,1-0.7c0.4-0.3,0.5-0.4,0.5-0.2c0,0.2-0.6,0.9-0.9,1.3c-0.1,0.1-0.3,0.3-0.4,0.3c-0.2,0.1-0.2,0.1-0.5,0.1
	c-0.2,0-0.4,0-0.5,0c-0.3,0-0.4,0-0.4,0.2c0,0.2,0.2,0.4,0.5,0.5c0.5,0.2,1.1-0.1,1.8-0.8c0.5-0.5,0.6-0.5,0.3,0.1
	c-0.3,0.7-0.8,1.2-1.2,1.4c-0.2,0.1-0.3,0.1-0.9,0.1c-0.3,0-0.4,0.1-0.4,0.2c0,0.1,0,0.1,0.1,0.2c0.3,0.3,0.9,0.3,1.4,0
	c0.3-0.2,1.1-1,1.5-1.7c0.2-0.3,0.3-0.4,0.4-0.3c0,0.1,0.1,0.1,0,0.3c-0.1,0.5-0.3,0.9-0.7,1.1c-0.2,0.1-0.3,0.2-0.2,0.4
	c0.1,0.2,0.4,0.3,0.6,0.1c0.2-0.1,0.5-0.6,0.8-1.2c0.2-0.5,0.2-0.5,0.3-0.5c0.3,0,0.2,0.6-0.1,0.9c-0.1,0.2-0.2,0.3-0.1,0.4
	c0.1,0.1,0.2,0.1,0.4-0.1c0.2-0.1,0.3-0.3,0.5-0.6c0.2-0.4,0.3-0.3,0.1,0.1c-0.2,0.6-0.7,1.1-1.5,1.5c-0.1,0.1-0.2,0.1-0.2,0.1
	s0.1,0.1,0.1,0.2c0.1,0.1,0.1,0.2,0.1,0.2c0,0-0.4,0.2-1,0.4l-0.5,0.2l-0.2-0.2c-0.3-0.2-0.5-0.4-0.6-0.5c-0.1-0.2-0.3-0.3-0.5-0.3
	c-0.1,0-0.1,0-0.3,0c-0.3-0.1-0.5,0.2-0.5,0.3c0.1,0,0.1,0,0.1,0c0.3,0,0.3,0,0.5,0.1C16,16,16.2,16,16.3,16c0.1,0,0.2,0,0.4,0.2
	c0.1,0.1,0.3,0.2,0.3,0.2c0,0-0.2,0-0.6,0c-0.3,0-0.4,0-0.5-0.1c-0.1-0.1-0.3-0.1-0.4-0.1c-0.1,0-0.2,0.1-0.3,0.1
	c-0.1,0-0.2,0-0.2,0.1c-0.1,0.1-0.2,0.1-0.2,0.3c0.2,0,0.1,0,0.2,0c0.2,0,0.2,0,0.3,0c0,0,0.1,0.1,0.1,0.1c0.1,0,0.3,0,0.4,0
	c0.1,0,0.2,0,0.6,0c0.3,0,0.5,0,0.5,0c0,0-0.1,0.1-0.2,0.2c-0.2,0.2-0.3,0.2-0.5,0.2c-0.3,0-0.4,0.1-0.5,0.3c0,0.1,0,0.2-0.1,0.3
	c0,0.2-0.1,0.2,0.1,0.5c0.1-0.3,0.1-0.2,0.1-0.3c0.1-0.1,0.1-0.1,0.3-0.1c0.2,0,0.3-0.1,0.4-0.3c0.1-0.1,0.1-0.2,0.4-0.4
	c0.4-0.3,0.4-0.3,0.9,0c0.2,0.1,0.3,0.2,0.4,0.2c0.1,0.1,0.2,0.2,0.4,0.1c0.2,0,0.2,0,0.3,0.1c0,0.1,0,0.1,0.1,0.1
	c0-0.1,0-0.1,0-0.2c0-0.1,0-0.2-0.2-0.3c-0.2-0.2-0.3-0.3-0.5-0.2c-0.1,0-0.1,0-0.3-0.1c-0.2-0.1-0.3-0.2-0.2-0.2
	c0,0,0.3-0.1,0.7-0.3l0.7-0.3l0.1,0.1c0.2,0.1,0.5,0.3,0.6,0.3c0.1,0,0.1,0,0.2-0.1c0.1-0.2,0.4-0.9,0.6-1.2
	c0.3-0.5,0.5-0.7,0.7-0.5c0,0.1,0.1,0.1,0.1,0.3c0,0.6-0.3,1.4-0.8,1.8c-0.2,0.2-0.5,0.4-0.8,0.4c-0.2,0-0.4,0.1-0.4,0.2
	c0,0.1,0.2,0.3,0.3,0.3c0.1,0.1,0.2,0.1,0.4,0.1c0.2,0,0.3,0,0.5-0.2c0.2-0.1,0.2-0.1,0.3-0.1c0,0,0,0.1,0,0.2
	c-0.1,0.3-0.2,0.4-0.7,0.4c-0.4,0.1-0.6,0.2-0.4,0.4c0.1,0.1,0.3,0.2,0.5,0.2c0.3,0,0.5-0.1,0.8-0.4c0.1-0.1,0.2-0.2,0.3-0.2
	c0,0,0,0.3,0,0.4c0,0.2-0.3,0.4-0.4,0.4c0,0-0.2,0.1-0.3,0.1c-0.4,0.1-0.4,0.2-0.2,0.4c0.2,0.1,0.4,0.1,0.6,0
	c0.1-0.1,0.5-0.4,0.6-0.5c0.1-0.1,0.1,0,0.1,0.1c0,0.1-0.1,0.3-0.3,0.5c-0.1,0.2-0.1,0.5,0.2,0.8c0.2,0.2,0.3,0.4,0.4,0.4
	c0.1,0,0.2-0.2,0.4-0.4c0.2-0.4,0.3-0.6,0.1-0.8c-0.2-0.2-0.3-0.4-0.3-0.5c0-0.2,0-0.2,0.1-0.1c0.1,0.1,0.4,0.5,0.6,0.5
	c0.2,0.1,0.5,0.1,0.6,0c0.3-0.2,0.2-0.3-0.2-0.4c-0.1,0-0.2-0.1-0.3-0.1c-0.1,0-0.3-0.3-0.4-0.4c-0.1-0.2-0.1-0.4,0-0.4
	c0,0,0.1,0.1,0.3,0.2c0.3,0.3,0.5,0.4,0.8,0.4c0.2,0,0.4-0.1,0.5-0.2c0.1-0.2,0-0.3-0.4-0.4c-0.4-0.1-0.6-0.2-0.7-0.4
	c0-0.1,0-0.1,0-0.2c0,0,0.1,0,0.3,0.1c0.2,0.1,0.3,0.1,0.5,0.2c0.2,0,0.3,0,0.4-0.1c0.1-0.1,0.3-0.2,0.3-0.3c0-0.1-0.2-0.1-0.4-0.2
	c-0.3,0-0.6-0.2-0.8-0.4c-0.4-0.4-0.8-1.2-0.8-1.8c0-0.2,0-0.3,0.1-0.3c0.2-0.2,0.3,0,0.7,0.5c0.2,0.3,0.6,1,0.6,1.2
	c0,0.1,0.1,0.1,0.2,0.1c0.1,0,0.4-0.1,0.6-0.3l0.1-0.1l0.7,0.3c0.4,0.1,0.7,0.3,0.7,0.3c0.1,0,0,0.1-0.2,0.2
	c-0.2,0.1-0.2,0.1-0.3,0.1c-0.2-0.1-0.3,0-0.5,0.2C25,17.1,25,17.1,25,17.3c0,0.1,0,0.1,0,0.2c0.1-0.1,0.1-0.1,0.1-0.1
	c0.1-0.1,0.2-0.2,0.3-0.1c0.2,0.1,0.3,0,0.4-0.1c0-0.1,0.1-0.1,0.4-0.2c0.5-0.2,0.4-0.2,0.9,0c0.3,0.2,0.4,0.2,0.4,0.4
	c0.1,0.2,0.2,0.2,0.4,0.3c0.2,0,0.2,0,0.3,0.1c0,0.1,0,0,0.1,0.3c0.1-0.3,0.1-0.3,0.1-0.5c0-0.1-0.1-0.2-0.1-0.3
	c-0.1-0.2-0.2-0.3-0.5-0.3c-0.2,0-0.2,0-0.5-0.2c-0.1-0.1-0.3-0.2-0.2-0.2c0,0,0.3,0,0.5,0c0.4,0,0.5,0,0.6,0c0.1,0.1,0.3,0.1,0.4,0
	c0,0,0.1-0.1,0.1-0.1c0.1-0.1,0.1-0.1,0.3,0c0.1,0,0.1,0,0.2,0C29.2,16.4,29.2,16.4,29.1,16.3 M24.4,5.6c0.1,0-0.1-0.2,0.1-0.2
	c0,0,0.1,0,0.1,0c0.1,0,0.2,0.1,0.1,0.2c-0.1,0.1-0.4,0.1-0.5,0C24.1,5.3,24.3,5.6,24.4,5.6 M19.8,5.7c-0.1,0.1-0.4,0-0.5,0
	c-0.1-0.1,0-0.2,0.1-0.2c0.1,0,0.1,0,0.1,0c0.1,0,0,0.1,0.1,0.2C19.7,5.6,19.9,5.3,19.8,5.7"/>
</svg>
