<svg version="1.1" id="pry" name="Paraguay" xmlns="http://www.w3.org/2000/svg" xmlns:xlink="http://www.w3.org/1999/xlink" x="0px" y="0px"
	 viewBox="0 0 480 280" enable-background="new 0 0 480 280" xml:space="preserve">
<g id="flag-pry">
	<rect y="93.3" fill="#FFFFFF" width="480" height="93.3"/>
	<rect y="186.7" fill="#2F3E98" width="480" height="93.3"/>
	<rect fill="#BC1F34" width="480" height="93.3"/>
	<g id="crest">
		<g>
			<path fill="#FFFFFF" d="M275.6,140c0,19.7-15.9,35.6-35.6,35.6c-19.6,0-35.5-15.9-35.5-35.6c0-19.6,15.9-35.5,35.5-35.5
				C259.6,104.4,275.6,120.3,275.6,140L275.6,140z"/>
		</g>
		<path d="M240,176.1c-19.9,0-36.1-16.2-36.1-36.2c0-19.9,16.2-36.1,36.1-36.1c19.9,0,36.2,16.2,36.2,36.1
			C276.1,159.9,259.9,176.1,240,176.1L240,176.1z M240,105c-19.3,0-35,15.7-35,35c0,19.3,15.7,35,35,35c19.3,0,35-15.7,35-35
			C275,120.7,259.3,105,240,105L240,105z"/>
		<path fill="#BC1F34" d="M240,109.5c-16.8,0-30.5,13.7-30.5,30.5c0,16.8,13.7,30.5,30.5,30.5c16.9,0,30.5-13.7,30.5-30.5
			C270.5,123.2,256.8,109.5,240,109.5L240,109.5z M240,162.9c-12.6,0-22.9-10.2-22.9-22.9c0-12.6,10.2-22.9,22.9-22.9
			c12.7,0,22.9,10.3,22.9,22.9C262.8,152.6,252.6,162.9,240,162.9L240,162.9z"/>
		<path d="M240,170.5c-16.8,0-30.5-13.7-30.5-30.5c0-16.8,13.7-30.5,30.5-30.5c16.9,0,30.5,13.7,30.5,30.5
			C270.5,156.8,256.8,170.5,240,170.5L240,170.5z M240,109.6c-16.8,0-30.4,13.6-30.4,30.4c0,16.8,13.7,30.5,30.4,30.5
			c16.8,0,30.5-13.6,30.5-30.5C270.4,123.2,256.8,109.6,240,109.6L240,109.6z M240,162.9c-12.6,0-22.9-10.3-22.9-22.9
			c0-12.6,10.3-22.9,22.9-22.9c12.7,0,22.9,10.3,22.9,22.9C262.9,152.6,252.6,162.9,240,162.9L240,162.9z M240,117.2
			c-12.6,0-22.8,10.2-22.8,22.8c0,12.6,10.3,22.8,22.8,22.8c12.6,0,22.8-10.2,22.8-22.8C262.8,127.4,252.6,117.2,240,117.2
			L240,117.2z"/>
		<path fill="#2C6A34" d="M244.8,123.4c0,0,13.7,5.9,11.3,18.1c-2.4,12.2-10,12.1-13,13.5c-3,1.3-5.1,3.2-6.3,3
			c-1.2-0.3-2.7-1.1-2.7-1.1s-0.1,2,2.3,2.3c2.4,0.4,5.6-3.2,7.1-3.6c1.5-0.4,10.8-1.4,13.1-13.8
			C259.2,128.5,244.9,123.8,244.8,123.4L244.8,123.4z"/>
		<path d="M236.8,159.2L236.8,159.2l-0.4,0c-2.4-0.4-2.3-2.4-2.3-2.4l0,0c0.1,0,1.6,0.9,2.8,1.1c0.9,0,1.8-0.5,3-1.3
			c0.9-0.6,2-1.2,3.2-1.7c0.5-0.2,1.1-0.4,1.9-0.6c3.7-1.1,9.2-2.7,11.1-12.8c1.8-9.4-6-15.1-9.5-17.1l-1.1-0.5
			c-0.5-0.3-0.7-0.4-0.7-0.4c0-0.1,0.7,0.3,1.9,0.9l-0.1,0.1c8,4.1,11.5,10.1,10,17.4c-1.4,7.7-5.7,12.3-12.7,13.7
			c-1,0.3-1.7,0.8-2.7,1.5C239.8,158,238.2,159.2,236.8,159.2L236.8,159.2z M234.1,156.8c0,0.1,0,1.9,2.3,2.3h0.4
			c1.4,0,3.1-1.2,4.5-2.2c0.9-0.6,1.7-1.2,2.2-1.3c7.5-1.6,11.7-6.2,13.1-13.8c1.5-7.3-2-13.3-9.9-17.4c3.5,2,11.4,7.7,9.6,17.1
			c-2,10.2-7.6,11.8-11.2,12.9c-0.7,0.2-1.4,0.4-1.9,0.6c-1.2,0.6-2.3,1.2-3.2,1.8c-1.2,0.7-2.1,1.3-2.8,1.3
			C235.7,157.7,234.1,156.8,234.1,156.8L234.1,156.8z"/>
		<path fill="#2C6A34" d="M251.7,126c0.3,1,0.3,1.8,0,1.9c-0.2,0-0.7-0.8-0.9-1.8c-0.3-1-0.3-1.8,0-1.9
			C251,124.2,251.5,124.9,251.7,126L251.7,126z"/>
		<path d="M251.7,127.9c-0.3,0-0.7-0.9-0.9-1.8c-0.2-0.8-0.3-1.6-0.1-1.8c0.1,0,0.1,0,0.1,0c-0.2,0.3-0.2,1,0,1.8
			C251.1,127.1,251.5,127.8,251.7,127.9L251.7,127.9l0.1-0.1c0.1-0.2,0.1-1-0.1-1.8c-0.2-0.8-0.5-1.4-0.7-1.7
			c0.3,0.2,0.6,0.9,0.8,1.7c0.2,0.8,0.3,1.6,0.1,1.8L251.7,127.9L251.7,127.9z"/>
		<path fill="#2C6A34" d="M251.2,126.1c0.5,1,0.7,1.8,0.5,1.9c-0.2,0.1-0.8-0.6-1.3-1.6c-0.5-1-0.7-1.8-0.4-1.9
			C250.2,124.4,250.8,125.1,251.2,126.1L251.2,126.1z"/>
		<path d="M251.6,128c-0.3,0-0.8-0.8-1.2-1.6c-0.4-0.8-0.6-1.6-0.5-1.9c0,0,0.1,0,0.1,0c-0.1,0.3,0,1,0.5,1.8
			C250.9,127.3,251.4,128,251.6,128L251.6,128L251.6,128c0.2-0.3,0-1.1-0.4-1.9c-0.4-0.7-0.7-1.2-1-1.5c0.4,0.2,0.7,0.8,1,1.4
			c0.4,0.8,0.6,1.6,0.5,1.9L251.6,128L251.6,128z"/>
		<path fill="#2C6A34" d="M249.9,127c1,0.3,1.7,0.7,1.7,1c0,0.3-0.8,0.3-1.8,0c-1-0.3-1.7-0.7-1.7-1
			C248.1,126.7,248.9,126.7,249.9,127L249.9,127z"/>
		<path d="M251.1,128.2c-0.4,0-0.8-0.1-1.3-0.2c-0.9-0.3-1.8-0.7-1.8-1c0.2-0.1,0.3-0.1,0.4-0.1c-0.3,0.4,0.4,0.7,1.3,1
			C250.3,128.1,250.8,128.1,251.1,128.2L251.1,128.2l0.5-0.2c0-0.2-0.7-0.6-1.7-0.9c-0.4-0.1-0.7-0.2-1-0.2c0.4,0,0.7,0.1,1.1,0.1
			c0.9,0.2,1.7,0.7,1.7,1L251.1,128.2L251.1,128.2z"/>
		<path fill="#2C6A34" d="M250.1,126.5c0.9,0.6,1.5,1.3,1.4,1.5c-0.1,0.2-0.9-0.1-1.8-0.7c-0.9-0.6-1.5-1.3-1.4-1.4
			C248.4,125.6,249.2,125.9,250.1,126.5L250.1,126.5z"/>
		<path d="M251.3,128.1c-0.3,0-1-0.3-1.6-0.7c-0.8-0.5-1.6-1.3-1.5-1.5c0.1,0,0.1,0,0.2,0l0,0c-0.2,0.2,0.3,0.8,1.3,1.4
			C250.4,127.7,251,128,251.3,128.1L251.3,128.1l0.1-0.1c0.1-0.2-0.5-0.8-1.4-1.4c-0.6-0.4-1.2-0.7-1.6-0.7c0.5,0,1,0.3,1.6,0.7
			c0.8,0.5,1.6,1.2,1.4,1.5L251.3,128.1L251.3,128.1z"/>
		<path fill="#2C6A34" d="M250.6,126.3c0.8,0.8,1.2,1.5,1.1,1.7c-0.1,0.2-0.9-0.3-1.6-1.1c-0.8-0.8-1.2-1.5-1.1-1.7
			C249.1,125,249.9,125.5,250.6,126.3L250.6,126.3z"/>
		<path d="M251.6,128.1c-0.3,0-0.9-0.5-1.6-1.2c-0.7-0.7-1.3-1.6-1-1.8c0.4-0.1,1,0.5,1.7,1.1C251.4,126.9,251.9,127.8,251.6,128.1
			L251.6,128.1L251.6,128.1z M249.1,125.2c-0.2,0.2,0.2,0.8,1,1.7c0.7,0.7,1.3,1.1,1.6,1.1v0.1l0.1-0.1c0.1-0.1-0.3-0.8-1.1-1.7
			C249.9,125.6,249.3,125.2,249.1,125.2L249.1,125.2z"/>
		<path fill="#2C6A34" d="M251.6,128c0,0-0.5,0.3-0.6,0.3c-0.1,0.1-0.3-0.1-0.6,0c-0.3,0.2-0.6,0.5-0.7,0.7
			c-0.1,0.2,0.1,0.3,0.5,0.1c0.4-0.2,0.5-0.5,0.7-0.7C251.1,128.3,251.5,128.1,251.6,128c0.1-0.1,0.4-0.5,0.6-0.7
			c0.2-0.2,0.7-0.6,0.9-1c0.2-0.3,0.1-0.6-0.1-0.5c-0.3,0.1-0.6,0.5-0.7,0.7c-0.1,0.2,0,0.6-0.2,0.8
			C251.9,127.4,251.6,128,251.6,128L251.6,128z"/>
		<path d="M249.8,129.3l-0.2,0c0.1-0.4,0.3-0.7,0.7-0.9h0.6c0.1,0,0.6-0.3,0.7-0.3l0.5-0.7l0,0l0.2-0.8c0.2-0.3,0.4-0.6,0.7-0.8
			l0.2,0.6c-0.1,0.2-0.4,0.5-0.6,0.7l-0.5,0.6c-0.1,0.2-0.3,0.4-0.3,0.5c-0.2,0.1-0.6,0.3-0.8,0.4c-0.3,0.4-0.4,0.5-0.7,0.7
			L249.8,129.3L249.8,129.3z"/>
		<path fill="#2C6A34" d="M255.9,129.4c0,1.6-0.2,2.8-0.6,2.7c-0.4-0.1-0.7-1.4-0.7-3c0-1.6,0.2-2.7,0.6-2.7
			C255.5,126.5,255.8,127.8,255.9,129.4L255.9,129.4z"/>
		<path d="M255.3,132.1L255.3,132.1c-0.5-0.1-0.7-1.6-0.8-3c0-1.2,0.2-2.3,0.4-2.6c0.1,0,0.1,0,0.1,0c-0.4,0.4-0.5,1.4-0.5,2.6
			C254.6,130.8,255,131.9,255.3,132.1L255.3,132.1l0.1-0.1c0.2-0.3,0.4-1.3,0.4-2.6c0-1.1-0.2-2.1-0.4-2.5c0.3,0.5,0.4,1.6,0.4,2.5
			c0,1.3-0.2,2.3-0.4,2.6L255.3,132.1L255.3,132.1z"/>
		<path fill="#2C6A34" d="M255.1,129.4c0.4,1.6,0.4,2.9,0,2.9c-0.3,0-0.9-1.2-1.2-2.8c-0.3-1.6-0.3-2.9,0-2.9
			C254.2,126.5,254.8,127.8,255.1,129.4L255.1,129.4z"/>
		<path d="M255.1,132.3c-0.4,0-0.9-1.4-1.3-2.9c-0.3-1.4-0.3-2.6-0.1-2.9c0.1,0,0.1,0,0.1,0c-0.3,0.4-0.3,1.5,0.1,2.9
			C254.3,131.1,254.8,132.3,255.1,132.3L255.1,132.3l0.1-0.1c0.2-0.2,0.2-1.5-0.1-2.8c-0.3-1.3-0.6-2.2-0.9-2.6
			c0.4,0.4,0.8,1.5,1,2.6c0.3,1.4,0.3,2.6,0.1,2.9L255.1,132.3L255.1,132.3z"/>
		<path fill="#2C6A34" d="M252.9,130.1c1.2,0.8,2.2,1.8,2,2.2c-0.1,0.4-1.2-0.1-2.5-0.9c-1.2-0.8-2.1-1.8-2-2.2
			C250.6,128.8,251.7,129.2,252.9,130.1L252.9,130.1z"/>
		<path d="M254.7,132.4c-0.5,0-1.3-0.4-2.2-1c-1.3-0.9-2.2-1.8-2.1-2.2c0.1,0,0.2-0.1,0.3-0.1c-0.2,0.4,0.6,1.3,1.8,2.2
			c0.9,0.6,1.8,1,2.2,1V132.4l0.2-0.2c0.1-0.3-0.7-1.2-2-2.2c-0.6-0.4-1.3-0.7-1.7-0.9c0.5,0.1,1.1,0.4,1.7,0.8
			c1.3,0.8,2.2,1.8,2.1,2.2L254.7,132.4L254.7,132.4z"/>
		<path fill="#2C6A34" d="M253.4,129.4c1,1.2,1.7,2.5,1.5,2.7c-0.2,0.2-1.2-0.5-2.3-1.8c-1-1.2-1.7-2.5-1.4-2.7
			C251.4,127.4,252.4,128.2,253.4,129.4L253.4,129.4z"/>
		<path d="M254.7,132.3c-0.3,0-1.3-0.8-2.2-1.9c-0.9-1.1-1.7-2.5-1.4-2.8c0.5-0.1,1.4,0.7,2.3,1.8c0.9,1.1,1.7,2.5,1.5,2.8
			L254.7,132.3L254.7,132.3z M251.3,127.6c-0.3,0.3,0.3,1.4,1.4,2.7c0.9,1.1,1.8,1.8,2.1,1.8v0.1l0.1-0.1c0.2-0.2-0.4-1.3-1.5-2.7
			C252.5,128.4,251.6,127.6,251.3,127.6L251.3,127.6z"/>
		<path fill="#2C6A34" d="M254.3,129.3c0.8,1.5,1.2,2.8,0.9,2.9c-0.3,0.2-1.1-0.9-1.9-2.4c-0.8-1.4-1.2-2.7-0.9-2.9
			C252.6,126.9,253.5,127.9,254.3,129.3L254.3,129.3z"/>
		<path d="M255.1,132.3c-0.4,0-1.1-1-1.9-2.4c-0.7-1.3-1.2-2.8-0.9-3c0.3-0.1,1.2,0.9,2,2.3C255,130.6,255.5,132.1,255.1,132.3
			L255.1,132.3L255.1,132.3z M252.4,127c-0.3,0.1,0,1.3,0.9,2.9c0.8,1.4,1.6,2.3,1.8,2.3v0l0,0c0.2-0.1-0.1-1.3-0.9-2.9
			C253.5,128,252.7,127,252.4,127L252.4,127z"/>
		<path fill="#2C6A34" d="M255,132.3c0,0-0.8,0.2-1,0.2c-0.2,0-0.4-0.4-0.9-0.3c-0.5,0.1-1,0.5-1.2,0.7c-0.2,0.2,0.1,0.4,0.7,0.3
			c0.6-0.1,0.9-0.5,1.2-0.6c0.3-0.1,0.9-0.2,1.1-0.2c0.2-0.2,0.7-0.7,1-1c0.3-0.2,1.2-0.5,1.6-1.1c0.4-0.4,0.4-0.9,0-0.8
			c-0.4,0.1-0.9,0.5-1.2,0.8c-0.2,0.3-0.2,0.8-0.5,1.1C255.7,131.6,255.1,132.3,255,132.3L255,132.3z"/>
		<path d="M252.4,133.3l-0.4-0.2c0-0.1,0.1-0.2,0.1-0.2L252.4,133.3l0.3-0.1c0.4-0.1,0.6-0.3,0.9-0.4c0.7-0.3,1.3-0.5,1.5-0.5
			c0.1-0.2,0.4-0.4,0.7-0.6c0.4-0.4,0.6-0.5,0.8-0.6c0.4-0.2,0.8-0.4,1-0.8c0.2-0.2,0.2-0.4,0.3-0.5c0,0.2-0.1,0.4-0.2,0.5
			c-0.3,0.4-0.7,0.6-1.1,0.8c-0.2,0.1-0.4,0.2-0.5,0.3c-0.5,0.5-0.8,0.8-1,0.9c-0.3,0-0.8,0.1-1.2,0.2c-0.6,0.3-0.8,0.5-1.3,0.6
			L252.4,133.3L252.4,133.3z M252.1,132.8c0.2-0.3,0.6-0.6,1.1-0.7l0.7,0.1c0.3,0.1,1.1-0.1,1.2-0.1l0.8-0.8
			c0.2-0.1,0.2-0.3,0.3-0.5c0-0.2,0.1-0.4,0.2-0.6c0.3-0.3,0.8-0.7,1.2-0.8c0,0.1,0.1,0.1,0.1,0.2c-0.6,0-1.1,0.4-1.3,0.6
			c-0.1,0.2-0.2,0.4-0.2,0.6c-0.1,0.2-0.1,0.4-0.3,0.5l-0.9,0.8c0,0-1,0.2-1,0.2l-0.7-0.3C252.6,132.3,252.3,132.6,252.1,132.8
			L252.1,132.8z"/>
		<path fill="#2C6A34" d="M258.1,135.1c-0.2,1.5-0.7,2.6-1.1,2.5c-0.3-0.2-0.4-1.5-0.1-3.1c0.2-1.5,0.7-2.7,1.1-2.5
			C258.3,132.1,258.4,133.5,258.1,135.1L258.1,135.1z"/>
		<path d="M257.1,137.7L257.1,137.7c-0.5-0.2-0.4-1.8-0.2-3.1c0.2-1.3,0.6-2.5,1-2.5c0.5,0.2,0.5,1.7,0.2,3.1
			C257.9,136.5,257.4,137.7,257.1,137.7L257.1,137.7z M257.9,132c-0.3,0-0.7,0.9-1,2.5c-0.3,1.6-0.2,2.9,0.1,3h0.1
			c0.3,0,0.7-0.9,1-2.5C258.3,133.5,258.2,132.2,257.9,132L257.9,132L257.9,132z"/>
		<path fill="#2C6A34" d="M257.4,134.9c0,1.6-0.2,2.9-0.5,2.8c-0.3,0-0.6-1.4-0.7-3c0-1.6,0.2-2.9,0.5-2.9
			C257,131.9,257.3,133.3,257.4,134.9L257.4,134.9z"/>
		<path d="M256.9,137.8L256.9,137.8c-0.5,0-0.7-1.6-0.7-3.1c-0.1-1.4,0.1-2.6,0.4-2.8h0c0,0,0.1,0,0.1,0c-0.4,0.3-0.5,1.5-0.5,2.8
			C256.3,136.5,256.6,137.7,256.9,137.8l0.1-0.1c0.2-0.2,0.4-1.5,0.4-2.8c-0.1-1.3-0.2-2.3-0.4-2.7c0.3,0.5,0.4,1.7,0.5,2.7
			c0.1,1.4-0.1,2.6-0.4,2.8L256.9,137.8L256.9,137.8z"/>
		<path fill="#2C6A34" d="M255.1,135.1c1.1,1.1,1.8,2.2,1.6,2.6c-0.2,0.3-1.2-0.3-2.3-1.3c-1.1-1.1-1.8-2.2-1.6-2.6
			C253,133.5,254.1,134.1,255.1,135.1L255.1,135.1z"/>
		<path d="M256.6,137.8c-0.4,0-1.3-0.6-2.1-1.4c-1.1-1.1-1.8-2.2-1.6-2.6c0.1,0,0.1,0,0.2,0c-0.3,0.4,0.3,1.4,1.5,2.6
			C255.3,137.2,256.2,137.8,256.6,137.8L256.6,137.8l0.1-0.1c0.2-0.3-0.5-1.4-1.6-2.5c-0.6-0.6-1.3-1.1-1.7-1.3
			c0.5,0.2,1.1,0.6,1.8,1.3c1.1,1.1,1.8,2.2,1.6,2.6L256.6,137.8L256.6,137.8z"/>
		<path fill="#2C6A34" d="M255.7,134.6c0.8,1.4,1.2,2.8,0.9,3c-0.3,0.2-1.1-0.8-1.9-2.2c-0.8-1.4-1.2-2.7-0.9-3
			C254.1,132.2,254.9,133.2,255.7,134.6L255.7,134.6z"/>
		<path d="M256.5,137.7c-0.3,0-1.1-1-1.8-2.3c-0.7-1.3-1.3-2.8-1-3c0.6,0,1.2,0.9,1.9,2.2c0.7,1.3,1.3,2.8,0.9,3L256.5,137.7
			L256.5,137.7z M253.9,132.4c-0.3,0.2,0,1.4,0.9,3c0.7,1.2,1.5,2.2,1.8,2.2v0l0.1-0.1c0.2-0.2-0.1-1.4-0.9-2.9
			C255,133.4,254.2,132.4,253.9,132.4L253.9,132.4z"/>
		<path fill="#2C6A34" d="M256.6,134.7c0.5,1.6,0.7,3,0.3,3.1c-0.3,0.1-1-1.1-1.5-2.7c-0.5-1.6-0.7-3-0.4-3.1
			C255.4,131.9,256.1,133.1,256.6,134.7L256.6,134.7z"/>
		<path d="M256.9,137.8c-0.4,0-1-1.4-1.5-2.7c-0.5-1.4-0.7-3-0.4-3.1h0c0.4,0,1,1.2,1.5,2.7C257,136.1,257.3,137.7,256.9,137.8
			L256.9,137.8L256.9,137.8z M255.1,132.1c-0.3,0.1-0.2,1.3,0.3,3c0.5,1.7,1.1,2.6,1.4,2.6v0l0,0c0.2-0.1,0.2-1.3-0.4-3
			C256,133.1,255.4,132.1,255.1,132.1L255.1,132.1z"/>
		<path fill="#2C6A34" d="M256.8,137.7c0,0-0.8,0-1,0c-0.2,0-0.3-0.4-0.8-0.4c-0.6,0-1,0.2-1.3,0.5c-0.2,0.2,0,0.5,0.6,0.5
			c0.7,0,1-0.4,1.3-0.4c0.3,0,0.9,0,1.2,0c0.2-0.2,0.8-0.5,1.1-0.7c0.3-0.2,1.2-0.3,1.7-0.8c0.4-0.4,0.5-0.8,0.1-0.8
			c-0.4,0-1,0.2-1.3,0.5c-0.3,0.2-0.4,0.8-0.7,1C257.5,137.2,256.8,137.7,256.8,137.7L256.8,137.7z"/>
		<path d="M255.7,137.9l0.6-0.1c0.1,0,0.1,0,0.3,0h-0.8c-0.3-0.2-0.4-0.4-0.8-0.4l0,0c-0.5,0-0.9,0.2-1.1,0.3
			c0.6-0.5,1.5-0.4,1.8-0.1l0.6,0.2c0.6,0,0.8-0.2,1-0.3c0.6-0.4,0.7-0.6,0.8-0.8c0.1-0.2,0.2-0.4,0.4-0.6c0.3-0.2,0.9-0.5,1.3-0.5
			c0.1,0.1,0.1,0.1,0.1,0.2c-0.6-0.1-1.1,0.2-1.4,0.4c-0.2,0.1-0.3,0.3-0.3,0.5c-0.1,0.2-0.2,0.4-0.4,0.5l-0.5,0.3
			c-0.1,0.1-0.1,0.1-0.2,0.1c0.1,0,0.2-0.1,0.3-0.2c0.5-0.3,0.7-0.4,1-0.5c0.4-0.1,0.8-0.2,1.1-0.5c0.2-0.2,0.3-0.3,0.4-0.5
			c0,0.2-0.1,0.4-0.3,0.5c-0.3,0.3-0.8,0.4-1.2,0.6c-0.3,0.1-0.5,0.1-0.6,0.2c-0.7,0.5-0.9,0.6-1.1,0.7L255.7,137.9L255.7,137.9z"/>
		<path fill="#2C6A34" d="M258.2,141.4c-0.8,1.3-1.7,2.2-1.9,1.9c-0.2-0.2,0.3-1.6,1.1-2.9c0.8-1.3,1.7-2.2,1.9-1.9
			C259.6,138.8,259.1,140.1,258.2,141.4L258.2,141.4z"/>
		<path d="M256.4,143.4l-0.1-0.1c-0.3-0.3,0.3-1.7,1.1-2.9c0.7-1.2,1.5-2,1.9-2c0,0,0.1,0.1,0.1,0.1c-0.4,0.1-1.2,0.8-1.9,1.9
			c-0.9,1.4-1.2,2.6-1.1,2.9L256.4,143.4c0.3-0.1,1-0.7,1.8-2c0.7-1.1,1.1-2.1,1.1-2.5c0,0.5-0.4,1.6-1.1,2.6
			C257.6,142.6,256.8,143.4,256.4,143.4L256.4,143.4z"/>
		<path fill="#2C6A34" d="M257.7,141c-0.6,1.5-1.3,2.6-1.6,2.4c-0.3-0.2,0-1.6,0.6-3.1c0.6-1.6,1.3-2.6,1.6-2.5
			C258.5,138.1,258.3,139.4,257.7,141L257.7,141z"/>
		<path d="M256.2,143.5l-0.1,0c-0.3-0.2,0-1.8,0.6-3.1c0.6-1.4,1.2-2.5,1.6-2.5c0.4,0.2,0.1,1.8-0.5,3.2
			C257.2,142.4,256.5,143.5,256.2,143.5L256.2,143.5z M258.2,137.9c-0.3,0-0.9,0.9-1.5,2.4c-0.6,1.6-0.8,2.9-0.6,3.1h0.1
			c0.2,0,0.9-0.9,1.5-2.4C258.3,139.3,258.5,138.1,258.2,137.9C258.2,137.9,258.2,137.9,258.2,137.9L258.2,137.9z"/>
		<path fill="#2C6A34" d="M255.5,140.3c0.5,1.5,0.8,2.8,0.5,3c-0.3,0.2-1-0.7-1.5-2.2c-0.6-1.4-0.8-2.8-0.5-3
			C254.3,137.9,255,138.8,255.5,140.3L255.5,140.3z"/>
		<path d="M255.9,143.4c-0.4,0-1-0.9-1.5-2.2c-0.6-1.5-0.7-2.8-0.5-3c0,0,0,0,0,0c0.5,0,1.1,0.9,1.5,2.2c0.6,1.5,0.8,2.8,0.5,3
			L255.9,143.4L255.9,143.4z M254.1,138.1c-0.3,0.2-0.2,1.5,0.4,3c0.5,1.4,1.1,2.2,1.4,2.2v0l0.1-0.1c0.2-0.2,0.1-1.5-0.5-3
			C255,138.9,254.4,138.1,254.1,138.1L254.1,138.1z"/>
		<path fill="#2C6A34" d="M256.2,140c0.2,1.6,0,3-0.3,3.1c-0.3,0.1-0.7-1.2-0.9-2.8c-0.1-1.6,0-3,0.3-3.1
			C255.7,137.1,256.1,138.4,256.2,140L256.2,140z"/>
		<path d="M255.9,143.2c-0.4,0-0.7-1.4-0.8-2.8c-0.2-1.5-0.1-3.1,0.3-3.2h0c0.4,0,0.8,1.5,0.9,2.9
			C256.4,141.5,256.3,143.1,255.9,143.2L255.9,143.2L255.9,143.2z M255.4,137.2c-0.3,0.1-0.5,1.3-0.3,3.1c0.2,1.7,0.5,2.8,0.8,2.8v0
			l0,0c0.3-0.1,0.4-1.3,0.3-3.1C256.1,138.3,255.7,137.2,255.4,137.2L255.4,137.2z"/>
		<path fill="#2C6A34" d="M257,140.5c-0.1,1.7-0.6,3-0.9,3c-0.3,0-0.5-1.4-0.3-3.1c0.2-1.7,0.6-3,0.9-3
			C257,137.4,257.2,138.8,257,140.5L257,140.5z"/>
		<path d="M256.1,143.5l-0.1-0.1c-0.3-0.3-0.4-1.6-0.2-3c0.1-1.5,0.5-3,0.9-3c0.4,0.4,0.5,1.7,0.4,3.1
			C256.9,142,256.5,143.5,256.1,143.5L256.1,143.5z M256.8,137.5c-0.3,0-0.7,1.1-0.9,2.9c-0.1,1.4,0,2.7,0.2,3l0.1,0.1l0,0
			c0.3,0,0.6-1.1,0.8-3C257.1,139,257,137.7,256.8,137.5L256.8,137.5L256.8,137.5z"/>
		<path fill="#2C6A34" d="M256,143.3c0,0-0.8-0.3-0.9-0.4c-0.1-0.1-0.1-0.5-0.6-0.7c-0.5-0.2-1-0.2-1.3-0.1
			c-0.2,0.1-0.2,0.4,0.4,0.7c0.6,0.3,1,0.1,1.3,0.2c0.3,0.1,0.8,0.3,1,0.5c0.3-0.1,0.9-0.2,1.3-0.2c0.4-0.1,1.3,0.2,1.9,0
			c0.5-0.2,0.8-0.6,0.5-0.7c-0.3-0.1-1-0.1-1.4,0c-0.4,0.1-0.6,0.6-1,0.6C256.9,143.2,256.1,143.4,256,143.3L256,143.3z"/>
		<path d="M256,143.5L256,143.5c-0.2-0.2-0.7-0.4-1-0.5C255.5,143.1,255.8,143.3,256,143.5c0.2-0.1,0.6-0.2,0.9-0.2l1,0
			c0.2,0,0.5,0.1,0.7,0.1c0.6-0.1,0.9-0.3,1-0.4c0,0.2-0.2,0.3-0.5,0.4c-0.8,0.1-1,0-1.3,0l-0.6,0
			C256.6,143.4,256.2,143.4,256,143.5L256,143.5L256,143.5z M256.1,143.4c-0.1,0-0.9-0.4-1-0.4c-0.2-0.4-0.3-0.6-0.6-0.7
			c-0.3-0.1-0.6-0.2-0.8-0.2l-0.6,0.2c0,0.1,0.2,0.3,0.5,0.5c0.3,0.1,0.6,0.1,0.8,0.1c0.2,0,0.4,0.1,0.5,0.1c-0.7,0-1-0.1-1.3-0.2
			c-0.4-0.2-0.6-0.4-0.6-0.5l0.7-0.3c0.2,0,0.5,0.1,0.8,0.2c0.3,0.1,0.4,0.4,0.5,0.5C255.3,143,256,143.3,256.1,143.4
			c0.1-0.1,0.3-0.1,0.6-0.2c0.7-0.1,0.9-0.2,1-0.4c0.2-0.1,0.3-0.3,0.5-0.3c0.4-0.1,1.1-0.1,1.4,0.1c0,0.1,0,0.2,0,0.2
			c-0.5-0.4-1-0.3-1.4-0.2c-0.7,0.5-0.8,0.6-1,0.6C256.4,143.3,256.2,143.4,256.1,143.4L256.1,143.4z"/>
		<path fill="#2C6A34" d="M256.5,147.8c-1.4,1.2-2.6,1.8-2.7,1.4c-0.2-0.4,0.8-1.6,2.1-2.8c1.4-1.1,2.6-1.8,2.8-1.4
			C258.9,145.4,257.9,146.7,256.5,147.8L256.5,147.8z"/>
		<path d="M254,149.4l-0.3-0.2c-0.2-0.4,0.8-1.7,2.1-2.8c1.1-0.9,2.1-1.5,2.6-1.5c0,0.1,0.1,0.1,0.1,0.2c-0.6,0.1-1.6,0.6-2.6,1.4
			c-1.5,1.2-2.3,2.4-2.1,2.8L254,149.4c0.4-0.1,1.5-0.7,2.5-1.6c0.9-0.7,1.5-1.5,1.9-2c-0.3,0.6-1,1.4-1.8,2.1
			C255.5,148.8,254.5,149.4,254,149.4L254,149.4z"/>
		<path fill="#2C6A34" d="M256.1,147.2c-1.1,1.5-2.3,2.4-2.5,2.1c-0.3-0.3,0.5-1.7,1.6-3.2c1.1-1.5,2.3-2.4,2.6-2.1
			C258,144.2,257.2,145.7,256.1,147.2L256.1,147.2z"/>
		<path d="M253.7,149.4l-0.2-0.1c-0.3-0.4,0.6-1.9,1.6-3.3c1-1.3,2-2.2,2.4-2.2c0.1,0.1,0.1,0.1,0.1,0.1l0,0c-0.5,0-1.5,0.9-2.5,2.1
			c-1.2,1.6-1.8,3-1.6,3.2L253.7,149.4c0.4-0.1,1.4-1,2.4-2.3c0.9-1.2,1.5-2.2,1.6-2.7c-0.1,0.7-0.8,1.8-1.6,2.8
			C255.1,148.5,254.1,149.4,253.7,149.4L253.7,149.4z"/>
		<path fill="#2C6A34" d="M253.9,145.6c0.1,1.8-0.1,3.4-0.5,3.5c-0.4,0.1-0.9-1.2-1-3c-0.1-1.8,0.1-3.4,0.5-3.5
			C253.4,142.5,253.8,143.8,253.9,145.6L253.9,145.6z"/>
		<path d="M253.4,149.1c-0.4,0-0.8-1.2-0.9-3c-0.1-1.8,0.1-3.4,0.5-3.5h0c0.5,0,0.9,1.5,1,3C254.1,147.5,253.9,149,253.4,149.1
			L253.4,149.1L253.4,149.1z M253,142.7c-0.4,0.1-0.7,1.6-0.5,3.5c0.2,1.8,0.6,3,0.9,3l0,0l0.1,0c0.3-0.1,0.6-1.6,0.5-3.5
			C253.8,143.8,253.4,142.7,253,142.7L253,142.7z"/>
		<path fill="#2C6A34" d="M254.8,145.5c-0.4,1.9-1,3.4-1.4,3.4c-0.4,0-0.4-1.6,0-3.4c0.4-1.9,1-3.4,1.4-3.4
			C255.2,142.2,255.2,143.7,254.8,145.5L254.8,145.5z"/>
		<path d="M253.4,149l-0.1-0.1c-0.3-0.3-0.2-1.7,0.1-3.4c0.4-1.7,1-3.4,1.4-3.4c0,0.1,0,0.1,0.1,0.1c-0.2,0.1-1,1.3-1.4,3.3
			c-0.3,1.6-0.3,3-0.1,3.3L253.4,149L253.4,149c0.3-0.1,1-1.4,1.3-3.4c0.3-1.3,0.3-2.5,0.2-3c0.2,0.6,0.1,1.8-0.1,3.1
			C254.5,147.2,253.9,149,253.4,149L253.4,149z"/>
		<path fill="#2C6A34" d="M255.5,146.3c-0.7,1.8-1.6,3.1-2,3c-0.4-0.1,0-1.7,0.7-3.5c0.7-1.8,1.6-3.1,1.9-3
			C256.5,142.9,256.2,144.5,255.5,146.3L255.5,146.3z"/>
		<path d="M253.6,149.4L253.6,149.4c-0.4-0.5,0-2,0.6-3.6c0.7-1.7,1.5-3,1.9-3c0.5,0.2,0.1,1.9-0.6,3.5
			C254.8,148.1,254,149.4,253.6,149.4L253.6,149.4z M256.2,142.9c-0.4,0-1.2,1.1-1.9,3c-0.6,1.6-1,3-0.8,3.4l0.1,0.1
			c0.3,0,1.1-1.1,1.9-3C256.2,144.4,256.4,143,256.2,142.9C256.2,142.9,256.2,142.9,256.2,142.9L256.2,142.9z"/>
		<path fill="#2C6A34" d="M253.5,149.1c0,0-0.8-0.6-0.9-0.8c-0.1-0.2,0.1-0.6-0.4-1c-0.5-0.4-1.1-0.6-1.4-0.5
			c-0.3,0-0.4,0.4,0.2,0.9c0.6,0.5,1.1,0.5,1.4,0.7c0.3,0.2,0.8,0.7,1,0.9c0.4,0,1.1,0.2,1.5,0.2c0.5,0.1,1.3,0.7,2.1,0.7
			c0.6,0,1.1-0.3,0.7-0.6c-0.4-0.3-1-0.5-1.5-0.6c-0.5,0-0.9,0.4-1.4,0.3C254.5,149.3,253.5,149.2,253.5,149.1L253.5,149.1z"/>
		<path d="M257,150.2L257,150.2c-0.5,0-1-0.2-1.5-0.5c-0.3-0.1-0.5-0.2-0.7-0.2c-0.8-0.2-1.2-0.2-1.5-0.2c-0.2-0.3-0.6-0.7-1-0.9
			c0.5,0.3,0.9,0.6,1,0.8c0.3,0,0.7,0.1,1,0.1c0.6,0.1,0.9,0.2,1.1,0.3C255.9,149.9,256.4,150.2,257,150.2L257,150.2L257,150.2
			c0.2-0.1,0.5-0.1,0.6-0.2C257.4,150.2,257.2,150.2,257,150.2L257,150.2z M257.7,149.8c-0.4-0.5-1.1-0.7-1.5-0.7
			c-0.3-0.2-0.5,0.1-0.7,0.1c-0.2,0.1-0.4,0.2-0.6,0.2l-0.7-0.1c-0.7-0.1-0.7-0.1-0.7-0.2c0,0-0.8-0.7-0.9-0.8
			c-0.1-0.5-0.1-0.7-0.4-1c-0.3-0.3-0.8-0.5-1.1-0.5c0.4,0,0.8,0.1,1.2,0.5c0.3,0.3,0.3,0.6,0.3,0.8c0.2,0.4,0.8,1,0.9,1
			c0,0,0.4,0.1,0.7,0.1c0.2,0,0.5,0.1,0.6,0.1c0.3,0,0.5-0.1,0.7-0.2c0.2-0.1,0.4-0.2,0.6-0.2c0.5,0,1.3,0.2,1.6,0.5
			C257.7,149.7,257.7,149.7,257.7,149.8L257.7,149.8z"/>
		<path fill="#2C6A34" d="M252.1,153.5c-2,0.3-3.5,0.2-3.4-0.3c0-0.5,1.7-1.1,3.6-1.4c1.9-0.3,3.5-0.2,3.4,0.2
			C255.7,152.5,254.1,153.1,252.1,153.5L252.1,153.5z"/>
		<path d="M250.2,153.7c-0.8,0-1.3-0.1-1.5-0.3c0-0.1,0-0.1,0-0.1c0.4,0.5,1.7,0.4,3.4,0.2c1.4-0.2,2.6-0.6,3.2-1
			c-0.6,0.5-1.8,0.8-3.2,1.1C251.4,153.6,250.8,153.7,250.2,153.7L250.2,153.7z M249.2,152.7c0.6-0.4,1.7-0.8,3.1-1
			c1.7-0.3,3.1-0.2,3.4,0.1l0,0.1c-0.4-0.5-1.7-0.5-3.4-0.2C250.9,152,249.7,152.4,249.2,152.7L249.2,152.7z"/>
		<path fill="#2C6A34" d="M252.1,152.5c-1.9,0.7-3.6,1-3.6,0.6c-0.1-0.5,1.4-1.4,3.3-2.1c2-0.7,3.5-1,3.6-0.5
			C255.5,150.9,254,151.8,252.1,152.5L252.1,152.5z"/>
		<path d="M249,153.3c-0.4,0-0.6-0.1-0.6-0.2c-0.1-0.5,1.4-1.4,3.4-2.2c1.9-0.7,3.6-1,3.7-0.5c0.1,0.5-1.4,1.4-3.4,2.2
			C250.8,153.1,249.7,153.3,249,153.3L249,153.3z M254.6,150.4c-0.9,0-1.9,0.3-2.8,0.6c-2.1,0.8-3.4,1.7-3.3,2.1l0.5,0.2
			c0.7,0,1.8-0.3,3.1-0.8c2.1-0.8,3.4-1.7,3.3-2.1C255.1,150.4,254.8,150.4,254.6,150.4L254.6,150.4z"/>
		<path fill="#2C6A34" d="M250.8,149.9c-0.8,1.8-1.9,3.2-2.4,3.1c-0.4-0.1-0.1-1.6,0.7-3.4c0.8-1.8,1.9-3.2,2.4-3.1
			C252,146.6,251.7,148.1,250.8,149.9L250.8,149.9z"/>
		<path d="M248.5,153L248.5,153c-0.1,0-0.1-0.1-0.1-0.2L248.5,153c0.5-0.1,1.5-1.4,2.3-3.1c0.5-1,0.8-1.9,0.9-2.6
			c0,0.7-0.4,1.6-0.8,2.6C250,151.6,249,153,248.5,153L248.5,153z M248.3,152.3c0-0.7,0.3-1.7,0.8-2.8c0.8-1.7,1.9-3.1,2.4-3.1
			c0,0.1,0.1,0.1,0.1,0.2l0,0c-0.6,0-1.6,1.3-2.4,2.9C248.7,150.6,248.3,151.6,248.3,152.3L248.3,152.3z"/>
		<path fill="#2C6A34" d="M251.7,150.3c-1.4,1.6-2.8,2.6-3.2,2.4c-0.4-0.2,0.5-1.7,1.8-3.2c1.4-1.6,2.8-2.6,3.2-2.4
			C253.9,147.3,253.1,148.7,251.7,150.3L251.7,150.3z"/>
		<path d="M248.7,152.8l-0.2-0.1l0-0.2l0.2,0.1c0.5,0,1.8-1,3-2.4c0.7-0.8,1.3-1.6,1.7-2.3c-0.3,0.7-0.9,1.5-1.6,2.3
			C250.5,151.7,249.2,152.8,248.7,152.8L248.7,152.8z M248.5,152.2c0.2-0.7,0.9-1.7,1.8-2.8c1.3-1.4,2.6-2.4,3.1-2.4
			c0,0.1,0.1,0.1,0.1,0.1l0,0.1c-0.7,0-1.9,1-3,2.3C249.5,150.5,248.7,151.6,248.5,152.2L248.5,152.2z"/>
		<path fill="#2C6A34" d="M251.9,151.4c-1.7,1.3-3.3,2.1-3.5,1.7c-0.3-0.3,0.9-1.6,2.6-2.9c1.7-1.3,3.2-2,3.5-1.7
			C254.8,148.8,253.6,150.1,251.9,151.4L251.9,151.4z"/>
		<path d="M248.7,153.3l-0.2-0.1c0,0,0-0.1,0-0.2c0,0,0,0,0,0L248.7,153.3c0.5-0.1,1.9-0.8,3.3-1.9c0.9-0.6,1.6-1.3,2-1.8
			c0.3-0.3,0.5-0.6,0.6-0.8c0,0.2-0.3,0.6-0.5,0.8c-0.5,0.5-1.2,1.2-2,1.9C250.6,152.5,249.2,153.3,248.7,153.3L248.7,153.3z
			 M248.5,152.8c0.3-0.7,1.3-1.6,2.5-2.6c1.4-1.1,2.8-1.8,3.3-1.8c0.1,0.1,0.1,0.1,0.1,0.1c-0.5,0.2-2,0.7-3.4,1.7
			C249.7,151.2,248.7,152.2,248.5,152.8L248.5,152.8z"/>
		<path fill="#2C6A34" d="M248.5,153c0,0-0.4-1.1-0.4-1.3c-0.1-0.2,0.4-0.5,0.2-1.2c-0.2-0.7-0.7-1.2-1.1-1.4
			c-0.3-0.2-0.5,0.1-0.3,0.9c0.2,0.8,0.8,1.1,1,1.5c0.1,0.4,0.4,1.1,0.5,1.4c0.3,0.2,0.9,0.8,1.3,1.1c0.4,0.3,0.9,1.4,1.6,1.9
			c0.6,0.3,1.2,0.3,1.1-0.2c-0.2-0.4-0.7-1.1-1.2-1.4c-0.4-0.3-1.1-0.1-1.5-0.5C249.3,153.6,248.5,153,248.5,153L248.5,153z"/>
		<path d="M251.9,156.2c-0.2,0-0.5-0.1-0.7-0.2c-0.4-0.3-0.8-0.9-1.1-1.3c-0.2-0.3-0.3-0.5-0.5-0.6c-0.7-0.6-1.1-0.9-1.3-1.1
			c-0.1-0.3-0.3-1-0.5-1.4c0.3,0.6,0.5,1.1,0.5,1.4c0.2,0.1,0.6,0.5,0.9,0.7c0.5,0.5,0.7,0.7,0.9,0.9c0.3,0.4,0.7,1,1.1,1.2
			C251.5,156.1,251.7,156.2,251.9,156.2L251.9,156.2L251.9,156.2L251.9,156.2L251.9,156.2z M252.2,155.9c-0.2-0.6-0.7-1.2-1.1-1.5
			c-0.2-0.1-0.4-0.1-0.7-0.2c-0.3,0-0.6-0.1-0.8-0.3l-0.5-0.4c-0.6-0.5-0.6-0.5-0.6-0.6l0,0c-0.1,0-0.4-1.3-0.4-1.3
			c0.2-0.5,0.3-0.8,0.2-1.2c-0.1-0.5-0.4-0.8-0.7-1.1c0.4,0.3,0.6,0.6,0.7,1.1c0.2,0.4,0,0.7-0.1,0.9c0,0.5,0.3,1.5,0.3,1.5
			c0.1,0.1,0.4,0.4,0.7,0.6l0.5,0.4c0.2,0.2,0.4,0.2,0.7,0.2c0.3,0,0.5,0.1,0.7,0.2c0.4,0.3,1,0.9,1.2,1.4L252.2,155.9L252.2,155.9z
			 M247.8,151.6c-0.5-0.7-0.8-0.9-0.9-1.5c-0.1-0.5-0.1-0.8,0-1c0.1,0,0.2,0,0.2,0.1c-0.3,0.2-0.3,0.5-0.2,0.9
			c0.2,0.5,0.4,0.8,0.7,1C247.6,151.3,247.7,151.4,247.8,151.6L247.8,151.6z"/>
		<path fill="#2C6A34" d="M246.3,156.6c-2,0-3.6-0.4-3.6-1c0-0.6,1.6-1,3.6-1.1c2-0.1,3.6,0.4,3.6,0.9
			C250,156.1,248.3,156.6,246.3,156.6L246.3,156.6z"/>
		<path d="M246.1,156.7c-1.5,0-2.9-0.3-3.3-0.7c0-0.1,0-0.2,0-0.2C243.4,156.3,244.7,156.6,246.1,156.7L246.1,156.7l0.2-0.1
			c2,0,3.6-0.5,3.6-1.1c0-0.5-1.5-0.9-3.4-0.9c-1.3,0-2.5,0.2-3.1,0.5c0.6-0.4,1.7-0.5,2.9-0.5l0,0c2.1,0,3.6,0.4,3.6,1
			c0,0.6-1.6,1.1-3.7,1.1H246.1L246.1,156.7z"/>
		<path fill="#2C6A34" d="M245.9,153.4c-1.3,1.6-2.6,2.6-3.1,2.3c-0.4-0.4,0.3-2,1.5-3.6c1.3-1.6,2.6-2.7,3.1-2.3
			C247.8,150.1,247.1,151.8,245.9,153.4L245.9,153.4z"/>
		<path d="M243.1,155.8l-0.3-0.1c-0.4-0.4,0.2-1.9,1.5-3.6c1.1-1.4,2.3-2.4,2.8-2.4c0.1,0,0.1,0.1,0.2,0.1c-0.7-0.2-1.9,1-3,2.3
			c-1.2,1.6-1.9,3.2-1.5,3.5L243.1,155.8c0.5-0.1,1.7-1.1,2.8-2.4c0.8-1.1,1.4-2.2,1.6-2.9c-0.1,0.7-0.6,1.8-1.5,2.9
			C244.8,154.8,243.6,155.8,243.1,155.8L243.1,155.8z"/>
		<path fill="#2C6A34" d="M246.4,155c-1.8,0.8-3.5,1-3.7,0.5c-0.2-0.5,1.1-1.6,3-2.4c1.8-0.8,3.5-1,3.7-0.5
			C249.6,153.2,248.2,154.3,246.4,155L246.4,155z"/>
		<path d="M243.4,155.8c-0.5,0-0.7-0.1-0.8-0.3c-0.2-0.5,1.1-1.6,3-2.4c1.8-0.8,3.6-1,3.8-0.5c0.2,0.5-1.1,1.6-3,2.4
			C245.3,155.6,244.1,155.8,243.4,155.8L243.4,155.8z M248.6,152.4c-0.7,0-1.8,0.3-3,0.7c-1.8,0.8-3.2,1.9-2.9,2.4
			c0.2,0.5,1.9,0.3,3.7-0.5c1.8-0.8,3.2-1.9,3-2.4C249.3,152.5,249,152.4,248.6,152.4L248.6,152.4z"/>
		<path fill="#2C6A34" d="M247.4,123.7c0.9,0.8,1.5,1.6,1.2,1.7c-0.2,0.1-1.2-0.4-2.1-1.3c-0.9-0.8-1.5-1.6-1.2-1.7
			C245.5,122.3,246.4,122.8,247.4,123.7L247.4,123.7z"/>
		<path d="M248.5,125.5c-0.3,0-1.2-0.5-2-1.3c-0.8-0.7-1.3-1.4-1.3-1.7c0.1,0,0.1,0,0.1,0c-0.1,0.3,0.4,0.9,1.2,1.6
			C247.3,124.9,248.2,125.4,248.5,125.5L248.5,125.5L248.5,125.5c0.1-0.4-0.3-1-1.2-1.8c-0.6-0.5-1.2-1-1.6-1.2
			c0.5,0.2,1.1,0.6,1.7,1.1c0.8,0.7,1.3,1.4,1.3,1.7L248.5,125.5L248.5,125.5z"/>
		<path fill="#2C6A34" d="M246.3,124.6c1.2,0.1,2.3,0.5,2.3,0.8c0.1,0.2-0.9,0.3-2.2,0.2c-1.2-0.2-2.3-0.5-2.3-0.8
			C244,124.5,245,124.4,246.3,124.6L246.3,124.6z"/>
		<path d="M247.6,125.7c-0.3,0-0.7,0-1.2-0.1c-1.1-0.2-2.3-0.5-2.3-0.8c0.3-0.6,1.4-0.3,2.2-0.2c1.1,0.2,2.3,0.5,2.3,0.8
			C248.5,125.6,247.9,125.7,247.6,125.7L247.6,125.7z M245.1,124.6c-0.5,0-0.9,0.1-0.9,0.2c0,0.3,1,0.6,2.3,0.8
			c1.1,0.1,1.9,0.1,2.1-0.1c0-0.2-1-0.6-2.3-0.8C245.8,124.6,245.4,124.6,245.1,124.6L245.1,124.6z"/>
		<path fill="#2C6A34" d="M246.7,124c1.2,0.6,2,1.2,1.9,1.4c-0.1,0.2-1.2-0.1-2.3-0.7c-1.1-0.6-2-1.2-1.9-1.4
			C244.5,123.1,245.5,123.4,246.7,124L246.7,124z"/>
		<path d="M248.4,125.6c-0.4,0-1.3-0.3-2.2-0.8c-1-0.5-1.8-1.1-1.9-1.3c0.1-0.1,0.2-0.1,0.2-0.1c0,0.4,0.8,0.9,1.7,1.4
			C247.1,125.2,248,125.5,248.4,125.6L248.4,125.6l0.1-0.1L248.4,125.6L248.4,125.6z M248.5,125.4c-0.1-0.2-0.8-0.8-1.9-1.4
			c-0.6-0.3-1.2-0.5-1.6-0.7c0.5,0.1,1.1,0.3,1.7,0.6C247.7,124.5,248.5,125.1,248.5,125.4L248.5,125.4L248.5,125.4z"/>
		<path fill="#2C6A34" d="M230.4,153.1c0,0,3,0.7,5.6,1.6c2.6,0.9,6.6,4.2,7.7,4.4c1.2,0.1,2.9-0.4,3.5-2.1c-1.9,0.5-3,1.3-4.7,0.3
			c-0.6-0.2-2.7-2.1-4.9-3.1c-2.2-1-6.8-2.1-6.8-2.1L230.4,153.1z"/>
		<path d="M244,159.2h-0.2c-0.5-0.1-1.6-0.8-2.9-1.6c-1.5-1-3.4-2.3-4.8-2.8c-2.6-0.9-5.6-1.6-5.6-1.6l0.4-1.1l0,0
			c0.1,0,4.6,1.1,6.8,2.1c1.4,0.6,2.7,1.6,3.7,2.3c0.5,0.4,1,0.7,1.2,0.8c1.3,0.7,2.3,0.5,3.7,0.1l1-0.3
			C246.6,159,244.7,159.2,244,159.2L244,159.2z M230.5,153.1c0.2,0,3.1,0.7,5.6,1.6c1.5,0.5,3.4,1.8,4.9,2.8
			c1.2,0.8,2.3,1.6,2.8,1.6h0.2c0.8,0,2.6-0.2,3.3-2.1l-1,0.4c-1.3,0.4-2.4,0.6-3.7-0.1c-0.2-0.1-0.6-0.4-1.2-0.8
			c-0.9-0.7-2.3-1.7-3.7-2.3c-2.2-1-6.7-2.1-6.8-2.1L230.5,153.1L230.5,153.1L230.5,153.1z"/>
		<polygon fill="#2C6A34" points="233.7,125.8 237.1,124 233.3,124.9 232.9,125.7 		"/>
		<path d="M233.7,125.9l-0.8-0.2l0.4-0.8l3.8-1C237.1,124,233.8,125.8,233.7,125.9L233.7,125.9L233.7,125.9z M237.1,124l-3.8,1
			l-0.4,0.7l0.8,0.1C233.8,125.7,234.4,125.3,237.1,124L237.1,124z"/>
		<path fill="#2C6A34" d="M237,126.7c-1.3-0.3-3.4-0.7-4.7-0.8c0.9-1,2.2-2.7,2.9-3.8c-0.5,1-1.3,2.3-1.6,3.3
			C234.5,125.9,235.9,126.3,237,126.7L237,126.7z"/>
		<path d="M237,126.7l-1-0.2c-1.2-0.2-2.7-0.5-3.7-0.6c0.9-1,2.1-2.8,2.9-3.8l-0.4,1c-0.4,0.8-0.9,1.6-1.1,2.3
			c0.6,0.3,1.4,0.6,2.2,0.8L237,126.7L237,126.7L237,126.7z M235.1,122.1c-0.7,1.1-2,2.8-2.9,3.8c1,0,2.5,0.3,3.7,0.5l0.6,0.1
			l-0.7-0.2c-0.8-0.3-1.6-0.5-2.2-0.9c0.2-0.7,0.7-1.6,1.1-2.4L235.1,122.1L235.1,122.1z"/>
		<path fill="#2C6A34" d="M233,126c0,0,3.1-2.4,3.1-2.4l-3.6,1.6l-0.3,0.7L233,126z"/>
		<path d="M233,126.1l-0.8-0.1l0.3-0.8l3.6-1.6C236.2,123.7,233.2,126,233,126.1L233,126.1L233,126.1z M236.1,123.6l-3.5,1.7
			l-0.3,0.7l0.7,0C233.2,125.9,233.7,125.5,236.1,123.6L236.1,123.6z"/>
		<path fill="#2C6A34" d="M236.3,126.6c-1.4-0.2-3.4-0.7-4.8-0.8c0.9-1.1,2.2-2.8,2.9-3.9c-0.5,1-1.3,2.4-1.6,3.4
			C233.8,125.8,235.3,126.2,236.3,126.6L236.3,126.6z"/>
		<path d="M236.3,126.7l-1.1-0.2c-1.2-0.2-2.7-0.6-3.7-0.6c0.8-1.1,2-2.7,2.8-3.8h0c-0.8,1.2-1.9,2.8-2.7,3.8c1,0,2.5,0.3,3.7,0.6
			l0.6,0.1l-0.7-0.3c-0.8-0.2-1.7-0.6-2.3-0.9c0.2-0.8,0.7-1.7,1.1-2.5l0.3-0.7l-0.3,0.7c-0.4,0.8-0.9,1.7-1.1,2.5
			c0.6,0.3,1.5,0.6,2.2,0.9L236.3,126.7L236.3,126.7L236.3,126.7z"/>
		<polygon fill="#2C6A34" points="232.5,126.2 236.2,124.7 232.3,125.3 231.7,126 		"/>
		<path d="M232.5,126.3l-0.8-0.3l0.5-0.7l3.9-0.7C235.2,125.1,232.6,126.2,232.5,126.3L232.5,126.3L232.5,126.3z M236.2,124.7
			l-3.9,0.7l-0.5,0.6l0.8,0.2C232.7,126.1,233.3,125.8,236.2,124.7L236.2,124.7z"/>
		<path fill="#2C6A34" d="M235.9,126.7c-1.4-0.1-3.5-0.4-4.8-0.4c0.7-1.2,1.7-3.1,2.4-4.3c-0.4,1.1-1,2.6-1.2,3.6
			C233.3,126.1,234.9,126.3,235.9,126.7L235.9,126.7z"/>
		<path d="M235.9,126.7l-1.2-0.1c-1.1-0.1-2.5-0.2-3.4-0.2v0c1.1,0,2.3,0.1,3.4,0.2l0.8,0.1l-0.8-0.2c-0.8-0.2-1.7-0.4-2.4-0.7
			c0.1-0.8,0.5-1.8,0.8-2.6l0.2-0.6l-0.1,0.6c-0.3,0.9-0.7,1.9-0.8,2.6c0.6,0.3,1.5,0.5,2.3,0.7L235.9,126.7L235.9,126.7
			L235.9,126.7z M232,125c0.5-0.9,1-2,1.5-2.8l0,0C233,123.1,232.5,124.1,232,125L232,125z"/>
		<path fill="#2C6A34" d="M232.1,126.2c0,0,2.5-3,2.5-3l-3.1,2.3l-0.1,0.8L232.1,126.2z"/>
		<path d="M231.3,126.4l0.2-0.8l3.1-2.4c-0.6,0.8-2.4,2.9-2.4,3L231.3,126.4L231.3,126.4z M234.6,123.2l-3.1,2.4l-0.1,0.7l0.8-0.1
			C232.1,126.2,232.4,125.9,234.6,123.2L234.6,123.2z"/>
		<path fill="#2C6A34" d="M235.9,126.9c-1.5,0-3.7-0.2-5.1,0c0.7-1.3,1.6-3.5,2.1-4.8c-0.2,1.2-0.8,2.9-0.9,4
			C233.1,126.4,234.7,126.6,235.9,126.9L235.9,126.9z"/>
		<path d="M235.9,126.9l-1.2,0c-1.3,0-2.8-0.1-3.9,0c0.6-1.3,1.4-3.4,2-4.7v0.1c-0.6,1.5-1.4,3.4-2,4.6c0.9-0.2,2.5-0.1,3.9-0.1h0.8
			c-0.3-0.1-0.6-0.1-0.9-0.2c-0.9-0.1-1.9-0.3-2.6-0.6c0-0.8,0.3-1.8,0.5-2.8l0.2-0.7l-0.1,0.8c-0.3,1-0.5,2-0.6,2.7
			c0.7,0.2,1.7,0.4,2.5,0.6C235.1,126.7,235.5,126.7,235.9,126.9L235.9,126.9L235.9,126.9z"/>
		<path fill="#2C6A34" d="M231.7,127c0,0,3-2.9,3-2.9l-3.6,2l-0.2,0.9H231.7z"/>
		<path d="M231.7,127h-0.9l0.2-0.9l3.6-2C233.5,125.2,231.7,126.9,231.7,127L231.7,127L231.7,127z M234.6,124.1l-3.6,2.1l-0.3,0.8
			l0.9,0C231.8,126.8,232.3,126.3,234.6,124.1L234.6,124.1z"/>
		<path fill="#2C6A34" d="M235.3,127c-1.6,0-4-0.1-5.6,0.1c1-1.4,2.4-3.9,3.3-5.3c-0.6,1.4-1.4,3.2-1.8,4.4
			C232.3,126.5,234,126.7,235.3,127L235.3,127z"/>
		<path d="M229.7,127.1L229.7,127.1c1-1.5,2.4-3.9,3.3-5.4l0,0c-0.8,1.5-2.1,3.9-3.1,5.3c0.8-0.1,1.8-0.1,2.8-0.1l2.5,0
			c-0.3,0-0.7-0.1-1.2-0.2c-0.9-0.1-1.9-0.3-2.7-0.5c0.2-0.9,0.7-2.1,1.2-3.2l0.5-1.2l-0.4,1.2c-0.4,1.1-1,2.2-1.2,3.1
			c0.7,0.2,1.7,0.4,2.7,0.5c0.5,0.1,0.9,0.2,1.4,0.2L234,127h-1.4C231.5,127,230.5,127,229.7,127.1L229.7,127.1L229.7,127.1z"/>
		<path fill="#2C6A34" d="M230.6,127.2c0,0,3.8-3.2,3.8-3.2l-4.3,2.3l-0.4,1H230.6z"/>
		<path d="M229.7,127.2l0.5-1l4.3-2.3c-1.2,1.1-3.7,3.2-3.8,3.3L229.7,127.2L229.7,127.2z M234.4,123.9l-4.3,2.4l-0.4,0.9h0.9
			C230.6,127.1,231,126.8,234.4,123.9L234.4,123.9z"/>
		<path fill="#2C6A34" d="M234.7,127c-1.6,0.2-4,0.5-5.5,0.9c0.8-1.6,1.8-4.1,2.5-5.7c-0.4,1.4-1,3.3-1.2,4.6
			C231.7,127.1,233.4,127,234.7,127L234.7,127z"/>
		<path d="M229.1,128L229.1,128c0.8-1.6,1.9-4,2.5-5.6v0c-0.6,1.7-1.6,4-2.3,5.5c1.2-0.3,2.8-0.5,4.2-0.7l1.3-0.2
			c-0.4,0-0.9,0-1.4,0c-1,0-2,0-2.8-0.2c0.1-0.9,0.4-2.2,0.8-3.4l0.3-0.9l-0.2,1c-0.3,1.1-0.7,2.4-0.8,3.3c0.7,0.1,1.7,0.1,2.7,0.2
			c0.5,0,0.9,0,1.4,0l-1.2,0.2C232,127.4,230.3,127.7,229.1,128L229.1,128L229.1,128z"/>
		<path fill="#2C6A34" d="M230.1,127.8c0,0,3-4.1,3-4.1l-3.7,3.3l-0.2,1L230.1,127.8z"/>
		<path d="M229.2,128.1l0.2-1.1l3.7-3.4c-0.7,1.2-2.8,4-2.9,4.1L229.2,128.1L229.2,128.1z M233,123.7l-3.6,3.4l-0.2,0.9l0.9-0.2
			C230.1,127.8,230.4,127.3,233,123.7L233,123.7z"/>
		<path fill="#2C6A34" d="M233.8,127.5c-1.6,0.2-4,0.3-5.5,0.6c0.9-1.5,2.1-4,2.8-5.6c-0.4,1.4-1.2,3.2-1.4,4.5
			C230.9,127.4,232.6,127.4,233.8,127.5L233.8,127.5z"/>
		<path d="M228.2,128.2L228.2,128.2c0.9-1.6,2.1-4.1,2.8-5.6l-0.4,1.4c-0.4,1.1-0.7,2.3-0.9,3.1c0.8,0.1,1.7,0.2,2.7,0.3
			c0.5,0,1,0,1.4,0.1l-1.3,0.2C231.1,127.8,229.4,127.9,228.2,128.2L228.2,128.2L228.2,128.2z M231.1,122.6
			c-0.6,1.5-1.8,3.9-2.7,5.5c1.2-0.2,2.8-0.3,4.1-0.5l1.3-0.1c-0.4,0-0.9,0-1.4-0.1c-1,0-1.9-0.1-2.7-0.3c0.1-0.9,0.5-2.1,0.9-3.2
			L231.1,122.6L231.1,122.6z"/>
		<polygon fill="#2C6A34" points="229.6,128.2 233.4,125 229.1,127.3 228.7,128.2 		"/>
		<path d="M228.6,128.3l0.5-1l4.3-2.3c-1.2,1.2-3.6,3.2-3.7,3.3L228.6,128.3L228.6,128.3z M233.3,124.9l-4.2,2.4l-0.4,0.9l0.9,0
			C229.6,128.2,230,127.8,233.3,124.9L233.3,124.9z"/>
		<path fill="#2C6A34" d="M233.4,127.7c-1.6,0.3-4,0.7-5.5,1.2c0.7-1.6,1.7-4.2,2.2-5.8c-0.3,1.4-0.8,3.4-0.9,4.6
			C230.4,127.9,232.1,127.7,233.4,127.7L233.4,127.7z"/>
		<path d="M227.8,129L227.8,129c0.7-1.6,1.6-3.9,2.1-5.5l0,0c-0.6,1.9-1.4,3.9-2,5.3c1.1-0.4,2.8-0.7,4.2-1l1.2-0.2
			c-0.4,0.1-0.9,0.1-1.4,0.1c-1,0-2,0.1-2.7,0c0-0.9,0.3-2.2,0.6-3.4l0.1-0.5l-0.1,0.6c-0.2,1.2-0.6,2.4-0.6,3.3
			c0.7,0,1.8,0,2.7-0.1c0.5,0,1,0,1.5,0l-1.2,0.3C230.7,128.3,229,128.6,227.8,129L227.8,129L227.8,129z"/>
		<path fill="#2C6A34" d="M229,128.4c0,0,2.4-4.4,2.4-4.4l-3.2,3.8l0,1L229,128.4z"/>
		<path d="M228.1,128.9l0-1.1l3.3-3.9c-0.8,1.5-2.3,4.4-2.3,4.4L228.1,128.9L228.1,128.9z M231.4,124l-3.2,3.9l0,0.9l0.8-0.4
			C228.9,128.3,229.2,127.9,231.4,124L231.4,124z"/>
		<path fill="#2C6A34" d="M233.4,128c-1.7,0.4-4.3,1-5.9,1.6c0.6-1.8,1.3-4.7,1.7-6.5c-0.1,1.6-0.5,3.8-0.4,5.2
			C230.1,128.3,232,128,233.4,128L233.4,128z"/>
		<path d="M227.4,129.6L227.4,129.6c0.6-1.9,1.3-4.8,1.8-6.6l-0.1,1.5c-0.2,1.3-0.3,2.7-0.3,3.7c0.2,0,0.4,0,0.7,0
			c0.7,0,1.5-0.1,2.3-0.1c0.6-0.1,1.1-0.1,1.6-0.1l-1.4,0.4C230.4,128.7,228.7,129.2,227.4,129.6L227.4,129.6L227.4,129.6z
			 M229.2,123c-0.4,1.8-1,4.7-1.7,6.5c1.2-0.4,2.9-0.8,4.4-1.2l1.4-0.3c-0.5,0.1-1,0.1-1.5,0.2c-1,0.1-2.2,0.2-3,0.1
			c-0.1-1,0.1-2.4,0.2-3.7L229.2,123L229.2,123z"/>
		<path fill="#2C6A34" d="M228.5,129.4c0,0,3-4.4,3-4.4l-3.9,3.6l-0.2,1.1L228.5,129.4z"/>
		<path d="M227.5,129.7l0.2-1.2l3.9-3.7c-0.7,1.3-2.9,4.4-2.9,4.5L227.5,129.7L227.5,129.7z M231.5,124.9l-3.8,3.7l-0.1,1.1l0.9-0.3
			C228.5,129.4,228.8,128.9,231.5,124.9L231.5,124.9z"/>
		<path fill="#2C6A34" d="M232.7,128.5c-1.7,0.5-4.2,1.2-5.8,1.9c0.5-1.8,1.1-4.8,1.4-6.6c-0.1,1.6-0.3,3.7-0.2,5.1
			C229.4,129,231.3,128.6,232.7,128.5L232.7,128.5z"/>
		<path d="M226.8,130.4L226.8,130.4c0.6-1.9,1.1-4.8,1.5-6.6l0,1.5c-0.1,0.8-0.1,1.6-0.1,2.3c0-0.8,0-1.6,0.1-2.3l0.1-1.5
			c-0.3,1.8-0.8,4.7-1.3,6.5c1.1-0.5,2.8-1,4.3-1.4l1.4-0.4c-0.4,0.1-1,0.2-1.5,0.3c-0.9,0.2-1.9,0.3-2.7,0.3l0,0
			c1-0.1,1.9-0.2,2.7-0.3c0.6-0.1,1.1-0.2,1.6-0.2l-1.4,0.5C229.8,129.4,228.1,129.9,226.8,130.4L226.8,130.4L226.8,130.4z"/>
		<path fill="#2C6A34" d="M227.9,130.1c0,0,2.3-4.9,2.3-4.9l-3.3,4.2l0,1.1L227.9,130.1z"/>
		<path d="M226.9,130.6l0-1.2l3.3-4.2c-0.6,1.3-2.2,4.8-2.2,4.9L226.9,130.6L226.9,130.6z M230.2,125.2l-3.2,4.3v1.1l0.9-0.4
			C227.9,130,228.1,129.6,230.2,125.2L230.2,125.2z"/>
		<path fill="#2C6A34" d="M232.1,129.1c-1.7,0.4-4.4,0.9-6,1.4c0.7-1.8,1.5-4.6,2-6.4c-0.2,1.6-0.6,3.7-0.6,5.1
			C228.8,129.4,230.7,129.2,232.1,129.1L232.1,129.1z"/>
		<path d="M226.1,130.6L226.1,130.6c0.7-1.8,1.5-4.7,2-6.4v0c-0.4,1.8-1.2,4.5-1.9,6.3c1.2-0.4,2.9-0.7,4.4-1.1l1.5-0.3
			c-0.5,0.1-1,0.1-1.6,0.1c-1,0.1-2.1,0.2-3,0c0-1,0.2-2.4,0.4-3.7l0.2-1.3l-0.1,1.3c-0.2,1.3-0.4,2.6-0.4,3.7c0.8,0,1.9,0,3-0.1
			c0.5,0,1.1-0.1,1.6-0.1l-1.5,0.4C229.1,129.8,227.3,130.2,226.1,130.6L226.1,130.6L226.1,130.6z"/>
		<path fill="#2C6A34" d="M227.4,130.6c0,0,3.7-3.8,3.7-3.8l-4.4,2.8l-0.4,1.1L227.4,130.6z"/>
		<path d="M226.3,130.7l0.4-1.1l4.4-2.9c-1,1.1-3.6,3.8-3.7,3.9L226.3,130.7L226.3,130.7z M231.1,126.7l-4.4,2.9l-0.3,1.1l1-0.1
			C227.4,130.5,227.7,130.1,231.1,126.7L231.1,126.7z"/>
		<path fill="#2C6A34" d="M231.3,129.8c-1.7,0.2-4.3,0.5-5.9,0.9c0.8-1.8,1.8-4.6,2.4-6.3c-0.3,1.6-0.9,3.7-1,5.1
			C228.1,129.7,230,129.7,231.3,129.8L231.3,129.8z"/>
		<path d="M225.3,130.7L225.3,130.7c0.8-1.7,1.7-4.3,2.3-6.1v0.1c-0.6,2-1.5,4.4-2.2,5.9c1.2-0.3,2.9-0.5,4.4-0.7l1.4-0.2
			c-0.4,0-1,0-1.5,0c-1,0-2.1-0.1-2.9-0.2c0-1.1,0.3-2.5,0.6-3.8l0.1-0.6l-0.1,0.7c-0.3,1.3-0.6,2.7-0.7,3.7
			c0.8,0.2,1.9,0.2,2.9,0.2c0.5,0,1.1,0,1.5,0.1l-1.4,0.3C228.4,130.2,226.6,130.4,225.3,130.7L225.3,130.7L225.3,130.7z"/>
		<path fill="#2C6A34" d="M226.6,130.2c0,0,2.6-4.8,2.6-4.8l-3.4,4.1l-0.1,1.1L226.6,130.2z"/>
		<path d="M225.6,130.6l0.1-1.2l3.5-4.1c-0.6,1.3-2.5,4.7-2.5,4.8L225.6,130.6L225.6,130.6z M229.2,125.3l-3.4,4.1l0,1.1l0.9-0.3
			C226.6,130.2,226.8,129.6,229.2,125.3L229.2,125.3z"/>
		<path fill="#2C6A34" d="M231.5,129.2c-1.8,0.7-4.7,1.8-6.4,2.7c0.6-2.2,1.2-5.6,1.5-7.7c-0.1,1.8-0.3,4.4-0.1,6
			C227.9,130.1,230,129.5,231.5,129.2L231.5,129.2z"/>
		<path d="M225.1,132L225.1,132c0.6-2.3,1.2-5.7,1.6-7.8l0,1.7c-0.1,1.5-0.2,3.1-0.1,4.2c0.9-0.1,2.1-0.3,3.3-0.6
			c0.6-0.1,1.2-0.3,1.7-0.4l-1.6,0.7C228.3,130.5,226.4,131.3,225.1,132L225.1,132L225.1,132z M226.6,124.2
			c-0.3,2.1-0.9,5.5-1.4,7.7c1.3-0.7,3.1-1.4,4.7-2l1.6-0.6c-0.5,0.2-1.1,0.3-1.7,0.5c-1.1,0.2-2.4,0.5-3.3,0.6
			c-0.2-1.2-0.1-2.8,0-4.3L226.6,124.2L226.6,124.2z"/>
		<path fill="#2C6A34" d="M226.3,131.6c-0.1,0,3-5.5,3-5.5l-4,4.7l-0.1,1.3L226.3,131.6z"/>
		<path d="M225.1,132.1l0.1-1.4l4-4.7c-1,1.9-3,5.4-3,5.6L225.1,132.1L225.1,132.1z M229.3,126.1l-4,4.7l-0.1,1.2l1-0.5
			C226.2,131.6,226.5,131.1,229.3,126.1L229.3,126.1z"/>
		<path fill="#2C6A34" d="M230.8,129.9c-1.8,0.8-4.6,2-6.3,3c0.5-2.2,0.9-5.6,1.2-7.7c0,1.8-0.1,4.3,0.1,5.9
			C227.3,131,229.3,130.2,230.8,129.9L230.8,129.9z"/>
		<path d="M224.5,133L224.5,133c0.5-2.2,0.9-5.6,1.2-7.7l0,0c-0.2,2.1-0.7,5.4-1.1,7.5c1.2-0.8,3.1-1.6,4.7-2.3l1.5-0.7
			c-0.5,0.2-1.1,0.4-1.7,0.5c-1.1,0.3-2.3,0.7-3.3,0.7c-0.2-1.2-0.2-2.7-0.2-4.3l0-1.4l0.1,1.4c0,1.5,0,3.1,0.1,4.2
			c0.9-0.1,2.1-0.5,3.2-0.8c0.6-0.2,1.2-0.3,1.7-0.4l-1.5,0.7C227.7,131.4,225.8,132.2,224.5,133L224.5,133L224.5,133z"/>
		<path fill="#2C6A34" d="M225.7,132.5c-0.1,0,2.2-6,2.2-6l-3.4,5.3l0.1,1.3L225.7,132.5z"/>
		<path d="M224.6,133.2l-0.1-1.4l3.4-5.3c-0.7,2-2.1,5.8-2.2,6L224.6,133.2L224.6,133.2z M227.8,126.5l-3.3,5.3l0.1,1.2l1-0.6
			C225.6,132.4,225.8,131.9,227.8,126.5L227.8,126.5z"/>
		<path fill="#2C6A34" d="M230,130.4c-1.8,0.8-4.6,2-6.2,3.1c0.5-2.2,0.9-5.6,1.1-7.7c0,1.8-0.1,4.3,0.1,5.9
			C226.5,131.5,228.5,130.8,230,130.4L230,130.4z"/>
		<path d="M223.7,133.5L223.7,133.5c0.5-2.2,0.9-5.7,1.2-7.7l0.1,1.8c0,1.5,0,3,0.1,4.1c0.9-0.1,2.1-0.5,3.2-0.8
			c0.6-0.2,1.2-0.4,1.7-0.5l-1.4,0.7C227,131.9,225.1,132.7,223.7,133.5L223.7,133.5L223.7,133.5z M224.9,125.8
			c-0.2,2.1-0.6,5.4-1,7.6c1.2-0.8,3.1-1.6,4.7-2.4l1.5-0.6c-0.5,0.2-1.1,0.4-1.7,0.5c-1.2,0.3-2.3,0.7-3.3,0.8
			c-0.2-1.1-0.2-2.7-0.2-4.1V125.8L224.9,125.8z"/>
		<path fill="#2C6A34" d="M225.1,133.2c0-0.1,3.5-5.3,3.5-5.3l-4.4,4.3l-0.2,1.3L225.1,133.2z"/>
		<path d="M224,133.6l0.2-1.3l4.4-4.3c-1.1,1.8-3.3,5.1-3.4,5.3L224,133.6L224,133.6z M228.6,127.9l-4.3,4.3l-0.2,1.2l1-0.3
			C225.1,133.1,225.4,132.6,228.6,127.9L228.6,127.9z"/>
		<path fill="#2C6A34" d="M229.9,130.1c-1.6,1.3-4.1,3.2-5.6,4.5c0-2.2-0.3-5.6-0.5-7.6c0.4,1.7,0.8,4.1,1.3,5.6
			C226.6,132.1,228.4,130.9,229.9,130.1L229.9,130.1z"/>
		<path d="M224.3,134.7L224.3,134.7c0-2.1-0.2-5.1-0.4-7.2l0,0.1c0.3,2.4,0.4,5.1,0.4,6.9c1.1-1,2.8-2.3,4.2-3.4l1.3-1
			c-0.4,0.3-1,0.6-1.5,0.9c-1,0.6-2.2,1.2-3.1,1.6c-0.5-1.1-0.8-2.6-1.1-4l-0.1-0.5l0.2,0.5c0.3,1.4,0.6,3,1,4c0.8-0.4,1.9-1,3-1.6
			c0.6-0.4,1.1-0.7,1.6-0.9l-1.3,1.1C227.1,132.3,225.4,133.6,224.3,134.7L224.3,134.7L224.3,134.7z"/>
		<path fill="#2C6A34" d="M225.3,133.4c-0.1,0,0.4-6.3,0.4-6.3l-1.7,6.1l0.4,1.1L225.3,133.4z"/>
		<path d="M224.5,134.5l-0.5-1.2l1.7-6.1c-0.1,1.7-0.3,6.1-0.3,6.3L224.5,134.5L224.5,134.5z M225.7,127.1l-1.6,6.1l0.4,1.1l0.8-0.9
			C225.3,133.4,225.3,133,225.7,127.1L225.7,127.1z"/>
		<path fill="#2C6A34" d="M229.4,130.7c-1.6,1.3-4.1,3.2-5.6,4.5c0-2.2-0.3-5.5-0.4-7.6c0.4,1.7,0.8,4.1,1.3,5.6
			C226.1,132.7,228,131.4,229.4,130.7L229.4,130.7z"/>
		<path d="M223.8,135.3v-0.1c0-2.1-0.3-5.3-0.4-7.4v0c0.2,2.3,0.5,5.3,0.5,7.3c1.1-1,2.7-2.3,4.1-3.3l1.4-1.1
			c-0.5,0.3-1,0.6-1.5,0.9c-1.1,0.6-2.2,1.3-3.1,1.6c-0.4-1-0.7-2.6-1-4l-0.2-1l0.3,1c0.3,1.4,0.6,2.9,1,3.9c0.9-0.3,2-1,3-1.6
			c0.6-0.3,1.1-0.6,1.6-0.9l-1.4,1.1C226.6,133,224.9,134.2,223.8,135.3L223.8,135.3L223.8,135.3z"/>
		<path fill="#2C6A34" d="M224.9,134.5c0,0,1.6-6.1,1.6-6.1l-2.8,5.7l0.2,1.3L224.9,134.5z"/>
		<path d="M223.9,135.3l-0.2-1.3l2.8-5.7c-0.5,2.1-1.6,6-1.6,6.1L223.9,135.3L223.9,135.3z M226.5,128.3l-2.7,5.7l0.2,1.2l0.9-0.7
			C224.9,134.4,225,133.9,226.5,128.3L226.5,128.3z"/>
		<path fill="#2C6A34" d="M229.2,130.9c-1.5,1.4-3.9,3.7-5.3,5.3c-0.2-2.2-0.9-5.7-1.3-7.8c0.6,1.7,1.3,4.2,2,5.6
			C226.1,133.3,227.8,131.8,229.2,130.9L229.2,130.9z"/>
		<path d="M224,136.2L224,136.2c-0.2-2.3-0.9-5.6-1.3-7.7l0,0c0.5,2.2,1.1,5.3,1.3,7.5c1-1.2,2.5-2.7,3.9-4l1.3-1.2
			c-0.5,0.3-1,0.7-1.5,1.1c-1,0.8-2.1,1.5-3,2c-0.5-1.1-1.1-2.6-1.5-4l-0.4-1.1l0.4,1.1c0.4,1.4,0.9,2.9,1.4,3.9
			c0.9-0.4,1.9-1.2,3-2c0.5-0.4,1.1-0.8,1.6-1.1l-1.2,1.3C226.6,133.5,225,135,224,136.2L224,136.2L224,136.2z"/>
		<path fill="#2C6A34" d="M224.9,135.3c-0.1,0,0.3-6.5,0.3-6.5l-1.6,6.4l0.5,1.2L224.9,135.3z"/>
		<path d="M224.1,136.4l-0.5-1.3l1.6-6.4c0,2.2-0.2,6.4-0.2,6.4L224.1,136.4L224.1,136.4z M225.2,128.7l-1.6,6.4l0.5,1.1l0.8-1
			C224.9,135.3,224.9,134.6,225.2,128.7L225.2,128.7z"/>
		<path fill="#2C6A34" d="M228.8,131.9c-1.6,1.3-4.2,3.3-5.6,4.8c-0.1-2.3-0.4-5.7-0.6-7.9c0.4,1.8,0.9,4.3,1.5,5.8
			C225.4,134,227.3,132.7,228.8,131.9L228.8,131.9z"/>
		<path d="M223.1,136.8v-0.1c0-2.3-0.4-5.7-0.7-7.9l0.5,1.7c0.4,1.4,0.7,3,1.1,4.1c0.9-0.4,2-1.1,3.1-1.7c0.6-0.3,1.1-0.7,1.6-0.9
			l-1.3,1.2c-1.5,1.2-3.2,2.5-4.2,3.6L223.1,136.8L223.1,136.8z M222.4,128.8c0.3,2.1,0.7,5.6,0.7,7.9c1.1-1.1,2.7-2.4,4.2-3.6
			l1.4-1.1c-0.4,0.3-1,0.6-1.5,0.9c-1.1,0.7-2.2,1.4-3.2,1.7c-0.5-1.1-0.8-2.6-1.2-4.1L222.4,128.8L222.4,128.8z"/>
		<path fill="#4561AC" d="M251.5,138.6c0,6.3-5.1,11.5-11.5,11.5c-6.3,0-11.5-5.1-11.5-11.5c0-6.3,5.1-11.5,11.5-11.5
			C246.4,127.1,251.5,132.3,251.5,138.6L251.5,138.6z"/>
		<path fill="#2C6A34" d="M224.4,136c0,0,2.3-6.1,2.3-6.1l-3.4,5.5l0.1,1.3L224.4,136z"/>
		<path d="M223.4,136.7l-0.1-1.4l3.4-5.5c-0.7,2.1-2.2,6-2.2,6.1L223.4,136.7L223.4,136.7z M226.7,129.9l-3.3,5.5l0.1,1.3l1-0.6
			C224.4,136,224.6,135.4,226.7,129.9L226.7,129.9z"/>
		<path fill="#2C6A34" d="M228.7,132c-1.4,1.5-3.7,3.7-5,5.4c-0.2-2.3-0.9-5.8-1.3-7.9c0.6,1.8,1.2,4.2,1.9,5.7
			C225.7,134.4,227.4,132.9,228.7,132L228.7,132z"/>
		<path d="M223.7,137.4v-0.1c-0.2-2.2-0.8-5.4-1.2-7.6l0,0.1c0.5,2.4,1,5.4,1.2,7.5c0.9-1.3,2.4-2.8,3.7-4.1l1.2-1.3
			c-0.4,0.4-0.9,0.8-1.4,1.2c-1,0.7-2,1.6-2.9,2c-0.5-1-1-2.6-1.4-4l-0.3-0.8l0.4,0.8c0.4,1.4,0.9,3,1.4,4.1c0.8-0.5,1.8-1.3,2.8-2
			c0.5-0.4,1-0.8,1.5-1.1l-1.1,1.3C226.3,134.6,224.7,136.1,223.7,137.4L223.7,137.4L223.7,137.4z"/>
		<path fill="#2C6A34" d="M224.5,136.3c0,0-0.3-6.5-0.3-6.5l-1,6.5l0.6,1.1L224.5,136.3z"/>
		<path d="M223.8,137.5l-0.6-1.2l1.1-6.5c0.1,2.2,0.3,6.4,0.3,6.5L223.8,137.5L223.8,137.5z M224.2,129.8l-1,6.5l0.5,1.1l0.7-1.1
			C224.5,136.3,224.4,135.7,224.2,129.8L224.2,129.8z"/>
		<path fill="#2C6A34" d="M228,132.5c-1.4,1.5-3.6,3.8-4.8,5.4c-0.3-2.3-1-5.8-1.5-7.9c0.6,1.8,1.3,4.3,2.1,5.7
			C225.1,134.9,226.7,133.4,228,132.5L228,132.5z"/>
		<path d="M223.2,138L223.2,138c-0.3-2.3-1-5.8-1.5-7.9v0c0.5,2.2,1.2,5.5,1.5,7.7c0.9-1.2,2.4-2.8,3.6-4.1l1.2-1.2
			c-0.4,0.4-0.9,0.8-1.4,1.1c-0.9,0.8-2,1.6-2.8,2.1c-0.6-1-1.1-2.5-1.6-4l-0.5-1.5l0.6,1.5c0.5,1.4,1,2.9,1.5,4
			c0.8-0.5,1.8-1.3,2.7-2c0.5-0.4,1-0.8,1.4-1.1l-1.1,1.3C225.7,135.1,224.2,136.7,223.2,138L223.2,138L223.2,138z"/>
		<path fill="#2C6A34" d="M224.2,137c0,0,0.7-6.6,0.7-6.6l-2,6.2l0.4,1.3L224.2,137z"/>
		<path d="M223.3,138l-0.4-1.4l1.9-6.2c-0.2,2.2-0.7,6.5-0.7,6.6L223.3,138L223.3,138z M224.9,130.4l-1.9,6.2l0.4,1.2l0.8-0.9
			C224.1,137,224.2,136.4,224.9,130.4L224.9,130.4z"/>
		<path fill="#2C6A34" d="M227.7,132.7c-1.2,1.7-3.3,4.1-4.4,5.9c-0.5-2.2-1.5-5.6-2.1-7.7c0.7,1.7,1.6,4.1,2.5,5.4
			C225,135.5,226.5,133.8,227.7,132.7L227.7,132.7z"/>
		<path d="M223.4,138.7l0-0.1c-0.5-2.2-1.4-5.4-2.1-7.5l0,0.1c0.7,2.2,1.6,5.3,2.1,7.4c0.8-1.3,2.1-3,3.3-4.4l1-1.4
			c-0.4,0.4-0.8,0.8-1.2,1.3c-0.9,0.8-1.8,1.8-2.7,2.3c-0.7-1-1.3-2.5-1.9-3.9l-0.4-1.1l0.5,1.1c0.6,1.4,1.2,2.9,1.8,3.8
			c0.8-0.5,1.7-1.4,2.6-2.3c0.4-0.4,0.9-0.9,1.3-1.2l-1,1.4c-1.2,1.5-2.5,3.2-3.3,4.5L223.4,138.7L223.4,138.7z"/>
		<path fill="#2C6A34" d="M224.2,137.6c-0.1,0-0.5-6.6-0.5-6.6l-0.8,6.5l0.6,1.2L224.2,137.6z"/>
		<path d="M223.5,138.8l-0.6-1.2l0.8-6.5c0.2,2.2,0.5,6.5,0.5,6.6L223.5,138.8L223.5,138.8z M223.7,131l-0.8,6.5l0.6,1.1l0.6-1
			C224.1,137.5,224,137,223.7,131L223.7,131z"/>
		<path fill="#2C6A34" d="M227.6,133.1c-1.2,1.7-3.1,4.3-4.1,6.1c-0.6-2.2-1.7-5.6-2.5-7.6c0.8,1.6,1.9,4,2.7,5.3
			C225,136,226.5,134.2,227.6,133.1L227.6,133.1z"/>
		<path d="M223.5,139.3L223.5,139.3c-0.5-2.1-1.6-5.1-2.3-7.2l-0.2-0.6l0.8,1.5c0.7,1.3,1.4,2.8,2,3.8c0.7-0.6,1.6-1.6,2.5-2.5
			c0.4-0.5,0.9-0.9,1.3-1.3l-0.9,1.5C225.6,136.1,224.3,137.9,223.5,139.3L223.5,139.3L223.5,139.3z M221,131.6l0.2,0.6
			c0.7,2.1,1.7,5,2.2,7c0.8-1.4,2-3.1,3.1-4.6l1-1.4c-0.3,0.5-0.8,0.9-1.2,1.4c-0.8,0.9-1.8,1.9-2.5,2.5c-0.7-1-1.4-2.4-2.1-3.8
			L221,131.6L221,131.6z"/>
		<path fill="#2C6A34" d="M224.6,138.2c0,0,0.7-6.6,0.7-6.6l-1.9,6.2l0.4,1.3L224.6,138.2z"/>
		<path d="M223.7,139.2l-0.4-1.4l1.9-6.2c-0.2,2.3-0.6,6.5-0.6,6.6L223.7,139.2L223.7,139.2z M225.2,131.6l-1.8,6.2l0.4,1.2l0.8-0.8
			C224.5,138.2,224.5,137.6,225.2,131.6L225.2,131.6z"/>
		<path fill="#2C6A34" d="M227.4,133.7c-1,1.9-2.7,4.7-3.5,6.7c-0.8-2.2-2.2-5.4-3.1-7.3c1,1.5,2.2,3.7,3.2,4.9
			C225,137,226.3,135,227.4,133.7L227.4,133.7z"/>
		<path d="M223.8,140.5L223.8,140.5c-0.8-2.2-2.2-5.3-3.1-7.3v0c1,1.9,2.4,5,3.1,7.1c0.6-1.4,1.7-3.3,2.6-4.9l0.9-1.7
			c-0.3,0.5-0.7,1-1.1,1.5c-0.8,1-1.6,2.1-2.3,2.8c-0.8-0.8-1.6-2.2-2.3-3.4l-0.8-1.3l0.9,1.2c0.8,1.2,1.6,2.6,2.3,3.4
			c0.7-0.7,1.5-1.8,2.3-2.9c0.4-0.5,0.8-1,1.1-1.5l-0.9,1.7C225.6,137.1,224.5,139,223.8,140.5L223.8,140.5L223.8,140.5z"/>
		<polygon fill="#2C6A34" points="224.3,138.8 222.5,132.5 223.1,139.1 223.9,140 		"/>
		<path d="M223.9,140.1l-0.9-1l-0.6-6.7c0.7,2.1,1.8,6.2,1.9,6.3L223.9,140.1L223.9,140.1z M222.4,132.5l0.7,6.6l0.8,0.8l0.4-1.2
			C224.3,138.8,224.1,138.2,222.4,132.5L222.4,132.5z"/>
		<path fill="#2C6A34" d="M227.3,134.4c-1.1,1.9-2.8,4.7-3.7,6.6c-0.8-2.1-2.2-5.3-3.2-7.2c1,1.5,2.2,3.7,3.3,4.9
			C224.9,137.7,226.2,135.7,227.3,134.4L227.3,134.4z"/>
		<path d="M223.6,141.2L223.6,141.2c-0.8-2.2-2.3-5.4-3.2-7.3l1,1.4c0.7,1.2,1.6,2.6,2.4,3.5c0.7-0.7,1.5-1.7,2.3-2.8
			c0.4-0.5,0.8-1.1,1.2-1.5l-0.9,1.7C225.4,137.8,224.3,139.7,223.6,141.2L223.6,141.2L223.6,141.2z M220.4,133.9
			c1,1.9,2.4,5,3.2,7.1c0.7-1.4,1.8-3.3,2.7-4.9l1-1.7c-0.3,0.5-0.8,1.1-1.2,1.6c-0.8,1-1.6,2.1-2.3,2.7c-0.8-0.8-1.6-2.2-2.5-3.5
			L220.4,133.9L220.4,133.9z"/>
		<path fill="#2C6A34" d="M224.4,139.9c-0.1,0-0.7-6.6-0.7-6.6l-0.6,6.6l0.7,1.1L224.4,139.9z"/>
		<path d="M223.8,141.1l-0.7-1.2l0.6-6.6c0.3,2.2,0.7,6.5,0.7,6.6L223.8,141.1L223.8,141.1z M223.7,133.3l-0.5,6.6l0.6,1.1l0.6-1.1
			C224.3,139.9,224.3,139.4,223.7,133.3L223.7,133.3z"/>
		<path fill="#2C6A34" d="M227.4,135c-1.1,1.9-2.9,4.7-3.8,6.6c-0.7-2.2-2.2-5.3-3-7.3c1,1.5,2.2,3.8,3.2,5
			C225,138.2,226.3,136.3,227.4,135L227.4,135z"/>
		<path d="M223.6,141.6L223.6,141.6c-0.7-2.2-2.2-5.4-3.1-7.4l0,0c1,1.9,2.3,5,3.1,7.2c0.7-1.5,1.9-3.5,2.9-5.1l0.8-1.4
			c-0.3,0.5-0.8,1-1.2,1.6c-0.8,1-1.6,2-2.4,2.7c-0.8-0.9-1.6-2.2-2.4-3.5l-0.9-1.4l0.9,1.4c0.8,1.3,1.6,2.6,2.3,3.5
			c0.7-0.7,1.5-1.7,2.3-2.7c0.4-0.5,0.8-1,1.2-1.5l-0.8,1.4C225.6,138.1,224.4,140.1,223.6,141.6L223.6,141.6L223.6,141.6z"/>
		<path fill="#2C6A34" d="M224.3,140.5c0,0-1.2-6.5-1.2-6.5l0,6.7l0.7,1.1L224.3,140.5z"/>
		<path d="M223.8,141.8l-0.8-1.1l0-6.7c0.5,2.2,1.3,6.4,1.3,6.5L223.8,141.8L223.8,141.8z M223.1,134v6.7l0.7,0.9l0.5-1.1
			C224.3,140.5,224.2,139.9,223.1,134L223.1,134z"/>
		<path fill="#2C6A34" d="M227,136c-1.2,1.8-3.1,4.4-4.1,6.3c-0.6-2.2-1.9-5.5-2.7-7.5c0.9,1.6,2,3.9,2.9,5.2
			C224.3,139,225.8,137.1,227,136L227,136z"/>
		<path d="M222.8,142.3L222.8,142.3c-0.6-2.1-1.8-5.2-2.6-7.3l0,0.1c1,2.3,2,5.1,2.6,7.1c0.7-1.4,2-3.2,3-4.8l1-1.5
			c-0.3,0.4-0.8,0.9-1.2,1.4c-0.9,1-1.8,1.9-2.6,2.5c-0.7-0.9-1.5-2.4-2.2-3.7l-0.4-0.7l0.5,0.7c0.7,1.3,1.5,2.8,2.1,3.7
			c0.8-0.6,1.7-1.6,2.5-2.5c0.4-0.5,0.9-1,1.3-1.4l-0.9,1.6C224.9,139,223.6,140.9,222.8,142.3L222.8,142.3L222.8,142.3z"/>
		<path fill="#2C6A34" d="M223.8,141.2c0,0,0.5-6.6,0.5-6.6l-1.8,6.3l0.4,1.3L223.8,141.2z"/>
		<path d="M222.9,142.2l-0.4-1.3l1.8-6.3c-0.1,2.2-0.5,6.5-0.5,6.6L222.9,142.2L222.9,142.2z M224.3,134.6l-1.7,6.3l0.4,1.2l0.8-0.9
			C223.7,141.2,223.7,140.6,224.3,134.6L224.3,134.6z"/>
		<path fill="#2C6A34" d="M227,136.1c-1,1.9-2.7,4.8-3.5,6.8c-0.9-2.1-2.4-5.2-3.4-7.1c1,1.5,2.3,3.6,3.4,4.7
			C224.7,139.5,226,137.5,227,136.1L227,136.1z"/>
		<path d="M223.6,143L223.6,143c-0.8-2-2.2-4.8-3.2-6.7l0,0c1.2,2.2,2.4,4.7,3.2,6.5c0.6-1.5,1.6-3.4,2.5-5l0.9-1.7
			c-0.3,0.5-0.7,1-1.1,1.6c-0.8,1.1-1.6,2.1-2.3,2.9c-0.8-0.8-1.7-2.1-2.5-3.3l-0.4-0.6l0.4,0.5c0.8,1.2,1.7,2.5,2.4,3.3
			c0.7-0.7,1.5-1.9,2.2-2.9c0.4-0.5,0.8-1,1.1-1.5l-0.8,1.8C225.3,139.5,224.2,141.5,223.6,143L223.6,143L223.6,143z"/>
		<path fill="#2C6A34" d="M223.6,141.8c-0.1,0-2.1-6.2-2.1-6.2l0.8,6.6l0.9,0.9L223.6,141.8z"/>
		<path d="M223.2,143.1l-0.9-0.9l-0.8-6.6c0.7,2.1,2,6,2.1,6.2L223.2,143.1L223.2,143.1z M221.5,135.6l0.9,6.6l0.8,0.8l0.4-1.2
			C223.5,141.7,223.3,141.3,221.5,135.6L221.5,135.6z"/>
		<path fill="#2C6A34" d="M226.8,136.6c-0.7,2.1-1.9,5.3-2.4,7.4c-1.1-1.9-3.2-4.6-4.4-6.2c1.2,1.2,2.8,3,4.1,3.9
			C225,140.4,225.9,138.2,226.8,136.6L226.8,136.6z"/>
		<path d="M224.4,144.1L224.4,144.1c-1.1-1.8-2.8-4.1-4.1-5.8l-0.4-0.5l1.2,1.2c1,1,2.1,2.1,3,2.7c0.5-0.9,1.1-2.1,1.7-3.3
			c0.3-0.6,0.6-1.3,0.9-1.8l-0.5,1.7C225.6,140.2,224.8,142.4,224.4,144.1L224.4,144.1L224.4,144.1z M219.9,137.8l0.4,0.5
			c1.2,1.6,3,4,4,5.6c0.4-1.6,1.2-3.8,1.8-5.7l0.6-1.7c-0.2,0.6-0.5,1.2-0.8,1.8c-0.6,1.2-1.2,2.4-1.8,3.3c-1-0.6-2-1.7-3-2.7
			L219.9,137.8L219.9,137.8z"/>
		<path fill="#2C6A34" d="M225.4,142.3c-0.1,0-2.2-6.1-2.2-6.1l1,6.5l0.9,0.9L225.4,142.3z"/>
		<path d="M225,143.6l-0.9-0.9l-1-6.6c0.8,2,2.2,6,2.3,6.1L225,143.6L225,143.6z M223.1,136.2l1,6.5l0.9,0.8l0.3-1.3
			C225.3,142.3,225.1,141.8,223.1,136.2L223.1,136.2z"/>
		<path fill="#2C6A34" d="M226.7,137.3c-0.7,2.1-1.9,5.3-2.3,7.4c-1.2-1.9-3.2-4.5-4.5-6.2c1.2,1.2,2.9,3,4.1,3.9
			C225,141.1,225.9,138.8,226.7,137.3L226.7,137.3z"/>
		<path d="M224.4,144.8L224.4,144.8c-1.2-1.9-3.2-4.6-4.5-6.3l1.2,1.1c1,1,2,2.1,2.9,2.7c0.6-0.9,1.2-2.2,1.7-3.4
			c0.3-0.6,0.6-1.3,0.9-1.8l-0.5,1.8C225.5,141,224.8,143.1,224.4,144.8L224.4,144.8L224.4,144.8z M219.9,138.5
			c1.3,1.6,3.3,4.2,4.5,6.1c0.4-1.6,1.1-3.7,1.7-5.6l0.6-1.8c-0.2,0.6-0.5,1.2-0.8,1.8c-0.6,1.2-1.2,2.5-1.8,3.4
			c-0.9-0.6-2-1.7-3-2.7L219.9,138.5L219.9,138.5z"/>
		<path fill="#2C6A34" d="M225.4,143.3c0,0-2.9-5.7-2.9-5.7l1.7,6.3l1,0.7L225.4,143.3z"/>
		<path d="M225.2,144.7l-1-0.7l-1.7-6.3c1,1.9,2.8,5.6,2.9,5.7L225.2,144.7L225.2,144.7z M222.5,137.6l1.7,6.3l0.9,0.6l0.2-1.3
			C225.3,143.3,225.1,142.9,222.5,137.6L222.5,137.6z"/>
		<path fill="#2C6A34" d="M226.5,137.8c-0.4,2.2-1.2,5.6-1.4,7.7c-1.4-1.7-3.7-4-5.1-5.5c1.4,1,3.2,2.6,4.5,3.2
			C225.2,141.8,225.9,139.4,226.5,137.8L226.5,137.8z"/>
		<path d="M225.1,145.6L225.1,145.6c-1.3-1.6-3.3-3.7-4.7-5.1l-0.4-0.5l1.3,0.9c1.1,0.8,2.3,1.8,3.2,2.3c0.5-0.9,0.9-2.3,1.4-3.5
			c0.3-0.7,0.5-1.4,0.7-1.9l-0.3,1.9C225.8,141.6,225.3,143.9,225.1,145.6L225.1,145.6L225.1,145.6z M219.9,140l0.5,0.4
			c1.4,1.4,3.4,3.5,4.6,4.9c0.2-1.6,0.7-3.8,1.1-5.8l0.4-1.9c-0.2,0.6-0.4,1.2-0.6,1.9c-0.4,1.3-0.9,2.6-1.4,3.6
			c-1-0.5-2.2-1.4-3.3-2.3L219.9,140L219.9,140z"/>
		<path fill="#2C6A34" d="M225.6,144.2c0,0-1.5-6.4-1.5-6.4l0.2,6.7l0.8,0.9L225.6,144.2z"/>
		<path d="M225.1,145.5l-0.8-1.1l-0.3-6.7c0.6,2.1,1.5,6.3,1.6,6.4L225.1,145.5L225.1,145.5z M224,137.8l0.3,6.7l0.8,0.9l0.5-1.2
			C225.5,144.2,225.3,143.6,224,137.8L224,137.8z"/>
		<path fill="#2C6A34" d="M226.5,138.5c-0.2,2.2-0.7,5.7-0.7,7.9c-1.5-1.5-4-3.5-5.6-4.8c1.4,0.8,3.4,2.1,4.8,2.6
			C225.6,142.7,226.1,140.2,226.5,138.5L226.5,138.5z"/>
		<path d="M225.8,146.5L225.8,146.5c-1.5-1.4-3.8-3.4-5.4-4.7h0.1c1.8,1.4,3.9,3.1,5.3,4.5c0-1.7,0.3-4,0.5-6l0.2-1.8
			c-0.1,0.7-0.3,1.3-0.4,2.1c-0.3,1.3-0.6,2.7-1,3.7c-1-0.3-2.3-1.1-3.5-1.8l-0.6-0.4l0.7,0.3c1.2,0.7,2.5,1.5,3.5,1.9
			c0.4-1,0.7-2.4,1-3.7c0.2-0.7,0.3-1.4,0.5-2l-0.1,1.8c-0.2,2.1-0.5,4.4-0.5,6.1V146.5L225.8,146.5z"/>
		<path fill="#2C6A34" d="M225.6,144.7c0,0-4-4.6-4-4.6l3,5.6l1.1,0.4L225.6,144.7z"/>
		<path d="M225.8,146.1l-1.2-0.4l-3.1-5.6c1.4,1.6,4,4.5,4.1,4.6L225.8,146.1L225.8,146.1z M221.6,140.1l3.1,5.5l1,0.4l-0.1-1.3l0,0
			C225.6,144.7,225.3,144.4,221.6,140.1L221.6,140.1z"/>
		<path fill="#2C6A34" d="M226.6,139.3c-0.3,2.2-0.7,5.7-0.8,7.9c-1.5-1.5-4-3.6-5.6-4.8c1.5,0.8,3.4,2.1,4.8,2.7
			C225.7,143.4,226.1,141,226.6,139.3L226.6,139.3z"/>
		<path d="M225.9,147.2L225.9,147.2c-1.5-1.4-3.8-3.4-5.4-4.7l0.1,0c1.8,1.4,3.9,3.1,5.2,4.5c0-1.6,0.3-3.8,0.5-5.8l0.2-2
			c-0.1,0.6-0.3,1.3-0.4,2c-0.3,1.3-0.6,2.7-1.1,3.8c-1-0.4-2.3-1.1-3.5-1.9l-0.6-0.4l0.7,0.3c1.2,0.7,2.5,1.5,3.4,1.9
			c0.4-1,0.7-2.4,1-3.7c0.1-0.7,0.3-1.4,0.5-2l-0.1,2C226.2,143.3,225.9,145.5,225.9,147.2L225.9,147.2L225.9,147.2z"/>
		<path fill="#2C6A34" d="M226.1,145.7c0,0-3.1-5.6-3.1-5.6l2,6.2l1,0.7L226.1,145.7z"/>
		<path d="M226,147.2l-1.1-0.7l-2-6.3c0.9,1.5,3.1,5.4,3.2,5.5L226,147.2L226,147.2z M222.9,140.2l2,6.2l1,0.6l0.1-1.3
			C226.1,145.7,225.8,145.3,222.9,140.2L222.9,140.2z"/>
		<path fill="#2C6A34" d="M226.8,140.2c-0.1,2.3-0.5,5.8-0.4,7.9c-1.5-1.4-4.2-3.3-5.8-4.5c1.5,0.7,3.5,1.9,4.9,2.3
			C226.1,144.4,226.4,142,226.8,140.2L226.8,140.2z"/>
		<path d="M226.4,148.2L226.4,148.2c-1.6-1.3-4-3.1-5.6-4.3h0.1c1.8,1.3,4,2.9,5.4,4.2c0-1.6,0.2-3.9,0.3-6l0.1-1.9
			c-0.1,0.6-0.2,1.3-0.3,2c-0.3,1.4-0.5,2.7-0.9,3.8c-1.1-0.3-2.4-1-3.6-1.6l-0.6-0.3l0.6,0.2c1.2,0.6,2.5,1.3,3.5,1.6
			c0.3-1,0.6-2.4,0.9-3.8c0.1-0.7,0.3-1.4,0.4-2l-0.1,1.9C226.5,144.1,226.4,146.5,226.4,148.2L226.4,148.2L226.4,148.2z"/>
		<path fill="#2C6A34" d="M226.5,146.8c-0.1,0-3.9-4.9-3.9-4.9l2.8,5.8l1.1,0.5L226.5,146.8z"/>
		<path d="M226.6,148.2l-1.2-0.5l-2.8-5.8c1.3,1.6,3.8,4.7,3.9,4.8L226.6,148.2L226.6,148.2z M222.6,141.9l2.8,5.7l1,0.5l-0.1-1.3
			l0,0C226.5,146.8,226.1,146.4,222.6,141.9L222.6,141.9z"/>
		<path fill="#2C6A34" d="M226.8,141.2c-0.1,2.2-0.4,5.7-0.4,7.9c-1.6-1.4-4.2-3.2-5.8-4.4c1.5,0.8,3.5,1.9,4.9,2.3
			C226.1,145.4,226.5,143,226.8,141.2L226.8,141.2z"/>
		<path d="M226.5,149.2L226.5,149.2c-1.6-1.5-4.2-3.3-5.9-4.5l1.4,0.7c1.2,0.7,2.5,1.3,3.5,1.6c0.3-1,0.6-2.5,0.9-3.8
			c0.1-0.7,0.2-1.4,0.4-1.9l-0.1,1.8C226.6,145.1,226.5,147.5,226.5,149.2L226.5,149.2L226.5,149.2z M220.7,144.7
			c1.6,1.1,4.2,3,5.8,4.4c0-1.7,0.1-4.1,0.2-6.1l0.1-1.8c-0.1,0.6-0.2,1.3-0.3,1.9c-0.3,1.4-0.6,2.8-0.9,3.9c-1.1-0.3-2.3-1-3.6-1.6
			L220.7,144.7L220.7,144.7z"/>
		<path fill="#2C6A34" d="M226.8,147.6c0,0-2.7-5.9-2.7-5.9l1.5,6.4l1,0.8L226.8,147.6z"/>
		<path d="M226.6,149l-1-0.8l-1.5-6.4c0.9,1.9,2.7,5.7,2.7,5.8L226.6,149L226.6,149z M224.1,141.7l1.6,6.4l0.9,0.7l0.2-1.3
			C226.8,147.6,226.5,147.1,224.1,141.7L224.1,141.7z"/>
		<path fill="#2C6A34" d="M226.9,141.9c0.1,2.3,0.1,5.8,0.4,8c-1.7-1.2-4.4-2.7-6.2-3.6c1.6,0.5,3.7,1.4,5.1,1.7
			C226.6,146.2,226.7,143.7,226.9,141.9L226.9,141.9z"/>
		<path d="M227.3,149.9L227.3,149.9c-1.7-1.1-4.3-2.6-6-3.6l0.1,0c1.9,1,4.3,2.3,5.8,3.4c-0.2-1.6-0.3-3.9-0.3-6l-0.1-1.9
			c0,0.7-0.1,1.4-0.1,2.1c-0.1,1.4-0.3,2.8-0.5,3.9c-1-0.1-2.4-0.6-3.7-1.1l-0.8-0.3l0.8,0.2c1.3,0.5,2.6,1,3.6,1.1
			c0.2-1,0.4-2.5,0.5-3.9c0.1-0.7,0.1-1.4,0.2-2.1l0.1,1.9C227.1,145.9,227.1,148.2,227.3,149.9L227.3,149.9L227.3,149.9z"/>
		<path fill="#2C6A34" d="M227.3,147.4c0,0-4.9-3.4-4.9-3.4l4.1,4.6l1.2,0.1L227.3,147.4z"/>
		<path d="M227.8,148.7l-1.2-0.1l-4.2-4.6c1.4,0.9,4.8,3.3,5,3.3L227.8,148.7L227.8,148.7z M222.4,144l4.2,4.5l1.1,0.1l-0.4-1.2l0,0
			C227.2,147.4,224.2,145.3,222.4,144L222.4,144z"/>
		<path fill="#2C6A34" d="M227.1,142.2c0.2,2.2,0.4,5.7,0.8,7.9c-1.8-1.1-4.6-2.5-6.3-3.4c1.6,0.5,3.7,1.3,5.2,1.5
			C227,146.4,227,144,227.1,142.2L227.1,142.2z"/>
		<path d="M227.9,150.1L227.9,150.1c-1.7-1.1-4.3-2.4-6.1-3.3h0.1c2,0.9,4.4,2.2,6,3.1c-0.3-1.7-0.4-4-0.6-6.1l-0.1-1.8
			c0.1,0.6,0,1.3,0,2c-0.1,1.4-0.1,2.9-0.3,4c-1.1-0.1-2.4-0.5-3.8-0.9l-0.6-0.2l0.6,0.1c1.3,0.4,2.7,0.9,3.7,1
			c0.2-1.1,0.3-2.6,0.3-4c0-0.7,0-1.4,0.1-2l0.2,1.8C227.4,146,227.6,148.4,227.9,150.1L227.9,150.1L227.9,150.1z"/>
		<path fill="#2C6A34" d="M227.8,148.6c0,0-4.1-4.7-4.1-4.7l3.1,5.6l1.1,0.4L227.8,148.6z"/>
		<path d="M228,150l-1.2-0.5l-3.1-5.6c1.4,1.5,4,4.5,4.1,4.6L228,150L228,150z M223.7,143.9l3.2,5.6l1.1,0.4l-0.1-1.3l0,0
			C227.8,148.6,227.4,148.3,223.7,143.9L223.7,143.9z"/>
		<path fill="#2C6A34" d="M227.5,143c0.3,2.2,0.6,5.7,1.1,7.9c-1.8-1-4.7-2.2-6.5-3c1.6,0.3,3.7,1.1,5.2,1.1
			C227.5,147.3,227.4,144.8,227.5,143L227.5,143z"/>
		<path d="M228.6,150.9L228.6,150.9c-1.8-1-4.5-2.2-6.3-3l0,0c2,0.8,4.5,1.9,6.1,2.8c-0.4-1.7-0.6-4.1-0.9-6.1l-0.2-1.7
			c0,0.6,0,1.3,0,2.1c0,1.4,0,2.8-0.1,4c-1,0-2.4-0.4-3.7-0.7l-0.8-0.2l0.8,0.1c1.3,0.3,2.6,0.7,3.7,0.8c0.1-1.1,0.1-2.5,0.1-3.9
			c0-0.7,0-1.4,0-2.1l0.3,1.7C227.9,146.7,228.2,149.2,228.6,150.9L228.6,150.9L228.6,150.9z"/>
		<path fill="#2C6A34" d="M228.7,149.4c0,0.1-4.9-3.4-4.9-3.4l4.1,4.7l1.1,0.1L228.7,149.4z"/>
		<path d="M229.1,150.8l-1.2-0.1l-4.2-4.7c1.7,1.1,4.8,3.4,4.9,3.4L229.1,150.8L229.1,150.8z M223.7,146l4.2,4.7l1.1,0l-0.4-1.3l0,0
			C228.6,149.4,225.9,147.6,223.7,146L223.7,146z"/>
		<path fill="#2C6A34" d="M227.6,144c0.4,2.2,1,5.7,1.6,7.8c-1.8-0.8-4.8-1.8-6.6-2.4c1.6,0.2,3.8,0.7,5.2,0.6
			C228,148.3,227.7,145.8,227.6,144L227.6,144z"/>
		<path d="M229.3,151.8L229.3,151.8c-1.8-0.8-4.6-1.7-6.4-2.3h0.1c2,0.6,4.6,1.4,6.3,2.2c-0.4-1.6-0.9-3.9-1.2-5.9l-0.4-1.9
			c0.1,0.6,0.2,1.3,0.2,2.1c0.1,1.4,0.2,2.8,0.1,3.9c-1.3,0-2.5-0.2-3.7-0.4l-0.8-0.1l0.8,0.1c1.2,0.2,2.4,0.4,3.4,0.4
			c0.3-1.1,0.2-2.5,0.1-3.9c-0.1-0.8-0.1-1.5-0.1-2.1l0.4,1.8C228.3,147.8,228.8,150.1,229.3,151.8L229.3,151.8L229.3,151.8z"/>
		<path fill="#2C6A34" d="M229.2,150.1c0,0-4-4.8-4-4.8l3,5.7l1.1,0.5L229.2,150.1z"/>
		<path d="M229.3,151.5l-1.2-0.5l-3.1-5.7c1.4,1.6,4,4.7,4.1,4.7L229.3,151.5L229.3,151.5z M225.1,145.3l3.1,5.7l1,0.4l-0.1-1.3l0,0
			C229.2,150.1,228.8,149.7,225.1,145.3L225.1,145.3z"/>
		<path fill="#2C6A34" d="M227.9,144.6c0.7,2.2,1.5,5.6,2.3,7.6c-1.9-0.6-4.9-1.2-6.8-1.5c1.6,0,3.9,0.2,5.2-0.1
			C228.6,148.8,228.1,146.4,227.9,144.6L227.9,144.6z"/>
		<path d="M230.3,152.2L230.3,152.2c-2-0.6-4.9-1.2-6.7-1.5h0c1.9,0.3,4.7,0.9,6.6,1.4c-0.6-1.5-1.2-3.7-1.8-5.6l-0.5-1.9
			c0.2,0.6,0.3,1.4,0.4,2.1c0.2,1.3,0.5,2.8,0.5,3.9c-1,0.2-2.4,0.2-3.7,0.1l-1.1,0l1.1,0c1.3,0,2.7,0.1,3.7-0.1
			c0-1.1-0.3-2.5-0.5-3.9c-0.1-0.7-0.2-1.4-0.3-2.1l0.6,1.9C229,148.4,229.7,150.6,230.3,152.2L230.3,152.2L230.3,152.2z"/>
		<polygon fill="#2C6A34" points="229.4,150.1 223.8,148.9 229.1,151.6 230.2,151.2 		"/>
		<path d="M229.1,151.6l-5.4-2.6c1.9,0.3,5.5,1.1,5.7,1.1l0.8,1.1L229.1,151.6L229.1,151.6z M223.7,148.9l5.4,2.6l1.1-0.4l-0.8-1
			C229.3,150.1,224,149,223.7,148.9L223.7,148.9z"/>
		<path fill="#2C6A34" d="M228.2,145.2c0.6,2.2,1.5,5.5,2.3,7.6c-1.9-0.6-4.9-1.2-6.8-1.5c1.6,0,3.8,0.2,5.2,0
			C229,149.5,228.5,147.1,228.2,145.2L228.2,145.2z"/>
		<path d="M230.6,152.9L230.6,152.9c-1.8-0.6-4.6-1.2-6.4-1.5h0c2.1,0.4,4.6,0.9,6.3,1.4c-0.6-1.6-1.2-3.8-1.8-5.8l-0.5-1.7
			c0.2,0.6,0.3,1.3,0.4,2c0.2,1.4,0.4,2.9,0.4,4c-1,0.2-2.4,0.2-3.7,0.1h-0.6l0.6-0.1c0.6,0,1.3,0.1,1.9,0.1l0,0
			c0.7,0,1.3,0,1.8-0.1c-0.1-1.1-0.3-2.5-0.5-4c-0.1-0.7-0.2-1.4-0.3-2l0.6,1.7C229.3,149,230,151.3,230.6,152.9L230.6,152.9
			L230.6,152.9z"/>
		<path fill="#2C6A34" d="M230.3,150.7c0,0-5.4-2.6-5.4-2.6l4.8,3.9l1.2-0.1L230.3,150.7z"/>
		<path d="M229.7,152.1l-4.8-4c1.5,0.7,5.3,2.5,5.4,2.5l0.6,1.2L229.7,152.1L229.7,152.1z M224.9,148.1l4.9,3.9l1.2-0.1l-0.6-1.2
			l0,0C230.2,150.7,226.2,148.7,224.9,148.1L224.9,148.1z"/>
		<path fill="#2C6A34" d="M228,145.6c1.1,2,2.6,5.1,3.8,6.9c-2-0.2-5,0-6.9,0c1.6-0.3,3.8-0.7,5.1-1.2
			C229.6,149.6,228.6,147.3,228,145.6L228,145.6z"/>
		<path d="M224.9,152.5L224.9,152.5L224.9,152.5L224.9,152.5L224.9,152.5l1.4-0.3c1.3-0.3,2.7-0.5,3.6-0.9c-0.3-1.1-0.8-2.4-1.3-3.7
			c-0.3-0.7-0.5-1.3-0.7-1.9l0.9,1.6c0.9,1.8,2.1,4,3,5.3c-1.9,0-4.8,0-6.7,0.1l-0.1,0L224.9,152.5L224.9,152.5z M227.9,145.6
			c0.3,0.6,0.5,1.3,0.8,1.9c0.5,1.3,1,2.7,1.3,3.8c-1,0.4-2.3,0.7-3.7,0.9l-1,0.2c1.9-0.1,4.7-0.1,6.5,0c-0.9-1.3-2.1-3.4-3-5.2
			L227.9,145.6L227.9,145.6z"/>
		<path fill="#2C6A34" d="M231.2,151.3c0,0-5.6-1.6-5.6-1.6l5.3,3l1.1-0.3L231.2,151.3z"/>
		<path d="M230.8,152.7L230.8,152.7l-5.3-3c1.5,0.4,5.5,1.5,5.6,1.5l0.8,1.1L230.8,152.7L230.8,152.7z M225.6,149.8l5.3,2.9l1.1-0.3
			l-0.8-1C231.1,151.4,226.1,150,225.6,149.8L225.6,149.8z"/>
		<path fill="#2C6A34" d="M228.6,146.5c1.1,2,2.6,5.1,3.9,6.8c-2-0.1-5,0-6.9,0.1c1.6-0.4,3.7-0.7,5.1-1.2
			C230.2,150.5,229.2,148.2,228.6,146.5L228.6,146.5z"/>
		<path d="M225.5,153.4L225.5,153.4L225.5,153.4L225.5,153.4L225.5,153.4L225.5,153.4l1.5-0.4c1.3-0.2,2.6-0.5,3.6-0.9
			c-0.3-1.1-0.8-2.5-1.3-3.8c-0.3-0.6-0.5-1.3-0.7-1.8l1,1.8c0.9,1.8,2,3.8,2.9,5c-0.6,0-1.3,0-2.1,0c-1.6,0-3.4,0.1-4.7,0.1l0,0
			L225.5,153.4L225.5,153.4z M228.5,146.5c0.3,0.5,0.5,1.2,0.8,1.8c0.5,1.3,1.1,2.7,1.3,3.8c-1,0.4-2.3,0.7-3.6,1l-1.1,0.2
			c1.9-0.1,4.7-0.2,6.5-0.1c-0.9-1.2-2-3.2-2.9-5L228.5,146.5L228.5,146.5z"/>
		<polygon fill="#2C6A34" points="231.9,151.8 226.7,148.6 231.2,153 232.4,153 		"/>
		<path d="M232.5,153h-1.2l-4.6-4.4c1.8,1,5.1,3,5.3,3.1L232.5,153L232.5,153z M226.6,148.7l4.6,4.3h1.1l-0.5-1.2l0,0
			C231.8,151.8,228.6,149.8,226.6,148.7L226.6,148.7z"/>
		<path fill="#2C6A34" d="M229,147c1.3,1.8,3.1,4.7,4.5,6.4c-2,0.1-5,0.7-6.8,1c1.5-0.6,3.6-1.2,4.9-1.9
			C231,150.7,229.7,148.6,229,147L229,147z"/>
		<path d="M226.7,154.4L226.7,154.4L226.7,154.4L226.7,154.4L226.7,154.4L226.7,154.4l1.4-0.6c1.3-0.5,2.6-0.9,3.5-1.4
			c-0.4-1-1-2.3-1.7-3.5c-0.3-0.7-0.6-1.3-0.9-1.9l1.1,1.5c1.1,1.7,2.4,3.6,3.4,4.9c-1.9,0.2-4.8,0.7-6.6,1L226.7,154.4L226.7,154.4
			L226.7,154.4z M228.9,147c0.3,0.6,0.6,1.2,1,1.8c0.6,1.2,1.3,2.5,1.6,3.6c-0.9,0.6-2.2,1-3.5,1.5l-1,0.4c1.8-0.3,4.5-0.8,6.4-0.9
			c-1.1-1.1-2.4-3.1-3.5-4.8L228.9,147L228.9,147z"/>
		<polygon fill="#2C6A34" points="232.3,152.2 226.6,152.1 232.2,153.7 233.2,153.1 		"/>
		<path d="M232.2,153.8l-5.6-1.7c0-0.1,4.5,0.1,5.5,0.1l0.1,0.1c-1.3,0-5.5-0.1-5.5-0.1L232.2,153.8l1-0.7l-0.3-0.2l0.3,0.3
			L232.2,153.8L232.2,153.8z"/>
		<polygon fill="#2C6A34" points="235.5,124.9 239.6,124.2 235.5,124.3 234.9,124.6 		"/>
		<path d="M235.5,124.9l-0.7-0.2l0.7-0.4l4.1-0.1C239.6,124.2,235.7,124.9,235.5,124.9L235.5,124.9L235.5,124.9z M239.6,124.2
			l-4.1,0.1l-0.6,0.4l0.6,0.2C235.7,124.8,236.4,124.7,239.6,124.2L239.6,124.2z"/>
		<path fill="#2C6A34" d="M237.8,125.7c-1.2-0.3-2.9-0.9-4.2-1.2c1.3-0.5,3.2-1.4,4.4-2c-0.9,0.5-2.2,1.3-2.9,1.8
			C235.7,124.9,237,125.3,237.8,125.7L237.8,125.7z"/>
		<path d="M237.8,125.8l-1.1-0.4c-1-0.3-2.2-0.7-3.1-0.8c1.3-0.6,3.2-1.5,4.3-2l0,0c-1.2,0.6-3,1.5-4.3,2c0.9,0.1,2.1,0.5,3.1,0.8
			l0.6,0.2l-0.4-0.2c-0.7-0.3-1.3-0.6-1.8-0.9c0.5-0.5,1.3-0.9,2.1-1.4l0.8-0.5l-0.8,0.6c-0.7,0.4-1.6,0.9-2,1.3
			c0.4,0.3,1.1,0.6,1.8,0.8L237.8,125.8L237.8,125.8L237.8,125.8z"/>
		<path fill="#2C6A34" d="M235.4,125c0,0,3.9-1,3.9-1l-4.1,0.5l-0.6,0.4L235.4,125z"/>
		<path d="M235.4,125l-0.8-0.1l0.6-0.5l4.1-0.5C239.3,124,235.5,125,235.4,125L235.4,125L235.4,125z M239.3,123.9l-4.1,0.6l-0.6,0.4
			l0.7,0.1C235.5,124.9,236.2,124.7,239.3,123.9L239.3,123.9z"/>
		<path fill="#2C6A34" d="M238,126c-1.4-0.1-3.5-0.4-4.8-0.4c1-0.9,2.4-2.4,3.3-3.4c-0.6,0.9-1.5,2-1.9,2.9
			C235.4,125.5,236.9,125.7,238,126L238,126z"/>
		<path d="M237.9,126.1l-1.2-0.1c-1.2-0.1-2.6-0.3-3.7-0.3c1-1,2.4-2.4,3.3-3.4l0,0c-0.9,1-2.2,2.4-3.2,3.4c1,0,2.4,0.1,3.6,0.2
			l0.7,0.1l-0.7-0.2c-0.8-0.2-1.6-0.4-2.3-0.6c0.3-0.6,0.8-1.3,1.3-2l0.6-0.8l-0.5,0.8c-0.5,0.7-1,1.4-1.3,2
			c0.6,0.2,1.4,0.4,2.2,0.6L237.9,126.1L237.9,126.1L237.9,126.1z"/>
		<polygon fill="#2C6A34" points="233.9,125.3 238,124.9 234,124.7 233.3,125 		"/>
		<path d="M233.9,125.3l-0.6-0.3l0.7-0.4l4,0.1C238,124.9,234,125.3,233.9,125.3L233.9,125.3L233.9,125.3z"/>
		<path fill="#2C6A34" d="M237,126.2c-1.3-0.2-3.2-0.6-4.4-0.8c1.2-0.6,3-1.6,4-2.2c-0.8,0.6-2,1.4-2.6,2
			C234.7,125.5,236,125.9,237,126.2L237,126.2z"/>
		<path d="M236.9,126.2l-1.1-0.2c-1.1-0.2-2.3-0.5-3.3-0.6c1.2-0.6,2.9-1.6,4-2.3h0c-1.1,0.7-2.7,1.7-3.9,2.3c1,0.1,2.2,0.3,3.3,0.5
			l0.6,0.1l-0.4-0.1c-0.7-0.2-1.5-0.5-2-0.7c0.4-0.5,1.1-1,1.8-1.4l0.7-0.5l-0.7,0.5c-0.7,0.5-1.4,1-1.8,1.4c0.5,0.2,1.3,0.5,2,0.7
			L236.9,126.2L236.9,126.2L236.9,126.2z"/>
		<path fill="#2C6A34" d="M233.6,125.3c0,0,3.6-1.5,3.6-1.5l-3.9,1l-0.4,0.5L233.6,125.3z"/>
		<path d="M233.6,125.3l-0.8,0l0.4-0.5l4-1C237.1,123.8,233.7,125.2,233.6,125.3L233.6,125.3L233.6,125.3z M237.1,123.7l-3.9,1.1
			l-0.4,0.5l0.8,0C233.7,125.2,234.2,124.9,237.1,123.7L237.1,123.7z"/>
		<path fill="#2C6A34" d="M236.8,126.6c-1-0.4-2.6-1.2-3.7-1.4c0.8-0.8,1.9-2,2.6-2.9c-0.5,0.8-1.2,1.8-1.6,2.6
			C234.9,125.6,236,126.1,236.8,126.6L236.8,126.6z"/>
		<path d="M236.8,126.7l-0.8-0.3c-1-0.4-2.1-0.9-2.9-1.1c0.7-0.8,1.8-2,2.5-2.8l0,0c-0.7,0.9-1.7,2.1-2.5,2.8
			c0.8,0.2,1.9,0.7,2.9,1.1l0.3,0.1l-0.5-0.3c-0.6-0.4-1.3-0.7-1.7-1.1c0.2-0.6,0.7-1.3,1.1-1.9l0.3-0.6l-0.3,0.6
			c-0.4,0.7-0.8,1.3-1.1,1.9c0.5,0.3,1.1,0.7,1.7,1.1L236.8,126.7L236.8,126.7L236.8,126.7z"/>
		<path fill="#2C6A34" d="M233.8,125.5c0,0,2.8-1.2,2.8-1.2l-3.1,0.4l-0.4,0.5L233.8,125.5z"/>
		<path d="M233.8,125.6l-0.6-0.2l0.4-0.6l3.1-0.4C235.5,124.8,233.8,125.5,233.8,125.6L233.8,125.6L233.8,125.6z M236.5,124.3
			l-3,0.5l-0.3,0.5l0.6,0.2C233.9,125.4,234.3,125.2,236.5,124.3L236.5,124.3z"/>
		<polygon fill="#2C6A34" points="231.4,151.7 225.6,151.7 231.5,153.2 232.5,152.5 		"/>
		<path d="M231.5,153.2l-5.9-1.4c1.6-0.1,5.6-0.1,5.8-0.1l1.1,0.9L231.5,153.2L231.5,153.2z M231.4,151.7c0,0-0.6,0.1-5.8,0.1
			l5.9,1.3l0.9-0.6L231.4,151.7L231.4,151.7z"/>
		<path fill="#2C6A34" d="M232.5,152.1c0,0.1-5.9-1.4-5.9-1.4l5.7,2.8l1.1-0.4L232.5,152.1z"/>
		<path d="M232.2,153.5L232.2,153.5l-5.7-2.8c2,0.4,5.7,1.3,5.9,1.3l0.9,1.1L232.2,153.5L232.2,153.5z M226.6,150.7l5.7,2.7l1.1-0.3
			l-0.9-1l0,0C232.2,152.1,226.8,150.8,226.6,150.7L226.6,150.7z"/>
		<polygon fill="#2C6A34" points="233.4,152.5 227.6,152.2 233.4,153.9 234.4,153.4 		"/>
		<path d="M233.4,153.9l-5.9-1.7c0,0,5.2,0.2,5.8,0.2l1.1,0.9L233.4,153.9L233.4,153.9z M227.6,152.2l5.9,1.7l1-0.5l-1-0.9
			C232.5,152.4,227.6,152.2,227.6,152.2L227.6,152.2z"/>
		<path fill="#2C6A34" d="M229.7,148.3c1.5,1.7,3.8,4.3,5.4,5.8c-2,0.3-4.9,1.1-6.8,1.6c1.5-0.7,3.5-1.4,4.7-2.3
			C232.3,151.9,230.7,149.9,229.7,148.3L229.7,148.3z"/>
		<path d="M228.4,155.8L228.4,155.8L228.4,155.8L228.4,155.8L228.4,155.8L228.4,155.8l1.3-0.7c1.2-0.5,2.5-1.1,3.3-1.7
			c-0.5-1-1.3-2.2-2.2-3.3c-0.4-0.6-0.8-1.2-1.1-1.7l1.2,1.3c1.3,1.6,3,3.4,4.2,4.5c-1.9,0.4-4.7,1.1-6.5,1.6h-0.1L228.4,155.8
			L228.4,155.8z M229.7,148.3c0.4,0.5,0.8,1.1,1.2,1.7c0.8,1.2,1.6,2.4,2.1,3.4c-0.8,0.7-2.1,1.2-3.4,1.8l-1,0.4
			c1.8-0.5,4.5-1.2,6.4-1.4c-1.3-1.1-2.9-2.9-4.2-4.4L229.7,148.3L229.7,148.3z"/>
		<path fill="#2C6A34" d="M234.2,152.7c0,0.1-5.9-1.9-5.9-1.9l5.5,3.3l1.2-0.2L234.2,152.7z"/>
		<path d="M233.9,154.2L233.9,154.2l-5.5-3.3c2,0.6,5.7,1.8,5.9,1.9l0.8,1.1L233.9,154.2L233.9,154.2z M228.4,150.9l5.5,3.2l1.2-0.2
			l-0.8-1.1l0,0C234.1,152.8,229,151.1,228.4,150.9L228.4,150.9z"/>
		<path fill="#2C6A34" d="M230.3,148.7c1.6,1.5,4.1,4,5.9,5.2c-1.9,0.6-4.7,1.7-6.4,2.4c1.3-0.9,3.3-1.9,4.3-2.9
			C233.1,152,231.4,150.2,230.3,148.7L230.3,148.7z"/>
		<path d="M229.7,156.4L229.7,156.4L229.7,156.4L229.7,156.4l1.2-0.8c1.2-0.7,2.3-1.4,3.1-2.2c-0.6-0.9-1.6-2-2.5-3.1
			c-0.5-0.6-0.9-1.1-1.3-1.6l1.5,1.3c1.5,1.4,3.2,3,4.5,3.9c-1.9,0.6-4.6,1.7-6.3,2.4h-0.1L229.7,156.4L229.7,156.4z M230.2,148.7
			c0.4,0.4,0.9,1,1.4,1.5c0.9,1.1,1.8,2.2,2.5,3.1c-0.8,0.8-2,1.5-3.1,2.2l-0.9,0.5c1.7-0.7,4.3-1.8,6-2.3c-1.3-0.9-3-2.5-4.5-3.9
			L230.2,148.7L230.2,148.7z"/>
		<path fill="#2C6A34" d="M234.7,153.1c0,0.1-5.5,1.1-5.5,1.1l5.8,0.4l0.8-0.8L234.7,153.1z"/>
		<path d="M235,154.6L235,154.6l-5.9-0.4c1.5-0.4,5.4-1.1,5.5-1.2l1.2,0.7L235,154.6L235,154.6z M234.7,153.1c0,0-0.5,0.1-5.5,1.1
			l5.8,0.3l0.8-0.8L234.7,153.1L234.7,153.1z"/>
		<path fill="#2C6A34" d="M233.6,152.8c0,0-5.8,0.5-5.8,0.5l6,1l0.9-0.7L233.6,152.8z"/>
		<path d="M233.7,154.3l-6-1c1.6-0.2,5.6-0.5,5.8-0.5l1.1,0.8L233.7,154.3L233.7,154.3z M233.5,152.8c0,0-0.6,0.1-5.8,0.4l6,1
			l0.9-0.7L233.5,152.8L233.5,152.8z"/>
		<polygon fill="#2C6A34" points="234.6,153.1 228.6,152.1 234.5,154.5 235.6,154 		"/>
		<path d="M234.5,154.5L234.5,154.5l-5.9-2.4c0.1,0,5.7,0.9,6,0.9l1,1L234.5,154.5L234.5,154.5z M228.6,152.1l5.9,2.3l1-0.4l-1-0.9
			l0,0C234.3,153.1,228.9,152.2,228.6,152.1L228.6,152.1z"/>
		<polygon fill="#2C6A34" points="235.6,153.4 229.7,153.5 235.7,154.9 236.7,154.2 		"/>
		<path d="M235.7,154.9l-6-1.4c1.6-0.1,5.7-0.1,5.8-0.2l1.1,0.8L235.7,154.9L235.7,154.9z M235.6,153.4c0,0-0.6,0-5.8,0.1l6,1.3
			l0.9-0.6L235.6,153.4L235.6,153.4z"/>
		<path fill="#2C6A34" d="M231.6,149.6c1.7,1.5,4.1,4,5.8,5.4c-1.9,0.4-4.8,1.4-6.6,2c1.4-0.8,3.4-1.7,4.5-2.6
			C234.4,152.9,232.7,151,231.6,149.6L231.6,149.6z"/>
		<path d="M230.8,157L230.8,157L230.8,157L230.8,157L230.8,157l1.3-0.8c1.2-0.6,2.4-1.3,3.2-1.9c-0.6-1-1.5-2.1-2.4-3.2
			c-0.4-0.5-0.9-1.1-1.3-1.6l1.4,1.3c1.5,1.4,3.2,3.1,4.4,4.1c-1.9,0.5-4.7,1.4-6.5,2h0L230.8,157L230.8,157z M231.6,149.6
			c0.4,0.5,0.9,1,1.3,1.6c0.9,1.1,1.8,2.2,2.4,3.2c-0.8,0.7-2,1.3-3.2,1.9l-1,0.5c1.8-0.6,4.4-1.5,6.2-1.9c-1.3-1-3-2.6-4.4-4.1
			L231.6,149.6L231.6,149.6z"/>
		<polygon fill="#2C6A34" points="236.4,153.6 230.5,152.1 236.2,155 237.3,154.7 		"/>
		<path d="M236.2,155l-5.7-2.9c2,0.4,5.8,1.4,6,1.4l0.9,1.1L236.2,155L236.2,155z M230.5,152.2l5.7,2.8l1.1-0.3l-0.9-1l0,0
			C236.2,153.7,230.7,152.3,230.5,152.2L230.5,152.2z"/>
		<path fill="#2C6A34" d="M232.2,149.9c1.8,1.4,4.4,3.6,6.2,4.8c-1.8,0.7-4.5,2-6.2,2.9c1.3-1,3.1-2.2,4.1-3.2
			C235.3,152.9,233.4,151.2,232.2,149.9L232.2,149.9z"/>
		<path d="M232.2,157.6L232.2,157.6L232.2,157.6L232.2,157.6l1.2-1c1.1-0.8,2.2-1.6,2.9-2.3c-0.7-0.9-1.8-1.9-2.7-2.9
			c-0.5-0.5-1-1-1.4-1.5l1.6,1.2c1.6,1.3,3.4,2.7,4.7,3.6c-1.7,0.7-4.2,2-5.9,2.8L232.2,157.6L232.2,157.6z M232.1,149.9
			c0.5,0.4,0.9,0.9,1.5,1.4c1,1,2,2,2.7,3c-0.7,0.8-1.8,1.6-2.8,2.3l-0.9,0.7c1.7-0.8,4.1-2,5.8-2.7c-1.3-0.8-3.2-2.3-4.7-3.5
			L232.1,149.9L232.1,149.9z"/>
		<path fill="#2C6A34" d="M237,153.9c0,0.1-5.5,1.5-5.5,1.5h5.9l0.8-0.8L237,153.9z"/>
		<path d="M231.5,155.5L231.5,155.5c1.4-0.4,5.3-1.5,5.4-1.5l1.2,0.6l-0.8,0.9H231.5L231.5,155.5z M237,154c0,0.1-0.6,0.2-5.2,1.4
			h5.6l0.7-0.8L237,154L237,154z"/>
		<polygon fill="#F4CC29" points="246.2,146.5 240,142.2 233.8,146.5 236.1,139.6 230.6,135.3 237.7,135.3 240,128.4 242.3,135.3
			249.3,135.3 243.9,139.6 		"/>
		<path d="M246.3,146.6l-6.3-4.4l-6.2,4.3l2.3-6.9l-5.4-4.3l7-0.1l2.3-6.8l2.4,6.9l7,0l-5.4,4.4L246.3,146.6L246.3,146.6z
			 M239.9,128.4l-2.3,6.9l-7,0l5.5,4.2l-2.3,6.9l6.2-4.3l6.2,4.2l-2.3-6.8l5.5-4.3l-7,0.1L239.9,128.4L239.9,128.4z"/>
		<path fill="#F8E623" d="M263.2,145.4l2,0.7l3.4-0.6l-0.3,0.7l-1.7,0.3c-0.3,0.1-0.6,0.1-1,0.1c0.2,0.2,0.4,0.5,0.7,0.8l1.1,1.3
			l-0.3,0.7l-2.1-2.7l-2-0.8L263.2,145.4z"/>
		<path fill="#F8E623" d="M268.9,137.8l0.1,0.6l-2.9,0.3c-0.5,0.1-0.9,0-1.2,0c-0.3-0.1-0.6-0.3-0.8-0.5c-0.2-0.2-0.4-0.6-0.4-1
			c0-0.4,0-0.8,0.1-1.1c0.1-0.3,0.4-0.5,0.6-0.6c0.3-0.1,0.7-0.2,1.3-0.3l2.9-0.3l0.1,0.6l-2.9,0.3c-0.4,0.1-0.7,0.1-1,0.2
			c-0.2,0.1-0.3,0.2-0.4,0.4c-0.1,0.2-0.1,0.4-0.1,0.7c0.1,0.4,0.2,0.7,0.4,0.9c0.2,0.1,0.7,0.2,1.3,0.1L268.9,137.8z"/>
		<path fill="#F8E623" d="M264.8,131.9l0.6-0.1l0.4,1.8l-1.8,0.4c-0.3-0.2-0.6-0.5-0.8-0.8c-0.2-0.3-0.3-0.5-0.4-0.9
			c-0.1-0.4-0.1-0.8,0.1-1.2c0.2-0.4,0.4-0.7,0.7-1c0.4-0.3,0.8-0.4,1.3-0.6c0.5-0.1,0.9-0.1,1.4,0c0.4,0.1,0.8,0.3,1.1,0.6
			c0.2,0.3,0.5,0.7,0.5,1.1c0,0.3,0,0.6,0,0.9c-0.1,0.2-0.2,0.5-0.4,0.7c-0.2,0.2-0.4,0.4-0.7,0.5l-0.2-0.5c0.2-0.1,0.4-0.2,0.6-0.4
			c0.1-0.1,0.2-0.3,0.3-0.5c0-0.2,0.1-0.4,0-0.6c-0.1-0.3-0.1-0.5-0.3-0.7c-0.1-0.2-0.3-0.3-0.5-0.4c-0.1-0.1-0.3-0.1-0.5-0.2
			c-0.3-0.1-0.7,0-1,0c-0.4,0.1-0.8,0.2-1.1,0.4c-0.3,0.2-0.4,0.4-0.5,0.7c-0.1,0.3-0.1,0.6-0.1,0.8c0.1,0.3,0.1,0.5,0.3,0.7
			c0.2,0.2,0.3,0.4,0.5,0.5l0.9-0.2L264.8,131.9z"/>
		<polygon fill="#F8E623" points="243.6,115.9 244.5,110.9 245.1,111 244.3,115.4 246.5,115.8 246.4,116.4 		"/>
		<polygon fill="#F8E623" points="238.7,115.5 238.7,110.5 241.9,110.5 241.9,111.1 239.3,111.1 239.3,112.6 241.8,112.6
			241.8,113.2 239.3,113.2 239.3,115 242,115 242,115.5 		"/>
		<path fill="#F8E623" d="M224.7,118.7l0.6-0.2c0.3,0.5,0.4,1,0.3,1.4c-0.1,0.4-0.3,0.8-0.6,1.1c-0.4,0.3-0.7,0.5-1.1,0.5
			c-0.4,0.1-0.8,0-1.1-0.3c-0.4-0.2-0.8-0.5-1.1-0.8c-0.4-0.4-0.6-0.8-0.7-1.2c-0.1-0.4-0.1-0.8,0-1.2c0.1-0.3,0.3-0.7,0.6-1
			c0.4-0.3,0.7-0.4,1.1-0.4c0.4,0,0.8,0.1,1.2,0.4l-0.3,0.5c-0.3-0.2-0.6-0.3-0.9-0.3c-0.3,0-0.5,0.1-0.7,0.3
			c-0.3,0.2-0.4,0.5-0.4,0.8c-0.1,0.3,0,0.6,0.1,0.9c0.2,0.3,0.3,0.6,0.5,0.8c0.3,0.3,0.6,0.6,0.9,0.8c0.3,0.2,0.6,0.2,0.9,0.2
			c0.3,0,0.5-0.1,0.7-0.3c0.3-0.2,0.4-0.5,0.4-0.8C225,119.4,224.9,119.1,224.7,118.7L224.7,118.7z"/>
		<polygon fill="#F8E623" points="222.6,123.2 218.8,119.8 219.2,119.4 223,122.7 		"/>
		<polygon fill="#F8E623" points="220.2,126 216.1,123 216.5,122.5 220,125.2 221.4,123.5 221.8,123.8 		"/>
		<path fill="#F8E623" d="M212.6,129l0.2-0.5l2.7,1.1c0.5,0.2,0.9,0.4,1.1,0.6c0.3,0.2,0.4,0.5,0.5,0.8c0.1,0.3,0,0.6-0.1,1.1
			c-0.1,0.4-0.4,0.7-0.6,0.9c-0.3,0.2-0.5,0.3-0.9,0.3c-0.4,0-0.8-0.1-1.3-0.3l-2.7-1.1l0.2-0.6l2.7,1.1c0.4,0.1,0.7,0.2,0.9,0.2
			c0.2,0,0.4,0,0.6-0.1c0.2-0.1,0.3-0.3,0.4-0.6c0.2-0.4,0.2-0.7,0-1c-0.1-0.3-0.5-0.5-1.1-0.7L212.6,129z"/>
		<polygon fill="#F8E623" points="215.6,141.2 210.5,141.3 210.5,138.1 211.1,138.1 211.1,140.7 212.6,140.7 212.6,138.2
			213.2,138.2 213.3,140.7 215,140.7 215,137.9 215.5,137.9 		"/>
		<path fill="#F8E623" d="M234.4,116.3l-1-5l1.5-0.3c0.3-0.1,0.6-0.1,0.8-0.1c0.2,0,0.5,0.1,0.7,0.2c0.3,0.2,0.5,0.4,0.7,0.7
			c0.2,0.3,0.3,0.7,0.4,1.1c0.1,0.4,0.1,0.7,0.1,1c0,0.3-0.1,0.6-0.2,0.8c-0.1,0.2-0.2,0.4-0.3,0.5c-0.1,0.1-0.3,0.3-0.4,0.4
			c-0.2,0.1-0.5,0.1-0.7,0.2L234.4,116.3z"/>
		<path fill="#F8E623" d="M234.9,115.6l0.9-0.2c0.3-0.1,0.5-0.1,0.7-0.2c0.2-0.1,0.3-0.2,0.3-0.4c0.1-0.2,0.2-0.4,0.2-0.7
			c0-0.3,0-0.6-0.1-1c-0.1-0.5-0.3-0.9-0.5-1.1c-0.2-0.2-0.4-0.4-0.7-0.4c-0.2-0.1-0.4,0-0.8,0l-0.9,0.2L234.9,115.6z"/>
		<path fill="#F8E623" d="M250.8,118.3l2.3-4.5l1.5,0.8c0.3,0.1,0.5,0.2,0.6,0.4c0.2,0.1,0.3,0.3,0.4,0.5c0.1,0.1,0.1,0.4,0.1,0.6
			c0,0.2-0.1,0.5-0.2,0.7c-0.2,0.4-0.5,0.6-0.8,0.8c-0.3,0.2-0.8,0.1-1.4-0.2l-1-0.5l-0.9,1.8L250.8,118.3z"/>
		<path fill="#F8E623" d="M252.6,116.2l1,0.5c0.3,0.2,0.6,0.2,0.8,0.1c0.2-0.1,0.4-0.2,0.5-0.5c0.1-0.2,0.1-0.4,0.1-0.5
			c0-0.2-0.1-0.3-0.2-0.4c-0.1-0.1-0.2-0.2-0.5-0.3l-1-0.5L252.6,116.2z"/>
		<polygon fill="#F8E623" points="253.4,119.6 258,117 258.5,117.4 256.5,122.4 256,122 256.6,120.5 255.2,119.2 253.8,120 		"/>
		<path fill="#F8E623" d="M255.7,118.9l1.1,1l0.6-1.3c0.2-0.4,0.3-0.7,0.5-1c-0.2,0.2-0.5,0.4-0.8,0.6L255.7,118.9z"/>
		<path fill="#F8E623" d="M257,123l4-3.1l1.2,1.6c0.3,0.3,0.4,0.6,0.5,0.8c0.1,0.2,0,0.4-0.1,0.7c-0.1,0.2-0.2,0.4-0.5,0.6
			c-0.3,0.2-0.6,0.3-0.9,0.3c-0.3,0-0.6-0.2-0.9-0.5c0,0.2,0,0.3,0,0.3c-0.1,0.4-0.1,0.6-0.3,0.9l-0.6,1.4l-0.5-0.6l0.5-1.2
			c0.1-0.3,0.2-0.6,0.3-0.8c0.1-0.2,0.1-0.3,0.1-0.4c0-0.1,0-0.2-0.1-0.3c0,0-0.1-0.2-0.2-0.3l-0.4-0.5l-1.8,1.3L257,123z"/>
		<path fill="#F8E623" d="M259.6,121.8l0.8,1c0.2,0.2,0.3,0.4,0.5,0.5c0.1,0.1,0.3,0.1,0.5,0.1c0.2,0,0.3-0.1,0.4-0.2
			c0.2-0.2,0.3-0.4,0.3-0.6c0-0.2-0.1-0.4-0.2-0.7l-0.9-1.1L259.6,121.8z"/>
		<polygon fill="#F8E623" points="259.7,126.5 265,125.5 265.2,126.1 261.7,130.1 261.4,129.6 262.5,128.3 261.6,126.7 260,127
			"/>
		<path fill="#F8E623" d="M262.1,126.6l0.7,1.4l1-1.1c0.3-0.3,0.5-0.6,0.7-0.8c-0.3,0.1-0.6,0.2-0.9,0.3L262.1,126.6z"/>
		<polygon fill="#F8E623" points="264.1,139.6 269,141.8 268.9,142.4 263.7,143.7 263.8,143 265.4,142.7 265.5,140.8 264.1,140.2
			"/>
		<path fill="#F8E623" d="M266.1,141.1l-0.1,1.5l1.4-0.3c0.4-0.1,0.8-0.2,1.1-0.2c-0.3-0.1-0.6-0.2-0.9-0.4L266.1,141.1z"/>
		<path fill="#F8E623" d="M216.4,145.9l-4.9,1.1l-0.5-1.9c-0.1-0.4-0.1-0.7,0-0.9c0-0.2,0.2-0.4,0.4-0.6c0.2-0.2,0.4-0.3,0.7-0.4
			c0.3-0.1,0.6,0,1,0.1c0.3,0.1,0.5,0.4,0.6,0.8c0-0.2,0.1-0.3,0.2-0.4c0.2-0.2,0.3-0.4,0.6-0.6l1.2-1.1l0.1,0.7l-0.9,0.8
			c-0.2,0.2-0.5,0.4-0.6,0.6c-0.1,0.1-0.2,0.3-0.3,0.4c0,0.1,0,0.2,0,0.2c0,0.2,0,0.3,0,0.4l0.2,0.7l2.2-0.5L216.4,145.9z"/>
		<path fill="#F8E623" d="M213.5,145.9l-0.3-1.2c-0.1-0.3-0.1-0.5-0.2-0.6c-0.1-0.1-0.2-0.2-0.4-0.3c-0.2,0-0.3,0-0.5,0
			c-0.2,0-0.4,0.2-0.5,0.3c-0.1,0.2-0.1,0.4-0.1,0.8l0.3,1.4L213.5,145.9z"/>
		<path fill="#F8E623" d="M215.8,136.8l-5-0.4l0.1-1.7c0.1-0.3,0.1-0.5,0.1-0.6c0-0.2,0.1-0.4,0.3-0.5c0.1-0.1,0.3-0.3,0.5-0.3
			c0.2-0.1,0.5-0.1,0.7-0.1c0.4,0.1,0.8,0.2,1,0.5c0.3,0.3,0.4,0.7,0.3,1.4l-0.1,1.1l2,0.2L215.8,136.8z"/>
		<path fill="#F8E623" d="M213.2,136l0.1-1.2c0-0.4,0-0.7-0.2-0.8c-0.2-0.2-0.4-0.2-0.7-0.3c-0.2,0-0.4,0-0.5,0.1
			c-0.2,0.1-0.3,0.2-0.3,0.4c0,0.1-0.1,0.3-0.1,0.5l-0.1,1.2L213.2,136z"/>
		<path fill="#F8E623" d="M217.9,129.3l-4.2-2.8l0.9-1.4c0.2-0.3,0.4-0.5,0.6-0.6c0.2-0.1,0.4-0.2,0.7-0.2c0.2,0.1,0.5,0.1,0.6,0.2
			c0.2,0.1,0.3,0.3,0.4,0.5s0.1,0.4,0.1,0.7c0.2-0.2,0.5-0.3,0.7-0.3c0.2,0,0.5,0.1,0.8,0.3c0.2,0.1,0.3,0.3,0.5,0.5
			c0.1,0.2,0.2,0.3,0.2,0.5c0,0.2,0,0.4-0.1,0.6c0,0.2-0.2,0.4-0.3,0.6L217.9,129.3z"/>
		<path fill="#F8E623" d="M215.8,127.2l0.5-0.8c0.1-0.2,0.3-0.4,0.3-0.5c0-0.2,0-0.3,0-0.4c-0.1-0.1-0.2-0.2-0.3-0.3
			c-0.1-0.1-0.3-0.1-0.4-0.2c-0.1,0-0.3,0-0.4,0.1c-0.1,0.1-0.3,0.3-0.4,0.5l-0.5,0.7L215.8,127.2z"/>
		<path fill="#F8E623" d="M217.7,128.5l0.6-0.9c0.1-0.2,0.1-0.3,0.2-0.4c0-0.1,0.1-0.2,0.1-0.2c0-0.2,0-0.4-0.1-0.5
			c0-0.1-0.1-0.2-0.3-0.3c-0.2-0.1-0.3-0.2-0.5-0.2c-0.2,0-0.3,0.1-0.5,0.2c-0.1,0.1-0.3,0.2-0.4,0.5l-0.6,0.8L217.7,128.5z"/>
		<polygon fill="#F8E623" points="226.2,119.6 225,114.4 225.5,114.1 229.7,117.4 229.2,117.8 227.9,116.7 226.3,117.7 226.7,119.3
					"/>
		<path fill="#F8E623" d="M226.2,117.2l1.2-0.8l-1.1-0.9c-0.4-0.3-0.6-0.5-0.8-0.7c0.1,0.3,0.2,0.6,0.3,0.9L226.2,117.2z"/>
	</g>
</g>
</svg>
