<?xml version="1.0" encoding="utf-8"?>
<!-- Generator: Adobe Illustrator 28.2.0, SVG Export Plug-In . SVG Version: 6.00 Build 0)  -->
<svg version="1.1" id="Ebene_1" xmlns="http://www.w3.org/2000/svg" xmlns:xlink="http://www.w3.org/1999/xlink" x="0px" y="0px"
	 viewBox="0 0 500 500" enable-background="new 0 0 500 500" xml:space="preserve">
<circle fill="#418FDE" cx="249.5" cy="250" r="250"/>
<path fill="#FFD100" d="M482.3,337.2c2.7-7.2,5.1-14.5,7.1-22H9.6c2,7.5,4.4,14.8,7.1,22H482.3z"/>
<path fill="#FFD100" d="M38.4,381.2h422.1c4.4-7.1,8.5-14.5,12.2-22H26.2C29.9,366.7,34,374.1,38.4,381.2z"/>
<path fill="#FFFFFF" d="M153.6,72.9L138,123.4L87.6,139l50.5,15.6l15.6,50.5l15.6-50.5l50.5-15.6l-50.5-15.6L153.6,72.9z"/>
<path fill="#EF3340" d="M153.6,87.9l12,39l39,12l-39,12l-12,39l-12-39l-39-12l39-12L153.6,87.9z"/>
</svg>
