<?xml version="1.0" encoding="utf-8"?>
<!-- Generator: Adobe Illustrator 28.2.0, SVG Export Plug-In . SVG Version: 6.00 Build 0)  -->
<svg version="1.1" id="ago" xmlns="http://www.w3.org/2000/svg" xmlns:xlink="http://www.w3.org/1999/xlink" x="0px" y="0px"
	 viewBox="0 0 500 500" enable-background="new 0 0 500 500" xml:space="preserve">
<path d="M250,500c138.1,0,250-111.9,250-250c0-0.7,0-1.4,0-2H0c0,0.7,0,1.4,0,2C0,388.1,111.9,500,250,500z"/>
<path fill="#CC092F" d="M250,0C112.5,0,1,111,0,248.2h500C499,111,387.5,0,250,0z"/>
<g id="crest">
	<path fill-rule="evenodd" clip-rule="evenodd" fill="#FFCB00" d="M202.4,176.6h27.9l8.5-26.3l8.7,26.3h27.9L253,193.3l8.7,26.8
		l-22.9-16.2l-22.7,16.2l8.7-26.8L202.4,176.6z"/>
	<path fill-rule="evenodd" clip-rule="evenodd" fill="#FFCB00" d="M304.5,320.6l-22-17.2c22.2-18.1,36.6-45.8,36.6-76.7
		c0-47.1-33.6-86.7-78-96.1l3.4-16c6.2,1.4,13.4,4,19.4,6l5.7-9.6c6.2,3,13,5.9,18.8,9.6l-4.3,10.3c5.7,3.7,12.6,9.3,16.5,13.8
		l8.6-6.7c4.6,5,10.1,10.3,14,15.8l-7.8,8c5,7.4,7,10.8,10.7,19.3l10.9-2.6c2.1,6.4,5.2,14.3,6.3,20.9l-10.3,4.1
		c1.2,5.2,2.8,14.2,2.7,21.7c0,0.5,0,1,0,1.4l10.8,1.5c-0.5,6.6-0.7,14.2-2.1,20.8h-11.2c-1.6,6.9-3.7,15.3-6.2,21.7l9.4,5.5
		c-3,5.9-5.9,13-9.8,18.8l-10.3-4.3c-3.9,5.7-8.2,11.2-13,16.2l6.6,8.7C307.9,317.1,306.3,318.7,304.5,320.6 M256.2,318.5l16.6,10
		c-1.5,1.4-6.2,3.8-7.4,4.3l2.7,10.4c-6.4,2.1-13.3,5-20.4,6.4l-4.1-10.3c-6.6,1.4-13.3,2.3-20.1,2.3l-1.4,10.8
		c-6.4-0.5-14.2,0-21.3-1.6V340c-6.4-1.1-12.6-2.7-18.5-4.8l-5.3,9.4c-5.5-2.3-12.8-5-18.8-8.7l3.9-10.3c-4.8-2.5-9.2-5.7-13.3-8.9
		l10.3-13c16.9,13.5,38.2,21.5,61.6,21.5C233.1,325.1,245.2,323.1,256.2,318.5"/>
	<path fill-rule="evenodd" clip-rule="evenodd" fill="#FFCB00" d="M325.3,345l-109.5-83.4l-1,1.4l109.2,83.5l-6.5,8.1l-106.5-68.3
		c-28.8-18.1-27.7-32.3-21.7-47.6l5-12.4c2.7,16,19.2,28.2,36.4,41.7l96.7,74.3L325.3,345z M352.8,369.9c-0.9,0-1.7-0.8-1.7-1.7
		c0,0,0,0,0,0c0-0.9,0.8-1.7,1.7-1.7c0,0,0,0,0,0c0.9,0,1.7,0.8,1.7,1.7C354.5,369.1,353.8,369.9,352.8,369.9
		C352.8,369.9,352.8,369.9,352.8,369.9 M346.3,365.1c-0.9,0-1.7-0.8-1.7-1.7c0-0.9,0.8-1.7,1.7-1.7s1.7,0.8,1.7,1.7
		C348,364.3,347.2,365.1,346.3,365.1L346.3,365.1 M339.6,359.7c-0.9,0-1.7-0.8-1.7-1.7c0-0.9,0.8-1.7,1.8-1.7c0.9,0,1.6,0.8,1.7,1.7
		C341.3,359,340.5,359.7,339.6,359.7 M362.1,369.2l-32.8-25.4l-9.5,12.3l28.5,20c2.3,1.6,2.5,8.9,11,10.1c3.4,0.5,5.7-2.1,5.7-2.1
		C368.7,379.5,367.7,373.4,362.1,369.2"/>
</g>
</svg>
