<?xml version="1.0" encoding="utf-8"?>
<!-- Generator: Adobe Illustrator 28.2.0, SVG Export Plug-In . SVG Version: 6.00 Build 0)  -->
<svg version="1.1" id="aia" xmlns="http://www.w3.org/2000/svg" xmlns:xlink="http://www.w3.org/1999/xlink" x="0px" y="0px"
	 viewBox="0 0 500 500" enable-background="new 0 0 500 500" xml:space="preserve">
<circle fill="#012169" cx="250" cy="250" r="247"/>
<path fill="#FFFFFF" d="M269.7,126.1L110.2,46.3c-7.2,4.9-14.1,10.3-20.7,15.9l169.6,84.8L269.7,126.1z"/>
<path fill="#FFFFFF" d="M248.6,13.9L36,126.5c-7.5,12.9-13.8,26.6-18.9,40.9L260.7,38.4L248.6,13.9z"/>
<path fill="#FFFFFF" d="M248.6,13.9L36,126.5c-7.5,12.9-13.8,26.6-18.9,40.9L260.7,38.4L248.6,13.9z"/>
<path fill="#C8102E" d="M267.7,129.9L106.2,49.2c-4.5,3.2-8.8,6.6-13.1,10l168,84L267.7,129.9z"/>
<path fill="#C8102E" d="M250.8,18.4L31.6,134.6c-4.4,8.3-8.4,16.9-11.8,25.8L258.5,33.9L250.8,18.4z"/>
<rect x="131.8" y="12.4" fill="#FFFFFF" width="40.7" height="134.7"/>
<path fill="#FFFFFF" d="M274,63H88.6c-12.5,10.8-23.9,22.8-34,35.9H274V63z"/>
<path fill="#FFFFFF" d="M173,147V15.3c-14.3,4.7-28,10.6-41,17.7v114H173z"/>
<path fill="#C8102E" d="M163.7,147.1V18.5c-7.9,2.9-15.6,6.3-23.1,10v118.6H163.7z"/>
<path fill="#C8102E" d="M274,70.2H80.7c-7.2,6.8-14,14-20.3,21.5H274V70.2z"/>
<g id="crest">
	<path fill="#FFFFFF" d="M308.5,263.1c0,67.9,9,91.2,27.2,107c10.8,9.3,15.6,12.8,32.4,22.4c16.8-9.6,21.6-13.1,32.4-22.4
		c18.1-15.8,27.2-39.1,27.2-107c-13.2,4.9-20.7,7.3-31.6,7.1c-9.7-0.1-20-4.1-28-7.1c-8,3.1-18.3,7-28,7.1
		C329.2,270.4,321.7,268,308.5,263.1L308.5,263.1z"/>
	<path fill="#FF9900" d="M369.9,297.1c2.8,5.5,11.8,11.5,14.2,14.4c-3.1,3-3.8,2.6-3.4,8.1c5.5-4.7,5.6-5.2,9.1-4.5
		c7.7,6.4,1.4,20-5,23c-6.4,3.2-5.2-0.1-14.7,3.9c4.4,3.1,9.4-0.5,13.6,0.5c2.2,2.2-1.1,6.2,0.7,10c3.7-0.3,3.2-6.4,4.1-8.6
		c2.7-8.1,18.7-13.8,19.5-21.2c3.4-1.3,6.8-0.4,10.9,1.5c-2-7-8.8-6.9-10.6-9.1c-4.3-5.5-8.2-11.7-17.4-13.4c-7-1.2-6.5,0.4-11-2.2
		C377,297.7,368.5,294.3,369.9,297.1L369.9,297.1z"/>
	<ellipse fill="#FFFFFF" cx="388.6" cy="303.3" rx="1.5" ry="1.2"/>
	<path fill="#FF9900" d="M347.5,320.2c4.5-4.6,6.7-14,8.7-17.2c4.6,0.9,4.6,1.5,10.2-1.3c-7.6-1.8-8.2-1.6-9-4.5
		c3.2-8.6,20.7-10.4,26.8-7.1c6.3,3.2,2.3,3.9,11,9c1.3-4.6-4.9-6.7-5.8-10.2c1.3-2.7,7.2-2.1,10.4-5.2c-2-2.5-8.3,0.6-11.1,1
		c-9.9,1.8-23.4-7.3-31.8-4.4c-3-1.9-3.6-4.8-3.5-8.7c-6.5,4.8-3.2,9.7-4.7,12c-3.8,5.7-8.7,11.5-6.1,19c2,5.7,3.4,4.6,2.8,9.1
		C344.8,314.7,345.2,322.5,347.5,320.2L347.5,320.2z"/>
	<ellipse fill="#FFFFFF" cx="345.4" cy="303.6" rx="1.5" ry="1.2"/>
	<path fill="#FF9900" d="M384.1,323.5c-7.1-0.8-17.9,2.4-22.3,2.7c-1.4-3.8-0.8-4-6.7-6.6c2.1,6.3,2.5,6.6,0,8.8
		c-10.5,2.2-21.4-9.3-21.2-15.4c0-6.1,2.8-3.6,3.6-12.5c-5.4,1.5-4.4,6.9-7.5,9.4c-3.4,0.5-5.9-4-10.7-4.7c-1.6,2.7,5,5.6,6.8,7.3
		c7,6.1,4.6,20.4,11.9,24.8c-0.4,3.1-3.1,5-7.2,7c8.3,2.1,11.7-2.7,14.9-2.9c7.9-0.3,16.3,0.2,22.8-5.5c4.9-4.3,3-4.8,7.9-6.7
		C379.8,328.2,387.7,323.9,384.1,323.5L384.1,323.5z"/>
	<ellipse fill="#FFFFFF" cx="368.1" cy="333.6" rx="1.5" ry="1.2"/>
	<path fill="#99CCFF" d="M323.4,355.7c3.5,5.7,7.5,10.3,12.2,14.4c10.8,9.3,15.6,12.8,32.4,22.4c16.8-9.6,21.6-13.1,32.4-22.4
		c4.7-4.1,8.8-8.7,12.2-14.4H323.4z"/>
	<path fill="#FDC301" d="M306,260.4c0,70.7,9.4,95.1,28.3,111.5c11.3,9.7,16.2,13.4,33.7,23.4c17.5-10,22.5-13.6,33.7-23.4
		c18.9-16.4,28.3-40.8,28.3-111.5c-13.7,5.1-21.5,7.6-32.9,7.4c-10.1-0.1-20.9-4.2-29.2-7.4c-8.3,3.2-19,7.3-29.2,7.4
		C327.5,268,319.7,265.5,306,260.4z M368,264.5c8.1,3.1,18.4,7,29.1,7.1c10,0.1,18.2-2.2,28.4-5.7c-0.3,31.7-2.4,54.2-6.7,69.7
		c-4.6,16.5-11.1,25.8-20.1,33.6c-10.5,9-15.8,12.9-30.7,21.4c-14.8-8.6-20.2-12.4-30.6-21.4l0,0c0,0,0,0,0,0
		c-8.9-7.8-15.5-17.1-20.1-33.6c-4.3-15.5-6.5-38-6.7-69.7c10.2,3.5,18.4,5.8,28.4,5.7C349.6,271.5,359.9,267.6,368,264.5z"/>
</g>
</svg>
