<?xml version="1.0" encoding="utf-8"?>
<!-- Generator: Adobe Illustrator 28.2.0, SVG Export Plug-In . SVG Version: 6.00 Build 0)  -->
<svg version="1.1" id="alb" xmlns="http://www.w3.org/2000/svg" xmlns:xlink="http://www.w3.org/1999/xlink" x="0px" y="0px"
	 viewBox="0 0 500 500" enable-background="new 0 0 500 500" xml:space="preserve">
<circle fill="#BC1F34" cx="250" cy="250" r="250"/>
<path id="crest" d="M388,317.6c-1-0.8-2.9-1.3-4.5-1.4c-1.5,0-3.8-0.6-5.1-1.2c-2.8-1.3-5.9-0.9-8.5,1.4c-1.7,1.4-2.9,1.6-9.4,2.2
	c-9.3,0.7-12.3,0.7-12.3,0.1c0-0.3,2.3-2,5.3-3.9c4-2.6,5.6-3.3,6.9-3c2.8,0.5,6.2-0.8,8.9-3.5c2.5-2.6,3.1-2.7,8.8-2.5
	c1.4,0.1,0.5,0.1,2.3-0.2c-0.9-2.3-4.2-6.8-9.9-5.3c-2.5,0.6-3.9,0.7-5.2,0.3c-3.6-1.3-8.5,1.3-10.1,5.3c-0.7,2-4.4,5-10.9,9l-4.8,3
	l-9.2-3.6c-10.2-3.9-18.9-7.9-18.9-8.5c0-0.3,1.2-1.9,2.8-3.8c1.6-1.6,2.8-3.3,2.8-3.5s-1.7-1.3-4-2.4
	c-14.3-7.2-24.5-17.4-28.8-28.8c-3.1-8-1.5-9.9,2.3-2.7c2.9,5.8,5.2,8.4,9.3,11.1c4.3,2.8,6.8,3.3,8.5,1.8c1.9-1.8,1.4-3.9-1.3-7.1
	c-6.3-7.2-8.2-18.1-2.9-18.1c1.9,0,2.2,0.3,6.1,9.6c5.7,12.9,11.4,21.6,15.9,23.8c3.8,2.1,10,0.5,11.1-2.8c0.7-2.6-0.2-4.3-4.6-7
	c-6.9-4.5-11.4-11.6-13.1-21.1c-0.6-3-0.5-3.8,0.4-5.2c1.6-2.3,2.7-1.5,7.1,5.1c8.3,12.7,23.4,29.2,29.5,32.5
	c10.9,6,21.7,5.8,28.2-0.7c1.7-1.8,2.3-2.9,2.3-4.5c0-3.1-2.3-4.4-7.3-4.2c-11.4,0.5-12.5,0.4-16.9-1.6
	c-8.5-4.1-16.8-13.7-23.2-27.2c-6.2-12.7-4.6-13.2,5.8-2.7c14,14.3,25.2,19.5,35.6,16.5c5-1.4,9.8-6,9.8-9.4c0-3.6-1.8-4.6-7.3-4.3
	c-2.5,0.1-7,0.2-10.2,0.2c-5.3,0.1-6.1-0.1-10-2c-2.4-1.1-6.1-3.8-8.7-6.1c-6.6-6.2-17.8-21.6-17.8-24.5c0-3,2.6-1.8,9.5,4.3
	c5.6,4.9,15.5,11.6,20,13.8c2.6,1.1,4.3,1.4,9.2,1.4c5.2,0,6.5-0.1,9.1-1.6c4.2-2.1,5.7-4.1,6-8.5c0.5-6.3-2.6-7.9-11.6-5.5
	c-12.8,3.1-19.5,0.8-31.3-11.1c-5.7-5.8-7.7-9-7-10.8c0.6-1.8,3.2-0.9,14,4.5c12,6.1,15.4,7.3,21,7.3c5,0,8.2-1,11.2-3.6
	c4.6-4,5.8-8.5,2.8-11.4c-2.3-2.4-6.8-2.2-11.9,0.4c-2.5,1.2-5.2,2.1-7.5,2.3c-8,0.8-19.9-3.7-25.7-9.6c-4-4-5.9-7.7-4.8-9.1
	c1.1-1.3,2.9-1,7.3,0.8c8.6,3.7,12.8,4.7,19.3,4.7c7.3,0,11.7-1.2,18.1-4.7c4.8-2.7,8.1-6.2,8.1-8.4c0-1-0.5-2.7-1.3-3.9
	c-1.8-3-5.2-2.9-11.4,0.6c-12.4,6.7-20.9,7.6-29.6,3.3c-3.7-1.8-9.9-7.8-11.5-11c-0.9-1.9-0.9-2.2-0.1-3.1c1.1-1.1,1.9-1.1,11.5,2.5
	c4.7,1.7,6.8,2.2,12.5,2.4c7.5,0.3,12-0.5,16.8-2.8c6.6-3,13-10.8,13-15.6c0-2.4-1.5-5.4-2.9-6c-2.8-1.1-4.3-0.4-8.6,4.2
	c-6.8,6.8-13.4,9.4-24.1,9.4c-11.3,0-16-1.7-16-6c0-3,2.3-4.7,6.9-5.5c14.1-2.3,30.3-9.6,39-17.7c5.1-4.8,7.1-8.2,7-12.3
	c-0.1-4.6-2.1-7.8-5.7-8.8c-3-0.9-5.5,0.6-8.7,5.7c-5.4,8.6-11,13.3-21.7,18.6c-6.1,3.1-16,6.5-17.8,6.2c-0.7-0.2-1.5-1.3-2-2.8
	c-1.6-4.3-1.8-4.4-8.2-1.7c-3.1,1.4-9.6,3.9-14.5,5.6c-9.7,3.4-12.9,5.5-15.2,10.1c-1.2,2.2-1.4,3.6-1.4,10.6
	c-0.1,7.2-0.3,8.1-1.5,10c-1.9,2.8-3.5,3.5-7.6,3.5c-5.9,0-9.2-3.5-9.5-10.3c-0.4-5.5,0.6-10.3,3.3-15.8c2.7-5.7,5.8-9.1,11.7-13
	c5.6-3.7,11.1-5.4,18.9-6.2c7-0.6,14.2-3.3,15.9-6.8c-7.2,2.1-14.5-1-13.8-1.3c0.6-0.4,13.5-0.4,15.2-0.5c5.4-0.6,7.5-2.1,10.5-4.4
	c3.5-2.4,5.8-4.7,4.8-6.3c-0.8-1.7-3.4-1.4-5.2,0.6c-0.8,1-2.5,2.8-3.7,4.2c-2,2.3-2.5,2.4-8.6,3.4c-4.6,0.7-5.4,0.7-8.1,0
	c-0.9-0.6-1.6-1.4-1.6-1.7c0-0.9,2.5-2.3,4.9-2.8c1.6-0.4,5.4,0.9,8.6,1.8c-0.7-1.8-0.7-1.9-1.8-4c-1.5-3-4.2-4.1-11-4.3
	c-4.8-0.2-6.4-0.5-7.4-1.4c-0.7-0.7-1.9-1.5-2.5-2c-0.8-0.4-2-0.6-3.4-0.6c-4.3-0.2-11,1.5-17.5,4.3c-3.6,1.6-5.2,2-8.9,2
	c-2.5,0-5.7-0.3-7.1-0.7c-5.1-1.4-6-1.4-6-0.4c0,1.2,4.4,5.2,7.6,6.8c1.7,1,2.4,1.6,2.1,2.3c-0.5,1.4-5.3,4.6-8.3,5.6
	c-3.1,1.1-2.9,2.3,0.3,3.9c1.5,0.7,2.6,1.6,2.7,2c0,1.8-6.3,6-9.2,6c-3.5,0-2.1,2.8,1.7,3.6c2.1,0.5,2.1,0.8,0.2,2.8
	c-2.1,2.5-3.9,3.3-6.1,2.9c-2.3-0.6-2.8,0.4-1.5,2.9c1.1,1.8,1.1,2-0.1,2.8c-0.5,0.4-1.1,0.6-1.9,0.8l0,0c-0.2,0-0.4,0.1-0.4,0.1
	c-0.2,0-0.4,0-0.5,0.1c-0.2-0.1-0.4-0.1-0.6-0.1c-0.1,0-0.3-0.1-0.4-0.1l0,0c-0.7-0.2-1.3-0.4-1.9-0.8c-1.1-0.8-1.1-1,0-2.8
	c1.3-2.5,0.9-3.5-1.5-2.9c-2,0.4-4-0.4-6.1-2.9c-1.9-2-1.9-2.3,0.3-2.8c3.8-0.8,5.1-3.6,1.6-3.6c-2.9,0-9.3-4.2-9.2-6
	c0.1-0.4,1.2-1.3,2.8-2c3.3-1.6,3.4-2.8,0.3-3.9c-3-1-7.9-4.2-8.3-5.6c-0.3-0.7,0.4-1.3,2.1-2.3c3.2-1.6,7.5-5.6,7.5-6.8
	c0-1-0.8-1-6,0.4c-1.3,0.4-4.6,0.7-7.1,0.7c-3.7,0-5.3-0.4-8.9-2c-6.5-2.8-13.1-4.5-17.5-4.3c-1.4,0-2.6,0.2-3.4,0.6
	c-0.7,0.5-1.8,1.3-2.6,2c-1,0.9-2.6,1.2-7.3,1.4c-6.8,0.2-9.5,1.3-11.1,4.3c-1.1,2.1-1.1,2.2-1.8,4c3.2-0.9,7-2.2,8.7-1.8
	c2.3,0.5,4.9,1.9,4.9,2.8c0,0.3-0.8,1.1-1.7,1.7c-2.6,0.7-3.5,0.7-8.1,0c-6.1-0.9-6.5-1.1-8.7-3.4c-1.1-1.4-2.8-3.2-3.6-4.2
	c-1.8-2-4.4-2.3-5.2-0.6c-0.9,1.6,1.3,3.9,4.8,6.3c3,2.3,5.1,3.8,10.5,4.4c1.6,0.1,14.6,0.1,15.2,0.5c0.6,0.3-6.6,3.4-13.8,1.3
	c1.7,3.5,8.9,6.2,15.9,6.8c7.9,0.8,13.3,2.5,18.9,6.2c5.9,3.9,9,7.3,11.7,13c2.7,5.6,3.7,10.3,3.4,15.8c-0.3,6.8-3.6,10.3-9.5,10.3
	c-4,0-5.7-0.7-7.6-3.5c-1.3-1.9-1.4-2.8-1.5-10c0-6.9-0.2-8.4-1.3-10.6c-2.3-4.6-5.5-6.7-15.3-10.1c-4.8-1.7-11.3-4.2-14.5-5.6
	c-6.4-2.7-6.6-2.6-8.2,1.7c-0.5,1.5-1.4,2.6-2,2.8c-1.8,0.3-11.7-3.1-17.8-6.2c-10.7-5.3-16.2-10-21.7-18.6
	c-3.2-5.1-5.6-6.6-8.8-5.7c-3.6,1-5.6,4.2-5.6,8.8c-0.1,4.1,1.8,7.5,7,12.3c8.7,8.1,25,15.3,39,17.7c4.7,0.8,6.9,2.5,6.9,5.5
	c0,4.3-4.7,6-16,6c-10.6,0-17.3-2.6-24-9.4c-4.3-4.6-5.8-5.3-8.6-4.2c-1.5,0.6-3,3.6-3,6c0,4.8,6.4,12.6,13,15.6
	c4.9,2.3,9.4,3.1,17,2.8c5.5-0.2,7.7-0.7,12.4-2.4c9.5-3.6,10.4-3.6,11.5-2.5c0.9,0.9,0.9,1.2-0.1,3.1c-1.6,3.2-7.8,9.2-11.5,11
	c-8.6,4.3-17.2,3.4-29.5-3.3c-6.2-3.5-9.6-3.6-11.4-0.6c-0.7,1.2-1.3,2.9-1.3,3.9c0,2.3,3.2,5.8,8.2,8.4c6.3,3.5,10.7,4.7,18.1,4.7
	c6.5,0,10.7-1,19.3-4.7c4.4-1.8,6.2-2.1,7.3-0.8c1.1,1.4-0.8,5.1-4.8,9.1c-5.9,5.9-17.7,10.4-25.7,9.6c-2.3-0.2-5.1-1.1-7.6-2.3
	c-5-2.6-9.6-2.8-11.8-0.4c-3,2.9-1.9,7.4,2.8,11.4c3.1,2.6,6.2,3.6,11.2,3.6c5.5,0,9-1.2,20.9-7.3c10.9-5.4,13.4-6.3,14.1-4.5
	c0.7,1.8-1.3,5-7,10.8c-11.8,12-18.5,14.2-31.2,11.1c-9.1-2.4-12.2-0.8-11.7,5.5c0.4,4.4,1.9,6.4,6,8.5c2.6,1.5,3.9,1.6,9.1,1.6
	c5,0,6.6-0.3,9.2-1.4c4.5-2.2,14.5-8.9,20.1-13.8c6.9-6.1,9.6-7.3,9.6-4.3c0,3-11.2,18.3-17.9,24.5c-2.5,2.3-6.3,5.1-8.7,6.1
	c-3.9,1.9-4.7,2.1-10,2c-3.2,0-7.7-0.1-10.2-0.2c-5.5-0.3-7.3,0.7-7.3,4.3c0,3.4,4.8,8,9.8,9.4c10.4,3.1,21.6-2.2,35.6-16.5
	c10.4-10.6,12-10,5.8,2.7c-6.5,13.5-14.7,23-23.2,27.2c-4.3,2-5.4,2.1-16.9,1.6c-5-0.2-7.3,1.1-7.3,4.2c0,1.6,0.6,2.7,2.4,4.5
	c6.5,6.5,17.3,6.7,28.1,0.7c6.2-3.3,21.2-19.8,29.6-32.5c4.4-6.6,5.5-7.4,7.1-5.1c0.9,1.4,1,2.2,0.4,5.2
	c-1.8,9.5-6.2,16.6-13.1,21.1c-4.4,2.7-5.4,4.4-4.5,7c1,3.3,7.2,4.9,11,2.8c4.5-2.2,10.3-10.9,15.9-23.8c4-9.3,4.3-9.6,6.2-9.6
	c5.2,0,3.3,10.9-2.9,18.1c-2.9,3.2-3.3,5.3-1.3,7.1c1.7,1.5,4.1,1,8.5-1.8c4.2-2.7,6.3-5.3,9.3-11.1c3.8-7.2,5.4-5.3,2.3,2.7
	c-4.3,11.5-14.4,21.7-28.7,28.8c-2.2,1.1-4,2.2-4,2.4s1.3,1.9,2.9,3.5c1.6,1.9,2.8,3.5,2.8,3.8c0,0.6-8.7,4.6-19,8.5l-9.3,3.6
	l-4.7-3c-6.6-4-10.2-7-11-9c-1.4-4-6.4-6.6-10.1-5.3c-1.2,0.4-2.7,0.3-5.2-0.3c-5.7-1.5-9,3-9.9,5.3c2,0.3,1,0.3,2.4,0.2
	c5.7-0.2,6.3-0.1,8.8,2.5c2.6,2.7,6.1,4,8.9,3.5c1.3-0.3,2.9,0.4,6.9,3c2.9,1.9,5.3,3.6,5.3,3.9c0,0.5-3.1,0.5-12.3-0.1
	c-6.6-0.6-7.7-0.8-9.5-2.2c-2.6-2.3-5.6-2.7-8.4-1.4c-1.3,0.6-3.6,1.2-5.1,1.2c-1.7,0.1-3.5,0.6-4.5,1.4c-2,1.4-3.1,2.1-3.9,5
	c3.4-0.1,2.2-0.1,4.7-0.5c4.3-0.6,4.7-0.5,6.1,0.7c0.9,0.7,2,1.7,2.8,2.1c1.9,0.9,6.3,0.8,8.4-0.3c1.3-0.7,4.4-0.9,11.3-0.9
	c5.2-0.1,9.8-0.1,10.1,0c0.3,0-1.7,1.4-4.6,3c-4.8,3.1-5.3,3.2-9.5,3.1c-5.6-0.1-8.7,1.7-9.7,5.2c-0.3,1.2-0.9,3.5-1.3,5
	c-0.8,3.3-1.2,3.9,1.3,9.7c2.7-6.4,1.8-4.5,2.6-5.6c1.4-2.1,1.9-2.4,5-2.6c4.5-0.4,6.5-1.7,8.1-5.2c1.1-2.5,2.3-3.4,8.1-7.1
	c8.1-5,7.5-5,16.6-0.8c4.5,2.1,6.1,3.2,6.9,4.6c1.3,2.7,4.2,3.8,7.3,2.8c3.2-0.9,4.4-0.3,6.4,2.5c0.9,1.2,0.9,1,2.2,2.2
	c0.3-1.8,0.3-2.1,0.3-3.8c0-2.7-0.2-3.2-3.6-6.6c-4-4-6.4-5.1-9.2-4c-1.4,0.5-2.4,0.4-5.9-1.2c-3.9-1.8-5.3-3.2-3.3-3.2
	c0.3,0,6.6-2.3,13.6-5l12.9-5l1.9,1.6c3.5,2.7,9.1,5.3,11.5,5.3c2.2,0,2.4-0.2,3.1-2.5c1.1-3.7,8.5-17.9,12.5-24
	c6.7-10.4,10.4-13.1,13.5-9.8c0.9,1.1,1.1,2.4,1.1,6.3c-0.1,11.6-6.7,26.8-15.5,35.4c-4.6,4.6-9.7,7.1-15.7,8
	c-4.7,0.7-7.9,1.8-7.9,3.1c0,1.2,3.1,4.9,5.1,5.9c1.7,1,3.3,1.1,7,1c4.4-0.2,5.2-0.4,9.3-3c4.2-2.4,4.8-2.7,5.6-1.9
	c0.8,0.9,0.9,1.4,0.2,3.8c-1.3,5-4.8,7.2-13.1,8.2c-8.5,1.1-11.4,3.7-8.5,7.6c1.8,2.6,4.9,3.9,9.4,3.9c4.9,0,9.3-2.1,14.9-7.5
	c2.4-2.2,4.6-3.9,5-3.6c0.9,0.4,0.8,5.6-0.1,8.7c-0.9,3-4.9,7.6-7.3,8.6c-0.9,0.4-3.4,1.2-5.4,1.7c-6.9,1.9-7.9,4.6-3,7.9
	c3.2,2.1,8.5,2.3,12.4,0.4c2.5-1.1,9.6-7.7,10.9-10.1c1.1-2.1,2.3-0.5,1.9,2.6c-0.3,2.6-1.8,5.6-5.2,10.4c-2.8,3.8-1.7,9,2.9,15.9
	c3.1,4.7,6.2,8.1,7.6,8.6c1.3-0.5,4.3-3.9,7.5-8.6c4.7-7,5.7-12.2,2.9-15.9c-3.4-4.8-5-7.8-5.2-10.4c-0.4-3.1,0.7-4.7,1.9-2.6
	c1.3,2.4,8.3,9,10.9,10.1c3.9,1.9,9.1,1.7,12.4-0.4c4.9-3.3,3.8-6-3.1-7.9c-2-0.5-4.4-1.3-5.4-1.7c-2.4-0.9-6.4-5.6-7.3-8.6
	c-1-3.1-1-8.3-0.1-8.7c0.3-0.3,2.5,1.4,5,3.6c5.6,5.4,9.9,7.5,14.9,7.5c4.5,0,7.6-1.3,9.4-3.9c2.9-3.9,0-6.5-8.5-7.6
	c-8.3-1-11.8-3.2-13.2-8.2c-0.7-2.4-0.5-2.9,0.2-3.8c0.9-0.8,1.5-0.6,5.6,1.9c4.2,2.7,5.1,2.8,9.4,3c3.7,0.1,5.3,0,6.9-1
	c2-1,5.2-4.7,5.2-5.9c0-1.3-3.2-2.4-7.9-3.1c-6.1-0.9-11.1-3.4-15.8-8c-8.7-8.6-15.3-23.9-15.5-35.4c-0.1-3.9,0.2-5.2,1.1-6.3
	c3.1-3.3,6.7-0.6,13.4,9.8c4,6.1,11.4,20.3,12.5,24c0.7,2.3,1,2.5,3.2,2.5c2.4,0,8-2.6,11.5-5.3l1.9-1.6l12.9,5
	c7.1,2.7,13.2,5,13.7,5c1.9,0,0.5,1.4-3.4,3.2c-3.4,1.6-4.6,1.7-5.8,1.2c-2.9-1.1-5.3,0-9.3,4c-3.3,3.4-3.6,3.9-3.6,6.6
	c0,1.7,0,2,0.3,3.8c1.3-1.2,1.3-1,2.3-2.2c2-2.8,3.3-3.4,6.3-2.5c3.2,1,6-0.1,7.4-2.8c0.7-1.4,2.4-2.4,6.8-4.6
	c9-4.2,8.5-4.2,16.6,0.8c5.9,3.7,7,4.6,8.2,7.1c1.6,3.5,3.7,4.8,8.1,5.2c3.2,0.2,3.7,0.5,5,2.6c0.8,1.1,0-0.8,2.7,5.6
	c2.4-5.8,2.1-6.4,1.2-9.7c-0.4-1.5-1-3.8-1.2-5c-1-3.5-4.2-5.3-9.7-5.2c-4.2,0.1-4.7,0-9.5-3.1c-2.9-1.6-5-3-4.6-3
	c0.3-0.1,4.9-0.1,10.1,0c6.9,0,9.9,0.2,11.2,0.9c2.1,1.1,6.5,1.2,8.4,0.3c0.7-0.4,2-1.4,2.9-2.1c1.3-1.2,1.8-1.3,6-0.7
	c2.5,0.4,1.4,0.4,4.8,0.5C391.2,319.7,389.8,319,388,317.6 M296.4,108.6c1.4-0.9-1.1-3.5,1.6-3.4c0.6,0,1.6,0.2,2.9,0.6
	c2,0.4,3,2.7,1.8,3.9c-1.3,1.4-8.3,1.9-9.7,0.7C290.7,104.1,294.8,109.7,296.4,108.6 M207.3,110.4c-1.4,1.2-8.4,0.7-9.7-0.7
	c-1.3-1.2-0.2-3.5,1.8-3.9c1.3-0.4,2.3-0.6,2.9-0.6c2.8-0.1,0.3,2.5,1.6,3.4C205.5,109.7,209.7,104.1,207.3,110.4"/>
</svg>
