<?xml version="1.0" encoding="utf-8"?>
<!-- Generator: Adobe Illustrator 28.2.0, SVG Export Plug-In . SVG Version: 6.00 Build 0)  -->
<svg version="1.1" id="and" xmlns="http://www.w3.org/2000/svg" xmlns:xlink="http://www.w3.org/1999/xlink" x="0px" y="0px"
	 viewBox="0 0 500 500" enable-background="new 0 0 500 500" xml:space="preserve">
<circle fill="#D50032" cx="249" cy="249" r="244"/>
<path fill="#FEDD00" d="M249,5C114.2,5,5,114.2,5,249s109.2,244,244,244c32.2,0,63-6.3,91.1-17.6V22.6C312,11.3,281.2,5,249,5z"/>
<path fill="#10069F" d="M5,249c0,103.4,64.3,191.8,155.1,227.3V21.7C69.3,57.2,5,145.6,5,249z"/>
<g id="crest">
	<path fill="#C6AA76" d="M235.5,172.6c5.7,0,8.1,4.9,13.8,4.9c3.5,0,5.6-1.2,8.7-2.9c2.2-1.2,3.5-1.9,6-1.9c2.5,0,4.1,0.8,5.4,2.9
		c0.7,1.2,1.3,3.6,1,5c-0.4,2.1-1.1,4.2-2,6.2c-0.5,1.2-1,1.9-1,3.1c0,3,4.1,4.1,7,4.1c0.6,0,5.8,0.1,9-3.1
		c-1.7-0.1-3.7-1.4-3.7-3.1c0-2,1.4-3.3,3.2-3.8c0.4-0.1,1,0.2,1.3,0c0.5-0.2,0.2-0.7,0.6-1.1c0.9-0.7,1.5-1.2,2.7-1.2
		c0.7,0,1.3,0.2,1.9,0.6c0.3,0.2,0.4,0.5,0.9,0.5c0.9,0,1.3-0.5,2.1-0.5c0.6,0,1.2,0.1,1.7,0.4c0.5,0.3,0.5,1.1,1.1,1.1
		c0.3,0,1.8-0.6,2.6-0.6c1.6,0,2.5,0.6,3.6,1.8c0.3,0.3,0.5,1,0.8,1c1,0.1,2,0.5,2.8,1.2c0.3,0.3,0.6,0.6,0.8,1
		c0.2,0.3,0.5,1.1,0.8,1.2c0.4,0.1,0.9,0.2,1.3,0.5c1.3,0.8,2,2.1,2.1,3.6c-0.1,0.5-0.2,1.1-0.4,1.6c-1.4,4.9-4.7,6.5-8.1,10.7
		c-1.4,1.8-2.6,3.2-2.6,5.5c0,0.6,0.7,1.6,1,2c-0.2-1.1,0.3-2.4,1.4-2.5c1.5,0,2.8,1.1,3,2.7c0,0.5-0.1,0.9-0.2,1.4
		c0.9-0.6,1.9-0.9,3-1c0.5-0.1,0.9-0.1,1.4-0.1c2.5,0.1,5.3,1.5,6.9,2.9c5.1,4.3,5.7,10.7,5.5,12.5c-0.6,3.9-0.2,11-10.3,13.9
		c1.9,0.8,3.1,2.2,3.1,3.9c0,1.9-1.4,3.4-3.3,3.5c-1,0.1-1.9-0.3-2.6-1c-2.1,2.1-2.5,4.2-2.5,7.2c0,1.5,0.4,3.1,1.1,4.4
		c0.8,1.7,1.3,2.7,2.8,3.9c0.7-1.1,1.5-2,2.9-2c1.3,0,2.4,0.4,3,1.6c0.2,0.4,0,0.7,0.2,1c0.2,0.5,0.6,0.6,0.9,1c0.4,0.7,0,1.3,0.3,2
		c0.2,0.5,0.7,0.5,0.9,1c0.3,0.6,0.4,1.3,0.4,2c0,2.2-2,3.8-4.3,3.8c-0.7,0-1-0.3-1.7-0.2c1.3,1.3,2.3,1.8,3.2,3.4
		c1.4,2.2,1.8,3.8,2.1,6.4c0.1,0.4,0.1,0.9,0.1,1.3c0,3.3-0.5,5.4-2,8.3c-1.4,2.9-2.7,4.5-5.3,6.3c-4.1,2.9-7,3.8-11.9,4.7
		c-2.7,0.6-5.4,0.9-8.1,1.1l-10.5,0.5c-5.4,0.4-9.1,1.1-12.9,4.9c1.8,1.3,3,2.6,3,4.8c0,2.3-1.4,3.9-3.6,4.6c-0.5,0.2-0.9,0-1.3,0.3
		c-0.6,0.3-0.5,0.9-1.1,1.3c-0.8,0.5-1.8,0.8-2.8,0.7c-2,0-3.4-0.5-4.8-1.9c-1.6,1.4-2.2,2.6-4,3.6c-0.6,0.3-0.9,0.8-1.6,0.8
		c-1.1,0-1.6-0.7-2.5-1.3c-1.2-0.9-2.3-1.9-3.3-3c-1.7,1-2.7,1.8-4.6,1.8c-1,0.1-2.1-0.2-3-0.8c-0.5-0.3-0.6-0.8-1.1-1.1
		c-0.6-0.3-1-0.2-1.6-0.5c-2.2-1-3.7-2.6-3.7-5.1c0-2.1,1.4-3.5,3.3-4.4c-3.7-3.7-7.4-4.4-12.7-4.7l-10.4-0.5
		c-2.8-0.2-5.5-0.6-8.2-1.1c-2.4-0.4-3.8-0.5-6.1-1.5c-7.6-3.6-12.5-8.4-13.5-16.8c-0.1-0.6-0.1-1.2-0.1-1.9c0-4.3,1.7-7,4.8-10.1
		c-0.8-0.2-1.3,0.1-2.1-0.2c-1.9-0.7-3.3-2-3.3-4.1c-0.1-0.7,0.1-1.3,0.4-1.9c0.3-0.5,0.8-0.6,0.9-1.1c0.2-0.7-0.1-1.2,0.3-1.8
		c0.2-0.4,0.6-0.5,0.8-0.9c0.7-1.4,1.5-2.5,3-2.5c1.3,0,2.2,0.7,2.8,1.8c1.3-0.6,1.6-1.5,2.4-2.8c1.2-2,1.8-3.4,1.8-5.8
		c0-1.4-0.2-2.8-0.7-4.1c-0.4-1.1-0.5-1.9-1.3-2.7c-0.7,0.7-1.6,1.1-2.6,1c-2.1-0.1-3.8-1.8-3.8-4c-0.1-1.5,0.8-2.9,2.2-3.4
		c-1.2-1-2.2-1.1-3.4-1.9c-1.9-1.2-2.6-2.5-3.9-4.4c-0.8-1.3-1.1-2.1-1.5-3.6c-0.5-1.5-0.8-3-0.8-4.6c0-0.4,0-0.8,0.1-1.2
		c0.5-3.7,1.1-5.9,3.4-8.8c1.4-1.7,2.3-2.8,4.3-3.6c1.7-0.7,2.7-1.3,4.6-1.3c0.5,0,1,0,1.4,0.1c0.8,0,1.5,0.2,2.2,0.6
		c0.3,0.2,0.8,0.6,0.8,0.3c0-0.4-0.2-0.6-0.2-1c0-1.5,1.1-3,2.7-3c1.1,0,1.6,1,2.1,2c0.3-0.5,0.5-1.1,0.5-1.7c0-2.6-1.4-3.9-3-5.9
		c-3.5-4.3-7.8-6.4-7.8-11.9c0-1.7,0.8-2.8,2.2-3.6c0.4-0.2,1,0,1.4-0.3c0.3-0.2,0.3-0.7,0.5-1c0.3-0.5,0.7-0.9,1.1-1.2
		c0.8-0.7,1.5-0.5,2.4-1.1c0.4-0.3,0.5-0.7,0.9-1.1c1-1.2,1.9-1.7,3.4-1.7c0.7,0,1.3,0.1,1.9,0.3c0.2,0.1,0.7,0.5,0.8,0.4
		c0.3-0.4,0.7-0.6,1.1-0.9c0.5-0.3,1.1-0.4,1.6-0.4c0.8,0,1.4,0.5,2.2,0.5c0.3,0,0.4-0.3,0.6-0.5c0.7-0.5,1.2-0.8,2-0.8
		c0.7,0,1.5,0.3,2.1,0.7c0.7,0.4,0.8,1,1.5,1.4c0.4,0.2,0.7,0.1,1.1,0.3c1.9,0.6,3.4,1.9,3.4,3.9c0.1,1-0.3,1.9-1.1,2.6
		c-0.6,0.6-1.3,0.5-2.1,0.7c2.7,2.1,5,2.7,8.4,2.7c3.1,0,7-1.3,7-4.4c0-1.5-0.8-2.2-1.4-3.6c-1-2.4-1.6-3.8-1.6-6.4
		c0-2.1,0.2-3.3,1.4-5C231.9,173,233.4,172.6,235.5,172.6L235.5,172.6L235.5,172.6z"/>
	<path fill="none" stroke="#713F2A" stroke-width="1.041" stroke-linejoin="round" d="M214.7,189.2c0.3,0.9,0.9,1.6,1.8,1.8
		c1.1,0.2,2.2-0.2,2.9-1c0.6-0.9,0.8-2,0.4-3c-0.2-0.7-0.7-1.2-1.3-1.7L214.7,189.2L214.7,189.2L214.7,189.2z"/>
	<path fill="none" stroke="#713F2A" stroke-width="1.037" stroke-linecap="round" d="M310.4,246.6c-0.9-2.1-3.2-1.2-3.3,0
		c-0.3,2.7,2.1,3.6,3.8,3.1c0.8-0.2,1.5-0.7,1.9-1.4c0.5-0.8,0.6-1.8,0.3-2.8c-0.3-0.9-0.8-1.6-1.6-2.1c-0.7-0.4-1.4-0.5-2.5-0.5
		c-4.1,0-7.8,4.9-9,10c-0.7,2.9-0.7,6-0.2,9c0.6,3.2,2.1,6.1,4.4,8.4c1.3,1.2,2.7,2.3,4.3,3.1c1,0.5,2,0.9,3.1,1.3
		c1,0.3,2,0.3,2.9,0.1c2.5-0.5,3.6-2.8,2.4-5.2c-1-1.9-4-3-5.4-0.5c-0.2,0.4-0.3,0.7-0.3,1.1c0,0.7,0.2,1.3,0.7,1.7
		c1.1,0.7,2.8,0.5,2.7-1.4"/>
	<path fill="none" stroke="#713F2A" stroke-width="1.276" d="M297.6,274.8c1.3-1.4,3-2.4,4.9-2.7c2.2-0.3,4.1,0.4,6.1,1.4
		c3.8,2.1,6,4.3,7.4,8.4c0.4,1.4,0.7,2.8,0.6,4.3c-0.1,2.7-0.7,5.6-1.5,7c-0.6,1.2-2.3,6.7-11.4,10.4c-5.3,2.2-13.5,2.7-19.1,2.9
		c-7.7,0.3-14.9,0.6-19,5.7"/>
	<g>
		<path fill="none" stroke="#713F2A" stroke-width="1.121" d="M299.5,283.5c-0.2-0.8,0-1.6,0.6-2.5c0.9-1.2,2.7-1.6,4.4-0.7
			c0.7,0.4,1.4,0.9,1.9,1.6l0.9,1.2c0.3,0.6,0.6,1.2,0.8,1.9c1.8,5.2-1.1,10.8-4.9,13.1c-3,1.8-6.5,2.5-10.7,3
			c-1.9,0.2-3,0.2-4.9,0.3c-1.5,0.1-2.9,0-4.1,0l-3,0c-1.8-0.1-3.6,0-5.4,0.1c-2.2,0.2-3.8,0.2-5.6,0.5c-1.2,0.2-2.6,0.4-4.1,0.7
			c-0.4,0.1-0.9,0.2-1.3,0.3l-0.9,0.3c-2.5,0.7-5,1.8-7.3,3.1c-0.7,0.4-1.3,0.8-1.8,1.3c-0.3,0.3-0.7,0.6-1,0.9
			c-1.4,1.4-2.9,2.9-3.2,5c-0.1,0.4-0.1,0.8-0.1,1.2c0,1.3,1.1,3.1,4,3.7 M257.9,191.9c0.6,1.1,0.9,1.8,0.6,2.9
			c-0.4,1.3-1.3,2.1-2.6,2.1c-3,0-4.7-3.5-3.4-5.7c2.4-4,6.9-1.7,11.1,0.2c-0.2-1-0.6-1.3-0.5-2.6c0.1-3.1,2.4-4.5,3.3-7.4
			c0.6-1.7,0.8-3.2-0.5-4.4c-1.1-1.1-2.4-1-3.8-0.5c-2.9,1.1-6.3,4.4-12.4,4.4c-6.1-0.1-9.5-3.3-12.4-4.4c-1.4-0.6-2.7-0.6-3.8,0.5
			c-1.3,1.2-1,2.7-0.5,4.4c0.9,2.9,3.2,4.3,3.3,7.4c0,1.3-0.3,1.6-0.5,2.6c4.2-2,9-4.4,11.1-0.2c1.2,2.3-0.4,5.7-3.4,5.7
			c-1.3,0-2.2-0.8-2.6-2.1c-0.3-1-0.1-2.1,0.6-2.9"/>
		<path fill="none" stroke="#713F2A" stroke-width="1.121" stroke-linecap="round" d="M246.1,189.9c1.1,0.9,2,2,1.8,3.7
			c-0.1,1.9-0.6,2.4-2.1,3.4 M247.6,194.1c0,1.1-0.7,2-1.7,2.4"/>
	</g>
	<path fill="#C6AA76" d="M217.9,185l0.5,0.4l0.6,0.6l0.4,0.7l0.2,0.6l0,0.8l0,0.6l-0.2,0.6l-0.4,0.4l-0.4,0.5l-0.6,0.3l-0.8,0.2
		l-0.7,0.1l-0.7-0.3L215,190l-0.4-0.6l-0.3-0.7v-0.3L217.9,185L217.9,185L217.9,185z"/>
	<path fill="none" stroke="#713F2A" stroke-width="1.041" stroke-linecap="round" d="M216.8,187.9c-0.2-1.2-1.7-1.5-2.2-0.8
		c-0.9,1.1-0.2,3,1.5,3.5c1.1,0.2,2.2-0.2,2.9-1c1-1.5,0.7-3.5-0.8-4.5l-0.1-0.1c-2-1.5-5.3-1.2-6.4,1.4c-1.4,3.3,1.6,5.8,4.4,7.7
		c3.5,2.4,7.5,2.8,10.5,2.8c6.8-0.1,12-3.3,15.4-5.2c0.8-0.4,1.6-0.3,2,0.1c0.5,0.6,0.4,1.5-0.2,2"/>
	<path fill="none" stroke="#713F2A" stroke-width="1.057" d="M196.6,280.1l-1.5,0.6l-1.6,1.2l-0.7,0.9l-0.9,1.5l-0.4,1.1l-0.3,1.4
		l-0.1,1 M205.3,280.3l-0.1,1.3l-0.2,0.9l-0.7,1.6l-1,1.4l-1.1,0.9l-0.8,0.4l-1.1,0.3"/>
	<path fill="none" stroke="#713F2A" stroke-width="1.197" d="M249.9,315.8c-0.3,1.2-1.4,2.6-3.9,3.2l-0.5,0.1"/>
	<path fill="none" stroke="#713F2A" stroke-width="1.356" d="M312.8,276.4c1.7,1.6,2.9,3.6,3.6,5.8c0.4,1.4,0.7,2.8,0.6,4.3
		c-0.1,2.7-0.7,5.6-1.5,7c-0.6,1.2-2.3,6.7-11.4,10.4c-5.3,2.2-13.5,2.7-19.1,2.9c-7.6,0.3-14.7,0.6-18.8,5.5"/>
	<path fill="none" stroke="#713F2A" stroke-width="0.929" d="M300.3,281.4c0.6-0.8,2.6-1.7,4.3-0.8c0.7,0.4,1.3,0.9,1.8,1.5"/>
	<path fill="none" stroke="#713F2A" stroke-width="1.356" d="M310.8,274.6l1.1,0.4c1,0.3,2,0.3,2.9,0.1c2.1-0.6,3.5-2.6,2.4-5.2
		c-0.3-0.6-0.7-1.2-1.3-1.6"/>
	<path fill="none" stroke="#713F2A" stroke-width="1.041" stroke-linecap="round" d="M190.8,219.6c-1.4,0.9-2.5,1.1-3.6,2.4
		c-0.9,1.6-1.5,3.3-2,5.1 M219.6,188.5c0,1.3-0.9,2.1-2.2,2.4"/>
	<path fill="none" stroke="#713F2A" stroke-width="0.997" d="M307.5,213.8c3.5-0.1,13.7,2.7,13.8,14.7c0.1,11.9-7.3,13.8-10.3,14.6"
		/>
	<path fill="none" stroke="#713F2A" stroke-width="1.037" d="M308.4,213.8c6.1-0.3,12.3,4.2,12.6,15.4c0.2,8.7-6,12.7-8.9,13.4"/>
	<path fill="none" stroke="#713F2A" stroke-width="0.881" d="M305,255.8l0.1-1.2l0.4-1.9l0.6-1.5l0.6-1.2l0.8-1 M313.3,246.5
		l-0.1,1.2l-0.3,0.8l-0.5,0.8l-0.6,0.4l-0.9,0.3l-0.8,0.1l-0.6-0.1 M298.9,210.7l0.3-1.3l0.6-1.2l0.7-1.2l1.2-1.6l1-1.1l1.6-1.6
		l1.4-1.4l0.9-1l1.1-1.4l1-1.5l0.6-1.3l0.3-1.6l0.1-2l-0.2-0.6 M300.3,287.3l1.2-0.2l0.9-0.5l0.5-0.5l0.4-0.6l0.2-0.9l0-0.6
		 M185.8,274.9l0.9,0.1l1.1-0.1l1.1-0.4 M192.7,247.3l-0.1,1l-0.2,0.5l-0.4,0.4l-0.5,0.4l-0.5,0.2l-0.7,0.1l-0.5,0 M197.1,238.4
		l-0.3,1.6l-0.3,0.7l-0.6,0.9l-0.9,0.7l-0.9,0.4l-1.7,0.4 M203.8,213.5l-0.3,1l-0.4,0.7l-0.6,0.8l-0.8,0.7l-0.9,0.4l-0.8,0.2l-0.5,0
		 M199.8,212.7l0,0.7"/>
	<g>
		<path fill="none" stroke="#713F2A" stroke-width="0.987" stroke-linecap="round" d="M201.2,237.6c-0.5,0.4-1,0.7-1.6,1 M311.7,272
			c0.1,0.1,0.3,0.1,0.4,0.1c1.1,0.6,3.1-0.2,2.5-1.8"/>
		<path fill="none" stroke="#713F2A" stroke-width="0.987" d="M308,249.2c0.7,1,2.2,1.2,3.3,0.9c0.8-0.2,1.5-0.7,1.9-1.4
			c0.5-0.8,0.6-1.8,0.3-2.8c-0.1-0.4-0.3-0.9-0.6-1.2c-0.3-0.4-0.6-0.8-1-1.1c-0.1-0.1-0.2-0.1-0.2-0.2 M316.3,268.8
			c0.2-1-0.2-2-0.9-2.7c-0.2-0.2-0.4-0.4-0.6-0.6 M315.1,265.8c0-1.4-1.2-2.4-2.6-2.6 M309.4,265.3c-0.3-0.2-0.7-0.5-1-0.8
			c-2-2.1-3.2-5-3.2-7.9c0-3.1,1.2-6.2,2.7-7.4 M265.9,312.1l1.3-1.2l0.9-0.7l1.7-1.1l1.6-0.8l1.1-0.3l2.3-0.5l2.7-0.4 M255.7,321.5
			c-1,1.5-3.3,3.7-5.7,4.6c-2.4-0.9-4.7-3.1-5.7-4.6"/>
		<path fill="none" stroke="#713F2A" stroke-width="0.987" stroke-linecap="round" d="M246,318.4c-0.3,1.1-0.9,2.2-1.7,3.1"/>
		<path fill="none" stroke="#713F2A" stroke-width="0.987" d="M246.2,316.9l-0.3,1.6 M244.1,321.6l-0.7,0.7l-1.3,0.7l-1.4,0.4
			 M236.5,191.1c0.2-0.6,0.4-1.3,0.3-1.9c-0.1-3.1-2.4-4.5-3.3-7.4c-0.6-1.7-0.8-3.2,0.5-4.4c1.1-1.1,2.4-1,3.8-0.5
			c2.9,1.1,6.3,4.4,12.4,4.4c-6.1-0.1-9.5-3.3-12.4-4.4c-1.4-0.6-2.8-0.7-3.9,0.3c-1.3,1.2-0.9,2.9-0.4,4.6c0.9,2.9,3.1,4.3,3.2,7.4
			c0,0.7-0.1,1.3-0.4,1.9 M250.2,181.1c6-0.3,11.1-4.3,12.7-4.6c1.5-0.3,2.3-0.2,3.4,0.8c-1.1-1-2.3-0.9-3.7-0.4
			c-2.9,1.1-6.3,4.4-12.4,4.4 M309.5,265.3c-2.9-2.2-4.6-5.6-4.6-9.2c0-3.1,1.2-6.2,2.7-7.4 M255.4,321.3c-1,1.5-3.3,3.7-5.7,4.6
			c-2.4-0.9-4.7-3.1-5.7-4.6"/>
		<path fill="none" stroke="#713F2A" stroke-width="0.987" stroke-linecap="round" d="M240.2,192.7l1.7-1c0.8-0.4,1.7-0.3,2.1,0.2
			c0.5,0.6,0.5,1.5-0.1,2.1"/>
		<path fill="none" stroke="#713F2A" stroke-width="0.987" d="M231.3,196.9c4.1-0.9,7.4-2.7,9.9-4.1 M265.3,314.9
			c0.2,0.2,0.4,0.4,0.6,0.7c0.1,0.2,0.2,0.4,0.2,0.6c0.2,0.9-0.3,1.7-1.2,1.9c-0.1,0-0.2,0-0.3,0c-1.1,0.1-2.2-0.5-2.6-1.5
			 M231.1,196.7c4.1-0.9,7.4-2.7,9.9-4.1 M313.6,272.1c-0.8,0.3-1.2,0.3-2.2-0.2c-0.4-0.2-0.9-0.4-1.4-0.8c-1.9-1.1-4.1-2.8-6.3-6.7
			c-0.6-1.1-1-2.2-1.3-3.3c-0.2-0.8-0.3-1.6-0.4-2.5c0-1.6,0.1-3.1,0.5-4.6c0.4-2.5,1.5-4.8,3-6.7c0.9-1.2,1.6-1.9,3.2-1.9
			 M202,216.1c1.3,1,2,2.6,2,4.3c0,2.3-1.9,6.1-6.7,7.4c-1.6,0.4-3.3,0.2-4.7-0.6 M202.7,223.9c0.8,0.5,1.3,1.5,1.2,2.4
			c0,0.8-0.5,1.8-1.4,2.8c-1.7,1.8-4,2.9-6.5,3c-1.6,0-3.2-0.4-4.5-1.3c-1.4-0.9-2.4-2.4-2.9-4"/>
		<path fill="none" stroke="#713F2A" stroke-width="0.987" d="M202.7,228.9c1,0.9,1.3,2,1.3,3.4c0,2-0.8,3.6-2.7,5.3
			c-0.4,0.4-0.9,0.7-1.4,1 M296,222.2v2.6 M295.8,221.5v3.7 M296,213.5v4.8 M295.8,212.5v6.6 M294.4,280.1c-0.8,1.6-1.8,3-3.1,4.2
			c-1.2,1.3-2.7,2.3-4.3,3c-1.5,0.8-3.2,1.3-4.9,1.6c-1.7,0.4-3.4,0.6-5.1,0.6c-1.6,0.1-3.1,0-4.7-0.1c-2-0.1-3.1-0.4-5-0.6
			c-1.4-0.2-2.8-0.3-4.2-0.3c-1.4,0-2.9,0.1-4.3,0.3c-1.3,0.2-2.6,0.6-3.9,1.1c-2,0.8-4.3,2.2-4.7,2.9c-0.5-0.6-2.7-2-4.7-2.9
			c-1.2-0.5-2.5-0.9-3.9-1.1c-1.4-0.2-2.8-0.3-4.3-0.3c-1.4,0-2.8,0.1-4.2,0.3c-2,0.2-3.1,0.4-5,0.6c-1.6,0.1-3.1,0.2-4.7,0.1
			c-1.7,0-3.4-0.2-5.1-0.6c-1.7-0.3-3.3-0.9-4.9-1.6c-1.6-0.7-3.1-1.8-4.3-3l-0.5-0.5 M240,323.5l1.3-0.2 M263.9,321.6l1.3-0.1
			l1.3-0.5l0.9-0.5l1.2-1.4l0.3-0.5l0.2-1.2l0.1-0.6 M304,214.9c0.6-2-0.1-4-2-4 M203.8,245.6c-0.4,1.4-1.4,2.7-2.7,3.5
			 M203.9,214.3c-0.4,1.3-1.4,2.4-2.7,3c-1.4,0.6-3,0-3.8-0.6"/>
		<path fill="none" stroke="#713F2A" stroke-width="0.987" stroke-linecap="round" d="M193.4,221.5c1.1,0.6,2.3-0.3,2.1-1.8
			c-0.2-0.9-1-1.6-1.9-1.6"/>
		<path fill="none" stroke="#713F2A" stroke-width="0.987" d="M198.2,284.2c0.2,0.2,0.3,0.5,0.6,0.6c0.5,0.1,0.9,0.3,1.4-0.4
			c0.6-0.8,0.3-2.1-0.4-2.9c-1.1-1.2-2.9-1.4-4.3-0.7c-0.7,0.4-1.4,0.9-1.9,1.6l-0.9,1.2c-0.3,0.6-0.6,1.2-0.8,1.9
			c-1.5,4.3,0.3,8.9,3.1,11.7"/>
		<path fill="none" stroke="#713F2A" stroke-width="0.987" stroke-linecap="round" d="M265.2,314.9c0.2,0.2,0.3,0.4,0.5,0.6
			c0.1,0.2,0.2,0.4,0.2,0.6c0.2,0.9-0.3,1.7-1.2,1.9c-0.1,0-0.2,0-0.3,0c-1.1,0.1-2.1-0.5-2.5-1.5"/>
		<path fill="none" stroke="#713F2A" stroke-width="0.987" d="M301.8,186.1c2.6,0.4,4.6,2.6,4.7,5.2c0,3.3-1.1,4.5-2.8,6.9
			c-1.9,2.5-7.9,7.1-7.9,12.4c0,3.2,0.9,5.2,3.2,6.3c1.5,0.7,3.2-0.1,4-0.8c1.9-1.7,1.2-4.8-0.9-5.2c-2.4-0.4-2.9,3.4-0.5,3.1
			 M314.8,265.5c-0.2-1.5-1.6-2.5-3.1-2.3c-1.4,0.2-2.4,1.4-2.3,2.8c0,0.7,0.3,1.4,0.8,1.9 M297.6,216.1c-1.3,1-2,2.6-2,4.3
			c0,2.3,1.9,6.1,6.7,7.4c1.8,0.5,3.6,0.5,4.6-0.2 M190.9,219.9c-1.4,0.4-2.7,1.3-3.6,2.6c-0.9,1.3-1.4,3-1.7,4.5
			c-0.2,1.6-0.2,3.3,0.1,5c0.3,1.5,0.9,2.9,1.7,4.2c0.2,0.3,0.5,0.6,0.8,0.9c0.3,0.2,0.5,0.5,0.8,0.7 M236.7,306.2
			c3.6,1.6,6.3,2.8,8.5,6.3c0.6,1.1,0.9,2.4,0.9,3.6c0,2.2-0.9,4.2-2.5,5.7c-1.3,1.2-3.2,1.8-5,1.5c-1.4-0.1-2.8-1.2-3-1.9
			 M201,237.7c2,1.6,2.9,3.1,2.9,5.6c0.1,2.3-1,4.4-3,5.6"/>
		<path fill="none" stroke="#713F2A" stroke-width="0.987" stroke-linecap="round" d="M199.2,246.8c3,3.8,4.6,6,4.7,10.5
			c0.1,4.2-1.3,7.1-3.8,10.1"/>
		<path fill="none" stroke="#713F2A" stroke-width="0.987" d="M257.4,196.9c0.6-0.4,1-1,1.2-1.7c0.4-1.1,0.4-2.1-0.2-2.9
			c0.7,1,0.8,1.8,0.6,2.9c-0.1,0.7-0.6,1.1-1.2,1.7 M296,261v12h0c0,0.6,0,1.2-0.1,1.9l-0.2,1.3"/>
		<path fill="none" stroke="#713F2A" stroke-width="0.987" d="M295.8,259.9v13h0c0,0.6,0,1.2-0.1,1.9l-0.3,2 M295.8,244.7v10.8
			 M296,245.6v8.8 M296,234.4v6.6 M295.8,233.6v8.1 M296,227.6v2.6 M295.8,227.1v3.7 M294.5,279.3l-0.3,0.5c-0.8,1.6-1.8,3-3.1,4.2
			c-1.2,1.3-2.7,2.3-4.3,3c-1.5,0.8-3.2,1.3-4.9,1.6c-1.7,0.4-3.4,0.6-5.1,0.6c-1.6,0.1-3.1,0-4.7-0.1c-2-0.1-3.1-0.4-5-0.6
			c-1.4-0.2-2.8-0.3-4.2-0.3c-1.4,0-2.9,0.1-4.3,0.3c-1.3,0.2-2.6,0.6-3.9,1.1c-2,0.8-4.3,2.2-4.7,2.9c-0.5-0.6-2.7-2-4.7-2.9
			c-1.2-0.5-2.5-0.9-3.9-1.1c-1.4-0.2-2.8-0.3-4.3-0.3c-1.4,0-2.8,0.1-4.2,0.3c-2,0.2-3.1,0.4-5,0.6c-1.6,0.1-3.1,0.2-4.7,0.1
			c-1.7,0-3.4-0.2-5.1-0.6c-1.7-0.3-3.3-0.9-4.9-1.6c-1.6-0.7-3.1-1.8-4.3-3c-0.7-0.6-1.3-1.3-1.8-2.1 M205.6,279.6
			c0.3,2.1-0.4,4.1-1.7,5.7c-0.6,0.7-2,1.9-3.7,2c-2.8,0-3.7-1.9-3.8-2.4 M202.2,278.4c0.6,0.6,1,1.2,1.4,1.9
			c0.7,1.3,0.5,3.6-0.1,4.6c-0.1,0.1-0.1,0.2-0.2,0.4 M188.2,298.6c1.7,1.8,4.2,3.7,8.1,5.3c5.3,2.2,13.5,2.7,19.1,2.9
			c7.5,0.3,14.4,0.6,18.6,5.2 M246.9,309c1.2,1.2,2.5,2.5,3,4.2 M244.5,321.7c-1.4,1.5-3.4,2.2-5.5,2c-1.3-0.2-2.4-0.9-3.2-1.9
			 M231.9,319.7c0.1,0.1,0.1,0.2,0.2,0.3c1,1.1,2.3,1.7,3.8,1.8 M255.9,321.7c-1,1.5-3.3,3.7-5.7,4.6c-2.4-0.9-4.7-3.1-5.7-4.6
			l-0.2-0.3 M255.9,321.7c0.2,0.2,0.4,0.4,0.6,0.5c1.4,1.2,3.2,1.8,5,1.5c1.3-0.1,2.4-0.8,3-1.9c0.1-0.2,0.3-0.3,0.3-0.5"/>
		<path fill="none" stroke="#713F2A" stroke-width="0.987" d="M264.3,321.4l-0.6,0.9l-0.8,0.7l-1.3,0.5l-1.2,0"/>
		<path fill="none" stroke="#713F2A" stroke-width="0.987" d="M267.3,312.9c0.7,0.6,1.3,1.3,1.7,2.2c0.2,0.6,0.4,1.2,0.4,1.8
			c0.1,1.1-0.3,2.2-1.1,3.1c-1,1.1-2.5,1.8-4,1.8H264 M264.1,321.6c-1.5,0-2.9-0.5-3.9-1.6 M307.6,269.5c-1.5-1.4-2.7-3-3.6-4.8
			c-0.6-1.1-1-2.2-1.3-3.3c-0.2-0.8-0.3-1.6-0.4-2.5c0-1.6,0.1-3.1,0.5-4.6c0.5-2.5,1.5-4.8,3-6.7c0.4-0.6,1-1.2,1.5-1.7
			 M306.4,189.4c1.9,0.1,3.6,2.2,3.6,4.2c0,2.9-1,4.1-3.3,6.9c-2,2.4-7.8,6.7-7.7,10.8c0.1,0.8,0.4,1.5,0.9,2.1 M297.6,216
			c0.4,0.4,1,0.8,1.5,1c1,0.4,2.2,0.3,3.2-0.2 M286.5,184.7c0.7,0.5,1.3,1.1,1.6,1.9c1.4,3.3-1.6,5.8-4.4,7.7
			c-1.9,1.2-4,2.1-6.2,2.4 M283.3,191.1c-0.9,0-1.8-0.4-2.3-1.1c-0.2-0.2-0.4-0.5-0.5-0.7 M269.4,192.9c-0.4-0.2-0.7-0.4-1-0.7
			c-0.8-0.9-1.1-2.2-0.6-3.3c0.5-1.4,2.7-5.4,2.8-8.1c0.2-4.2-1.4-6.7-4-7.6"/>
		<path fill="none" stroke="#713F2A" stroke-width="0.987" stroke-linecap="round" d="M270.5,179.9l-0.1,1.6l-0.4,1.6l-0.8,2.2
			l-0.6,1.4l-0.7,1.4l-0.3,1l-0.1,0.7l0.1,0.7 M295.8,284.5c0.1,0.2,0.3,0.4,0.4,0.6c0.5,0.8,2.4,2.2,4.1,2.2c2.8,0,3.5-1.9,3.6-2.4
			c0.4-2.1-0.4-2.7-1.5-3.3c-0.4-0.2-0.9-0.3-1.4-0.2"/>
		<path fill="none" stroke="#713F2A" stroke-width="0.987" d="M188.3,275.1c-0.9,0.3-1.8,0.3-2.7,0c-2.1-0.6-3.8-2.6-2.9-5.2
			 M192.6,246.2c0.2,0.2,0.3,0.5,0.3,0.8c0.3,2.7-2.1,3.5-3.8,3.1c-0.9-0.3-1.7-0.9-2.2-1.7c-0.3-0.5-0.5-1.1-0.5-1.7 M202.9,229.1
			c0.4,0.4,0.7,0.8,0.9,1.3 M202.9,224.1c0.4,0.3,0.7,0.6,0.9,1"/>
		<path fill="none" stroke="#713F2A" stroke-width="0.987" stroke-linecap="round" d="M203.9,227.6c-0.3,0.7-0.7,1.2-1.2,1.8
			c-1.7,1.8-4,2.9-6.5,3c-1.6,0-3.2-0.4-4.5-1.3c-1.5-1-2.6-2.4-3-4.1"/>
		<path fill="none" stroke="#713F2A" stroke-width="0.987" d="M202.1,216.2c0.8,0.7,1.4,1.5,1.8,2.5"/>
		<path fill="none" stroke="#713F2A" stroke-width="0.987" stroke-linecap="round" d="M203.9,222.2c-1,2.9-3.4,5.2-6.4,5.8
			c-1.8,0.5-4.1-0.1-4.9-0.8"/>
		<path fill="none" stroke="#713F2A" stroke-width="0.987" d="M190.6,221.6c0.2,2,1.5,3.4,4,3.5c3.5,0.1,5.6-5,2.5-8.6"/>
		<path fill="none" stroke="#713F2A" stroke-width="0.987" stroke-linecap="round" d="M182.8,238.7c0.5,0.6,1.1,1.2,1.7,1.7
			c1.3,1.1,2.8,1.9,4.4,2.5 M192.8,243.3c3.1-0.4,4.9-2.7,4.5-5.4c-0.3-2.1-2.2-3.7-3.5-3.8"/>
		<path fill="none" stroke="#713F2A" stroke-width="0.987" d="M197.9,210.9c1.2,0,2.1,1,2.1,2.1l0,0.1"/>
		<path fill="none" stroke="#713F2A" stroke-width="0.987" stroke-linecap="round" d="M197.6,192.3c0.7,1.8,2,3.4,3.7,4.3
			 M308.6,219.6c1.3,1.8,0.4,5.2-3,5.3c-1.4,0-2.6-0.7-3.3-1.9"/>
		<path fill="none" stroke="#713F2A" stroke-width="0.987" d="M296,196.8v11.8"/>
		<path fill="none" stroke="#713F2A" stroke-width="0.987" stroke-linecap="round" d="M193.4,221.5c1.1,0.8,2.5-0.5,1.9-1.9
			c-0.4-0.9-1.7-2-3.5-0.7c-2,1.4-1.5,5.8,2.4,5.8c3.5,0.1,5.6-5,2.5-8.6c-3-3.4-8.4-2.6-12,0.2c-2.6,2.2-4.5,5.3-5.3,8.6
			c-0.3,1.2-0.4,2.5-0.4,3.8c0.1,3.1,1,6.1,2.6,8.7c0.3,0.4,0.6,0.8,1,1.2c0.4,0.5,0.9,1,1.4,1.4c2,1.7,4.6,3,7.8,2.9
			c3.5-0.1,5.5-2.6,5.1-5.5c-0.4-2.8-3.2-4.2-5-2.9c-1.3,0.9-1.7,3.6,0.5,4.3c1.3,0.4,2.4-1.2,1.5-2.1 M290.3,183.2
			c2-1.1,3.6-0.9,4.7,0.7c1.1,1.6,1.5,3.5,1.1,5.4c-0.4,2-1,2.8-2.6,4.3 M295.2,184.1c2.3-1.5,4.8-0.9,6.1,1.1
			c1,1.5,1.3,2.7,1.2,4.6c-0.2,2.9-1.8,5.4-4.3,6.8"/>
		<path fill="none" stroke="#713F2A" stroke-width="0.987" d="M306,189.3c2,0.2,3.4,1.9,3.4,3.9c0,2.9-0.8,4.1-3.1,6.9
			c-2,2.4-7.8,6.7-7.7,10.8c0.1,1.6,1.4,3,2.5,3.1"/>
		<path fill="none" stroke="#713F2A" stroke-width="0.987" stroke-linecap="round" d="M306.2,221.5c-1.1,0.8-2.4-0.5-1.9-1.8
			c0.4-0.9,1.6-2.1,3.5-0.8c2,1.4,1.5,5.8-2.4,5.8c-3.5,0.1-5.9-4.9-2.5-8.6c3.1-3.4,8.7-2.7,12.3,0.1c1.5,1.2,4.6,4.5,5.2,8.8
			c0.8,5.2,0.7,11.7-4.7,15.7c-2.3,1.6-5.1,2.3-7.9,2.2c-3.5-0.2-5.5-2.6-5.1-5.5c0.4-2.8,3.1-4,5-2.9c2.1,1.1,1.7,4-0.5,4.3
			c-1.3,0.2-2.4-1.2-1.5-2.1"/>
		<path fill="none" stroke="#713F2A" stroke-width="0.987" d="M304.3,219.7c0.6-2.6,2.8-2.8,4.6-2.8c4.9,0.1,8.3,5.9,8.4,11.5
			c0.1,7.1-3,11.3-8.2,11.5c-1.3,0.1-3.7-0.6-3.7-2.2"/>
		<path fill="none" stroke="#713F2A" stroke-width="0.987" stroke-linecap="square" d="M307.4,218.5c5.2,1.1,7,5.8,7,10.3
			c0,3.6-0.4,8.6-7.4,10.3"/>
		<path fill="none" stroke="#713F2A" stroke-width="0.987" d="M315.9,268.4c0.3-1.6-0.7-3.1-2.3-3.4c-1.6-0.3-3.1,0.7-3.4,2.3
			c-0.2,1.1,0.2,2.1,1.1,2.8"/>
		<g>
			<path fill="none" stroke="#713F2A" stroke-width="0.987" stroke-linecap="round" d="M305.5,263.9c1.1,1.8,2.7,3.4,4.6,4.4
				 M309.2,276.2c-2.4-1.6-7.1-3.7-11.2-1.6c-1.6,0.8-2.6,1.7-3.2,3.3c-0.8,2.4-0.3,5.1,1.3,7.1c0.6,0.7,2,1.9,3.7,2
				c2.8,0,3.5-1.9,3.6-2.4c0.3-2-0.9-2.9-1.5-3.1c-0.5-0.2-2.1-0.1-2.4,1c-0.1,0.5-0.1,1,0.2,1.5"/>
			<path fill="none" stroke="#713F2A" stroke-width="0.987" stroke-linecap="round" d="M265.4,315.3c0.8,1.6-0.1,2.4-1.2,2.5
				c-1.6,0.2-2.4-1.1-2.6-2.2c-0.1-1.8,1.2-3.4,3-3.5l0.2,0c1.6,0.1,3.1,1.1,3.7,2.6c0.2,0.6,0.4,1.2,0.4,1.8
				c0.1,1.1-0.3,2.2-1.1,3.1c-1,1.1-2.5,1.8-4,1.8c-3.1,0.1-5.6-2.8-5.6-5.8c0-5.7,8.5-8.9,11.9-9.7c4.1-1,6.7-1.4,13.3-1.7
				c2.7-0.1,4.6-0.1,7.6-0.4c2.3-0.2,4.5-0.5,6.7-1c3.5-0.7,6.7-2.4,9.3-4.7c2.2-2,3.4-3.4,4.4-6.1c0.9-2.3,1.3-7-0.9-10.4
				c-1.7-2.8-4.5-4.6-7.7-5c-2.8-0.4-5.2,0.8-6.7,3.6c-0.7,1.3-0.5,3.6,0.1,4.6c0.7,1.3,2.1,2.1,3.6,2.2c2.8,0,3.5-1.9,3.6-2.4
				c0.3-2-0.9-2.9-1.5-3.1c-0.5-0.2-2.1-0.1-2.4,1c-0.1,0.5-0.1,1,0.2,1.5 M262.9,306.2c-3.6,1.6-6.3,2.8-8.5,6.3
				c-0.6,1.1-0.9,2.4-0.9,3.6c0,2.2,0.9,4.2,2.5,5.7c1.4,1.2,3.2,1.8,5,1.5c1.4-0.1,2.8-1.2,3-1.9"/>
		</g>
		<path fill="none" stroke="#713F2A" stroke-width="0.987" d="M298.6,237.7c-1.7,0.6-2.9,3.1-2.9,5.6c-0.1,2.3,1,4.4,3,5.6"/>
		<path fill="none" stroke="#713F2A" stroke-width="0.987" stroke-linecap="round" d="M300.4,246.8c-3,3.8-4.6,6-4.7,10.5
			c-0.1,4.2,1.3,7.1,3.8,10.1"/>
		<path fill="none" stroke="#713F2A" stroke-width="0.987" d="M284.2,184.1l0.3-0.4c1.3-1.9,3.5-2.3,5.1-1.1c2,1.5,2.5,4,1.9,6.7
			c-0.4,1.7-1.5,3.2-3,4.1"/>
		<path fill="none" stroke="#713F2A" stroke-width="0.987" stroke-linecap="round" d="M209.3,183.2c-1.9-0.9-3.5-0.7-4.7,0.7
			c-1.4,1.6-1.4,4-1.1,5.4c0.4,2,1,2.8,2.6,4.3"/>
		<path fill="none" stroke="#713F2A" stroke-width="0.987" d="M204.4,184.1c-2.3-1.5-4.8-0.9-6.1,1.1c-1,1.5-1.3,2.7-1.2,4.6
			c0.2,2.9,1.8,5.4,4.3,6.8"/>
		<path fill="none" stroke="#713F2A" stroke-width="0.987" d="M197.8,186.1c-2.5,0.3-4.4,2.4-4.5,5c0,3.3,0.8,4.6,2.7,7.1
			c1.9,2.5,7.9,7.1,7.9,12.4c0,3.2-0.9,5.2-3.2,6.3c-1.5,0.7-3.2-0.1-4-0.8c-1.9-1.7-1.2-4.8,0.9-5.2c2.4-0.4,2.9,3.4,0.5,3.1
			 M193.6,189.3c-1.9,0.1-3.7,1.8-3.7,3.8c0,2.9,1.1,4.2,3.4,7c2,2.4,7.5,6.7,7.4,10.8c-0.1,1.6-1.1,3.5-2.1,3.2"/>
		<path fill="none" stroke="#713F2A" stroke-width="0.987" stroke-linecap="round" d="M189.2,246.6c0.9-2.1,3.2-1.2,3.3,0
			c0.3,2.7-2.1,3.6-3.8,3.1c-0.8-0.2-1.5-0.7-1.9-1.4c-0.5-0.8-0.6-1.8-0.3-2.8c0.1-0.4,0.3-0.9,0.6-1.2c0.3-0.4,0.6-0.7,1-0.9
			c0.7-0.4,1.4-0.5,2.5-0.5c4.1,0,7.8,4.9,9,10c0.7,2.9,0.7,6,0.2,9c-0.6,3.2-2.1,6.1-4.4,8.4c-1.3,1.2-2.7,2.3-4.3,3.1
			c-1,0.5-2,0.9-3.1,1.3c-1,0.3-2,0.3-2.9,0.1c-2.1-0.6-3.5-2.6-2.4-5.2c0.9-2,4-3,5.4-0.5c0.2,0.4,0.3,0.7,0.3,1.1
			c0,0.7-0.2,1.3-0.7,1.7c-1.1,0.7-2.8,0.5-2.7-1.4"/>
		<path fill="none" stroke="#713F2A" stroke-width="0.987" d="M186,272.1c0.8,0.3,1.2,0.3,2.2-0.2c0.4-0.2,0.9-0.4,1.4-0.8
			c1.9-1.1,4.1-2.8,6.3-6.7c0.6-1.1,1-2.2,1.3-3.3c0.2-0.8,0.3-1.6,0.4-2.5c0-1.6-0.1-3.1-0.5-4.6c-0.4-2.5-1.5-4.8-3-6.7
			c-0.9-1.2-1.6-1.9-3.2-1.9 M183.7,268.4c-0.3-1.6,0.7-3.1,2.3-3.4c1.6-0.3,3.1,0.7,3.4,2.3c0.2,1.1-0.2,2.1-1.1,2.8 M184.8,265.5
			c0.2-1.5,1.6-2.5,3.1-2.3c1.4,0.2,2.4,1.4,2.3,2.8c0,0.7-0.3,1.4-0.8,1.9"/>
		<path fill="none" stroke="#713F2A" stroke-width="0.987" d="M190.1,265.3c2.9-2.2,4.6-5.6,4.6-9.2c0-3.1-1.2-6.2-2.7-7.4"/>
		<path fill="none" stroke="#713F2A" stroke-width="0.987" stroke-linecap="round" d="M194.1,263.9c-1.1,1.8-2.7,3.4-4.6,4.4"/>
		<path fill="none" stroke="#713F2A" stroke-width="0.987" d="M201.5,274.6c-0.7-1.6-2.1-2.4-4.3-2.6c-2.2-0.2-4.1,0.4-6.1,1.4
			c-3.8,2.1-6,4.3-7.4,8.4c-0.4,1.4-0.7,2.8-0.6,4.3c0.1,2.7,0.7,5.6,1.5,7c0.6,1.2,2.3,6.7,11.4,10.4c5.3,2.2,13.5,2.7,19.1,2.9
			c7.7,0.3,14.9,0.6,19,5.7"/>
		<path fill="none" stroke="#713F2A" stroke-width="0.987" stroke-linecap="round" d="M190.4,276.2c2.4-1.6,7.1-3.7,11.2-1.6
			c1.6,0.8,2.6,1.7,3.2,3.3c0.8,2.4,0.3,5.1-1.3,7.1c-0.6,0.7-2,1.9-3.7,2c-2.8,0-3.5-1.9-3.6-2.4c-0.3-2,0.9-2.9,1.5-3.1
			c0.5-0.2,2.1-0.1,2.4,1c0.1,0.5,0.1,1-0.2,1.5"/>
		<path fill="none" stroke="#713F2A" stroke-width="0.987" d="M200.1,283.5c0.3-0.9,0-1.8-0.6-2.5c-1.2-1.1-2.9-1.4-4.4-0.7
			c-0.7,0.4-1.4,0.9-1.9,1.6l-0.9,1.2c-0.3,0.6-0.6,1.2-0.8,1.9c-1.8,5.2,1.1,10.7,4.9,13.1c3.3,2.1,6.6,2.7,10.7,3
			c1.9,0.2,3,0.2,4.9,0.3c1.5,0.1,2.9,0,4.1,0l3,0c1.8-0.1,3.6,0,5.4,0.1c2.2,0.2,3.8,0.2,5.6,0.5c1.2,0.2,2.6,0.4,4.1,0.7
			c0.4,0.1,0.9,0.2,1.3,0.3l0.9,0.3c2.5,0.7,5,1.8,7.3,3.1c0.7,0.4,1.3,0.8,1.8,1.3c0.4,0.4,0.7,0.6,1,0.9c1.4,1.4,2.9,2.9,3.2,5
			c0.1,0.4,0.1,0.8,0.1,1.2c0,1.3-1.1,3.1-4,3.7"/>
		<path fill="none" stroke="#713F2A" stroke-width="0.987" d="M234.2,315.3c-0.8,1.6,0.1,2.4,1.2,2.5c1.6,0.2,2.4-1.1,2.6-2.2
			c0.1-1.8-1.2-3.4-3-3.5l-0.2,0c-1.6,0.1-3.1,1.1-3.7,2.6c-0.2,0.6-0.4,1.2-0.4,1.8c-0.1,1.1,0.3,2.2,1.1,3.1c1,1.1,2.5,1.8,4,1.8
			c3.1,0.1,5.6-2.8,5.6-5.8c0-5.7-8.5-8.9-11.9-9.7c-4.1-1-6.7-1.4-13.3-1.7c-2.7-0.1-4.6-0.1-7.6-0.4c-2.3-0.2-4.5-0.5-6.7-1
			c-3.5-0.7-6.7-2.4-9.3-4.7c-2.2-2-3.4-3.4-4.4-6.1c-0.9-2.3-1.3-7,0.9-10.4c1.7-2.8,4.5-4.6,7.7-5c2.8-0.4,5.2,0.8,6.7,3.6
			c0.7,1.3,0.5,3.6-0.1,4.6c-0.7,1.3-2.1,2.1-3.6,2.2c-2.8,0-3.5-1.9-3.6-2.4c-0.3-2,0.9-2.9,1.5-3.1c0.5-0.2,2.1-0.1,2.4,1
			c0.1,0.5,0.1,1-0.2,1.5"/>
		<path fill="none" stroke="#713F2A" stroke-width="0.987" stroke-linecap="round" d="M215.4,184.1l-0.3-0.4
			c-1.3-1.9-3.5-2.3-5.1-1.1c-2,1.5-2.5,4-1.9,6.7c0.4,1.7,1.5,3.2,3,4.1"/>
		<path fill="none" stroke="#713F2A" stroke-width="0.987" d="M284.9,189.7c-3,3.3-6,4.3-10.5,4.4c-1.4,0-4.1-0.4-5.6-1.6
			c-1-0.7-2.1-1.9-1.4-4c0.5-1.4,2.7-5.4,2.8-8.1c0.2-4.2-1.4-6.5-4-7.4c-4.7-1.6-9.7,3-12.7,4c-1.2,0.4-2.5,0.6-3.8,0.6
			c-1.3,0-2.6-0.2-3.8-0.6c-3-1-8-5.6-12.7-4c-2.5,0.9-4.1,3.2-4,7.4c0.1,2.7,2.4,6.7,2.8,8.1c0.7,2.1-0.4,3.3-1.4,4
			c-1.6,1.1-4.2,1.6-5.6,1.6c-4.5-0.1-7.5-1.2-10.5-4.4"/>
		<path fill="none" stroke="#713F2A" stroke-width="0.987" stroke-linecap="round" d="M233.3,304.9c0.6,0.2,0.1-0.1,3.9,1.5
			c3.6,1.6,6.2,3,8.4,6.5c0.6,1.1,0.9,2.4,0.9,3.6c0,0.6-0.1,1.2-0.2,1.8"/>
		<path fill="none" stroke="#713F2A" stroke-width="0.987" d="M233.5,321c0.8,0.4,1.6,0.6,2.4,0.6c3.1,0.1,5.6-2.8,5.6-5.8
			c0-2.1-1.1-3.8-2.7-5.2"/>
		<path fill="none" stroke="#713F2A" stroke-width="0.987" stroke-linecap="round" d="M234.2,315.3c-0.8,1.7,0.3,2.6,1.4,2.7
			c1.3,0.1,2.4-0.8,2.6-2.1c0,0,0,0,0,0l0-0.2c0.1-1.2-0.5-2.4-1.6-3.1"/>
		<path fill="none" stroke="#713F2A" stroke-width="0.987" d="M302.3,186.1c2.4,0,4.5,2.7,4.5,5.4c0,3.1-1.7,5.1-2.9,6.5
			c-1,1.2-2.1,2.2-3.3,3.5"/>
		<path fill="none" stroke="#713F2A" stroke-width="0.987" stroke-linecap="round" d="M299.5,183.6c0.8,0.4,1.6,1,2.1,1.8
			c1,1.5,1.3,2.7,1.2,4.6c-0.1,3.1-2.4,5.3-4.4,6.6 M294.8,183.6c0.2,0.1,0.3,0.3,0.5,0.5c1.4,1.6,1.5,4,1.1,5.4
			c-0.5,2-1.2,2.9-2.8,4.1 M289.8,182.8c2,1.5,2.5,4,1.9,6.7c-0.5,1.9-1.6,3-3.1,3.9 M296.9,223.9c0.2,0.7,0.6,0.9,1.1,1.4
			c1.3,1.3,2.8,2.2,4.6,2.6c1.6,0.5,3.3,0.2,4.7-0.7 M186,267.5c0.9,0,1.8,0.6,2.4,1.7c0.2,0.4,0.3,0.7,0.3,1.1
			c0,0.6-0.3,1.2-0.8,1.6c-1.1,0.7-3,0.4-2.9-1.5"/>
		<path fill="none" stroke="#713F2A" stroke-width="0.987" d="M191.7,243c3.7,0.7,7.2,5.1,8.4,9.9c0.7,2.9,0.7,6,0.2,9
			c-0.6,3.2-2.1,6.1-4.4,8.4c-0.5,0.5-1,1-1.6,1.4l-0.8,0.5 M187.6,263.2c1.5,0,2.8,1.4,2.8,3c0,0.7-0.3,1.4-0.8,1.9 M186.6,264.9
			c1.7,0.1,3,1.4,3.1,3.1c0,0.9-0.4,1.7-1.1,2.3"/>
		<path fill="none" stroke="#713F2A" stroke-width="0.987" stroke-linecap="round" d="M201,249.1c1.4,1.9,2.4,3.6,2.8,5.7
			 M203.8,261.2c-0.2,1-0.6,2.1-1.1,3c-0.7,1.3-1.6,2.5-2.6,3.5"/>
		<path fill="none" stroke="#713F2A" stroke-width="0.987" d="M201.2,237.8c1.2,0.9,2.2,2.1,2.6,3.6"/>
		<path fill="none" stroke="#713F2A" stroke-width="0.987" stroke-linecap="round" d="M203.9,234.2c-0.4,1.3-1.2,2.2-2.5,3.4
			 M194.6,224.9l1.6-0.4l0.9-0.7l0.6-0.9l0.5-1.4l0.2-1.1"/>
		<path fill="none" stroke="#713F2A" stroke-width="0.987" d="M191.3,219.2c-0.6,0.2-1.2,0.4-1.8,0.6c-1,0.5-2,1.2-2.6,2.2
			c-0.9,1.3-1.4,3-1.7,4.5c-0.2,1.6-0.2,3.3,0.1,5c0.3,1.5,0.9,2.9,1.7,4.2c0.2,0.4,0.5,0.7,0.8,1c1,1,1.9,1.6,3.3,1.3"/>
		<path fill="none" stroke="#713F2A" stroke-width="0.987" stroke-linecap="round" d="M200.3,212.2c-0.3,1-0.8,2.1-2.3,2"/>
		<path fill="none" stroke="#713F2A" stroke-width="0.987" d="M194.8,218.6c-1.4-1.4-4.5-1.8-7.5,0.1c-0.4,0.3-0.8,0.6-1.2,0.9
			c-0.4,0.3-0.8,0.7-1.1,1.2c-0.4,0.6-0.7,1.2-1,1.8c-0.3,0.6-0.5,1.3-0.7,2c-0.4,1.5-0.6,3.1-0.5,4.7c0.1,0.7,0.2,1.4,0.3,2
			c0.3,1.6,0.8,3.2,1.7,4.6c0.7,1.1,2.3,3.7,5.7,4c1.3,0.1,3.6-0.5,3.7-2.2"/>
		<path fill="none" stroke="#713F2A" stroke-width="0.987" stroke-linecap="round" d="M282.7,187.8c0.2-1.2,1.7-1.5,2.3-0.7
			c0.9,1.1,0.3,3-1.5,3.6c-1.1,0.2-2.2-0.2-2.9-1c-1-1.5-0.7-3.5,0.8-4.5l0.1-0.1c2-1.5,5.3-1.2,6.4,1.4c1.4,3.3-1.6,5.8-4.4,7.7
			c-3.5,2.4-7.5,2.8-10.5,2.8c-6.8-0.1-12-3.3-15.4-5.2c-0.8-0.4-1.6-0.3-2,0.1c-0.5,0.6-0.4,1.5,0.2,2 M284.1,186.6
			c0.5,0,0.9,0.2,1.1,0.6c0.9,1.1,0.2,3-1.5,3.6 M297,229.2c-2.6,2.8-0.2,7.7,1.7,8.8c0.7,0.5,1,0.2,1.5,0.6"/>
		<path fill="none" stroke="#713F2A" stroke-width="0.987" d="M297.1,223.8c-0.9,0.6-1.2,1.3-1.2,2.4c-0.1,1.1,0.3,2.2,1,3
			c1.4,1.5,4.2,2.8,6.9,2.8c1.6,0,3.2-0.4,4.5-1.3c1.4-0.9,2.4-2.4,2.9-4 M295.6,272.6c0,0.6,0,1.2-0.1,1.9
			c-0.4,3.6-2.1,6.9-4.7,9.4c-1.2,1.3-2.7,2.3-4.3,3c-1.5,0.8-3.2,1.3-4.9,1.6c-1.7,0.4-3.4,0.6-5.1,0.6c-1.6,0.1-3.2,0-4.7-0.1
			c-2-0.1-3.1-0.4-5-0.6c-1.4-0.2-2.8-0.3-4.2-0.3c-1.4,0-2.9,0.1-4.3,0.3c-1.3,0.2-2.6,0.6-3.9,1.1c-2,0.8-4.3,2.2-4.7,2.9
			c-0.5-0.6-2.7-2-4.7-2.9c-1.2-0.5-2.5-0.9-3.9-1.1c-1.4-0.2-2.8-0.3-4.3-0.3c-1.4,0-2.8,0.1-4.2,0.3c-2,0.2-3.1,0.4-5,0.6
			c-1.6,0.1-3.1,0.2-4.7,0.1c-1.7,0-3.4-0.2-5.1-0.6c-1.7-0.3-3.3-0.9-4.9-1.6c-1.6-0.7-3.1-1.8-4.3-3c-2.6-2.5-4.2-5.8-4.7-9.4
			c-0.1-0.6-0.1-1.2-0.1-1.9v-75.7h91.7L295.6,272.6L295.6,272.6L295.6,272.6L295.6,272.6z"/>
	</g>
	<path fill="#C6AA76" stroke="#C7B37F" stroke-width="0.513" d="M196.5,283.5c0-1,0.8-1.9,1.9-1.9c1,0,1.9,0.8,1.9,1.9v0
		c0,1-0.8,1.9-1.9,1.9C197.3,285.3,196.5,284.5,196.5,283.5L196.5,283.5z M185.1,270.3c0-0.9,0.6-1.7,1.3-1.7s1.3,0.7,1.3,1.7
		c0,0.9-0.6,1.7-1.3,1.7S185.1,271.2,185.1,270.3L185.1,270.3z"/>
	<path fill="#C6AA76" d="M191.6,237.3c0.1-0.7,0.7-1.2,1.4-1.2c0.7,0.1,1.2,0.7,1.2,1.4c-0.1,0.7-0.6,1.2-1.3,1.2
		C192.1,238.6,191.6,238,191.6,237.3L191.6,237.3z M214.4,188.5c0-0.7,0.6-1.1,1.3-1.1c0.7,0,1.1,0.6,1.1,1.3c0,0.6-0.5,1-1.1,1.1
		C215,189.7,214.4,189.2,214.4,188.5L214.4,188.5L214.4,188.5z"/>
	<path fill="none" stroke="#C7B37F" stroke-width="0.987" stroke-linecap="round" d="M190.1,245c-0.5,0.2-0.8,0.6-1,1.1
		c-0.1,0.3-0.2,0.6-0.2,0.9 M192.4,266.8l0.7-0.8c0.2-0.2,0.4-0.5,0.5-0.7c0.2-0.3,0.2-0.4,0.4-0.7l0.5-1 M193.5,274l-1.1,0.5
		l-0.8,0.5l-0.9,0.6l-0.9,0.7 M200.9,248.2l-0.6-0.6l-0.7-0.6c-0.3-0.2-0.4-0.3-0.7-0.5"/>
	<path fill="none" stroke="#C7B37F" stroke-width="0.987" d="M201.2,238.3c-0.3,0.2-0.6,0.3-0.9,0.4c-0.4,0.1-0.7,0.2-1.1,0.2"/>
	<path fill="none" stroke="#C7B37F" stroke-width="0.987" stroke-linecap="round" d="M188.7,226c0.1,0.4,0.2,0.7,0.3,1.1
		c0.2,0.5,0.4,0.9,0.7,1.3c0.3,0.4,0.6,0.8,0.9,1.2c0.3,0.3,0.7,0.6,1,0.8c0.4,0.2,0.7,0.4,1.1,0.6 M192.1,226.6
		c0.3,0.2,0.6,0.3,0.9,0.5c0.3,0.1,0.6,0.2,0.9,0.3c0.4,0.1,0.8,0.2,1.3,0.2c0.5,0,0.9,0,1.4-0.1 M201.9,197.2l-1.5-0.9
		c-0.5-0.3-1-0.7-1.4-1.1c-0.3-0.3-0.6-0.6-0.9-1c-0.3-0.4-0.4-0.6-0.6-1 M203.1,189.8c0.1,0.4,0.3,0.9,0.5,1.3
		c0.3,0.6,0.6,1.1,1.1,1.5c0.7,0.7,1.2,0.9,2,1.6 M207.7,189.8c0.1,0.4,0.3,0.8,0.5,1.1c0.2,0.3,0.4,0.6,0.6,0.9
		c0.3,0.4,0.6,0.7,1,1c0.4,0.3,0.9,0.6,1.4,0.8"/>
	<path fill="#713F2A" stroke="#713F2A" stroke-width="0.277" d="M260,183.7c0-1.3-1.3-1.4-1.8-1.4c-1.4,0-1.7,0.9-3.5,1.8
		c-2.1,1.2-3.1,1.4-5,1.4c-1.9,0-2.9-0.3-5-1.4c-1.7-0.9-2-1.7-3.4-1.7c-1,0-1.7,0.8-1.7,1.8l0,0c0,0.2,0,0.4,0,0.6
		c0,0.1,0.1,0.1,0.2,0.2c0-0.5,0.1-0.9,0.4-1.3c0.3-0.4,0.7-0.6,1.2-0.6c1.4,0,1.9,0.9,3.6,1.8c2.1,1.2,3.1,1.4,5,1.4
		c1.9,0,2.9-0.3,5-1.4c1.7-0.9,2.2-1.9,3.6-1.9c0.5,0,0.9,0.3,1,0.8c0,0.2,0.1,0.4,0.1,0.6c0,0.1,0.1,0.1,0.1,0.1
		C260,184.3,260,184,260,183.7L260,183.7L260,183.7z"/>
	<path fill="#713F2A" d="M208.8,289.7c0.4-0.4,0.7-0.3,0.7-0.5c0.1-0.1-0.1-0.2-0.2-0.2c-0.2-0.1-0.4-0.1-0.6-0.2
		c-0.2-0.1-0.4-0.2-0.6-0.3c-0.1,0-0.3-0.1-0.4,0c-0.1,0.3,0.8,0.3,0.5,1c-0.1,0.3-0.3,0.6-0.6,0.9l-2,2.1c0,0-0.1,0.2-0.2,0.1
		c0,0,0-0.1,0-0.2l0-3c0-0.4,0-0.8,0.1-1.3c0.1-0.3,0.5-0.1,0.6-0.3c0.1-0.1,0-0.1-0.2-0.2c-0.1,0-0.3-0.1-0.8-0.3l-0.7-0.3
		c-0.1,0-0.3-0.2-0.4,0c0,0.1,0.1,0.1,0.1,0.2c0.2,0.1,0.4,0.4,0.4,0.7l0.1,5.5c0,0.4,0,0.5,0.1,0.5c0.1,0,0.1,0,0.3-0.2
		L208.8,289.7L208.8,289.7L208.8,289.7z"/>
	<path fill="#713F2A" d="M211.1,290.6c0.3-0.8,0.7-0.3,0.8-0.6c0-0.1,0-0.1-0.2-0.2l-1-0.3l-0.9-0.3c-0.1,0-0.3-0.1-0.3,0
		c-0.1,0.3,0.8,0.3,0.6,1.1l-1.3,4.1c-0.3,0.8-0.7,0.4-0.8,0.7c0,0,0,0.1,0.1,0.1l0.9,0.2l1.1,0.4c0.2,0.1,0.3,0,0.3-0.1
		c0.1-0.3-0.9-0.2-0.6-1.2L211.1,290.6L211.1,290.6L211.1,290.6z M213.8,291.4c0.2-0.5,0.4-0.4,0.7-0.4c0.8,0.2,1,1,0.8,1.8
		c-0.1,0.5-0.3,1-1.5,0.6c-0.2-0.1-0.5-0.2-0.5-0.4L213.8,291.4L213.8,291.4L213.8,291.4z M211.7,295c-0.3,1.1-0.9,0.6-0.9,0.9
		c-0.1,0.2,0.1,0.2,0.2,0.2l1.2,0.3c0.3,0.1,0.5,0.2,0.6,0.2c0.2,0.1,0.3,0,0.3-0.1c0.1-0.3-0.8-0.2-0.5-1.1l0.4-1.5
		c0.1-0.3,0.1-0.4,0.5-0.3c0.4,0.1,0.5,0.2,0.6,0.7l0.2,1.5c0.1,0.6,0.2,1.2,0.8,1.4c0.3,0.1,0.9,0.1,0.9-0.2c0-0.1,0-0.1-0.1-0.2
		c-0.1,0-0.2,0-0.3,0c-0.1,0-0.2-0.1-0.2-0.2L215,294c0-0.1,0.3-0.1,0.6-0.2c0.4-0.2,0.7-0.5,0.8-0.9c0.1-0.4,0.3-1.6-1.4-2.1
		l-1.6-0.4l-0.9-0.3c-0.1,0-0.2,0-0.2,0.1c-0.1,0.3,0.8,0.2,0.6,1.2L211.7,295L211.7,295L211.7,295z M218,296.9
		c-0.2,1-1,0.4-1.1,0.7c0,0.2,0.1,0.2,0.2,0.2l1.1,0.2l1.1,0.3c0.2,0.1,0.4,0.1,0.4-0.1c0.1-0.2-1-0.2-0.7-1.3l0.9-3.9
		c0.1-0.4,0.2-0.4,0.5-0.4l0.7,0.2c0.9,0.2,0.4,1.1,0.7,1.2c0.2,0,0.2-0.3,0.2-0.4l0.1-0.8c0-0.1,0-0.2-0.1-0.2l-2.4-0.5l-2.4-0.6
		c-0.1,0-0.1,0.1-0.2,0.2l-0.4,1.1c0,0.1-0.1,0.3,0,0.3c0.3,0.1,0.4-1.1,1.3-0.9l0.7,0.2c0.3,0.1,0.4,0.1,0.3,0.6L218,296.9
		L218,296.9L218,296.9z M227.4,294.5c0.3-0.5,0.6-0.4,0.7-0.6c0-0.1-0.1-0.1-0.3-0.2c-0.2,0-0.4,0-0.7-0.1c-0.2,0-0.4-0.1-0.7-0.2
		c-0.1,0-0.3-0.1-0.3,0.1c-0.1,0.3,0.8,0.1,0.6,1c-0.1,0.4-0.2,0.7-0.4,1l-1.6,2.5c0,0.1-0.1,0.2-0.1,0.2c0,0-0.1-0.1-0.1-0.2
		l-0.5-3c-0.1-0.4-0.1-0.8-0.1-1.3c0.1-0.4,0.5-0.1,0.6-0.4c0-0.1,0-0.1-0.3-0.2c-0.1,0-0.4,0-0.9-0.1l-0.8-0.2
		c-0.1,0-0.3-0.1-0.4,0.1c0,0.1,0.1,0.1,0.1,0.1c0.3,0.1,0.5,0.3,0.5,0.6l1,5.4c0.1,0.4,0.1,0.5,0.2,0.5c0.1,0,0.1,0,0.3-0.2
		L227.4,294.5L227.4,294.5L227.4,294.5z M227.9,299.5c0,0.2,0,0.3,0.2,0.4c0.4,0.2,0.8,0.4,1.3,0.5c1,0.2,1.9-0.5,2.1-1.6
		c0.2-1.1-0.3-1.6-1-2.1c-1-0.7-1.4-0.9-1.3-1.5c0-0.5,0.4-0.8,0.9-0.8c0,0,0.1,0,0.1,0c1.4,0.2,1.2,1.9,1.4,1.9
		c0.2,0,0.2-0.1,0.2-0.3l0.1-1.2c0-0.2,0.1-0.3-0.1-0.4c-0.1,0-0.3,0.1-0.4,0.1c-0.2,0-0.5-0.4-1.2-0.5c-0.9-0.2-1.7,0.5-1.8,1.5
		c-0.2,0.9,0.3,1.3,0.9,1.8c1.2,0.8,1.6,1,1.5,1.8c-0.1,0.6-0.6,1-1.2,1c0,0-0.1,0-0.1,0c-0.9-0.1-1.2-1-1.3-1.9
		c0-0.1,0-0.2-0.1-0.2c-0.2,0-0.2,0.2-0.2,0.4L227.9,299.5L227.9,299.5L227.9,299.5z M239.6,296.2c0.3-0.5,0.6-0.4,0.6-0.6
		c0-0.2-0.1-0.1-0.3-0.1c-0.2,0-0.4,0-0.7,0c-0.2,0-0.5-0.1-0.7-0.1c-0.1,0-0.3-0.1-0.3,0.1c0,0.3,0.8,0,0.7,0.9
		c0,0.4-0.2,0.7-0.3,1l-1.3,2.6c0,0.1-0.1,0.2-0.1,0.2c0,0-0.1-0.1-0.1-0.2l-0.8-2.9c-0.1-0.4-0.2-0.8-0.2-1.2
		c0-0.4,0.5-0.2,0.5-0.4c0-0.2,0-0.1-0.3-0.2c-0.1,0-0.4,0-0.9,0l-0.8-0.1c-0.1,0-0.4-0.1-0.4,0.1c0,0.1,0.1,0.1,0.1,0.1
		c0.3,0.1,0.5,0.3,0.5,0.6l1.6,5.3c0.1,0.4,0.2,0.5,0.3,0.5c0.1,0,0.1,0,0.2-0.3L239.6,296.2L239.6,296.2L239.6,296.2z"/>
	<path fill="#713F2A" d="M240.9,300.5c0,0.9-0.8,0.7-0.8,1.1c0,0.2,0.2,0.1,0.2,0.1l0.7,0l0.9,0c0.1,0,0.3,0,0.3-0.1
		c0-0.4-1,0.2-1-1.5l0-3c0-0.1,0-0.1,0.1-0.1c0,0,0.1,0,0.1,0.1l3.8,4.7c0,0.1,0.1,0.1,0.2,0.1c0.1,0,0.1-0.1,0.1-0.3l0-5
		c0-0.9,0.7-0.7,0.7-1c0,0,0-0.1-0.2-0.1c-0.1,0-0.4,0-0.9,0l-0.9,0c-0.1,0-0.1,0.1-0.1,0.1c0,0.3,1,0.1,1,1l0,3
		c0,0.2,0,0.3-0.1,0.3s-0.1-0.1-0.2-0.2l-3.2-3.9c-0.1-0.2,0-0.2-0.3-0.2c-0.4,0-0.6,0-0.8,0c-0.2,0-0.3,0-0.4,0
		c-0.1,0-0.1,0.1-0.1,0.1c0,0,0,0,0,0c0,0.4,0.9-0.1,0.9,1.6L240.9,300.5L240.9,300.5z M248.6,296.5c0-0.8,0.6-0.5,0.6-0.8
		c0-0.1,0-0.1-0.3-0.1c-0.5,0-0.7,0-1,0c-0.3,0-0.6,0-0.9,0c-0.1,0-0.3,0-0.3,0.1c0,0.3,0.9,0.1,0.9,0.9l0,4.3
		c0,0.8-0.6,0.6-0.6,0.9c0,0,0,0.1,0.1,0.1c0.2,0,0.6,0,0.9,0l1.2,0c0.2,0,0.3,0,0.3-0.1c0-0.3-0.9,0.1-0.9-1L248.6,296.5z
		 M252,300.6c0,1.1-0.9,0.6-0.9,1c0,0.2,0.1,0.2,0.3,0.2l1.1,0l1.1,0c0.2,0,0.4,0,0.4-0.2c0-0.2-1,0-1-1.1l0-4
		c0-0.4,0.1-0.5,0.4-0.5l0.7,0c0.9,0,0.7,0.9,1,0.9c0.2,0,0.1-0.3,0.1-0.5l-0.1-0.8c0-0.1,0-0.2-0.1-0.2l-2.4,0.1
		c-1.2,0-1.7,0-2.4,0c-0.1,0-0.1,0.1-0.1,0.2l-0.1,1.2c0,0.1-0.1,0.3,0.1,0.3c0.4,0,0.1-1.2,1-1.2l0.7,0c0.3,0,0.4,0,0.4,0.5
		L252,300.6L252,300.6L252,300.6z M256.6,298.9c-0.1,0-0.3,0-0.3-0.1c0-0.1,0-0.2,0.1-0.3l0.5-1.6c0-0.1,0.1-0.1,0.1-0.1
		c0,0,0,0,0.1,0.1l0.8,1.6c0.1,0.1,0.1,0.2,0.1,0.3c0,0.1-0.1,0.1-0.2,0.1L256.6,298.9L256.6,298.9L256.6,298.9z M258,299.3
		c0.2,0,0.3,0.1,0.6,0.7c0.1,0.2,0.2,0.4,0.2,0.6c0,0.5-0.5,0.5-0.5,0.7c0,0.1,0.1,0.1,0.3,0.1l0.9-0.1l1,0c0.2,0,0.3,0,0.3-0.2
		c0-0.3-0.4,0.1-0.7-0.5l-2.6-5.3c-0.1-0.3-0.1-0.3-0.2-0.3c-0.1,0-0.1,0.2-0.2,0.3l-1.7,5.5c-0.2,0.5-0.6,0.5-0.6,0.7
		c0,0.1,0.1,0.1,0.2,0.1c0.2,0,0.5-0.1,0.7-0.1l0.8,0c0.2,0,0.4,0,0.4-0.2c0-0.2-0.9,0-0.9-0.7c0-0.2,0-0.5,0.1-0.7
		c0.1-0.6,0.3-0.6,0.4-0.7L258,299.3L258,299.3L258,299.3z M264.2,295.6c-0.1-0.6,0-0.6,0.9-0.7c1.5-0.2,1,0.9,1.4,0.9
		c0.2,0,0.1-0.3,0.1-0.4l-0.1-0.9c0-0.1-0.1-0.2-0.2-0.1l-1.8,0.3l-2.1,0.2c-0.1,0-0.2,0.1-0.2,0.2l0,0c0,0.4,0.9,0,1,0.7l0.5,4.1
		c0.1,1.1-0.5,0.7-0.5,1.1c0,0.1,0.1,0.1,0.2,0.1l1-0.2l0.9-0.1c0.2,0,0.4,0,0.3-0.2c0-0.2-0.9,0.1-1-0.9l-0.2-1.3
		c-0.1-0.5-0.1-0.6,0.3-0.7l0.6-0.1c0.8-0.1,0.7,0.9,1,0.8c0.2,0,0.1-0.3,0.1-0.4l-0.3-1.6c0-0.2-0.1-0.2-0.2-0.2
		c-0.2,0-0.1,0.8-0.8,0.9l-0.5,0.1c-0.3,0-0.3,0-0.4-0.4L264.2,295.6L264.2,295.6L264.2,295.6z M267.1,297.6
		c0.3,1.8,1.6,2.8,3.2,2.5c2.5-0.5,2.6-2.7,2.4-3.9c-0.3-1.9-1.7-2.8-3.3-2.5C267.5,294.1,266.8,295.7,267.1,297.6L267.1,297.6
		L267.1,297.6z M268,296.9c-0.2-1.3-0.1-2.5,1.3-2.8c1-0.2,2.2,0.6,2.5,2.6c0.3,1.4,0,2.7-1.3,3C269.1,299.9,268.2,298.2,268,296.9z
		 M274.2,293.8c-0.1-0.5,0.1-0.6,0.4-0.6c0.8-0.2,1.4,0.3,1.6,1.2c0.1,0.5,0.2,1-1,1.3c-0.2,0.1-0.5,0.1-0.6-0.1L274.2,293.8
		L274.2,293.8L274.2,293.8z M274.2,298.1c0.3,1.1-0.4,1-0.4,1.2c0,0.2,0.2,0.1,0.3,0.1l1.2-0.3c0.3-0.1,0.5-0.1,0.7-0.1
		c0.2,0,0.2-0.1,0.2-0.2c-0.1-0.3-0.8,0.2-1-0.7l-0.4-1.5c-0.1-0.3-0.1-0.4,0.3-0.5c0.3-0.1,0.7,0,0.8,0.3l1,1.2
		c0.4,0.4,0.7,0.9,1.4,0.8c0.3-0.1,0.8-0.4,0.7-0.7c0-0.1-0.1-0.1-0.1-0.1l0,0c-0.1,0-0.1,0.1-0.2,0.1c-0.1,0-0.2,0-0.3-0.1
		l-1.8-2.1c0-0.1,0.2-0.2,0.4-0.5c0.2-0.3,0.3-0.8,0.2-1.2c-0.1-0.4-0.5-1.6-2.2-1.2l-1.6,0.4l-0.9,0.2c-0.1,0-0.2,0.1-0.1,0.2
		c0.1,0.3,0.8-0.2,1.1,0.8L274.2,298.1L274.2,298.1L274.2,298.1z M280.6,296.6c0.3,1-0.7,0.8-0.6,1.2c0,0.2,0.2,0.1,0.3,0.1l1.1-0.3
		l1.1-0.2c0.2-0.1,0.4-0.1,0.3-0.3c-0.1-0.2-1,0.3-1.3-0.8l-1-3.9c-0.1-0.4,0-0.5,0.3-0.6l0.7-0.2c0.9-0.3,0.9,0.8,1.2,0.7
		c0.2-0.1,0-0.4,0-0.5l-0.3-0.8c0-0.1-0.1-0.2-0.2-0.2l-2.4,0.6l-2.4,0.6c-0.1,0-0.1,0.2-0.1,0.2l0.2,1.2c0,0.1,0,0.3,0.2,0.3
		c0.3-0.1-0.2-1.2,0.7-1.4l0.6-0.2c0.3-0.1,0.4-0.1,0.5,0.4L280.6,296.6L280.6,296.6L280.6,296.6z M284.7,291.2
		c-0.2-0.8,0.4-0.7,0.4-1c0-0.1-0.1-0.1-0.3,0l-1,0.3l-0.9,0.2c-0.1,0-0.3,0-0.2,0.2c0.1,0.3,0.9-0.2,1.1,0.6l1.1,4.1
		c0.2,0.8-0.4,0.7-0.3,1c0,0,0,0.1,0.1,0.1l0.9-0.3l1.2-0.3c0.2,0,0.2-0.1,0.2-0.2c-0.1-0.3-0.8,0.4-1.1-0.7L284.7,291.2
		L284.7,291.2L284.7,291.2z M286.4,293.2c0.6,1.7,2,2.5,3.5,2c2.4-0.8,2.2-3,1.8-4.2c-0.6-1.8-2.1-2.5-3.6-2
		C286.3,289.6,285.8,291.3,286.4,293.2L286.4,293.2L286.4,293.2z M287.2,292.4c-0.4-1.2-0.4-2.5,0.9-3c1-0.3,2.2,0.3,2.8,2.2
		c0.5,1.4,0.4,2.7-0.9,3.1C288.7,295.2,287.6,293.6,287.2,292.4z M292.9,288.3c-0.2-0.5,0-0.6,0.3-0.7c0.8-0.3,1.4,0.2,1.7,1
		c0.2,0.5,0.3,1-0.8,1.4c-0.2,0.1-0.5,0.2-0.6,0L292.9,288.3L292.9,288.3L292.9,288.3z M293.4,292.5c0.4,1-0.3,1-0.2,1.3
		c0.1,0.2,0.2,0.1,0.3,0l1.1-0.5c0.3-0.1,0.5-0.2,0.7-0.2c0.2-0.1,0.2-0.1,0.2-0.2c-0.1-0.3-0.7,0.3-1.1-0.6l-0.6-1.4
		c-0.1-0.3-0.2-0.3,0.2-0.5c0.3-0.2,0.7-0.1,0.8,0.2l1.1,1.1c0.4,0.4,0.9,0.8,1.5,0.6c0.3-0.1,0.7-0.5,0.6-0.7
		c0-0.1-0.1-0.1-0.1-0.1l0,0c-0.1,0-0.1,0.1-0.2,0.1c-0.1,0.1-0.2,0-0.3,0l-2.1-1.8c0-0.1,0.2-0.2,0.3-0.5c0.2-0.4,0.2-0.8,0-1.2
		c-0.1-0.4-0.8-1.5-2.4-0.8l-1.5,0.6l-0.9,0.3c-0.1,0-0.1,0.1-0.1,0.2c0.1,0.3,0.8-0.3,1.2,0.6L293.4,292.5L293.4,292.5L293.4,292.5
		z"/>
	<path fill="#D52B1E" d="M208.5,201.5h39.1v39.1h-39.1V201.5z"/>
	<path fill="#FFFFFF" d="M226.9,232.3c0,0.9-0.2,1.7-0.4,2.5c-0.4,1.3-0.4,1.3-0.9,1.9c-0.5,0.7-1.1,1.4-1.8,1.9
		c-0.8,0.6-1.8,0.9-2.8,0.8c-2.6-0.2-3.8-3.1-4.4-5.4c-0.6-2.4-2.4-3.8-3.6-2.9c-0.7,0.5-0.7,1.4-0.1,2.2c0.5,0.6,1.2,1.1,2,1.3
		l-1.4,1.8c-1.8-0.3-3.3-1.7-3.6-3.5c-0.2-1.2,0.4-3.4,2.3-4.1c2.5-0.8,4.1,1,4.9,2.5c1.1,2.1,1.5,5.9,4.5,5.3
		c1.6-0.3,2.4-2.7,2.4-3.7l1.2-1.3L226.9,232.3L226.9,232.3L226.9,232.3L226.9,232.3z M229.3,232.3c0,0.9,0.2,1.7,0.4,2.5
		c0.4,1.3,0.4,1.3,0.9,1.9c0.5,0.7,1.1,1.4,1.8,1.9c0.8,0.6,1.8,0.9,2.8,0.8c2.6-0.2,3.8-3.1,4.4-5.4c0.6-2.4,2.4-3.8,3.6-2.9
		c0.7,0.5,0.7,1.4,0.1,2.2c-0.5,0.6-1.2,1.1-2,1.3l1.4,1.8c1.8-0.3,3.3-1.7,3.6-3.5c0.2-1.2-0.4-3.4-2.3-4.1c-2.5-0.8-4.1,1-4.9,2.5
		c-1.1,2.1-1.5,5.9-4.5,5.3c-1.6-0.3-2.4-2.7-2.4-3.7l-1.2-1.3L229.3,232.3L229.3,232.3L229.3,232.3L229.3,232.3z"/>
	<path fill="#FEDD00" d="M231.6,215.7l5.1-5.5c0.5-0.4,0.7-1,0.8-1.6l-1.1,0.2l-0.2-0.5l-0.1-0.5l1.4-0.3c0-0.2,0-0.4,0-0.7
		c0-0.2,0.1-0.4,0.1-0.6l-1.6,0.1c0.1-0.3,0.1-0.4,0.1-0.7c0.1-0.2,0.1-0.4,0.2-0.5l0.9-0.1c0.3,0,0.5,0,0.9,0
		c0.8-1.6,4.4-3,6.9-0.4c1.8,1.9,1.4,5.3-0.9,6.3c-1.1,0.5-2.4,0.3-3.3-0.5l0.9-1.8c1.3,0.8,2.4-0.2,2.3-1.2c0-1.2-0.9-2.1-2.1-2.1
		c-1.1-0.1-1.8,0.5-2.3,1.5c-0.3,0.6-0.2,1-0.3,1.7c0,0.6-0.1,1.2-0.3,1.8c-0.2,0.7-0.6,1.2-1.1,1.7l-5.3,5.7l-20.4,22.1l-1.5-1.4
		L231.6,215.7L231.6,215.7z"/>
	<path fill="#FFFFFF" d="M216.6,217.6c0,0,1.3,6.4,5.7,15.9c2.2-0.8,3.5-1.3,5.9-1.3s3.7,0.4,5.9,1.3c4.4-9.6,5.7-15.9,5.7-15.9
		l-11.5-14.8L216.6,217.6z"/>
	<path fill="#FEDD00" d="M229.2,207.8l8,10.3c0,0-1.1,5-4.3,12.5c-1.2-0.3-2.4-0.5-3.7-0.6L229.2,207.8L229.2,207.8z M227,207.8
		l-8,10.3c0,0,1.1,5,4.3,12.5c1.2-0.3,2.4-0.5,3.7-0.6L227,207.8L227,207.8z M251.8,201.5H291v39.1h-39.1V201.5z"/>
	<path fill="#D52B1E" d="M257.3,201.5h5.8v39.1h-5.8V201.5z M268.5,201.5h5.8v39.1h-5.8V201.5L268.5,201.5z M279.7,201.5h5.8v39.1
		h-5.8L279.7,201.5L279.7,201.5z"/>
	<path fill="#FEDD00" d="M208.7,274.5c0.2,1.1,0.5,2.2,1,3.1c0.7,1.1,0.4,1.1,2,2.9c0.9,0.9,1.9,1.6,3,2.1c1,0.5,2.1,0.9,3.3,1.2
		c2.6,0.7,5.2,0.9,7.9,0.8c1.6-0.1,3.3-0.3,4.9-0.5c1.8-0.3,3.5-0.4,5.3-0.5c1,0,2-0.1,2.9,0c1.2,0.1,2.3,0.2,3.5,0.5
		c1.8,0.4,3.5,0.9,5.2,1.5l0-40.8l-39.1,0v27.9C208.5,272.6,208.6,274,208.7,274.5L208.7,274.5L208.7,274.5z"/>
	<path fill="#D52B1E" stroke="#D52B1E" stroke-width="0.513" d="M213.2,281.6l1.8,1.1l2.5,0.9l0-38.8h-4.3L213.2,281.6L213.2,281.6z
		 M235,283.4l0-38.6h-4.4V284l4.3-0.5L235,283.4z M243.7,244.8h-4.3v38.8c1.5,0.2,2.9,0.4,4.3,0.8L243.7,244.8z M226.3,244.8v39.7
		c-1.5,0.1-2.9,0.1-4.4,0l0-39.7L226.3,244.8z"/>
	<path fill="#FEDD00" d="M290.8,274.5c-0.2,1.1-0.5,2.2-1,3.1c-0.7,1.1-0.4,1.1-2,2.9c-0.9,0.9-1.9,1.6-3,2.1
		c-1,0.5-2.1,0.9-3.3,1.2c-2.6,0.7-5.2,0.9-7.9,0.8c-1.6-0.1-3.3-0.3-4.9-0.5c-1.8-0.3-3.5-0.4-5.3-0.5c-1,0-2-0.1-2.9,0
		c-1.2,0.1-2.3,0.2-3.5,0.5c-1.8,0.4-3.5,0.9-5.3,1.5l0-40.8l39.1,0v27.9C291,272.6,290.9,274,290.8,274.5L290.8,274.5L290.8,274.5z
		"/>
	<path id="B" fill="#D52B1E" d="M261.9,248l-0.3,0.1c-0.1,0.1-0.2,0.3-0.4,0.4c-0.2,0.1-0.4,0.3-0.6,0.4c-0.1,0.1-0.2,0.1-0.3,0.2
		c-0.1,0.2,0,0.3-0.1,0.5c-0.1,0.2-0.2,0.3-0.3,0.4c-0.2,0.2-0.3,0.3-0.5,0.5c-0.1,0.2-0.3,0.3-0.5,0.5c-0.1,0-0.1,0.1-0.2,0.1
		c-0.1,0-0.2,0-0.3,0c-0.2,0.1-0.2,0.3-0.4,0.3c0.1,0.1,0.1,0.2,0.1,0.3c0.1,0.2,0.3,0.6,0.4,0.7c0.1,0.1,0.1,0.3,0.3,0.4
		c0.2,0.1,0.4,0.1,0.6,0.1c0.3,0,0.7,0.1,1,0.2c0.3,0.1,0.4,0.3,0.7,0.4c0.2,0.1,0.4,0.2,0.6,0.2c0.2,0,0.3,0.1,0.5,0
		c0.1,0,0.2-0.1,0.3-0.1c0,0,0,0,0.1,0l0,0.2c0,0,0,0,0,0v0h0l1,0.4c-0.1,0.2-0.2,0.4-0.1,0.6c0.3,0.9,0.6,1.5,0.7,1.5
		c0.3,0.1,0.4,0.4,0.6,0.7c-0.1,0.1-0.1,0.1-0.2,0.1c-0.3,0.3-0.6,0.5-0.8,0.9c-0.4,0.6-0.6,0.6-0.1,1.3c0.3,0.4,0.4,0.5,0.7,1.1
		c0.2,0.3,0.3,0.6,0.4,0.9c0.1,0.3,0.1,0.6,0.1,0.9l0.5,0.2l0.3-0.3l0.3-0.6l0-0.4c-0.1-0.1-0.2-0.2-0.1-0.4c0-0.2,0.2-0.1,0.3-0.3
		c0.1-0.2-0.2-0.3-0.3-0.5c-0.3-0.3-0.7-0.4-0.8-0.9c0-0.1,0-0.2,0.2-0.3l0.9-0.9c0.1,0.1,0.3,0.1,0.5,0.1c0.1,0,0.3,0.1,0.7,0.2
		c0.2,0.1,0.4,0.1,0.6,0l0.2,0c0,0.1,0.1,0.2,0.1,0.3c0,0.5-0.1,1.4,0.1,1.7c0.1,0.1,0.1,0.2,0.1,0.3c0.1,0.1,0.1,0.2,0.1,0.3v0.9
		c0,0.3-0.1,0.6-0.1,0.8c0,0.2-0.1,0.4-0.2,0.5c-0.1,0.2-0.3,0.2-0.5,0.3l0,0.5l0.5,0.2l0.6,0.1l0.3-0.1c0-0.1,0-0.2,0.1-0.3
		c0.1-0.1,0.1-0.2,0.2-0.3c0.2-0.1,0.4,0.1,0.4,0c0.1-0.1,0-0.2,0-0.4c0-0.3-0.1-0.5-0.1-0.8c-0.1-0.4-0.1-0.9-0.1-1.3
		c0-0.2,0-0.5,0.1-0.7c0.1-0.4,0.2-0.6,0.3-1c0.1-0.4,0.1-0.8,0.2-1.2c1.5,0.2,3,0.2,4.4-0.2c0.1,0,0.4-0.1,0.4-0.1
		c0.4,0.3,0.8,0.6,1.3,0.8c0,0,0,0.4,0,0.5c0,0.1,0,0.2,0.1,0.3c0,0.1,0.1,0.1,0.2,0.1c0.1,0,0.2,0,0.3-0.1c0.1-0.1,0.1-0.2,0.1-0.4
		c0-0.1,0-0.2,0-0.3c0.1,0,0.3,0,0.4,0c0.1,0,0.3,0,0.4,0l0,0.2c0,0.1,0,0.2,0,0.3c0,0.1,0.1,0.2,0.2,0.2c0.1,0,0.2,0,0.3,0
		c0.1-0.1,0.1-0.2,0.1-0.4c0-0.1,0-0.3,0-0.4l0.5-0.2c0,0.1,0,0.3,0,0.4c0,0.2-0.1,0.3-0.1,0.4c-0.1,0.2-0.2,0.5-0.4,0.7
		c-0.1,0.3-0.3,0.5-0.5,0.7l-0.3,0.3c-0.1,0.2-0.2,0.3-0.3,0.4c-0.1,0.2-0.3,0.4-0.4,0.5c-0.3,0.3-0.5,0.1-1,0.4l-0.1,0.5l0.7,0.3
		l0.6,0.1l0.2-0.1c0-0.1,0-0.3,0.1-0.4c0.1-0.1,0.2-0.2,0.4-0.2c0.2,0,0.4,0,0.5-0.1c0.2-0.1,0.2-0.4,0.3-0.7
		c0.4-0.7,0.8-1.3,1.4-1.9c0.3-0.3,0.5-0.4,0.8-0.7c0.1-0.2,0.2-0.2,0.3-0.4c0-0.1-0.1-0.2-0.1-0.3c0-0.2-0.1-0.3-0.1-0.5
		c0.7,0.4,0.5,0.3,0.6,0.7c0.1,0.3,0,0.5,0,0.8c0.1,0.4,0.2,0.5,0.3,0.9c0,0.4,0,0.7-0.1,1.1c0,0.3-0.1,0.6-0.2,1
		c-0.1,0.3-0.3,0.5-0.6,0.7c-0.1,0.1-0.2,0.1-0.3,0.2l-0.1,0.5l0.5,0.2l0.8,0.2l0.2-0.2c0.1-0.3,0-0.8,0.2-0.8c0.2,0,0.3,0,0.4-0.1
		c0-0.1,0-0.2,0-0.3l0.3-2.1l0.2-0.9c0-0.3,0.1-0.5,0.2-0.8c0.3-1-0.1-1.1-0.5-1.7c-0.2-0.2-0.3-0.5-0.3-0.7c0-0.4,0.1-0.7,0.1-1.3
		v-1.4c0.1,0,0.1-0.1,0.2-0.1c0.5-0.2,0.9-0.6,1.1-1.2c0.1-0.2,0.2-0.5,0.1-0.7c0-0.2,0-0.3,0-0.5c0-0.2-0.1-0.3-0.1-0.4
		c-0.1-0.1-0.2-0.3-0.3-0.4c-0.4-0.4-0.8-0.6-1.3-0.7c-0.6-0.2-1.3-0.3-2-0.3c-0.7-0.1-1.4-0.1-2,0c-1,0.1-1.5,0.2-2.4,0.4
		c-0.8,0.1-1.6,0.2-2.3,0.2c-1.1,0-2.1-0.2-2.8-0.2c-1.2,0.1-1.2,0.4-2.9,0.5l-1.8,0.1l-1-0.3c0.3-0.1,0.5-0.2,0.7-0.5
		c0.1-0.2,0.1-0.3,0.3-0.5c0.1-0.1,0.2-0.3,0.4-0.5c-0.1-0.1-0.3-0.2-0.4-0.2c-0.1,0-0.3,0-0.4,0c-0.2,0-0.4,0.1-0.6,0.2
		c-0.2,0.1-0.3,0.2-0.4,0.3c-0.3-0.2-0.7-0.4-1-0.6C262.8,248.2,262.3,248.1,261.9,248L261.9,248L261.9,248z M262.8,253.7
		L262.8,253.7C262.8,253.7,262.8,253.7,262.8,253.7L262.8,253.7z"/>
	<g>
		<path id="C" fill="none" stroke="#FEDF00" stroke-width="0.987" stroke-linecap="round" d="M282.9,254l-0.4,0.1
			c-0.4,0.2-0.8,0.2-1.2,0.2c-1.3,0.1-2-0.5-3.3-0.4c-0.7,0.1-1,0.6-1.6,0.7c-0.3,0.1-0.5,0.1-0.8,0.1l0.2-0.5
			c-0.3,0.1-0.7,0.1-1,0.1c-0.2,0-0.5,0-0.7-0.1l0.5-0.5c-0.2,0-0.4-0.1-0.6-0.2c-0.2-0.1-0.4-0.2-0.5-0.3l0.8-0.2
			c0.7-0.2,1-0.5,1.9-0.6c0.5-0.1,1.4,0,3.6,0.3c1.4,0.2,2.1,0.1,2.6-0.1c0.3-0.2,0.5-0.5,0.5-0.9c0-0.3-0.1-0.7-0.4-0.9
			c-0.2-0.1-0.3-0.2-0.5-0.2"/>
	</g>
	<g>
		<path id="D" fill="#FCD900" stroke="#FEDF00" stroke-width="0.513" d="M261.9,249.8c-0.2,0-0.5,0-0.6,0.1
			c-0.2,0.1-0.3,0.3-0.4,0.5c0.2,0,0.3,0.2,0.5,0.1c0.1,0,0.3-0.1,0.4-0.2C261.9,250.2,262,250,261.9,249.8L261.9,249.8L261.9,249.8
			L261.9,249.8z"/>
	</g>
	<g>
		<g>
			<path id="E" fill="none" stroke="#FEDF00" stroke-width="0.987" stroke-linecap="round" d="M267.3,256.1l0.2,0.4
				c0.1,0.2,0.2,0.5,0.2,0.7c0.1,0.3,0.1,0.7,0.1,1l0,0.2l0,0.5 M271.1,255.6l-0.2,0.6l-0.4,1.6l0,0.3 M265.3,256.3
				c0.4,0.1,0.3,1.6,0.9,1.9"/>
		</g>
		<path fill="none" stroke="#FEDF00" stroke-width="0.987" d="M278.8,258.9l0.2-0.1c0.5-0.2,0.9-0.5,1.3-0.9"/>
		<g>
			<path fill="none" stroke="#FEDF00" stroke-width="0.987" stroke-linecap="round" d="M275.1,258.1L275.1,258.1
				c1.7-0.4,2.8-1.3,3.6-1.4"/>
			<g>
				<path id="F" fill="none" stroke="#FEDF00" stroke-width="0.987" stroke-linecap="round" d="M276.8,256c0.1,0,0.3,0,0.4,0
					c0.7-0.1,0.8,0.3,1.3,0.6c0.9,0.5,1,1.1,2,1.6l0.2,0.1l0.4,0.2"/>
			</g>
		</g>
	</g>
	<g>
		<path id="G" fill="#FCD900" stroke="#FEDF00" stroke-width="0.513" d="M258.6,251.7c0.1,0,0.2,0,0.3,0c0.2,0,0.2-0.1,0.4-0.1
			c0.1,0,0.2,0,0.3,0.1c0.1,0,0.1,0.1,0.1,0.2c0,0.1,0.1,0.1,0.1,0.2c0,0.1-0.2,0.2-0.3,0.2c-0.1,0-0.2,0-0.3-0.1c0-0.1,0-0.1,0-0.2
			C259,252,258.7,251.9,258.6,251.7L258.6,251.7L258.6,251.7z"/>
	</g>
	<path fill="#005EB8" d="M262.1,256.3c-0.3-0.1-0.6-0.2-0.9-0.4c0.2-0.1,0.3-0.1,0.4-0.3c0.2-0.2,0.2-0.4,0.3-0.6
		c0.1-0.2,0.1-0.5,0.3-0.6c0.2-0.1,0.4-0.1,0.5-0.1c0.2,0.1,0.3,0.2,0.4,0.4c0.1,0.3-0.1,0.4-0.1,0.7c-0.1,0.2-0.1,0.5-0.1,0.7
		c0,0.1,0.1,0.3,0.2,0.4C262.7,256.4,262.4,256.3,262.1,256.3L262.1,256.3L262.1,256.3z M261.6,256.7c0-0.2,0.1-0.3,0.3-0.3
		c0.2,0,0.3,0.1,0.3,0.3c0,0.2-0.1,0.3-0.3,0.3C261.8,257,261.6,256.9,261.6,256.7L261.6,256.7z M260.8,248.8L260.8,248.8
		c-0.3-0.2-0.3-0.4-0.4-0.6c-0.1-0.2-0.1-0.4-0.2-0.5c0-0.2,0-0.3,0-0.5c0-0.1,0-0.3,0-0.4c0-0.2,0-0.3-0.1-0.4
		c0-0.1-0.2-0.2-0.1-0.2c0,0,0.1,0,0.2,0c0.2,0,0.3,0.1,0.4,0.2c0.2,0.1,0.3,0.3,0.3,0.5l0.2,0.7c0,0.1,0.1,0.2,0.1,0.3
		c0.1,0.1,0.2,0.2,0.2,0.3l0,0c-0.1,0.1-0.2,0.3-0.4,0.4C261.1,248.7,260.9,248.8,260.8,248.8L260.8,248.8L260.8,248.8L260.8,248.8z
		 M262.5,253.9l1.1,0.5c0.7-0.4,1.3-1.1,1.7-1.9c0.3-0.6,0.5-1.3,0.6-2.1l-0.9-0.3l-0.2,0c-0.2,0.7-0.4,1.4-0.8,2
		c-0.3,0.6-0.8,1-1.3,1.4L262.5,253.9L262.5,253.9L262.5,253.9z M264.9,262.5c0.1-0.2,0.3-0.4,0.4-0.6c0.2-0.2,0.4-0.4,0.6-0.5
		c0.1,0,0.2,0,0.2,0c0,0.2,0,0.5-0.1,0.7c0,0.2-0.1,0.4-0.2,0.6c0,0.2-0.1,0.3-0.2,0.5c-0.1,0.1-0.1,0.2-0.2,0.2
		C265.2,263.1,264.8,262.8,264.9,262.5L264.9,262.5L264.9,262.5z M280.6,263.4c0.5,0.1,1,0.4,1.4,0.7c0,0.1,0,0.2,0,0.2
		c-0.2,0.1-0.5,0.1-0.7,0.1c-0.2,0-0.4,0-0.6,0c-0.2,0-0.3,0-0.5-0.1c-0.1,0-0.2-0.1-0.3-0.1C280.1,263.9,280.3,263.5,280.6,263.4
		L280.6,263.4z M275.9,262.4c0.5,0.1,1,0.4,1.4,0.7c0,0.1,0,0.2,0,0.2c-0.2,0.1-0.5,0.1-0.7,0.1c-0.2,0-0.4,0-0.6,0
		c-0.2,0-0.3,0-0.5-0.1c-0.1,0-0.2-0.1-0.3-0.1C275.5,263,275.6,262.5,275.9,262.4z M267.7,263.5c0.2,0.1,0.5,0.2,0.7,0.3
		c0.2,0.1,0.5,0.3,0.7,0.4c0,0.1,0,0.2,0,0.2c-0.2,0.1-0.5,0.1-0.7,0.1c-0.2,0-0.4,0-0.6,0c-0.2,0-0.3,0-0.5-0.1
		c-0.1,0-0.2-0.1-0.3-0.1C267.2,264,267.4,263.5,267.7,263.5L267.7,263.5z M263.4,249.3c-0.3-0.1-0.5-0.5-0.3-0.8
		c0.1-0.1,0.2-0.1,0.3-0.2c0.1-0.1,0.1-0.3,0.1-0.4c0-0.2-0.1-0.3-0.1-0.4c0-0.2-0.1-0.3-0.1-0.5c0-0.3,0-0.5,0.2-0.7
		c0.1-0.1,0.2-0.2,0.4-0.3c0.1,0.1,0,0.2,0,0.4c0,0.2,0.1,0.4,0.1,0.5c0.1,0.3,0.2,0.4,0.3,0.6c0.1,0.2,0.2,0.4,0.2,0.6
		c0,0.2,0,0.4-0.1,0.5c-0.1,0.2-0.2,0.3-0.3,0.4c-0.1,0.1-0.2,0.2-0.4,0.2C263.6,249.3,263.5,249.3,263.4,249.3L263.4,249.3
		L263.4,249.3z"/>
	<path id="B_00000145033338409191949630000010661241224537708965_" fill="#D52B1E" d="M261.9,265.5l-0.3,0.1
		c-0.1,0.1-0.2,0.3-0.4,0.4c-0.2,0.1-0.4,0.3-0.6,0.4c-0.1,0.1-0.2,0.1-0.3,0.2c-0.1,0.2,0,0.3-0.1,0.5c-0.1,0.2-0.2,0.3-0.3,0.4
		c-0.2,0.2-0.3,0.3-0.5,0.5c-0.1,0.2-0.3,0.3-0.5,0.5c-0.1,0-0.1,0.1-0.2,0.1c-0.1,0-0.2,0-0.3,0c-0.2,0.1-0.2,0.3-0.4,0.3
		c0.1,0.1,0.1,0.2,0.1,0.3c0.1,0.2,0.3,0.6,0.4,0.7c0.1,0.1,0.1,0.3,0.3,0.4c0.2,0.1,0.4,0.1,0.6,0.1c0.3,0,0.7,0.1,1,0.2
		c0.3,0.1,0.4,0.3,0.7,0.4c0.2,0.1,0.4,0.2,0.6,0.2c0.2,0,0.3,0.1,0.5,0c0.1,0,0.2-0.1,0.3-0.1c0,0,0,0,0.1,0l0,0.2c0,0,0,0,0,0v0h0
		l1,0.4c-0.1,0.2-0.2,0.4-0.1,0.6c0.3,0.9,0.6,1.5,0.7,1.5c0.3,0.1,0.4,0.4,0.6,0.7c-0.1,0.1-0.1,0.1-0.2,0.1
		c-0.3,0.3-0.6,0.5-0.8,0.9c-0.4,0.6-0.6,0.6-0.1,1.3c0.3,0.4,0.4,0.5,0.7,1.1c0.2,0.3,0.3,0.6,0.4,0.9c0.1,0.3,0.1,0.6,0.1,0.9
		l0.5,0.2l0.3-0.3l0.3-0.6l0-0.4c-0.1-0.1-0.2-0.2-0.1-0.4c0-0.2,0.2-0.1,0.3-0.3c0.1-0.2-0.2-0.3-0.3-0.5c-0.3-0.3-0.7-0.4-0.8-0.9
		c0-0.1,0-0.2,0.2-0.3l0.9-0.9c0.1,0.1,0.3,0.1,0.5,0.1c0.1,0,0.3,0.1,0.7,0.2c0.2,0.1,0.4,0.1,0.6,0l0.2,0c0,0.1,0.1,0.2,0.1,0.3
		c0,0.5-0.1,1.4,0.1,1.7c0.1,0.1,0.1,0.2,0.1,0.3c0.1,0.1,0.1,0.2,0.1,0.3v0.9c0,0.3-0.1,0.6-0.1,0.8c0,0.2-0.1,0.4-0.2,0.5
		c-0.1,0.2-0.3,0.2-0.5,0.3l0,0.5l0.5,0.2l0.6,0.1l0.3-0.1c0-0.1,0-0.2,0.1-0.3c0.1-0.1,0.1-0.2,0.2-0.3c0.2-0.1,0.4,0.1,0.4,0
		c0.1-0.1,0-0.2,0-0.4c0-0.3-0.1-0.5-0.1-0.8c-0.1-0.4-0.1-0.9-0.1-1.3c0-0.2,0-0.5,0.1-0.7c0.1-0.4,0.2-0.6,0.3-1
		c0.1-0.4,0.1-0.8,0.2-1.2c1.5,0.2,3,0.2,4.4-0.2c0.1,0,0.4-0.1,0.4-0.1c0.4,0.3,0.8,0.6,1.3,0.8c0,0,0,0.4,0,0.5
		c0,0.1,0,0.2,0.1,0.3c0,0.1,0.1,0.1,0.2,0.1c0.1,0,0.2,0,0.3-0.1c0.1-0.1,0.1-0.2,0.1-0.4c0-0.1,0-0.2,0-0.3c0.1,0,0.3,0,0.4,0
		c0.1,0,0.3,0,0.4,0l0,0.2c0,0.1,0,0.2,0,0.3c0,0.1,0.1,0.2,0.2,0.2c0.1,0,0.2,0,0.3,0c0.1-0.1,0.1-0.2,0.1-0.4c0-0.1,0-0.3,0-0.4
		l0.5-0.2c0,0.1,0,0.3,0,0.4c0,0.2-0.1,0.3-0.1,0.4c-0.1,0.2-0.2,0.5-0.4,0.7c-0.1,0.3-0.3,0.5-0.5,0.7l-0.3,0.3
		c-0.1,0.2-0.2,0.3-0.3,0.4c-0.1,0.2-0.3,0.4-0.4,0.5c-0.3,0.3-0.5,0.1-1,0.4l-0.1,0.5l0.7,0.3l0.6,0.1l0.2-0.1c0-0.1,0-0.3,0.1-0.4
		c0.1-0.1,0.2-0.2,0.4-0.2c0.2,0,0.4,0,0.5-0.1c0.2-0.1,0.2-0.4,0.3-0.7c0.4-0.7,0.8-1.3,1.4-1.9c0.3-0.3,0.5-0.4,0.8-0.7
		c0.1-0.2,0.2-0.2,0.3-0.4c0-0.1-0.1-0.2-0.1-0.3c0-0.2-0.1-0.3-0.1-0.5c0.7,0.4,0.5,0.3,0.6,0.7c0.1,0.3,0,0.5,0,0.8
		c0.1,0.4,0.2,0.5,0.3,0.9c0,0.4,0,0.7-0.1,1.1c0,0.3-0.1,0.6-0.2,1c-0.1,0.3-0.3,0.5-0.6,0.7c-0.1,0.1-0.2,0.1-0.3,0.2l-0.1,0.5
		l0.5,0.2l0.8,0.2l0.2-0.2c0.1-0.3,0-0.8,0.2-0.8c0.2,0,0.3,0,0.4-0.1c0-0.1,0-0.2,0-0.3l0.3-2.1l0.2-0.9c0-0.3,0.1-0.5,0.2-0.8
		c0.3-1-0.1-1.1-0.5-1.7c-0.2-0.2-0.3-0.5-0.3-0.7c0-0.4,0.1-0.7,0.1-1.3v-1.4c0.1,0,0.1-0.1,0.2-0.1c0.5-0.2,0.9-0.6,1.1-1.2
		c0.1-0.2,0.2-0.5,0.1-0.7c0-0.2,0-0.3,0-0.5c0-0.2-0.1-0.3-0.1-0.4c-0.1-0.1-0.2-0.3-0.3-0.4c-0.4-0.4-0.8-0.6-1.3-0.7
		c-0.6-0.2-1.3-0.3-2-0.3c-0.7-0.1-1.4-0.1-2,0c-1,0.1-1.5,0.2-2.4,0.4c-0.8,0.1-1.6,0.2-2.3,0.2c-1.1,0-2.1-0.2-2.8-0.2
		c-1.2,0.1-1.2,0.4-2.9,0.5l-1.8,0.1l-1-0.3c0.3-0.1,0.5-0.2,0.7-0.5c0.1-0.2,0.1-0.3,0.3-0.5c0.1-0.1,0.2-0.3,0.4-0.5
		c-0.1-0.1-0.3-0.2-0.4-0.2c-0.1,0-0.3,0-0.4,0c-0.2,0-0.4,0.1-0.6,0.2c-0.2,0.1-0.3,0.2-0.4,0.3c-0.3-0.2-0.7-0.4-1-0.6
		C262.8,265.7,262.3,265.5,261.9,265.5L261.9,265.5L261.9,265.5z M262.8,271.1L262.8,271.1C262.8,271.1,262.8,271.1,262.8,271.1
		L262.8,271.1z"/>
	<g>
		
			<path id="C_00000010997962793229461800000015519669872614847162_" fill="none" stroke="#FEDF00" stroke-width="0.987" stroke-linecap="round" d="
			M282.9,271.5l-0.4,0.1c-0.4,0.2-0.8,0.2-1.2,0.2c-1.3,0.1-2-0.5-3.3-0.4c-0.7,0.1-1,0.6-1.6,0.7c-0.3,0.1-0.5,0.1-0.8,0.1l0.2-0.5
			c-0.3,0.1-0.7,0.1-1,0.1c-0.2,0-0.5,0-0.7-0.1l0.5-0.5c-0.2,0-0.4-0.1-0.6-0.2c-0.2-0.1-0.4-0.2-0.5-0.3l0.8-0.2
			c0.7-0.2,1-0.5,1.9-0.6c0.5-0.1,1.4,0,3.6,0.3c1.4,0.2,2.1,0.1,2.6-0.1c0.3-0.2,0.5-0.5,0.5-0.9c0-0.3-0.1-0.7-0.4-0.9
			c-0.2-0.1-0.3-0.2-0.5-0.2"/>
	</g>
	<g>
		<path id="D_00000121245331661615786190000016446098359993422739_" fill="#FCD900" stroke="#FEDF00" stroke-width="0.513" d="
			M261.9,267.2c-0.2,0-0.5,0-0.6,0.1c-0.2,0.1-0.3,0.3-0.4,0.5c0.2,0,0.3,0.2,0.5,0.1c0.1,0,0.3-0.1,0.4-0.2
			C261.9,267.6,262,267.4,261.9,267.2L261.9,267.2L261.9,267.2L261.9,267.2z"/>
	</g>
	<g>
		<g>
			
				<path id="E_00000088092282168738912340000000635210998045537204_" fill="none" stroke="#FEDF00" stroke-width="0.987" stroke-linecap="round" d="
				M267.3,273.5l0.2,0.4c0.1,0.2,0.2,0.5,0.2,0.7c0.1,0.3,0.1,0.7,0.1,1l0,0.2l0,0.5 M271.1,273l-0.2,0.6l-0.4,1.6l0,0.3
				 M265.3,273.7c0.4,0.1,0.3,1.6,0.9,1.9"/>
		</g>
		<path fill="none" stroke="#FEDF00" stroke-width="0.987" d="M278.8,276.3l0.2-0.1c0.5-0.2,0.9-0.5,1.3-0.9"/>
		<g>
			<path fill="none" stroke="#FEDF00" stroke-width="0.987" stroke-linecap="round" d="M275.1,275.5L275.1,275.5
				c1.7-0.4,2.8-1.3,3.6-1.4"/>
			<g>
				
					<path id="F_00000062182313916187612580000011208627227608239787_" fill="none" stroke="#FEDF00" stroke-width="0.987" stroke-linecap="round" d="
					M276.8,273.4c0.1,0,0.3,0,0.4,0c0.7-0.1,0.8,0.3,1.3,0.6c0.9,0.5,1,1.1,2,1.6l0.2,0.1l0.4,0.2"/>
			</g>
		</g>
	</g>
	<g>
		<path id="G_00000093178782877012236910000005193158094276779678_" fill="#FCD900" stroke="#FEDF00" stroke-width="0.513" d="
			M258.6,269.1c0.1,0,0.2,0,0.3,0c0.2,0,0.2-0.1,0.4-0.1c0.1,0,0.2,0,0.3,0.1c0.1,0,0.1,0.1,0.1,0.2c0,0.1,0.1,0.1,0.1,0.2
			c0,0.1-0.2,0.2-0.3,0.2c-0.1,0-0.2,0-0.3-0.1c0-0.1,0-0.1,0-0.2C259,269.4,258.7,269.3,258.6,269.1L258.6,269.1L258.6,269.1z"/>
	</g>
	<path fill="#005EB8" d="M262.1,273.7c-0.3-0.1-0.6-0.2-0.9-0.4c0.2-0.1,0.3-0.1,0.4-0.3c0.2-0.2,0.2-0.4,0.3-0.6
		c0.1-0.2,0.1-0.5,0.3-0.6c0.2-0.1,0.4-0.1,0.5-0.1c0.2,0.1,0.3,0.2,0.4,0.4c0.1,0.3-0.1,0.4-0.1,0.7c-0.1,0.2-0.1,0.5-0.1,0.7
		c0,0.1,0.1,0.3,0.2,0.4C262.7,273.8,262.4,273.8,262.1,273.7L262.1,273.7L262.1,273.7z M261.6,274.1c0-0.2,0.1-0.3,0.3-0.3
		c0.2,0,0.3,0.1,0.3,0.3c0,0.2-0.1,0.3-0.3,0.3S261.6,274.3,261.6,274.1L261.6,274.1z M260.8,266.3L260.8,266.3
		c-0.3-0.2-0.3-0.4-0.4-0.6c-0.1-0.2-0.1-0.4-0.2-0.5c0-0.2,0-0.3,0-0.5c0-0.1,0-0.3,0-0.4c0-0.2,0-0.3-0.1-0.4
		c0-0.1-0.2-0.2-0.1-0.2c0,0,0.1,0,0.2,0c0.2,0,0.3,0.1,0.4,0.2c0.2,0.1,0.3,0.3,0.3,0.5l0.2,0.7c0,0.1,0.1,0.2,0.1,0.3
		c0.1,0.1,0.2,0.2,0.2,0.3l0,0c-0.1,0.1-0.2,0.3-0.4,0.4C261.1,266.1,260.9,266.2,260.8,266.3L260.8,266.3L260.8,266.3L260.8,266.3z
		 M262.5,271.3l1.1,0.5c0.7-0.4,1.3-1.1,1.7-1.9c0.3-0.6,0.5-1.3,0.6-2.1l-0.9-0.3l-0.2,0c-0.2,0.7-0.4,1.4-0.8,2
		c-0.3,0.6-0.8,1-1.3,1.4L262.5,271.3L262.5,271.3L262.5,271.3z M264.9,280c0.1-0.2,0.3-0.4,0.4-0.6c0.2-0.2,0.4-0.4,0.6-0.5
		c0.1,0,0.2,0,0.2,0c0,0.2,0,0.5-0.1,0.7c0,0.2-0.1,0.4-0.2,0.6c0,0.2-0.1,0.3-0.2,0.5c-0.1,0.1-0.1,0.2-0.2,0.2
		C265.2,280.5,264.8,280.3,264.9,280L264.9,280L264.9,280z M280.6,280.8c0.5,0.1,1,0.4,1.4,0.7c0,0.1,0,0.2,0,0.2
		c-0.2,0.1-0.5,0.1-0.7,0.1c-0.2,0-0.4,0-0.6,0c-0.2,0-0.3,0-0.5,0c-0.1,0-0.2-0.1-0.3-0.1C280.1,281.4,280.3,280.9,280.6,280.8z
		 M275.9,279.9c0.5,0.1,1,0.4,1.4,0.7c0,0.1,0,0.2,0,0.2c-0.2,0.1-0.5,0.1-0.7,0.1c-0.2,0-0.4,0-0.6,0c-0.2,0-0.3,0-0.5,0
		c-0.1,0-0.2-0.1-0.3-0.1C275.5,280.4,275.6,279.9,275.9,279.9z M267.7,280.9c0.2,0.1,0.5,0.2,0.7,0.3c0.2,0.1,0.5,0.3,0.7,0.4
		c0,0.1,0,0.2,0,0.2c-0.2,0.1-0.5,0.1-0.7,0.1c-0.2,0-0.4,0-0.6,0c-0.2,0-0.3,0-0.5-0.1c-0.1,0-0.2-0.1-0.3-0.1
		C267.2,281.4,267.4,281,267.7,280.9L267.7,280.9z M263.4,266.7c-0.3-0.1-0.5-0.5-0.3-0.8c0.1-0.1,0.2-0.1,0.3-0.2
		c0.1-0.1,0.1-0.3,0.1-0.4c0-0.2-0.1-0.3-0.1-0.4c0-0.2-0.1-0.3-0.1-0.5c0-0.3,0-0.5,0.2-0.7c0.1-0.1,0.2-0.2,0.4-0.3
		c0.1,0.1,0,0.2,0,0.4c0,0.2,0.1,0.4,0.1,0.5c0.1,0.3,0.2,0.4,0.3,0.6c0.1,0.2,0.2,0.4,0.2,0.6c0,0.2,0,0.4-0.1,0.5
		c-0.1,0.2-0.2,0.3-0.3,0.4c-0.1,0.1-0.2,0.2-0.4,0.2C263.6,266.8,263.5,266.7,263.4,266.7L263.4,266.7L263.4,266.7z"/>
	<path fill="none" stroke="#713F2A" stroke-width="0.797" d="M208.5,201.5h39.1v39.1h-39.1V201.5z M251.8,201.5H291v39.1h-39.1
		V201.5z M208.7,274.5c0.2,1.1,0.5,2.2,1,3.1c0.7,1.1,0.4,1.1,2,2.9c0.9,0.9,1.9,1.6,3,2.1c1,0.5,2.1,0.9,3.3,1.2
		c2.6,0.7,5.2,0.9,7.9,0.8c1.6-0.1,3.3-0.3,4.9-0.5c1.8-0.3,3.5-0.4,5.3-0.5c1,0,2-0.1,2.9,0c1.2,0.1,2.3,0.2,3.5,0.5
		c1.8,0.4,3.5,0.9,5.2,1.5l0-40.8l-39.1,0v27.9C208.5,272.6,208.6,274,208.7,274.5L208.7,274.5L208.7,274.5z M290.8,274.5
		c-0.2,1.1-0.5,2.2-1,3.1c-0.7,1.1-0.4,1.1-2,2.9c-0.9,0.9-1.9,1.6-3,2.1c-1,0.5-2.1,0.9-3.3,1.2c-2.6,0.7-5.2,0.9-7.9,0.8
		c-1.6-0.1-3.3-0.3-4.9-0.5c-1.8-0.3-3.5-0.4-5.3-0.5c-1,0-2-0.1-2.9,0c-1.2,0.1-2.3,0.2-3.5,0.5c-1.8,0.4-3.5,0.9-5.3,1.5l0-40.8
		l39.1,0v27.9C291,272.6,290.9,274,290.8,274.5L290.8,274.5L290.8,274.5z"/>
</g>
</svg>
