<?xml version="1.0" encoding="utf-8"?>
<!-- Generator: Adobe Illustrator 28.2.0, SVG Export Plug-In . SVG Version: 6.00 Build 0)  -->
<svg version="1.1" id="arg" xmlns="http://www.w3.org/2000/svg" xmlns:xlink="http://www.w3.org/1999/xlink" x="0px" y="0px"
	 viewBox="0 0 500 500" enable-background="new 0 0 500 500" xml:space="preserve">
<circle fill="#74ACDF" cx="250" cy="250" r="246"/>
<path fill="#FFFFFF" d="M18.6,166.3H0.4V333h17.9C9.1,307,4,279.1,4,250C4,220.6,9.2,192.4,18.6,166.3z"/>
<path fill="#FFFFFF" d="M481.4,166.3H18.6C9.2,192.4,4,220.6,4,250c0,29.1,5.1,57,14.4,83h463.3c9.3-25.9,14.4-53.8,14.4-83
	C496,220.6,490.8,192.4,481.4,166.3z"/>
<g>
	<g>
		<path id="ray1" fill="#F6B40E" stroke="#85340A" stroke-width="1.1116" d="M248.8,249l21.1,46c0,0,0.4,0.9,0.9,0.6
			c0.6-0.2,0.2-1.1,0.2-1.1l-17.6-47.4 M252.9,264.9c-0.3,7,4,10.8,3.5,17.1c-0.6,6.2,2.9,9.8,3.7,12.2c0.8,2.4-0.9,3.9-0.1,4.2
			c0.7,0.3,2.3-1.6,1.8-5s-3.1-4.5-2.5-12.1c0.6-7.6-3.1-9.4-2.2-16.4"/>
		<path id="ray1_00000135667324326559726350000009184025884470145167_" fill="#F6B40E" stroke="#85340A" stroke-width="1.1116" d="
			M248.6,248l1.9,50.6c0,0,0,1,0.6,1c0.6,0,0.6-1,0.6-1l1.9-50.6 M246.3,264.4c-2.9,6.4-0.4,11.6-3.3,17.1
			c-2.9,5.6-1.1,10.1-1.3,12.7c-0.2,2.5-2.3,3.3-1.8,3.8c0.5,0.6,2.7-0.6,3.6-4c0.9-3.4-1.2-5.3,2.3-12.1c3.5-6.8,0.7-9.9,4.2-16"/>
		<path id="ray1_00000094615115835951934770000007873117958794557087_" fill="#F6B40E" stroke="#85340A" stroke-width="1.1116" d="
			M248.8,247.1l-17.6,47.4c0,0-0.4,0.9,0.2,1.1c0.6,0.2,0.9-0.6,0.9-0.6l21.1-46 M240.4,261.3c-5.1,4.8-4.8,10.5-9.6,14.5
			c-4.8,4-4.9,8.9-6,11.2c-1.2,2.3-3.4,2.1-3.1,2.9c0.3,0.7,2.7,0.5,4.8-2.3c2.1-2.8,1-5.4,6.8-10.3c5.8-5,4.4-8.9,10-13.1"/>
		<path id="ray1_00000042696760414950213820000006954366503290956965_" fill="#F6B40E" stroke="#85340A" stroke-width="1.1116" d="
			M249.3,246.2l-34.4,37.1c0,0-0.7,0.7-0.2,1.1c0.4,0.4,1.1-0.2,1.1-0.2l37.1-34.4 M236.2,256.2c-6.6,2.4-8.5,7.9-14.5,9.8
			c-6,1.9-7.9,6.4-9.9,8.1c-1.9,1.7-3.9,0.7-4,1.5c0,0.8,2.3,1.5,5.3-0.3c3-1.8,2.9-4.6,10.2-7c7.3-2.4,7.5-6.5,14.3-8.3"/>
		<path id="ray2" fill="#85340A" d="M254.3,266.1c0.3,6.7,4.1,9.7,3.4,15.8c1.6-4.8-2.3-8.6-2.1-15.7 M249.9,248.6l14.5,31.6
			l-12.1-32.6"/>
		<path id="ray2_00000086671509728030091900000012554615684526656411_" fill="#85340A" d="M247.1,266c-2.3,6.3,0.1,10.5-2.9,15.9
			c3.4-3.8,1.1-8.8,4.1-15.3 M249.8,248.1l1.3,34.7l1.3-34.7"/>
		<path id="ray2_00000044170899776078204110000002704186139114020482_" fill="#85340A" d="M240.6,263.1c-4.5,5-3.9,9.8-8.8,13.6
			c4.6-2.3,4.4-7.7,9.7-12.6 M249.9,247.6l-12.1,32.6l14.5-31.6"/>
		<path id="ray2_00000100350774626873726580000012676452090894175918_" fill="#85340A" d="M235.6,257.9c-6.1,2.9-7.4,7.5-13.3,9.2
			c5.1-0.3,7.1-5.4,13.7-8 M250.1,247.2l-23.6,25.4l25.4-23.7"/>
		<path id="ray1_00000040562768991767428610000013822234236293028486_" fill="#F6B40E" stroke="#85340A" stroke-width="1.1116" d="
			M248.8,246.2l-46,21.1c0,0-0.9,0.4-0.6,0.9c0.2,0.6,1.1,0.2,1.1,0.2l47.4-17.6 M232.8,250.4c-7-0.3-10.8,4-17.1,3.5
			c-6.2-0.6-9.8,2.9-12.2,3.7c-2.4,0.8-3.9-0.9-4.2-0.1c-0.3,0.7,1.6,2.3,5,1.8s4.5-3.1,12.1-2.5c7.6,0.6,9.4-3.1,16.4-2.2"/>
		<path id="ray1_00000093137225676176531180000017712751218645877945_" fill="#F6B40E" stroke="#85340A" stroke-width="1.1116" d="
			M249.8,246l-50.6,1.9c0,0-1,0-1,0.6c0,0.6,1,0.6,1,0.6l50.6,1.9 M233.4,243.7c-6.4-2.9-11.6-0.4-17.1-3.3
			c-5.6-2.9-10.1-1.1-12.7-1.3c-2.5-0.2-3.3-2.3-3.8-1.8c-0.6,0.5,0.6,2.7,4,3.6s5.3-1.2,12.1,2.3c6.8,3.5,9.9,0.7,16,4.2"/>
		<path id="ray1_00000006707528814697161460000007497820933470387877_" fill="#F6B40E" stroke="#85340A" stroke-width="1.1116" d="
			M250.7,246.2l-47.4-17.6c0,0-0.9-0.4-1.1,0.2c-0.2,0.6,0.6,0.9,0.6,0.9l46,21.1 M236.5,237.9c-4.8-5.1-10.5-4.8-14.5-9.6
			c-4-4.8-8.9-4.9-11.2-6c-2.3-1.2-2.1-3.4-2.9-3.1c-0.7,0.3-0.5,2.7,2.3,4.8c2.8,2.1,5.4,1,10.3,6.8c5,5.8,8.9,4.4,13.1,10"/>
		<path id="ray1_00000103235524563517977970000001064172928421976216_" fill="#F6B40E" stroke="#85340A" stroke-width="1.1116" d="
			M251.6,246.7l-37.1-34.4c0,0-0.7-0.7-1.1-0.2c-0.4,0.4,0.2,1.1,0.2,1.1l34.4,37.1 M241.6,233.6c-2.4-6.6-7.9-8.5-9.8-14.5
			c-1.9-6-6.4-7.9-8.1-9.9c-1.7-1.9-0.7-3.9-1.5-4c-0.8,0-1.5,2.3,0.3,5.3c1.8,3,4.6,2.9,7,10.2c2.4,7.3,6.5,7.5,8.3,14.3"/>
		<path id="ray2_00000133513131204331744150000006705304566779429255_" fill="#85340A" d="M231.7,251.7c-6.7,0.3-9.7,4.1-15.8,3.4
			c4.8,1.6,8.6-2.3,15.7-2.1 M249.2,247.3l-31.6,14.5l32.6-12.1"/>
		<path id="ray2_00000036941686695226547020000018236740970507010965_" fill="#85340A" d="M231.8,244.5c-6.3-2.3-10.5,0.1-15.9-2.9
			c3.8,3.4,8.8,1.1,15.3,4.1 M249.7,247.2l-34.7,1.3l34.7,1.3"/>
		<path id="ray2_00000075124830956121935630000000075879011027726977_" fill="#85340A" d="M234.7,238c-5-4.5-9.8-3.9-13.6-8.8
			c2.3,4.6,7.7,4.4,12.6,9.7 M250.2,247.3l-32.6-12.1l31.6,14.5"/>
		<path id="ray2_00000022540598075191989430000015546032899228715648_" fill="#85340A" d="M239.9,233c-2.9-6.1-7.5-7.4-9.2-13.3
			c0.3,5.1,5.4,7.1,8,13.7 M250.6,247.6l-25.4-23.6l23.7,25.4"/>
		<path id="ray1_00000088108107016041446220000015793983669671295653_" fill="#F6B40E" stroke="#85340A" stroke-width="1.1116" d="
			M254.5,250.2l-21.1-46c0,0-0.4-0.9-0.9-0.6c-0.6,0.2-0.2,1.1-0.2,1.1l17.6,47.4 M250.3,234.3c0.3-7-4-10.8-3.5-17.1
			c0.6-6.2-2.9-9.8-3.7-12.2c-0.8-2.4,0.9-3.9,0.1-4.2c-0.7-0.3-2.3,1.6-1.8,5c0.5,3.5,3.1,4.5,2.5,12.1c-0.6,7.6,3.1,9.4,2.2,16.4"
			/>
		<path id="ray1_00000062189570603315564450000006107505946508472989_" fill="#F6B40E" stroke="#85340A" stroke-width="1.1116" d="
			M254.6,251.2l-1.9-50.6c0,0,0-1-0.6-1c-0.6,0-0.6,1-0.6,1l-1.9,50.6 M256.9,234.9c2.9-6.4,0.4-11.6,3.3-17.1
			c2.9-5.6,1.1-10.1,1.3-12.7c0.2-2.5,2.3-3.3,1.8-3.8c-0.5-0.6-2.7,0.6-3.6,4c-0.9,3.4,1.2,5.3-2.3,12.1c-3.5,6.8-0.7,9.9-4.2,16"
			/>
		<path id="ray1_00000146466269633338553830000000146671393445543313_" fill="#F6B40E" stroke="#85340A" stroke-width="1.1116" d="
			M254.5,252.2l17.6-47.4c0,0,0.4-0.9-0.2-1.1c-0.6-0.2-0.9,0.6-0.9,0.6l-21.1,46 M262.8,237.9c5.1-4.8,4.8-10.5,9.6-14.5
			c4.8-4,4.9-8.9,6-11.2c1.2-2.3,3.4-2.1,3.1-2.9c-0.3-0.7-2.7-0.5-4.8,2.3c-2.1,2.8-1,5.4-6.8,10.3c-5.8,5-4.4,8.9-10,13.1"/>
		<path id="ray1_00000044168517187929790680000004617322804409017511_" fill="#F6B40E" stroke="#85340A" stroke-width="1.1116" d="
			M253.9,253l34.4-37.1c0,0,0.7-0.7,0.2-1.1c-0.4-0.4-1.1,0.2-1.1,0.2l-37.1,34.4 M267,243c6.6-2.4,8.5-7.9,14.5-9.8
			c6-1.9,7.9-6.4,9.9-8.1c1.9-1.7,3.9-0.7,4-1.5c0-0.8-2.3-1.5-5.3,0.3c-3,1.8-2.9,4.6-10.2,7c-7.3,2.4-7.5,6.5-14.3,8.3"/>
		<path id="ray2_00000093178227813288097500000012583303746903350196_" fill="#85340A" d="M248.9,233.1c-0.3-6.7-4.1-9.7-3.4-15.8
			c-1.6,4.8,2.3,8.6,2.1,15.7 M253.3,250.7l-14.5-31.6l12.1,32.6"/>
		<path id="ray2_00000177484007604451537030000006535115607528278964_" fill="#85340A" d="M256.1,233.3c2.3-6.3-0.1-10.5,2.9-15.9
			c-3.4,3.8-1.1,8.8-4.1,15.3 M253.4,251.1l-1.3-34.7l-1.3,34.7"/>
		<path id="ray2_00000012458031499540446360000015225890702773653176_" fill="#85340A" d="M262.7,236.1c4.5-5,3.9-9.8,8.8-13.6
			c-4.6,2.3-4.4,7.7-9.7,12.6 M253.3,251.6l12.1-32.6L251,250.7"/>
		<path id="ray2_00000088836774724325559110000010355052965118309559_" fill="#85340A" d="M267.6,241.3c6.1-2.9,7.4-7.5,13.3-9.2
			c-5.1,0.3-7.1,5.4-13.7,8 M253.1,252.1l23.6-25.4l-25.4,23.7"/>
		<path id="ray1_00000073685189157126379270000008291109770462426520_" fill="#F6B40E" stroke="#85340A" stroke-width="1.1116" d="
			M252.1,251.8l46-21.1c0,0,0.9-0.4,0.6-0.9c-0.2-0.6-1.1-0.2-1.1-0.2l-47.4,17.6 M268,247.7c7,0.3,10.8-4,17.1-3.5
			c6.2,0.6,9.8-2.9,12.2-3.7c2.4-0.8,3.9,0.9,4.2,0.1c0.3-0.7-1.6-2.3-5-1.8c-3.5,0.5-4.5,3.1-12.1,2.5c-7.6-0.6-9.4,3.1-16.4,2.2"
			/>
		<path id="ray1_00000033331994684903943320000000295117125691205302_" fill="#F6B40E" stroke="#85340A" stroke-width="1.1116" d="
			M251.1,252l50.6-1.9c0,0,1,0,1-0.6c0-0.6-1-0.6-1-0.6l-50.6-1.9 M267.4,254.3c6.4,2.9,11.6,0.4,17.1,3.3
			c5.6,2.9,10.1,1.1,12.7,1.3c2.5,0.2,3.3,2.3,3.8,1.8c0.6-0.5-0.6-2.7-4-3.6c-3.4-0.9-5.3,1.2-12.1-2.3c-6.8-3.5-9.9-0.7-16-4.2"/>
		<path id="ray1_00000165230670297184804980000012294250638712471704_" fill="#F6B40E" stroke="#85340A" stroke-width="1.1116" d="
			M250.1,251.8l47.4,17.6c0,0,0.9,0.4,1.1-0.2c0.2-0.6-0.6-0.9-0.6-0.9l-46-21.1 M264.4,260.2c4.8,5.1,10.5,4.8,14.5,9.6
			c4,4.8,8.9,4.9,11.2,6c2.3,1.2,2.1,3.4,2.9,3.1c0.7-0.3,0.5-2.7-2.3-4.8c-2.8-2.1-5.4-1-10.3-6.8c-5-5.8-8.9-4.4-13.1-10"/>
		<path id="ray1_00000056416399900276649670000015305268928443304854_" fill="#F6B40E" stroke="#85340A" stroke-width="1.1116" d="
			M249.3,251.3l37.1,34.4c0,0,0.7,0.7,1.1,0.2c0.4-0.4-0.2-1.1-0.2-1.1l-34.4-37.1 M259.3,264.4c2.4,6.6,7.9,8.5,9.8,14.5
			c1.9,6,6.4,7.9,8.1,9.9c1.7,1.9,0.7,3.9,1.5,4c0.8,0,1.5-2.3-0.3-5.3c-1.8-3-4.6-2.9-7-10.2c-2.4-7.3-6.5-7.5-8.3-14.3"/>
		<path id="ray2_00000080895765452370829530000017366693465061379734_" fill="#85340A" d="M269.2,246.3c6.7-0.3,9.7-4.1,15.8-3.4
			c-4.8-1.6-8.6,2.3-15.7,2.1 M251.7,250.7l31.6-14.5l-32.6,12.1"/>
		<path id="ray2_00000138574003895690319240000015907990230151427485_" fill="#85340A" d="M269.1,253.5c6.3,2.3,10.5-0.1,15.9,2.9
			c-3.8-3.4-8.8-1.1-15.3-4.1 M251.2,250.8l34.7-1.3l-34.7-1.3"/>
		<path id="ray2_00000018941162925125381050000007300909139068424380_" fill="#85340A" d="M266.2,260c5,4.5,9.8,3.9,13.6,8.8
			c-2.3-4.6-7.7-4.4-12.6-9.7 M250.7,250.7l32.6,12.1l-31.6-14.5"/>
		<path id="ray2_00000148624984525648772680000007413120322537780662_" fill="#85340A" d="M261,265c2.9,6.1,7.5,7.4,9.2,13.3
			c-0.3-5.1-5.4-7.1-8-13.7 M250.2,250.5l25.4,23.6L252,248.7"/>
	</g>
	<circle fill="#F6B40E" stroke="#85340A" stroke-width="1.5" cx="249.6" cy="248.2" r="20.6"/>
	<path id="loweyecontour" fill="#843511" d="M256.6,243.8c-1.4,0-2.8,0.6-3.5,1.9c1.6,1.4,5.1,1.6,7.5-0.2
		C259.5,244.4,258,243.8,256.6,243.8L256.6,243.8z M256.6,244.2c1.4,0,2.6,0.6,2.8,1.2c-1.6,1.7-4.1,1.6-5.7,0.3
		C254.4,244.6,255.5,244.2,256.6,244.2L256.6,244.2z"/>
	<g transform="matrix(-1 0 0 1 800.25 0)">
		<path id="uppalpebra" fill="#85340A" d="M256.9,242.9c-2.1,0-2.5,0.5-3.5,1.3c-1,0.8-1.4,0.6-1.6,0.8c-0.2,0.2,0,0.6,0.3,0.5
			c0.3-0.2,1-0.5,1.9-1.3c1-0.8,1.9-0.8,2.9-0.8c2.9,0,4.4,2.4,4.8,2.2C262,245.4,260.1,242.9,256.9,242.9L256.9,242.9z"/>
	</g>
	<g transform="matrix(-1 0 0 1 800.25 0)">
		<path id="eyebrow_nose" fill="#85340A" d="M262.6,243.8c-3.6-3.2-8.2-3.6-10.8-1.3c-0.6,0.8-1,1.7-1.2,2.6
			c-0.3,1.8,0.2,3.8,1.7,5.8c-0.2,0-0.5,0.2-0.6,0.3c-1.3-2.4-1.7-4.9-1.3-7.2c0.1-0.6,0.3-1.2,0.5-1.8
			C254.4,239.4,259.1,239.1,262.6,243.8L262.6,243.8z"/>
	</g>
	<g transform="translate(18.862)">
		<circle id="pupil" fill="#85340A" cx="256.6" cy="245.4" r="1.4"/>
	</g>
	<g transform="matrix(-1 0 0 1 800.25 0)">
		<path id="lowpalpebra" fill="#85340A" d="M260.7,246.3c-2.7,2.1-5.4,1.9-7,1c-1.6-1-1.6-1.3-1.3-1.3c0.3,0,0.6,0.3,1.9,1
			C255.6,247.6,257.5,247.6,260.7,246.3L260.7,246.3z"/>
	</g>
	<path fill="#85340A" d="M246.5,251.1c-0.7,0.1-1.2,0.7-1.2,1.4c0,0.8,0.7,1.4,1.4,1.4c0.5,0,0.9-0.2,1.2-0.6
		c0.5,0.4,1.3,0.5,1.7,0.5c0.1,0,0.1,0,0.2,0c0.4,0,1.2-0.1,1.7-0.5c0.3,0.4,0.7,0.6,1.2,0.6c0.8,0,1.4-0.6,1.4-1.4
		c0-0.7-0.5-1.3-1.2-1.4c0.4,0.1,0.6,0.5,0.6,0.9c0,0.5-0.4,1-1,1c-0.5,0-0.9-0.4-1-0.9c-0.2,0.3-0.8,1.2-2,1.3c-1.2,0-1.8-1-2-1.3
		c0,0.5-0.4,0.9-1,0.9c-0.5,0-1-0.4-1-1C245.8,251.6,246.1,251.2,246.5,251.1L246.5,251.1z"/>
	<path fill="#85340A" d="M248,255.3c-1.6,0-2.2,1.4-3.6,2.4c0.8-0.3,1.4-0.9,2.5-1.6c1.1-0.6,2.1,0.1,2.7,0.1h0
		c0.6,0,1.6-0.8,2.7-0.1c1.1,0.6,1.8,1.3,2.6,1.6c-1.4-1-2.1-2.4-3.7-2.4c-0.3,0-0.9,0.2-1.6,0.5h0
		C248.9,255.5,248.3,255.3,248,255.3z"/>
	<path fill="#85340A" d="M247.5,257.2c-0.6,0-1.5,0.2-2.6,0.5c2.9-0.6,3.5,0.3,4.8,0.3h0c1.3,0,1.9-1,4.8-0.3
		c-3.2-1-3.8-0.3-4.8-0.3h0C249,257.4,248.5,257.1,247.5,257.2L247.5,257.2z"/>
	<path fill="#85340A" d="M245,257.7c-0.2,0-0.4,0-0.6,0c3.3,0.3,1.7,2.2,5.2,2.2h0c3.5,0,1.9-1.9,5.2-2.2c-3.5-0.3-2.4,1.7-5.2,1.7
		h0C246.9,259.4,247.7,257.6,245,257.7L245,257.7z"/>
	<path fill="#85340A" d="M252.5,262.8c0-1.6-1.3-2.9-2.9-2.9c-1.6,0-2.9,1.3-2.9,2.9c0.3-1.3,1.5-2.3,2.9-2.3
		C251,260.6,252.2,261.5,252.5,262.8L252.5,262.8L252.5,262.8z"/>
	<path id="eyebrow_nose_00000117657304943418312170000015017394259948938140_" fill="#85340A" d="M236.8,243.8
		c3.6-3.2,8.2-3.6,10.8-1.3c0.6,0.8,1,1.7,1.2,2.6c0.3,1.8-0.2,3.8-1.7,5.8c0.2,0,0.5,0.2,0.6,0.3c1.3-2.4,1.7-4.9,1.3-7.2
		c-0.1-0.6-0.3-1.2-0.5-1.8C245,239.4,240.3,239.1,236.8,243.8L236.8,243.8z"/>
	<path id="uppalpebra_00000119077902840791062400000000593233669050912447_" fill="#85340A" d="M242.5,242.9c2.1,0,2.5,0.5,3.5,1.3
		c1,0.8,1.4,0.6,1.6,0.8c0.2,0.2,0,0.6-0.3,0.5c-0.3-0.2-1-0.5-1.9-1.3c-1-0.8-1.9-0.8-2.9-0.8c-2.9,0-4.4,2.4-4.8,2.2
		C237.4,245.4,239.3,242.9,242.5,242.9L242.5,242.9z"/>
	<g transform="translate(-19.181)">
		<path id="loweyecontour_00000110433268663950823270000014224749708024768703_" fill="#843511" d="M242.4,243.8
			c-1.4,0-2.8,0.6-3.5,1.9c1.6,1.4,5.1,1.6,7.5-0.2C245.3,244.4,243.8,243.8,242.4,243.8L242.4,243.8z M242.4,244.2
			c1.4,0,2.6,0.6,2.8,1.2c-1.6,1.7-4.1,1.6-5.7,0.3C240.2,244.6,241.3,244.2,242.4,244.2L242.4,244.2z"/>
	</g>
	<circle id="pupil_00000140724973635162165110000007844505291445574806_" fill="#85340A" cx="242.6" cy="245.4" r="1.4"/>
	<path id="lowpalpebra_00000016757236958939035450000015325054088420106684_" fill="#85340A" d="M238.7,246.3c2.7,2.1,5.4,1.9,7,1
		c1.6-1,1.6-1.3,1.3-1.3c-0.3,0-0.6,0.3-1.9,1C243.8,247.6,241.9,247.6,238.7,246.3L238.7,246.3z"/>
</g>
</svg>
