<?xml version="1.0" encoding="utf-8"?>
<!-- Generator: Adobe Illustrator 28.2.0, SVG Export Plug-In . SVG Version: 6.00 Build 0)  -->
<svg version="1.1" id="asm" xmlns="http://www.w3.org/2000/svg" xmlns:xlink="http://www.w3.org/1999/xlink" x="0px" y="0px"
	 viewBox="0 0 500 500" enable-background="new 0 0 500 500" xml:space="preserve">
<path fill="#000066" d="M478.5,265V235c-7.4-114.5-99-206.1-213.5-213.5H235C120.5,28.9,28.9,120.5,21.5,235V265
	c7.4,114.5,99,206.1,213.5,213.5H265C379.5,471.1,471.1,379.5,478.5,265z"/>
<path fill="#BD1021" d="M434,113L22,249.5c0,0.1,0,0.2,0,0.3L434,386c34-46,48.9-88.1,47-136C478.9,198.5,461,149,434,113z"/>
<path fill="#FFFFFF" d="M444,128L58,250l386,122c22.5-35.3,41-77,41-122C485,204.8,466.7,163.5,444,128z"/>
<g id="crest">
	<path d="M359.8,262.4c3,0.2,2.9,3.3,2.9,3.3l10.8,0.2c1.4-3.8,2.8-3.3,5.4-1.5c2.5,1.8,5.2,2.6,5.2,2.6c1-5.4,8.7-4.3,8.7-4.3
		c3.3-7.8,3.5-7.7,1.6-8.7c-1.9-1-2.7-2.7-2.7-2.7c-1.8-2.2-2.8-5.4-3-7.4c-0.2-2-2.5,1-2.9,0.4c-0.4-0.6-3.8-0.3-3.8-0.3
		c0.8,0.9-2,0.4-2,0.4c0.3,0.2,0,1,0,1c-0.3-0.4-2.4-0.7-2.4-0.7c-0.2,0.5-0.7,1-0.7,1c-1.2-0.5-3.5-0.4-3.5-0.4
		c-3.5-0.1-5.6,1-6.5,1.6c-1,0.6-4.4,2.3-7.3,5.1c-2.8,2.8-4.4,2.4-4.4,2.4c-0.8,3.1-7.6,6.8-7.6,6.8c-1.1,1-4.5,1.5-6.2,0
		c-1.7-1.5,0-4.1,0-4.1c0.6-1.2,1.3-1.2,1.3-5.4c0-2.8,3-5.1,6-8.4c3.7-4,8.9-10.7,8.9-10.7c0,2,1.1,2.4,1.1,2.4
		c1-2.1,2.5-3.8,2.5-3.8c0.1,0.2,0.3,0.3,0.3,0.3c1.1-1.6,1.8-2.2,1.8-2.2c-0.4-0.2-3.6,0-6.6,2.6c-3,2.6-5.1,1.7-5.1,1.7
		c-2.1-0.7-2.3-2.3-2.3-2.3c-1.5-6.5,4.5-11.2,4.5-11.2c-8-1.9-2.2-12.1,7.7-16.4c9.9-4.3,9.8-6.3,9.8-6.3c0.6,0.7,1,1.8,1,1.8
		c0.1-0.1,0.8-1.2,6.6-3.7c5.7-2.5,8.5-4.7,8.5-4.7c0.7,1.4,0.6,2.4,0.6,2.4c15.7-5.5,31.1-18.1,31.1-18.1c0.4,1.1,0.2,2.6,0.2,2.6
		c2.6-2.4,11.8-7.9,11.8-7.9c0.2,3.5-2.7,4.9-2.7,4.9c0.3,0.5,0.5,1.4,0.5,1.4c1.5-0.8,8.5-5.7,8.5-5.7c2.6,2.2,0.2,5.9,0.2,5.9
		c0.9-0.1,1.6-0.9,1.6-0.9c0.7,3.8-3.5,7.1-3.5,7.1c0.7,0,2-0.7,2-0.7c-0.8,4.1-8.6,8.7-8.6,8.7c1.1,1,0.1,2.4-0.9,3
		s-2.6,1.9-2.1,2.5c0.5,0.5,4-1.9,4-1.9c0.6,1.7-3.9,5.1-3.9,5.1c3.1,0.4,11.7-3.5,11.7-3.5c-0.7,3.3-4,5.9-8,7.4
		c-4,1.5-3.8,1.7-3.8,1.7c0.7,0.6,6.2-1.1,6.2-1.1c-1.7,3.7-7.4,6.3-7.4,6.3c1.6,1.3,3.7-0.2,5.9-1.7s5.1-2.7,8.4-3.8
		c3.3-1.1,5.5-0.3,5.5-0.3c2.7-0.9,5,0.4,5,0.4c5.2,0.4,5.7,2.3,5.7,2.3c0.6,0.1,1,0.4,2.3,1.3c1.3,1,1.2,4,1.2,5.5
		c-0.1,1.5-0.5,1.5-0.7,1.9s-0.3,0.9-0.3,1.4s-1.3,4.1-9.3,4.1c-8,0-12.2,0-12.2,0c-0.7,0-1.5,0.4-1.5,0.4c-3.4,1.7-1.6-1.1-5.6,2.2
		c-4,3.3-6.1,2.7-6.1,2.7c-0.7,0.8-4.9,4.7-7.3,6.3s-2,1.4,0.1,2.3c2.1,0.9,5.3,0,5.3,0c-2,1.4-0.6,2-0.6,2c2.7-1.6,4.3-1,4.3-1
		c0.9,2.3-2.2,6-2.2,6c1.2,0.2,3.4,0,3.4,0c-0.5,1.6-2.8,3.3-4.4,3.8c-1.6,0.5-1.3,0.7-0.9,1.7s0.1,2,0.1,2c-2.8-2-3-0.2-3-0.2
		c-0.3,2.3-0.3,5.7-0.3,5.7c-2-1-2.1,0.3-2.1,0.3c-0.5,2.1-3,4.6-3,4.6c-0.1-1.3-1.3-1.7-1.3-1.7c-1.3,2.5-3.6,3.9-3.6,3.9
		c-0.3,2.1,0.3,5.1,0.3,5.1c-1.5-0.3-2.1-0.3-2.3,0.1c-0.2,0.4,0.3,0.5,0.3,0.5l19.9,0.5c0.3,0,1.5,0.2,1.5,2.3
		c0,2.2-1.7,2.3-1.7,2.3l-21.8-0.5c0,0,0.1,0.6-1,1.2c-1.1,0.6-0.8-0.7-1.1,2c-0.3,2.7-4.7-0.2-4.7-0.2c-0.7,1-2.4,2.4-2.4,2.4
		c-1-2.9-2-3.8-3.5-1.3c-1.6,2.5,2.8,2.1,2.8,2.1s25.5-3.8,26.9-3.9c1.4-0.1,2.9-0.1,3.5,1.9c0.6,1.9-3.1,2.3-3.1,2.3l-26.2,2.9
		c-0.6,1.6-2.7,1.4-2.7,1.4c0.2,1.5-1.4,2.4-2.2,3c-0.8,0.5-3.3,0.3-3.3,0.3c-3.1,2.1-4.5,0.4-4.5,0.4c-2,0.9-3.2,0.5-4.9-0.2
		c-1.6-0.7-1.5-2.7-1.5-2.7l-16.5,1.7c-0.8,0.3-1.3,0.8-1.3,0.8c0.6,0.8-1.2,2.5-1.2,2.5c0.5,0.3,1.4,1.3,1.6,3.4
		c0.1,2.2-2.7,2.6-1.3,4.1c1.4,1.5,4,0.3,6.8-1.1c2.9-1.4,5.7-1.2,6.9-1.2c1.2,0,4.6,0.9,6.8,1.6c2.1,0.7,2.9,0.3,3-0.8
		s1.1-1.4,1.1-1.4c-0.3,1.1,0.3,1.5,0.3,1.5c0.8,0.1,2.3-0.7,2.3-0.7c-0.1,0.8-1.2,1.3-1.2,1.3c-2.1,1.4,0.8,0.9,0.8,0.9
		c5.7-1.2,7.7-1.1,9.2-0.9c1.5,0.2,8.5,3.1,8.5,3.1c0.3-0.7,0.1-2.4,0.1-2.4c1.8,0.5,2.5,1.5,2.5,1.5c0.7-0.7,0.2-2,0.2-2
		c5.8,3.2-1.2,4.7-3,5.3c-1.8,0.6-1.8,1.4-1.8,1.4c1.5-0.5,2.6-0.7,3.9-0.8c1.3-0.1,0.8,0,3.9-0.6c3-0.6,4.6,0.7,4.6,0.7
		c-2.6,0.1-3.3,0.9-3.3,0.9c1.6,1.1,0.1,2,0.1,2c-2.3-2.9-4.3,0.1-4.3,0.1c0.8-0.1,3.1,0.4,3.8,0.8c0.5,0.3,1.7,0.9,3.2,1.6
		c2.1,1,1.7,0.4,3.4,1c1.6,0.6,1,2.2,1,2.2c-0.7-1.3-2.2-1.7-2.2-1.7c-0.1,1.7-1.9,2-1.9,2c2.1-2.4-2.5-3.4-4.6-3.4
		c-2.2,0-3.8,1.4-3.8,1.4c4.3,4.1,7.4,2.7,7.4,2.7c-0.5,1.5-4.1,0.9-4.1,0.9c1.7,1.3,1.5,2.2,1.5,2.2c-0.9-0.9-2.3-0.4-5.5-2.5
		c-3.1-2-5.9-1.4-5.9-1.4c3,3.3-1.1,5.2-1.1,5.2c-1.5,0.9,0.7,2.1,0.7,2.1c-1.9,0.4-2.2-1.6-2.2-1.6c-1-0.2-2.5,1-2.5,1
		c0.1-2,2.7-1,2.8-3.1c0.1-2.1-2.4-3.7-9.8-2.6c-7.4,1-9.5-1.3-9.5-1.3c-0.6,0-0.8,0.6-0.8,0.6c1.2,1.2,1.8,1.7,1.6,2.5
		c-0.2,0.8,0.4,1.1,0.4,1.1c-1.4-0.1-1.5-1.7-1.5-1.7c0,0.7-0.3,0.7-0.8,1.4c-0.4,0.7,0,1.6,0,1.6c-0.6-0.5-1.6-1.1-0.6-2.6
		c0.8-1.1-1.6-2.5-1.6-2.5c-0.9-0.9-3.3-0.1-3.3-0.1c-5,1-8-2.2-8-2.2c-0.6,0-1.7-0.3-1.7-0.3c-5.3,2.4-10-2.8-10-2.8
		c-4,0.8-5.8-1.2-7.1-3.1c-1.2-1.9-1.5-2-3.1-3c-1.6-1-3.1-3.7-1.6-5.2c1.3-1.3,0.9-1.6,0.9-1.6c-2.1-3.5,3.7-4.6,3.8-5.5
		c0.2-1.2,1.4-2,2.7-2.1c1.3-0.1,1.3,0,2.2-0.8c0.9-0.9,2.5,0.2,2.5,0.2c0.3-0.3,3.2-2.5,5.8-1.3c2.6,1.1,4.7,0.3,4.7,0.3
		c1.8-0.4,16.7-2.4,16.7-2.4c1-1.4,1.6-3.2,5.8-4.1c4.1-0.9,7.2-3.5,7.2-3.5c-0.7-0.8-2-0.7-2.6-0.8c-0.6-0.1-1.9-1.2-1.9-1.2
		c-0.8,0.3-1.1,0.2-6.5,3.4c-4.8,2.9-5-2.9-5-2.9l-10.5,0c-0.2,2.2-1.9,3.1-1.9,3.1l-3.8,0.2c-2.1-1.1-2.2-4.9-2.2-4.9
		c-11.6,0.2-18,4.3-18,4.3c-13.1-6.7-23.4-8.2-23.4-8.2c15.9-1.7,24.3-6.2,24.3-6.2c8.8,5.3,17,5.4,17,5.4c0.3-3.2,2.4-4,2.4-4
		L359.8,262.4L359.8,262.4z"/>
	<path fill="#FFC221" d="M340.9,288.8c-3.3,1.9-2.7,3-2.4,3.6c0.3,0.6,0.3,1.2-0.6,2.1c-0.9,0.9-0.8,1.2-0.8,1.2
		c0.1,3.2,2.4,3.9,3.4,4.7c0.8,0.7,2.2,2.7,2.2,2.7c1.7,2.4,3.5,2.5,4.8,2.5s1.2-0.1,0.5-0.7c-0.6-0.6-2-1.7-2-1.7
		c1.8,0.6,3.5,2.5,3.5,2.5c3.4,3.7,6.5,3.2,7.9,3s1.1-1,1.1-1c-0.1-0.1-1.4-0.2-1.4-0.2c-5.1-0.5-6.6-3.8-6.6-3.8
		c3.1,3,7.8,3.6,9.3,3.6c1.5-0.1,1.4,0.4,1.1,0.4c-0.3,0.1-0.8,0-1.4-0.1c-0.7-0.1-0.7,0.1-0.5,0.4c0.2,0.3,0.8,0.3,1.6,0.3
		s0.2,0.1,2.3,1.7c2.1,1.6,7.3,0.3,7.3,0.3c-3.4-0.8-3.8-2.4-3.8-2.4c-4.6,0.5-6.4-2.2-6.4-2.2c-0.8-0.8-3.3-2.1-3.3-2.1
		c-2.6-1.1-3-3.5-3-3.5c0.7,1,2.1,2.2,3.9,2.7c1.8,0.5,2.3,0.8,2.3,0.8c-0.9,0.1-1.4-0.2-1.4-0.2c-1.8-0.5-0.8,0.2-0.8,0.2
		c2,1.6,2.5,1.5,2.5,1.5c5.2,0.5,2.6-1.5,2.6-1.5c3.7,0.9,4.3-0.5,4.3-0.5c0.8,1.6,3.6,1,3.6,1c-3.7,1.8-0.9,1.3-0.9,1.3
		c3.8-0.7,4.5,0.3,4.5,0.3c1,0.9,2,0.8,2,0.8s0.7,0,2.1,0.3c1.4,0.3,3.6,1.5,5.7,1.2s2.4,0.4,2.4,0.4c-0.4-0.1-1.3-0.3-2.9,0.4
		c-1.6,0.7-4.4,1-8.5,0c-4.1-1-4.4-0.8-4.4-0.8c1,0.7,1.8,1.7,2,2.4c0.2,0.7,0.9,0.7,0.9,0.7c0.3-0.9,1.5-1.3,1.5-1.3
		c0.8,0.7,2.9,1.7,2.9,1.7c0.2-0.5,0-0.8,0-0.8c1.6,1.5,3.4,1,3.4,1c0.5-0.3,0.3-1.2,0.3-1.2c0.6,0,0.7,0.4,1.2,0.7
		c0.4,0.3,1.8,0.1,1.8,0.1c-0.5-0.2-0.9-1-0.9-1c2.1-1.4,6.5-0.8,6.5-0.8c3.2,0.6,2.8,2.7,2.8,2.7c0.7,0.3,1.5,1.3,1.5,1.3
		c0.3-0.7,0-1.5,0-1.5c1.5,0.7,1.8,2.4,1.8,2.4c1.7-1.9-1.6-4.1-1.6-4.1c1.6-0.2,3.4-0.1,4.5,0.1c1.1,0.2,2.6,0.7,3.9,1.8
		c1.3,1.1,3.5,1.5,3.5,1.5c-0.1-0.4-1.3-1.2-1.5-1.3c-0.3-0.2-0.4-0.5-0.4-0.5c1.1,0.2,1.9,0.1,1.9,0.1c-3.9-2.4-4.9-3.5-4.9-3.5
		c1.5,0.2,2.3-0.7,2.3-0.7c-3.1,0.1-3.2-0.7-3.2-0.7c0.4,0.1,1.8,0.4,3.6,0.1c1.8-0.4,4.4,0,4.4,0c-1.3-2.1-6.5-1.8-8.1-1.7
		c-1.6,0.1-2.3-0.1-2.3-0.1c0.3-0.1,0.5-0.4,1.8-0.4c1.3,0,2.6,0.1,4-0.9s3.5-0.7,3.5-0.7c-0.5-1-2.8-1.3-4.8,0s-3.9,0.9-3.9,0.9
		c3.2-0.5,4.1-1.6,4.1-1.6c-1-0.2-1.5,0.1-3.4,0.5c-1.9,0.4-2.4-0.3-2.4-0.3c2.1-1.3,3.6-1.8,3.6-1.8c-1.8-0.4-3.5-1.1-3.5-1.1
		c-1.9,1.8-3.3,2.8-6.9,0.9c-3.6-1.9-5.5-1.7-5.5-1.7c3.2-1.9,6.4-1.1,8.8,0.4c2.4,1.4,3,0.3,3,0.3c-0.7-0.5-0.6-0.9-0.6-0.9
		c5.7,2.9,8.2,1.1,9.5,0.2c1.3-0.9-0.6-2-0.6-2c-0.1,1.9-2.5,2.7-4.3,2.1c-1.8-0.6-3.5-1.4-6.2-2.5s-6-0.5-9.1,0.1
		c-3.1,0.6-3.5,0.3-3.8,0.1c-0.3-0.2-0.4-1-2-0.4c-1.6,0.6-5.3-1.1-7.5-1.6c-2.3-0.5-6-0.2-9.3,1.5c-3.2,1.8-4.8,1.3-5.8,0.9
		s-1.6-1.7-0.5-2.8c1-1.1,1.1-1.4,1-3c-0.1-1.6-1.6-2.5-1.6-2.5c1.4-1.5,1.8-1.8,1.3-2.4c-0.5-0.6,0.3-0.6,1.1-1
		c0.8-0.4,0.5-0.4,0.3-0.9c-0.2-0.5-0.7-0.4-0.7-0.4c-1.9,0.1-2.9-0.4-2.9-0.4c-3.1-1.4-6,1.4-6,1.4c-1.8-1.4-2.2-0.5-2.5-0.1
		c-0.3,0.3-0.9,0.6-1.8,0.6c-0.8,0.1-1.9,0.4-2.3,1.1c0,0-0.4,0.6,0.1,1.2c0,0,0.5,0.7-0.4,1.6c-0.9,0.9-1.2,1.1-0.9,1.9
		c0.3,0.8,0.2,1.5-0.1,2c0,0-0.4-0.5-0.3-1c0.1-0.6,0.1-0.9,0-1.2c0,0-0.9,0.9-1,1.5c0,0-0.4-0.9,0.9-2.2c1.3-1.3,1.8-1.9,1.5-2.4
		C342,288.1,341.1,288.7,340.9,288.8L340.9,288.8z"/>
	<path d="M344.5,302.8c0,0-1.6-1.2-1.4-2.9s0.2-1.9,0-2.2c0,0-0.3,0.2-0.3,0.8c0,0.6-0.1,1.2-0.1,1.4c0,0-0.8-1.4-1.1-1.6
		c0,0,0.3-1.5-0.2-2.1c-0.5-0.6-0.9-0.7-1.4-0.5c-0.7,0.3-1.3,0.9,1.2,2.9c0,0,0.9,0.7,1.5,2.3C343.2,302.4,344.2,302.7,344.5,302.8
		z M352.3,298.1c0,0-0.1-0.9,0.7-2.6s0.3-2.9,0.1-3.3s-0.3-0.3,0.6-1c1.1-0.9-0.4-2,1.3-3.6c0,0,1.1-1,1.4-1.4c0,0-1.8,1-3,1.5
		c-1.2,0.5-5.8,2.7-4.8,4.2c1,1.5,0.9,1.6,0.7,2.2c0,0-2.7-1.4-1.8-3.8c0,0,0.4-0.9,1.6-2c1-1,0.4,0.2,2.5-1c0,0,1.7-1,2.6-2.4
		c0,0-1.1,0.7-1.5,0.8c0,0-2.4,0.4-3.4,1.5c-1,1-3.1,2.8-2.4,4.9c0,0-2.4-0.3-3-2.8c0,0-4.5,5.6,5,8.2
		C348.9,297.5,350.7,298,352.3,298.1z"/>
	<path fill="#FFC221" d="M394.1,279.5c3.6-0.5,24.1-3.6,26-3.8c2-0.2,2.8-0.5,3.5,1.2c0.8,1.9-2.8,1.9-2.8,1.9l-24.5,2.8
		c-1.2,0.1-1.5-0.3-1.5-0.3c-0.2-0.4-0.6-0.9-0.9-1.3C393.9,279.9,393.6,279.5,394.1,279.5L394.1,279.5z"/>
	<path fill="#5A3719" d="M343.8,290.6c0,0-2.7,5.6,7.8,7c0,0,0-0.6,0.4-1.5c0.4-0.9,1.3-2.6,0.5-3.8s0.7-0.5,0.9-2s-0.2-1.3,0.6-2.3
		c0,0-3.3,1.2-4.5,2.6c-1.2,1.4,1.7,2.5-0.1,4.1c0,0-1.5-0.5-2.3-2.1C347.2,292.6,345.1,292.7,343.8,290.6L343.8,290.6z"/>
	<path d="M354.1,297.5c0,0,2.6,2.2,5.6,2.1c3.1-0.1,4.4-0.9,5.2-2.1c0,0,0.6,0.9,0.6,1.6c0,0,2.7-2.2,7.2-0.3s3.2,1.4,4.2,1.5
		c0,0-1.9-0.3-6.4,1.7C365.9,304.1,353.9,303.4,354.1,297.5L354.1,297.5z"/>
	<path fill="#5A3719" d="M349.8,287.6c0,0,1.2,0.2,2.3-1.1C352.1,286.5,350.5,286.8,349.8,287.6z M341,298c0,0-2.2-1.7-0.8-2
		C340.3,296,341.2,295.8,341,298z"/>
	<path d="M387.9,308.6c0,0,1.1-2,4.5-2c3.3,0,3.7,1.5,7.9,1.8c0,0-5,1.4-8.5,0.1C389.9,307.8,388.3,308.4,387.9,308.6z"/>
	<path fill="#5A3719" d="M355.2,299c0,0,4.9,3,9.3-0.3c0,0,0.4,0.4,0.7,1.1c0,0,3.3-3.2,9.3,0.3c0,0-0.7-0.1-3.5,1.1
		C367.3,302.8,358.2,303.9,355.2,299z"/>
	<path d="M374.3,302c0,0,4.7,0.5,8.7,0.3c2.5-0.1,5.1-0.6,3.8,0.2c-1.3,0.8-0.7,0.9,5,0.4s-0.1,1.1,3.9,1.6
		C395.7,304.5,386.2,309.4,374.3,302z"/>
	<path fill="#5A3719" d="M386.7,299c0,0,2.8-1,5.4,0.2c2.6,1.2,2.2,1.3,3.9,1.5c0,0-1.2,1.7-4,0.3
		C389.1,299.6,388.4,299.4,386.7,299z M389.8,307.6c0,0,2.7-1.4,5.8,0.1c0.4,0.2,1.2,0.5,2,0.7c0,0-2.3,0.7-4.7,0
		C391.9,308,391.1,307.7,389.8,307.6L389.8,307.6z M376.3,302.7c0,0,6.1,0.6,9.4-0.1c0,0-3.8,1.8,5.8,1c0,0,2.1-0.2,1.9,0.1
		c-0.3,0.3-0.4,0.6,0.6,0.9C394,304.6,386.9,307.8,376.3,302.7L376.3,302.7z"/>
	<path d="M345.9,297.5c0,0,0.1,0.5,1.4,1.1c1.4,0.6,2.1,1.7,2.4,2.3c0.3,0.6,1,1.5,2.1,1.7c0,0-4.8,1-6.9-1.5
		C344.8,301.1,343.2,299.3,345.9,297.5"/>
	<path fill="#5A3719" d="M383.5,308.5c0,0-1.9-0.1-4.5-1c-2.6-0.9-3.3-0.1-4.7-1.2c-1.5-1.1-4.4-0.4-4.9-0.3c-0.5,0.1-2.1,0-0.2-1.3
		c0,0-1.6,0-2.2-0.8c0,0-0.7,0.7-3.3,0.4c0,0,1.2,1.8-3.5,1.3c0,0,1.4,1.6,3.1,2c1.7,0.3,2.4,0.2,3.5-0.1c0,0-0.3,1.4,1.9,2
		c2.2,0.5,2.6,1,3.7,1.4c0,0,0.2-0.9-2.8-3c0,0,1.6-0.1,3.8,0.5C375.6,308.8,380.7,310.1,383.5,308.5L383.5,308.5z M384.6,310.7
		c0,0,0.5,1.1,1.9,0.8c1.4-0.2,3.8-0.7,6.1,0.5c0,0,0.4-1.9-4.2-2.1C388.4,310,385.6,310.1,384.6,310.7L384.6,310.7z M345.7,298.2
		c0,0-1.8,1.5-0.2,3c1.5,1.4,3.7,1.3,4.8,1.2c0,0-0.7-0.4-1.2-1.2c-0.6-0.9-0.6-1.4-1.8-2C346.1,298.6,345.9,298.4,345.7,298.2z
		 M343.8,290.6c0,0-2.7,5.6,7.8,7c0,0,0-0.6,0.4-1.5c0.4-0.9,1.3-2.6,0.5-3.8s0.7-0.5,0.9-2c0.2-1.5-0.2-1.3,0.6-2.3
		c0,0-3.3,1.2-4.5,2.6c-1.2,1.4,1.7,2.5-0.1,4.1c0,0-1.5-0.5-2.3-2.1C347.2,292.6,345.1,292.7,343.8,290.6L343.8,290.6z"/>
	<path d="M371.3,303.5c0,0,2.2-0.4,7.8,1.7s7.9,1.6,8.7,1.5c0,0-3.1,1.6-8-0.5C375.4,304.4,375.2,305.1,371.3,303.5L371.3,303.5z"/>
	<path fill="#FFC221" d="M406.2,302.3c0,0,1.3,0,2,0.3c0,0,0.5-0.4,1.6-0.5C409.8,302,409.1,301.3,406.2,302.3z M402.3,299.2
		c0,0,1.3-0.1,1.7-0.7c0,0-0.6-0.8-1.6-1.2C402.4,297.3,402.6,298.2,402.3,299.2z M359.5,285c0,0-0.2-0.6,1.1-0.8
		c1.3-0.2,18.7-2.7,18.7-2.7s0.9,0,1.1,0.6c0.1,0.7-0.1,1.1-4.3,1.6c-4.2,0.5-15.3,1.9-15.3,1.9S359.6,285.8,359.5,285z"/>
	<path fill="#FFC221" d="M376.5,284.2c0,0,0,2.5,2.5,2.8c2.4,0.4,3.3-0.2,3.9-1.4c0.2-0.3,0.9-2.9-0.2-3.1c-0.4-0.1-1.2,0-1.7,0.2
		c-0.8,0.4-1.6,0.8-1.3,1.2c0.6,0.9,0.7,1.1,0.5,1.2c-0.6,0.2-1-0.3-1.2-0.7c-0.2-0.5,0.3-0.7-1.3-0.5
		C377,283.9,376.5,283.9,376.5,284.2L376.5,284.2z"/>
	<path fill="#FFC221" d="M386.9,282.3c1.3,0.1,1.2,2.8-0.3,4.1c-1.6,1.3-3.2,0.8-3.2,0.8c-0.8-0.4-0.7-0.2-0.1-1.2
		c0.6-0.9,0.9-2.2,0.6-3c-0.1-0.3,0.2-0.5,0.6-0.6C384.4,282.4,385.5,282.2,386.9,282.3z"/>
	<path fill="#FFC221" d="M388,282.6c0,0,0.9,1.1-0.2,3.3c0,0-0.5,0.6,0.6,0.5c1.1-0.1,3.6-1.3,3.4-2.8c0,0-0.1-0.4-0.7-0.3
		c-0.7,0-0.1-0.4,0.2-0.4c0.3-0.1,1.1-0.4-1.1-1.8c0,0-0.4-0.3-0.8-0.2c-0.3,0.1-1.5,0.6-1.5,1.3C387.8,282.3,388,282.6,388,282.6
		L388,282.6z"/>
	<path fill="#FFC221" d="M390.4,280.6c0,0,1.8,1.3,1.8,1.7c0,0.4-0.2,0.9,0.3,0.8c0.5,0,2.4-0.5,1.9-1.7c-0.5-1.3-1.1-1.7-2-2
		c-0.9-0.3-1.1,0.1-1.9,0.7C390.5,280,390,280.4,390.4,280.6z M380.8,282.4c0,0,0.3-0.9-1.3-1.3c0,0,0.7-0.6,2-0.3
		c1.3,0.3,1.2,1.2,1.2,1.3C382.7,282.2,381.7,282.1,380.8,282.4L380.8,282.4z M384.3,282.2c0,0,1.8-0.3,2.7-0.2c0,0-0.9-2-3.4-1.3
		C383.6,280.6,384.4,281.6,384.3,282.2L384.3,282.2z M387.4,281.7c0,0,0-0.6,1.6-1.2c0,0-0.8-0.7-1.8-0.6c-1.2,0.1-1.5,0.5-1.5,0.5
		S387,280.8,387.4,281.7z M388,279.6c0,0,1,0.2,1.6,0.8c0,0,0.9-1,1.7-1.2C391.3,279.1,389.8,278.3,388,279.6z"/>
	<path fill="#5A3719" d="M336.9,274.6c0,0,4.3-3.6,6.7-3.2c2.4,0.4,1.2,0.1,3.8-0.3c2.6-0.4,5.3-0.7,6.4-0.5c0,0-3.2-2.3-8.9-2.2
		c0,0-4,1.4-6.8,3.2c0,0-5.3-3-10.8-1.2C327.5,270.4,333.4,272.6,336.9,274.6L336.9,274.6z"/>
	<path fill="#FFC221" d="M382.5,280.9l0.7-0.1c0,0,1.2,1.5,0.3,1.5c-0.7,0-0.4-0.2-0.5-0.6C382.9,281.3,382.7,281.1,382.5,280.9z
		 M377.2,281.1c0,0-0.4,0.5,0.4,0.4c1-0.2,0.8,0,1.9-0.7c0,0,0.7-0.7,1.9-0.3c0,0,1,0.3,1.9-0.1c0.8-0.4,1-0.4,1.5-0.3
		c0.5,0,0.4,0.1,1-0.3c0.6-0.4,1.7-0.1,2.3-0.7c0.7-0.6,1.5-0.1,0-1.2c0,0-0.3-0.3-0.3-0.6c0,0,0.6,0.2,1,0.6
		c0.5,0.4,1.2,0.3,1.3,0.2c0,0,0.1-1.3,1.4-2.6c1.3-1.2,1.3-1.3,0.6-1.3c-0.8,0-2.1-0.3-2.5,0s-4.3,2.9-6.6,3.3
		C380.7,278,378.6,278.7,377.2,281.1z M316.7,267.1c0,0,7,1.8,8.5,2.5c0,0,0.4-1.2-2.8-2.1c0,0,7.7-0.2,15.8,3.5
		c0,0,3.9-3.4,16.5-2.3c0,0,0-1.1,0.1-2c0,0-8.9-0.3-17-5.2C337.9,261.5,330.6,265.1,316.7,267.1L316.7,267.1z M355.4,270.5
		c-0.5-7.1,2.2-7.7,2.2-7.7s1.3,0,2.7,0.2c0,0-2.2,2.6-1.6,7.6c0,0,0.2,0.8-1.6,0.8C355.3,271.4,355.4,270.5,355.4,270.5z"/>
	<path fill="#5A3719" d="M357.2,275.2c0,0-1.3-1.4-1.5-2.9c0,0,0-0.4,1.3-0.4c1.3,0,1.5-0.1,1.8,0.6c0.3,0.8,1.2,2.4,1.4,2.5
		L357.2,275.2L357.2,275.2z"/>
	<path fill="#FFC221" d="M360.1,271.6c-0.1-0.9-0.2-1.7-0.1-2.7c0.1-4,0.7-3.6,1-3.1l1.4,0c0,0-1-4.5-2.2-1.9
		c-1.1,2.6-1.1,4.2-0.9,6.3c0.1,1.2,0.2,1.9,0.4,2.3L360.1,271.6z"/>
	<path fill="#5A3719" d="M375.4,271.6c0,0,2.6,0.4-1.4,1.4c0,0,0.2,4.8,4.9,1.5c0,0,2.8-1.8,4.7-2.5c0,0,1-0.3,0.9-1.1
		c0,0,0.1-0.9-0.9-0.7c0,0-0.8,0-1.3-0.2c0,0-0.6-0.7-0.9-0.4s-1.3,0.1-0.6,0.9c0.7,0.8,0.9,0.6,1.2,0.4c0.3-0.2,1.8-0.8,0.5,0.4
		c-1.4,1.2-2.5-0.7-2.9-1L375.4,271.6L375.4,271.6z M362.3,272.2l-1.2,0c0,0-0.6,0.9-1.1-0.5l-0.5,0.9
		C359.6,272.5,361,277.7,362.3,272.2z"/>
	<path fill="#FFC221" d="M360.6,266.2c0,0-0.6,3.4,0.2,5.5l12.6,0.2c0,0-0.2-2.4,0-5.7h-1.8c0,0-0.2,2.7,0,4.4l-0.3,0
		c0,0-0.2-2.4,0-4.4h-1.5c0,0-0.2,2.5-0.1,4.5h-0.3c0,0-0.2-2.2,0-4.5h-1.5c0,0-0.3,2.3,0,4.4l-0.3,0c0,0-0.3-2.3,0-4.4h-1.6
		c0,0-0.4,2.1,0,4.4h-0.3c0,0-0.4-2.2,0-4.4h-1.6c0,0-0.4,2.4-0.1,4.4h-0.3c0,0-0.3-2.4,0.1-4.4h-1.5c0,0-0.4,2.1-0.1,4.4h-0.3
		c0,0-0.2-1.8,0.1-4.4L360.6,266.2L360.6,266.2z M373.9,272.4c0,0-0.3-6.2,0.8-7.7c1.2-1.6,1.4-1.3,3.4,0c2,1.3,4.6,2.6,5,2.8
		c0.4,0.2,1,0.3,1,1.4s0.2,1.5-1.5,0.1c-0.3-0.2-1.1-1-1.7-1.1c-1.6-0.5,0.4,0.3,0.9,1.1c0.5,0.7,0.8,0.6-0.4,0.9
		C380.4,270.1,376.2,271.5,373.9,272.4L373.9,272.4z"/>
	<path d="M378.3,268c0,0-0.9-1.2,0.2-1.4s1.2,1.8,1.4,3.1C380.2,270.9,378.6,268.4,378.3,268z M376.6,273.3c0,0-1.4,0.5-0.5,0.9
		c0.9,0.4,3.4-1.6,2.5-1.5C377.8,272.9,376.6,273.3,376.6,273.3z M378.5,271.4c0,0,1.2-0.1,1,0.4c-0.2,0.5-0.7,0.2-0.8,0.1
		C378.4,271.8,377.6,271.5,378.5,271.4L378.5,271.4z"/>
	<path fill="#FFC221" d="M384.8,269.8c0,0,0.3,2.3,2.3,2.9c0,0,1.2,0.3,0.9-0.7c0,0-0.2-0.9-0.4-1.2c-0.2-0.4-1-0.6-1.1-0.6
		c-0.1,0-0.2-0.3,0.4-0.1c0.6,0.2,0.6,0.2,0.6-0.2c0-0.4-0.4-0.2-0.9-0.5c-0.2-0.1,0-0.2,0.2-0.2c0.2,0,0.7,0.2,0.7-0.6
		c0,0,0.1-0.4-0.5-0.5c-0.7,0-0.6-0.3-0.4-0.4c0.2,0,0.9,0.4,1.1-0.4c0.2-0.8-1-0.3-0.8-0.8c0.2-0.4,1,0.2,1-0.3
		c0.1-0.5,0.7-0.7-0.4-0.9c-0.5-0.1,0-0.3,0.6-0.2c0.6,0.1,1-0.7,1.4-1c0.4-0.3,2.5-1.5-0.3-1.1c-2.8,0.4-3.6,1.8-3.8,2.1
		C385.4,265.5,384.6,267.2,384.8,269.8L384.8,269.8z"/>
	<path fill="#FFC221" d="M391.4,271.6c0.4-0.1,0.7,0,0.8,0.3c0.5,0.9-0.6,0.6-1.2,1.3c-0.6,0.7-0.6,0.6-1.4,0.3
		c-0.8-0.2-1.1-1.5-1.1-1.5c-0.1-0.4,0.3-0.4,0.7-0.4C389.1,271.7,390.5,271.8,391.4,271.6L391.4,271.6z M388.4,271.1
		c0,0,0.1,0.3,0.5,0.3c0.5,0,1.9,0.2,2.7-0.1c0,0,0.3-0.1,0.2-0.6c0,0,0-0.3-0.8-0.2c-0.7,0.1-1.8,0-2.2-0.1
		C388.5,270.4,388.2,270.5,388.4,271.1L388.4,271.1z M388.2,269.4c0,0,0,0.7,0.7,0.8s1.7,0.1,2.1,0c0.3-0.1,0.8-0.2,0.9-0.6
		c0-0.4,0.2-0.8-0.8-0.5c-0.9,0.2-2,0.1-2.1,0.1C388.9,269.2,388.3,269,388.2,269.4L388.2,269.4z M388.6,267.9c0,0-0.2,0.3-0.2,0.7
		c0,0.3,0.6,0.4,1.5,0.4c1,0,1.8-0.1,1.9-0.5c0.1-0.3,0.3-0.7-0.5-0.6c-0.8,0.1-1.7,0.1-2.1,0C388.9,267.8,388.6,267.8,388.6,267.9z
		"/>
	<path fill="#5A3719" d="M424.3,271.7c0,0,0,0.7,0.5,1.3l-27-0.8c0,0,0.4-0.2,0.5-1.3L424.3,271.7L424.3,271.7z"/>
	<path fill="#FFC221" d="M388.8,266.8c0,0-0.2,0.7,0.3,0.8c0.5,0.1,1.3,0.3,2.4,0.1c0,0,0.6,0,0.7-0.6c0.2-0.6,0.2-0.3-1.4-0.6
		c0,0-0.5-0.1,0.9-0.1c0,0,0.8,0,0.9-0.1c0.1-0.1,1.2-1-0.2-0.9c-1.4,0.1-0.7-0.2,0-0.2c0.7,0,0.9,0.1,1.1-0.1
		c0.2-0.2,0-0.1-0.4-0.4c-0.4-0.4-0.1-0.3,0.2-0.1s0.4,0.3,0.7,0c0.3-0.3-0.2-0.7,0-0.6c0.2,0,0.3,0.5,1.2,0.1s2.1-0.2,2.4,0
		c0.3,0.2,1.2,0.6,1.8,0c0.6-0.6-0.7-1-0.1-1.1c0.5-0.1,0.9,0.1,1.1-0.3c0.2-0.4-0.8-0.8,0.2-1.1c1-0.3,0.2-3-0.2-3.3
		c0,0-1.1,0.6-2.3,2.6s-1.9,3.1-3.5,2.5c-2.3-0.9-3.5,0.4-3.9,0.6c-0.6,0.3,1.2,0.5,0.2,0.5c-1,0-1,0.1-1.1,0.3
		c-0.1,0.2,0,0.3,0.2,0.3c0.2,0,0.6,0.4-0.1,0.4s-1.1-0.1-0.9,0.5c0,0,0,0.1,0.4,0.2c0.4,0,0.5,0.4-0.2,0.4
		C388.9,266.6,388.8,266.8,388.8,266.8L388.8,266.8z M391.3,273.6c0,0-0.5,0.3,0.2,0.4c0.7,0,1,0.2,1.2-0.2c0.2-0.4,1.1-0.2,0.5-0.7
		C392.6,272.6,392.2,272.9,391.3,273.6L391.3,273.6z"/>
	<path fill="#FFC221" d="M394.1,265.5c0,0,2.2-2.1,4.1-0.7c1.9,1.4,2.1,1.6,2.1,1.7c0,0,0.2,0.2-0.3,0.6c-0.5,0.4,0,0.4,0.5,0.2
		s0.6,0,0.9,0.3c0.3,0.3,0.6,0.5-0.2,0.5s-2.7,0-2.7,0s-1.3,0.1-0.6-0.4c0.6-0.5,0.5-1.1,0.2-1.2c-0.3,0,0,0.3-0.2,0.6
		c-0.2,0.2-0.6,0.5-1.1,0.5s-0.8,0.3-0.1,0.6c0.7,0.3-0.1,0.4-0.4,0.4c-0.4,0-2.1,0.1-0.3,0.4c1.8,0.2-0.2,0.2,1.1,0.9
		c1.4,0.8,0.4,2.6-0.1,2.7c0,0-0.6,0.3,0.2,0.2c0.8-0.1,1.2-0.2,0.6,0.2c-0.5,0.4-1.6,1.8-3.1,0.7c0,0-0.7-0.3,0.5-0.4
		c1.2-0.1-1-0.3-1.4-0.6c-0.4-0.2-1.8-1.7-0.9-1.5c0.9,0.2,0.6-0.3,0-0.5c-0.5-0.2-0.6-1,0-0.8c0.6,0.2,1.3,0.5,1.7,0.5
		c0.5,0,0.3-0.2-0.7-0.5c-1-0.3-1.4-0.4-1.2-1.2s1.3,0.3,1.1-0.3c-0.3-0.6-1.2-0.3-0.7-1.2c0.5-0.8,0.6-0.5,0.9-0.4
		c0.2,0.1,0.6,0-0.1-0.5C393.5,266,394,265.6,394.1,265.5L394.1,265.5z"/>
	<path d="M395.7,266.1c0,0,0-0.3,0.4-0.2c0.4,0,0.3-0.1,0.4-0.2c0.1-0.1,1.1,0.3,0.2,0.6C396.3,266.4,395.8,266.3,395.7,266.1
		L395.7,266.1z"/>
	<path fill="#FFC221" d="M397.8,268.5c0,0-0.8,0.4-0.1,1.2c0.6,0.7,0.6,0.9,0.5,1.3c0,0.5,26,0.7,26,0.7s0-1.7,1.1-2.6
		C425.3,269.1,411.1,268.8,397.8,268.5L397.8,268.5z"/>
	<path fill="#5A3719" d="M424.7,271.2c0,0,0.1-1.4,0.9-1.9c0.4-0.3,1-0.1,1.2,1c0.4,1.6-1,3-1.7,2.4
		C424.6,272.2,424.7,271.2,424.7,271.2L424.7,271.2z"/>
	<path fill="#7B3C20" d="M394.9,277.3c0,0,1.7-1.5,2-2.1c0,0,4.7,3.3,4.4,0.3c0,0,0-0.8,0.1-1.6c0,0,1.7,0.2,2-1.2l-4.4-0.1
		c0,0-0.5-0.1-1.1,0.6c-0.7,0.7-2.1,1.5-3.4,0.8c0,0-0.5-0.5-1.1-0.1c-0.6,0.4-0.6,0.5-0.1,0.9C393.7,275.3,394.7,276.6,394.9,277.3
		L394.9,277.3z M405,268.2l-2.6-0.1c0,0-0.9-1.3-2.8-2.8c0,0-0.5-0.2,0.5-1.1c1-0.8,1.3-1.7,1.4-2.1s-0.1-1,0.3-0.5
		c0.4,0.5,3,2.9,3.4,2.2s0.4-1,0.5-1.3c0.1-0.2,0.2-0.9,0.5-0.2s0.6,0.5,0.7,2.3c0,0,0.1,1.8,0.3,2.4C407.3,267,403.9,266,405,268.2
		L405,268.2z M393.8,262.7c0,0,2,1.1,2.9-0.4c1-1.5,1.6-1.7,0.9-3.1c-0.7-1.4,0-2.1,0.6-2.7c0.5-0.6,1-0.5,1.1-2.7s1.6-3,2.3-3.7
		s2.5-1.8-0.2-2.2c-2.7-0.4-8-1.8-9.4-3.9c-1.4-2.1-2-0.8-2-0.8c0,0.1-0.5,1.6,0.9,4.3s2.6,4.5,3.9,5.4c1.3,0.9,2.5,1.4,1.8,3.2
		C396,257.9,394.8,261.2,393.8,262.7z"/>
	<path fill="#5A3719" d="M401,256.9c0,0,0.3,4.7,3.8,6.4c0,0,0.8-1.8,0.5-3.6c0,0,1.1,0.1,1.4,0.6c0,0,0.1-1.4-1.6-1.9
		c-1.6-0.5-0.8-3.6-0.3-3.9c0.6-0.4,0.4-1,0-1.5c-0.4-0.6-0.5-1.4,0.9-1c1.4,0.4,1.1-0.4,0.3-1c-0.8-0.7-0.8-1.5,0.4-1.5
		s3-1.1,1.9-1.5c-1.1-0.4-1.5-0.7,0.1-1.2s2.3-1,1.1-1.1c-1.2-0.1-2-0.5-0.8-0.7c1.1-0.2-0.2-1.4-1.5-1.4s-4.2,0.5-1.9-1.3
		c2.3-1.8-3.3-0.5-1-1.7s-0.8-0.7-1.2-0.7s-0.4,0-0.3-0.6c0.2-0.6-0.3-0.9-1-0.5c-0.7,0.4-0.7,0.4-0.6-0.5c0-0.8-0.8-0.2-1.3,0
		c-0.5,0.2-1.7,1.1-2.2,0.6c-0.5-0.5-0.8-1-2.3-0.1c-1.5,0.9-1.2,0.1-1.1-0.3c0-0.4,0.6-2-1.5-0.3c-2.1,1.7-0.4-1.9-2.1-0.6
		c-1.7,1.2-1.8,1.4-2.1,0.9s-0.6-1-2.4,0.2c-1.8,1.2-0.5-0.7-0.2-1.1c0.3-0.4,1-3.1-0.6-1c0,0-0.8,1.4-2.5-1.1c0,0-1.8,2.6-2.3,1.4
		c-0.5-1.1-0.9-1.2-1.5-0.5c-0.6,0.7-0.2,0-0.4-0.7c-0.3-0.6-0.4-1.8-3.5,0.5c-3.1,2.2,1.1,0.6-1.3,1.6s-8,4.2-2.8,3.5
		c5.2-0.7-2.5,2-0.7,2.5c1.8,0.5,1.2,2.1,8,0.2s5.6-0.3,9.1-1.8c3.4-1.5-0.8,0.5,3.8,0.4c4.6-0.1,0.8,0,1.7,1c0.9,1,4.8,3.2,8.4,3.6
		c3.6,0.4,4.5-1,3.5,0.6c-1,1.6-1.4,2.2-2,2.7c-0.6,0.5-2.3,1.8-2.4,4c0,2.2-2.9,2.5-1.8,4.9C398.6,259.3,400.2,257.7,401,256.9
		L401,256.9z"/>
	<path fill="#5A3719" d="M407,262.1c0,0-0.8-0.6-0.8-1.6c0,0,0.6,0.1,0.8,0.5c0,0,2.1-2.4-0.4-3.2c-2.5-0.9-1.3-3.1-0.4-3.1
		s1-0.2,0.3-1.2c-0.7-0.9-0.7-1,0.8-1.2c1.4-0.2,1.2-0.5,0.6-0.9c-0.6-0.4-1.1-0.9-1.1-0.9s4-1.8,2.7-2.6c-1.3-0.8,0-0.6,1.2-1.4
		c1.2-0.8,1.3-1,1.5-1.3c0,0-1.1,0.1-2-0.1c0,0,1-0.5,0-1.3c-1-0.8-1.4-1.6-3-1.2c-1.6,0.4-1.1-0.2-0.5-0.8c0.6-0.7,0.3-1-0.8-1.2
		c0,0,0.1-0.7,1-1.5c0,0-2.2,0.2-2.9-0.2c0,0,0.9-0.6,0.9-1.3c0,0-1.2,0.4-2.7,0.2c0,0,0.9-0.8,0.9-1.4c0,0-2.6,0.6-3.8,1.5
		c0,0-0.3-0.1-0.5-0.3c-0.2-0.3-0.4-0.6-3.3,0.4c0,0,0.3-1.3,1-1.8c0.7-0.5,0.6-1.6-3.9,1.3c0,0-0.6-0.4-1.1-1.7c0,0-1,1.4-1.7,1.8
		c0,0-0.6,0.3-0.5-0.6s-0.4-0.3-0.9,0c-0.5,0.3-0.8,0.9-0.5-0.9s-0.6-2.1-0.6-2.1s-1.4,2-2.2,2.2c0,0-1.5-1.4-2-2.4
		c-0.5-1-0.5-1.3-1,0.4c-0.5,1.7-1.2,1.8-1.2,1.8s-0.9-0.8-1-1.2c0,0-0.2,0.4-0.4,0.6c0,0-0.8-0.9-0.8-2.2c0,0-4.8,2.7-5.4,4.3
		c0,0-4.6-0.3-6.5,0.1c0,0,0.5-1.5,1.7-2.2c0,0-1.2-0.1-1.2-1.4c0,0,1,0.1,1.6,0s-0.8-1.9,0.7-1.9c1.5,0,2.5,0.7,1.8-1.3
		c-0.7-2-0.4-2-0.4-2s2.6,1.6,3,1.2c0.4-0.4-0.3-1.2,2-0.8c2.3,0.4,1.7-1,2.6-1c0.9-0.1,1.4,0.6,0.8-3.7c-0.6-4.2,2.8,2.1,0.5-4.3
		c0,0-0.6-1.9-2-2.8c0,0-0.3,1.4-1.9,0.2c-1.6-1.2-4.7-1.7-3.4-2.6c1.3-1,1.9-2.3,1.5-3.1c0,0-1.5,1.6-4.2,0.5
		c-2.1-0.9-2.6,0.8-4.7,0.3c0,0,0-0.6,1.9-2s-1.1,0.5-2.2,0.7c-1.1,0.3-1.5,0,0.9-1.8c2.4-1.9,7.1-5.1,6.5-7.8c0,0,1.1,1.4,4.1,0.4
		s5.1-1.4,6-2.9c0.9-1.5,3.2-3.1,3.8-3.4s1.4-0.6,0.5,0.9c-0.9,1.4-2.4,3.9-6.5,5.6c-4.1,1.7-5.6,2.9-6.4,3.8
		c-0.7,0.9-4.4,2.8-2,2.5c2.4-0.3,6.6,0.1,4.6-0.5c-2-0.6-4.2,0.4-2.4-1.3c1.8-1.6,2.1-2.2,4.7-3.3c2.6-1.1,5.5-3.6,5.2-0.9
		c-0.3,2.6-5.1,5.5-6.3,6.3c-1.2,0.9-0.8,0.7-0.7,1.1c0,0.4-0.2,1.1-0.7,1.4s-0.3,0.7-0.2,1.4c0.1,0.7-0.1,1,0.2,1.1
		c0.4,0.1,0.7,0.2,0.8,0.7c0.1,0.5,0.4,0.6,1.1,0.5s1.1,0,1.2,0.4c0.1,0.4,0.7,1,0.8-0.3c0.1-1.2,0.5-1.5-0.7-0.9
		c-1.3,0.6-1.5,0.4-1.5-0.2c0-0.6-0.1-0.5-0.7-0.5c-0.5,0-0.7-0.8,0.2-1.3c1-0.5,0.9,0,2.1-1s1.2-1.3,1.4-1.7
		c0.2-0.5-1.7,1.3-2.6,1.7s-0.7-0.3-0.5-1.3c0.2-1,2.4-2.4,3.4-2.4c1,0,3.3,0.6,2.3,2c-1,1.4-3.8,3.1-2.6,3.2
		c1.2,0.1,1.4-0.4,2.1,0.3s0.1,1.9-0.3,2.6c-0.3,0.7-1,1.5-1.3,1.7c0,0-1.3-2.3-1.2-0.5s-0.3,2.5,0,2.5c0.3,0.1,1.7,1,2.2,1
		c0.5,0-2.5,1.4-1.2,1.5c1.2,0.1,3.2-0.5,3.8-1.8c0,0-2.5-0.6-3.5-1.5c0,0,2.9-0.7,2.1-3.5c0,0,2.9,0.8,1.6,2.1
		c-1.2,1.3-2,1.1-0.9,1.5s1.6,0.7,1.6,0.7s0.7,0.4,0.3,1s-0.4,1.5-0.1,1.5s1.6-0.6,0.6-1.2s1.2-0.5,0.2-1c-0.9-0.5-1.2-0.7-1.4-0.9
		c-0.2-0.3,11.8-7.3,5.7-4.7c0,0,1.3-2.7,3-2.7c1.8,0,1.9,1.4,0.9,2.5c-1,1.1-1.7,2.7-4,3.1c0,0,3.4,1.6-0.6,4.3
		c0,0-0.9,0.4-0.6,0.7c0.3,0.3,2.7-1,3-1.8c0.3-0.8,0.8-1.3,1.7-1.8c0.9-0.4,5.3-3.5,6.7-5.8s1.7-2.4,4.3-4.5
		c2.6-2.1,2.2-1.7,2.5-2.2s0.5-1.3,1.7-2c1.2-0.7,5.8-3.3,7.3-4.3c1.5-1.1,4.4-3,5.7-4.6c1.3-1.6,4.7-3.7,5.6-3.3
		c0.9,0.4-0.1,1.6-2.1,3.2c-2,1.5-7.1,5.6-7.9,6.2c-0.8,0.6-5.1,3.7-6.7,3.9c-1.6,0.2-1.4,0.8-2.4,1.8c-1,1-3.2,3.2-3.9,3.8
		c-0.7,0.6-2.5,1.8-2.6,2.7c-0.1,0.9,0.3,1-1.1,2.3c-1.4,1.3-5.6,4.4-7.1,4.8c0,0,2.7,0.9,1.1,2.7c-1.6,1.8-1.5,1.5-1.6,1.7
		c0,0,4.1-0.6,1.2,2.6c0,0-0.6,0.9,0.7,0c1.4-1,0.8-2.4,0.6-2.6c0,0,2.2-1.3,4.6-1.4c2.5,0,2.4-0.2,0.2-0.8c0,0,1.6-1.9,2.9-1
		s0.9,1.5-0.5,2.2c-1.4,0.8-3.5,1.1-5,1.9c0,0,2.9,0.6,4.5-0.6c1.6-1.2,1.6-0.6,1.9-0.4c0.2,0.2,0.4,0.6-0.3,1.6
		c-0.7,1-0.8,1.1-0.7,1.3c0,0.2-0.1,0.9-1.5,1.1c-1.4,0.2-2.1,0.8-1.6,1.5c0.5,0.7,0.5,2.4-0.7,2.2s-0.9-1.1-1.4-1.5
		c-0.5-0.4-1.1-1-3.2,0.1c-2.1,1.1-2.3-0.2-2.2-0.9c0,0-1.4,1.2-2.5,0.1c-1.1-1.1-0.1-1.5,0.6-2.1c0.7-0.6,3.3-1.7,1.7-1.5
		s-4,0.3-4.6-0.9c-0.6-1.2,1.2-1.1,1.5-1c0.3,0.1,1.4,1,1.5-0.2c0-1.2,1.8-1.3,1.2-1.6c-0.6-0.2-1.5,0.5-1.7,0.8
		c0,0-1.2-1.7-3.3-1.2c-2,0.6,0.6,0.3,1.2,0.4c0.5,0.1,0.2,1.1-1.6,2.7c-1.8,1.6-1,1.1,0.3,1.1c1.3,0,4.6,0,2.7,1.6
		c-1.9,1.6-2.7,2.3-3.7,2.1c-1-0.3,0.1-0.9,0.6-1.2s0.7-0.8-0.2-0.4c-0.9,0.4-1.3,0.4-2-0.9c-0.7-1.3-0.4-0.9-0.1-1.8
		c0.3-0.9,1-1.8,0.2-1.5c-0.9,0.3-0.8,0.4-0.7-0.6c0.1-1-1-1.2-1-1.2s0.4,1,0,1.6c-0.4,0.6-0.4,0.9,0.2,1c0.6,0.2,1.2,0.7,0.4,1.3
		c-0.9,0.6-0.7,0.5-0.2,0.9c0.5,0.4,1.3,0.8,0.5,1.6c-0.8,0.8-0.1,0.6,0.3,0.6s1.4,0.4,1.4,1.2c0,0.8-0.1,1,1.3,0.2
		c1.4-0.8,4.1-0.7,4,0.4c0,1.1-0.3,1.3,1.1,0.4c1.4-0.9,2.1,0.8,3.1,0c1-0.8,1.6-1.7,2.8-0.2c1.1,1.4,0.8,1.9-0.6,2.9
		c-1.4,1,0.7,0.2,1.7-0.3c1.1-0.5,4-0.9,5.7-0.2c1.7,0.8,2.2,0.6,3.4,0.1c1.2-0.5,1.9-0.6,3.8,0.6c1.9,1.3,3.4,1.5,4.4,1.5
		c0,0-2.1,0.8-4.5,1c-2.4,0.2-3.5,0.6-4,1c0,0,1.4,0.9,1.7,1.9c0,0,1.5-0.2,2.3,0.1c0,0-0.4,1.1,0.6,1.7c1,0.6,1.6,0.8,0.9,1.6
		c-0.7,0.8,1.1,0.5,0.1,1.6c-1,1.2-1.3,1.7-1.3,2.7c0,0.9,0.2,1.1-0.7,1.2s0.2,1.1-0.3,2.3c-0.4,1.2-3,1.1-2.9,4.4
		c0,0,0.7-1.6,2.2-3s1.6-1.5,1.5-2.4c0-0.8-0.1-0.6,0.7-1.3c0.8-0.6-0.4-1.2,0.5-2.1c0.8-0.9,0.1-0.7,1.1-1.6c1-0.9-0.8-1,0.1-2
		c1-0.9-2.3-2-1.4-2.6c1-0.6,2.6-1.5-3-1.4c0,0,1.3-2.2,6-1.7c0,0-1.2,0.9-1.3,1.7c0,0,0.5,0.3,0.9,0.4c0,0-0.2,0.6-1.1,1.4
		c0,0,2.5,1.4,2.9,2.2c0,0-1.5,0.5-1.9,1.1c0,0,0.7,0.8,0.9,1.7c0,0-1.7-0.2-1.9,1.1c-0.2,1.3-0.7,0.4-0.7,1.1c0,0.7,0.1,1-0.5,1.2
		c-0.6,0.1-0.1,0.7,0,1.2c0.1,0.4,0.3,1.4,0.2,1.7c0,0-0.9,0-1.2,0.1c0,0,0.3,1.8-0.7,2.1c-1,0.3,0.5,0.6-0.5,0.8
		c-1.1,0.2-0.9,0.3-2.3,2.6c0,0,1.1-0.6,2.3-1.4c1.2-0.8-0.1-0.5,1.8-2.4c1.9-1.9,1.6-2,1.4-3c-0.2-1-0.2-1.7,0.5-2.6
		c0.7-0.9,0.9-1.9,3.4-1.8c0,0-0.7-1.6-1.6-2.1c0,0,1.2-0.8,2.4-0.9c0,0-1.1-1.3-3.3-2.6c0,0,1.8-1.6,2.3-2.3c0,0-0.9,0.1-1.5,0
		c0,0,0.3-0.8,2-1.8c0,0,0.9,0.9,0.9,1.8c0,0,2.8-1.6,4.5-1.5c0,0,0.8,2.1-3.1,5.9c0,0,2.4,0.2,3.5,0.1c0,0-0.6,1.9-3.6,3
		c-3,1.1,0.6,2.4-2.4,2.2s-2.1,0.8-2,2.4c0.1,1.5,0.2,3.1,0.1,3.6c0,0-2.4-0.8-2.4,1.6c0.1,2.4-1.2,2.8-1.5,3.1c0,0-0.7-0.6-1.8-1
		C411,257.6,409.5,260.4,407,262.1L407,262.1z"/>
	<path fill="#7B3C20" d="M403.6,232.6c0,0,0.8-0.1,2.2,0.7s2.8-0.9,1.2-1.4c-1.6-0.5,0-1,1.4,0.1c1.4,1.1,2,0.6,2.5,0.2
		c0.5-0.4,1.1-0.6,0.2-1.3c-1-0.7,0.7-0.4,1.4,0.1c0.7,0.5,0.4,1,0.3,1.1s-0.2,1.7,1.2,0.2c1.4-1.4,2.1-2.8,2.1-3.5
		c0,0,0.8,0.5,0.9,1.4s1.2-0.5,1.6-1c0.4-0.5,1-1.7,0.9-2.6c0,0,1,1.5,2.4,0c1.4-1.5,0.8-0.6,2.5-1s3.9-1.7,5.1-3.1s1.2-0.5,2.8-0.8
		c1.5-0.4,4.6-2.5,4.8-3.6c0.3-1.1,0.2-1.9-0.2-1.5c-0.4,0.4-0.3,0.1-0.9-0.3c-0.7-0.4-1.6,0.5-1.6,0.5s1,0.7,0.2,1.1
		c-0.7,0.3-1.4,1.3-2.8,1c-1.4-0.4-2.8,1.3-2.8,1.3s1.2,1-0.4,1.6c-1.6,0.6-1.4,0.8-2.3,0.2c0,0-1.7,2.2-2.7,2.6c0,0-0.5,0-0.8-0.4
		c0,0-1.1,1.3-1.7,1.5c0,0-0.7-0.7-1.4-0.9c0,0-1.4,1.7-2.5,2.2c0,0-0.3-0.6-1.1-1.1c0,0-0.4,2.2-2.8,3.5c0,0,0.2-0.6-1-1.4
		c0,0-3,2.6-4.1,2.8c-1.2,0.3-0.1-0.5,0.1-0.9c0.2-0.3,0.9-1.4-0.5-1.9c-1.4-0.4-1.2,0.3-1.5,0.4c-0.3,0.1-0.3-0.3-1.3-0.1
		c-1,0.1-0.8,0.6-1.2,0.7c-0.4,0.2-2.1-0.3-2,0.8s0.9,1.9-0.6,2.5C399.6,233.1,401.6,232.9,403.6,232.6L403.6,232.6z"/>
	<path fill="#5A3719" d="M409.6,229.5c0,0,0.3-1.4-0.9-2.1c0,0,7.9-1.2,1.9-4.2c0,0,7.1-1.5,5.4-3.7c-1.7-2.3-3.3-1.8-3.5-1.7
		s1.5-1.3,2-1.1c0.5,0.2,6.1,2.4,4.7,0.5s-1.3-1.8-1.6-2.3c0,0,1.9,0,4.7,2.8c0,0,0.6-0.6,0.5-1.8c0,0,2,0.6,2.7,1.2
		c0,0,0.3-0.7,0.2-1.1c0,0,1.7,0.9,2.3,1.9c0,0,0.8-0.7,0.9-1.5c0,0,1.7,0.7,2.2,1.3c0,0,0.6-0.8,0.4-1.9c0,0,2.9,0.9,3.3-0.9
		c0,0,2.9,0.6,1,1.8c-2.4,1.5-0.2-0.4-2.7,1.4c-1.9,1.3-3,2.9-3.9,2.6c-0.7-0.2-1.5,1.7-2.4,0.8s-0.9-0.5-1.6,0.5s-1.7,2-1.7,2
		s-0.5-0.3-0.9-0.7c0,0-0.6,0.9-1.3,1.6c0,0-0.6-0.8-1.5-1.2c0,0-1.4,1.7-2.3,2.2c0,0-0.8-0.8-1.7-1.1c0,0-0.1,2.2-1.9,3.4
		c0,0-0.4-0.7-1.5-1.2C412.4,226.9,411.5,228.3,409.6,229.5L409.6,229.5z"/>
	<path fill="#5A3719" d="M405.4,226.1c0,0-1,0.7-0.3,1.5c0.6,0.8,0.7-0.1,1.4-0.2s10.4-1.7,1.7-4.3c0,0,0.4-0.3,1.9-0.5
		c1.5-0.1,7-1.6,4.4-3.6c-2.6-1.9-4.7,0.7-2.5-1.7c1.7-1.9,0.3-2.8,0.3-2.8s-5.1,3.4-6.2,4c-1.1,0.6-2.7,1.8-0.8,2.4
		s3.2-2.1,3.4-1.5c0.2,0.6-3.8,2.8-3.3,3.9c0.6,1,0.4,1.9,1.4,1.7c1-0.2,3.7,0.5,1.5,0.4S405.4,226.1,405.4,226.1L405.4,226.1z"/>
	<path d="M408.9,221.2c0,0-0.9,0.6,0.3,0.3c1.2-0.3,3.5-0.8,3.1-1.4C411.8,219.5,410.3,220.2,408.9,221.2z"/>
	<path fill="#7B3C20" d="M424.4,211.2c0,0,4.5-0.1,6.3,1.1c1.8,1.2,2.7,2.1,3.3,2.2c0,0-0.1,1.7-2.9,0.5c0,0,0.2,0.8-0.2,1.6
		c0,0-1.1-0.7-2.3-1c0,0-0.2,0.6-0.6,1c0,0-1.3-1.3-2.7-1.7c0,0-0.3,0.6-0.5,0.9c0,0-1.5-0.9-2.7-0.9c0,0,0.2,0.9,0,1.3
		c0,0-3.3-2.6-6.1-2.2c0,0,1.4,2,2.3,3.1c0,0-5.9-0.5-4.9-3.6c1-3.2-0.1-2.4,3.7-2.3C420.9,211.2,424.4,211.2,424.4,211.2z"/>
	<path fill="#5A3719" d="M396.9,219.9c0,0-0.7,0.6,0,1c0.7,0.5,3-1.2,3.3-1.4c0.3-0.2,1.1-0.2,0,0.7c-1.1,0.9-2.3,1.8-3,2.7
		c0,0,3.9-1.1,6.4-3.2s-0.1-0.8,4.2-2.8c4.3-2.1,6.6-5.4,4.2-5.1c-2.3,0.4-4.4,3-6.2,4c-1.8,1-2.8,1.1-2.5,0.6
		c0.3-0.6,1.6-0.4,4.1-2.3c2.5-2,1.9-1.9,2-2.6c0-0.7-0.9-2.4,2.8-4.4s15.3-8.7,16.3-11c0,0-3.4,0.4-7.8,3.7
		c-4.5,3.3-6.8,4.8-8.1,5.2c-1.2,0.4-1.1,0.1-1.9,1.1c-0.8,1-5.2,5.2-6,5.8s-1,1-1.1,2.3C403.5,214.7,398.5,218.5,396.9,219.9
		L396.9,219.9z"/>
	<path fill="#5A3719" d="M412.2,211.1c0,0-0.9,0.4-1.7,0c-0.8-0.4-0.6-2.2,1.4-3.3c2-1.1,5.6-2.7,7.5-2.9c0,0-0.3,2.3-6,4.3
		C413.5,209.2,413.8,210.4,412.2,211.1z"/>
	<path fill="#AA5323" d="M414.3,209.6c0,0,0.2,0.6,0,1.1c0,0,10.7,1,16.2-5.5c0,0-7.6,0.7-10.6,2.5c0,0,1.9-2.4,7.6-4.3
		c5.7-2,8-4.4,8.5-5.7c0,0-7.2,2.5-10.6,2.5c0,0-0.7,0-1.3,0.4c-0.7,0.4-5.2,3.7-6.5,4.3c0,0,2.6-0.2,3.5-1.1
		C421.1,203.7,419.3,208.5,414.3,209.6L414.3,209.6z"/>
	<path fill="#5A3719" d="M393.8,215.7c0,0-1.4,1-0.8,1.5c0.6,0.5,1.6,0.6,3.7-1.2s7.2-6.1,4-6.3c0,0-4.1-0.3-4,2.3
		C396.8,214.5,394,215.5,393.8,215.7z M384.3,214.2c0,0,2.7,1.6,1.7,2.9c0,0,8.3-7.1,6-8.6c-2.3-1.5-4.2,1.3-3.6,1.6
		c0.6,0.3,1.8-0.3,1.4,0.3S384.8,214,384.3,214.2L384.3,214.2z M382.1,211.9c0,0,1.8,0.5,1.9,1.3s5.5-3.8,4.1-5.7
		c-0.7-0.9-3.7-1.2-3.8,0.5c-0.1,1.7,2.7-0.2,1.7,1.1C384.7,210.7,382.5,211.6,382.1,211.9z M401.6,208.1c0,0-1.2,0.8-0.1,1.3
		s1.7-0.3,2.2-0.8c0.5-0.5,3.1-2.4,3.7-3.6c0.6-1.2,1.5-1.6,2.4-2.2c0.9-0.6,7.5-3.9,11.6-7.6c4.1-3.6,2.4-2.7,6.6-5
		c4.2-2.3,7-4.5,7.9-7c0,0-2,0.6-3.7,1.8c-1.7,1.1-5.6,3.5-6.4,3.9c-0.8,0.3-1.9,0.4-2.4,1c-0.6,0.6-0.5,1.3-2.6,3
		c-2,1.7-12.5,9.1-13.8,10.1C405.8,204.1,401.6,208.1,401.6,208.1L401.6,208.1z"/>
	<path fill="#AA5323" d="M393.2,210.5c0,0,1.1-0.6,3.3-0.5c2.2,0.1,10.7-8.1,13.1-9.8s10.2-7.2,11.2-8.2s1.2-2.1,2.1-2.7
		c0.9-0.6,1.7-0.5,3.8-1.7c2.1-1.2,12.1-7.2,11.5-10.7c0,0-14.9,8.9-18.3,11.8c-3.4,2.9-13,9.5-14.7,10.6c-1.7,1.1-3.1,2.9-5.9,5.2
		C396.5,206.9,393.7,208.9,393.2,210.5L393.2,210.5z"/>
	<path fill="#AA5323" d="M390.1,207.3c0,0,2.8-0.3,3.1,1.1c0,0,5.9-4.1,7.3-5.7c1.4-1.7-0.5-0.7,2.9-2.9s14.5-10,16.1-11.4
		c1.6-1.4,4.6-3.2,7-4.9c2.4-1.6,11.9-6.3,10.9-10.1c0,0-7,4.7-8.5,5.7c-1.6,1-2.2,0.4-3.8,1.7c-1.6,1.2-5.1,3.7-5.7,4.5
		s-6,4.9-8.6,6.6c-2.6,1.7-8.4,5.1-11.2,7.6C396.7,201.9,391.2,206.4,390.1,207.3L390.1,207.3z"/>
	<path fill="#AA5323" d="M381.5,206.5c0,0,1.4,0,1.8,0.6c0,0,2.6-2.3,5.3,0c0,0,10.1-6.8,11.1-8.5s2.6-1.7,6.6-4.6
		c3.9-2.9,6.4-4.1,9-6.1c2.6-2,4.8-4.3,6.7-5.5c1.9-1.2,6.6-4.3,5.8-7c0,0-3.8,2.2-6.3,4.9c-2.5,2.7-2.3,0.4-4.8,2.7
		c-2.5,2.3-6.5,5.4-9.7,7c-3.3,1.6-1.3,1.4-3.6,2.9c-2.4,1.5-2.2,1.3-3.1,1.5c-0.9,0.2-2.2,0.8-3.1,1.8s-3.2,2.4-5.7,3.8
		C388.8,201.5,382.6,205.2,381.5,206.5L381.5,206.5z"/>
	<path fill="#AA5323" d="M384.5,201.3c0,0-0.5-1.1,0.4-1.9c1-0.8,2.7-2.9,3-4.2c0.3-1.3,0.1-1.1,2.9-2.3c2.8-1.1,9.1-4.1,12.7-6.3
		c3.6-2.2,9-5.7,10.1-6.6c1.1-0.9,3.8-2.8,4.9-3.7c0,0,0.5,1.5-0.7,2.5c-1.2,1-5.8,4.3-6.6,4.8c-0.8,0.5-5,3.4-6.3,4.1
		s-4.5,2.4-5.7,3.3c-1.1,1-1,1.2-6.1,3.7c-5.1,2.5-5.3,2.7-5.2,2.9s2.4-0.8,3.5-1.4c1.1-0.6,5.3-2.6,6.5-3.5c1.2-1,3.4-2.6,4.3-3.1
		c0.9-0.5,8.5-5,10.6-6.6c2.2-1.6,2.8-2.1,3.2-1.9c0.5,0.3,1.2,0.3,0.3,1.2c-1,0.9-4,3.6-5.2,4.4c-1.2,0.8-4.8,3-5.9,3.5
		c-1,0.5-1.4,1.5-2,1.9c-0.6,0.4-2.2,1.6-4.3,2.1c-2,0.5-2.4,2-3.7,2.8c-1.3,0.9-10.8,5.9-11.1,6.2
		C384.4,203.3,384.9,202.7,384.5,201.3L384.5,201.3z"/>
	<path fill="#AA5323" d="M417.2,180.1c0,0-0.5,0.5-0.2,0.7c0.4,0.3,1.7,1.3,3.3-0.4c1.6-1.6,6-5.2,7.5-6s2.1-1.6,2.1-2.8
		C429.8,171.7,423.1,175.3,417.2,180.1z M426.5,179.5c0,0,1-1.7,3.6-3.4c2.6-1.6,6.4-4,6.9-4.6c0,0,0.9,1-1.1,2.3s-5.9,3.9-6.4,4.2
		C429.1,178.4,428.3,179,426.5,179.5z"/>
	<path fill="#7B3C20" d="M374.6,198.4c0,0-2.8,1.5-1.8,2.5c1,1,2.5,0.7,3.2,0.4s1.8-0.6,2-0.6s2.7-0.8,3.3-1.9
		c0.6-1.1,2.3-2.5,3.6-3.4c1.3-1,1.8-1.9,1.6-2.6C386.5,192.7,375.3,198,374.6,198.4z M357.8,211.5c0,0,2-1.2,4.7-0.4
		c0,0-0.1-0.7-0.5-1c0,0,3.3-0.9,4.1-2.4c0.7-1.5,0.9-1.2,1.5-1.6c0.7-0.4,5.2-4.1,4.6-4.8s-0.6-1.8-1-2.2c0,0-0.9,1.3-5.3,3.4
		c-4.4,2.1-9.2,3.7-12.8,8.5s-3.2,7.5,1.1,8.7c0,0,3-1.9,10.5-1.2c7.4,0.7,9.9,3.4,10.4,4c0.5,0.5,2,2.3,0.5,5.4
		c0,0,1.5,0.6,1.6-0.8c0.1-1.4,0.2-1.1,0.5-0.9c0.3,0.2,0.8,0.3,0.6-0.8c-0.2-1.1-0.7-3.5-1.4-4.4c-0.7-0.8,0.1-0.5,0.5-0.3
		c0.4,0.2,2,1.4,1.1-0.9c-0.9-2.3-1.2-1.2-1.2-1.1c0,0.1-0.2,0.7-2.2-0.8c-2-1.5-3.9-2.3-5.3-2.6c-1.4-0.4-0.4-0.4,0.4-0.7
		c0.8-0.3,1.9-0.5,2.3-1.4c0,0-0.8,0.2-2.3-0.3c-1.5-0.5-4.5-0.6-6.8,1.2c0,0,0.8-2.8-1.4-2.6s-3.7,0.1-6,1.9c0,0-0.1-2.8,2.1-4.2
		s1.9-0.6,3.1-0.9c1.2-0.4,1.3-1.6,0.8-2c0,0,2.9,0.5,7.7-3.5c0,0-2.6,3.4-5.7,4.1c0,0-0.5,1.8-3.4,2.2
		C357.7,209.4,357.7,211.1,357.8,211.5L357.8,211.5z"/>
	<path fill="#5A3719" d="M349.6,228c0,0,1.4-8.4,9.3-9c6.9-0.5,9.1,0.3,10.4,0.8c1.4,0.4,4.7,1.4,3.4,2.5c-1.3,1.1-2,0.9-2,0.9
		s1.5-1.7,0.1-2s-1.5,0.5-1.7,1.2c-0.2,0.7-0.3,1.5-1,2.1c0,0-0.7-0.8-1.7-0.1c-1,0.7-0.1,0.7,0.3,0.6c0.4-0.1,0.9-0.3,0.8,0.3
		s-0.7,1.7-2.3,2.5c-1.6,0.9-1.5,0.8-3.5,1.1c-1.9,0.3-3.7,1.1-6.2,3.2c-2.5,2.1-5.2,1.4-5.7-1C349.3,229.2,349.6,228,349.6,228
		L349.6,228z"/>
	<path d="M358.6,227.7c0,0,0.8-1.7-0.6-2.4c0,0-4.1,0.7-5.4-0.5c0,0,4.5-0.2,7.3-1.3c2.8-1.1,2-1.9,1-2c-1-0.2-2.7,0.3-2.9,1.1
		c0,0-0.5-0.9,0.2-1.6c0.7-0.6,1.8-0.7,2.8-0.4c1,0.3,1.9,0.7,5.1-1c0,0,1.9,0.4,1.9,1.7c0.1,1.3-0.1,1.8-0.3,2
		c-0.2,0.2-0.4,0.6-0.8,0.5c-0.4,0-0.9-0.1-1.4,0.7c-0.5,0.9-0.8,1.6-1.6,2.2c0,0,1-2.7-1.4-3.4c0,0-2,1.2-3.5,1.2
		C359,224.6,360.9,226.4,358.6,227.7L358.6,227.7z"/>
	<path fill="#5A3719" d="M362.9,222.7c0,0-0.9-1,0.3-1.1c1.2-0.1,2.8,0.8,2.5,1.5C365.3,223.9,363.9,223.8,362.9,222.7L362.9,222.7z
		"/>
	<path fill="#FFFFFF" d="M430.5,209.4c0,0-2.2,0.6-0.2,2c2,1.3,3,2.5,4.5,2.9c1.5,0.4,3,0.9,3,2.4c0,1.5-0.3,2.1-1.1,3.1
		c-0.8,1,0.4,1.5,1.5,0.9c1.1-0.6,2-0.9,2.7-1.3s1.9-0.4,0.8,0.2c-1.1,0.5-2.2,0.9-0.8,0.9c1.4,0,9.7,0.2,11.4-0.4
		c1.7-0.6,4-0.7,4.2-3c0,0,0.1-1,0.7-1.4c0.7-0.4,1.1-1.4,0.1-0.7c-1,0.7-1.7,1-1.9,0.8c-0.2-0.2-0.2-0.3,0.5-0.7
		c0.7-0.3,1.1,0,1.7-1c0.6-0.9,0.6-0.8,0.2-1.1c-0.3-0.4-1.1-0.6-0.7-1.1c0.4-0.5,0.7-1.8-0.8-1c-1.5,0.8-4.5,2.9-5.9,3.2
		s-2.4,0.7-4.3,1.1c-1.9,0.4-3,0.8-5,1.9c-2,1.1-1.9-0.6-1.5-0.8c0,0,0.8,1.3,2.8-0.4c2-1.7,1.4-0.1,6.3-1.7c5-1.6,3.7-1.9,5.7-2.9
		c1.9-1,3.8-1.1,2.4-2.4c-1.4-1.4-1.5-1.5-3.3,0c-1.8,1.5-6.6,3.8-9.5,3.9c0,0,11.2-4.8,10-5.5c-1.1-0.7-2.4-1.3-3.2-1.5
		s-1-0.4-2.8,0.4s-2.1,1-2.6,1.1c-0.5,0.1-2,0.4-4.2,1.5c-2.1,1.1-3.3,1.5-4.7,2.4c0,0,1-2,5.4-3.3c4.4-1.3,6.7-2.5,6.2-2.8
		c-0.5-0.2-1.6-0.4-2.4-0.3c-0.8,0.1-0.6-0.1-3.3,1c-2.7,1.1-1.5,0.8-3.7,1.3c-2.2,0.5-3.1,0.9-4.1,1.4c0,0,0.4-0.6,1.9-1.1
		c0.8-0.3-0.8-0.6,1.3-0.6c0.2,0,0.4,0,0.6,0c2.7-0.8,5.6-1.8,5.2-1.9c-0.5-0.1-3.1-0.4-5.7,0.9c-2.7,1.2-1.4,0.8-2.4,1
		c-0.9,0.2-2.9,1.4-3.6,2C431.5,209,430.5,209.4,430.5,209.4L430.5,209.4z"/>
	<path fill="#5A3719" d="M365,221.5c0,0,1,0.3,1.3,1s0.9-0.3,0.9-0.7c0-0.3-0.7-1.8-1.8-1.1C364.2,221.5,364.8,221.4,365,221.5
		L365,221.5z"/>
	<path fill="#7B3C20" d="M362.1,236c0,0,2.2-1,4.1-0.9c0,0-0.7-2.6,0.6-2.2c1.3,0.4,0.9,0.3,1.2,0.3c0,0,0.1-1.7-0.3-2.4
		c0,0,1.3,0.3,2.7,0.3c0,0-1.3-2.5,0.1-4.2c0,0,0.8,1.6,2.5,2c0,0,0-0.7,0-1.4c0,0,1-0.1,1.8,0.3c0.8,0.4,1.5-4.5-0.9-5.6
		c0,0-0.6,0.9-2.8,1.4c-2.2,0.5-2.2,0.9-3.1,2.6c-0.9,1.7-1.7,1.7-3.6,2.9c-1.9,1.2-3,3.7-3.1,3.9
		C361.2,232.9,362.2,234.1,362.1,236L362.1,236z"/>
	<path fill="#999999" d="M436.8,207.2c0.8-0.1-0.8-0.6,1.3-0.6c0.2,0,0.4,0,0.6,0c2.7-0.8,5.6-1.8,5.2-1.9c-0.5-0.1-3.1-0.4-5.7,0.9
		c-2.7,1.2-1.4,0.8-2.4,1c-0.9,0.2-2.9,1.4-3.6,2c-0.7,0.5-1.6,0.9-1.6,0.9s-2.2,0.6-0.2,2s3,2.5,4.5,2.9s3,0.9,3,2.4
		c0,1.5-0.3,2.1-1.1,3.1c-0.8,1,0.4,1.5,1.5,0.9c1.1-0.6,2-0.9,2.7-1.3s1.9-0.4,0.8,0.2c-1.1,0.5-2.2,0.9-0.8,0.9
		c1.4,0,9.7,0.2,11.4-0.4s4-0.7,4.2-3c0,0,0.1-1,0.7-1.4c0.7-0.4,1.1-1.4,0.1-0.7c-1,0.7-1.7,1-1.9,0.8c-0.2-0.2-0.2-0.3,0.5-0.7
		c0.7-0.3,1.1,0,1.7-1c0.6-0.9,0.6-0.8,0.2-1.1c-0.2-0.2-0.4-0.3-0.6-0.5c0,0-0.5-0.4-1.1-0.1c-0.6,0.4-3.1,1.4-4.2,1.6
		c-1,0.1-2.1,0.6-3.9,1.5s-4.9,2.7-5.4,1c0,0-1.3,0.5-1.6,0.6c-2.1,1-1.9-0.4-1.5-0.8c0,0-1.1,1.2-1,0.1c0-1.1,0.7-0.9,1.9-1.3
		c1.2-0.4,3.1-1.1,2.3-1.8c-0.8-0.6-1.6,0.6-2.5,1c-0.9,0.4-2.6,0.7-2.9-0.5s-0.3-2.1-2.6-2.3c-2.4-0.1-2.3-1.6-1.6-2.2
		C434,208.7,434.5,207.6,436.8,207.2L436.8,207.2z"/>
	<path d="M444.2,218.6c0,0,3.7-1.7,7-2.5s0.7,0.1,0.2,0.3c-0.6,0.2-5.8,1.9-7,2.5C443.1,219.5,443.4,219,444.2,218.6L444.2,218.6z
		 M445.1,219.3c0,0,4.1-1.4,4.9-0.8c0.8,0.6,0.1,0.3-0.8,0.4c-0.9,0.1-3.4,0.5-4,0.5C444.5,219.5,445.1,219.3,445.1,219.3z
		 M451.7,217.9c0,0,0.8-0.1,0.9,0.1c0.1,0.3-0.3,0.3-0.8,0.3C451.3,218.3,450.9,218,451.7,217.9z"/>
	<path fill="#FFFFFF" d="M343,253.7c0,0-0.2-3.6,1.7-5.4c1.8-1.8,10.7-11,12-13.6c0,0,1.1,0.8,1.2,2.3c0,0,1.5-2.6,2.7-3.5
		c0,0,1,1.1,0.9,3.2c0,0,2.1-1.1,5.4-1.1c0,0-1.2,1.4-1.3,2.3c0,0,4.6-0.5,7-0.1c0,0-6.3,3.5-4.5,3.8c1.8,0.3,3.6,0,3.6,0
		s-2,2-5.2,2.5c0,0,4.1-0.1,4.9,0.9c0,0-4,0.6-7.1,3c0,0-0.3-0.1-0.3-1c0,0-0.1,0.8-1,1.6c-0.9,0.8-3.1,2.4-3.9,3.2
		c-0.8,0.8-2.3,2.4-3.9,2.4c0,0,0.4-1.2-0.8-1.6c-1.2-0.4-2.6-0.1-3.5,0.9c0,0-4.3,0.1-5.6,0.3c0,0,1-1.5,1.8-1.5
		c0.9,0,4.5,0.5,4.8-1.9c0.3-2.4-2.3-1.8-1.3-3.2c1-1.4,0.8-1.4,0.8-1.5c0,0-0.8,0.4-1.3,1.7s-0.8,2.3-2.5,3.6
		c-1.7,1.3-2.4,2.1-2.9,3C344.5,253.5,343.7,253.6,343,253.7z"/>
	<path fill="#FFFFFF" d="M347.1,251.6c0,0,0.1-0.5,1.4-0.7c1.2-0.2,1.3-0.8,1.1-1.1c-0.2-0.3-0.9-0.3,0.3-1.6c0,0,0.4,0.1,0.7,0.5
		S352.4,251.9,347.1,251.6z"/>
	<path fill="#999999" d="M344.1,249c0.1,2.4,3.2,1.5,3.2,1.5c-1.1,0.9-1.8,1.5-2.3,2.1c0.2-1.2-1.8-1.5-1.8-1.5
		C343.5,250.4,343.7,249.7,344.1,249z M355.7,236.2c0.5-0.6,0.8-1.1,1-1.5c0,0,1.1,0.8,1.2,2.3c0,0,1.5-2.6,2.7-3.5
		c0,0,1,1.1,0.9,3.2c0,0,2.1-1.1,5.4-1.1c0,0-1.2,1.4-1.3,2.3c0,0,4.6-0.5,7-0.1c0,0-6.3,3.5-4.5,3.8c1.8,0.3,3.6,0,3.6,0
		s-2,2-5.2,2.5c0,0,4.1-0.1,4.9,0.9c0,0-1.2,0.2-2.7,0.7c0,0-1.2-1.1-4.6-0.9c0,0,2.6-1.5,4.7-1.9c0,0-0.9-1.2-2.4-0.1
		c0,0-2.9-2-0.5-3.7c0,0-1.7-0.4-2.8,0.4c0,0,0.1-1.4,1.3-2c0,0-3.2-0.5-4,1.8c0,0-0.6-1-0.3-2.1c0,0-1.9,1.1-2.8,2.4
		C357.3,239.5,357,237.1,355.7,236.2 M349.5,251.4c-0.6,0.1-1.3,0.2-2.4,0.1c0,0,0.1-0.3,0.7-0.5C347.9,251,348.1,251.4,349.5,251.4
		"/>
	<path d="M355.4,242.3c0,0,1.5,1.1,2,1.9c0,0,1.3-0.9,1.8-1.7c0,0,1,0.7,1.4,1.7c0,0,0.7-0.5,0.9-1.2c0,0,1.8,0.4,2.4,1
		c0,0,0.3-1.8,0-2.9c0,0,1.3,0.1,2.1,0.4c0,0-0.7-1.2,3-2.7c0,0-2.8,0.6-3.9,1.8c0,0-1.2,0.1-1.7-0.3c0,0,0.1,1.8,0,2.6
		c0,0-0.7-0.3-2.1-0.6c0,0-0.3,0.6-0.6,0.7c0,0-0.9-0.7-1.3-1.6c0,0-1.4,1.2-1.9,1.8C357.5,243.3,356.2,242.4,355.4,242.3
		L355.4,242.3z"/>
	<path fill="#FFC221" d="M347,260.6c0,0,0.6,0.3,1.9-0.8c1.4-1.1,5.2-3.5,5.5-5.5c0.4-1.9-1.2-2.1-2.5-1.5c-1.2,0.6-0.7,1.7-0.7,2
		c0.1,0.4,0.1,1.7-2,3.6C347.3,260.3,347,260.6,347,260.6L347,260.6z"/>
	<path fill="#FFC221" d="M346.5,261.2c0,0-3.1-1.3-0.3-2.7c2.8-1.4,4-1.8,4.3-2.9c0.3-1.1,0.1-1-0.9-0.5s-4.9,2.2-5.5,0.6
		c0,0,1.6,0.6,3.6-0.4s3.6-1.3,2.4-1.7c-1.3-0.4-5.9,0.1-6.6,0.3c-0.8,0.2-0.6,0.2-0.7,0.9c-0.1,0.8-1,2.4-1.3,2.8
		c-0.3,0.5-1.1,2.4,0.3,3.3C343.2,261.9,345.4,261.9,346.5,261.2z"/>
	<path d="M345.3,254.5c0,0-0.7,0.1-0.6,0.4c0.1,0.3,0.3,0.2,0.6,0.3c0.3,0,0.7-0.1,0.7-0.3C346.1,254.6,345.6,254.4,345.3,254.5
		L345.3,254.5z"/>
	<path fill="#FFFFFF" d="M346.3,260.5c0,0-1.5-0.7,0.2-1.6s3.4-1.8,3.6-2.1C350.2,256.8,349.4,257.9,346.3,260.5L346.3,260.5z"/>
</g>
</svg>
