<?xml version="1.0" encoding="utf-8"?>
<!-- Generator: Adobe Illustrator 27.9.1, SVG Export Plug-In . SVG Version: 6.00 Build 0)  -->
<svg version="1.1" id="atg" xmlns="http://www.w3.org/2000/svg" xmlns:xlink="http://www.w3.org/1999/xlink" x="0px" y="0px"
	 viewBox="0 0 500 500" style="enable-background:new 0 0 500 500;" xml:space="preserve">
<style type="text/css">
	.st0{fill:#FFFFFF;}
	.st1{fill:#0072C6;}
	.st2{fill:none;}
	.st3{fill:#CE1126;}
	.st4{fill:#FCD116;}
</style>
<circle class="st0" cx="250" cy="250" r="245"/>
<path class="st1" d="M12,195.4h472v108.5H12V195.4z"/>
<path class="st2" d="M497,250C497,113.6,386.4,3,250,3C137.1,3,41.9,78.7,12.4,182.2L248.5,497c0.5,0,1,0,1.5,0
	C386.4,497,497,386.4,497,250z"/>
<path class="st3" d="M3,250c0,135.9,109.8,246.2,245.5,247L12.4,182.2C6.3,203.7,3,226.5,3,250z"/>
<path class="st2" d="M250,3C113.6,3,3,113.6,3,250s110.6,247,247,247c0.6,0,1.2,0,1.7,0l235.9-314.5C458.3,78.9,363,3,250,3z"/>
<path class="st3" d="M497,250c0-23.4-3.3-46.1-9.4-67.6L251.7,497C387.3,496,497,385.8,497,250z"/>
<polygon class="st2" points="63,249.6 82.9,276.1 417.4,276.1 437.3,249.6 "/>
<path class="st2" d="M63,249.6l-50.8-67.7C6.2,203.2,3,225.7,3,249c0,136.4,110.6,247,247,247s247-110.6,247-247
	c0-23.2-3.2-45.6-9.2-66.8l-50.6,67.5H63z"/>
<path d="M250,2C136.8,2,41.5,78.1,12.2,181.9L63,249.6h374.2l50.6-67.5C458.7,78.2,363.3,2,250,2z"/>
<polygon class="st4" points="400.5,133.1 317.8,150.2 365.2,80.3 295.3,127.7 312.4,45 266,115.6 250.1,32.7 234.3,115.6 187.9,45 
	204.9,127.7 135.1,80.3 182.5,150.2 99.8,133.1 170.3,179.5 87.4,195.4 250.1,249.6 412.8,195.4 329.9,179.5 "/>
<circle class="st2" cx="237" cy="250" r="247"/>
</svg>
