<?xml version="1.0" encoding="utf-8"?>
<!-- Generator: Adobe Illustrator 28.2.0, SVG Export Plug-In . SVG Version: 6.00 Build 0)  -->
<svg version="1.1" id="aus" xmlns="http://www.w3.org/2000/svg" xmlns:xlink="http://www.w3.org/1999/xlink" x="0px" y="0px"
	 viewBox="0 0 500 500" enable-background="new 0 0 500 500" xml:space="preserve">
<circle fill="#012169" cx="251" cy="250" r="246"/>
<g id="stars">
	<g id="Comwlth" transform="translate(2520, 3780) scale(2.1)">
		<path id="Star7" fill="#FFFFFF" d="M125.1,274.2l7.2,22.5l22.1-8.4L141.4,308l20.3,12.1l-23.5,2l3.2,23.4l-16.3-17.1l-16.3,17.1
			l3.2-23.4l-23.5-2l20.3-12.1l-13.1-19.7l22.1,8.4L125.1,274.2z"/>
	</g>
	<g id="αCrucis">
		<path id="Star7_00000080900247598587630260000001946648439407987329_" fill="#FFFFFF" d="M375.1,314.7l3.4,10.7l10.5-4l-6.2,9.4
			l9.7,5.7l-11.2,1l1.5,11.1l-7.7-8.2l-7.7,8.2l1.5-11.1l-11.2-1l9.7-5.7l-6.2-9.4l10.5,4L375.1,314.7z"/>
	</g>
	<g id="βCrucis">
		<path id="Star7_00000003821247761998431090000010073412579377706383_" fill="#FFFFFF" d="M312.6,215.7l3.4,10.7l10.5-4l-6.2,9.4
			l9.7,5.7l-11.2,1l1.5,11.1l-7.7-8.2l-7.7,8.2l1.5-11.1l-11.2-1l9.7-5.7l-6.2-9.4l10.5,4L312.6,215.7z"/>
	</g>
	<g id="γCrucis">
		<path id="Star7_00000103225514940970189670000011939726614649507986_" fill="#FFFFFF" d="M375.1,148l3.4,10.7l10.5-4l-6.2,9.4
			l9.7,5.7l-11.2,1l1.5,11.1l-7.7-8.2l-7.7,8.2l1.5-11.1l-11.2-1l9.7-5.7l-6.2-9.4l10.5,4L375.1,148z"/>
	</g>
	<g id="δCrucis">
		<path id="Star7_00000027602134807245594640000003301516410105667255_" fill="#FFFFFF" d="M430.7,199.1l3.4,10.7l10.5-4l-6.2,9.4
			l9.7,5.7l-11.2,1l1.5,11.1l-7.7-8.2l-7.7,8.2l1.5-11.1l-11.2-1l9.7-5.7l-6.2-9.4l10.5,4L430.7,199.1z"/>
	</g>
	<g id="εCrucis">
		<path id="Star5" fill="#FFFFFF" d="M400.1,249.2l2.7,6.7l7.2,0.5l-5.5,4.6l1.7,7l-6.1-3.8l-6.1,3.8l1.7-7l-5.5-4.6l7.2-0.5
			L400.1,249.2z"/>
	</g>
</g>
<g id="symbol">
	<polygon fill="#FFFFFF" points="283.6,95.4 197.9,53 173.9,64.9 263.6,109.3 283.6,109.3 283.6,109.3 	"/>
	<path fill="#FFFFFF" d="M205,57.7l78.6-38.9V6.2c-6.2-0.8-12.5-1.4-18.8-1.8L181,45.8L205,57.7z"/>
	<path fill="#FFFFFF" d="M283.6,42.2H119.2C108.6,49,98.6,56.5,89.2,64.7h194.5V42.2z"/>
	<path fill="#E4002B" d="M283.6,47.1H111.8c-5.8,4-11.5,8.2-16.9,12.7h188.7V47.1z"/>
	<path fill="#FFFFFF" d="M183.4,43.5l-34.8-17.2c-8,3.7-15.8,7.8-23.3,12.2l34,16.8L183.4,43.5z"/>
	<path fill="#E4002B" d="M173.4,48.4l-34.8-17.2c-2.8,1.5-5.6,3-8.4,4.6l34.4,17L173.4,48.4z"/>
	<path fill="#E4002B" d="M195.1,52.8L283.6,9V6.2c-3.2-0.4-6.5-0.8-9.8-1.1l-87.6,43.3L195.1,52.8z"/>
	<polygon fill="#FFFFFF" points="161.7,53 80.2,93.3 80.2,109.3 96,109.3 185.8,64.9 	"/>
	<polygon fill="#E4002B" points="192.7,55.6 183.9,59.9 283.6,109.3 283.6,100.5 	"/>
	<polygon fill="none" points="283.6,109.3 283.6,109.3 283.6,109.3 	"/>
	<polygon fill="#E4002B" points="171.7,57.9 80.2,103.2 80.2,109.3 85.5,109.3 180.5,62.3 	"/>
	<path fill="#FFFFFF" d="M201.9,108.4V8.9c-15.3,3.1-30,7.6-44.1,13.4v86.1H201.9z"/>
	<path fill="#E4002B" d="M192.3,108.4V11.1c-8.5,2.1-16.8,4.6-24.9,7.5v89.8H192.3z"/>
</g>
</svg>
