<?xml version="1.0" encoding="utf-8"?>
<!-- Generator: Adobe Illustrator 28.2.0, SVG Export Plug-In . SVG Version: 6.00 Build 0)  -->
<svg version="1.1" id="aze" xmlns="http://www.w3.org/2000/svg" xmlns:xlink="http://www.w3.org/1999/xlink" x="0px" y="0px"
	 viewBox="0 0 500 500" enable-background="new 0 0 500 500" xml:space="preserve">
<circle fill="#509E2F" cx="250" cy="249" r="250"/>
<path fill="#EF3340" d="M250-1C111.9-1,0,110.9,0,249c0,31,5.7,60.8,16,88.2h468c10.3-27.4,16-57.1,16-88.2C500,110.9,388.1-1,250-1
	z"/>
<path fill="#00B5E2" d="M250-1C142.5-1,50.8,66.9,15.5,162.1h469C449.2,66.9,357.5-1,250-1z"/>
<g id="crest">
	<circle fill="#FFFFFF" cx="222.6" cy="249.1" r="81.9"/>
	<circle fill="#EF3340" cx="240.8" cy="249.1" r="68.3"/>
	<path fill="#FFFFFF" d="M313.6,203.6l8.7,24.5l23.5-11.2l-11.2,23.5l24.5,8.7l-24.5,8.7l11.2,23.5l-23.5-11.2l-8.7,24.5l-8.7-24.5
		l-23.5,11.2l11.2-23.5l-24.5-8.7l24.5-8.7l-11.2-23.5l23.5,11.2L313.6,203.6z"/>
</g>
</svg>
