<?xml version="1.0" encoding="utf-8"?>
<!-- Generator: Adobe Illustrator 28.2.0, SVG Export Plug-In . SVG Version: 6.00 Build 0)  -->
<svg version="1.1" id="dza" xmlns="http://www.w3.org/2000/svg" xmlns:xlink="http://www.w3.org/1999/xlink" x="0px" y="0px"
	 viewBox="0 0 500 500" enable-background="new 0 0 500 500" xml:space="preserve">
<path fill="#006633" d="M250.1,0c0,0-0.1,0-0.1,0C111.9,0,0,111.9,0,250s111.9,250,250,250c0,0,0.1,0,0.1,0V0z"/>
<path fill="#FFFFFF" d="M500,250C500,112,388.1,0.1,250.1,0v500C388.1,499.9,500,388,500,250z"/>
<g id="crest">
	<path fill="#D21034" d="M358.4,187.5c-34.5-59.8-111-80.3-170.8-45.8s-80.3,111-45.8,170.8s111,80.3,170.8,45.8
		c19-11,34.8-26.8,45.8-45.8c-34.5,43.1-97.4,50.1-140.6,15.6s-50.1-97.4-15.6-140.6s97.4-50.1,140.6-15.6
		C348.6,176.5,353.8,181.8,358.4,187.5"/>
	<polygon fill="#D21034" points="363.2,250 250.1,213.3 320,309.4 320,190.6 250.1,286.7 	"/>
</g>
</svg>
