<?xml version="1.0" encoding="utf-8"?>
<!-- Generator: Adobe Illustrator 28.2.0, SVG Export Plug-In . SVG Version: 6.00 Build 0)  -->
<svg version="1.1" id="aia" xmlns="http://www.w3.org/2000/svg" xmlns:xlink="http://www.w3.org/1999/xlink" x="0px" y="0px"
	 viewBox="0 0 500 500" enable-background="new 0 0 500 500" xml:space="preserve">
<path fill="#012169" d="M0,0h500v500H0V0z"/>
<g id="symbol">
	<line x1="5.9" y1="12.5" x2="228.5" y2="123.7"/>
	
		<rect x="105.4" y="-56.3" transform="matrix(0.4472 -0.8944 0.8944 0.4472 3.8691 142.4777)" fill="#FFFFFF" width="23.5" height="248.8"/>
	<line x1="219.5" y1="11.7" x2="5.3" y2="123.8"/>
	<polygon fill="#FFFFFF" points="10.6,134.4 0,113.2 214.2,1.1 224.8,22.2 	"/>
	<polygon fill="none" points="-1.6,17.2 -1.6,68.1 236.1,68.1 236.1,99 202.1,119 	"/>
	<polygon fill="none" points="222.8,9.4 111.6,4.4 111.6,134.3 10.5,114.1 10.5,116.3 	"/>
	<line x1="5.9" y1="12.5" x2="228.5" y2="123.7"/>
	
		<rect x="109.8" y="-56.3" transform="matrix(0.4472 -0.8944 0.8944 0.4472 3.8689 142.4776)" fill="#C8102E" width="14.8" height="248.8"/>
	<line x1="228.4" y1="12.7" x2="11.9" y2="126"/>
	<polygon fill="#C8102E" points="8.7,130.5 2,117.1 216.1,5 222.8,18.3 	"/>
	<line x1="116.2" y1="-0.4" x2="116.2" y2="134.2"/>
	<rect x="95.9" y="-0.4" fill="#FFFFFF" width="40.7" height="134.7"/>
	<line x1="0.4" y1="68.1" x2="238.1" y2="68.1"/>
	<rect x="0.4" y="50.2" fill="#FFFFFF" width="237.7" height="35.9"/>
	<line x1="116.2" y1="-0.4" x2="116.2" y2="134.2"/>
	<rect x="104.7" y="-0.4" fill="#C8102E" width="23.1" height="134.7"/>
	<line x1="0.4" y1="68.1" x2="238.1" y2="68.1"/>
	<rect x="0.4" y="57.3" fill="#C8102E" width="237.7" height="21.5"/>
</g>
<g id="crest">
	<path fill="#FFFFFF" d="M334.6,206.8c0,42.2,5.6,56.7,16.9,66.5c6.7,5.8,9.7,8,20.1,13.9c10.4-6,13.4-8.1,20.1-13.9
		c11.3-9.8,16.9-24.3,16.9-66.5c-8.2,3-12.8,4.5-19.6,4.4c-6-0.1-12.4-2.5-17.4-4.4c-4.9,1.9-11.3,4.4-17.4,4.4
		C347.4,211.3,342.8,209.8,334.6,206.8L334.6,206.8z"/>
	<path fill="#FF9900" d="M372.7,227.9c1.7,3.4,7.3,7.1,8.8,9c-1.9,1.8-2.3,1.6-2.1,5c3.4-2.9,3.5-3.2,5.6-2.8
		c4.8,4,0.9,12.4-3.1,14.3c-3.9,2-3.2-0.1-9.1,2.4c2.7,1.9,5.9-0.3,8.4,0.3c1.4,1.4-0.7,3.9,0.4,6.2c2.3-0.2,2-4,2.5-5.4
		c1.7-5,11.6-8.6,12.1-13.2c2.1-0.8,4.2-0.3,6.8,0.9c-1.3-4.3-5.5-4.3-6.6-5.6c-2.7-3.4-5.1-7.3-10.8-8.3c-4.4-0.8-4,0.2-6.8-1.3
		C377.2,228.3,371.9,226.2,372.7,227.9L372.7,227.9z"/>
	<ellipse fill="#FFFFFF" cx="384.4" cy="231.7" rx="0.9" ry="0.8"/>
	<path fill="#FF9900" d="M358.8,242.3c2.8-2.9,4.2-8.7,5.4-10.7c2.9,0.6,2.8,1,6.3-0.8c-4.7-1.1-5.1-1-5.6-2.8
		c2-5.3,12.9-6.4,16.7-4.4c3.9,2,1.4,2.4,6.8,5.6c0.8-2.9-3-4.2-3.6-6.3c0.8-1.7,4.4-1.3,6.4-3.2c-1.3-1.6-5.2,0.4-6.9,0.7
		c-6.2,1.1-14.6-4.5-19.7-2.7c-1.9-1.2-2.2-3-2.2-5.4c-4,3-2,6-2.9,7.5c-2.4,3.6-5.4,7.1-3.8,11.8c1.2,3.5,2.1,2.8,1.7,5.6
		C357.2,238.8,357.4,243.7,358.8,242.3L358.8,242.3z"/>
	<ellipse fill="#FFFFFF" cx="357.5" cy="231.9" rx="0.9" ry="0.8"/>
	<path fill="#FF9900" d="M381.6,244.3c-4.4-0.5-11.1,1.5-13.8,1.7c-0.9-2.3-0.5-2.5-4.1-4.1c1.3,3.9,1.6,4.1,0,5.4
		c-6.5,1.4-13.3-5.8-13.2-9.6c0-3.8,1.7-2.3,2.2-7.7c-3.4,0.9-2.7,4.3-4.7,5.8c-2.1,0.3-3.7-2.5-6.7-2.9c-1,1.7,3.1,3.5,4.2,4.6
		c4.4,3.8,2.9,12.7,7.4,15.4c-0.2,1.9-1.9,3.1-4.4,4.3c5.1,1.3,7.3-1.7,9.2-1.8c4.9-0.2,10.1,0.2,14.1-3.4c3-2.7,1.8-3,4.9-4.2
		C378.9,247.2,383.8,244.6,381.6,244.3L381.6,244.3z"/>
	<ellipse fill="#FFFFFF" cx="371.6" cy="250.5" rx="0.9" ry="0.8"/>
	<path fill="#99CCFF" d="M343.9,264.3c2.2,3.6,4.7,6.4,7.6,8.9c6.7,5.8,9.7,8,20.1,13.9c10.4-6,13.4-8.1,20.1-13.9
		c2.9-2.5,5.4-5.4,7.6-8.9H343.9z"/>
	<path fill="#FDC301" d="M333.1,205.1c0,43.9,5.9,59,17.6,69.2c7,6,10.1,8.3,20.9,14.5c10.9-6.2,14-8.5,20.9-14.5
		c11.7-10.2,17.6-25.3,17.6-69.2c-8.5,3.2-13.4,4.7-20.4,4.6c-6.3-0.1-13-2.6-18.1-4.6c-5.2,2-11.8,4.5-18.1,4.6
		C346.4,209.8,341.6,208.3,333.1,205.1z M371.6,207.6c5,1.9,11.4,4.3,18.1,4.4c6.2,0.1,11.3-1.3,17.6-3.5
		c-0.2,19.7-1.5,33.7-4.2,43.3c-2.8,10.2-6.9,16-12.5,20.9c-6.5,5.6-9.8,8-19,13.3c-9.2-5.3-12.5-7.7-19-13.3l0,0c0,0,0,0,0,0
		c-5.5-4.8-9.6-10.6-12.5-20.9c-2.7-9.6-4-23.6-4.2-43.3c6.3,2.2,11.4,3.6,17.6,3.5C360.2,212,366.5,209.6,371.6,207.6z"/>
</g>
</svg>
