<?xml version="1.0" encoding="utf-8"?>
<!-- Generator: Adobe Illustrator 28.2.0, SVG Export Plug-In . SVG Version: 6.00 Build 0)  -->
<svg version="1.1" id="and" xmlns="http://www.w3.org/2000/svg" xmlns:xlink="http://www.w3.org/1999/xlink" x="0px" y="0px"
	 viewBox="0 0 500 500" enable-background="new 0 0 500 500" xml:space="preserve">
<path fill="#D50032" d="M0,0h500v500H0V0z"/>
<path fill="#FEDD00" d="M0,0h340v500H0V0z"/>
<path fill="#10069F" d="M0,0h160v500H0V0z"/>
<g id="crest">
	<path fill="#C6AA76" d="M235.4,172.7c5.7,0,8.1,4.9,13.8,4.9c3.5,0,5.6-1.2,8.7-2.9c2.2-1.2,3.5-1.9,6-1.9c2.5,0,4.1,0.8,5.4,2.9
		c0.7,1.2,1.3,3.6,1,5c-0.4,2.1-1.1,4.2-2,6.2c-0.5,1.2-1,1.9-1,3.1c0,3,4.1,4.1,7,4.1c0.6,0,5.8,0.1,9-3.1
		c-1.7-0.1-3.7-1.4-3.7-3.1c0-2,1.4-3.3,3.2-3.8c0.4-0.1,1,0.2,1.3,0c0.5-0.2,0.2-0.7,0.6-1.1c0.9-0.7,1.5-1.2,2.7-1.2
		c0.7,0,1.3,0.2,1.8,0.6c0.3,0.2,0.4,0.5,0.9,0.5c0.9,0,1.3-0.5,2.1-0.5c0.6,0,1.2,0.1,1.7,0.4c0.5,0.3,0.5,1.1,1.1,1.1
		c0.3,0,1.8-0.6,2.6-0.6c1.6,0,2.5,0.6,3.6,1.8c0.3,0.3,0.5,1,0.8,1c1,0.1,2,0.5,2.8,1.2c0.3,0.3,0.6,0.6,0.8,1
		c0.2,0.3,0.5,1.1,0.8,1.2c0.4,0.1,0.9,0.2,1.3,0.5c1.3,0.8,2,2.1,2.1,3.6c-0.1,0.5-0.2,1.1-0.4,1.6c-1.4,4.9-4.7,6.5-8.1,10.7
		c-1.4,1.8-2.6,3.2-2.6,5.5c0,0.6,0.7,1.6,1,2c-0.2-1.1,0.3-2.4,1.4-2.5c1.5,0,2.8,1.1,3,2.7c0,0.5-0.1,0.9-0.2,1.4
		c0.9-0.6,1.9-0.9,3-1c0.5-0.1,0.9-0.1,1.4-0.1c2.5,0.1,5.3,1.5,6.9,2.9c5.1,4.3,5.7,10.7,5.5,12.5c-0.6,3.9-0.2,11-10.3,13.9
		c1.9,0.8,3.1,2.2,3.1,3.9c0,1.9-1.4,3.4-3.3,3.5c-1,0.1-1.9-0.3-2.6-1c-2.1,2.1-2.5,4.2-2.5,7.2c0,1.5,0.4,3.1,1.1,4.4
		c0.8,1.7,1.3,2.7,2.8,3.9c0.7-1.1,1.5-2,2.9-2c1.3,0,2.4,0.4,3,1.6c0.2,0.4,0,0.7,0.2,1c0.2,0.5,0.6,0.6,0.9,1c0.4,0.7,0,1.3,0.3,2
		c0.2,0.5,0.7,0.5,0.9,1c0.3,0.6,0.4,1.3,0.4,2c0,2.2-2,3.8-4.3,3.8c-0.7,0-1-0.3-1.7-0.2c1.3,1.3,2.3,1.8,3.2,3.4
		c1.4,2.2,1.8,3.8,2.1,6.4c0.1,0.4,0.1,0.9,0.1,1.3c0,3.3-0.5,5.4-2,8.3c-1.4,2.9-2.7,4.5-5.3,6.3c-4.1,2.9-7,3.8-11.9,4.7
		c-2.7,0.6-5.4,0.9-8.1,1.1l-10.5,0.5c-5.4,0.4-9.1,1.1-12.9,4.9c1.8,1.3,3,2.6,3,4.8c0,2.3-1.4,3.9-3.6,4.6c-0.5,0.2-0.9,0-1.3,0.3
		c-0.6,0.3-0.5,0.9-1.1,1.3c-0.8,0.5-1.8,0.8-2.8,0.7c-2,0-3.4-0.5-4.8-1.9c-1.6,1.4-2.2,2.6-4,3.6c-0.6,0.3-0.9,0.8-1.6,0.8
		c-1.1,0-1.6-0.7-2.5-1.3c-1.2-0.9-2.3-1.9-3.3-3c-1.7,1-2.7,1.8-4.6,1.8c-1,0.1-2.1-0.2-3-0.8c-0.5-0.3-0.6-0.8-1.1-1.1
		c-0.6-0.3-1-0.2-1.6-0.5c-2.2-1-3.7-2.6-3.7-5.1c0-2.1,1.4-3.5,3.3-4.4c-3.7-3.7-7.4-4.4-12.7-4.7l-10.4-0.5
		c-2.8-0.2-5.5-0.6-8.2-1.1c-2.4-0.4-3.8-0.5-6.1-1.5c-7.6-3.6-12.5-8.4-13.5-16.8c-0.1-0.6-0.1-1.2-0.1-1.9c0-4.3,1.7-7,4.8-10.1
		c-0.8-0.2-1.3,0.1-2.1-0.2c-1.9-0.7-3.3-2-3.3-4.1c-0.1-0.7,0.1-1.3,0.4-1.9c0.3-0.5,0.8-0.6,0.9-1.1c0.2-0.7-0.1-1.2,0.3-1.8
		c0.2-0.4,0.6-0.5,0.8-0.9c0.7-1.4,1.5-2.5,3-2.5c1.3,0,2.2,0.7,2.8,1.8c1.3-0.6,1.6-1.5,2.4-2.8c1.2-2,1.8-3.4,1.8-5.8
		c0-1.4-0.2-2.8-0.7-4.1c-0.4-1.1-0.5-1.9-1.3-2.7c-0.7,0.7-1.6,1.1-2.6,1c-2.1-0.1-3.8-1.8-3.8-4c-0.1-1.5,0.8-2.9,2.2-3.4
		c-1.2-1-2.2-1.1-3.4-1.9c-1.9-1.2-2.6-2.5-3.9-4.4c-0.8-1.3-1.1-2.1-1.5-3.6c-0.5-1.5-0.8-3-0.8-4.6c0-0.4,0-0.8,0.1-1.2
		c0.5-3.7,1.1-5.9,3.4-8.8c1.4-1.7,2.3-2.8,4.3-3.6c1.7-0.7,2.7-1.3,4.6-1.3c0.5,0,1,0,1.4,0.1c0.8,0,1.5,0.2,2.2,0.6
		c0.3,0.2,0.8,0.6,0.8,0.3c0-0.4-0.2-0.6-0.2-1c0-1.5,1.1-3,2.7-3c1.1,0,1.6,1,2.1,2c0.3-0.5,0.5-1.1,0.5-1.7c0-2.6-1.4-3.9-3-5.9
		c-3.5-4.3-7.8-6.4-7.8-11.9c0-1.7,0.8-2.8,2.2-3.6c0.4-0.2,1,0,1.4-0.3c0.3-0.2,0.3-0.7,0.5-1c0.3-0.5,0.7-0.9,1.1-1.2
		c0.8-0.7,1.5-0.5,2.4-1.1c0.4-0.3,0.5-0.7,0.9-1.1c1-1.2,1.9-1.7,3.4-1.7c0.7,0,1.3,0.1,1.9,0.3c0.2,0.1,0.7,0.5,0.8,0.4
		c0.3-0.4,0.7-0.6,1.1-0.9c0.5-0.3,1.1-0.4,1.6-0.4c0.8,0,1.4,0.5,2.2,0.5c0.3,0,0.4-0.3,0.6-0.5c0.7-0.5,1.2-0.8,2-0.8
		c0.7,0,1.5,0.3,2.1,0.7c0.7,0.4,0.8,1,1.5,1.4c0.4,0.2,0.7,0.1,1.1,0.3c1.9,0.6,3.4,1.9,3.4,3.9c0.1,1-0.3,1.9-1.1,2.6
		c-0.6,0.6-1.3,0.5-2.1,0.7c2.7,2.1,5,2.7,8.4,2.7c3.1,0,7-1.3,7-4.4c0-1.5-0.8-2.2-1.4-3.6c-1-2.4-1.6-3.8-1.6-6.4
		c0-2.1,0.2-3.3,1.4-5C231.8,173.1,233.3,172.7,235.4,172.7L235.4,172.7L235.4,172.7z"/>
	<path fill="none" stroke="#713F2A" stroke-width="1.041" stroke-linejoin="round" d="M214.6,189.4c0.3,0.9,0.9,1.6,1.8,1.8
		c1.1,0.2,2.2-0.2,2.9-1c0.6-0.9,0.8-2,0.4-3c-0.2-0.7-0.7-1.2-1.3-1.7L214.6,189.4L214.6,189.4L214.6,189.4z"/>
	<path fill="none" stroke="#713F2A" stroke-width="1.037" stroke-linecap="round" d="M310.3,246.7c-0.9-2.1-3.2-1.2-3.3,0
		c-0.3,2.7,2.1,3.6,3.8,3.1c0.8-0.2,1.5-0.7,1.9-1.4c0.5-0.8,0.6-1.8,0.3-2.8c-0.3-0.9-0.8-1.6-1.6-2.1c-0.7-0.4-1.4-0.5-2.5-0.5
		c-4.1,0-7.8,4.9-9,10c-0.7,2.9-0.7,6-0.2,9c0.6,3.2,2.1,6.1,4.4,8.4c1.3,1.2,2.7,2.3,4.3,3.1c1,0.5,2,0.9,3.1,1.3
		c1,0.3,2,0.3,2.9,0.1c2.5-0.5,3.6-2.8,2.4-5.2c-1-1.9-4-3-5.4-0.5c-0.2,0.4-0.3,0.7-0.3,1.1c0,0.7,0.2,1.3,0.7,1.7
		c1.1,0.7,2.8,0.5,2.7-1.4"/>
	<path fill="none" stroke="#713F2A" stroke-width="1.276" d="M297.5,274.9c1.3-1.4,3-2.4,4.9-2.7c2.2-0.3,4.1,0.4,6.1,1.4
		c3.8,2.1,6,4.3,7.4,8.4c0.4,1.4,0.7,2.8,0.6,4.3c-0.1,2.7-0.7,5.6-1.5,7c-0.6,1.2-2.3,6.7-11.4,10.4c-5.3,2.2-13.5,2.7-19.1,2.9
		c-7.7,0.3-14.9,0.6-19,5.7"/>
	<g>
		<path fill="none" stroke="#713F2A" stroke-width="1.121" d="M299.4,283.6c-0.2-0.8,0-1.6,0.6-2.5c0.9-1.2,2.7-1.6,4.4-0.7
			c0.7,0.4,1.4,0.9,1.9,1.6l0.9,1.2c0.3,0.6,0.6,1.2,0.8,1.9c1.8,5.2-1.1,10.8-4.9,13.1c-3,1.8-6.5,2.5-10.7,3
			c-1.9,0.2-3,0.2-4.9,0.3c-1.5,0.1-2.9,0-4.1,0l-3,0c-1.8-0.1-3.6,0-5.4,0.1c-2.2,0.2-3.8,0.2-5.6,0.5c-1.2,0.2-2.6,0.4-4.1,0.7
			c-0.4,0.1-0.9,0.2-1.3,0.3l-0.9,0.3c-2.5,0.7-5,1.8-7.3,3.1c-0.7,0.4-1.3,0.8-1.8,1.3c-0.3,0.3-0.7,0.6-1,0.9
			c-1.4,1.4-2.9,2.9-3.2,5c-0.1,0.4-0.1,0.8-0.1,1.2c0,1.3,1.1,3.1,4,3.7 M257.8,192c0.6,1.1,0.9,1.8,0.6,2.9
			c-0.4,1.3-1.3,2.1-2.6,2.1c-3,0-4.7-3.5-3.4-5.7c2.4-4,6.9-1.7,11.1,0.2c-0.2-1-0.6-1.3-0.5-2.6c0.1-3.1,2.4-4.5,3.3-7.4
			c0.6-1.7,0.8-3.2-0.5-4.4c-1.1-1.1-2.4-1.1-3.8-0.5c-2.9,1.1-6.3,4.4-12.4,4.4c-6.1-0.1-9.5-3.3-12.4-4.4
			c-1.4-0.6-2.7-0.6-3.8,0.5c-1.3,1.2-1,2.7-0.5,4.4c0.9,2.9,3.2,4.3,3.3,7.4c0,1.3-0.3,1.6-0.5,2.6c4.2-2,9-4.4,11.1-0.2
			c1.2,2.3-0.4,5.7-3.4,5.7c-1.3,0-2.2-0.8-2.6-2.1c-0.3-1-0.1-2.1,0.6-2.9"/>
		<path fill="none" stroke="#713F2A" stroke-width="1.121" stroke-linecap="round" d="M246,190c1.1,0.9,2,2,1.8,3.7
			c-0.1,1.9-0.6,2.4-2.1,3.4 M247.5,194.2c0,1.1-0.7,2-1.7,2.4"/>
	</g>
	<path fill="#C6AA76" d="M217.8,185.1l0.5,0.4l0.6,0.6l0.4,0.7l0.2,0.6l0,0.8l0,0.6l-0.2,0.6l-0.4,0.4l-0.4,0.5l-0.6,0.3l-0.8,0.2
		l-0.7,0.1l-0.7-0.3l-0.7-0.5l-0.4-0.6l-0.3-0.7v-0.3L217.8,185.1L217.8,185.1L217.8,185.1z"/>
	<path fill="none" stroke="#713F2A" stroke-width="1.041" stroke-linecap="round" d="M216.7,188c-0.2-1.2-1.7-1.5-2.2-0.8
		c-0.9,1.1-0.2,3,1.5,3.5c1.1,0.2,2.2-0.2,2.9-1c1-1.5,0.7-3.5-0.8-4.5l-0.1-0.1c-2-1.5-5.3-1.2-6.4,1.4c-1.4,3.3,1.6,5.8,4.4,7.7
		c3.5,2.4,7.5,2.8,10.5,2.8c6.8-0.1,12-3.3,15.4-5.2c0.8-0.4,1.6-0.3,2,0.1c0.5,0.6,0.4,1.5-0.2,2"/>
	<path fill="none" stroke="#713F2A" stroke-width="1.057" d="M196.5,280.3l-1.5,0.6l-1.6,1.2l-0.7,0.9l-0.9,1.5l-0.4,1.1l-0.3,1.4
		l-0.1,1 M205.2,280.4l-0.1,1.3l-0.2,0.9l-0.7,1.6l-1,1.4l-1.1,0.9l-0.8,0.4l-1.1,0.3"/>
	<path fill="none" stroke="#713F2A" stroke-width="1.197" d="M249.8,315.9c-0.3,1.2-1.4,2.6-3.9,3.2l-0.5,0.1"/>
	<path fill="none" stroke="#713F2A" stroke-width="1.356" d="M312.7,276.6c1.7,1.6,2.9,3.6,3.6,5.8c0.4,1.4,0.7,2.8,0.6,4.3
		c-0.1,2.7-0.7,5.6-1.5,7c-0.6,1.2-2.3,6.7-11.4,10.4c-5.3,2.2-13.5,2.7-19.1,2.9c-7.6,0.3-14.7,0.6-18.8,5.5"/>
	<path fill="none" stroke="#713F2A" stroke-width="0.929" d="M300.2,281.5c0.6-0.8,2.6-1.7,4.3-0.8c0.7,0.4,1.3,0.9,1.8,1.5"/>
	<path fill="none" stroke="#713F2A" stroke-width="1.356" d="M310.7,274.8l1.1,0.4c1,0.3,2,0.3,2.9,0.1c2.1-0.6,3.5-2.6,2.4-5.2
		c-0.3-0.6-0.7-1.2-1.3-1.6"/>
	<path fill="none" stroke="#713F2A" stroke-width="1.041" stroke-linecap="round" d="M190.7,219.7c-1.4,0.9-2.5,1.1-3.6,2.4
		c-0.9,1.6-1.5,3.3-2,5.1 M219.5,188.6c0,1.3-0.9,2.1-2.2,2.4"/>
	<path fill="none" stroke="#713F2A" stroke-width="0.997" d="M307.4,213.9c3.5-0.1,13.7,2.7,13.8,14.7c0.1,11.9-7.3,13.8-10.3,14.6"
		/>
	<path fill="none" stroke="#713F2A" stroke-width="1.037" d="M308.3,213.9c6.1-0.3,12.3,4.2,12.6,15.4c0.2,8.7-6,12.7-8.9,13.4"/>
	<path fill="none" stroke="#713F2A" stroke-width="0.881" d="M304.9,255.9l0.1-1.2l0.4-1.9l0.6-1.5l0.6-1.2l0.8-1 M313.2,246.6
		l-0.1,1.2l-0.3,0.8l-0.5,0.8l-0.6,0.4l-0.9,0.3l-0.8,0.1l-0.6-0.1 M298.7,210.8l0.3-1.3l0.6-1.2l0.7-1.2l1.2-1.6l1-1.1l1.6-1.6
		l1.4-1.4l0.9-1l1.1-1.4l1-1.5l0.6-1.3l0.3-1.6l0.1-2l-0.2-0.6 M300.2,287.4l1.2-0.2l0.9-0.5l0.5-0.5l0.4-0.6l0.2-0.9l0-0.6
		 M185.7,275l0.9,0.1l1.1-0.1l1.1-0.4 M192.6,247.4l-0.1,1l-0.2,0.5l-0.4,0.4l-0.5,0.4l-0.5,0.2l-0.7,0.1l-0.5,0 M197,238.5
		l-0.3,1.6l-0.3,0.7l-0.6,0.9l-0.9,0.7l-0.9,0.4l-1.7,0.4 M203.7,213.7l-0.3,1l-0.4,0.7l-0.6,0.8l-0.8,0.7l-0.9,0.4l-0.8,0.2l-0.5,0
		 M199.7,212.8l0,0.7"/>
	<g>
		<path fill="none" stroke="#713F2A" stroke-width="0.987" stroke-linecap="round" d="M201.1,237.8c-0.5,0.4-1,0.7-1.6,1
			 M311.5,272.1c0.1,0.1,0.3,0.1,0.4,0.1c1.1,0.6,3.1-0.2,2.5-1.8"/>
		<path fill="none" stroke="#713F2A" stroke-width="0.987" d="M307.9,249.3c0.7,1,2.2,1.2,3.3,0.9c0.8-0.2,1.5-0.7,1.9-1.4
			c0.5-0.8,0.6-1.8,0.3-2.8c-0.1-0.4-0.3-0.9-0.6-1.2c-0.3-0.4-0.6-0.8-1-1.1c-0.1-0.1-0.2-0.1-0.2-0.2 M316.2,268.9
			c0.2-1-0.2-2-0.9-2.7c-0.2-0.2-0.4-0.4-0.6-0.6 M315,265.9c0-1.4-1.2-2.4-2.6-2.6 M309.3,265.4c-0.3-0.2-0.7-0.5-1-0.8
			c-2-2.1-3.2-5-3.2-7.9c0-3.1,1.2-6.2,2.7-7.4 M265.7,312.2l1.3-1.2l0.9-0.7l1.7-1.1l1.6-0.8l1.1-0.3l2.3-0.5l2.7-0.4 M255.5,321.6
			c-1,1.5-3.3,3.7-5.7,4.6c-2.4-0.9-4.7-3.1-5.7-4.6"/>
		<path fill="none" stroke="#713F2A" stroke-width="0.987" stroke-linecap="round" d="M245.8,318.5c-0.3,1.1-0.9,2.2-1.7,3.1"/>
		<path fill="none" stroke="#713F2A" stroke-width="0.987" d="M246.1,317l-0.3,1.6 M244,321.7l-0.7,0.7l-1.3,0.7l-1.4,0.4
			 M236.4,191.3c0.2-0.6,0.4-1.3,0.3-1.9c-0.1-3.1-2.4-4.5-3.3-7.4c-0.6-1.7-0.8-3.2,0.5-4.4c1.1-1.1,2.4-1.1,3.8-0.5
			c2.9,1.1,6.3,4.4,12.4,4.4c-6.1-0.1-9.5-3.3-12.4-4.4c-1.4-0.6-2.8-0.7-3.9,0.3c-1.3,1.2-0.9,2.9-0.4,4.6c0.9,2.9,3.1,4.3,3.2,7.4
			c0,0.7-0.1,1.3-0.4,1.9 M250.1,181.2c6-0.3,11.1-4.3,12.7-4.6c1.5-0.3,2.3-0.2,3.4,0.8c-1.1-1-2.3-0.9-3.7-0.4
			c-2.9,1.1-6.3,4.4-12.4,4.4 M309.3,265.4c-2.9-2.2-4.6-5.6-4.6-9.2c0-3.1,1.2-6.2,2.7-7.4 M255.3,321.4c-1,1.5-3.3,3.7-5.7,4.6
			c-2.4-0.9-4.7-3.1-5.7-4.6"/>
		<path fill="none" stroke="#713F2A" stroke-width="0.987" stroke-linecap="round" d="M240.1,192.8l1.7-1c0.8-0.4,1.7-0.3,2.1,0.2
			c0.5,0.6,0.5,1.5-0.1,2.1"/>
		<path fill="none" stroke="#713F2A" stroke-width="0.987" d="M231.2,197c4.1-0.9,7.4-2.7,9.9-4.1 M265.1,315.1
			c0.2,0.2,0.4,0.4,0.6,0.7c0.1,0.2,0.2,0.4,0.2,0.6c0.2,0.9-0.3,1.7-1.2,1.9c-0.1,0-0.2,0-0.3,0c-1.1,0.1-2.2-0.5-2.6-1.5
			 M231,196.8c4.1-0.9,7.4-2.7,9.9-4.1 M313.5,272.2c-0.8,0.3-1.2,0.3-2.2-0.2c-0.4-0.2-0.9-0.4-1.4-0.8c-1.9-1.1-4.1-2.8-6.3-6.7
			c-0.6-1.1-1-2.2-1.3-3.3c-0.2-0.8-0.3-1.6-0.4-2.5c0-1.6,0.1-3.1,0.5-4.6c0.4-2.5,1.5-4.8,3-6.7c0.9-1.2,1.6-1.9,3.2-1.9
			 M201.8,216.2c1.3,1,2,2.6,2,4.3c0,2.3-1.9,6.1-6.7,7.4c-1.6,0.4-3.3,0.2-4.7-0.6 M202.6,224c0.8,0.5,1.3,1.5,1.2,2.4
			c0,0.8-0.5,1.8-1.4,2.8c-1.7,1.8-4,2.9-6.5,3c-1.6,0-3.2-0.4-4.5-1.3c-1.4-0.9-2.4-2.4-2.9-4"/>
		<path fill="none" stroke="#713F2A" stroke-width="0.987" d="M202.5,229c1,0.9,1.3,2,1.3,3.4c0,2-0.8,3.6-2.7,5.3
			c-0.4,0.4-0.9,0.7-1.4,1 M295.9,222.3v2.6 M295.7,221.6v3.7 M295.9,213.6v4.9 M295.7,212.6v6.6 M294.3,280.2
			c-0.8,1.6-1.8,3-3.1,4.2c-1.2,1.3-2.7,2.3-4.3,3c-1.5,0.8-3.2,1.3-4.9,1.6c-1.7,0.4-3.4,0.6-5.1,0.6c-1.6,0.1-3.1,0-4.7-0.1
			c-2-0.1-3.1-0.4-5-0.6c-1.4-0.2-2.8-0.3-4.2-0.3c-1.4,0-2.9,0.1-4.3,0.3c-1.3,0.2-2.6,0.6-3.9,1.1c-2,0.8-4.3,2.2-4.7,2.9
			c-0.5-0.6-2.7-2-4.7-2.9c-1.2-0.5-2.5-0.9-3.9-1.1c-1.4-0.2-2.8-0.3-4.3-0.3c-1.4,0-2.8,0.1-4.2,0.3c-2,0.2-3.1,0.4-5,0.6
			c-1.6,0.1-3.1,0.2-4.7,0.1c-1.7,0-3.4-0.2-5.1-0.6c-1.7-0.3-3.3-0.9-4.9-1.6c-1.6-0.7-3.1-1.8-4.3-3l-0.5-0.5 M239.9,323.6
			l1.3-0.2 M263.8,321.7l1.3-0.1l1.3-0.5l0.9-0.5l1.2-1.4l0.3-0.5l0.2-1.2l0.1-0.6 M303.9,215c0.6-2-0.1-4-2-4 M203.7,245.7
			c-0.4,1.5-1.4,2.7-2.7,3.5 M203.7,214.4c-0.4,1.3-1.4,2.4-2.7,3c-1.4,0.6-3,0-3.8-0.6"/>
		<path fill="none" stroke="#713F2A" stroke-width="0.987" stroke-linecap="round" d="M193.3,221.6c1.1,0.6,2.3-0.3,2.1-1.8
			c-0.2-0.9-1-1.6-1.9-1.6"/>
		<path fill="none" stroke="#713F2A" stroke-width="0.987" d="M198,284.3c0.2,0.2,0.3,0.5,0.6,0.6c0.5,0.1,0.9,0.3,1.4-0.4
			c0.6-0.8,0.3-2.1-0.4-2.9c-1.1-1.2-2.9-1.4-4.3-0.7c-0.7,0.4-1.4,0.9-1.9,1.6l-0.9,1.2c-0.3,0.6-0.6,1.2-0.8,1.9
			c-1.5,4.3,0.3,8.9,3.1,11.7"/>
		<path fill="none" stroke="#713F2A" stroke-width="0.987" stroke-linecap="round" d="M265,315c0.2,0.2,0.3,0.4,0.5,0.6
			c0.1,0.2,0.2,0.4,0.2,0.6c0.2,0.9-0.3,1.7-1.2,1.9c-0.1,0-0.2,0-0.3,0c-1.1,0.1-2.1-0.5-2.5-1.5"/>
		<path fill="none" stroke="#713F2A" stroke-width="0.987" d="M301.7,186.2c2.6,0.4,4.6,2.6,4.7,5.2c0,3.3-1.1,4.5-2.8,6.9
			c-1.9,2.5-7.9,7.1-7.9,12.4c0,3.2,0.9,5.2,3.2,6.3c1.5,0.7,3.2-0.1,4-0.8c1.9-1.7,1.2-4.8-0.9-5.2c-2.4-0.4-2.9,3.4-0.5,3.1
			 M314.6,265.6c-0.2-1.5-1.6-2.5-3.1-2.3c-1.4,0.2-2.4,1.4-2.3,2.8c0,0.7,0.3,1.4,0.8,1.9 M297.5,216.2c-1.3,1-2,2.6-2,4.3
			c0,2.3,1.9,6.1,6.7,7.4c1.8,0.5,3.6,0.5,4.6-0.2 M190.8,220c-1.4,0.4-2.7,1.3-3.6,2.6c-0.9,1.3-1.4,3-1.7,4.5
			c-0.2,1.6-0.2,3.3,0.1,5c0.3,1.5,0.9,2.9,1.7,4.2c0.2,0.3,0.5,0.6,0.8,0.9c0.3,0.2,0.5,0.5,0.8,0.7 M236.5,306.3
			c3.6,1.6,6.3,2.8,8.5,6.3c0.6,1.1,0.9,2.4,0.9,3.6c0,2.2-0.9,4.2-2.5,5.7c-1.3,1.2-3.2,1.8-5,1.5c-1.4-0.1-2.8-1.2-3-1.9
			 M200.9,237.8c2,1.6,2.9,3.1,2.9,5.6c0.1,2.3-1,4.4-3,5.6"/>
		<path fill="none" stroke="#713F2A" stroke-width="0.987" stroke-linecap="round" d="M199,247c3,3.8,4.6,6,4.7,10.5
			c0.1,4.2-1.3,7.1-3.8,10.1"/>
		<path fill="none" stroke="#713F2A" stroke-width="0.987" d="M257.3,197c0.6-0.4,1-1,1.2-1.7c0.4-1.1,0.4-2.1-0.2-2.9
			c0.7,1,0.8,1.8,0.6,2.9c-0.1,0.7-0.6,1.1-1.2,1.7 M295.9,261.2v12h0c0,0.6,0,1.2-0.1,1.9l-0.2,1.3"/>
		<path fill="none" stroke="#713F2A" stroke-width="0.987" d="M295.7,260v13h0c0,0.6,0,1.2-0.1,1.9l-0.3,2 M295.7,244.8v10.8
			 M295.9,245.7v8.8 M295.9,234.5v6.6 M295.7,233.7v8.1 M295.9,227.8v2.6 M295.7,227.2v3.7 M294.3,279.4l-0.3,0.5
			c-0.8,1.6-1.8,3-3.1,4.2c-1.2,1.3-2.7,2.3-4.3,3c-1.5,0.8-3.2,1.3-4.9,1.6c-1.7,0.4-3.4,0.6-5.1,0.6c-1.6,0.1-3.1,0-4.7-0.1
			c-2-0.1-3.1-0.4-5-0.6c-1.4-0.2-2.8-0.3-4.2-0.3c-1.4,0-2.9,0.1-4.3,0.3c-1.3,0.2-2.6,0.6-3.9,1.1c-2,0.8-4.3,2.2-4.7,2.9
			c-0.5-0.6-2.7-2-4.7-2.9c-1.2-0.5-2.5-0.9-3.9-1.1c-1.4-0.2-2.8-0.3-4.3-0.3c-1.4,0-2.8,0.1-4.2,0.3c-2,0.2-3.1,0.4-5,0.6
			c-1.6,0.1-3.1,0.2-4.7,0.1c-1.7,0-3.4-0.2-5.1-0.6c-1.7-0.3-3.3-0.9-4.9-1.6c-1.6-0.7-3.1-1.8-4.3-3c-0.7-0.6-1.3-1.3-1.8-2.1
			 M205.4,279.7c0.3,2.1-0.4,4.1-1.7,5.7c-0.6,0.7-2,1.9-3.7,2c-2.8,0-3.7-1.9-3.8-2.4 M202.1,278.5c0.6,0.6,1,1.2,1.4,1.9
			c0.7,1.3,0.5,3.6-0.1,4.6c-0.1,0.1-0.1,0.2-0.2,0.4 M188.1,298.8c1.7,1.8,4.2,3.7,8.1,5.3c5.3,2.2,13.5,2.7,19.1,2.9
			c7.5,0.3,14.4,0.6,18.6,5.2 M246.8,309.1c1.2,1.2,2.5,2.5,3,4.2 M244.4,321.9c-1.4,1.5-3.4,2.2-5.5,2c-1.3-0.2-2.4-0.9-3.2-1.9
			 M231.7,319.8c0.1,0.1,0.1,0.2,0.2,0.3c1,1.1,2.3,1.7,3.8,1.8 M255.7,321.8c-1,1.5-3.3,3.7-5.7,4.6c-2.4-0.9-4.7-3.1-5.7-4.6
			l-0.2-0.3 M255.8,321.8c0.2,0.2,0.4,0.4,0.6,0.5c1.4,1.2,3.2,1.8,5,1.5c1.3-0.1,2.4-0.8,3-1.9c0.1-0.2,0.3-0.3,0.3-0.5"/>
		<path fill="none" stroke="#713F2A" stroke-width="0.987" d="M264.2,321.5l-0.6,0.9l-0.8,0.7l-1.3,0.5l-1.2,0"/>
		<path fill="none" stroke="#713F2A" stroke-width="0.987" d="M267.2,313.1c0.7,0.6,1.3,1.3,1.7,2.2c0.2,0.6,0.4,1.2,0.4,1.8
			c0.1,1.1-0.3,2.2-1.1,3.1c-1,1.1-2.5,1.8-4,1.8h-0.3 M264,321.7c-1.5,0-2.9-0.5-3.9-1.6 M307.5,269.6c-1.5-1.4-2.7-3-3.6-4.8
			c-0.6-1.1-1-2.2-1.3-3.3c-0.2-0.8-0.3-1.6-0.4-2.5c0-1.6,0.1-3.1,0.5-4.6c0.5-2.5,1.5-4.8,3-6.7c0.4-0.6,1-1.2,1.5-1.7
			 M306.3,189.5c1.9,0.1,3.6,2.2,3.6,4.2c0,2.9-1,4.1-3.3,6.9c-2,2.4-7.8,6.7-7.7,10.8c0.1,0.8,0.4,1.5,0.9,2.1 M297.4,216.1
			c0.4,0.4,1,0.8,1.5,1c1,0.4,2.2,0.3,3.2-0.2 M286.4,184.8c0.7,0.5,1.3,1.1,1.6,1.9c1.4,3.3-1.6,5.8-4.4,7.7
			c-1.9,1.2-4,2.1-6.2,2.4 M283.2,191.2c-0.9,0-1.8-0.4-2.3-1.1c-0.2-0.2-0.4-0.5-0.5-0.7 M269.3,193c-0.4-0.2-0.7-0.4-1-0.7
			c-0.8-0.9-1.1-2.2-0.6-3.3c0.5-1.4,2.7-5.4,2.8-8.1c0.2-4.2-1.4-6.7-4-7.6"/>
		<path fill="none" stroke="#713F2A" stroke-width="0.987" stroke-linecap="round" d="M270.3,180l-0.1,1.6l-0.4,1.6l-0.8,2.2
			l-0.6,1.4l-0.7,1.4l-0.3,1l-0.1,0.7l0.1,0.7 M295.6,284.6c0.1,0.2,0.3,0.4,0.4,0.6c0.5,0.8,2.4,2.2,4.1,2.2c2.8,0,3.5-1.9,3.6-2.4
			c0.4-2.1-0.4-2.7-1.5-3.3c-0.4-0.2-0.9-0.3-1.4-0.2"/>
		<path fill="none" stroke="#713F2A" stroke-width="0.987" d="M188.2,275.2c-0.9,0.3-1.8,0.3-2.7,0c-2.1-0.6-3.8-2.6-2.9-5.2
			 M192.5,246.4c0.2,0.2,0.3,0.5,0.3,0.8c0.3,2.7-2.1,3.5-3.8,3.1c-0.9-0.3-1.7-0.9-2.2-1.7c-0.3-0.5-0.5-1.1-0.5-1.7 M202.7,229.2
			c0.4,0.4,0.7,0.8,0.9,1.3 M202.8,224.2c0.4,0.3,0.7,0.6,0.9,1"/>
		<path fill="none" stroke="#713F2A" stroke-width="0.987" stroke-linecap="round" d="M203.8,227.7c-0.3,0.7-0.7,1.2-1.2,1.8
			c-1.7,1.8-4,2.9-6.5,3c-1.6,0-3.2-0.4-4.5-1.3c-1.5-1-2.6-2.4-3-4.2"/>
		<path fill="none" stroke="#713F2A" stroke-width="0.987" d="M202,216.3c0.8,0.7,1.4,1.5,1.8,2.5"/>
		<path fill="none" stroke="#713F2A" stroke-width="0.987" stroke-linecap="round" d="M203.7,222.3c-1,2.9-3.4,5.2-6.4,5.8
			c-1.8,0.5-4.1-0.1-4.9-0.8"/>
		<path fill="none" stroke="#713F2A" stroke-width="0.987" d="M190.5,221.8c0.2,2,1.5,3.4,4,3.5c3.5,0.1,5.6-5,2.5-8.6"/>
		<path fill="none" stroke="#713F2A" stroke-width="0.987" stroke-linecap="round" d="M182.6,238.8c0.5,0.6,1.1,1.2,1.7,1.7
			c1.3,1.1,2.8,1.9,4.4,2.5 M192.7,243.4c3.1-0.4,4.9-2.7,4.5-5.4c-0.3-2.1-2.2-3.7-3.5-3.8"/>
		<path fill="none" stroke="#713F2A" stroke-width="0.987" d="M197.8,211c1.2,0,2.1,1,2.1,2.1l0,0.1"/>
		<path fill="none" stroke="#713F2A" stroke-width="0.987" stroke-linecap="round" d="M197.5,192.4c0.7,1.8,2,3.4,3.7,4.3
			 M308.5,219.8c1.3,1.8,0.4,5.2-3,5.3c-1.4,0-2.6-0.7-3.3-1.9"/>
		<path fill="none" stroke="#713F2A" stroke-width="0.987" d="M295.9,196.9v11.8"/>
		<path fill="none" stroke="#713F2A" stroke-width="0.987" stroke-linecap="round" d="M193.3,221.6c1.1,0.8,2.5-0.5,1.9-1.9
			c-0.4-0.9-1.7-2-3.5-0.7c-2,1.4-1.5,5.8,2.4,5.8c3.5,0.1,5.6-5,2.5-8.6c-3-3.4-8.4-2.6-12,0.2c-2.6,2.2-4.5,5.3-5.3,8.6
			c-0.3,1.2-0.4,2.5-0.4,3.8c0.1,3.1,1,6.1,2.6,8.7c0.3,0.4,0.6,0.8,1,1.2c0.4,0.5,0.9,1,1.4,1.4c2,1.7,4.6,3,7.8,2.9
			c3.5-0.1,5.5-2.6,5.1-5.5c-0.4-2.8-3.2-4.2-5-2.9c-1.3,0.9-1.7,3.6,0.5,4.3c1.3,0.4,2.4-1.2,1.5-2.1 M290.2,183.3
			c2-1.1,3.6-0.9,4.7,0.7c1.1,1.6,1.5,3.5,1.1,5.4c-0.4,2-1,2.8-2.6,4.3 M295,184.2c2.3-1.5,4.8-0.9,6.1,1.1c1,1.5,1.3,2.7,1.2,4.6
			c-0.2,2.9-1.8,5.4-4.3,6.8"/>
		<path fill="none" stroke="#713F2A" stroke-width="0.987" d="M305.8,189.5c2,0.2,3.4,1.9,3.4,3.9c0,2.9-0.8,4.1-3.1,6.9
			c-2,2.4-7.8,6.7-7.7,10.8c0.1,1.6,1.4,3,2.5,3.1"/>
		<path fill="none" stroke="#713F2A" stroke-width="0.987" stroke-linecap="round" d="M306.1,221.6c-1.1,0.8-2.4-0.5-1.9-1.8
			c0.4-0.9,1.6-2.1,3.5-0.8c2,1.4,1.5,5.8-2.4,5.8c-3.5,0.1-5.9-4.9-2.5-8.6c3.1-3.4,8.7-2.7,12.3,0.1c1.5,1.2,4.6,4.5,5.2,8.8
			c0.8,5.2,0.7,11.7-4.7,15.7c-2.3,1.6-5.1,2.3-7.9,2.2c-3.5-0.2-5.5-2.6-5.1-5.5c0.4-2.8,3.1-4,5-2.9c2.1,1.1,1.7,4-0.5,4.3
			c-1.3,0.2-2.4-1.2-1.5-2.1"/>
		<path fill="none" stroke="#713F2A" stroke-width="0.987" d="M304.2,219.8c0.6-2.6,2.8-2.8,4.6-2.8c4.9,0.1,8.3,5.9,8.4,11.5
			c0.1,7.1-3,11.3-8.2,11.5c-1.3,0.1-3.7-0.6-3.7-2.2"/>
		<path fill="none" stroke="#713F2A" stroke-width="0.987" stroke-linecap="square" d="M307.2,218.6c5.2,1.1,7,5.8,7,10.3
			c0,3.6-0.4,8.6-7.4,10.3"/>
		<path fill="none" stroke="#713F2A" stroke-width="0.987" d="M315.8,268.5c0.3-1.6-0.7-3.1-2.3-3.4c-1.6-0.3-3.1,0.7-3.4,2.3
			c-0.2,1.1,0.2,2.1,1.1,2.8"/>
		<g>
			<path fill="none" stroke="#713F2A" stroke-width="0.987" stroke-linecap="round" d="M305.4,264.1c1.1,1.8,2.7,3.4,4.6,4.4
				 M309.1,276.3c-2.4-1.6-7.1-3.7-11.2-1.6c-1.6,0.8-2.6,1.7-3.2,3.3c-0.8,2.4-0.3,5.1,1.3,7.1c0.6,0.7,2,1.9,3.7,2
				c2.8,0,3.5-1.9,3.6-2.4c0.3-2-0.9-2.9-1.5-3.1c-0.5-0.2-2.1-0.1-2.4,1c-0.1,0.5-0.1,1,0.2,1.5"/>
			<path fill="none" stroke="#713F2A" stroke-width="0.987" stroke-linecap="round" d="M265.2,315.4c0.8,1.6-0.1,2.4-1.2,2.5
				c-1.6,0.2-2.4-1.1-2.6-2.2c-0.1-1.8,1.2-3.4,3-3.5l0.2,0c1.6,0.1,3.1,1.1,3.7,2.6c0.2,0.6,0.4,1.2,0.4,1.8
				c0.1,1.1-0.3,2.2-1.1,3.1c-1,1.1-2.5,1.8-4,1.8c-3.1,0.1-5.6-2.8-5.6-5.8c0-5.7,8.5-8.9,11.9-9.7c4.1-1,6.7-1.4,13.3-1.7
				c2.7-0.1,4.6-0.1,7.6-0.4c2.3-0.2,4.5-0.5,6.7-1c3.5-0.7,6.7-2.4,9.3-4.7c2.2-2,3.4-3.4,4.4-6.1c0.9-2.3,1.3-7-0.9-10.4
				c-1.7-2.8-4.5-4.6-7.7-5c-2.8-0.4-5.2,0.8-6.7,3.6c-0.7,1.3-0.5,3.6,0.1,4.6c0.7,1.3,2.1,2.1,3.6,2.2c2.8,0,3.5-1.9,3.6-2.4
				c0.3-2-0.9-2.9-1.5-3.1c-0.5-0.2-2.1-0.1-2.4,1c-0.1,0.5-0.1,1,0.2,1.5 M262.8,306.3c-3.6,1.6-6.3,2.8-8.5,6.3
				c-0.6,1.1-0.9,2.4-0.9,3.6c0,2.2,0.9,4.2,2.5,5.7c1.4,1.2,3.2,1.8,5,1.5c1.4-0.1,2.8-1.2,3-1.9"/>
		</g>
		<path fill="none" stroke="#713F2A" stroke-width="0.987" d="M298.4,237.8c-1.7,0.6-2.9,3.1-2.9,5.6c-0.1,2.3,1,4.4,3,5.6"/>
		<path fill="none" stroke="#713F2A" stroke-width="0.987" stroke-linecap="round" d="M300.3,247c-3,3.8-4.6,6-4.7,10.5
			c-0.1,4.2,1.3,7.1,3.8,10.1"/>
		<path fill="none" stroke="#713F2A" stroke-width="0.987" d="M284.1,184.2l0.3-0.4c1.3-1.9,3.5-2.3,5.1-1.1c2,1.5,2.5,4,1.9,6.7
			c-0.4,1.7-1.5,3.2-3,4.1"/>
		<path fill="none" stroke="#713F2A" stroke-width="0.987" stroke-linecap="round" d="M209.2,183.3c-1.9-0.9-3.5-0.7-4.7,0.7
			c-1.4,1.6-1.4,4-1.1,5.4c0.4,2,1,2.8,2.6,4.3"/>
		<path fill="none" stroke="#713F2A" stroke-width="0.987" d="M204.3,184.2c-2.3-1.5-4.8-0.9-6.1,1.1c-1,1.5-1.3,2.7-1.2,4.6
			c0.2,2.9,1.8,5.4,4.3,6.8"/>
		<path fill="none" stroke="#713F2A" stroke-width="0.987" d="M197.7,186.2c-2.5,0.3-4.4,2.4-4.5,5c0,3.3,0.8,4.6,2.7,7.1
			c1.9,2.5,7.9,7.1,7.9,12.4c0,3.2-0.9,5.2-3.2,6.3c-1.5,0.7-3.2-0.1-4-0.8c-1.9-1.7-1.2-4.8,0.9-5.2c2.4-0.4,2.9,3.4,0.5,3.1
			 M193.5,189.5c-1.9,0.1-3.7,1.8-3.7,3.8c0,2.9,1.1,4.2,3.4,7c2,2.4,7.5,6.7,7.4,10.8c-0.1,1.6-1.1,3.5-2.1,3.2"/>
		<path fill="none" stroke="#713F2A" stroke-width="0.987" stroke-linecap="round" d="M189,246.7c0.9-2.1,3.2-1.2,3.3,0
			c0.3,2.7-2.1,3.6-3.8,3.1c-0.8-0.2-1.5-0.7-1.9-1.4c-0.5-0.8-0.6-1.8-0.3-2.8c0.1-0.4,0.3-0.9,0.6-1.2c0.3-0.4,0.6-0.7,1-0.9
			c0.7-0.4,1.4-0.5,2.5-0.5c4.1,0,7.8,4.9,9,10c0.7,2.9,0.7,6,0.2,9c-0.6,3.2-2.1,6.1-4.4,8.4c-1.3,1.2-2.7,2.3-4.3,3.1
			c-1,0.5-2,0.9-3.1,1.3c-1,0.3-2,0.3-2.9,0.1c-2.1-0.6-3.5-2.6-2.4-5.2c0.9-2,4-3,5.4-0.5c0.2,0.4,0.3,0.7,0.3,1.1
			c0,0.7-0.2,1.3-0.7,1.7c-1.1,0.7-2.8,0.5-2.7-1.4"/>
		<path fill="none" stroke="#713F2A" stroke-width="0.987" d="M185.8,272.2c0.8,0.3,1.2,0.3,2.2-0.2c0.4-0.2,0.9-0.4,1.4-0.8
			c1.9-1.1,4.1-2.8,6.3-6.7c0.6-1.1,1-2.2,1.3-3.3c0.2-0.8,0.3-1.6,0.4-2.5c0-1.6-0.1-3.1-0.5-4.6c-0.4-2.5-1.5-4.8-3-6.7
			c-0.9-1.2-1.6-1.9-3.2-1.9 M183.6,268.5c-0.3-1.6,0.7-3.1,2.3-3.4c1.6-0.3,3.1,0.7,3.4,2.3c0.2,1.1-0.2,2.1-1.1,2.8 M184.7,265.6
			c0.2-1.5,1.6-2.5,3.1-2.3c1.4,0.2,2.4,1.4,2.3,2.8c0,0.7-0.3,1.4-0.8,1.9"/>
		<path fill="none" stroke="#713F2A" stroke-width="0.987" d="M190,265.4c2.9-2.2,4.6-5.6,4.6-9.2c0-3.1-1.2-6.2-2.7-7.4"/>
		<path fill="none" stroke="#713F2A" stroke-width="0.987" stroke-linecap="round" d="M193.9,264.1c-1.1,1.8-2.7,3.4-4.6,4.4"/>
		<path fill="none" stroke="#713F2A" stroke-width="0.987" d="M201.3,274.7c-0.7-1.6-2.1-2.4-4.3-2.6c-2.2-0.2-4.1,0.4-6.1,1.4
			c-3.8,2.1-6,4.3-7.4,8.4c-0.4,1.4-0.7,2.8-0.6,4.3c0.1,2.7,0.7,5.6,1.5,7c0.6,1.2,2.3,6.7,11.4,10.4c5.3,2.2,13.5,2.7,19.1,2.9
			c7.7,0.3,14.9,0.6,19,5.7"/>
		<path fill="none" stroke="#713F2A" stroke-width="0.987" stroke-linecap="round" d="M190.2,276.3c2.4-1.6,7.1-3.7,11.2-1.6
			c1.6,0.8,2.6,1.7,3.2,3.3c0.8,2.4,0.3,5.1-1.3,7.1c-0.6,0.7-2,1.9-3.7,2c-2.8,0-3.5-1.9-3.6-2.4c-0.3-2,0.9-2.9,1.5-3.1
			c0.5-0.2,2.1-0.1,2.4,1c0.1,0.5,0.1,1-0.2,1.5"/>
		<path fill="none" stroke="#713F2A" stroke-width="0.987" d="M199.9,283.6c0.3-0.9,0-1.8-0.6-2.5c-1.2-1.1-2.9-1.4-4.4-0.7
			c-0.7,0.4-1.4,0.9-1.9,1.6l-0.9,1.2c-0.3,0.6-0.6,1.2-0.8,1.9c-1.8,5.2,1.1,10.7,4.9,13.1c3.3,2.1,6.6,2.7,10.7,3
			c1.9,0.2,3,0.2,4.9,0.3c1.5,0.1,2.9,0,4.1,0l3,0c1.8-0.1,3.6,0,5.4,0.1c2.2,0.2,3.8,0.2,5.6,0.5c1.2,0.2,2.6,0.4,4.1,0.7
			c0.4,0.1,0.9,0.2,1.3,0.3l0.9,0.3c2.5,0.7,5,1.8,7.3,3.1c0.7,0.4,1.3,0.8,1.8,1.3c0.4,0.4,0.7,0.6,1,0.9c1.4,1.4,2.9,2.9,3.2,5
			c0.1,0.4,0.1,0.8,0.1,1.2c0,1.3-1.1,3.1-4,3.7"/>
		<path fill="none" stroke="#713F2A" stroke-width="0.987" d="M234.1,315.4c-0.8,1.6,0.1,2.4,1.2,2.5c1.6,0.2,2.4-1.1,2.6-2.2
			c0.1-1.8-1.2-3.4-3-3.5l-0.2,0c-1.6,0.1-3.1,1.1-3.7,2.6c-0.2,0.6-0.4,1.2-0.4,1.8c-0.1,1.1,0.3,2.2,1.1,3.1c1,1.1,2.5,1.8,4,1.8
			c3.1,0.1,5.6-2.8,5.6-5.8c0-5.7-8.5-8.9-11.9-9.7c-4.1-1-6.7-1.4-13.3-1.7c-2.7-0.1-4.6-0.1-7.6-0.4c-2.3-0.2-4.5-0.5-6.7-1
			c-3.5-0.7-6.7-2.4-9.3-4.7c-2.2-2-3.4-3.4-4.4-6.1c-0.9-2.3-1.3-7,0.9-10.4c1.7-2.8,4.5-4.6,7.7-5c2.8-0.4,5.2,0.8,6.7,3.6
			c0.7,1.3,0.5,3.6-0.1,4.6c-0.7,1.3-2.1,2.1-3.6,2.2c-2.8,0-3.5-1.9-3.6-2.4c-0.3-2,0.9-2.9,1.5-3.1c0.5-0.2,2.1-0.1,2.4,1
			c0.1,0.5,0.1,1-0.2,1.5"/>
		<path fill="none" stroke="#713F2A" stroke-width="0.987" stroke-linecap="round" d="M215.2,184.2l-0.3-0.4
			c-1.3-1.9-3.5-2.3-5.1-1.1c-2,1.5-2.5,4-1.9,6.7c0.4,1.7,1.5,3.2,3,4.1"/>
		<path fill="none" stroke="#713F2A" stroke-width="0.987" d="M284.8,189.8c-3,3.3-6,4.3-10.5,4.4c-1.4,0-4.1-0.4-5.6-1.6
			c-1-0.7-2.1-1.9-1.4-4c0.5-1.4,2.7-5.4,2.8-8.1c0.2-4.2-1.4-6.5-4-7.4c-4.7-1.6-9.7,3-12.7,4c-1.2,0.4-2.5,0.6-3.8,0.6
			c-1.3,0-2.6-0.2-3.8-0.6c-3-1-8-5.6-12.7-4c-2.5,0.9-4.1,3.2-4,7.4c0.1,2.7,2.4,6.7,2.8,8.1c0.7,2.1-0.4,3.3-1.4,4
			c-1.6,1.1-4.2,1.6-5.6,1.6c-4.5-0.1-7.5-1.2-10.5-4.4"/>
		<path fill="none" stroke="#713F2A" stroke-width="0.987" stroke-linecap="round" d="M233.1,305c0.6,0.2,0.1-0.1,3.9,1.5
			c3.6,1.6,6.2,3,8.4,6.5c0.6,1.1,0.9,2.4,0.9,3.6c0,0.6-0.1,1.2-0.2,1.8"/>
		<path fill="none" stroke="#713F2A" stroke-width="0.987" d="M233.4,321.1c0.8,0.4,1.6,0.6,2.4,0.6c3.1,0.1,5.6-2.8,5.6-5.8
			c0-2.1-1.1-3.8-2.7-5.2"/>
		<path fill="none" stroke="#713F2A" stroke-width="0.987" stroke-linecap="round" d="M234.1,315.4c-0.8,1.7,0.3,2.6,1.4,2.7
			c1.3,0.1,2.4-0.8,2.6-2.1c0,0,0,0,0,0l0-0.2c0.1-1.2-0.5-2.4-1.6-3.1"/>
		<path fill="none" stroke="#713F2A" stroke-width="0.987" d="M302.2,186.2c2.4,0,4.5,2.7,4.5,5.4c0,3.1-1.7,5.1-2.9,6.5
			c-1,1.2-2.1,2.2-3.3,3.5"/>
		<path fill="none" stroke="#713F2A" stroke-width="0.987" stroke-linecap="round" d="M299.3,183.7c0.8,0.4,1.6,1,2.1,1.8
			c1,1.5,1.3,2.7,1.2,4.6c-0.1,3.1-2.4,5.3-4.4,6.6 M294.6,183.7c0.2,0.1,0.3,0.3,0.5,0.5c1.4,1.6,1.5,4,1.1,5.4
			c-0.5,2-1.2,2.9-2.8,4.1 M289.7,182.9c2,1.5,2.5,4,1.9,6.7c-0.5,1.9-1.6,3-3.1,3.9 M296.7,224c0.2,0.7,0.6,0.9,1.1,1.4
			c1.3,1.3,2.8,2.2,4.6,2.6c1.6,0.5,3.3,0.2,4.7-0.7 M185.9,267.6c0.9,0,1.8,0.6,2.4,1.7c0.2,0.4,0.3,0.7,0.3,1.1
			c0,0.6-0.3,1.2-0.8,1.6c-1.1,0.7-3,0.4-2.9-1.5"/>
		<path fill="none" stroke="#713F2A" stroke-width="0.987" d="M191.6,243.1c3.7,0.7,7.2,5.1,8.4,9.9c0.7,2.9,0.7,6,0.2,9
			c-0.6,3.2-2.1,6.1-4.4,8.4c-0.5,0.5-1,1-1.6,1.4l-0.8,0.5 M187.5,263.3c1.5,0,2.8,1.4,2.8,3c0,0.7-0.3,1.4-0.8,1.9 M186.5,265
			c1.7,0.1,3,1.4,3.1,3.1c0,0.9-0.4,1.7-1.1,2.3"/>
		<path fill="none" stroke="#713F2A" stroke-width="0.987" stroke-linecap="round" d="M200.9,249.2c1.4,1.9,2.4,3.6,2.8,5.7
			 M203.7,261.3c-0.2,1-0.6,2.1-1.1,3c-0.7,1.3-1.6,2.5-2.6,3.5"/>
		<path fill="none" stroke="#713F2A" stroke-width="0.987" d="M201.1,238c1.2,0.9,2.2,2.1,2.6,3.6"/>
		<path fill="none" stroke="#713F2A" stroke-width="0.987" stroke-linecap="round" d="M203.8,234.3c-0.4,1.3-1.2,2.2-2.5,3.4
			 M194.4,225l1.6-0.4l0.9-0.7l0.6-0.9l0.5-1.4l0.2-1.1"/>
		<path fill="none" stroke="#713F2A" stroke-width="0.987" d="M191.2,219.3c-0.6,0.2-1.2,0.4-1.8,0.6c-1,0.5-2,1.2-2.6,2.2
			c-0.9,1.3-1.4,3-1.7,4.5c-0.2,1.6-0.2,3.3,0.1,5c0.3,1.5,0.9,2.9,1.7,4.2c0.2,0.4,0.5,0.7,0.8,1c1,1,1.9,1.6,3.3,1.3"/>
		<path fill="none" stroke="#713F2A" stroke-width="0.987" stroke-linecap="round" d="M200.2,212.3c-0.3,1-0.8,2.1-2.3,2"/>
		<path fill="none" stroke="#713F2A" stroke-width="0.987" d="M194.7,218.8c-1.4-1.4-4.5-1.8-7.5,0.1c-0.4,0.3-0.8,0.6-1.2,0.9
			c-0.4,0.3-0.8,0.7-1.1,1.2c-0.4,0.6-0.7,1.2-1,1.8c-0.3,0.6-0.5,1.3-0.7,2c-0.4,1.5-0.6,3.1-0.5,4.7c0.1,0.7,0.2,1.4,0.3,2
			c0.3,1.6,0.8,3.2,1.7,4.6c0.7,1.1,2.3,3.7,5.7,4c1.3,0.1,3.6-0.5,3.7-2.2"/>
		<path fill="none" stroke="#713F2A" stroke-width="0.987" stroke-linecap="round" d="M282.6,187.9c0.2-1.2,1.7-1.5,2.3-0.7
			c0.9,1.1,0.3,3-1.5,3.6c-1.1,0.2-2.2-0.2-2.9-1c-1-1.5-0.7-3.5,0.8-4.5l0.1-0.1c2-1.5,5.3-1.2,6.4,1.4c1.4,3.3-1.6,5.8-4.4,7.7
			c-3.5,2.4-7.5,2.8-10.5,2.8c-6.8-0.1-12-3.3-15.4-5.2c-0.8-0.4-1.6-0.3-2,0.1c-0.5,0.6-0.4,1.5,0.2,2 M283.9,186.8
			c0.5,0,0.9,0.2,1.1,0.6c0.9,1.1,0.2,3-1.5,3.6 M296.8,229.3c-2.6,2.8-0.2,7.7,1.7,8.8c0.7,0.5,1,0.2,1.5,0.6"/>
		<path fill="none" stroke="#713F2A" stroke-width="0.987" d="M297,223.9c-0.9,0.6-1.2,1.3-1.2,2.4c-0.1,1.1,0.3,2.2,1,3
			c1.4,1.5,4.2,2.8,6.9,2.8c1.6,0,3.2-0.4,4.5-1.3c1.4-0.9,2.4-2.4,2.9-4 M295.5,272.8c0,0.6,0,1.2-0.1,1.9
			c-0.4,3.6-2.1,6.9-4.7,9.4c-1.2,1.3-2.7,2.3-4.3,3c-1.5,0.8-3.2,1.3-4.9,1.6c-1.7,0.4-3.4,0.6-5.1,0.6c-1.6,0.1-3.2,0-4.7-0.1
			c-2-0.1-3.1-0.4-5-0.6c-1.4-0.2-2.8-0.3-4.2-0.3c-1.4,0-2.9,0.1-4.3,0.3c-1.3,0.2-2.6,0.6-3.9,1.1c-2,0.8-4.3,2.2-4.7,2.9
			c-0.5-0.6-2.7-2-4.7-2.9c-1.2-0.5-2.5-0.9-3.9-1.1c-1.4-0.2-2.8-0.3-4.3-0.3c-1.4,0-2.8,0.1-4.2,0.3c-2,0.2-3.1,0.4-5,0.6
			c-1.6,0.1-3.1,0.2-4.7,0.1c-1.7,0-3.4-0.2-5.1-0.6c-1.7-0.3-3.3-0.9-4.9-1.6c-1.6-0.7-3.1-1.8-4.3-3c-2.6-2.5-4.2-5.8-4.7-9.4
			c-0.1-0.6-0.1-1.2-0.1-1.9V197h91.7L295.5,272.8L295.5,272.8L295.5,272.8L295.5,272.8z"/>
	</g>
	<path fill="#C6AA76" stroke="#C7B37F" stroke-width="0.513" d="M196.4,283.6c0-1,0.8-1.9,1.9-1.9c1,0,1.9,0.8,1.9,1.9v0
		c0,1-0.8,1.9-1.9,1.9C197.2,285.4,196.4,284.6,196.4,283.6L196.4,283.6z M185,270.4c0-0.9,0.6-1.7,1.3-1.7s1.3,0.7,1.3,1.7
		c0,0.9-0.6,1.7-1.3,1.7S185,271.3,185,270.4L185,270.4z"/>
	<path fill="#C6AA76" d="M191.5,237.4c0.1-0.7,0.7-1.2,1.4-1.2c0.7,0.1,1.2,0.7,1.2,1.4c-0.1,0.7-0.6,1.2-1.3,1.2
		C192,238.7,191.4,238.1,191.5,237.4L191.5,237.4z M214.2,188.6c0-0.7,0.6-1.1,1.3-1.1c0.7,0,1.1,0.6,1.1,1.3c0,0.6-0.5,1-1.1,1.1
		C214.8,189.8,214.3,189.3,214.2,188.6L214.2,188.6L214.2,188.6z"/>
	<path fill="none" stroke="#C7B37F" stroke-width="0.987" stroke-linecap="round" d="M190,245.1c-0.5,0.2-0.8,0.6-1,1.1
		c-0.1,0.3-0.2,0.6-0.2,0.9 M192.3,266.9l0.7-0.8c0.2-0.2,0.4-0.5,0.5-0.7c0.2-0.3,0.2-0.4,0.4-0.7l0.5-1 M193.4,274.2l-1.1,0.5
		l-0.8,0.5l-0.9,0.6l-0.9,0.7 M200.7,248.3l-0.6-0.6l-0.7-0.6c-0.3-0.2-0.4-0.3-0.7-0.5"/>
	<path fill="none" stroke="#C7B37F" stroke-width="0.987" d="M201,238.4c-0.3,0.2-0.6,0.3-0.9,0.4c-0.4,0.1-0.7,0.2-1.1,0.2"/>
	<path fill="none" stroke="#C7B37F" stroke-width="0.987" stroke-linecap="round" d="M188.6,226.1c0.1,0.4,0.2,0.7,0.3,1.1
		c0.2,0.5,0.4,0.9,0.7,1.3c0.3,0.4,0.6,0.8,0.9,1.2c0.3,0.3,0.7,0.6,1,0.8c0.4,0.2,0.7,0.4,1.1,0.6 M191.9,226.7
		c0.3,0.2,0.6,0.3,0.9,0.5c0.3,0.1,0.6,0.2,0.9,0.3c0.4,0.1,0.8,0.2,1.3,0.2c0.5,0,0.9,0,1.4-0.1 M201.8,197.3l-1.5-0.9
		c-0.5-0.3-1-0.7-1.4-1.1c-0.3-0.3-0.6-0.6-0.9-1c-0.3-0.4-0.4-0.6-0.6-1 M203,190c0.1,0.4,0.3,0.9,0.5,1.3c0.3,0.6,0.6,1.1,1.1,1.5
		c0.7,0.7,1.2,0.9,2,1.6 M207.6,189.9c0.1,0.4,0.3,0.8,0.5,1.1c0.2,0.3,0.4,0.6,0.6,0.9c0.3,0.4,0.6,0.7,1,1
		c0.4,0.3,0.9,0.6,1.4,0.8"/>
	<path fill="#713F2A" stroke="#713F2A" stroke-width="0.277" d="M259.9,183.9c0-1.3-1.3-1.4-1.8-1.4c-1.4,0-1.7,0.9-3.5,1.8
		c-2.1,1.2-3.1,1.4-5,1.4c-1.9,0-2.9-0.3-5-1.4c-1.7-0.9-2-1.7-3.4-1.7c-1,0-1.7,0.8-1.7,1.8l0,0c0,0.2,0,0.4,0,0.6
		c0,0.1,0.1,0.1,0.2,0.2c0-0.5,0.1-0.9,0.4-1.3c0.3-0.4,0.7-0.6,1.2-0.6c1.4,0,1.9,0.9,3.6,1.8c2.1,1.2,3.1,1.4,5,1.4
		c1.9,0,2.9-0.3,5-1.4c1.7-0.9,2.2-1.9,3.6-1.9c0.5,0,0.9,0.3,1,0.8c0,0.2,0.1,0.4,0.1,0.6c0,0.1,0.1,0.1,0.1,0.1
		C259.9,184.4,259.9,184.1,259.9,183.9L259.9,183.9L259.9,183.9z"/>
	<path fill="#713F2A" d="M208.6,289.8c0.4-0.4,0.7-0.3,0.7-0.5c0.1-0.1-0.1-0.2-0.2-0.2c-0.2-0.1-0.4-0.1-0.6-0.2
		c-0.2-0.1-0.4-0.2-0.6-0.3c-0.1,0-0.3-0.1-0.4,0c-0.1,0.3,0.8,0.3,0.5,1c-0.1,0.3-0.3,0.6-0.6,0.9l-2,2.1c0,0-0.1,0.2-0.2,0.1
		s0-0.1,0-0.2l0-3c0-0.4,0-0.8,0.1-1.3c0.1-0.3,0.5-0.1,0.6-0.3c0.1-0.1,0-0.1-0.2-0.2c-0.1,0-0.3-0.1-0.8-0.3l-0.7-0.3
		c-0.1,0-0.3-0.2-0.4,0c0,0.1,0.1,0.1,0.1,0.2c0.2,0.1,0.4,0.4,0.4,0.7l0.1,5.5c0,0.4,0,0.5,0.1,0.5c0.1,0,0.1,0,0.3-0.2
		L208.6,289.8L208.6,289.8L208.6,289.8z"/>
	<path fill="#713F2A" d="M210.9,290.7c0.3-0.8,0.7-0.3,0.8-0.6c0-0.1,0-0.1-0.2-0.2l-1-0.3l-0.9-0.3c-0.1,0-0.3-0.1-0.3,0
		c-0.1,0.3,0.8,0.3,0.6,1.1l-1.3,4.1c-0.3,0.8-0.7,0.4-0.8,0.7c0,0,0,0.1,0.1,0.1l0.9,0.2l1.1,0.4c0.2,0.1,0.3,0,0.3-0.1
		c0.1-0.3-0.9-0.2-0.6-1.2L210.9,290.7L210.9,290.7L210.9,290.7z M213.7,291.5c0.2-0.5,0.4-0.4,0.7-0.4c0.8,0.2,1,1,0.8,1.8
		c-0.1,0.5-0.3,1-1.5,0.6c-0.2-0.1-0.5-0.2-0.5-0.4L213.7,291.5L213.7,291.5L213.7,291.5z M211.6,295.2c-0.3,1.1-0.9,0.6-0.9,0.9
		c-0.1,0.2,0.1,0.2,0.2,0.2l1.2,0.3c0.3,0.1,0.5,0.2,0.6,0.2c0.2,0.1,0.3,0,0.3-0.1c0.1-0.3-0.8-0.2-0.5-1.1l0.4-1.5
		c0.1-0.3,0.1-0.4,0.5-0.3c0.4,0.1,0.5,0.2,0.6,0.7l0.2,1.5c0.1,0.6,0.2,1.2,0.8,1.4c0.3,0.1,0.9,0.1,0.9-0.2c0-0.1,0-0.1-0.1-0.2
		c-0.1,0-0.2,0-0.3,0c-0.1,0-0.2-0.1-0.2-0.2l-0.5-2.7c0-0.1,0.3-0.1,0.6-0.2c0.4-0.2,0.7-0.5,0.8-0.9c0.1-0.4,0.3-1.6-1.4-2.1
		l-1.6-0.4l-0.9-0.3c-0.1,0-0.2,0-0.2,0.1c-0.1,0.3,0.8,0.2,0.6,1.2L211.6,295.2L211.6,295.2L211.6,295.2z M217.8,297
		c-0.2,1-1,0.4-1.1,0.7c0,0.2,0.1,0.2,0.2,0.2l1.1,0.2l1.1,0.3c0.2,0.1,0.4,0.1,0.4-0.1c0.1-0.2-1-0.2-0.7-1.3l0.9-3.9
		c0.1-0.4,0.2-0.4,0.5-0.4l0.7,0.2c0.9,0.2,0.4,1.1,0.7,1.2c0.2,0,0.2-0.3,0.2-0.4l0.1-0.8c0-0.1,0-0.2-0.1-0.2l-2.4-0.5l-2.4-0.6
		c-0.1,0-0.1,0.1-0.2,0.2l-0.4,1.1c0,0.1-0.1,0.3,0,0.3c0.3,0.1,0.4-1.1,1.3-0.9l0.7,0.2c0.3,0.1,0.4,0.1,0.3,0.6L217.8,297
		L217.8,297L217.8,297z M227.3,294.6c0.3-0.5,0.6-0.4,0.7-0.6c0-0.1-0.1-0.1-0.3-0.2c-0.2,0-0.4,0-0.7-0.1c-0.2,0-0.4-0.1-0.7-0.2
		c-0.1,0-0.3-0.1-0.3,0.1c-0.1,0.3,0.8,0.1,0.6,1c-0.1,0.4-0.2,0.7-0.4,1l-1.6,2.5c0,0.1-0.1,0.2-0.1,0.2c0,0-0.1-0.1-0.1-0.2
		l-0.5-3c-0.1-0.4-0.1-0.8-0.1-1.3c0.1-0.4,0.5-0.1,0.6-0.4c0-0.1,0-0.1-0.3-0.2c-0.1,0-0.4,0-0.9-0.1l-0.8-0.2
		c-0.1,0-0.3-0.1-0.4,0.1c0,0.1,0.1,0.1,0.1,0.1c0.3,0.1,0.5,0.3,0.5,0.6l1,5.4c0.1,0.4,0.1,0.5,0.2,0.5c0.1,0,0.1,0,0.3-0.2
		L227.3,294.6L227.3,294.6L227.3,294.6z M227.7,299.6c0,0.2,0,0.3,0.2,0.4c0.4,0.2,0.8,0.4,1.3,0.5c1,0.2,1.9-0.5,2.1-1.6
		c0.2-1.1-0.3-1.6-1-2.1c-1-0.7-1.4-0.9-1.3-1.5c0-0.5,0.4-0.8,0.9-0.8c0,0,0.1,0,0.1,0c1.4,0.2,1.2,1.9,1.4,1.9
		c0.2,0,0.2-0.1,0.2-0.3l0.1-1.2c0-0.2,0.1-0.3-0.1-0.4c-0.1,0-0.3,0.1-0.4,0.1c-0.2,0-0.5-0.4-1.2-0.5c-0.9-0.2-1.7,0.5-1.8,1.5
		c-0.2,0.9,0.3,1.3,0.9,1.8c1.2,0.8,1.6,1,1.5,1.8c-0.1,0.6-0.6,1-1.2,1c0,0-0.1,0-0.1,0c-0.9-0.1-1.2-1-1.3-1.9
		c0-0.1,0-0.2-0.1-0.2c-0.2,0-0.2,0.2-0.2,0.4L227.7,299.6L227.7,299.6L227.7,299.6z M239.5,296.3c0.3-0.5,0.6-0.4,0.6-0.6
		c0-0.2-0.1-0.1-0.3-0.1c-0.2,0-0.4,0-0.7,0c-0.2,0-0.5-0.1-0.7-0.1c-0.1,0-0.3-0.1-0.3,0.1c0,0.3,0.8,0,0.7,0.9
		c0,0.4-0.2,0.7-0.3,1l-1.3,2.6c0,0.1-0.1,0.2-0.1,0.2c0,0-0.1-0.1-0.1-0.2l-0.8-2.9c-0.1-0.4-0.2-0.8-0.2-1.2
		c0-0.4,0.5-0.2,0.5-0.4c0-0.2,0-0.1-0.3-0.2c-0.1,0-0.4,0-0.9,0l-0.8-0.1c-0.1,0-0.4-0.1-0.4,0.1c0,0.1,0.1,0.1,0.1,0.1
		c0.3,0.1,0.5,0.3,0.5,0.6l1.6,5.3c0.1,0.4,0.2,0.5,0.3,0.5c0.1,0,0.1,0,0.2-0.3L239.5,296.3L239.5,296.3L239.5,296.3z"/>
	<path fill="#713F2A" d="M240.8,300.6c0,0.9-0.8,0.7-0.8,1.1c0,0.2,0.2,0.1,0.2,0.1l0.7,0l0.9,0c0.1,0,0.3,0,0.3-0.1
		c0-0.4-1,0.2-1-1.5l0-3c0-0.1,0-0.1,0.1-0.1c0,0,0.1,0,0.1,0.1l3.8,4.7c0,0.1,0.1,0.1,0.2,0.1c0.1,0,0.1-0.1,0.1-0.3l0-5
		c0-0.9,0.7-0.7,0.7-1c0,0,0-0.1-0.2-0.1c-0.1,0-0.4,0-0.9,0l-0.9,0c-0.1,0-0.1,0.1-0.1,0.1c0,0.3,1,0.1,1,1l0,3
		c0,0.2,0,0.3-0.1,0.3s-0.1-0.1-0.2-0.2l-3.2-3.9c-0.1-0.2,0-0.2-0.3-0.2c-0.4,0-0.6,0-0.8,0c-0.2,0-0.3,0-0.4,0
		c-0.1,0-0.1,0.1-0.1,0.1c0,0,0,0,0,0c0,0.4,0.9-0.1,0.9,1.6L240.8,300.6L240.8,300.6z M248.5,296.6c0-0.8,0.6-0.5,0.6-0.8
		c0-0.1,0-0.1-0.3-0.1c-0.5,0-0.7,0-1,0c-0.3,0-0.6,0-0.9,0c-0.1,0-0.3,0-0.3,0.1c0,0.3,0.9,0.1,0.9,0.9l0,4.3
		c0,0.8-0.6,0.6-0.6,0.9c0,0,0,0.1,0.1,0.1c0.2,0,0.6,0,0.9,0l1.2,0c0.2,0,0.3,0,0.3-0.1c0-0.3-0.9,0.1-0.9-1L248.5,296.6z
		 M251.9,300.7c0,1.1-0.9,0.6-0.9,1c0,0.2,0.1,0.2,0.3,0.2l1.1,0l1.1,0c0.2,0,0.4,0,0.4-0.2c0-0.2-1,0-1-1.1l0-4
		c0-0.4,0.1-0.5,0.4-0.5l0.7,0c0.9,0,0.7,0.9,1,0.9c0.2,0,0.1-0.3,0.1-0.5l-0.1-0.8c0-0.1,0-0.2-0.1-0.2l-2.4,0.1
		c-1.2,0-1.7,0-2.4,0c-0.1,0-0.1,0.1-0.1,0.2l-0.1,1.2c0,0.1-0.1,0.3,0.1,0.3c0.4,0,0.1-1.2,1-1.2l0.7,0c0.3,0,0.4,0,0.4,0.5
		L251.9,300.7L251.9,300.7L251.9,300.7z M256.5,299c-0.1,0-0.3,0-0.3-0.1c0-0.1,0-0.2,0.1-0.3l0.5-1.6c0-0.1,0.1-0.1,0.1-0.1
		c0,0,0,0,0.1,0.1l0.8,1.6c0.1,0.1,0.1,0.2,0.1,0.3c0,0.1-0.1,0.1-0.2,0.1L256.5,299L256.5,299L256.5,299z M257.9,299.4
		c0.2,0,0.3,0.1,0.6,0.7c0.1,0.2,0.2,0.4,0.2,0.6c0,0.5-0.5,0.5-0.5,0.7c0,0.1,0.1,0.1,0.3,0.1l0.9-0.1l1,0c0.2,0,0.3,0,0.3-0.2
		c0-0.3-0.4,0.1-0.7-0.5l-2.6-5.3c-0.1-0.3-0.1-0.3-0.2-0.3c-0.1,0-0.1,0.2-0.2,0.3l-1.7,5.5c-0.2,0.5-0.6,0.5-0.6,0.7
		c0,0.1,0.1,0.1,0.2,0.1c0.2,0,0.5-0.1,0.7-0.1l0.8,0c0.2,0,0.4,0,0.4-0.2c0-0.2-0.9,0-0.9-0.7c0-0.2,0-0.5,0.1-0.7
		c0.1-0.6,0.3-0.6,0.4-0.7L257.9,299.4L257.9,299.4L257.9,299.4z M264.1,295.7c-0.1-0.6,0-0.6,0.9-0.7c1.5-0.2,1,0.9,1.4,0.9
		c0.2,0,0.1-0.3,0.1-0.4l-0.1-0.9c0-0.1-0.1-0.2-0.2-0.1l-1.8,0.3l-2.1,0.2c-0.1,0-0.2,0.1-0.2,0.2l0,0c0,0.4,0.9,0,1,0.7l0.5,4.1
		c0.1,1.1-0.5,0.7-0.5,1.1c0,0.1,0.1,0.1,0.2,0.1l1-0.2l0.9-0.1c0.2,0,0.4,0,0.3-0.2c0-0.2-0.9,0.1-1-0.9l-0.2-1.3
		c-0.1-0.5-0.1-0.6,0.3-0.7l0.6-0.1c0.8-0.1,0.7,0.9,1,0.8c0.2,0,0.1-0.3,0.1-0.4l-0.3-1.6c0-0.2-0.1-0.2-0.2-0.2
		c-0.2,0-0.1,0.8-0.8,0.9l-0.5,0.1c-0.3,0-0.3,0-0.4-0.4L264.1,295.7L264.1,295.7L264.1,295.7z M267,297.7c0.3,1.8,1.6,2.8,3.2,2.5
		c2.5-0.5,2.6-2.7,2.4-3.9c-0.3-1.9-1.7-2.8-3.3-2.5C267.4,294.2,266.6,295.8,267,297.7L267,297.7L267,297.7z M267.9,297
		c-0.2-1.3-0.1-2.5,1.3-2.8c1-0.2,2.2,0.6,2.5,2.6c0.3,1.5,0,2.7-1.3,3C268.9,300.1,268.1,298.3,267.9,297z M274.1,294
		c-0.1-0.5,0.1-0.6,0.4-0.6c0.8-0.2,1.4,0.3,1.6,1.2c0.1,0.5,0.2,1-1,1.3c-0.2,0.1-0.5,0.1-0.6-0.1L274.1,294L274.1,294L274.1,294z
		 M274.1,298.2c0.3,1.1-0.4,1-0.4,1.2c0,0.2,0.2,0.1,0.3,0.1l1.2-0.3c0.3-0.1,0.5-0.1,0.7-0.1c0.2,0,0.2-0.1,0.2-0.2
		c-0.1-0.3-0.8,0.2-1-0.7l-0.4-1.5c-0.1-0.3-0.1-0.4,0.3-0.5c0.3-0.1,0.7,0,0.8,0.3l1,1.2c0.4,0.4,0.7,0.9,1.4,0.8
		c0.3-0.1,0.8-0.4,0.7-0.7c0-0.1-0.1-0.1-0.1-0.1l0,0c-0.1,0-0.1,0.1-0.2,0.1c-0.1,0-0.2,0-0.3-0.1l-1.8-2.1c0-0.1,0.2-0.2,0.4-0.5
		c0.2-0.3,0.3-0.8,0.2-1.2c-0.1-0.4-0.5-1.6-2.2-1.2l-1.6,0.4l-0.9,0.2c-0.1,0-0.2,0.1-0.1,0.2c0.1,0.3,0.8-0.2,1.1,0.8L274.1,298.2
		L274.1,298.2L274.1,298.2z M280.5,296.7c0.3,1-0.7,0.8-0.6,1.2c0,0.2,0.2,0.1,0.3,0.1l1.1-0.3l1.1-0.2c0.2-0.1,0.4-0.1,0.3-0.3
		c-0.1-0.2-1,0.3-1.3-0.8l-1-3.9c-0.1-0.4,0-0.5,0.3-0.6l0.7-0.2c0.9-0.3,0.9,0.8,1.2,0.7c0.2-0.1,0-0.4,0-0.5l-0.3-0.8
		c0-0.1-0.1-0.2-0.2-0.2l-2.4,0.6l-2.4,0.6c-0.1,0-0.1,0.2-0.1,0.2l0.2,1.2c0,0.1,0,0.3,0.2,0.3c0.3-0.1-0.2-1.2,0.7-1.4l0.6-0.2
		c0.3-0.1,0.4-0.1,0.5,0.4L280.5,296.7L280.5,296.7L280.5,296.7z M284.6,291.3c-0.2-0.8,0.4-0.7,0.4-1c0-0.1-0.1-0.1-0.3,0l-1,0.3
		l-0.9,0.2c-0.1,0-0.3,0-0.2,0.2c0.1,0.3,0.9-0.2,1.1,0.6l1.1,4.1c0.2,0.8-0.4,0.7-0.3,1c0,0,0,0.1,0.1,0.1l0.9-0.3l1.2-0.3
		c0.2,0,0.2-0.1,0.2-0.2c-0.1-0.3-0.8,0.4-1.1-0.7L284.6,291.3L284.6,291.3L284.6,291.3z M286.3,293.3c0.6,1.7,2,2.5,3.5,2
		c2.4-0.8,2.2-3,1.8-4.2c-0.6-1.8-2.1-2.5-3.6-2C286.2,289.7,285.7,291.4,286.3,293.3L286.3,293.3L286.3,293.3z M287,292.5
		c-0.4-1.2-0.4-2.5,0.9-3c1-0.3,2.2,0.3,2.8,2.2c0.5,1.4,0.4,2.7-0.9,3.1C288.5,295.3,287.5,293.7,287,292.5z M292.7,288.5
		c-0.2-0.5,0-0.6,0.3-0.7c0.8-0.3,1.4,0.2,1.7,1c0.2,0.5,0.3,1-0.8,1.4c-0.2,0.1-0.5,0.2-0.6,0L292.7,288.5L292.7,288.5L292.7,288.5
		z M293.3,292.6c0.4,1-0.3,1-0.2,1.3c0.1,0.2,0.2,0.1,0.3,0l1.1-0.5c0.3-0.1,0.5-0.2,0.7-0.2c0.2-0.1,0.2-0.1,0.2-0.2
		c-0.1-0.3-0.7,0.3-1.1-0.6l-0.6-1.4c-0.1-0.3-0.2-0.3,0.2-0.5c0.3-0.2,0.7-0.1,0.8,0.2l1.1,1.1c0.4,0.4,0.9,0.8,1.5,0.6
		c0.3-0.1,0.7-0.5,0.6-0.7c0-0.1-0.1-0.1-0.1-0.1l0,0c-0.1,0-0.1,0.1-0.2,0.1c-0.1,0.1-0.2,0-0.3,0l-2.1-1.8c0-0.1,0.2-0.2,0.3-0.5
		c0.2-0.4,0.2-0.8,0-1.2c-0.1-0.4-0.8-1.5-2.4-0.8l-1.5,0.6l-0.9,0.3c-0.1,0-0.1,0.1-0.1,0.2c0.1,0.3,0.8-0.3,1.2,0.6L293.3,292.6
		L293.3,292.6L293.3,292.6z"/>
	<path fill="#D52B1E" d="M208.4,201.6h39.1v39.1h-39.1V201.6z"/>
	<path fill="#FFFFFF" d="M226.8,232.4c0,0.9-0.2,1.7-0.4,2.5c-0.4,1.3-0.4,1.3-0.9,1.9c-0.5,0.7-1.1,1.4-1.8,1.9
		c-0.8,0.6-1.8,0.9-2.8,0.8c-2.6-0.2-3.8-3.1-4.4-5.4c-0.6-2.4-2.4-3.8-3.6-2.9c-0.7,0.5-0.7,1.4-0.1,2.2c0.5,0.6,1.2,1.1,2,1.3
		l-1.4,1.8c-1.8-0.3-3.3-1.7-3.6-3.5c-0.2-1.2,0.4-3.4,2.3-4.1c2.5-0.8,4.1,1,4.9,2.5c1.1,2.1,1.5,5.9,4.5,5.3
		c1.6-0.3,2.4-2.7,2.4-3.7l1.2-1.3L226.8,232.4L226.8,232.4L226.8,232.4L226.8,232.4z M229.2,232.4c0,0.9,0.2,1.7,0.4,2.5
		c0.4,1.3,0.4,1.3,0.9,1.9c0.5,0.7,1.1,1.4,1.8,1.9c0.8,0.6,1.8,0.9,2.8,0.8c2.6-0.2,3.8-3.1,4.4-5.4c0.6-2.4,2.4-3.8,3.6-2.9
		c0.7,0.5,0.7,1.4,0.1,2.2c-0.5,0.6-1.2,1.1-2,1.3l1.4,1.8c1.8-0.3,3.3-1.7,3.6-3.5c0.2-1.2-0.4-3.4-2.3-4.1c-2.5-0.8-4.1,1-4.9,2.5
		c-1.1,2.1-1.5,5.9-4.5,5.3c-1.6-0.3-2.4-2.7-2.4-3.7l-1.2-1.3L229.2,232.4L229.2,232.4L229.2,232.4L229.2,232.4z"/>
	<path fill="#FEDD00" d="M231.5,215.8l5.1-5.5c0.5-0.4,0.7-1,0.8-1.6l-1.1,0.2l-0.2-0.5l-0.1-0.5l1.4-0.3c0-0.2,0-0.4,0-0.7
		c0-0.2,0.1-0.4,0.1-0.6l-1.6,0.1c0.1-0.3,0.1-0.4,0.1-0.7c0.1-0.2,0.1-0.4,0.2-0.5l0.9-0.1c0.3,0,0.5,0,0.9,0
		c0.8-1.6,4.4-3,6.9-0.4c1.8,1.9,1.4,5.3-0.9,6.3c-1.1,0.5-2.4,0.3-3.3-0.5l0.9-1.8c1.3,0.8,2.4-0.2,2.3-1.2c0-1.2-0.9-2.1-2.1-2.1
		c-1.1-0.1-1.8,0.5-2.3,1.5c-0.3,0.6-0.2,1-0.3,1.7c0,0.6-0.1,1.2-0.3,1.8c-0.2,0.7-0.6,1.2-1.1,1.7l-5.3,5.7l-20.4,22.1l-1.5-1.4
		L231.5,215.8L231.5,215.8z"/>
	<path fill="#FFFFFF" d="M216.4,217.7c0,0,1.3,6.4,5.7,15.9c2.2-0.8,3.5-1.3,5.9-1.3c2.4,0,3.7,0.4,5.9,1.3
		c4.4-9.6,5.7-15.9,5.7-15.9L228,202.9L216.4,217.7z"/>
	<path fill="#FEDD00" d="M229.1,207.9l8,10.3c0,0-1.1,5-4.3,12.5c-1.2-0.3-2.4-0.5-3.7-0.6L229.1,207.9L229.1,207.9z M226.8,207.9
		l-8,10.3c0,0,1.1,5,4.3,12.5c1.2-0.3,2.4-0.5,3.7-0.6L226.8,207.9L226.8,207.9z M251.7,201.6h39.1v39.1h-39.1V201.6z"/>
	<path fill="#D52B1E" d="M257.2,201.6h5.8v39.1h-5.8V201.6z M268.4,201.6h5.8v39.1h-5.8L268.4,201.6L268.4,201.6z M279.6,201.6h5.8
		v39.1h-5.8L279.6,201.6L279.6,201.6z"/>
	<path fill="#FEDD00" d="M208.6,274.6c0.2,1.1,0.5,2.2,1,3.1c0.7,1.1,0.4,1.1,2,2.9c0.9,0.9,1.9,1.6,3,2.1c1,0.5,2.1,0.9,3.3,1.2
		c2.6,0.7,5.2,0.9,7.9,0.8c1.6-0.1,3.3-0.3,4.9-0.5c1.8-0.3,3.5-0.4,5.3-0.5c1,0,2-0.1,2.9,0c1.2,0.1,2.3,0.2,3.5,0.5
		c1.8,0.4,3.5,0.9,5.2,1.5l0-40.8l-39.1,0v27.9C208.4,272.8,208.5,274.1,208.6,274.6L208.6,274.6L208.6,274.6z"/>
	<path fill="#D52B1E" stroke="#D52B1E" stroke-width="0.513" d="M213.1,281.7l1.8,1.1l2.5,0.9l0-38.8h-4.3L213.1,281.7L213.1,281.7z
		 M234.8,283.5l0-38.6h-4.4v39.2l4.3-0.5L234.8,283.5z M243.5,244.9h-4.3v38.8c1.5,0.2,2.9,0.4,4.3,0.8L243.5,244.9z M226.2,244.9
		v39.7c-1.5,0.1-2.9,0.1-4.4,0l0-39.7L226.2,244.9z"/>
	<path fill="#FEDD00" d="M290.7,274.6c-0.2,1.1-0.5,2.2-1,3.1c-0.7,1.1-0.4,1.1-2,2.9c-0.9,0.9-1.9,1.6-3,2.1
		c-1,0.5-2.1,0.9-3.3,1.2c-2.6,0.7-5.2,0.9-7.9,0.8c-1.6-0.1-3.3-0.3-4.9-0.5c-1.8-0.3-3.5-0.4-5.3-0.5c-1,0-2-0.1-2.9,0
		c-1.2,0.1-2.3,0.2-3.5,0.5c-1.8,0.4-3.5,0.9-5.3,1.5l0-40.8l39.1,0v27.9C290.9,272.7,290.8,274.1,290.7,274.6L290.7,274.6
		L290.7,274.6z"/>
	<path id="B" fill="#D52B1E" d="M261.7,248.1l-0.3,0.1c-0.1,0.1-0.2,0.3-0.4,0.4c-0.2,0.1-0.4,0.3-0.6,0.4c-0.1,0.1-0.2,0.1-0.3,0.2
		c-0.1,0.2,0,0.3-0.1,0.5c-0.1,0.2-0.2,0.3-0.3,0.4c-0.2,0.2-0.3,0.3-0.5,0.5c-0.1,0.2-0.3,0.3-0.5,0.5c-0.1,0-0.1,0.1-0.2,0.1
		c-0.1,0-0.2,0-0.3,0c-0.2,0.1-0.2,0.3-0.4,0.3c0.1,0.1,0.1,0.2,0.1,0.3c0.1,0.2,0.3,0.6,0.4,0.7c0.1,0.1,0.1,0.3,0.3,0.4
		c0.2,0.1,0.4,0.1,0.6,0.1c0.3,0,0.7,0.1,1,0.2c0.3,0.1,0.4,0.3,0.7,0.4c0.2,0.1,0.4,0.2,0.6,0.2c0.2,0,0.3,0.1,0.5,0
		c0.1,0,0.2-0.1,0.3-0.1c0,0,0,0,0.1,0l0,0.2c0,0,0,0,0,0v0h0l1,0.4c-0.1,0.2-0.2,0.4-0.1,0.6c0.3,0.9,0.6,1.5,0.7,1.5
		c0.3,0.1,0.4,0.4,0.6,0.7c-0.1,0.1-0.1,0.1-0.2,0.1c-0.3,0.3-0.6,0.5-0.8,0.9c-0.4,0.6-0.6,0.6-0.1,1.3c0.3,0.4,0.4,0.5,0.7,1.1
		c0.2,0.3,0.3,0.6,0.4,0.9c0.1,0.3,0.1,0.6,0.1,0.9l0.5,0.2l0.3-0.3l0.3-0.6l0-0.4c-0.1-0.1-0.2-0.2-0.1-0.4c0-0.2,0.2-0.1,0.3-0.3
		c0.1-0.2-0.2-0.3-0.3-0.5c-0.3-0.3-0.7-0.4-0.8-0.9c0-0.1,0-0.2,0.2-0.3l0.9-0.9c0.1,0.1,0.3,0.1,0.5,0.1c0.1,0,0.3,0.1,0.7,0.2
		c0.2,0.1,0.4,0.1,0.6,0l0.2,0c0,0.1,0.1,0.2,0.1,0.3c0,0.5-0.1,1.4,0.1,1.7c0.1,0.1,0.1,0.2,0.1,0.3c0.1,0.1,0.1,0.2,0.1,0.3v0.9
		c0,0.3-0.1,0.6-0.1,0.8c0,0.2-0.1,0.4-0.2,0.5c-0.1,0.2-0.3,0.2-0.5,0.3l0,0.5l0.5,0.2l0.6,0.1l0.3-0.1c0-0.1,0-0.2,0.1-0.3
		c0.1-0.1,0.1-0.2,0.2-0.3c0.2-0.1,0.4,0.1,0.4,0c0.1-0.1,0-0.2,0-0.4c0-0.3-0.1-0.5-0.1-0.8c-0.1-0.4-0.1-0.9-0.1-1.3
		c0-0.2,0-0.5,0.1-0.7c0.1-0.4,0.2-0.6,0.3-1c0.1-0.4,0.1-0.8,0.2-1.2c1.5,0.2,3,0.2,4.4-0.2c0.1,0,0.4-0.1,0.4-0.1
		c0.4,0.3,0.8,0.6,1.3,0.8c0,0,0,0.4,0,0.5c0,0.1,0,0.2,0.1,0.3c0,0.1,0.1,0.1,0.2,0.1c0.1,0,0.2,0,0.3-0.1c0.1-0.1,0.1-0.2,0.1-0.4
		c0-0.1,0-0.2,0-0.3c0.1,0,0.3,0,0.4,0c0.1,0,0.3,0,0.4,0l0,0.2c0,0.1,0,0.2,0,0.3c0,0.1,0.1,0.2,0.2,0.2c0.1,0,0.2,0,0.3,0
		c0.1-0.1,0.1-0.2,0.1-0.4c0-0.1,0-0.3,0-0.4l0.5-0.2c0,0.1,0,0.3,0,0.4c0,0.2-0.1,0.3-0.1,0.4c-0.1,0.2-0.2,0.5-0.4,0.7
		c-0.1,0.3-0.3,0.5-0.5,0.7l-0.3,0.3c-0.1,0.2-0.2,0.3-0.3,0.4c-0.1,0.2-0.3,0.4-0.4,0.5c-0.3,0.3-0.5,0.1-1,0.4l-0.1,0.5l0.7,0.3
		l0.6,0.1l0.2-0.1c0-0.1,0-0.3,0.1-0.4c0.1-0.1,0.2-0.2,0.4-0.2c0.2,0,0.4,0,0.5-0.1c0.2-0.1,0.2-0.4,0.3-0.7
		c0.4-0.7,0.8-1.3,1.4-1.9c0.3-0.3,0.5-0.4,0.8-0.7c0.1-0.2,0.2-0.2,0.3-0.4c0-0.1-0.1-0.2-0.1-0.3c0-0.2-0.1-0.3-0.1-0.5
		c0.7,0.4,0.5,0.3,0.6,0.7c0.1,0.3,0,0.5,0,0.8c0.1,0.4,0.2,0.5,0.3,0.9c0,0.4,0,0.7-0.1,1.1c0,0.3-0.1,0.6-0.2,1
		c-0.1,0.3-0.3,0.5-0.6,0.7c-0.1,0.1-0.2,0.1-0.3,0.2l-0.1,0.5l0.5,0.2l0.8,0.2l0.2-0.2c0.1-0.3,0-0.8,0.2-0.8c0.2,0,0.3,0,0.4-0.1
		c0-0.1,0-0.2,0-0.3l0.3-2.1l0.2-0.9c0-0.3,0.1-0.5,0.2-0.8c0.3-1-0.1-1.1-0.5-1.7c-0.2-0.2-0.3-0.5-0.3-0.7c0-0.4,0.1-0.7,0.1-1.3
		V254c0.1,0,0.1-0.1,0.2-0.1c0.5-0.2,0.9-0.6,1.1-1.2c0.1-0.2,0.2-0.5,0.1-0.7c0-0.2,0-0.3,0-0.5c0-0.2-0.1-0.3-0.1-0.4
		c-0.1-0.1-0.2-0.3-0.3-0.4c-0.4-0.4-0.8-0.6-1.3-0.7c-0.6-0.2-1.3-0.3-2-0.3c-0.7-0.1-1.4-0.1-2,0c-1,0.1-1.5,0.2-2.4,0.4
		c-0.8,0.1-1.6,0.2-2.3,0.2c-1.1,0-2.1-0.2-2.8-0.2c-1.2,0.1-1.2,0.4-2.9,0.5l-1.8,0.1l-1-0.3c0.3-0.1,0.5-0.2,0.7-0.5
		c0.1-0.2,0.1-0.3,0.3-0.5c0.1-0.1,0.2-0.3,0.4-0.5c-0.1-0.1-0.3-0.2-0.4-0.2c-0.1,0-0.3,0-0.4,0c-0.2,0-0.4,0.1-0.6,0.2
		c-0.2,0.1-0.3,0.2-0.4,0.3c-0.3-0.2-0.7-0.4-1-0.6C262.7,248.4,262.2,248.2,261.7,248.1L261.7,248.1L261.7,248.1z M262.7,253.8
		L262.7,253.8C262.7,253.8,262.7,253.8,262.7,253.8L262.7,253.8z"/>
	<g>
		<path id="C" fill="none" stroke="#FEDF00" stroke-width="0.987" stroke-linecap="round" d="M282.7,254.1l-0.4,0.1
			c-0.4,0.2-0.8,0.2-1.2,0.2c-1.3,0.1-2-0.5-3.3-0.4c-0.7,0.1-1,0.6-1.6,0.7c-0.3,0.1-0.5,0.1-0.8,0.1l0.2-0.5
			c-0.3,0.1-0.7,0.1-1,0.1c-0.2,0-0.5,0-0.7-0.1l0.5-0.5c-0.2,0-0.4-0.1-0.6-0.2c-0.2-0.1-0.4-0.2-0.5-0.3l0.8-0.2
			c0.7-0.2,1-0.5,1.9-0.6c0.5-0.1,1.4,0,3.6,0.3c1.4,0.2,2.1,0.1,2.6-0.1c0.3-0.2,0.5-0.5,0.5-0.9c0-0.3-0.1-0.7-0.4-0.9
			c-0.2-0.1-0.3-0.2-0.5-0.2"/>
	</g>
	<g>
		<path id="D" fill="#FCD900" stroke="#FEDF00" stroke-width="0.513" d="M261.8,249.9c-0.2,0-0.5,0-0.6,0.1
			c-0.2,0.1-0.3,0.3-0.4,0.5c0.2,0,0.3,0.2,0.5,0.1c0.1,0,0.3-0.1,0.4-0.2C261.8,250.3,261.9,250.1,261.8,249.9L261.8,249.9
			L261.8,249.9L261.8,249.9z"/>
	</g>
	<g>
		<g>
			<path id="E" fill="none" stroke="#FEDF00" stroke-width="0.987" stroke-linecap="round" d="M267.2,256.2l0.2,0.4
				c0.1,0.2,0.2,0.5,0.2,0.7c0.1,0.3,0.1,0.7,0.1,1l0,0.2l0,0.5 M271,255.7l-0.2,0.6l-0.4,1.6l0,0.3 M265.1,256.4
				c0.4,0.1,0.3,1.6,0.9,1.9"/>
		</g>
		<path fill="none" stroke="#FEDF00" stroke-width="0.987" d="M278.6,259l0.2-0.1c0.5-0.2,0.9-0.5,1.3-0.9"/>
		<g>
			<path fill="none" stroke="#FEDF00" stroke-width="0.987" stroke-linecap="round" d="M274.9,258.2L274.9,258.2
				c1.7-0.4,2.8-1.3,3.6-1.4"/>
			<g>
				<path id="F" fill="none" stroke="#FEDF00" stroke-width="0.987" stroke-linecap="round" d="M276.7,256.1c0.1,0,0.3,0,0.4,0
					c0.7-0.1,0.8,0.3,1.3,0.6c0.9,0.5,1,1.1,2,1.6l0.2,0.1l0.4,0.2"/>
			</g>
		</g>
	</g>
	<g>
		<path id="G" fill="#FCD900" stroke="#FEDF00" stroke-width="0.513" d="M258.4,251.8c0.1,0,0.2,0,0.3,0c0.2,0,0.2-0.1,0.4-0.1
			c0.1,0,0.2,0,0.3,0.1c0.1,0,0.1,0.1,0.1,0.2c0,0.1,0.1,0.1,0.1,0.2c0,0.1-0.2,0.2-0.3,0.2c-0.1,0-0.2,0-0.3-0.1c0-0.1,0-0.1,0-0.2
			C258.9,252.1,258.6,252,258.4,251.8L258.4,251.8L258.4,251.8z"/>
	</g>
	<path fill="#005EB8" d="M262,256.4c-0.3-0.1-0.6-0.2-0.9-0.4c0.2-0.1,0.3-0.1,0.4-0.3c0.2-0.2,0.2-0.4,0.3-0.6
		c0.1-0.2,0.1-0.5,0.3-0.6c0.2-0.1,0.4-0.1,0.5-0.1c0.2,0.1,0.3,0.2,0.4,0.4c0.1,0.3-0.1,0.4-0.1,0.7c-0.1,0.2-0.1,0.5-0.1,0.7
		c0,0.1,0.1,0.3,0.2,0.4C262.6,256.5,262.3,256.4,262,256.4L262,256.4L262,256.4z M261.5,256.8c0-0.2,0.1-0.3,0.3-0.3
		c0.2,0,0.3,0.1,0.3,0.3c0,0.2-0.1,0.3-0.3,0.3C261.6,257.1,261.5,257,261.5,256.8L261.5,256.8z M260.7,249L260.7,249
		c-0.3-0.2-0.3-0.4-0.4-0.6c-0.1-0.2-0.1-0.4-0.2-0.5c0-0.2,0-0.3,0-0.5c0-0.1,0-0.3,0-0.4c0-0.2,0-0.3-0.1-0.4
		c0-0.1-0.2-0.2-0.1-0.2c0,0,0.1,0,0.2,0c0.2,0,0.3,0.1,0.4,0.2c0.2,0.1,0.3,0.3,0.3,0.5l0.2,0.7c0,0.1,0.1,0.2,0.1,0.3
		c0.1,0.1,0.2,0.2,0.2,0.3l0,0c-0.1,0.1-0.2,0.3-0.4,0.4C261,248.8,260.8,248.9,260.7,249L260.7,249L260.7,249L260.7,249z
		 M262.4,254l1.1,0.5c0.7-0.4,1.3-1.1,1.7-1.9c0.3-0.6,0.5-1.3,0.6-2.1l-0.9-0.3l-0.2,0c-0.2,0.7-0.4,1.4-0.8,2
		c-0.3,0.6-0.8,1-1.3,1.4L262.4,254L262.4,254L262.4,254z M264.7,262.6c0.1-0.2,0.3-0.4,0.4-0.6c0.2-0.2,0.4-0.4,0.6-0.5
		c0.1,0,0.2,0,0.2,0c0,0.2,0,0.5-0.1,0.7c0,0.2-0.1,0.4-0.2,0.6c0,0.2-0.1,0.3-0.2,0.5c-0.1,0.1-0.1,0.2-0.2,0.2
		C265.1,263.2,264.7,262.9,264.7,262.6L264.7,262.6L264.7,262.6z M280.4,263.5c0.5,0.1,1,0.4,1.4,0.7c0,0.1,0,0.2,0,0.2
		c-0.2,0.1-0.5,0.1-0.7,0.1c-0.2,0-0.4,0-0.6,0c-0.2,0-0.3,0-0.5-0.1c-0.1,0-0.2-0.1-0.3-0.1C280,264.1,280.2,263.6,280.4,263.5
		L280.4,263.5z M275.8,262.6c0.5,0.1,1,0.4,1.4,0.7c0,0.1,0,0.2,0,0.2c-0.2,0.1-0.5,0.1-0.7,0.1c-0.2,0-0.4,0-0.6,0
		c-0.2,0-0.3,0-0.5-0.1c-0.1,0-0.2-0.1-0.3-0.1C275.4,263.1,275.5,262.6,275.8,262.6z M267.5,263.6c0.2,0.1,0.5,0.2,0.7,0.3
		c0.2,0.1,0.5,0.3,0.7,0.4c0,0.1,0,0.2,0,0.2c-0.2,0.1-0.5,0.1-0.7,0.1c-0.2,0-0.4,0-0.6,0c-0.2,0-0.3,0-0.5,0
		c-0.1,0-0.2-0.1-0.3-0.1C267.1,264.1,267.3,263.6,267.5,263.6L267.5,263.6z M263.3,249.4c-0.3-0.1-0.5-0.5-0.3-0.8
		c0.1-0.1,0.2-0.1,0.3-0.2c0.1-0.1,0.1-0.3,0.1-0.4c0-0.2-0.1-0.3-0.1-0.4c0-0.2-0.1-0.3-0.1-0.5c0-0.3,0-0.5,0.2-0.7
		c0.1-0.1,0.2-0.2,0.4-0.3c0.1,0.1,0,0.2,0,0.4c0,0.2,0.1,0.4,0.1,0.5c0.1,0.3,0.2,0.4,0.3,0.6c0.1,0.2,0.2,0.4,0.2,0.6
		c0,0.2,0,0.4-0.1,0.5c-0.1,0.2-0.2,0.3-0.3,0.4c-0.1,0.1-0.2,0.2-0.4,0.2C263.5,249.4,263.4,249.4,263.3,249.4L263.3,249.4
		L263.3,249.4z"/>
	<path id="B_00000145033338409191949630000010661241224537708965_" fill="#D52B1E" d="M261.7,265.6l-0.3,0.1
		c-0.1,0.1-0.2,0.3-0.4,0.4c-0.2,0.1-0.4,0.3-0.6,0.4c-0.1,0.1-0.2,0.1-0.3,0.2c-0.1,0.2,0,0.3-0.1,0.5c-0.1,0.2-0.2,0.3-0.3,0.4
		c-0.2,0.2-0.3,0.3-0.5,0.5c-0.1,0.2-0.3,0.3-0.5,0.5c-0.1,0-0.1,0.1-0.2,0.1c-0.1,0-0.2,0-0.3,0c-0.2,0.1-0.2,0.3-0.4,0.3
		c0.1,0.1,0.1,0.2,0.1,0.3c0.1,0.2,0.3,0.6,0.4,0.7c0.1,0.1,0.1,0.3,0.3,0.4c0.2,0.1,0.4,0.1,0.6,0.1c0.3,0,0.7,0.1,1,0.2
		c0.3,0.1,0.4,0.3,0.7,0.4c0.2,0.1,0.4,0.2,0.6,0.2c0.2,0,0.3,0.1,0.5,0c0.1,0,0.2-0.1,0.3-0.1c0,0,0,0,0.1,0l0,0.2c0,0,0,0,0,0v0h0
		l1,0.4c-0.1,0.2-0.2,0.4-0.1,0.6c0.3,0.9,0.6,1.5,0.7,1.5c0.3,0.1,0.4,0.4,0.6,0.7c-0.1,0.1-0.1,0.1-0.2,0.1
		c-0.3,0.3-0.6,0.5-0.8,0.9c-0.4,0.6-0.6,0.6-0.1,1.3c0.3,0.4,0.4,0.5,0.7,1.1c0.2,0.3,0.3,0.6,0.4,0.9c0.1,0.3,0.1,0.6,0.1,0.9
		l0.5,0.2l0.3-0.3l0.3-0.6l0-0.4c-0.1-0.1-0.2-0.2-0.1-0.4c0-0.2,0.2-0.1,0.3-0.3c0.1-0.2-0.2-0.3-0.3-0.5c-0.3-0.3-0.7-0.4-0.8-0.9
		c0-0.1,0-0.2,0.2-0.3l0.9-0.9c0.1,0.1,0.3,0.1,0.5,0.1c0.1,0,0.3,0.1,0.7,0.2c0.2,0.1,0.4,0.1,0.6,0l0.2,0c0,0.1,0.1,0.2,0.1,0.3
		c0,0.5-0.1,1.4,0.1,1.7c0.1,0.1,0.1,0.2,0.1,0.3c0.1,0.1,0.1,0.2,0.1,0.3v0.9c0,0.3-0.1,0.6-0.1,0.8c0,0.2-0.1,0.4-0.2,0.5
		c-0.1,0.2-0.3,0.2-0.5,0.3l0,0.5l0.5,0.2l0.6,0.1l0.3-0.1c0-0.1,0-0.2,0.1-0.3c0.1-0.1,0.1-0.2,0.2-0.3c0.2-0.1,0.4,0.1,0.4,0
		c0.1-0.1,0-0.2,0-0.4c0-0.3-0.1-0.5-0.1-0.8c-0.1-0.4-0.1-0.9-0.1-1.3c0-0.2,0-0.5,0.1-0.7c0.1-0.4,0.2-0.6,0.3-1
		c0.1-0.4,0.1-0.8,0.2-1.2c1.5,0.2,3,0.2,4.4-0.2c0.1,0,0.4-0.1,0.4-0.1c0.4,0.3,0.8,0.6,1.3,0.8c0,0,0,0.4,0,0.5
		c0,0.1,0,0.2,0.1,0.3c0,0.1,0.1,0.1,0.2,0.1c0.1,0,0.2,0,0.3-0.1c0.1-0.1,0.1-0.2,0.1-0.4c0-0.1,0-0.2,0-0.3c0.1,0,0.3,0,0.4,0
		c0.1,0,0.3,0,0.4,0l0,0.2c0,0.1,0,0.2,0,0.3c0,0.1,0.1,0.2,0.2,0.2c0.1,0,0.2,0,0.3,0c0.1-0.1,0.1-0.2,0.1-0.4c0-0.1,0-0.3,0-0.4
		l0.5-0.2c0,0.1,0,0.3,0,0.4c0,0.2-0.1,0.3-0.1,0.4c-0.1,0.2-0.2,0.5-0.4,0.7c-0.1,0.3-0.3,0.5-0.5,0.7l-0.3,0.3
		c-0.1,0.2-0.2,0.3-0.3,0.4c-0.1,0.2-0.3,0.4-0.4,0.5c-0.3,0.3-0.5,0.1-1,0.4l-0.1,0.5l0.7,0.3l0.6,0.1l0.2-0.1c0-0.1,0-0.3,0.1-0.4
		c0.1-0.1,0.2-0.2,0.4-0.2c0.2,0,0.4,0,0.5-0.1c0.2-0.1,0.2-0.4,0.3-0.7c0.4-0.7,0.8-1.3,1.4-1.9c0.3-0.3,0.5-0.4,0.8-0.7
		c0.1-0.2,0.2-0.2,0.3-0.4c0-0.1-0.1-0.2-0.1-0.3c0-0.2-0.1-0.3-0.1-0.5c0.7,0.4,0.5,0.3,0.6,0.7c0.1,0.3,0,0.5,0,0.8
		c0.1,0.4,0.2,0.5,0.3,0.9c0,0.4,0,0.7-0.1,1.1c0,0.3-0.1,0.6-0.2,1c-0.1,0.3-0.3,0.5-0.6,0.7c-0.1,0.1-0.2,0.1-0.3,0.2l-0.1,0.5
		l0.5,0.2l0.8,0.2l0.2-0.2c0.1-0.3,0-0.8,0.2-0.8c0.2,0,0.3,0,0.4-0.1c0-0.1,0-0.2,0-0.3l0.3-2.1l0.2-0.9c0-0.3,0.1-0.5,0.2-0.8
		c0.3-1-0.1-1.1-0.5-1.7c-0.2-0.2-0.3-0.5-0.3-0.7c0-0.4,0.1-0.7,0.1-1.3v-1.4c0.1,0,0.1-0.1,0.2-0.1c0.5-0.2,0.9-0.6,1.1-1.2
		c0.1-0.2,0.2-0.5,0.1-0.7c0-0.2,0-0.3,0-0.5c0-0.2-0.1-0.3-0.1-0.4c-0.1-0.1-0.2-0.3-0.3-0.4c-0.4-0.4-0.8-0.6-1.3-0.7
		c-0.6-0.2-1.3-0.3-2-0.3c-0.7-0.1-1.4-0.1-2,0c-1,0.1-1.5,0.2-2.4,0.4c-0.8,0.1-1.6,0.2-2.3,0.2c-1.1,0-2.1-0.2-2.8-0.2
		c-1.2,0.1-1.2,0.4-2.9,0.5l-1.8,0.1l-1-0.3c0.3-0.1,0.5-0.2,0.7-0.5c0.1-0.2,0.1-0.3,0.3-0.5c0.1-0.1,0.2-0.3,0.4-0.5
		c-0.1-0.1-0.3-0.2-0.4-0.2c-0.1,0-0.3,0-0.4,0c-0.2,0-0.4,0.1-0.6,0.2c-0.2,0.1-0.3,0.2-0.4,0.3c-0.3-0.2-0.7-0.4-1-0.6
		C262.7,265.8,262.2,265.6,261.7,265.6L261.7,265.6L261.7,265.6z M262.7,271.2L262.7,271.2C262.7,271.2,262.7,271.2,262.7,271.2
		L262.7,271.2z"/>
	<g>
		
			<path id="C_00000010997962793229461800000015519669872614847162_" fill="none" stroke="#FEDF00" stroke-width="0.987" stroke-linecap="round" d="
			M282.7,271.6l-0.4,0.1c-0.4,0.2-0.8,0.2-1.2,0.2c-1.3,0.1-2-0.5-3.3-0.4c-0.7,0.1-1,0.6-1.6,0.7c-0.3,0.1-0.5,0.1-0.8,0.1l0.2-0.5
			c-0.3,0.1-0.7,0.1-1,0.1c-0.2,0-0.5,0-0.7-0.1l0.5-0.5c-0.2,0-0.4-0.1-0.6-0.2c-0.2-0.1-0.4-0.2-0.5-0.3l0.8-0.2
			c0.7-0.2,1-0.5,1.9-0.6c0.5-0.1,1.4,0,3.6,0.3c1.4,0.2,2.1,0.1,2.6-0.1c0.3-0.2,0.5-0.5,0.5-0.9c0-0.3-0.1-0.7-0.4-0.9
			c-0.2-0.1-0.3-0.2-0.5-0.2"/>
	</g>
	<g>
		<path id="D_00000121245331661615786190000016446098359993422739_" fill="#FCD900" stroke="#FEDF00" stroke-width="0.513" d="
			M261.8,267.3c-0.2,0-0.5,0-0.6,0.1c-0.2,0.1-0.3,0.3-0.4,0.5c0.2,0,0.3,0.2,0.5,0.1c0.1,0,0.3-0.1,0.4-0.2
			C261.8,267.7,261.9,267.5,261.8,267.3L261.8,267.3L261.8,267.3L261.8,267.3z"/>
	</g>
	<g>
		<g>
			
				<path id="E_00000088092282168738912340000000635210998045537204_" fill="none" stroke="#FEDF00" stroke-width="0.987" stroke-linecap="round" d="
				M267.2,273.6l0.2,0.4c0.1,0.2,0.2,0.5,0.2,0.7c0.1,0.3,0.1,0.7,0.1,1l0,0.2l0,0.5 M271,273.1l-0.2,0.6l-0.4,1.6l0,0.3
				 M265.1,273.8c0.4,0.1,0.3,1.6,0.9,1.9"/>
		</g>
		<path fill="none" stroke="#FEDF00" stroke-width="0.987" d="M278.6,276.5l0.2-0.1c0.5-0.2,0.9-0.5,1.3-0.9"/>
		<g>
			<path fill="none" stroke="#FEDF00" stroke-width="0.987" stroke-linecap="round" d="M274.9,275.6L274.9,275.6
				c1.7-0.4,2.8-1.3,3.6-1.4"/>
			<g>
				
					<path id="F_00000062182313916187612580000011208627227608239787_" fill="none" stroke="#FEDF00" stroke-width="0.987" stroke-linecap="round" d="
					M276.7,273.5c0.1,0,0.3,0,0.4,0c0.7-0.1,0.8,0.3,1.3,0.6c0.9,0.5,1,1.1,2,1.6l0.2,0.1l0.4,0.2"/>
			</g>
		</g>
	</g>
	<g>
		<path id="G_00000093178782877012236910000005193158094276779678_" fill="#FCD900" stroke="#FEDF00" stroke-width="0.513" d="
			M258.4,269.2c0.1,0,0.2,0,0.3,0c0.2,0,0.2-0.1,0.4-0.1c0.1,0,0.2,0,0.3,0.1c0.1,0,0.1,0.1,0.1,0.2c0,0.1,0.1,0.1,0.1,0.2
			c0,0.1-0.2,0.2-0.3,0.2c-0.1,0-0.2,0-0.3-0.1c0-0.1,0-0.1,0-0.2C258.9,269.5,258.6,269.4,258.4,269.2L258.4,269.2L258.4,269.2z"/>
	</g>
	<path fill="#005EB8" d="M262,273.8c-0.3-0.1-0.6-0.2-0.9-0.4c0.2-0.1,0.3-0.1,0.4-0.3c0.2-0.2,0.2-0.4,0.3-0.6
		c0.1-0.2,0.1-0.5,0.3-0.6c0.2-0.1,0.4-0.1,0.5-0.1c0.2,0.1,0.3,0.2,0.4,0.4c0.1,0.3-0.1,0.4-0.1,0.7c-0.1,0.2-0.1,0.5-0.1,0.7
		c0,0.1,0.1,0.3,0.2,0.4C262.6,273.9,262.3,273.9,262,273.8L262,273.8L262,273.8z M261.5,274.2c0-0.2,0.1-0.3,0.3-0.3
		c0.2,0,0.3,0.1,0.3,0.3c0,0.2-0.1,0.3-0.3,0.3S261.5,274.4,261.5,274.2L261.5,274.2z M260.7,266.4L260.7,266.4
		c-0.3-0.2-0.3-0.4-0.4-0.6c-0.1-0.2-0.1-0.4-0.2-0.5c0-0.2,0-0.3,0-0.5c0-0.1,0-0.3,0-0.4c0-0.2,0-0.3-0.1-0.4
		c0-0.1-0.2-0.2-0.1-0.2c0,0,0.1,0,0.2,0c0.2,0,0.3,0.1,0.4,0.2c0.2,0.1,0.3,0.3,0.3,0.5l0.2,0.7c0,0.1,0.1,0.2,0.1,0.3
		c0.1,0.1,0.2,0.2,0.2,0.3l0,0c-0.1,0.1-0.2,0.3-0.4,0.4C261,266.2,260.8,266.3,260.7,266.4L260.7,266.4L260.7,266.4L260.7,266.4z
		 M262.4,271.4l1.1,0.5c0.7-0.4,1.3-1.1,1.7-1.9c0.3-0.6,0.5-1.3,0.6-2.1l-0.9-0.3l-0.2,0c-0.2,0.7-0.4,1.4-0.8,2
		c-0.3,0.6-0.8,1-1.3,1.4L262.4,271.4L262.4,271.4L262.4,271.4z M264.7,280.1c0.1-0.2,0.3-0.4,0.4-0.6c0.2-0.2,0.4-0.4,0.6-0.5
		c0.1,0,0.2,0,0.2,0c0,0.2,0,0.5-0.1,0.7c0,0.2-0.1,0.4-0.2,0.6c0,0.2-0.1,0.3-0.2,0.5c-0.1,0.1-0.1,0.2-0.2,0.2
		C265.1,280.6,264.7,280.4,264.7,280.1L264.7,280.1L264.7,280.1z M280.4,281c0.5,0.1,1,0.4,1.4,0.7c0,0.1,0,0.2,0,0.2
		c-0.2,0.1-0.5,0.1-0.7,0.1c-0.2,0-0.4,0-0.6,0c-0.2,0-0.3,0-0.5,0c-0.1,0-0.2-0.1-0.3-0.1C280,281.5,280.2,281,280.4,281z
		 M275.8,280c0.5,0.1,1,0.4,1.4,0.7c0,0.1,0,0.2,0,0.2c-0.2,0.1-0.5,0.1-0.7,0.1c-0.2,0-0.4,0-0.6,0c-0.2,0-0.3,0-0.5,0
		c-0.1,0-0.2-0.1-0.3-0.1C275.4,280.5,275.5,280.1,275.8,280z M267.5,281c0.2,0.1,0.5,0.2,0.7,0.3c0.2,0.1,0.5,0.3,0.7,0.4
		c0,0.1,0,0.2,0,0.2c-0.2,0.1-0.5,0.1-0.7,0.1c-0.2,0-0.4,0-0.6,0c-0.2,0-0.3,0-0.5-0.1c-0.1,0-0.2-0.1-0.3-0.1
		C267.1,281.5,267.3,281.1,267.5,281L267.5,281z M263.3,266.8c-0.3-0.1-0.5-0.5-0.3-0.8c0.1-0.1,0.2-0.1,0.3-0.2
		c0.1-0.1,0.1-0.3,0.1-0.4c0-0.2-0.1-0.3-0.1-0.4c0-0.2-0.1-0.3-0.1-0.5c0-0.3,0-0.5,0.2-0.7c0.1-0.1,0.2-0.2,0.4-0.3
		c0.1,0.1,0,0.2,0,0.4c0,0.2,0.1,0.4,0.1,0.5c0.1,0.3,0.2,0.4,0.3,0.6c0.1,0.2,0.2,0.4,0.2,0.6c0,0.2,0,0.4-0.1,0.5
		c-0.1,0.2-0.2,0.3-0.3,0.4c-0.1,0.1-0.2,0.2-0.4,0.2C263.5,266.9,263.4,266.9,263.3,266.8L263.3,266.8L263.3,266.8z"/>
	<path fill="none" stroke="#713F2A" stroke-width="0.797" d="M208.4,201.6h39.1v39.1h-39.1V201.6z M251.7,201.6h39.1v39.1h-39.1
		V201.6z M208.6,274.6c0.2,1.1,0.5,2.2,1,3.1c0.7,1.1,0.4,1.1,2,2.9c0.9,0.9,1.9,1.6,3,2.1c1,0.5,2.1,0.9,3.3,1.2
		c2.6,0.7,5.2,0.9,7.9,0.8c1.6-0.1,3.3-0.3,4.9-0.5c1.8-0.3,3.5-0.4,5.3-0.5c1,0,2-0.1,2.9,0c1.2,0.1,2.3,0.2,3.5,0.5
		c1.8,0.4,3.5,0.9,5.2,1.5l0-40.8l-39.1,0v27.9C208.4,272.8,208.5,274.1,208.6,274.6L208.6,274.6L208.6,274.6z M290.7,274.6
		c-0.2,1.1-0.5,2.2-1,3.1c-0.7,1.1-0.4,1.1-2,2.9c-0.9,0.9-1.9,1.6-3,2.1c-1,0.5-2.1,0.9-3.3,1.2c-2.6,0.7-5.2,0.9-7.9,0.8
		c-1.6-0.1-3.3-0.3-4.9-0.5c-1.8-0.3-3.5-0.4-5.3-0.5c-1,0-2-0.1-2.9,0c-1.2,0.1-2.3,0.2-3.5,0.5c-1.8,0.4-3.5,0.9-5.3,1.5l0-40.8
		l39.1,0v27.9C290.9,272.7,290.8,274.1,290.7,274.6L290.7,274.6L290.7,274.6z"/>
</g>
</svg>
