<?xml version="1.0" encoding="utf-8"?>
<!-- Generator: Adobe Illustrator 28.2.0, SVG Export Plug-In . SVG Version: 6.00 Build 0)  -->
<svg version="1.1" id="asm" xmlns="http://www.w3.org/2000/svg" xmlns:xlink="http://www.w3.org/1999/xlink" x="0px" y="0px"
	 viewBox="0 0 500 500" enable-background="new 0 0 500 500" xml:space="preserve">
<path fill="#000066" d="M0,0h500v500H0V0z"/>
<path fill="#BD1021" d="M0,249.6L500,82.9v333.3L0,249.6z"/>
<path fill="#FFFFFF" d="M53.6,249.6L500,100.8v297.6"/>
<g id="crest">
	<path d="M383.2,263.6c3.3,0.3,3.2,3.6,3.2,3.6l11.8,0.3c1.5-4.1,3.1-3.6,5.9-1.6c2.7,1.9,5.7,2.8,5.7,2.8c1.1-5.9,9.5-4.7,9.5-4.7
		c3.6-8.5,3.9-8.4,1.7-9.5s-3-2.9-3-2.9c-2-2.4-3.1-6-3.3-8.1s-2.7,1.1-3.2,0.4c-0.5-0.7-4.2-0.3-4.2-0.3c0.9,1-2.2,0.4-2.2,0.4
		c0.3,0.2,0,1.1,0,1.1c-0.3-0.4-2.7-0.8-2.7-0.8c-0.2,0.5-0.8,1.1-0.8,1.1c-1.3-0.6-3.9-0.5-3.9-0.5c-3.8-0.1-6.1,1.1-7.1,1.8
		c-1.1,0.6-4.9,2.6-8,5.6s-4.9,2.7-4.9,2.7c-0.9,3.4-8.4,7.4-8.4,7.4c-1.2,1.1-4.9,1.6-6.8,0c-1.9-1.6,0-4.4,0-4.4
		c0.7-1.3,1.4-1.3,1.5-5.9c0.1-3.1,3.3-5.6,6.6-9.2c4-4.4,9.7-11.7,9.7-11.7c0,2.2,1.3,2.6,1.3,2.6c1.1-2.3,2.7-4.1,2.7-4.1
		c0.1,0.2,0.3,0.3,0.3,0.3c1.3-1.7,2-2.4,2-2.4c-0.4-0.2-3.9,0-7.2,2.9c-3.3,2.9-5.5,1.9-5.5,1.9c-2.3-0.7-2.5-2.5-2.5-2.5
		c-1.7-7.2,4.9-12.3,4.9-12.3c-8.8-2.1-2.4-13.2,8.4-17.9s10.8-6.9,10.8-6.9c0.6,0.7,1.1,2,1.1,2c0.1-0.1,0.9-1.3,7.2-4.1
		s9.3-5.2,9.3-5.2c0.8,1.5,0.6,2.6,0.6,2.6c17.1-6,34-19.8,34-19.8c0.5,1.2,0.2,2.9,0.2,2.9c2.8-2.6,12.9-8.6,12.9-8.6
		c0.2,3.8-3,5.3-3,5.3c0.3,0.6,0.5,1.6,0.5,1.6c1.7-0.9,9.3-6.3,9.3-6.3c2.8,2.4,0.3,6.4,0.3,6.4c1-0.1,1.7-1,1.7-1
		c0.7,4.1-3.9,7.8-3.9,7.8c0.8,0,2.1-0.8,2.1-0.8c-0.9,4.5-9.4,9.5-9.4,9.5c1.3,1.1,0.1,2.6-1,3.2c-1,0.7-2.8,2.1-2.3,2.7
		s4.4-2.1,4.4-2.1c0.7,1.9-4.2,5.6-4.2,5.6c3.4,0.4,12.8-3.8,12.8-3.8c-0.8,3.6-4.3,6.5-8.7,8.1c-4.4,1.6-4.2,1.9-4.2,1.9
		c0.8,0.6,6.8-1.2,6.8-1.2c-1.8,4.1-8.1,6.9-8.1,6.9c1.7,1.5,4.1-0.2,6.5-1.9c2.4-1.6,5.6-3,9.1-4.2c3.6-1.2,6.1-0.3,6.1-0.3
		c3-0.9,5.5,0.4,5.5,0.4c5.7,0.5,6.3,2.5,6.3,2.5c0.6,0.1,1.1,0.4,2.6,1.5c1.5,1.1,1.4,4.4,1.3,6c-0.1,1.6-0.5,1.6-0.8,2.1
		s-0.3,1-0.3,1.6s-1.4,4.5-10.2,4.5c-8.8,0-13.3,0-13.3,0c-0.7,0-1.6,0.4-1.6,0.4c-3.7,1.8-1.7-1.3-6.2,2.4c-4.4,3.6-6.6,3-6.6,3
		c-0.7,0.9-5.3,5.2-8,6.9c-2.6,1.7-2.2,1.5,0.1,2.5s5.8,0,5.8,0c-2.2,1.5-0.7,2.2-0.7,2.2c2.9-1.8,4.7-1.1,4.7-1.1
		c0.9,2.5-2.4,6.6-2.4,6.6c1.3,0.2,3.7,0,3.7,0c-0.6,1.7-3,3.6-4.8,4.2c-1.8,0.6-1.5,0.8-0.9,1.9s0.1,2.2,0.1,2.2
		c-3.1-2.2-3.2-0.2-3.2-0.2c-0.4,2.6-0.3,6.2-0.3,6.2c-2.2-1.1-2.3,0.4-2.3,0.4c-0.6,2.3-3.3,5-3.3,5c-0.1-1.4-1.4-1.8-1.4-1.8
		c-1.4,2.7-4,4.3-4,4.3c-0.3,2.3,0.3,5.6,0.3,5.6c-1.7-0.3-2.3-0.3-2.5,0.1c-0.3,0.4,0.4,0.6,0.4,0.6l21.8,0.5
		c0.3,0,1.6,0.2,1.6,2.5c0,2.4-1.9,2.5-1.9,2.5l-23.8-0.6c0,0,0.1,0.7-1.1,1.3s-0.8-0.7-1.2,2.2c-0.3,2.9-5.1-0.2-5.1-0.2
		c-0.8,1.1-2.6,2.6-2.6,2.6c-1.1-3.2-2.2-4.2-3.9-1.4s3.1,2.3,3.1,2.3s28-4.1,29.5-4.3s3.2-0.1,3.9,2.1c0.7,2.1-3.4,2.5-3.4,2.5
		l-28.7,3.1c-0.6,1.7-3,1.6-3,1.6c0.2,1.6-1.5,2.6-2.4,3.2c-0.9,0.6-3.6,0.3-3.6,0.3c-3.3,2.3-5,0.5-5,0.5c-2.2,0.9-3.5,0.5-5.3-0.2
		c-1.8-0.8-1.6-2.9-1.6-2.9l-18.1,1.9c-0.9,0.3-1.4,0.9-1.4,0.9c0.6,0.8-1.3,2.7-1.3,2.7c0.5,0.4,1.6,1.4,1.7,3.7
		c0.2,2.4-2.9,2.8-1.4,4.5c1.5,1.7,4.3,0.3,7.5-1.2s6.2-1.3,7.5-1.3c1.3,0,5.1,0.9,7.4,1.8c2.3,0.8,3.1,0.3,3.3-0.9s1.2-1.5,1.2-1.5
		c-0.3,1.2,0.3,1.7,0.3,1.7c0.9,0.1,2.5-0.8,2.5-0.8c-0.1,0.9-1.3,1.4-1.3,1.4c-2.3,1.5,0.9,1,0.9,1c6.2-1.3,8.5-1.2,10.1-1
		s9.3,3.4,9.3,3.4c0.3-0.8,0.1-2.7,0.1-2.7c2,0.5,2.8,1.7,2.8,1.7c0.7-0.8,0.3-2.2,0.3-2.2c6.3,3.5-1.3,5.1-3.3,5.8
		c-2,0.7-2,1.5-2,1.5c1.7-0.5,2.8-0.7,4.2-0.8c1.4-0.1,0.9,0,4.2-0.7c3.3-0.7,5,0.7,5,0.7c-2.8,0.1-3.6,1-3.6,1
		c1.8,1.2,0.1,2.2,0.1,2.2c-2.5-3.2-4.7,0.1-4.7,0.1c0.9-0.1,3.4,0.4,4.1,0.9c0.6,0.4,1.9,1,3.5,1.8c2.3,1.1,1.9,0.4,3.7,1.1
		s1.1,2.4,1.1,2.4c-0.8-1.4-2.4-1.9-2.4-1.9c-0.1,1.9-2.1,2.2-2.1,2.2c2.3-2.6-2.7-3.7-5.1-3.7c-2.4,0-4.1,1.6-4.1,1.6
		c4.8,4.5,8.1,3,8.1,3c-0.6,1.6-4.5,1-4.5,1c1.8,1.4,1.6,2.4,1.6,2.4c-1-0.9-2.6-0.5-6-2.7s-6.5-1.5-6.5-1.5
		c3.3,3.6-1.2,5.7-1.2,5.7c-1.7,1,0.7,2.3,0.7,2.3c-2.1,0.4-2.4-1.7-2.4-1.7c-1.1-0.2-2.7,1.1-2.7,1.1c0.1-2.2,3-1.1,3-3.3
		c0.1-2.3-2.6-4-10.7-2.9c-8.1,1.1-10.4-1.5-10.4-1.5c-0.7,0-0.8,0.7-0.8,0.7c1.3,1.3,1.9,1.8,1.7,2.7s0.4,1.2,0.4,1.2
		c-1.5-0.1-1.6-1.9-1.6-1.9c0,0.7-0.3,0.8-0.8,1.6c-0.5,0.8,0,1.7,0,1.7c-0.6-0.6-1.8-1.2-0.7-2.8c0.8-1.2-1.7-2.8-1.7-2.8
		c-1-1-3.6-0.1-3.6-0.1c-5.5,1.1-8.7-2.4-8.7-2.4c-0.6,0-1.8-0.3-1.8-0.3c-5.8,2.6-10.9-3-10.9-3c-4.4,0.8-6.4-1.3-7.7-3.3
		s-1.6-2.2-3.4-3.3c-1.8-1.1-3.4-4.1-1.8-5.7c1.4-1.4,1-1.7,1-1.7c-2.3-3.8,4.1-5.1,4.2-6c0.2-1.3,1.5-2.2,2.9-2.3
		c1.4-0.1,1.4,0,2.4-0.9c0.9-1,2.7,0.2,2.7,0.2c0.4-0.3,3.5-2.7,6.3-1.4c2.8,1.3,5.1,0.4,5.1,0.4c2-0.4,18.3-2.6,18.3-2.6
		c1.1-1.6,1.8-3.5,6.3-4.5c4.5-1,7.9-3.8,7.9-3.8c-0.8-0.9-2.1-0.8-2.8-0.9c-0.7-0.1-2.1-1.3-2.1-1.3c-0.8,0.4-1.2,0.2-7.1,3.8
		c-5.3,3.2-5.4-3.2-5.4-3.2l-11.5,0c-0.2,2.4-2.1,3.4-2.1,3.4l-4.2,0.2c-2.3-1.2-2.4-5.4-2.4-5.4c-12.6,0.2-19.7,4.7-19.7,4.7
		c-14.3-7.3-25.5-9-25.5-9c17.4-1.9,26.6-6.7,26.6-6.7c9.6,5.8,18.6,5.9,18.6,5.9c0.3-3.5,2.7-4.3,2.7-4.3L383.2,263.6L383.2,263.6z
		"/>
	<path fill="#FFC221" d="M362.5,292.5c-3.6,2.1-3,3.3-2.7,4c0.3,0.7,0.4,1.3-0.6,2.3c-1,1-0.9,1.3-0.9,1.3c0.2,3.5,2.7,4.3,3.7,5.2
		c0.9,0.7,2.4,3,2.4,3c1.9,2.7,3.8,2.7,5.3,2.7s1.3-0.1,0.6-0.8c-0.7-0.6-2.2-1.8-2.2-1.8c2,0.7,3.8,2.7,3.8,2.7
		c3.7,4,7.1,3.5,8.6,3.3s1.2-1.1,1.2-1.1c-0.1-0.1-1.5-0.3-1.5-0.3c-5.5-0.5-7.2-4.2-7.2-4.2c3.3,3.3,8.6,4,10.2,3.9
		c1.6-0.1,1.5,0.4,1.2,0.5c-0.3,0.1-0.8,0-1.6-0.1s-0.7,0.1-0.6,0.4s0.9,0.3,1.8,0.3c0.9,0,0.2,0.1,2.5,1.8c2.3,1.8,8,0.3,8,0.3
		c-3.7-0.9-4.2-2.6-4.2-2.6c-5,0.6-7-2.4-7-2.4c-0.9-0.9-3.6-2.3-3.6-2.3c-2.8-1.2-3.3-3.8-3.3-3.8c0.8,1.1,2.4,2.4,4.3,3
		c2,0.5,2.5,0.8,2.5,0.8c-0.9,0.1-1.5-0.2-1.5-0.2c-2-0.6-0.9,0.2-0.9,0.2c2.2,1.7,2.8,1.6,2.8,1.6c5.7,0.6,2.9-1.7,2.9-1.7
		c4,1,4.7-0.6,4.7-0.6c0.8,1.8,3.9,1.1,3.9,1.1c-4.1,2-1,1.4-1,1.4c4.1-0.8,4.9,0.3,4.9,0.3c1.1,1,2.2,0.9,2.2,0.9s0.7,0,2.3,0.3
		s4,1.6,6.2,1.4s2.6,0.4,2.6,0.4c-0.4-0.1-1.4-0.3-3.2,0.5s-4.8,1-9.3,0s-4.8-0.9-4.8-0.9c1.1,0.8,2,1.9,2.2,2.7s1,0.8,1,0.8
		c0.3-1,1.7-1.4,1.7-1.4c0.9,0.8,3.2,1.9,3.2,1.9c0.3-0.5,0-0.9,0-0.9c1.7,1.6,3.7,1.1,3.7,1.1c0.5-0.4,0.4-1.3,0.4-1.3
		c0.7,0,0.8,0.4,1.3,0.7s2,0.1,2,0.1c-0.6-0.2-1-1.1-1-1.1c2.2-1.6,7.1-0.9,7.1-0.9c3.5,0.6,3.1,2.9,3.1,2.9
		c0.7,0.3,1.7,1.4,1.7,1.4c0.3-0.8,0-1.6,0-1.6c1.6,0.8,2,2.6,2,2.6c1.9-2.1-1.8-4.5-1.8-4.5c1.8-0.2,3.7-0.1,4.9,0.1
		s2.9,0.8,4.3,1.9s3.9,1.7,3.9,1.7c-0.1-0.5-1.4-1.3-1.7-1.4c-0.3-0.2-0.4-0.6-0.4-0.6c1.2,0.2,2.1,0.1,2.1,0.1
		c-4.3-2.6-5.3-3.8-5.3-3.8c1.6,0.2,2.5-0.8,2.5-0.8c-3.4,0.1-3.5-0.8-3.5-0.8c0.4,0.1,1.9,0.5,3.9,0.1s4.8,0,4.8,0
		c-1.5-2.3-7.1-1.9-8.9-1.8s-2.5-0.1-2.5-0.1c0.3-0.1,0.6-0.4,2-0.4c1.4,0,2.8,0.1,4.4-1c1.6-1.1,3.8-0.7,3.8-0.7
		c-0.5-1.1-3.1-1.4-5.3,0c-2.2,1.4-4.2,1-4.2,1c3.5-0.5,4.5-1.7,4.5-1.7c-1.1-0.3-1.7,0.1-3.8,0.5c-2.1,0.4-2.7-0.3-2.7-0.3
		c2.3-1.4,3.9-1.9,3.9-1.9c-2-0.4-3.8-1.3-3.8-1.3c-2.1,1.9-3.6,3-7.6,1c-3.9-2.1-6-1.8-6-1.8c3.5-2,7-1.2,9.6,0.4
		c2.6,1.5,3.3,0.3,3.3,0.3c-0.8-0.5-0.7-1-0.7-1c6.3,3.2,9,1.2,10.4,0.3s-0.6-2.2-0.6-2.2c-0.1,2-2.7,3-4.7,2.3
		c-2-0.7-3.9-1.5-6.8-2.8s-6.5-0.6-9.9,0.1s-3.8,0.4-4.1,0.1c-0.3-0.3-0.5-1.1-2.2-0.4c-1.7,0.7-5.8-1.2-8.3-1.8
		c-2.5-0.6-6.6-0.3-10.2,1.7c-3.5,1.9-5.3,1.5-6.4,1c-1.1-0.5-1.7-1.8-0.6-3s1.2-1.5,1.1-3.2c-0.1-1.7-1.8-2.7-1.8-2.7
		c1.6-1.6,1.9-2,1.4-2.7c-0.5-0.7,0.3-0.7,1.2-1.1c0.9-0.4,0.5-0.5,0.3-1c-0.2-0.5-0.7-0.4-0.7-0.4c-2.1,0.1-3.2-0.5-3.2-0.5
		c-3.4-1.6-6.6,1.5-6.6,1.5c-1.9-1.5-2.4-0.5-2.7-0.2s-1,0.6-1.9,0.7c-0.8,0.1-2.1,0.4-2.5,1.2c0,0-0.4,0.6,0.1,1.3
		c0,0,0.5,0.8-0.4,1.8c-1,1-1.3,1.2-1,2.1s0.2,1.6-0.2,2.2c0,0-0.4-0.5-0.3-1.1s0.1-1,0-1.3c0,0-1,0.9-1.1,1.6c0,0-0.4-1,1-2.4
		s2-2.1,1.6-2.6C363.8,291.7,362.8,292.3,362.5,292.5L362.5,292.5z"/>
	<path d="M366.5,307.7c0,0-1.7-1.3-1.5-3.2s0.2-2.1,0-2.4c0,0-0.3,0.2-0.3,0.9c0,0.7-0.1,1.4-0.2,1.5c0,0-0.9-1.5-1.3-1.8
		c0,0,0.3-1.6-0.2-2.3c-0.5-0.7-1-0.7-1.5-0.5c-0.8,0.3-1.4,1,1.3,3.2c0,0,1,0.8,1.7,2.5C365.1,307.4,366.2,307.6,366.5,307.7z
		 M375,302.7c0,0-0.1-1,0.8-2.9s0.4-3.2,0.2-3.7c-0.2-0.5-0.3-0.3,0.6-1.1c1.2-1-0.4-2.2,1.5-3.9c0,0,1.3-1.1,1.5-1.5
		c0,0-2,1.1-3.3,1.6c-1.3,0.5-6.3,3-5.2,4.6s1,1.7,0.8,2.4c0,0-3-1.6-1.9-4.1c0,0,0.5-1,1.7-2.2c1.1-1.1,0.5,0.2,2.8-1.1
		c0,0,1.8-1.1,2.8-2.6c0,0-1.2,0.8-1.7,0.9c0,0-2.7,0.5-3.8,1.6c-1.1,1.1-3.4,3.1-2.6,5.3c0,0-2.7-0.3-3.3-3.1c0,0-5,6.1,5.4,9
		C371.4,302,373.3,302.5,375,302.7z"/>
	<path fill="#FFC221" d="M420.8,282.2c3.9-0.6,26.4-4,28.5-4.2c2.2-0.2,3.1-0.5,3.8,1.3c0.8,2-3.1,2.1-3.1,2.1l-26.8,3
		c-1.3,0.2-1.6-0.4-1.6-0.4c-0.2-0.4-0.7-1-1-1.4C420.6,282.7,420.2,282.3,420.8,282.2L420.8,282.2z"/>
	<path fill="#5A3719" d="M365.8,294.4c0,0-2.9,6.1,8.5,7.6c0,0,0-0.7,0.5-1.6c0.5-1,1.5-2.9,0.5-4.2s0.8-0.6,1-2.2
		c0.3-1.6-0.2-1.4,0.6-2.5c0,0-3.6,1.3-5,2.9c-1.4,1.6,1.9,2.8-0.1,4.5c0,0-1.6-0.6-2.5-2.3C369.4,296.6,367.2,296.7,365.8,294.4
		L365.8,294.4z"/>
	<path d="M377,302c0,0,2.8,2.4,6.2,2.3c3.4-0.1,4.8-1,5.6-2.3c0,0,0.7,1,0.7,1.7c0,0,2.9-2.4,7.9-0.3s3.5,1.5,4.6,1.7
		c0,0-2.1-0.4-7,1.9C389.9,309.2,376.9,308.4,377,302L377,302z"/>
	<path fill="#5A3719" d="M372.3,291.2c0,0,1.3,0.2,2.5-1.2C374.8,289.9,373.1,290.2,372.3,291.2z M362.7,302.5c0,0-2.4-1.9-0.8-2.2
		C361.9,300.3,362.9,300.1,362.7,302.5z"/>
	<path d="M414,314.1c0,0,1.3-2.2,4.9-2.2s4,1.7,8.6,2c0,0-5.5,1.5-9.3,0.1C416.2,313.3,414.4,313.9,414,314.1z"/>
	<path fill="#5A3719" d="M378.2,303.6c0,0,5.4,3.3,10.2-0.3c0,0,0.4,0.4,0.7,1.3c0,0,3.6-3.5,10.2,0.3c0,0-0.8-0.1-3.9,1.2
		C391.5,307.8,381.5,308.9,378.2,303.6z"/>
	<path d="M399.1,306.9c0,0,5.2,0.6,9.6,0.3c2.7-0.2,5.6-0.7,4.2,0.3c-1.5,0.9-0.7,1,5.5,0.4s-0.1,1.2,4.2,1.7
		C422.5,309.7,412.2,315,399.1,306.9z"/>
	<path fill="#5A3719" d="M412.7,303.6c0,0,3-1.1,5.9,0.2c2.8,1.3,2.4,1.4,4.3,1.6c0,0-1.3,1.9-4.4,0.4
		C415.3,304.3,414.5,304,412.7,303.6z M416.1,313c0,0,3-1.5,6.3,0.1c0.4,0.2,1.3,0.6,2.2,0.8c0,0-2.5,0.8-5.1,0
		C418.4,313.4,417.5,313.2,416.1,313L416.1,313z M401.3,307.6c0,0,6.7,0.6,10.3-0.1c0,0-4.2,2,6.3,1.1c0,0,2.3-0.3,2.1,0.1
		c-0.3,0.4-0.5,0.6,0.7,1C420.7,309.7,412.9,313.2,401.3,307.6L401.3,307.6z"/>
	<path d="M368,302c0,0,0.1,0.5,1.5,1.2c1.5,0.7,2.3,1.8,2.6,2.5c0.3,0.6,1.1,1.6,2.3,1.9c0,0-5.2,1.1-7.6-1.6
		C366.9,305.9,365.1,303.9,368,302"/>
	<path fill="#5A3719" d="M409.2,314c0,0-2.1-0.1-4.9-1.1c-2.8-1-3.6-0.1-5.2-1.3c-1.6-1.2-4.8-0.4-5.4-0.4c-0.6,0.1-2.3,0-0.2-1.4
		c0,0-1.7,0-2.4-0.9c0,0-0.8,0.7-3.6,0.5c0,0,1.3,2-3.9,1.4c0,0,1.5,1.8,3.4,2.1c1.9,0.4,2.6,0.2,3.8-0.1c0,0-0.3,1.6,2.1,2.2
		c2.4,0.6,2.9,1.1,4.1,1.6c0,0,0.2-1-3-3.3c0,0,1.7-0.1,4.2,0.5C400.6,314.4,406.1,315.8,409.2,314L409.2,314z M410.4,316.4
		c0,0,0.5,1.2,2.1,0.9c1.6-0.3,4.2-0.7,6.7,0.5c0,0,0.4-2.1-4.6-2.3C414.6,315.6,411.5,315.8,410.4,316.4L410.4,316.4z M367.8,302.7
		c0,0-1.9,1.6-0.2,3.2c1.6,1.5,4.1,1.4,5.3,1.3c0,0-0.7-0.4-1.3-1.3c-0.6-0.9-0.6-1.6-2-2.2C368.3,303.2,368.1,303,367.8,302.7z
		 M365.8,294.4c0,0-2.9,6.1,8.5,7.6c0,0,0-0.7,0.5-1.6c0.5-1,1.5-2.9,0.5-4.2s0.8-0.6,1-2.2c0.3-1.6-0.2-1.4,0.6-2.5
		c0,0-3.6,1.3-5,2.9c-1.4,1.6,1.9,2.8-0.1,4.5c0,0-1.6-0.6-2.5-2.3C369.4,296.6,367.2,296.7,365.8,294.4L365.8,294.4z"/>
	<path d="M395.8,308.6c0,0,2.4-0.4,8.5,1.9s8.6,1.7,9.5,1.6c0,0-3.4,1.8-8.8-0.5C400.4,309.5,400.1,310.3,395.8,308.6L395.8,308.6z"
		/>
	<path fill="#FFC221" d="M434,307.2c0,0,1.4,0,2.2,0.3c0,0,0.5-0.5,1.8-0.6C438,306.9,437.2,306.1,434,307.2z M429.8,303.8
		c0,0,1.4-0.1,1.8-0.7c0,0-0.7-0.9-1.8-1.3C429.9,301.8,430.1,302.7,429.8,303.8z M383,288.2c0,0-0.3-0.7,1.2-0.9
		c1.5-0.2,20.4-2.9,20.4-2.9s1,0,1.1,0.7c0.2,0.7-0.1,1.3-4.7,1.8s-16.7,2-16.7,2S383.1,289.1,383,288.2z"/>
	<path fill="#FFC221" d="M401.5,287.4c0,0,0,2.7,2.7,3.1c2.7,0.4,3.6-0.2,4.3-1.6c0.2-0.4,1-3.2-0.2-3.4c-0.5-0.1-1.3,0-1.9,0.2
		c-0.9,0.4-1.8,0.8-1.5,1.3c0.6,1,0.8,1.2,0.5,1.3c-0.7,0.2-1.1-0.4-1.3-0.8c-0.2-0.5,0.4-0.8-1.4-0.6
		C402.1,287.1,401.5,287.1,401.5,287.4L401.5,287.4z"/>
	<path fill="#FFC221" d="M412.9,285.4c1.4,0.2,1.3,3.1-0.4,4.5c-1.8,1.4-3.5,0.9-3.5,0.9c-0.9-0.4-0.8-0.3-0.1-1.3
		c0.7-1,1-2.4,0.6-3.3c-0.1-0.3,0.2-0.5,0.7-0.6C410.2,285.5,411.4,285.2,412.9,285.4z"/>
	<path fill="#FFC221" d="M414.1,285.6c0,0,1,1.3-0.2,3.6c0,0-0.5,0.7,0.7,0.6c1.2-0.1,4-1.4,3.7-3.1c0,0-0.1-0.4-0.8-0.4
		c-0.7,0-0.1-0.4,0.2-0.5c0.3-0.1,1.2-0.4-1.2-2c0,0-0.4-0.4-0.9-0.2c-0.4,0.1-1.7,0.7-1.7,1.4C413.8,285.3,414.1,285.6,414.1,285.6
		L414.1,285.6z"/>
	<path fill="#FFC221" d="M416.8,283.5c0,0,1.9,1.4,1.9,1.8c0,0.4-0.2,1,0.3,0.9c0.5,0,2.6-0.5,2-1.9c-0.6-1.4-1.2-1.9-2.1-2.2
		c-1-0.3-1.2,0.1-2.1,0.8C416.9,282.9,416.3,283.2,416.8,283.5z M406.2,285.5c0,0,0.3-1-1.4-1.4c0,0,0.7-0.6,2.2-0.3
		c1.5,0.3,1.3,1.3,1.3,1.4C408.3,285.2,407.2,285.1,406.2,285.5L406.2,285.5z M410,285.2c0,0,2-0.4,2.9-0.2c0,0-1-2.2-3.7-1.5
		C409.3,283.5,410.2,284.6,410,285.2L410,285.2z M413.5,284.7c0,0,0-0.7,1.7-1.4c0,0-0.8-0.8-2-0.7c-1.3,0.1-1.6,0.6-1.6,0.6
		S413.1,283.7,413.5,284.7z M414.2,282.3c0,0,1.1,0.3,1.7,0.8c0,0,1-1.1,1.9-1.3C417.8,281.8,416.1,280.9,414.2,282.3z"/>
	<path fill="#5A3719" d="M358.3,277c0,0,4.7-4,7.3-3.5c2.6,0.5,1.3,0.1,4.2-0.3c2.9-0.4,5.8-0.7,7-0.6c0,0-3.5-2.5-9.7-2.5
		c0,0-4.4,1.5-7.4,3.5c0,0-5.8-3.2-11.8-1.3C347.9,272.3,354.4,274.7,358.3,277L358.3,277z"/>
	<path fill="#FFC221" d="M408.1,283.9l0.8-0.1c0,0,1.3,1.6,0.4,1.7c-0.8,0-0.4-0.2-0.6-0.7C408.6,284.2,408.3,284,408.1,283.9z
		 M402.2,284c0,0-0.5,0.6,0.4,0.4c1.1-0.2,0.9,0,2.1-0.8c0,0,0.7-0.8,2.1-0.3c0,0,1.1,0.4,2.1-0.1c0.9-0.4,1.1-0.4,1.6-0.4
		c0.5,0,0.5,0.1,1.1-0.3c0.7-0.5,1.8-0.1,2.5-0.7c0.7-0.6,1.6-0.1,0-1.3c0,0-0.3-0.3-0.3-0.6c0,0,0.6,0.2,1.1,0.6
		c0.5,0.4,1.3,0.3,1.5,0.2c0,0,0.1-1.5,1.5-2.8c1.5-1.3,1.5-1.4,0.6-1.5c-0.9,0-2.3-0.3-2.8,0s-4.7,3.1-7.2,3.6
		C406.1,280.6,403.8,281.3,402.2,284z M336.1,268.7c0,0,7.6,2,9.3,2.8c0,0,0.4-1.3-3-2.3c0,0,8.4-0.3,17.3,3.8c0,0,4.3-3.7,18.1-2.5
		c0,0,0-1.2,0.1-2.2c0,0-9.7-0.3-18.6-5.7C359.3,262.6,351.3,266.5,336.1,268.7L336.1,268.7z M378.4,272.4c-0.5-7.8,2.4-8.5,2.4-8.5
		s1.4,0,2.9,0.2c0,0-2.4,2.8-1.7,8.4c0,0,0.2,0.9-1.7,0.9C378.3,273.4,378.4,272.4,378.4,272.4z"/>
	<path fill="#5A3719" d="M380.4,277.5c0,0-1.4-1.5-1.6-3.2c0,0,0-0.4,1.4-0.4s1.7-0.1,2,0.7c0.4,0.8,1.3,2.6,1.5,2.8L380.4,277.5
		L380.4,277.5z"/>
	<path fill="#FFC221" d="M383.5,273.6c-0.1-1-0.2-1.9-0.2-3c0.1-4.3,0.8-3.9,1.1-3.4l1.5,0c0,0-1.1-4.9-2.4-2
		c-1.2,2.8-1.2,4.6-1,6.9c0.1,1.3,0.3,2.1,0.4,2.6L383.5,273.6z"/>
	<path fill="#5A3719" d="M400.3,273.7c0,0,2.9,0.4-1.5,1.5c0,0,0.2,5.3,5.4,1.6c0,0,3.1-2,5.2-2.8c0,0,1.1-0.4,0.9-1.2
		c0,0,0.1-0.9-1-0.8c0,0-0.9,0-1.4-0.2c0,0-0.6-0.7-1-0.4c-0.4,0.3-1.4,0.1-0.6,1c0.8,0.9,1,0.7,1.4,0.4c0.4-0.3,2-0.9,0.5,0.4
		c-1.5,1.4-2.7-0.7-3.2-1.1L400.3,273.7L400.3,273.7z M386,274.3l-1.3,0c0,0-0.7,1-1.1-0.6l-0.5,1C383,274.7,384.6,280.4,386,274.3z
		"/>
	<path fill="#FFC221" d="M384.2,267.7c0,0-0.6,3.7,0.2,6l13.8,0.3c0,0-0.2-2.7,0-6.3h-2c0,0-0.3,3,0,4.8l-0.3,0c0,0-0.2-2.6,0-4.9
		h-1.6c0,0-0.3,2.8-0.1,4.9h-0.3c0,0-0.2-2.4,0-4.9h-1.6c0,0-0.3,2.5,0,4.8l-0.4,0c0,0-0.3-2.5,0-4.8h-1.8c0,0-0.4,2.3,0,4.9h-0.4
		c0,0-0.4-2.4,0-4.9h-1.8c0,0-0.4,2.7-0.1,4.9h-0.3c0,0-0.3-2.6,0.1-4.9h-1.7c0,0-0.4,2.2-0.1,4.9h-0.4c0,0-0.3-1.9,0.1-4.9
		L384.2,267.7L384.2,267.7z M398.7,274.5c0,0-0.4-6.7,0.9-8.5s1.6-1.4,3.8,0c2.2,1.4,5.1,2.9,5.5,3.1s1.1,0.3,1.1,1.6
		s0.2,1.6-1.7,0.1c-0.3-0.2-1.2-1-1.8-1.2c-1.7-0.5,0.4,0.4,1,1.2c0.5,0.7,0.9,0.7-0.4,1S401.2,273.6,398.7,274.5L398.7,274.5z"/>
	<path d="M403.5,269.7c0,0-1-1.3,0.3-1.5s1.4,2,1.6,3.4C405.6,272.9,403.8,270.1,403.5,269.7z M401.7,275.5c0,0-1.5,0.5-0.5,1
		s3.7-1.8,2.8-1.6C403,275.1,401.7,275.5,401.7,275.5z M403.7,273.4c0,0,1.3-0.1,1.1,0.4c-0.3,0.6-0.7,0.2-0.9,0.1
		C403.6,273.8,402.7,273.5,403.7,273.4L403.7,273.4z"/>
	<path fill="#FFC221" d="M410.7,271.7c0,0,0.4,2.6,2.6,3.2c0,0,1.3,0.3,1-0.8c0,0-0.2-0.9-0.4-1.3c-0.2-0.4-1.1-0.6-1.2-0.7
		s-0.2-0.3,0.4-0.1c0.6,0.2,0.7,0.2,0.7-0.2c0-0.4-0.4-0.3-1-0.5c-0.2-0.1,0-0.2,0.3-0.2c0.2,0,0.8,0.2,0.8-0.7c0,0,0.1-0.5-0.6-0.5
		c-0.7,0-0.7-0.4-0.4-0.4s1,0.5,1.2-0.4c0.2-0.9-1.1-0.4-0.9-0.8c0.2-0.5,1.1,0.3,1.1-0.3c0.1-0.5,0.8-0.8-0.4-0.9
		c-0.6-0.1,0-0.3,0.6-0.2c0.7,0.1,1.1-0.8,1.5-1.1c0.4-0.3,2.7-1.7-0.4-1.2c-3.1,0.5-4,1.9-4.2,2.2
		C411.2,267,410.4,268.8,410.7,271.7L410.7,271.7z"/>
	<path fill="#FFC221" d="M417.8,273.7c0.4-0.1,0.8,0,0.9,0.3c0.5,1-0.7,0.7-1.3,1.4c-0.6,0.8-0.7,0.6-1.6,0.3s-1.3-1.6-1.3-1.6
		c-0.1-0.4,0.3-0.5,0.8-0.4C415.4,273.7,416.9,273.9,417.8,273.7L417.8,273.7z M414.5,273.1c0,0,0.1,0.3,0.6,0.4
		c0.5,0,2,0.2,2.9-0.1c0,0,0.3-0.1,0.2-0.7c0,0,0-0.4-0.8-0.2c-0.8,0.2-2,0-2.4-0.1C414.6,272.3,414.3,272.4,414.5,273.1
		L414.5,273.1z M414.4,271.3c0,0,0,0.8,0.8,0.9s1.8,0.1,2.3,0c0.3-0.1,0.9-0.2,1-0.7c0-0.5,0.2-0.8-0.8-0.6c-1,0.2-2.2,0.1-2.3,0.1
		S414.4,270.8,414.4,271.3L414.4,271.3z M414.7,269.6c0,0-0.2,0.4-0.2,0.7s0.6,0.5,1.7,0.5s2-0.1,2.1-0.5s0.3-0.8-0.5-0.6
		c-0.8,0.1-1.9,0.2-2.3,0C415.1,269.5,414.8,269.5,414.7,269.6z"/>
	<path fill="#5A3719" d="M453.8,273.7c0,0,0,0.7,0.6,1.5l-29.5-0.8c0,0,0.4-0.3,0.5-1.4L453.8,273.7L453.8,273.7z"/>
	<path fill="#FFC221" d="M415,268.4c0,0-0.3,0.7,0.3,0.9c0.5,0.1,1.4,0.3,2.6,0.1c0,0,0.6,0,0.8-0.6c0.2-0.6,0.2-0.3-1.5-0.6
		c0,0-0.5-0.2,1-0.2c0,0,0.9,0,1-0.1c0.1-0.1,1.3-1.1-0.2-1c-1.5,0.1-0.8-0.3,0-0.3s1,0.2,1.2-0.1c0.2-0.2,0-0.1-0.4-0.5
		c-0.4-0.4-0.1-0.3,0.2-0.1s0.5,0.3,0.8,0c0.3-0.3-0.3-0.7,0-0.7s0.4,0.5,1.3,0.1s2.3-0.2,2.6,0c0.4,0.3,1.4,0.6,2,0
		s-0.7-1.1-0.2-1.2c0.6-0.1,1,0.1,1.2-0.3c0.2-0.5-0.9-0.9,0.2-1.2c1.1-0.3,0.2-3.3-0.2-3.6c0,0-1.2,0.7-2.5,2.8
		c-1.3,2.1-2.1,3.4-3.9,2.7c-2.6-0.9-3.9,0.4-4.3,0.7c-0.6,0.4,1.3,0.6,0.2,0.6c-1.1,0-1.1,0.1-1.2,0.3c-0.1,0.2,0,0.3,0.2,0.3
		s0.6,0.4-0.1,0.4c-0.7,0-1.2-0.1-1,0.6c0,0,0,0.2,0.4,0.2c0.4,0,0.5,0.5-0.2,0.5C415,268.2,415,268.4,415,268.4L415,268.4z
		 M417.7,275.8c0,0-0.5,0.4,0.2,0.4c0.7,0,1.1,0.2,1.3-0.2c0.2-0.4,1.2-0.2,0.6-0.8C419.2,274.7,418.7,275,417.7,275.8L417.7,275.8z
		"/>
	<path fill="#FFC221" d="M420.8,266.9c0,0,2.5-2.3,4.5-0.7c2.1,1.6,2.3,1.8,2.3,1.8c0,0,0.2,0.2-0.3,0.7c-0.6,0.5,0,0.5,0.6,0.2
		c0.6-0.3,0.7,0,1,0.3s0.7,0.5-0.2,0.5s-3,0-3,0s-1.4,0.1-0.7-0.4c0.7-0.6,0.6-1.2,0.2-1.3s0,0.3-0.2,0.6c-0.2,0.3-0.7,0.5-1.2,0.5
		s-0.9,0.4-0.1,0.6c0.8,0.3-0.1,0.5-0.5,0.4c-0.4,0-2.3,0.1-0.4,0.4c2,0.2-0.2,0.2,1.3,1c1.6,0.9,0.4,2.8-0.2,3c0,0-0.7,0.4,0.2,0.3
		c0.8-0.1,1.3-0.2,0.7,0.2c-0.6,0.4-1.8,1.9-3.4,0.8c0,0-0.7-0.4,0.6-0.4s-1.1-0.3-1.5-0.6c-0.4-0.3-1.9-1.8-1-1.6
		c1,0.2,0.6-0.4,0-0.6c-0.6-0.2-0.7-1.1,0-0.9c0.6,0.2,1.4,0.5,1.9,0.5c0.5,0,0.4-0.2-0.7-0.6c-1.1-0.3-1.6-0.4-1.3-1.3
		s1.5,0.4,1.2-0.3c-0.3-0.7-1.3-0.4-0.8-1.3c0.6-0.9,0.7-0.5,0.9-0.4c0.3,0.1,0.7,0-0.1-0.5C420.1,267.5,420.6,267,420.8,266.9
		L420.8,266.9z"/>
	<path d="M422.5,267.6c0,0,0-0.3,0.4-0.3c0.4,0.1,0.3-0.2,0.5-0.2s1.2,0.3,0.2,0.7C423.2,267.9,422.6,267.8,422.5,267.6L422.5,267.6
		z"/>
	<path fill="#FFC221" d="M424.9,270.2c0,0-0.8,0.4-0.1,1.3c0.6,0.7,0.6,1,0.6,1.5c-0.1,0.5,28.4,0.8,28.4,0.8s0-1.8,1.2-2.9
		C455,270.9,439.4,270.5,424.9,270.2L424.9,270.2z"/>
	<path fill="#5A3719" d="M454.3,273.2c0,0,0.1-1.5,1-2.1c0.5-0.3,1.1-0.1,1.4,1.1c0.4,1.8-1.1,3.3-1.8,2.6
		C454.1,274.3,454.3,273.2,454.3,273.2L454.3,273.2z"/>
	<path fill="#7B3C20" d="M421.7,279.9c0,0,1.9-1.6,2.2-2.3c0,0,5.1,3.6,4.8,0.3c0,0,0-0.9,0.2-1.7c0,0,1.9,0.2,2.1-1.3l-4.8-0.1
		c0,0-0.5-0.1-1.2,0.7s-2.3,1.7-3.7,0.9c0,0-0.6-0.5-1.2-0.1c-0.6,0.4-0.6,0.6-0.1,1C420.4,277.7,421.5,279.1,421.7,279.9
		L421.7,279.9z M432.7,269.9l-2.8-0.1c0,0-1-1.4-3-3c0,0-0.6-0.3,0.5-1.2c1.1-0.9,1.5-1.9,1.5-2.3c0-0.4-0.1-1.1,0.4-0.6
		c0.4,0.5,3.3,3.1,3.7,2.4c0.4-0.8,0.5-1.1,0.6-1.4s0.2-1,0.6-0.2c0.4,0.8,0.7,0.6,0.7,2.5c0,0,0.1,1.9,0.4,2.6
		C435.2,268.6,431.5,267.5,432.7,269.9L432.7,269.9z M420.5,263.9c0,0,2.1,1.2,3.2-0.4c1.1-1.6,1.8-1.9,1-3.4s0-2.3,0.6-2.9
		s1.1-0.5,1.2-3s1.8-3.3,2.6-4.1s2.7-1.9-0.2-2.4c-2.9-0.5-8.7-2-10.3-4.3c-1.5-2.3-2.2-0.9-2.2-0.8c0,0.1-0.5,1.7,1,4.8
		s2.8,4.9,4.2,5.9c1.5,1,2.8,1.5,2,3.5C422.9,258.7,421.6,262.3,420.5,263.9z"/>
	<path fill="#5A3719" d="M428.4,257.5c0,0,0.4,5.1,4.1,7c0,0,0.9-2,0.5-4c0,0,1.2,0.1,1.6,0.7c0,0,0.1-1.5-1.7-2
		c-1.8-0.5-0.9-3.9-0.3-4.3s0.4-1.1,0-1.7s-0.5-1.5,0.9-1.1s1.3-0.4,0.4-1.1c-0.9-0.7-0.9-1.6,0.4-1.6s3.3-1.2,2.1-1.6
		c-1.3-0.4-1.7-0.8,0.1-1.3c1.7-0.5,2.5-1.1,1.3-1.3c-1.3-0.1-2.1-0.6-0.9-0.8s-0.2-1.5-1.7-1.6c-1.5-0.1-4.6,0.5-2.1-1.4
		s-3.6-0.5-1.1-1.8s-0.8-0.7-1.3-0.7c-0.5,0-0.5,0-0.3-0.7c0.2-0.7-0.3-1-1.1-0.6c-0.7,0.4-0.7,0.4-0.7-0.5c0-0.9-0.9-0.2-1.4,0
		s-1.9,1.3-2.4,0.7s-0.9-1.1-2.5-0.1c-1.7,1-1.3,0.1-1.3-0.3c0-0.4,0.7-2.2-1.7-0.3c-2.3,1.9-0.4-2-2.2-0.7s-2,1.6-2.3,1
		s-0.6-1.1-2.6,0.2c-2,1.3-0.5-0.8-0.2-1.2s1.1-3.3-0.6-1.1c0,0-0.9,1.6-2.8-1.2c0,0-2,2.8-2.5,1.6c-0.5-1.2-1-1.4-1.7-0.6
		c-0.7,0.8-0.2,0-0.5-0.7s-0.5-1.9-3.8,0.5c-3.4,2.5,1.2,0.7-1.4,1.8c-2.6,1.1-8.7,4.6-3.1,3.8s-2.8,2.2-0.8,2.8
		c2,0.6,1.3,2.3,8.7,0.2c7.4-2,6.2-0.3,9.9-1.9c3.8-1.6-0.9,0.6,4.2,0.4c5-0.1,0.9,0,1.8,1.1c1,1,5.2,3.5,9.2,3.9s5-1.1,3.8,0.6
		s-1.5,2.4-2.2,3s-2.6,2-2.6,4.3c0,2.4-3.1,2.8-2,5.4C425.7,260.1,427.4,258.4,428.4,257.5L428.4,257.5z"/>
	<path fill="#5A3719" d="M434.9,263.3c0,0-0.9-0.6-0.9-1.8c0,0,0.6,0.1,0.9,0.5c0,0,2.3-2.6-0.4-3.5c-2.7-0.9-1.4-3.4-0.4-3.4
		s1.1-0.3,0.3-1.3s-0.7-1.1,0.8-1.4c1.6-0.3,1.3-0.6,0.7-1c-0.7-0.4-1.2-1-1.2-1s4.4-1.9,3-2.8s0-0.7,1.3-1.6
		c1.3-0.9,1.4-1.1,1.6-1.4c0,0-1.3,0.1-2.2-0.1c0,0,1.1-0.5,0-1.4c-1.1-0.9-1.6-1.7-3.3-1.3c-1.7,0.4-1.2-0.2-0.5-0.9
		c0.7-0.7,0.4-1.1-0.9-1.3c0,0,0.2-0.7,1.1-1.7c0,0-2.4,0.2-3.2-0.2c0,0,0.9-0.7,1-1.4c0,0-1.3,0.4-3,0.3c0,0,1-0.8,1-1.6
		c0,0-2.9,0.6-4.2,1.6c0,0-0.3-0.1-0.5-0.4c-0.2-0.3-0.4-0.6-3.6,0.4c0,0,0.4-1.4,1.1-2c0.8-0.6,0.6-1.7-4.3,1.4
		c0,0-0.7-0.4-1.2-1.9c0,0-1.1,1.5-1.9,2c0,0-0.7,0.3-0.6-0.7c0.1-1-0.5-0.3-1,0c-0.5,0.3-0.9,1-0.6-1s-0.7-2.3-0.7-2.3
		s-1.5,2.2-2.4,2.4c0,0-1.6-1.6-2.2-2.6c-0.6-1-0.6-1.4-1.1,0.4c-0.6,1.8-1.3,2-1.3,2s-1-0.8-1.1-1.3c0,0-0.2,0.5-0.5,0.7
		c0,0-0.9-1-0.8-2.5c0,0-5.3,2.9-6,4.7c0,0-5-0.3-7.1,0.1c0,0,0.5-1.6,1.8-2.4c0,0-1.3-0.1-1.4-1.5c0,0,1.1,0.1,1.7,0
		s-0.9-2.1,0.7-2.1s2.7,0.8,2-1.4c-0.7-2.2-0.4-2.2-0.4-2.2s2.9,1.7,3.3,1.3s-0.4-1.3,2.2-0.9c2.6,0.4,1.9-1,2.8-1.1
		c1-0.1,1.5,0.6,0.9-4s3.1,2.3,0.6-4.7c0,0-0.6-2.1-2.2-3c0,0-0.3,1.5-2.1,0.2s-5.1-1.8-3.7-2.9c1.4-1.1,2.1-2.5,1.7-3.4
		c0,0-1.7,1.8-4.6,0.5c-2.3-1-2.8,0.8-5.2,0.3c0,0,0-0.6,2-2.2s-1.2,0.5-2.4,0.8c-1.2,0.3-1.6,0.1,1-2c2.6-2,7.8-5.6,7.1-8.5
		c0,0,1.2,1.6,4.4,0.4s5.6-1.5,6.6-3.2c1-1.7,3.5-3.3,4.2-3.7s1.5-0.6,0.5,1s-2.6,4.3-7.1,6.1c-4.4,1.8-6.2,3.2-6.9,4.1
		c-0.8,1-4.8,3.1-2.2,2.8s7.2,0.1,5-0.6c-2.1-0.6-4.6,0.4-2.6-1.4s2.3-2.4,5.2-3.6s6-3.9,5.7-1c-0.3,2.9-5.6,6-6.9,6.9
		c-1.3,0.9-0.8,0.8-0.8,1.2s-0.2,1.2-0.7,1.5c-0.5,0.4-0.4,0.8-0.2,1.6s-0.1,1.1,0.3,1.3s0.8,0.2,0.9,0.8s0.4,0.7,1.2,0.6
		c0.8-0.1,1.3,0,1.3,0.5c0.1,0.4,0.8,1.1,0.9-0.3c0.1-1.4,0.6-1.6-0.8-1s-1.7,0.4-1.7-0.2c0-0.7-0.1-0.5-0.7-0.6s-0.8-0.9,0.3-1.4
		c1-0.5,1,0,2.3-1.1c1.3-1.1,1.3-1.4,1.5-1.9c0.2-0.5-1.9,1.5-2.8,1.9s-0.7-0.3-0.6-1.4c0.2-1.1,2.6-2.6,3.7-2.6s3.7,0.6,2.6,2.2
		c-1.1,1.5-4.2,3.4-2.9,3.5s1.6-0.4,2.3,0.3c0.8,0.7,0.1,2.1-0.3,2.8c-0.4,0.7-1.1,1.7-1.4,1.8c0,0-1.4-2.5-1.4-0.5
		c0,2-0.3,2.7,0,2.8c0.3,0.1,1.9,1.1,2.4,1.1s-2.7,1.5-1.4,1.6c1.3,0.1,3.5-0.6,4.2-2c0,0-2.7-0.7-3.8-1.7c0,0,3.2-0.7,2.3-3.8
		c0,0,3.2,0.9,1.8,2.3c-1.4,1.4-2.2,1.2-1,1.6c1.2,0.4,1.8,0.7,1.8,0.7s0.8,0.4,0.3,1.1c-0.5,0.7-0.5,1.7-0.1,1.6s1.7-0.6,0.6-1.3
		c-1.1-0.7,1.3-0.6,0.3-1.1c-1-0.6-1.3-0.7-1.6-1c-0.3-0.3,12.9-8,6.2-5.1c0,0,1.4-3,3.3-3c1.9,0,2.1,1.5,1,2.7
		c-1.1,1.2-1.8,3-4.4,3.4c0,0,3.7,1.8-0.7,4.8c0,0-0.9,0.4-0.6,0.8c0.3,0.3,2.9-1.1,3.3-2c0.4-0.8,0.9-1.5,1.9-1.9s5.8-3.8,7.3-6.3
		s1.9-2.6,4.7-4.9s2.4-1.8,2.7-2.4c0.4-0.6,0.5-1.5,1.8-2.2c1.3-0.7,6.4-3.6,8-4.7c1.6-1.2,4.9-3.3,6.3-5.1c1.4-1.8,5.2-4.1,6.1-3.7
		c0.9,0.4-0.1,1.8-2.3,3.5c-2.2,1.7-7.7,6.1-8.6,6.8c-0.9,0.7-5.6,4.1-7.3,4.3c-1.7,0.2-1.6,0.8-2.6,2c-1,1.1-3.5,3.5-4.3,4.2
		c-0.8,0.7-2.8,2-2.9,2.9c-0.1,0.9,0.3,1.1-1.2,2.5s-6.1,4.8-7.8,5.3c0,0,2.9,1,1.2,2.9c-1.7,2-1.6,1.7-1.8,1.8c0,0,4.4-0.7,1.3,2.8
		c0,0-0.6,1,0.8,0c1.5-1.1,0.9-2.6,0.7-2.8c0,0,2.4-1.5,5.1-1.5c2.7,0,2.6-0.2,0.2-0.9c0,0,1.7-2.1,3.2-1.1c1.5,1,1,1.6-0.6,2.5
		c-1.5,0.8-3.8,1.2-5.5,2.1c0,0,3.2,0.6,4.9-0.7c1.7-1.3,1.8-0.7,2-0.4c0.2,0.2,0.4,0.7-0.3,1.7s-0.8,1.2-0.8,1.4
		c0,0.2-0.1,1-1.6,1.3c-1.6,0.3-2.3,0.9-1.7,1.6s0.6,2.6-0.8,2.4s-1-1.2-1.5-1.6c-0.5-0.4-1.2-1.1-3.6,0.2c-2.3,1.2-2.5-0.2-2.4-1
		c0,0-1.5,1.3-2.8,0.1c-1.3-1.2-0.1-1.7,0.6-2.3c0.7-0.6,3.7-1.9,1.9-1.7c-1.8,0.2-4.4,0.3-5-1c-0.6-1.4,1.3-1.2,1.6-1.1
		c0.3,0.1,1.6,1.1,1.6-0.2c0-1.3,2-1.5,1.3-1.7s-1.6,0.6-1.9,0.9c0,0-1.4-1.9-3.6-1.3s0.7,0.4,1.3,0.5s0.2,1.2-1.7,3
		c-2,1.8-1.1,1.2,0.4,1.2c1.5,0,5.1,0,3,1.7c-2.1,1.7-2.9,2.6-4,2.3c-1.1-0.3,0.1-1,0.6-1.3c0.5-0.3,0.8-0.8-0.3-0.4s-1.4,0.5-2.2-1
		c-0.8-1.4-0.5-1-0.1-2c0.3-1,1.1-2,0.2-1.6s-0.9,0.4-0.8-0.7c0.1-1.1-1.1-1.3-1.1-1.3s0.5,1.1,0,1.8s-0.4,0.9,0.2,1.1
		c0.7,0.2,1.3,0.8,0.4,1.4s-0.8,0.6-0.2,0.9c0.6,0.4,1.4,0.8,0.5,1.7c-0.9,0.9-0.2,0.6,0.3,0.6s1.5,0.4,1.5,1.3
		c0,0.9-0.1,1.1,1.4,0.3c1.5-0.8,4.4-0.7,4.4,0.4c0,1.2-0.4,1.4,1.2,0.5s2.3,0.9,3.4,0c1.1-0.9,1.8-1.8,3-0.2s0.9,2.1-0.7,3.2
		s0.7,0.3,1.9-0.3s4.4-1,6.3-0.2c1.9,0.8,2.4,0.6,3.8,0.1c1.4-0.6,2.1-0.7,4.1,0.7c2.1,1.4,3.7,1.6,4.8,1.6c0,0-2.3,0.9-4.9,1.1
		s-3.9,0.7-4.4,1.1c0,0,1.6,0.9,1.9,2.1c0,0,1.7-0.2,2.5,0.1c0,0-0.4,1.2,0.6,1.9c1,0.7,1.8,0.9,1,1.8c-0.8,0.9,1.2,0.5,0.1,1.8
		s-1.4,1.9-1.5,2.9c0,1,0.2,1.2-0.8,1.3s0.2,1.2-0.3,2.6c-0.5,1.3-3.3,1.2-3.2,4.8c0,0,0.8-1.7,2.4-3.3s1.7-1.7,1.7-2.6
		s-0.1-0.7,0.8-1.4c0.9-0.7-0.4-1.4,0.5-2.3c0.9-1,0.1-0.8,1.2-1.8s-0.9-1.1,0.2-2.2c1.1-1-2.6-2.2-1.5-2.9s2.8-1.6-3.2-1.5
		c0,0,1.5-2.4,6.6-1.9c0,0-1.3,1-1.5,1.9c0,0,0.6,0.3,0.9,0.4c0,0-0.2,0.7-1.2,1.5c0,0,2.7,1.5,3.2,2.4c0,0-1.7,0.5-2.1,1.2
		c0,0,0.7,0.8,1,1.9c0,0-1.8-0.2-2.1,1.2c-0.2,1.4-0.8,0.4-0.8,1.3c0,0.8,0.1,1.1-0.6,1.3c-0.6,0.1-0.1,0.8,0,1.3s0.3,1.5,0.2,1.8
		c0,0-0.9,0-1.4,0.1c0,0,0.3,2-0.8,2.3s0.6,0.7-0.6,0.9c-1.2,0.2-1,0.3-2.5,2.9c0,0,1.2-0.7,2.5-1.5c1.3-0.8-0.1-0.6,2-2.7
		s1.7-2.2,1.6-3.3s-0.2-1.9,0.6-2.9c0.8-1,1-2.1,3.7-2c0,0-0.8-1.8-1.8-2.3c0,0,1.3-0.9,2.7-1c0,0-1.2-1.4-3.6-2.8
		c0,0,2-1.7,2.5-2.6c0,0-0.9,0.1-1.7,0c0,0,0.3-0.8,2.2-2c0,0,1,0.9,0.9,1.9c0,0,3.1-1.8,4.9-1.6c0,0,0.9,2.2-3.4,6.5
		c0,0,2.7,0.3,3.8,0.1c0,0-0.6,2.1-3.9,3.3s0.7,2.7-2.6,2.4c-3.3-0.2-2.3,0.9-2.2,2.6c0.1,1.7,0.2,3.4,0.1,3.9c0,0-2.7-0.9-2.6,1.7
		c0.1,2.6-1.4,3.1-1.7,3.4c0,0-0.8-0.7-1.9-1.1C439.3,258.3,437.6,261.4,434.9,263.3L434.9,263.3z"/>
	<path fill="#7B3C20" d="M431.1,231c0,0,0.9-0.1,2.4,0.8s3-1,1.3-1.5c-1.7-0.5,0-1.1,1.6,0.1s2.1,0.6,2.7,0.2s1.3-0.7,0.2-1.4
		c-1.1-0.7,0.7-0.4,1.5,0.1c0.8,0.5,0.5,1,0.4,1.2c-0.1,0.1-0.2,1.8,1.4,0.3s2.3-3.1,2.3-3.9c0,0,0.9,0.5,1,1.5s1.3-0.5,1.7-1.1
		c0.4-0.5,1.1-1.9,1-2.9c0,0,1.1,1.6,2.6,0c1.6-1.6,0.9-0.6,2.8-1.1c1.9-0.5,4.2-1.9,5.5-3.4s1.4-0.5,3-0.9c1.7-0.4,5-2.7,5.3-3.9
		c0.3-1.3,0.3-2-0.2-1.6c-0.5,0.4-0.3,0.1-1-0.4c-0.7-0.4-1.8,0.6-1.8,0.6s1.1,0.8,0.3,1.2s-1.6,1.5-3.1,1s-3.1,1.4-3.1,1.4
		s1.3,1.1-0.5,1.8c-1.8,0.7-1.5,0.9-2.6,0.2c0,0-1.9,2.4-3,2.9c0,0-0.5,0-0.9-0.5c0,0-1.2,1.4-1.9,1.7c0,0-0.8-0.7-1.5-1
		c0,0-1.5,1.8-2.7,2.4c0,0-0.4-0.7-1.2-1.2c0,0-0.4,2.4-3,3.8c0,0,0.2-0.6-1.1-1.5c0,0-3.2,2.8-4.5,3.1c-1.3,0.3-0.1-0.6,0.1-1
		s1-1.6-0.6-2c-1.6-0.5-1.3,0.3-1.7,0.5c-0.3,0.1-0.4-0.3-1.4-0.1c-1.1,0.1-0.9,0.6-1.3,0.8c-0.5,0.2-2.3-0.3-2.2,0.9s0.9,2-0.7,2.8
		C426.8,231.5,429,231.3,431.1,231L431.1,231z"/>
	<path fill="#5A3719" d="M437.7,227.6c0,0,0.4-1.5-1-2.3c0,0,8.6-1.3,2.1-4.6c0,0,7.7-1.6,5.9-4.1c-1.8-2.5-3.6-1.9-3.9-1.9
		c-0.3,0,1.6-1.4,2.2-1.2c0.5,0.2,6.7,2.6,5.1,0.5c-1.6-2-1.5-1.9-1.7-2.5c0,0,2.1,0,5.2,3c0,0,0.7-0.7,0.6-1.9c0,0,2.2,0.6,2.9,1.3
		c0,0,0.4-0.8,0.2-1.2c0,0,1.9,1,2.6,2.1c0,0,0.9-0.8,1-1.6c0,0,1.9,0.8,2.4,1.4c0,0,0.6-0.8,0.4-2c0,0,3.2,0.9,3.6-1
		c0,0,3.2,0.7,1.1,1.9c-2.7,1.6-0.3-0.4-3,1.5c-2.1,1.5-3.3,3.2-4.3,2.8c-0.7-0.3-1.6,1.9-2.7,0.8c-1-1.1-1-0.6-1.7,0.5
		c-0.7,1.1-1.8,2.2-1.8,2.2s-0.6-0.3-1-0.7c0,0-0.6,1-1.4,1.8c0,0-0.6-0.8-1.6-1.3c0,0-1.6,1.8-2.5,2.4c0,0-0.9-0.9-1.9-1.2
		c0,0-0.1,2.5-2.1,3.7c0,0-0.4-0.8-1.6-1.3C440.8,224.8,439.8,226.3,437.7,227.6L437.7,227.6z"/>
	<path fill="#5A3719" d="M433.2,223.8c0,0-1,0.8-0.4,1.7c0.7,0.9,0.7-0.1,1.6-0.2s11.4-1.9,1.9-4.8c0,0,0.4-0.4,2.1-0.5
		c1.7-0.1,7.6-1.8,4.8-3.9c-2.8-2.1-5.1,0.7-2.8-1.8c1.9-2,0.4-3,0.4-3s-5.6,3.7-6.8,4.4c-1.2,0.7-3,2-0.9,2.7
		c2.1,0.7,3.5-2.3,3.7-1.6c0.2,0.7-4.2,3.1-3.6,4.2c0.6,1.1,0.5,2.1,1.6,1.9c1.1-0.2,4,0.6,1.6,0.5S433.2,223.8,433.2,223.8
		L433.2,223.8z"/>
	<path d="M437,218.5c0,0-1,0.7,0.3,0.3c1.3-0.3,3.8-0.9,3.4-1.6C440.2,216.6,438.5,217.4,437,218.5z"/>
	<path fill="#7B3C20" d="M453.9,207.5c0,0,4.9-0.1,6.9,1.2s3,2.3,3.6,2.5c0,0-0.1,1.9-3.2,0.5c0,0,0.2,0.9-0.2,1.8
		c0,0-1.2-0.8-2.5-1.1c0,0-0.2,0.7-0.7,1.1c0,0-1.4-1.4-3-1.8c0,0-0.3,0.7-0.6,1c0,0-1.7-1-3-0.9c0,0,0.3,1,0,1.4
		c0,0-3.6-2.8-6.7-2.4c0,0,1.5,2.2,2.5,3.3c0,0-6.4-0.5-5.4-4c1.1-3.5-0.1-2.6,4.1-2.6C450.1,207.5,453.9,207.5,453.9,207.5z"/>
	<path fill="#5A3719" d="M423.9,217.1c0,0-0.7,0.6,0,1.1c0.7,0.5,3.3-1.3,3.6-1.6c0.3-0.3,1.3-0.2,0,0.7c-1.3,0.9-2.5,2-3.3,3
		c0,0,4.2-1.2,7-3.5s-0.1-0.8,4.6-3.1s7.2-5.9,4.6-5.5c-2.5,0.4-4.8,3.3-6.8,4.4s-3.1,1.3-2.8,0.6c0.3-0.6,1.8-0.4,4.5-2.6
		c2.7-2.2,2.1-2,2.1-2.8s-1-2.7,3-4.8s16.7-9.6,17.8-12.1c0,0-3.7,0.4-8.6,4c-4.9,3.6-7.5,5.3-8.8,5.7s-1.2,0.1-2.1,1.2
		c-0.9,1-5.7,5.7-6.6,6.4c-0.9,0.7-1.1,1.1-1.2,2.5C431.1,211.3,425.6,215.5,423.9,217.1L423.9,217.1z"/>
	<path fill="#5A3719" d="M440.6,207.4c0,0-0.9,0.4-1.9,0c-0.9-0.4-0.6-2.4,1.6-3.6s6.2-2.9,8.2-3.2c0,0-0.3,2.5-6.6,4.7
		C442,205.3,442.4,206.6,440.6,207.4z"/>
	<path fill="#AA5323" d="M442.9,205.7c0,0,0.2,0.6,0,1.2c0,0,11.7,1.1,17.7-6c0,0-8.3,0.8-11.6,2.8c0,0,2.1-2.6,8.3-4.8
		c6.2-2.2,8.7-4.8,9.3-6.3c0,0-7.9,2.8-11.6,2.8c0,0-0.7,0-1.5,0.4s-5.7,4.1-7.1,4.7c0,0,2.8-0.2,3.8-1.2
		C450.3,199.3,448.3,204.6,442.9,205.7L442.9,205.7z"/>
	<path fill="#5A3719" d="M420.4,212.4c0,0-1.5,1.1-0.9,1.6c0.6,0.5,1.7,0.6,4-1.3s7.8-6.7,4.3-6.9c0,0-4.5-0.3-4.3,2.5
		C423.7,211.1,420.7,212.3,420.4,212.4z M410.1,210.8c0,0,3,1.7,1.9,3.2c0,0,9.1-7.7,6.5-9.4s-4.6,1.5-4,1.8c0.6,0.3,2-0.3,1.5,0.3
		S410.6,210.6,410.1,210.8L410.1,210.8z M407.7,208.3c0,0,2,0.6,2.1,1.4c0.1,0.9,6-4.2,4.4-6.3c-0.7-1-4-1.4-4.2,0.5
		c-0.1,1.9,3-0.2,1.9,1.2C410.5,207,408.1,208,407.7,208.3z M429,204.1c0,0-1.3,0.9-0.1,1.5s1.9-0.3,2.4-0.8c0.6-0.5,3.4-2.6,4-3.9
		s1.6-1.7,2.6-2.4c1-0.7,8.3-4.3,12.7-8.3c4.4-4,2.6-3,7.2-5.5c4.6-2.6,7.6-4.9,8.6-7.7c0,0-2.1,0.7-4,1.9s-6.1,3.9-7,4.2
		s-2.1,0.4-2.7,1.1c-0.6,0.7-0.6,1.4-2.8,3.3c-2.2,1.8-13.7,9.9-15.1,11.1C433.6,199.8,429,204.1,429,204.1L429,204.1z"/>
	<path fill="#AA5323" d="M419.8,206.8c0,0,1.3-0.7,3.6-0.5c2.4,0.2,11.7-8.8,14.4-10.7s11.1-7.9,12.3-9c1.1-1.1,1.3-2.3,2.3-3
		c1-0.7,1.9-0.6,4.2-1.9s13.2-7.8,12.6-11.7c0,0-16.3,9.8-20.1,13c-3.8,3.2-14.2,10.4-16.1,11.6s-3.3,3.2-6.5,5.7
		S420.3,205,419.8,206.8L419.8,206.8z"/>
	<path fill="#AA5323" d="M416.4,203.3c0,0,3-0.3,3.4,1.2c0,0,6.5-4.4,7.9-6.3s-0.5-0.8,3.2-3.2s15.9-11,17.7-12.5
		c1.7-1.5,5.1-3.6,7.7-5.3c2.7-1.8,13.1-6.9,11.9-11.1c0,0-7.6,5.1-9.3,6.2c-1.7,1.1-2.4,0.5-4.2,1.8c-1.7,1.4-5.6,4.1-6.3,4.9
		c-0.7,0.9-6.5,5.3-9.4,7.2c-2.8,1.9-9.2,5.6-12.3,8.3C423.6,197.4,417.7,202.3,416.4,203.3L416.4,203.3z"/>
	<path fill="#AA5323" d="M407,202.5c0,0,1.5,0,2,0.6c0,0,2.8-2.5,5.8,0c0,0,11-7.4,12.1-9.3c1.1-1.9,2.9-1.9,7.2-5s7-4.4,9.8-6.7
		c2.8-2.2,5.2-4.7,7.3-6.1c2.1-1.3,7.2-4.7,6.3-7.6c0,0-4.2,2.4-6.9,5.4s-2.5,0.4-5.3,2.9c-2.8,2.5-7.1,5.9-10.6,7.7s-1.4,1.6-4,3.2
		s-2.4,1.4-3.3,1.6c-0.9,0.2-2.4,0.9-3.3,2c-0.9,1.1-3.5,2.6-6.3,4.2C415,196.9,408.2,201,407,202.5L407,202.5z"/>
	<path fill="#AA5323" d="M410.3,196.7c0,0-0.6-1.2,0.5-2.1c1.1-0.9,3-3.2,3.3-4.6c0.3-1.4,0.1-1.2,3.1-2.5c3-1.3,10-4.5,13.9-6.9
		c3.9-2.4,9.8-6.3,11.1-7.2c1.2-0.9,4.2-3,5.4-4c0,0,0.6,1.6-0.7,2.8s-6.4,4.7-7.2,5.2c-0.8,0.6-5.5,3.7-6.9,4.5s-5,2.6-6.2,3.6
		c-1.3,1-1.1,1.4-6.7,4.1s-5.8,3-5.7,3.2c0.2,0.2,2.7-0.9,3.9-1.6c1.2-0.7,5.8-2.8,7.1-3.9c1.4-1.1,3.7-2.8,4.7-3.3
		c1-0.6,9.3-5.5,11.6-7.2s3-2.3,3.5-2c0.5,0.3,1.3,0.3,0.3,1.3c-1.1,1-4.4,3.9-5.7,4.8c-1.3,0.9-5.3,3.2-6.4,3.8s-1.5,1.6-2.2,2.1
		c-0.6,0.4-2.4,1.7-4.7,2.3c-2.2,0.5-2.6,2.2-4.1,3.1s-11.8,6.5-12.1,6.8C410.1,198.9,410.8,198.2,410.3,196.7L410.3,196.7z"/>
	<path fill="#AA5323" d="M446.1,173.5c0,0-0.6,0.5-0.3,0.8c0.4,0.4,1.9,1.4,3.6-0.4c1.8-1.8,6.6-5.7,8.2-6.6s2.3-1.8,2.2-3
		C459.9,164.3,452.5,168.2,446.1,173.5z M456.3,172.9c0,0,1.1-1.9,3.9-3.7s7-4.4,7.5-5c0,0,1,1.1-1.2,2.5s-6.5,4.2-7,4.6
		S458.2,172.3,456.3,172.9z"/>
	<path fill="#7B3C20" d="M399.5,193.5c0,0-3.1,1.7-2,2.7s2.8,0.7,3.4,0.4c0.7-0.3,2-0.6,2.2-0.7c0.2-0.1,2.9-0.8,3.6-2.1
		c0.7-1.3,2.5-2.7,4-3.8c1.5-1,2-2.1,1.8-2.8C412.5,187.3,400.2,193.1,399.5,193.5z M381,207.9c0,0,2.1-1.3,5.2-0.5
		c0,0-0.1-0.7-0.6-1.1c0,0,3.6-1,4.4-2.6s1-1.3,1.7-1.7c0.7-0.5,5.6-4.4,5.1-5.3c-0.6-0.9-0.7-2-1.1-2.4c0,0-1,1.4-5.8,3.7
		s-10.1,4.1-14,9.3c-3.9,5.2-3.5,8.2,1.3,9.6c0,0,3.3-2.1,11.5-1.4c8.1,0.7,10.9,3.8,11.4,4.3c0.5,0.6,2.2,2.6,0.6,5.9
		c0,0,1.6,0.7,1.8-0.9s0.2-1.2,0.6-1c0.4,0.2,0.8,0.3,0.7-0.9c-0.2-1.2-0.7-3.9-1.5-4.8s0.1-0.5,0.6-0.3c0.5,0.2,2.2,1.6,1.2-1
		c-1-2.6-1.3-1.3-1.3-1.2c0,0.1-0.2,0.8-2.4-0.9c-2.2-1.7-4.2-2.5-5.8-2.9c-1.5-0.4-0.5-0.4,0.4-0.7c0.9-0.3,2.1-0.5,2.5-1.5
		c0,0-0.9,0.2-2.5-0.4s-4.9-0.6-7.5,1.3c0,0,0.8-3-1.6-2.9s-4.1,0.1-6.6,2.1c0,0-0.1-3,2.2-4.6s2.1-0.6,3.4-1
		c1.3-0.4,1.5-1.7,0.9-2.2c0,0,3.1,0.5,8.4-3.8c0,0-2.8,3.7-6.3,4.5c0,0-0.5,2-3.7,2.4C380.9,205.6,381,207.4,381,207.9L381,207.9z"
		/>
	<path fill="#5A3719" d="M372,225.9c0,0,1.5-9.2,10.1-9.9c7.5-0.6,9.9,0.4,11.4,0.8s5.2,1.6,3.7,2.7s-2.2,1-2.2,1s1.7-1.8,0.2-2.1
		s-1.6,0.6-1.8,1.4s-0.3,1.7-1,2.3c0,0-0.8-0.9-1.8-0.1c-1.1,0.8-0.2,0.8,0.3,0.7c0.4-0.1,1-0.4,0.9,0.3s-0.7,1.8-2.5,2.8
		s-1.7,0.9-3.8,1.2s-4.1,1.2-6.8,3.5c-2.7,2.3-5.7,1.6-6.3-1.1C371.8,227.2,372,225.9,372,225.9L372,225.9z"/>
	<path d="M381.9,225.6c0,0,0.8-1.8-0.7-2.6c0,0-4.5,0.8-5.9-0.6c0,0,4.9-0.3,8-1.4c3-1.2,2.1-2,1.1-2.2c-1.1-0.2-3,0.3-3.2,1.2
		c0,0-0.6-1,0.2-1.7s2-0.8,3-0.5c1.1,0.3,2.1,0.8,5.6-1.1c0,0,2.1,0.5,2.1,1.9s-0.1,2-0.3,2.2c-0.2,0.2-0.4,0.6-0.9,0.6
		c-0.4,0-1-0.1-1.5,0.8c-0.5,1-0.9,1.8-1.8,2.4c0,0,1.1-3-1.6-3.7c0,0-2.2,1.3-3.8,1.3C382.4,222.2,384.5,224.2,381.9,225.6
		L381.9,225.6z"/>
	<path fill="#5A3719" d="M386.6,220.2c0,0-1-1.1,0.3-1.2c1.3-0.1,3,0.8,2.7,1.7C389.3,221.4,387.8,221.4,386.6,220.2L386.6,220.2z"
		/>
	<path fill="#FFFFFF" d="M460.6,205.6c0,0-2.4,0.7-0.2,2.2c2.2,1.5,3.3,2.8,4.9,3.2s3.3,1,3.3,2.6c0,1.6-0.3,2.3-1.2,3.4
		c-0.9,1.1,0.5,1.6,1.7,1s2.2-1,2.9-1.4s2.1-0.4,0.9,0.2c-1.2,0.6-2.4,1-0.9,1s10.6,0.2,12.5-0.4s4.4-0.8,4.6-3.3
		c0,0,0.1-1.1,0.8-1.6c0.7-0.5,1.2-1.5,0.2-0.8c-1,0.7-1.8,1.1-2,0.9s-0.3-0.4,0.5-0.7c0.8-0.4,1.2,0,1.9-1.1c0.7-1,0.6-0.9,0.3-1.3
		c-0.4-0.4-1.2-0.7-0.8-1.2c0.4-0.5,0.8-2-0.9-1.1c-1.7,0.9-4.9,3.1-6.5,3.5s-2.7,0.8-4.7,1.2c-2.1,0.4-3.3,0.9-5.5,2.1
		c-2.2,1.2-2-0.7-1.7-0.9c0,0,0.8,1.5,3.1-0.4c2.2-1.9,1.5-0.1,6.9-1.9c5.4-1.8,4.1-2.1,6.2-3.2s4.1-1.2,2.7-2.6s-1.7-1.6-3.6,0
		c-1.9,1.6-7.2,4.2-10.4,4.3c0,0,12.2-5.3,11-6.1c-1.3-0.8-2.6-1.4-3.5-1.6s-1.1-0.4-3.1,0.5c-2,0.9-2.3,1.1-2.9,1.2
		s-2.2,0.4-4.6,1.6c-2.3,1.2-3.6,1.7-5.1,2.6c0,0,1.1-2.2,5.9-3.6c4.8-1.4,7.3-2.8,6.8-3c-0.5-0.2-1.7-0.4-2.6-0.3s-0.6-0.1-3.6,1.1
		s-1.7,0.9-4.1,1.4c-2.4,0.5-3.3,1-4.5,1.5c0,0,0.5-0.6,2.1-1.2c0.8-0.3-0.9-0.6,1.4-0.7c0.2,0,0.4,0,0.6,0c2.9-0.8,6.2-2,5.7-2.1
		c-0.5-0.1-3.4-0.4-6.3,1c-2.9,1.3-1.6,0.9-2.6,1.1c-1,0.2-3.2,1.6-3.9,2.2C461.7,205.2,460.7,205.6,460.6,205.6L460.6,205.6z"/>
	<path fill="#5A3719" d="M388.9,218.8c0,0,1.1,0.3,1.4,1.1s1-0.4,1-0.7c0-0.4-0.7-2-2-1.2S388.7,218.8,388.9,218.8L388.9,218.8z"/>
	<path fill="#7B3C20" d="M385.7,234.6c0,0,2.4-1.1,4.5-1c0,0-0.8-2.9,0.6-2.4c1.4,0.5,1,0.3,1.3,0.3c0,0,0.1-1.9-0.3-2.6
		c0,0,1.5,0.3,2.9,0.4c0,0-1.4-2.7,0.1-4.6c0,0,0.8,1.8,2.7,2.2c0,0,0-0.8,0-1.6c0,0,1.1-0.1,2,0.3c0.9,0.5,1.6-4.9-1-6.1
		c0,0-0.6,1-3.1,1.5c-2.4,0.5-2.4,1-3.4,2.8c-1,1.8-1.9,1.9-3.9,3.2c-2.1,1.3-3.3,4-3.4,4.2C384.8,231.3,385.9,232.6,385.7,234.6
		L385.7,234.6z"/>
	<path fill="#999999" d="M467.5,203.2c0.9-0.2-0.9-0.6,1.4-0.7c0.2,0,0.4,0,0.6,0c2.9-0.8,6.2-2,5.7-2.1c-0.5-0.1-3.4-0.4-6.3,1
		c-2.9,1.3-1.6,0.9-2.6,1.1c-1,0.2-3.2,1.6-3.9,2.2s-1.7,1-1.7,1s-2.4,0.7-0.2,2.2c2.2,1.5,3.3,2.8,4.9,3.2s3.3,1,3.3,2.6
		c0,1.6-0.3,2.3-1.2,3.4c-0.9,1.1,0.5,1.6,1.7,1s2.2-1,2.9-1.4s2.1-0.4,0.9,0.2c-1.2,0.6-2.4,1-0.9,1s10.6,0.2,12.5-0.4
		s4.4-0.8,4.6-3.3c0,0,0.1-1.1,0.8-1.6c0.7-0.5,1.2-1.5,0.2-0.8c-1,0.7-1.8,1.1-2,0.9s-0.3-0.4,0.5-0.7c0.8-0.4,1.2,0,1.9-1.1
		c0.7-1,0.6-0.9,0.3-1.3c-0.2-0.2-0.5-0.4-0.7-0.6c0,0-0.5-0.5-1.2-0.1s-3.4,1.6-4.5,1.7c-1.1,0.1-2.3,0.6-4.3,1.6s-5.4,3-5.9,1.1
		c0,0-1.5,0.5-1.8,0.7c-2.2,1.1-2-0.5-1.7-0.9c0,0-1.2,1.3-1.1,0.1c0-1.2,0.8-1,2.1-1.4s3.4-1.2,2.5-1.9s-1.8,0.7-2.7,1.1
		c-0.9,0.4-2.8,0.8-3.1-0.6c-0.3-1.4-0.3-2.3-2.9-2.5s-2.5-1.8-1.8-2.4S465,203.6,467.5,203.2L467.5,203.2z"/>
	<path d="M475.6,215.6c0,0,4-1.8,7.7-2.7c3.7-0.9,0.8,0.1,0.2,0.3c-0.6,0.2-6.4,2.1-7.7,2.7C474.4,216.6,474.7,216,475.6,215.6
		L475.6,215.6z M476.6,216.5c0,0,4.5-1.5,5.3-0.9c0.8,0.6,0.2,0.3-0.8,0.5c-1,0.1-3.7,0.6-4.4,0.6
		C475.9,216.6,476.6,216.5,476.6,216.5z M483.8,214.9c0,0,0.9-0.2,0.9,0.2c0.1,0.3-0.4,0.4-0.9,0.3C483.4,215.3,483,215,483.8,214.9
		z"/>
	<path fill="#FFFFFF" d="M364.9,254.1c0,0-0.2-4,1.8-6c2-2,11.7-12.1,13.2-14.9c0,0,1.3,0.9,1.3,2.5c0,0,1.6-2.8,2.9-3.8
		c0,0,1.1,1.2,0.9,3.5c0,0,2.3-1.2,6-1.3c0,0-1.3,1.6-1.4,2.5c0,0,5-0.6,7.6-0.1c0,0-6.9,3.9-5,4.2s4,0,4,0s-2.2,2.2-5.7,2.7
		c0,0,4.4-0.1,5.3,0.9c0,0-4.3,0.7-7.8,3.3c0,0-0.3-0.1-0.3-1.1c0,0-0.1,0.9-1.1,1.7s-3.4,2.6-4.3,3.5c-0.9,0.9-2.5,2.7-4.3,2.6
		c0,0,0.4-1.4-0.9-1.8c-1.3-0.4-2.8-0.1-3.9,1c0,0-4.7,0.1-6.2,0.3c0,0,1.1-1.7,2-1.6c1,0,4.9,0.6,5.2-2.1c0.3-2.7-2.5-2-1.4-3.5
		s0.8-1.5,0.9-1.7c0,0-0.9,0.5-1.4,1.9s-0.9,2.5-2.7,3.9s-2.6,2.3-3.1,3.2C366.5,253.8,365.7,253.9,364.9,254.1z"/>
	<path fill="#FFFFFF" d="M369.4,251.7c0,0,0.2-0.5,1.5-0.8c1.4-0.2,1.4-0.9,1.3-1.2s-1-0.3,0.3-1.8c0,0,0.5,0.1,0.8,0.5
		C373.6,248.9,375.1,252.1,369.4,251.7z"/>
	<path fill="#999999" d="M366.1,248.9c0.1,2.6,3.5,1.7,3.5,1.7c-1.2,0.9-2,1.6-2.5,2.3c0.2-1.3-1.9-1.6-1.9-1.6
		C365.4,250.5,365.7,249.6,366.1,248.9z M378.8,234.9c0.5-0.7,0.9-1.2,1.1-1.6c0,0,1.3,0.9,1.3,2.5c0,0,1.6-2.8,2.9-3.8
		c0,0,1.1,1.2,0.9,3.5c0,0,2.3-1.2,6-1.3c0,0-1.3,1.6-1.4,2.5c0,0,5-0.6,7.6-0.1c0,0-6.9,3.9-5,4.2c1.9,0.3,4,0,4,0
		s-2.2,2.2-5.7,2.7c0,0,4.4-0.1,5.3,0.9c0,0-1.3,0.2-3,0.8c0,0-1.3-1.2-5-1c0,0,2.9-1.6,5.2-2.1c0,0-1-1.3-2.6-0.1
		c0,0-3.1-2.2-0.6-4c0,0-1.8-0.4-3,0.5c0,0,0.1-1.5,1.4-2.1c0,0-3.5-0.6-4.4,2c0,0-0.7-1.1-0.4-2.3c0,0-2.1,1.2-3.1,2.6
		C380.5,238.5,380.2,235.8,378.8,234.9 M372,251.6c-0.6,0.2-1.5,0.2-2.6,0.2c0,0,0.1-0.3,0.8-0.6C370.2,251.1,370.4,251.5,372,251.6
		"/>
	<path d="M378.4,241.6c0,0,1.6,1.3,2.2,2c0,0,1.5-1,2-1.9c0,0,1.1,0.7,1.5,1.9c0,0,0.8-0.6,1-1.3c0,0,2,0.4,2.7,1.1
		c0,0,0.3-1.9,0-3.2c0,0,1.4,0.1,2.3,0.5c0,0-0.8-1.3,3.3-2.9c0,0-3.1,0.7-4.2,2c0,0-1.3,0.1-1.9-0.3c0,0,0.1,2,0,2.9
		c0,0-0.8-0.3-2.3-0.7c0,0-0.4,0.6-0.6,0.8c0,0-1-0.8-1.4-1.7c0,0-1.5,1.3-2.1,1.9C380.8,242.6,379.4,241.6,378.4,241.6L378.4,241.6
		z"/>
	<path fill="#FFC221" d="M369.2,261.6c0,0,0.6,0.3,2.1-0.9c1.5-1.2,5.7-3.9,6.1-6s-1.3-2.3-2.7-1.6c-1.4,0.6-0.8,1.8-0.7,2.2
		s0.1,1.9-2.1,3.9C369.6,261.2,369.2,261.6,369.2,261.6L369.2,261.6z"/>
	<path fill="#FFC221" d="M368.7,262.2c0,0-3.4-1.4-0.3-2.9c3-1.5,4.4-1.9,4.7-3.2c0.3-1.3,0.1-1-1-0.5c-1.1,0.5-5.4,2.5-6,0.7
		c0,0,1.8,0.7,4-0.4s4-1.4,2.6-1.8c-1.4-0.4-6.4,0.1-7.3,0.3s-0.6,0.2-0.8,1c-0.1,0.8-1.1,2.6-1.4,3.1c-0.3,0.5-1.2,2.6,0.4,3.6
		C365.1,263,367.5,263,368.7,262.2z"/>
	<path d="M367.4,254.9c0,0-0.8,0.1-0.6,0.4s0.3,0.3,0.6,0.3s0.7-0.1,0.8-0.3C368.3,255.1,367.7,254.8,367.4,254.9L367.4,254.9z"/>
	<path fill="#FFFFFF" d="M368.5,261.5c0,0-1.6-0.8,0.2-1.7s3.7-1.9,4-2.3C372.7,257.4,371.9,258.6,368.5,261.5L368.5,261.5z"/>
</g>
</svg>
