<?xml version="1.0" encoding="utf-8"?>
<!-- Generator: Adobe Illustrator 28.2.0, SVG Export Plug-In . SVG Version: 6.00 Build 0)  -->
<svg version="1.1" id="aus" xmlns="http://www.w3.org/2000/svg" xmlns:xlink="http://www.w3.org/1999/xlink" x="0px" y="0px"
	 viewBox="0 0 500 500" enable-background="new 0 0 500 500" xml:space="preserve">
<rect fill="#012169" width="500" height="500"/>
<g id="stars">
	<g id="Comwlth" transform="translate(2520, 3780) scale(2.1)">
		<path id="Star7" fill="#FFFFFF" d="M125,274.6l7.2,22.5l22.1-8.4l-13.1,19.7l20.3,12.1l-23.5,2l3.2,23.4L125,328.8l-16.3,17.1
			l3.2-23.4l-23.5-2l20.3-12.1l-13.1-19.7l22.1,8.4L125,274.6z"/>
	</g>
	<g id="αCrucis">
		<path id="Star7_00000080900247598587630260000001946648439407987329_" fill="#FFFFFF" d="M375,315.1l3.4,10.7l10.5-4l-6.2,9.4
			l9.7,5.7l-11.2,1l1.5,11.1l-7.7-8.2l-7.7,8.2l1.5-11.1l-11.2-1l9.7-5.7l-6.2-9.4l10.5,4L375,315.1z"/>
	</g>
	<g id="βCrucis">
		<path id="Star7_00000003821247761998431090000010073412579377706383_" fill="#FFFFFF" d="M312.5,216.1l3.4,10.7l10.5-4l-6.2,9.4
			l9.7,5.7l-11.2,1l1.5,11.1l-7.7-8.2l-7.7,8.2l1.5-11.1l-11.2-1l9.7-5.7l-6.2-9.4l10.5,4L312.5,216.1z"/>
	</g>
	<g id="γCrucis">
		<path id="Star7_00000103225514940970189670000011939726614649507986_" fill="#FFFFFF" d="M375,148.4l3.4,10.7l10.5-4l-6.2,9.4
			l9.7,5.7l-11.2,1l1.5,11.1l-7.7-8.2l-7.7,8.2l1.5-11.1l-11.2-1l9.7-5.7l-6.2-9.4l10.5,4L375,148.4z"/>
	</g>
	<g id="δCrucis">
		<path id="Star7_00000027602134807245594640000003301516410105667255_" fill="#FFFFFF" d="M430.6,199.5l3.4,10.7l10.5-4l-6.2,9.4
			l9.7,5.7l-11.2,1l1.5,11.1l-7.7-8.2l-7.7,8.2l1.5-11.1l-11.2-1l9.7-5.7l-6.2-9.4l10.5,4L430.6,199.5z"/>
	</g>
	<g id="εCrucis">
		<path id="Star5" fill="#FFFFFF" d="M400,249.6l2.7,6.7l7.2,0.5l-5.5,4.6l1.7,7l-6.1-3.8l-6.1,3.8l1.7-7l-5.5-4.6l7.2-0.5
			L400,249.6z"/>
	</g>
</g>
<g id="symbol">
	<polygon fill="#FFFFFF" points="225.1,103.3 130.2,56.4 103.6,69.5 203,118.6 225.1,118.6 225.1,118.6 	"/>
	<polygon fill="#FFFFFF" points="138.1,61.6 225.1,18.6 225.1,0.3 208.9,0.3 111.6,48.5 	"/>
	<rect y="44.5" fill="#FFFFFF" width="225.1" height="24.9"/>
	<rect y="49.9" fill="#E4002B" width="225.1" height="14.1"/>
	<polygon fill="#FFFFFF" points="114.2,45.9 22.1,0.3 0,0.3 0,15.7 87.6,59 	"/>
	<polygon fill="#E4002B" points="103.1,51.3 0,0.3 0,0.3 0,10 93.4,56.1 	"/>
	<polygon fill="#E4002B" points="127.1,56.1 225.1,7.7 225.1,0.3 220.5,0.3 117.3,51.3 	"/>
	<polygon fill="#FFFFFF" points="90.2,56.4 0,101 0,118.6 17.5,118.6 116.8,69.5 	"/>
	<polygon fill="#E4002B" points="124.5,59.3 114.7,64.1 225.1,118.6 225.1,109 	"/>
	<polygon fill="none" points="225.1,118.6 225.1,118.6 225.1,118.6 	"/>
	<polygon fill="#E4002B" points="101.3,61.9 0,111.9 0,118.6 5.9,118.6 111,66.7 	"/>
	
		<rect x="51.5" y="34.4" transform="matrix(-1.836970e-16 1 -1 -1.836970e-16 169.118 -51.475)" fill="#FFFFFF" width="117.6" height="48.8"/>
	
		<rect x="51.6" y="45.2" transform="matrix(-1.836970e-16 1 -1 -1.836970e-16 169.2854 -51.3076)" fill="#E4002B" width="117.3" height="27.5"/>
</g>
</svg>
